<svg id="egxu0px176bk1" xmlns="http://www.w3.org/2000/svg" xmlns:xlink="http://www.w3.org/1999/xlink" viewBox="0 0 560 512" shape-rendering="geometricPrecision" text-rendering="geometricPrecision" width="560" height="512"><style><![CDATA[#egxu0px176bk2_to {animation: egxu0px176bk2_to__to 8000ms linear infinite reverse forwards}@keyframes egxu0px176bk2_to__to { 0% {transform: translate(943.116624px,234.400391px)} 12.500000% {transform: translate(943.116624px,234.400391px);animation-timing-function: cubic-bezier(0.420000,0,1,1)} 50% {transform: translate(-317.537739px,234.400391px);animation-timing-function: cubic-bezier(0.420000,0,1,1)} 75% {transform: translate(-947.820666px,234.400391px)} 100% {transform: translate(-947.820666px,234.400391px)} }#egxu0px176bk2 {animation: egxu0px176bk2_c_o 8000ms linear infinite reverse forwards}@keyframes egxu0px176bk2_c_o { 0% {opacity: 0} 12.500000% {opacity: 1} 75% {opacity: 1} 87.500000% {opacity: 0} 100% {opacity: 0} }#egxu0px176bk12_to {animation: egxu0px176bk12_to__to 8000ms linear infinite reverse forwards}@keyframes egxu0px176bk12_to__to { 0% {transform: translate(943.114781px,133.400391px)} 12.500000% {transform: translate(943.114781px,133.400391px);animation-timing-function: cubic-bezier(0.420000,0,1,1)} 50% {transform: translate(-317.539582px,133.400391px);animation-timing-function: cubic-bezier(0.420000,0,1,1)} 75% {transform: translate(-1157.528990px,133.400391px)} 100% {transform: translate(-1157.528990px,133.400391px)} }#egxu0px176bk12 {animation: egxu0px176bk12_c_o 8000ms linear infinite reverse forwards}@keyframes egxu0px176bk12_c_o { 0% {opacity: 0} 12.500000% {opacity: 1} 75% {opacity: 1} 87.500000% {opacity: 0} 100% {opacity: 0} }#egxu0px176bk22_to {animation: egxu0px176bk22_to__to 8000ms linear infinite reverse forwards}@keyframes egxu0px176bk22_to__to { 0% {transform: translate(943.280401px,336.920000px)} 12.500000% {transform: translate(943.280401px,336.920000px);animation-timing-function: cubic-bezier(0.420000,0,1,1)} 50% {transform: translate(-317.373963px,336.920000px);animation-timing-function: cubic-bezier(0.420000,0,1,1)} 75% {transform: translate(-1157.363370px,336.920000px)} 100% {transform: translate(-1157.363370px,336.920000px)} }#egxu0px176bk22 {animation: egxu0px176bk22_c_o 8000ms linear infinite reverse forwards}@keyframes egxu0px176bk22_c_o { 0% {opacity: 0} 12.500000% {opacity: 1} 75% {opacity: 1} 87.500000% {opacity: 0} 100% {opacity: 0} }]]></style><g id="egxu0px176bk2_to" transform="translate(-947.820666,234.400391)"><g id="egxu0px176bk2" transform="translate(-337.861328,-234.400391)" opacity="0"><g id="egxu0px176bk3"><g id="egxu0px176bk4"><path id="egxu0px176bk5" d="M116.300000,249.600000C143.300000,275.600000,173.800000,305,232.900000,305C292,305,322.600000,275.600000,349.500000,249.600000C375,225,397,203.800000,442.900000,203.800000C488.800000,203.800000,510.800000,225,536.300000,249.600000C543.800000,256.800000,555,255.800000,561.400000,247.400000C567.800000,239,566.900000,226.400000,559.500000,219.200000C532.500000,193.200000,502,163.800000,442.900000,163.800000C383.800000,163.800000,353.200000,193.200000,326.300000,219.200000C300.800000,243.800000,278.800000,265,232.900000,265C187,265,165,243.800000,139.500000,219.200000C132,212,120.800000,213,114.400000,221.400000C107.900000,229.800000,108.800000,242.400000,116.300000,249.600000Z" transform="matrix(1 0 0 1 1914.14429900000005 1.69462099999996)" fill="rgb(8,175,238)" stroke="none" stroke-width="1"/><path id="egxu0px176bk6" d="M116.300000,249.600000C143.300000,275.600000,173.800000,305,232.900000,305C292,305,322.600000,275.600000,349.500000,249.600000C375,225,397,203.800000,442.900000,203.800000C488.800000,203.800000,510.800000,225,536.300000,249.600000C543.800000,256.800000,555,255.800000,561.400000,247.400000C567.800000,239,566.900000,226.400000,559.500000,219.200000C532.500000,193.200000,502,163.800000,442.900000,163.800000C383.800000,163.800000,353.200000,193.200000,326.300000,219.200000C300.800000,243.800000,278.800000,265,232.900000,265C187,265,165,243.800000,139.500000,219.200000C132,212,120.800000,213,114.400000,221.400000C107.900000,229.800000,108.800000,242.400000,116.300000,249.600000Z" transform="matrix(1 0 0 1 1074.42041799999947 1.69462099999996)" fill="rgb(8,175,238)" stroke="none" stroke-width="1"/><path id="egxu0px176bk7" d="M116.300000,249.600000C143.300000,275.600000,173.800000,305,232.900000,305C292,305,322.600000,275.600000,349.500000,249.600000C375,225,397,203.800000,442.900000,203.800000C488.800000,203.800000,510.800000,225,536.300000,249.600000C543.800000,256.800000,555,255.800000,561.400000,247.400000C567.800000,239,566.900000,226.400000,559.500000,219.200000C532.500000,193.200000,502,163.800000,442.900000,163.800000C383.800000,163.800000,353.200000,193.200000,326.300000,219.200000C300.800000,243.800000,278.800000,265,232.900000,265C187,265,165,243.800000,139.500000,219.200000C132,212,120.800000,213,114.400000,221.400000C107.900000,229.800000,108.800000,242.400000,116.300000,249.600000Z" transform="matrix(1 0 0 1 234.42975899999954 1.69462099999996)" fill="rgb(8,175,238)" stroke="none" stroke-width="1"/><path id="egxu0px176bk8" d="M116.300000,249.600000C143.300000,275.600000,173.800000,305,232.900000,305C292,305,322.600000,275.600000,349.500000,249.600000C375,225,397,203.800000,442.900000,203.800000C488.800000,203.800000,510.800000,225,536.300000,249.600000C543.800000,256.800000,555,255.800000,561.400000,247.400000C567.800000,239,566.900000,226.400000,559.500000,219.200000C532.500000,193.200000,502,163.800000,442.900000,163.800000C383.800000,163.800000,353.200000,193.200000,326.300000,219.200000C300.800000,243.800000,278.800000,265,232.900000,265C187,265,165,243.800000,139.500000,219.200000C132,212,120.800000,213,114.400000,221.400000C107.900000,229.800000,108.800000,242.400000,116.300000,249.600000Z" transform="matrix(1 0 0 1 1494.30201800000032 1.69462099999996)" fill="rgb(8,175,238)" stroke="none" stroke-width="1"/><path id="egxu0px176bk9" d="M116.300000,249.600000C143.300000,275.600000,173.800000,305,232.900000,305C292,305,322.600000,275.600000,349.500000,249.600000C375,225,397,203.800000,442.900000,203.800000C488.800000,203.800000,510.800000,225,536.300000,249.600000C543.800000,256.800000,555,255.800000,561.400000,247.400000C567.800000,239,566.900000,226.400000,559.500000,219.200000C532.500000,193.200000,502,163.800000,442.900000,163.800000C383.800000,163.800000,353.200000,193.200000,326.300000,219.200000C300.800000,243.800000,278.800000,265,232.900000,265C187,265,165,243.800000,139.500000,219.200000C132,212,120.800000,213,114.400000,221.400000C107.900000,229.800000,108.800000,242.400000,116.300000,249.600000Z" transform="matrix(1 0 0 1 654.57813700000008 1.69462099999996)" fill="rgb(8,175,238)" stroke="none" stroke-width="1"/><path id="egxu0px176bk10" d="M116.300000,249.600000C143.300000,275.600000,173.800000,305,232.900000,305C292,305,322.600000,275.600000,349.500000,249.600000C375,225,397,203.800000,442.900000,203.800000C488.800000,203.800000,510.800000,225,536.300000,249.600000C543.800000,256.800000,555,255.800000,561.400000,247.400000C567.800000,239,566.900000,226.400000,559.500000,219.200000C532.500000,193.200000,502,163.800000,442.900000,163.800000C383.800000,163.800000,353.200000,193.200000,326.300000,219.200000C300.800000,243.800000,278.800000,265,232.900000,265C187,265,165,243.800000,139.500000,219.200000C132,212,120.800000,213,114.400000,221.400000C107.900000,229.800000,108.800000,242.400000,116.300000,249.600000Z" transform="matrix(1 0 0 1 -185.41252199999988 1.69462099999996)" fill="rgb(8,175,238)" stroke="none" stroke-width="1"/><path id="egxu0px176bk11" d="M116.300000,249.600000C143.300000,275.600000,173.800000,305,232.900000,305C292,305,322.600000,275.600000,349.500000,249.600000C375,225,397,203.800000,442.900000,203.800000C488.800000,203.800000,510.800000,225,536.300000,249.600000C543.800000,256.800000,555,255.800000,561.400000,247.400000C567.800000,239,566.900000,226.400000,559.500000,219.200000C532.500000,193.200000,502,163.800000,442.900000,163.800000C383.800000,163.800000,353.200000,193.200000,326.300000,219.200000C300.800000,243.800000,278.800000,265,232.900000,265C187,265,165,243.800000,139.500000,219.200000C132,212,120.800000,213,114.400000,221.400000C107.900000,229.800000,108.800000,242.400000,116.300000,249.600000Z" transform="matrix(1 0 0 1 -605.67798671000014 1.69462099999996)" fill="rgb(8,175,238)" stroke="none" stroke-width="1"/></g></g></g></g><g id="egxu0px176bk12_to" transform="translate(-1157.528990,133.400391)"><g id="egxu0px176bk12" transform="translate(-337.861328,-134.400391)" opacity="0"><g id="egxu0px176bk13"><g id="egxu0px176bk14"><path id="egxu0px176bk15" d="M116.300000,149.600000C143.300000,175.600000,173.800000,205,232.900000,205C292,205,322.600000,175.600000,349.500000,149.600000C375,125,397,103.800000,442.900000,103.800000C488.800000,103.800000,510.800000,125,536.300000,149.600000C543.800000,156.800000,555,155.800000,561.400000,147.400000C567.800000,139,566.900000,126.400000,559.500000,119.200000C532.500000,93.200000,502,63.800000,442.900000,63.800000C383.800000,63.800000,353.200000,93.200000,326.300000,119.200000C300.800000,143.800000,278.800000,165,232.900000,165C187,165,165,143.800000,139.500000,119.200000C132,112,120.800000,113,114.400000,121.400000C107.900000,129.800000,108.800000,142.400000,116.300000,149.600000Z" transform="matrix(1 0 0 1 1914.14429900000005 1.69462099999996)" fill="rgb(8,175,238)" stroke="none" stroke-width="1"/><path id="egxu0px176bk16" d="M116.300000,149.600000C143.300000,175.600000,173.800000,205,232.900000,205C292,205,322.600000,175.600000,349.500000,149.600000C375,125,397,103.800000,442.900000,103.800000C488.800000,103.800000,510.800000,125,536.300000,149.600000C543.800000,156.800000,555,155.800000,561.400000,147.400000C567.800000,139,566.900000,126.400000,559.500000,119.200000C532.500000,93.200000,502,63.800000,442.900000,63.800000C383.800000,63.800000,353.200000,93.200000,326.300000,119.200000C300.800000,143.800000,278.800000,165,232.900000,165C187,165,165,143.800000,139.500000,119.200000C132,112,120.800000,113,114.400000,121.400000C107.900000,129.800000,108.800000,142.400000,116.300000,149.600000Z" transform="matrix(1 0 0 1 1074.42041799999947 1.69462099999996)" fill="rgb(8,175,238)" stroke="none" stroke-width="1"/><path id="egxu0px176bk17" d="M116.300000,149.600000C143.300000,175.600000,173.800000,205,232.900000,205C292,205,322.600000,175.600000,349.500000,149.600000C375,125,397,103.800000,442.900000,103.800000C488.800000,103.800000,510.800000,125,536.300000,149.600000C543.800000,156.800000,555,155.800000,561.400000,147.400000C567.800000,139,566.900000,126.400000,559.500000,119.200000C532.500000,93.200000,502,63.800000,442.900000,63.800000C383.800000,63.800000,353.200000,93.200000,326.300000,119.200000C300.800000,143.800000,278.800000,165,232.900000,165C187,165,165,143.800000,139.500000,119.200000C132,112,120.800000,113,114.400000,121.400000C107.900000,129.800000,108.800000,142.400000,116.300000,149.600000Z" transform="matrix(1 0 0 1 234.42975899999954 1.69462099999996)" fill="rgb(8,175,238)" stroke="none" stroke-width="1"/><path id="egxu0px176bk18" d="M116.300000,149.600000C143.300000,175.600000,173.800000,205,232.900000,205C292,205,322.600000,175.600000,349.500000,149.600000C375,125,397,103.800000,442.900000,103.800000C488.800000,103.800000,510.800000,125,536.300000,149.600000C543.800000,156.800000,555,155.800000,561.400000,147.400000C567.800000,139,566.900000,126.400000,559.500000,119.200000C532.500000,93.200000,502,63.800000,442.900000,63.800000C383.800000,63.800000,353.200000,93.200000,326.300000,119.200000C300.800000,143.800000,278.800000,165,232.900000,165C187,165,165,143.800000,139.500000,119.200000C132,112,120.800000,113,114.400000,121.400000C107.900000,129.800000,108.800000,142.400000,116.300000,149.600000Z" transform="matrix(1 0 0 1 1494.30201800000032 1.69462099999996)" fill="rgb(8,175,238)" stroke="none" stroke-width="1"/><path id="egxu0px176bk19" d="M116.300000,149.600000C143.300000,175.600000,173.800000,205,232.900000,205C292,205,322.600000,175.600000,349.500000,149.600000C375,125,397,103.800000,442.900000,103.800000C488.800000,103.800000,510.800000,125,536.300000,149.600000C543.800000,156.800000,555,155.800000,561.400000,147.400000C567.800000,139,566.900000,126.400000,559.500000,119.200000C532.500000,93.200000,502,63.800000,442.900000,63.800000C383.800000,63.800000,353.200000,93.200000,326.300000,119.200000C300.800000,143.800000,278.800000,165,232.900000,165C187,165,165,143.800000,139.500000,119.200000C132,112,120.800000,113,114.400000,121.400000C107.900000,129.800000,108.800000,142.400000,116.300000,149.600000Z" transform="matrix(1 0 0 1 654.57813700000008 1.69462099999996)" fill="rgb(8,175,238)" stroke="none" stroke-width="1"/><path id="egxu0px176bk20" d="M116.300000,149.600000C143.300000,175.600000,173.800000,205,232.900000,205C292,205,322.600000,175.600000,349.500000,149.600000C375,125,397,103.800000,442.900000,103.800000C488.800000,103.800000,510.800000,125,536.300000,149.600000C543.800000,156.800000,555,155.800000,561.400000,147.400000C567.800000,139,566.900000,126.400000,559.500000,119.200000C532.500000,93.200000,502,63.800000,442.900000,63.800000C383.800000,63.800000,353.200000,93.200000,326.300000,119.200000C300.800000,143.800000,278.800000,165,232.900000,165C187,165,165,143.800000,139.500000,119.200000C132,112,120.800000,113,114.400000,121.400000C107.900000,129.800000,108.800000,142.400000,116.300000,149.600000Z" transform="matrix(1 0 0 1 -185.41252199999988 1.69462099999996)" fill="rgb(8,175,238)" stroke="none" stroke-width="1"/><path id="egxu0px176bk21" d="M116.300000,149.600000C143.300000,175.600000,173.800000,205,232.900000,205C292,205,322.600000,175.600000,349.500000,149.600000C375,125,397,103.800000,442.900000,103.800000C488.800000,103.800000,510.800000,125,536.300000,149.600000C543.800000,156.800000,555,155.800000,561.400000,147.400000C567.800000,139,566.900000,126.400000,559.500000,119.200000C532.500000,93.200000,502,63.800000,442.900000,63.800000C383.800000,63.800000,353.200000,93.200000,326.300000,119.200000C300.800000,143.800000,278.800000,165,232.900000,165C187,165,165,143.800000,139.500000,119.200000C132,112,120.800000,113,114.400000,121.400000C107.900000,129.800000,108.800000,142.400000,116.300000,149.600000Z" transform="matrix(1 0 0 1 -605.31388800000013 1.69462099999993)" fill="rgb(8,175,238)" stroke="none" stroke-width="1"/></g></g></g></g><g id="egxu0px176bk22_to" transform="translate(-1157.363370,336.920000)"><g id="egxu0px176bk22" transform="translate(-340.800781,-334)" opacity="0"><g id="egxu0px176bk23"><g id="egxu0px176bk24"><path id="egxu0px176bk25" d="M119.200000,349.200000C146.200000,375.200000,176.700000,404.600000,235.800000,404.600000C294.900000,404.600000,325.500000,375.200000,352.400000,349.200000C377.900000,324.600000,399.900000,303.400000,445.800000,303.400000C491.700000,303.400000,513.700000,324.600000,539.200000,349.200000C546.700000,356.400000,557.900000,355.400000,564.300000,347C570.700000,338.600000,569.800000,326,562.400000,318.800000C535.400000,292.800000,504.900000,263.400000,445.800000,263.400000C386.700000,263.400000,356.100000,292.800000,329.200000,318.800000C303.700000,343.400000,281.700000,364.600000,235.800000,364.600000C189.900000,364.600000,167.900000,343.400000,142.400000,318.800000C134.900000,311.600000,123.700000,312.600000,117.300000,321C110.900000,329.400000,111.800000,342,119.200000,349.200000Z" transform="matrix(1 0 0 1 1914.14429900000005 0.09999999999968)" fill="rgb(8,175,238)" stroke="none" stroke-width="1"/><path id="egxu0px176bk26" d="M119.200000,349.200000C146.200000,375.200000,176.700000,404.600000,235.800000,404.600000C294.900000,404.600000,325.500000,375.200000,352.400000,349.200000C377.900000,324.600000,399.900000,303.400000,445.800000,303.400000C491.700000,303.400000,513.700000,324.600000,539.200000,349.200000C546.700000,356.400000,557.900000,355.400000,564.300000,347C570.700000,338.600000,569.800000,326,562.400000,318.800000C535.400000,292.800000,504.900000,263.400000,445.800000,263.400000C386.700000,263.400000,356.100000,292.800000,329.200000,318.800000C303.700000,343.400000,281.700000,364.600000,235.800000,364.600000C189.900000,364.600000,167.900000,343.400000,142.400000,318.800000C134.900000,311.600000,123.700000,312.600000,117.300000,321C110.900000,329.400000,111.800000,342,119.200000,349.200000Z" transform="matrix(1 0 0 1 1074.42041799999947 0.09999999999968)" fill="rgb(8,175,238)" stroke="none" stroke-width="1"/><path id="egxu0px176bk27" d="M119.200000,349.200000C146.200000,375.200000,176.700000,404.600000,235.800000,404.600000C294.900000,404.600000,325.500000,375.200000,352.400000,349.200000C377.900000,324.600000,399.900000,303.400000,445.800000,303.400000C491.700000,303.400000,513.700000,324.600000,539.200000,349.200000C546.700000,356.400000,557.900000,355.400000,564.300000,347C570.700000,338.600000,569.800000,326,562.400000,318.800000C535.400000,292.800000,504.900000,263.400000,445.800000,263.400000C386.700000,263.400000,356.100000,292.800000,329.200000,318.800000C303.700000,343.400000,281.700000,364.600000,235.800000,364.600000C189.900000,364.600000,167.900000,343.400000,142.400000,318.800000C134.900000,311.600000,123.700000,312.600000,117.300000,321C110.900000,329.400000,111.800000,342,119.200000,349.200000Z" transform="matrix(1 0 0 1 234.42975899999954 0.09999999999968)" fill="rgb(8,175,238)" stroke="none" stroke-width="1"/><path id="egxu0px176bk28" d="M119.200000,349.200000C146.200000,375.200000,176.700000,404.600000,235.800000,404.600000C294.900000,404.600000,325.500000,375.200000,352.400000,349.200000C377.900000,324.600000,399.900000,303.400000,445.800000,303.400000C491.700000,303.400000,513.700000,324.600000,539.200000,349.200000C546.700000,356.400000,557.900000,355.400000,564.300000,347C570.700000,338.600000,569.800000,326,562.400000,318.800000C535.400000,292.800000,504.900000,263.400000,445.800000,263.400000C386.700000,263.400000,356.100000,292.800000,329.200000,318.800000C303.700000,343.400000,281.700000,364.600000,235.800000,364.600000C189.900000,364.600000,167.900000,343.400000,142.400000,318.800000C134.900000,311.600000,123.700000,312.600000,117.300000,321C110.900000,329.400000,111.800000,342,119.200000,349.200000Z" transform="matrix(1 0 0 1 1494.30201800000032 0.09999999999991)" fill="rgb(8,175,238)" stroke="none" stroke-width="1"/><path id="egxu0px176bk29" d="M119.200000,349.200000C146.200000,375.200000,176.700000,404.600000,235.800000,404.600000C294.900000,404.600000,325.500000,375.200000,352.400000,349.200000C377.900000,324.600000,399.900000,303.400000,445.800000,303.400000C491.700000,303.400000,513.700000,324.600000,539.200000,349.200000C546.700000,356.400000,557.900000,355.400000,564.300000,347C570.700000,338.600000,569.800000,326,562.400000,318.800000C535.400000,292.800000,504.900000,263.400000,445.800000,263.400000C386.700000,263.400000,356.100000,292.800000,329.200000,318.800000C303.700000,343.400000,281.700000,364.600000,235.800000,364.600000C189.900000,364.600000,167.900000,343.400000,142.400000,318.800000C134.900000,311.600000,123.700000,312.600000,117.300000,321C110.900000,329.400000,111.800000,342,119.200000,349.200000Z" transform="matrix(1 0 0 1 654.57813700000008 0.09999999999991)" fill="rgb(8,175,238)" stroke="none" stroke-width="1"/><path id="egxu0px176bk30" d="M119.200000,349.200000C146.200000,375.200000,176.700000,404.600000,235.800000,404.600000C294.900000,404.600000,325.500000,375.200000,352.400000,349.200000C377.900000,324.600000,399.900000,303.400000,445.800000,303.400000C491.700000,303.400000,513.700000,324.600000,539.200000,349.200000C546.700000,356.400000,557.900000,355.400000,564.300000,347C570.700000,338.600000,569.800000,326,562.400000,318.800000C535.400000,292.800000,504.900000,263.400000,445.800000,263.400000C386.700000,263.400000,356.100000,292.800000,329.200000,318.800000C303.700000,343.400000,281.700000,364.600000,235.800000,364.600000C189.900000,364.600000,167.900000,343.400000,142.400000,318.800000C134.900000,311.600000,123.700000,312.600000,117.300000,321C110.900000,329.400000,111.800000,342,119.200000,349.200000Z" transform="matrix(1 0 0 1 -185.41252199999988 0.09999999999991)" fill="rgb(8,175,238)" stroke="none" stroke-width="1"/><path id="egxu0px176bk31" d="M119.200000,349.200000C146.200000,375.200000,176.700000,404.600000,235.800000,404.600000C294.900000,404.600000,325.500000,375.200000,352.400000,349.200000C377.900000,324.600000,399.900000,303.400000,445.800000,303.400000C491.700000,303.400000,513.700000,324.600000,539.200000,349.200000C546.700000,356.400000,557.900000,355.400000,564.300000,347C570.700000,338.600000,569.800000,326,562.400000,318.800000C535.400000,292.800000,504.900000,263.400000,445.800000,263.400000C386.700000,263.400000,356.100000,292.800000,329.200000,318.800000C303.700000,343.400000,281.700000,364.600000,235.800000,364.600000C189.900000,364.600000,167.900000,343.400000,142.400000,318.800000C134.900000,311.600000,123.700000,312.600000,117.300000,321C110.900000,329.400000,111.800000,342,119.200000,349.200000Z" transform="matrix(1 0 0 1 -605.31388800000013 0.09999999999991)" fill="rgb(8,175,238)" stroke="none" stroke-width="1"/></g></g></g></g><rect id="egxu0px176bk32" width="140.300000" height="512" rx="0" ry="0" transform="matrix(1 0 0 1 0 -0.00000000000006)" fill="rgb(255,255,255)" stroke="none" stroke-width="1"/><path id="egxu0px176bk33" d="M218.600000,427.200000L110,472.100000C98,477.100000,84.800000,468.200000,84.800000,455.200000L84.800000,40.400000C84.800000,27.400000,98,18.500000,110,23.500000L218.600000,68.400000C225.400000,71.200000,229.900000,77.900000,229.900000,85.300000L229.900000,410.300000C229.900000,417.700000,225.400000,424.400000,218.600000,427.200000Z" fill="none" stroke="rgb(8,175,238)" stroke-width="35" stroke-miterlimit="10"/></svg>