<svg version="1.1" id="el_zhG15uipb" xmlns="http://www.w3.org/2000/svg"
     x="0px" y="0px" viewBox="0 0 226 226" style="enable-background:new 0 0 226.8 226.8;" xml:space="preserve"><style>@-webkit-keyframes kf_el_x1LS81Xn-Z_an_2CwVa8IPC{
0%{-webkit-transform: translate(113.30078125px, 113.55078125px) rotate(0deg) translate(-113.30078125px, -113.55078125px);transform: translate(113.30078125px, 113.55078125px) rotate(0deg) translate(-113.30078125px, -113.55078125px);}
80%{-webkit-transform: translate(113.30078125px, 113.55078125px) rotate(720deg) translate(-113.30078125px, -113.55078125px);transform: translate(113.30078125px, 113.55078125px) rotate(720deg) translate(-113.30078125px, -113.55078125px);}
100%{-webkit-transform: translate(113.30078125px, 113.55078125px) rotate(720deg) translate(-113.30078125px, -113.55078125px);transform: translate(113.30078125px, 113.55078125px) rotate(720deg) translate(-113.30078125px, -113.55078125px);}}
@keyframes kf_el_x1LS81Xn-Z_an_2CwVa8IPC{
0%{-webkit-transform: translate(113.30078125px, 113.55078125px) rotate(0deg) translate(-113.30078125px, -113.55078125px);transform: translate(113.30078125px, 113.55078125px) rotate(0deg) translate(-113.30078125px, -113.55078125px);}
80%{-webkit-transform: translate(113.30078125px, 113.55078125px) rotate(720deg) translate(-113.30078125px, -113.55078125px);transform: translate(113.30078125px, 113.55078125px) rotate(720deg) translate(-113.30078125px, -113.55078125px);}
100%{-webkit-transform: translate(113.30078125px, 113.55078125px) rotate(720deg) translate(-113.30078125px, -113.55078125px);transform: translate(113.30078125px, 113.55078125px) rotate(720deg) translate(-113.30078125px, -113.55078125px);}}
#el_zhG15uipb *{-webkit-animation-duration: 5s;animation-duration: 5s;-webkit-animation-iteration-count: infinite;animation-iteration-count: infinite;-webkit-animation-timing-function: cubic-bezier(0, 0, 1, 1);animation-timing-function: cubic-bezier(0, 0, 1, 1);}
#el_x1LS81Xn-Z{fill: #009ADA;}
#el_x1LS81Xn-Z_an_2CwVa8IPC{-webkit-animation-fill-mode: backwards;animation-fill-mode: backwards;-webkit-transform: translate(113.30078125px, 113.55078125px) rotate(0deg) translate(-113.30078125px, -113.55078125px);transform: translate(113.30078125px, 113.55078125px) rotate(0deg) translate(-113.30078125px, -113.55078125px);-webkit-animation-name: kf_el_x1LS81Xn-Z_an_2CwVa8IPC;animation-name: kf_el_x1LS81Xn-Z_an_2CwVa8IPC;-webkit-animation-timing-function: cubic-bezier(0.42, 0, 0.58, 1);animation-timing-function: cubic-bezier(0.42, 0, 0.58, 1);}</style>

    <g id="el_RApg5ymk_W">
	<g id="el_x1LS81Xn-Z_an_2CwVa8IPC" data-animator-group="true" data-animator-type="1"><path d="M25.2,180.4c6.5-1.8,12.8-3.5,19.3-5.3c2.4-0.7,4.3-1.9,6-3.6c7-6.8,14.3-13.5,21.4-20.3&#xA;&#9;&#9;c10.8-10.1,21.6-20.2,32.4-30.3c0.4-0.4,0.9-0.8,1.3-1.2c-0.1-0.1-0.2-0.2-0.2-0.3c-1.2,0.5-2.4,1.2-3.5,1.8&#xA;&#9;&#9;c-23.2,13-46.4,25.9-69.5,39.1c-3.2,1.9-5.8,2.2-8.8-0.2c-3.4-2.7-6.9-5.4-10.3-8.1c-1.4-1.1-3-2.2-4.4-3.4c-0.5-0.5-1-1.2-1.9-2.3&#xA;&#9;&#9;c5.3,0.4,10,0.8,14.6,1.2c2.1,0.2,4.1,0.3,6.1,0.5c2.3,0.2,4.4-0.3,6.6-1.3c11.4-5.1,23.1-10,34.6-14.9&#xA;&#9;&#9;c11.1-4.7,22.2-9.4,33.3-14.2c0.5-0.2,1.2-0.5,1.6-1.2c-4.1,0.5-8,1.2-12.1,1.8c-19.9,3.2-39.9,6.4-59.7,9.6&#xA;&#9;&#9;c-4.2,0.7-8.5,1.5-12.6,2.3c-2.3,0.4-4.1-0.2-5.3-2.1c-2.7-4.3-5.5-8.6-8.2-12.8c-0.9-1.4-1.9-2.9-2.7-4.4&#xA;&#9;&#9;c-0.3-0.7-0.5-1.4-0.9-2.1c0.1-0.1,0.2-0.2,0.4-0.3c0.5,0.2,1.2,0.4,1.8,0.8c5.3,2.4,10.5,4.8,15.8,7.4c2.5,1.2,4.9,1.6,7.8,1.4&#xA;&#9;&#9;c8.5-0.7,16.9-1.1,25.4-1.5c16.5-0.9,33-1.8,49.5-2.7c0.2,0,0.3-0.1,0.5-0.4c-1.8-0.4-3.5-0.9-5.3-1.2&#xA;&#9;&#9;c-23.2-4.5-46.2-8.9-69.4-13.4c-3.1-0.5-6.3-1.1-9.3-1.5c-2.4-0.3-4-1.8-4.5-4.1c-1.2-5.2-2.3-10.2-3.4-15.4&#xA;&#9;&#9;c-0.3-1.4-0.7-2.9-1-4.4c-0.1-0.8,0-1.5,0-2.3c0.1-0.1,0.3-0.1,0.4-0.2c0.4,0.4,1,0.9,1.4,1.3C17,76.2,21.4,80.7,26,85&#xA;&#9;&#9;c1.3,1.3,3.2,2.3,5.1,2.9c12.4,3.8,24.8,7.5,37.2,11.2c11.9,3.5,23.6,7.1,35.5,10.8c0.2,0.1,0.4,0.1,0.8-0.1&#xA;&#9;&#9;c-1.6-1-3.2-2.1-4.9-3.1c-22.6-13.5-45.2-26.9-68-40.3c-2.7-1.6-4.1-3.6-3.6-6.8c0.8-5.5,1.5-11,2.4-16.5c0.2-1.5,0.5-3.2,0.8-4.7&#xA;&#9;&#9;c0.2,0,0.4,0,0.8,0c0.3,0.5,0.5,1.1,0.9,1.8c2.6,5.7,5.4,11.4,8.1,17.1c0.7,1.3,1.5,2.6,2.6,3.5c10.6,8,21.4,15.8,32.1,23.8&#xA;&#9;&#9;c9.8,7.2,19.4,14.5,29.1,21.8c0.4,0.3,0.8,0.5,1.4,0.7c-0.8-1-1.4-2-2.2-3C87.1,83.6,70.5,62.9,53.4,42.5c-2.5-3.1-3.5-5.8-1.4-9.4&#xA;&#9;&#9;c2.7-4.8,5.3-9.7,7.9-14.5c0.7-1.2,1.3-2.3,2.1-3.5c0.2,0.1,0.4,0.1,0.7,0.2c0.2,2.1,0.4,4.2,0.7,6.1c0.4,5.2,0.9,10.3,1.4,15.5&#xA;&#9;&#9;c0.1,1.1,0.4,2.2,1.1,3.1c10.8,16.5,21.6,32.9,32.5,49.4c3.1,4.7,6.1,9.4,9.2,14.2c0.3,0.5,0.8,1.1,1.4,1.5c-0.7-2-1.2-3.8-1.9-5.8&#xA;&#9;&#9;C99.1,76.1,91,52.9,83,29.8c-0.7-2-1.4-4-2.2-5.9c-0.8-2-0.4-3.8,1.1-5.3c2.9-2.7,5.6-5.4,8.5-8c2.2-2.1,4.5-4.1,6.8-6&#xA;&#9;&#9;c0.5-0.4,1.2-0.8,2.2-1.3c-0.1,0.9-0.1,1.3-0.2,1.8c-1.6,6.4-3.4,12.7-5.1,19.2c-0.3,1.3-0.4,2.9-0.1,4.2c3,12.7,6,25.4,9.1,38.1&#xA;&#9;&#9;c2.9,12.3,5.7,24.6,8.6,36.8c0,0.2,0.1,0.4,0.5,0.7c0-0.7,0.1-1.2,0.1-1.9c0.3-27.1,0.8-54.3,1.1-81.5c0-0.8,0-1.5,0-2.2&#xA;&#9;&#9;c-0.1-2.3,0.9-4,3-4.8c2.6-1.2,5.3-2.4,8-3.5c3.6-1.5,7.4-3,11-4.4c0.7-0.2,1.5-0.2,2.7-0.3c-1.4,2-2.4,3.5-3.5,5.1&#xA;&#9;&#9;c-2.9,4.1-5.7,8.2-8.6,12.3c-1.2,1.6-1.6,3.4-1.9,5.5c-0.8,7.9-1.8,15.7-2.6,23.6c-1.5,13-3.1,25.9-4.6,38.9&#xA;&#9;&#9;c-0.5,4.4-1.1,8.8-1.2,13.4c0.7-1.5,1.3-3.1,2-4.7c9.3-24.7,18.7-49.3,27.9-74.1c1.2-3.3,3.2-4.8,6.5-4.9c3.5-0.1,7-0.2,10.5-0.4&#xA;&#9;&#9;c2.7-0.1,5.6-0.2,8.3-0.3c0.8,0,1.5,0.3,2.7,0.5c-0.8,0.7-1.2,1-1.6,1.3c-5.2,3.7-10.4,7.4-15.6,11c-1.6,1.2-2.7,2.6-3.7,4.5&#xA;&#9;&#9;c-5.8,11.7-11.6,23.4-17.5,35c-5.4,10.6-10.8,21.2-16,31.7c-0.2,0.5-0.5,1.1-0.5,1.9c0.9-1,1.9-1.9,2.6-2.9&#xA;&#9;&#9;c17.5-20.2,34.9-40.4,52.2-60.7c2.4-2.9,4.8-4,8.3-2.9c5.4,1.8,10.6,3.5,16,5.3c1.3,0.4,2.5,1,3.8,1.4c0,0.2-0.1,0.4-0.1,0.5&#xA;&#9;&#9;c-0.4,0.1-0.9,0.3-1.2,0.4c-6.4,1.8-12.6,3.4-19,5.2c-1.3,0.3-2.7,1-3.7,1.9c-10.6,10-21.2,20.1-31.8,30.1c-8,7.6-16,15-24.2,22.6&#xA;&#9;&#9;c-0.2,0.2-0.5,0.5-0.7,1c1.6-0.9,3.3-1.6,4.8-2.5c23.1-13,46.1-25.8,69.1-38.8c2.7-1.5,5.2-1.8,7.7,0.2c3.8,3.1,7.8,6,11.7,9.1&#xA;&#9;&#9;c1.2,0.9,2.4,1.8,3.5,2.7c0.5,0.5,1,1.2,1.5,1.9c-0.1,0.1-0.2,0.2-0.3,0.4c-3.8-0.3-7.8-0.7-11.6-1c-3.3-0.3-6.5-0.7-9.8-0.8&#xA;&#9;&#9;c-1.2-0.1-2.5,0.1-3.6,0.7c-19,8.1-37.9,16.4-56.9,24.5c-4.7,2.1-9.4,4.1-14.2,6c-0.2,0.1-0.4,0.2-0.5,0.7&#xA;&#9;&#9;c5.3-0.8,10.6-1.6,15.9-2.4c17.5-2.7,34.9-5.6,52.4-8.3c5.2-0.9,10.2-1.8,15.4-2.7c3-0.7,5.4,0,7,2.6c1.2,1.9,2.5,3.7,3.6,5.6&#xA;&#9;&#9;c2.3,3.6,4.6,7.4,6.8,11.1c0.3,0.7,0.4,1.4,0.9,2.5c-1.1-0.4-1.8-0.7-2.3-1c-5.7-2.6-11.3-5.4-17-7.8c-1.5-0.7-3.5-1-5.2-1&#xA;&#9;&#9;c-14.9,0.8-29.9,1.8-44.8,2.5c-10.6,0.7-21.4,1.2-32.1,2.2c3.6,0.8,7.1,1.5,10.8,2.2c21,4.1,41.8,8.1,62.8,12.1&#xA;&#9;&#9;c3.4,0.7,6.8,1.2,10.2,1.6c2.5,0.3,4.2,1.6,4.8,4.2c1.3,5.8,2.5,11.7,3.8,17.6c0.3,1.4,0.5,2.9,0.8,4.3c-0.2,0.1-0.4,0.1-0.7,0.2&#xA;&#9;&#9;c-0.4-0.4-1-0.9-1.4-1.3c-4.2-4.2-8.5-8.3-12.6-12.6c-1.9-1.9-4-3-6.5-3.6c-10.4-3-20.8-6.1-31.1-9.2c-13.4-4.1-26.9-8.1-40.3-12.2&#xA;&#9;&#9;c-0.3-0.1-0.7-0.2-1.2,0c1.1,0.8,2.2,1.5,3.4,2.2c22.8,13.5,45.6,27.1,68.4,40.6c3.4,2,4.9,4.2,4.3,8c-0.9,5.3-1.5,10.5-2.4,15.8&#xA;&#9;&#9;c-0.2,1.5,0.3,3.4-1.5,4.7c-0.5-1.2-1.1-2.3-1.6-3.5c-2.4-5.2-4.8-10.3-7.4-15.4c-0.7-1.3-1.5-2.6-2.6-3.5&#xA;&#9;&#9;c-10.5-7.9-21.2-15.7-31.7-23.6c-9.8-7.2-19.4-14.5-29.1-21.8c-0.4-0.3-0.9-0.7-1.6-0.7c0.8,1.1,1.5,2.2,2.4,3.3&#xA;&#9;&#9;c15.8,19.4,31.6,38.8,47.3,58.2c1.3,1.6,2.9,3.3,4.3,4.9c1.4,1.6,1.8,3.4,0.8,5.4c-1.9,3.7-3.7,7.4-5.6,11.1&#xA;&#9;&#9;c-1.3,2.5-2.5,4.9-4,7.4c-0.3,0.5-0.9,1.1-1.3,1.5c-0.2,0-0.3-0.1-0.5-0.1c-0.2-2.1-0.4-4.2-0.7-6.3c-0.4-5.2-0.9-10.3-1.5-15.5&#xA;&#9;&#9;c-0.1-1.1-0.5-2.2-1.1-3.1c-11.4-17.5-22.9-34.9-34.5-52.4c-2.7-4.3-5.5-8.5-8.6-12.6c0.4,1.3,0.8,2.6,1.2,4&#xA;&#9;&#9;c8.2,23.7,16.5,47.5,24.8,71.3c0.7,2,1.4,3.8,2.2,5.7c0.9,2.2,0.5,4.2-1.2,5.8c-2.9,2.6-5.7,5.3-8.6,7.9c-2.2,2-4.4,4-6.6,5.9&#xA;&#9;&#9;c-0.5,0.4-1.2,0.7-2.3,1.2c0.7-2.7,1.3-4.9,1.9-7.1c1.2-4.6,2.5-9.3,3.6-13.9c0.3-1.3,0.4-2.7,0.1-4.1c-3.1-13.3-6.4-26.6-9.4-39.9&#xA;&#9;&#9;c-2.7-11.5-5.4-23.1-8.1-34.7c-0.1-0.4-0.2-0.8-0.3-1.1c-0.1,0-0.3,0-0.4,0c0,2,0,4.1,0,6c-0.3,26.4-0.7,52.6-1,78.9&#xA;&#9;&#9;c0,3-1.1,4.8-3.7,5.9c-5.1,2.1-10.2,4.2-15.3,6.3c-1,0.4-1.9,0.9-2.9,1.2c-0.7,0.2-1.4,0.3-2.2,0.4c-0.1-0.1-0.2-0.3-0.3-0.4&#xA;&#9;&#9;c0.3-0.5,0.7-1.1,1-1.6c3.5-5.2,7.1-10.3,10.8-15.4c1.2-1.6,1.6-3.4,1.9-5.5c0.8-7.9,1.8-15.7,2.6-23.6c1.5-12.8,3.1-25.8,4.6-38.6&#xA;&#9;&#9;c0.5-4.5,1.1-9,1.2-13.6c-0.5,1.2-1.1,2.3-1.5,3.5c-9.4,24.8-18.8,49.6-28.1,74.3c-0.4,1-0.7,2.2-1.3,3.1s-1.8,1.9-2.7,2.2&#xA;&#9;&#9;c-1.9,0.5-3.8,0.7-5.8,0.8c-5.2,0.2-10.4,0.3-15.6,0.4c-0.8,0-1.5-0.2-2.9-0.5c1.4-1.1,2.4-1.8,3.3-2.4c4.7-3.3,9.4-6.5,14.1-10&#xA;&#9;&#9;c1.4-1.1,2.6-2.7,3.5-4.4c5.7-11.1,11.2-22.3,16.8-33.5c5.5-11,11.1-21.8,16.6-32.7c0.3-0.5,0.5-1.2,0.4-2&#xA;&#9;&#9;c-0.9,0.9-1.8,1.8-2.6,2.7c-16.5,19-32.8,38-49.3,57.1c-1.4,1.6-2.7,3.4-4.2,5.1c-1.3,1.5-2.9,2.1-4.8,1.5&#xA;&#9;&#9;c-5.1-1.5-10.1-3.2-15.3-4.7c-1.5-0.4-3.1-0.9-4.6-1.4c-0.7-0.2-1.3-0.8-2-1.1C25.1,180.7,25.1,180.6,25.2,180.4z M113.4,106&#xA;&#9;&#9;c-4.1,0-7.4,3.3-7.5,7.5c-0.1,4.2,3.2,7.7,7.2,7.8c4.1,0.1,7.4-3.4,7.4-7.7C120.6,109.3,117.4,106,113.4,106z" id="el_x1LS81Xn-Z"/></g>
</g>
</svg>