<svg height="512pt" viewBox="0 0 512 512" width="512pt" xmlns="http://www.w3.org/2000/svg"><path d="m511.3125 373.398438-90-362c-1.5-6.597657-7.5-11.398438-14.398438-11.398438h-302c-6.898437 0-12.898437 4.800781-14.398437 11.398438l-90 362c-1.203125 4.5-.300781 9.300781 2.699219 12.902343 2.699218 3.597657 7.199218 5.699219 11.699218 5.699219h482c4.5 0 9-2.101562 11.699219-5.699219 3-3.601562 3.902344-8.402343 2.699219-12.902343zm0 0" fill="#deecf1"/><path d="m508.613281 386.300781c-2.699219 3.597657-7.199219 5.699219-11.699219 5.699219h-241v-392h151c6.898438 0 12.898438 4.800781 14.398438 11.398438l90 362c1.203125 4.5.300781 9.300781-2.699219 12.902343zm0 0" fill="#c6e2e7"/><path d="m395.214844 30h-278.601563l-82.5 332h443.601563zm0 0" fill="#5aaae7"/><path d="m477.714844 362h-221.800782v-332h139.300782zm0 0" fill="#3d9ae2"/><path d="m434.511719 312.398438-60-240c-1.5-6.597657-7.5-11.398438-14.398438-11.398438h-208.398437c-6.898438 0-12.902344 4.800781-14.398438 11.398438l-60 240c-1.203125 4.5-.300781 9.300781 2.699219 12.902343 2.699219 3.597657 7.199219 5.699219 11.699219 5.699219h134.199218c8.402344 0 15-6.601562 15-15v-42.300781c5.699219 1.800781 10.800782 5.101562 15 9 9.300782 8.101562 15 20.101562 15 33.300781 0 8.398438 6.597657 15 15 15h134.199219c4.5 0 9-2.101562 11.699219-5.699219 3-3.601562 3.902344-8.402343 2.699219-12.902343zm-135.097657-11.398438c-4.800781-24.300781-21.300781-44.101562-43.5-53.699219-9.300781-3.902343-19.5-6.300781-30-6.300781-8.402343 0-15 6.597656-15 15v45h-100l30-120h85c8.402344 0 15-6.601562 15-15v-30c0-8.402344-6.597656-15-15-15-8.402343 0-15 6.597656-15 15v15h-62.5l15-60h185l15 60h-62.5v-15c0-8.402344-6.597656-15-15-15-8.402343 0-15 6.597656-15 15v30c0 8.398438 6.597657 15 15 15h85l7.5 30h-62.5c-8.402343 0-15 6.597656-15 15 0 8.398438 6.597657 15 15 15h70l15 60zm0 0" fill="#deecf1"/><path d="m391.914062 512h-242l-30-34.199219v-21.601562l30-34.199219h242l30 30v30zm0 0" fill="#cb671b"/><path d="m391.914062 512h-242l-30-34.199219v-10.800781h302v15zm0 0" fill="#9e5015"/><path d="m436.914062 512h-45v-90h45c24.902344 0 45 20.097656 45 45s-20.097656 45-45 45zm0 0" fill="#4a696f"/><path d="m436.914062 512h-45v-45h90c0 24.902344-20.097656 45-45 45zm0 0" fill="#384949"/><path d="m149.914062 512-109.800781-30.902344c-6-1.796875-10.199219-7.5-10.199219-14.097656s4.199219-12.300781 10.199219-14.097656l109.800781-30.902344zm0 0" fill="#f8e5ca"/><path d="m149.914062 467v45l-109.800781-30.902344c-6-1.796875-10.199219-7.5-10.199219-14.097656zm0 0" fill="#f1c992"/><path d="m431.816406 325.300781c-2.703125 3.597657-7.203125 5.699219-11.703125 5.699219h-134.199219c-8.402343 0-15-6.601562-15-15 0-13.199219-5.699218-25.199219-15-33.300781v-35.402344c22.199219 9.601563 38.699219 29.402344 43.5 53.703125h101.5l-15-60h-70c-8.402343 0-15-6.601562-15-15 0-8.402344 6.597657-15 15-15h62.5l-7.5-30h-85c-8.402343 0-15-6.601562-15-15v-30c0-8.402344 6.597657-15 15-15 8.402344 0 15 6.597656 15 15v15h62.5l-15-60h-92.5v-30h104.199219c6.898438 0 12.902344 4.800781 14.398438 11.398438l60 240c1.203125 4.5.300781 9.300781-2.695313 12.902343zm0 0" fill="#c6e2e7"/></svg>