<svg id="Layer_1" enable-background="new 0 0 512 512" height="512" viewBox="0 0 512 512" width="512" xmlns="http://www.w3.org/2000/svg"><g><path d="m239.763 137.814-29.322-95.646h-91.852l-43.861 95.646z" fill="#003d69"/><path d="m441.617 137.814-47.472-95.646h-91.852l-24.786 136.905z" fill="#0f1a4d"/><path d="m481.868 137.814-100.442-29.242 12.719 124.888h87.723z" fill="#0f1a4d"/><path d="m171.435 111.425 39.006 122.035h91.852v-95.646z" fill="#003d69"/><path d="m30.867 75.155v158.305h87.722l52.846-95.646z" fill="#003d69"/><path d="m256.367 233.46h45.926l57.269-95.646h-103.195z" fill="#0f1a4d"/><path d="m210.441 42.168h91.852v95.646h-91.852z" fill="#fff5f5"/><path d="m30.867 42.168h87.722v95.646h-87.722z" fill="#fff5f5"/><path d="m394.145 42.168h87.722v95.646h-87.722z" fill="#e5e9f3"/><path d="m302.293 137.814h91.852v95.646h-91.852z" fill="#e5e9f3"/><path d="m118.589 137.814h91.852v95.646h-91.852z" fill="#fff5f5"/><path d="m256.367 42.168h45.926v95.646h-45.926z" fill="#e5e9f3"/><path d="m30.867 426.407c-8.284 0-15-6.716-15-15v-396.407c0-8.284 6.716-15 15-15s15 6.716 15 15v396.407c0 8.284-6.716 15-15 15z" fill="#ca6d36"/><path d="m481.868 435.504c-8.284 0-15-6.716-15-15v-405.504c0-8.284 6.716-15 15-15s15 6.716 15 15v405.504c0 8.284-6.716 15-15 15z" fill="#913f02"/><path d="m143.956 366.306c-78.355 0-126.512 38.681-139.86 50.998-2.43 2.242-3.804 5.394-3.798 8.7l-.202 73.406c.013 6.82 6.023 12.59 13.072 12.59l361.094-24.54c8.746-.574 13.843-10.14 9.44-17.719l-40.915-70.443c-1.948-3.354-5.416-5.513-9.281-5.84-34.19-2.893-105.271-27.152-189.55-27.152z" fill="#fff5f5"/><path d="m342.787 399.283c-1.948-3.354-5.416-5.513-9.281-5.84-17.294-1.463-44.036-8.391-77.139-14.883v116.897l117.895-8.012c8.747-.574 13.843-10.14 9.44-17.719z" fill="#e5e9f3"/><path d="m4.386 508.625c2.247 1.907 5.292 3.43 9.856 3.353l23.92-.11 460.399.11c6.313-.082 13.344-6.464 13.344-14.465v-64.176c-.001-.001-24.091-50.095-107.69-50.162-20.626-.016-28.658.735-81.368 13.649-19.78 4.846-44.571 14.242-67.385 17.67-42.857 8.571-52.138 4.575-74.571 6.857-12.867 1.309-23.411 3.58-33.132 6.264-7.104 1.962-11.603 3.515-15.725 4.83-63.627 20.291-127.648 76.18-127.648 76.18z" fill="#e5e9f3" opacity=".57"/><path d="m402.961 383.307c-27.081 0-50.634 6.064-73.968 11.907-.132.033 0 0-.395.099-20.976 5.247-41.663 12.609-64.258 17.513-.166.036-.333.071-.499.107-1.974.426-3.963.841-5.968 1.245-.153.031-.304.062-.457.093-.346.069-.701.132-1.049.201v97.528h241.049c8.001 0 14.487-6.486 14.487-14.487v-64.176c0-.001-23.75-50.03-108.942-50.03z" fill="#c8ddff"/></g></svg>