<?xml version="1.0" encoding="UTF-8"?>
<svg xmlns="http://www.w3.org/2000/svg" xmlns:xlink="http://www.w3.org/1999/xlink" width="512" height="512" viewBox="0 0 57 58" version="1.1"><!-- Generator: Sketch 51.3 (57544) - http://www.bohemiancoding.com/sketch --><title>020 - Racing Flag</title><desc>Created with Sketch.</desc><defs/><g id="Page-1" stroke="none" stroke-width="1" fill="none" fill-rule="evenodd"><g id="020---Racing-Flag" fill-rule="nonzero"><path d="M56.89,10.53 L55.5,16.73 L54,23.42 L52.5,30.12 L51.41,34.98 C51.3328683,35.3257403 51.0785789,35.6048729 50.7415042,35.7138056 C50.4044296,35.8227382 50.0348787,35.7452125 49.77,35.51 C48.3885977,34.1943209 46.7219348,33.2155415 44.9,32.65 C42.6509037,32.0179908 40.2982897,31.8412048 37.98,32.13 C35.5162038,32.4212749 33.071895,32.8587126 30.66,33.44 C28.2469266,34.0132419 25.8028949,34.4472913 23.34,34.74 C21.0217103,35.0287952 18.6690963,34.8520092 16.42,34.22 L16.42,34.21 C14.022406,33.4574535 11.9003672,32.0137714 10.32,30.06 L11.82,23.37 L13.33,16.67 L14.83,9.98 L16.33,3.28 C17.9100038,5.23635857 20.0318215,6.68336866 22.43,7.44 C24.6757457,8.07163001 27.0250175,8.24842036 29.34,7.96 C31.803614,7.67216342 34.2479291,7.23806374 36.66,6.66 C39.0766163,6.08759199 41.5239278,5.65355311 43.99,5.36 C46.3049825,5.07157964 48.6542543,5.24836999 50.9,5.88 C53.1326839,6.57248165 55.1276112,7.87472587 56.66,9.64 C56.8765573,9.88176155 56.96231,10.2135873 56.89,10.53 Z" id="Shape" fill="#E6E7E8"/><path d="M20.93,14.14 C20.42,16.37 19.92,18.59 19.42,20.82 C17.0254119,20.0669942 14.9067109,18.623216 13.33,16.67 L14.83,9.98 C16.4100038,11.9363586 18.5318215,13.3833687 20.93,14.14 Z" id="Shape" fill="#2C2F38"/><path d="M17.92,27.52 C17.82,27.97 17.72,28.41 17.62,28.86 C17.22,30.65 16.82,32.4333333 16.42,34.21 C14.022406,33.4574535 11.9003672,32.0137714 10.32,30.06 L11.82,23.37 C13.3974993,25.3268844 15.5205635,26.7712642 17.92,27.52 Z" id="Shape" fill="#2C2F38"/><path d="M29.34,7.96 C28.84,10.19 28.34,12.43 27.84,14.66 C25.5250268,14.9487985 23.17568,14.7720025 20.93,14.14 C21.42,11.91 21.93,9.67 22.43,7.44 C24.6757457,8.07163001 27.0250175,8.24842036 29.34,7.96 Z" id="Shape" fill="#2C2F38"/><path d="M32.16,26.74 C32.06,27.19 31.96,27.63 31.86,28.08 C31.46,29.87 31.06,31.65 30.66,33.44 C28.2469266,34.0132419 25.8028949,34.4472913 23.34,34.74 C23.74,32.95 24.14,31.17 24.54,29.38 C24.64,28.93 24.74,28.49 24.84,28.04 C27.3026392,27.7455671 29.7465729,27.3115351 32.16,26.74 Z" id="Shape" fill="#2C2F38"/><path d="M43.99,5.36 L42.49,12.05 C40.0230287,12.3421236 37.5754424,12.7795503 35.16,13.36 C35.66,11.13 36.16,8.89 36.66,6.66 C39.0766163,6.08759199 41.5239278,5.65355311 43.99,5.36 Z" id="Shape" fill="#2C2F38"/><path d="M46.4,25.97 C46.3,26.41 46.2,26.86 46.1,27.3 C45.7,29.08 45.3,30.87 44.9,32.65 C42.6509037,32.0179908 40.2982897,31.8412048 37.98,32.13 C38.38,30.35 38.78,28.56 39.18,26.78 C39.28,26.33 39.38,25.89 39.48,25.44 C41.7988456,25.1498515 44.1523859,25.3301082 46.4,25.97 Z" id="Shape" fill="#2C2F38"/><path d="M54,23.42 L52.5,30.12 C50.9196328,28.1662286 48.797594,26.7225465 46.4,25.97 C46.9,23.74 47.4,21.5066667 47.9,19.27 C50.297594,20.0225465 52.4196328,21.4662286 54,23.42 Z" id="Shape" fill="#2C2F38"/><path d="M56.89,10.53 L55.5,16.73 C53.9196328,14.7762286 51.797594,13.3325465 49.4,12.58 C49.9,10.35 50.4,8.11666667 50.9,5.88 C53.1326839,6.57248165 55.1276112,7.87472587 56.66,9.64 C56.8765573,9.88176155 56.96231,10.2135873 56.89,10.53 Z" id="Shape" fill="#2C2F38"/><path d="M49.4,12.58 L47.9,19.27 C45.6558068,18.6301017 43.3055296,18.4498344 40.99,18.74 L42.49,12.05 C44.8055296,11.7598344 47.1558068,11.9401017 49.4,12.58 Z" id="Shape" fill="#2C2F38"/><path d="M26.34,21.35 L24.84,28.04 C22.5219663,28.3388205 20.1673449,28.1618837 17.92,27.52 C18.42,25.29 18.92,23.05 19.42,20.82 C21.6675414,21.4602984 24.0211644,21.6405614 26.34,21.35 Z" id="Shape" fill="#2C2F38"/><path d="M35.16,13.36 C34.66,15.59 34.16,17.81 33.66,20.04 C31.2479251,20.6204295 28.8036674,21.0578581 26.34,21.35 L27.84,14.66 C30.302767,14.3664282 32.7467495,13.9323875 35.16,13.36 Z" id="Shape" fill="#2C2F38"/><path d="M40.99,18.74 C40.48,20.97 39.98,23.21 39.48,25.44 C37.0171051,25.7327087 34.5730734,26.1667581 32.16,26.74 C32.66,24.51 33.16,22.27 33.66,20.04 C36.0766163,19.467592 38.5239278,19.0335531 40.99,18.74 Z" id="Shape" fill="#2C2F38"/><path d="M17.38,2.77 C17.3764543,2.9718153 17.3530074,3.17278856 17.31,3.37 L5.54,55.86 C5.38186148,56.5707774 4.94661994,57.1890613 4.3308377,57.57768 C3.71505545,57.9662987 2.96965132,58.0931173 2.26,57.93 L2.16,57.9 C0.736016855,57.5282946 -0.138816272,56.0967495 0.18,54.66 L11.95,2.16 C12.2867764,0.684508559 13.7531887,-0.240940628 15.23,0.09 L15.25,0.09 C16.4949725,0.382255796 17.3763265,1.49118939 17.38,2.77 Z" id="Shape" fill="#AF8066"/><path d="M17.38,2.77 C17.3764543,2.9718153 17.3530074,3.17278856 17.31,3.37 L5.54,55.86 C5.38186148,56.5707774 4.94661994,57.1890613 4.3308377,57.57768 C3.71505545,57.9662987 2.96965132,58.0931173 2.26,57.93 L2.16,57.9 L15.25,0.09 C16.4949725,0.382255796 17.3763265,1.49118939 17.38,2.77 Z" id="Shape" fill="#7F5B53"/></g></g></svg>
