<?xml version="1.0" encoding="iso-8859-1"?>
<!-- Generator: Adobe Illustrator 19.0.0, SVG Export Plug-In . SVG Version: 6.00 Build 0)  -->
<svg version="1.1" id="Capa_1" xmlns="http://www.w3.org/2000/svg" xmlns:xlink="http://www.w3.org/1999/xlink" x="0px" y="0px"
	 viewBox="0 0 512 512" style="enable-background:new 0 0 512 512;" xml:space="preserve">
<linearGradient id="SVGID_1_" gradientUnits="userSpaceOnUse" x1="256.5957" y1="513.2285" x2="256.5957" y2="1.2285" gradientTransform="matrix(0.9981 0 0 -0.9981 -0.0955 512.7271)">
	<stop  offset="0" style="stop-color:#2AF598"/>
	<stop  offset="1" style="stop-color:#009EFD"/>
</linearGradient>
<path style="fill:url(#SVGID_1_);" d="M215.579,294.907v19.961c0,21.807,18.655,40.937,39.922,40.937
	c21.64,0,39.922-18.592,39.922-40.599c0-18.94-18.532-29.561-48.768-45.322l-0.38-0.199c-23.053-12.016-61.636-32.126-61.636-81.924
	c0-31.521,21.519-58.191,50.901-66.667V76.351h39.922v44.759c29.382,8.521,50.901,35.333,50.901,67.023v19.961h-39.922v-19.961
	c0-16.51-13.88-29.942-30.94-29.942s-30.94,13.266-30.94,29.571c0,21.893,12.391,32.045,40.166,46.523l0.38,0.199
	c15.83,8.252,32.199,16.783,45.106,28.17c16.676,14.711,25.132,32.393,25.132,52.552c0,21.129-8.317,41.211-23.417,56.548
	c-10.323,10.484-22.864,17.76-36.466,21.367v42.528H235.54v-42.601c-33.994-9.242-59.883-41.299-59.883-78.18v-19.961H215.579z
	 M472.078,46.409v73.917c-18.194-29.045-42.134-54.222-70.731-74.135c-42.926-29.892-93.36-45.692-145.846-45.692
	c-68.247,0-132.408,26.577-180.666,74.834C26.577,123.592,0,187.753,0,256h39.922c0-118.871,96.708-215.579,215.579-215.579
	c77.701,0,147.343,40.574,185.659,105.793h-68.887v39.922H512V46.409H472.078z M256.499,471.579
	c-77.7,0-147.343-40.575-185.659-105.793h68.887v-39.922H0v139.727h39.922v-73.917c18.194,29.045,42.134,54.223,70.731,74.136
	c42.926,29.891,93.36,45.691,145.846,45.691c68.208,0,132.207-26.592,180.209-74.876c47.908-48.192,74.294-112.339,74.294-180.625
	H471.08C471.08,374.871,374.819,471.579,256.499,471.579z"/>
<g>
</g>
<g>
</g>
<g>
</g>
<g>
</g>
<g>
</g>
<g>
</g>
<g>
</g>
<g>
</g>
<g>
</g>
<g>
</g>
<g>
</g>
<g>
</g>
<g>
</g>
<g>
</g>
<g>
</g>
</svg>
