<svg version="1.1" id="el_CAvaIpEgp" xmlns="http://www.w3.org/2000/svg" x="0px" y="0px" viewBox="0 0 1034 216"
     style="enable-background:new 0 0 1034 216;" xml:space="preserve"><style>@-webkit-keyframes kf_el_FKLH96ATxbd_an_Y2xQANKOt{
0%{-webkit-transform: translate(109.201171875px, 108.048828125px) rotate(0deg) translate(-109.201171875px, -108.048828125px);transform: translate(109.201171875px, 108.048828125px) rotate(0deg) translate(-109.201171875px, -108.048828125px);}
30%{-webkit-transform: translate(109.201171875px, 108.048828125px) rotate(900deg) translate(-109.201171875px, -108.048828125px);transform: translate(109.201171875px, 108.048828125px) rotate(900deg) translate(-109.201171875px, -108.048828125px);}
50%{-webkit-transform: translate(109.201171875px, 108.048828125px) rotate(900deg) translate(-109.201171875px, -108.048828125px);transform: translate(109.201171875px, 108.048828125px) rotate(900deg) translate(-109.201171875px, -108.048828125px);}
80%{-webkit-transform: translate(109.201171875px, 108.048828125px) rotate(0deg) translate(-109.201171875px, -108.048828125px);transform: translate(109.201171875px, 108.048828125px) rotate(0deg) translate(-109.201171875px, -108.048828125px);}
100%{-webkit-transform: translate(109.201171875px, 108.048828125px) rotate(0deg) translate(-109.201171875px, -108.048828125px);transform: translate(109.201171875px, 108.048828125px) rotate(0deg) translate(-109.201171875px, -108.048828125px);}}
@keyframes kf_el_FKLH96ATxbd_an_Y2xQANKOt{
0%{-webkit-transform: translate(109.201171875px, 108.048828125px) rotate(0deg) translate(-109.201171875px, -108.048828125px);transform: translate(109.201171875px, 108.048828125px) rotate(0deg) translate(-109.201171875px, -108.048828125px);}
30%{-webkit-transform: translate(109.201171875px, 108.048828125px) rotate(900deg) translate(-109.201171875px, -108.048828125px);transform: translate(109.201171875px, 108.048828125px) rotate(900deg) translate(-109.201171875px, -108.048828125px);}
50%{-webkit-transform: translate(109.201171875px, 108.048828125px) rotate(900deg) translate(-109.201171875px, -108.048828125px);transform: translate(109.201171875px, 108.048828125px) rotate(900deg) translate(-109.201171875px, -108.048828125px);}
80%{-webkit-transform: translate(109.201171875px, 108.048828125px) rotate(0deg) translate(-109.201171875px, -108.048828125px);transform: translate(109.201171875px, 108.048828125px) rotate(0deg) translate(-109.201171875px, -108.048828125px);}
100%{-webkit-transform: translate(109.201171875px, 108.048828125px) rotate(0deg) translate(-109.201171875px, -108.048828125px);transform: translate(109.201171875px, 108.048828125px) rotate(0deg) translate(-109.201171875px, -108.048828125px);}}
#el_CAvaIpEgp *{-webkit-animation-duration: 10s;animation-duration: 10s;-webkit-animation-iteration-count: infinite;animation-iteration-count: infinite;-webkit-animation-timing-function: cubic-bezier(0, 0, 1, 1);animation-timing-function: cubic-bezier(0, 0, 1, 1);}
#el_FKLH96ATxbd{fill: #009ADA;}
#el_FKLH96ATxbd_an_Y2xQANKOt{-webkit-animation-fill-mode: backwards;animation-fill-mode: backwards;-webkit-transform: translate(109.201171875px, 108.048828125px) rotate(0deg) translate(-109.201171875px, -108.048828125px);transform: translate(109.201171875px, 108.048828125px) rotate(0deg) translate(-109.201171875px, -108.048828125px);-webkit-animation-name: kf_el_FKLH96ATxbd_an_Y2xQANKOt;animation-name: kf_el_FKLH96ATxbd_an_Y2xQANKOt;-webkit-animation-timing-function: cubic-bezier(0.42, 0, 0.58, 1);animation-timing-function: cubic-bezier(0.42, 0, 0.58, 1);}</style>

<g id="el_tDWyzfGFe6">
	<path d="M282.8,45.4v6.5h-17.4V107h-7.9V51.9h-17.4v-6.5H282.8z" id="el_X04wwzVrjE"/>
	<path d="M326.7,92.7h-27l-5.2,14.2h-8.6l22.8-60.4h9l22.7,60.4h-8.6L326.7,92.7z M324.5,86.5l-11.3-31.1l-11.3,31.1H324.5z" id="el_pgjhQ7v6k6"/>
	<path d="M387.7,80.5c2.4,2.8,3.5,6.1,3.5,9.9c0,5-1.7,9-5.1,12c-3.4,3-8.3,4.5-14.8,4.5h-22.9V45.2h22.5c6.2,0,10.9,1.4,14.1,4.1&#xA;&#9;&#9;c3.2,2.7,4.8,6.5,4.8,11.3c0,4-1.1,7.2-3.2,9.6c-2.1,2.4-4.8,4-8.2,4.7C382.3,75.8,385.4,77.7,387.7,80.5z M356.4,72.3h13.3&#xA;&#9;&#9;c3.9,0,6.9-0.9,8.9-2.7c2.1-1.8,3.1-4.3,3.1-7.6c0-3.1-1-5.6-3.1-7.4c-2-1.8-5.2-2.7-9.3-2.7h-12.9L356.4,72.3L356.4,72.3z&#xA;&#9;&#9; M379.6,97.3c2.3-1.9,3.4-4.6,3.4-8.1c0-3.4-1.2-6.1-3.5-8.1c-2.4-1.9-5.6-2.9-9.8-2.9h-13.3v22h13.4&#xA;&#9;&#9;C374.1,100.3,377.3,99.3,379.6,97.3z" id="el_5fmFN4RVfv"/>
	<path d="M438.9,45.4v6.5h-17.4V107h-7.9V51.9h-17.4v-6.5H438.9z" id="el_RH8y4_ytVv"/>
	<path d="M454.7,51.8v21h23.4v6.1h-23.4v21.6h26v6.5h-34V45.4h34v6.5L454.7,51.8L454.7,51.8z" id="el_T9mqXTb9LL"/>
	<path d="M536.8,50.3c4.9,3.7,8.3,8.7,10.1,15.1h-8.4c-1.6-4.1-4.1-7.3-7.6-9.7s-7.8-3.6-12.8-3.6c-4,0-7.6,1-10.8,2.9&#xA;&#9;&#9;c-3.2,2-5.7,4.7-7.5,8.4C498,67,497,71.2,497,76.2c0,4.8,0.9,9.1,2.8,12.7c1.8,3.6,4.3,6.4,7.5,8.3c3.2,2,6.8,2.9,10.8,2.9&#xA;&#9;&#9;c5.1,0,9.3-1.2,12.8-3.6c3.5-2.4,6-5.7,7.6-9.7h8.4c-1.9,6.4-5.2,11.5-10.1,15.1c-4.9,3.7-11.1,5.5-18.6,5.5&#xA;&#9;&#9;c-5.8,0-10.9-1.3-15.3-4c-4.4-2.6-7.9-6.3-10.3-11.1c-2.5-4.7-3.7-10.1-3.7-16.2c0-6.1,1.2-11.6,3.7-16.3&#xA;&#9;&#9;c2.5-4.8,5.9-8.5,10.3-11.1c4.4-2.6,9.5-4,15.3-4C525.7,44.8,531.9,46.6,536.8,50.3z" id="el_YcVI3yMbk-"/>
	<path d="M604.8,45.4V107h-8V78.5h-31.3V107h-7.9V45.4h7.9V72h31.3V45.4H604.8z" id="el_nuF2jmS0Zr"/>
	<path d="M665.4,106.8h-7.9l-32-48.6v48.6h-7.9V45.2h7.9l32,48.7V45.2h7.9V106.8z" id="el_vrU0b6IFhc"/>
	<path d="M721.8,48.6c4.6,2.7,8.2,6.4,10.8,11.2s3.9,10.2,3.9,16.3s-1.3,11.5-3.9,16.3s-6.2,8.5-10.8,11.2s-9.7,4-15.4,4&#xA;&#9;&#9;s-10.9-1.3-15.5-4s-8.3-6.4-10.9-11.2c-2.6-4.8-3.9-10.2-3.9-16.3s1.3-11.5,3.9-16.3c2.6-4.8,6.2-8.5,10.9-11.2&#xA;&#9;&#9;c4.6-2.7,9.8-4,15.5-4C712.1,44.6,717.2,45.9,721.8,48.6z M695,54.9c-3.3,2-6,4.7-7.9,8.4c-1.9,3.6-2.8,7.9-2.8,12.8&#xA;&#9;&#9;c0,4.8,0.9,9.1,2.8,12.7c1.9,3.7,4.5,6.5,7.9,8.4c3.3,2,7.1,2.9,11.4,2.9c4.2,0,8-1,11.3-3s6-4.8,7.9-8.4c1.9-3.6,2.8-7.9,2.8-12.7&#xA;&#9;&#9;c0-4.9-0.9-9.2-2.8-12.8c-1.9-3.6-4.5-6.4-7.9-8.4c-3.3-1.9-7.1-2.9-11.3-2.9C702.1,52,698.3,53,695,54.9z" id="el_TSf9e4SdRW"/>
	<path d="M755.2,100.7H777v6.2h-29.8V45.2h7.9L755.2,100.7L755.2,100.7z" id="el__FHloS8Tqt"/>
	<path d="M828.8,48.6c4.6,2.7,8.2,6.4,10.8,11.2s3.9,10.2,3.9,16.3s-1.3,11.5-3.9,16.3s-6.2,8.5-10.8,11.2s-9.7,4-15.4,4&#xA;&#9;&#9;s-10.9-1.3-15.5-4s-8.3-6.4-10.9-11.2c-2.6-4.8-3.9-10.2-3.9-16.3s1.3-11.5,3.9-16.3c2.6-4.8,6.2-8.5,10.9-11.2&#xA;&#9;&#9;c4.6-2.7,9.8-4,15.5-4C819,44.6,824.2,45.9,828.8,48.6z M801.9,54.9c-3.3,2-6,4.7-7.9,8.4c-1.9,3.6-2.8,7.9-2.8,12.8&#xA;&#9;&#9;c0,4.8,0.9,9.1,2.8,12.7c1.9,3.7,4.5,6.5,7.9,8.4c3.3,2,7.1,2.9,11.4,2.9c4.2,0,8-1,11.3-3s6-4.8,7.9-8.4c1.9-3.6,2.8-7.9,2.8-12.7&#xA;&#9;&#9;c0-4.9-0.9-9.2-2.8-12.8c-1.9-3.6-4.5-6.4-7.9-8.4c-3.3-1.9-7.1-2.9-11.3-2.9C809.1,52,805.3,53,801.9,54.9z" id="el_8DoQPuTdzs"/>
	<path d="M900.2,50.1c4.9,3.6,8.1,8.4,9.8,14.5h-8.4c-1.5-3.7-3.9-6.7-7.3-9s-7.4-3.4-12.1-3.4c-4.2,0-7.9,1-11.3,2.9&#xA;&#9;&#9;c-3.3,2-5.9,4.7-7.8,8.3c-1.9,3.6-2.8,7.9-2.8,12.7c0,5,1,9.3,2.9,13c1.9,3.6,4.6,6.4,8,8.4c3.4,2,7.3,2.9,11.7,2.9&#xA;&#9;&#9;c3.8,0,7.2-0.8,10.4-2.4c3.1-1.6,5.7-4,7.7-7.1s3.2-6.8,3.6-11h-24.2V74h30.9v7.3c-0.5,4.9-2,9.3-4.5,13.3s-5.9,7.1-10.1,9.4&#xA;&#9;&#9;c-4.3,2.3-9.1,3.5-14.5,3.5c-5.9,0-11.2-1.3-15.7-4c-4.5-2.6-8.1-6.3-10.6-11.1c-2.5-4.7-3.8-10.2-3.8-16.3s1.3-11.5,3.8-16.3&#xA;&#9;&#9;c2.5-4.7,6.1-8.5,10.6-11.1c4.5-2.7,9.7-4,15.6-4C889.3,44.8,895.3,46.5,900.2,50.1z" id="el_9XqN1VH1Ik"/>
	<path d="M930.1,45.4V107h-7.9V45.4H930.1z" id="el_HE6fqfk8QR"/>
	<path d="M950.8,51.8v21h23.4v6.1h-23.4v21.6h26v6.5h-34V45.4h34v6.5L950.8,51.8L950.8,51.8z" id="el_swBQs_7J8q"/>
	<path d="M1023.9,99.1c-1.4,2.5-3.5,4.5-6.4,6.1s-6.4,2.4-10.6,2.4c-4.1,0-7.7-0.7-10.9-2.2c-3.2-1.5-5.7-3.5-7.6-6.1&#xA;&#9;&#9;s-3-5.5-3.3-8.9h8.5c0.2,1.7,0.8,3.4,1.8,5.1c1,1.7,2.5,3,4.4,4.1s4.2,1.6,6.9,1.6c3.5,0,6.2-0.9,8-2.8c1.9-1.9,2.8-4.2,2.8-7.2&#xA;&#9;&#9;c0-2.5-0.7-4.5-2-6.1s-2.9-2.8-4.8-3.7s-4.5-1.9-7.9-2.9c-3.9-1.3-7-2.5-9.4-3.6s-4.4-2.8-6-5.1c-1.7-2.3-2.5-5.3-2.5-9&#xA;&#9;&#9;c0-3.2,0.8-6,2.3-8.5c1.5-2.4,3.8-4.3,6.6-5.7c2.9-1.3,6.3-2,10.2-2c6.1,0,10.9,1.5,14.4,4.4s5.6,6.7,6.2,11.2h-8.6&#xA;&#9;&#9;c-0.5-2.4-1.7-4.6-3.8-6.5c-2-1.9-4.8-2.8-8.3-2.8c-3.2,0-5.8,0.8-7.7,2.5c-1.9,1.7-2.9,4-2.9,7c0,2.4,0.6,4.3,1.9,5.8&#xA;&#9;&#9;s2.8,2.6,4.7,3.5c1.9,0.8,4.4,1.8,7.7,2.8c4,1.3,7.1,2.5,9.6,3.7c2.4,1.2,4.5,2.9,6.2,5.3c1.7,2.4,2.5,5.5,2.5,9.4&#xA;&#9;&#9;C1026,93.8,1025.3,96.6,1023.9,99.1z" id="el_Nlql5UOBHHg"/>
</g>
<g id="el_GSsNPAPXy2Z">
	<path d="M249.7,134.2l-8.2,46.7h-3l8.2-46.7H249.7z" id="el_ikHlZzWK2dh"/>
	<path d="M285.4,180.9h-3l-19.9-41.6l-7.3,41.6h-3l8.2-46.6h3l19.9,41.6l7.3-41.6h3L285.4,180.9z" id="el_7qFPuFTCqaA"/>
	<path d="M337.7,137.7c3.2,2.6,5.1,6.2,5.8,10.8h-3c-0.7-3.6-2.4-6.5-5.2-8.7c-2.7-2.2-6.4-3.3-11.1-3.3c-3.5,0-6.8,0.9-10,2.5&#xA;&#9;&#9;c-3.2,1.7-5.8,4.1-8,7.3s-3.7,6.9-4.4,11.2c-0.3,1.6-0.5,3.2-0.5,4.8c0,3.3,0.7,6.2,2,8.6s3.2,4.3,5.5,5.6c2.3,1.3,5,2,8.1,2&#xA;&#9;&#9;c4.6,0,8.7-1.1,12.2-3.2c3.5-2.2,6.3-5.1,8.2-8.7h3c-2.3,4.6-5.6,8.2-9.6,10.8c-4.1,2.6-8.9,3.9-14.3,3.9c-3.7,0-6.9-0.8-9.6-2.3&#xA;&#9;&#9;c-2.8-1.5-4.9-3.7-6.4-6.5s-2.2-6.1-2.2-9.8c0-1.8,0.2-3.5,0.5-5.2c0.8-4.6,2.4-8.7,4.9-12.3s5.6-6.4,9.3-8.5c3.7-2,7.6-3,11.9-3&#xA;&#9;&#9;C330.2,133.8,334.5,135.1,337.7,137.7z" id="el_lcOTWmusvPW"/>
	<path d="M352.8,176.3l-0.8,4.6h-4.7l0.8-4.6H352.8z" id="el_d9w6vxMJGQi"/>
</g>
<g id="el_NnOF9dvolYx">
	<g id="el_FKLH96ATxbd_an_Y2xQANKOt" data-animator-group="true" data-animator-type="1"><path d="M28.9,169.1c5.9-1.6,11.7-3.2,17.6-4.8c2.2-0.6,3.9-1.7,5.5-3.3c6.4-6.2,13-12.3,19.5-18.5&#xA;&#9;&#9;c9.8-9.2,19.7-18.4,29.5-27.6c0.4-0.4,0.8-0.7,1.2-1.1c-0.1-0.1-0.2-0.2-0.2-0.3c-1.1,0.5-2.2,1.1-3.2,1.6&#xA;&#9;&#9;c-21.1,11.8-42.3,23.6-63.3,35.6c-2.9,1.7-5.3,2-8-0.2c-3.1-2.5-6.3-4.9-9.4-7.4c-1.3-1-2.7-2-4-3.1c-0.5-0.5-0.9-1.1-1.7-2.1&#xA;&#9;&#9;c4.8,0.4,9.1,0.7,13.3,1.1c1.9,0.2,3.7,0.3,5.6,0.5c2.1,0.2,4-0.3,6-1.2c10.4-4.6,21-9.1,31.5-13.6c10.1-4.3,20.2-8.6,30.3-12.9&#xA;&#9;&#9;c0.5-0.2,1.1-0.5,1.5-1.1c-3.7,0.5-7.3,1.1-11,1.6c-18.1,2.9-36.3,5.8-54.4,8.7c-3.8,0.6-7.7,1.4-11.5,2.1&#xA;&#9;&#9;c-2.1,0.4-3.7-0.2-4.8-1.9c-2.5-3.9-5-7.8-7.5-11.7c-0.8-1.3-1.7-2.6-2.5-4c-0.3-0.6-0.5-1.3-0.8-1.9c0.1-0.1,0.2-0.2,0.4-0.3&#xA;&#9;&#9;c0.5,0.2,1.1,0.4,1.6,0.7c4.8,2.2,9.6,4.4,14.4,6.7c2.3,1.1,4.5,1.5,7.1,1.3c7.7-0.6,15.4-1,23.1-1.4c15-0.8,30.1-1.6,45.1-2.5&#xA;&#9;&#9;c0.2,0,0.3-0.1,0.5-0.4c-1.6-0.4-3.2-0.8-4.8-1.1c-21.1-4.1-42.1-8.1-63.2-12.2c-2.8-0.5-5.7-1-8.5-1.4c-2.2-0.3-3.6-1.6-4.1-3.7&#xA;&#9;&#9;c-1.1-4.7-2.1-9.3-3.1-14c-0.3-1.3-0.6-2.6-0.9-4c-0.1-0.7,0-1.4,0-2.1c0.1-0.1,0.3-0.1,0.4-0.2c0.4,0.4,0.9,0.8,1.3,1.2&#xA;&#9;&#9;c4,4,8,8.1,12.2,12c1.2,1.2,2.9,2.1,4.6,2.6c11.3,3.5,22.6,6.8,33.9,10.2c10.8,3.2,21.5,6.5,32.3,9.8c0.2,0.1,0.4,0.1,0.7-0.1&#xA;&#9;&#9;c-1.5-0.9-2.9-1.9-4.5-2.8C76,89.6,55.4,77.4,34.7,65.2c-2.5-1.5-3.7-3.3-3.3-6.2c0.7-5,1.4-10,2.2-15c0.2-1.4,0.5-2.9,0.7-4.3&#xA;&#9;&#9;c0.2,0,0.4,0,0.7,0c0.3,0.5,0.5,1,0.8,1.6c2.4,5.2,4.9,10.4,7.4,15.6c0.6,1.2,1.4,2.4,2.4,3.2c9.7,7.3,19.5,14.4,29.2,21.7&#xA;&#9;&#9;c8.9,6.6,17.7,13.2,26.5,19.9c0.4,0.3,0.7,0.5,1.3,0.6c-0.7-0.9-1.3-1.8-2-2.7c-15.3-18.7-30.5-37.5-46-56.1&#xA;&#9;&#9;c-2.3-2.8-3.2-5.3-1.3-8.6c2.5-4.4,4.8-8.8,7.2-13.2c0.6-1.1,1.2-2.1,1.9-3.2c0.2,0.1,0.4,0.1,0.6,0.2c0.2,1.9,0.4,3.8,0.6,5.6&#xA;&#9;&#9;c0.4,4.7,0.8,9.4,1.3,14.1c0.1,1,0.4,2,1,2.8c9.8,15,19.7,30,29.6,45c2.8,4.3,5.6,8.6,8.4,12.9c0.3,0.5,0.7,1,1.3,1.4&#xA;&#9;&#9;c-0.6-1.8-1.1-3.5-1.7-5.3c-7.3-21.1-14.7-42.2-22-63.3c-0.6-1.8-1.3-3.6-2-5.4s-0.4-3.5,1-4.8c2.6-2.5,5.1-4.9,7.7-7.3&#xA;&#9;&#9;c2-1.9,4.1-3.7,6.2-5.5c0.5-0.4,1.1-0.7,2-1.2c-0.1,0.8-0.1,1.2-0.2,1.6c-1.5,5.8-3.1,11.6-4.6,17.5c-0.3,1.2-0.4,2.6-0.1,3.8&#xA;&#9;&#9;c2.7,11.6,5.5,23.1,8.3,34.7c2.6,11.2,5.2,22.4,7.8,33.5c0,0.2,0.1,0.4,0.5,0.6c0-0.6,0.1-1.1,0.1-1.7c0.3-24.7,0.7-49.5,1-74.2&#xA;&#9;&#9;c0-0.7,0-1.4,0-2c-0.1-2.1,0.8-3.6,2.7-4.4c2.4-1.1,4.8-2.2,7.3-3.2c3.3-1.4,6.7-2.7,10-4c0.6-0.2,1.4-0.2,2.5-0.3&#xA;&#9;&#9;c-1.3,1.8-2.2,3.2-3.2,4.6c-2.6,3.7-5.2,7.5-7.8,11.2c-1.1,1.5-1.5,3.1-1.7,5c-0.7,7.2-1.6,14.3-2.4,21.5&#xA;&#9;&#9;c-1.4,11.8-2.8,23.6-4.2,35.4c-0.5,4-1,8-1.1,12.2c0.6-1.4,1.2-2.8,1.8-4.3c8.5-22.5,17-44.9,25.4-67.5c1.1-3,2.9-4.4,5.9-4.5&#xA;&#9;&#9;c3.2-0.1,6.4-0.2,9.6-0.4c2.5-0.1,5.1-0.2,7.6-0.3c0.7,0,1.4,0.3,2.5,0.5c-0.7,0.6-1.1,0.9-1.5,1.2c-4.7,3.4-9.5,6.7-14.2,10&#xA;&#9;&#9;c-1.5,1.1-2.5,2.4-3.4,4.1c-5.3,10.7-10.6,21.3-15.9,31.9c-4.9,9.7-9.8,19.3-14.6,28.9c-0.2,0.5-0.5,1-0.5,1.7&#xA;&#9;&#9;c0.8-0.9,1.7-1.7,2.4-2.6c15.9-18.4,31.8-36.8,47.5-55.3c2.2-2.6,4.4-3.6,7.6-2.6c4.9,1.6,9.7,3.2,14.6,4.8&#xA;&#9;&#9;c1.2,0.4,2.3,0.9,3.5,1.3c0,0.2-0.1,0.4-0.1,0.5c-0.4,0.1-0.8,0.3-1.1,0.4c-5.8,1.6-11.5,3.1-17.3,4.7c-1.2,0.3-2.5,0.9-3.4,1.7&#xA;&#9;&#9;c-9.7,9.1-19.3,18.3-29,27.4c-7.3,6.9-14.6,13.7-22,20.6c-0.2,0.2-0.5,0.5-0.6,0.9c1.5-0.8,3-1.5,4.4-2.3&#xA;&#9;&#9;c21-11.8,42-23.5,62.9-35.3c2.5-1.4,4.7-1.6,7,0.2c3.5,2.8,7.1,5.5,10.7,8.3c1.1,0.8,2.2,1.6,3.2,2.5c0.5,0.5,0.9,1.1,1.4,1.7&#xA;&#9;&#9;c-0.1,0.1-0.2,0.2-0.3,0.4c-3.5-0.3-7.1-0.6-10.6-0.9c-3-0.3-5.9-0.6-8.9-0.7c-1.1-0.1-2.3,0.1-3.3,0.6&#xA;&#9;&#9;c-17.3,7.4-34.5,14.9-51.8,22.3c-4.3,1.9-8.6,3.7-12.9,5.5c-0.2,0.1-0.4,0.2-0.5,0.6c4.8-0.7,9.7-1.5,14.5-2.2&#xA;&#9;&#9;c15.9-2.5,31.8-5.1,47.7-7.6c4.7-0.8,9.3-1.6,14-2.5c2.7-0.6,4.9,0,6.4,2.4c1.1,1.7,2.3,3.4,3.3,5.1c2.1,3.3,4.2,6.7,6.2,10.1&#xA;&#9;&#9;c0.3,0.6,0.4,1.3,0.8,2.3c-1-0.4-1.6-0.6-2.1-0.9c-5.2-2.4-10.3-4.9-15.5-7.1c-1.4-0.6-3.2-0.9-4.7-0.9&#xA;&#9;&#9;c-13.6,0.7-27.2,1.6-40.8,2.3c-9.7,0.6-19.5,1.1-29.2,2c3.3,0.7,6.5,1.4,9.8,2c19.1,3.7,38.1,7.4,57.2,11c3.1,0.6,6.2,1.1,9.3,1.5&#xA;&#9;&#9;c2.3,0.3,3.8,1.5,4.4,3.8c1.2,5.3,2.3,10.7,3.5,16c0.3,1.3,0.5,2.6,0.7,3.9c-0.2,0.1-0.4,0.1-0.6,0.2c-0.4-0.4-0.9-0.8-1.3-1.2&#xA;&#9;&#9;c-3.8-3.8-7.7-7.6-11.5-11.5c-1.7-1.7-3.6-2.7-5.9-3.3c-9.5-2.7-18.9-5.6-28.3-8.4c-12.2-3.7-24.5-7.4-36.7-11.1&#xA;&#9;&#9;c-0.3-0.1-0.6-0.2-1.1,0c1,0.7,2,1.4,3.1,2c20.8,12.3,41.5,24.7,62.3,37c3.1,1.8,4.5,3.8,3.9,7.3c-0.8,4.8-1.4,9.6-2.2,14.4&#xA;&#9;&#9;c-0.2,1.4,0.3,3.1-1.4,4.3c-0.5-1.1-1-2.1-1.5-3.2c-2.2-4.7-4.4-9.4-6.7-14c-0.6-1.2-1.4-2.4-2.4-3.2c-9.6-7.2-19.3-14.3-28.9-21.5&#xA;&#9;&#9;c-8.9-6.6-17.7-13.2-26.5-19.9c-0.4-0.3-0.8-0.6-1.5-0.6c0.7,1,1.4,2,2.2,3c14.4,17.7,28.8,35.3,43.1,53c1.2,1.5,2.6,3,3.9,4.5&#xA;&#9;&#9;s1.6,3.1,0.7,4.9c-1.7,3.4-3.4,6.7-5.1,10.1c-1.2,2.3-2.3,4.5-3.6,6.7c-0.3,0.5-0.8,1-1.2,1.4c-0.2,0-0.3-0.1-0.5-0.1&#xA;&#9;&#9;c-0.2-1.9-0.4-3.8-0.6-5.7c-0.4-4.7-0.8-9.4-1.4-14.1c-0.1-1-0.5-2-1-2.8c-10.4-15.9-20.9-31.8-31.4-47.7c-2.5-3.9-5-7.7-7.8-11.5&#xA;&#9;&#9;c0.4,1.2,0.7,2.4,1.1,3.6c7.5,21.6,15,43.3,22.6,64.9c0.6,1.8,1.3,3.5,2,5.2c0.8,2,0.5,3.8-1.1,5.3c-2.6,2.4-5.2,4.8-7.8,7.2&#xA;&#9;&#9;c-2,1.8-4,3.6-6,5.4c-0.5,0.4-1.1,0.6-2.1,1.1c0.6-2.5,1.2-4.5,1.7-6.5c1.1-4.2,2.3-8.5,3.3-12.7c0.3-1.2,0.4-2.5,0.1-3.7&#xA;&#9;&#9;c-2.8-12.1-5.8-24.2-8.6-36.3c-2.5-10.5-4.9-21-7.4-31.6c-0.1-0.4-0.2-0.7-0.3-1c-0.1,0-0.3,0-0.4,0c0,1.8,0,3.7,0,5.5&#xA;&#9;&#9;c-0.3,24-0.6,47.9-0.9,71.9c0,2.7-1,4.4-3.4,5.4c-4.6,1.9-9.3,3.8-13.9,5.7c-0.9,0.4-1.7,0.8-2.6,1.1c-0.6,0.2-1.3,0.3-2,0.4&#xA;&#9;&#9;c-0.1-0.1-0.2-0.3-0.3-0.4c0.3-0.5,0.6-1,0.9-1.5c3.2-4.7,6.5-9.4,9.8-14c1.1-1.5,1.5-3.1,1.7-5c0.7-7.2,1.6-14.3,2.4-21.5&#xA;&#9;&#9;c1.4-11.7,2.8-23.5,4.2-35.2c0.5-4.1,1-8.2,1.1-12.4c-0.5,1.1-1,2.1-1.4,3.2c-8.6,22.6-17.1,45.2-25.6,67.7c-0.4,0.9-0.6,2-1.2,2.8&#xA;&#9;&#9;c-0.6,0.8-1.6,1.7-2.5,2c-1.7,0.5-3.5,0.6-5.3,0.7c-4.7,0.2-9.5,0.3-14.2,0.4c-0.7,0-1.4-0.2-2.6-0.5c1.3-1,2.2-1.6,3-2.2&#xA;&#9;&#9;c4.3-3,8.6-5.9,12.8-9.1c1.3-1,2.4-2.5,3.2-4c5.2-10.1,10.2-20.3,15.3-30.5c5-10,10.1-19.9,15.1-29.8c0.3-0.5,0.5-1.1,0.4-1.8&#xA;&#9;&#9;c-0.8,0.8-1.6,1.6-2.4,2.5c-15,17.3-29.9,34.6-44.9,52c-1.3,1.5-2.5,3.1-3.8,4.6c-1.2,1.4-2.6,1.9-4.4,1.4&#xA;&#9;&#9;c-4.6-1.4-9.2-2.9-13.9-4.3c-1.4-0.4-2.8-0.8-4.2-1.3c-0.6-0.2-1.2-0.7-1.8-1C28.8,169.4,28.8,169.3,28.9,169.1z M109.2,101.3&#xA;&#9;&#9;c-3.7,0-6.7,3-6.8,6.8s2.9,7,6.6,7.1c3.7,0.1,6.7-3.1,6.7-7C115.8,104.3,112.9,101.3,109.2,101.3z" id="el_FKLH96ATxbd"/></g>
</g>
</svg>