<?xml version="1.0" encoding="utf-8"?>
<!-- Generator: Adobe Illustrator 24.1.2, SVG Export Plug-In . SVG Version: 6.00 Build 0)  -->
<svg version="1.1" id="Layer_1" xmlns="http://www.w3.org/2000/svg" xmlns:xlink="http://www.w3.org/1999/xlink" x="0px" y="0px"
	 viewBox="0 0 800 800" style="enable-background:new 0 0 800 800;" xml:space="preserve">
<style type="text/css">
	.st0{fill:#333333;}
	.st1{opacity:0.4;clip-path:url(#SVGID_2_);enable-background:new    ;}
	.st2{fill:#4C73B2;}
	.st3{fill:#E0E0E0;}
	.st4{fill:#707273;}
	.st5{fill:#E34F36;}
</style>
<g id="Layer_2_2_">
	<g id="Layer_2_1_">
		<g>
			<circle class="st0" cx="400" cy="400" r="400"/>
		</g>
	</g>
</g>
<g id="Layer_1_copy">
	<g>
		<g>
			<defs>
				<circle id="SVGID_1_" cx="400" cy="400" r="400"/>
			</defs>
			<clipPath id="SVGID_2_">
				<use xlink:href="#SVGID_1_"  style="overflow:visible;"/>
			</clipPath>
			<path class="st1" d="M891.1,506.4c0-15.7-5.6-29-15.2-38.3c-0.3-0.3-0.7-0.7-1-1s-0.7-0.7-1-1s-0.7-0.7-1-1s-0.7-0.7-1-1
				s-0.7-0.7-1-1s-0.7-0.7-1-1s-0.7-0.7-1-1s-0.7-0.7-1-1s-0.7-0.7-1-1s-0.7-0.7-1-1s-0.7-0.7-1-1s-0.7-0.7-1-1s-0.7-0.7-1-1
				s-0.7-0.7-1-1s-0.7-0.7-1-1s-0.7-0.7-1-1s-0.7-0.7-1-1s-0.7-0.7-1-1s-0.7-0.7-1-1s-0.7-0.7-1-1s-0.7-0.7-1-1s-0.7-0.7-1-1
				s-0.7-0.7-1-1s-0.7-0.7-1-1s-0.7-0.7-1-1s-0.7-0.7-1-1s-0.7-0.7-1-1s-0.7-0.7-1-1s-0.7-0.7-1-1s-0.7-0.7-1-1s-0.7-0.7-1-1
				s-0.7-0.7-1-1s-0.7-0.7-1-1s-0.7-0.7-1-1s-0.7-0.7-1-1s-0.7-0.7-1-1s-0.7-0.7-1-1s-0.7-0.7-1-1s-0.7-0.7-1-1s-0.7-0.7-1-1
				s-0.7-0.7-1-1s-0.7-0.7-1-1s-0.7-0.7-1-1s-0.7-0.7-1-1s-0.7-0.7-1-1s-0.7-0.7-1-1s-0.7-0.7-1-1s-0.7-0.7-1-1s-0.7-0.7-1-1
				s-0.7-0.7-1-1s-0.7-0.7-1-1s-0.7-0.7-1-1s-0.7-0.7-1-1s-0.7-0.7-1-1s-0.7-0.7-1-1s-0.7-0.7-1-1s-0.7-0.7-1-1s-0.7-0.7-1-1
				s-0.7-0.7-1-1s-0.7-0.7-1-1s-0.7-0.7-1-1s-0.7-0.7-1-1s-0.7-0.7-1-1s-0.7-0.7-1-1s-0.7-0.7-1-1s-0.7-0.7-1-1s-0.7-0.7-1-1
				s-0.7-0.7-1-1s-0.7-0.7-1-1s-0.7-0.7-1-1s-0.7-0.7-1-1s-0.7-0.7-1-1s-0.7-0.7-1-1s-0.7-0.7-1-1s-0.7-0.7-1-1s-0.7-0.7-1-1
				s-0.7-0.7-1-1s-0.7-0.7-1-1s-0.7-0.7-1-1s-0.7-0.7-1-1s-0.7-0.7-1-1s-0.7-0.7-1-1s-0.7-0.7-1-1s-0.7-0.7-1-1s-0.7-0.7-1-1
				s-0.7-0.7-1-1s-0.7-0.7-1-1s-0.7-0.7-1-1s-0.7-0.7-1-1s-0.7-0.7-1-1s-0.7-0.7-1-1s-0.7-0.7-1-1s-0.7-0.7-1-1s-0.7-0.7-1-1
				s-0.7-0.7-1-1s-0.7-0.7-1-1s-0.7-0.7-1-1s-0.7-0.7-1-1s-0.7-0.7-1-1s-0.7-0.7-1-1s-0.7-0.7-1-1s-0.7-0.7-1-1s-0.7-0.7-1-1
				s-0.7-0.7-1-1s-0.7-0.7-1-1s-0.7-0.7-1-1s-0.7-0.7-1-1s-0.7-0.7-1-1s-0.7-0.7-1-1s-0.7-0.7-1-1s-0.7-0.7-1-1s-0.7-0.7-1-1
				s-0.7-0.7-1-1s-0.7-0.7-1-1s-0.7-0.7-1-1s-0.7-0.7-1-1s-0.7-0.7-1-1s-0.7-0.7-1-1s-0.7-0.7-1-1s-0.7-0.7-1-1s-0.7-0.7-1-1
				s-0.7-0.7-1-1s-0.7-0.7-1-1s-0.7-0.7-1-1s-0.7-0.7-1-1s-0.7-0.7-1-1s-0.7-0.7-1-1s-0.7-0.7-1-1s-0.7-0.7-1-1s-0.7-0.7-1-1
				s-0.7-0.7-1-1s-0.7-0.7-1-1s-0.7-0.7-1-1s-0.7-0.7-1-1s-0.7-0.7-1-1s-0.7-0.7-1-1s-0.7-0.7-1-1s-0.7-0.7-1-1s-0.7-0.7-1-1
				s-0.7-0.7-1-1s-0.7-0.7-1-1s-0.7-0.7-1-1s-0.7-0.7-1-1s-0.7-0.7-1-1s-0.7-0.7-1-1s-0.7-0.7-1-1s-0.7-0.7-1-1s-0.7-0.7-1-1
				s-0.7-0.7-1-1s-0.7-0.7-1-1s-0.7-0.7-1-1s-0.7-0.7-1-1s-0.7-0.7-1-1s-0.7-0.7-1-1s-0.7-0.7-1-1s-0.7-0.7-1-1s-0.7-0.7-1-1
				s-0.7-0.7-1-1s-0.7-0.7-1-1s-0.7-0.7-1-1s-0.7-0.7-1-1s-0.7-0.7-1-1s-0.7-0.7-1-1s-0.7-0.7-1-1s-0.7-0.7-1-1s-0.7-0.7-1-1
				s-0.7-0.7-1-1s-0.7-0.7-1-1s-0.7-0.7-1-1s-0.7-0.7-1-1s-0.7-0.7-1-1s-0.7-0.7-1-1s-0.7-0.7-1-1s-0.7-0.7-1-1s-0.7-0.7-1-1
				s-0.7-0.7-1-1s-0.7-0.7-1-1s-0.7-0.7-1-1s-0.7-0.7-1-1s-0.7-0.7-1-1s-0.7-0.7-1-1s-0.7-0.7-1-1s-0.7-0.7-1-1s-0.7-0.7-1-1
				s-0.7-0.7-1-1s-0.7-0.7-1-1s-0.7-0.7-1-1s-0.7-0.7-1-1s-0.7-0.7-1-1s-0.7-0.7-1-1s-0.7-0.7-1-1s-0.7-0.7-1-1s-0.7-0.7-1-1
				s-0.7-0.7-1-1s-0.7-0.7-1-1s-0.7-0.7-1-1s-0.7-0.7-1-1s-0.7-0.7-1-1s-0.7-0.7-1-1s-0.7-0.7-1-1s-0.7-0.7-1-1s-0.7-0.7-1-1
				s-0.7-0.7-1-1s-0.7-0.7-1-1s-0.7-0.7-1-1s-0.7-0.7-1-1s-0.7-0.7-1-1s-0.7-0.7-1-1s-0.7-0.7-1-1s-0.7-0.7-1-1s-0.7-0.7-1-1
				s-0.7-0.7-1-1c-0.3-0.3-0.7-0.7-1-1s-0.7-0.7-1-1s-0.7-0.7-1-1s-0.7-0.7-1-1s-0.7-0.7-1-1s-0.7-0.7-1-1s-0.7-0.7-1-1
				s-0.7-0.7-1-1s-0.7-0.7-1-1s-0.7-0.7-1-1s-0.7-0.7-1-1s-0.7-0.7-1-1s-0.7-0.7-1-1s-0.7-0.7-1-1s-0.7-0.7-1-1s-0.7-0.7-1-1
				s-0.7-0.7-1-1s-0.7-0.7-1-1s-0.7-0.7-1-1s-0.7-0.7-1-1s-0.7-0.7-1-1s-0.7-0.7-1-1s-0.7-0.7-1-1s-0.7-0.7-1-1s-0.7-0.7-1-1
				s-0.7-0.7-1-1s-0.7-0.7-1-1s-0.7-0.7-1-1s-0.7-0.7-1-1s-0.7-0.7-1-1s-0.7-0.7-1-1s-0.7-0.7-1-1s-0.7-0.7-1-1s-0.7-0.7-1-1
				s-0.7-0.7-1-1s-0.7-0.7-1-1s-0.7-0.7-1-1s-0.7-0.7-1-1s-0.7-0.7-1-1s-0.7-0.7-1-1s-0.7-0.7-1-1s-0.7-0.7-1-1s-0.7-0.7-1-1
				s-0.7-0.7-1-1s-0.7-0.7-1-1s-0.7-0.7-1-1s-0.7-0.7-1-1s-0.7-0.7-1-1s-0.7-0.7-1-1s-0.7-0.7-1-1s-0.7-0.7-1-1s-0.7-0.7-1-1
				s-0.7-0.7-1-1s-0.7-0.7-1-1s-0.7-0.7-1-1s-0.7-0.7-1-1s-0.7-0.7-1-1s-0.7-0.7-1-1s-0.7-0.7-1-1s-0.7-0.7-1-1s-0.7-0.7-1-1
				s-0.7-0.7-1-1s-0.7-0.7-1-1s-0.7-0.7-1-1s-0.7-0.7-1-1s-0.7-0.7-1-1s-0.7-0.7-1-1s-0.7-0.7-1-1s-0.7-0.7-1-1s-0.7-0.7-1-1
				s-0.7-0.7-1-1s-0.7-0.7-1-1s-0.7-0.7-1-1s-0.7-0.7-1-1s-0.7-0.7-1-1s-0.7-0.7-1-1s-0.7-0.7-1-1s-0.7-0.7-1-1s-0.7-0.7-1-1
				s-0.7-0.7-1-1s-0.7-0.7-1-1c-9.3-9.6-22.5-15.2-38.2-15.2c-97.4,0-194.9,0-292.3,0c-30.9,0.1-52.4,21.6-52.4,52.3
				c0,62.5,0,125.1,0,187.6c0,62.4,0,124.7,0.1,187c0,16.1,5.6,29.5,15.2,38.9c0.3,0.3,0.7,0.7,1,1s0.7,0.7,1,1s0.7,0.7,1,1
				s0.7,0.7,1,1s0.7,0.7,1,1s0.7,0.7,1,1s0.7,0.7,1,1s0.7,0.7,1,1s0.7,0.7,1,1s0.7,0.7,1,1s0.7,0.7,1,1s0.7,0.7,1,1s0.7,0.7,1,1
				s0.7,0.7,1,1s0.7,0.7,1,1s0.7,0.7,1,1s0.7,0.7,1,1s0.7,0.7,1,1s0.7,0.7,1,1s0.7,0.7,1,1s0.7,0.7,1,1s0.7,0.7,1,1s0.7,0.7,1,1
				s0.7,0.7,1,1s0.7,0.7,1,1s0.7,0.7,1,1s0.7,0.7,1,1s0.7,0.7,1,1s0.7,0.7,1,1s0.7,0.7,1,1s0.7,0.7,1,1s0.7,0.7,1,1s0.7,0.7,1,1
				s0.7,0.7,1,1s0.7,0.7,1,1s0.7,0.7,1,1s0.7,0.7,1,1s0.7,0.7,1,1s0.7,0.7,1,1s0.7,0.7,1,1s0.7,0.7,1,1c0.3,0.3,0.7,0.7,1,1
				s0.7,0.7,1,1s0.7,0.7,1,1s0.7,0.7,1,1s0.7,0.7,1,1s0.7,0.7,1,1s0.7,0.7,1,1s0.7,0.7,1,1s0.7,0.7,1,1s0.7,0.7,1,1s0.7,0.7,1,1
				s0.7,0.7,1,1s0.7,0.7,1,1s0.7,0.7,1,1s0.7,0.7,1,1s0.7,0.7,1,1s0.7,0.7,1,1s0.7,0.7,1,1s0.7,0.7,1,1s0.7,0.7,1,1s0.7,0.7,1,1
				s0.7,0.7,1,1s0.7,0.7,1,1s0.7,0.7,1,1s0.7,0.7,1,1s0.7,0.7,1,1s0.7,0.7,1,1s0.7,0.7,1,1s0.7,0.7,1,1s0.7,0.7,1,1s0.7,0.7,1,1
				s0.7,0.7,1,1s0.7,0.7,1,1s0.7,0.7,1,1s0.7,0.7,1,1s0.7,0.7,1,1s0.7,0.7,1,1s0.7,0.7,1,1s0.7,0.7,1,1s0.7,0.7,1,1s0.7,0.7,1,1
				s0.7,0.7,1,1s0.7,0.7,1,1s0.7,0.7,1,1s0.7,0.7,1,1s0.7,0.7,1,1s0.7,0.7,1,1s0.7,0.7,1,1s0.7,0.7,1,1s0.7,0.7,1,1s0.7,0.7,1,1
				s0.7,0.7,1,1s0.7,0.7,1,1s0.7,0.7,1,1s0.7,0.7,1,1s0.7,0.7,1,1s0.7,0.7,1,1s0.7,0.7,1,1s0.7,0.7,1,1s0.7,0.7,1,1s0.7,0.7,1,1
				s0.7,0.7,1,1s0.7,0.7,1,1s0.7,0.7,1,1s0.7,0.7,1,1s0.7,0.7,1,1s0.7,0.7,1,1s0.7,0.7,1,1s0.7,0.7,1,1s0.7,0.7,1,1s0.7,0.7,1,1
				s0.7,0.7,1,1s0.7,0.7,1,1s0.7,0.7,1,1s0.7,0.7,1,1s0.7,0.7,1,1s0.7,0.7,1,1s0.7,0.7,1,1s0.7,0.7,1,1s0.7,0.7,1,1s0.7,0.7,1,1
				s0.7,0.7,1,1s0.7,0.7,1,1s0.7,0.7,1,1s0.7,0.7,1,1s0.7,0.7,1,1s0.7,0.7,1,1s0.7,0.7,1,1s0.7,0.7,1,1s0.7,0.7,1,1s0.7,0.7,1,1
				s0.7,0.7,1,1s0.7,0.7,1,1s0.7,0.7,1,1s0.7,0.7,1,1s0.7,0.7,1,1s0.7,0.7,1,1s0.7,0.7,1,1s0.7,0.7,1,1s0.7,0.7,1,1s0.7,0.7,1,1
				s0.7,0.7,1,1s0.7,0.7,1,1s0.7,0.7,1,1s0.7,0.7,1,1s0.7,0.7,1,1s0.7,0.7,1,1s0.7,0.7,1,1s0.7,0.7,1,1s0.7,0.7,1,1s0.7,0.7,1,1
				s0.7,0.7,1,1s0.7,0.7,1,1s0.7,0.7,1,1s0.7,0.7,1,1s0.7,0.7,1,1s0.7,0.7,1,1s0.7,0.7,1,1s0.7,0.7,1,1s0.7,0.7,1,1s0.7,0.7,1,1
				s0.7,0.7,1,1s0.7,0.7,1,1s0.7,0.7,1,1s0.7,0.7,1,1s0.7,0.7,1,1s0.7,0.7,1,1s0.7,0.7,1,1s0.7,0.7,1,1s0.7,0.7,1,1s0.7,0.7,1,1
				s0.7,0.7,1,1s0.7,0.7,1,1s0.7,0.7,1,1s0.7,0.7,1,1s0.7,0.7,1,1s0.7,0.7,1,1s0.7,0.7,1,1s0.7,0.7,1,1s0.7,0.7,1,1s0.7,0.7,1,1
				s0.7,0.7,1,1s0.7,0.7,1,1s0.7,0.7,1,1s0.7,0.7,1,1s0.7,0.7,1,1s0.7,0.7,1,1s0.7,0.7,1,1s0.7,0.7,1,1s0.7,0.7,1,1s0.7,0.7,1,1
				s0.7,0.7,1,1s0.7,0.7,1,1s0.7,0.7,1,1s0.7,0.7,1,1s0.7,0.7,1,1s0.7,0.7,1,1s0.7,0.7,1,1s0.7,0.7,1,1s0.7,0.7,1,1s0.7,0.7,1,1
				s0.7,0.7,1,1s0.7,0.7,1,1s0.7,0.7,1,1s0.7,0.7,1,1s0.7,0.7,1,1s0.7,0.7,1,1s0.7,0.7,1,1s0.7,0.7,1,1s0.7,0.7,1,1s0.7,0.7,1,1
				s0.7,0.7,1,1s0.7,0.7,1,1s0.7,0.7,1,1s0.7,0.7,1,1s0.7,0.7,1,1s0.7,0.7,1,1s0.7,0.7,1,1s0.7,0.7,1,1s0.7,0.7,1,1s0.7,0.7,1,1
				s0.7,0.7,1,1s0.7,0.7,1,1s0.7,0.7,1,1s0.7,0.7,1,1s0.7,0.7,1,1s0.7,0.7,1,1s0.7,0.7,1,1s0.7,0.7,1,1s0.7,0.7,1,1s0.7,0.7,1,1
				s0.7,0.7,1,1s0.7,0.7,1,1s0.7,0.7,1,1s0.7,0.7,1,1s0.7,0.7,1,1s0.7,0.7,1,1s0.7,0.7,1,1s0.7,0.7,1,1s0.7,0.7,1,1s0.7,0.7,1,1
				s0.7,0.7,1,1s0.7,0.7,1,1s0.7,0.7,1,1s0.7,0.7,1,1s0.7,0.7,1,1s0.7,0.7,1,1s0.7,0.7,1,1s0.7,0.7,1,1s0.7,0.7,1,1s0.7,0.7,1,1
				s0.7,0.7,1,1s0.7,0.7,1,1s0.7,0.7,1,1s0.7,0.7,1,1s0.7,0.7,1,1s0.7,0.7,1,1s0.7,0.7,1,1s0.7,0.7,1,1s0.7,0.7,1,1s0.7,0.7,1,1
				s0.7,0.7,1,1s0.7,0.7,1,1s0.7,0.7,1,1s0.7,0.7,1,1s0.7,0.7,1,1s0.7,0.7,1,1s0.7,0.7,1,1s0.7,0.7,1,1s0.7,0.7,1,1s0.7,0.7,1,1
				s0.7,0.7,1,1s0.7,0.7,1,1s0.7,0.7,1,1s0.7,0.7,1,1s0.7,0.7,1,1s0.7,0.7,1,1s0.7,0.7,1,1s0.7,0.7,1,1s0.7,0.7,1,1s0.7,0.7,1,1
				s0.7,0.7,1,1s0.7,0.7,1,1s0.7,0.7,1,1s0.7,0.7,1,1s0.7,0.7,1,1s0.7,0.7,1,1s0.7,0.7,1,1s0.7,0.7,1,1s0.7,0.7,1,1s0.7,0.7,1,1
				s0.7,0.7,1,1c9.3,9.6,22.6,15.2,38.6,15.2c67.5,0,134.9,0,202.4,0.1c3.6,0,6.1-1.1,8.7-3.6c43.1-43.3,86.3-86.5,129.6-129.6
				c2.7-2.8,3.7-5.4,3.7-9.2C891.1,696.6,891.1,601.5,891.1,506.4z"/>
		</g>
	</g>
</g>
<g>
	<path class="st2" d="M199.8,399.9c0-62.5,0-125.1,0-187.6c0-30.7,21.5-52.2,52.4-52.3c97.4,0,194.9,0,292.3,0
		c30.8,0,52.3,21.6,52.3,52.4c0,95,0,190.1,0.1,285.2c0,3.8-1.1,6.4-3.7,9.2c-43.3,43.1-86.5,86.3-129.6,129.6
		c-2.6,2.6-5.1,3.6-8.7,3.6c-67.5-0.1-134.9-0.1-202.4-0.1c-31.4,0-52.7-21.5-52.7-53C199.8,524.6,199.8,462.3,199.8,399.9z
		 M437.7,609.1c0-2.2,0-4,0-5.9c0-23.4,0-46.9,0-70.3c0.1-30.9,21.5-52.2,52.4-52.3c23.4,0,46.9,0,70.3,0c1.8,0,3.7,0,5.8,0
		c0-2.3,0-3.8,0-5.4c0-87.4,0-174.8,0-262.2c0-14.7-7.7-22.3-22.5-22.3c-96.7,0-193.3,0-290,0c-16.2,0-23.4,7.2-23.4,23.3
		c0,124.6,0,249.1,0,373.7c0,13.9,7.8,21.7,21.6,21.7c60.1,0,120.3,0,180.4,0C434,609.3,435.5,609.2,437.7,609.1z M468.9,585.6
		c25.1-25.1,50-50,74.4-74.4c-17.7,0-36.5-0.2-55.2,0.1c-9.5,0.2-17.8,7.1-18.1,15.9c-0.6,19.6-0.2,39.1-0.2,58.8
		C469.7,586.1,469.9,586.1,468.9,585.6z"/>
	<path class="st3" d="M437.7,609.1c-2.2,0.1-3.7,0.2-5.3,0.2c-60.1,0-120.3,0-180.4,0c-13.8,0-21.5-7.8-21.6-21.7
		c0-124.6,0-249.1,0-373.7c0-16.1,7.2-23.3,23.4-23.3c96.7,0,193.3,0,290,0c14.8,0,22.5,7.6,22.5,22.3c0,87.4,0,174.8,0,262.2
		c0,1.5,0,3.2,0,5.4c-2.2,0-4,0-5.8,0c-23.4,0-46.9,0-70.3,0c-30.9,0-52.3,21.4-52.4,52.3c0,23.4,0,46.9,0,70.3
		C437.7,605.1,437.7,606.9,437.7,609.1z M286.9,364c74.6,0,148.7,0,222.9,0c0-10.1,0-20,0-29.9c-74.4,0-148.7,0-222.9,0
		C286.9,344.3,286.9,354,286.9,364z M286.9,433.3c74.6,0,148.7,0,222.7,0c0-10.2,0-20.1,0-30c-74.4,0-148.5,0-222.7,0
		C286.9,413.4,286.9,423.3,286.9,433.3z M286.9,473.8c0,10.3,0,20.1,0,30.1c31.9,0,63.5,0,95.3,0c0-10.2,0-20.1,0-30.1
		C350.4,473.8,318.9,473.8,286.9,473.8z"/>
	<path class="st3" d="M468.9,585.6c1.1,0.6,0.8,0.5,0.8,0.5c0-19.6-0.4-39.2,0.2-58.8c0.3-8.8,8.6-15.8,18.1-15.9
		c18.8-0.3,37.6-0.1,55.2-0.1C518.8,535.6,494,560.5,468.9,585.6z"/>
	<path class="st4" d="M286.9,364c0-10,0-19.7,0-29.9c74.2,0,148.4,0,222.9,0c0,9.9,0,19.7,0,29.9C435.6,364,361.6,364,286.9,364z"/>
	<path class="st4" d="M286.9,433.3c0-10,0-19.9,0-30c74.3,0,148.2,0,222.7,0c0,9.9,0,19.8,0,30C435.6,433.3,361.6,433.3,286.9,433.3
		z"/>
	<path class="st4" d="M286.9,473.8c32,0,63.4,0,95.3,0c0,10,0,20,0,30.1c-31.8,0-63.3,0-95.3,0C286.9,493.9,286.9,484,286.9,473.8z"
		/>
</g>
<path class="st3" d="M329,278.5"/>
<path class="st3" d="M405.6,261.2"/>
<g>
	<path class="st5" d="M295.2,278.6v17h-8.3v-42.5h17.5c8.7,0,13.4,5.1,13.4,11.7c0,5.7-2.9,8.8-5.7,10c2,0.8,5,3,5,10.6v2.1
		c0,2.9,0,6.1,0.6,8.1h-8.1c-0.7-1.8-0.9-5.1-0.9-9.6v-0.6c0-4.7-1.1-6.9-7.6-6.9L295.2,278.6L295.2,278.6z M295.2,271.2h7.2
		c4.7,0,6.5-1.9,6.5-5.5c0-3.4-2.1-5.4-6.3-5.4h-7.5L295.2,271.2L295.2,271.2z"/>
	<path class="st5" d="M352.5,277.2h-19V288h21l-1.1,7.6H325v-42.5h28.2v7.6h-19.9v9.1h19L352.5,277.2L352.5,277.2z"/>
	<path class="st5" d="M360.8,253h16.5c8.4,0,14.2,5.1,14.2,13.2c0,9.3-6.5,13.5-14.4,13.5h-7.7v15.9h-8.6L360.8,253L360.8,253
		L360.8,253z M369.4,272.3h6.6c4,0,6.8-1.6,6.8-5.9c0-4.4-3-6-6.6-6h-6.8V272.3z"/>
	<path class="st5" d="M435.1,274.2c0,11.9-6.7,22-19.6,22c-12.5,0-19-9.7-19-21.9c0-12.3,7.2-21.9,19.6-21.9
		C427.8,252.4,435.1,261.1,435.1,274.2z M405.5,274.1c0,8.3,3.4,14.5,10.4,14.5c7.7,0,10.3-6.9,10.3-14.4c0-8-3.1-14.4-10.5-14.4
		C408.5,259.9,405.5,265.8,405.5,274.1z"/>
	<path class="st5" d="M451.1,278.6v17h-8.4v-42.5h17.5c8.7,0,13.4,5.1,13.4,11.7c0,5.7-2.9,8.8-5.7,10c2,0.8,5,3,5,10.6v2.1
		c0,2.9,0,6.1,0.6,8.1h-8.1c-0.7-1.8-0.9-5.1-0.9-9.6v-0.6c0-4.7-1.1-6.9-7.6-6.9L451.1,278.6L451.1,278.6z M451.1,271.2h7.2
		c4.7,0,6.5-1.9,6.5-5.5c0-3.4-2.1-5.4-6.3-5.4H451L451.1,271.2L451.1,271.2z"/>
	<path class="st5" d="M488.9,260.6h-12.1V253h32.7v7.6h-12.1v35h-8.6V260.6z"/>
</g>
</svg>
