<?xml version="1.0" encoding="utf-8"?>
<!-- Generator: Adobe Illustrator 24.1.2, SVG Export Plug-In . SVG Version: 6.00 Build 0)  -->
<svg version="1.1" id="Layer_1" xmlns="http://www.w3.org/2000/svg" xmlns:xlink="http://www.w3.org/1999/xlink" x="0px" y="0px"
	 viewBox="0 0 800 800" style="enable-background:new 0 0 800 800;" xml:space="preserve">
<style type="text/css">
	.st0{fill:#333333;}
	.st1{clip-path:url(#SVGID_2_);}
	.st2{fill:#1E1E1E;}
	.st3{fill:#D34434;}
	.st4{fill:#17A358;}
	.st5{fill:#69C393;}
	.st6{fill:#FAEEEC;}
	.st7{fill:#D34534;}
</style>
<g id="Layer_2_3_">
	<g id="Layer_2_4_">
		<g>
			<circle class="st0" cx="400" cy="400" r="400"/>
		</g>
	</g>
</g>
<g id="Layer_2_2_">
	<g>
		<defs>
			<circle id="SVGID_1_" cx="400" cy="400" r="400"/>
		</defs>
		<clipPath id="SVGID_2_">
			<use xlink:href="#SVGID_1_"  style="overflow:visible;"/>
		</clipPath>
		<g class="st1">
			<g>
				<path class="st2" d="M939.8,716c-0.5-5.2-2.4-10-5.2-14.4c-2.1-3.3-4.6-6.3-7.4-9c-0.3-0.3-0.7-0.7-1-1s-0.7-0.7-1-1
					s-0.7-0.7-1-1s-0.7-0.7-1-1s-0.7-0.7-1-1s-0.7-0.7-1-1s-0.7-0.7-1-1s-0.7-0.7-1-1s-0.7-0.7-1-1s-0.7-0.7-1-1s-0.7-0.7-1-1
					s-0.7-0.7-1-1s-0.7-0.7-1-1s-0.7-0.7-1-1s-0.7-0.7-1-1s-0.7-0.7-1-1s-0.7-0.7-1-1s-0.7-0.7-1-1s-0.7-0.7-1-1s-0.7-0.7-1-1
					s-0.7-0.7-1-1s-0.7-0.7-1-1s-0.7-0.7-1-1s-0.7-0.7-1-1s-0.7-0.7-1-1s-0.7-0.7-1-1s-0.7-0.7-1-1s-0.7-0.7-1-1s-0.7-0.7-1-1
					s-0.7-0.7-1-1s-0.7-0.7-1-1s-0.7-0.7-1-1s-0.7-0.7-1-1s-0.7-0.7-1-1s-0.7-0.7-1-1s-0.7-0.7-1-1s-0.7-0.7-1-1s-0.7-0.7-1-1
					s-0.7-0.7-1-1s-0.7-0.7-1-1s-0.7-0.7-1-1s-0.7-0.7-1-1s-0.7-0.7-1-1s-0.7-0.7-1-1s-0.7-0.7-1-1s-0.7-0.7-1-1s-0.7-0.7-1-1
					s-0.7-0.7-1-1s-0.7-0.7-1-1s-0.7-0.7-1-1s-0.7-0.7-1-1s-0.7-0.7-1-1s-0.7-0.7-1-1s-0.7-0.7-1-1s-0.7-0.7-1-1s-0.7-0.7-1-1
					s-0.7-0.7-1-1s-0.7-0.7-1-1s-0.7-0.7-1-1s-0.7-0.7-1-1s-0.7-0.7-1-1s-0.7-0.7-1-1s-0.7-0.7-1-1s-0.7-0.7-1-1s-0.7-0.7-1-1
					s-0.7-0.7-1-1s-0.7-0.7-1-1s-0.7-0.7-1-1s-0.7-0.7-1-1s-0.7-0.7-1-1s-0.7-0.7-1-1s-0.7-0.7-1-1s-0.7-0.7-1-1s-0.7-0.7-1-1
					s-0.7-0.7-1-1s-0.7-0.7-1-1s-0.7-0.7-1-1s-0.7-0.7-1-1s-0.7-0.7-1-1s-0.7-0.7-1-1s-0.7-0.7-1-1s-0.7-0.7-1-1s-0.7-0.7-1-1
					s-0.7-0.7-1-1s-0.7-0.7-1-1s-0.7-0.7-1-1s-0.7-0.7-1-1s-0.7-0.7-1-1s-0.7-0.7-1-1s-0.7-0.7-1-1s-0.7-0.7-1-1s-0.7-0.7-1-1
					s-0.7-0.7-1-1s-0.7-0.7-1-1s-0.7-0.7-1-1s-0.7-0.7-1-1s-0.7-0.7-1-1s-0.7-0.7-1-1s-0.7-0.7-1-1s-0.7-0.7-1-1s-0.7-0.7-1-1
					s-0.7-0.7-1-1s-0.7-0.7-1-1s-0.7-0.7-1-1s-0.7-0.7-1-1s-0.7-0.7-1-1s-0.7-0.7-1-1s-0.7-0.7-1-1s-0.7-0.7-1-1s-0.7-0.7-1-1
					s-0.7-0.7-1-1s-0.7-0.7-1-1s-0.7-0.7-1-1s-0.7-0.7-1-1s-0.7-0.7-1-1s-0.7-0.7-1-1s-0.7-0.7-1-1s-0.7-0.7-1-1s-0.7-0.7-1-1
					s-0.7-0.7-1-1s-0.7-0.7-1-1s-0.7-0.7-1-1s-0.7-0.7-1-1s-0.7-0.7-1-1s-0.7-0.7-1-1s-0.7-0.7-1-1s-0.7-0.7-1-1s-0.7-0.7-1-1
					s-0.7-0.7-1-1s-0.7-0.7-1-1s-0.7-0.7-1-1s-0.7-0.7-1-1s-0.7-0.7-1-1s-0.7-0.7-1-1s-0.7-0.7-1-1s-0.7-0.7-1-1s-0.7-0.7-1-1
					s-0.7-0.7-1-1s-0.7-0.7-1-1s-0.7-0.7-1-1s-0.7-0.7-1-1s-0.7-0.7-1-1s-0.7-0.7-1-1s-0.7-0.7-1-1s-0.7-0.7-1-1s-0.7-0.7-1-1
					s-0.7-0.7-1-1s-0.7-0.7-1-1s-0.7-0.7-1-1s-0.7-0.7-1-1s-0.7-0.7-1-1s-0.7-0.7-1-1s-0.7-0.7-1-1s-0.7-0.7-1-1s-0.7-0.7-1-1
					s-0.7-0.7-1-1s-0.7-0.7-1-1s-0.7-0.7-1-1s-0.7-0.7-1-1s-0.7-0.7-1-1s-0.7-0.7-1-1s-0.7-0.7-1-1s-0.7-0.7-1-1s-0.7-0.7-1-1
					s-0.7-0.7-1-1s-0.7-0.7-1-1s-0.7-0.7-1-1s-0.7-0.7-1-1s-0.7-0.7-1-1s-0.7-0.7-1-1s-0.7-0.7-1-1s-0.7-0.7-1-1s-0.7-0.7-1-1
					s-0.7-0.7-1-1s-0.7-0.7-1-1s-0.7-0.7-1-1s-0.7-0.7-1-1s-0.7-0.7-1-1s-0.7-0.7-1-1s-0.7-0.7-1-1s-0.7-0.7-1-1s-0.7-0.7-1-1
					s-0.7-0.7-1-1s-0.7-0.7-1-1s-0.7-0.7-1-1s-0.7-0.7-1-1s-0.7-0.7-1-1s-0.7-0.7-1-1s-0.7-0.7-1-1s-0.7-0.7-1-1s-0.7-0.7-1-1
					s-0.7-0.7-1-1s-0.7-0.7-1-1s-0.7-0.7-1-1s-0.7-0.7-1-1s-0.7-0.7-1-1s-0.7-0.7-1-1s-0.7-0.7-1-1s-0.7-0.7-1-1s-0.7-0.7-1-1
					s-0.7-0.7-1-1s-0.7-0.7-1-1s-0.7-0.7-1-1s-0.7-0.7-1-1s-0.7-0.7-1-1s-0.7-0.7-1-1s-0.7-0.7-1-1s-0.7-0.7-1-1s-0.7-0.7-1-1
					s-0.7-0.7-1-1s-0.7-0.7-1-1s-0.7-0.7-1-1s-0.7-0.7-1-1s-0.7-0.7-1-1s-0.7-0.7-1-1s-0.7-0.7-1-1s-0.7-0.7-1-1s-0.7-0.7-1-1
					s-0.7-0.7-1-1s-0.7-0.7-1-1s-0.7-0.7-1-1s-0.7-0.7-1-1s-0.7-0.7-1-1s-0.7-0.7-1-1s-0.7-0.7-1-1s-0.7-0.7-1-1s-0.7-0.7-1-1
					s-0.7-0.7-1-1s-0.7-0.7-1-1s-0.7-0.7-1-1s-0.7-0.7-1-1s-0.7-0.7-1-1s-0.7-0.7-1-1s-0.7-0.7-1-1s-0.7-0.7-1-1s-0.7-0.7-1-1
					s-0.7-0.7-1-1s-0.7-0.7-1-1s-0.7-0.7-1-1s-0.7-0.7-1-1s-0.7-0.7-1-1s-0.7-0.7-1-1s-0.7-0.7-1-1s-0.7-0.7-1-1s-0.7-0.7-1-1
					s-0.7-0.7-1-1s-0.7-0.7-1-1s-0.7-0.7-1-1s-0.7-0.7-1-1s-0.7-0.7-1-1s-0.7-0.7-1-1s-0.7-0.7-1-1s-0.7-0.7-1-1s-0.7-0.7-1-1
					s-0.7-0.7-1-1s-0.7-0.7-1-1s-0.7-0.7-1-1s-0.7-0.7-1-1s-0.7-0.7-1-1s-0.7-0.7-1-1s-0.7-0.7-1-1s-0.7-0.7-1-1s-0.7-0.7-1-1
					s-0.7-0.7-1-1s-0.7-0.7-1-1s-0.7-0.7-1-1s-0.7-0.7-1-1s-0.7-0.7-1-1s-0.7-0.7-1-1s-0.7-0.7-1-1s-0.7-0.7-1-1s-0.7-0.7-1-1
					s-0.7-0.7-1-1s-0.7-0.7-1-1s-0.7-0.7-1-1s-0.7-0.7-1-1s-0.7-0.7-1-1s-0.7-0.7-1-1s-0.7-0.7-1-1s-0.7-0.7-1-1s-0.7-0.7-1-1
					s-0.7-0.7-1-1s-0.7-0.7-1-1s-0.7-0.7-1-1s-0.7-0.7-1-1s-0.7-0.7-1-1s-0.7-0.7-1-1s-0.7-0.7-1-1s-0.7-0.7-1-1s-0.7-0.7-1-1
					s-0.7-0.7-1-1s-0.7-0.7-1-1s-0.7-0.7-1-1s-0.7-0.7-1-1s-0.7-0.7-1-1s-0.7-0.7-1-1s-0.7-0.7-1-1s-0.7-0.7-1-1s-0.7-0.7-1-1
					c-2.6-2.7-5.6-5.2-8.7-7.4c-11-8-23.3-13.3-36.3-17.3c-18.3-5.7-37-8.5-56.1-9.3c-10.7-0.4-21.4-0.2-32,0.7
					c-0.1-0.1-0.2-0.1-0.3-0.2c0-0.2-0.3-0.4-0.7-0.8c-0.1-0.1-0.2-0.2-0.3-0.2c0-0.2-0.3-0.4-0.7-0.8c-0.1-0.1-0.2-0.2-0.3-0.2
					c0-0.2-0.3-0.4-0.7-0.8c-0.1-0.1-0.2-0.2-0.3-0.2c0-0.2-0.3-0.4-0.7-0.8c-0.1-0.1-0.2-0.2-0.3-0.2c0-0.2-0.3-0.4-0.7-0.8
					c-0.1-0.1-0.2-0.2-0.3-0.2c0-0.2-0.3-0.4-0.7-0.8c-0.1-0.1-0.2-0.2-0.3-0.2c0-0.2-0.3-0.4-0.7-0.8c-0.1-0.1-0.2-0.2-0.3-0.2
					c0-0.2-0.3-0.4-0.7-0.8c-0.1-0.1-0.2-0.2-0.3-0.2c0-0.2-0.3-0.4-0.7-0.8c-0.1-0.1-0.2-0.2-0.3-0.2c0-0.2-0.3-0.4-0.7-0.8
					c-0.1-0.1-0.2-0.2-0.3-0.2c0-0.2-0.3-0.4-0.7-0.8c-0.1-0.1-0.2-0.2-0.3-0.2c0-0.2-0.3-0.4-0.7-0.8c-0.1-0.1-0.2-0.2-0.3-0.2
					c0-0.2-0.3-0.4-0.7-0.8c-0.1-0.1-0.2-0.2-0.3-0.2c0-0.2-0.3-0.4-0.7-0.8c-0.1-0.1-0.2-0.2-0.3-0.2c0-0.2-0.3-0.4-0.7-0.8
					c-0.1-0.1-0.2-0.2-0.3-0.2c0-0.2-0.3-0.4-0.7-0.8c-0.1-0.1-0.2-0.2-0.3-0.2c0-0.2-0.3-0.4-0.7-0.8c-0.1-0.1-0.2-0.2-0.3-0.2
					c0-0.2-0.3-0.4-0.7-0.8c-0.1-0.1-0.2-0.2-0.3-0.2c0-0.2-0.3-0.4-0.7-0.8c-0.1-0.1-0.2-0.2-0.3-0.2c0-0.2-0.3-0.4-0.7-0.8
					c-0.1-0.1-0.2-0.2-0.3-0.2c0-0.2-0.3-0.4-0.7-0.8c-0.1-0.1-0.2-0.2-0.3-0.2c0-0.2-0.3-0.4-0.7-0.8C463,330.6,453,322.8,443,315
					c-3.4-2.6-6.8-5.2-10.3-8c-0.6,2.3-1.2,4.5-1.7,6.8c-0.1,0-0.2-0.1-0.3-0.1c-0.1-0.4-0.4-0.7-1-1c-0.1-0.4-0.4-0.7-1-1
					c-0.1-0.4-0.4-0.7-1-1c-0.1-0.4-0.4-0.7-1-1c-0.1-0.4-0.4-0.7-1-1c-0.1-0.4-0.4-0.7-1-1c-0.1-0.4-0.4-0.7-1-1
					c-0.1-0.4-0.4-0.7-1-1c-0.1-0.4-0.4-0.7-1-1c-0.1-0.4-0.4-0.7-1-1c-0.1-0.4-0.4-0.7-1-1c-0.1-0.4-0.4-0.7-1-1
					c-0.1-0.4-0.4-0.7-1-1c-0.1-0.4-0.4-0.7-1-1c-0.1-0.4-0.4-0.7-1-1c-0.1-0.4-0.4-0.7-1-1c-0.2-0.6-0.7-0.9-2-1.4
					c-3-1.1-6-2.3-9-3.5c-0.1-0.1-0.2-0.2-0.3-0.3c-0.3-0.4-0.6-0.7-1-1c-0.3-0.4-0.6-0.7-1-1c-0.3-0.4-0.6-0.7-1-1
					c-0.3-0.4-0.6-0.7-1-1c-0.3-0.4-0.6-0.7-1-1c-0.3-0.4-0.6-0.7-1-1c-0.3-0.4-0.6-0.7-1-1c-0.3-0.4-0.6-0.7-1-1
					c-0.3-0.4-0.6-0.7-1-1c-0.3-0.4-0.6-0.7-1-1c-0.3-0.4-0.6-0.7-1-1c-0.3-0.4-0.6-0.7-1-1c-0.3-0.4-0.6-0.7-1-1
					c-0.3-0.4-0.6-0.7-1-1c-0.3-0.4-0.6-0.7-1-1c-0.3-0.4-0.6-0.7-1-1c-0.3-0.4-0.6-0.7-1-1c-0.3-0.4-0.6-0.7-1-1
					c-0.3-0.4-0.6-0.7-1-1c-0.3-0.4-0.6-0.7-1-1c-0.3-0.4-0.6-0.7-1-1c-0.3-0.4-0.6-0.7-1-1c-0.3-0.4-0.6-0.7-1-1
					c-0.3-0.4-0.6-0.7-1-1c-0.3-0.4-0.6-0.7-1-1c-0.3-0.4-0.6-0.7-1-1c-0.3-0.4-0.6-0.7-1-1c-0.7-0.8-1.5-1.5-2.5-2.1
					c-2.9-1.7-6-2.9-9.3-3.5c-4-0.8-8-0.8-12-0.8V259c-1,0-1.9,0-2.9,0v0.1c-1.4,0-2.7,0.1-4.1,0.1c-5.3,0-10.3,1.1-15.2,3.2
					c-2.4,1-4.8,2.2-6.4,4.2c-1.7,2.1-2.8,4.6-3.3,7.3c-0.5,2.8-0.8,5.5-0.3,8.3c0.2,1.5,0,1.8-1.4,2.2c-3.6,1.3-7.3,2.5-10.9,3.8
					c-5.7,2-11.4,4-17.1,6c-1.6,0.6-1.9,1.1-1.7,2.7c0.3,3,0.6,6.1,0.9,9.1c0.3,3.7,0.8,7.5,1.2,11.2c0.5,4.6,1,9.3,1.4,14
					c0,0.2,0,0.5,0.1,0.7c-0.2-0.5-0.5-0.7-0.9-0.7c-0.2-0.6-0.6-1-1-1c-0.2-0.6-0.6-1-1-1c-0.2-0.6-0.6-1-1-1c-0.2-0.6-0.6-1-1-1
					c-0.2-0.6-0.6-1-1-1c-0.2-0.6-0.6-1-1-1c-0.2-0.6-0.6-1-1-1c-0.2-0.6-0.6-1-1-1c-0.2-0.6-0.6-1-1-1c-0.2-0.6-0.6-1-1-1
					c-0.2-0.6-0.6-1-1-1c-0.2-0.6-0.6-1-1-1c-0.2-0.6-0.6-1-1-1c-0.2-0.6-0.6-1-1-1c-0.2-0.6-0.6-1-1-1c-0.2-0.6-0.6-1-1-1
					c-0.2-0.6-0.6-1-1-1c-0.2-0.6-0.6-1-1-1c-0.2-0.6-0.6-1-1-1c-0.2-0.6-0.6-1-1-1c-0.2-0.6-0.6-1-1-1c-0.2-0.6-0.6-1-1-1
					c-0.2-0.6-0.6-1-1-1c-0.5-1.2-1.2-1.3-2.6-0.4c-4.1,2.4-8.1,5-12.1,7.7c-6.3,4.4-12.3,9.1-17.9,14.4c-6.2,5.9-12.1,12-17.5,18.7
					c-6.5,8.2-12.2,16.8-17,26c-4.9,9.2-8.9,18.8-11.9,28.8c-3.6,11.9-5.9,24-6.8,36.4c-0.1,1.5-0.1,3-1.3,4.3c-2,2-3.8,4.3-5.6,6.4
					c-3.7,4.3-7.5,8.6-11.1,12.9c-1.8,2.2-4.1,4-5.2,6.7c0,3.2,0,6.5,0,9.7c0.4,1,1,1.9,1.9,2.6c0.3,0.4,0.6,0.7,1,1
					c0.3,0.4,0.6,0.7,1,1c0.3,0.4,0.6,0.7,1,1c0.3,0.4,0.6,0.7,1,1c0.3,0.4,0.6,0.7,1,1c0.3,0.4,0.6,0.7,1,1c0.3,0.4,0.6,0.7,1,1
					c0.3,0.4,0.6,0.7,1,1c0.3,0.4,0.6,0.7,1,1c0.3,0.4,0.6,0.7,1,1c0.3,0.4,0.6,0.7,1,1c0.3,0.4,0.6,0.7,1,1c0.3,0.4,0.6,0.7,1,1
					c0.3,0.4,0.6,0.7,1,1c0.3,0.4,0.6,0.7,1,1c0.3,0.4,0.6,0.7,1,1c0.3,0.4,0.6,0.7,1,1c0.3,0.4,0.6,0.7,1,1c0.3,0.4,0.6,0.7,1,1
					c0.3,0.4,0.6,0.7,1,1c0.3,0.4,0.6,0.7,1,1c0.3,0.4,0.6,0.7,1,1c0.3,0.4,0.6,0.7,1,1c0.3,0.4,0.6,0.7,1,1c0.3,0.4,0.6,0.7,1,1
					c0.3,0.4,0.6,0.7,1,1c0.3,0.4,0.6,0.7,1,1c0.3,0.4,0.6,0.7,1,1c0.3,0.4,0.6,0.7,1,1c0.3,0.4,0.6,0.7,1,1c0.3,0.4,0.6,0.7,1,1
					c0.3,0.4,0.6,0.7,1,1c0.3,0.4,0.6,0.7,1,1c0.3,0.4,0.6,0.7,1,1c0.3,0.4,0.6,0.7,1,1c0.3,0.4,0.6,0.7,1,1c0.3,0.4,0.6,0.7,1,1
					c0.3,0.4,0.6,0.7,1,1c0.3,0.4,0.6,0.7,1,1c0.3,0.4,0.6,0.7,1,1c0.3,0.4,0.6,0.7,1,1c0.3,0.4,0.6,0.7,1,1c0.3,0.4,0.6,0.7,1,1
					c0.3,0.4,0.6,0.7,1,1c0.3,0.4,0.6,0.7,1,1c0.3,0.4,0.6,0.7,1,1c0.3,0.4,0.6,0.7,1,1c0.3,0.4,0.6,0.7,1,1c0.3,0.4,0.6,0.7,1,1
					c0.3,0.4,0.6,0.7,1,1c0.3,0.4,0.6,0.7,1,1c0.3,0.4,0.6,0.7,1,1c0.3,0.4,0.6,0.7,1,1c0.3,0.4,0.6,0.7,1,1c0.3,0.4,0.6,0.7,1,1
					c0.3,0.4,0.6,0.7,1,1c0.3,0.4,0.6,0.7,1,1c0.3,0.4,0.6,0.7,1,1c0.3,0.4,0.6,0.7,1,1c0.3,0.4,0.6,0.7,1,1c0.3,0.4,0.6,0.7,1,1
					c0.3,0.4,0.6,0.7,1,1c0.3,0.4,0.6,0.7,1,1c0.3,0.4,0.6,0.7,1,1c0.3,0.4,0.6,0.7,1,1c0.3,0.4,0.6,0.7,1,1c0.3,0.4,0.6,0.7,1,1
					c0.3,0.4,0.6,0.7,1,1c0.3,0.4,0.6,0.7,1,1c0.3,0.4,0.6,0.7,1,1c0.3,0.4,0.6,0.7,1,1c0.3,0.4,0.6,0.7,1,1c0.3,0.4,0.6,0.7,1,1
					c0.3,0.4,0.6,0.7,1,1c0.3,0.4,0.6,0.7,1,1c0.3,0.4,0.6,0.7,1,1c0.3,0.4,0.6,0.7,1,1c0.3,0.4,0.6,0.7,1,1c0.3,0.4,0.6,0.7,1,1
					c0.3,0.4,0.6,0.7,1,1c0.3,0.4,0.6,0.7,1,1c0.3,0.4,0.6,0.7,1,1c0.3,0.4,0.6,0.7,1,1c0.3,0.4,0.6,0.7,1,1c0.3,0.4,0.6,0.7,1,1
					c0.3,0.4,0.6,0.7,1,1c0.3,0.4,0.6,0.7,1,1c0.3,0.4,0.6,0.7,1,1c0.3,0.4,0.6,0.7,1,1c0.3,0.4,0.6,0.7,1,1c0.3,0.4,0.6,0.7,1,1
					c0.3,0.4,0.6,0.7,1,1c0.3,0.4,0.6,0.7,1,1c0.3,0.4,0.6,0.7,1,1c0.3,0.4,0.6,0.7,1,1c0.3,0.4,0.6,0.7,1,1c0.3,0.4,0.6,0.7,1,1
					c0.3,0.4,0.6,0.7,1,1c0.3,0.4,0.6,0.7,1,1c0.3,0.4,0.6,0.7,1,1c0.3,0.4,0.6,0.7,1,1c0.3,0.4,0.6,0.7,1,1c0.3,0.4,0.6,0.7,1,1
					c0.3,0.4,0.6,0.7,1,1c0.3,0.4,0.6,0.7,1,1c0.3,0.4,0.6,0.7,1,1c0.3,0.4,0.6,0.7,1,1c0.3,0.4,0.6,0.7,1,1c0.3,0.4,0.6,0.7,1,1
					c0.3,0.4,0.6,0.7,1,1c0.3,0.4,0.6,0.7,1,1c0.3,0.4,0.6,0.7,1,1c0.3,0.4,0.6,0.7,1,1c0.3,0.4,0.6,0.7,1,1c0.3,0.4,0.6,0.7,1,1
					c0.3,0.4,0.6,0.7,1,1c0.3,0.4,0.6,0.7,1,1c0.3,0.4,0.6,0.7,1,1c0.3,0.4,0.6,0.7,1,1c0.3,0.4,0.6,0.7,1,1c0.3,0.4,0.6,0.7,1,1
					c0.3,0.4,0.6,0.7,1,1c0.3,0.4,0.6,0.7,1,1c0.3,0.4,0.6,0.7,1,1c0.3,0.4,0.6,0.7,1,1c0.3,0.4,0.6,0.7,1,1c0.3,0.4,0.6,0.7,1,1
					c0.3,0.4,0.6,0.7,1,1c0.3,0.4,0.6,0.7,1,1c0.3,0.4,0.6,0.7,1,1c0.3,0.4,0.6,0.7,1,1c0.3,0.4,0.6,0.7,1,1c0.3,0.4,0.6,0.7,1,1
					c0.3,0.4,0.6,0.7,1,1c0.3,0.4,0.6,0.7,1,1c0.3,0.4,0.6,0.7,1,1c0.3,0.4,0.6,0.7,1,1c0.3,0.4,0.6,0.7,1,1c0.3,0.4,0.6,0.7,1,1
					c0.3,0.4,0.6,0.7,1,1c0.3,0.4,0.6,0.7,1,1c0.3,0.4,0.6,0.7,1,1c0.3,0.4,0.6,0.7,1,1c0.3,0.4,0.6,0.7,1,1c0.3,0.4,0.6,0.7,1,1
					c0.3,0.4,0.6,0.7,1,1c0.3,0.4,0.6,0.7,1,1c0.3,0.4,0.6,0.7,1,1c0.3,0.4,0.6,0.7,1,1c0.3,0.4,0.6,0.7,1,1c0.3,0.4,0.6,0.7,1,1
					c0.3,0.4,0.6,0.7,1,1c0.3,0.4,0.6,0.7,1,1c0.3,0.4,0.6,0.7,1,1c0.3,0.4,0.6,0.7,1,1c0.3,0.4,0.6,0.7,1,1c0.3,0.4,0.6,0.7,1,1
					c0.3,0.4,0.6,0.7,1,1c0.3,0.4,0.6,0.7,1,1c0.3,0.4,0.6,0.7,1,1c0.3,0.4,0.6,0.7,1,1c0.3,0.4,0.6,0.7,1,1c0.3,0.4,0.6,0.7,1,1
					c0.3,0.4,0.6,0.7,1,1c0.3,0.4,0.6,0.7,1,1c0.3,0.4,0.6,0.7,1,1c0.3,0.4,0.6,0.7,1,1c0.3,0.4,0.6,0.7,1,1c0.3,0.4,0.6,0.7,1,1
					c0.3,0.4,0.6,0.7,1,1c0.3,0.4,0.6,0.7,1,1c0.3,0.4,0.6,0.7,1,1c0.3,0.4,0.6,0.7,1,1c0.3,0.4,0.6,0.7,1,1c0.3,0.4,0.6,0.7,1,1
					c0.3,0.4,0.6,0.7,1,1c0.3,0.4,0.6,0.7,1,1c0.3,0.4,0.6,0.7,1,1c0.3,0.4,0.6,0.7,1,1c0.3,0.4,0.6,0.7,1,1c0.3,0.4,0.6,0.7,1,1
					c0.3,0.4,0.6,0.7,1,1c0.3,0.4,0.6,0.7,1,1c0.3,0.4,0.6,0.7,1,1c0.3,0.4,0.6,0.7,1,1c0.3,0.4,0.6,0.7,1,1c0.3,0.4,0.6,0.7,1,1
					c0.3,0.4,0.6,0.7,1,1c0.3,0.4,0.6,0.7,1,1c0.3,0.4,0.6,0.7,1,1c0.3,0.4,0.6,0.7,1,1c0.3,0.4,0.6,0.7,1,1c0.3,0.4,0.6,0.7,1,1
					c0.3,0.4,0.6,0.7,1,1c0.3,0.4,0.6,0.7,1,1c0.3,0.4,0.6,0.7,1,1c0.3,0.4,0.6,0.7,1,1c0.3,0.4,0.6,0.7,1,1c0.3,0.4,0.6,0.7,1,1
					c0.3,0.4,0.6,0.7,1,1c0.3,0.4,0.6,0.7,1,1c0.3,0.4,0.6,0.7,1,1c0.3,0.4,0.6,0.7,1,1c0.3,0.4,0.6,0.7,1,1c0.3,0.4,0.6,0.7,1,1
					c0.3,0.4,0.6,0.7,1,1c0.3,0.4,0.6,0.7,1,1c0.3,0.4,0.6,0.7,1,1c0.3,0.4,0.6,0.7,1,1c0.3,0.4,0.6,0.7,1,1c0.3,0.4,0.6,0.7,1,1
					c0.3,0.4,0.6,0.7,1,1c0.3,0.4,0.6,0.7,1,1c0.3,0.4,0.6,0.7,1,1c0.3,0.4,0.6,0.7,1,1c0.3,0.4,0.6,0.7,1,1c0.3,0.4,0.6,0.7,1,1
					c0.3,0.4,0.6,0.7,1,1c0.3,0.4,0.6,0.7,1,1c0.3,0.4,0.6,0.7,1,1c0.3,0.4,0.6,0.7,1,1c0.3,0.4,0.6,0.7,1,1c0.3,0.4,0.6,0.7,1,1
					c0.3,0.4,0.6,0.7,1,1c0.3,0.4,0.6,0.7,1,1c0.3,0.4,0.6,0.7,1,1c0.3,0.4,0.6,0.7,1,1c0.3,0.4,0.6,0.7,1,1c0.3,0.4,0.6,0.7,1,1
					c0.3,0.4,0.6,0.7,1,1c0.3,0.4,0.6,0.7,1,1c0.3,0.4,0.6,0.7,1,1c0.3,0.4,0.6,0.7,1,1c0.3,0.4,0.6,0.7,1,1c0.3,0.4,0.6,0.7,1,1
					c0.3,0.4,0.6,0.7,1,1c0.3,0.4,0.6,0.7,1,1c0.3,0.4,0.6,0.7,1,1c0.3,0.4,0.6,0.7,1,1c0.3,0.4,0.6,0.7,1,1c0.3,0.4,0.6,0.7,1,1
					c0.3,0.4,0.6,0.7,1,1c0.3,0.4,0.6,0.7,1,1c0.3,0.4,0.6,0.7,1,1c0.3,0.4,0.6,0.7,1,1c0.3,0.4,0.6,0.7,1,1c0.3,0.4,0.6,0.7,1,1
					c0.3,0.4,0.6,0.7,1,1c0.3,0.4,0.6,0.7,1,1c0.3,0.4,0.6,0.7,1,1c0.3,0.4,0.6,0.7,1,1c0.3,0.4,0.6,0.7,1,1c0.3,0.4,0.6,0.7,1,1
					c0.3,0.4,0.6,0.7,1,1c0.3,0.4,0.6,0.7,1,1c0.3,0.4,0.6,0.7,1,1c0.3,0.4,0.6,0.7,1,1c0.3,0.4,0.6,0.7,1,1c0.3,0.4,0.6,0.7,1,1
					c0.3,0.4,0.6,0.7,1,1c0.3,0.4,0.6,0.7,1,1c0.3,0.4,0.6,0.7,1,1c0.3,0.4,0.6,0.7,1,1c0.3,0.4,0.6,0.7,1,1c0.3,0.4,0.6,0.7,1,1
					c0.3,0.4,0.6,0.7,1,1c0.3,0.4,0.6,0.7,1,1c0.3,0.4,0.6,0.7,1,1c0.3,0.4,0.6,0.7,1,1c0.3,0.4,0.6,0.7,1,1c0.3,0.4,0.6,0.7,1,1
					c0.3,0.4,0.6,0.7,1,1c0.3,0.4,0.6,0.7,1,1c0.3,0.4,0.6,0.7,1,1c0.3,0.4,0.6,0.7,1,1c0.3,0.4,0.6,0.7,1,1c0.3,0.4,0.6,0.7,1,1
					c0.3,0.4,0.6,0.7,1,1c0.3,0.4,0.6,0.7,1,1c0.3,0.4,0.6,0.7,1,1c0.3,0.4,0.6,0.7,1,1c0.3,0.4,0.6,0.7,1,1c0.3,0.4,0.6,0.7,1,1
					c0.3,0.4,0.6,0.7,1,1c0.3,0.4,0.6,0.7,1,1c0.3,0.4,0.6,0.7,1,1c0.3,0.4,0.6,0.7,1,1c0.3,0.4,0.6,0.7,1,1c0.3,0.4,0.6,0.7,1,1
					c0.3,0.4,0.6,0.7,1,1c0.3,0.4,0.6,0.7,1,1c0.3,0.4,0.6,0.7,1,1c0.3,0.4,0.6,0.7,1,1c0.3,0.4,0.6,0.7,1,1c0.3,0.4,0.6,0.7,1,1
					c0.3,0.4,0.6,0.7,1,1c0.3,0.4,0.6,0.7,1,1c0.3,0.4,0.6,0.7,1,1c0.3,0.4,0.6,0.7,1,1c0.3,0.4,0.7,0.8,1.1,1.1
					c1.1,0.8,2,1.7,3,2.6c5.6,4.9,11.4,9.4,17.5,13.6c10.7,7.3,21.9,13.6,33.8,18.9c11,4.9,22.4,8.8,34.1,11.8
					c11.6,3,23.4,4.9,35.4,6.1c6.2,0.6,12.5,1,18.7,1.2c5.4,0.2,10.8,0.1,16.1-0.1c6.7-0.3,13.4-0.7,20-1.3
					c7.8-0.8,15.5-1.9,23.3-3.2c4.7-0.8,9.5-1.8,14.2-2.8c1-0.2,1.6-0.7,1.7-1.7c0-0.4,0.2-0.9,0.2-1.3c0.8-7.7,3.3-14.8,7.7-21.3
					c0.9-1.3,0.9-2.3,0.1-3.6c-1.7-2.6-3-5.3-4.1-8.2c-0.4-1.2-0.8-2.3-1.1-3.5l0.1,0.1c0.3,0.4,0.6,0.7,1,1c0.3,0.4,0.6,0.7,1,1
					c0.3,0.4,0.6,0.7,1,1c0.3,0.4,0.6,0.7,1,1c0.3,0.4,0.6,0.7,1,1c0.3,0.4,0.6,0.7,1,1c0.3,0.4,0.6,0.7,1,1c0.3,0.4,0.6,0.7,1,1
					c0.3,0.4,0.6,0.7,1,1c0.3,0.4,0.6,0.7,1,1c0.3,0.4,0.6,0.7,1,1c0.3,0.4,0.6,0.7,1,1c0.3,0.4,0.6,0.7,1,1c0.3,0.4,0.6,0.7,1,1
					c0.3,0.4,0.6,0.7,1,1c0.4,0.5,0.9,0.9,1.4,1.3c0.7,0.5,1.4,1,2.1,1.6c17,14,36.3,23.1,57.7,27.8c18.2,4,36.7,5.2,55.3,5.5
					c5.7,0.1,11.5,0,17.2-0.4c10.1-0.6,20-1.9,30-3.6c11.6-2,23.1-4.4,34.3-8.1c14.6-4.9,28-11.9,39.6-22.3c1.5-1.3,2.6-2.9,3.1-4.9
					c0.7-2.7-0.3-5.4-2.3-6.9c-0.3-0.4-0.6-0.7-1-1c-0.3-0.4-0.6-0.7-1-1c-0.3-0.4-0.6-0.7-1-1c-0.3-0.4-0.6-0.7-1-1
					c-0.3-0.3-0.6-0.7-0.9-0.9c1.3-1,2.5-2.1,3.8-3.1c1.3-1.1,2.5-2.4,3.1-4c1.3-3.1,0.4-6.4-1.9-8.2c-0.3-0.4-0.6-0.7-1-1
					c-0.3-0.4-0.6-0.7-1-1c-0.3-0.4-0.6-0.7-1-1c-0.3-0.4-0.6-0.7-1-1c-0.3-0.3-0.6-0.6-0.9-0.9c1.4-1.1,2.8-2.3,4.1-3.5
					s2.4-2.5,2.9-4.1c1-3,0.1-6-2-7.7c-0.3-0.4-0.6-0.7-1-1c-0.3-0.4-0.6-0.7-1-1c-0.3-0.4-0.6-0.7-1-1c-0.3-0.4-0.6-0.7-1-1
					c-0.3-0.4-0.6-0.7-1-1c-0.3-0.4-0.6-0.7-1-1c-0.3-0.4-0.6-0.7-1-1c-0.3-0.4-0.6-0.7-1-1c-0.3-0.4-0.6-0.7-1-1
					c0-0.1-0.1-0.1-0.1-0.2c0.2-0.2,0.4-0.4,0.6-0.5c6.1-6,10.6-12.9,11.9-21.5c0.1-0.4-0.1-0.9,0.4-1.2c0-0.4,0-0.9,0-1.3
					c0-1.1,0-2.1,0-3.2c0-0.4,0-0.7,0-1.1C939.8,716.3,939.8,716.2,939.8,716z"/>
			</g>
		</g>
	</g>
</g>
<g>
	<g>
		<path class="st3" d="M160,480c0-3.2,0-6.5,0-9.7c1.2-2.7,3.4-4.5,5.2-6.7c3.7-4.3,7.4-8.6,11.1-12.9c1.9-2.1,3.6-4.4,5.6-6.4
			c1.2-1.3,1.2-2.8,1.3-4.3c0.9-12.4,3.2-24.5,6.8-36.4c3-10,7-19.6,11.9-28.8c4.8-9.2,10.6-17.8,17-26c5.3-6.7,11.3-12.8,17.5-18.7
			c5.6-5.3,11.6-10,17.9-14.4c3.9-2.7,7.9-5.3,12.1-7.7c1.8-1,2.4-0.8,2.9,1.2c1.6,6.7,3.2,13.4,4.8,20c1.3,5.5,2.6,11.1,4,16.6
			c3.8,16,7.6,32.1,11.6,48.1c1.1,4.7,3.1,9.1,5.8,13.2c0.5,0.7,1,1.7,2.1,1.5c1-0.2,1.1-1.3,1.3-2.1c0.8-3.8,0.8-7.7,0.5-11.6
			c-0.2-3.1-0.6-6.3-0.9-9.4c-0.5-4.8-1-9.6-1.5-14.5c-0.5-4.6-1-9.2-1.4-13.8c-0.5-4.7-1-9.5-1.5-14.2c-0.4-3.8-0.8-7.7-1.2-11.5
			c-0.5-4.6-0.9-9.3-1.4-14c-0.4-3.7-0.8-7.5-1.2-11.2c-0.3-3-0.6-6.1-0.9-9.1c-0.2-1.7,0.1-2.2,1.7-2.7c5.7-2,11.4-4,17.1-6
			c3.6-1.3,7.3-2.6,10.9-3.8c1.4-0.5,1.6-0.8,1.4-2.2c-0.4-2.8-0.2-5.6,0.3-8.3c0.5-2.7,1.6-5.2,3.3-7.3c1.6-2.1,4-3.2,6.4-4.2
			c4.8-2.1,9.9-3.2,15.2-3.2c1.4,0,2.8-0.1,4.2-0.1c0.9,0,1.8,0,2.6,0c4.1,0.1,8.1,0,12.1,0.8c3.3,0.7,6.4,1.8,9.3,3.5
			c3.3,1.9,4.6,5,5.3,8.5c0.6,3.2,0.3,6.3-0.4,9.4c-0.4,1.6-0.2,1.8,1.3,2.3c10.9,4.2,21.8,8.4,32.7,12.6c2,0.8,2.2,1.1,1.9,3.2
			c-1.1,8.2-2.2,16.4-3.3,24.6c-1.2,8.6-2.3,17.2-3.5,25.9c-1.1,7.8-2.1,15.7-3.2,23.5c-0.2,1.5-1.2,2.5-2.2,3.4
			c-7.4,6.5-13.5,13.9-17.2,23.2c-2.3,5.8-3.5,11.7-3.1,18c0.2,3.1,0.9,6.2,1.8,9.3c1,3.6,2.1,7.1,2.7,10.8c1,6.6,0.5,13-1.3,19.3
			c-1.5,5.1-3.2,10.1-4,15.4c-1.1,7,0,13.7,2.4,20.2c1.1,2.9,2.4,5.6,4.1,8.2c0.8,1.3,0.8,2.3-0.1,3.6c-4.4,6.4-6.9,13.5-7.7,21.3
			c0,0.4-0.2,0.9-0.2,1.3c-0.1,1-0.7,1.5-1.7,1.7c-4.7,1.1-9.4,2-14.2,2.8c-7.7,1.4-15.5,2.5-23.3,3.2c-6.7,0.7-13.3,1-20,1.3
			c-5.4,0.2-10.8,0.3-16.1,0.1c-6.2-0.2-12.5-0.6-18.7-1.2c-12-1.2-23.8-3.2-35.4-6.1c-11.7-3-23.1-6.9-34.1-11.8
			c-11.8-5.2-23.1-11.5-33.8-18.9c-6.1-4.2-12-8.7-17.5-13.6c-1-0.9-1.9-1.8-3-2.6C161.1,482,160.4,481.1,160,480z"/>
		<path class="st4" d="M640,421.9c-0.5,0.3-0.3,0.8-0.4,1.2c-1.3,8.6-5.9,15.5-11.9,21.5c-7.4,7.3-16.2,12.6-25.6,16.9
			c-13,6-26.7,9.8-40.8,12.4c-15.9,2.9-32,4-48.2,3.6c-23.2-0.6-46-3.9-67.9-11.8c-11.4-4.1-22.2-9.3-31.7-16.9
			c-6.4-5-11.8-10.8-15.1-18.4c-5-11.6-3-22.3,4.3-32.3c5.7-7.8,13.3-13.5,21.6-18.2c12.4-7.1,25.9-11.7,39.7-14.9
			c20.8-4.8,41.8-6.5,63.1-5.6c19.1,0.8,37.9,3.6,56.1,9.3c12.9,4,25.2,9.3,36.3,17.3c5.9,4.3,11.1,9.2,15,15.4
			c2.8,4.4,4.7,9.2,5.2,14.4c0,0.2,0.1,0.3,0.2,0.4c0,0.4,0,0.7,0,1.1c-0.2,1.1-0.2,2.1,0,3.2C640,421,640,421.5,640,421.9z"/>
		<path class="st5" d="M640,420.6c-0.4-1.1-0.4-2.1,0-3.2C640,418.5,640,419.6,640,420.6z"/>
		<path class="st6" d="M349.7,259.3c0-0.1,0-0.1,0-0.2c1,0,1.9,0,2.9,0c0,0.1,0,0.1,0,0.2C351.6,259.3,350.6,259.3,349.7,259.3z"/>
		<path class="st4" d="M514.2,520.7c-13.9-0.2-27.8-1.2-41.6-3.1c-16.8-2.3-32.9-7-48-14.8c-8.6-4.4-16.5-9.7-23.9-15.9
			c-0.5-0.4-1.1-0.8-1.7-1.2c-2.7-2-3.7-5.7-2.3-8.7c1.4-2.9,5-4.4,8.3-3.4c0.7,0.2,1.3,0.6,1.8,1.2c6,6.7,13.2,11.8,21.3,15.6
			c6.1,2.8,12.2,5.8,18.6,8.1c10.4,3.8,21.2,6.1,32.3,7.4c15.9,1.8,31.8,2.4,47.7,2.1c14.8-0.3,29.3-2.4,43.6-5.7
			c8-1.8,15.9-3.7,23.6-6.4c12.6-4.4,23.7-11.4,33.4-20.5c1.6-1.5,3.4-2.6,5.6-2.2c4.3,0.6,6.6,5.2,4.9,9.5c-0.7,1.6-1.8,2.8-3.1,4
			c-11.5,10.1-24.8,17.1-39.2,21.9c-11.2,3.7-22.7,6.1-34.3,8.1c-10,1.7-20,3-30.1,3.6C525.6,520.7,519.9,520.8,514.2,520.7z"/>
		<path class="st4" d="M514.1,540.9c-18.6-0.4-37.1-1.6-55.3-5.5c-21.4-4.7-40.7-13.8-57.7-27.8c-0.7-0.6-1.4-1.1-2.1-1.6
			c-2.8-2-3.8-5.7-2.3-8.7c1.4-2.9,4.9-4.3,8.1-3.4c0.8,0.2,1.4,0.6,2,1.2c6.2,6.9,13.6,12,21.9,15.9c7.2,3.3,14.3,6.7,21.9,9.2
			c10,3.3,20.3,5.2,30.8,6.3c15.2,1.6,30.5,2.2,45.8,1.9c14.2-0.3,28.1-2.3,42-5.4c8.4-1.9,16.9-3.9,25-6.7
			c12.6-4.4,23.7-11.4,33.4-20.5c1.6-1.5,3.3-2.5,5.5-2.2c3.8,0.5,6.2,4.4,5.3,8.2c-0.5,2-1.6,3.5-3.1,4.9
			c-11.6,10.3-25,17.4-39.6,22.3c-11.2,3.7-22.7,6.1-34.3,8.1c-9.9,1.7-19.9,2.9-30,3.6C525.6,540.9,519.8,541,514.1,540.9z"/>
		<path class="st4" d="M516.1,500.5c-18.3-0.2-36.6-1.4-54.6-5c-22.3-4.5-42.5-13.8-60.1-28.3c-0.7-0.6-1.5-1.2-2.3-1.7
			c-2.7-2.1-3.7-5.7-2.2-8.7c1.4-2.9,4.8-4.3,8-3.4c0.8,0.2,1.5,0.6,2.1,1.3c6.2,6.9,13.6,12,22,15.9c7.2,3.3,14.3,6.7,21.9,9.2
			c10,3.3,20.3,5.2,30.8,6.3c15,1.6,30,2.2,45.1,1.9c14.4-0.3,28.6-2.3,42.6-5.4c8.2-1.9,16.4-3.8,24.4-6.5
			c12.8-4.4,24-11.4,33.9-20.7c1.6-1.5,3.4-2.5,5.6-2.2c4.1,0.6,6.4,4.9,5,9c-0.6,1.7-1.6,3-2.9,4.1c-11.5,10.3-24.9,17.3-39.5,22.2
			c-10.7,3.6-21.7,5.9-32.7,7.9c-9.3,1.6-18.7,2.9-28.1,3.6C528.7,500.3,522.4,500.6,516.1,500.5z"/>
		<path class="st7" d="M432.7,307.1c3.5,2.7,6.9,5.3,10.3,8c10,7.8,20.1,15.5,30.1,23.3c0.7,0.6,1.1,0.8-0.1,1.4
			c-18.1,8.1-36.1,16.2-54.2,24.3c-0.2,0.1-0.4,0.2-0.9,0.3C422.9,345.2,427.8,326.2,432.7,307.1z"/>
		<path class="st2" d="M516.5,371.1c19.7,0,38.6,2.1,57.2,7.1c12.3,3.3,24.2,7.8,35,14.7c5.5,3.5,10.5,7.5,14.5,12.7
			c6.9,9.1,6.6,18.6-0.7,27.4c-5.1,6.1-11.6,10.6-18.5,14.4c-11.3,6.2-23.3,10.2-35.8,13c-12.5,2.9-25.2,4.5-38,5
			c-10.9,0.5-21.8,0.3-32.7-0.6c-16.5-1.5-32.6-4.5-48.2-10.2c-10.1-3.7-19.8-8.3-28.4-15c-3.5-2.7-6.7-5.8-9.2-9.5
			c-5.7-8.3-5.7-16.5,0.2-24.7c4.3-6,10.1-10.4,16.3-14.2c11.2-6.7,23.3-11,35.9-14.2c11.9-3,24-4.7,36.2-5.6
			C505.9,371.3,511.4,371.2,516.5,371.1z"/>
		<path class="st4" d="M512.5,431c0-2.8,0-5.6,0-8.4c0-0.8-0.2-1.1-1.1-1.2c-6-0.9-11.9-1.9-17.7-3.7c-3-0.9-5.8-2.1-8.4-3.9
			c-6.1-4.2-6.6-11.4-1-16.3c3.7-3.3,8.2-5,12.9-6.2c4.6-1.2,9.3-1.9,14.1-2.1c0.9,0,1.2-0.3,1.2-1.2c-0.1-1.2,0-2.5,0-3.7
			c-0.1-1.3,0.5-2.2,1.6-2.7c2.5-1.2,5-1.2,7.5,0c1.1,0.5,1.6,1.4,1.6,2.6c-0.1,1.3,0.1,2.5,0,3.8c-0.1,1,0.3,1.3,1.3,1.4
			c6.5,0.2,12.8,1.3,18.9,3.4c2,0.7,4,1.4,6,2.4c1.1,0.5,2.2,1.3,2.2,2.7c0.1,1.4-0.9,2.3-2,2.9c-2.9,1.5-6,1.8-9,0.5
			c-5.1-2.1-10.5-3.4-16-4.1c-1.2-0.2-1.3,0.2-1.3,1.3c0,4.7,0.1,9.4,0,14.1c0,1.1,0.4,1.5,1.4,1.6c6.1,0.9,12.1,2,17.9,3.9
			c3.3,1.1,6.5,2.5,9.2,4.8c5.2,4.4,5,11.4,0.8,16c-3.3,3.6-7.5,5.5-12.1,6.8c-5,1.5-10.2,2.1-15.4,2.4c-2.2,0.1-1.8,0-1.8,1.9
			c0,1,0,1.9,0,2.9c0.1,1.3-0.5,2.3-1.7,2.8c-2.5,1.1-4.9,1.1-7.4,0c-1.1-0.5-1.7-1.4-1.7-2.7c0.1-1.2,0-2.4,0-3.5
			c0.1-0.9-0.3-1.1-1.1-1.1c-5-0.2-10-0.7-15-1.8c-5.4-1.1-10.6-2.8-15.5-5.3c-1.1-0.5-2-1.2-2.1-2.6s0.8-2.3,1.9-2.9
			c3-1.7,6.1-1.9,9.2-0.5c5.9,2.6,12,4.3,18.4,5.1c0.5,0.1,1,0.1,1.4,0.2c2.7,0.2,2.7,0.2,2.7-2.5
			C512.5,435.5,512.5,433.3,512.5,431z"/>
		<path class="st2" d="M524.1,440.7c-0.7,0.2-0.9-0.3-0.9-1.5c0.1-4.9,0-9.8,0-14.7c0-0.9,0.2-1.2,1.2-1c3.5,0.7,7,1.3,10.4,2.6
			c1.1,0.4,2.2,0.9,3.1,1.7c2.8,2.1,3,5.3,0.7,7.8c-1.6,1.7-3.7,2.7-5.8,3.4c-1.2,0.4-2.4,0.7-3.7,1
			C527.6,440.3,526.2,440.4,524.1,440.7z"/>
		<path class="st2" d="M512.6,404.5c0,2.3,0,4.6,0,6.8c0,0.5,0.2,1-0.7,0.9c-4.2-0.8-8.5-1.4-12.4-3.2c-4.2-2-4.6-5.8-0.8-8.6
			c3-2.2,6.6-2.9,10.2-3.4c1.2-0.2,2.7-0.8,3.4-0.1c0.8,0.7,0.2,2.2,0.2,3.4C512.6,401.7,512.6,403.1,512.6,404.5z"/>
	</g>
</g>
</svg>
