<?xml version="1.0" encoding="utf-8"?>
<!-- Generator: Adobe Illustrator 24.1.2, SVG Export Plug-In . SVG Version: 6.00 Build 0)  -->
<svg version="1.1" id="Layer_1" xmlns="http://www.w3.org/2000/svg" xmlns:xlink="http://www.w3.org/1999/xlink" x="0px" y="0px"
	 viewBox="0 0 800 800" style="enable-background:new 0 0 800 800;" xml:space="preserve">
<style type="text/css">
	.st0{fill:#333333;}
	.st1{clip-path:url(#SVGID_2_);}
	.st2{fill:none;}
	.st3{fill:#1D1D1B;}
	.st4{fill:#F2C24E;}
	.st5{fill:#FECE5B;}
	.st6{fill:#F7D990;}
	.st7{fill:#4C73B1;}
	.st8{fill:#4D73B1;}
	.st9{fill:#DCB34F;}
	.st10{fill:#A2833A;}
	.st11{fill:#DBB34E;}
	.st12{fill:#A2823A;}
	.st13{fill:#AE8F3E;}
	.st14{fill:#F5C558;}
	.st15{fill:#9E8139;}
	.st16{fill:#947836;}
	.st17{fill:#C19E44;}
	.st18{fill:#C49F47;}
	.st19{fill:#F6C759;}
	.st20{fill:#B0903F;}
	.st21{fill:#81692F;}
	.st22{fill:#E2B851;}
	.st23{fill:#D4AD4C;}
	.st24{fill:#937635;}
	.st25{fill:#E8BD53;}
	.st26{fill:#FCCC5B;}
	.st27{fill:#B99443;}
	.st28{fill:#8B7332;}
	.st29{fill:#CFA84B;}
	.st30{fill:#BC9942;}
	.st31{fill:#AA8A3D;}
	.st32{fill:#876E30;}
	.st33{fill:#C8A549;}
	.st34{fill:#EEBF55;}
	.st35{fill:#EFC455;}
	.st36{fill:#967B36;}
	.st37{fill:#AE8B3F;}
	.st38{fill:#C8A146;}
	.st39{fill:#836931;}
	.st40{fill:#BF9B44;}
	.st41{fill:#F7C959;}
	.st42{fill:#E4BA53;}
	.st43{fill:#B49341;}
	.st44{fill:#D3AC4B;}
	.st45{fill:#8F7334;}
	.st46{fill:#B69341;}
	.st47{fill:#D0AB4B;}
	.st48{fill:#E7BB53;}
	.st49{fill:#FACA59;}
	.st50{fill:#BF9B46;}
	.st51{fill:#F1C355;}
	.st52{fill:#8D7333;}
	.st53{fill:#C9A249;}
	.st54{fill:#846C2E;}
	.st55{fill:#AA8C3F;}
	.st56{fill:#A98C3C;}
	.st57{fill:#997A37;}
	.st58{fill:#EEC155;}
	.st59{fill:#CBA448;}
	.st60{fill:#9A7B39;}
	.st61{fill:#856D32;}
	.st62{fill:#B79443;}
	.st63{fill:#BD9942;}
	.st64{fill:#FBCC5B;}
	.st65{fill:#E8BC54;}
	.st66{fill:#CFAA4A;}
	.st67{fill:#8D7232;}
	.st68{fill:#D5AD4C;}
	.st69{fill:#DFB650;}
	.st70{fill:#F6C857;}
	.st71{fill:#B29041;}
	.st72{fill:#907633;}
	.st73{fill:#C4A149;}
	.st74{fill:#F4C457;}
	.st75{fill:#AF8E3F;}
	.st76{fill:#C39B46;}
	.st77{fill:#816A2D;}
	.st78{fill:#957936;}
	.st79{fill:#A6873B;}
	.st80{fill:#EABF55;}
	.st81{fill:#9C7E38;}
	.st82{fill:#BA9743;}
	.st83{fill:#D8AF4D;}
	.st84{fill:#BB9744;}
	.st85{fill:#CDA449;}
	.st86{fill:#897030;}
	.st87{fill:#FECF5B;}
	.st88{fill:#A7873B;}
	.st89{fill:#897031;}
	.st90{fill:#CDA54A;}
	.st91{fill:#EBC054;}
	.st92{fill:#E0B64F;}
	.st93{fill:#9C7F39;}
	.st94{fill:#D6AE4D;}
	.st95{fill:#F5C658;}
	.st96{fill:#AF8F3E;}
	.st97{fill:#947736;}
	.st98{fill:#C3A046;}
	.st99{fill:#F5C959;}
	.st100{fill:#C39D46;}
	.st101{fill:#81682F;}
	.st102{fill:#A5863B;}
	.st103{fill:#B38F3F;}
	.st104{fill:#E3B750;}
	.st105{fill:#D4AD4D;}
	.st106{fill:#A3843B;}
	.st107{fill:#917734;}
	.st108{fill:#EABD55;}
	.st109{fill:#BA9542;}
	.st110{fill:#FCCC59;}
	.st111{fill:#BA9944;}
	.st112{fill:#EDC055;}
	.st113{fill:#8B7331;}
	.st114{fill:#FAC74A;}
	.st115{fill:#CAA448;}
	.st116{fill:#9D8238;}
	.st117{fill:#A98A3E;}
	.st118{fill:#AE8C3F;}
	.st119{fill:#9A7D37;}
	.st120{fill:#F0C456;}
	.st121{fill:#C7A147;}
	.st122{fill:#836A2F;}
	.st123{fill:#BF9B45;}
	.st124{fill:#F8C95A;}
	.st125{fill:#B49340;}
	.st126{fill:#8F7434;}
	.st127{fill:#D5AC4C;}
	.st128{fill:#E4BC53;}
	.st129{fill:#E6BC53;}
	.st130{fill:#D0AA4D;}
	.st131{fill:#927638;}
	.st132{fill:#B69342;}
	.st133{fill:#F5CB62;}
	.st134{fill:#C0A158;}
	.st135{fill:#FDCE64;}
	.st136{fill:#D6AE4F;}
	.st137{fill:#E0B750;}
	.st138{fill:#9C7E37;}
	.st139{fill:#A6883C;}
	.st140{fill:#EBBF54;}
	.st141{fill:#CEA54A;}
	.st142{fill:#897130;}
	.st143{fill:#BA9744;}
	.st144{fill:#B99743;}
	.st145{fill:#896F30;}
	.st146{fill:#CBA549;}
	.st147{fill:#A8883D;}
	.st148{fill:#A18339;}
	.st149{fill:#9B7E36;}
	.st150{fill:#DFB74F;}
	.st151{fill:#D9AE4F;}
	.st152{fill:#947935;}
	.st153{fill:#B08E3F;}
	.st154{fill:#F2C656;}
	.st155{fill:#C6A147;}
	.st156{fill:#826A2E;}
	.st157{fill:#C29C44;}
	.st158{fill:#B29140;}
	.st159{fill:#917534;}
	.st160{fill:#D5AE4B;}
	.st161{fill:#E4B852;}
	.st162{fill:#E9BC53;}
	.st163{fill:#D0AA4B;}
	.st164{fill:#8C7231;}
	.st165{fill:#B99444;}
	.st166{fill:#FACC5A;}
	.st167{fill:#BE9A44;}
	.st168{fill:#866D30;}
	.st169{fill:#EDC157;}
	.st170{fill:#AA8A3E;}
	.st171{fill:#B09257;}
	.st172{fill:#9A7C37;}
	.st173{fill:#F8E2A6;}
	.st174{fill:#987D37;}
	.st175{fill:#607CA6;}
	.st176{fill:#A5853B;}
</style>
<g id="Layer_2_3_">
	<g id="Layer_2_4_">
		<g>
			<circle class="st0" cx="398.7" cy="401.5" r="400"/>
		</g>
	</g>
</g>
<g>
	<g>
		<defs>
			<circle id="SVGID_1_" cx="398.7" cy="401.5" r="400"/>
		</defs>
		<clipPath id="SVGID_2_">
			<use xlink:href="#SVGID_1_"  style="overflow:visible;"/>
		</clipPath>
		<g class="st1">
			<path class="st2" d="M579.8,375.8L579.8,375.8C579.8,375.7,579.7,375.8,579.8,375.8C579.7,375.8,579.7,375.8,579.8,375.8z"/>
			<path class="st3" d="M937.4,708.5c-0.2-0.4-0.6-0.7-1-1c-0.2-0.4-0.6-0.7-1-1c-0.2-0.4-0.6-0.7-1-1c-0.2-0.4-0.6-0.7-1-1
				c-0.2-0.4-0.6-0.7-1-1c-0.2-0.4-0.6-0.7-1-1c-0.2-0.4-0.6-0.7-1-1c-0.2-0.4-0.6-0.7-1-1c-0.2-0.4-0.6-0.7-1-1
				c-0.2-0.4-0.6-0.7-1-1c-0.2-0.4-0.6-0.7-1-1c-0.2-0.4-0.6-0.7-1-1c-0.2-0.4-0.6-0.7-1-1c-0.2-0.4-0.6-0.7-1-1
				c-0.2-0.4-0.6-0.7-1-1c-0.2-0.4-0.6-0.7-1-1c-0.2-0.4-0.6-0.7-1-1c-0.2-0.4-0.6-0.7-1-1c-0.2-0.4-0.6-0.7-1-1
				c-0.2-0.4-0.6-0.7-1-1c-0.2-0.4-0.6-0.7-1-1c-0.2-0.4-0.6-0.7-1-1c-0.2-0.4-0.6-0.7-1-1c-0.2-0.4-0.6-0.7-1-1
				c-0.2-0.4-0.6-0.7-1-1c-0.2-0.4-0.6-0.7-1-1c-0.2-0.4-0.6-0.7-1-1c-0.2-0.4-0.6-0.7-1-1c-0.2-0.4-0.6-0.7-1-1
				c-0.2-0.4-0.6-0.7-1-1c-0.2-0.4-0.6-0.7-1-1c-0.2-0.4-0.6-0.7-1-1c-0.2-0.4-0.6-0.7-1-1c-0.2-0.4-0.6-0.7-1-1
				c-0.2-0.4-0.6-0.7-1-1c-0.2-0.4-0.6-0.7-1-1c-0.2-0.4-0.6-0.7-1-1c-0.2-0.4-0.6-0.7-1-1c-0.2-0.4-0.6-0.7-1-1
				c-0.2-0.4-0.6-0.7-1-1c-0.2-0.4-0.6-0.7-1-1c-0.2-0.4-0.6-0.7-1-1c-0.2-0.4-0.6-0.7-1-1c-0.2-0.4-0.6-0.7-1-1
				c-0.2-0.4-0.6-0.7-1-1c-0.2-0.4-0.6-0.7-1-1c-0.2-0.4-0.6-0.7-1-1c-0.2-0.4-0.6-0.7-1-1c-0.2-0.4-0.6-0.7-1-1
				c-0.2-0.4-0.6-0.7-1-1c-0.2-0.4-0.6-0.7-1-1c-0.2-0.4-0.6-0.7-1-1c-0.2-0.4-0.6-0.7-1-1c-0.2-0.4-0.6-0.7-1-1
				c-0.2-0.4-0.6-0.7-1-1c-0.2-0.4-0.6-0.7-1-1c-0.2-0.4-0.6-0.7-1-1c-0.2-0.4-0.6-0.7-1-1c-0.2-0.4-0.6-0.7-1-1
				c-0.2-0.4-0.6-0.7-1-1c-0.2-0.4-0.6-0.7-1-1c-0.2-0.4-0.6-0.7-1-1c-0.2-0.4-0.6-0.7-1-1c-0.2-0.4-0.6-0.7-1-1
				c-0.2-0.4-0.6-0.7-1-1c-0.2-0.4-0.6-0.7-1-1c-0.2-0.4-0.6-0.7-1-1c-0.2-0.4-0.6-0.7-1-1c-0.2-0.4-0.6-0.7-1-1
				c-0.2-0.4-0.6-0.7-1-1c-0.2-0.4-0.6-0.7-1-1c-0.2-0.4-0.6-0.7-1-1c-0.2-0.4-0.6-0.7-1-1c-0.2-0.4-0.6-0.7-1-1
				c-0.2-0.4-0.6-0.7-1-1c-0.2-0.4-0.6-0.7-1-1c-0.2-0.4-0.6-0.7-1-1c-0.2-0.4-0.6-0.7-1-1c-0.2-0.4-0.6-0.7-1-1
				c-0.2-0.4-0.6-0.7-1-1c-0.2-0.4-0.6-0.7-1-1c-0.2-0.4-0.6-0.7-1-1c-0.2-0.4-0.6-0.7-1-1c-0.2-0.4-0.6-0.7-1-1
				c-0.2-0.4-0.6-0.7-1-1c-0.2-0.4-0.6-0.7-1-1c-0.2-0.4-0.6-0.7-1-1c-0.2-0.4-0.6-0.7-1-1c-0.2-0.4-0.6-0.7-1-1
				c-0.2-0.4-0.6-0.7-1-1c-0.2-0.4-0.6-0.7-1-1c-0.2-0.4-0.6-0.7-1-1c-0.2-0.4-0.6-0.7-1-1c-0.2-0.4-0.6-0.7-1-1
				c-0.2-0.4-0.6-0.7-1-1c-0.2-0.4-0.6-0.7-1-1c-0.2-0.4-0.6-0.7-1-1c-0.2-0.4-0.6-0.7-1-1c-0.2-0.4-0.6-0.7-1-1
				c-0.2-0.4-0.6-0.7-1-1c-0.2-0.4-0.6-0.7-1-1c-0.2-0.4-0.6-0.7-1-1c-0.2-0.4-0.6-0.7-1-1c-0.2-0.4-0.6-0.7-1-1
				c-0.2-0.4-0.6-0.7-1-1c-0.2-0.4-0.6-0.7-1-1c-0.2-0.4-0.6-0.7-1-1c-0.2-0.4-0.6-0.7-1-1c-0.2-0.4-0.6-0.7-1-1
				c-0.2-0.4-0.6-0.7-1-1c-0.2-0.4-0.6-0.7-1-1c-0.2-0.4-0.6-0.7-1-1c-0.2-0.4-0.6-0.7-1-1c-0.2-0.4-0.6-0.7-1-1
				c-0.2-0.4-0.6-0.7-1-1c-0.2-0.4-0.6-0.7-1-1c-0.2-0.4-0.6-0.7-1-1c-0.2-0.4-0.6-0.7-1-1c-0.2-0.4-0.6-0.7-1-1
				c-0.2-0.4-0.6-0.7-1-1c-0.2-0.4-0.6-0.7-1-1c-0.2-0.4-0.6-0.7-1-1c-0.2-0.4-0.6-0.7-1-1c-0.2-0.4-0.6-0.7-1-1
				c-0.2-0.4-0.6-0.7-1-1c-0.2-0.4-0.6-0.7-1-1c-0.2-0.4-0.6-0.7-1-1c-0.2-0.4-0.6-0.7-1-1c-0.2-0.4-0.6-0.7-1-1
				c-0.2-0.4-0.6-0.7-1-1c-0.2-0.4-0.6-0.7-1-1c-0.2-0.4-0.6-0.7-1-1c-0.2-0.4-0.6-0.7-1-1c-0.2-0.4-0.6-0.7-1-1
				c-0.2-0.4-0.6-0.7-1-1c-0.2-0.4-0.6-0.7-1-1c-0.2-0.4-0.6-0.7-1-1c-0.2-0.4-0.6-0.7-1-1c-0.2-0.4-0.6-0.7-1-1
				c-0.2-0.4-0.6-0.7-1-1c-0.2-0.4-0.6-0.7-1-1c-0.2-0.4-0.6-0.7-1-1c-0.2-0.4-0.6-0.7-1-1c-0.2-0.4-0.6-0.7-1-1
				c-0.2-0.4-0.6-0.7-1-1c-0.2-0.4-0.6-0.7-1-1c-0.2-0.4-0.6-0.7-1-1c-0.2-0.4-0.6-0.7-1-1c-0.2-0.4-0.6-0.7-1-1
				c-0.2-0.4-0.6-0.7-1-1c-0.2-0.4-0.6-0.7-1-1c-0.2-0.4-0.6-0.7-1-1c-0.2-0.4-0.6-0.7-1-1c-0.2-0.4-0.6-0.7-1-1
				c-0.2-0.4-0.6-0.7-1-1c-0.2-0.4-0.6-0.7-1-1c-0.2-0.4-0.6-0.7-1-1c-0.2-0.4-0.6-0.7-1-1c-0.2-0.4-0.6-0.7-1-1
				c-0.2-0.4-0.6-0.7-1-1c-0.2-0.4-0.6-0.7-1-1c-0.2-0.4-0.6-0.7-1-1c-0.2-0.4-0.6-0.7-1-1c-0.2-0.4-0.6-0.7-1-1
				c-0.2-0.4-0.6-0.7-1-1c-0.2-0.4-0.6-0.7-1-1c-0.2-0.4-0.6-0.7-1-1c-0.2-0.4-0.6-0.7-1-1c-0.2-0.4-0.6-0.7-1-1
				c-0.2-0.4-0.6-0.7-1-1c-0.2-0.4-0.6-0.7-1-1c-0.2-0.4-0.6-0.7-1-1c-0.2-0.4-0.6-0.7-1-1c-0.2-0.4-0.6-0.7-1-1
				c-0.2-0.4-0.6-0.7-1-1c-0.2-0.4-0.6-0.7-1-1c-0.2-0.4-0.6-0.7-1-1c-0.2-0.4-0.6-0.7-1-1c-0.2-0.4-0.6-0.7-1-1
				c-0.2-0.4-0.6-0.7-1-1c-0.2-0.4-0.6-0.7-1-1c-0.2-0.4-0.6-0.7-1-1c-0.2-0.4-0.6-0.7-1-1c-0.2-0.4-0.6-0.7-1-1
				c-0.2-0.4-0.6-0.7-1-1c-0.2-0.4-0.6-0.7-1-1c-0.2-0.4-0.6-0.7-1-1c-0.2-0.4-0.6-0.7-1-1c-0.2-0.4-0.6-0.7-1-1
				c-0.2-0.4-0.6-0.7-1-1c-0.2-0.4-0.6-0.7-1-1c-0.2-0.4-0.6-0.7-1-1c-0.2-0.4-0.6-0.7-1-1c-0.2-0.4-0.6-0.7-1-1
				c-0.2-0.4-0.6-0.7-1-1c-0.2-0.4-0.6-0.7-1-1c-0.2-0.4-0.6-0.7-1-1c-0.2-0.4-0.6-0.7-1-1c-0.2-0.4-0.6-0.7-1-1
				c-0.2-0.4-0.6-0.7-1-1c-0.2-0.4-0.6-0.7-1-1c-0.2-0.4-0.6-0.7-1-1c-0.2-0.4-0.6-0.7-1-1c-0.2-0.4-0.6-0.7-1-1
				c-0.2-0.4-0.6-0.7-1-1c-0.2-0.4-0.6-0.7-1-1c-0.2-0.4-0.6-0.7-1-1c-0.2-0.4-0.6-0.7-1-1c-0.2-0.4-0.6-0.7-1-1
				c-0.2-0.4-0.6-0.7-1-1c-0.2-0.4-0.6-0.7-1-1c-0.2-0.4-0.6-0.7-1-1c-0.2-0.4-0.6-0.7-1-1c-0.2-0.4-0.6-0.7-1-1
				c-0.2-0.4-0.6-0.7-1-1c-0.2-0.4-0.6-0.7-1-1c-0.2-0.4-0.6-0.7-1-1c-0.2-0.4-0.6-0.7-1-1c-0.2-0.4-0.6-0.7-1-1
				c-0.2-0.4-0.6-0.7-1-1c-0.2-0.4-0.6-0.7-1-1c-0.2-0.4-0.6-0.7-1-1c-0.2-0.4-0.6-0.7-1-1c-0.2-0.4-0.6-0.7-1-1
				c-0.2-0.4-0.6-0.7-1-1c-0.2-0.4-0.6-0.7-1-1c-0.2-0.4-0.6-0.7-1-1c-0.2-0.4-0.6-0.7-1-1c-0.2-0.4-0.6-0.7-1-1
				c-0.2-0.4-0.6-0.7-1-1c-0.2-0.4-0.6-0.7-1-1c-0.2-0.4-0.6-0.7-1-1c-0.2-0.4-0.6-0.7-1-1c-0.2-0.4-0.6-0.7-1-1
				c-0.2-0.4-0.6-0.7-1-1c-0.2-0.4-0.6-0.7-1-1c-0.2-0.4-0.6-0.7-1-1c-0.2-0.4-0.6-0.7-1-1c-0.2-0.4-0.6-0.7-1-1
				c-0.2-0.4-0.6-0.7-1-1c-0.2-0.4-0.6-0.7-1-1c-0.2-0.4-0.6-0.7-1-1c-0.2-0.4-0.6-0.7-1-1c-0.2-0.4-0.6-0.7-1-1
				c-0.2-0.4-0.6-0.7-1-1c-0.2-0.4-0.6-0.7-1-1c-0.2-0.4-0.6-0.7-1-1c-0.2-0.4-0.6-0.7-1-1c-0.2-0.4-0.6-0.7-1-1
				c-0.2-0.4-0.6-0.7-1-1c-0.2-0.4-0.6-0.7-1-1c-0.2-0.4-0.6-0.7-1-1c-0.2-0.4-0.6-0.7-1-1c-0.2-0.4-0.6-0.7-1-1
				c-0.2-0.4-0.6-0.7-1-1c-0.2-0.4-0.6-0.7-1-1c-0.2-0.4-0.6-0.7-1-1c-0.2-0.4-0.6-0.7-1-1c-0.2-0.4-0.6-0.7-1-1
				c-0.2-0.4-0.6-0.7-1-1c-0.2-0.4-0.6-0.7-1-1c-0.2-0.4-0.6-0.7-1-1c-0.2-0.4-0.6-0.7-1-1c-0.2-0.4-0.6-0.7-1-1
				c-0.2-0.4-0.6-0.7-1-1c-0.2-0.4-0.6-0.7-1-1c-0.2-0.4-0.6-0.7-1-1c-0.2-0.4-0.6-0.7-1-1c-0.2-0.4-0.6-0.7-1-1
				c-0.2-0.4-0.6-0.7-1-1c-0.2-0.4-0.6-0.7-1-1c-0.2-0.4-0.6-0.7-1-1c-0.2-0.4-0.6-0.7-1-1c-0.2-0.4-0.6-0.7-1-1
				c-0.2-0.4-0.6-0.7-1-1c-0.2-0.4-0.6-0.7-1-1c-0.2-0.4-0.6-0.7-1-1c-0.2-0.4-0.6-0.7-1-1c-0.2-0.4-0.6-0.7-1-1
				c-0.2-0.4-0.6-0.7-1-1c-0.2-0.4-0.6-0.7-1-1c-0.2-0.4-0.6-0.7-1-1c-0.2-0.4-0.6-0.7-1-1c-0.2-0.4-0.6-0.7-1-1
				c-0.2-0.4-0.6-0.7-1-1c-0.2-0.4-0.6-0.7-1-1c-0.2-0.4-0.6-0.7-1-1c-0.2-0.4-0.6-0.7-1-1c-0.2-0.4-0.6-0.7-1-1
				c-0.2-0.4-0.6-0.7-1-1c-0.2-0.4-0.6-0.7-1-1c-0.2-0.4-0.6-0.7-1-1c-0.2-0.4-0.6-0.7-1-1c-0.2-0.4-0.6-0.7-1-1
				c-0.2-0.4-0.6-0.7-1-1c-0.2-0.4-0.6-0.7-1-1c-0.2-0.4-0.6-0.7-1-1c-0.2-0.4-0.6-0.7-1-1c-0.2-0.4-0.6-0.7-1-1
				c-0.4-0.6-1.2-1.3-2.2-1.6c-0.4-0.1-0.9-0.2-1.3-0.2c-0.9-0.5-1.8-1-2.7-1.5c-1.1-0.7-2.1-1.5-3.2-2.2c-0.9-0.5-1.8-1-2.7-1.5
				c-0.4-0.3-0.8-0.4-1.2-0.4c-0.9-0.5-1.7-1-2.6-1.5c-1-0.8-2.1-1.5-3.1-2.3c-1-0.5-2-1-3-1.5c-0.3-0.3-0.6-0.4-1-0.4
				c-0.6-0.4-1.2-0.8-1.8-1.1c-1.3-0.9-2.7-1.8-4.1-2.6c-1.3-0.6-2.6-1.2-3.9-1.8c-1.1-0.8-2.2-1.5-3.3-2.3c-0.3-0.3-0.6-0.4-1-0.3
				c-0.1-0.1-0.2-0.1-0.3-0.1c-0.5-1-1.5-1.2-2.5-1.4c-0.6-0.4-1.2-0.8-1.9-1.2c-0.7-0.4-1.4-0.7-2.1-1.1c-0.2-0.2-0.4-0.3-0.6-0.4
				c-0.4-0.9-1.3-1.2-2.2-1.2c-0.1-0.1-0.2-0.1-0.3-0.2c-0.5-1.1-1.6-1.3-2.6-1.5c-0.6-0.4-1.2-0.8-1.8-1.2
				c-0.8-0.5-1.7-0.9-2.5-1.3c-0.1-0.1-0.2-0.2-0.3-0.3c-1.1-1.4-2.6-2.1-4.2-2.6l0,0.1c0,0,0,0,0,0c0,0,0.1-0.1,0.1-0.1
				c-1.4-1.3-3-2.4-4.9-2.7c-0.1-0.1-0.2-0.2-0.4-0.2c-0.5-1-1.5-1.2-2.5-1.4c-0.6-0.4-1.3-0.8-1.9-1.3c-1.4-0.9-2.7-1.7-4.1-2.6
				c-0.5-0.4-1.1-0.7-1.6-1.1c-0.5-0.2-0.9-0.3-1.4-0.5c-0.9-0.5-1.7-1-2.6-1.5c-0.9-0.5-1.8-0.9-2.6-1.4c-1.1-0.8-2.1-1.5-3.2-2.3
				c-0.4-0.3-0.8-0.5-1.2-0.5c-0.9-0.5-1.7-0.9-2.6-1.4c-1-0.7-2.1-1.5-3.1-2.2c-1.3-0.7-2.7-1.3-4-2c-0.8-0.5-1.7-0.9-2.5-1.4
				c-1.1-0.8-2.2-1.5-3.2-2.3c-0.4-0.3-0.8-0.4-1.3-0.4c-0.9-0.5-1.8-1-2.7-1.5c-1-0.7-2-1.4-3.1-2.1c-0.9-0.5-1.8-1-2.8-1.6
				c-0.4-0.3-0.8-0.4-1.2-0.4c-0.9-0.5-1.8-1-2.6-1.5c-1-0.8-2.1-1.5-3.1-2.3c-1-0.5-1.9-1-2.9-1.5c-0.3-0.3-0.7-0.5-1.1-0.5
				c-1.9-1.2-3.9-2.5-5.8-3.7c-0.4-0.3-0.8-0.4-1.2-0.4c-0.9-0.5-1.8-1-2.7-1.5c-1.1-0.7-2.1-1.5-3.2-2.2c-0.9-0.5-1.8-1-2.7-1.6
				c-0.4-0.3-0.8-0.4-1.2-0.4c-0.9-0.5-1.8-1-2.6-1.5c-1-0.7-2.1-1.5-3.1-2.2c-1-0.5-1.9-1-2.9-1.5c-0.3-0.3-0.7-0.4-1.1-0.4
				c-0.6-0.4-1.2-0.8-1.8-1.1c-1.3-0.9-2.7-1.7-4-2.6c-1.3-0.6-2.6-1.3-3.9-1.9c-1.1-0.7-2.2-1.5-3.3-2.2c-0.9-0.5-1.7-1.1-2.6-1.6
				c-0.3-0.3-0.7-0.4-1.1-0.4c-0.6-0.4-1.3-0.8-1.9-1.3c-1.3-0.8-2.7-1.7-4-2.5c-0.4-0.3-0.7-0.4-1.1-0.3c-0.1,0-0.1-0.1-0.2-0.1
				c-0.5-1.1-1.6-1.3-2.6-1.5c-0.6-0.4-1.2-0.8-1.8-1.2c-0.8-0.5-1.7-0.9-2.5-1.3c-0.1-0.1-0.3-0.3-0.5-0.4c-1.1-1.3-2.4-2-4.1-2.3
				c-0.2-0.3-0.6-0.4-0.9-0.4c-0.6-0.4-1.2-0.7-1.8-1.1c-0.9-1.5-2.3-1.5-3.8-1.5c-0.1-0.2-0.2-0.3-0.3-0.5
				c-0.2-0.1-0.4-0.3-0.7-0.4c-0.1-0.2-0.2-0.4-0.3-0.6c-0.7-0.4-1.3-0.9-2-1.3c-1.4-0.9-2.7-1.7-4.1-2.6c-0.3-0.3-0.5-0.4-0.9-0.3
				c-0.1,0-0.1-0.1-0.2-0.1c-0.5-1.1-1.6-1.3-2.6-1.5c-0.6-0.4-1.2-0.8-1.9-1.2c-0.8-0.5-1.7-0.9-2.5-1.4c-1.1-0.8-2.1-1.5-3.2-2.3
				c-0.4-0.2-0.9-0.3-1.3-0.5c-0.9-0.5-1.7-1-2.6-1.4c-0.9-0.5-1.8-0.9-2.6-1.4c-1.1-0.7-2.2-1.5-3.3-2.2c-0.3-0.4-0.7-0.6-1.2-0.6
				c-1.4-0.9-2.9-1.7-4.3-2.6c-0.5-0.4-1-0.7-1.4-1.1c-0.4-0.1-0.9-0.3-1.3-0.4c-0.9-0.5-1.8-1-2.7-1.5c-0.8-0.5-1.7-0.9-2.5-1.4
				c-1.1-0.8-2.2-1.6-3.3-2.3c-0.4-0.3-0.8-0.4-1.3-0.4c-0.9-0.5-1.8-1-2.6-1.5c-1-0.7-2-1.5-3.1-2.2c-1-0.5-1.9-1-2.9-1.5
				c-0.3-0.3-0.7-0.5-1.1-0.5c-0.9-0.5-1.7-1-2.6-1.4c-1.1-0.8-2.1-1.5-3.2-2.3c-0.4-0.3-0.8-0.4-1.3-0.4c-0.9-0.5-1.8-1-2.7-1.6
				c-0.8-0.5-1.7-0.9-2.5-1.4c-1.1-0.8-2.2-1.6-3.3-2.4c-0.4-0.3-0.8-0.4-1.2-0.4c-0.9-0.5-1.8-1-2.7-1.5c-1-0.7-2-1.5-3.1-2.2
				c-1-0.5-1.9-1-2.9-1.5c-0.3-0.3-0.7-0.4-1.2-0.4c-0.9-0.5-1.7-1-2.6-1.5c-1.1-0.8-2.1-1.5-3.2-2.3c-1-0.5-2-1-2.9-1.4
				c-0.3-0.3-0.6-0.5-1-0.5c-1.9-1.3-3.9-2.5-5.8-3.8c-0.3-0.3-0.7-0.4-1.2-0.4c-0.9-0.5-1.8-1-2.7-1.5c-1.1-0.8-2.2-1.5-3.2-2.3
				c-0.9-0.5-1.8-1-2.7-1.5c-0.3-0.2-0.7-0.4-1.1-0.4c-0.6-0.4-1.3-0.8-1.9-1.2c-1.3-0.9-2.6-1.7-3.9-2.6c-1-0.5-2-1-3-1.5
				c-0.3-0.3-0.6-0.4-0.9-0.4c-0.6-0.4-1.2-0.8-1.8-1.1c-0.8-0.5-1.6-0.9-2.4-1.4c-0.1-0.1-0.3-0.3-0.5-0.4c-1.1-1.4-2.6-2-4.2-2.6
				c-1.4-0.8-2.8-1.7-4.1-2.5c-0.3-0.3-0.6-0.4-1-0.3c-0.1,0-0.1-0.1-0.2-0.1c-0.5-1-1.5-1.3-2.5-1.5c-0.6-0.4-1.2-0.8-1.9-1.2
				c-0.9-0.5-1.7-1-2.6-1.5c-5-3.7-10.3-1.7-15.5-0.9c-3.8,0.8-7.9,0.6-11.5,2.3c-3.3,0.3-6.7-0.3-9.8,1.5c-1.8,0.1-3.6,0.3-5.4,0.4
				c-2.8,0.5-5.5,0.9-8.3,1.4c-4.4,0.4-8.8,0.7-13,2.3c-5.5,0.7-11,1.4-16.5,2.1c-3.9,0.5-7.8,0.5-11.5,2.2
				c-3.3,0.1-6.6-0.3-9.7,1.4c-1.8,0.2-3.6,0.3-5.4,0.5c-3.3,0.4-6.5,0.9-9.8,1.3c-3.7,1.5-7.9,0.4-11.5,2.4
				c-2.2,0.1-4.5,0.3-6.7,0.4c-4,3-4.1,7.7-0.1,11.2c0.3,0.3,0.6,0.7,1,1c0.3,0.3,0.6,0.7,1,1c0.3,0.3,0.6,0.7,1,1
				c0.3,0.3,0.6,0.7,1,1c0.3,0.3,0.6,0.7,1,1c0.3,0.3,0.6,0.7,1,1c0.3,0.3,0.6,0.7,1,1c0.1,0.4,0.3,0.8,0.4,1.2
				c0,11.2,0,22.3,0.1,33.5c0.9,13.5,1.8,27.1,2.7,40.6c0,2.6-0.9,4.2-4,4.5c-4.8,0.6-9.6,1.7-14.4,2.7c-6.8-0.2-6.4,5.5-6.7,9.4
				c-1.2,12.8,1.3,25,6.9,36.5c1,2,2,4.1,3.7,5.5c0.3,0.4,0.6,0.7,1,1c0.3,0.4,0.6,0.7,1,1c0.3,0.4,0.6,0.7,1,1c0.3,0.4,0.6,0.7,1,1
				c0.3,0.4,0.6,0.7,1,1c0.3,0.4,0.6,0.7,1,1c0.3,0.4,0.6,0.7,1,1c0.3,0.4,0.6,0.7,1,1c0.3,0.4,0.6,0.7,1,1c0.3,0.4,0.6,0.7,1,1
				c0.3,0.4,0.6,0.7,1,1c0.3,0.4,0.6,0.7,1,1c0.3,0.4,0.6,0.7,1,1c0.3,0.4,0.6,0.7,1,1c0.3,0.4,0.6,0.7,1,1c0.3,0.4,0.6,0.7,1,1
				c0.3,0.4,0.6,0.7,1,1c0.3,0.4,0.6,0.7,1,1c0.3,0.4,0.6,0.7,1,1c0.3,0.4,0.6,0.7,1,1c0.3,0.4,0.6,0.7,1,1c0.3,0.4,0.6,0.7,1,1
				c0.3,0.4,0.6,0.7,1,1c0.3,0.4,0.6,0.7,1,1c0.3,0.4,0.6,0.7,1,1c0.3,0.4,0.6,0.7,1,1c0.3,0.4,0.6,0.7,1,1c0.3,0.4,0.6,0.7,1,1
				c0.3,0.4,0.6,0.7,1,1c0.3,0.4,0.6,0.7,1,1c0.3,0.4,0.6,0.7,1,1c0.3,0.4,0.6,0.7,1,1c0.3,0.4,0.6,0.7,1,1c0.3,0.4,0.6,0.7,1,1
				c0.3,0.4,0.6,0.7,1,1c0.3,0.4,0.6,0.7,1,1c0.3,0.4,0.6,0.7,1,1c0.3,0.4,0.6,0.7,1,1c0.3,0.4,0.6,0.7,1,1c0.3,0.4,0.6,0.7,1,1
				c0.3,0.4,0.6,0.7,1,1c0.3,0.4,0.6,0.7,1,1c0.3,0.4,0.6,0.7,1,1c0.3,0.4,0.6,0.7,1,1c0.3,0.4,0.6,0.7,1,1c0.3,0.4,0.6,0.7,1,1
				c0.3,0.4,0.6,0.7,1,1c0.3,0.4,0.6,0.7,1,1c0.3,0.4,0.6,0.7,1,1c0.3,0.4,0.6,0.7,1,1c0.3,0.4,0.6,0.7,1,1c0.3,0.4,0.6,0.7,1,1
				c0.3,0.4,0.6,0.7,1,1c0.3,0.4,0.6,0.7,1,1c0.3,0.4,0.6,0.7,1,1c0.3,0.4,0.6,0.7,1,1c0.3,0.4,0.6,0.7,1,1c0.3,0.4,0.6,0.7,1,1
				c0.3,0.4,0.6,0.7,1,1c0.3,0.4,0.6,0.7,1,1c0.2,0.3,0.5,0.5,0.7,0.8c0.7,14,5.5,27.2,13.8,39.4c0.5,0.8,1.1,1.5,1.8,2
				c0.3,0.4,0.7,0.7,1,1c0.3,0.4,0.7,0.7,1,1c0.3,0.4,0.7,0.7,1,1c0.3,0.4,0.7,0.7,1,1c0.3,0.4,0.7,0.7,1,1c0.3,0.4,0.7,0.7,1,1
				c0.3,0.4,0.7,0.7,1,1c0.3,0.4,0.7,0.7,1,1c0.3,0.4,0.7,0.7,1,1c0.3,0.4,0.7,0.7,1,1c0.3,0.4,0.7,0.7,1,1c0.3,0.4,0.7,0.7,1,1
				c0.3,0.4,0.7,0.7,1,1c0.3,0.4,0.7,0.7,1,1c0.3,0.4,0.7,0.7,1,1c0.3,0.4,0.7,0.7,1,1c0.3,0.4,0.7,0.7,1,1c0.3,0.4,0.7,0.7,1,1
				c0.3,0.4,0.7,0.7,1,1c0.3,0.4,0.7,0.7,1,1c0.3,0.4,0.7,0.7,1,1c0.3,0.4,0.7,0.7,1,1c0.3,0.4,0.7,0.7,1,1c0.3,0.4,0.7,0.7,1,1
				c0.3,0.4,0.7,0.7,1,1c0.3,0.4,0.7,0.7,1,1c0.3,0.4,0.7,0.7,1,1c0.3,0.4,0.7,0.7,1,1c0.3,0.4,0.7,0.7,1,1c0.3,0.4,0.7,0.7,1,1
				c0.3,0.4,0.7,0.7,1,1c0.3,0.4,0.7,0.7,1,1c0.3,0.4,0.7,0.7,1,1c0.3,0.4,0.7,0.7,1,1c0.3,0.4,0.7,0.7,1,1c0.3,0.4,0.7,0.7,1,1
				c0.3,0.4,0.7,0.7,1,1c0.3,0.4,0.7,0.7,1,1c0.3,0.4,0.7,0.7,1,1c0.3,0.4,0.7,0.7,1,1c0.3,0.4,0.7,0.7,1,1c0.3,0.4,0.7,0.7,1,1
				c0.3,0.4,0.7,0.7,1,1c0.3,0.4,0.7,0.7,1,1c0.3,0.4,0.7,0.7,1,1c0.3,0.4,0.7,0.7,1,1c0.3,0.4,0.7,0.7,1,1c0.3,0.4,0.7,0.7,1,1
				c0.3,0.4,0.7,0.7,1,1c0.3,0.4,0.7,0.7,1,1c0.3,0.4,0.7,0.7,1,1c0.3,0.4,0.7,0.7,1,1c0.3,0.4,0.7,0.7,1,1c0.3,0.4,0.7,0.7,1,1
				c0.3,0.4,0.7,0.7,1,1c0.3,0.4,0.7,0.7,1,1c0.3,0.4,0.7,0.7,1,1c0.3,0.4,0.7,0.7,1,1c0.3,0.4,0.7,0.7,1,1c0.3,0.4,0.7,0.7,1,1
				c0.3,0.4,0.7,0.7,1,1c0.3,0.4,0.7,0.7,1,1c0.3,0.4,0.7,0.7,1,1c0.3,0.4,0.7,0.7,1,1c0.3,0.4,0.7,0.7,1,1c0.3,0.4,0.7,0.7,1,1
				c0.3,0.4,0.7,0.7,1,1c0.3,0.4,0.7,0.7,1,1c0.3,0.4,0.7,0.7,1,1c0.3,0.4,0.7,0.7,1,1c0.3,0.4,0.7,0.7,1,1c0.3,0.4,0.7,0.7,1,1
				c0.3,0.4,0.7,0.7,1,1c0.3,0.4,0.7,0.7,1,1c0.3,0.4,0.7,0.7,1,1c0.3,0.4,0.7,0.7,1,1c0.3,0.4,0.7,0.7,1,1c0.3,0.4,0.7,0.7,1,1
				c0.3,0.4,0.7,0.7,1,1c0.3,0.4,0.7,0.7,1,1c0.3,0.4,0.7,0.7,1,1c0.3,0.4,0.7,0.7,1,1c0.3,0.4,0.7,0.7,1,1c0.3,0.4,0.7,0.7,1,1
				c0.3,0.4,0.7,0.7,1,1c0.3,0.4,0.7,0.7,1,1c0.3,0.4,0.7,0.7,1,1c0.3,0.4,0.7,0.7,1,1c0.3,0.4,0.7,0.7,1,1c0.3,0.4,0.7,0.7,1,1
				c0.3,0.4,0.7,0.7,1,1c0.3,0.4,0.7,0.7,1,1c0.3,0.4,0.7,0.7,1,1c0.3,0.4,0.7,0.7,1,1c0.3,0.4,0.7,0.7,1,1c0.3,0.4,0.7,0.7,1,1
				c0.3,0.4,0.7,0.7,1,1c0.3,0.4,0.7,0.7,1,1c0.3,0.4,0.7,0.7,1,1c0.3,0.4,0.7,0.7,1,1c0.3,0.4,0.7,0.7,1,1c0.3,0.4,0.7,0.7,1,1
				c0.3,0.4,0.7,0.7,1,1c0.3,0.4,0.7,0.7,1,1c0.3,0.4,0.7,0.7,1,1c0.3,0.4,0.7,0.7,1,1c0.3,0.4,0.7,0.7,1,1c0.3,0.4,0.7,0.7,1,1
				c0.3,0.4,0.7,0.7,1,1c0.3,0.4,0.7,0.7,1,1c0.3,0.4,0.7,0.7,1,1c0.3,0.4,0.7,0.7,1,1c0.3,0.4,0.7,0.7,1,1c0.3,0.4,0.7,0.7,1,1
				c0.3,0.4,0.7,0.7,1,1c0.3,0.4,0.7,0.7,1,1c0.3,0.4,0.7,0.7,1,1c0.3,0.4,0.7,0.7,1,1c0.3,0.4,0.7,0.7,1,1c0.3,0.4,0.7,0.7,1,1
				c0.3,0.4,0.7,0.7,1,1c0.3,0.4,0.7,0.7,1,1c0.3,0.4,0.7,0.7,1,1c0.3,0.4,0.7,0.7,1,1c0.3,0.4,0.7,0.7,1,1c0.3,0.4,0.7,0.7,1,1
				c0.3,0.4,0.7,0.7,1,1c0.3,0.4,0.7,0.7,1,1c0.3,0.4,0.7,0.7,1,1c0.3,0.4,0.7,0.7,1,1c0.3,0.4,0.7,0.7,1,1c0.3,0.4,0.7,0.7,1,1
				c0.3,0.4,0.7,0.7,1,1c0.3,0.4,0.7,0.7,1,1c0.3,0.4,0.7,0.7,1,1c0.3,0.4,0.7,0.7,1,1c0.3,0.4,0.7,0.7,1,1c0.3,0.4,0.7,0.7,1,1
				c0.3,0.4,0.7,0.7,1,1c0.3,0.4,0.7,0.7,1,1c0.3,0.4,0.7,0.7,1,1c0.3,0.4,0.7,0.7,1,1c0.3,0.4,0.7,0.7,1,1c0.3,0.4,0.7,0.7,1,1
				c0.3,0.4,0.7,0.7,1,1c0.3,0.4,0.7,0.7,1,1c0.3,0.4,0.7,0.7,1,1c0.3,0.4,0.7,0.7,1,1c0.3,0.4,0.7,0.7,1,1c0.3,0.4,0.7,0.7,1,1
				c0.3,0.4,0.7,0.7,1,1c0.3,0.4,0.7,0.7,1,1c0.3,0.4,0.7,0.7,1,1c0.3,0.4,0.7,0.7,1,1c0.3,0.4,0.7,0.7,1,1c0.3,0.4,0.7,0.7,1,1
				c0.3,0.4,0.7,0.7,1,1c0.3,0.4,0.7,0.7,1,1c0.3,0.4,0.7,0.7,1,1c0.3,0.4,0.7,0.7,1,1c0.3,0.4,0.7,0.7,1,1c0.3,0.4,0.7,0.7,1,1
				c0.3,0.4,0.7,0.7,1,1c0.3,0.4,0.7,0.7,1,1c0.3,0.4,0.7,0.7,1,1c0.3,0.4,0.7,0.7,1,1c0.3,0.4,0.7,0.7,1,1c0.3,0.4,0.7,0.7,1,1
				c0.3,0.4,0.7,0.7,1,1c0.3,0.4,0.7,0.7,1,1c0.3,0.4,0.7,0.7,1,1c0.3,0.4,0.7,0.7,1,1c0.3,0.4,0.7,0.7,1,1c0.3,0.4,0.7,0.7,1,1
				c0.3,0.4,0.7,0.7,1,1c0.3,0.4,0.7,0.7,1,1c0.3,0.4,0.7,0.7,1,1c0.3,0.4,0.7,0.7,1,1c0.3,0.4,0.7,0.7,1,1c0.3,0.4,0.7,0.7,1,1
				c0.3,0.4,0.7,0.7,1,1c0.3,0.4,0.7,0.7,1,1c0.3,0.4,0.7,0.7,1,1c0.3,0.4,0.7,0.7,1,1c0.3,0.4,0.7,0.7,1,1c0.3,0.4,0.7,0.7,1,1
				c0.3,0.4,0.7,0.7,1,1c0.3,0.4,0.7,0.7,1,1c0.3,0.4,0.7,0.7,1,1c0.3,0.4,0.7,0.7,1,1c0.3,0.4,0.7,0.7,1,1c0.3,0.4,0.7,0.7,1,1
				c0.3,0.4,0.7,0.7,1,1c0.3,0.4,0.7,0.7,1,1c0.3,0.4,0.7,0.7,1,1c0.3,0.4,0.7,0.7,1,1c0.3,0.4,0.7,0.7,1,1c0.3,0.4,0.7,0.7,1,1
				c0.3,0.4,0.7,0.7,1,1c0.3,0.4,0.7,0.7,1,1c0.3,0.4,0.7,0.7,1,1c0.3,0.4,0.7,0.7,1,1c0.3,0.4,0.7,0.7,1,1c0.3,0.4,0.7,0.7,1,1
				c0.3,0.4,0.7,0.7,1,1c0.3,0.4,0.7,0.7,1,1c0.3,0.4,0.7,0.7,1,1c0.3,0.4,0.7,0.7,1,1c0.3,0.4,0.7,0.7,1,1c0.3,0.4,0.7,0.7,1,1
				c0.3,0.4,0.7,0.7,1,1c0.3,0.4,0.7,0.7,1,1c0.3,0.4,0.7,0.7,1,1c0.3,0.4,0.7,0.7,1,1c0.3,0.4,0.7,0.7,1,1c0.3,0.4,0.7,0.7,1,1
				c0.3,0.4,0.7,0.7,1,1c0.3,0.4,0.7,0.7,1,1c0.3,0.4,0.7,0.7,1,1c0.3,0.4,0.7,0.7,1,1c0.3,0.4,0.7,0.7,1,1c0.3,0.4,0.7,0.7,1,1
				c0.3,0.4,0.7,0.7,1,1c0.3,0.4,0.7,0.7,1,1c0.3,0.4,0.7,0.7,1,1c0.3,0.4,0.7,0.7,1,1c0.3,0.4,0.7,0.7,1,1c0.3,0.4,0.7,0.7,1,1
				c0.3,0.4,0.7,0.7,1,1c0.3,0.4,0.7,0.7,1,1c0.3,0.4,0.7,0.7,1,1c0.3,0.4,0.7,0.7,1,1c0.3,0.4,0.7,0.7,1,1c0.3,0.4,0.7,0.7,1,1
				c0.3,0.4,0.7,0.7,1,1c0.3,0.4,0.7,0.7,1,1c0.3,0.4,0.7,0.7,1,1c0.3,0.4,0.7,0.7,1,1c0.3,0.4,0.7,0.7,1,1c0.3,0.4,0.7,0.7,1,1
				c0.3,0.4,0.7,0.7,1,1c0.3,0.4,0.7,0.7,1,1c0.3,0.4,0.7,0.7,1,1c0.3,0.4,0.7,0.7,1,1c0.3,0.4,0.7,0.7,1,1c0.3,0.4,0.7,0.7,1,1
				c0.3,0.4,0.7,0.7,1,1c0.3,0.4,0.7,0.7,1,1c0.3,0.4,0.7,0.7,1,1c0.3,0.4,0.7,0.7,1,1c0.3,0.4,0.7,0.7,1,1c0.3,0.4,0.7,0.7,1,1
				c0.3,0.4,0.7,0.7,1,1c0.3,0.4,0.7,0.7,1,1c0.3,0.4,0.7,0.7,1,1c0.3,0.4,0.7,0.7,1,1c0.3,0.4,0.7,0.7,1,1c0.3,0.4,0.7,0.7,1,1
				c0.3,0.4,0.7,0.7,1,1c0.3,0.4,0.7,0.7,1,1c0.3,0.4,0.7,0.7,1,1c0.3,0.4,0.7,0.7,1,1c0.3,0.4,0.7,0.7,1,1c0.3,0.4,0.7,0.7,1,1
				c0.3,0.4,0.7,0.7,1,1c0.3,0.4,0.7,0.7,1,1c0.3,0.4,0.7,0.7,1,1c0.3,0.4,0.7,0.7,1,1c0.3,0.4,0.7,0.7,1,1c0.3,0.4,0.7,0.7,1,1
				c0.3,0.4,0.7,0.7,1,1c0.3,0.4,0.7,0.7,1,1c0.3,0.4,0.7,0.7,1,1c0.3,0.4,0.7,0.7,1,1c0.3,0.4,0.7,0.7,1,1c0.3,0.4,0.7,0.7,1,1
				c0.3,0.4,0.7,0.7,1,1c0.3,0.4,0.7,0.7,1,1c0.3,0.4,0.7,0.7,1,1c0.3,0.4,0.7,0.7,1,1c0.3,0.4,0.7,0.7,1,1c0.3,0.4,0.7,0.7,1,1
				c0.3,0.4,0.7,0.7,1,1c0.3,0.4,0.7,0.7,1,1c0.3,0.4,0.7,0.7,1,1c0.3,0.4,0.7,0.7,1,1c0.3,0.4,0.7,0.7,1,1c0.3,0.4,0.7,0.7,1,1
				c0.3,0.4,0.7,0.7,1,1c0.3,0.4,0.7,0.7,1,1c0.3,0.4,0.7,0.7,1,1c0.3,0.4,0.7,0.7,1,1c0.3,0.4,0.7,0.7,1,1c0.3,0.4,0.7,0.7,1,1
				c0.3,0.4,0.7,0.7,1,1c0.3,0.4,0.7,0.7,1,1c0.3,0.4,0.7,0.7,1,1c0.3,0.4,0.7,0.7,1,1c0.3,0.4,0.7,0.7,1,1c2.3,2.6,5.3,3.5,8.8,0.8
				c14.1-4.2,28.4-8.5,42.5-12.6c0.3,0.4,0.6,0.7,0.9,0.9c0.3,0.4,0.6,0.8,1,1c0.3,0.4,0.6,0.8,1,1c0.3,0.4,0.6,0.8,1,1
				c0.3,0.4,0.6,0.8,1,1c0.3,0.4,0.6,0.8,1,1c0.3,0.4,0.6,0.8,1,1c0.3,0.4,0.6,0.8,1,1c0.3,0.4,0.6,0.8,1,1c0.3,0.4,0.6,0.8,1,1
				c0.3,0.4,0.6,0.8,1,1c0.3,0.4,0.6,0.8,1,1c0.3,0.4,0.6,0.8,1,1c0.3,0.4,0.6,0.8,1,1c0.3,0.4,0.6,0.8,1,1c0.3,0.4,0.6,0.8,1,1
				c0.3,0.4,0.6,0.8,1,1c0.3,0.4,0.6,0.8,1,1c0.3,0.4,0.6,0.8,1,1c0.3,0.4,0.6,0.8,1,1c0.3,0.4,0.6,0.8,1,1c0.3,0.4,0.6,0.8,1,1
				c0.3,0.4,0.6,0.8,1,1c0.3,0.4,0.6,0.8,1,1c0.3,0.4,0.6,0.8,1,1c0.3,0.4,0.6,0.8,1,1c0.3,0.4,0.6,0.8,1,1c0.3,0.4,0.6,0.8,1,1
				c0.3,0.4,0.6,0.8,1,1c0.3,0.4,0.6,0.8,1,1c0.3,0.4,0.6,0.8,1,1c0.3,0.4,0.6,0.8,1,1c0.3,0.4,0.6,0.8,1,1c0.3,0.4,0.6,0.8,1,1
				c0.3,0.4,0.6,0.8,1,1c0.3,0.4,0.6,0.8,1,1c0.3,0.4,0.6,0.8,1,1c0.3,0.4,0.6,0.8,1,1c0.3,0.4,0.6,0.8,1,1c0.3,0.4,0.6,0.8,1,1
				c0.3,0.4,0.6,0.8,1,1c0.3,0.4,0.6,0.8,1,1c0.3,0.4,0.6,0.8,1,1c0.3,0.4,0.6,0.8,1,1c0.3,0.4,0.6,0.8,1,1c0.3,0.4,0.6,0.8,1,1
				c0.3,0.4,0.6,0.8,1,1c0.3,0.4,0.6,0.8,1,1c0.3,0.4,0.6,0.8,1,1c0.3,0.4,0.6,0.8,1,1c0.3,0.4,0.6,0.8,1,1c0.3,0.4,0.6,0.8,1,1
				c0.3,0.4,0.6,0.8,1,1c0.3,0.4,0.6,0.8,1,1c0.3,0.4,0.6,0.8,1,1c0.3,0.4,0.6,0.8,1,1c0.3,0.4,0.6,0.8,1,1c0.3,0.4,0.6,0.8,1,1
				c0.3,0.4,0.6,0.8,1,1c0.3,0.4,0.6,0.8,1,1c0.3,0.4,0.6,0.8,1,1c0.3,0.4,0.6,0.8,1,1c0.3,0.4,0.6,0.8,1,1c0.3,0.4,0.6,0.8,1,1
				c0.3,0.4,0.6,0.8,1,1c0.3,0.4,0.6,0.8,1,1c0.3,0.4,0.6,0.8,1,1c0.3,0.4,0.6,0.8,1,1c0.3,0.4,0.6,0.8,1,1c0.3,0.4,0.6,0.8,1,1
				c0.3,0.4,0.6,0.8,1,1c0.3,0.4,0.6,0.8,1,1c0.3,0.4,0.6,0.8,1,1c0.9,1.2,1.9,2.1,3.9,0.3c2.7-0.8,5.4-1.6,8.1-2.4
				c0.2,0.2,0.4,0.4,0.6,0.5c0.3,0.4,0.6,0.8,1,1c0.3,0.4,0.6,0.8,1,1c0.3,0.4,0.6,0.8,1,1c0.3,0.4,0.6,0.8,1,1c0.3,0.4,0.6,0.8,1,1
				c0.3,0.4,0.6,0.8,1,1c0.3,0.4,0.6,0.8,1,1c0.3,0.4,0.6,0.8,1,1c0.3,0.4,0.6,0.8,1,1c0.3,0.4,0.6,0.8,1,1c0.3,0.4,0.6,0.8,1,1
				c0.3,0.4,0.6,0.8,1,1c0.3,0.4,0.6,0.8,1,1c0.3,0.4,0.6,0.8,1,1c0.3,0.4,0.6,0.8,1,1c0.3,0.4,0.6,0.8,1,1c0.3,0.4,0.6,0.7,1,1
				c0.3,0.4,0.6,0.8,1,1c0.3,0.4,0.6,0.8,1,1c0.3,0.4,0.6,0.8,1,1c0.3,0.4,0.6,0.8,1,1c0.3,0.4,0.6,0.8,1,1c0.3,0.4,0.6,0.8,1,1
				c0.3,0.4,0.6,0.8,1,1c0.3,0.4,0.6,0.8,1,1c0.3,0.4,0.6,0.8,1,1c0.3,0.4,0.6,0.8,1,1c0.3,0.4,0.6,0.8,1,1c0.3,0.4,0.6,0.8,1,1
				c0.3,0.4,0.6,0.8,1,1c0.3,0.4,0.6,0.8,1,1c0.3,0.4,0.6,0.8,1,1c0.3,0.4,0.6,0.8,1,1c0.3,0.4,0.6,0.8,1,1c0.3,0.4,0.6,0.8,1,1
				c0.3,0.4,0.6,0.8,1,1c0.3,0.4,0.6,0.8,1,1c0.3,0.4,0.6,0.8,1,1c0.3,0.4,0.6,0.8,1,1c0.8,1.1,1.8,1.9,3.5,0.9
				c7.6-3.8,15.2-7.6,22.9-11.4c0.7-0.1,1.4-0.1,2.1-0.4c57.5-22.3,114.9-44.7,172.4-66.9c3.3-1.3,4.6-3.1,5-6.5
				c3.1-24.9,6.3-49.8,9.5-74.7c2.7-5.3,0.3-11.3,2.3-16.7C938.9,709.8,938.3,709,937.4,708.5z"/>
		</g>
	</g>
</g>
<g>
	<path class="st4" d="M636.3,427.6c-3.2,24.9-6.4,49.8-9.5,74.7c-0.4,3.4-1.7,5.3-5,6.5c-57.5,22.2-115,44.6-172.4,66.9
		c-0.6,0.2-1.4,0.3-2.1,0.4c-0.3-0.3-0.6-0.5-1-0.8c-1.5-2.7-1.3-5.7-1.3-8.6c-0.1-5.5-0.3-11.1-0.1-16.6c0.2-18.2,0.1-36.4,0-54.6
		c-0.2-3.8-0.3-7.6,0.8-11.2c1.2-2.9,3.9-3.9,6.5-4.8c58-19.3,116-38.4,174.2-57.3c1.6-0.5,3.1-1,4.7-1.3
		C637.1,419.9,637.4,423.2,636.3,427.6z"/>
	<path class="st5" d="M373,549.3c-2.7,2.5-3.7-0.3-4.9-1.7c-20.4-24.1-40.8-48.3-61.2-72.5c-1.5-2.3,0.3-3.9,1.2-5.7
		c7.3-15.2,3.7-37.2-8-49.6c-2.9-3.1-6-4-10.1-3.1c-7.5,1.6-15.1,3.1-22.7,4.5c-2.9,0.5-6.1,1.6-8-2.1
		c-11.7-13.9-23.5-27.8-35.2-41.8c-0.9-2.6,0.9-4.4,1.7-6.5c4.9-13,1.3-28.4-8.6-38.1c-3-2.9-6.1-3.9-10.1-3c-5,1.1-10,2.3-15.1,2.8
		c-3.6,0.4-7.2,0.3-8-4.4c-0.9-13.5-1.8-27.1-2.7-40.6c0.6-0.3,1.3-0.4,1.9-0.1c2.9,1.7,4.9,4.2,7.2,6.5
		c49,48.9,98.1,97.8,146.8,147c10.8,10.9,21.1,22.4,32,33.2c2.4,2.4,4,5.2,4.1,8.6C373.7,504.9,373.7,527.1,373,549.3z"/>
	<path class="st6" d="M636.3,427.6c0.3-5.2-1.6-6.2-6.6-4.5c-36.1,12.1-72.3,23.9-108.5,35.8c-24.7,8.1-49.4,16.4-74.1,24.6
		c-1.3,0.3-1.7-0.2-1.4-1.5c0.8-1,0.7-2.1,0.7-3.2c0,1.1,0.1,2.2-0.7,3.2c-2.4,1.1-4-0.6-5.6-1.7c-6.3-4.7-12.6-9.4-18.7-14.4
		c-0.6-0.8-1-1.7-1.4-2.6c-7.8-9.7-18.1-16.7-27.3-24.9c-17.2-15.4-34.7-30.5-52-45.6c-15.8-13.8-31.8-27.4-47.5-41.3
		c-17.3-15.3-34.6-30.6-52.1-45.6c-8.5-7.3-17-14.5-25.4-22c-2.3-2-4.5-4-6.3-6.5c-8.8-8.5-18.1-16.4-28.2-23.3
		c-0.8-4-4.3-5.7-7.1-8c-4.2-3.6-4.2-8.3-0.1-11.4c0.4,0.3,0.7,0.6,1.1,1c0.3,0.3,0.7,0.7,1,1.1c0.5,0.5,1,1.1,1.5,1.6
		c0.6,0.5,1.1,1,1.6,1.5c0.8,0.7,1.6,1.2,2.5,1.7c0.5,0.3,0.9,0.5,1.3,0.9c0.8,0.7,1.6,1.4,2.4,2.2c0.6,0.6,1.1,1.1,1.7,1.7
		c0.6,0.5,1.1,1.1,1.6,1.7c0.7,0.7,1.4,1.4,2.1,2.1c0.6,0.5,1.1,0.9,1.8,1.3c0.5,0.2,0.9,0.5,1.3,0.8c0.6,0.4,1.2,0.9,1.7,1.5
		c0.6,0.5,1.1,1,1.7,1.6c0.7,0.7,1.5,1.4,2.2,2.1c0.8,0.6,1.7,1.1,2.6,1.7c0.7,0.4,1.3,1,1.8,1.5c0.9,0.9,1.9,1.8,2.8,2.8
		c0.7,0.7,1.4,1.4,2.1,2.2c0.5,0.5,1.1,0.9,1.7,1.3c0.4,0.2,0.8,0.5,1.2,0.7c0.6,0.4,1.1,0.9,1.6,1.4s1,1,1.5,1.5s1,1,1.5,1.5
		s1.1,1,1.6,1.5c0.6,0.5,1.1,1,1.7,1.5c0.6,0.5,1.2,0.9,1.8,1.4c0.4,0.2,0.9,0.5,1.3,0.8c0.6,0.4,1.2,0.9,1.7,1.5
		c0.5,0.5,1,1,1.6,1.6c0.5,0.5,1,1,1.5,1.5s1.1,0.9,1.7,1.4c0.6,0.4,1.2,0.7,1.9,1.1c0.6,0.4,1.2,0.9,1.7,1.4s1,1,1.6,1.5
		c0.5,0.5,1,1,1.5,1.6c0.5,0.5,1.1,1,1.6,1.6c0.6,0.5,1.1,1,1.7,1.6c0.6,0.5,1.2,1,1.9,1.4c0.5,0.3,0.9,0.6,1.3,0.9
		c0.7,0.5,1.3,1,1.8,1.6c0.6,0.5,1.2,1.1,1.7,1.7c1,1,2,1.9,3,2.8s2,1.9,3.2,2.6c0.5,0.3,0.9,0.6,1.4,0.9c0.7,0.5,1.3,1,1.8,1.6
		c0.6,0.5,1.1,1.1,1.7,1.6c0.7,0.7,1.5,1.3,2.3,1.8c0.4,0.2,0.8,0.5,1.2,0.8c0.6,0.4,1.1,0.9,1.7,1.4c0.5,0.5,1,1,1.5,1.5
		s1,1,1.5,1.5s1,1,1.6,1.5c0.5,0.5,1.1,1,1.6,1.5c0.7,0.7,1.5,1.3,2.4,1.8s1.7,1.1,2.4,1.8c0.6,0.5,1.1,1,1.6,1.6
		c0.5,0.5,1,1,1.6,1.6c0.5,0.5,1.1,1,1.7,1.4s1.3,0.8,1.9,1.2c0.6,0.4,1.2,0.9,1.7,1.4s1,1,1.6,1.6c0.5,0.5,1,1,1.5,1.5
		s1.1,1,1.6,1.5c0.6,0.5,1.1,1,1.6,1.5c0.8,0.7,1.6,1.2,2.5,1.8c0.5,0.3,0.9,0.6,1.3,0.9c0.9,0.7,1.6,1.4,2.4,2.2
		c0.6,0.6,1.1,1.1,1.7,1.7c0.6,0.5,1.1,1.1,1.6,1.7c0.7,0.7,1.4,1.4,2.1,2.1c0.6,0.5,1.1,0.9,1.8,1.3c0.4,0.2,0.9,0.5,1.3,0.7
		c0.6,0.4,1.2,0.9,1.7,1.4s1.1,1,1.6,1.5c0.7,0.7,1.5,1.2,2.4,1.7c0.5,0.2,0.9,0.5,1.3,0.8c0.6,0.5,1.2,1,1.8,1.5
		c0.6,0.5,1.2,1.1,1.7,1.7c0.8,0.7,1.5,1.5,2.3,2.2c0.7,0.7,1.4,1.5,2.2,2.2c0.5,0.5,1.1,1,1.8,1.4c0.4,0.2,0.8,0.5,1.3,0.7
		c0.6,0.4,1.1,0.9,1.7,1.4c0.5,0.5,1,1,1.5,1.5s1.1,1,1.6,1.5c0.6,0.5,1.2,1,1.8,1.4c0.7,0.4,1.3,0.8,1.9,1.4
		c0.6,0.5,1.2,1.1,1.8,1.7c0.5,0.3,0.9,0.7,1.3,1c0.7,0.5,1.3,1.1,1.9,1.7c1.1,1,2.1,2.1,3.1,3c0.8,0.7,1.7,1.3,2.6,1.9
		c0.7,0.4,1.2,0.9,1.8,1.5c0.6,0.5,1.1,1.1,1.6,1.6s1.1,1,1.6,1.6c0.6,0.5,1.2,1.1,1.7,1.7c0.6,0.6,1.2,1.2,1.8,1.8
		c0.6,0.5,1.2,1,1.9,1.3c0.4,0.2,0.9,0.5,1.3,0.7c0.6,0.4,1.2,0.9,1.8,1.3c0.8,0.6,1.7,1.1,2.5,1.7c0.7,0.7,1.4,1.4,2.2,2.1
		c0.6,0.5,1.2,1,1.7,1.5s1.1,1,1.6,1.6c0.5,0.5,1,1.1,1.6,1.6c0.5,0.5,1.1,1,1.6,1.6c0.6,0.5,1.1,1,1.7,1.6c0.6,0.5,1.2,1,1.9,1.4
		c0.5,0.3,0.9,0.5,1.3,0.8c0.6,0.5,1.2,1,1.8,1.5c0.6,0.5,1.1,1.1,1.6,1.6c0.7,0.7,1.5,1.4,2.2,2.1c0.4,0.3,0.8,0.7,1.1,1.1
		c0.4,0.4,0.8,0.7,1.2,1.1c0.6,0.5,1.2,1,1.9,1.5c0.5,0.3,0.9,0.5,1.3,0.8c0.6,0.4,1.2,1,1.7,1.5s1.1,1,1.6,1.6
		c0.5,0.5,1.1,1,1.6,1.5c0.6,0.5,1.2,1,1.8,1.4c0.7,0.4,1.3,0.8,1.9,1.3s1.1,1.1,1.7,1.6c0.4,0.3,0.8,0.7,1.2,1
		c0.6,0.5,1.2,1,1.8,1.6c0.6,0.5,1.2,1.1,1.7,1.6c0.6,0.5,1.2,1,1.9,1.4c0.5,0.3,0.9,0.5,1.3,0.8c0.6,0.4,1.2,0.9,1.7,1.5
		c0.5,0.5,1,1,1.5,1.6c0.5,0.5,1,1,1.5,1.5s1.1,1,1.6,1.6c0.6,0.5,1.1,1.1,1.7,1.6s1.1,1.1,1.7,1.7c0.6,0.5,1.2,1,1.8,1.4
		c0.5,0.2,0.9,0.5,1.3,0.8c0.6,0.4,1.2,0.9,1.7,1.4s1.1,1,1.6,1.5c0.7,0.7,1.5,1.2,2.4,1.7c0.5,0.2,0.9,0.5,1.3,0.8
		c0.6,0.5,1.2,1,1.8,1.5c0.6,0.5,1.2,1.1,1.7,1.7c0.8,0.7,1.5,1.5,2.3,2.2c0.7,0.7,1.4,1.5,2.2,2.2c0.5,0.5,1.1,1,1.7,1.4
		c0.4,0.2,0.8,0.5,1.3,0.7c0.6,0.4,1.1,0.9,1.6,1.4s1,1,1.5,1.5s1,1,1.5,1.5s1,1,1.6,1.5c0.5,0.5,1.1,1,1.6,1.5
		c0.8,0.7,1.6,1.2,2.5,1.8c0.5,0.3,1,0.6,1.4,0.9c0.7,0.5,1.4,1.1,2.1,1.6c3.9,2.8,7.3-0.5,10.9-0.9c1.5-0.5,2.9-0.9,4.4-1.4
		c1.2-0.4,2.3-0.6,3.5-0.9c1.8-0.4,3.3-1.3,5-1.9s3.5-0.8,5.2-1.4c0.9-0.3,1.7-0.6,2.6-0.8c2-0.6,4-1.2,6-2c1.4-0.5,2.9-0.9,4.3-1.4
		s2.9-0.9,4.3-1.4c1.2-0.4,2.4-0.6,3.5-0.9c1.5-0.3,2.9-0.9,4.4-1.3c2.1-0.7,4.1-1.3,6.2-2.1c2.7-0.9,5.3-1.7,8-2.7
		c1.5-0.5,2.9-0.9,4.4-1.4c1.4-0.5,2.9-0.9,4.3-1.4c1.2-0.4,2.3-0.6,3.5-0.8c1.5-0.3,2.9-0.8,4.3-1.3c1.7-0.6,3.3-1.4,5-2.1
		c1.7-0.6,3.6-0.8,5.3-1.4c1.2-0.3,2.3-0.6,3.5-0.8c1.8-0.4,3.3-1.2,5-1.9c1.4-0.5,2.8-1,4.2-1.5s2.8-0.9,4.3-1.4
		c1.1-0.4,2.3-0.6,3.5-0.8c1.5-0.3,2.9-0.8,4.3-1.3c2-0.6,4-1.3,6-2c0.8-0.3,1.7-0.6,2.6-0.9c1.7-0.5,3.5-1,5.2-1.4
		c1.8-0.4,3.3-1.2,5-1.9c1.4-0.5,2.9-1,4.3-1.5c1.2-0.4,2.4-0.6,3.5-0.9c2.1-0.5,4-1.2,6-1.9c1.4-0.5,2.9-0.9,4.3-1.4
		c1.4-0.5,2.9-0.9,4.3-1.4c1.1-0.4,2.3-0.6,3.5-0.8c1.8-0.4,3.3-1.2,5-1.9c1.4-0.5,2.8-1,4.3-1.5c1.7-0.5,3.5-0.8,5.2-1.3
		c0.8-0.3,1.7-0.5,2.5-0.8c2-0.6,3.9-1.2,5.8-1.9c1.1-0.4,2.2-0.6,3.3-0.9c0.5-0.3,1-0.6,1.4-0.9c1.5,0.5,2.8,1.7,2.3,2.9
		C636.6,416.3,638.9,422.3,636.3,427.6z"/>
	<path class="st6" d="M259.4,419c6.6,2.6,12.5-1.6,18.9-1.9c3.9-0.2,7.9-1,11.5-2.4c5.7-2.1,9.3,0.2,12.4,4.4
		c10.8,14.4,15.2,29.9,9.4,47.7c-1.1,3.2-4,5.1-4.6,8.4c-3.5-2.5-6.7-0.1-9.9,0.8c-14.5,4.1-28.9,8.5-43.3,12.8
		c-0.6-0.8-0.9-1.6-0.7-2.6c4-21.9-0.6-41.7-14.2-59.4c-0.5-0.6-0.3-1.3-0.1-2C245.5,422.4,253.3,423.8,259.4,419z"/>
	<path class="st4" d="M421.8,462.4c0,0.9,0.1,1.8,0.1,2.7c1.1,1.8,1.7,3.8,1.6,6c-1.5,19.7-1.6,39.4-3.7,59
		c-0.3,2.5,0.4,5.9-3.6,6.5c-14.4,4.2-28.8,8.4-43.2,12.6c-2.2-1.9-2.3-4.4-2.1-7c1.4-20.6,0.2-41.2,0.6-61.8
		c7.9-2.6,15.4-6.3,23.3-8.9c6.3-3.1,12.8-5.6,19.2-8.6C416.4,461.9,419,460.3,421.8,462.4z"/>
	<path class="st6" d="M184,328c2,3.6,5.4,3.1,8.6,2.7c3-0.4,5.9-1.1,8.8-1.8c13.3-2.9,15.5-2.1,23,9.7c7.5,11.7,7.4,27.7-0.3,38.6
		c-9.4-0.3-17.9,3.8-26.9,5.5c-7.7,1.5-15.2,3.5-22.8,5.3c1-8.6,3-17.1,0.8-25.9c-2-8.1-3.5-16.3-8.7-23.1c-0.8-1.1-1.5-2.4-0.9-3.9
		c4.8-0.9,9.5-2.1,14.4-2.7C183.1,332.1,184,330.6,184,328z"/>
	<path class="st5" d="M416.2,536.7c3-5.5,2.2-11.8,2.4-17.5c0.5-11.6,2.2-23.1,1.7-34.7c-0.3-6.6,1.4-12.9,1.5-19.3
		c8.8,4.3,15.3,11.9,23.8,16.9l0,0c0.5,0.5,0.9,1,1.4,1.4c0,3.7,0,7.4,0,11.2c-1.5,10.1-0.6,20.3-0.6,30.4c0,8.5-0.9,17.1,0.6,25.6
		c0,5.6,0,11.2,0,16.8c-3.5,0.8-5-2-6.7-3.9c-3.8-4.4-7.8-8.6-11.4-13.2c-1.1-1.4-1.8-3.5-4.3-2.4
		C421.8,544.1,419,540.4,416.2,536.7z"/>
	<path class="st7" d="M238.7,424.8c10.8,9,13.6,21.8,16.4,34.5c2.1,9.8,3,19.8-1.4,29.4c-3.9,3-7.3,1.5-9.6-1.8
		c-11.6-17.1-16.4-35.8-12.7-56.3C232.1,426.9,234.2,424.1,238.7,424.8z"/>
	<path class="st8" d="M165.7,335.2c11.8,13,16.4,40.3,8.8,52.9c-5.1,0.4-6.9-3.5-8.6-6.9c-5.6-11.5-8.1-23.8-6.9-36.5
		C159.3,340.7,158.9,335,165.7,335.2z"/>
	<path class="st9" d="M337.6,377c-1.3-1.3-2.7-2.7-4-4c2.6-2.8,6-2.1,9.2-2.1c73.5-0.1,146.9,0,220.4-0.1c4,0,7.8,0.8,11.6,1.9
		c2.1,0.3,3.7,1.4,5.2,2.8c-0.3,0.3-0.7,0.6-1,1c-2.8,1.5-5.9,1.1-8.9,1.1c-74,0-148.1,0-222.1,0c-3,0-6-0.4-9-0.6
		C338.5,377,338,377,337.6,377z"/>
	<path class="st4" d="M181.3,253.9c0.9-0.2,2.1-0.9,2.5-0.5c9.2,7.3,18.7,14.2,26.8,22.8c1.3,7.1-5.2,8.5-8.7,12
		c-6.5,1.8-13,2.4-19.3-0.7c-0.4,0-0.8-0.1-1.2-0.1C181.3,276.2,181.3,265,181.3,253.9z"/>
	<path class="st10" d="M315.4,357.5c-1.3-0.6-2.4-1.5-2.8-2.9c2.4-2.5,5.6-1.9,8.6-2c70.6-0.1,141.1,0,211.7-0.1
		c3.8,0,7.4,0.9,10.9,1.9c1.3,0.7,2.7,1.3,4,2c-2.3,4.3-6.5,2.9-9.9,2.9c-43.3,0.1-86.6,0.1-129.9,0.1c-27,0-54,0-81,0
		C323,359.4,319.1,359.5,315.4,357.5z"/>
	<path class="st11" d="M294.5,339.2c-1-0.9-2-1.7-3-2.6c2.1-2.6,5-2.2,7.8-2.2c67.5-0.1,135.1,0,202.6-0.1c3.3,0,6.4,1.3,9.7,0.9
		c1.9,1.2,3.9,2.5,5.8,3.7c-2.3,2.7-5.5,2.1-8.5,2.1c-68.3,0.1-136.6,0-204.8,0C300.7,341.2,297.4,340.9,294.5,339.2z"/>
	<path class="st12" d="M273.4,321.2c-0.9-0.5-1.8-1.1-2.8-1.6c1.7-4.5,5.7-3.2,8.8-3.2c27.7-0.1,55.4-0.1,83.1-0.1
		c35.1,0,70.3,0,105.4,0c4.4,0,8.8,0.1,13.1,1.7c1.3,0.6,2.6,1.3,3.9,1.9c-2.1,4.6-6.3,3.1-9.7,3.1c-35.4,0.1-70.9,0.1-106.3,0.1
		c-28,0-55.9,0-83.9,0C281,323,277.1,323,273.4,321.2z"/>
	<path class="st4" d="M447.3,576.1c-7.6,3.8-15.3,7.6-22.9,11.4c-2.4,1.2-3.4-0.8-4.4-2.1c-4.4-5.7-8.7-11.4-13-17.2
		c6.7-5.8,20.8-4.3,18-18.8c0.5-0.1,1.2,0,1.2,0.3c1,11.7,11.3,15.9,18.3,22.8c1,1,1.7,2.2,2.5,3.3L447.3,576.1z"/>
	<path class="st9" d="M185.3,245.4c-1-0.8-2-1.7-3-2.5c2-2.6,5-2.2,7.7-2.2c50.3-0.1,100.6,0,150.9-0.1c3.3,0,6.4,1.3,9.7,0.8
		c1.9,1.3,3.9,2.5,5.8,3.8c-2.1,2.6-5,2.2-7.7,2.2c-51.5,0.1-103,0-154.6,0C191,247.4,188,247,185.3,245.4z"/>
	<path class="st13" d="M375.7,409.2c-1.5-0.3-2.3-1.4-2.9-2.7c2.7-2.7,6.1-2,9.3-2c79.7-0.1,159.4,0,239.1-0.1c3.8,0,7.4,0.4,11,1.7
		c0.9,0.5,1.8,1,2.7,1.5c-3,2.5-6.5,2.1-10,2.1c-80.5,0-161.1,0-241.6,0C380.8,409.8,378.3,409.5,375.7,409.2z"/>
	<path class="st14" d="M632.2,406.2c-7.2,0.1-14.4,0.2-21.7,0.2c-79.2,0-158.5,0-237.7,0c-0.5-0.4-1-0.9-1.5-1.3
		c2.1-2.5,5.1-2.1,7.8-2.1c80.1-0.1,160.1,0,240.2,0c3.3,0,6.5,0.9,9.7,0.9C630.1,404.7,631.2,405.4,632.2,406.2z"/>
	<path class="st15" d="M358.7,394.1c-1.8-0.2-2.8-1.1-2.6-3c1.1-1,2.4-1.2,3.9-1c2.5,0.5,5.1,0.4,7.7,0.4c75.5,0,150.9,0,226.4,0
		c2.6,0,5.1,0.1,7.7-0.3c1.4-0.2,2.7,0.3,4,0.7c1.3,0.6,2.6,1.2,3.9,1.8c-1.5,4.3-5.3,3.1-8.3,3.1c-19.6,0.2-39.2,0.1-58.8,0.1
		c-57.1,0-114.3,0-171.4,0C366.9,395.8,362.7,395.8,358.7,394.1z"/>
	<path class="st16" d="M375.7,409.2c2.3-2.4,5.3-1.3,8-1.3c83.7-0.1,167.5-0.1,251.2-0.2c0.4,0,0.9,0.1,1.3,0.2
		c0.1,0.5,0,0.9-0.2,1.3c-5.2,1.3-10.5,2-15.9,2c-77.7,0-155.3,0-233,0c-4,0-8,0.2-11.6-1.9L375.7,409.2z"/>
	<path class="st17" d="M368.7,403.5c-1.5-0.3-2.2-1.4-2.7-2.7c2.4-2.5,5.6-2,8.6-2c79-0.1,158,0,236.9-0.1c3.8,0,7.4,0.5,11,1.7
		c0.9,0.5,1.7,1,2.6,1.5c-2,2.3-4.7,1.6-7.2,1.6c-80.8,0-161.5,0-242.3,0.1C373.3,403.6,371,402.9,368.7,403.5z"/>
	<path class="st18" d="M629,403.9c-2.5,1.9-5.4,1-8.1,1c-83.2,0.1-166.4,0.1-249.6,0.2c-0.5-0.4-1-0.8-1.5-1.2
		c2.3-1.9,4.9-0.9,7.4-0.9c80.3-0.1,160.5,0,240.8-0.1c2.8,0,5.6,0.5,8.3-0.5C627.2,402.9,628.1,403.4,629,403.9z"/>
	<path class="st19" d="M622.5,400.5c-4.4,0.1-8.8,0.3-13.3,0.3c-81.1,0-162.1,0-243.2,0c-0.5-0.4-1.1-0.9-1.6-1.3
		c2.1-2.5,5.1-2.1,7.8-2.1c79.2-0.1,158.3,0,237.5-0.1c3.3,0,6.4,1,9.7,0.8C620.4,399,621.5,399.8,622.5,400.5z"/>
	<path class="st20" d="M619.4,398.2c-2.7,2.1-5.9,1.1-8.8,1.1c-82.1,0.1-164.1,0.1-246.2,0.2c-0.5-0.5-1-0.9-1.5-1.4
		c2.4-2.6,5.6-2.1,8.5-2.1c78.5-0.1,156.9,0,235.4-0.1c3.3,0,6.4,1.2,9.6,0.8C617.4,397.3,618.4,397.8,619.4,398.2z"/>
	<path class="st21" d="M626.3,402.4c-2.7,2.3-5.8,1.2-8.7,1.2c-79.6,0.1-159.1,0-238.7,0.1c-3,0-6.1,0.2-9.1,0.3
		c-0.4-0.1-0.7-0.2-1.1-0.4c2.3-2.4,5.3-1.3,8-1.3c80-0.1,160-0.1,240.1-0.1c2.8,0,5.6-0.1,8.4-0.2C625.6,402,626,402.1,626.3,402.4
		z"/>
	<path class="st22" d="M358.7,394.1c6.3-0.1,12.6-0.3,18.9-0.3c74.6,0,149.3,0,223.9-0.1c2.7,0,5.6,1,8-1.2c1.4,0.9,2.7,1.8,4.1,2.6
		c-2.2,2-4.8,1.4-7.3,1.4c-79.4,0-158.7,0-238.1,0c-2.8,0-5.6,0.1-8.2-1.3C359.6,394.9,359.2,394.5,358.7,394.1z"/>
	<path class="st23" d="M360.1,395.3c84.5,0,169,0,253.6,0c0.6,0.4,1.2,0.8,1.8,1.1c-1.8,1.6-4,0.9-6,0.9c-80.8,0-161.6,0-242.5,0
		c-1.8,0-3.7,0.4-5.5-0.7C361,396.2,360.6,395.7,360.1,395.3z"/>
	<path class="st24" d="M361.5,396.6c81.4,0,162.8,0,244.1,0c3.3,0,6.5-0.2,9.8-0.3c0.4,0,0.7,0.2,1,0.4c-2.4,2.2-5.3,1.2-8,1.2
		c-81.8,0.1-163.7,0.1-245.5,0.2C362.4,397.6,362,397.1,361.5,396.6z"/>
	<path class="st25" d="M605.7,390.7c-1.1,0.1-2.2,0.3-3.3,0.4c-2,0.9-4.1,0.5-6.2,0.5c-77,0-154.1,0-231.1,0c-2.1,0-4.2,0.4-6.2-0.5
		c-0.9,0-1.9-0.1-2.8-0.1c-1.2-0.1-2.2-0.3-2.9-1.4c2.4-2.6,5.6-2,8.6-2c76.8-0.1,153.5,0,230.3-0.1c3.5,0,6.9,1.2,10.4,0.9
		C603.5,389.2,604.6,390,605.7,390.7z"/>
	<path class="st26" d="M348.8,386.7c-0.9-0.9-1.7-1.8-2.6-2.6c2.4-2.6,5.6-2,8.5-2c75.6-0.1,151.3,0,226.9,0c4.2,0,8.3,0.6,12.3,1.9
		c0.9,0.5,1.8,0.9,2.7,1.4c-2.4,2.6-5.6,2-8.5,2c-76.8,0.1-153.6,0-230.4,0.1C354.8,387.4,351.9,386.7,348.8,386.7z"/>
	<path class="st27" d="M348.8,386.7c2.6-2.4,5.8-1.3,8.7-1.3c79.7-0.1,159.5-0.1,239.2-0.1c0.6,0.4,1.2,0.8,1.9,1.2
		c-2,2.3-4.7,1.6-7.2,1.6c-77.9,0-155.9,0-233.8,0.1c-2.3,0-4.6-0.5-7-0.3C350,387.5,349.4,387.1,348.8,386.7z"/>
	<path class="st28" d="M350.6,387.9c2.4-2.1,5.4-1.1,8.1-1.1c77-0.1,153.9,0,230.9-0.1c3,0,6.1-0.1,9.1-0.2c1.1,0.2,2.1,0.4,2.6,1.6
		c-1.7,1.2-3.6,0.7-5.4,0.7c-79.7,0-159.5,0-239.2,0c-1.6,0-3.3,0.2-4.8-0.5C351.3,388.3,351,388.2,350.6,387.9z"/>
	<path class="st29" d="M351.7,388.4c35.2-0.1,70.3-0.2,105.5-0.2c48-0.1,96-0.1,144-0.1c0.5-0.1,0.9,0,1.2,0.3
		c-2.5,2-5.4,1.1-8.1,1.1c-80.4,0.1-160.8,0.1-241.1,0.1C352.7,389.2,352.2,388.8,351.7,388.4z"/>
	<path class="st30" d="M594.1,383.9C514,384,434,384,354,384c-2.6,0-5.1,0.1-7.7,0.1c-0.5-0.5-1-0.9-1.5-1.4c2.4-2.6,5.6-2,8.5-2
		c75.6-0.1,151.1,0,226.7-0.1c4,0,7.8,0.8,11.6,1.9C592.7,382.5,593.6,382.8,594.1,383.9z"/>
	<path class="st31" d="M340.6,378.6c-1-0.5-2-1.1-3-1.6h0.7c2.4-1.2,5-0.6,7.6-0.6c75.4,0,150.9,0,226.3,0c2.5,0,5.1,0.4,7.6-0.4
		l0.2-0.4c1.7,0.5,3.3,1.3,4.4,2.8c-2.4,2.6-5.6,2-8.5,2c-75.3,0.1-150.5,0-225.8,0.1C346.8,380.4,343.6,379.9,340.6,378.6z"/>
	<path class="st32" d="M591.6,382.5c-79.3,0-158.5,0.1-237.8,0.1c-3,0-6.1,0.1-9.1,0.1c-0.4-0.5-0.9-1-1.3-1.5
		c2.2-2,4.8-1.4,7.3-1.4c76.6,0,153.2,0,229.9,0c2.8,0,5.6,0.3,8.3,1.1C590,381.1,591.1,381.3,591.6,382.5z"/>
	<path class="st33" d="M588.9,380.9c-3.7,0.1-7.4,0.3-11.2,0.3c-78.1,0-156.2,0-234.3,0c-0.5-0.5-1-0.9-1.5-1.4
		c1.9-1.2,4.1-0.7,6.2-0.7c77.6,0,155.2,0,232.8,0c2.1,0,4.2-0.5,6.2,0.6C587.7,380.1,588.3,380.5,588.9,380.9z"/>
	<path class="st34" d="M587.1,379.7c-81.7,0-163.4,0-245.2,0.1c-0.5-0.4-0.9-0.8-1.4-1.2c25.9-0.1,51.7-0.2,77.6-0.2
		c55.4-0.1,110.9-0.1,166.3-0.1C585.3,378.8,586.2,379.3,587.1,379.7z"/>
	<path class="st35" d="M330.9,371.3c-1.1-0.5-1.4-1.4-1.6-2.5c2.1-2.5,5-2.1,7.8-2.1c73.6-0.1,147.2,0,220.7,0
		c2.8,0,5.5,0.6,8.3,0.7c1.4,0.9,2.7,1.7,4.1,2.6c-2.1,2.1-4.8,1.5-7.3,1.5c-74.8,0-149.7,0-224.5,0.1
		C336,371.4,333.4,370.7,330.9,371.3z"/>
	<path class="st36" d="M574.8,372.7c-77.6,0-155.2,0.1-232.9,0.1c-2.8,0-5.6,0.1-8.4,0.1c-0.5-0.5-1-1-1.5-1.5
		c1.7-1.2,3.6-0.7,5.4-0.7c76.6,0,153.3,0,229.9,0c1.6,0,3.3-0.2,4.8,0.4C573.3,371.3,574.3,371.6,574.8,372.7z"/>
	<path class="st37" d="M572.2,371.1c-14.7,0.1-29.3,0.2-44,0.2c-65.4,0-130.8,0-196.2,0.1c-0.4,0-0.8,0-1.1-0.2
		c2.4-2.3,5.3-1.2,8-1.2c77.1-0.1,154.3-0.1,231.4-0.2C570.9,370.3,571.6,370.7,572.2,371.1z"/>
	<path class="st38" d="M566.2,367.3c-2.6,2.3-5.8,1.2-8.7,1.2c-73.2,0.1-146.5,0-219.7,0.1c-2.8,0-5.6,0.1-8.4,0.2
		c-0.9-0.5-1.8-1-2.7-1.5c2.4-2.6,5.6-2,8.6-2c73-0.1,146,0,219-0.1c3.5,0,6.9,1,10.4,1.1C565.1,366.6,565.6,367,566.2,367.3z"/>
	<path class="st39" d="M564.6,366.2c-2.5,1.8-5.4,0.9-8.2,0.9c-76.6,0.1-153.2,0.1-229.8,0.1c-0.4-0.5-0.9-1-1.3-1.4
		c2.4-2.5,5.6-2,8.6-2c72.3-0.1,144.6,0,216.9,0c4.2,0,8.3,0.6,12.3,2C563.7,365.9,564.1,366.1,564.6,366.2z"/>
	<path class="st40" d="M563.2,365.8c-79.3,0-158.6,0-237.9,0.1c-0.5-0.5-1-0.9-1.5-1.4c2.4-2.5,5.6-2,8.6-2
		c72.4-0.1,144.8,0,217.2-0.1c3.8,0,7.4,0.9,10.9,1.9C561.5,364.8,562.4,365.3,563.2,365.8z"/>
	<path class="st41" d="M560.6,364.3c-76.1,0-152.2,0.1-228.3,0.1c-2.8,0-5.6,0-8.4,0c-0.5-0.4-1-0.8-1.5-1.3
		c2.3-2.7,5.5-2.1,8.5-2.1c72.1-0.1,144.1,0,216.2,0c3.8,0,7.5,0.3,10.9,1.9C558.8,363.4,559.7,363.8,560.6,364.3z"/>
	<path class="st42" d="M315.4,357.5c74.5,0,149-0.1,223.5-0.2c3,0,6.1,0.9,8.9-0.9c1,0.7,2.1,1.5,3.1,2.2c-2.4,2.6-5.6,2.1-8.5,2.1
		c-71.7,0.1-143.4,0-215.2,0.1c-3,0-6-0.7-9-0.6C317.3,359.3,316.4,358.4,315.4,357.5z"/>
	<path class="st43" d="M558,362.9c-74.3,0-148.7,0.1-223,0.1c-4.2,0-8.4,0.1-12.6,0.2c-0.5-0.4-1.1-0.9-1.6-1.4
		c2-2.3,4.8-1.6,7.2-1.6c73,0,146.1,0,219.1-0.1c2.6,0,5.1,0.5,7.7,0.4C555.8,361.4,556.9,362.1,558,362.9z"/>
	<path class="st44" d="M318.2,360.2c2.5-2.5,5.7-1.4,8.6-1.4c74.7-0.1,149.4-0.1,224.1-0.2c0.9,0.5,1.7,0.9,2.6,1.4
		c-2.4,1.5-5,0.7-7.5,0.7c-72.9,0-145.8,0-218.8,0.1c-2.5,0-5.1-0.6-7.6,0.6C319.2,361.1,318.7,360.7,318.2,360.2z"/>
	<path class="st45" d="M319.7,361.5c2.3-2.4,5.3-1.3,8-1.3c75.3-0.1,150.6-0.1,225.9-0.2c0.5,0,0.9,0.2,1.2,0.5
		c-2.5,1.8-5.4,1-8.1,1c-72,0.1-144,0-216.1,0.1c-3.3,0-6.5,0.1-9.8,0.2C320.4,361.8,320,361.7,319.7,361.5z"/>
	<path class="st46" d="M308.5,351.7c-1.5-0.3-2.2-1.3-2.7-2.6c2.4-2.5,5.6-2,8.5-2c69.8-0.1,139.6,0,209.4,0c3.5,0,7,0.4,10.2,1.8
		c0.9,0.5,1.8,1,2.7,1.5c-2.4,2.6-5.6,2-8.6,2c-70,0.1-140,0-210,0.1C314.9,352.5,311.8,351.3,308.5,351.7z"/>
	<path class="st47" d="M311.1,353.3c-0.5-0.4-1-0.8-1.5-1.2c2.3-1.9,4.9-0.9,7.4-0.9c71.1-0.1,142.2,0,213.3-0.1
		c2.6,0,5.1,0.3,7.7-0.3c1.1,0.8,2.2,1.5,3.2,2.3c-1.9,1.4-4,0.8-6.1,0.8c-72.9,0-145.7,0-218.6,0
		C314.8,353.9,312.9,354.2,311.1,353.3z"/>
	<path class="st48" d="M311.1,353.3c72.3,0,144.6-0.1,216.8-0.1c4.4,0,8.9-0.1,13.3-0.1c0.8,0.5,1.7,0.9,2.5,1.4
		c-77.1,0-154.1,0.1-231.2,0.1C312.1,354.2,311.6,353.7,311.1,353.3z"/>
	<path class="st49" d="M534,348.8c-45,0.1-90.1,0.1-135.1,0.2c-31,0-62.1,0-93.1,0c-0.5-0.4-1.1-0.9-1.6-1.3
		c2.1-2.4,5.1-2.1,7.8-2.1c69.7-0.1,139.5,0,209.2,0c3.3,0,6.5,0.8,9.7,1C532,347.4,533,348.1,534,348.8z"/>
	<path class="st50" d="M531,346.7c-2.8,1.8-5.9,0.9-8.9,0.9c-72.6,0.1-145.3,0.1-217.9,0.2c-0.5-0.4-1-0.9-1.5-1.3
		c2.1-2.5,5-2.1,7.8-2.1c69.4-0.1,138.7,0,208.1-0.1c3.3,0,6.4,1.2,9.7,0.9C529.1,345.6,530.1,346.1,531,346.7z"/>
	<path class="st51" d="M300,344.7c-0.9-0.9-1.8-1.8-2.8-2.6c1.9-2,4.3-1.5,6.6-1.5c70.4,0,140.8,0,211.2,0c2.1,0,4.2,0.3,6.3,0.4
		c1,0.8,2.1,1.5,3.1,2.3c-2,2.2-4.8,1.6-7.2,1.6C444.8,344.8,372.4,344.9,300,344.7z"/>
	<path class="st52" d="M538,350.8c-2.5,1.9-5.4,1-8.1,1c-70.4,0.1-140.8,0-211.2,0.1c-3,0-6,0.2-9.1,0.3c-0.4-0.1-0.8-0.2-1.1-0.4
		c2.4-2.3,5.3-1.2,8-1.2c73.4-0.1,146.8-0.1,220.2-0.1C537.2,350.3,537.6,350.5,538,350.8z"/>
	<path class="st53" d="M300,344.7c2.3-2.3,5.3-1.3,8-1.3c69.3-0.1,138.7,0,208-0.1c2.8,0,5.6-0.1,8.4-0.2c0.9,0.5,1.8,1,2.6,1.5
		c-2.3,1.6-5,0.8-7.5,0.8c-70.1,0.1-140.2,0-210.3,0.1c-2.5,0-5.1-0.5-7.6,0.5C301.1,345.6,300.5,345.2,300,344.7z"/>
	<path class="st54" d="M301.6,346c2.4-2.2,5.3-1.1,8-1.1c72.5-0.1,144.9-0.1,217.4-0.2c0.5,0,0.9,0.2,1.2,0.4
		c-2.5,2-5.4,1.1-8.1,1.1c-69.4,0.1-138.9,0-208.3,0c-3,0-6.1,0.1-9.1,0.2C302.3,346.3,302,346.2,301.6,346z"/>
	<path class="st55" d="M521.3,341c-2.5,1.9-5.4,1-8.1,1c-72,0.1-144,0.1-215.9,0.1c-0.5-0.5-1-1-1.4-1.5c2.4-1.3,5-0.7,7.5-0.7
		c69.1,0,138.3,0,207.4-0.1c2.5,0,5.1,0.4,7.6-0.4C519.3,340,520.3,340.5,521.3,341z"/>
	<path class="st56" d="M290.4,336.1c-1.3-0.3-2.3-1.1-2.7-2.4c2.4-2.6,5.6-2,8.5-2c67-0.1,134,0,201,0c3.5,0,7,0.4,10.2,1.8
		c0.9,0.5,1.8,1,2.7,1.5c-2.4,1.5-5,0.7-7.5,0.7c-68.2,0-136.5,0-204.7,0.1C295.5,335.7,292.9,335.3,290.4,336.1z"/>
	<path class="st57" d="M518.4,339.5c-2.5,2-5.4,1.1-8.1,1.1c-71.5,0.1-143,0.1-214.5,0.1c-0.4-0.5-0.9-0.9-1.3-1.4
		c71.2,0,142.5,0,213.7,0c3,0,6-0.1,9.1-0.2C517.7,339,518.1,339.2,518.4,339.5z"/>
	<path class="st58" d="M507.5,333.4c-40.7,0.1-81.4,0.2-122.1,0.2c-32.6,0-65.1,0.1-97.7,0.1c-0.6-0.5-1.1-0.9-1.7-1.4
		c2.4-2.6,5.6-2,8.6-2c66.5-0.1,132.9,0,199.4-0.1c3.5,0,6.9,0.8,10.4,1C505.4,331.9,506.5,332.7,507.5,333.4z"/>
	<path class="st59" d="M504.4,331.2c-2.5,1.8-5.4,1-8.1,1c-70.1,0.1-140.1,0.1-210.2,0.1c-0.5-0.4-1-0.9-1.5-1.3
		c2.1-2.5,5.1-2.1,7.8-2.1c66.6-0.1,133.1,0,199.7-0.1c3.3,0,6.4,1.3,9.7,0.8C502.6,330.1,503.5,330.7,504.4,331.2z"/>
	<path class="st60" d="M290.4,336.1c2.5-2,5.4-1,8.1-1c70.6-0.1,141.2-0.1,211.7-0.1c0.5,0,0.9,0.1,1.2,0.4c-2.5,2-5.4,1.1-8.1,1.1
		c-67.6,0.1-135.2,0-202.8,0.1c-3,0-6.1,0.1-9.1,0.2C291.1,336.5,290.7,336.3,290.4,336.1z"/>
	<path class="st61" d="M501.7,329.6c-2.4,2.1-5.4,1.1-8.1,1.1c-69.7,0.1-139.4,0.1-209.1,0.2c-0.5-0.5-1-1-1.5-1.5
		c2.4-2.5,5.6-2,8.6-2c66-0.1,131.9,0,197.9-0.1c3.8,0,7.3,0.9,10.9,1.9C500.9,329.2,501.3,329.4,501.7,329.6z"/>
	<path class="st62" d="M280.4,326.8c-0.9-0.5-1.8-1.1-2.7-1.6c2.4-2.5,5.6-2,8.6-2c65.3-0.1,130.6,0,195.9-0.1
		c3.3,0,6.4,1.2,9.7,0.8c1,0.5,1.9,1,2.9,1.5c-1.9,4.1-5.7,2.4-8.6,2.4c-47.9,0.1-95.9,0.1-143.8,0.1c-17.7,0-35.4,0-53.1,0
		C286.3,328,283.2,328.1,280.4,326.8z"/>
	<path class="st63" d="M500.5,329.2c-72.5,0.1-144.9,0.1-217.4,0.2c-0.4-0.5-0.9-0.9-1.3-1.4c2.2-1.3,4.6-0.7,6.9-0.7
		c68.6-0.1,137.2,0.1,205.8-0.1c1.2,0,2.3,0.2,3.4,0.5C498.7,328.2,499.6,328.7,500.5,329.2z"/>
	<path class="st64" d="M497.8,327.7c-21.2,0.1-42.4,0.2-63.6,0.2c-50.8,0-101.6,0-152.5,0c-0.5-0.4-0.9-0.8-1.4-1.2
		c57.6-0.1,115.1-0.1,172.7-0.2c11.7,0,23.3,0,35,0c2.3,0,4.7,0.7,6.7-1.1C495.8,326.3,496.8,327,497.8,327.7z"/>
	<path class="st65" d="M273.4,321.2c67.8-0.1,135.6-0.1,203.5-0.2c2.7,0,5.6,0.9,8.1-1.1c1.3,0.9,2.7,1.7,4,2.6
		c-2.2,2-4.9,1.3-7.3,1.3c-66.2,0-132.4,0-198.6,0c-2.8,0-5.6,0.2-8.1-1.4C274.4,322,273.9,321.6,273.4,321.2z"/>
	<path class="st22" d="M481.1,317.9c-31.6,0.1-63.3,0.2-94.9,0.2c-36.1,0-72.1,0-108.2,0.1c-2.4,0-5.2-1-7.2,1.3
		c-1.4-0.4-2.2-1.5-2.7-2.7c2.4-2.5,5.6-1.9,8.6-1.9c63.6-0.1,127.2,0,190.8-0.1c3.5,0,6.9,0.8,10.4,1
		C478.9,316.5,480,317.2,481.1,317.9z"/>
	<path class="st66" d="M274.9,322.4c71.4,0,142.7,0,214.1,0c0.6,0.4,1.2,0.8,1.8,1.1c-1.8,1.6-4,0.9-6,0.9c-67.6,0-135.2,0-202.8,0
		c-1.8,0-3.7,0.4-5.5-0.7C275.9,323.3,275.4,322.9,274.9,322.4z"/>
	<path class="st67" d="M276.5,323.8c67.5,0,134.9,0,202.4,0c4,0,7.9-0.1,11.9-0.2c0.4,0,0.8,0.1,1.1,0.4c-2.4,2.2-5.3,1.2-8,1.2
		c-68.7,0.1-137.4,0.1-206.1,0.1C277.3,324.7,276.9,324.3,276.5,323.8z"/>
	<path class="st68" d="M477.7,315.8c-2,1.7-4.5,1-6.7,1c-67.7,0-135.4,0-203.1,0c-0.5-0.4-1-0.9-1.5-1.3c2.4-2.6,5.6-2,8.5-2
		c63.5-0.1,127.1,0,190.6-0.1c3.3,0,6.4,1.3,9.6,0.8C476,314.7,476.9,315.2,477.7,315.8z"/>
	<path class="st69" d="M252.6,304c-2-0.7-3.2-2.2-4.3-3.9c0.3-0.3,0.7-0.6,1-1c2.8-1.5,5.9-1.1,8.9-1.1c59.8,0,119.6,0,179.5,0
		c3.8,0,7.5,0.1,10.9,1.9c1.6-0.1,3.2-0.1,4.2,1.5c-3.1,3-7,2-10.7,2c-57.8,0.1-115.5,0-173.3,0.1c-3.7,0-7.5-0.1-11.2,0.2
		C256,304.1,254.2,303.3,252.6,304z"/>
	<path class="st70" d="M263.7,312.6c-0.5-0.4-1-0.8-1.5-1.3c2.1-2.5,5.1-2.1,7.8-2.1c62.8-0.1,125.7,0,188.5-0.1
		c3.3,0,6.4,1.3,9.7,0.9c1.3,0.8,2.7,1.7,4,2.5c-2.1,2.1-4.8,1.4-7.3,1.4c-64.3,0-128.7,0-193,0C269,314,266.2,314.2,263.7,312.6z"
		/>
	<path class="st71" d="M263.7,312.6c69.5,0,139-0.1,208.4-0.1c0.6,0.4,1.3,0.8,1.9,1.3c-1.8,1.5-4,0.9-6,0.9
		c-65.8,0-131.7,0-197.5,0c-1.8,0-3.7,0.4-5.4-0.7C264.6,313.5,264.1,313.1,263.7,312.6z"/>
	<path class="st72" d="M265,314c66.6,0,133.3,0,199.9,0c3,0,6.1-0.1,9.1-0.2c0.4,0,0.8,0.1,1.1,0.4c-2.4,2.2-5.3,1.2-8,1.2
		c-66.9,0.1-133.8,0.1-200.7,0.1C265.9,315,265.5,314.5,265,314z"/>
	<path class="st73" d="M259.5,309.7c-1.5-0.3-2.2-1.4-2.7-2.7c2.4-2.5,5.6-2,8.6-2c61.8-0.1,123.6,0,185.4,0c4,0,7.9,0.7,11.6,2
		c0.6,0.4,1.2,0.8,1.8,1.2c-1.8,2.2-4.2,1.6-6.5,1.6c-64,0-128,0-192.1,0.1C263.6,309.8,261.6,309,259.5,309.7z"/>
	<path class="st74" d="M462.4,307c-68.6,0-137.1,0-205.6,0.1c-0.5-0.4-1-0.9-1.5-1.3c2.3-2.6,5.5-2.1,8.5-2.1
		c61.5-0.1,122.9,0,184.4,0c4,0,7.9,0.6,11.6,1.9C460.6,306,461.5,306.5,462.4,307z"/>
	<path class="st75" d="M459.7,305.5c-65.8,0-131.7,0.1-197.5,0.1c-2.3,0-4.7,0.1-7,0.1c-0.5-0.5-1-0.9-1.6-1.4
		c2.5-1.8,5.3-1.5,8.1-1.5c62,0,124,0,186.1-0.1c2.5,0,5.1,0.7,7.6,0.1C457.2,303.2,458.7,304,459.7,305.5z"/>
	<path class="st76" d="M468.1,310c-2.5,2-5.4,1.1-8.1,1.1c-66,0.1-131.9,0.1-197.9,0.2c-0.5-0.4-1-0.8-1.5-1.3
		c1.5-1.6,3.5-0.9,5.3-0.9c65.4,0,130.8,0,196.2,0c1.6,0,3.3-0.3,4.8,0.6C467.4,309.6,467.8,309.7,468.1,310z"/>
	<path class="st77" d="M466.9,309.7c-66,0-131.9,0.1-197.9,0.1c-2.8,0-5.6,0.2-8.4,0.3c-0.4-0.1-0.8-0.2-1.1-0.4
		c2.3-2.4,5.3-1.3,7.9-1.3c62.6-0.1,125.2-0.1,187.8-0.1c3,0,6-0.2,9.1-0.3C465.3,308.4,466.4,308.5,466.9,309.7z"/>
	<path class="st78" d="M455.4,302.9c-2.4,2.3-5.3,1.3-8,1.3c-64.6,0.1-129.2,0.1-193.8,0.2c-0.4,0-0.7-0.1-1.1-0.3
		c0.5-1.2,1.7-1.2,2.7-1.4c1.5-0.7,3.2-0.5,4.8-0.5c63.4,0,126.8,0,190.2,0c1.4,0,2.8-0.1,4.2,0.4
		C454.9,302.5,455.2,302.6,455.4,302.9z"/>
	<path class="st79" d="M248.3,300.1c-0.9-0.9-1.8-1.9-2.7-2.8c2.4-2.5,5.6-2,8.6-2c59.9-0.1,119.9,0,179.8,0c4,0,7.9,0.5,11.7,1.9
		c0.7,0.4,1.3,0.9,2,1.3c-2.3,1.7-5,0.8-7.5,0.8c-61.4,0.1-122.7,0-184.1,0.1c-2.6,0-5.1-0.4-7.7,0.4L248.3,300.1z"/>
	<path class="st80" d="M445.6,297.1c-66.7,0-133.4,0.1-200,0.1c-0.5-0.5-1.1-0.9-1.6-1.4c2.4-2.6,5.6-2,8.5-2
		c59.5-0.1,119.1,0,178.6-0.1c3.5,0,6.8,1.2,10.3,0.8C442.8,295.4,444.2,296.3,445.6,297.1z"/>
	<path class="st81" d="M248.4,299.7c2.5-1.9,5.4-1,8.1-1c60.7-0.1,121.3,0,182-0.1c3,0,6.1-0.1,9.1-0.2c0.3,0.5,0.6,1,0.9,1.5
		c-65.5,0-131.1,0.1-196.6,0.1C250.7,300,249.6,299.8,248.4,299.7z"/>
	<path class="st82" d="M241.4,294.2c-1.4-0.3-2.2-1.2-2.7-2.5c2.4-2.6,5.6-2,8.5-2c59.2-0.1,118.4,0,177.6-0.1
		c3.8,0,7.4,0.8,10.9,1.9c0.6,0.4,1.2,0.8,1.9,1.2c-1.7,2.2-4.2,1.7-6.5,1.7c-61.2,0-122.4,0-183.6,0.1
		C245.6,294.4,243.5,293.8,241.4,294.2z"/>
	<path class="st83" d="M454.5,302.5c-12.6,0.1-25.2,0.3-37.7,0.3c-53.8,0-107.6-0.1-161.5-0.2c2.4-2.2,5.4-1.2,8-1.2
		c63.1-0.1,126.3-0.1,189.4-0.1C453.3,301.7,453.9,302.1,454.5,302.5z"/>
	<path class="st84" d="M237.1,290.3c-0.5-0.5-1-0.9-1.5-1.4c2.4-2.6,5.6-2.1,8.5-2.1c58.6-0.1,117.1,0,175.7-0.1c3.5,0,6.9,1,10.4,1
		c1.1,0.8,2.1,1.5,3.2,2.3c-1.7,1.3-3.6,0.8-5.4,0.8c-62,0-124,0-186,0C240.3,290.9,238.6,291.1,237.1,290.3z"/>
	<path class="st85" d="M441.5,294.6c-2.4,2.2-5.4,1.2-8,1.2c-63.2,0.1-126.3,0.1-189.5,0.1c-0.5-0.4-1-0.8-1.5-1.3
		c1.6-1.5,3.5-0.9,5.3-0.9c62.6,0,125.2,0,187.8,0c1.6,0,3.3-0.3,4.8,0.6C440.9,294.2,441.2,294.2,441.5,294.6z"/>
	<path class="st86" d="M440.5,294.3c-63.4,0-126.8,0.1-190.3,0.1c-2.6,0-5.1,0.1-7.7,0.2c-0.4-0.1-0.7-0.2-1.1-0.4
		c2.4-2.2,5.4-1.1,8-1.1c59.7-0.1,119.4,0,179.2-0.1c3,0,6.1-0.2,9.1-0.3C438.8,292.9,439.9,293.1,440.5,294.3z"/>
	<path class="st87" d="M237.1,290.3c62.4,0,124.8-0.1,187.2-0.1c3,0,6.1-0.1,9.1-0.1c0.8,0.5,1.7,0.9,2.5,1.4
		c-62.2,0-124.4,0.1-186.6,0.1c-3.5,0-7,0.1-10.5,0.1C238.2,291.2,237.6,290.8,237.1,290.3z"/>
	<path class="st88" d="M231.4,284.8c-0.9-0.6-1.7-1.1-2.6-1.7c2.5-2.4,5.6-1.9,8.6-1.9c57.5-0.1,115.1,0,172.6-0.1
		c3.5,0,6.9,0.9,10.4,1.1c1.1,0.7,2.2,1.5,3.3,2.2c-2.4,2.6-5.6,2.1-8.5,2.1c-58.1,0.1-116.1,0-174.2,0.1
		C237.6,286.6,234.4,286.1,231.4,284.8z"/>
	<path class="st89" d="M430.1,287.8c-2.5,1.8-5.4,0.9-8.1,0.9c-62.2,0.1-124.3,0.1-186.5,0.1c-0.4-0.5-0.9-1-1.3-1.5
		c2.2-2,4.8-1.4,7.3-1.4c59.2,0,118.4,0,177.7,0c3.3,0,6.5,0.1,9.6,1.3C429.3,287.5,429.7,287.7,430.1,287.8z"/>
	<path class="st90" d="M428.8,287.3c-64.9,0-129.7,0.1-194.6,0.1c-0.5-0.5-1-0.9-1.5-1.4c1.7-1.1,3.6-0.7,5.5-0.7
		c60.9,0,121.7,0,182.6,0c1.8,0,3.7-0.4,5.5,0.6C427.1,286.4,428,286.8,428.8,287.3z"/>
	<path class="st91" d="M426.2,285.9c-64.5,0-129,0.1-193.5,0.1c-0.5-0.4-0.9-0.8-1.4-1.2c39.8-0.1,79.7-0.2,119.5-0.2
		c24.2,0,48.5-0.1,72.7-0.1C424.5,285,425.4,285.4,426.2,285.9z"/>
	<path class="st92" d="M227.5,281.8c-0.6-0.5-1.1-0.9-1.7-1.4c2.4-2.5,5.6-2,8.6-2c57.1-0.1,114.2,0,171.4-0.1c3,0,6,0.6,9.1,0.7
		c1.4,0.9,2.9,1.7,4.3,2.6c-1.4,1.2-3.1,0.8-4.7,0.8c-60.7,0-121.5,0-182.2,0C230.7,282.5,229,282.8,227.5,281.8z"/>
	<path class="st93" d="M227.5,281.8c63.9,0,127.8-0.1,191.6-0.1c0.5,0,0.9,0.2,1.2,0.6c-1.8,1.5-4,0.9-6.1,0.9
		c-61.8,0-123.7,0-185.5,0C228.4,282.7,227.9,282.3,227.5,281.8z"/>
	<path class="st94" d="M414.8,279.1c-2.4,2.3-5.3,1.2-8,1.2c-60.3,0.1-120.7,0.1-181,0.1c-0.5-0.4-1-0.8-1.5-1.2
		c2.1-2.5,5-2.1,7.8-2.1c57.2-0.1,114.4,0,171.6-0.1c3.3,0,6.4,1.1,9.7,1C413.9,278.4,414.3,278.7,414.8,279.1z"/>
	<path class="st95" d="M221.6,277.5c-0.9-0.9-1.8-1.8-2.7-2.7c2.4-2.5,5.6-2,8.6-2c56.2-0.1,112.3,0,168.5,0c3.8,0,7.4,0.4,10.9,1.9
		c0.8,0.5,1.7,0.9,2.5,1.4c-1.8,2-4.3,1.5-6.6,1.5c-58.1,0-116.2,0-174.3,0.1C226.2,277.6,223.9,276.8,221.6,277.5z"/>
	<path class="st96" d="M221.6,277.5c2.3-2.4,5.3-1.3,8-1.3c59.9-0.1,119.9-0.2,179.8-0.2c0.9,0.5,1.8,1,2.7,1.5
		c-1.7,1.1-3.6,0.7-5.5,0.7c-59.5,0-118.9,0-178.4,0c-1.8,0-3.7,0.4-5.5-0.6C222.4,277.7,222,277.7,221.6,277.5z"/>
	<path class="st97" d="M222.7,277.7c63.1,0,126.2-0.1,189.3-0.1c0.4,0.1,0.9,0.3,1.3,0.4c-2.5,1.8-5.4,1-8.1,1
		c-60.3,0.1-120.6,0.2-180.9,0.2C223.8,278.7,223.3,278.2,222.7,277.7z"/>
	<path class="st98" d="M406.9,274.7c-62.7,0.1-125.3,0.1-188,0.2c-0.5-0.5-1-0.9-1.5-1.4c2.4-2.6,5.6-2,8.6-2
		c55.8-0.1,111.5,0,167.3-0.1c3.5,0,6.9,1.1,10.4,1C404.7,273.1,405.8,273.9,406.9,274.7z"/>
	<path class="st99" d="M214.7,270.6c-0.5-0.4-1-0.8-1.5-1.2c2.1-2.5,5-2.1,7.8-2.1c55.3-0.1,110.7,0,166,0c3.3,0,6.5,0.8,9.7,1
		c1,0.7,2,1.5,3.1,2.2c-2,2.2-4.8,1.5-7.2,1.5c-56.5,0-113.1,0-169.6,0C220,272,217.2,272.2,214.7,270.6z"/>
	<path class="st100" d="M214.7,270.6c61.7-0.1,123.4-0.1,185-0.2c0.9,0.5,1.8,1,2.6,1.5c-1.4,1.2-3.1,0.8-4.7,0.8
		c-58.9,0-117.8,0-176.8,0c-1.6,0-3.3,0.3-4.8-0.7C215.6,271.5,215.2,271.1,214.7,270.6z"/>
	<path class="st101" d="M216.1,272c62.1,0,124.1-0.1,186.2-0.1c0.5,0,0.9,0.2,1.3,0.4c-2.5,1.9-5.4,1-8.1,1
		c-59.4,0.1-118.7,0.1-178.1,0.1C217,273,216.6,272.5,216.1,272z"/>
	<path class="st102" d="M206.2,263.7c-1.3-0.6-2.4-1.5-2.9-2.9c2.4-2.5,5.6-2,8.6-2c53.3-0.1,106.7,0,160-0.1c3.8,0,7.3,1,11,1.8
		c0.9,0.5,1.8,1,2.7,1.6c-3.1,3-7,2-10.6,2c-51,0.1-102,0-153,0.1c-3.5,0-7-0.3-10.4,0.5C209.6,265.1,207.9,264.5,206.2,263.7z"/>
	<path class="st103" d="M396.6,268.2c-2.5,1.8-5.4,0.9-8.1,1c-58.4,0.1-116.9,0.2-175.3,0.2c-0.6-0.4-1.1-0.9-1.7-1.3
		c2-2.6,5-2.2,7.7-2.2c54.9-0.1,109.9,0,164.8-0.1c3.3,0,6.4,1.2,9.7,0.9C394.7,267.2,395.7,267.7,396.6,268.2z"/>
	<path class="st104" d="M206.2,263.7c1.4-0.1,2.9-0.2,4.3-0.2c2.5-1.1,5.1-0.5,7.6-0.5c53.7,0,107.4,0,161.1,0
		c2.5,0,5.1,0.4,7.6-0.4c1.1,0.8,2.1,1.5,3.2,2.3c-2.8,2.6-6.2,1.5-9.3,1.5c-57.3,0.1-114.5,0-171.8,0.1
		C208.1,265.5,207.1,264.6,206.2,263.7z"/>
	<path class="st105" d="M209,266.4c2.3-2.4,5.3-1.4,7.9-1.4c57.7-0.1,115.4-0.2,173.1-0.2c0.9,0.5,1.7,1,2.6,1.4
		c-2.3,1.6-5,0.8-7.5,0.8c-55.7,0.1-111.4,0-167.2,0.1c-2.5,0-5.1-0.6-7.6,0.6C210,267.3,209.5,266.9,209,266.4z"/>
	<path class="st106" d="M228.7,226.3c5.5-0.7,11-1.4,16.5-2.1c22.3-2.7,44.6-1.6,66.9-1.6c3,0,6,0.6,8.8,1.8
		c1.7,0.6,3.4,1.2,4.4,2.8c-2.4,2.6-5.6,2-8.5,2c-26.5,0.1-53.1,0.1-79.6,0C234.3,229.1,230.5,230.3,228.7,226.3z"/>
	<path class="st107" d="M210.4,267.7c2.3-2.4,5.3-1.3,7.9-1.3c58.1-0.1,116.2-0.2,174.2-0.2c0.4,0,0.8,0.2,1.1,0.5
		c-2.5,1.9-5.4,1-8.1,1c-55,0.1-110,0-165.1,0.1c-3,0-6.1,0.2-9.1,0.2C211.1,268,210.8,267.9,210.4,267.7z"/>
	<path class="st29" d="M201.9,259.5c-0.9-0.5-1.8-0.9-2.8-1.4c0.3-0.3,0.7-0.7,1-1c2.8-1.5,5.9-1.1,8.9-1.1
		c52.1,0,104.2,0,156.3-0.1c4,0,7.8,1.1,11.7,0.9c1.1,0.8,2.2,1.6,3.3,2.4c-1.6,1.4-3.6,0.8-5.4,0.8c-56.1,0-112.2,0-168.3,0
		C205.1,260.1,203.5,260.3,201.9,259.5z"/>
	<path class="st108" d="M201.9,259.5c55.8,0,111.5-0.1,167.3-0.1c3.7,0,7.5-0.1,11.2-0.2c0.8,0.5,1.7,0.9,2.5,1.4
		c-53.3,0.1-106.7,0.1-160,0.2c-6.5,0-13,0-19.6,0C202.9,260.4,202.4,259.9,201.9,259.5z"/>
	<path class="st109" d="M199.2,258.1c-0.9-1-1.7-1.9-2.6-2.9c2.4-2.5,5.6-2,8.5-2c52.6-0.1,105.2,0,157.8,0c3.5,0,7,0.5,10.3,1.8
		c0.9,0.5,1.8,1,2.7,1.5c-2.4,1.5-5,0.8-7.5,0.8c-53.7,0.1-107.5,0-161.2,0.1c-2.5,0-5.1-0.4-7.6,0.4L199.2,258.1z"/>
	<path class="st110" d="M373.2,255c-45.8,0.1-91.7,0.2-137.5,0.2c-13,0-26.1,0-39.1,0.1c-0.5-0.4-1-0.9-1.6-1.3
		c2.1-2.5,5.1-2.1,7.8-2.1c52.5-0.1,105.1,0,157.6,0c3.3,0,6.4,0.9,9.7,0.9C371.1,253.5,372.1,254.2,373.2,255z"/>
	<path class="st111" d="M370.1,252.7c-2.5,1.9-5.4,1-8.1,1c-55.7,0.1-111.3,0.1-167,0.2c-0.5-0.4-1.1-0.9-1.6-1.3
		c2.1-2.5,5-2.1,7.8-2.1c52.1-0.1,104.2,0,156.4-0.1c3.3,0,6.4,1.3,9.7,0.8C368.2,251.7,369.1,252.2,370.1,252.7z"/>
	<path class="st112" d="M190.8,251c-0.9-0.9-1.8-1.8-2.8-2.7c1.6-1.8,3.8-1.5,5.9-1.5c54.1,0,108.1-0.1,162.2,0
		c1.4,0,2.8,0.4,4.2,0.2c1.1,0.8,2.1,1.5,3.2,2.3c-2.2,2.5-5.2,1.6-7.9,1.6C300.7,251,245.7,251,190.8,251z"/>
	<path class="st113" d="M199.5,257.7c2.4-2.1,5.4-1.1,8-1.1c56.1-0.1,112.2-0.1,168.3-0.2c0.5,0,0.9,0.1,1.2,0.4
		c-1.5,1.5-3.5,1.1-5.3,1.1c-56.5,0-113,0-169.5,0C201.3,258,200.4,257.8,199.5,257.7z"/>
	<path class="st114" d="M447,575.7c-7.8-3.5-12.6-10.8-19.6-15.3c-3.5-2.2,0.3-7.7-2.4-11.1c-0.1-0.5-0.2-1-0.3-1.4
		c0-5.9,2.4-2.7,4-0.9c4.4,5.1,8.5,10.3,12.8,15.4c1.6,1.9,3.7,3.4,5.6,5.1C447,570.2,447,572.9,447,575.7z"/>
	<path class="st115" d="M190.8,251c2.3-2.3,5.3-1.3,8-1.3c51.9-0.1,103.8,0,155.7-0.1c3,0,6-0.2,9.1-0.2c0.9,0.5,1.7,1,2.6,1.5
		c-2.3,1.7-5,0.8-7.4,0.8c-52.9,0.1-105.8,0-158.6,0.1c-2.5,0-5.1-0.5-7.6,0.5C191.9,251.8,191.3,251.4,190.8,251z"/>
	<path class="st116" d="M386.9,262.5c-1.5,1.5-3.5,1.1-5.3,1.1c-57,0-114-0.1-171-0.1c2.4-2.3,5.3-1.2,8-1.2
		c55.7-0.1,111.4-0.1,167-0.1C386,262.1,386.5,262.2,386.9,262.5z"/>
	<path class="st32" d="M192.4,252.2c2.4-2.3,5.3-1.2,8-1.2c55.2-0.1,110.5-0.2,165.7-0.2c0.4,0,0.8,0.1,1.2,0.4
		c-2.4,2.1-5.4,1.1-8.1,1.1c-55.2,0.1-110.5,0.2-165.7,0.2C193.1,252.5,192.7,252.4,192.4,252.2z"/>
	<path class="st117" d="M360.3,247.1c-2.5,2-5.4,1.1-8.1,1.1c-54.7,0.1-109.5,0.1-164.2,0.1c-0.5-0.5-1-1-1.5-1.4
		c2.4-1.4,5-0.7,7.5-0.7c51.9,0,103.8,0,155.7-0.1c2.5,0,5.1,0.5,7.6-0.5C358.4,246.1,359.3,246.6,360.3,247.1z"/>
	<path class="st118" d="M181.2,242.4c-1.4-0.3-2.2-1.2-2.7-2.5c2.6-2.7,6.1-2,9.2-2c49.3-0.1,98.6,0,148-0.1c3.8,0,7.4,0.5,11,1.7
		c0.9,0.5,1.8,1,2.7,1.5c-2.3,1.6-5,0.8-7.5,0.8c-51,0.1-102,0-153.1,0.1C186.3,241.9,183.7,241.5,181.2,242.4z"/>
	<path class="st119" d="M357.4,245.6c-2.4,2.1-5.4,1.1-8.1,1.1c-54.3,0.1-108.5,0.1-162.8,0.1c-0.4-0.5-0.8-1-1.3-1.4
		c54.2,0,108.5,0,162.7,0c2.8,0,5.6-0.2,8.4-0.2C356.8,245.2,357.1,245.3,357.4,245.6z"/>
	<path class="st120" d="M346.7,239.5c-38.1,0.1-76.3,0.2-114.4,0.3c-17.9,0-35.8,0.1-53.7,0.1c-0.6-0.5-1.1-0.9-1.7-1.4
		c2.4-2.6,5.6-2,8.5-2c49.2-0.1,98.4,0,147.6-0.1c3.5,0,6.9,0.9,10.4,0.9C344.5,238,345.6,238.8,346.7,239.5z"/>
	<path class="st36" d="M181.2,242.4c2.4-2.1,5.4-1.1,8.1-1.1c53.4-0.1,106.7-0.1,160.1-0.2c0.4,0,0.8,0.1,1.2,0.4
		c-2.4,2.1-5.4,1.2-8,1.2c-50.4,0.1-100.7,0-151.1,0.1c-3,0-6.1,0.2-9.1,0.3C181.9,242.8,181.5,242.6,181.2,242.4z"/>
	<path class="st121" d="M343.4,237.3c-2.5,2-5.4,1.1-8.1,1.1c-52.8,0.1-105.7,0.1-158.5,0.1c-0.5-0.4-1-0.9-1.5-1.3
		c3.7-2.6,8-2.1,12.1-2.1c47.9-0.1,95.8,0,143.7-0.1c3.3,0,6.3,1.3,9.6,0.8C341.6,236.2,342.5,236.8,343.4,237.3z"/>
	<path class="st122" d="M340.7,235.7c-2.4,2.2-5.3,1.2-8,1.2c-52.5,0.1-104.9,0.2-157.4,0.2c-0.4-0.5-0.7-1-1.1-1.5
		c8.2-1.6,16.6-2,24.9-2c42.5-0.1,84.9,0,127.4-0.1c4.5,0,8.9,0.2,13.1,1.8C340,235.4,340.4,235.5,340.7,235.7z"/>
	<path class="st123" d="M339.6,235.4c-45.6,0.1-91.2,0.2-136.8,0.2c-9.5,0-19.1,0-28.6,0c-0.1-0.4-0.1-0.8-0.1-1.2
		c2.2-0.1,4.5-0.3,6.7-0.4c8.8-0.8,17.6-1.8,26.4-1.8c38.9-0.1,77.8,0,116.8,0c4.7,0,9.3,0.1,13.7,2
		C338.3,234.6,339,235,339.6,235.4z"/>
	<path class="st124" d="M337.7,234.1c-52.3,0-104.6-0.1-156.9-0.1c3.6-2,7.8-0.9,11.5-2.4c7.4,1.1,14.8-0.9,22.2-0.8
		c36.1,0.1,72.1,0.1,108.2,0c3.7,0,7.4,1,11.1,0.8C335.1,232.4,336.4,233.3,337.7,234.1z"/>
	<path class="st125" d="M333.8,231.6c-1.7,1.7-3.9,1.2-5.9,1.2c-43.4,0-86.9,0-130.3,0c-1.8,0-3.8,0.5-5.2-1.1
		c3.3-0.4,6.5-0.9,9.8-1.3c7.9,0.7,15.7-1,23.6-1c31.1,0.1,62.3,0.1,93.4,0c3.9,0,7.8,0.9,11.7,0.7
		C331.8,230.6,332.8,231.1,333.8,231.6z"/>
	<path class="st126" d="M330.8,230.1c-1.6,1.9-3.9,1.3-5.9,1.3c-39.1,0-78.3,0-117.4,0c-1.8,0-3.8,0.4-5.3-1
		c1.8-0.2,3.6-0.3,5.4-0.5c9-0.9,18-1.4,27-1.3c28.3,0.2,56.7,0.1,85,0.1c3.5,0,7-0.1,10.3,1.1C330.2,229.7,330.6,229.8,330.8,230.1
		z"/>
	<path class="st127" d="M329.9,229.7c-40.8,0-81.5,0.1-122.3,0.1c3-1.7,6.4-1.2,9.7-1.4c6-1.3,12-0.6,18-0.6c28.4,0,56.9,0,85.3,0
		c2.5,0,5.1-0.6,7.6,0.6C328.7,228.9,329.3,229.3,329.9,229.7z"/>
	<path class="st128" d="M328.1,228.6c-37,0-73.9,0-110.9-0.1c3.6-1.7,7.6-1.7,11.5-2.2c1.6,1.2,3.5,0.9,5.4,0.9
		c30.4,0,60.8-0.1,91.3-0.1C326.3,227.6,327.2,228.1,328.1,228.6z"/>
	<path class="st129" d="M320.9,224.3c-25.3-0.1-50.5-0.1-75.8-0.2c4.2-1.6,8.6-1.9,13-2.3c12.4-0.1,24.8-1.2,37.3-0.9
		c7.1,0.2,14.3-0.1,21.4,0.8C318.2,222.6,319.6,223.5,320.9,224.3z"/>
	<path class="st130" d="M316.8,221.8c-1.5,1.6-3.4,1.2-5.2,1.2c-16,0-32.1,0-48.1,0c-1.8,0-3.8,0.4-5.3-1.1c2.8-0.5,5.5-0.9,8.3-1.4
		c11.6,0.4,23.2-1.3,34.8-0.9c4.9,0.2,9.8,0.4,14.4,1.9C316.2,221.4,316.5,221.5,316.8,221.8z"/>
	<path class="st131" d="M315.7,221.5c-14.7,0-29.3,0.1-44,0.1c-1.8,0-3.8,0.4-5.3-1.1c1.8-0.1,3.6-0.3,5.4-0.4
		c13.8-0.7,27.5-3.9,41.3-0.1C314.2,220.1,315.3,220.4,315.7,221.5z"/>
	<path class="st132" d="M313.2,219.9c-13.8,0-27.5,0.1-41.3,0.1c3.1-1.8,6.5-1.2,9.8-1.5c9.9-0.6,19.8-3,29.6,0.1
		C311.9,219.1,312.5,219.5,313.2,219.9z"/>
	<path class="st133" d="M311.3,218.7c-9.9,0-19.8-0.1-29.6-0.1c3.6-1.7,7.7-1.5,11.5-2.3c5.1,1,10.5-1,15.5,0.9
		C309.6,217.7,310.4,218.2,311.3,218.7z"/>
	<path class="st134" d="M308.7,217.2c-5.2-0.3-10.5,1.3-15.5-0.9C298.4,215.6,303.7,213.6,308.7,217.2z"/>
	<path class="st135" d="M447,550.6c-0.4-0.8-1.2-1.6-1.2-2.3c-0.1-17.1-0.1-34.2,0-51.3c0-0.8,0.8-1.6,1.2-2.3
		C447,513.3,447,531.9,447,550.6z"/>
	<path class="st6" d="M182.5,287.4c6.5-0.7,13.2,1.3,19.5-1.4c6.9,1.1,10.9,6.7,15.3,11.1c18.1,18.1,37,35.4,55.3,53.4
		c28.9,28.4,58.1,56.5,87.4,84.4c10.8,10.3,21.5,20.7,32.1,31.1c1.9,1.9,5.2,3.7,3.1,7.5c-5.6,2.1-11.2,4.2-16.7,6.4
		c-2.3,1-4.5,2.5-7,0.5c0-3-2.4-4.4-4.2-6.2C311.1,415.9,253.2,359.1,196,301.6C191.4,297,187,292.2,182.5,287.4z"/>
	<path class="st5" d="M395.2,473.6c0.2-2.4-1.6-3.8-3.1-5.2c-17.9-17.3-35.8-34.6-53.7-51.9c-10-9.7-20-19.3-30-29
		c-31-30.1-62-60.2-93.1-90.2c-4.2-4-8.8-7.5-13.2-11.2c2.9-3.2,7.6-4.9,8.4-9.9c7.8,8.7,17.1,15.6,25.7,23.3
		c12.3,11,24.9,21.5,37.4,32.3c20.9,18.1,41.7,36.2,62.5,54.3c11.9,10.4,23.7,20.8,35.6,31.2c14.7,12.8,29.4,25.6,44,38.5
		c2.2,2,4.7,3.8,6,6.7C412.3,464.7,403.9,469.6,395.2,473.6z"/>
	<path class="st136" d="M375.6,409.3c86.8,0,173.6,0,260.4-0.1c-0.9,1.7-2.6,1.3-4.1,1.4c-5.4,1.5-11,2-16.6,2
		c-75.3,0-150.7,0-226,0c-4.2,0-8.4,0.2-12.3-2C376.6,410.2,376.1,409.7,375.6,409.3z"/>
	<path class="st137" d="M377.1,410.6c84.9,0,169.9,0,254.8,0c-1.9,0.9-3.8,1.8-5.7,2.7c-6.5-0.6-12.9,0.8-19.4,0.8
		c-67.1-0.1-134.2-0.1-201.2-0.1c-8.6,0-17.2,0.3-25.7-0.7C378.5,412.9,377.7,411.9,377.1,410.6z"/>
	<path class="st138" d="M379.9,413.3c2.1-2.2,4.8-1.2,7.3-1.3c77.3-0.1,154.5-0.1,231.8,0c2.4,0,5.2-1,7.3,1.2
		c-0.9,0-1.8,0.1-2.7,0.1c-6.4,1.2-12.8,2-19.3,2c-70.1,0-140.1,0-210.2,0c-4.4,0-8.9,0.1-13-1.9
		C380.6,413.5,380.2,413.4,379.9,413.3z"/>
	<path class="st139" d="M381,413.5c80.8,0,161.7-0.1,242.5-0.1c-1.5,1.8-3.6,1.2-5.5,1.6c-7.3,1.8-14.7,1.8-22.2,1.8
		c-66.9,0-133.9,0-200.8,0c-4.2,0-8.4,0.1-12.3-1.8C382.1,414.5,381.5,414,381,413.5z"/>
	<path class="st140" d="M382.6,415c78.4,0,156.9,0,235.3,0c-1.1,1.4-2.6,1.2-4.1,1.2c-5.4,1.9-11,1.9-16.6,1.9
		c-67.2,0-134.4,0-201.6,0c-4,0-8,0.2-11.6-2C383.6,415.8,383.1,415.4,382.6,415z"/>
	<path class="st141" d="M384.1,416.2c76.6,0,153.1,0,229.7,0c-1.2,1.5-2.9,2-4.6,2.5c-5.2-1-10.1,1-15.2,1
		c-65.6-0.1-131.1-0.1-196.7-0.1c-4,0-8,0-11.6-2C385.1,417.2,384.6,416.7,384.1,416.2z"/>
	<path class="st142" d="M385.7,417.6c72.3,0,144.6,0,216.8,0c2.2,0,4.7-0.8,6.7,1.1c-1.3,0.2-2.5,0.3-3.8,0.5
		c-6.9,1.4-13.8,1.9-20.8,1.9c-61.3-0.1-122.7,0-184,0c-4.7,0-9.3,0-13.7-2C386.5,418.5,386.1,418.1,385.7,417.6z"/>
	<path class="st143" d="M386.9,419c72.8,0.1,145.7,0.1,218.5,0.2c-1.1,1.5-2.8,1.1-4.4,1.4c-6.4,1.4-12.8,1.9-19.4,1.9
		c-59.9-0.1-119.9,0-179.8-0.1c-4.2,0-8.4,0.5-12.3-1.8C388.7,420.1,387.8,419.5,386.9,419z"/>
	<path class="st87" d="M389.6,420.6c55.4-0.1,110.7-0.1,166.1-0.2c15.1,0,30.2,0.1,45.4,0.1c-1.1,1.5-2.8,1.2-4.4,1.3
		c-5.9,1.6-11.9,1.9-17.9,1.9c-58.6,0-117.3,0-175.9,0.1c-3.9,0-7.8-0.9-11.7-0.7C390.6,422.3,390.1,421.4,389.6,420.6z"/>
	<path class="st144" d="M391.1,423.1c1.6-2,3.9-1.3,5.9-1.3c66.6,0,133.1,0,199.7,0c-1.4,1.8-3.7,1.7-5.6,2.5
		c-5.4-1-10.6,0.9-15.9,0.9c-57.1-0.1-114.2-0.1-171.3-0.1c-4,0-7.9,0-11.6-2h-0.6H391.1z"/>
	<path class="st145" d="M392.3,423.2c64,0,128.1,0,192.1,0c2.2,0,4.7-0.8,6.6,1.1c-1.3,0.2-2.6,0.4-3.9,0.5
		c-8,1.8-16.2,1.7-24.3,1.7c-52.3,0-104.5,0-156.8,0c-4.2,0-8.4,0.3-12.3-1.9C393.3,424.2,392.8,423.7,392.3,423.2z"/>
	<path class="st146" d="M393.8,424.7c64.5,0,129,0.1,193.4,0.1c-1.2,1.3-2.8,1.1-4.3,1.2c-5.2,1.7-10.5,1.9-15.9,1.9
		c-53.2,0-106.3,0-159.5,0c-4.2,0-8.4,0.1-12.3-1.9C394.8,425.6,394.3,425.2,393.8,424.7z"/>
	<path class="st140" d="M395.3,426c62.6,0,125.1,0,187.7,0.1c-1.5,0.8-3,1.6-4.5,2.5c-12.7,1-25.5,0.8-38.3,0.8
		c-37,0-74.1,0-111.1,0c-10.4,0-20.8,0.2-31.2-0.6C397,427.9,396.1,427,395.3,426z"/>
	<path class="st147" d="M397.9,428.8c1.8-2.1,4.3-1.4,6.5-1.4c56,0,112.1,0,168.1,0c2,0,4.2-0.7,5.9,1.1c-1.8,0.5-3.7,0.9-5.5,1.4
		c-53.6,1.9-107.3,0.3-161,0.9c-4.4,0-8.8,0-13-1.9C398.6,429,398.2,428.9,397.9,428.8z"/>
	<path class="st148" d="M512.9,448.4c-2.4,2.1-5.4,2.6-8.5,2.9c-7.7,2.1-15.6,1.9-23.5,1.9c-15.4,0-30.7,0-46.1,0
		c-3.5,0-7-0.1-10.2-1.9c-1.3-0.7-2.4-1.4-2.9-2.9c2.4-2.5,5.6-1.9,8.6-2c24.7-0.1,49.3-0.1,74,0
		C507.3,446.5,510.5,445.9,512.9,448.4z"/>
	<path class="st149" d="M399,428.9c56.5,0,112.9-0.1,169.4-0.1c1.6,0,3.3-0.3,4.6,1.1c-0.9,0.1-1.8,0.3-2.7,0.4
		c-5.5,1.2-11,1.9-16.6,1.9c-46.9,0-93.7,0-140.6,0c-4.2,0-8.4,0-12.3-1.8C400.2,429.9,399.6,429.4,399,428.9z"/>
	<path class="st150" d="M400.8,430.4c56.5,0,113-0.1,169.5-0.1c-1.9,0.8-3.8,1.6-5.7,2.5c-50,1.7-100.1,0.4-150.1,0.8
		c-4.2,0-8.4,0.2-12.3-2C401.7,431.2,401.2,430.8,400.8,430.4z"/>
	<path class="st151" d="M402.2,431.6c51.9,0,103.8,0,155.7,0c2.2,0,4.7-0.8,6.6,1.2c-1.4,0.5-2.8,1-4.2,1.4
		c-5.6-1.1-11,0.9-16.6,0.8c-42.8-0.2-85.7-0.1-128.5-0.1c-4,0-7.9,0.2-11.5-2C403.2,432.6,402.7,432.1,402.2,431.6z"/>
	<path class="st152" d="M403.7,433c50,0,100,0,150,0c2.2,0,4.7-0.8,6.6,1.2c-1.3,0.1-2.5,0.3-3.8,0.4c-7.8,1.5-15.6,1.8-23.6,1.8
		c-38.8-0.1-77.7,0-116.5,0c-4,0-7.9,0.2-11.5-2C404.6,434,404.2,433.5,403.7,433z"/>
	<path class="st153" d="M405,434.4c50.5,0.1,101.1,0.1,151.6,0.2c-1.2,1.4-3,1.1-4.5,1.3c-6.8,1.7-13.8,1.9-20.8,1.9
		c-37.8-0.1-75.5,0-113.3,0c-4,0-8,0.2-11.6-1.9C406,435.4,405.5,434.9,405,434.4z"/>
	<path class="st154" d="M406.5,435.9c48.5,0,97.1,0.1,145.6,0.1c-1.1,1.4-2.7,1.2-4.2,1.2c-5.1,1.9-10.5,1.9-15.8,1.9
		c-37.5,0.1-75,0-112.5,0.1c-3.5,0-7-0.5-10.4-0.7C408.3,437.6,407.4,436.7,406.5,435.9z"/>
	<path class="st155" d="M409.2,438.5c2.4-2.3,5.3-1.2,8-1.3c43.6-0.1,87.1,0,130.7,0c-1.1,1.6-2.9,1.9-4.6,2.4
		c-38.1,2-76.3,0.5-114.5,0.9c-6,0.1-12.1,0.2-18.1-0.8C410.3,439.4,409.8,438.9,409.2,438.5z"/>
	<path class="st156" d="M410.8,439.8c1.7-1.9,3.9-1.1,5.9-1.1c40.2,0,80.4,0,120.6,0c2,0,4.2-0.6,6,1c-1.3,0.2-2.5,0.4-3.8,0.5
		c-8.2,1.7-16.6,1.9-25,1.9c-30.3-0.1-60.7,0-91,0c-4,0-7.9-0.1-11.6-1.8C411.5,440.1,411.2,440,410.8,439.8z"/>
	<path class="st157" d="M411.9,440.2c42.5,0,85.1,0,127.6,0c-1.5,1.7-3.7,1.1-5.6,1.4c-4.5,1.3-9.1,1.8-13.8,1.8
		c-32.2,0-64.3,0-96.5,0c-3.5,0-7-0.1-10.2-1.9C412.9,441.1,412.4,440.6,411.9,440.2z"/>
	<path class="st99" d="M413.4,441.5c40.2,0,80.3,0.1,120.5,0.1c-1.4,0.8-2.9,1.7-4.3,2.5c-34.1,1.5-68.2,0.4-102.4,0.7
		c-4.2,0-8.4,0.2-12.2-1.9C414.5,442.4,414,442,413.4,441.5z"/>
	<path class="st158" d="M415,442.9c36.2,0,72.5,0,108.7,0c2,0,4.2-0.7,5.9,1.2c-1.5,0.4-2.9,0.8-4.4,1.2
		c-28.6,1.8-57.3,0.6-85.9,0.9c-7.2,0.1-14.4,0.2-21.6-0.7C416.3,445.1,415.5,444.2,415,442.9z"/>
	<path class="st159" d="M417.8,445.5c1.4-1.7,3.4-1.2,5.2-1.2c32.6,0,65.1,0,97.7,0c1.6,0,3.3-0.3,4.6,1.1c-1.3,0.2-2.6,0.4-3.9,0.6
		c-6.9,1.6-13.9,1.1-20.8,1.1c-24,0-48,0-72,0c-3.3,0-6.5,0.1-9.6-1.1C418.5,445.8,418.1,445.7,417.8,445.5z"/>
	<path class="st160" d="M418.9,445.9c34.2,0,68.3,0,102.5,0c-1.1,1.4-2.7,1.1-4.2,1.2c-2,1.1-4.1,0.6-6.2,0.6c-28.2,0-56.3,0-84.5,0
		c-2.1,0-4.2,0.5-6.2-0.6C419.9,446.7,419.4,446.3,418.9,445.9z"/>
	<path class="st161" d="M420.3,447.1c32.3,0,64.5,0,96.8,0c-1.1,1.5-2.7,1.3-4.3,1.3c-30.4,0-60.7,0-91.1,0
		C421.3,448,420.8,447.5,420.3,447.1z"/>
	<path class="st162" d="M424.7,451.3c26.6,0,53.2,0,79.8,0c-1.9,0.8-3.8,1.7-5.7,2.5c-18.5,1.2-36.9,0.6-55.4,0.8
		c-5.3,0-10.6-0.1-15.9-0.6C426.5,453.1,425.6,452.2,424.7,451.3z"/>
	<path class="st163" d="M427.4,454c1.2-1.5,2.8-1.4,4.4-1.4c21,0,42.1,0,63.1,0c1.4,0,2.8,0,3.8,1.2c-1.4,0.5-2.8,0.9-4.2,1.4
		c-15.2,1-30.4,0.7-45.6,0.8c-6.7,0-13.3,0.2-20-0.7C428.4,454.9,427.9,454.4,427.4,454z"/>
	<path class="st164" d="M428.9,455.3c1.2-1.6,2.9-1.3,4.5-1.3c18.9,0,37.7,0,56.6,0c1.6,0,3.3-0.3,4.5,1.2c-1.3,0.1-2.6,0.3-3.8,0.4
		c-17.9,3.2-36,1.2-54,1.6c-2.4,0.1-4.5-1-6.7-1.7C429.6,455.6,429.3,455.5,428.9,455.3z"/>
	<path class="st165" d="M430,455.6c20.2,0,40.4,0,60.7,0c-1.2,1.4-2.9,1.1-4.4,1.3c-16.1,3.3-32.4,1.4-48.6,1.7
		c-2.1,0-4.1-0.9-6-1.7C431.1,456.5,430.6,456.1,430,455.6z"/>
	<path class="st166" d="M431.6,457c18.2,0,36.4,0,54.6,0c-1.1,1.5-2.7,1.2-4.2,1.3c-14.4,3.4-29.1,1.6-43.7,1.7
		c-1.8,0-3.6-0.8-5.3-1.7C432.7,457.8,432.1,457.4,431.6,457z"/>
	<path class="st167" d="M433.2,458.2c16.3,0,32.6,0,48.9,0c-1.5,1.8-3.8,1.8-5.7,2.6c-10.6,0.3-21.1,1.1-31.7,0.8
		c-3.5-0.1-7-0.1-10.1-2C434.1,459.2,433.6,458.7,433.2,458.2z"/>
	<path class="st168" d="M434.6,459.6c11.8,0,23.5,0,35.3,0c2.2,0,4.7-0.8,6.5,1.2c-0.9,0.1-1.8,0.2-2.7,0.3
		c-9.8,2.2-19.8,1.9-29.8,1.8c-2.9,0-5.5-0.5-8-1.9C435.4,460.6,435,460.1,434.6,459.6z"/>
	<path class="st146" d="M435.9,461.1c12.6,0,25.2,0.1,37.8,0.1c-1.5,1.8-3.6,1.1-5.5,1.4c-10.3,1.9-20.6,3.5-30.9-0.2
		C436.8,461.9,436.3,461.5,435.9,461.1z"/>
	<path class="st169" d="M437.3,462.4c10.3,0.1,20.6,0.1,30.9,0.2c-1.5,0.8-2.9,1.7-4.4,2.5c-7.9-0.4-15.8,1.6-23.7,0
		C438.7,464.7,437.9,463.7,437.3,462.4z"/>
	<path class="st170" d="M440.1,465.1c7.9-2.1,15.8-2.1,23.7,0c-1.2,0.1-2.5,0.2-3.7,0.2c-6.3,0.9-12.6,3.2-18.8,0
		C440.8,465.3,440.5,465.2,440.1,465.1z"/>
	<path class="st171" d="M455.5,466.7c-4.2,0.3-8.5,6.8-12.7,0C447.1,465.5,451.3,465.5,455.5,466.7z"/>
	<path class="st172" d="M455.5,466.7c-4.2,0-8.5,0-12.7,0c-0.5-0.5-1.1-0.9-1.6-1.4c6.3,0,12.5,0,18.8,0
		C458.9,466.9,457.1,466.5,455.5,466.7z"/>
	<path class="st173" d="M445.7,482c0-1.8,0-3.6,0-6.3C447.7,478.5,447.4,480.3,445.7,482L445.7,482z"/>
	<path class="st174" d="M579.8,376c-2,1.8-4.4,1-6.7,1c-78.3,0-156.6,0-234.8,0c1.2-2.2,3.3-1.3,5-1.3c77.7,0,155.4,0,233,0
		C577.5,375.6,578.6,375.8,579.8,376z"/>
	<path class="st175" d="M431.9,569.6c-3.8,3.9-7.5,5.6-13.1,4.1C422.6,569.7,426.3,568.1,431.9,569.6z"/>
	<path class="st176" d="M358.9,391.2c81.2,0,162.3,0,243.5,0c-2.2,2.1-4.9,1.2-7.3,1.2c-76.3,0-152.5,0-228.8,0
		C363.8,392.4,361.1,393.2,358.9,391.2z"/>
</g>
</svg>
