<?xml version="1.0" encoding="utf-8"?>
<!-- Generator: Adobe Illustrator 24.1.2, SVG Export Plug-In . SVG Version: 6.00 Build 0)  -->
<svg version="1.1" id="Layer_1" xmlns="http://www.w3.org/2000/svg" xmlns:xlink="http://www.w3.org/1999/xlink" x="0px" y="0px"
	 viewBox="0 0 800 800" style="enable-background:new 0 0 800 800;" xml:space="preserve">
<style type="text/css">
	.st0{fill:#333333;}
	.st1{clip-path:url(#SVGID_2_);}
	.st2{fill:#1D1D1B;}
	.st3{fill:#FECE5B;}
	.st4{fill:#12A55A;}
</style>
<g id="Layer_2_3_">
	<g id="Layer_2_4_">
		<g>
			<circle class="st0" cx="401.3" cy="401.5" r="400"/>
		</g>
	</g>
</g>
<g>
	<defs>
		<circle id="SVGID_1_" cx="401.3" cy="401.5" r="400"/>
	</defs>
	<clipPath id="SVGID_2_">
		<use xlink:href="#SVGID_1_"  style="overflow:visible;"/>
	</clipPath>
	<g class="st1">
		<g>
			<path class="st2" d="M700.5,444.4c-133-0.3-240.3,107.1-240.5,240.7C459.8,816,567.8,924.3,698.8,924.4
				c133.4,0.1,241.1-106.8,241.2-239.1C940.1,552.2,833.2,444.7,700.5,444.4z"/>
		</g>
		<g>
			<path class="st2" d="M699.5,443.4c-133-0.3-240.3,107.1-240.5,240.7C458.8,815,566.8,923.3,697.8,923.4
				c133.4,0.1,241.1-106.8,241.2-239.1C939.1,551.2,832.2,443.7,699.5,443.4z"/>
		</g>
		<g>
			<path class="st2" d="M698.5,442.4c-133-0.3-240.3,107.1-240.5,240.7C457.8,814,565.8,922.3,696.8,922.4
				c133.4,0.1,241.1-106.8,241.2-239.1C938.1,550.2,831.2,442.7,698.5,442.4z"/>
		</g>
		<g>
			<path class="st2" d="M697.5,441.4c-133-0.3-240.3,107.1-240.5,240.7C456.8,813,564.8,921.3,695.8,921.4
				c133.4,0.1,241.1-106.8,241.2-239.1C937.1,549.2,830.2,441.7,697.5,441.4z"/>
		</g>
		<g>
			<path class="st2" d="M696.5,440.4c-133-0.3-240.3,107.1-240.5,240.7C455.8,812,563.8,920.3,694.8,920.4
				c133.4,0.1,241.1-106.8,241.2-239.1C936.1,548.2,829.2,440.7,696.5,440.4z"/>
		</g>
		<g>
			<path class="st2" d="M695.5,439.4c-133-0.3-240.3,107.1-240.5,240.7C454.8,811,562.8,919.3,693.8,919.4
				c133.4,0.1,241.1-106.8,241.2-239.1C935.1,547.2,828.2,439.7,695.5,439.4z"/>
		</g>
		<g>
			<path class="st2" d="M694.5,438.4c-133-0.3-240.3,107.1-240.5,240.7C453.8,810,561.8,918.3,692.8,918.4
				c133.4,0.1,241.1-106.8,241.2-239.1C934.1,546.2,827.2,438.7,694.5,438.4z"/>
		</g>
		<g>
			<path class="st2" d="M693.5,437.4c-133-0.3-240.3,107.1-240.5,240.7C452.8,809,560.8,917.3,691.8,917.4
				c133.4,0.1,241.1-106.8,241.2-239.1C933.1,545.2,826.2,437.7,693.5,437.4z"/>
		</g>
		<g>
			<path class="st2" d="M692.5,436.4c-133-0.3-240.3,107.1-240.5,240.7C451.8,808,559.8,916.3,690.8,916.4
				c133.4,0.1,241.1-106.8,241.2-239.1C932.1,544.2,825.2,436.7,692.5,436.4z"/>
		</g>
		<g>
			<path class="st2" d="M691.5,435.4c-133-0.3-240.3,107.1-240.5,240.7C450.8,807,558.8,915.3,689.8,915.4
				c133.4,0.1,241.1-106.8,241.2-239.1C931.1,543.2,824.2,435.7,691.5,435.4z"/>
		</g>
		<g>
			<path class="st2" d="M690.5,434.4c-133-0.3-240.3,107.1-240.5,240.7C449.8,806,557.8,914.3,688.8,914.4
				c133.4,0.1,241.1-106.8,241.2-239.1C930.1,542.2,823.2,434.7,690.5,434.4z"/>
		</g>
		<g>
			<path class="st2" d="M689.5,433.4c-133-0.3-240.3,107.1-240.5,240.7C448.8,805,556.8,913.3,687.8,913.4
				c133.4,0.1,241.1-106.8,241.2-239.1C929.1,541.2,822.2,433.7,689.5,433.4z"/>
		</g>
		<g>
			<path class="st2" d="M688.5,432.4c-133-0.3-240.3,107.1-240.5,240.7C447.8,804,555.8,912.3,686.8,912.4
				c133.4,0.1,241.1-106.8,241.2-239.1C928.1,540.2,821.2,432.7,688.5,432.4z"/>
		</g>
		<g>
			<path class="st2" d="M687.5,431.4c-133-0.3-240.3,107.1-240.5,240.7C446.8,803,554.8,911.3,685.8,911.4
				c133.4,0.1,241.1-106.8,241.2-239.1C927.1,539.2,820.2,431.7,687.5,431.4z"/>
		</g>
		<g>
			<path class="st2" d="M686.5,430.4c-133-0.3-240.3,107.1-240.5,240.7C445.8,802,553.8,910.3,684.8,910.4
				c133.4,0.1,241.1-106.8,241.2-239.1C926.1,538.2,819.2,430.7,686.5,430.4z"/>
		</g>
		<g>
			<path class="st2" d="M685.5,429.4c-133-0.3-240.3,107.1-240.5,240.7C444.8,801,552.8,909.3,683.8,909.4
				c133.4,0.1,241.1-106.8,241.2-239.1C925.1,537.2,818.2,429.7,685.5,429.4z"/>
		</g>
		<g>
			<path class="st2" d="M684.5,428.4c-133-0.3-240.3,107.1-240.5,240.7C443.8,800,551.8,908.3,682.8,908.4
				c133.4,0.1,241.1-106.8,241.2-239.1C924.1,536.2,817.2,428.7,684.5,428.4z"/>
		</g>
		<g>
			<path class="st2" d="M683.5,427.4c-133-0.3-240.3,107.1-240.5,240.7C442.8,799,550.8,907.3,681.8,907.4
				c133.4,0.1,241.1-106.8,241.2-239.1C923.1,535.2,816.2,427.7,683.5,427.4z"/>
		</g>
		<g>
			<path class="st2" d="M682.5,426.4c-133-0.3-240.3,107.1-240.5,240.7C441.8,798,549.8,906.3,680.8,906.4
				c133.4,0.1,241.1-106.8,241.2-239.1C922.1,534.2,815.2,426.7,682.5,426.4z"/>
		</g>
		<g>
			<path class="st2" d="M681.5,425.4c-133-0.3-240.3,107.1-240.5,240.7C440.8,797,548.8,905.3,679.8,905.4
				c133.4,0.1,241.1-106.8,241.2-239.1C921.1,533.2,814.2,425.7,681.5,425.4z"/>
		</g>
		<g>
			<path class="st2" d="M680.5,424.4c-133-0.3-240.3,107.1-240.5,240.7C439.8,796,547.8,904.3,678.8,904.4
				c133.4,0.1,241.1-106.8,241.2-239.1C920.1,532.2,813.2,424.7,680.5,424.4z"/>
		</g>
		<g>
			<path class="st2" d="M679.5,423.4c-133-0.3-240.3,107.1-240.5,240.7C438.8,795,546.8,903.3,677.8,903.4
				c133.4,0.1,241.1-106.8,241.2-239.1C919.1,531.2,812.2,423.7,679.5,423.4z"/>
		</g>
		<g>
			<path class="st2" d="M678.5,422.4c-133-0.3-240.3,107.1-240.5,240.7C437.8,794,545.8,902.3,676.8,902.4
				c133.4,0.1,241.1-106.8,241.2-239.1C918.1,530.2,811.2,422.7,678.5,422.4z"/>
		</g>
		<g>
			<path class="st2" d="M677.5,421.4c-133-0.3-240.3,107.1-240.5,240.7C436.8,793,544.8,901.3,675.8,901.4
				c133.4,0.1,241.1-106.8,241.2-239.1C917.1,529.2,810.2,421.7,677.5,421.4z"/>
		</g>
		<g>
			<path class="st2" d="M676.5,420.4c-133-0.3-240.3,107.1-240.5,240.7C435.8,792,543.8,900.3,674.8,900.4
				c133.4,0.1,241.1-106.8,241.2-239.1C916.1,528.2,809.2,420.7,676.5,420.4z"/>
		</g>
		<g>
			<path class="st2" d="M675.5,419.4c-133-0.3-240.3,107.1-240.5,240.7C434.8,791,542.8,899.3,673.8,899.4
				c133.4,0.1,241.1-106.8,241.2-239.1C915.1,527.2,808.2,419.7,675.5,419.4z"/>
		</g>
		<g>
			<path class="st2" d="M674.5,418.4c-133-0.3-240.3,107.1-240.5,240.7C433.8,790,541.8,898.3,672.8,898.4
				c133.4,0.1,241.1-106.8,241.2-239.1C914.1,526.2,807.2,418.7,674.5,418.4z"/>
		</g>
		<g>
			<path class="st2" d="M673.5,417.4c-133-0.3-240.3,107.1-240.5,240.7C432.8,789,540.8,897.3,671.8,897.4
				c133.4,0.1,241.1-106.8,241.2-239.1C913.1,525.2,806.2,417.7,673.5,417.4z"/>
		</g>
		<g>
			<path class="st2" d="M672.5,416.4c-133-0.3-240.3,107.1-240.5,240.7C431.8,788,539.8,896.3,670.8,896.4
				c133.4,0.1,241.1-106.8,241.2-239.1C912.1,524.2,805.2,416.7,672.5,416.4z"/>
		</g>
		<g>
			<path class="st2" d="M671.5,415.4c-133-0.3-240.3,107.1-240.5,240.7C430.8,787,538.8,895.3,669.8,895.4
				c133.4,0.1,241.1-106.8,241.2-239.1C911.1,523.2,804.2,415.7,671.5,415.4z"/>
		</g>
		<g>
			<path class="st2" d="M670.5,414.4c-133-0.3-240.3,107.1-240.5,240.7C429.8,786,537.8,894.3,668.8,894.4
				c133.4,0.1,241.1-106.8,241.2-239.1C910.1,522.2,803.2,414.7,670.5,414.4z"/>
		</g>
		<g>
			<path class="st2" d="M669.5,413.4c-133-0.3-240.3,107.1-240.5,240.7C428.8,785,536.8,893.3,667.8,893.4
				c133.4,0.1,241.1-106.8,241.2-239.1C909.1,521.2,802.2,413.7,669.5,413.4z"/>
		</g>
		<g>
			<path class="st2" d="M668.5,412.4c-133-0.3-240.3,107.1-240.5,240.7C427.8,784,535.8,892.3,666.8,892.4
				c133.4,0.1,241.1-106.8,241.2-239.1C908.1,520.2,801.2,412.7,668.5,412.4z"/>
		</g>
		<g>
			<path class="st2" d="M667.5,411.4c-133-0.3-240.3,107.1-240.5,240.7C426.8,783,534.8,891.3,665.8,891.4
				c133.4,0.1,241.1-106.8,241.2-239.1C907.1,519.2,800.2,411.7,667.5,411.4z"/>
		</g>
		<g>
			<path class="st2" d="M666.5,410.4c-133-0.3-240.3,107.1-240.5,240.7C425.8,782,533.8,890.3,664.8,890.4
				c133.4,0.1,241.1-106.8,241.2-239.1C906.1,518.2,799.2,410.7,666.5,410.4z"/>
		</g>
		<g>
			<path class="st2" d="M665.5,409.4c-133-0.3-240.3,107.1-240.5,240.7C424.8,781,532.8,889.3,663.8,889.4
				c133.4,0.1,241.1-106.8,241.2-239.1C905.1,517.2,798.2,409.7,665.5,409.4z"/>
		</g>
		<g>
			<path class="st2" d="M664.5,408.4c-133-0.3-240.3,107.1-240.5,240.7C423.8,780,531.8,888.3,662.8,888.4
				c133.4,0.1,241.1-106.8,241.2-239.1C904.1,516.2,797.2,408.7,664.5,408.4z"/>
		</g>
		<g>
			<path class="st2" d="M663.5,407.4c-133-0.3-240.3,107.1-240.5,240.7C422.8,779,530.8,887.3,661.8,887.4
				c133.4,0.1,241.1-106.8,241.2-239.1C903.1,515.2,796.2,407.7,663.5,407.4z"/>
		</g>
		<g>
			<path class="st2" d="M662.5,406.4c-133-0.3-240.3,107.1-240.5,240.7C421.8,778,529.8,886.3,660.8,886.4
				c133.4,0.1,241.1-106.8,241.2-239.1C902.1,514.2,795.2,406.7,662.5,406.4z"/>
		</g>
		<g>
			<path class="st2" d="M661.5,405.4c-133-0.3-240.3,107.1-240.5,240.7C420.8,777,528.8,885.3,659.8,885.4
				c133.4,0.1,241.1-106.8,241.2-239.1C901.1,513.2,794.2,405.7,661.5,405.4z"/>
		</g>
		<g>
			<path class="st2" d="M660.5,404.4c-133-0.3-240.3,107.1-240.5,240.7C419.8,776,527.8,884.3,658.8,884.4
				c133.4,0.1,241.1-106.8,241.2-239.1C900.1,512.2,793.2,404.7,660.5,404.4z"/>
		</g>
		<g>
			<path class="st2" d="M659.5,403.4c-133-0.3-240.3,107.1-240.5,240.7C418.8,775,526.8,883.3,657.8,883.4
				c133.4,0.1,241.1-106.8,241.2-239.1C899.1,511.2,792.2,403.7,659.5,403.4z"/>
		</g>
		<g>
			<path class="st2" d="M658.5,402.4c-133-0.3-240.3,107.1-240.5,240.7C417.8,774,525.8,882.3,656.8,882.4
				c133.4,0.1,241.1-106.8,241.2-239.1C898.1,510.2,791.2,402.7,658.5,402.4z"/>
		</g>
		<g>
			<path class="st2" d="M657.5,401.4c-133-0.3-240.3,107.1-240.5,240.7C416.8,773,524.8,881.3,655.8,881.4
				c133.4,0.1,241.1-106.8,241.2-239.1C897.1,509.2,790.2,401.7,657.5,401.4z"/>
		</g>
		<g>
			<path class="st2" d="M656.5,400.4c-133-0.3-240.3,107.1-240.5,240.7C415.8,772,523.8,880.3,654.8,880.4
				c133.4,0.1,241.1-106.8,241.2-239.1C896.1,508.2,789.2,400.7,656.5,400.4z"/>
		</g>
		<g>
			<path class="st2" d="M655.5,399.4c-133-0.3-240.3,107.1-240.5,240.7C414.8,771,522.8,879.3,653.8,879.4
				c133.4,0.1,241.1-106.8,241.2-239.1C895.1,507.2,788.2,399.7,655.5,399.4z"/>
		</g>
		<g>
			<path class="st2" d="M654.5,398.4c-133-0.3-240.3,107.1-240.5,240.7C413.8,770,521.8,878.3,652.8,878.4
				c133.4,0.1,241.1-106.8,241.2-239.1C894.1,506.2,787.2,398.7,654.5,398.4z"/>
		</g>
		<g>
			<path class="st2" d="M653.5,397.4c-133-0.3-240.3,107.1-240.5,240.7C412.8,769,520.8,877.3,651.8,877.4
				c133.4,0.1,241.1-106.8,241.2-239.1C893.1,505.2,786.2,397.7,653.5,397.4z"/>
		</g>
		<g>
			<path class="st2" d="M652.5,396.4c-133-0.3-240.3,107.1-240.5,240.7C411.8,768,519.8,876.3,650.8,876.4
				c133.4,0.1,241.1-106.8,241.2-239.1C892.1,504.2,785.2,396.7,652.5,396.4z"/>
		</g>
		<g>
			<path class="st2" d="M651.5,395.4c-133-0.3-240.3,107.1-240.5,240.7C410.8,767,518.8,875.3,649.8,875.4
				c133.4,0.1,241.1-106.8,241.2-239.1C891.1,503.2,784.2,395.7,651.5,395.4z"/>
		</g>
		<g>
			<path class="st2" d="M650.5,394.4c-133-0.3-240.3,107.1-240.5,240.7C409.8,766,517.8,874.3,648.8,874.4
				c133.4,0.1,241.1-106.8,241.2-239.1C890.1,502.2,783.2,394.7,650.5,394.4z"/>
		</g>
		<g>
			<path class="st2" d="M649.5,393.4c-133-0.3-240.3,107.1-240.5,240.7C408.8,765,516.8,873.3,647.8,873.4
				c133.4,0.1,241.1-106.8,241.2-239.1C889.1,501.2,782.2,393.7,649.5,393.4z"/>
		</g>
		<g>
			<path class="st2" d="M648.5,392.4c-133-0.3-240.3,107.1-240.5,240.7C407.8,764,515.8,872.3,646.8,872.4
				c133.4,0.1,241.1-106.8,241.2-239.1C888.1,500.2,781.2,392.7,648.5,392.4z"/>
		</g>
		<g>
			<path class="st2" d="M647.5,391.4c-133-0.3-240.3,107.1-240.5,240.7C406.8,763,514.8,871.3,645.8,871.4
				c133.4,0.1,241.1-106.8,241.2-239.1C887.1,499.2,780.2,391.7,647.5,391.4z"/>
		</g>
		<g>
			<path class="st2" d="M646.5,390.4c-133-0.3-240.3,107.1-240.5,240.7C405.8,762,513.8,870.3,644.8,870.4
				c133.4,0.1,241.1-106.8,241.2-239.1C886.1,498.2,779.2,390.7,646.5,390.4z"/>
		</g>
		<g>
			<path class="st2" d="M645.5,389.4c-133-0.3-240.3,107.1-240.5,240.7C404.8,761,512.8,869.3,643.8,869.4
				c133.4,0.1,241.1-106.8,241.2-239.1C885.1,497.2,778.2,389.7,645.5,389.4z"/>
		</g>
		<g>
			<path class="st2" d="M644.5,388.4c-133-0.3-240.3,107.1-240.5,240.7C403.8,760,511.8,868.3,642.8,868.4
				c133.4,0.1,241.1-106.8,241.2-239.1C884.1,496.2,777.2,388.7,644.5,388.4z"/>
		</g>
		<g>
			<path class="st2" d="M643.5,387.4c-133-0.3-240.3,107.1-240.5,240.7C402.8,759,510.8,867.3,641.8,867.4
				c133.4,0.1,241.1-106.8,241.2-239.1C883.1,495.2,776.2,387.7,643.5,387.4z"/>
		</g>
		<g>
			<path class="st2" d="M642.5,386.4c-133-0.3-240.3,107.1-240.5,240.7C401.8,758,509.8,866.3,640.8,866.4
				c133.4,0.1,241.1-106.8,241.2-239.1C882.1,494.2,775.2,386.7,642.5,386.4z"/>
		</g>
		<g>
			<path class="st2" d="M641.5,385.4c-133-0.3-240.3,107.1-240.5,240.7C400.8,757,508.8,865.3,639.8,865.4
				c133.4,0.1,241.1-106.8,241.2-239.1C881.1,493.2,774.2,385.7,641.5,385.4z"/>
		</g>
		<g>
			<path class="st2" d="M640.5,384.4c-133-0.3-240.3,107.1-240.5,240.7C399.8,756,507.8,864.3,638.8,864.4
				c133.4,0.1,241.1-106.8,241.2-239.1C880.1,492.2,773.2,384.7,640.5,384.4z"/>
		</g>
		<g>
			<path class="st2" d="M639.5,383.4c-133-0.3-240.3,107.1-240.5,240.7C398.8,755,506.8,863.3,637.8,863.4
				c133.4,0.1,241.1-106.8,241.2-239.1C879.1,491.2,772.2,383.7,639.5,383.4z"/>
		</g>
		<g>
			<path class="st2" d="M638.5,382.4c-133-0.3-240.3,107.1-240.5,240.7C397.8,754,505.8,862.3,636.8,862.4
				c133.4,0.1,241.1-106.8,241.2-239.1C878.1,490.2,771.2,382.7,638.5,382.4z"/>
		</g>
		<g>
			<path class="st2" d="M637.5,381.4c-133-0.3-240.3,107.1-240.5,240.7C396.8,753,504.8,861.3,635.8,861.4
				c133.4,0.1,241.1-106.8,241.2-239.1C877.1,489.2,770.2,381.7,637.5,381.4z"/>
		</g>
		<g>
			<path class="st2" d="M636.5,380.4c-133-0.3-240.3,107.1-240.5,240.7C395.8,752,503.8,860.3,634.8,860.4
				c133.4,0.1,241.1-106.8,241.2-239.1C876.1,488.2,769.2,380.7,636.5,380.4z"/>
		</g>
		<g>
			<path class="st2" d="M635.5,379.4c-133-0.3-240.3,107.1-240.5,240.7C394.8,751,502.8,859.3,633.8,859.4
				c133.4,0.1,241.1-106.8,241.2-239.1C875.1,487.2,768.2,379.7,635.5,379.4z"/>
		</g>
		<g>
			<path class="st2" d="M634.5,378.4c-133-0.3-240.3,107.1-240.5,240.7C393.8,750,501.8,858.3,632.8,858.4
				c133.4,0.1,241.1-106.8,241.2-239.1C874.1,486.2,767.2,378.7,634.5,378.4z"/>
		</g>
		<g>
			<path class="st2" d="M633.5,377.4c-133-0.3-240.3,107.1-240.5,240.7C392.8,749,500.8,857.3,631.8,857.4
				c133.4,0.1,241.1-106.8,241.2-239.1C873.1,485.2,766.2,377.7,633.5,377.4z"/>
		</g>
		<g>
			<path class="st2" d="M632.5,376.4c-133-0.3-240.3,107.1-240.5,240.7C391.8,748,499.8,856.3,630.8,856.4
				c133.4,0.1,241.1-106.8,241.2-239.1C872.1,484.2,765.2,376.7,632.5,376.4z"/>
		</g>
		<g>
			<path class="st2" d="M631.5,375.4c-133-0.3-240.3,107.1-240.5,240.7C390.8,747,498.8,855.3,629.8,855.4
				c133.4,0.1,241.1-106.8,241.2-239.1C871.1,483.2,764.2,375.7,631.5,375.4z"/>
		</g>
		<g>
			<path class="st2" d="M630.5,374.4c-133-0.3-240.3,107.1-240.5,240.7C389.8,746,497.8,854.3,628.8,854.4
				c133.4,0.1,241.1-106.8,241.2-239.1C870.1,482.2,763.2,374.7,630.5,374.4z"/>
		</g>
		<g>
			<path class="st2" d="M629.5,373.4c-133-0.3-240.3,107.1-240.5,240.7C388.8,745,496.8,853.3,627.8,853.4
				c133.4,0.1,241.1-106.8,241.2-239.1C869.1,481.2,762.2,373.7,629.5,373.4z"/>
		</g>
		<g>
			<path class="st2" d="M628.5,372.4c-133-0.3-240.3,107.1-240.5,240.7C387.8,744,495.8,852.3,626.8,852.4
				c133.4,0.1,241.1-106.8,241.2-239.1C868.1,480.2,761.2,372.7,628.5,372.4z"/>
		</g>
		<g>
			<path class="st2" d="M627.5,371.4c-133-0.3-240.3,107.1-240.5,240.7C386.8,743,494.8,851.3,625.8,851.4
				c133.4,0.1,241.1-106.8,241.2-239.1C867.1,479.2,760.2,371.7,627.5,371.4z"/>
		</g>
		<g>
			<path class="st2" d="M626.5,370.4c-133-0.3-240.3,107.1-240.5,240.7C385.8,742,493.8,850.3,624.8,850.4
				c133.4,0.1,241.1-106.8,241.2-239.1C866.1,478.2,759.2,370.7,626.5,370.4z"/>
		</g>
		<g>
			<path class="st2" d="M625.5,369.4c-133-0.3-240.3,107.1-240.5,240.7C384.8,741,492.8,849.3,623.8,849.4
				c133.4,0.1,241.1-106.8,241.2-239.1C865.1,477.2,758.2,369.7,625.5,369.4z"/>
		</g>
		<g>
			<path class="st2" d="M624.5,368.4c-133-0.3-240.3,107.1-240.5,240.7C383.8,740,491.8,848.3,622.8,848.4
				c133.4,0.1,241.1-106.8,241.2-239.1C864.1,476.2,757.2,368.7,624.5,368.4z"/>
		</g>
		<g>
			<path class="st2" d="M623.5,367.4c-133-0.3-240.3,107.1-240.5,240.7C382.8,739,490.8,847.3,621.8,847.4
				c133.4,0.1,241.1-106.8,241.2-239.1C863.1,475.2,756.2,367.7,623.5,367.4z"/>
		</g>
		<g>
			<path class="st2" d="M622.5,366.4c-133-0.3-240.3,107.1-240.5,240.7C381.8,738,489.8,846.3,620.8,846.4
				c133.4,0.1,241.1-106.8,241.2-239.1C862.1,474.2,755.2,366.7,622.5,366.4z"/>
		</g>
		<g>
			<path class="st2" d="M621.5,365.4c-133-0.3-240.3,107.1-240.5,240.7C380.8,737,488.8,845.3,619.8,845.4
				c133.4,0.1,241.1-106.8,241.2-239.1C861.1,473.2,754.2,365.7,621.5,365.4z"/>
		</g>
		<g>
			<path class="st2" d="M620.5,364.4c-133-0.3-240.3,107.1-240.5,240.7C379.8,736,487.8,844.3,618.8,844.4
				c133.4,0.1,241.1-106.8,241.2-239.1C860.1,472.2,753.2,364.7,620.5,364.4z"/>
		</g>
		<g>
			<path class="st2" d="M619.5,363.4c-133-0.3-240.3,107.1-240.5,240.7C378.8,735,486.8,843.3,617.8,843.4
				c133.4,0.1,241.1-106.8,241.2-239.1C859.1,471.2,752.2,363.7,619.5,363.4z"/>
		</g>
		<g>
			<path class="st2" d="M618.5,362.4c-133-0.3-240.3,107.1-240.5,240.7C377.8,734,485.8,842.3,616.8,842.4
				c133.4,0.1,241.1-106.8,241.2-239.1C858.1,470.2,751.2,362.7,618.5,362.4z"/>
		</g>
		<g>
			<path class="st2" d="M617.5,361.4c-133-0.3-240.3,107.1-240.5,240.7C376.8,733,484.8,841.3,615.8,841.4
				c133.4,0.1,241.1-106.8,241.2-239.1C857.1,469.2,750.2,361.7,617.5,361.4z"/>
		</g>
		<g>
			<path class="st2" d="M616.5,360.4c-133-0.3-240.3,107.1-240.5,240.7C375.8,732,483.8,840.3,614.8,840.4
				c133.4,0.1,241.1-106.8,241.2-239.1C856.1,468.2,749.2,360.7,616.5,360.4z"/>
		</g>
		<g>
			<path class="st2" d="M615.5,359.4c-133-0.3-240.3,107.1-240.5,240.7C374.8,731,482.8,839.3,613.8,839.4
				c133.4,0.1,241.1-106.8,241.2-239.1C855.1,467.2,748.2,359.7,615.5,359.4z"/>
		</g>
		<g>
			<path class="st2" d="M614.5,358.4c-133-0.3-240.3,107.1-240.5,240.7C373.8,730,481.8,838.3,612.8,838.4
				c133.4,0.1,241.1-106.8,241.2-239.1C854.1,466.2,747.2,358.7,614.5,358.4z"/>
		</g>
		<g>
			<path class="st2" d="M613.5,357.4c-133-0.3-240.3,107.1-240.5,240.7C372.8,729,480.8,837.3,611.8,837.4
				c133.4,0.1,241.1-106.8,241.2-239.1C853.1,465.2,746.2,357.7,613.5,357.4z"/>
		</g>
		<g>
			<path class="st2" d="M612.5,356.4c-133-0.3-240.3,107.1-240.5,240.7C371.8,728,479.8,836.3,610.8,836.4
				c133.4,0.1,241.1-106.8,241.2-239.1C852.1,464.2,745.2,356.7,612.5,356.4z"/>
		</g>
		<g>
			<path class="st2" d="M611.5,355.4c-133-0.3-240.3,107.1-240.5,240.7C370.8,727,478.8,835.3,609.8,835.4
				c133.4,0.1,241.1-106.8,241.2-239.1C851.1,463.2,744.2,355.7,611.5,355.4z"/>
		</g>
		<g>
			<path class="st2" d="M610.5,354.4c-133-0.3-240.3,107.1-240.5,240.7C369.8,726,477.8,834.3,608.8,834.4
				c133.4,0.1,241.1-106.8,241.2-239.1C850.1,462.2,743.2,354.7,610.5,354.4z"/>
		</g>
		<g>
			<path class="st2" d="M609.5,353.4c-133-0.3-240.3,107.1-240.5,240.7C368.8,725,476.8,833.3,607.8,833.4
				c133.4,0.1,241.1-106.8,241.2-239.1C849.1,461.2,742.2,353.7,609.5,353.4z"/>
		</g>
		<g>
			<path class="st2" d="M608.5,352.4c-133-0.3-240.3,107.1-240.5,240.7C367.8,724,475.8,832.3,606.8,832.4
				c133.4,0.1,241.1-106.8,241.2-239.1C848.1,460.2,741.2,352.7,608.5,352.4z"/>
		</g>
		<g>
			<path class="st2" d="M607.5,351.4c-133-0.3-240.3,107.1-240.5,240.7C366.8,723,474.8,831.3,605.8,831.4
				c133.4,0.1,241.1-106.8,241.2-239.1C847.1,459.2,740.2,351.7,607.5,351.4z"/>
		</g>
		<g>
			<path class="st2" d="M606.5,350.4c-133-0.3-240.3,107.1-240.5,240.7C365.8,722,473.8,830.3,604.8,830.4
				c133.4,0.1,241.1-106.8,241.2-239.1C846.1,458.2,739.2,350.7,606.5,350.4z"/>
		</g>
		<g>
			<path class="st2" d="M605.5,349.4c-133-0.3-240.3,107.1-240.5,240.7C364.8,721,472.8,829.3,603.8,829.4
				c133.4,0.1,241.1-106.8,241.2-239.1C845.1,457.2,738.2,349.7,605.5,349.4z"/>
		</g>
		<g>
			<path class="st2" d="M604.5,348.4c-133-0.3-240.3,107.1-240.5,240.7C363.8,720,471.8,828.3,602.8,828.4
				c133.4,0.1,241.1-106.8,241.2-239.1C844.1,456.2,737.2,348.7,604.5,348.4z"/>
		</g>
		<g>
			<path class="st2" d="M603.5,347.4c-133-0.3-240.3,107.1-240.5,240.7C362.8,719,470.8,827.3,601.8,827.4
				c133.4,0.1,241.1-106.8,241.2-239.1C843.1,455.2,736.2,347.7,603.5,347.4z"/>
		</g>
		<g>
			<path class="st2" d="M602.5,346.4c-133-0.3-240.3,107.1-240.5,240.7C361.8,718,469.8,826.3,600.8,826.4
				c133.4,0.1,241.1-106.8,241.2-239.1C842.1,454.2,735.2,346.7,602.5,346.4z"/>
		</g>
		<g>
			<path class="st2" d="M601.5,345.4c-133-0.3-240.3,107.1-240.5,240.7C360.8,717,468.8,825.3,599.8,825.4
				c133.4,0.1,241.1-106.8,241.2-239.1C841.1,453.2,734.2,345.7,601.5,345.4z"/>
		</g>
		<g>
			<path class="st2" d="M600.5,344.4c-133-0.3-240.3,107.1-240.5,240.7C359.8,716,467.8,824.3,598.8,824.4
				c133.4,0.1,241.1-106.8,241.2-239.1C840.1,452.2,733.2,344.7,600.5,344.4z"/>
		</g>
		<g>
			<path class="st2" d="M599.5,343.4c-133-0.3-240.3,107.1-240.5,240.7C358.8,715,466.8,823.3,597.8,823.4
				c133.4,0.1,241.1-106.8,241.2-239.1C839.1,451.2,732.2,343.7,599.5,343.4z"/>
		</g>
		<g>
			<path class="st2" d="M598.5,342.4c-133-0.3-240.3,107.1-240.5,240.7C357.8,714,465.8,822.3,596.8,822.4
				c133.4,0.1,241.1-106.8,241.2-239.1C838.1,450.2,731.2,342.7,598.5,342.4z"/>
		</g>
		<g>
			<path class="st2" d="M597.5,341.4c-133-0.3-240.3,107.1-240.5,240.7C356.8,713,464.8,821.3,595.8,821.4
				c133.4,0.1,241.1-106.8,241.2-239.1C837.1,449.2,730.2,341.7,597.5,341.4z"/>
		</g>
		<g>
			<path class="st2" d="M596.5,340.4c-133-0.3-240.3,107.1-240.5,240.7C355.8,712,463.8,820.3,594.8,820.4
				c133.4,0.1,241.1-106.8,241.2-239.1C836.1,448.2,729.2,340.7,596.5,340.4z"/>
		</g>
		<g>
			<path class="st2" d="M595.5,339.4c-133-0.3-240.3,107.1-240.5,240.7C354.8,711,462.8,819.3,593.8,819.4
				c133.4,0.1,241.1-106.8,241.2-239.1C835.1,447.2,728.2,339.7,595.5,339.4z"/>
		</g>
		<g>
			<path class="st2" d="M594.5,338.4c-133-0.3-240.3,107.1-240.5,240.7C353.8,710,461.8,818.3,592.8,818.4
				c133.4,0.1,241.1-106.8,241.2-239.1C834.1,446.2,727.2,338.7,594.5,338.4z"/>
		</g>
		<g>
			<path class="st2" d="M593.5,337.4c-133-0.3-240.3,107.1-240.5,240.7C352.8,709,460.8,817.3,591.8,817.4
				c133.4,0.1,241.1-106.8,241.2-239.1C833.1,445.2,726.2,337.7,593.5,337.4z"/>
		</g>
		<g>
			<path class="st2" d="M592.5,336.4c-133-0.3-240.3,107.1-240.5,240.7C351.8,708,459.8,816.3,590.8,816.4
				c133.4,0.1,241.1-106.8,241.2-239.1C832.1,444.2,725.2,336.7,592.5,336.4z"/>
		</g>
		<g>
			<path class="st2" d="M591.5,335.4c-133-0.3-240.3,107.1-240.5,240.7C350.8,707,458.8,815.3,589.8,815.4
				c133.4,0.1,241.1-106.8,241.2-239.1C831.1,443.2,724.2,335.7,591.5,335.4z"/>
		</g>
		<g>
			<path class="st2" d="M590.5,334.4c-133-0.3-240.3,107.1-240.5,240.7C349.8,706,457.8,814.3,588.8,814.4
				c133.4,0.1,241.1-106.8,241.2-239.1C830.1,442.2,723.2,334.7,590.5,334.4z"/>
		</g>
		<g>
			<path class="st2" d="M589.5,333.4c-133-0.3-240.3,107.1-240.5,240.7C348.8,705,456.8,813.3,587.8,813.4
				c133.4,0.1,241.1-106.8,241.2-239.1C829.1,441.2,722.2,333.7,589.5,333.4z"/>
		</g>
		<g>
			<path class="st2" d="M588.5,332.4c-133-0.3-240.3,107.1-240.5,240.7C347.8,704,455.8,812.3,586.8,812.4
				c133.4,0.1,241.1-106.8,241.2-239.1C828.1,440.2,721.2,332.7,588.5,332.4z"/>
		</g>
		<g>
			<path class="st2" d="M587.5,331.4c-133-0.3-240.3,107.1-240.5,240.7C346.8,703,454.8,811.3,585.8,811.4
				c133.4,0.1,241.1-106.8,241.2-239.1C827.1,439.2,720.2,331.7,587.5,331.4z"/>
		</g>
		<g>
			<path class="st2" d="M586.5,330.4c-133-0.3-240.3,107.1-240.5,240.7C345.8,702,453.8,810.3,584.8,810.4
				c133.4,0.1,241.1-106.8,241.2-239.1C826.1,438.2,719.2,330.7,586.5,330.4z"/>
		</g>
		<g>
			<path class="st2" d="M585.5,329.4c-133-0.3-240.3,107.1-240.5,240.7C344.8,701,452.8,809.3,583.8,809.4
				c133.4,0.1,241.1-106.8,241.2-239.1C825.1,437.2,718.2,329.7,585.5,329.4z"/>
		</g>
		<g>
			<path class="st2" d="M584.5,328.4c-133-0.3-240.3,107.1-240.5,240.7C343.8,700,451.8,808.3,582.8,808.4
				c133.4,0.1,241.1-106.8,241.2-239.1C824.1,436.2,717.2,328.7,584.5,328.4z"/>
		</g>
		<g>
			<path class="st2" d="M583.5,327.4c-133-0.3-240.3,107.1-240.5,240.7C342.8,699,450.8,807.3,581.8,807.4
				c133.4,0.1,241.1-106.8,241.2-239.1C823.1,435.2,716.2,327.7,583.5,327.4z"/>
		</g>
		<g>
			<path class="st2" d="M582.5,326.4c-133-0.3-240.3,107.1-240.5,240.7C341.8,698,449.8,806.3,580.8,806.4
				c133.4,0.1,241.1-106.8,241.2-239.1C822.1,434.2,715.2,326.7,582.5,326.4z"/>
		</g>
		<g>
			<path class="st2" d="M581.5,325.4c-133-0.3-240.3,107.1-240.5,240.7C340.8,697,448.8,805.3,579.8,805.4
				c133.4,0.1,241.1-106.8,241.2-239.1C821.1,433.2,714.2,325.7,581.5,325.4z"/>
		</g>
		<g>
			<path class="st2" d="M580.5,324.4c-133-0.3-240.3,107.1-240.5,240.7C339.8,696,447.8,804.3,578.8,804.4
				c133.4,0.1,241.1-106.8,241.2-239.1C820.1,432.2,713.2,324.7,580.5,324.4z"/>
		</g>
		<g>
			<path class="st2" d="M579.5,323.4c-133-0.3-240.3,107.1-240.5,240.7C338.8,695,446.8,803.3,577.8,803.4
				c133.4,0.1,241.1-106.8,241.2-239.1C819.1,431.2,712.2,323.7,579.5,323.4z"/>
		</g>
		<g>
			<path class="st2" d="M578.5,322.4c-133-0.3-240.3,107.1-240.5,240.7C337.8,694,445.8,802.3,576.8,802.4
				c133.4,0.1,241.1-106.8,241.2-239.1C818.1,430.2,711.2,322.7,578.5,322.4z"/>
		</g>
		<g>
			<path class="st2" d="M577.5,321.4c-133-0.3-240.3,107.1-240.5,240.7C336.8,693,444.8,801.3,575.8,801.4
				c133.4,0.1,241.1-106.8,241.2-239.1C817.1,429.2,710.2,321.7,577.5,321.4z"/>
		</g>
		<g>
			<path class="st2" d="M576.5,320.4c-133-0.3-240.3,107.1-240.5,240.7C335.8,692,443.8,800.3,574.8,800.4
				c133.4,0.1,241.1-106.8,241.2-239.1C816.1,428.2,709.2,320.7,576.5,320.4z"/>
		</g>
		<g>
			<path class="st2" d="M575.5,319.4c-133-0.3-240.3,107.1-240.5,240.7C334.8,691,442.8,799.3,573.8,799.4
				c133.4,0.1,241.1-106.8,241.2-239.1C815.1,427.2,708.2,319.7,575.5,319.4z"/>
		</g>
		<g>
			<path class="st2" d="M574.5,318.4c-133-0.3-240.3,107.1-240.5,240.7C333.8,690,441.8,798.3,572.8,798.4
				c133.4,0.1,241.1-106.8,241.2-239.1C814.1,426.2,707.2,318.7,574.5,318.4z"/>
		</g>
		<g>
			<path class="st2" d="M573.5,317.4c-133-0.3-240.3,107.1-240.5,240.7C332.8,689,440.8,797.3,571.8,797.4
				c133.4,0.1,241.1-106.8,241.2-239.1C813.1,425.2,706.2,317.7,573.5,317.4z"/>
		</g>
		<g>
			<path class="st2" d="M572.5,316.4c-133-0.3-240.3,107.1-240.5,240.7C331.8,688,439.8,796.3,570.8,796.4
				c133.4,0.1,241.1-106.8,241.2-239.1C812.1,424.2,705.2,316.7,572.5,316.4z"/>
		</g>
		<g>
			<path class="st2" d="M571.5,315.4c-133-0.3-240.3,107.1-240.5,240.7C330.8,687,438.8,795.3,569.8,795.4
				c133.4,0.1,241.1-106.8,241.2-239.1C811.1,423.2,704.2,315.7,571.5,315.4z"/>
		</g>
		<g>
			<path class="st2" d="M570.5,314.4c-133-0.3-240.3,107.1-240.5,240.7C329.8,686,437.8,794.3,568.8,794.4
				c133.4,0.1,241.1-106.8,241.2-239.1C810.1,422.2,703.2,314.7,570.5,314.4z"/>
		</g>
		<g>
			<path class="st2" d="M569.5,313.4c-133-0.3-240.3,107.1-240.5,240.7C328.8,685,436.8,793.3,567.8,793.4
				c133.4,0.1,241.1-106.8,241.2-239.1C809.1,421.2,702.2,313.7,569.5,313.4z"/>
		</g>
		<g>
			<path class="st2" d="M568.5,312.4c-133-0.3-240.3,107.1-240.5,240.7C327.8,684,435.8,792.3,566.8,792.4
				c133.4,0.1,241.1-106.8,241.2-239.1C808.1,420.2,701.2,312.7,568.5,312.4z"/>
		</g>
		<g>
			<path class="st2" d="M567.5,311.4c-133-0.3-240.3,107.1-240.5,240.7C326.8,683,434.8,791.3,565.8,791.4
				c133.4,0.1,241.1-106.8,241.2-239.1C807.1,419.2,700.2,311.7,567.5,311.4z"/>
		</g>
		<g>
			<path class="st2" d="M566.5,310.4c-133-0.3-240.3,107.1-240.5,240.7C325.8,682,433.8,790.3,564.8,790.4
				c133.4,0.1,241.1-106.8,241.2-239.1C806.1,418.2,699.2,310.7,566.5,310.4z"/>
		</g>
		<g>
			<path class="st2" d="M565.5,309.4c-133-0.3-240.3,107.1-240.5,240.7C324.8,681,432.8,789.3,563.8,789.4
				c133.4,0.1,241.1-106.8,241.2-239.1C805.1,417.2,698.2,309.7,565.5,309.4z"/>
		</g>
		<g>
			<path class="st2" d="M564.5,308.4c-133-0.3-240.3,107.1-240.5,240.7C323.8,680,431.8,788.3,562.8,788.4
				c133.4,0.1,241.1-106.8,241.2-239.1C804.1,416.2,697.2,308.7,564.5,308.4z"/>
		</g>
		<g>
			<path class="st2" d="M563.5,307.4c-133-0.3-240.3,107.1-240.5,240.7C322.8,679,430.8,787.3,561.8,787.4
				c133.4,0.1,241.1-106.8,241.2-239.1C803.1,415.2,696.2,307.7,563.5,307.4z"/>
		</g>
		<g>
			<path class="st2" d="M562.5,306.4c-133-0.3-240.3,107.1-240.5,240.7C321.8,678,429.8,786.3,560.8,786.4
				c133.4,0.1,241.1-106.8,241.2-239.1C802.1,414.2,695.2,306.7,562.5,306.4z"/>
		</g>
		<g>
			<path class="st2" d="M561.5,305.4c-133-0.3-240.3,107.1-240.5,240.7C320.8,677,428.8,785.3,559.8,785.4
				c133.4,0.1,241.1-106.8,241.2-239.1C801.1,413.2,694.2,305.7,561.5,305.4z"/>
		</g>
		<g>
			<path class="st2" d="M560.5,304.4c-133-0.3-240.3,107.1-240.5,240.7C319.8,676,427.8,784.3,558.8,784.4
				c133.4,0.1,241.1-106.8,241.2-239.1C800.1,412.2,693.2,304.7,560.5,304.4z"/>
		</g>
		<g>
			<path class="st2" d="M559.5,303.4c-133-0.3-240.3,107.1-240.5,240.7C318.8,675,426.8,783.3,557.8,783.4
				c133.4,0.1,241.1-106.8,241.2-239.1C799.1,411.2,692.2,303.7,559.5,303.4z"/>
		</g>
		<g>
			<path class="st2" d="M558.5,302.4c-133-0.3-240.3,107.1-240.5,240.7C317.8,674,425.8,782.3,556.8,782.4
				c133.4,0.1,241.1-106.8,241.2-239.1C798.1,410.2,691.2,302.7,558.5,302.4z"/>
		</g>
		<g>
			<path class="st2" d="M557.5,301.4c-133-0.3-240.3,107.1-240.5,240.7C316.8,673,424.8,781.3,555.8,781.4
				c133.4,0.1,241.1-106.8,241.2-239.1C797.1,409.2,690.2,301.7,557.5,301.4z"/>
		</g>
		<g>
			<path class="st2" d="M556.5,300.4c-133-0.3-240.3,107.1-240.5,240.7C315.8,672,423.8,780.3,554.8,780.4
				c133.4,0.1,241.1-106.8,241.2-239.1C796.1,408.2,689.2,300.7,556.5,300.4z"/>
		</g>
		<g>
			<path class="st2" d="M555.5,299.4c-133-0.3-240.3,107.1-240.5,240.7C314.8,671,422.8,779.3,553.8,779.4
				c133.4,0.1,241.1-106.8,241.2-239.1C795.1,407.2,688.2,299.7,555.5,299.4z"/>
		</g>
		<g>
			<path class="st2" d="M554.5,298.4c-133-0.3-240.3,107.1-240.5,240.7C313.8,670,421.8,778.3,552.8,778.4
				c133.4,0.1,241.1-106.8,241.2-239.1C794.1,406.2,687.2,298.7,554.5,298.4z"/>
		</g>
		<g>
			<path class="st2" d="M553.5,297.4c-133-0.3-240.3,107.1-240.5,240.7C312.8,669,420.8,777.3,551.8,777.4
				c133.4,0.1,241.1-106.8,241.2-239.1C793.1,405.2,686.2,297.7,553.5,297.4z"/>
		</g>
		<g>
			<path class="st2" d="M552.5,296.4c-133-0.3-240.3,107.1-240.5,240.7C311.8,668,419.8,776.3,550.8,776.4
				c133.4,0.1,241.1-106.8,241.2-239.1C792.1,404.2,685.2,296.7,552.5,296.4z"/>
		</g>
		<g>
			<path class="st2" d="M551.5,295.4c-133-0.3-240.3,107.1-240.5,240.7C310.8,667,418.8,775.3,549.8,775.4
				c133.4,0.1,241.1-106.8,241.2-239.1C791.1,403.2,684.2,295.7,551.5,295.4z"/>
		</g>
		<g>
			<path class="st2" d="M550.5,294.4c-133-0.3-240.3,107.1-240.5,240.7C309.8,666,417.8,774.3,548.8,774.4
				c133.4,0.1,241.1-106.8,241.2-239.1C790.1,402.2,683.2,294.7,550.5,294.4z"/>
		</g>
		<g>
			<path class="st2" d="M549.5,293.4c-133-0.3-240.3,107.1-240.5,240.7C308.8,665,416.8,773.3,547.8,773.4
				c133.4,0.1,241.1-106.8,241.2-239.1C789.1,401.2,682.2,293.7,549.5,293.4z"/>
		</g>
		<g>
			<path class="st2" d="M548.5,292.4c-133-0.3-240.3,107.1-240.5,240.7C307.8,664,415.8,772.3,546.8,772.4
				c133.4,0.1,241.1-106.8,241.2-239.1C788.1,400.2,681.2,292.7,548.5,292.4z"/>
		</g>
		<g>
			<path class="st2" d="M547.5,291.4c-133-0.3-240.3,107.1-240.5,240.7C306.8,663,414.8,771.3,545.8,771.4
				c133.4,0.1,241.1-106.8,241.2-239.1C787.1,399.2,680.2,291.7,547.5,291.4z"/>
		</g>
		<g>
			<path class="st2" d="M546.5,290.4c-133-0.3-240.3,107.1-240.5,240.7C305.8,662,413.8,770.3,544.8,770.4
				c133.4,0.1,241.1-106.8,241.2-239.1C786.1,398.2,679.2,290.7,546.5,290.4z"/>
		</g>
		<g>
			<path class="st2" d="M545.5,289.4c-133-0.3-240.3,107.1-240.5,240.7C304.8,661,412.8,769.3,543.8,769.4
				c133.4,0.1,241.1-106.8,241.2-239.1C785.1,397.2,678.2,289.7,545.5,289.4z"/>
		</g>
		<g>
			<path class="st2" d="M544.5,288.4c-133-0.3-240.3,107.1-240.5,240.7C303.8,660,411.8,768.3,542.8,768.4
				c133.4,0.1,241.1-106.8,241.2-239.1C784.1,396.2,677.2,288.7,544.5,288.4z"/>
		</g>
		<g>
			<path class="st2" d="M543.5,287.4c-133-0.3-240.3,107.1-240.5,240.7C302.8,659,410.8,767.3,541.8,767.4
				c133.4,0.1,241.1-106.8,241.2-239.1C783.1,395.2,676.2,287.7,543.5,287.4z"/>
		</g>
		<g>
			<path class="st2" d="M542.5,286.4c-133-0.3-240.3,107.1-240.5,240.7C301.8,658,409.8,766.3,540.8,766.4
				c133.4,0.1,241.1-106.8,241.2-239.1C782.1,394.2,675.2,286.7,542.5,286.4z"/>
		</g>
		<g>
			<path class="st2" d="M541.5,285.4c-133-0.3-240.3,107.1-240.5,240.7C300.8,657,408.8,765.3,539.8,765.4
				c133.4,0.1,241.1-106.8,241.2-239.1C781.1,393.2,674.2,285.7,541.5,285.4z"/>
		</g>
		<g>
			<path class="st2" d="M540.5,284.4c-133-0.3-240.3,107.1-240.5,240.7C299.8,656,407.8,764.3,538.8,764.4
				c133.4,0.1,241.1-106.8,241.2-239.1C780.1,392.2,673.2,284.7,540.5,284.4z"/>
		</g>
		<g>
			<path class="st2" d="M539.5,283.4c-133-0.3-240.3,107.1-240.5,240.7C298.8,655,406.8,763.3,537.8,763.4
				c133.4,0.1,241.1-106.8,241.2-239.1C779.1,391.2,672.2,283.7,539.5,283.4z"/>
		</g>
		<g>
			<path class="st2" d="M538.5,282.4c-133-0.3-240.3,107.1-240.5,240.7C297.8,654,405.8,762.3,536.8,762.4
				c133.4,0.1,241.1-106.8,241.2-239.1C778.1,390.2,671.2,282.7,538.5,282.4z"/>
		</g>
		<g>
			<path class="st2" d="M537.5,281.4c-133-0.3-240.3,107.1-240.5,240.7C296.8,653,404.8,761.3,535.8,761.4
				c133.4,0.1,241.1-106.8,241.2-239.1C777.1,389.2,670.2,281.7,537.5,281.4z"/>
		</g>
		<g>
			<path class="st2" d="M536.5,280.4c-133-0.3-240.3,107.1-240.5,240.7C295.8,652,403.8,760.3,534.8,760.4
				c133.4,0.1,241.1-106.8,241.2-239.1C776.1,388.2,669.2,280.7,536.5,280.4z"/>
		</g>
		<g>
			<path class="st2" d="M535.5,279.4c-133-0.3-240.3,107.1-240.5,240.7C294.8,651,402.8,759.3,533.8,759.4
				c133.4,0.1,241.1-106.8,241.2-239.1C775.1,387.2,668.2,279.7,535.5,279.4z"/>
		</g>
		<g>
			<path class="st2" d="M534.5,278.4c-133-0.3-240.3,107.1-240.5,240.7C293.8,650,401.8,758.3,532.8,758.4
				c133.4,0.1,241.1-106.8,241.2-239.1C774.1,386.2,667.2,278.7,534.5,278.4z"/>
		</g>
		<g>
			<path class="st2" d="M533.5,277.4c-133-0.3-240.3,107.1-240.5,240.7C292.8,649,400.8,757.3,531.8,757.4
				c133.4,0.1,241.1-106.8,241.2-239.1C773.1,385.2,666.2,277.7,533.5,277.4z"/>
		</g>
		<g>
			<path class="st2" d="M532.5,276.4c-133-0.3-240.3,107.1-240.5,240.7C291.8,648,399.8,756.3,530.8,756.4
				c133.4,0.1,241.1-106.8,241.2-239.1C772.1,384.2,665.2,276.7,532.5,276.4z"/>
		</g>
		<g>
			<path class="st2" d="M531.5,275.4c-133-0.3-240.3,107.1-240.5,240.7C290.8,647,398.8,755.3,529.8,755.4
				c133.4,0.1,241.1-106.8,241.2-239.1C771.1,383.2,664.2,275.7,531.5,275.4z"/>
		</g>
		<g>
			<path class="st2" d="M530.5,274.4c-133-0.3-240.3,107.1-240.5,240.7C289.8,646,397.8,754.3,528.8,754.4
				c133.4,0.1,241.1-106.8,241.2-239.1C770.1,382.2,663.2,274.7,530.5,274.4z"/>
		</g>
		<g>
			<path class="st2" d="M529.5,273.4c-133-0.3-240.3,107.1-240.5,240.7C288.8,645,396.8,753.3,527.8,753.4
				c133.4,0.1,241.1-106.8,241.2-239.1C769.1,381.2,662.2,273.7,529.5,273.4z"/>
		</g>
		<g>
			<path class="st2" d="M528.5,272.4c-133-0.3-240.3,107.1-240.5,240.7C287.8,644,395.8,752.3,526.8,752.4
				c133.4,0.1,241.1-106.8,241.2-239.1C768.1,380.2,661.2,272.7,528.5,272.4z"/>
		</g>
		<g>
			<path class="st2" d="M527.5,271.4c-133-0.3-240.3,107.1-240.5,240.7C286.8,643,394.8,751.3,525.8,751.4
				c133.4,0.1,241.1-106.8,241.2-239.1C767.1,379.2,660.2,271.7,527.5,271.4z"/>
		</g>
		<g>
			<path class="st2" d="M526.5,270.4c-133-0.3-240.3,107.1-240.5,240.7C285.8,642,393.8,750.3,524.8,750.4
				c133.4,0.1,241.1-106.8,241.2-239.1C766.1,378.2,659.2,270.7,526.5,270.4z"/>
		</g>
		<g>
			<path class="st2" d="M525.5,269.4c-133-0.3-240.3,107.1-240.5,240.7C284.8,641,392.8,749.3,523.8,749.4
				c133.4,0.1,241.1-106.8,241.2-239.1C765.1,377.2,658.2,269.7,525.5,269.4z"/>
		</g>
		<g>
			<path class="st2" d="M524.5,268.4c-133-0.3-240.3,107.1-240.5,240.7C283.8,640,391.8,748.3,522.8,748.4
				c133.4,0.1,241.1-106.8,241.2-239.1C764.1,376.2,657.2,268.7,524.5,268.4z"/>
		</g>
		<g>
			<path class="st2" d="M523.5,267.4c-133-0.3-240.3,107.1-240.5,240.7C282.8,639,390.8,747.3,521.8,747.4
				c133.4,0.1,241.1-106.8,241.2-239.1C763.1,375.2,656.2,267.7,523.5,267.4z"/>
		</g>
		<g>
			<path class="st2" d="M522.5,266.4c-133-0.3-240.3,107.1-240.5,240.7C281.8,638,389.8,746.3,520.8,746.4
				c133.4,0.1,241.1-106.8,241.2-239.1C762.1,374.2,655.2,266.7,522.5,266.4z"/>
		</g>
		<g>
			<path class="st2" d="M521.5,265.4c-133-0.3-240.3,107.1-240.5,240.7C280.8,637,388.8,745.3,519.8,745.4
				c133.4,0.1,241.1-106.8,241.2-239.1C761.1,373.2,654.2,265.7,521.5,265.4z"/>
		</g>
		<g>
			<path class="st2" d="M520.5,264.4c-133-0.3-240.3,107.1-240.5,240.7C279.8,636,387.8,744.3,518.8,744.4
				c133.4,0.1,241.1-106.8,241.2-239.1C760.1,372.2,653.2,264.7,520.5,264.4z"/>
		</g>
		<g>
			<path class="st2" d="M519.5,263.4c-133-0.3-240.3,107.1-240.5,240.7C278.8,635,386.8,743.3,517.8,743.4
				c133.4,0.1,241.1-106.8,241.2-239.1C759.1,371.2,652.2,263.7,519.5,263.4z"/>
		</g>
		<g>
			<path class="st2" d="M518.5,262.4c-133-0.3-240.3,107.1-240.5,240.7C277.8,634,385.8,742.3,516.8,742.4
				c133.4,0.1,241.1-106.8,241.2-239.1C758.1,370.2,651.2,262.7,518.5,262.4z"/>
		</g>
		<g>
			<path class="st2" d="M517.5,261.4c-133-0.3-240.3,107.1-240.5,240.7C276.8,633,384.8,741.3,515.8,741.4
				c133.4,0.1,241.1-106.8,241.2-239.1C757.1,369.2,650.2,261.7,517.5,261.4z"/>
		</g>
		<g>
			<path class="st2" d="M516.5,260.4c-133-0.3-240.3,107.1-240.5,240.7C275.8,632,383.8,740.3,514.8,740.4
				c133.4,0.1,241.1-106.8,241.2-239.1C756.1,368.2,649.2,260.7,516.5,260.4z"/>
		</g>
		<g>
			<path class="st2" d="M515.5,259.4c-133-0.3-240.3,107.1-240.5,240.7C274.8,631,382.8,739.3,513.8,739.4
				c133.4,0.1,241.1-106.8,241.2-239.1C755.1,367.2,648.2,259.7,515.5,259.4z"/>
		</g>
		<g>
			<path class="st2" d="M514.5,258.4c-133-0.3-240.3,107.1-240.5,240.7C273.8,630,381.8,738.3,512.8,738.4
				c133.4,0.1,241.1-106.8,241.2-239.1C754.1,366.2,647.2,258.7,514.5,258.4z"/>
		</g>
		<g>
			<path class="st2" d="M513.5,257.4c-133-0.3-240.3,107.1-240.5,240.7C272.8,629,380.8,737.3,511.8,737.4
				c133.4,0.1,241.1-106.8,241.2-239.1C753.1,365.2,646.2,257.7,513.5,257.4z"/>
		</g>
		<g>
			<path class="st2" d="M512.5,256.4c-133-0.3-240.3,107.1-240.5,240.7C271.8,628,379.8,736.3,510.8,736.4
				c133.4,0.1,241.1-106.8,241.2-239.1C752.1,364.2,645.2,256.7,512.5,256.4z"/>
		</g>
		<g>
			<path class="st2" d="M511.5,255.4c-133-0.3-240.3,107.1-240.5,240.7C270.8,627,378.8,735.3,509.8,735.4
				c133.4,0.1,241.1-106.8,241.2-239.1C751.1,363.2,644.2,255.7,511.5,255.4z"/>
		</g>
		<g>
			<path class="st2" d="M510.5,254.4c-133-0.3-240.3,107.1-240.5,240.7C269.8,626,377.8,734.3,508.8,734.4
				c133.4,0.1,241.1-106.8,241.2-239.1C750.1,362.2,643.2,254.7,510.5,254.4z"/>
		</g>
		<g>
			<path class="st2" d="M509.5,253.4c-133-0.3-240.3,107.1-240.5,240.7C268.8,625,376.8,733.3,507.8,733.4
				c133.4,0.1,241.1-106.8,241.2-239.1C749.1,361.2,642.2,253.7,509.5,253.4z"/>
		</g>
		<g>
			<path class="st2" d="M508.5,252.4c-133-0.3-240.3,107.1-240.5,240.7C267.8,624,375.8,732.3,506.8,732.4
				c133.4,0.1,241.1-106.8,241.2-239.1C748.1,360.2,641.2,252.7,508.5,252.4z"/>
		</g>
		<g>
			<path class="st2" d="M507.5,251.4c-133-0.3-240.3,107.1-240.5,240.7C266.8,623,374.8,731.3,505.8,731.4
				c133.4,0.1,241.1-106.8,241.2-239.1C747.1,359.2,640.2,251.7,507.5,251.4z"/>
		</g>
		<g>
			<path class="st2" d="M506.5,250.4c-133-0.3-240.3,107.1-240.5,240.7C265.8,622,373.8,730.3,504.8,730.4
				c133.4,0.1,241.1-106.8,241.2-239.1C746.1,358.2,639.2,250.7,506.5,250.4z"/>
		</g>
		<g>
			<path class="st2" d="M505.5,249.4c-133-0.3-240.3,107.1-240.5,240.7C264.8,621,372.8,729.3,503.8,729.4
				c133.4,0.1,241.1-106.8,241.2-239.1C745.1,357.2,638.2,249.7,505.5,249.4z"/>
		</g>
		<g>
			<path class="st2" d="M504.5,248.4c-133-0.3-240.3,107.1-240.5,240.7C263.8,620,371.8,728.3,502.8,728.4
				c133.4,0.1,241.1-106.8,241.2-239.1C744.1,356.2,637.2,248.7,504.5,248.4z"/>
		</g>
		<g>
			<path class="st2" d="M503.5,247.4c-133-0.3-240.3,107.1-240.5,240.7C262.8,619,370.8,727.3,501.8,727.4
				c133.4,0.1,241.1-106.8,241.2-239.1C743.1,355.2,636.2,247.7,503.5,247.4z"/>
		</g>
		<g>
			<path class="st2" d="M502.5,246.4c-133-0.3-240.3,107.1-240.5,240.7C261.8,618,369.8,726.3,500.8,726.4
				c133.4,0.1,241.1-106.8,241.2-239.1C742.1,354.2,635.2,246.7,502.5,246.4z"/>
		</g>
		<g>
			<path class="st2" d="M501.5,245.4c-133-0.3-240.3,107.1-240.5,240.7C260.8,617,368.8,725.3,499.8,725.4
				c133.4,0.1,241.1-106.8,241.2-239.1C741.1,353.2,634.2,245.7,501.5,245.4z"/>
		</g>
		<g>
			<path class="st2" d="M500.5,244.4c-133-0.3-240.3,107.1-240.5,240.7C259.8,616,367.8,724.3,498.8,724.4
				c133.4,0.1,241.1-106.8,241.2-239.1C740.1,352.2,633.2,244.7,500.5,244.4z"/>
		</g>
		<g>
			<path class="st2" d="M499.5,243.4c-133-0.3-240.3,107.1-240.5,240.7C258.8,615,366.8,723.3,497.8,723.4
				c133.4,0.1,241.1-106.8,241.2-239.1C739.1,351.2,632.2,243.7,499.5,243.4z"/>
		</g>
		<g>
			<path class="st2" d="M498.5,242.4c-133-0.3-240.3,107.1-240.5,240.7C257.8,614,365.8,722.3,496.8,722.4
				c133.4,0.1,241.1-106.8,241.2-239.1C738.1,350.2,631.2,242.7,498.5,242.4z"/>
		</g>
		<g>
			<path class="st2" d="M497.5,241.4c-133-0.3-240.3,107.1-240.5,240.7C256.8,613,364.8,721.3,495.8,721.4
				c133.4,0.1,241.1-106.8,241.2-239.1C737.1,349.2,630.2,241.7,497.5,241.4z"/>
		</g>
		<g>
			<path class="st2" d="M496.5,240.4c-133-0.3-240.3,107.1-240.5,240.7C255.8,612,363.8,720.3,494.8,720.4
				c133.4,0.1,241.1-106.8,241.2-239.1C736.1,348.2,629.2,240.7,496.5,240.4z"/>
		</g>
		<g>
			<path class="st2" d="M495.5,239.4c-133-0.3-240.3,107.1-240.5,240.7C254.8,611,362.8,719.3,493.8,719.4
				c133.4,0.1,241.1-106.8,241.2-239.1C735.1,347.2,628.2,239.7,495.5,239.4z"/>
		</g>
		<g>
			<path class="st2" d="M494.5,238.4c-133-0.3-240.3,107.1-240.5,240.7C253.8,610,361.8,718.3,492.8,718.4
				c133.4,0.1,241.1-106.8,241.2-239.1C734.1,346.2,627.2,238.7,494.5,238.4z"/>
		</g>
		<g>
			<path class="st2" d="M493.5,237.4c-133-0.3-240.3,107.1-240.5,240.7C252.8,609,360.8,717.3,491.8,717.4
				c133.4,0.1,241.1-106.8,241.2-239.1C733.1,345.2,626.2,237.7,493.5,237.4z"/>
		</g>
		<g>
			<path class="st2" d="M492.5,236.4c-133-0.3-240.3,107.1-240.5,240.7C251.8,608,359.8,716.3,490.8,716.4
				c133.4,0.1,241.1-106.8,241.2-239.1C732.1,344.2,625.2,236.7,492.5,236.4z"/>
		</g>
		<g>
			<path class="st2" d="M491.5,235.4c-133-0.3-240.3,107.1-240.5,240.7C250.8,607,358.8,715.3,489.8,715.4
				c133.4,0.1,241.1-106.8,241.2-239.1C731.1,343.2,624.2,235.7,491.5,235.4z"/>
		</g>
		<g>
			<path class="st2" d="M490.5,234.4c-133-0.3-240.3,107.1-240.5,240.7C249.8,606,357.8,714.3,488.8,714.4
				c133.4,0.1,241.1-106.8,241.2-239.1C730.1,342.2,623.2,234.7,490.5,234.4z"/>
		</g>
		<g>
			<path class="st2" d="M489.5,233.4c-133-0.3-240.3,107.1-240.5,240.7C248.8,605,356.8,713.3,487.8,713.4
				c133.4,0.1,241.1-106.8,241.2-239.1C729.1,341.2,622.2,233.7,489.5,233.4z"/>
		</g>
		<g>
			<path class="st2" d="M488.5,232.4c-133-0.3-240.3,107.1-240.5,240.7C247.8,604,355.8,712.3,486.8,712.4
				c133.4,0.1,241.1-106.8,241.2-239.1C728.1,340.2,621.2,232.7,488.5,232.4z"/>
		</g>
		<g>
			<path class="st2" d="M487.5,231.4c-133-0.3-240.3,107.1-240.5,240.7C246.8,603,354.8,711.3,485.8,711.4
				c133.4,0.1,241.1-106.8,241.2-239.1C727.1,339.2,620.2,231.7,487.5,231.4z"/>
		</g>
		<g>
			<path class="st2" d="M486.5,230.4c-133-0.3-240.3,107.1-240.5,240.7C245.8,602,353.8,710.3,484.8,710.4
				c133.4,0.1,241.1-106.8,241.2-239.1C726.1,338.2,619.2,230.7,486.5,230.4z"/>
		</g>
		<g>
			<path class="st2" d="M485.5,229.4c-133-0.3-240.3,107.1-240.5,240.7C244.8,601,352.8,709.3,483.8,709.4
				c133.4,0.1,241.1-106.8,241.2-239.1C725.1,337.2,618.2,229.7,485.5,229.4z"/>
		</g>
		<g>
			<path class="st2" d="M484.5,228.4c-133-0.3-240.3,107.1-240.5,240.7C243.8,600,351.8,708.3,482.8,708.4
				c133.4,0.1,241.1-106.8,241.2-239.1C724.1,336.2,617.2,228.7,484.5,228.4z"/>
		</g>
		<g>
			<path class="st2" d="M483.5,227.4c-133-0.3-240.3,107.1-240.5,240.7C242.8,599,350.8,707.3,481.8,707.4
				c133.4,0.1,241.1-106.8,241.2-239.1C723.1,335.2,616.2,227.7,483.5,227.4z"/>
		</g>
		<g>
			<path class="st2" d="M482.5,226.4c-133-0.3-240.3,107.1-240.5,240.7C241.8,598,349.8,706.3,480.8,706.4
				c133.4,0.1,241.1-106.8,241.2-239.1C722.1,334.2,615.2,226.7,482.5,226.4z"/>
		</g>
		<g>
			<path class="st2" d="M481.5,225.4c-133-0.3-240.3,107.1-240.5,240.7C240.8,597,348.8,705.3,479.8,705.4
				c133.4,0.1,241.1-106.8,241.2-239.1C721.1,333.2,614.2,225.7,481.5,225.4z"/>
		</g>
		<g>
			<path class="st2" d="M480.5,224.4c-133-0.3-240.3,107.1-240.5,240.7C239.8,596,347.8,704.3,478.8,704.4
				c133.4,0.1,241.1-106.8,241.2-239.1C720.1,332.2,613.2,224.7,480.5,224.4z"/>
		</g>
		<g>
			<path class="st2" d="M479.5,223.4c-133-0.3-240.3,107.1-240.5,240.7C238.8,595,346.8,703.3,477.8,703.4
				c133.4,0.1,241.1-106.8,241.2-239.1C719.1,331.2,612.2,223.7,479.5,223.4z"/>
		</g>
		<g>
			<path class="st2" d="M478.5,222.4c-133-0.3-240.3,107.1-240.5,240.7C237.8,594,345.8,702.3,476.8,702.4
				c133.4,0.1,241.1-106.8,241.2-239.1C718.1,330.2,611.2,222.7,478.5,222.4z"/>
		</g>
		<g>
			<path class="st2" d="M477.5,221.4c-133-0.3-240.3,107.1-240.5,240.7C236.8,593,344.8,701.3,475.8,701.4
				c133.4,0.1,241.1-106.8,241.2-239.1C717.1,329.2,610.2,221.7,477.5,221.4z"/>
		</g>
		<g>
			<path class="st2" d="M476.5,220.4c-133-0.3-240.3,107.1-240.5,240.7C235.8,592,343.8,700.3,474.8,700.4
				c133.4,0.1,241.1-106.8,241.2-239.1C716.1,328.2,609.2,220.7,476.5,220.4z"/>
		</g>
		<g>
			<path class="st2" d="M475.5,219.4c-133-0.3-240.3,107.1-240.5,240.7C234.8,591,342.8,699.3,473.8,699.4
				c133.4,0.1,241.1-106.8,241.2-239.1C715.1,327.2,608.2,219.7,475.5,219.4z"/>
		</g>
		<g>
			<path class="st2" d="M474.5,218.4c-133-0.3-240.3,107.1-240.5,240.7C233.8,590,341.8,698.3,472.8,698.4
				c133.4,0.1,241.1-106.8,241.2-239.1C714.1,326.2,607.2,218.7,474.5,218.4z"/>
		</g>
		<g>
			<path class="st2" d="M473.5,217.4c-133-0.3-240.3,107.1-240.5,240.7C232.8,589,340.8,697.3,471.8,697.4
				c133.4,0.1,241.1-106.8,241.2-239.1C713.1,325.2,606.2,217.7,473.5,217.4z"/>
		</g>
		<g>
			<path class="st2" d="M472.5,216.4c-133-0.3-240.3,107.1-240.5,240.7C231.8,588,339.8,696.3,470.8,696.4
				c133.4,0.1,241.1-106.8,241.2-239.1C712.1,324.2,605.2,216.7,472.5,216.4z"/>
		</g>
		<g>
			<path class="st2" d="M471.5,215.4c-133-0.3-240.3,107.1-240.5,240.7C230.8,587,338.8,695.3,469.8,695.4
				c133.4,0.1,241.1-106.8,241.2-239.1C711.1,323.2,604.2,215.7,471.5,215.4z"/>
		</g>
		<g>
			<path class="st2" d="M470.5,214.4c-133-0.3-240.3,107.1-240.5,240.7C229.8,586,337.8,694.3,468.8,694.4
				c133.4,0.1,241.1-106.8,241.2-239.1C710.1,322.2,603.2,214.7,470.5,214.4z"/>
		</g>
		<g>
			<path class="st2" d="M469.5,213.4c-133-0.3-240.3,107.1-240.5,240.7C228.8,585,336.8,693.3,467.8,693.4
				c133.4,0.1,241.1-106.8,241.2-239.1C709.1,321.2,602.2,213.7,469.5,213.4z"/>
		</g>
		<g>
			<path class="st2" d="M468.5,212.4c-133-0.3-240.3,107.1-240.5,240.7C227.8,584,335.8,692.3,466.8,692.4
				c133.4,0.1,241.1-106.8,241.2-239.1C708.1,320.2,601.2,212.7,468.5,212.4z"/>
		</g>
		<g>
			<path class="st2" d="M467.5,211.4c-133-0.3-240.3,107.1-240.5,240.7C226.8,583,334.8,691.3,465.8,691.4
				c133.4,0.1,241.1-106.8,241.2-239.1C707.1,319.2,600.2,211.7,467.5,211.4z"/>
		</g>
		<g>
			<path class="st2" d="M466.5,210.4c-133-0.3-240.3,107.1-240.5,240.7C225.8,582,333.8,690.3,464.8,690.4
				c133.4,0.1,241.1-106.8,241.2-239.1C706.1,318.2,599.2,210.7,466.5,210.4z"/>
		</g>
		<g>
			<path class="st2" d="M465.5,209.4c-133-0.3-240.3,107.1-240.5,240.7C224.8,581,332.8,689.3,463.8,689.4
				c133.4,0.1,241.1-106.8,241.2-239.1C705.1,317.2,598.2,209.7,465.5,209.4z"/>
		</g>
		<g>
			<path class="st2" d="M464.5,208.4c-133-0.3-240.3,107.1-240.5,240.7C223.8,580,331.8,688.3,462.8,688.4
				c133.4,0.1,241.1-106.8,241.2-239.1C704.1,316.2,597.2,208.7,464.5,208.4z"/>
		</g>
		<g>
			<path class="st2" d="M463.5,207.4c-133-0.3-240.3,107.1-240.5,240.7C222.8,579,330.8,687.3,461.8,687.4
				c133.4,0.1,241.1-106.8,241.2-239.1C703.1,315.2,596.2,207.7,463.5,207.4z"/>
		</g>
		<g>
			<path class="st2" d="M462.5,206.4c-133-0.3-240.3,107.1-240.5,240.7C221.8,578,329.8,686.3,460.8,686.4
				c133.4,0.1,241.1-106.8,241.2-239.1C702.1,314.2,595.2,206.7,462.5,206.4z"/>
		</g>
		<g>
			<path class="st2" d="M461.5,205.4c-133-0.3-240.3,107.1-240.5,240.7C220.8,577,328.8,685.3,459.8,685.4
				c133.4,0.1,241.1-106.8,241.2-239.1C701.1,313.2,594.2,205.7,461.5,205.4z"/>
		</g>
		<g>
			<path class="st2" d="M460.5,204.4c-133-0.3-240.3,107.1-240.5,240.7C219.8,576,327.8,684.3,458.8,684.4
				c133.4,0.1,241.1-106.8,241.2-239.1C700.1,312.2,593.2,204.7,460.5,204.4z"/>
		</g>
		<g>
			<path class="st2" d="M459.5,203.4c-133-0.3-240.3,107.1-240.5,240.7C218.8,575,326.8,683.3,457.8,683.4
				c133.4,0.1,241.1-106.8,241.2-239.1C699.1,311.2,592.2,203.7,459.5,203.4z"/>
		</g>
		<g>
			<path class="st2" d="M458.5,202.4c-133-0.3-240.3,107.1-240.5,240.7C217.8,574,325.8,682.3,456.8,682.4
				c133.4,0.1,241.1-106.8,241.2-239.1C698.1,310.2,591.2,202.7,458.5,202.4z"/>
		</g>
		<g>
			<path class="st2" d="M457.5,201.4c-133-0.3-240.3,107.1-240.5,240.7C216.8,573,324.8,681.3,455.8,681.4
				c133.4,0.1,241.1-106.8,241.2-239.1C697.1,309.2,590.2,201.7,457.5,201.4z"/>
		</g>
		<g>
			<path class="st2" d="M456.5,200.4c-133-0.3-240.3,107.1-240.5,240.7C215.8,572,323.8,680.3,454.8,680.4
				c133.4,0.1,241.1-106.8,241.2-239.1C696.1,308.2,589.2,200.7,456.5,200.4z"/>
		</g>
		<g>
			<path class="st2" d="M455.5,199.4c-133-0.3-240.3,107.1-240.5,240.7C214.8,571,322.8,679.3,453.8,679.4
				c133.4,0.1,241.1-106.8,241.2-239.1C695.1,307.2,588.2,199.7,455.5,199.4z"/>
		</g>
		<g>
			<path class="st2" d="M454.5,198.4c-133-0.3-240.3,107.1-240.5,240.7C213.8,570,321.8,678.3,452.8,678.4
				c133.4,0.1,241.1-106.8,241.2-239.1C694.1,306.2,587.2,198.7,454.5,198.4z"/>
		</g>
		<g>
			<path class="st2" d="M453.5,197.4c-133-0.3-240.3,107.1-240.5,240.7C212.8,569,320.8,677.3,451.8,677.4
				c133.4,0.1,241.1-106.8,241.2-239.1C693.1,305.2,586.2,197.7,453.5,197.4z"/>
		</g>
		<g>
			<path class="st2" d="M452.5,196.4c-133-0.3-240.3,107.1-240.5,240.7C211.8,568,319.8,676.3,450.8,676.4
				c133.4,0.1,241.1-106.8,241.2-239.1C692.1,304.2,585.2,196.7,452.5,196.4z"/>
		</g>
		<g>
			<path class="st2" d="M451.5,195.4c-133-0.3-240.3,107.1-240.5,240.7C210.8,567,318.8,675.3,449.8,675.4
				c133.4,0.1,241.1-106.8,241.2-239.1C691.1,303.2,584.2,195.7,451.5,195.4z"/>
		</g>
		<g>
			<path class="st2" d="M450.5,194.4c-133-0.3-240.3,107.1-240.5,240.7C209.8,566,317.8,674.3,448.8,674.4
				c133.4,0.1,241.1-106.8,241.2-239.1C690.1,302.2,583.2,194.7,450.5,194.4z"/>
		</g>
		<g>
			<path class="st2" d="M449.5,193.4c-133-0.3-240.3,107.1-240.5,240.7C208.8,565,316.8,673.3,447.8,673.4
				c133.4,0.1,241.1-106.8,241.2-239.1C689.1,301.2,582.2,193.7,449.5,193.4z"/>
		</g>
		<g>
			<path class="st2" d="M448.5,192.4c-133-0.3-240.3,107.1-240.5,240.7C207.8,564,315.8,672.3,446.8,672.4
				c133.4,0.1,241.1-106.8,241.2-239.1C688.1,300.2,581.2,192.7,448.5,192.4z"/>
		</g>
		<g>
			<path class="st2" d="M447.5,191.4c-133-0.3-240.3,107.1-240.5,240.7C206.8,563,314.8,671.3,445.8,671.4
				c133.4,0.1,241.1-106.8,241.2-239.1C687.1,299.2,580.2,191.7,447.5,191.4z"/>
		</g>
		<g>
			<path class="st2" d="M446.5,190.4c-133-0.3-240.3,107.1-240.5,240.7C205.8,562,313.8,670.3,444.8,670.4
				c133.4,0.1,241.1-106.8,241.2-239.1C686.1,298.2,579.2,190.7,446.5,190.4z"/>
		</g>
		<g>
			<path class="st2" d="M445.5,189.4c-133-0.3-240.3,107.1-240.5,240.7C204.8,561,312.8,669.3,443.8,669.4
				c133.4,0.1,241.1-106.8,241.2-239.1C685.1,297.2,578.2,189.7,445.5,189.4z"/>
		</g>
		<g>
			<path class="st2" d="M444.5,188.4c-133-0.3-240.3,107.1-240.5,240.7C203.8,560,311.8,668.3,442.8,668.4
				c133.4,0.1,241.1-106.8,241.2-239.1C684.1,296.2,577.2,188.7,444.5,188.4z"/>
		</g>
		<g>
			<path class="st2" d="M443.5,187.4c-133-0.3-240.3,107.1-240.5,240.7C202.8,559,310.8,667.3,441.8,667.4
				c133.4,0.1,241.1-106.8,241.2-239.1C683.1,295.2,576.2,187.7,443.5,187.4z"/>
		</g>
		<g>
			<path class="st2" d="M442.5,186.4c-133-0.3-240.3,107.1-240.5,240.7C201.8,558,309.8,666.3,440.8,666.4
				c133.4,0.1,241.1-106.8,241.2-239.1C682.1,294.2,575.2,186.7,442.5,186.4z"/>
		</g>
		<g>
			<path class="st2" d="M441.5,185.4c-133-0.3-240.3,107.1-240.5,240.7C200.8,557,308.8,665.3,439.8,665.4
				c133.4,0.1,241.1-106.8,241.2-239.1C681.1,293.2,574.2,185.7,441.5,185.4z"/>
		</g>
		<g>
			<path class="st2" d="M440.5,184.4c-133-0.3-240.3,107.1-240.5,240.7C199.8,556,307.8,664.3,438.8,664.4
				c133.4,0.1,241.1-106.8,241.2-239.1C680.1,292.2,573.2,184.7,440.5,184.4z"/>
		</g>
		<g>
			<path class="st2" d="M439.5,183.4c-133-0.3-240.3,107.1-240.5,240.7C198.8,555,306.8,663.3,437.8,663.4
				c133.4,0.1,241.1-106.8,241.2-239.1C679.1,291.2,572.2,183.7,439.5,183.4z"/>
		</g>
		<g>
			<path class="st2" d="M438.5,182.4c-133-0.3-240.3,107.1-240.5,240.7C197.8,554,305.8,662.3,436.8,662.4
				c133.4,0.1,241.1-106.8,241.2-239.1C678.1,290.2,571.2,182.7,438.5,182.4z"/>
		</g>
		<g>
			<path class="st2" d="M437.5,181.4c-133-0.3-240.3,107.1-240.5,240.7C196.8,553,304.8,661.3,435.8,661.4
				c133.4,0.1,241.1-106.8,241.2-239.1C677.1,289.2,570.2,181.7,437.5,181.4z"/>
		</g>
		<g>
			<path class="st2" d="M436.5,180.4c-133-0.3-240.3,107.1-240.5,240.7C195.8,552,303.8,660.3,434.8,660.4
				c133.4,0.1,241.1-106.8,241.2-239.1C676.1,288.2,569.2,180.7,436.5,180.4z"/>
		</g>
		<g>
			<path class="st2" d="M435.5,179.4c-133-0.3-240.3,107.1-240.5,240.7C194.8,551,302.8,659.3,433.8,659.4
				c133.4,0.1,241.1-106.8,241.2-239.1C675.1,287.2,568.2,179.7,435.5,179.4z"/>
		</g>
		<g>
			<path class="st2" d="M434.5,178.4c-133-0.3-240.3,107.1-240.5,240.7C193.8,550,301.8,658.3,432.8,658.4
				c133.4,0.1,241.1-106.8,241.2-239.1C674.1,286.2,567.2,178.7,434.5,178.4z"/>
		</g>
		<g>
			<path class="st2" d="M433.5,177.4c-133-0.3-240.3,107.1-240.5,240.7C192.8,549,300.8,657.3,431.8,657.4
				c133.4,0.1,241.1-106.8,241.2-239.1C673.1,285.2,566.2,177.7,433.5,177.4z"/>
		</g>
		<g>
			<path class="st2" d="M432.5,176.4c-133-0.3-240.3,107.1-240.5,240.7C191.8,548,299.8,656.3,430.8,656.4
				c133.4,0.1,241.1-106.8,241.2-239.1C672.1,284.2,565.2,176.7,432.5,176.4z"/>
		</g>
		<g>
			<path class="st2" d="M431.5,175.4c-133-0.3-240.3,107.1-240.5,240.7C190.8,547,298.8,655.3,429.8,655.4
				c133.4,0.1,241.1-106.8,241.2-239.1C671.1,283.2,564.2,175.7,431.5,175.4z"/>
		</g>
		<g>
			<path class="st2" d="M430.5,174.4c-133-0.3-240.3,107.1-240.5,240.7C189.8,546,297.8,654.3,428.8,654.4
				c133.4,0.1,241.1-106.8,241.2-239.1C670.1,282.2,563.2,174.7,430.5,174.4z"/>
		</g>
		<g>
			<path class="st2" d="M429.5,173.4c-133-0.3-240.3,107.1-240.5,240.7C188.8,545,296.8,653.3,427.8,653.4
				c133.4,0.1,241.1-106.8,241.2-239.1C669.1,281.2,562.2,173.7,429.5,173.4z"/>
		</g>
		<g>
			<path class="st2" d="M428.5,172.4c-133-0.3-240.3,107.1-240.5,240.7C187.8,544,295.8,652.3,426.8,652.4
				c133.4,0.1,241.1-106.8,241.2-239.1C668.1,280.2,561.2,172.7,428.5,172.4z"/>
		</g>
		<g>
			<path class="st2" d="M427.5,171.4c-133-0.3-240.3,107.1-240.5,240.7C186.8,543,294.8,651.3,425.8,651.4
				c133.4,0.1,241.1-106.8,241.2-239.1C667.1,279.2,560.2,171.7,427.5,171.4z"/>
		</g>
		<g>
			<path class="st2" d="M426.5,170.4c-133-0.3-240.3,107.1-240.5,240.7C185.8,542,293.8,650.3,424.8,650.4
				c133.4,0.1,241.1-106.8,241.2-239.1C666.1,278.2,559.2,170.7,426.5,170.4z"/>
		</g>
		<g>
			<path class="st2" d="M425.5,169.4c-133-0.3-240.3,107.1-240.5,240.7C184.8,541,292.8,649.3,423.8,649.4
				c133.4,0.1,241.1-106.8,241.2-239.1C665.1,277.2,558.2,169.7,425.5,169.4z"/>
		</g>
		<g>
			<path class="st2" d="M424.5,168.4c-133-0.3-240.3,107.1-240.5,240.7C183.8,540,291.8,648.3,422.8,648.4
				c133.4,0.1,241.1-106.8,241.2-239.1C664.1,276.2,557.2,168.7,424.5,168.4z"/>
		</g>
		<g>
			<path class="st2" d="M423.5,167.4c-133-0.3-240.3,107.1-240.5,240.7C182.8,539,290.8,647.3,421.8,647.4
				c133.4,0.1,241.1-106.8,241.2-239.1C663.1,275.2,556.2,167.7,423.5,167.4z"/>
		</g>
		<g>
			<path class="st2" d="M422.5,166.4c-133-0.3-240.3,107.1-240.5,240.7C181.8,538,289.8,646.3,420.8,646.4
				c133.4,0.1,241.1-106.8,241.2-239.1C662.1,274.2,555.2,166.7,422.5,166.4z"/>
		</g>
		<g>
			<path class="st2" d="M421.5,165.4c-133-0.3-240.3,107.1-240.5,240.7C180.8,537,288.8,645.3,419.8,645.4
				c133.4,0.1,241.1-106.8,241.2-239.1C661.1,273.2,554.2,165.7,421.5,165.4z"/>
		</g>
		<g>
			<path class="st2" d="M420.5,164.4c-133-0.3-240.3,107.1-240.5,240.7C179.8,536,287.8,644.3,418.8,644.4
				c133.4,0.1,241.1-106.8,241.2-239.1C660.1,272.2,553.2,164.7,420.5,164.4z"/>
		</g>
		<g>
			<path class="st2" d="M419.5,163.4c-133-0.3-240.3,107.1-240.5,240.7C178.8,535,286.8,643.3,417.8,643.4
				c133.4,0.1,241.1-106.8,241.2-239.1C659.1,271.2,552.2,163.7,419.5,163.4z"/>
		</g>
		<g>
			<path class="st2" d="M418.5,162.4c-133-0.3-240.3,107.1-240.5,240.7C177.8,534,285.8,642.3,416.8,642.4
				c133.4,0.1,241.1-106.8,241.2-239.1C658.1,270.2,551.2,162.7,418.5,162.4z"/>
		</g>
		<g>
			<path class="st2" d="M417.5,161.4c-133-0.3-240.3,107.1-240.5,240.7C176.8,533,284.8,641.3,415.8,641.4
				c133.4,0.1,241.1-106.8,241.2-239.1C657.1,269.2,550.2,161.7,417.5,161.4z"/>
		</g>
		<g>
			<path class="st2" d="M416.5,160.4c-133-0.3-240.3,107.1-240.5,240.7C175.8,532,283.8,640.3,414.8,640.4
				c133.4,0.1,241.1-106.8,241.2-239.1C656.1,268.2,549.2,160.7,416.5,160.4z"/>
		</g>
		<g>
			<path class="st2" d="M415.5,159.4c-133-0.3-240.3,107.1-240.5,240.7C174.8,531,282.8,639.3,413.8,639.4
				c133.4,0.1,241.1-106.8,241.2-239.1C655.1,267.2,548.2,159.7,415.5,159.4z"/>
		</g>
		<g>
			<path class="st2" d="M414.5,158.4c-133-0.3-240.3,107.1-240.5,240.7C173.8,530,281.8,638.3,412.8,638.4
				c133.4,0.1,241.1-106.8,241.2-239.1C654.1,266.2,547.2,158.7,414.5,158.4z"/>
		</g>
		<g>
			<path class="st2" d="M413.5,157.4c-133-0.3-240.3,107.1-240.5,240.7C172.8,529,280.8,637.3,411.8,637.4
				c133.4,0.1,241.1-106.8,241.2-239.1C653.1,265.2,546.2,157.7,413.5,157.4z"/>
		</g>
		<g>
			<path class="st2" d="M412.5,156.4c-133-0.3-240.3,107.1-240.5,240.7C171.8,528,279.8,636.3,410.8,636.4
				c133.4,0.1,241.1-106.8,241.2-239.1C652.1,264.2,545.2,156.7,412.5,156.4z"/>
		</g>
		<g>
			<path class="st2" d="M411.5,155.4c-133-0.3-240.3,107.1-240.5,240.7C170.8,527,278.8,635.3,409.8,635.4
				c133.4,0.1,241.1-106.8,241.2-239.1C651.1,263.2,544.2,155.7,411.5,155.4z"/>
		</g>
		<g>
			<path class="st2" d="M410.5,154.4c-133-0.3-240.3,107.1-240.5,240.7C169.8,526,277.8,634.3,408.8,634.4
				c133.4,0.1,241.1-106.8,241.2-239.1C650.1,262.2,543.2,154.7,410.5,154.4z"/>
		</g>
		<g>
			<path class="st2" d="M409.5,153.4c-133-0.3-240.3,107.1-240.5,240.7C168.8,525,276.8,633.3,407.8,633.4
				c133.4,0.1,241.1-106.8,241.2-239.1C649.1,261.2,542.2,153.7,409.5,153.4z"/>
		</g>
		<g>
			<path class="st2" d="M408.5,152.4c-133-0.3-240.3,107.1-240.5,240.7C167.8,524,275.8,632.3,406.8,632.4
				c133.4,0.1,241.1-106.8,241.2-239.1C648.1,260.2,541.2,152.7,408.5,152.4z"/>
		</g>
		<g>
			<path class="st2" d="M407.5,151.4c-133-0.3-240.3,107.1-240.5,240.7C166.8,523,274.8,631.3,405.8,631.4
				c133.4,0.1,241.1-106.8,241.2-239.1C647.1,259.2,540.2,151.7,407.5,151.4z"/>
		</g>
		<g>
			<path class="st2" d="M406.5,150.4c-133-0.3-240.3,107.1-240.5,240.7C165.8,522,273.8,630.3,404.8,630.4
				c133.4,0.1,241.1-106.8,241.2-239.1C646.1,258.2,539.2,150.7,406.5,150.4z"/>
		</g>
		<g>
			<path class="st2" d="M405.5,149.4c-133-0.3-240.3,107.1-240.5,240.7C164.8,521,272.8,629.3,403.8,629.4
				c133.4,0.1,241.1-106.8,241.2-239.1C645.1,257.2,538.2,149.7,405.5,149.4z"/>
		</g>
		<g>
			<path class="st2" d="M404.5,148.4c-133-0.3-240.3,107.1-240.5,240.7C163.8,520,271.8,628.3,402.8,628.4
				c133.4,0.1,241.1-106.8,241.2-239.1C644.1,256.2,537.2,148.7,404.5,148.4z"/>
		</g>
		<g>
			<path class="st2" d="M403.5,147.4c-133-0.3-240.3,107.1-240.5,240.7C162.8,519,270.8,627.3,401.8,627.4
				c133.4,0.1,241.1-106.8,241.2-239.1C643.1,255.2,536.2,147.7,403.5,147.4z"/>
		</g>
		<g>
			<path class="st2" d="M402.5,146.4c-133-0.3-240.3,107.1-240.5,240.7C161.8,518,269.8,626.3,400.8,626.4
				c133.4,0.1,241.1-106.8,241.2-239.1C642.1,254.2,535.2,146.7,402.5,146.4z"/>
		</g>
		<g>
			<path class="st2" d="M401.5,145.4c-133-0.3-240.3,107.1-240.5,240.7C160.8,517,268.8,625.3,399.8,625.4
				c133.4,0.1,241.1-106.8,241.2-239.1C641.1,253.2,534.2,145.7,401.5,145.4z"/>
		</g>
		<g>
			<path class="st2" d="M400.5,144.4c-133-0.3-240.3,107.1-240.5,240.7C159.8,516,267.8,624.3,398.8,624.4
				c133.4,0.1,241.1-106.8,241.2-239.1C640.1,252.2,533.2,144.7,400.5,144.4z"/>
		</g>
	</g>
</g>
<g>
	<path class="st3" d="M640,385.2c-0.1,132.4-107.9,239.2-241.2,239.1C267.8,624.3,159.8,516,160,385.1
		c0.2-133.6,107.5-241,240.5-240.7C533.2,144.7,640.1,252.2,640,385.2z"/>
	<path class="st4" d="M418.2,444.8c23.7,0,47.5-0.1,71.2,0.1c4.9,0,6.7-1.2,6.5-6.3c-0.4-12.2,0.1-24.5-0.2-36.8
		c-0.1-4.7,1.2-6.2,6-6c12.2,0.3,24.5,0.4,36.8,0c5.2-0.1,5,2.6,5,6.2c0,3.5,0.2,6.5-5,6.2c-8.4-0.4-16.9,0.1-25.3-0.2
		c-4.1-0.1-5.3,1.3-5.1,5.3c0.7,11.7,0.9,23.5,1.5,35.2c0.3,6.2-2.4,9.1-8.6,8.7c-49.5-3.6-99-1.4-148.5-1.7c-1.8,0-3.6-0.1-5.4,0
		c-4.3,0.5-6.5-0.5-6.4-5.7c0-5.1,2.5-5.1,6.2-5.1C370.7,444.8,394.5,444.8,418.2,444.8z"/>
	<path class="st4" d="M382,317.7c23.8,0,47.5,0,71.3,0c3.5,0,7.5-1.5,7.6,5.1c0.1,7-4,5.6-7.9,5.6c-46.5,0.5-92.9,1.1-139.4,1.3
		c-6.3,0-8.2,1.6-8.1,8c0.2,11.5-0.9,23-1,34.4c0,4.6-1.8,5.5-5.9,5.3c-12-0.6-24-1.1-36-1.3c-4.1-0.1-4.4-2.1-4.4-5.3
		c0-3.3-0.1-5.8,4.6-5.8c8.7-0.1,17.3-0.9,26-1.1c3.6-0.1,4.9-1.2,4.8-4.9c-0.2-8.2-0.1-16.3-0.1-24.5c0-12.2,4.5-16.8,16.5-16.8
		C333.9,317.6,357.9,317.7,382,317.7z"/>
	<path class="st4" d="M319.5,446.4c-3.9-17.5,3.6-31.5,13.2-45.4c12.2-17.9,23.2-36.7,34.8-55c1.4-2.2,2.6-4.5,4.4-6.2
		c4.1-3.9,9-5.6,13.7-1.5c4.5,3.9,3.5,8.7,0.6,13.2c-15.3,23.2-30.6,46.5-46.1,69.6c-2.7,4-3.9,8-3.6,12.8
		c0.7,10.7,0.8,21.4,1.4,32.2c0.3,4.7-0.6,6.8-6,6.7c-12.4-0.2-12.4,0.1-12.4-12.5C319.5,455.6,319.5,451,319.5,446.4z"/>
	<path class="st4" d="M482.1,324.8c4,18-3.6,32.5-13.3,46.9c-12.7,18.8-24.2,38.4-36.2,57.8c-2.8,4.6-6.3,7.6-11.9,5.4
		c-5-2-5.7-8.2-1.9-14.5c13.8-23,27.6-46,41.5-68.9c2.5-4.1,3.7-8.1,3.7-12.9c0.2-11.7,1-23.5,1.1-35.2c0.1-4.1,1-5.8,5.5-5.8
		c11.5-0.1,11.5-0.3,11.5,11.2C482.1,314.1,482.1,319.5,482.1,324.8z"/>
	<path class="st4" d="M410.2,336.1c7.4,0.6,11.1,8.2,7.4,15.1c-3.2,6.1-7.2,11.8-10.8,17.6c-11.2,18-22.4,35.9-33.7,53.9
		c-1.2,1.9-2.4,3.9-3.9,5.7c-3.5,4-7.9,6-12.9,2.9c-5.1-3.2-5.8-8-3.3-13.4c0.6-1.4,1.5-2.7,2.3-4c14.5-23.2,29-46.3,43.4-69.5
		C401.5,339.9,404.7,336.1,410.2,336.1z"/>
	<path class="st4" d="M449.8,347.1c0.2,3.3-1.5,5.9-3.1,8.5c-14.7,23.6-29.5,47.2-44.2,70.8c-3.2,5.1-7,9.2-13.6,7.3
		c-6.5-1.9-8.3-9.3-3.9-16.5c11.3-18.2,22.7-36.4,34.1-54.5c4.3-6.9,8.6-13.9,13.2-20.6c2.7-3.8,6.7-5.6,11.5-3.8
		C447.7,339.8,449.5,343,449.8,347.1z"/>
	<path class="st4" d="M497.4,353.2c0-5.9,0-11.8,0-17.6c0-3.7-1.4-6.1-5.4-5.5c-6.5,1-5-3.6-5.4-7.2c-0.6-5,2.2-5.1,6-5.2
		c14.2-0.2,15.5,1.1,15.5,14.9c0,9.2,0.2,18.4-0.1,27.6c-0.1,4.1,1.2,5.3,5.2,5.2c7.9-0.3,15.8,0.1,23.8-0.2
		c4.4-0.2,4.9,1.9,4.9,5.5c0,3.7-0.7,5.5-5,5.4c-11.7-0.3-23.5-0.2-35.3,0c-3.4,0-4.5-1.1-4.4-4.4
		C497.5,365.4,497.4,359.3,497.4,353.2C497.4,353.2,497.4,353.2,497.4,353.2z"/>
	<path class="st4" d="M304.2,419.8c0,6.1,0.2,12.2-0.1,18.4c-0.2,3.9,0.9,5.9,5.1,5.2c4.9-0.8,5.8,1.5,5.9,6
		c0.1,5.3-2.9,4.8-6.3,4.8c-14.2,0.2-15.3-0.9-15.3-14.9c0-9.2-0.2-18.4,0.1-27.5c0.1-3.9-1-5.4-5.1-5.3c-8.4,0.3-16.8-0.1-25.2,0.2
		c-4.2,0.1-5.2-1.5-5.1-5.3c0.1-3.5,0.3-5.7,4.8-5.6c12.2,0.3,24.5,0.2,36.7,0c3.8-0.1,4.8,1.4,4.7,4.9
		C304,407.1,304.2,413.5,304.2,419.8z"/>
</g>
</svg>
