<?xml version="1.0" encoding="utf-8"?>
<!-- Generator: Adobe Illustrator 24.1.2, SVG Export Plug-In . SVG Version: 6.00 Build 0)  -->
<svg version="1.1" id="Layer_1" xmlns="http://www.w3.org/2000/svg" xmlns:xlink="http://www.w3.org/1999/xlink" x="0px" y="0px"
	 viewBox="0 0 800 800" style="enable-background:new 0 0 800 800;" xml:space="preserve">
<style type="text/css">
	.st0{fill:#333333;}
	.st1{clip-path:url(#SVGID_2_);fill:#1D1D1B;}
	.st2{fill:#FDCE5B;}
	.st3{fill:#4C72B1;}
	.st4{fill:#1D1D1B;}
	.st5{fill:#4C73B1;}
	.st6{fill:#5075AF;}
	.st7{fill:#FBCD5C;}
	.st8{fill:#F9CC5C;}
	.st9{fill:#F4CA5E;}
	.st10{fill:#F6CB5E;}
	.st11{fill:#5A7AAB;}
</style>
<g id="Layer_2_3_">
	<g id="Layer_2_4_">
		<g>
			<circle class="st0" cx="401.3" cy="401.5" r="400"/>
		</g>
	</g>
</g>
<g>
	<g>
		<defs>
			<circle id="SVGID_1_" cx="401.3" cy="401.5" r="400"/>
		</defs>
		<clipPath id="SVGID_2_">
			<use xlink:href="#SVGID_1_"  style="overflow:visible;"/>
		</clipPath>
		<path class="st1" d="M887.6,912.3c-3.5-19.1-13.3-34.4-26.5-47.4c-0.3-0.3-0.7-0.7-1-1c-0.3-0.3-0.7-0.7-1-1c-0.3-0.3-0.7-0.7-1-1
			c-0.3-0.3-0.7-0.7-1-1c-0.3-0.3-0.7-0.7-1-1c-0.3-0.3-0.7-0.7-1-1c-0.3-0.3-0.7-0.7-1-1c-0.3-0.3-0.7-0.7-1-1
			c-0.3-0.3-0.7-0.7-1-1c-0.3-0.3-0.7-0.7-1-1c-0.3-0.3-0.7-0.7-1-1c-0.3-0.3-0.7-0.7-1-1c-0.3-0.3-0.7-0.7-1-1
			c-0.3-0.3-0.7-0.7-1-1c-0.3-0.3-0.7-0.7-1-1c-0.3-0.3-0.7-0.7-1-1c-0.3-0.3-0.7-0.7-1-1c-0.3-0.3-0.7-0.7-1-1
			c-0.3-0.3-0.7-0.7-1-1c-0.3-0.3-0.7-0.7-1-1c-0.3-0.3-0.7-0.7-1-1c-0.3-0.3-0.7-0.7-1-1c-0.3-0.3-0.7-0.7-1-1
			c-0.3-0.3-0.7-0.7-1-1c-0.3-0.3-0.7-0.7-1-1c-0.3-0.3-0.7-0.7-1-1c-0.3-0.3-0.7-0.7-1-1c-0.3-0.3-0.7-0.7-1-1
			c-0.3-0.3-0.7-0.7-1-1c-0.3-0.3-0.7-0.7-1-1c-0.3-0.3-0.7-0.7-1-1c-0.3-0.3-0.7-0.7-1-1c-0.3-0.3-0.7-0.7-1-1
			c-0.3-0.3-0.7-0.7-1-1c-0.3-0.3-0.7-0.7-1-1c-0.3-0.3-0.7-0.7-1-1c-0.3-0.3-0.7-0.7-1-1c-0.3-0.3-0.7-0.7-1-1
			c-0.3-0.3-0.7-0.7-1-1c-0.3-0.3-0.7-0.7-1-1c-0.3-0.3-0.7-0.7-1-1c-0.3-0.3-0.7-0.7-1-1c-0.3-0.3-0.7-0.7-1-1
			c-0.3-0.3-0.7-0.7-1-1c-0.3-0.3-0.7-0.7-1-1c-0.3-0.3-0.7-0.7-1-1c-0.3-0.3-0.7-0.7-1-1c-0.3-0.3-0.7-0.7-1-1
			c-0.3-0.3-0.7-0.7-1-1c-0.3-0.3-0.7-0.7-1-1c-0.3-0.3-0.7-0.7-1-1c-0.3-0.3-0.7-0.7-1-1c-0.3-0.3-0.7-0.7-1-1
			c-0.3-0.3-0.7-0.7-1-1c-0.3-0.3-0.7-0.7-1-1c-0.3-0.3-0.7-0.7-1-1c-0.3-0.3-0.7-0.7-1-1c-0.3-0.3-0.7-0.7-1-1
			c-0.3-0.3-0.7-0.7-1-1c-0.3-0.3-0.7-0.7-1-1c-0.3-0.3-0.7-0.7-1-1c-0.3-0.3-0.7-0.7-1-1c-0.3-0.3-0.7-0.7-1-1
			c-0.3-0.3-0.7-0.7-1-1c-0.3-0.3-0.7-0.7-1-1c-0.3-0.3-0.7-0.7-1-1c-0.3-0.3-0.7-0.7-1-1c-0.3-0.3-0.7-0.7-1-1
			c-0.3-0.3-0.7-0.7-1-1c-0.3-0.3-0.7-0.7-1-1c-0.3-0.3-0.7-0.7-1-1c-0.3-0.3-0.7-0.7-1-1c-0.3-0.3-0.7-0.7-1-1
			c-0.3-0.3-0.7-0.7-1-1c-0.3-0.3-0.7-0.7-1-1c-0.3-0.3-0.7-0.7-1-1c-0.3-0.3-0.7-0.7-1-1c-0.3-0.3-0.7-0.7-1-1
			c-0.3-0.3-0.7-0.7-1-1c-0.3-0.3-0.7-0.7-1-1c-0.3-0.3-0.7-0.7-1-1c-0.3-0.3-0.7-0.7-1-1c-0.3-0.3-0.7-0.7-1-1
			c-0.3-0.3-0.7-0.7-1-1c-0.3-0.3-0.7-0.7-1-1c-0.3-0.3-0.7-0.7-1-1c-0.3-0.3-0.7-0.7-1-1c-0.3-0.3-0.7-0.7-1-1
			c-0.3-0.3-0.7-0.7-1-1c-0.3-0.3-0.7-0.7-1-1c-0.3-0.3-0.7-0.7-1-1c-0.3-0.3-0.7-0.7-1-1c-0.3-0.3-0.7-0.7-1-1
			c-0.3-0.3-0.7-0.7-1-1c-0.3-0.3-0.7-0.7-1-1c-0.3-0.3-0.7-0.7-1-1c-0.3-0.3-0.7-0.7-1-1c-0.3-0.3-0.7-0.7-1-1
			c-0.3-0.3-0.7-0.7-1-1c-0.3-0.3-0.7-0.7-1-1c-0.3-0.3-0.7-0.7-1-1c-0.3-0.3-0.7-0.7-1-1c-0.3-0.3-0.7-0.7-1-1
			c-0.3-0.3-0.7-0.7-1-1c-0.3-0.3-0.7-0.7-1-1c-0.3-0.3-0.7-0.7-1-1c-0.3-0.3-0.7-0.7-1-1c-0.3-0.3-0.7-0.7-1-1
			c-0.3-0.3-0.7-0.7-1-1c-0.3-0.3-0.7-0.7-1-1c-0.3-0.3-0.7-0.7-1-1c-0.3-0.3-0.7-0.7-1-1c-0.3-0.3-0.7-0.7-1-1
			c-0.3-0.3-0.7-0.7-1-1c-0.3-0.3-0.7-0.7-1-1c-0.3-0.3-0.7-0.7-1-1c-0.3-0.3-0.7-0.7-1-1c-0.3-0.3-0.7-0.7-1-1
			c-0.3-0.3-0.7-0.7-1-1c-0.3-0.3-0.7-0.7-1-1c-0.3-0.3-0.7-0.7-1-1c-0.3-0.3-0.7-0.7-1-1c-0.3-0.3-0.7-0.7-1-1
			c-0.3-0.3-0.7-0.7-1-1c-0.3-0.3-0.7-0.7-1-1c-0.3-0.3-0.7-0.7-1-1c-0.3-0.3-0.7-0.7-1-1c-0.3-0.3-0.7-0.7-1-1
			c-0.3-0.3-0.7-0.7-1-1c-0.3-0.3-0.7-0.7-1-1c-0.3-0.3-0.7-0.7-1-1c-0.3-0.3-0.7-0.7-1-1c-0.3-0.3-0.7-0.7-1-1
			c-0.3-0.3-0.7-0.7-1-1c-0.3-0.3-0.7-0.7-1-1c-0.3-0.3-0.7-0.7-1-1c-0.3-0.3-0.7-0.7-1-1c-0.3-0.3-0.7-0.7-1-1
			c-0.3-0.3-0.7-0.7-1-1c-0.3-0.3-0.7-0.7-1-1c-0.3-0.3-0.7-0.7-1-1c-0.3-0.3-0.7-0.7-1-1c-0.3-0.3-0.7-0.7-1-1
			c-0.3-0.3-0.7-0.7-1-1c-0.3-0.3-0.7-0.7-1-1c-0.3-0.3-0.7-0.7-1-1c-0.3-0.3-0.7-0.7-1-1c-0.3-0.3-0.7-0.7-1-1
			c-0.3-0.3-0.7-0.7-1-1c-0.3-0.3-0.7-0.7-1-1c-0.3-0.3-0.7-0.7-1-1c-0.3-0.3-0.7-0.7-1-1c-0.3-0.3-0.7-0.7-1-1
			c-0.3-0.3-0.7-0.7-1-1c-0.3-0.3-0.7-0.7-1-1c-0.3-0.3-0.7-0.7-1-1c-0.3-0.3-0.7-0.7-1-1c-0.3-0.3-0.7-0.7-1-1
			c-0.3-0.3-0.7-0.7-1-1c-0.3-0.3-0.7-0.7-1-1c-0.3-0.3-0.7-0.7-1-1c-0.3-0.3-0.7-0.7-1-1c-0.3-0.3-0.7-0.7-1-1
			c-0.2-0.2-0.4-0.4-0.6-0.7c-1.9-5.8-3.4-11.7-4.4-17.7c0.2,0.2,0.4,0.4,0.7,0.6c0.3,0.4,0.6,0.7,1,1c0.3,0.4,0.6,0.7,1,1
			c0.3,0.4,0.6,0.7,1,1c0.3,0.4,0.6,0.7,1,1c0.3,0.4,0.6,0.7,1,1c0.3,0.4,0.6,0.7,1,1c0.3,0.4,0.6,0.7,1,1c0.3,0.4,0.6,0.7,1,1
			c0.3,0.4,0.6,0.7,1,1c0.3,0.4,0.6,0.7,1,1c0.3,0.4,0.6,0.7,1,1c0.3,0.4,0.6,0.7,1,1c0.3,0.4,0.6,0.7,1,1c0.3,0.4,0.6,0.7,1,1
			c0.3,0.4,0.6,0.7,1,1c0.3,0.4,0.6,0.7,1,1c0.3,0.4,0.6,0.7,1,1c0.3,0.4,0.6,0.7,1,1c0.3,0.4,0.6,0.7,1,1c0.3,0.4,0.6,0.7,1,1
			c0.3,0.4,0.6,0.7,1,1c0.3,0.4,0.6,0.7,1,1c0.3,0.4,0.6,0.7,1,1c0.3,0.4,0.6,0.7,1,1c0.3,0.4,0.6,0.7,1,1c0.3,0.4,0.6,0.7,1,1
			c0.3,0.4,0.6,0.7,1,1c0.3,0.4,0.6,0.7,1,1c0.3,0.4,0.6,0.7,1,1c0.3,0.4,0.6,0.7,1,1c0.3,0.4,0.6,0.7,1,1c0.3,0.4,0.6,0.7,1,1
			c0.3,0.4,0.6,0.7,1,1c0.3,0.4,0.6,0.7,1,1c0.3,0.4,0.6,0.7,1,1c0.3,0.4,0.6,0.7,1,1c0.3,0.4,0.6,0.7,1,1c0.3,0.4,0.6,0.7,1,1
			c0.3,0.4,0.6,0.7,1,1c0.3,0.4,0.6,0.7,1,1c0.3,0.4,0.6,0.7,1,1c0.3,0.4,0.6,0.7,1,1c0.3,0.4,0.6,0.7,1,1c0.3,0.4,0.6,0.7,1,1
			c0.3,0.4,0.6,0.7,1,1c0.3,0.4,0.6,0.7,1,1c0.3,0.4,0.6,0.7,1,1c0.3,0.4,0.6,0.7,1,1c0.3,0.4,0.6,0.7,1,1c0.3,0.4,0.6,0.7,1,1
			c0.3,0.4,0.6,0.7,1,1c0.3,0.4,0.6,0.7,1,1c0.3,0.4,0.6,0.7,1,1c0.3,0.4,0.6,0.7,1,1c0.3,0.4,0.6,0.7,1,1c0.3,0.4,0.6,0.7,1,1
			c0.3,0.4,0.6,0.7,1,1c0.3,0.4,0.6,0.7,1,1c0.3,0.4,0.6,0.7,1,1c0.3,0.4,0.6,0.7,1,1c0.3,0.4,0.6,0.7,1,1c0.3,0.4,0.6,0.7,1,1
			c0.3,0.4,0.6,0.7,1,1c0.3,0.4,0.6,0.7,1,1c0.3,0.4,0.6,0.7,1,1c0.3,0.4,0.6,0.7,1,1c0.3,0.4,0.6,0.7,1,1c0.3,0.4,0.6,0.7,1,1
			c0.3,0.4,0.6,0.7,1,1c0.3,0.4,0.6,0.7,1,1c0.3,0.4,0.6,0.7,1,1c0.3,0.4,0.6,0.7,1,1c0.3,0.4,0.6,0.7,1,1c0.3,0.4,0.6,0.7,1,1
			c0.3,0.4,0.6,0.7,1,1c0.3,0.4,0.6,0.7,1,1c0.3,0.4,0.6,0.7,1,1c0.3,0.4,0.6,0.7,1,1c0.3,0.4,0.6,0.7,1,1c0.3,0.4,0.6,0.7,1,1
			c0.3,0.4,0.6,0.7,1,1c0.3,0.4,0.6,0.7,1,1c0.3,0.4,0.6,0.7,1,1c0.3,0.4,0.6,0.7,1,1c0.3,0.4,0.6,0.7,1,1c0.3,0.4,0.6,0.7,1,1
			c0.3,0.4,0.6,0.7,1,1c0.3,0.4,0.6,0.7,1,1c0.3,0.4,0.6,0.7,1,1c0.3,0.4,0.6,0.7,1,1c0.3,0.4,0.6,0.7,1,1c0.3,0.4,0.6,0.7,1,1
			c0.3,0.4,0.6,0.7,1,1c0.3,0.4,0.6,0.7,1,1c0.3,0.4,0.6,0.7,1,1c0.3,0.4,0.6,0.7,1,1c0.3,0.4,0.6,0.7,1,1c0.3,0.4,0.6,0.7,1,1
			c0.3,0.4,0.6,0.7,1,1c0.3,0.4,0.6,0.7,1,1c0.3,0.4,0.6,0.7,1,1c0.3,0.4,0.6,0.7,1,1c0.3,0.4,0.6,0.7,1,1c0.3,0.4,0.6,0.7,1,1
			c0.3,0.4,0.6,0.7,1,1c0.3,0.4,0.6,0.7,1,1c0.3,0.4,0.6,0.7,1,1c0.3,0.4,0.6,0.7,1,1c0.3,0.4,0.6,0.7,1,1c0.3,0.4,0.6,0.7,1,1
			c0.9,1.2,2.4,2,4.5,2.5c7.3,1.6,14.7,2.2,22.2,1.6c4.6-0.4,7.5-2.5,7.7-7.4c0.7-14.7,3.7-29.1,5.6-43.7
			c1.9-13.9,3.4-27.7,14.9-37.8c1.6-1.4,2.1-3.8,2.3-6c0.5-6.7,1.1-13.4,1.1-20.1c0.1-9.8-0.2-14.6-3.4-17.1c-0.3-0.4-0.6-0.7-1-1
			c-0.3-0.4-0.6-0.7-1-1c-0.3-0.4-0.6-0.7-1-1c-0.3-0.4-0.6-0.7-1-1c-0.3-0.4-0.6-0.7-1-1c-0.3-0.4-0.6-0.7-1-1
			c-0.3-0.4-0.6-0.7-1-1c-0.3-0.4-0.6-0.7-1-1c-0.3-0.4-0.6-0.7-1-1c-0.3-0.4-0.6-0.7-1-1c-0.3-0.4-0.6-0.7-1-1
			c-0.3-0.4-0.6-0.7-1-1c-0.3-0.4-0.6-0.7-1-1c-0.3-0.4-0.6-0.7-1-1c-0.3-0.4-0.6-0.7-1-1c-0.3-0.4-0.6-0.7-1-1
			c-0.3-0.4-0.6-0.7-1-1c-0.3-0.4-0.6-0.7-1-1c-0.3-0.4-0.6-0.7-1-1c-0.3-0.4-0.6-0.7-1-1c-0.2-0.2-0.4-0.4-0.6-0.6
			c-1.3-20-7.7-37.4-21.3-50.8c-0.3-0.3-0.7-0.7-1-1c-0.3-0.3-0.7-0.7-1-1c-0.3-0.3-0.7-0.7-1-1c-0.3-0.3-0.7-0.7-1-1
			c-0.3-0.3-0.7-0.7-1-1c-0.3-0.3-0.7-0.7-1-1c-0.3-0.3-0.7-0.7-1-1c-0.3-0.3-0.7-0.7-1-1c-0.3-0.3-0.7-0.7-1-1
			c-0.3-0.3-0.7-0.7-1-1c-0.3-0.3-0.7-0.7-1-1c-0.3-0.3-0.7-0.7-1-1c-0.3-0.3-0.7-0.7-1-1c-0.3-0.3-0.7-0.7-1-1
			c-0.3-0.3-0.7-0.7-1-1c-0.3-0.3-0.7-0.7-1-1c-0.3-0.3-0.7-0.7-1-1c-0.3-0.3-0.7-0.7-1-1c-0.3-0.3-0.7-0.7-1-1
			c-0.3-0.3-0.7-0.7-1-1c-0.3-0.3-0.7-0.7-1-1c-0.3-0.3-0.7-0.7-1-1c-0.3-0.3-0.7-0.7-1-1c-0.3-0.3-0.7-0.7-1-1
			c-0.3-0.3-0.7-0.7-1-1c-0.3-0.3-0.7-0.7-1-1c-0.3-0.3-0.7-0.7-1-1c-0.3-0.3-0.7-0.7-1-1c-0.3-0.3-0.7-0.7-1-1
			c-0.3-0.3-0.7-0.7-1-1c-0.3-0.3-0.7-0.7-1-1c-0.3-0.3-0.7-0.7-1-1c-0.3-0.3-0.7-0.7-1-1c-0.3-0.3-0.7-0.7-1-1
			c-0.3-0.3-0.7-0.7-1-1c-0.3-0.3-0.7-0.7-1-1c-0.3-0.3-0.7-0.7-1-1c-0.3-0.3-0.7-0.7-1-1c-0.3-0.3-0.7-0.7-1-1
			c-0.3-0.3-0.7-0.7-1-1c-0.3-0.3-0.7-0.7-1-1c-0.3-0.3-0.7-0.7-1-1c-0.3-0.3-0.7-0.7-1-1c-0.3-0.3-0.7-0.7-1-1
			c-0.3-0.3-0.7-0.7-1-1c-0.3-0.3-0.7-0.7-1-1c-0.3-0.3-0.7-0.7-1-1c-0.3-0.3-0.7-0.7-1-1c-0.3-0.3-0.7-0.7-1-1
			c-0.3-0.3-0.7-0.7-1-1c-0.3-0.3-0.7-0.7-1-1c-0.3-0.3-0.7-0.7-1-1c-0.3-0.3-0.7-0.7-1-1c-0.3-0.3-0.7-0.7-1-1
			c-0.3-0.3-0.7-0.7-1-1c-0.3-0.3-0.7-0.7-1-1c-0.3-0.3-0.7-0.7-1-1c-0.3-0.3-0.7-0.7-1-1c-0.3-0.3-0.7-0.7-1-1
			c-0.3-0.3-0.7-0.7-1-1c-0.3-0.3-0.7-0.7-1-1c-0.3-0.3-0.7-0.7-1-1c-0.3-0.3-0.7-0.7-1-1c-0.3-0.3-0.7-0.7-1-1
			c-0.3-0.3-0.7-0.7-1-1c-0.3-0.3-0.7-0.7-1-1c-0.3-0.3-0.7-0.7-1-1c-0.3-0.3-0.7-0.7-1-1c-0.3-0.3-0.7-0.7-1-1
			c-0.3-0.3-0.7-0.7-1-1c-0.3-0.3-0.7-0.7-1-1c-0.3-0.3-0.7-0.7-1-1c-0.3-0.3-0.7-0.7-1-1c-0.3-0.3-0.7-0.7-1-1
			c-0.3-0.3-0.7-0.7-1-1c-0.3-0.3-0.7-0.7-1-1c-0.3-0.3-0.7-0.7-1-1c-0.3-0.3-0.7-0.7-1-1c-0.3-0.3-0.7-0.7-1-1
			c-0.3-0.3-0.7-0.7-1-1c-0.3-0.3-0.7-0.7-1-1c-0.3-0.3-0.7-0.7-1-1c-0.3-0.3-0.7-0.7-1-1c-0.3-0.3-0.7-0.7-1-1
			c-0.3-0.3-0.7-0.7-1-1c-0.1-0.1-0.3-0.3-0.4-0.4c1.8-0.2,3.9-0.1,3.2-3.3c-0.3-1.2-0.8-1.8-1.4-2.1c-0.3-0.5-0.6-0.8-1-1
			c-0.3-0.5-0.6-0.8-1-1c-0.3-0.5-0.6-0.8-1-1c-0.3-0.5-0.6-0.8-1-1c-0.3-0.5-0.6-0.8-1-1c-0.3-0.5-0.6-0.8-1-1
			c-0.3-0.5-0.6-0.8-1-1c-0.3-0.5-0.6-0.8-1-1c-0.3-0.5-0.6-0.8-1-1c-0.3-0.5-0.6-0.8-1-1c-0.3-0.5-0.6-0.8-1-1
			c-0.3-0.5-0.6-0.8-1-1c-0.3-0.5-0.6-0.8-1-1c-0.3-0.5-0.6-0.8-1-1c-0.3-0.5-0.6-0.8-1-1c-0.3-0.5-0.6-0.8-1-1
			c-0.3-0.5-0.6-0.8-1-1c-0.3-0.5-0.6-0.8-1-1c-0.3-0.5-0.6-0.8-1-1c-0.3-0.5-0.6-0.8-1-1c-0.3-0.5-0.6-0.8-1-1
			c-0.3-0.5-0.6-0.8-1-1c-0.3-0.5-0.6-0.8-1-1c-0.3-0.5-0.6-0.8-1-1c-0.3-0.5-0.6-0.8-1-1c-0.3-0.5-0.6-0.8-1-1
			c-0.3-0.5-0.6-0.8-1-1c-0.3-0.5-0.6-0.8-1-1c-0.3-0.5-0.6-0.8-1-1c-0.3-0.5-0.6-0.8-1-1c-0.3-0.5-0.6-0.8-1-1
			c-0.3-0.5-0.6-0.8-1-1c-0.3-0.5-0.6-0.8-1-1c-0.3-0.5-0.6-0.8-1-1c-0.3-0.5-0.6-0.8-1-1c-0.3-0.5-0.6-0.8-1-1
			c-0.3-0.5-0.6-0.8-1-1c-0.3-0.5-0.6-0.8-1-1c-0.3-0.5-0.6-0.8-1-1c-0.3-0.5-0.6-0.8-1-1c-0.3-0.5-0.6-0.8-1-1
			c-0.3-0.5-0.6-0.8-1-1c-0.3-0.5-0.6-0.8-1-1c-0.3-0.5-0.6-0.8-1-1c-0.3-0.5-0.6-0.8-1-1c-0.3-0.5-0.6-0.8-1-1
			c-0.3-0.5-0.6-0.8-1-1c-0.3-0.5-0.6-0.8-1-1c-0.3-0.5-0.6-0.8-1-1c-0.3-0.5-0.6-0.8-1-1c-0.3-0.5-0.6-0.8-1-1
			c-0.3-0.5-0.6-0.8-1-1c-0.3-0.5-0.6-0.8-1-1c-0.3-0.5-0.6-0.8-1-1c-0.3-0.5-0.6-0.8-1-1c-0.3-0.5-0.6-0.8-1-1
			c-0.3-0.5-0.6-0.8-1-1c-0.3-0.5-0.6-0.8-1-1c-0.3-0.5-0.6-0.8-1-1c-0.3-0.5-0.6-0.8-1-1c-0.3-0.5-0.6-0.8-1-1
			c-0.3-0.5-0.6-0.8-1-1c-0.3-0.5-0.6-0.8-1-1c-0.3-0.5-0.6-0.8-1-1c-0.3-0.5-0.6-0.8-1-1c-0.3-0.5-0.6-0.8-1-1
			c-0.3-0.5-0.6-0.8-1-1c-0.3-0.5-0.6-0.8-1-1c-0.3-0.5-0.6-0.8-1-1c-0.3-0.5-0.6-0.8-1-1c-0.3-0.5-0.6-0.8-1-1
			c-0.3-0.5-0.6-0.8-1-1c-0.3-0.5-0.6-0.8-1-1c-0.3-0.5-0.6-0.8-1-1c-0.3-0.5-0.6-0.8-1-1c-0.3-0.5-0.6-0.8-1-1
			c-0.3-0.5-0.6-0.8-1-1c-0.3-0.5-0.6-0.8-1-1c-0.3-0.5-0.6-0.8-1-1c-0.3-0.5-0.6-0.8-1-1c-0.3-0.5-0.6-0.8-1-1
			c-0.3-0.5-0.6-0.8-1-1c-0.3-0.5-0.6-0.8-1-1c-0.3-0.5-0.6-0.8-1-1c-0.3-0.5-0.6-0.8-1-1c-0.3-0.5-0.6-0.8-1-1
			c-0.3-0.5-0.6-0.8-1-1c-0.3-0.5-0.6-0.8-1-1c-0.3-0.5-0.6-0.8-1-1c-0.3-0.5-0.6-0.8-1-1c-0.3-0.5-0.6-0.8-1-1
			c-0.3-0.5-0.6-0.8-1-1c-0.3-0.5-0.6-0.8-1-1c-0.3-0.5-0.6-0.8-1-1c-0.3-0.5-0.6-0.8-1-1c-0.3-0.5-0.6-0.8-1-1
			c-0.3-0.5-0.6-0.8-1-1c-0.3-0.5-0.6-0.8-1-1c-0.3-0.5-0.6-0.8-1-1c-0.3-0.5-0.6-0.8-1-1c-0.3-0.5-0.6-0.8-1-1
			c-0.3-0.5-0.6-0.8-1-1c-0.3-0.5-0.6-0.8-1-1c-0.3-0.5-0.6-0.8-1-1c-0.3-0.5-0.6-0.8-1-1c-0.3-0.5-0.6-0.8-1-1
			c-0.3-0.5-0.6-0.8-1-1c-0.3-0.5-0.6-0.8-1-1c-0.3-0.5-0.6-0.8-1-1c-0.3-0.5-0.6-0.8-1-1c-0.3-0.5-0.6-0.8-1-1
			c-0.3-0.5-0.6-0.8-1-1c-0.3-0.5-0.6-0.8-1-1c-0.3-0.5-0.6-0.8-1-1c-0.3-0.5-0.6-0.8-1-1c-0.3-0.5-0.6-0.8-1-1
			c-0.3-0.5-0.6-0.8-1-1c-0.3-0.5-0.6-0.8-1-1c-0.3-0.5-0.6-0.8-1-1c-0.3-0.5-0.6-0.8-1-1c-0.3-0.5-0.6-0.8-1-1
			c-0.3-0.5-0.6-0.8-1-1c-0.3-0.5-0.6-0.8-1-1c-0.3-0.5-0.6-0.8-1-1c-0.3-0.5-0.6-0.8-1-1c-0.3-0.5-0.6-0.8-1-1
			c-0.3-0.5-0.6-0.8-1-1c-0.3-0.5-0.6-0.8-1-1c-0.3-0.5-0.6-0.8-1-1c-0.3-0.5-0.6-0.8-1-1c-0.3-0.5-0.6-0.8-1-1
			c-0.3-0.5-0.6-0.8-1-1c-0.3-0.5-0.6-0.8-1-1c-0.3-0.5-0.6-0.8-1-1c-0.3-0.5-0.6-0.8-1-1c-0.3-0.5-0.6-0.8-1-1
			c-0.3-0.5-0.6-0.8-1-1c-0.3-0.5-0.6-0.8-1-1c-0.3-0.5-0.6-0.8-1-1c-0.3-0.5-0.6-0.8-1-1c-0.3-0.5-0.6-0.8-1-1
			c-0.3-0.5-0.6-0.8-1-1c-0.3-0.5-0.6-0.8-1-1c-0.3-0.5-0.6-0.8-1-1c-0.3-0.5-0.6-0.8-1-1c-0.3-0.5-0.6-0.8-1-1
			c-0.3-0.5-0.6-0.8-1-1c-0.3-0.5-0.6-0.8-1-1c-0.3-0.5-0.6-0.8-1-1c-0.3-0.5-0.6-0.8-1-1c-0.3-0.5-0.6-0.8-1-1
			c-0.3-0.5-0.6-0.8-1-1c-0.3-0.5-0.6-0.8-1-1c-0.3-0.5-0.6-0.8-1-1c-0.3-0.5-0.6-0.8-1-1c-0.3-0.5-0.6-0.8-1-1
			c-0.3-0.5-0.6-0.8-1-1c-0.3-0.5-0.6-0.8-1-1c-0.3-0.5-0.6-0.8-1-1c-0.3-0.5-0.6-0.8-1-1c-0.3-0.5-0.6-0.8-1-1
			c-0.3-0.5-0.6-0.8-1-1c-0.3-0.5-0.6-0.8-1-1c-0.3-0.5-0.6-0.8-1-1c-0.3-0.5-0.6-0.8-1-1c-0.3-0.5-0.6-0.8-1-1
			c-0.3-0.5-0.6-0.8-1-1c-0.3-0.5-0.6-0.8-1-1c-0.3-0.5-0.6-0.8-1-1c-0.3-0.5-0.6-0.8-1-1c-0.3-0.5-0.6-0.8-1-1
			c-0.3-0.5-0.6-0.8-1-1c-0.3-0.5-0.6-0.8-1-1c-0.3-0.5-0.6-0.8-1-1c-0.3-0.5-0.6-0.8-1-1c-0.3-0.5-0.6-0.8-1-1
			c-0.3-0.5-0.6-0.8-1-1c-0.3-0.5-0.6-0.8-1-1c-0.3-0.5-0.6-0.8-1-1c-0.3-0.5-0.6-0.8-1-1c-0.3-0.5-0.6-0.8-1-1
			c-0.3-0.5-0.6-0.8-1-1c-0.3-0.5-0.6-0.8-1-1c-0.3-0.5-0.6-0.8-1-1c-0.3-0.5-0.6-0.8-1-1c-0.3-0.5-0.6-0.8-1-1
			c-0.3-0.5-0.6-0.8-1-1c-0.3-0.5-0.6-0.8-1-1c-0.3-0.5-0.6-0.8-1-1c-0.3-0.5-0.6-0.8-1-1c-0.3-0.5-0.6-0.8-1-1
			c-0.3-0.5-0.6-0.8-1-1c-0.3-0.5-0.6-0.8-1-1c-0.3-0.5-0.6-0.8-1-1c-0.3-0.5-0.6-0.8-1-1c-0.3-0.5-0.6-0.8-1-1
			c-0.3-0.5-0.6-0.8-1-1c-0.3-0.5-0.6-0.8-1-1c-0.3-0.5-0.6-0.8-1-1c-0.3-0.5-0.6-0.8-1-1c-0.3-0.5-0.6-0.8-1-1
			c-0.3-0.5-0.6-0.8-1-1c-0.3-0.5-0.6-0.8-1-1c-0.3-0.5-0.6-0.8-1-1c-0.3-0.5-0.6-0.8-1-1c-0.3-0.5-0.6-0.8-1-1
			c-0.3-0.5-0.6-0.8-1-1c-0.3-0.5-0.6-0.8-1-1c-0.3-0.5-0.6-0.8-1-1c-0.3-0.5-0.6-0.8-1-1c-0.3-0.5-0.6-0.8-1-1
			c-0.3-0.5-0.6-0.8-1-1c-0.3-0.5-0.6-0.8-1-1c-0.3-0.5-0.6-0.8-1-1c-0.3-0.5-0.6-0.8-1-1c-0.3-0.5-0.6-0.8-1-1
			c-0.3-0.5-0.6-0.8-1-1c-0.3-0.5-0.6-0.8-1-1c-0.3-0.5-0.6-0.8-1-1c-0.3-0.5-0.6-0.8-1-1c-0.3-0.5-0.6-0.8-1-1
			c-0.3-0.5-0.6-0.8-1-1c-0.3-0.5-0.6-0.8-1-1c-0.3-0.5-0.6-0.8-1-1c-0.3-0.5-0.6-0.8-1-1c-0.3-0.5-0.6-0.8-1-1
			c-0.3-0.5-0.6-0.8-1-1c-0.3-0.5-0.6-0.8-1-1c-0.3-0.5-0.6-0.8-1-1c-0.3-0.5-0.6-0.8-1-1c-0.3-0.5-0.6-0.8-1-1
			c-0.3-0.5-0.6-0.8-1-1c-0.3-0.5-0.6-0.8-1-1c-0.3-0.5-0.6-0.8-1-1c-0.3-0.5-0.6-0.8-1-1c-0.3-0.5-0.6-0.8-1-1
			c-0.3-0.5-0.6-0.8-1-1c-0.3-0.5-0.6-0.8-1-1c-0.3-0.5-0.6-0.8-1-1c-0.3-0.5-0.6-0.8-1-1c-0.3-0.5-0.6-0.8-1-1
			c-0.3-0.5-0.6-0.8-1-1c-0.3-0.5-0.6-0.8-1-1c-0.3-0.5-0.6-0.8-1-1c-0.3-0.5-0.6-0.8-1-1c-0.3-0.5-0.6-0.8-1-1
			c-0.3-0.5-0.6-0.8-1-1c-0.3-0.5-0.6-0.8-1-1c-0.3-0.5-0.6-0.8-1-1c-0.3-0.5-0.6-0.8-1-1c-0.3-0.5-0.6-0.8-1-1
			c-0.3-0.5-0.6-0.8-1-1c-0.3-0.5-0.6-0.8-1-1c-0.3-0.5-0.6-0.8-1-1c-0.3-0.5-0.6-0.8-1-1c-0.3-0.5-0.6-0.8-1-1
			c-0.3-0.5-0.6-0.8-1-1c-0.3-0.5-0.6-0.8-1-1c-0.3-0.5-0.6-0.8-1-1c-0.3-0.5-0.6-0.8-1-1c-0.3-0.5-0.6-0.8-1-1
			c-0.3-0.5-0.6-0.8-1-1c-0.3-0.5-0.6-0.8-1-1c-0.3-0.5-0.6-0.8-1-1c-0.3-0.5-0.6-0.8-1-1c-0.3-0.5-0.6-0.8-1-1
			c-0.3-0.5-0.6-0.8-1-1c-0.3-0.5-0.6-0.8-1-1c-0.3-0.5-0.6-0.8-1-1c-0.3-0.5-0.6-0.8-1-1c-0.3-0.5-0.6-0.8-1-1
			c-0.3-0.5-0.6-0.8-1-1c-0.3-0.5-0.6-0.8-1-1c-0.3-0.5-0.6-0.8-1-1c-0.3-0.5-0.6-0.8-1-1c-0.3-0.5-0.6-0.8-1-1
			c-0.3-0.5-0.6-0.8-1-1c-0.3-0.5-0.6-0.8-1-1c-0.3-0.5-0.6-0.8-1-1c-0.3-0.5-0.6-0.8-1-1c-0.3-0.5-0.6-0.8-1-1
			c-0.3-0.5-0.6-0.8-1-1c-0.3-0.5-0.6-0.8-1-1c-0.3-0.5-0.6-0.8-1-1c-0.3-0.5-0.6-0.8-1-1c-0.3-0.5-0.6-0.8-1-1
			c-0.3-0.5-0.6-0.8-1-1c-0.3-0.5-0.6-0.8-1-1c-0.3-0.5-0.6-0.8-1-1c-0.3-0.5-0.6-0.8-1-1c-0.3-0.5-0.6-0.8-1-1
			c-0.3-0.5-0.6-0.8-1-1c-0.3-0.5-0.6-0.8-1-1c-0.3-0.5-0.6-0.8-1-1c-0.3-0.5-0.6-0.8-1-1c-0.3-0.5-0.6-0.8-1-1
			c-0.3-0.5-0.6-0.8-1-1c-0.3-0.5-0.6-0.8-1-1c-0.3-0.5-0.6-0.8-1-1c-0.3-0.5-0.6-0.8-1-1c-0.3-0.5-0.6-0.8-1-1
			c-0.3-0.5-0.6-0.8-1-1c-0.3-0.5-0.6-0.8-1-1c-0.3-0.5-0.6-0.8-1-1c-0.3-0.5-0.6-0.8-1-1c-0.3-0.5-0.6-0.8-1-1
			c-0.3-0.5-0.6-0.8-1-1c-0.3-0.5-0.6-0.8-1-1c-0.3-0.5-0.6-0.8-1-1c-0.3-0.5-0.6-0.8-1-1c-0.3-0.5-0.6-0.8-1-1
			c-0.3-0.5-0.6-0.8-1-1c-0.3-0.5-0.6-0.8-1-1c-0.3-0.5-0.6-0.8-1-1c-0.3-0.5-0.6-0.8-1-1c-0.3-0.5-0.6-0.8-1-1
			c-0.3-0.5-0.6-0.8-1-1c-0.3-0.5-0.6-0.8-1-1c-0.3-0.5-0.6-0.8-1-1c-0.3-0.5-0.6-0.8-1-1c-0.3-0.5-0.6-0.8-1-1
			c-0.3-0.5-0.6-0.8-1-1c-0.3-0.5-0.6-0.8-1-1c-0.3-0.5-0.6-0.8-1-1c-0.3-0.5-0.6-0.8-1-1c-0.3-0.5-0.6-0.8-1-1
			c-0.3-0.5-0.6-0.8-1-1c-0.3-0.5-0.6-0.8-1-1c-0.3-0.5-0.6-0.8-1-1c-0.3-0.5-0.6-0.8-1-1c-0.3-0.5-0.6-0.8-1-1
			c-0.3-0.5-0.6-0.8-1-1c-0.3-0.5-0.6-0.8-1-1c-0.3-0.5-0.6-0.8-1-1c-0.3-0.5-0.6-0.8-1-1c-0.3-0.5-0.6-0.8-1-1
			c-0.3-0.5-0.6-0.8-1-1c-0.3-0.5-0.6-0.8-1-1c-0.3-0.5-0.6-0.8-1-1c-0.3-0.5-0.6-0.8-1-1c-0.3-0.5-0.6-0.8-1-1
			c-0.7-1.4-2-1.3-3.6-1c-39.4,6-78.8,12-118.6,14.9c-9.4,0.7-15.2,9.1-14.1,18.5c1.9,16.4,3.6,32.8,5.2,49.2
			c2.4,23.4,4.5,46.9,6.9,70.3c3.1,29.7,6.3,59.5,9.4,89.2c3.1,29.6,6.3,59.1,9.5,88.6c0.5,5,2.6,10.7,0.9,15
			c-1.9,5.1-1.1,9.9-1.7,14.7c-0.2,1.6,0.3,2.8,1.4,3.4c0.2,0.4,0.6,0.7,1,1c0.2,0.3,0.4,0.6,0.7,0.8c-1,5.8,1,11.3,2.5,16.8
			c1.1,4.2,2.2,8.4,3.4,12.6c5.9,21.4,15.6,40.5,31.2,56c0.3,0.3,0.7,0.7,1,1c0.3,0.3,0.7,0.7,1,1c0.3,0.3,0.7,0.7,1,1
			c0.3,0.3,0.7,0.7,1,1c0.3,0.3,0.7,0.7,1,1c0.3,0.3,0.7,0.7,1,1c0.3,0.3,0.7,0.7,1,1c0.3,0.3,0.7,0.7,1,1c0.3,0.3,0.7,0.7,1,1
			c0.3,0.3,0.7,0.7,1,1c0.3,0.3,0.7,0.7,1,1c0.3,0.3,0.7,0.7,1,1c0.3,0.3,0.7,0.7,1,1c0.3,0.3,0.7,0.7,1,1c0.3,0.3,0.7,0.7,1,1
			c0.3,0.3,0.7,0.7,1,1c0.3,0.3,0.7,0.7,1,1c0.3,0.3,0.7,0.7,1,1c0.3,0.3,0.7,0.7,1,1c0.3,0.3,0.7,0.7,1,1c0.3,0.3,0.7,0.7,1,1
			c0.3,0.3,0.7,0.7,1,1c0.3,0.3,0.7,0.7,1,1c0.3,0.3,0.7,0.7,1,1c0.3,0.3,0.7,0.7,1,1c0.3,0.3,0.7,0.7,1,1c0.3,0.3,0.7,0.7,1,1
			c0.3,0.3,0.7,0.7,1,1c0.3,0.3,0.7,0.7,1,1c0.3,0.3,0.7,0.7,1,1c0.3,0.3,0.7,0.7,1,1c0.3,0.3,0.7,0.7,1,1c0.3,0.3,0.7,0.7,1,1
			c0.3,0.3,0.7,0.7,1,1c0.3,0.3,0.7,0.7,1,1c0.3,0.3,0.7,0.7,1,1c0.3,0.3,0.7,0.7,1,1c0.3,0.3,0.7,0.7,1,1c0.3,0.3,0.7,0.7,1,1
			c0.3,0.3,0.7,0.7,1,1c0.3,0.3,0.7,0.7,1,1c0.3,0.3,0.7,0.7,1,1c0.3,0.3,0.7,0.7,1,1c0.3,0.3,0.7,0.7,1,1c0.3,0.3,0.7,0.7,1,1
			c0.3,0.3,0.7,0.7,1,1c0.3,0.3,0.7,0.7,1,1c0.3,0.3,0.7,0.7,1,1c0.3,0.3,0.7,0.7,1,1c0.3,0.3,0.7,0.7,1,1c0.3,0.3,0.7,0.7,1,1
			c0.3,0.3,0.7,0.7,1,1c0.3,0.3,0.7,0.7,1,1c0.3,0.3,0.7,0.7,1,1c0.3,0.3,0.7,0.7,1,1c0.3,0.3,0.7,0.7,1,1c0.3,0.3,0.7,0.7,1,1
			c0.3,0.3,0.7,0.7,1,1c0.3,0.3,0.7,0.7,1,1c0.3,0.3,0.7,0.7,1,1c0.3,0.3,0.7,0.7,1,1c0.3,0.3,0.7,0.7,1,1c0.3,0.3,0.7,0.7,1,1
			c0.3,0.3,0.7,0.7,1,1c0.3,0.3,0.7,0.7,1,1c0.3,0.3,0.7,0.7,1,1c0.3,0.3,0.7,0.7,1,1c0.3,0.3,0.7,0.7,1,1c0.3,0.3,0.7,0.7,1,1
			c0.3,0.3,0.7,0.7,1,1c0.3,0.3,0.7,0.7,1,1c0.3,0.3,0.7,0.7,1,1c0.3,0.3,0.7,0.7,1,1c0.3,0.3,0.7,0.7,1,1c0.3,0.3,0.7,0.7,1,1
			c0.3,0.3,0.7,0.7,1,1c0.3,0.3,0.7,0.7,1,1c0.3,0.3,0.7,0.7,1,1c0.3,0.3,0.7,0.7,1,1c0.3,0.3,0.7,0.7,1,1c0.3,0.3,0.7,0.7,1,1
			c0.3,0.3,0.7,0.7,1,1c0.3,0.3,0.7,0.7,1,1c0.3,0.3,0.7,0.7,1,1c0.3,0.3,0.7,0.7,1,1c0.3,0.3,0.7,0.7,1,1c0.3,0.3,0.7,0.7,1,1
			c0.3,0.3,0.7,0.7,1,1c0.3,0.3,0.7,0.7,1,1c0.3,0.3,0.7,0.7,1,1c0.3,0.3,0.7,0.7,1,1c0.3,0.3,0.7,0.7,1,1c0.3,0.3,0.7,0.7,1,1
			c0.3,0.3,0.7,0.7,1,1c0.3,0.3,0.7,0.7,1,1c0.3,0.3,0.7,0.7,1,1c0.3,0.3,0.7,0.7,1,1c0.3,0.3,0.7,0.7,1,1c0.3,0.3,0.7,0.7,1,1
			c0.3,0.3,0.7,0.7,1,1c0.3,0.3,0.7,0.7,1,1c0.3,0.3,0.7,0.7,1,1c0.3,0.3,0.7,0.7,1,1c0.3,0.3,0.7,0.7,1,1c0.3,0.3,0.7,0.7,1,1
			c0.3,0.3,0.7,0.7,1,1c0.3,0.3,0.7,0.7,1,1c0.3,0.3,0.7,0.7,1,1c0.3,0.3,0.7,0.7,1,1c0.3,0.3,0.7,0.7,1,1c0.3,0.3,0.7,0.7,1,1
			c0.3,0.3,0.7,0.7,1,1c0.3,0.3,0.7,0.7,1,1c0.3,0.3,0.7,0.7,1,1c0.3,0.3,0.7,0.7,1,1c0.3,0.3,0.7,0.7,1,1c0.3,0.3,0.7,0.7,1,1
			c0.3,0.3,0.7,0.7,1,1c0.3,0.3,0.7,0.7,1,1c0.3,0.3,0.7,0.7,1,1c0.3,0.3,0.7,0.7,1,1c0.3,0.3,0.7,0.7,1,1c0.3,0.3,0.7,0.7,1,1
			c0.3,0.3,0.7,0.7,1,1c0.3,0.3,0.7,0.7,1,1c0.3,0.3,0.7,0.7,1,1c0.3,0.3,0.7,0.7,1,1c0.3,0.3,0.7,0.7,1,1c0.3,0.3,0.7,0.7,1,1
			c0.3,0.3,0.7,0.7,1,1c0.3,0.3,0.7,0.7,1,1c0.3,0.3,0.7,0.7,1,1c0.3,0.3,0.7,0.7,1,1c0.3,0.3,0.7,0.7,1,1c0.3,0.3,0.7,0.7,1,1
			c0.3,0.3,0.7,0.7,1,1c0.3,0.3,0.7,0.7,1,1c0.3,0.3,0.7,0.7,1,1c0.3,0.3,0.7,0.7,1,1c0.3,0.3,0.7,0.7,1,1c0.3,0.3,0.7,0.7,1,1
			c0.3,0.3,0.7,0.7,1,1c0.3,0.3,0.7,0.7,1,1c0.3,0.3,0.7,0.7,1,1c0.3,0.3,0.7,0.7,1,1c0.3,0.3,0.7,0.7,1,1c0.3,0.3,0.7,0.7,1,1
			c0.3,0.3,0.7,0.7,1,1c0.3,0.3,0.7,0.7,1,1c0.3,0.3,0.7,0.7,1,1c0.3,0.3,0.7,0.7,1,1c0.3,0.3,0.7,0.7,1,1c0.3,0.3,0.7,0.7,1,1
			c0.3,0.3,0.7,0.7,1,1c0.3,0.3,0.7,0.7,1,1c0.3,0.3,0.7,0.7,1,1c0.3,0.3,0.7,0.7,1,1c0.3,0.3,0.7,0.7,1,1c0.3,0.3,0.7,0.7,1,1
			c0.3,0.3,0.7,0.7,1,1c0.3,0.3,0.7,0.7,1,1c0.3,0.3,0.7,0.7,1,1c0.3,0.3,0.7,0.7,1,1c0.3,0.3,0.7,0.7,1,1c0.3,0.3,0.7,0.7,1,1
			c0.3,0.3,0.7,0.7,1,1c0.3,0.3,0.7,0.7,1,1c0.3,0.3,0.7,0.7,1,1c0.3,0.3,0.7,0.7,1,1c0.3,0.3,0.7,0.7,1,1c0.3,0.3,0.7,0.7,1,1
			c0.3,0.3,0.7,0.7,1,1c0.3,0.3,0.7,0.7,1,1c0.3,0.3,0.7,0.7,1,1c0.3,0.3,0.7,0.7,1,1c0.3,0.3,0.7,0.7,1,1c0.3,0.3,0.7,0.7,1,1
			c0.3,0.3,0.7,0.7,1,1c0.3,0.3,0.7,0.7,1,1c0.3,0.3,0.7,0.7,1,1c0.3,0.3,0.7,0.7,1,1c0.3,0.3,0.7,0.7,1,1c0.3,0.3,0.7,0.7,1,1
			c0.3,0.3,0.7,0.7,1,1c0.3,0.3,0.7,0.7,1,1c0.3,0.3,0.7,0.7,1,1c0.3,0.3,0.7,0.7,1,1c0.3,0.3,0.7,0.7,1,1c0.3,0.3,0.7,0.7,1,1
			c0.3,0.3,0.7,0.7,1,1c0.3,0.3,0.7,0.7,1,1c0.3,0.3,0.7,0.7,1,1c0.3,0.3,0.7,0.7,1,1c0.3,0.3,0.7,0.7,1,1c0.3,0.3,0.7,0.7,1,1
			c0.3,0.3,0.7,0.7,1,1c0.3,0.3,0.7,0.7,1,1c0.3,0.3,0.7,0.7,1,1c0.3,0.3,0.7,0.7,1,1c0.3,0.3,0.7,0.7,1,1c0.3,0.3,0.7,0.7,1,1
			c0.3,0.3,0.7,0.7,1,1c0.3,0.3,0.7,0.7,1,1c0.3,0.3,0.7,0.7,1,1c0.3,0.3,0.7,0.7,1,1c0.3,0.3,0.7,0.7,1,1c0.3,0.3,0.7,0.7,1,1
			c0.3,0.3,0.7,0.7,1,1c0.3,0.3,0.7,0.7,1,1c0.3,0.3,0.7,0.7,1,1c0.3,0.3,0.7,0.7,1,1c0.3,0.3,0.7,0.7,1,1c0.3,0.3,0.7,0.7,1,1
			c0.3,0.3,0.7,0.7,1,1c0.3,0.3,0.7,0.7,1,1c0.3,0.3,0.7,0.7,1,1c0.3,0.3,0.7,0.7,1,1c0.3,0.3,0.7,0.7,1,1c0.3,0.3,0.7,0.7,1,1
			c0.3,0.3,0.7,0.7,1,1c0.3,0.3,0.7,0.7,1,1c0.3,0.3,0.7,0.7,1,1c0.3,0.3,0.7,0.7,1,1c0.3,0.3,0.7,0.7,1,1c0.3,0.3,0.7,0.7,1,1
			c0.3,0.3,0.7,0.7,1,1c0.3,0.3,0.7,0.7,1,1c0.3,0.3,0.7,0.7,1,1c0.3,0.3,0.7,0.7,1,1c0.3,0.3,0.7,0.7,1,1c0.3,0.3,0.7,0.7,1,1
			c0.3,0.3,0.7,0.7,1,1c0.3,0.3,0.7,0.7,1,1c0.3,0.3,0.7,0.7,1,1c0.3,0.3,0.7,0.7,1,1c0.3,0.3,0.7,0.7,1,1c0.3,0.3,0.7,0.7,1,1
			c0.3,0.3,0.7,0.7,1,1c0.3,0.3,0.7,0.7,1,1c0.3,0.3,0.7,0.7,1,1c0.3,0.3,0.7,0.7,1,1c0.3,0.3,0.7,0.7,1,1c0.3,0.3,0.7,0.7,1,1
			c0.3,0.3,0.7,0.7,1,1c0.3,0.3,0.7,0.7,1,1c0.3,0.3,0.7,0.7,1,1c0.3,0.3,0.7,0.7,1,1c0.3,0.3,0.7,0.7,1,1c0.3,0.3,0.7,0.7,1,1
			c0.3,0.3,0.7,0.7,1,1c0.3,0.3,0.7,0.7,1,1c0.3,0.3,0.7,0.7,1,1c0.3,0.3,0.7,0.7,1,1c0.3,0.3,0.7,0.7,1,1c0.3,0.3,0.7,0.7,1,1
			c0.3,0.3,0.7,0.7,1,1c0.3,0.3,0.7,0.7,1,1c0.3,0.3,0.7,0.7,1,1c0.3,0.3,0.7,0.7,1,1c0.3,0.3,0.7,0.7,1,1c0.3,0.3,0.7,0.7,1,1
			c0.3,0.3,0.7,0.7,1,1c0.3,0.3,0.7,0.7,1,1c0.3,0.3,0.7,0.7,1,1c0.3,0.3,0.7,0.7,1,1c0.3,0.3,0.7,0.7,1,1c0.3,0.3,0.7,0.7,1,1
			c0.3,0.3,0.7,0.7,1,1c0.3,0.3,0.7,0.7,1,1c0.3,0.3,0.7,0.7,1,1c0.3,0.3,0.7,0.7,1,1c0.3,0.3,0.7,0.7,1,1c0.3,0.3,0.7,0.7,1,1
			c0.3,0.3,0.7,0.7,1,1c0.3,0.3,0.7,0.7,1,1c0.3,0.3,0.7,0.7,1,1c0.3,0.3,0.7,0.7,1,1c0.3,0.3,0.7,0.7,1,1c0.3,0.3,0.7,0.7,1,1
			c0.3,0.3,0.7,0.7,1,1c0.3,0.3,0.7,0.7,1,1c0.3,0.3,0.7,0.7,1,1c0.3,0.3,0.7,0.7,1,1c0.3,0.3,0.7,0.7,1,1c0.3,0.3,0.7,0.7,1,1
			c0.3,0.3,0.7,0.7,1,1c0.3,0.3,0.7,0.7,1,1c0.3,0.3,0.7,0.7,1,1c0.3,0.3,0.7,0.7,1,1c0.3,0.3,0.7,0.7,1,1c0.3,0.3,0.7,0.7,1,1
			c0.3,0.3,0.7,0.7,1,1c0.3,0.3,0.7,0.7,1,1c0.3,0.3,0.7,0.7,1,1c0.3,0.3,0.7,0.7,1,1c0.3,0.3,0.7,0.7,1,1c0.3,0.3,0.7,0.7,1,1
			c0.3,0.3,0.7,0.7,1,1c0.3,0.3,0.7,0.7,1,1c0.3,0.3,0.7,0.7,1,1c0.3,0.3,0.7,0.7,1,1c0.3,0.3,0.7,0.7,1,1c0.3,0.3,0.7,0.7,1,1
			c0.3,0.3,0.7,0.7,1,1c0.3,0.3,0.7,0.7,1,1c0.3,0.3,0.7,0.7,1,1c0.3,0.3,0.7,0.7,1,1c0.3,0.3,0.7,0.7,1,1c0.3,0.3,0.7,0.7,1,1
			c0.3,0.3,0.7,0.7,1,1c0.3,0.3,0.7,0.7,1,1c0.3,0.3,0.7,0.7,1,1c0.3,0.3,0.7,0.7,1,1c0.3,0.3,0.7,0.7,1,1c0.3,0.3,0.7,0.7,1,1
			c0.3,0.3,0.7,0.7,1,1c0.3,0.3,0.7,0.7,1,1c0.3,0.3,0.7,0.7,1,1c0.3,0.3,0.7,0.7,1,1c0.3,0.3,0.7,0.7,1,1c0.3,0.3,0.7,0.7,1,1
			c0.3,0.3,0.7,0.7,1,1c0.3,0.3,0.7,0.7,1,1c0.3,0.3,0.7,0.7,1,1c0.3,0.3,0.7,0.7,1,1c0.3,0.3,0.7,0.7,1,1c0.3,0.3,0.7,0.7,1,1
			c0.3,0.3,0.7,0.7,1,1c0.3,0.3,0.7,0.7,1,1c0.3,0.3,0.7,0.7,1,1c0.3,0.3,0.7,0.7,1,1c0.3,0.3,0.7,0.7,1,1c0.3,0.3,0.7,0.7,1,1
			c0.3,0.3,0.7,0.7,1,1c0.3,0.3,0.7,0.7,1,1c0.3,0.3,0.7,0.7,1,1c0.3,0.3,0.7,0.7,1,1c0.3,0.3,0.7,0.7,1,1c0.3,0.3,0.7,0.7,1,1
			c0.3,0.3,0.7,0.7,1,1c0.3,0.3,0.7,0.7,1,1c2.3,2.3,4.7,4.6,7.3,6.8c29.6,25.2,67.2,25.9,97.5,1.6c5.3-4.3,6.7-4.3,11.5,0.3
			c8,7.7,17.2,13.2,27.6,16.9c21,7.4,40.6,5,57.6-9.5C886.3,954.7,891.7,934.7,887.6,912.3z"/>
	</g>
</g>
<g>
	<path class="st2" d="M339.1,515c6.9-2.6,13.5-0.8,20,1.5c7.1,2.5,13.1,7,18.6,12.1c11.6,10.6,21,23,29.6,36.1
		c7.8,12,15.1,24.3,24.2,35.4c3.7,4.6,4.6,4.6,7.5-0.7c14-25,13.2-50.7,3.2-76.6c-9-23.5-24.3-42.8-41.7-60.4
		c-16.2-16.4-33.2-32-49.6-48.2c-20-19.8-37.8-41.3-48-67.9c-13.1-34.2-11.9-67.8,9.3-98.6c30-43.3,91.9-51.3,132.6-17.8
		c5.7,4.7,11.8,9,18,13c22.2,14.4,31.9,35.8,33.3,61.5c0.2,3.8,0.3,7.6-0.1,11.4c-0.4,3.9,1.3,4.8,4.9,5c18.1,1,19.2,2.1,19.1,20.2
		c0,6.7-0.7,13.4-1.1,20.1c-0.2,2.2-0.6,4.6-2.3,6c-11.5,10.1-13.1,23.9-14.9,37.8c-2,14.5-5,28.9-5.6,43.7c-0.2,4.9-3.2,7-7.7,7.4
		c-7.5,0.6-14.8,0-22.2-1.6c-4.2-0.9-5.7-3-5.7-7.1c0-20-0.5-39.9,0.1-59.9c0.2-8.2-3.2-14.7-6.3-21.4c-1.5-3.2-2.9-6.1-2.6-9.7
		c0.5-8.5,0.8-17,1.4-25.5c0.6-8.1,5.1-12,13.2-11.9c1.1,0,2.2,0.1,3.3,0.1c9.8,0.5,10,0.4,9.3-9.2c-1.5-20.5-8.1-39.2-19.3-56.5
		c-7.7-11.9-19-16.5-32.8-16.8c-39-0.9-71.4,27.2-76.5,66c-5.1,39,7.5,72.8,30.1,103.7c20.1,27.4,45.4,49.2,73.2,68.5
		c18.9,13.1,38.7,25.1,56.4,39.8c17.8,14.7,31.3,32.4,35.6,55.6c4.2,22.4-1.2,42.4-18.9,57.5c-17,14.5-36.6,17-57.6,9.5
		c-10.4-3.7-19.6-9.2-27.6-16.9c-4.8-4.6-6.2-4.6-11.5-0.3c-30.3,24.2-68,23.6-97.5-1.6c-19.3-16.5-30.7-37.7-37.5-61.8
		c-1.2-4.2-2.2-8.4-3.4-12.6c-1.6-5.9-3.8-11.7-2.2-18c1.4-1.7,3.1-1.5,4.9-0.9c2.7,2.2,2.5,5.5,3,8.5c3.2,19.3,8.7,37.8,19.4,54.5
		c10.9,16.9,24.1,31.5,43.9,38.1c23.3,7.8,44.7,4.2,63.8-11.5c4.4-3.6,4.5-4.9,0.9-9.4c-13.9-17.7-24.4-37.8-38.3-55.5
		c-6.3-8-13.4-15.2-21.8-21.1c-5.8-4.1-12-6.6-19.2-7c-2.7-0.1-5.4-0.6-7.8-2.1C337.1,517.8,338,516.4,339.1,515z"/>
	<path class="st3" d="M294.9,526.1c-1.8,0-3.7,0-5.5,0c-2.5-0.2-3.5-1.6-3.3-4c0.5-4.9-0.3-9.6,1.7-14.7c1.6-4.3-0.4-9.9-0.9-15
		c-3.1-29.6-6.3-59.1-9.5-88.6c-3.2-29.7-6.4-59.5-9.4-89.2c-2.4-23.4-4.6-46.9-6.9-70.3c-1.7-16.4-3.3-32.8-5.2-49.2
		c-1.1-9.4,4.7-17.8,14.1-18.5c39.8-2.9,79.2-8.9,118.6-14.9c2.1-0.3,3.4-0.4,4,2.1c0.8,3.4-1.7,3-3.5,3.3
		c-18.8,2.8-37.6,5.4-56.4,8.4c-20.3,3.2-40.7,4.2-61.1,6.4c-7.3,0.8-11,5.5-10.3,12.5c2.6,24.1,5,48.3,7.5,72.4
		c3.1,30.5,6.2,60.9,9.4,91.4c2.7,25.8,5.3,51.6,8.1,77.3c2.5,23.2,5,46.5,7.5,69.7c0.1,1.2-0.4,2.9,1.3,3.1c3.4,0.5,3.2,3,3,5.4
		c-0.3,3.3,0.6,4.3,4.2,3.9c12.3-1.1,24.6-1.8,36.9-2.6c1,1.6-1,2.7-0.8,4.2c-4.3,3-9.3,2.7-14,2.8c-6.9,0.1-13.7,1.7-20.6,1.2
		C300.2,522.9,298.5,527.2,294.9,526.1z"/>
	<path class="st4" d="M447.6,479c21,14.4,43.2,27.3,62.3,44.4c15.4,13.8,27.5,30.1,30.3,51.3c5.2,39.4-29.9,70.8-69,56.6
		c-10.5-3.8-19.6-10.1-27.7-17.8c-2.2-2.1-3.3-4.1-1.5-7.1c20.5-33.1,16.3-66.2,0-99.3c-3-6.1-6.8-11.9-10.2-17.9
		c-1-3.2-2.7-6.4-0.9-9.9c1.3-2.6,3.3-4.2,6.1-2.7C440.4,478.4,444.1,478.3,447.6,479z"/>
	<path class="st4" d="M294.9,526.1c6.6-7,15.5-4.1,23.4-5.3c6.6-1.1,13.4-1.1,20.1-1.6c24,0.5,39.2,15.2,52,33
		c10.8,14.9,20.8,30.5,31.1,45.8c1.7,2.5,3.5,5.1,5.6,7.3c3.7,3.8,3.1,6.6-0.8,9.9c-25.9,22.4-64,21.8-90.4-1.7
		c-22-19.6-33.4-45-39-73.4C296.1,535.4,295.6,530.7,294.9,526.1z"/>
	<path class="st4" d="M352.1,406.3c-25.2-24.3-44.2-52-50.4-87.4c-7.7-44.3,21.3-92.5,63.7-101.1c23.4-4.8,47.4-3.1,68.2,12.2
		c-1.2,1.8-3,0.8-4.4,0.8c-48-2.1-79.2,28.5-85.5,75.9c-4,30.3,4.9,57.6,19.1,83.8c1,1.9,2,3.8,3,5.7
		C363.5,404.5,359.4,407.5,352.1,406.3z"/>
	<path class="st5" d="M508.1,340.4c0,6.9-0.1,13.7,0,20.6c0,2.7-0.8,3.9-3.7,3.7c-13.4-0.8-26.7-1.5-40.1-2.1
		c-2.1-0.1-2.9-0.8-2.8-2.9c0.4-8.3,0.8-16.6,1.2-25c0.1-2.2,1.2-2.7,3.1-2.6c13.7,0.7,27.5,1.3,41.2,2.2
		C511.3,334.6,508.2,338.4,508.1,340.4z"/>
	<path class="st4" d="M352.1,406.3c6.6-0.5,10.6-4.7,13.6-10c21.2,32.9,48.8,59.3,80.7,81.6c0.4,0.3,0.7,0.8,1.1,1.1
		c-3,1.3-6.1,1.9-9.1,0c-1.5-1-3-2.9-4.7-1.4s-3,3.5-2.2,6.3c0.5,1.7,0.2,3.6,0.3,5.4c-21-28.8-48.2-51.6-73.4-76.3
		C356.3,410.8,354.3,408.5,352.1,406.3z"/>
	<path class="st6" d="M463.9,371.4c12.8,1.1,25,2.2,37.2,3.2c2.4,0.2,2.1,1.3,1.3,2.8c-3.1,5.6-5.2,11.3-5.4,17.9
		c-0.1,3.3-2.7,5.8-5.7,7.4c-6.5,3.5-15.2,2.9-20.9-1.8c-3.1-2.5-5.4-5.8-4.4-9.9C467.6,384.4,467.2,378,463.9,371.4z"/>
	<path class="st4" d="M470.6,258.4c11.6,10.9,17.5,24.6,19,40.1c0.6,6.1,0.2,12.3,0.2,18.5c0,1.6,0.2,3.3-2.4,3.2
		c-2-0.1-2.3-1.2-2.3-2.8C484.6,296.7,479.9,277,470.6,258.4z"/>
	<path class="st7" d="M481.1,402.9c-4.3-0.4-9.3-1.7-12.2-6.9c-1.7-2.9-1.2-5.8,0.8-8.1c4-4.5,9.3-5.4,14.9-4.1
		c7.3,1.6,10.9,6.1,9.8,11.6C493.6,400,488.8,402.9,481.1,402.9z"/>
	<path class="st8" d="M481,375.2c1.5,0.1,4.5,0.5,7.6,0.5c3.1,0.1,2.7,1.8,2.4,4c-0.4,2.4-1.1,3.7-3.8,2.5c-2.5-1.1-5.2-1.2-8-1.1
		c-1.5,0.1-3.7,0.7-3.1-2.1C476.5,377.2,475.7,374.2,481,375.2z"/>
	<path class="st9" d="M469.4,383.4c-0.3-2.1-0.5-4-0.8-5.9c-0.2-1.1-1.4-2.6,0.1-3.3c1.2-0.5,2.8,0,4.2,0.3c1.8,0.4,1.3,1.9,1.1,3
		C473.7,380.3,473.7,383.2,469.4,383.4z"/>
	<path class="st10" d="M499.6,377.3c-0.9,2.3-1.8,4.7-2.8,6.9c-0.4,0.8-0.3,2.5-1.8,2.1c-1.2-0.3-2.1-1.4-2.5-2.6
		C491.4,379.1,494.3,376.4,499.6,377.3z"/>
	<path class="st11" d="M482.6,398.6c-3.5-0.5-7.7-0.9-7.9-5.4c-0.1-3.8,3.6-4.5,6.7-4.4c3.7,0.1,7.8,0.8,8,5.3
		C489.6,398,485.8,398.2,482.6,398.6z"/>
	<path class="st10" d="M481.7,390.9c2.2,0.3,5.1,0.6,5.3,2.9c0.2,2.4-2.6,2.5-4.6,2.5c-2.2,0-5.1-0.5-5.3-2.8
		C476.9,391,479.8,391.2,481.7,390.9z"/>
</g>
</svg>
