<?xml version="1.0" encoding="utf-8"?>
<!-- Generator: Adobe Illustrator 24.1.2, SVG Export Plug-In . SVG Version: 6.00 Build 0)  -->
<svg version="1.1" id="Layer_1" xmlns="http://www.w3.org/2000/svg" xmlns:xlink="http://www.w3.org/1999/xlink" x="0px" y="0px"
	 viewBox="0 0 800 800" style="enable-background:new 0 0 800 800;" xml:space="preserve">
<style type="text/css">
	.st0{fill:#333333;}
	.st1{clip-path:url(#SVGID_2_);fill:#1D1D1B;}
	.st2{fill:#7E7B7B;}
	.st3{fill:#767676;}
	.st4{fill:#FED153;}
	.st5{fill:#9D9998;}
	.st6{fill:#F5CB5E;}
	.st7{fill:#3B4358;}
	.st8{fill:#ECD19F;}
	.st9{fill:#4E70B1;}
	.st10{fill:#12100B;}
	.st11{fill:#322882;}
	.st12{fill:#536C9E;}
	.st13{fill:#9E9A98;}
	.st14{fill:#DE432A;}
	.st15{fill:#12110C;}
	.st16{fill:#13110C;}
	.st17{fill:#F2CF76;}
	.st18{fill:#F3D077;}
	.st19{fill:#F4D076;}
	.st20{fill:#F3D078;}
	.st21{fill:#F2CF77;}
	.st22{fill:#F3D179;}
	.st23{fill:#2A2C32;}
	.st24{fill:#322881;}
	.st25{fill:#F0EFF1;}
	.st26{fill:#EFEFF0;}
	.st27{fill:#7E7C7C;}
	.st28{fill:#777676;}
	.st29{fill:#4E6FB1;}
	.st30{fill:#DEDDDE;}
	.st31{fill:#DEDEDE;}
	.st32{fill:#2D408F;}
</style>
<g id="Layer_2_3_">
	<g id="Layer_2_4_">
		<g>
			<circle class="st0" cx="400.5" cy="400" r="400"/>
		</g>
	</g>
</g>
<g id="Layer_2_1_">
	<g>
		<g>
			<defs>
				<circle id="SVGID_1_" cx="400.5" cy="400" r="400"/>
			</defs>
			<clipPath id="SVGID_2_">
				<use xlink:href="#SVGID_1_"  style="overflow:visible;"/>
			</clipPath>
			<path class="st1" d="M939.5,596.1c-0.1-0.5-0.4-0.9-1-1c-0.1-0.5-0.4-0.9-1-1c-0.1-0.5-0.4-0.9-1-1c-0.1-0.5-0.4-0.9-1-1
				c-0.1-0.5-0.4-0.9-1-1c-0.1-0.5-0.4-0.9-1-1c-0.1-0.5-0.4-0.9-1-1c-0.1-0.5-0.4-0.9-1-1c-0.1-0.5-0.4-0.9-1-1
				c-0.1-0.5-0.4-0.9-1-1c-0.1-0.5-0.4-0.9-1-1c-0.1-0.5-0.4-0.9-1-1c-0.1-0.5-0.4-0.9-1-1c-0.1-0.5-0.4-0.9-1-1
				c-0.1-0.5-0.4-0.9-1-1c-0.1-0.5-0.4-0.9-1-1c-0.1-0.5-0.4-0.9-1-1c-0.1-0.5-0.4-0.9-1-1c-0.1-0.5-0.4-0.9-1-1
				c-0.1-0.5-0.4-0.9-1-1c-0.1-0.5-0.4-0.9-1-1c-0.1-0.5-0.4-0.9-1-1c-0.1-0.5-0.4-0.9-1-1c-0.1-0.5-0.4-0.9-1-1
				c-0.1-0.5-0.4-0.9-1-1c-0.1-0.5-0.4-0.9-1-1c-0.1-0.5-0.4-0.9-1-1c-0.1-0.5-0.4-0.9-1-1c-0.1-0.5-0.4-0.9-1-1
				c-0.1-0.5-0.4-0.9-1-1c-0.1-0.5-0.4-0.9-1-1c-0.1-0.5-0.4-0.9-1-1c-0.1-0.5-0.4-0.9-1-1c-0.1-0.5-0.4-0.9-1-1
				c-0.1-0.5-0.4-0.9-1-1c-0.1-0.5-0.4-0.9-1-1c-0.1-0.5-0.4-0.9-1-1c-0.1-0.5-0.4-0.9-1-1c-0.1-0.5-0.4-0.9-1-1
				c-0.1-0.5-0.4-0.9-1-1c-0.1-0.5-0.4-0.9-1-1c-0.1-0.5-0.4-0.9-1-1c-0.1-0.5-0.4-0.9-1-1c-0.1-0.5-0.4-0.9-1-1
				c-0.1-0.5-0.4-0.9-1-1c-0.1-0.5-0.4-0.9-1-1c-0.1-0.5-0.4-0.9-1-1c-0.1-0.5-0.4-0.9-1-1c-0.1-0.5-0.4-0.9-1-1
				c-0.1-0.5-0.4-0.9-1-1c-0.1-0.5-0.4-0.9-1-1c-0.1-0.5-0.4-0.9-1-1c-0.1-0.5-0.4-0.9-1-1c-0.1-0.5-0.4-0.9-1-1
				c-0.1-0.5-0.4-0.9-1-1c-0.1-0.5-0.4-0.9-1-1c-0.1-0.5-0.4-0.9-1-1c-0.1-0.5-0.4-0.9-1-1c-0.1-0.5-0.4-0.9-1-1
				c-0.1-0.5-0.4-0.9-1-1c-0.1-0.5-0.4-0.9-1-1c-0.1-0.5-0.4-0.9-1-1c-0.1-0.5-0.4-0.9-1-1c-0.1-0.5-0.4-0.9-1-1
				c-0.1-0.5-0.4-0.9-1-1c-0.1-0.5-0.4-0.9-1-1c-0.1-0.5-0.4-0.9-1-1c-0.1-0.5-0.4-0.9-1-1c-0.1-0.5-0.4-0.9-1-1
				c-0.1-0.5-0.4-0.9-1-1c-0.1-0.5-0.4-0.9-1-1c-0.1-0.5-0.4-0.9-1-1c-0.1-0.5-0.4-0.9-1-1c-0.1-0.5-0.4-0.9-1-1
				c-0.1-0.5-0.4-0.9-1-1c-0.1-0.5-0.4-0.9-1-1c-0.1-0.5-0.4-0.9-1-1c-0.1-0.5-0.4-0.9-1-1c-0.1-0.5-0.4-0.9-1-1
				c-0.1-0.5-0.4-0.9-1-1c-0.1-0.5-0.4-0.9-1-1c-0.1-0.5-0.4-0.9-1-1c-0.1-0.5-0.4-0.9-1-1c-0.1-0.5-0.4-0.9-1-1
				c-0.1-0.5-0.4-0.9-1-1c-0.1-0.5-0.4-0.9-1-1c-0.1-0.5-0.4-0.9-1-1c-0.1-0.5-0.4-0.9-1-1c-0.1-0.5-0.4-0.9-1-1
				c-0.1-0.5-0.4-0.9-1-1c-0.1-0.5-0.4-0.9-1-1c-0.1-0.5-0.4-0.9-1-1c-0.1-0.5-0.4-0.9-1-1c-0.1-0.5-0.4-0.9-1-1
				c-0.1-0.5-0.4-0.9-1-1c-0.1-0.5-0.4-0.9-1-1c-0.1-0.5-0.4-0.9-1-1c-0.1-0.5-0.4-0.9-1-1c-0.1-0.5-0.4-0.9-1-1
				c-0.1-0.5-0.4-0.9-1-1c-0.1-0.5-0.4-0.9-1-1c-0.1-0.5-0.4-0.9-1-1c-0.1-0.5-0.4-0.9-1-1c-0.1-0.5-0.4-0.9-1-1
				c-0.1-0.5-0.4-0.9-1-1c-0.1-0.5-0.4-0.9-1-1c-0.1-0.5-0.4-0.9-1-1c-0.1-0.5-0.4-0.9-1-1c-0.1-0.5-0.4-0.9-1-1
				c-0.1-0.5-0.4-0.9-1-1c-0.1-0.5-0.4-0.9-1-1c-0.1-0.5-0.4-0.9-1-1c-0.1-0.5-0.4-0.9-1-1c-0.1-0.5-0.4-0.9-1-1
				c-0.1-0.5-0.4-0.9-1-1c-0.1-0.5-0.4-0.9-1-1c-0.1-0.5-0.4-0.9-1-1c-0.1-0.5-0.4-0.9-1-1c-0.1-0.5-0.4-0.9-1-1
				c-0.1-0.5-0.4-0.9-1-1c-0.1-0.5-0.4-0.9-1-1c-0.1-0.5-0.4-0.9-1-1c-0.1-0.5-0.4-0.9-1-1c-0.1-0.5-0.4-0.9-1-1
				c-0.1-0.5-0.4-0.9-1-1c-0.1-0.5-0.4-0.9-1-1c-0.1-0.5-0.4-0.9-1-1c-0.1-0.5-0.4-0.9-1-1c-0.1-0.5-0.4-0.9-1-1
				c-0.1-0.5-0.4-0.9-1-1c-0.1-0.5-0.4-0.9-1-1c-0.1-0.5-0.4-0.9-1-1c-0.1-0.5-0.4-0.9-1-1c-0.1-0.5-0.4-0.9-1-1
				c-0.1-0.5-0.4-0.9-1-1c-0.1-0.5-0.4-0.9-1-1c-0.1-0.5-0.4-0.9-1-1c-0.1-0.5-0.4-0.9-1-1c-0.1-0.5-0.4-0.9-1-1
				c-0.1-0.5-0.4-0.9-1-1c-0.1-0.5-0.4-0.9-1-1c-0.1-0.5-0.4-0.9-1-1c-0.1-0.5-0.4-0.9-1-1c-0.1-0.5-0.4-0.9-1-1
				c-0.1-0.5-0.4-0.9-1-1c-0.1-0.5-0.4-0.9-1-1c-0.1-0.5-0.4-0.9-1-1c-0.1-0.5-0.4-0.9-1-1c-0.1-0.5-0.4-0.9-1-1
				c-0.1-0.5-0.4-0.9-1-1c-0.1-0.5-0.4-0.9-1-1c-0.1-0.5-0.4-0.9-1-1c-0.1-0.5-0.4-0.9-1-1c-0.1-0.5-0.4-0.9-1-1
				c-0.1-0.5-0.4-0.9-1-1c-0.1-0.5-0.4-0.9-1-1c-0.1-0.5-0.4-0.9-1-1c-0.1-0.5-0.4-0.9-1-1c-0.1-0.5-0.4-0.9-1-1
				c-0.1-0.5-0.4-0.9-1-1c-0.1-0.5-0.4-0.9-1-1c-0.1-0.5-0.4-0.9-1-1c-0.1-0.5-0.4-0.9-1-1c-0.1-0.5-0.4-0.9-1-1
				c-0.1-0.5-0.4-0.9-1-1c-0.1-0.5-0.4-0.9-1-1c-0.1-0.5-0.4-0.9-1-1c-0.1-0.5-0.4-0.9-1-1c-0.1-0.5-0.4-0.9-1-1
				c-0.1-0.5-0.4-0.9-1-1c-0.1-0.5-0.4-0.9-1-1c-0.1-0.5-0.4-0.9-1-1c-0.1-0.5-0.4-0.9-1-1c-0.1-0.5-0.4-0.9-1-1
				c-0.1-0.5-0.4-0.9-1-1c-0.1-0.5-0.4-0.9-1-1c-0.1-0.5-0.4-0.9-1-1c-0.1-0.5-0.4-0.9-1-1c-0.1-0.5-0.4-0.9-1-1
				c-0.1-0.5-0.4-0.9-1-1c-0.1-0.5-0.4-0.9-1-1c-0.1-0.5-0.4-0.9-1-1c-0.1-0.5-0.4-0.9-1-1c-0.1-0.5-0.4-0.9-1-1
				c-0.1-0.5-0.4-0.9-1-1c-0.1-0.5-0.4-0.9-1-1c-0.1-0.5-0.4-0.9-1-1c-0.1-0.5-0.4-0.9-1-1c-0.1-0.5-0.4-0.9-1-1
				c-0.1-0.5-0.4-0.9-1-1c-0.1-0.5-0.4-0.9-1-1c-0.1-0.5-0.4-0.9-1-1c-0.1-0.5-0.4-0.9-1-1c-0.1-0.5-0.4-0.9-1-1
				c-0.1-0.5-0.4-0.9-1-1c-0.1-0.5-0.4-0.9-1-1c-0.1-0.5-0.4-0.9-1-1c-0.1-0.5-0.4-0.9-1-1c-0.1-0.5-0.4-0.9-1-1
				c-0.1-0.5-0.4-0.9-1-1c-0.1-0.5-0.4-0.9-1-1c-0.1-0.5-0.4-0.9-1-1c-0.1-0.5-0.4-0.9-1-1c-0.1-0.5-0.4-0.9-1-1
				c-0.1-0.5-0.4-0.9-1-1c-0.1-0.5-0.4-0.9-1-1c-0.1-0.5-0.4-0.9-1-1c-0.1-0.5-0.4-0.9-1-1c-0.1-0.5-0.4-0.9-1-1
				c-0.1-0.5-0.4-0.9-1-1c-0.1-0.5-0.4-0.9-1-1c-0.1-0.5-0.4-0.9-1-1c-0.1-0.5-0.4-0.9-1-1c-0.1-0.5-0.4-0.9-1-1
				c-0.1-0.5-0.4-0.9-1-1c-0.1-0.5-0.4-0.9-1-1c-0.1-0.5-0.4-0.9-1-1c-0.1-0.5-0.4-0.9-1-1c-0.1-0.5-0.4-0.9-1-1
				c-0.1-0.5-0.4-0.9-1-1c-0.1-0.5-0.4-0.9-1-1c-0.1-0.5-0.4-0.9-1-1c-0.1-0.5-0.4-0.9-1-1c-0.1-0.5-0.4-0.9-1-1
				c-0.1-0.5-0.4-0.9-1-1c-0.1-0.5-0.4-0.9-1-1c-0.1-0.5-0.4-0.9-1-1c-0.1-0.5-0.4-0.9-1-1c-0.1-0.5-0.4-0.9-1-1
				c-0.1-0.5-0.4-0.9-1-1c-0.1-0.5-0.4-0.9-1-1c-0.1-0.5-0.4-0.9-1-1c-0.1-0.5-0.4-0.9-1-1c-0.1-0.5-0.4-0.9-1-1
				c-0.1-0.5-0.4-0.9-1-1c-0.1-0.5-0.4-0.9-1-1c-0.1-0.5-0.4-0.9-1-1c-0.1-0.5-0.4-0.9-1-1c-0.1-0.5-0.4-0.9-1-1
				c-0.1-0.5-0.4-0.9-1-1c-0.1-0.5-0.4-0.9-1-1c-0.1-0.5-0.4-0.9-1-1c-0.1-0.5-0.4-0.9-1-1c-0.1-0.5-0.4-0.9-1-1
				c-0.1-0.5-0.4-0.9-1-1c-0.1-0.5-0.4-0.9-1-1c-0.1-0.5-0.4-0.9-1-1c-0.1-0.5-0.4-0.9-1-1c-0.1-0.5-0.4-0.9-1-1
				c-0.1-0.5-0.4-0.9-1-1c-0.1-0.5-0.4-0.9-1-1c-0.1-0.5-0.4-0.9-1-1c-0.1-0.5-0.4-0.9-1-1c-0.1-0.5-0.4-0.9-1-1
				c-0.1-0.5-0.4-0.9-1-1c-0.1-0.5-0.4-0.9-1-1c-0.1-0.5-0.4-0.9-1-1c-0.1-0.5-0.4-0.9-1-1c-0.1-0.5-0.4-0.9-1-1
				c-0.1-0.5-0.4-0.9-1-1c-0.1-0.5-0.4-0.9-1-1c-0.1-0.5-0.4-0.9-1-1c-0.1-0.5-0.4-0.9-1-1c-0.1-0.5-0.4-0.9-1-1
				c-0.1-0.5-0.4-0.9-1-1c-0.1-0.5-0.4-0.9-1-1c-0.1-0.5-0.4-0.9-1-1c-0.1-0.5-0.4-0.9-1-1c-0.1-0.5-0.4-0.9-1-1
				c-0.1-0.5-0.4-0.9-1-1c-0.1-0.5-0.4-0.9-1-1c-0.1-0.5-0.4-0.9-1-1c-0.1-0.5-0.4-0.9-1-1c-0.1-0.5-0.4-0.9-1-1
				c-0.1-0.5-0.4-0.9-1-1c-0.1-0.5-0.4-0.9-1-1c-0.1-0.5-0.4-0.9-1-1c-0.1-0.5-0.4-0.9-1-1c-0.1-0.5-0.4-0.9-1-1
				c-0.1-0.5-0.4-0.9-1-1c-0.1-0.5-0.4-0.9-1-1c-0.1-0.5-0.4-0.9-1-1c-0.1-0.5-0.4-0.9-1-1c-0.1-0.5-0.4-0.9-1-1
				c-0.1-0.5-0.4-0.9-1-1c-0.1-0.5-0.4-0.9-1-1c-0.1-0.5-0.4-0.9-1-1c-0.1-0.5-0.4-0.9-1-1c-0.1-0.5-0.4-0.9-1-1
				c-0.1-0.5-0.4-0.9-1-1c-0.1-0.5-0.4-0.9-1-1c-0.1-0.5-0.4-0.9-1-1c-0.1-0.5-0.4-0.9-1-1c-0.1-0.5-0.4-0.9-1-1
				c-0.1-0.5-0.4-0.9-1-1c-0.1-0.5-0.4-0.9-1-1c-0.1-0.5-0.4-0.9-1-1c-0.1-0.5-0.4-0.9-1-1c-0.1-0.5-0.4-0.9-1-1
				c-0.2-0.6-0.6-1.1-1.7-1.1c-0.8-0.4-1.6-0.9-2.5-1.2c-26.8-11.5-53.7-22.9-80.5-34.3c-0.1-0.1-0.2-0.2-0.3-0.2
				c-0.1-0.2-0.2-0.4-0.4-0.5c-0.2-0.2-0.4-0.3-0.6-0.5c-0.1-0.2-0.2-0.4-0.4-0.5c-0.2-0.2-0.4-0.3-0.6-0.5
				c-0.1-0.2-0.2-0.4-0.4-0.5c-0.2-0.2-0.4-0.3-0.6-0.5c-0.1-0.2-0.2-0.4-0.4-0.5c-0.2-0.2-0.4-0.3-0.6-0.5
				c-0.1-0.2-0.2-0.4-0.4-0.5c-0.2-0.2-0.4-0.3-0.6-0.5c-0.1-0.2-0.2-0.4-0.4-0.5c-0.2-0.2-0.4-0.3-0.6-0.5
				c-0.1-0.2-0.2-0.4-0.4-0.5c-0.2-0.2-0.4-0.3-0.6-0.5c-0.1-0.2-0.2-0.4-0.4-0.5c-0.2-0.2-0.4-0.3-0.6-0.5
				c-0.1-0.2-0.2-0.4-0.4-0.5c-0.2-0.2-0.4-0.3-0.6-0.5c-0.1-0.2-0.2-0.4-0.4-0.5c-0.2-0.2-0.4-0.3-0.6-0.5
				c-0.1-0.2-0.2-0.4-0.4-0.5c-0.2-0.2-0.4-0.3-0.6-0.5c-0.1-0.2-0.2-0.4-0.4-0.5c-0.2-0.2-0.4-0.3-0.6-0.5
				c-0.1-0.2-0.2-0.4-0.4-0.5c-0.2-0.2-0.4-0.3-0.6-0.5c-0.1-0.2-0.2-0.4-0.4-0.5c-0.2-0.2-0.4-0.3-0.6-0.5
				c-0.1-0.2-0.2-0.4-0.4-0.5c-0.2-0.2-0.4-0.3-0.6-0.5c-0.1-0.2-0.2-0.4-0.4-0.5c-0.2-0.2-0.4-0.3-0.6-0.5
				c-0.1-0.2-0.2-0.4-0.4-0.5c-0.2-0.2-0.4-0.3-0.6-0.5c-0.1-0.2-0.2-0.4-0.4-0.5c-0.2-0.2-0.4-0.3-0.6-0.5
				c-0.1-0.2-0.2-0.4-0.4-0.5c-0.2-0.2-0.4-0.3-0.6-0.5c-0.1-0.2-0.2-0.4-0.4-0.5c-0.2-0.2-0.4-0.3-0.6-0.5
				c-0.1-0.2-0.2-0.4-0.4-0.5c-0.2-0.2-0.4-0.3-0.6-0.5c-0.1-0.2-0.2-0.4-0.4-0.5c-0.2-0.2-0.4-0.3-0.6-0.5
				c-0.1-0.2-0.2-0.4-0.4-0.5c-0.2-0.2-0.4-0.3-0.6-0.5c-0.1-0.2-0.2-0.4-0.4-0.5c-0.2-0.2-0.4-0.3-0.6-0.5
				c-0.1-0.2-0.2-0.4-0.4-0.5c-0.2-0.2-0.4-0.3-0.6-0.5c-0.1-0.2-0.2-0.4-0.4-0.5c-0.2-0.2-0.4-0.3-0.6-0.5
				c-0.1-0.2-0.2-0.4-0.4-0.5c-0.2-0.2-0.4-0.3-0.6-0.5c-0.1-0.2-0.2-0.4-0.4-0.5c-0.2-0.2-0.4-0.3-0.6-0.5
				c-0.1-0.2-0.2-0.4-0.4-0.5c-0.2-0.2-0.4-0.3-0.6-0.5c-0.1-0.2-0.2-0.4-0.4-0.5c-0.2-0.2-0.4-0.3-0.6-0.5
				c-0.1-0.2-0.2-0.4-0.4-0.5c-0.2-0.2-0.4-0.3-0.6-0.5c-0.1-0.2-0.2-0.4-0.4-0.5c-0.2-0.2-0.4-0.3-0.6-0.5
				c-0.1-0.2-0.2-0.4-0.4-0.5c-0.2-0.2-0.4-0.3-0.6-0.5c-0.1-0.2-0.2-0.4-0.4-0.5c-0.2-0.2-0.4-0.3-0.6-0.5
				c-0.1-0.2-0.2-0.4-0.4-0.5c-0.2-0.2-0.4-0.3-0.6-0.5c-0.1-0.2-0.2-0.4-0.4-0.5c-0.2-0.2-0.4-0.3-0.6-0.5
				c-0.1-0.2-0.2-0.4-0.4-0.5c-0.2-0.2-0.4-0.3-0.6-0.5c-0.1-0.2-0.2-0.4-0.4-0.5c-0.2-0.2-0.4-0.3-0.6-0.5
				c-0.1-0.2-0.2-0.4-0.4-0.5c-0.2-0.2-0.4-0.3-0.6-0.5c-0.1-0.2-0.2-0.4-0.4-0.5c-0.2-0.2-0.4-0.3-0.6-0.5
				c-0.1-0.2-0.2-0.4-0.4-0.5c-0.2-0.2-0.4-0.3-0.6-0.5c-0.1-0.2-0.2-0.4-0.4-0.5c-0.2-0.2-0.4-0.3-0.6-0.5
				c-0.1-0.2-0.2-0.4-0.4-0.5c-0.2-0.2-0.4-0.3-0.6-0.5c-0.1-0.2-0.2-0.4-0.4-0.5c-0.2-0.2-0.4-0.3-0.6-0.5
				c-0.1-0.2-0.2-0.4-0.4-0.5c-0.2-0.2-0.4-0.3-0.6-0.5c-0.1-0.2-0.2-0.4-0.4-0.5c-0.2-0.2-0.4-0.3-0.6-0.5
				c-0.1-0.2-0.2-0.4-0.4-0.5c-1.8-1.8-5.1-0.2-7.7-0.1c-21.3,1-42.5,2.1-63.8,3.1c-16.6,0.8-33.2,1.6-49.8,2.5
				c-21.3,1-42.5,2.1-63.8,3.1c-16.6,0.8-33.2,1.6-49.8,2.5c-17.3,0.9-34.7,1.7-52,2.5c-2.2,0.1-2.7,0.8-2.7,2.9
				c0.1,7.8,0,15.5,0,23.3c-3.7,0.3-7.4,0.5-11.1,0.9c-11.5,1-23,1.8-34.5,3c-4.4,0.5-9-0.2-13.3,1.7c0,0.7-0.1,1.4,0,2.2
				c0.8,10,1.6,19.9,2.4,29.9c0.5,6.6,0.8,13.2,1.4,19.7c1,12.4,2,24.8,3,37.3c0.7,9.7,1.3,19.3,2,29c1.2,16.2,2.4,32.5,3.7,48.7
				c0.2,3.1,0.6,6.1,1.6,9.1c6.1,17.7,11.9,35.4,18,53.1c2.5,7.2,4.4,14.6,7.5,21.6c0.2,0.9,0.6,1.1,1,1.2c0.2,0.7,0.6,1,1,1
				c0.2,0.7,0.6,1,1,1c0.2,0.7,0.6,1,1,1c0.2,0.7,0.6,1,1,1c0.2,0.7,0.6,1,1,1c0.2,0.7,0.6,1,1,1c0.2,0.7,0.6,1,1,1
				c0.2,0.7,0.6,1,1,1c0.2,0.7,0.6,1,1,1c0.2,0.7,0.6,1,1,1c0.2,0.7,0.6,1,1,1c0.2,0.7,0.6,1,1,1c0.2,0.7,0.6,1,1,1
				c0.2,0.7,0.6,1,1,1c0.2,0.7,0.6,1,1,1c0.2,0.7,0.6,1,1,1c0.2,0.7,0.6,1,1,1c0.2,0.7,0.6,1,1,1c0.2,0.7,0.6,1,1,1
				c0.2,0.7,0.6,1,1,1c0.2,0.7,0.6,1,1,1c0.2,0.7,0.6,1,1,1c0.2,0.7,0.6,1,1,1c0.2,0.7,0.6,1,1,1c0.2,0.7,0.6,1,1,1
				c0.2,0.7,0.6,1,1,1c0.2,0.7,0.6,1,1,1c0.2,0.7,0.6,1,1,1c0.2,0.7,0.6,1,1,1c0.2,0.7,0.6,1,1,1c0.2,0.7,0.6,1,1,1
				c0.2,0.7,0.6,1,1,1c0.2,0.7,0.6,1,1,1c0.2,0.7,0.6,1,1,1c0.2,0.7,0.6,1,1,1c0.2,0.7,0.6,1,1,1c0.2,0.7,0.6,1,1,1
				c0.2,0.7,0.6,1,1,1c0.2,0.7,0.6,1,1,1c0.2,0.7,0.6,1,1,1c0.2,0.7,0.6,1,1,1c0.2,0.7,0.6,1,1,1c0.2,0.7,0.6,1,1,1
				c0.2,0.7,0.6,1,1,1c0.2,0.7,0.6,1,1,1c0.2,0.7,0.6,1,1,1c0.2,0.7,0.6,1,1,1c0.2,0.7,0.6,1,1,1c0.2,0.7,0.6,1,1,1
				c0.2,0.7,0.6,1,1,1c0.2,0.7,0.6,1,1,1c0.2,0.7,0.6,1,1,1c0.2,0.7,0.6,1,1,1c0.2,0.7,0.6,1,1,1c0.2,0.7,0.6,1,1,1
				c0.2,0.7,0.6,1,1,1c0.2,0.7,0.6,1,1,1c0.2,0.7,0.6,1,1,1c0.2,0.7,0.6,1,1,1c0.2,0.7,0.6,1,1,1c0.2,0.7,0.6,1,1,1
				c0.2,0.7,0.6,1,1,1c0.2,0.7,0.6,1,1,1c0.2,0.7,0.6,1,1,1c0.2,0.7,0.6,1,1,1c0.2,0.7,0.6,1,1,1c0.2,0.7,0.6,1,1,1
				c0.2,0.7,0.6,1,1,1c0.2,0.7,0.6,1,1,1c0.2,0.7,0.6,1,1,1c0.2,0.7,0.6,1,1,1c0.2,0.7,0.6,1,1,1c0.2,0.7,0.6,1,1,1
				c0.2,0.7,0.6,1,1,1c0.2,0.7,0.6,1,1,1c0.2,0.7,0.6,1,1,1c0.2,0.7,0.6,1,1,1c0.2,0.7,0.6,1,1,1c0.2,0.7,0.6,1,1,1
				c0.2,0.7,0.6,1,1,1c0.2,0.7,0.6,1,1,1c0.2,0.7,0.6,1,1,1c0.2,0.7,0.6,1,1,1c0.2,0.7,0.6,1,1,1c0.2,0.7,0.6,1,1,1
				c0.2,0.7,0.6,1,1,1c0.2,0.7,0.6,1,1,1c0.2,0.7,0.6,1,1,1c0.2,0.7,0.6,1,1,1c0.2,0.7,0.6,1,1,1c0.2,0.7,0.6,1,1,1
				c0.2,0.7,0.6,1,1,1c0.2,0.7,0.6,1,1,1c0.2,0.7,0.6,1,1,1c0.2,0.7,0.6,1,1,1c0.2,0.7,0.6,1,1,1c0.2,0.7,0.6,1,1,1
				c0.2,0.7,0.6,1,1,1c0.2,0.7,0.6,1,1,1c0.2,0.7,0.6,1,1,1c0.2,0.7,0.6,1,1,1c0.2,0.7,0.6,1,1,1c0.2,0.7,0.6,1,1,1
				c0.2,0.7,0.6,1,1,1c0.2,0.7,0.6,1,1,1c0.2,0.7,0.6,1,1,1c0.2,0.7,0.6,1,1,1c0.2,0.7,0.6,1,1,1c0.2,0.7,0.6,1,1,1
				c0.2,0.7,0.6,1,1,1c0.2,0.7,0.6,1,1,1c0.2,0.7,0.6,1,1,1c0.2,0.7,0.6,1,1,1c0.2,0.7,0.6,1,1,1c0.2,0.7,0.6,1,1,1
				c0.2,0.7,0.6,1,1,1c0.2,0.7,0.6,1,1,1c0.2,0.7,0.6,1,1,1c0.2,0.7,0.6,1,1,1c0.2,0.7,0.6,1,1,1c0.2,0.7,0.6,1,1,1
				c0.2,0.7,0.6,1,1,1c0.2,0.7,0.6,1,1,1c0.2,0.7,0.6,1,1,1c0.2,0.7,0.6,1,1,1c0.2,0.7,0.6,1,1,1c0.2,0.7,0.6,1,1,1
				c0.2,0.7,0.6,1,1,1c0.2,0.7,0.6,1,1,1c0.2,0.7,0.6,1,1,1c0.2,0.7,0.6,1,1,1c0.2,0.7,0.6,1,1,1c0.2,0.7,0.6,1,1,1
				c0.2,0.7,0.6,1,1,1c0.2,0.7,0.6,1,1,1c0.2,0.7,0.6,1,1,1c0.2,0.7,0.6,1,1,1c0.2,0.7,0.6,1,1,1c0.2,0.7,0.6,1,1,1
				c0.2,0.7,0.6,1,1,1c0.2,0.7,0.6,1,1,1c0.2,0.7,0.6,1,1,1c0.2,0.7,0.6,1,1,1c0.2,0.7,0.6,1,1,1c0.2,0.7,0.6,1,1,1
				c0.2,0.7,0.6,1,1,1c0.2,0.7,0.6,1,1,1c0.2,0.7,0.6,1,1,1c0.2,0.7,0.6,1,1,1c0.2,0.7,0.6,1,1,1c0.2,0.7,0.6,1,1,1
				c0.2,0.7,0.6,1,1,1c0.2,0.7,0.6,1,1,1c0.2,0.7,0.6,1,1,1c0.2,0.7,0.6,1,1,1c0.2,0.7,0.6,1,1,1c0.2,0.7,0.6,1,1,1
				c0.2,0.7,0.6,1,1,1c0.2,0.7,0.6,1,1,1c0.2,0.7,0.6,1,1,1c0.2,0.7,0.6,1,1,1c0.2,0.7,0.6,1,1,1c0.2,0.7,0.6,1,1,1
				c0.2,0.7,0.6,1,1,1c0.2,0.7,0.6,1,1,1c0.2,0.7,0.6,1,1,1c0.2,0.7,0.6,1,1,1c0.2,0.7,0.6,1,1,1c0.2,0.7,0.6,1,1,1
				c0.2,0.7,0.6,1,1,1c0.2,0.7,0.6,1,1,1c0.2,0.7,0.6,1,1,1c0.2,0.7,0.6,1,1,1c0.2,0.7,0.6,1,1,1c0.2,0.7,0.6,1,1,1
				c0.2,0.7,0.6,1,1,1c0.2,0.7,0.6,1,1,1c0.2,0.7,0.6,1,1,1c0.2,0.7,0.6,1,1,1c0.2,0.7,0.6,1,1,1c0.2,0.7,0.6,1,1,1
				c0.2,0.7,0.6,1,1,1c0.2,0.7,0.6,1,1,1c0.2,0.7,0.6,1,1,1c0.2,0.7,0.6,1,1,1c0.2,0.7,0.6,1,1,1c0.2,0.7,0.6,1,1,1
				c0.2,0.7,0.6,1,1,1c0.2,0.7,0.6,1,1,1c0.2,0.7,0.6,1,1,1c0.2,0.7,0.6,1,1,1c0.2,0.7,0.6,1,1,1c0.2,0.7,0.6,1,1,1
				c0.2,0.7,0.6,1,1,1c0.2,0.7,0.6,1,1,1c0.2,0.7,0.6,1,1,1c0.2,0.7,0.6,1,1,1c0.2,0.7,0.6,1,1,1c0.2,0.7,0.6,1,1,1
				c0.2,0.7,0.6,1,1,1c0.2,0.7,0.6,1,1,1c0.2,0.7,0.6,1,1,1c0.2,0.7,0.6,1,1,1c0.2,0.7,0.6,1,1,1c0.2,0.7,0.6,1,1,1
				c0.2,0.7,0.6,1,1,1c0.2,0.7,0.6,1,1,1c0.2,0.7,0.6,1,1,1c0.2,0.7,0.6,1,1,1c0.2,0.7,0.6,1,1,1c0.2,0.7,0.6,1,1,1
				c0.2,0.7,0.6,1,1,1c0.2,0.7,0.6,1,1,1c0.2,0.7,0.6,1,1,1c0.2,0.7,0.6,1,1,1c0.2,0.7,0.6,1,1,1c0.2,0.7,0.6,1,1,1
				c0.2,0.7,0.6,1,1,1c0.2,0.7,0.6,1,1,1c0.2,0.7,0.6,1,1,1c0.2,0.7,0.6,1,1,1c0.2,0.7,0.6,1,1,1c0.2,0.7,0.6,1,1,1
				c0.2,0.7,0.6,1,1,1c0.2,0.7,0.6,1,1,1c0.2,0.7,0.6,1,1,1c0.2,0.7,0.6,1,1,1c0.2,0.7,0.6,1,1,1c0.2,0.7,0.6,1,1,1
				c0.2,0.7,0.6,1,1,1c0.2,0.7,0.6,1,1,1c0.2,0.7,0.6,1,1,1c0.2,0.7,0.6,1,1,1c0.2,0.7,0.6,1,1,1c0.2,0.7,0.6,1,1,1
				c0.2,0.7,0.6,1,1,1c0.2,0.7,0.6,1,1,1c0.2,0.7,0.6,1,1,1c0.2,0.7,0.6,1,1,1c0.2,0.7,0.6,1,1,1c0.2,0.7,0.6,1,1,1
				c0.2,0.7,0.6,1,1,1c0.2,0.7,0.6,1,1,1c0.2,0.7,0.6,1,1,1c0.2,0.7,0.6,1,1,1c0.2,0.7,0.6,1,1,1c0.2,0.7,0.6,1,1,1
				c0.2,0.7,0.6,1,1,1c0.2,0.7,0.6,1,1,1c0.2,0.7,0.6,1,1,1c0.2,0.7,0.6,1,1,1c0.2,0.7,0.6,1,1,1c0.2,0.7,0.6,1,1,1
				c0.2,0.7,0.6,1,1,1c0.2,0.7,0.6,1,1,1c0.2,0.7,0.6,1,1,1c0.2,0.7,0.6,1,1,1c0.2,0.7,0.6,1,1,1c0.2,0.7,0.6,1,1,1
				c0.2,0.7,0.6,1,1,1c0.2,0.7,0.6,1,1,1c0.2,0.7,0.6,1,1,1c0.2,0.7,0.6,1,1,1c0.2,0.7,0.6,1,1,1c0.2,0.7,0.6,1,1,1
				c0.2,0.7,0.6,1,1,1c0.2,0.7,0.6,1,1,1c0.2,0.7,0.6,1,1,1c0.2,0.7,0.6,1,1,1c0.2,0.7,0.6,1,1,1c0.2,0.7,0.6,1,1,1
				c0.2,0.7,0.6,1,1,1c0.2,0.7,0.6,1,1,1c0.2,0.7,0.6,1,1,1c0.2,0.7,0.6,1,1,1c0.2,0.7,0.6,1,1,1c0.2,0.7,0.6,1,1,1
				c0.2,0.7,0.6,1,1,1c0.2,0.7,0.6,1,1,1c0.2,0.7,0.6,1,1,1c0.2,0.7,0.6,1,1,1c0.2,0.7,0.6,1,1,1c0.2,0.7,0.6,1,1,1
				c0.2,0.7,0.6,1,1,1c0.2,0.7,0.6,1,1,1c0.2,0.7,0.6,1,1,1c0.2,0.7,0.6,1,1,1c0.2,0.7,0.6,1,1,1c0.2,0.7,0.6,1,1,1
				c0.2,0.7,0.6,1,1,1c0.2,0.7,0.6,1,1,1c0.2,0.7,0.6,1,1,1c0.2,0.7,0.6,1,1,1c0.2,0.7,0.6,1,1,1c0.2,0.7,0.6,1,1,1
				c0.2,0.7,0.6,1,1,1c0.2,0.7,0.6,1,1,1c0.2,0.7,0.6,1,1,1c0.2,0.7,0.6,1,1,1c0.4,1.5,1.5,0.9,2.4,0.8c1.5-0.1,3.1-0.3,4.6-0.4
				c10.7-0.9,21.4-1.8,32.1-2.7c0.7-0.1,1.3-0.1,2-0.2c0,0,0,0,0,0c0.2,0.3,0.3,0.5,0.5,0.8c0.2,0,0.4,0.1,0.5,0.2
				c0.2,0.3,0.3,0.5,0.5,0.8c0.2,0,0.4,0.1,0.5,0.2c0.2,0.3,0.3,0.5,0.5,0.8c0.2,0,0.4,0.1,0.5,0.2c0.2,0.3,0.3,0.5,0.5,0.8
				c0.2,0,0.4,0.1,0.5,0.2c0.2,0.3,0.3,0.5,0.5,0.8c0.2,0,0.4,0.1,0.5,0.2c0.2,0.3,0.3,0.5,0.5,0.8c0.2,0,0.4,0.1,0.5,0.2
				c0.2,0.3,0.3,0.5,0.5,0.8c0.2,0,0.4,0.1,0.5,0.2c0.2,0.3,0.3,0.5,0.5,0.8c0.2,0,0.4,0.1,0.5,0.2c0.2,0.3,0.3,0.5,0.5,0.8
				c0.2,0,0.4,0.1,0.5,0.2c0.2,0.3,0.3,0.5,0.5,0.8c0.2,0,0.4,0.1,0.5,0.2c0.2,0.3,0.3,0.5,0.5,0.8c0.2,0,0.4,0.1,0.5,0.2
				c0.2,0.3,0.3,0.5,0.5,0.8c0.2,0,0.4,0.1,0.5,0.2c0.2,0.3,0.3,0.5,0.5,0.8c0.2,0,0.4,0.1,0.5,0.2c0.2,0.3,0.3,0.5,0.5,0.8
				c0.2,0,0.4,0.1,0.5,0.2c0.2,0.3,0.3,0.5,0.5,0.8c0.2,0,0.4,0.1,0.5,0.2c0.2,0.3,0.3,0.5,0.5,0.8c0.2,0,0.4,0.1,0.5,0.2
				c0.2,0.3,0.3,0.5,0.5,0.8c0.2,0,0.4,0.1,0.5,0.2c0.2,0.3,0.3,0.5,0.5,0.8c0.2,0,0.4,0.1,0.5,0.2c0.2,0.3,0.3,0.5,0.5,0.8
				c0.2,0,0.4,0.1,0.5,0.2c0.2,0.3,0.3,0.5,0.5,0.8c0.2,0,0.4,0.1,0.5,0.2c0.2,0.3,0.3,0.5,0.5,0.8c0.2,0,0.4,0.1,0.5,0.2
				c0.2,0.3,0.3,0.5,0.5,0.8c0.2,0,0.4,0.1,0.5,0.2c0.2,0.3,0.3,0.5,0.5,0.8c0.2,0,0.4,0.1,0.5,0.2c0.2,0.3,0.3,0.5,0.5,0.8
				c0.2,0,0.4,0.1,0.5,0.2c0.2,0.3,0.3,0.5,0.5,0.8c0.2,0,0.4,0.1,0.5,0.2c0.2,0.3,0.3,0.5,0.5,0.8c0.2,0,0.4,0.1,0.5,0.2
				c0.2,0.3,0.3,0.5,0.5,0.8c0.2,0,0.4,0.1,0.5,0.2c0.2,0.3,0.3,0.5,0.5,0.8c0.2,0,0.4,0.1,0.5,0.2c0.2,0.3,0.3,0.5,0.5,0.8
				c0.2,0,0.4,0.1,0.5,0.2c0.2,0.3,0.3,0.5,0.5,0.8c0.2,0,0.4,0.1,0.5,0.2c0.2,0.3,0.3,0.5,0.5,0.8c0.2,0,0.4,0.1,0.5,0.2
				c0.2,0.3,0.3,0.5,0.5,0.8c0.2,0,0.4,0.1,0.5,0.2c0.2,0.3,0.3,0.5,0.5,0.8c0.2,0,0.4,0.1,0.5,0.2c0.2,0.3,0.3,0.5,0.5,0.8
				c0.2,0,0.4,0.1,0.5,0.2c0.2,0.3,0.3,0.5,0.5,0.8c0.2,0,0.4,0.1,0.5,0.2c0.2,0.3,0.3,0.5,0.5,0.8c0.2,0,0.4,0.1,0.5,0.2
				c0.2,0.3,0.3,0.5,0.5,0.8c0.2,0,0.4,0.1,0.5,0.2c0.2,0.3,0.3,0.5,0.5,0.8c0.2,0,0.4,0.1,0.5,0.2c0.2,0.3,0.3,0.5,0.5,0.8
				c0.2,0,0.4,0.1,0.5,0.2c0.2,0.3,0.3,0.5,0.5,0.8c0.2,0,0.4,0.1,0.5,0.2c0.2,0.3,0.3,0.5,0.5,0.8c0.2,0,0.4,0.1,0.5,0.2
				c0.2,0.3,0.3,0.5,0.5,0.8c0.2,0,0.4,0.1,0.5,0.2c0.2,0.3,0.3,0.5,0.5,0.8c0.2,0,0.4,0.1,0.5,0.2c0.2,0.3,0.3,0.5,0.5,0.8
				c0.2,0,0.4,0.1,0.5,0.2c0.2,0.3,0.3,0.5,0.5,0.8c0.2,0,0.4,0.1,0.5,0.2c0.2,0.3,0.3,0.5,0.5,0.8c0.2,0,0.4,0.1,0.5,0.2
				c0.2,0.3,0.3,0.5,0.5,0.8c0.2,0,0.4,0.1,0.5,0.2c0.2,0.3,0.3,0.5,0.5,0.8c0.2,0,0.4,0.1,0.5,0.2c0.2,0.3,0.3,0.5,0.5,0.8
				c0.2,0,0.4,0.1,0.5,0.2c0.2,0.3,0.3,0.5,0.5,0.8c0.2,0,0.4,0.1,0.5,0.2c0.2,0.3,0.3,0.5,0.5,0.8c0.2,0,0.4,0.1,0.5,0.2
				c0.2,0.3,0.3,0.5,0.5,0.8c0.2,0,0.4,0.1,0.5,0.2c0.2,0.3,0.3,0.5,0.5,0.8c0.2,0,0.4,0.1,0.5,0.2c0.2,0.3,0.3,0.5,0.5,0.8
				c0.2,0,0.4,0.1,0.5,0.2c0.2,0.3,0.3,0.5,0.5,0.8c0.2,0,0.4,0.1,0.5,0.2c0.2,0.3,0.3,0.5,0.5,0.8c0.2,0,0.4,0.1,0.5,0.2
				c0.2,0.3,0.3,0.5,0.5,0.8c0.2,0,0.4,0.1,0.5,0.2c0.2,0.3,0.3,0.5,0.5,0.8c0.2,0,0.4,0.1,0.5,0.2c0.2,0.3,0.3,0.5,0.5,0.8
				c0.2,0,0.4,0.1,0.5,0.2c0.2,0.3,0.3,0.5,0.5,0.8c0.2,0,0.4,0.1,0.5,0.2c0.2,0.3,0.3,0.5,0.5,0.8c0.2,0,0.4,0.1,0.5,0.2
				c0.2,0.3,0.3,0.5,0.5,0.8c0.2,0,0.4,0.1,0.5,0.2c0.2,0.3,0.3,0.5,0.5,0.8c0.2,0,0.4,0.1,0.5,0.2c0.2,0.3,0.3,0.5,0.5,0.8
				c0.2,0,0.4,0.1,0.5,0.2c0.2,0.3,0.3,0.5,0.5,0.8c0.2,0,0.4,0.1,0.5,0.2c0.2,0.3,0.3,0.5,0.5,0.8c0.2,0,0.4,0.1,0.5,0.2
				c0.2,0.3,0.3,0.5,0.5,0.8c0.2,0,0.4,0.1,0.5,0.2c0.2,0.3,0.3,0.5,0.5,0.8c0.2,0,0.4,0.1,0.5,0.2c0.2,0.3,0.3,0.5,0.5,0.8
				c0.2,0,0.4,0.1,0.5,0.2c0.2,0.3,0.3,0.5,0.5,0.8c0.2,0,0.4,0.1,0.5,0.2c0.2,0.3,0.3,0.5,0.5,0.8c0.2,0,0.4,0.1,0.5,0.2
				c0.2,0.3,0.3,0.5,0.5,0.8c0.2,0,0.4,0.1,0.5,0.2c0.2,0.3,0.3,0.5,0.5,0.8c0.2,0,0.4,0.1,0.5,0.2c0.2,0.3,0.3,0.5,0.5,0.8
				c0.2,0,0.4,0.1,0.5,0.2c0.2,0.3,0.3,0.5,0.5,0.8c0.2,0,0.4,0.1,0.5,0.2c0.2,0.3,0.3,0.5,0.5,0.8c0.2,0,0.4,0.1,0.5,0.2
				c0.2,0.3,0.3,0.5,0.5,0.8c0.2,0,0.4,0.1,0.5,0.2c0.2,0.3,0.3,0.5,0.5,0.8c0.2,0,0.4,0.1,0.5,0.2c0.2,0.3,0.3,0.5,0.5,0.8
				c0.2,0,0.4,0.1,0.5,0.2c0.2,0.3,0.3,0.5,0.5,0.8c0.4,0.1,0.7,0.4,1.1,0.4c7.6-1.1,15.1-2.2,22.7-3.2c21.2-3,42.4-6,63.6-9
				c19.9-2.8,39.7-5.7,59.6-8.4c9.4-1.3,18.7-3.3,28.3-3.5c12.1,2.2,24.2,1.7,36.2-0.6c9.7-1.8,18.8-5.3,27.7-9.3
				c1.2-0.1,2.5-0.1,3.7-0.3c8.3-1.2,16.6-2.3,24.9-3.5c12.5-1.8,25-3.6,37.4-5.3c1.5-0.2,2.3-0.6,2.4-2.4
				c1.2-25.8,2.5-51.7,3.7-77.5c0.7-13.6,1.3-27.3,2-40.9c1-19.2,2-38.4,3-57.6c0.5-10.1,1.1-20.2,1.7-30.4
				c0.7-12.3,1.3-24.6,1.9-36.9C940.5,597.5,940.6,596.4,939.5,596.1z"/>
		</g>
	</g>
</g>
<g>
	<path class="st2" d="M638.8,296c1.9,0,1.7,1.3,1.7,2.6c-0.6,12.3-1.3,24.6-1.9,36.9c-0.5,10.1-1.1,20.2-1.7,30.4
		c-1,19.2-2,38.4-3,57.6c-0.7,13.6-1.3,27.3-2,40.9c-1.3,25.8-2.5,51.7-3.7,77.5c-0.1,1.8-0.8,2.2-2.4,2.4
		c-12.5,1.7-25,3.5-37.4,5.3c-8.3,1.2-16.6,2.4-24.9,3.5c-1.2,0.2-2.5,0.2-3.7,0.3c0.3-2,2.2-2.4,3.5-3.2
		c12.3-7.4,22.5-16.9,30.2-29c8.2-12.8,12.5-26.9,14.1-42c1.2-11.6,0.3-22.9-3.3-34c-2.9-8.8-7.6-16.5-14.2-23
		c-1.5-1.5-3.2-3-4.5-4.7c-1-1.7-2.6-2.9-4-4.3c-11.9-10.9-23.7-21.9-35.9-32.4c-6.5-5.6-13-11.2-19.5-16.8c-2-1.7-4.2-3-6.8-3.6
		c-31.8-7.1-61.3-2.3-87.7,17.5c-11.7,8.8-20.6,19.9-27.1,33c-0.7,1.5-1,3.5-3,4.1c-1-0.9-1.4-2.2-2.3-3.2c-0.3-1.8-2-2.3-3.1-3.4
		c-0.5-1.7,0.1-3.3,0.5-4.9c2-9.2,3.4-18.6,2.7-28c-0.9-12.7-2.3-25.4-9.1-36.7c-4.2-7-10-12.6-16.5-17.5c-1-0.7-2.9-1.3-1.6-3.2
		c3.5-1.5,7.3-1.3,11-1.5c16.7-1.1,33.4-2.7,50-4c16.8-1.3,33.6-2.7,50.4-4.1c13.8-1.2,27.6-2.2,41.4-3.4
		c13.8-1.2,27.6-2.2,41.4-3.4c11.7-1,23.5-1.9,35.2-2.8c11.1-0.8,22.2-1.7,33.4-2.8C636.1,296,637.4,296.3,638.8,296z"/>
	<path class="st3" d="M638.8,296c-1.5,1.4-3.5,1.2-5.2,1.3c-8.9,0.8-17.8,1.3-26.8,2c-11.3,0.9-22.5,2.3-33.8,2.9
		c-6.1,0.4-12.1,0.9-18.1,1.4c-9.4,0.7-18.8,1.6-28.2,2.4c-5.7,0.5-11.5,0.9-17.2,1.3c-9.4,0.8-18.8,1.6-28.2,2.4
		c-5.7,0.5-11.5,0.9-17.2,1.3c-9.8,0.6-19.7,1.5-29.5,2.4c-6.3,0.6-12.7,0.8-19.1,1.3c-8.7,0.7-17.4,1.8-26.1,2.3
		c-6,0.3-11.9,0.9-17.8,1.4c-1.3,0.8-2.4-0.1-3.4-0.7c-14.8-8-30.8-11.4-47.5-10.8c-7.6,0.3-14.9,2.2-22.1,4.3
		c-0.8,0.1-1.4-0.3-1.9-0.9c-2.1-2.9-5.1-5.1-7.2-8c-0.2-0.2-0.4-0.5-0.6-0.7c-9.3-9.6-18.1-19.6-27.2-29.3
		c-5.1-5.4-10.1-11-15.2-16.4c-0.9-0.9-1.6-1.9-2-3.1c-0.7-3,1.6-3,3.4-3.1c3.7-0.3,7.4-0.4,11.1-0.6c9.9-0.4,19.8-0.9,29.7-1.5
		c10-0.6,20-0.9,30-1.6c4.6-0.3,9.3-0.5,13.9-0.7c15.7-0.7,31.4-1.7,47.1-2.4c9.7-0.5,19.4-0.9,29.1-1.5c13.9-0.8,27.9-1.4,41.8-2.2
		c9.5-0.6,19-1,28.5-1.5c6.3-0.3,12.6-0.4,18.9-1c4.3-0.5,8.2,0.2,11.5,3.3c10.5,4.6,20.9,9.2,31.5,13.7
		c31.8,13.6,63.6,27.2,95.4,40.7C637.1,295.1,637.9,295.6,638.8,296z"/>
	<path class="st4" d="M277.2,504.1c-12.7,0.6-25.3,2-38,3.1c-10.7,0.9-21.4,1.8-32.1,2.7c-1.5,0.1-3.1,0.4-4.6,0.4
		c-0.9,0.1-2.2,0.6-2.4-1c-2-7.2-1.9-14.7-2.6-22.1c-1.1-11.3-2-22.6-2.9-34c-0.9-10.9-1.9-21.8-2.8-32.7
		c-0.9-10.8-1.9-21.6-2.8-32.4c-0.9-10.8-1.9-21.6-2.8-32.4c-1.1-13.4-2.2-26.8-3.4-40.2c-0.3-3.1-0.8-6.1-0.2-9.2
		c0.4-0.5,0.9-0.7,1.5-0.9c3.8-0.3,7.6,0,11.4-0.2c1.6-0.3,3.3-0.6,5-0.6c3.5,0,7,0.1,10.5-0.1c1.6-0.4,3.3-0.6,5-0.5
		c3.3,0,6.7,0.1,10,0c1.8-0.4,3.6-0.6,5.5-0.6c3.3,0,6.7,0.1,10,0c1.6-0.3,3.3-0.6,4.9-0.6c3.3,0,6.7,0.1,10,0
		c1.6-0.2,3.2-0.6,4.9-0.6c3.5,0,7,0.1,10.5-0.1c1.6-0.3,3.2-0.6,4.9-0.6c3.4,0.1,6.8,0,10.2,0c0.9,0,1.8-0.4,2.5,0.3l0.2-0.1
		c1.6,4,1,8.2,0.7,12.3c-0.3,0.9-1,1.6-1.8,2c-6.7,3.7-12.5,8.7-19.3,12.2c-5.2,2.6-10.5,4.6-16.1,6.1c-1.4,0.4-2.9,0.6-4-0.7
		c-0.4-0.5-0.7-1-1-1.6c-2.5-3.7-6-5-9.9-3.6s-6.5,5.3-6,9.5c0.3,3.2,1.9,5.7,4.9,7s5.9,0.6,8.5-1.3c0.8-0.6,1.5-1.4,2.3-2.1
		c0.5-0.4,1.1-0.7,1.7-0.8c9.1-0.7,16.7-5.1,24.3-9.6c4.5-2.7,9-5.5,13.5-8.3c1.1-0.7,2.4-2.1,3.7-0.1c0.2,8.4,1.6,16.8,0.7,25.3
		c-0.8,1.9-2.6,1.9-4.2,2c-6,0.5-11.1,3.1-15.6,6.9c-3.9,3.2-7.8,6.5-11.3,10.1c-1.8,1.8-3.8,3.5-6.2,4.6c-1.3,0.7-2.9,1.5-4.1-0.4
		c-0.2-1.1,0.3-2,0.5-3c1-4.9-1.6-9.4-6-10.4c-4.3-1-9,2-10.3,6.4c-1.3,4.6,1,9.2,5.4,10.8c0.7,0.2,1.4,0.3,2.1,0.5
		c1,0.3,1.8,1.1,2.5,1.7c5.3,4.5,9.7,4.4,14.9-0.2c3.5-3.2,6.7-6.7,10.1-10.1c5.7-5.6,12.7-7.9,20.3-8.7c1.1-0.1,2.1,0,2.5,1.3
		c0.3,0.8,0.3,1.6,0.3,2.5c-0.4,11.4,0.5,22.7,0.7,34.1c0.3,16.3,0.8,32.6,1.3,48.9c0.4,13.6,1,27.2,1.1,40.9
		c0,4.2,0.9,8.4,0.7,12.7c-0.2,3.7-0.6,4.5-4.2,4.8C287,504,282.1,505.3,277.2,504.1z"/>
	<path class="st2" d="M495.8,563.1c-9.5,0.2-18.9,2.2-28.3,3.5c-19.9,2.7-39.7,5.6-59.6,8.4c-21.2,3-42.4,6-63.6,9
		c-7.6,1.1-15.1,2.2-22.7,3.2c-0.3,0-0.7-0.2-1.1-0.4c-1-2.9-1.5-5.9-1.5-8.8c0-7-0.5-14-0.8-21.1c-0.5-12.7-0.8-25.4-1.7-38.1
		c-0.4-5.3-0.4-10.5-0.6-15.8c-0.4-12.3-1-24.6-1.5-36.8c-0.5-11.7-0.7-23.3-1.6-35c-0.4-5.1-0.5-10.3-0.6-15.5
		c-0.3-12.8-1.2-25.6-1.5-38.4c-0.1-5.3-1-10.5-0.2-15.8c0.9-2.1,2.5-1,3.7-0.6c9.1,2.7,17.3,7.3,25.2,12.4
		c6.3,4.1,11.7,9.2,16.7,14.7c7.8,8.7,11.5,19,11.7,30.6c0,3.1,0.2,6.2,0.9,9.2c0.2,0.9,0.4,1.8-0.1,2.7c-1.6,0.7-3.7,0.7-3.6,3.3
		c-0.9,5.5-0.4,11.2-1.2,16.7c-0.3,2.3,0.8,3.3,2.9,3.4c1.9,0.1,3.7,0.5,5.5,0.7c0.9,0.1,2,0.1,2.7,0.7c3.3,3.1,7.3,2.3,11.1,2.4
		c2,0,3.9-0.2,5.9,0.3c1.5,0.6,1.3,1.9,1.4,3.1c0.4,3.2,0.8,6.4,1,9.5c0.2,3.2,1.7,5.6,3.9,7.7c11.9,11.4,22.9,23.6,34.5,35.2
		c4.8,4.8,9.4,9.9,14.3,14.6c2,1.7,3.2,3.9,4.6,6.1c10,14.9,24.1,23.4,41.4,27.1C494.1,562,495.5,561.6,495.8,563.1z"/>
	<path class="st5" d="M509.4,240.3c-8.3-4.3-16.9-1.6-25.4-1.4c-4.3,0.1-8.6,0.2-13,0.6c-10.4,0.8-20.8,0.8-31.2,1.4
		c-12.2,0.8-24.5,1.3-36.7,1.9c-7.7,0.4-15.4,0.8-23.1,1.2c-12.1,0.7-24.3,1.3-36.4,1.9c-7.8,0.4-15.6,0.9-23.4,1.2
		c-12.1,0.6-24.3,1.2-36.4,1.9c-7.9,0.4-15.8,0.8-23.8,1.3c-4.2,0.3-8.4,0.5-12.7,0.5c-2.6,0-2.9,1.1-1.7,3.1
		c-7.1-2.5-14.1-0.1-21.2,0c-1.7,0-3.5,0.7-5-0.7c0-7.8,0.1-15.5,0-23.3c0-2.1,0.5-2.8,2.7-2.9c17.3-0.7,34.7-1.6,52-2.5
		c16.6-0.8,33.2-1.6,49.8-2.5c21.3-1,42.5-2.1,63.8-3.1c16.6-0.8,33.2-1.6,49.8-2.5c21.3-1,42.5-2.1,63.8-3.1
		c2.6-0.1,5.9-1.7,7.7,0.1c1.6,1.6,0.4,4.9,0.4,7.5C509.5,227.5,509.4,233.9,509.4,240.3z"/>
	<path class="st6" d="M219.4,253.3c6.6-0.4,13.2-0.6,19.7-1.5c2.9-0.4,4.7,0.4,6.5,2.1c8.8,9.6,17.6,19.1,26.4,28.7
		c5.8,6.4,11.6,12.8,17.5,19.2c-0.6,0.2-1.1,0.4-1.7,0.5c-3.7-0.5-7.4-0.5-11.2,0c-1.5-0.2-2.9,0.3-4.4,0.6c-3.7-0.5-7.4-0.5-11.1,0
		c-1.5,0.2-2.9,0.4-4.4,0.6c-3.5-0.5-7-0.5-10.5,0c-1.5-0.2-2.9,0.3-4.4,0.6c-3.5-0.5-7-0.5-10.5,0c-1.7-0.1-3.4,0.1-5,0.6
		c-3.5-0.5-7-0.5-10.5,0c-1.5,0.1-3-0.2-4.4,0.6c-3.7-0.5-7.4-0.5-11.2,0c-1.5-0.2-2.9,0.3-4.4,0.6c-3.9-0.5-7.9-0.5-11.8,0
		c-0.4,0-0.8,0-1.2,0c-2.4-2.4-3.5-5.6-4.8-8.6c-5.2-11.3-10.6-22.4-15.7-33.7c-0.7-1.6-1.4-3.2-1.8-4.9c4.2-2,8.8-1.3,13.3-1.7
		c11.5-1.2,23-2.1,34.5-3C212,253.8,215.7,253.6,219.4,253.3z"/>
	<path class="st5" d="M311.3,361c0.4,13.4,0.7,26.8,1.3,40.2c0.5,9.7,0.8,19.4,1.2,29c0.4,10,0.8,20,1.3,30c0.4,9.7,0.8,19.4,1.2,29
		c0.4,9.8,0.8,19.6,1.2,29.4c0.4,9.7,0.8,19.4,1.2,29c0.4,10.2,1,20.4,1.3,30.6c0.1,2.9,0.6,5.7,0.5,8.6c-5.2-8.8-9.6-18-14.4-27
		c-9.7-18.6-19.4-37.2-29.1-55.7c5.3-0.6,10.6-1.2,15.9-1.6c1.6-0.1,2.1-0.7,2.1-2.3c-0.4-10.3-0.7-20.6-1.1-30.9
		c0-0.6-0.1-1.2-0.1-1.9c-0.3-12.9-0.4-25.8-0.8-38.7c-0.5-15.2-0.8-30.3-1.3-45.5c-0.3-8.1-0.3-16.1-0.5-24.1
		c0.1-0.1,0.1-0.2,0.2-0.2C295.4,356.9,308.1,358.2,311.3,361z"/>
	<path class="st7" d="M495.8,563.1c-8-1.6-15.8-3.9-23-7.9c-8.9-5.1-16.5-11.6-21.9-20.5c1.2-0.5,2,0.4,2.6,1.1
		c7.9,8.3,17.8,12,29,13.1c0.7,0.1,1.4,0.4,2.1,0.3c3.1,0.1,6.1,0,9.2,0.1c15.3-1.1,29.6-5.4,43.5-11.8c10.7-5,20.5-11.2,29.1-19.3
		c8.7-8.1,15.4-17.8,20.2-28.8c3-7,5.2-14.2,6.7-21.6c0.9-4.1,1.3-8.3,1.5-12.5c0.3-8.9-1.1-17.6-5.1-25.6
		c-5.3-10.8-13.9-17.7-25.1-21.8c-9.6-3.5-19.4-4.7-29.5-4.7c-1.8,0-3.8,0.5-5.4-0.8c0.3-1.6,1.6-1.4,2.7-1.4
		c15.9-0.6,31.3,1.6,45.4,9.6c1.2,0.7,2.3,1.4,3.3,2.2c1.5,1.4,3.1,2.6,4.5,4c6.7,6.5,12.9,13.4,16.7,22.1c5.5,12.5,7.1,25.5,5.9,39
		c-0.9,10.2-3,19.9-6.9,29.4c-7.6,18.7-20.4,32.8-37.4,43.3c-1.5,0.9-2.9,1.9-4.4,2.8c-8.9,4-18.1,7.4-27.7,9.3
		C520,564.9,507.9,565.3,495.8,563.1z"/>
	<path class="st8" d="M160.5,258.9c4.3,8.9,8.6,17.8,12.8,26.8c3.2,6.8,6.3,13.7,9.5,20.5c0.8,9.5,1.6,19.1,2.4,28.6
		c1,11,2.1,21.9,3,32.9c0.7,8.5,1.2,17,1.9,25.5c0.9,10.9,2,21.7,3,32.6c0.5,5.9,0.8,11.9,1.3,17.9c0.7,8.5,1.7,17,2.3,25.5
		c0.4,5.2,0.8,10.5,1.3,15.7c0.8,7.3,1.3,14.5,1.9,21.8c0.1,0.9,0,1.9-0.1,2.8c-3.1-7-5.1-14.4-7.5-21.6c-6-17.7-11.9-35.4-18-53.1
		c-1-3-1.4-6-1.6-9.1c-1.3-16.2-2.5-32.4-3.7-48.7c-0.7-9.7-1.3-19.3-2-29c-0.9-12.4-2-24.8-3-37.3c-0.5-6.6-0.9-13.2-1.4-19.7
		c-0.8-10-1.6-19.9-2.4-29.9C160.4,260.3,160.5,259.6,160.5,258.9z"/>
	<path class="st9" d="M581.5,413.6c-9.2-5.9-19.3-9.6-30.2-11c-7.1-0.9-14.3-1.6-21.4-0.3c-2.2,1.6-4.8,1-7.2,1.5
		c-3.9,0.7-7.8,1.2-11.5,2.3c-5.1,1.2-10,3.1-14.9,5c-8.8,3.4-16.5,8.6-23.5,14.7c-9.8,8.5-17.4,18.7-22.8,30.6
		c-1.6,3.9-3.2,7.8-4.5,11.8c-2.9,9-4.7,18.3-5.1,27.7c-0.4,10,1.2,19.8,5.6,29c0.6,1.3,1.9,2.6,0.8,4.3
		c-5.4-4.8-10.1-10.2-15.2-15.4c-11.7-12.2-23.6-24.3-35.6-36.2c-2.3-2.3-2-5.1-2.5-7.7c-0.6-3.5-0.5-7.2-0.8-10.8
		c1.5-3.4,4.2-4.4,7.8-4.2c3.5,0.3,7,0.1,10.6,0c2,0,3.5-0.6,3.6-2.9c0.1-2.2-1.1-3.7-3.5-3.9c-3-0.2-6-0.3-9,0
		c-4.3,0.4-7.5-0.6-8.7-5.2c-0.5-1.7-0.6-3.3,0.9-4.7c3.5-1.2,6.9,0.3,10.4,0.2c0.8,0,1.6,0.3,2.5,0.3c2.6,0,3.5-0.9,2.9-3.4
		c-0.7-3-1-5.9-0.2-8.9c0.5-1.8-0.4-2.3-2.2-2.2c-6.2,0.3-8.4-2.5-6.9-8.6c0.1-0.3,0.3-0.5,0.6-0.7c3.8-7.2,7.6-14.4,12.7-20.8
		c14.6-18.3,33.3-29.9,56.1-35c9.1-2.1,18.3-3,27.6-2.5c7.7,0.4,15.3,1.5,22.8,3.4c3.9,1,6.5,4,9.3,6.4c8.6,7.3,17,15,25.7,22.3
		c8.6,7.3,16.6,15.2,25,22.7c0.5,0.5,0.9,1.1,1.4,1.6C582.3,413.5,582.1,413.8,581.5,413.6z"/>
	<path class="st9" d="M290.2,322.3c-2.6,0.8-4.6,2.7-6.9,4.1c-5.6,3.5-11.3,6.9-17.1,10c-5.7,3.1-11.8,4.9-18.2,5.7
		c-3.1,1.3-6.6,0.5-9-2c-2.2-2.3-1.8-4.6,1-6c1.8-0.9,3.8-1.1,5.8-0.8c1.2,0.2,2.5,0.3,3.7,0.3c1.1,0.7,2.2,0.2,3.3,0
		c10.3-2.5,19.4-7.3,27.8-13.5c2.8-2.1,5.8-3.9,9-5.4c2.3-2.1,4.8-3.8,8.2-3.7c10.4-3.9,21.2-5.7,32.2-4.8
		c14,1.1,27.5,4.2,39.7,11.6c0.6,0.4,1.3,0.5,2,0.8c3.5,3,7.3,5.7,10.7,8.9c10.4,9.9,14.9,22.5,16.8,36.3c0.8,6,1.3,12.1,1.2,18.2
		c-0.2,8.5-1.7,16.8-3.5,25c-0.1,0.6-0.1,1.2-0.2,1.8c0.2,2-1.2,2.7-2.8,3c-2.5,0.4-5,0.5-6.4-2.3c-0.3-1.7,0.4-3.3,0.8-4.9
		c3.5-14.2,4.1-28.6,2.4-43.1c-1.4-12.2-7.9-21.6-16.6-29.6c-5.2-4.8-11.1-8.7-17.6-11.5c-11.2-5.1-22.9-7.3-35.3-6.1
		c-5.8,0.5-11.4,1.7-17,3.3C299.2,318.5,294.9,321.1,290.2,322.3z"/>
	<path class="st10" d="M393.9,442.7c1,0.3,1.8,1,1.8,1.9c-0.1,2.6,1.6,2.5,3.4,2.5c4.2-0.1,8.5,0,12.7,0c2.6,0,4,1.7,3.9,4.7
		c-0.1,2.4-0.6,4.1-3.7,4c-4.5-0.2-9.1,0-13.6-0.1c-1.5,0-3.1-0.4-3.3,2c-0.1,1.1-1.3,1.1-2.3,1.2c-4.5,0-9.1-0.1-13.6-0.1
		c-1.2,0-2.4,0.2-2.9-1.5c-0.5-1.6-2.2-1.2-3.5-1.5c-2.6-0.5-5.3-0.7-7.9-1.1c-1-0.1-2.1-0.2-1.9-1.8c0.5-6.5,0.9-12.9,1.4-19.4
		c0-0.2,0.3-0.3,0.4-0.4c1.2,0,1.7,1.1,2.5,1.7c2.2,1.7,4.5,2.5,7.3,1.9c3.4-0.7,4.7-2.7,4.6-6.6c0.6-5.8,0.7-11.6,1.5-17.4
		c0.2-1.4,0.4-2.9,2.1-3.4c1.2,0,1.7,0.9,2.4,1.7c3.8,4.1,7.3,4.6,12,1.6c0.7-0.5,1.3-1.3,2.4-1.1c1.8,0.3,1.8,1.8,2,3.1
		c0.2,2.4,0.4,4.7,0.5,7.1c0.1,1.4,0.8,1.7,2,1.7c1.7,0,3.3-0.1,4.9-0.6c2-0.6,2.8,0.3,2.3,2.2c-1,3.7-1,7.2,0,10.9
		c0.7,2.5-0.6,3.7-3.2,3.5c-4.5-0.4-9-0.7-13.5-1.1c-2.5-2.9-5.8-3-9.3-3c-1.9,0-2.3,0.8-2.2,2.4c0.3,4.3,1.1,5,5.4,4.4
		C390.3,442.1,392.2,441.5,393.9,442.7z"/>
	<path class="st11" d="M399.5,411.7c-5.8,5.8-12.3,5-16.2-1.8c-0.6-1.3,0.1-1.9,1.1-2.2c1.5-0.4,2.4,0.6,3.2,1.7
		c3.3,2.8,6.4,2.6,8.8-0.6C399,408.2,399.7,409.5,399.5,411.7z"/>
	<path class="st12" d="M581.5,413.6c0.2-0.2,0.4-0.4,0.7-0.6c1.5,1,2.8,2.2,3.7,3.8C584.1,416.1,582.8,414.9,581.5,413.6z"/>
	<path class="st13" d="M297.7,311c-2.7,1.2-5.5,2.5-8.2,3.7c0-4.3,0.1-8.6,0.1-13C292.1,305,295.6,307.4,297.7,311z"/>
	<path class="st14" d="M311.3,361c-6.5-2-13.2-2.4-19.9-1.9c-9.4,0.7-17.7,3.7-24.1,11.1c-2.2,2.6-4.7,5-7.2,7.3
		c-6.1,5.6-11.4,5.4-17.3-0.5c-0.3-0.3-0.6-0.5-0.9-0.8c-2.8-2.2-3.2-5.4-3.4-8.6c-0.1-1.8,0.6-3.5,2.4-4.3c1.9-0.9,3.6-0.5,5.2,0.7
		c2.5,1.8,3.4,4.5,4.2,7.4c2.2,1.5,3.8-0.1,5.2-1.3c4.1-3.3,7.9-7,11.9-10.5c4.9-4.3,10-8.5,16.7-9.7c2.2-0.4,4.5-0.6,6.7-1
		c1.6-1.3,3.6-0.9,5.4-0.8c4.8,0.1,9.5,0.7,14.1,1.8c17,3.4,32.6,10.1,45.8,21.6c13,11.2,19.3,26,21.8,42.7c0.9,6,1.4,11.9-0.8,17.8
		c-1.2,2.3-3.4,2.6-5.6,2.2c-1.6-0.3-3-1-2.9-3c-1.6-6.6-1.2-13.3-2.1-20c-1.1-8.3-4.8-15.6-10.3-21.8
		C344.1,375.6,329,366.2,311.3,361z"/>
	<path class="st5" d="M310.7,350.7c-6.6-1.1-13.1-1.9-19.8-1.7c-0.2-8.9-0.4-17.8-0.7-26.6c3.9-2.8,8.6-3.9,13.1-5.5
		c3,2,5.8,4.1,7,7.7c1.1,7.2,0.4,14.6,1.3,21.8C311.8,347.8,311.9,349.4,310.7,350.7z"/>
	<path class="st15" d="M249.4,333.7c-0.4,0.8-1.1,0.9-1.8,0.8s-1.4-0.3-2.1-0.4c-3.5-0.5-7.2,1-7.4,3c-0.2,1.9,3.3,4.5,6.5,4.8
		c1.1,0.1,2.3,0.1,3.4,0.1c-3.1,4.1-7.3,5.4-11.3,3.7c-3.8-1.6-6-5.8-5.4-10.2c0.7-4.2,4.3-7.8,8.5-8.3
		C244.2,326.8,247.6,329,249.4,333.7z"/>
	<path class="st16" d="M250.4,371.3c-1.4-0.6-1.5-2.1-2-3.3c-0.6-1.6-1.4-3-2.9-3.8c-3.2-1.7-6.1-0.1-6.2,3.6
		c-0.1,3.1,1.5,5.7,2.6,8.4c-4.4-0.2-7.5-2.6-8.6-6.6c-1.1-3.9,0.6-8.5,4.1-10.9c3.3-2.3,7.6-2.3,10.7,0.1c3.3,2.5,4.4,6.7,3,10.8
		C250.9,370.2,250.6,370.8,250.4,371.3z"/>
	<path class="st17" d="M184,306.1c3.9-1,7.9-1,11.8,0C191.9,306.1,187.9,306.1,184,306.1z"/>
	<path class="st18" d="M261,303c3.7-1,7.4-1,11.1,0C268.5,303,264.7,303,261,303z"/>
	<path class="st19" d="M276.6,302.4c3.7-1,7.4-1,11.2,0C284,302.4,280.3,302.4,276.6,302.4z"/>
	<path class="st17" d="M200.2,305.5c3.7-1,7.4-1,11.2,0C207.6,305.5,203.9,305.5,200.2,305.5z"/>
	<path class="st20" d="M231.2,304.3c3.5-1,7-1,10.5,0C238.2,304.3,234.7,304.3,231.2,304.3z"/>
	<path class="st21" d="M246.1,303.6c3.5-1,7-1,10.5,0C253.1,303.6,249.6,303.6,246.1,303.6z"/>
	<path class="st22" d="M215.7,304.9c3.5-1,7-1,10.5,0C222.7,304.9,219.2,304.9,215.7,304.9z"/>
	<path class="st23" d="M446.7,529.1c-1.7-4.9-4.3-9.5-5.5-14.7c-3.3-14.5-1.7-28.7,2.3-42.8c0.4-1.4,0.5-2.8,1.4-4
		c1.4-1.2,3.1-1,4.7-1c9.1,0,18.1,0,27.2,0c2.5,0,4.9-0.1,7.4-0.5c1.6,0.9,1.2,2.5,1,3.8c-0.5,2.4,0.1,3.8,2.8,3.7
		c0.9,0,1.8,0.1,2.5,0.9c0.8,2.9,0.1,5.8-0.1,8.6c-1.2,14-2.3,28-3.4,42c-0.5,6.5-1.2,13-1.5,19.5c-0.1,1.9-0.1,3.9-1.5,5.6
		c-2.8-0.5-5.7-0.8-8.5-1.4c-8.7-2-16.5-5.8-22.7-12.5c-0.5-0.6-1.3-1-1.9-1.5C449.4,533,448.6,530.6,446.7,529.1z"/>
	<path class="st24" d="M368.6,431.2c2.5,3.2,5.3,3.4,8,0.6c0.8-1.1,1.7-1.9,3.1-0.6c0.8,3.1-1.9,6.2-5.8,6.6c-4,0.4-7-1.3-9.2-4.5
		C364.5,429.8,366.4,430.1,368.6,431.2z"/>
	<path class="st25" d="M496.1,219.2c2.8,0,5.2,2.5,5.3,5.4c0.1,3.1-2.4,5.7-5.3,5.8c-2.8,0-5.2-2.5-5.3-5.4
		C490.8,221.9,493.2,219.2,496.1,219.2z"/>
	<path class="st26" d="M234.6,231.6c2.9,0,5.4,2.7,5.3,5.7c-0.1,2.9-2.5,5.4-5.3,5.4c-2.9,0-5.4-2.7-5.3-5.7
		C229.4,234.1,231.9,231.6,234.6,231.6z"/>
	<path class="st23" d="M594,468.3c-1.8,11.3-5.9,21.9-11.8,31.7c-11.3,19-28.2,31.2-48.2,39.9c-10.5,4.5-21.3,7.7-32.5,9.5
		c-2.3,0.4-4.7,0.5-7,0.8c-0.5-1.1-0.4-2.2-0.2-3.4c1.7-15.8,3.4-31.7,5.2-47.5c0.8-6.8,1.4-13.6,2.2-20.4c0.2-1.4,0.2-2.9,1.3-4
		c3.3-1.2,5.1-3,6.9-6.5c0.3-0.6,0.7-1,1.2-1.3c5.7-0.9,11.5-0.6,17.3-0.2c2.2,0.1,4.3,0.4,6.5,0.3c18.1,0,36.1,0,54.2,0
		C590.7,467.3,592.6,466.9,594,468.3z"/>
	<path class="st23" d="M510.7,405.5c6.2-2.1,12.7-2.8,19.2-3.1c9.4-0.1,18.8,0.2,27.9,2.5c14.8,3.8,26.8,11.3,33.4,25.7
		c3.6,7.8,5,16.1,4.6,24.7c-1.5,1.3-3.3,0.9-5,0.9c-17.2,0-34.5-0.1-51.7,0.1c-7.6,0.1-15.2,0.9-22.9,0.6c-1.5-0.1-3.1,0.1-4.6-0.6
		c-1.3-1.1-1.1-2.6-0.9-4c0.4-2.3-0.7-3-2.7-2.9c-3.2,0-6.4,0.1-9.6-0.1c-1.2,0-2.8,0.3-3.3-1.5c2-1.6,4.4-0.9,6.6-0.9
		c2.5,0,3.6-0.8,3.9-3.5c1.2-11,2.4-22,3.6-33C509.4,408.7,509.5,406.9,510.7,405.5z"/>
	<path class="st10" d="M511.5,455.9c28.1-0.7,56.2-0.8,84.3-0.6c-0.3,4.4-0.3,8.8-1.8,13.1c-17.7,0-35.3-0.1-53-0.1
		c-10.1,0-20.2-1-30.3-0.6C509,463.6,509.9,459.7,511.5,455.9z"/>
	<path class="st10" d="M503.3,475.1c-0.6,5-1.3,10-1.8,14.9c-1,8.9-2,17.7-3,26.6c-0.7,6.6-1.2,13.3-2,19.9
		c-0.6,4.6-0.6,9.2-1.8,13.7c-3.5,0-7,0-10.5,0c0.8-9.1,1.6-18.2,2.3-27.3c0.4-5.5,0.8-11.1,1.3-16.6c1-10.5,1.7-21.1,2.6-31.7
		C494.7,472.9,499,472.8,503.3,475.1z"/>
	<path class="st23" d="M449.4,455.9c9.5-20.6,24.8-35.5,45.3-45c0.4-0.2,0.8-0.2,1.2-0.3c0.8,3.8-0.3,7.6-0.5,11.3
		c-0.5,7.1-1,14.1-1.6,21.2c-0.2,1.6-0.2,3.3-1.2,4.7c-4.5,0.3-6.5,2.9-6.6,7.3c0,0.5-0.4,0.9-0.9,1.2c-1.3,0.6-2.6,0.5-4,0.5
		c-9.1,0-18.1,0-27.2,0C452.2,456.8,450.6,457,449.4,455.9z"/>
	<path class="st10" d="M492.1,447.7c0.9-7.3,1.2-14.7,1.9-22c0.5-5.1,0.2-10.2,1.8-15.2c4.8-2.2,9.7-4,14.9-5.1
		c-1.2,10.7-2.4,21.3-3.6,32c-0.3,2.6-0.6,5.3-0.7,8c0,1.7-0.6,2.4-2.4,2.3c-3-0.1-6,0-9,0.1C494.1,448.6,493.1,448.6,492.1,447.7z"
		/>
	<path class="st10" d="M449.4,455.9c11.9,0,23.9,0,35.8,0c1.7,3.6,0.6,7.1-0.7,10.5c-0.8,1.5-2.2,1.3-3.5,1.3c-12,0-24.1,0-36.1,0
		C445.9,463.5,447.6,459.7,449.4,455.9z"/>
	<path class="st2" d="M393.9,442.7c-3,0.2-5.9,0.4-8.9,0.7c-1.4,0.1-2.2-0.1-2.4-1.9c-0.9-7.6-1-7.5,6.6-6.7
		c2.6,0.3,4.7,0.9,5.3,3.7C393.7,439.8,394,441.3,393.9,442.7z"/>
	<path class="st27" d="M379.7,431.1c-1.2-0.4-2.1,0.3-3.1,0.6c2.9-12.7-0.1-24.8-4.6-36.5c-6.7-17.3-20-28.2-36.2-36.1
		c-8-3.9-16.5-6.6-25.2-8.5c-0.4-9-0.8-18.1-1.2-27.1c1.4-1.3,3.3-1.3,5-1.4c12.7-1,25.4-2,38-3.1c1.5-0.1,2.9,0.2,4.2,0.7
		c10.2,4.3,18.5,11,25.3,19.7c7.1,8.9,9.7,19.3,10.1,30.5c0.4,13.4-0.7,26.5-4.4,39.4c-1.5-0.3-3.3-3.1-4.3,0.5
		c-1.7,0-1.8,1.2-1.9,2.6C380.9,418.7,380.3,424.9,379.7,431.1z"/>
	<path class="st28" d="M356.7,319.8c-9.8,0.8-19.6,1.6-29.4,2.4c-5.9,0.5-11.9,0.9-17.8,1.3c-2.1-2.3-4.1-4.5-6.2-6.8
		c8.7-2.6,17.6-4.2,26.8-3.7C339.3,313.5,348.4,315.2,356.7,319.8z"/>
	<path class="st29" d="M484.5,466.3c0.2-3.5,0.4-7,0.7-10.5c0-0.4,0.1-0.8,0.1-1.2c0.4-6.6,0.4-6.6,6.8-6.9c1,0,2,0.1,3,0.1
		c4.3,0.9,8.7,0.4,13.1,0.5c4,0.1,4,0,3.4,3.9c-0.2,1.2-0.1,2.4-0.2,3.7c-0.3,3.9-0.5,7.8-0.8,11.8c-0.2,0.9-0.4,1.8-0.5,2.7
		c-0.4,4.7-0.4,4.7-5.1,4.7c-0.6,0-1.2,0-1.8,0.1c-4.3-0.7-8.7-0.6-13-0.6c-6.1-0.4-6.1-0.4-5.7-6.4
		C484.6,467.6,484.5,467,484.5,466.3z"/>
	<path class="st30" d="M529.4,462c-0.4,1.6-1.2,2.6-2.8,2.4c-1.4-0.2-2.2-1.1-2.1-2.6c0.1-1.4,1-2.3,2.4-2.3
		C528.5,459.6,529.1,460.7,529.4,462z"/>
	<path class="st30" d="M552.9,459.5c1.5,0.2,2.5,1,2.5,2.6c0,1.4-1,2.3-2.4,2.3c-1.6,0-2.5-1-2.5-2.5
		C550.5,460.5,551.5,459.8,552.9,459.5z"/>
	<path class="st30" d="M577.8,464.5c-1.5-0.2-2.5-1.1-2.4-2.6c0.1-1.4,1-2.3,2.4-2.3c1.5,0,2.5,1,2.4,2.6
		C580.2,463.6,579.2,464.3,577.8,464.5z"/>
	<path class="st30" d="M498.3,486.2c-0.2,1.5-1,2.5-2.5,2.5c-1.4,0-2.3-0.9-2.4-2.3s0.8-2.4,2.2-2.5
		C497.1,483.7,498,484.7,498.3,486.2z"/>
	<path class="st31" d="M495.8,507.8c-0.1,1.4-0.8,2.4-2.2,2.6c-1.5,0.2-2.6-0.7-2.7-2.3c-0.1-1.6,0.9-2.5,2.4-2.6
		C494.7,505.5,495.5,506.5,495.8,507.8z"/>
	<path class="st30" d="M493.3,531.7c-0.3,1.4-1.1,2.3-2.5,2.3c-1.5,0-2.5-1-2.5-2.5c0-1.4,1-2.3,2.4-2.3
		C492.3,529.2,493.2,530.2,493.3,531.7z"/>
	<path class="st30" d="M501.4,419.8c-1.4-0.2-2.4-1-2.4-2.4c0-1.6,1-2.5,2.5-2.5c1.4,0,2.3,1,2.4,2.4
		C503.9,418.8,502.8,419.6,501.4,419.8z"/>
	<path class="st31" d="M502.7,435.9c-0.2,1.5-1,2.5-2.6,2.5c-1.4,0-2.3-1-2.4-2.3c-0.1-1.4,0.8-2.4,2.2-2.5
		C501.5,433.4,502.3,434.4,502.7,435.9z"/>
	<path class="st31" d="M456.7,462.1c-0.3,1.5-1.1,2.5-2.7,2.4c-1.4-0.1-2.3-1.1-2.2-2.5c0-1.4,0.9-2.3,2.3-2.4
		C455.7,459.6,456.5,460.6,456.7,462.1z"/>
	<path class="st31" d="M475.9,462.1c-0.3,1.5-1.1,2.5-2.7,2.4c-1.4-0.1-2.3-1-2.2-2.5c0-1.4,0.9-2.3,2.3-2.4
		C474.9,459.5,475.7,460.6,475.9,462.1z"/>
	<path class="st32" d="M497.8,472.6c-6.3-0.1-11.4-5.3-11.3-11.5s5.4-11,11.8-10.9c6.1,0.1,11.2,5.2,11.1,11.3
		C509.4,467.7,504.2,472.7,497.8,472.6z"/>
</g>
</svg>
