<?xml version="1.0" encoding="utf-8"?>
<!-- Generator: Adobe Illustrator 24.1.2, SVG Export Plug-In . SVG Version: 6.00 Build 0)  -->
<svg version="1.1" id="Layer_1" xmlns="http://www.w3.org/2000/svg" xmlns:xlink="http://www.w3.org/1999/xlink" x="0px" y="0px"
	 viewBox="0 0 800 800" style="enable-background:new 0 0 800 800;" xml:space="preserve">
<style type="text/css">
	.st0{fill:#333333;}
	.st1{clip-path:url(#SVGID_2_);}
	.st2{fill:#1D1D1B;}
	.st3{fill:#20AA63;}
	.st4{fill:#FEFDF3;}
	.st5{fill:#707273;}
	.st6{fill:#4C73B1;}
	.st7{fill:#FEFEFB;}
	.st8{fill:#FEFEFA;}
	.st9{fill:#FEFEFC;}
	.st10{fill:#2B5EAE;}
	.st11{fill:#FCDF9A;}
	.st12{fill:#E24F36;}
	.st13{fill:#FDFDFE;}
	.st14{fill:#FDFEFD;}
	.st15{fill:#FDFDF8;}
</style>
<g id="Layer_2_3_">
	<g id="Layer_2_4_">
		<g>
			<circle class="st0" cx="400" cy="400" r="400"/>
		</g>
	</g>
</g>
<g>
	<defs>
		<circle id="SVGID_1_" cx="400" cy="400" r="400"/>
	</defs>
	<clipPath id="SVGID_2_">
		<use xlink:href="#SVGID_1_"  style="overflow:visible;"/>
	</clipPath>
	<g class="st1">
		<g>
			<path class="st2" d="M824.9,400.2c-0.2-2.5-0.2-5.1-0.7-7.6c-1.3-6.3-3.6-12.2-6.7-17.7c-2.9-5-6.4-9.5-10.5-13.5
				c-0.3-0.3-0.7-0.7-1-1c-0.3-0.3-0.7-0.7-1-1c-0.3-0.3-0.7-0.7-1-1c-0.3-0.3-0.7-0.7-1-1c-0.3-0.3-0.7-0.7-1-1
				c-0.3-0.3-0.7-0.7-1-1c-0.3-0.3-0.7-0.7-1-1c-0.3-0.3-0.7-0.7-1-1c-0.3-0.3-0.7-0.7-1-1c-0.3-0.3-0.7-0.7-1-1
				c-0.3-0.3-0.7-0.7-1-1c-0.3-0.3-0.7-0.7-1-1c-0.3-0.3-0.7-0.7-1-1c-0.3-0.3-0.7-0.7-1-1c-0.3-0.3-0.7-0.7-1-1
				c-0.3-0.3-0.7-0.7-1-1c-0.3-0.3-0.7-0.7-1-1c-0.3-0.3-0.7-0.7-1-1c-0.3-0.3-0.7-0.7-1-1c-0.3-0.3-0.7-0.7-1-1
				c-0.3-0.3-0.7-0.7-1-1c-0.3-0.3-0.7-0.7-1-1c-0.3-0.3-0.7-0.7-1-1c-0.3-0.3-0.7-0.7-1-1c-0.3-0.3-0.7-0.7-1-1
				c-0.3-0.3-0.7-0.7-1-1c-0.3-0.3-0.7-0.7-1-1c-0.3-0.3-0.7-0.7-1-1c-0.3-0.3-0.7-0.7-1-1c-0.3-0.3-0.7-0.7-1-1
				c-0.3-0.3-0.7-0.7-1-1c-0.3-0.3-0.7-0.7-1-1c-0.3-0.3-0.7-0.7-1-1c-0.3-0.3-0.7-0.7-1-1c-0.3-0.3-0.7-0.7-1-1
				c-0.3-0.3-0.7-0.7-1-1c-0.3-0.3-0.7-0.7-1-1c-0.3-0.3-0.7-0.7-1-1c-0.3-0.3-0.7-0.7-1-1c-0.3-0.3-0.7-0.7-1-1
				c-0.3-0.3-0.7-0.7-1-1c-0.3-0.3-0.7-0.7-1-1c-0.3-0.3-0.7-0.7-1-1c-0.3-0.3-0.7-0.7-1-1c-0.3-0.3-0.7-0.7-1-1
				c-0.3-0.3-0.7-0.7-1-1c-0.3-0.3-0.7-0.7-1-1c-0.3-0.3-0.7-0.7-1-1c-0.3-0.3-0.7-0.7-1-1c-0.3-0.3-0.7-0.7-1-1
				c-0.3-0.3-0.7-0.7-1-1c-0.3-0.3-0.7-0.7-1-1c-0.3-0.3-0.7-0.7-1-1c-0.3-0.3-0.7-0.7-1-1c-0.3-0.3-0.7-0.7-1-1
				c-0.3-0.3-0.7-0.7-1-1c-0.3-0.3-0.7-0.7-1-1c-0.3-0.3-0.7-0.7-1-1c-0.3-0.3-0.7-0.7-1-1c-0.3-0.3-0.7-0.7-1-1
				c-0.3-0.3-0.7-0.7-1-1c-0.3-0.3-0.7-0.7-1-1c-0.3-0.3-0.7-0.7-1-1c-0.3-0.3-0.7-0.7-1-1c-0.3-0.3-0.7-0.7-1-1
				c-0.3-0.3-0.7-0.7-1-1c-0.3-0.3-0.7-0.7-1-1c-0.3-0.3-0.7-0.7-1-1c-0.3-0.3-0.7-0.7-1-1c-0.3-0.3-0.7-0.7-1-1
				c-0.3-0.3-0.7-0.7-1-1c-0.3-0.3-0.7-0.7-1-1c-0.3-0.3-0.7-0.7-1-1c-0.3-0.3-0.7-0.7-1-1c-0.3-0.3-0.7-0.7-1-1
				c-0.3-0.3-0.7-0.7-1-1c-0.3-0.3-0.7-0.7-1-1c-0.3-0.3-0.7-0.7-1-1c-0.3-0.3-0.7-0.7-1-1c-0.3-0.3-0.7-0.7-1-1
				c-0.3-0.3-0.7-0.7-1-1c-0.3-0.3-0.7-0.7-1-1c-0.3-0.3-0.7-0.7-1-1c-0.3-0.3-0.7-0.7-1-1c-0.3-0.3-0.7-0.7-1-1
				c-0.3-0.3-0.7-0.7-1-1c-0.3-0.3-0.7-0.7-1-1c-0.3-0.3-0.7-0.7-1-1c-0.3-0.3-0.7-0.7-1-1c-0.3-0.3-0.7-0.7-1-1
				c-0.3-0.3-0.7-0.7-1-1c-0.3-0.3-0.7-0.7-1-1c-0.3-0.3-0.7-0.7-1-1c-0.3-0.3-0.7-0.7-1-1c-0.3-0.3-0.7-0.7-1-1
				c-0.3-0.3-0.7-0.7-1-1c-0.3-0.3-0.7-0.7-1-1c-0.3-0.3-0.7-0.7-1-1c-0.3-0.3-0.7-0.7-1-1c-0.3-0.3-0.7-0.7-1-1
				c-0.3-0.3-0.7-0.7-1-1c-0.3-0.3-0.7-0.7-1-1c-0.3-0.3-0.7-0.7-1-1c-0.3-0.3-0.7-0.7-1-1c-0.3-0.3-0.7-0.7-1-1
				c-0.3-0.3-0.7-0.7-1-1c-0.3-0.3-0.7-0.7-1-1c-0.3-0.3-0.7-0.7-1-1c-0.3-0.3-0.7-0.7-1-1c-0.3-0.3-0.7-0.7-1-1
				c-0.3-0.3-0.7-0.7-1-1c-0.3-0.3-0.7-0.7-1-1c-0.3-0.3-0.7-0.7-1-1c-0.3-0.3-0.7-0.7-1-1c-0.3-0.3-0.7-0.7-1-1
				c-0.3-0.3-0.7-0.7-1-1c-0.3-0.3-0.7-0.7-1-1c-0.3-0.3-0.7-0.7-1-1c-0.3-0.3-0.7-0.7-1-1c-0.3-0.3-0.7-0.7-1-1
				c-0.3-0.3-0.7-0.7-1-1c-0.3-0.3-0.7-0.7-1-1c-0.3-0.3-0.7-0.7-1-1c-0.3-0.3-0.7-0.7-1-1c-0.3-0.3-0.7-0.7-1-1
				c-0.3-0.3-0.7-0.7-1-1c-0.3-0.3-0.7-0.7-1-1c-0.3-0.3-0.7-0.7-1-1c-0.3-0.3-0.7-0.7-1-1c-0.3-0.3-0.7-0.7-1-1
				c-0.3-0.3-0.7-0.7-1-1c-0.3-0.3-0.7-0.7-1-1c-0.3-0.3-0.7-0.7-1-1c-0.3-0.3-0.7-0.7-1-1c-0.3-0.3-0.7-0.7-1-1
				c-0.3-0.3-0.7-0.7-1-1c-0.3-0.3-0.7-0.7-1-1c-0.3-0.3-0.7-0.7-1-1c-0.3-0.3-0.7-0.7-1-1c-0.3-0.3-0.7-0.7-1-1
				c-0.3-0.3-0.7-0.7-1-1c-0.3-0.3-0.7-0.7-1-1c-0.3-0.3-0.7-0.7-1-1c-0.3-0.3-0.7-0.7-1-1c-0.3-0.3-0.7-0.7-1-1
				c-0.3-0.3-0.7-0.7-1-1c-0.3-0.3-0.7-0.7-1-1c-0.3-0.3-0.7-0.7-1-1c-0.3-0.3-0.7-0.7-1-1c-0.3-0.3-0.7-0.7-1-1
				c-0.3-0.3-0.7-0.7-1-1c-0.3-0.3-0.7-0.7-1-1c-0.3-0.3-0.7-0.7-1-1c-0.3-0.3-0.7-0.7-1-1c-0.3-0.3-0.7-0.7-1-1
				c-0.3-0.3-0.7-0.7-1-1c-0.3-0.3-0.7-0.7-1-1c-0.3-0.3-0.7-0.7-1-1c-0.3-0.3-0.7-0.7-1-1c-0.3-0.3-0.7-0.7-1-1
				c-0.3-0.3-0.7-0.7-1-1c-0.3-0.3-0.7-0.7-1-1c-0.3-0.3-0.7-0.7-1-1c-0.3-0.3-0.7-0.7-1-1c-0.3-0.3-0.7-0.7-1-1
				c-0.3-0.3-0.7-0.7-1-1c-0.3-0.3-0.7-0.7-1-1c-0.3-0.3-0.7-0.7-1-1c-0.3-0.3-0.7-0.7-1-1c-0.3-0.3-0.7-0.7-1-1
				c-0.3-0.3-0.7-0.7-1-1c-0.3-0.3-0.7-0.7-1-1c-0.3-0.3-0.7-0.7-1-1c-0.3-0.3-0.7-0.7-1-1c-0.3-0.3-0.7-0.7-1-1
				c-0.3-0.3-0.7-0.7-1-1c-0.3-0.3-0.7-0.7-1-1c-0.3-0.3-0.7-0.7-1-1c-0.3-0.3-0.7-0.7-1-1c-0.3-0.3-0.7-0.7-1-1
				c-0.3-0.3-0.7-0.7-1-1c-0.3-0.3-0.7-0.7-1-1c-0.3-0.3-0.7-0.7-1-1c-0.3-0.3-0.7-0.7-1-1c-1.5-1.5-3.1-3-4.8-4.4
				c-5.2-4.3-11-7.7-17.3-9.9c-3.4-1.2-6.8-2.3-10.3-2.6c-2.1-0.2-4.2-0.2-6.3-0.4c-122.9,0-245.8,0-368.7,0
				c-0.4,0.3-0.9,0.1-1.4,0.1c-2.5,0.2-5,0.1-7.5,0.7c-6.2,1.3-12,3.6-17.4,6.9c-6.4,3.8-11.9,8.6-16.6,14.5
				c-4.2,5.3-7.5,11.1-9.8,17.6c-1.2,3.4-2.3,6.9-2.6,10.5c-0.2,2.1-0.2,4.3-0.4,6.4c0,122.2,0,244.5,0,366.7
				c0.2,0.5,0.1,0.9,0.1,1.4c0.2,2.5,0.1,5.1,0.7,7.6c1.3,6.3,3.6,12.2,6.7,17.7c2.9,5,6.4,9.5,10.5,13.5c0.3,0.3,0.7,0.7,1,1
				c0.3,0.3,0.7,0.7,1,1c0.3,0.3,0.7,0.7,1,1c0.3,0.3,0.7,0.7,1,1c0.3,0.3,0.7,0.7,1,1c0.3,0.3,0.7,0.7,1,1c0.3,0.3,0.7,0.7,1,1
				c0.3,0.3,0.7,0.7,1,1c0.3,0.3,0.7,0.7,1,1c0.3,0.3,0.7,0.7,1,1c0.3,0.3,0.7,0.7,1,1c0.3,0.3,0.7,0.7,1,1c0.3,0.3,0.7,0.7,1,1
				c0.3,0.3,0.7,0.7,1,1c0.3,0.3,0.7,0.7,1,1c0.3,0.3,0.7,0.7,1,1c0.3,0.3,0.7,0.7,1,1c0.3,0.3,0.7,0.7,1,1c0.3,0.3,0.7,0.7,1,1
				c0.3,0.3,0.7,0.7,1,1c0.3,0.3,0.7,0.7,1,1c0.3,0.3,0.7,0.7,1,1c0.3,0.3,0.7,0.7,1,1c0.3,0.3,0.7,0.7,1,1c0.3,0.3,0.7,0.7,1,1
				c0.3,0.3,0.7,0.7,1,1c0.3,0.3,0.7,0.7,1,1c0.3,0.3,0.7,0.7,1,1c0.3,0.3,0.7,0.7,1,1c0.3,0.3,0.7,0.7,1,1c0.3,0.3,0.7,0.7,1,1
				c0.3,0.3,0.7,0.7,1,1c0.3,0.3,0.7,0.7,1,1c0.3,0.3,0.7,0.7,1,1c0.3,0.3,0.7,0.7,1,1c0.3,0.3,0.7,0.7,1,1c0.3,0.3,0.7,0.7,1,1
				c0.3,0.3,0.7,0.7,1,1c0.3,0.3,0.7,0.7,1,1c0.3,0.3,0.7,0.7,1,1c0.3,0.3,0.7,0.7,1,1c0.3,0.3,0.7,0.7,1,1c0.3,0.3,0.7,0.7,1,1
				c0.3,0.3,0.7,0.7,1,1c0.3,0.3,0.7,0.7,1,1c0.3,0.3,0.7,0.7,1,1c0.3,0.3,0.7,0.7,1,1c0.3,0.3,0.7,0.7,1,1c0.3,0.3,0.7,0.7,1,1
				c0.3,0.3,0.7,0.7,1,1c0.3,0.3,0.7,0.7,1,1c0.3,0.3,0.7,0.7,1,1c0.3,0.3,0.7,0.7,1,1c0.3,0.3,0.7,0.7,1,1c0.3,0.3,0.7,0.7,1,1
				c0.3,0.3,0.7,0.7,1,1c0.3,0.3,0.7,0.7,1,1c0.3,0.3,0.7,0.7,1,1c0.3,0.3,0.7,0.7,1,1c0.3,0.3,0.7,0.7,1,1c0.3,0.3,0.7,0.7,1,1
				c0.3,0.3,0.7,0.7,1,1c0.3,0.3,0.7,0.7,1,1c0.3,0.3,0.7,0.7,1,1c0.3,0.3,0.7,0.7,1,1c0.3,0.3,0.7,0.7,1,1c0.3,0.3,0.7,0.7,1,1
				c0.3,0.3,0.7,0.7,1,1c0.3,0.3,0.7,0.7,1,1c0.3,0.3,0.7,0.7,1,1c0.3,0.3,0.7,0.7,1,1c0.3,0.3,0.7,0.7,1,1c0.3,0.3,0.7,0.7,1,1
				c0.3,0.3,0.7,0.7,1,1c0.3,0.3,0.7,0.7,1,1c0.3,0.3,0.7,0.7,1,1c0.3,0.3,0.7,0.7,1,1c0.3,0.3,0.7,0.7,1,1c0.3,0.3,0.7,0.7,1,1
				c0.3,0.3,0.7,0.7,1,1c0.3,0.3,0.7,0.7,1,1c0.3,0.3,0.7,0.7,1,1c0.3,0.3,0.7,0.7,1,1c0.3,0.3,0.7,0.7,1,1c0.3,0.3,0.7,0.7,1,1
				c0.3,0.3,0.7,0.7,1,1c0.3,0.3,0.7,0.7,1,1c0.3,0.3,0.7,0.7,1,1c0.3,0.3,0.7,0.7,1,1c0.3,0.3,0.7,0.7,1,1c0.3,0.3,0.7,0.7,1,1
				c0.3,0.3,0.7,0.7,1,1c0.3,0.3,0.7,0.7,1,1c0.3,0.3,0.7,0.7,1,1c0.3,0.3,0.7,0.7,1,1c0.3,0.3,0.7,0.7,1,1c0.3,0.3,0.7,0.7,1,1
				c0.3,0.3,0.7,0.7,1,1c0.3,0.3,0.7,0.7,1,1c0.3,0.3,0.7,0.7,1,1c0.3,0.3,0.7,0.7,1,1c0.3,0.3,0.7,0.7,1,1c0.3,0.3,0.7,0.7,1,1
				c0.3,0.3,0.7,0.7,1,1c0.3,0.3,0.7,0.7,1,1c0.3,0.3,0.7,0.7,1,1c0.3,0.3,0.7,0.7,1,1c0.3,0.3,0.7,0.7,1,1c0.3,0.3,0.7,0.7,1,1
				c0.3,0.3,0.7,0.7,1,1c0.3,0.3,0.7,0.7,1,1c0.3,0.3,0.7,0.7,1,1c0.3,0.3,0.7,0.7,1,1c0.3,0.3,0.7,0.7,1,1c0.3,0.3,0.7,0.7,1,1
				c0.3,0.3,0.7,0.7,1,1c0.3,0.3,0.7,0.7,1,1c0.3,0.3,0.7,0.7,1,1c0.3,0.3,0.7,0.7,1,1c0.3,0.3,0.7,0.7,1,1c0.3,0.3,0.7,0.7,1,1
				c0.3,0.3,0.7,0.7,1,1c0.3,0.3,0.7,0.7,1,1c0.3,0.3,0.7,0.7,1,1c0.3,0.3,0.7,0.7,1,1c0.3,0.3,0.7,0.7,1,1c0.3,0.3,0.7,0.7,1,1
				c0.3,0.3,0.7,0.7,1,1c0.3,0.3,0.7,0.7,1,1c0.3,0.3,0.7,0.7,1,1c0.3,0.3,0.7,0.7,1,1c0.3,0.3,0.7,0.7,1,1c0.3,0.3,0.7,0.7,1,1
				c0.3,0.3,0.7,0.7,1,1c0.3,0.3,0.7,0.7,1,1c0.3,0.3,0.7,0.7,1,1c0.3,0.3,0.7,0.7,1,1c0.3,0.3,0.7,0.7,1,1c0.3,0.3,0.7,0.7,1,1
				c0.3,0.3,0.7,0.7,1,1c0.3,0.3,0.7,0.7,1,1c0.3,0.3,0.7,0.7,1,1c0.3,0.3,0.7,0.7,1,1c0.3,0.3,0.7,0.7,1,1c0.3,0.3,0.7,0.7,1,1
				c0.3,0.3,0.7,0.7,1,1c0.3,0.3,0.7,0.7,1,1c0.3,0.3,0.7,0.7,1,1c0.3,0.3,0.7,0.7,1,1c0.3,0.3,0.7,0.7,1,1c0.3,0.3,0.7,0.7,1,1
				c0.3,0.3,0.7,0.7,1,1c0.3,0.3,0.7,0.7,1,1c0.3,0.3,0.7,0.7,1,1c0.3,0.3,0.7,0.7,1,1c0.3,0.3,0.7,0.7,1,1c0.3,0.3,0.7,0.7,1,1
				c0.3,0.3,0.7,0.7,1,1c0.3,0.3,0.7,0.7,1,1c0.3,0.3,0.7,0.7,1,1c0.3,0.3,0.7,0.7,1,1c0.3,0.3,0.7,0.7,1,1c0.3,0.3,0.7,0.7,1,1
				c0.3,0.3,0.7,0.7,1,1c0.3,0.3,0.7,0.7,1,1c0.3,0.3,0.7,0.7,1,1c0.3,0.3,0.7,0.7,1,1c0.3,0.3,0.7,0.7,1,1c0.3,0.3,0.7,0.7,1,1
				c0.3,0.3,0.7,0.7,1,1c0.3,0.3,0.7,0.7,1,1c0.3,0.3,0.7,0.7,1,1c0.3,0.3,0.7,0.7,1,1c0.3,0.3,0.7,0.7,1,1c0.3,0.3,0.7,0.7,1,1
				c0.3,0.3,0.7,0.7,1,1c0.3,0.3,0.7,0.7,1,1c0.3,0.3,0.7,0.7,1,1c0.3,0.3,0.7,0.7,1,1c0.3,0.3,0.7,0.7,1,1c0.3,0.3,0.7,0.7,1,1
				c0.3,0.3,0.7,0.7,1,1c0.3,0.3,0.7,0.7,1,1c0.3,0.3,0.7,0.7,1,1c1.5,1.5,3.1,3,4.8,4.4c5.2,4.3,11,7.7,17.3,9.9
				c3.4,1.2,6.8,2.3,10.3,2.6c2.1,0.2,4.2,0.2,6.3,0.4c122.9,0,245.8,0,368.7,0c0.4-0.3,0.9-0.1,1.4-0.1c2.5-0.2,5-0.1,7.5-0.7
				c6.2-1.3,12-3.6,17.4-6.9c6.4-3.8,11.9-8.6,16.6-14.5c4.2-5.3,7.5-11.2,9.8-17.6c1.2-3.4,2.3-6.9,2.6-10.5
				c0.2-2.1,0.2-4.3,0.4-6.4c0-122.2,0-244.5,0-366.7C824.8,401.2,824.9,400.7,824.9,400.2z"/>
		</g>
	</g>
</g>
<g>
	<path class="st3" d="M584.3,640c-122.9,0-245.8,0-368.7,0c-2.1-0.2-4.2-0.2-6.3-0.4c-3.6-0.3-7-1.4-10.3-2.6
		c-6.3-2.3-12.1-5.7-17.3-9.9c-5.8-4.7-10.5-10.4-14.2-16.9c-3.2-5.5-5.4-11.5-6.7-17.7c-0.5-2.5-0.5-5.1-0.7-7.6
		c0-0.5,0.1-1-0.1-1.4c0-122.2,0-244.5,0-366.7c0.2-2.1,0.2-4.3,0.4-6.4c0.3-3.6,1.4-7.1,2.6-10.5c2.2-6.4,5.6-12.3,9.8-17.6
		c4.6-5.9,10.2-10.7,16.6-14.5c5.4-3.2,11.3-5.5,17.4-6.9c2.5-0.5,5-0.5,7.5-0.7c0.5,0,0.9,0.1,1.4-0.1c122.9,0,245.8,0,368.7,0
		c2.1,0.2,4.2,0.2,6.3,0.4c3.6,0.3,7,1.4,10.3,2.6c6.3,2.3,12.1,5.7,17.3,9.9c5.8,4.7,10.5,10.4,14.2,16.9
		c3.2,5.5,5.4,11.4,6.7,17.7c0.5,2.5,0.5,5.1,0.7,7.6c0,0.5-0.1,1,0.1,1.4c0,122.2,0,244.5,0,366.7c-0.2,2.1-0.2,4.3-0.4,6.4
		c-0.3,3.6-1.4,7.1-2.6,10.5c-2.3,6.4-5.6,12.3-9.8,17.6c-4.6,5.9-10.2,10.7-16.6,14.5c-5.4,3.2-11.3,5.5-17.4,6.9
		c-2.5,0.5-5,0.5-7.5,0.7C585.3,639.9,584.8,639.7,584.3,640z"/>
	<path class="st4" d="M399.9,620.6c-60.1,0-120.3,0-180.4,0c-18.4,0-34.5-12.6-39.2-30.7c-0.9-3.4-1.3-6.9-1.3-10.4
		c0-119.8,0-239.6,0-359.4c0-19.5,14.2-36.5,33.1-40c2.5-0.5,5-0.7,7.6-0.7c120.1,0,240.2,0,360.3,0c18.8,0,34.8,12.4,39.6,30.7
		c0.9,3.4,1.3,6.9,1.3,10.4c0,119.7,0,239.5,0,359.2c0,20-14.5,37.3-33.9,40.5c-2.3,0.4-4.6,0.5-7,0.5
		C520.1,620.6,460,620.6,399.9,620.6z"/>
	<path class="st5" d="M525.1,348.8c2.3,0.5,4.6,0.7,6.9,1.4c22.5,6.5,36.7,21.3,41.2,44.7c5.8,30.6-13.9,59.6-43.8,65.7
		c-1.1,0.2-2.3,0.4-3.4,0.6c-1.3,1.2-2.9,0.9-4.4,1c-3.6,0.2-7.2,0.1-10.8-0.5c-1.8-0.3-3.7-0.6-5.5-1.1c-8.6-2.1-16.3-6.2-23-12
		c-10.6-9.3-17.1-21.1-19.1-35.3c-1.6-11-0.1-21.6,4.5-31.7c2.4-5.4,5.6-10.2,9.5-14.7c4.7-5.4,10.3-9.6,16.6-12.9
		c4.9-2.5,10.2-4.3,15.7-5.1c0.2,0,0.4-0.1,0.6-0.2c4.5-0.6,9-1,13.6-0.4C524.1,348.3,524.6,348.4,525.1,348.8z"/>
	<path class="st5" d="M441.2,547.5c-0.6,3.8-1.1,7.6-2.4,11.2c-7.3,21.3-21.8,34.5-43.6,38.5c-29.8,5.6-58.6-15.1-63.9-45.5
		c-0.3-1.7-0.5-3.3-0.7-5c-0.6-0.9-0.8-1.8-0.8-2.8c0-4.2,0.1-8.3,0.9-12.5c0.9-5.5,2.6-10.7,5.1-15.7c2.3-4.5,5.1-8.6,8.4-12.4
		c4.6-5.2,9.9-9.4,16-12.6c5.8-3.1,12-5,18.5-5.8c2.6-0.3,5.3-0.5,7.9-0.5c7.7,0.1,15.1,1.8,22.2,5c6.4,2.9,12.1,6.9,17,12
		c7.7,8.1,12.8,17.6,15,28.7c0.1,0.7,0,1.4,0.3,2c0.8,4.6,1.1,9.2,0.5,13.8C441.7,546.6,441.5,547.1,441.2,547.5z"/>
	<path class="st5" d="M330.6,265.3c0.5-2.4,0.8-4.8,1.4-7.1c6.4-22.8,20.9-37.3,43.8-41.8c30-5.9,58.6,14.1,64.5,44.6
		c0.2,1.1,0.4,2.3,0.6,3.5c1.1,1.3,0.9,3,1,4.5c0.2,3.7,0.1,7.4-0.5,11c-0.3,1.9-0.6,3.7-1,5.6c-2.1,8.8-6,16.6-11.8,23.4
		c-9.2,10.8-20.8,17.4-34.7,19.5c-10.8,1.6-21.2,0.1-31.2-4.5c-5.3-2.5-10.1-5.7-14.4-9.7c-5.3-4.8-9.5-10.5-12.6-16.9
		c-2.5-5-4.2-10.3-5-15.9c0-0.2-0.1-0.4-0.2-0.6c-0.6-4.6-0.9-9.2-0.4-13.8C330,266.4,330.1,265.8,330.6,265.3z"/>
	<path class="st5" d="M248,461.9c-3.4-0.6-6.8-1-10.1-2.2c-21.7-7.4-35.1-22.5-38.8-45.4c-4.9-30.1,14.6-58.1,44-64.2
		c1.7-0.4,3.5-0.6,5.3-0.9c0.8-0.6,1.7-0.7,2.7-0.8c4.2-0.1,8.3,0.1,12.4,0.8c2.5,0.5,5,1.1,7.5,1.9c7.7,2.6,14.6,6.6,20.6,12.2
		c9.9,9.2,15.9,20.6,17.9,34.1c1.6,11,0.1,21.6-4.4,31.7c-2.4,5.4-5.6,10.3-9.6,14.8c-4.7,5.4-10.3,9.6-16.6,12.9
		c-4.8,2.4-9.8,4.3-15.2,5c-0.2,0-0.4,0.1-0.6,0.2c-4.5,0.8-9,1.1-13.6,0.6C248.9,462.4,248.4,462.2,248,461.9z"/>
	<path class="st6" d="M441.2,547.5c-0.1-1.8,0.2-3.5,0.3-5.3c0-3.4-0.4-6.8-0.7-10.2c0.1-0.5,0.4-0.8,0.9-1
		c5.3-2.4,10.3-5.1,15.2-8.2c6.6-4.1,12.7-8.7,18.5-13.9c2.6-2.3,5-4.6,7.4-7.1c4.8-5,9.3-10.4,13.3-16.1
		c4.4-6.2,8.2-12.7,11.5-19.6c0.7-1.4,1.3-2.8,1.9-4.2c0.2-0.5,0.4-0.9,1-0.9c2.3,0.1,4.6,0.5,6.9,0.5c2.9,0,5.7-0.2,8.5-0.5
		c-2.4,6.5-5.3,12.7-8.6,18.7c-17.5,31.5-42.8,54-75.8,67.6C441.4,547.5,441.3,547.5,441.2,547.5z"/>
	<path class="st6" d="M440.9,280.2c0.1-2.3,0.5-4.6,0.5-7c0-2.9-0.2-5.8-0.5-8.7c7,2.6,13.8,6,20.2,9.8
		c29.3,17.4,50.5,42.1,63.7,73.9c0.1,0.2,0.1,0.4,0.2,0.6c-2,0-4.1-0.3-6.1-0.3c-3.1,0-6.2,0.3-9.3,0.7c-0.6-0.3-1-0.9-1.3-1.5
		c-4-8.9-9-17.1-14.8-24.8c-4.3-5.8-9.1-11.2-14.4-16.2c-7.8-7.4-16.3-14-25.6-19.3c-3.8-2.2-7.7-4.3-11.7-6.1
		C441.4,281,440.9,280.8,440.9,280.2z"/>
	<path class="st6" d="M248,461.9c1.7-0.1,3.5,0.2,5.2,0.3c3.4,0,6.7-0.4,10-0.7c0.7,0.1,0.9,0.7,1.1,1.2c1.7,3.7,3.5,7.3,5.4,10.9
		c3.8,6.8,8.1,13.2,12.9,19.2c3.6,4.5,7.5,8.8,11.7,12.8c7.5,7.1,15.6,13.5,24.5,18.7c3.5,2,6.9,4.1,10.6,5.7
		c0.7,0.3,1.4,0.7,1.7,1.4c-0.9,5.1-1.2,10.3-0.7,15.5c-37.5-16.1-64.5-43.1-81-81C249,464.5,248.5,463.2,248,461.9z"/>
	<path class="st6" d="M263.6,349.8c-3.9-0.4-7.7-0.9-11.6-0.8c-1.2,0.1-2.4,0.1-3.7,0.2c3.9-10.1,8.9-19.6,14.9-28.5
		c16.5-24.5,38.2-42.6,65-54.4c0.8-0.3,1.5-0.6,2.3-0.9c-0.1,2.1-0.2,4.1-0.3,6.2c-0.1,3.2,0.3,6.4,0.7,9.5
		c-0.3,0.5-0.7,0.9-1.3,1.2c-9.3,4.4-17.9,9.8-25.9,16.3c-4.6,3.7-9,7.7-13.1,11.9c-4.8,4.9-9.1,10.3-13.1,15.9
		c-4.4,6.2-8.2,12.7-11.6,19.6c-0.5,1-0.8,2-1.3,3C264.4,349.3,264.2,349.7,263.6,349.8z"/>
	<path class="st4" d="M263.6,349.8c14-31,36.2-53.7,66.4-68.4c0.3-0.2,0.7-0.3,1-0.4c1.9,11.2,6.5,21.1,14.2,29.4
		c9.2,10,20.5,16,33.9,17.6c29.1,3.6,55.4-15.8,61.3-45.1c0.2-0.9,0.4-1.8,0.5-2.7c28.8,13.1,50.6,33.8,65.4,62
		c1.2,2.3,2.4,4.6,3.3,7.1c-11,1.9-20.6,6.6-28.8,14.4c-9.9,9.4-15.8,20.9-17.4,34.5c-3.5,29.6,15.8,56.7,44.5,62.4
		c0.9,0.2,1.7,0.4,2.5,0.5c-5.8,13.7-13.7,26-23.5,37c-13.1,14.7-28.5,26-46.3,33.9c-0.7-2.8-1.2-5.7-2.2-8.4
		c-7.7-21.1-22.3-34.1-44.1-37.8c-29.4-4.9-56.8,14.7-62.9,44.3c-0.1,0.4-0.2,0.7-0.2,1.1c-30-14.1-52.2-36.4-66.6-66.7
		c-0.5-1.1-0.9-2.1-1.4-3.2c3.4-0.8,6.7-1.5,9.9-2.8c19.5-8,31.5-22.4,35.4-43.4c5.4-29.5-14.3-58.9-43.1-64.9
		C264.8,350.1,264.2,350.1,263.6,349.8z"/>
	<path class="st7" d="M517.6,363.1c22.6-0.6,41.7,17.8,42.3,40.6c0.6,23.3-17.4,42.7-40,43.4c-22.9,0.6-41.8-17.5-42.5-40.5
		C476.7,383,494.6,363.7,517.6,363.1z"/>
	<path class="st8" d="M385.9,499.6c22.9,0,41.2,18.9,41.2,42.3c0,23-18.7,41.7-41.5,41.6c-22.6,0-41.1-19-41-42.2
		C344.7,518.3,363.2,499.6,385.9,499.6z"/>
	<path class="st7" d="M385.8,313.9c-22.8,0-41.3-18.9-41.2-42c0-23.2,18.6-42,41.3-41.9c22.8,0,41.2,18.9,41.2,42.1
		C427.1,295.1,408.5,313.9,385.8,313.9z"/>
	<path class="st9" d="M253.7,447.6c-22.7,0-41.2-18.9-41.2-42c0-23.2,18.5-42,41.3-42c22.8,0,41.3,18.9,41.2,42.2
		C295.1,428.8,276.5,447.6,253.7,447.6z"/>
	<path class="st10" d="M379.4,407.4c-1.7,1-3.1,2-4.5,2.8c-0.7,0.4-0.8,0.7-0.2,1.3c2.6,2.9,5.2,5.9,7.9,8.7
		c0.8,0.8,0.9,1.6,0.7,2.7c-2.1,9.1-4.1,18.3-6.2,27.4c-0.1,0.5-0.2,0.9,0,1.4c2.4,5.3,4.8,10.7,7.1,16.1c0,0.1,0.1,0.2,0.2,0.3
		c0.4-0.2,0.5-0.7,0.6-1c2.3-4.8,4.6-9.6,7-14.4c0.4-0.7,0.4-1.4,0.2-2.2c-2.2-9.3-4.4-18.6-6.6-27.9c-0.2-1-0.1-1.7,0.6-2.4
		c2.8-2.8,5.4-5.8,8.2-8.6c0.6-0.6,0.5-0.9-0.2-1.3c-1.4-0.8-2.8-1.7-4.4-2.7c1.6-0.3,3-0.5,4.4-0.8c6.2-1.4,11.5-4.4,15.8-9.2
		c0.5-0.6,1.1-0.8,1.8-0.8c14,0,25.3,10.4,26.6,24.5c0.4,4.6,0.1,9.3,0.1,13.9c-0.1,12.1-0.1,24.2-0.2,36.3c0,1.2-0.4,1.3-1.4,1.3
		c-35.2-0.1-70.3-0.2-105.5-0.2c-0.9,0-1.2-0.2-1.2-1.2c-0.1-14.3-0.2-28.6-0.5-42.8c-0.1-3.7-0.3-7.3,0.7-10.9
		c2.9-10.7,10.1-17,20.4-19.9c2.2-0.6,4.4-0.9,6.7-1c0.5,0,0.9,0,1.3,0.5c5.2,5.9,11.8,9.2,19.5,10.1
		C378.8,407.3,379,407.4,379.4,407.4z"/>
	<path class="st11" d="M416.9,368.6c0,17.9-10.9,31.8-26.2,34.7c-12.2,2.4-22.5-1.5-30.7-11c-5.7-6.7-8.2-14.7-7.8-23.5
		c0.8-16.1,12.3-29.4,27.9-31.5c11.6-1.6,21.3,2.4,28.9,11.4C414.4,355,416.8,362.4,416.9,368.6z"/>
	<path class="st3" d="M513.2,396c0-4,0-8.1,0-12.1c0-0.8,0.2-1,1-1c2.6,0.1,5.2,0.1,7.8,0c0.8,0,1,0.2,1,1c0,6,0,12,0,18
		c0,0.8,0.2,1.2,0.9,1.6c3.3,1.6,6.6,3.4,9.9,5c0.7,0.4,0.9,0.7,0.5,1.4c-1.2,2.3-2.4,4.7-3.5,7.1c-0.3,0.7-0.6,0.8-1.2,0.4
		c-5.1-2.7-10.3-5.3-15.5-8c-0.7-0.3-0.8-0.8-0.8-1.4C513.2,404.1,513.2,400.1,513.2,396z"/>
	<path class="st11" d="M404.8,557.6c0,0.1,0,0.2,0.1,0.2c2,2.6,1.2,4.7-2,5.2c-8.5,1.3-16.9,0.6-25.1-2.2c-0.8-0.3-1.1-0.6-1-1.5
		c0-6.6,0-13.2,0-19.8c0-0.6,0.1-1.1,0.5-1.6c2.4-3.1,4.8-6.3,7.2-9.5c2.9-3.9,4.4-8.3,4.4-13.1c0-2,0.9-3.3,2.8-3.8
		c1.6-0.5,3.4,0.1,4.4,1.5c0.5,0.7,0.8,1.6,0.9,2.5c0.2,3.9-0.1,7.6-1.3,11.3c-0.6,2-1.1,4.1-1.4,6.2c-0.1,0.7,0,0.9,0.8,0.9
		c2.4-0.3,4.9-0.5,7.3-0.8c1.9-0.2,3.7,0,5.5,0.4c2.1,0.5,3.4,2,3.8,4.1c0.4,2-0.6,3.6-2.2,4.8c-0.7,0.5-0.8,0.7-0.3,1.4
		c1.6,2.2,1,4.8-1.4,6.1c-0.3,0.2-0.7,0.2-0.4,0.8c1.6,3.3,1,5.2-2.4,6.7C404.9,557.4,404.8,557.5,404.8,557.6z"/>
	<path class="st6" d="M375.3,549c0,4.4,0,8.8,0,13.2c0,0.8-0.2,1.1-1,1.1c-4.9,0-9.7,0-14.6,0c-0.9,0-1-0.3-1-1.1
		c0-8.8,0-17.7,0-26.5c0-0.8,0.2-1,1-1c4.9,0,9.8,0,14.7,0c0.8,0,1,0.3,1,1C375.2,540.2,375.3,544.6,375.3,549z"/>
	<path class="st3" d="M399.1,262c-2.3-0.8-4.4-1.4-6.6-1.8c-3.7-0.8-3.7-0.8-3.7,2.9c0,1.5,0.1,3.1,0,4.6c0,0.9,0.4,1.2,1.1,1.3
		c2.1,0.4,4.2,0.9,6.1,2c4,2.3,5.8,6.4,5.1,11.1c-0.8,5.8-4.6,8.3-9.6,9.6c-0.9,0.2-2.1,0.1-2.5,0.7c-0.5,0.6-0.2,1.8-0.1,2.7
		c0.1,1.2-0.4,1.3-1.3,1.3c-1.1-0.1-2.3-0.1-3.4,0c-0.9,0.1-1.1-0.3-1-1.1c0-0.4,0-0.8,0.1-1.2c0-1.7,0-1.7-1.7-1.8
		c-3-0.1-6-0.7-8.8-1.6c-1-0.3-1.4-0.8-1.3-1.9c0.1-2.2,0-4.3,0-6.6c1.1,0.4,2.1,0.7,3.1,1c2.6,0.8,5.2,1.2,7.9,1.3
		c0.5,0,0.8,0,0.8-0.7c0-2.3-0.1-4.7,0-7c0-0.8-0.2-1.2-1.1-1.3c-2.1-0.4-4.2-0.8-6.1-1.8c-4.3-2.3-6.2-6.7-5.1-12.2
		c1-4.9,4.4-7.3,8.8-8.6c0.2-0.1,0.5-0.1,0.7-0.2c0.9-0.2,2.2-0.2,2.6-0.7c0.5-0.6,0.2-1.9,0.1-2.8c-0.1-0.9,0.2-1.2,1.1-1.1
		c1.3,0.1,2.5,0,3.8,0c0.6,0,0.8,0.1,0.8,0.8c0,1-0.4,2.3,0.2,3.1c0.6,0.7,1.9,0.3,2.9,0.5c2.1,0.4,4.3,0.7,6.4,1.5
		c0.6,0.2,0.8,0.5,0.8,1.2C399.1,257.2,399.1,259.5,399.1,262z"/>
	<path class="st12" d="M278,406.3c0,4.5,0,9,0,13.5c0,2.2-0.8,3-3,3c-1.7,0-3.4,0-5.1,0c-1.9,0-2.8-0.9-2.8-2.8c0-9.2,0-18.4,0-27.6
		c0-1.8,0.9-2.8,2.7-2.8c1.9,0,3.7,0,5.6,0c1.8,0,2.7,1,2.7,2.8C278,397.1,278,401.7,278,406.3z"/>
	<path class="st12" d="M254.2,412.9c0-2.2,0-4.4,0-6.5c0-2,0.9-2.9,2.8-2.9c1.7,0,3.3,0,5,0c1.7,0,2.7,0.9,2.7,2.7
		c0,4.6,0,9.2,0,13.8c0,1.7-0.9,2.6-2.6,2.7c-1.8,0-3.6,0-5.3,0c-1.6,0-2.5-1-2.6-2.7C254.2,417.6,254.2,415.3,254.2,412.9z"/>
	<path class="st12" d="M227.6,415c0-1.7,0-3.3,0-5c0-1.7,0.9-2.7,2.6-2.7c1.7,0,3.5,0,5.2,0c1.6,0,2.6,1,2.6,2.6c0,3.4,0,6.8,0,10.3
		c0,1.6-1,2.5-2.5,2.6c-1.8,0-3.6,0-5.5,0c-1.5,0-2.4-1-2.5-2.5C227.5,418.6,227.6,416.8,227.6,415z"/>
	<path class="st12" d="M246,422.9c-0.9,0-1.7,0-2.6,0c-1.5,0-2.4-1-2.5-2.5c0-0.9,0-1.9,0-2.8c0-1.4,1-2.4,2.4-2.5
		c1.9,0,3.8,0,5.7,0c1.4,0,2.3,1,2.4,2.5c0,0.9,0,1.9,0,2.8c0,1.5-1,2.4-2.5,2.5C247.9,422.9,246.9,422.9,246,422.9z"/>
	<path class="st13" d="M364.1,560.4c-1.3,0-2.4-1.1-2.4-2.5c0-1.3,1.1-2.4,2.4-2.4c1.3,0,2.4,1.1,2.4,2.3
		C366.5,559.2,365.4,560.3,364.1,560.4z"/>
	<path class="st14" d="M383.1,267.6c-1.2-0.2-2.2-0.6-3.2-1.1c-1.2-0.7-1.5-1.8-1.5-3c0-1.3,0.7-2.3,1.9-2.9
		c2.7-1.2,2.9-1.1,2.8,1.9C383,264.2,383.1,265.9,383.1,267.6z"/>
	<path class="st15" d="M388.8,280.4c0-0.8,0-1.6,0-2.4c0-1.5,0-1.5,1.4-1c0.9,0.3,1.9,0.7,2.5,1.6c0.7,1.1,0.9,2.3,0.1,3.5
		c-0.8,1.4-2.2,1.8-3.6,2c-0.5,0.1-0.4-0.4-0.4-0.7C388.8,282.4,388.8,281.4,388.8,280.4z"/>
</g>
</svg>
