<?xml version="1.0" encoding="utf-8"?>
<!-- Generator: Adobe Illustrator 24.1.2, SVG Export Plug-In . SVG Version: 6.00 Build 0)  -->
<svg version="1.1" id="Layer_1" xmlns="http://www.w3.org/2000/svg" xmlns:xlink="http://www.w3.org/1999/xlink" x="0px" y="0px"
	 viewBox="0 0 800 800" style="enable-background:new 0 0 800 800;" xml:space="preserve">
<style type="text/css">
	.st0{fill:#333333;}
	.st1{clip-path:url(#SVGID_2_);}
	.st2{fill:#1D1D1B;}
	.st3{fill:#20AA62;}
	.st4{fill:#6F7172;}
	.st5{fill:#E24F36;}
	.st6{fill:#FCFBF1;}
	.st7{fill:#FEFDF3;}
	.st8{fill:#FEE18E;}
	.st9{fill:#707273;}
	.st10{fill:#FEB82E;}
	.st11{fill:#C53622;}
	.st12{fill:#5B5B5B;}
	.st13{fill:#FECE5B;}
</style>
<g id="Layer_2_3_">
	<g id="Layer_2_4_">
		<g>
			<circle class="st0" cx="400" cy="400" r="400"/>
		</g>
	</g>
</g>
<g>
	<defs>
		<circle id="SVGID_1_" cx="400" cy="400" r="400"/>
	</defs>
	<clipPath id="SVGID_2_">
		<use xlink:href="#SVGID_1_"  style="overflow:visible;"/>
	</clipPath>
	<g class="st1">
		<g>
			<path class="st2" d="M895.9,839.8c-0.3-0.4,0-0.8-0.2-1.2c-0.1-0.4-0.1-0.8-0.2-1.2c-0.8-3.9-2.8-7.3-5.5-9.8
				c-0.3-0.3-0.7-0.7-1-1c-0.3-0.3-0.7-0.7-1-1c-0.3-0.3-0.7-0.7-1-1c-0.3-0.3-0.7-0.7-1-1c-0.3-0.3-0.7-0.7-1-1
				c-0.3-0.3-0.7-0.7-1-1c-0.3-0.3-0.7-0.7-1-1c-0.3-0.3-0.7-0.7-1-1c-0.3-0.3-0.7-0.7-1-1c-0.3-0.3-0.7-0.7-1-1
				c-0.3-0.3-0.7-0.7-1-1c-0.3-0.3-0.7-0.7-1-1c-0.3-0.3-0.7-0.7-1-1c-0.3-0.3-0.7-0.7-1-1c-0.3-0.3-0.7-0.7-1-1
				c-0.3-0.3-0.7-0.7-1-1c-0.3-0.3-0.7-0.7-1-1c-0.3-0.3-0.7-0.7-1-1c-0.3-0.3-0.7-0.7-1-1c-0.3-0.3-0.7-0.7-1-1
				c-0.3-0.3-0.7-0.7-1-1c-0.3-0.3-0.7-0.7-1-1c-0.3-0.3-0.7-0.7-1-1c-0.3-0.3-0.7-0.7-1-1c-0.3-0.3-0.7-0.7-1-1
				c-0.3-0.3-0.7-0.7-1-1c-0.3-0.3-0.7-0.7-1-1c-0.3-0.3-0.7-0.7-1-1c-0.3-0.3-0.7-0.7-1-1c-0.3-0.3-0.7-0.7-1-1
				c-0.3-0.3-0.7-0.7-1-1c-0.3-0.3-0.7-0.7-1-1c-0.3-0.3-0.7-0.7-1-1c-0.3-0.3-0.7-0.7-1-1c-0.3-0.3-0.7-0.7-1-1
				c-0.3-0.3-0.7-0.7-1-1c-0.3-0.3-0.7-0.7-1-1c-0.3-0.3-0.7-0.7-1-1c-0.3-0.3-0.7-0.7-1-1c-0.3-0.3-0.7-0.7-1-1
				c-0.3-0.3-0.7-0.7-1-1c-0.3-0.3-0.7-0.7-1-1c-0.3-0.3-0.7-0.7-1-1c-0.3-0.3-0.7-0.7-1-1c-0.3-0.3-0.7-0.7-1-1
				c-0.3-0.3-0.7-0.7-1-1c-0.3-0.3-0.7-0.7-1-1c-0.3-0.3-0.7-0.7-1-1c-0.3-0.3-0.7-0.7-1-1c-0.3-0.3-0.7-0.7-1-1
				c-0.3-0.3-0.7-0.7-1-1c-0.3-0.3-0.7-0.7-1-1c-0.3-0.3-0.7-0.7-1-1c-0.3-0.3-0.7-0.7-1-1c-0.3-0.3-0.7-0.7-1-1
				c-0.3-0.3-0.7-0.7-1-1c-0.3-0.3-0.7-0.7-1-1c-0.3-0.3-0.7-0.7-1-1c-0.3-0.3-0.7-0.7-1-1c-0.3-0.3-0.7-0.7-1-1
				c-0.3-0.3-0.7-0.7-1-1c-0.3-0.3-0.7-0.7-1-1c-0.3-0.3-0.7-0.7-1-1c-0.3-0.3-0.7-0.7-1-1c-0.3-0.3-0.7-0.7-1-1
				c-0.3-0.3-0.7-0.7-1-1c-0.3-0.3-0.7-0.7-1-1c-0.3-0.3-0.7-0.7-1-1c-0.3-0.3-0.7-0.7-1-1c-0.3-0.3-0.7-0.7-1-1
				c-0.3-0.3-0.7-0.7-1-1c-0.3-0.3-0.7-0.7-1-1c-0.2-0.2-0.4-0.4-0.6-0.6c0-84.3,0-168.6,0-252.8c0-2.9-0.1-5.7-0.4-8.6
				c-1.5-12.3-6.6-22.9-14.9-31.9c-0.7-0.8-1.5-1.6-2.3-2.3c-0.3-0.3-0.7-0.7-1-1c-0.3-0.3-0.7-0.7-1-1c-0.3-0.3-0.7-0.7-1-1
				c-0.3-0.3-0.7-0.7-1-1c-0.3-0.3-0.7-0.7-1-1c-0.3-0.3-0.7-0.7-1-1c-0.3-0.3-0.7-0.7-1-1c-0.3-0.3-0.7-0.7-1-1
				c-0.3-0.3-0.7-0.7-1-1c-0.3-0.3-0.7-0.7-1-1c-0.3-0.3-0.7-0.7-1-1c-0.3-0.3-0.7-0.7-1-1c-0.3-0.3-0.7-0.7-1-1
				c-0.3-0.3-0.7-0.7-1-1c-0.3-0.3-0.7-0.7-1-1c-0.3-0.3-0.7-0.7-1-1c-0.3-0.3-0.7-0.7-1-1c-0.3-0.3-0.7-0.7-1-1
				c-0.3-0.3-0.7-0.7-1-1c-0.3-0.3-0.7-0.7-1-1c-0.3-0.3-0.7-0.7-1-1c-0.3-0.3-0.7-0.7-1-1c-0.3-0.3-0.7-0.7-1-1
				c-0.3-0.3-0.7-0.7-1-1c-0.3-0.3-0.7-0.7-1-1c-0.3-0.3-0.7-0.7-1-1c-0.3-0.3-0.7-0.7-1-1c-0.3-0.3-0.7-0.7-1-1
				c-0.3-0.3-0.7-0.7-1-1c-0.3-0.3-0.7-0.7-1-1c-0.3-0.3-0.7-0.7-1-1c-0.3-0.3-0.7-0.7-1-1c-0.3-0.3-0.7-0.7-1-1
				c-0.3-0.3-0.7-0.7-1-1c-0.3-0.3-0.7-0.7-1-1c-0.3-0.3-0.7-0.7-1-1c-0.3-0.3-0.7-0.7-1-1c-0.3-0.3-0.7-0.7-1-1
				c-0.3-0.3-0.7-0.7-1-1c-0.3-0.3-0.7-0.7-1-1c-0.3-0.3-0.7-0.7-1-1c-0.3-0.3-0.7-0.7-1-1c-0.3-0.3-0.7-0.7-1-1
				c-0.3-0.3-0.7-0.7-1-1c-0.3-0.3-0.7-0.7-1-1c-0.3-0.3-0.7-0.7-1-1c-0.3-0.3-0.7-0.7-1-1c-0.3-0.3-0.7-0.7-1-1
				c-0.3-0.3-0.7-0.7-1-1c-0.3-0.3-0.7-0.7-1-1c-0.3-0.3-0.7-0.7-1-1c-0.3-0.3-0.7-0.7-1-1c-0.3-0.3-0.7-0.7-1-1
				c-0.3-0.3-0.7-0.7-1-1c-0.3-0.3-0.7-0.7-1-1c-0.3-0.3-0.7-0.7-1-1c-0.3-0.3-0.7-0.7-1-1c-0.3-0.3-0.7-0.7-1-1
				c-0.3-0.3-0.7-0.7-1-1c-0.3-0.3-0.7-0.7-1-1c-0.3-0.3-0.7-0.7-1-1c-0.3-0.3-0.7-0.7-1-1c-0.3-0.3-0.7-0.7-1-1
				c-0.3-0.3-0.7-0.7-1-1c-0.3-0.3-0.7-0.7-1-1c-0.3-0.3-0.7-0.7-1-1c-0.3-0.3-0.7-0.7-1-1c-0.3-0.3-0.7-0.7-1-1
				c-0.3-0.3-0.7-0.7-1-1c-0.3-0.3-0.7-0.7-1-1c-0.3-0.3-0.7-0.7-1-1c-0.3-0.3-0.7-0.7-1-1c-0.3-0.3-0.7-0.7-1-1
				c-0.3-0.3-0.7-0.7-1-1c-0.3-0.3-0.7-0.7-1-1c-0.3-0.3-0.7-0.7-1-1c-0.3-0.3-0.7-0.7-1-1c-0.3-0.3-0.7-0.7-1-1
				c-0.3-0.3-0.7-0.7-1-1c-0.3-0.3-0.7-0.7-1-1c-0.3-0.3-0.7-0.7-1-1c-0.3-0.3-0.7-0.7-1-1c-0.3-0.3-0.7-0.7-1-1
				c-0.3-0.3-0.7-0.7-1-1c-0.3-0.3-0.7-0.7-1-1c-0.3-0.3-0.7-0.7-1-1c-0.3-0.3-0.7-0.7-1-1c-0.3-0.3-0.7-0.7-1-1
				c-0.3-0.3-0.7-0.7-1-1c-0.3-0.3-0.7-0.7-1-1c-0.3-0.3-0.7-0.7-1-1c-0.3-0.3-0.7-0.7-1-1c-0.3-0.3-0.7-0.7-1-1
				c-0.3-0.3-0.7-0.7-1-1c-0.3-0.3-0.7-0.7-1-1c-0.3-0.3-0.7-0.7-1-1c-0.3-0.3-0.7-0.7-1-1c-0.3-0.3-0.7-0.7-1-1
				c-0.3-0.3-0.7-0.7-1-1c-0.3-0.3-0.7-0.7-1-1c-0.3-0.3-0.7-0.7-1-1c-0.3-0.3-0.7-0.7-1-1c-0.3-0.3-0.7-0.7-1-1
				c-0.3-0.3-0.7-0.7-1-1c-0.3-0.3-0.7-0.7-1-1c-0.3-0.3-0.7-0.7-1-1c-0.3-0.3-0.7-0.7-1-1c-0.3-0.3-0.7-0.7-1-1
				c-0.3-0.3-0.7-0.7-1-1c-0.3-0.3-0.7-0.7-1-1c-0.3-0.3-0.7-0.7-1-1c-0.3-0.3-0.7-0.7-1-1c-0.3-0.3-0.7-0.7-1-1
				c-0.3-0.3-0.7-0.7-1-1c-0.3-0.3-0.7-0.7-1-1c-0.3-0.3-0.7-0.7-1-1c-0.3-0.3-0.7-0.7-1-1c-0.3-0.3-0.7-0.7-1-1
				c-0.3-0.3-0.7-0.7-1-1c-0.3-0.3-0.7-0.7-1-1c-0.3-0.3-0.7-0.7-1-1c-0.3-0.3-0.7-0.7-1-1c-0.3-0.3-0.7-0.7-1-1
				c-0.3-0.3-0.7-0.7-1-1c-0.3-0.3-0.7-0.7-1-1c-0.3-0.3-0.7-0.7-1-1c-0.3-0.3-0.7-0.7-1-1c-0.3-0.3-0.7-0.7-1-1
				c-0.3-0.3-0.7-0.7-1-1c-0.3-0.3-0.7-0.7-1-1c-0.3-0.3-0.7-0.7-1-1c-0.3-0.3-0.7-0.7-1-1c-0.3-0.3-0.7-0.7-1-1
				c-0.3-0.3-0.7-0.7-1-1c-0.3-0.3-0.7-0.7-1-1c-0.3-0.3-0.7-0.7-1-1c-0.3-0.3-0.7-0.7-1-1c-0.3-0.3-0.7-0.7-1-1
				c-0.3-0.3-0.7-0.7-1-1c-0.3-0.3-0.7-0.7-1-1c-0.3-0.3-0.7-0.7-1-1c-0.3-0.3-0.7-0.7-1-1c-0.3-0.3-0.7-0.7-1-1
				c-0.3-0.3-0.7-0.7-1-1c-0.3-0.3-0.7-0.7-1-1c-0.3-0.3-0.7-0.7-1-1c-0.3-0.3-0.7-0.7-1-1c-0.3-0.3-0.7-0.7-1-1
				c-0.3-0.3-0.7-0.7-1-1c-0.3-0.3-0.7-0.7-1-1c-0.3-0.3-0.7-0.7-1-1c-0.3-0.3-0.7-0.7-1-1c-0.3-0.3-0.7-0.7-1-1
				c-0.3-0.3-0.7-0.7-1-1c-0.3-0.3-0.7-0.7-1-1c-0.3-0.3-0.7-0.7-1-1c-0.3-0.3-0.7-0.7-1-1c-0.3-0.3-0.7-0.7-1-1
				c-0.3-0.3-0.7-0.7-1-1c-0.3-0.3-0.7-0.7-1-1c-0.3-0.3-0.7-0.7-1-1c-0.3-0.3-0.7-0.7-1-1c-0.3-0.3-0.7-0.7-1-1
				c-0.3-0.3-0.7-0.7-1-1c-0.3-0.3-0.7-0.7-1-1c-0.3-0.3-0.7-0.7-1-1c-0.3-0.3-0.7-0.7-1-1c-0.3-0.3-0.7-0.7-1-1
				c-0.3-0.3-0.7-0.7-1-1c-0.3-0.3-0.7-0.7-1-1c-0.3-0.3-0.7-0.7-1-1c-0.3-0.3-0.7-0.7-1-1c-0.3-0.3-0.7-0.7-1-1
				c-0.3-0.3-0.7-0.7-1-1c-0.3-0.3-0.7-0.7-1-1c-0.3-0.3-0.7-0.7-1-1c-0.3-0.3-0.7-0.7-1-1c-0.3-0.3-0.7-0.7-1-1
				c-0.3-0.3-0.7-0.7-1-1c-0.3-0.3-0.7-0.7-1-1c-0.3-0.3-0.7-0.7-1-1c-0.3-0.3-0.7-0.7-1-1c-0.3-0.3-0.7-0.7-1-1
				c-0.3-0.3-0.7-0.7-1-1c-0.3-0.3-0.7-0.7-1-1c-0.3-0.3-0.7-0.7-1-1c-0.3-0.3-0.7-0.7-1-1c-0.3-0.3-0.7-0.7-1-1
				c-0.3-0.3-0.7-0.7-1-1c-0.3-0.3-0.7-0.7-1-1c-0.3-0.3-0.7-0.7-1-1c-0.3-0.3-0.7-0.7-1-1c-0.3-0.3-0.7-0.7-1-1
				c-0.3-0.3-0.7-0.7-1-1c-0.3-0.3-0.7-0.7-1-1c-0.3-0.3-0.7-0.7-1-1c-0.3-0.3-0.7-0.7-1-1c-0.3-0.3-0.7-0.7-1-1
				c-0.3-0.3-0.7-0.7-1-1c-0.3-0.3-0.7-0.7-1-1c-0.3-0.3-0.7-0.7-1-1c-0.3-0.3-0.7-0.7-1-1c-0.3-0.3-0.7-0.7-1-1
				c-0.3-0.3-0.7-0.7-1-1c-0.3-0.3-0.7-0.7-1-1c-0.3-0.3-0.7-0.7-1-1c-0.3-0.3-0.7-0.7-1-1c-0.3-0.3-0.7-0.7-1-1
				c-0.3-0.3-0.7-0.7-1-1c-0.3-0.3-0.7-0.7-1-1c-0.3-0.3-0.7-0.7-1-1c-0.3-0.3-0.7-0.7-1-1c-0.3-0.3-0.7-0.7-1-1
				c-0.3-0.3-0.7-0.7-1-1c-0.3-0.3-0.7-0.7-1-1c-0.3-0.3-0.7-0.7-1-1c-0.3-0.3-0.7-0.7-1-1c-0.3-0.3-0.7-0.7-1-1
				c-0.3-0.3-0.7-0.7-1-1c-0.3-0.3-0.7-0.7-1-1c-0.3-0.3-0.7-0.7-1-1c-0.3-0.3-0.7-0.7-1-1c-0.3-0.3-0.7-0.7-1-1
				c-0.3-0.3-0.7-0.7-1-1c-0.3-0.3-0.7-0.7-1-1c-0.3-0.3-0.7-0.7-1-1c-0.3-0.3-0.7-0.7-1-1c-0.3-0.3-0.7-0.7-1-1
				c-0.3-0.3-0.7-0.7-1-1c-0.3-0.3-0.7-0.7-1-1c-0.3-0.3-0.7-0.7-1-1c-0.3-0.3-0.7-0.7-1-1c-0.3-0.3-0.7-0.7-1-1
				c-0.3-0.3-0.7-0.7-1-1c-0.3-0.3-0.7-0.7-1-1c-0.3-0.3-0.7-0.7-1-1c-0.3-0.3-0.7-0.7-1-1c-0.3-0.3-0.7-0.7-1-1
				c-0.3-0.3-0.7-0.7-1-1c-0.3-0.3-0.7-0.7-1-1c-0.3-0.3-0.7-0.7-1-1c-0.3-0.3-0.7-0.7-1-1c-0.3-0.3-0.7-0.7-1-1
				c-0.3-0.3-0.7-0.7-1-1c-0.3-0.3-0.7-0.7-1-1c-0.3-0.3-0.7-0.7-1-1c-0.3-0.3-0.7-0.7-1-1c-0.3-0.3-0.7-0.7-1-1
				c-0.3-0.3-0.7-0.7-1-1c-0.3-0.3-0.7-0.7-1-1c-0.3-0.3-0.7-0.7-1-1c-0.3-0.3-0.7-0.7-1-1c-0.3-0.3-0.7-0.7-1-1
				c-0.3-0.3-0.7-0.7-1-1c-0.3-0.3-0.7-0.7-1-1c-0.3-0.3-0.7-0.7-1-1c-0.3-0.3-0.7-0.7-1-1c-0.3-0.3-0.7-0.7-1-1
				c-0.3-0.3-0.7-0.7-1-1c-0.3-0.3-0.7-0.7-1-1c-0.3-0.3-0.7-0.7-1-1c-0.3-0.3-0.7-0.7-1-1c-0.3-0.3-0.7-0.7-1-1
				c-0.3-0.3-0.7-0.7-1-1c-0.3-0.3-0.7-0.7-1-1c-0.3-0.3-0.7-0.7-1-1c-0.3-0.3-0.7-0.7-1-1c-0.3-0.3-0.7-0.7-1-1
				c-0.3-0.3-0.7-0.7-1-1c-0.3-0.3-0.7-0.7-1-1c-0.3-0.3-0.7-0.7-1-1c-0.3-0.3-0.7-0.7-1-1c-0.3-0.3-0.7-0.7-1-1
				c-0.3-0.3-0.7-0.7-1-1c-0.3-0.3-0.7-0.7-1-1c-0.3-0.3-0.7-0.7-1-1c-0.3-0.3-0.7-0.7-1-1c-0.3-0.3-0.7-0.7-1-1
				c-0.3-0.3-0.7-0.7-1-1c-0.3-0.3-0.7-0.7-1-1c-0.3-0.3-0.7-0.7-1-1c-0.3-0.3-0.7-0.7-1-1c-0.3-0.3-0.7-0.7-1-1
				c-4.8-4.9-10.4-8.8-16.7-11.7c-6.1-2.8-12.4-4.6-19.2-4.5c-0.4,0-0.8,0-1.2,0c-0.6-0.1-1.1,0.1-1.7-0.1c-78.4,0-156.9,0-235.3,0
				c-0.5,0.2-1.1,0.1-1.6,0.1c-0.4,0-0.7,0-1.1,0c-2.4,0.1-4.7,0.1-7,0.5c-10.4,2.1-19.4,6.8-27.2,13.9c-5.6,5.1-10,11.2-13.2,18.2
				c-2.8,6.1-4.6,12.5-4.5,19.4c0,0.4,0,0.7,0,1.1c-0.1,0.5,0.1,1.1-0.1,1.6c0,107.8,0,215.6,0,323.4c0.2,0.5,0.1,1,0.1,1.5
				c0,0.5,0,0.9,0,1.4c0.1,3.1,0.2,6.3,1.1,9.4c2.8,10.5,7.9,19.5,15.6,26.9c0.3,0.3,0.7,0.7,1,1c0.3,0.3,0.7,0.7,1,1
				c0.3,0.3,0.7,0.7,1,1c0.3,0.3,0.7,0.7,1,1c0.3,0.3,0.7,0.7,1,1c0.3,0.3,0.7,0.7,1,1c0.3,0.3,0.7,0.7,1,1c0.3,0.3,0.7,0.7,1,1
				c0.3,0.3,0.7,0.7,1,1c0.3,0.3,0.7,0.7,1,1c0.3,0.3,0.7,0.7,1,1c0.3,0.3,0.7,0.7,1,1c0.3,0.3,0.7,0.7,1,1c0.3,0.3,0.7,0.7,1,1
				c0.3,0.3,0.7,0.7,1,1c0.3,0.3,0.7,0.7,1,1c0.3,0.3,0.7,0.7,1,1c0.3,0.3,0.7,0.7,1,1c0.3,0.3,0.7,0.7,1,1c0.3,0.3,0.7,0.7,1,1
				c0.3,0.3,0.7,0.7,1,1c0.3,0.3,0.7,0.7,1,1c0.3,0.3,0.7,0.7,1,1c0.3,0.3,0.7,0.7,1,1c0.3,0.3,0.7,0.7,1,1c0.3,0.3,0.7,0.7,1,1
				c0.3,0.3,0.7,0.7,1,1c0.3,0.3,0.7,0.7,1,1c0.3,0.3,0.7,0.7,1,1c0.3,0.3,0.7,0.7,1,1c0.3,0.3,0.7,0.7,1,1c0.3,0.3,0.7,0.7,1,1
				c0.3,0.3,0.7,0.7,1,1c0.3,0.3,0.7,0.7,1,1c0.3,0.3,0.7,0.7,1,1c0.3,0.3,0.7,0.7,1,1c0.3,0.3,0.7,0.7,1,1c0.3,0.3,0.7,0.7,1,1
				c0.3,0.3,0.7,0.7,1,1c0.3,0.3,0.7,0.7,1,1c0.3,0.3,0.7,0.7,1,1c0.3,0.3,0.7,0.7,1,1c0.3,0.3,0.7,0.7,1,1c0.3,0.3,0.7,0.7,1,1
				c0.3,0.3,0.7,0.7,1,1c0.3,0.3,0.7,0.7,1,1c0.3,0.3,0.7,0.7,1,1c0.3,0.3,0.7,0.7,1,1c0.3,0.3,0.7,0.7,1,1c0.3,0.3,0.7,0.7,1,1
				c0.3,0.3,0.7,0.7,1,1c0.3,0.3,0.7,0.7,1,1c0.3,0.3,0.7,0.7,1,1c0.3,0.3,0.7,0.7,1,1c0.3,0.3,0.7,0.7,1,1c0.3,0.3,0.7,0.7,1,1
				c0.3,0.3,0.7,0.7,1,1c0.3,0.3,0.7,0.7,1,1c0.3,0.3,0.7,0.7,1,1c0.3,0.3,0.7,0.7,1,1c0.3,0.3,0.7,0.7,1,1c0.3,0.3,0.7,0.7,1,1
				c0.3,0.3,0.7,0.7,1,1c0.3,0.3,0.7,0.7,1,1c0.3,0.3,0.7,0.7,1,1c0.3,0.3,0.7,0.7,1,1c0.3,0.3,0.7,0.7,1,1c0.3,0.3,0.7,0.7,1,1
				c0.3,0.3,0.7,0.7,1,1c0.3,0.3,0.7,0.7,1,1c0.3,0.3,0.7,0.7,1,1c0.3,0.3,0.7,0.7,1,1c0.3,0.3,0.7,0.7,1,1c0.3,0.3,0.7,0.7,1,1
				c0.3,0.3,0.7,0.7,1,1c0.3,0.3,0.7,0.7,1,1c0.3,0.3,0.7,0.7,1,1c0.3,0.3,0.7,0.7,1,1c0.3,0.3,0.7,0.7,1,1c0.3,0.3,0.7,0.7,1,1
				c0.3,0.3,0.7,0.7,1,1c0.3,0.3,0.7,0.7,1,1c0.3,0.3,0.7,0.7,1,1c0.3,0.3,0.7,0.7,1,1c0.3,0.3,0.7,0.7,1,1c0.3,0.3,0.7,0.7,1,1
				c0.3,0.3,0.7,0.7,1,1c0.3,0.3,0.7,0.7,1,1c0.3,0.3,0.7,0.7,1,1c0.3,0.3,0.7,0.7,1,1c0.3,0.3,0.7,0.7,1,1c0.3,0.3,0.7,0.7,1,1
				c0.3,0.3,0.7,0.7,1,1c0.3,0.3,0.7,0.7,1,1c0.3,0.3,0.7,0.7,1,1c0.3,0.3,0.7,0.7,1,1c0.3,0.3,0.7,0.7,1,1c0.3,0.3,0.7,0.7,1,1
				c0.3,0.3,0.7,0.7,1,1c0.3,0.3,0.7,0.7,1,1c0.3,0.3,0.7,0.7,1,1c0.3,0.3,0.7,0.7,1,1c0.3,0.3,0.7,0.7,1,1c0.3,0.3,0.7,0.7,1,1
				c0.3,0.3,0.7,0.7,1,1c0.3,0.3,0.7,0.7,1,1c0.3,0.3,0.7,0.7,1,1c0.3,0.3,0.7,0.7,1,1c0.3,0.3,0.7,0.7,1,1c0.3,0.3,0.7,0.7,1,1
				c0.3,0.3,0.7,0.7,1,1c0.3,0.3,0.7,0.7,1,1c0.3,0.3,0.7,0.7,1,1c0.3,0.3,0.7,0.7,1,1c0.3,0.3,0.7,0.7,1,1c0.3,0.3,0.7,0.7,1,1
				c0.3,0.3,0.7,0.7,1,1c0.3,0.3,0.7,0.7,1,1c0.3,0.3,0.7,0.7,1,1c0.3,0.3,0.7,0.7,1,1c0.3,0.3,0.7,0.7,1,1c0.3,0.3,0.7,0.7,1,1
				c0.3,0.3,0.7,0.7,1,1c0.3,0.3,0.7,0.7,1,1c0.3,0.3,0.7,0.7,1,1c0.3,0.3,0.7,0.7,1,1c0.3,0.3,0.7,0.7,1,1c0.3,0.3,0.7,0.7,1,1
				c0.3,0.3,0.7,0.7,1,1c0.3,0.3,0.7,0.7,1,1c0.3,0.3,0.7,0.7,1,1c0.3,0.3,0.7,0.7,1,1c0.3,0.3,0.7,0.7,1,1c0.3,0.3,0.7,0.7,1,1
				c0.3,0.3,0.7,0.7,1,1c0.3,0.3,0.7,0.7,1,1c0.3,0.3,0.7,0.7,1,1c0.3,0.3,0.7,0.7,1,1c0.3,0.3,0.7,0.7,1,1c0.3,0.3,0.7,0.7,1,1
				c0.3,0.3,0.7,0.7,1,1c0.3,0.3,0.7,0.7,1,1c0.3,0.3,0.7,0.7,1,1c0.3,0.3,0.7,0.7,1,1c0.3,0.3,0.7,0.7,1,1c0.3,0.3,0.7,0.7,1,1
				c0.3,0.3,0.7,0.7,1,1c0.3,0.3,0.7,0.7,1,1c0.3,0.3,0.7,0.7,1,1c0.3,0.3,0.7,0.7,1,1c0.3,0.3,0.7,0.7,1,1c0.3,0.3,0.7,0.7,1,1
				c0.3,0.3,0.7,0.7,1,1c0.3,0.3,0.7,0.7,1,1c0.3,0.3,0.7,0.7,1,1c0.3,0.3,0.7,0.7,1,1c0.3,0.3,0.7,0.7,1,1c0.3,0.3,0.7,0.7,1,1
				c0.3,0.3,0.7,0.7,1,1c0.3,0.3,0.7,0.7,1,1c0.3,0.3,0.7,0.7,1,1c0.3,0.3,0.7,0.7,1,1c0.3,0.3,0.7,0.7,1,1c0.3,0.3,0.7,0.7,1,1
				c0.3,0.3,0.7,0.7,1,1c0.3,0.3,0.7,0.7,1,1c0.3,0.3,0.7,0.7,1,1c0.3,0.3,0.7,0.7,1,1c0.3,0.3,0.7,0.7,1,1c0.3,0.3,0.7,0.7,1,1
				c0.3,0.3,0.7,0.7,1,1c0.3,0.3,0.7,0.7,1,1c0.3,0.3,0.7,0.7,1,1c0.3,0.3,0.7,0.7,1,1c0.3,0.3,0.7,0.7,1,1c0.3,0.3,0.7,0.7,1,1
				c0.3,0.3,0.7,0.7,1,1c0.3,0.3,0.7,0.7,1,1c0.3,0.3,0.7,0.7,1,1c0.3,0.3,0.7,0.7,1,1c0.3,0.3,0.7,0.7,1,1c0.3,0.3,0.7,0.7,1,1
				c0.3,0.3,0.7,0.7,1,1c0.3,0.3,0.7,0.7,1,1c0.3,0.3,0.7,0.7,1,1c0.3,0.3,0.7,0.7,1,1c0.3,0.3,0.7,0.7,1,1c0.3,0.3,0.7,0.7,1,1
				c0.3,0.3,0.7,0.7,1,1c0.3,0.3,0.7,0.7,1,1c0.3,0.3,0.7,0.7,1,1c0.3,0.3,0.7,0.7,1,1c0.3,0.3,0.7,0.7,1,1c0.3,0.3,0.7,0.7,1,1
				c0.3,0.3,0.7,0.7,1,1c0.3,0.3,0.7,0.7,1,1c0.3,0.3,0.7,0.7,1,1c0.3,0.3,0.7,0.7,1,1c0.3,0.3,0.7,0.7,1,1c0.3,0.3,0.7,0.7,1,1
				c0.3,0.3,0.7,0.7,1,1c0.3,0.3,0.7,0.7,1,1c0.3,0.3,0.7,0.7,1,1c0.3,0.3,0.7,0.7,1,1c0.3,0.3,0.7,0.7,1,1c0.3,0.3,0.7,0.7,1,1
				c0.3,0.3,0.7,0.7,1,1c0.3,0.3,0.7,0.7,1,1c0.3,0.3,0.7,0.7,1,1c0.3,0.3,0.7,0.7,1,1c0.3,0.3,0.7,0.7,1,1c0.3,0.3,0.7,0.7,1,1
				c0.3,0.3,0.7,0.7,1,1c0.3,0.3,0.7,0.7,1,1c0.3,0.3,0.7,0.7,1,1c0.3,0.3,0.7,0.7,1,1c0.3,0.3,0.7,0.7,1,1c0.3,0.3,0.7,0.7,1,1
				c0.3,0.3,0.7,0.7,1,1c0.3,0.3,0.7,0.7,1,1c0.3,0.3,0.7,0.7,1,1c0.3,0.3,0.7,0.7,1,1c0.3,0.3,0.7,0.7,1,1c0.3,0.3,0.7,0.7,1,1
				c0.3,0.3,0.7,0.7,1,1c0.3,0.3,0.7,0.7,1,1c0.3,0.3,0.7,0.7,1,1c0.3,0.3,0.7,0.7,1,1c0.3,0.3,0.7,0.7,1,1c0.3,0.3,0.7,0.7,1,1
				c0.3,0.3,0.7,0.7,1,1c0.3,0.3,0.7,0.7,1,1c0.3,0.3,0.7,0.7,1,1c0.3,0.3,0.7,0.7,1,1c0.3,0.3,0.7,0.7,1,1c0.3,0.3,0.7,0.7,1,1
				c0.3,0.3,0.7,0.7,1,1c0.3,0.3,0.7,0.7,1,1c0.3,0.3,0.7,0.7,1,1c0.3,0.3,0.7,0.7,1,1c0.3,0.3,0.7,0.7,1,1c0.3,0.3,0.7,0.7,1,1
				c0.3,0.3,0.7,0.7,1,1c0.3,0.3,0.7,0.7,1,1c0.3,0.3,0.7,0.7,1,1c0.3,0.3,0.7,0.7,1,1c0.3,0.3,0.7,0.7,1,1c0.3,0.3,0.7,0.7,1,1
				c0.3,0.3,0.7,0.7,1,1c0.3,0.3,0.7,0.7,1,1c0.3,0.3,0.7,0.7,1,1c0.3,0.3,0.7,0.7,1,1c0.3,0.3,0.7,0.7,1,1c0.3,0.3,0.7,0.7,1,1
				c0.3,0.3,0.7,0.7,1,1c0.3,0.3,0.7,0.7,1,1c0.3,0.3,0.7,0.7,1,1c0.3,0.3,0.7,0.7,1,1c0.3,0.3,0.7,0.7,1,1c0.3,0.3,0.7,0.7,1,1
				c0.3,0.3,0.7,0.7,1,1c0.3,0.3,0.7,0.7,1,1c0.3,0.3,0.7,0.7,1,1c0.3,0.3,0.7,0.7,1,1c0.3,0.3,0.7,0.7,1,1c0.3,0.3,0.7,0.7,1,1
				c0.3,0.3,0.7,0.7,1,1c0.3,0.3,0.7,0.7,1,1c0.3,0.3,0.7,0.7,1,1c0.3,0.3,0.7,0.7,1,1c0.3,0.3,0.7,0.7,1,1c0.3,0.3,0.7,0.7,1,1
				c0.3,0.3,0.7,0.7,1,1c0.3,0.3,0.7,0.7,1,1c0.3,0.3,0.7,0.7,1,1c0.3,0.3,0.7,0.7,1,1c0.3,0.3,0.7,0.7,1,1c0.3,0.3,0.7,0.7,1,1
				c0.3,0.3,0.7,0.7,1,1c0.3,0.3,0.7,0.7,1,1c0.3,0.3,0.7,0.7,1,1c0.3,0.3,0.7,0.7,1,1c0.3,0.3,0.7,0.7,1,1c1.3,1.4,2.8,2.7,4.3,3.9
				c10.4,8.7,22.4,13.2,36,13.2c64,0.1,128.1,0,192.1,0c0.3,0.3,0.5,0.5,0.8,0.8c0.3,0.3,0.7,0.7,1,1c0.3,0.3,0.7,0.7,1,1
				c0.3,0.3,0.7,0.7,1,1c0.3,0.3,0.7,0.7,1,1c0.3,0.3,0.7,0.7,1,1c0.3,0.3,0.7,0.7,1,1c0.3,0.3,0.7,0.7,1,1c0.3,0.3,0.7,0.7,1,1
				c0.3,0.3,0.7,0.7,1,1c0.3,0.3,0.7,0.7,1,1c0.3,0.3,0.7,0.7,1,1c0.3,0.3,0.7,0.7,1,1c0.3,0.3,0.7,0.7,1,1c0.3,0.3,0.7,0.7,1,1
				c0.3,0.3,0.7,0.7,1,1c0.3,0.3,0.7,0.7,1,1c0.3,0.3,0.7,0.7,1,1c0.3,0.3,0.7,0.7,1,1c0.3,0.3,0.7,0.7,1,1c0.3,0.3,0.7,0.7,1,1
				c0.3,0.3,0.7,0.7,1,1c0.3,0.3,0.7,0.7,1,1c0.3,0.3,0.7,0.7,1,1c0.3,0.3,0.7,0.7,1,1c0.3,0.3,0.7,0.7,1,1c0.3,0.3,0.7,0.7,1,1
				c0.3,0.3,0.7,0.7,1,1c0.3,0.3,0.7,0.7,1,1c0.3,0.3,0.7,0.7,1,1c0.3,0.3,0.7,0.7,1,1c3.3,3.6,8.1,5.8,13.4,5.8
				c25.6,0,51.2,0,76.8,0c0.8-0.3,0.6-1.1,0.8-1.6c0.8-3.3,2.3-5.8,4.6-7.7c0.2,0.1,0.4,0.1,0.6,0.1c0,0.1,0,0.2,0,0.3
				c0.1,0.6,0.6,0.6,1,0.7c0,0.1,0,0.2,0,0.3c0.1,0.6,0.6,0.6,1,0.7c0,0.1,0,0.2,0,0.3c0.1,0.6,0.6,0.6,1.1,0.7
				c0.2,0,0.3,0.1,0.5,0.1c0.1,0.2,0.3,0.4,0.6,0.5c0,0,0.1,0,0.1,0c0.1,0.4,0.3,0.9,0.9,1c0,0,0.1,0,0.1,0c0.1,0.4,0.3,0.9,0.9,1
				c0,0,0.1,0,0.1,0c0.1,0.4,0.3,0.9,0.9,1c0,0,0.1,0,0.1,0c0.1,0.4,0.3,0.9,0.9,1c0,0,0.1,0,0.1,0c0.1,0.4,0.3,0.9,0.9,1
				c0,0,0.1,0,0.1,0c0.1,0.4,0.3,0.9,0.9,1c1.2,0.3,2.4,0.3,3.5,0c0.9-0.4,0.7-1.4,0.9-2.1c0.8-3.2,2.3-5.7,4.5-7.6
				c0.1,0.1,0.3,0.1,0.4,0.1c0,0,0.1,0,0.1,0c0,0.1,0,0.2,0,0.4c0.1,0.4,0.5,0.5,0.9,0.6c0,0,0.1,0,0.1,0c0,0.1,0,0.2,0,0.4
				c0.1,0.4,0.5,0.5,0.9,0.6c0,0,0.1,0,0.1,0c0,0.1,0,0.2,0,0.4c0.1,0.4,0.5,0.5,0.9,0.6c0.1,0,0.3,0.1,0.4,0.1c0.1,0,0.2,0,0.2,0.1
				c0.1,0.1,0.2,0.3,0.4,0.4c0.1,0.1,0.3,0.1,0.4,0.2c0.1,0.3,0.2,0.6,0.6,0.8c0.1,0.1,0.3,0.1,0.4,0.2c0.1,0.3,0.2,0.6,0.6,0.8
				c0.1,0.1,0.3,0.1,0.4,0.2c0.1,0.3,0.2,0.6,0.6,0.8c0.1,0.1,0.3,0.1,0.4,0.2c0.1,0.3,0.2,0.6,0.6,0.8c0.1,0.1,0.3,0.1,0.4,0.2
				c0.1,0.3,0.2,0.6,0.6,0.8c0.1,0.1,0.3,0.1,0.4,0.2c0.1,0.3,0.2,0.6,0.6,0.8c0.5,0.2,1.1,0.3,1.7,0.3c5.4-0.2,10-2.3,13.6-6.4
				c2.5-2.8,4.1-6,4-9.9c0.1-0.4-0.1-0.8,0.1-1.2C895.9,877.9,895.9,858.9,895.9,839.8z"/>
		</g>
	</g>
</g>
<g>
	<path class="st3" d="M188.3,544.8c0-110.3,0-220.6,0-330.9c0.2-2,0.2-4.1,0.4-6.1c0.4-4,1.6-7.7,3.1-11.4
		c2.4-6.2,5.9-11.9,10.3-16.9c8.4-9.6,18.9-15.7,31.4-18.5c2.3-0.5,4.7-0.5,7.1-0.6c0.4,0,0.9,0.1,1.3-0.1c80.6,0,161.2,0,241.8,0
		c2,0.2,4,0.2,6,0.4c3.6,0.3,7.1,1.4,10.5,2.7c6,2.2,11.5,5.4,16.5,9.5c9.2,7.6,15.5,17.1,18.9,28.5c1.6,5.5,2.3,11.2,2.3,16.9
		c0,105.4,0,210.9,0,316.3c0,1.1,0.2,2.3-0.4,3.3c-0.4,0.4-0.9,0.3-1.4,0.3c-5.6,0-11.2,0-16.8,0c-0.4,0-0.8,0-1.1-0.2
		c-0.7-0.2-0.8-0.7-0.8-1.3c-0.1-1.9-0.7-3.6-1.9-5.1c-2.1-2.6-5.1-3.4-8.1-2.1c-1.2,0.5-2.2,1.4-3.2,2.2c-0.5,0.4-1,0.7-1.5,0
		c-0.3-0.9-0.2-1.8-0.2-2.7c0-24.3,0-48.5,0-72.8c0-79.2,0-158.4,0-237.6c0-6.2-1.8-11.6-5.9-16.2c-3.6-4-8.1-6.3-13.4-7
		c-1.2-0.2-2.3-0.2-3.5-0.2c-77.9,0-155.7,0-233.6,0c-6.1,0-11.5,2-15.9,6.2c-3.7,3.5-5.9,7.9-6.7,13c-0.2,1.2-0.2,2.5-0.2,3.8
		c0,107.4,0,214.9,0,322.3c0,6.1,2,11.5,6.1,15.9c3.5,3.8,8,6,13.2,6.8c1.4,0.2,2.7,0.2,4.1,0.2c70.1,0,140.3,0,210.4,0
		c1.1,0,2.2-0.2,3.2,0.4c0.6,0.7,0.4,1.5,0.4,2.3c0,9.1,0,18.2,0,27.2c0,1.1,0,2.3,0,3.4c0,0.5,0,1.1-0.3,1.6
		c-0.4,0.5-1,0.5-1.6,0.5c-0.8,0-1.6,0-2.4,0c-70.2,0-140.4,0-210.6,0c-14,0-26.4-4.4-37.1-13.3c-10.2-8.5-16.8-19.3-19.6-32.4
		c-0.5-2.3-0.5-4.7-0.6-7.1C188.4,545.7,188.5,545.2,188.3,544.8z"/>
	<path class="st4" d="M556.3,630c-25.9,0-51.7,0-77.6,0c-9,0-16.4-6-18.2-14.8c-0.2-1.2-0.4-2.4-0.4-3.6c0-4.4,0-8.8,0-13.2
		c0-11.5,0-22.9,0-34.4c-0.3-0.3-0.5-0.6-0.5-1c0.1-3.6-0.4-7.2,0.4-10.8c1.5-7.6,7.8-13.6,15.4-14.8c2.2-0.3,4.3-0.5,6.5,0
		c0.5,0.2,0.5,0.7,0.6,1.2c0.8,3.4,2.8,5.6,6.3,6.3c0.1,0,0.2,0.1,0.3,0.1c0.4,0.1,0.8,0.2,0.8,0.6c0.1,0.5-0.2,0.8-0.6,1
		c-1.5,0.9-3.1,1.7-4.9,1.7c-0.2,0-0.4,0-0.6,0c-0.8,0-1.6,0-1.7,1.1c-0.1,0.8,0.6,1.7,1.5,1.9c0.9,0.1,1.9,0.2,2.8-0.1
		c5.6-1.6,9.3-5.2,10.6-11c0.1-0.6,0.1-1.1,0.2-1.7c0-0.5,0.1-0.9,0.6-1.1c1.2-0.3,2.4-0.3,3.6,0c0.5,0.1,0.6,0.6,0.7,1
		c0.8,3.6,2.9,5.8,6.5,6.5c0.4,0.1,1,0.2,1,0.7c0.1,0.6-0.3,0.9-0.8,1.1c-1.6,0.9-3.3,1.6-5.2,1.5c-0.8,0-1.6,0-1.7,1
		c-0.1,0.9,0.7,1.8,1.7,2c1.5,0.2,3-0.1,4.4-0.7c5.4-2.2,8.4-6.1,9.1-11.9c0.1-0.4,0-1,0.6-1.1c6.5,0,12.9,0,19.4,0
		c0.5,0,0.9,0,1.4,0c18.1,0,36.1,0,54.2,0c9.8,0,17.1,6.2,18.7,15.9c0,0.1,0.1,0.3,0.2,0.4c0,19.9,0,39.8,0,59.8
		c-0.2,0.6-0.2,1.2-0.2,1.8c-0.1,3.1-1.6,5.6-3.4,7.9c-3.2,4.1-7.5,6.3-12.7,7c-1.1,0.1-2.2,0.2-3.3-0.2c-0.4-0.3-0.5-0.7-0.7-1.2
		c-1-3-3-4.8-6.1-5.4c-0.5-0.1-1.2-0.1-1.2-0.8c-0.1-0.6,0.4-0.9,0.9-1.2c1.6-0.9,3.3-1.6,5.2-1.5c0.8,0,1.5,0,1.6-1
		c0.1-0.9-0.4-1.6-1.3-1.9c-1-0.4-2-0.3-2.9,0c-3.3,1-6.3,2.5-8.3,5.4c-1.3,1.9-2.2,4.1-2.7,6.4c-0.1,0.5-0.1,1-0.7,1.2
		c-1.2,0.3-2.4,0.3-3.6,0c-0.6-0.1-0.8-0.7-0.9-1.2c-1-3.1-3.1-4.9-6.3-5.5c-0.4-0.1-1-0.1-1.1-0.7c-0.1-0.5,0.3-0.8,0.7-1.1
		c1.6-1,3.3-1.7,5.3-1.6c0.8,0,1.6,0.1,1.8-1c0.1-1-0.4-1.6-1.5-2c-1-0.3-2-0.1-3,0.2c-5.6,1.6-9,5.2-10.4,10.9
		C556.9,628.9,557,629.7,556.3,630z"/>
	<path class="st5" d="M592.3,630c0,0.8,0.1,1.5,0.1,2.3c-0.1,4.5-3.5,6.9-6.9,7.8c-0.3,0.1-0.5,0.1-0.7,0.2c-0.5,0-1.1,0-1.6,0
		c-0.1,0-0.1-0.1-0.2-0.1c-1.8,0.1-3.2-0.7-4.5-2.1c-1.9-2-2.7-4.3-2.7-6.9c0-0.5,0.1-0.9,0.5-1.2c0.8-7.2,5.4-12,12.4-13.4
		c0.9-0.2,1.8-0.1,2.7,0.4c1.1,0.5,1.6,2,1.1,3.1c-0.4,0.8-1.1,0.8-1.8,0.7c-2.3-0.2-4.3,0.7-6.4,2.1
		C588.7,623.4,591.4,625.8,592.3,630z"/>
	<path class="st5" d="M556.3,630c0.9-7.3,5.4-11.9,12.4-13.4c0.9-0.2,1.8-0.1,2.6,0.3c1.2,0.5,1.8,2,1.2,3.2c-0.3,0.7-1,0.8-1.6,0.7
		c-2.4-0.2-4.4,0.6-6.5,2.1c4.5,0.5,7.1,2.8,8.1,7c0.5,0.4,0.7,1,0.7,1.6c0,4.8-3.5,8.6-7.9,8.6c-0.1,0-0.1,0.1-0.2,0.1
		c-0.6,0-1.2,0-1.8,0c-2.9-0.6-4.6-2.5-6-4.9C556.2,633.7,556.5,631.8,556.3,630z"/>
	<path class="st6" d="M481.8,537.7c-3.2,0-6.5-0.1-9.6,1.1c-7.2,2.6-12.1,9.5-12.1,17.2c0,2.7,0,5.4,0,8.1c-71.6,0-143.1,0-214.7,0
		c-12.5,0-22.8-10.3-22.8-22.9c0-107.9,0-215.7,0-323.6c0-12.7,10.2-22.9,23-22.9c53.1,0,106.3,0,159.4,0c24.8,0,49.6,0,74.4,0
		c11.7,0,20.9,7.5,23.1,19c0.3,1.6,0.4,3.2,0.4,4.8c0,104,0,207.9,0,311.9c0,0.6,0,1.1,0,1.7c0.3,0.3,0.3,0.7,0.1,1
		c-0.5,1.2-0.8,2.4-0.8,3.7c0,0.4-0.1,0.8-0.5,0.9c-1.3,0-2.5,0-3.8,0c-0.7-0.2-0.6-0.7-0.6-1.2c-0.2-1.9-0.8-3.5-2-5
		c-1.7-2.1-3.8-3.1-6.5-2.5c-3.3,0.8-6.4,3.3-6.4,7.3C482.4,536.8,482.5,537.4,481.8,537.7z"/>
	<path class="st5" d="M501.7,537.7c-0.1-2,0.3-3.9,1.2-5.7c1.7-1.7,3.5-3.2,6-3.6c2.3-0.4,4.3,0.2,6,1.8c2.1,2,3.1,4.5,3,7.4
		c-0.3,7.9-4.9,11.9-10.7,13.9c-1.1,0.4-2.2,0.4-3.4,0.3c-1.3-0.2-2.1-1-2.2-2.2c-0.1-1.4,0.4-2,1.8-1.9c2.6,0,4.8-0.7,6.3-2.2
		C505,545,502.3,542.3,501.7,537.7z"/>
	<path class="st5" d="M481.8,537.7c0-0.6,0-1.1,0-1.7c0.1-5.4,6.5-8.5,10.2-7.5c2.3,0.6,5.9,4.2,5.9,7.7c0,0.5,0.1,1,0.1,1.5
		c-0.1,3.9-1.4,7.4-4.2,10.1c-2.6,2.5-5.7,4.3-9.6,4.2c-1.5-0.1-2.5-1-2.6-2.2c-0.1-1.4,0.4-2,1.8-1.9c2.1,0.1,4-0.6,5.7-1.6
		c0.1-0.1,0.3-0.2,0.4-0.3c0,0,0.1-0.1,0.1-0.3C485,545,482.4,542.3,481.8,537.7z"/>
	<path class="st7" d="M547.7,583c1.1-1.2,2.2-2.3,3.9-2.6c3.3-0.7,6.6,1,6.7,5c0.1,3.8,0,7.6,0,11.4c0,0.7-0.3,0.9-0.9,0.9
		c-0.9,0-1.8-0.1-2.7,0c-0.8,0.1-0.9-0.3-0.9-1c0-3.2,0-6.5,0-9.7c0-0.4-0.1-0.9-0.1-1.3c-0.1-1.2-0.8-1.7-1.7-1.9
		c-1.1-0.2-2,0.3-2.7,1.2c-0.7,1-0.9,2.1-0.9,3.2c0,2.9,0,5.7,0,8.6c0,0.8-0.2,1.1-1,1c-1.1-0.1-2.6,0.4-3.3-0.2
		c-0.7-0.6-0.2-2.1-0.2-3.3c0-2.4,0-4.8,0-7.2c0-0.7-0.1-1.4-0.3-2c-0.2-0.8-0.8-1.3-1.8-1.3c-1.3,0-2.5,0.6-2.9,1.6
		c-0.3,0.9-0.6,1.9-0.6,2.8c0,2.8,0,5.6,0,8.5c0,0.9-0.3,1.1-1.1,1.1c-0.9-0.1-1.8,0-2.7,0c-0.6,0-0.8-0.2-0.8-0.8
		c0-5.1,0-10.3,0-15.4c0-0.5,0.1-0.8,0.7-0.7c0.6,0,1.2,0,1.8,0c2,0,2,0,2.1,2.1c1.4-1.4,2.9-2.5,4.9-2.5
		C545.2,580.3,546.8,581.1,547.7,583z"/>
	<path class="st7" d="M472.9,586c0-3.5,0-7.1,0-10.6c0-0.8,0.2-1,1-1c5.2,0,10.3,0,15.5,0c0.7,0,1,0.2,1,1c0,3,0,3-2.9,3
		c-2.9,0-5.8,0-8.7,0c-0.7,0-1,0.1-1,0.9c0.1,1.1,0.1,2.3,0,3.4c0,0.8,0.3,0.9,1,0.9c3.2,0,6.4,0,9.6,0c0.8,0,1.1,0.1,1.1,1
		c0,2.9,0,2.9-2.9,2.9c-2.6,0-5.3,0-7.9,0c-0.7,0-0.9,0.2-0.9,0.9c0.1,1.5,0.1,3.1,0,4.6c0,0.9,0.3,1,1.1,1c3.6,0,7.3,0,10.9,0
		c0.9,0,1.2,0.2,1.2,1.1c-0.1,2.8,0,2.8-2.8,2.8c-4.7,0-9.3,0-14,0c-1,0-1.2-0.3-1.2-1.2C473,593,472.9,589.5,472.9,586z"/>
	<path class="st7" d="M577.6,597.7c-1,0-1.8,0-2.7,0c-2,0-2,0-2.5-2c-1.1,1.3-2.4,2.1-4,2.4c-2.3,0.4-5.7-0.3-6.5-3.7
		c-0.6-2.3,0.5-5.2,3.4-6.1c1.6-0.5,3.4-0.7,5-1.3c0.7-0.2,1.6-0.1,1.5-1.2c-0.1-1.1-0.6-1.7-1.6-2c-1.6-0.4-2.6,0.1-3.4,1.6
		c-0.1,0.3-0.3,0.5-0.6,0.4c-1-0.2-2-0.4-3.1-0.6c-0.7-0.1-0.6-0.4-0.4-0.9c0.9-2.7,3-3.8,5.6-4c2.1-0.2,4.1-0.1,6,0.9
		c1.8,0.9,2,2.6,2.1,4.3c0.1,2.4,0.1,4.8,0,7.2C576.4,594.4,576.7,596,577.6,597.7z"/>
	<path class="st7" d="M600.8,590.4c-1.6,0-3.3,0-4.9,0c-0.4,0-0.7,0.1-0.7,0.6c0,2,1.6,3.7,3.5,3.7c1.3,0.1,2.2-0.5,2.7-1.6
		c0.2-0.6,0.4-0.7,1.1-0.5c0.8,0.2,1.7,0.2,2.6,0.3c1.1,0.1,1.2,0.4,0.8,1.3c-1.7,3.5-5.4,4.3-8.5,3.8c-1.6-0.3-3-0.7-4.2-1.9
		c-1.5-1.6-2.2-3.5-2.4-5.6c-0.2-2.1,0-4.3,1.1-6.3c2.3-4.3,7.5-5.2,11.3-2.7c2.9,1.9,3.4,5,3.4,8.3c0,0.6-0.5,0.5-0.8,0.5
		C604,590.4,602.4,590.4,600.8,590.4z"/>
	<path class="st7" d="M500.7,580.3c1.9,0,3.7,0.2,5.4,1.3c1,0.7,1.4,1.8,2,2.8c0.2,0.3,0,0.4-0.3,0.4c-1.3,0.2-2.6,0.5-3.9,0.7
		c-0.4,0.1-0.4-0.4-0.6-0.6c-0.9-1.4-3.2-2-4.6-1.1c-0.4,0.2-0.8,0.5-0.7,1.1c0.1,0.5,0.4,0.9,0.9,1.1c1.4,0.6,2.8,0.7,4.2,1.2
		c1.4,0.4,2.9,0.7,4,1.7c2.7,2.2,2.1,6.4-1,8.2c-2.2,1.2-4.6,1.4-7,1c-0.8-0.1-1.5-0.3-2.3-0.5c-1.9-0.6-3.1-2-3.9-3.8
		c-0.1-0.3-0.2-0.5,0.2-0.5c1.3-0.2,2.6-0.5,3.9-0.7c0.4-0.1,0.4,0.4,0.6,0.6c1.1,1.9,4.4,2.6,6.1,1.2c0.5-0.4,0.7-0.9,0.6-1.5
		c-0.1-0.7-0.7-0.9-1.2-1c-2-0.5-4.1-0.9-6-1.6c-3.2-1.1-4.5-4.2-2.8-7c1.2-2,3.2-2.6,5.4-2.8C500,580.2,500.4,580.3,500.7,580.3z"
		/>
	<path class="st7" d="M521.2,594.3c0.2,0.9-0.1,1.8,0.3,2.7c0.1,0.3-0.1,0.6-0.4,0.7c-2,0.6-4,0.8-5.9-0.2c-1.5-0.8-1.6-2.3-1.7-3.7
		c-0.1-2.8-0.1-5.6,0-8.5c0-0.9-0.2-1.3-1.1-1.1c-0.8,0.2-1.1-0.3-1-1c0-0.3,0-0.7,0-1c-0.2-1,0.1-1.6,1.3-1.4
		c0.6,0.1,0.9-0.2,0.8-0.8c-0.5-2.2,0.7-3.2,2.5-3.8c0.7-0.3,1.2-0.9,2.1-1c0,1.6,0,3.1,0,4.7c0,0.7,0.2,0.9,0.9,0.9
		c2.4,0,2.4,0,2.4,2.5c0,0.8-0.3,0.9-1,0.9c-2.2,0-2.2,0-2.2,2.3c0,2.1,0.1,4.2,0,6.3c-0.1,1.7,1,2.4,2.4,1.7
		C520.6,594.4,520.9,594.4,521.2,594.3z"/>
	<path class="st7" d="M585.6,575.2c0,1.6,0,3.1,0,4.7c0,0.7,0.1,0.9,0.9,0.9c2.4,0,2.4,0.1,2.4,2.5c0,0.8-0.2,1-1,1
		c-2.3,0-2.3,0-2.3,2.2c0,2.1,0.1,4.2,0,6.3c-0.1,1.8,1.1,2.4,2.4,1.8c0.2-0.1,0.4-0.1,0.8-0.2c0.2,0.9-0.1,1.9,0.3,2.8
		c0.1,0.3-0.1,0.5-0.4,0.6c-2,0.6-4,0.8-5.9-0.2c-1.5-0.8-1.7-2.3-1.7-3.7c-0.1-2.8-0.1-5.6,0-8.5c0-0.8-0.1-1.3-1.1-1.2
		c-0.8,0.2-1.1-0.2-1-1c0-0.3,0-0.6,0-0.9c-0.2-1.1,0.1-1.8,1.4-1.5c0.6,0.1,0.8-0.3,0.7-0.7c-0.5-2.2,0.7-3.2,2.5-3.8
		C584.2,575.9,584.7,575.3,585.6,575.2z"/>
	<path class="st7" d="M524.9,589.2c0-2.5,0-5,0-7.5c0-0.8,0.2-1,1-0.9c0.9,0.1,1.9,0,2.9,0c0.6,0,0.8,0.1,0.8,0.8
		c0,5.1,0,10.3,0,15.4c0,0.6-0.2,0.8-0.8,0.8c-1.2-0.1-2.8,0.5-3.6-0.3c-0.6-0.6-0.2-2.2-0.2-3.3
		C524.9,592.5,524.9,590.9,524.9,589.2z"/>
	<path class="st7" d="M527.2,578.2c-2.3,0-2.3,0-2.3-2.3c0-1.6,0-1.6,1.8-1.6c2.8,0,2.8,0,2.8,2.7c0,1.1-0.3,1.3-1.3,1.2
		C527.9,578.2,527.6,578.2,527.2,578.2z"/>
	<path class="st8" d="M282.4,381.3c2.4,4.2,4.9,8.4,7.3,12.7c12.1,21,24.1,42,36.2,63c9.3,16.2,18.6,32.4,27.9,48.5
		c1,1.7,0.8,3.6,0.9,5.5c0.2,3.5,0.4,6.9,0.6,10.4c0.1,3,0.3,6,0.4,9c0,1,0.5,2.1-0.2,3.1c0.1,0.6-0.5,0.8-0.9,1.1
		c-3.7,2.3-7.6,4.4-11.3,6.6c-1.1,0.7-2.3,1.3-3.4,1.9c-0.6,0.4-1.2,0.6-1.9,0.7c-2-1.3-4-2.7-6-4c-2.2-1.4-4.4-2.9-6.7-4.3
		c-3-2-6.1-4-9.1-5.9c-0.4-0.3-0.9-0.5-1-1c0.6-0.7,1.3-0.2,1.9,0.1c1.6,0.7,3.2,1.4,4.8,2.1c2.2,1,4-0.1,4-2.5
		c0-1.4,0.2-2.7,0.5-4.1c0.2-1.1,0.8-2,1.8-2.6c1.4-1,2.8-0.4,4.1,0.1c1.3,0.4,2.3,1.3,3.7,1.6c1.7,0.4,2.8-0.3,3.2-2
		c0.4-1.7,0.4-3.5,0.7-5.2c0.1-0.5,0.2-1,0.6-1.4c0.5-0.5,0.4-1,0.1-1.6c-2.7-4.6-5.4-9.3-8.1-13.9c-2.6-4.5-5.1-9-7.7-13.5
		c-2.7-4.8-5.6-9.5-8.3-14.3c-2.2-3.8-4.4-7.6-6.6-11.4c-2.6-4.5-5.2-9-7.8-13.6c-2.7-4.8-5.5-9.6-8.3-14.4
		c-2.4-4.1-4.8-8.1-7.1-12.3c-3.3-5.9-6.8-11.7-10.2-17.6c-2.1-3.6-4.2-7.3-6.3-10.9c-0.4-0.7-1.1-1.4-1.1-2.3
		c0.1-0.6,0.6-0.9,1-1.1c3.6-2.1,7.1-4.1,10.7-6.2C281.3,381.2,281.8,380.9,282.4,381.3z"/>
	<path class="st9" d="M370.7,350.4c-25.8,0-51.5,0-77.3,0c-3.1,0-5.6-1.6-6.6-4.3c-1.1-2.9-0.4-6.2,1.7-8.2c1.3-1.2,2.8-1.8,4.6-1.8
		c0.3,0,0.5,0,0.8,0c51.3,0,102.6,0,154,0c2.8,0,5.1,1.1,6.4,3.6c1.3,2.6,1.3,5.3-0.3,7.7c-1.4,2.1-3.4,3.1-5.9,3.1
		C422.2,350.4,396.5,350.4,370.7,350.4z"/>
	<path class="st10" d="M328.4,521.9c-1.1,0.7-1.6,1.7-1.7,3c-0.1,1.2-0.3,2.3-0.3,3.5c-0.1,2.8-2.2,4.1-4.8,3
		c-2.2-0.9-4.2-2.1-6.5-2.8c-1.2-0.6-2-1.6-2.7-2.7c-3.6-6.2-7.2-12.5-10.8-18.7c-2.4-4.1-4.8-8.1-7.1-12.2
		c-2.5-4.2-4.9-8.5-7.3-12.7c-4-6.9-7.9-13.7-11.9-20.6c-3.9-6.7-7.7-13.3-11.6-20c-3-5.3-6.1-10.5-9.1-15.8
		c-3.6-6.3-7.3-12.5-10.8-18.9c-0.5-0.8-1.3-1.6-1.2-2.6c0-0.5,0.4-0.7,0.7-0.9c1.6-0.9,3.1-1.8,4.8-2.6c2.2-1.6,4.6-2.9,6.9-4.2
		c0.4-0.2,0.7-0.4,1.2-0.2c0.8,0.5,1.3,1.4,1.8,2.2c3,5.2,6,10.5,9.1,15.7c2.1,3.7,4.3,7.4,6.4,11.1c2.6,4.6,5.3,9.2,7.9,13.8
		c3,5.3,6.1,10.6,9.2,15.9c2.8,4.8,5.6,9.5,8.3,14.3c3.3,5.8,6.7,11.5,10,17.3c2,3.5,4.1,7,6.1,10.6c1.5,2.6,3,5.2,4.5,7.8
		c2.3,4,4.6,8,6.9,12.1c0.7,1.2,1.4,2.3,2.1,3.4C328.6,521,328.8,521.4,328.4,521.9z"/>
	<path class="st9" d="M371.9,364.1c21,0,41.9,0,62.9,0c3,0,5.3,1.3,6.5,4c1.2,2.7,1,5.5-0.9,7.9c-1.4,1.8-3.3,2.6-5.6,2.6
		c-13.2,0-26.4,0-39.6,0c-28.7,0-57.5,0-86.2,0c-3.1,0-5.6-1.7-6.6-4.3c-1.1-2.9-0.4-6.3,1.8-8.3c1.4-1.2,3-1.8,4.8-1.8
		C330,364.1,350.9,364.1,371.9,364.1z"/>
	<path class="st9" d="M371.7,406.7c-14.4,0-28.8,0-43.1,0c-3.3,0-6-2.1-6.8-5.1c-0.9-3.4,0.4-6.8,3.3-8.4c1-0.6,2.2-0.9,3.4-0.9
		c28.9,0,57.8,0,86.8,0c4,0,6.9,3.1,6.9,7.2c0,4.2-2.9,7.2-6.9,7.3C400.7,406.7,386.2,406.7,371.7,406.7z"/>
	<path class="st5" d="M236.8,360.4c4.9-2.9,9.8-6,15.1-8.4c3.3-1.5,6.8-1.9,10.4-0.8c2.2,0.6,3.9,2,5,4c3.1,5.5,6.3,11.1,9.5,16.6
		c0,0.7-0.5,1-1,1.3c-2.8,1.5-5.5,3.2-8.3,4.8c-5.2,2.9-10.3,5.8-15.4,8.7c-2.7,1.5-5.3,3-8,4.5c-0.4,0.2-0.9,0.5-1.4,0.4
		c-0.6-0.2-1-0.6-1.3-1.2c-2.8-4.9-5.6-9.7-8.4-14.6c-3-5-1.8-10.9,2.9-14.4C236.2,361,236.6,360.8,236.8,360.4z"/>
	<path class="st5" d="M298.4,290.8c4.8,3.7,6.5,9.4,9.3,14.3c0.4,0.7,0.7,1.4,1,2c0.3,0.5,0.1,0.7-0.4,0.7c-2.1,0-4.3,0-6.4,0
		c-0.7,0-0.8-0.5-1-0.9c-2.2-4-4.5-7.9-6.6-11.9c-1.4-2.6-3.5-3.7-6.4-3.5c-0.8,0-1,0.3-1,1c0,4.7,0,9.3,0,14c0,1.1-0.3,1.3-1.3,1.3
		c-1.3-0.1-2.7-0.1-4,0c-0.9,0-1.2-0.2-1.2-1.1c0.1-3.5,0-6.9,0-10.4c0-8.7,0-17.4,0-26.1c0-0.9,0.2-1.2,1.2-1.2
		c5,0.1,10.1,0,15.1,0.1c3.6,0.1,6.6,1.2,8.3,4.6c0.6,1.2,1,2.5,1.2,3.8c0.3,2.2,0.3,4.3-0.4,6.5c-1,3.3-3.2,5.4-6.5,6.4
		c-0.3,0.1-0.6,0.2-0.9,0.2C298.6,290.6,298.5,290.7,298.4,290.8z"/>
	<path class="st5" d="M424,290.7c3.2,2.2,4.9,5.5,6.5,8.7c1.4,2.7,2.8,5.4,4.3,8.3c-1.6,0-3.1-0.2-4.5,0c-2.5,0.4-3.7-0.6-4.8-2.8
		c-1.6-3.4-3.7-6.6-5.4-9.9c-1.4-2.6-3.4-3.7-6.3-3.6c-1,0-1.1,0.4-1.1,1.2c0,4.6,0,9.2,0,13.9c0,1-0.3,1.3-1.3,1.2
		c-1.3-0.1-2.7-0.1-4,0c-0.9,0-1.2-0.2-1.1-1.1c0-5.3,0-10.5,0-15.8c0-6.9,0-13.7,0-20.6c0-1.1,0.3-1.3,1.3-1.3
		c4.8,0.1,9.5,0,14.3,0.1c1,0,2.1,0.1,3.1,0.3c4.1,0.8,6.9,4.2,7.2,9c0.1,1.6,0.1,3.3-0.3,4.9c-0.9,3.8-3.2,6.2-7,7.2
		c-0.1,0-0.3,0.1-0.4,0.1C424.3,290.6,424.2,290.6,424,290.7z"/>
	<path class="st5" d="M370.4,288.6c0.1-4.1,0.5-8.1,2.3-11.9c2.7-5.5,6.9-8.4,13.2-8.3c6.2,0,10.6,2.9,13.1,8.4
		c3.4,7.8,3.4,15.8-0.1,23.5c-2.5,5.7-7.3,8.3-13.5,8.2c-6.4-0.2-10.6-3.6-13.1-9.4C370.8,295.7,370.4,292.1,370.4,288.6z"/>
	<path class="st5" d="M312.6,288.3c0-6,0-12.1,0-18.1c0-1.1,0.3-1.3,1.3-1.3c7,0,14,0,21.1,0c1,0,1.3,0.3,1.2,1.3
		c-0.1,1.4-0.1,2.8,0,4.2c0,0.9-0.3,1.1-1.1,1.1c-4.9,0-9.8,0-14.8,0c-1,0-1.4,0.2-1.4,1.3c0.1,2.1,0.1,4.1,0,6.2
		c0,0.9,0.2,1.2,1.1,1.2c4.5,0,8.9,0,13.4-0.1c1.2,0,1.5,0.4,1.4,1.5c-0.1,1.3-0.1,2.6,0,3.9c0.1,1-0.3,1.2-1.2,1.2
		c-4.5,0-9,0-13.5,0c-1,0-1.2,0.3-1.2,1.2c0.1,2.7,0.1,5.3,0,8c0,1,0.2,1.4,1.3,1.3c5.1-0.1,10.2,0,15.3-0.1c0.9,0,1.2,0.2,1.1,1.1
		c-0.1,1.5-0.1,3,0,4.5c0,0.8-0.2,1.1-1.1,1.1c-7.3,0-14.7,0-22,0c-1,0-1.2-0.4-1.2-1.2C312.6,300.5,312.6,294.4,312.6,288.3z"/>
	<path class="st5" d="M342.1,288.4c0-6.1,0-12.2,0-18.3c0-0.9,0.2-1.2,1.1-1.1c4.8,0.1,9.7-0.1,14.5,0.2c4.2,0.3,6.7,2.8,7.9,6.5
		c1.2,3.5,1.2,7.1-0.1,10.7c-1.4,4-4.2,6.2-8.5,6.6c-2.5,0.2-5,0.2-7.5,0.2c-0.9,0-1.1,0.3-1.1,1.1c0,4.2,0,8.4,0,12.6
		c0,0.8-0.2,1.1-1,1c-1.4-0.1-2.8-0.1-4.2,0c-0.9,0.1-1.2-0.2-1.2-1.2c0.1-5,0-10,0-15C342.1,290.6,342.1,289.5,342.1,288.4z"/>
	<path class="st9" d="M242.8,391.1c4.5-2.5,9.1-5,13.6-7.6c6.7-3.8,13.3-7.6,20-11.3c0.2-0.1,0.4-0.2,0.6-0.4
		c1.9,3.1,3.8,6.2,5.5,9.4c-4.3,2.5-8.7,5.1-13,7.6c-0.1,0.6-0.5,0.9-1,1.2c-3.7,2-7.2,4.2-10.9,6.3c-0.5,0.3-0.9,0.4-1.4,0.3
		c-2.7,1.4-5.2,3-7.8,4.6c-0.5-0.1-0.8-0.5-1.1-0.9c-1.5-2.5-3-5-4.4-7.6c-0.2-0.4-0.5-0.8-0.3-1.3
		C242.6,391.3,242.7,391.2,242.8,391.1z"/>
	<path class="st5" d="M451.8,291.7c0,4.9,0,9.8,0,14.8c0,1.2-0.3,1.4-1.4,1.3c-1.3-0.1-2.6-0.1-3.9,0c-1,0.1-1.2-0.3-1.2-1.2
		c0-9.8,0-19.6,0-29.4c0-1.6,0-1.6-1.6-1.6c-2.3,0-4.5,0-6.8,0c-0.8,0-1.1-0.2-1.1-1c0.1-1.6,0-3.1,0-4.7c0-0.6,0.1-0.9,0.8-0.9
		c7.9,0,15.7,0,23.6,0c0.5,0,0.8,0.1,0.8,0.8c0,1.7,0,3.4,0,5c0,0.7-0.4,0.8-0.9,0.8c-2.4,0-4.8,0-7.2,0c-1,0-1.3,0.2-1.3,1.3
		C451.8,281.7,451.8,286.7,451.8,291.7z"/>
	<path class="st9" d="M338,543.8c1-1.2,2.5-1.7,3.8-2.4c4-2.4,8.1-4.7,12.2-7.1c0.5-0.3,1-0.5,1.5-0.8c0.7,0.5,0.7,1.4,0.8,2.1
		c0.5,2.1,0.9,4.1,1.2,6.2c0.3,2.7-0.4,5-2.4,7c-1.6,1.6-3.4,2.3-5.6,2.3c-2.3,0-4.3-0.7-6-2.2C341.7,547.1,339.8,545.5,338,543.8z"
		/>
	<path class="st11" d="M242.8,391.1c0,0.1,0,0.1,0,0.2c-0.2,0.5-0.6,0.9-1.1,1.1c-1.1,0.6-2.2,1.3-3.3,1.9c-0.5,0.3-1,0.4-1.5,0.1
		c-3.2-5.5-6.4-11.1-9.6-16.6c-1.8-3.1-1.3-6.1,0.2-9c1.8-3.4,4.6-5.8,7.9-7.6c0.5-0.3,0.9-0.5,1.4-0.7c-0.3,1.2-1.4,1.8-2.1,2.7
		c-1.6,2.2-2.8,4.5-2.9,7.3c-0.1,1.9,0.8,3.5,1.7,5c2.8,4.9,5.7,9.8,8.5,14.7C242.2,390.5,242.4,390.9,242.8,391.1z"/>
	<path class="st12" d="M236.9,394.4c2.1-0.8,3.8-2.2,5.9-3.1c1.7,3,3.4,5.9,5.1,8.9c0.2,0.3,0.3,0.7,0.5,1c-1.9,1.1-3.8,2.2-5.7,3.1
		C240.5,401.1,238.7,397.7,236.9,394.4z"/>
	<path class="st9" d="M571.8,589.6c0.3,3-0.2,4.1-2.1,4.9c-1.2,0.5-2.8-0.1-3.2-1.2c-0.4-1.1,0.2-2.2,1.6-2.6
		C569.2,590.3,570.5,590.2,571.8,589.6z"/>
	<path class="st9" d="M598.4,587.6c-0.5,0-1.1,0-1.6,0c-1.8,0-1.8-0.1-1.3-1.7c0.5-1.4,2.2-2.5,3.8-2.2c1.3,0.2,2.6,2,2.6,3.3
		c0,0.5-0.2,0.6-0.6,0.6C600.3,587.6,599.4,587.6,598.4,587.6z"/>
	<path class="st13" d="M256.1,396.6c3.8-2.2,7.6-4.5,11.4-6.7c0.6-0.4,1.3-0.7,1.9-1c1.6,1.9,2.6,4.2,3.8,6.3
		c3.5,6,6.9,11.9,10.4,17.9c2.4,4.1,4.7,8.2,7.1,12.3c2.8,4.8,5.5,9.5,8.3,14.3c3,5.1,5.9,10.3,8.9,15.4c3.7,6.4,7.4,12.8,11.1,19.3
		c4,6.9,7.9,13.9,11.9,20.8c3,5.2,6,10.3,9,15.5c0.3,0.5,0.5,1.1,0.9,1.6c0.7,0.9,1.2,1.8,0,2.8c-0.7,0.5-0.5,1.6-0.6,2.4
		c-0.2,1.3-0.2,2.6-0.5,3.9c-0.3,2-1.8,3-3.8,2.5c-1.4-0.3-2.5-1.1-3.8-1.6c-1.2-0.5-2.4-0.9-3.6-0.3c-1.9-3.2-3.8-6.5-5.7-9.7
		c-2.5-4.4-5.1-8.8-7.6-13.1c-4-6.9-8-13.9-12-20.8c-3.4-5.8-6.8-11.7-10.1-17.5c-4.3-7.4-8.5-14.9-12.8-22.3
		c-4-7-8.1-13.9-12.1-20.9c-3.6-6.2-7.1-12.4-10.6-18.5C257,398.2,256.5,397.4,256.1,396.6z"/>
	<path class="st7" d="M287,280.4c0-1.3,0-2.7,0-4c0-0.6,0.1-0.9,0.8-0.9c2.8,0.1,5.6-0.1,8.3,0.2c0.4,0,0.8,0.1,1.1,0.2
		c2,0.7,2.9,2.6,2.6,5.4c-0.2,2.2-1.4,3.5-3.4,3.8c-2.9,0.4-5.9,0.1-8.8,0.2c-0.6,0-0.6-0.3-0.6-0.8C287,283.2,287,281.8,287,280.4z
		"/>
	<path class="st7" d="M412.7,280.5c0-1.4,0-2.7,0-4.1c0-0.7,0.2-0.9,0.9-0.8c2.8,0.1,5.6-0.1,8.3,0.1c1.8,0.2,3,1.1,3.5,2.9
		c0.3,1.2,0.3,2.5,0,3.7c-0.5,1.6-1.5,2.6-3.2,2.8c-2.9,0.4-5.9,0.1-8.8,0.2c-0.6,0-0.6-0.4-0.6-0.8
		C412.7,283.2,412.7,281.8,412.7,280.5z"/>
	<path class="st7" d="M394.6,288.2c-0.1,2.8-0.3,5.6-1.4,8.2c-1.9,4.4-6.1,6.4-10.1,4.7c-2.3-0.9-3.8-2.7-4.7-4.9
		c-1.4-3.3-1.5-6.8-1.3-10.3c0.1-1.7,0.4-3.3,1-4.9c1.4-3.9,4.3-6.1,8-6c3.6,0.1,6.5,2.5,7.6,6.3c0.3,0.9,0.5,1.8,0.6,2.8
		C394.5,285.5,394.7,286.9,394.6,288.2z"/>
	<path class="st7" d="M352.1,286.5c-0.9,0-1.8,0-2.7,0c-0.6,0-0.8-0.1-0.8-0.8c0-3.2,0-6.3,0-9.5c0-0.5,0.2-0.7,0.7-0.7
		c2.2,0,4.3-0.1,6.5,0.2c2.9,0.4,4.6,3.2,4,6.5c-0.5,2.5-2,4-4.7,4.2C354.1,286.5,353.1,286.4,352.1,286.5
		C352.1,286.5,352.1,286.5,352.1,286.5z"/>
</g>
</svg>
