<?xml version="1.0" encoding="utf-8"?>
<!-- Generator: Adobe Illustrator 24.1.2, SVG Export Plug-In . SVG Version: 6.00 Build 0)  -->
<svg version="1.1" id="Layer_1" xmlns="http://www.w3.org/2000/svg" xmlns:xlink="http://www.w3.org/1999/xlink" x="0px" y="0px"
	 viewBox="0 0 800 800" style="enable-background:new 0 0 800 800;" xml:space="preserve">
<style type="text/css">
	.st0{fill:#333333;}
	.st1{fill:#1D1D1B;}
	.st2{fill:#20AB63;}
	.st3{fill:#FEFDF3;}
	.st4{fill:#728BB4;}
	.st5{fill:#8596B0;}
	.st6{fill:#707273;}
	.st7{fill:#6F6F6F;}
	.st8{fill:#4C73B2;}
	.st9{fill:#E34F36;}
	.st10{fill:#FDE09B;}
	.st11{fill:#FCE09B;}
</style>
<g id="Layer_2_3_">
	<g id="Layer_2_4_">
		<g>
			<circle class="st0" cx="400" cy="400" r="400"/>
		</g>
	</g>
</g>
<g>
	<g>
		<path class="st1" d="M400,800c220.9,0,400-179.1,400-400c0-18.8-1.3-37.3-3.8-55.4c-0.2-0.2-0.4-0.4-0.6-0.5c-0.3-0.3-0.7-0.7-1-1
			c-0.3-0.3-0.7-0.7-1-1c-0.3-0.3-0.7-0.7-1-1c-0.3-0.3-0.7-0.7-1-1c-0.3-0.3-0.7-0.7-1-1c-0.3-0.3-0.7-0.7-1-1
			c-0.3-0.3-0.7-0.7-1-1c-0.3-0.3-0.7-0.7-1-1c-0.3-0.3-0.7-0.7-1-1c-0.3-0.3-0.7-0.7-1-1c-0.3-0.3-0.7-0.7-1-1
			c-0.3-0.3-0.7-0.7-1-1c-0.3-0.3-0.7-0.7-1-1c-0.3-0.3-0.7-0.7-1-1c-0.3-0.3-0.7-0.7-1-1c-0.3-0.3-0.7-0.7-1-1
			c-0.3-0.3-0.7-0.7-1-1c-0.3-0.3-0.7-0.7-1-1c-0.3-0.3-0.7-0.7-1-1c-0.3-0.3-0.7-0.7-1-1c-0.3-0.3-0.7-0.7-1-1
			c-0.3-0.3-0.7-0.7-1-1c-0.3-0.3-0.7-0.7-1-1c-0.3-0.3-0.7-0.7-1-1c-0.3-0.3-0.7-0.7-1-1c-0.3-0.3-0.7-0.7-1-1
			c-0.3-0.3-0.7-0.7-1-1c-0.3-0.3-0.7-0.7-1-1c-0.3-0.3-0.7-0.7-1-1c-0.3-0.3-0.7-0.7-1-1c-0.3-0.3-0.7-0.7-1-1
			c-0.3-0.3-0.7-0.7-1-1c-0.3-0.3-0.7-0.7-1-1c-0.3-0.3-0.7-0.7-1-1c-0.3-0.3-0.7-0.7-1-1c-0.3-0.3-0.7-0.7-1-1
			c-0.3-0.3-0.7-0.7-1-1c-0.3-0.3-0.7-0.7-1-1c-0.3-0.3-0.7-0.7-1-1c-0.3-0.3-0.7-0.7-1-1c-0.3-0.3-0.7-0.7-1-1
			c-0.3-0.3-0.7-0.7-1-1c-0.3-0.3-0.7-0.7-1-1c-0.3-0.3-0.7-0.7-1-1c-0.3-0.3-0.7-0.7-1-1c-0.3-0.3-0.7-0.7-1-1
			c-0.3-0.3-0.7-0.7-1-1c-0.3-0.3-0.7-0.7-1-1c-0.3-0.3-0.7-0.7-1-1c-0.3-0.3-0.7-0.7-1-1c-0.3-0.3-0.7-0.7-1-1
			c-0.3-0.3-0.7-0.7-1-1c-0.3-0.3-0.7-0.7-1-1c-0.3-0.3-0.7-0.7-1-1c-0.3-0.3-0.7-0.7-1-1c-0.3-0.3-0.7-0.7-1-1
			c-0.3-0.3-0.7-0.7-1-1c-0.3-0.3-0.7-0.7-1-1c-0.3-0.3-0.7-0.7-1-1c-0.3-0.3-0.7-0.7-1-1c-0.3-0.3-0.7-0.7-1-1
			c-0.3-0.3-0.7-0.7-1-1c-0.3-0.3-0.7-0.7-1-1c-0.3-0.3-0.7-0.7-1-1c-0.3-0.3-0.7-0.7-1-1c-0.3-0.3-0.7-0.7-1-1
			c-0.3-0.3-0.7-0.7-1-1c-0.3-0.3-0.7-0.7-1-1c-0.3-0.3-0.7-0.7-1-1c-0.3-0.3-0.7-0.7-1-1c-0.3-0.3-0.7-0.7-1-1
			c-0.3-0.3-0.7-0.7-1-1c-0.3-0.3-0.7-0.7-1-1c-0.3-0.3-0.7-0.7-1-1c-0.3-0.3-0.7-0.7-1-1c-0.3-0.3-0.7-0.7-1-1
			c-0.3-0.3-0.7-0.7-1-1c-0.3-0.3-0.7-0.7-1-1c-0.3-0.3-0.7-0.7-1-1c-0.3-0.3-0.7-0.7-1-1c-0.3-0.3-0.7-0.7-1-1
			c-0.3-0.3-0.7-0.7-1-1c-0.3-0.3-0.7-0.7-1-1c-0.3-0.3-0.7-0.7-1-1c-0.3-0.3-0.7-0.7-1-1c-0.3-0.3-0.7-0.7-1-1
			c-0.3-0.3-0.7-0.7-1-1c-0.3-0.3-0.7-0.7-1-1c-0.3-0.3-0.7-0.7-1-1c-0.3-0.3-0.7-0.7-1-1c-0.3-0.3-0.7-0.7-1-1
			c-0.3-0.3-0.7-0.7-1-1c-0.3-0.3-0.7-0.7-1-1c-0.3-0.3-0.7-0.7-1-1c-0.3-0.3-0.7-0.7-1-1c-0.3-0.3-0.7-0.7-1-1
			c-0.3-0.3-0.7-0.7-1-1c-0.3-0.3-0.7-0.7-1-1c-0.3-0.3-0.7-0.7-1-1c-0.3-0.3-0.7-0.7-1-1c-0.3-0.3-0.7-0.7-1-1
			c-0.3-0.3-0.7-0.7-1-1c-0.3-0.3-0.7-0.7-1-1c-0.3-0.3-0.7-0.7-1-1c-0.3-0.3-0.7-0.7-1-1c-0.3-0.3-0.7-0.7-1-1
			c-0.3-0.3-0.7-0.7-1-1c-0.3-0.3-0.7-0.7-1-1c-0.3-0.3-0.7-0.7-1-1c-0.3-0.3-0.7-0.7-1-1c-0.3-0.3-0.7-0.7-1-1
			c-0.3-0.3-0.7-0.7-1-1c-0.3-0.3-0.7-0.7-1-1c-0.3-0.3-0.7-0.7-1-1c-0.3-0.3-0.7-0.7-1-1c-0.3-0.3-0.7-0.7-1-1
			c-0.3-0.3-0.7-0.7-1-1c-0.3-0.3-0.7-0.7-1-1c-0.3-0.3-0.7-0.7-1-1c-0.3-0.3-0.7-0.7-1-1c-0.3-0.3-0.7-0.7-1-1
			c-0.3-0.3-0.7-0.7-1-1c-0.3-0.3-0.7-0.7-1-1c-0.3-0.3-0.7-0.7-1-1c-0.3-0.3-0.7-0.7-1-1c-0.3-0.3-0.7-0.7-1-1
			c-0.3-0.3-0.7-0.7-1-1c-0.3-0.3-0.7-0.7-1-1c-0.3-0.3-0.7-0.7-1-1c-0.3-0.3-0.7-0.7-1-1c-0.3-0.3-0.7-0.7-1-1
			c-0.3-0.3-0.7-0.7-1-1c-0.3-0.3-0.7-0.7-1-1c-0.3-0.3-0.7-0.7-1-1c-0.3-0.3-0.7-0.7-1-1c-0.3-0.3-0.7-0.7-1-1
			c-0.3-0.3-0.7-0.7-1-1c-0.3-0.3-0.7-0.7-1-1c-0.3-0.3-0.7-0.7-1-1c-0.3-0.3-0.7-0.7-1-1c-0.3-0.3-0.7-0.7-1-1
			c-0.3-0.3-0.7-0.7-1-1c-0.3-0.3-0.7-0.7-1-1c-0.3-0.3-0.7-0.7-1-1c-0.3-0.3-0.7-0.7-1-1c-0.3-0.3-0.7-0.7-1-1
			c-0.3-0.3-0.7-0.7-1-1c-0.3-0.3-0.7-0.7-1-1c-0.3-0.3-0.7-0.7-1-1c-0.3-0.3-0.7-0.7-1-1c-0.3-0.3-0.7-0.7-1-1
			c-0.3-0.3-0.7-0.7-1-1c-0.3-0.3-0.7-0.7-1-1c-0.3-0.3-0.7-0.7-1-1c-0.3-0.3-0.7-0.7-1-1c-0.3-0.3-0.7-0.7-1-1
			c-0.3-0.3-0.7-0.7-1-1c-0.3-0.3-0.7-0.7-1-1c-0.3-0.3-0.7-0.7-1-1c-0.3-0.3-0.7-0.7-1-1c-0.3-0.3-0.7-0.7-1-1
			c-0.3-0.3-0.7-0.7-1-1c-0.3-0.3-0.7-0.7-1-1c-0.3-0.3-0.7-0.7-1-1c-0.3-0.3-0.7-0.7-1-1c-0.3-0.3-0.7-0.7-1-1
			c-0.3-0.3-0.7-0.7-1-1c-0.3-0.3-0.7-0.7-1-1c-0.3-0.3-0.7-0.7-1-1c-1.8-1.9-3.8-3.7-5.9-5.3c-6.4-4.9-13.4-8.6-21.6-9.3
			c-1.9-0.2-3.8-0.1-5.6-0.5c-128.7,0-257.5,0-386.2,0c-0.6,0.4-1.3,0.1-2,0.2c-4.2,0.3-8.3,0.6-12.3,2.2
			c-8.3,3.3-15.5,8.4-21.2,15.3c-6.1,7.3-10.4,15.6-11.3,25.4c-0.1,1.6,0,3.2-0.5,4.7c0,128.1,0,256.1,0,384.2
			c0.2,0.2,0.2,0.5,0.2,0.8c0.4,3.6,0.3,7.3,1.4,10.8c2.7,8.8,7.2,16.3,13.6,22.5c0.3,0.3,0.7,0.7,1,1c0.3,0.3,0.7,0.7,1,1
			c0.3,0.3,0.7,0.7,1,1c0.3,0.3,0.7,0.7,1,1c0.3,0.3,0.7,0.7,1,1c0.3,0.3,0.7,0.7,1,1c0.3,0.3,0.7,0.7,1,1c0.3,0.3,0.7,0.7,1,1
			c0.3,0.3,0.7,0.7,1,1c0.3,0.3,0.7,0.7,1,1c0.3,0.3,0.7,0.7,1,1c0.3,0.3,0.7,0.7,1,1c0.3,0.3,0.7,0.7,1,1c0.3,0.3,0.7,0.7,1,1
			c0.3,0.3,0.7,0.7,1,1c0.3,0.3,0.7,0.7,1,1c0.3,0.3,0.7,0.7,1,1c0.3,0.3,0.7,0.7,1,1c0.3,0.3,0.7,0.7,1,1c0.3,0.3,0.7,0.7,1,1
			c0.3,0.3,0.7,0.7,1,1c0.3,0.3,0.7,0.7,1,1c0.3,0.3,0.7,0.7,1,1c0.3,0.3,0.7,0.7,1,1c0.3,0.3,0.7,0.7,1,1c0.3,0.3,0.7,0.7,1,1
			c0.3,0.3,0.7,0.7,1,1c0.3,0.3,0.7,0.7,1,1c0.3,0.3,0.7,0.7,1,1c0.3,0.3,0.7,0.7,1,1c0.3,0.3,0.7,0.7,1,1c0.3,0.3,0.7,0.7,1,1
			c0.3,0.3,0.7,0.7,1,1c0.3,0.3,0.7,0.7,1,1c0.3,0.3,0.7,0.7,1,1c0.3,0.3,0.7,0.7,1,1c0.3,0.3,0.7,0.7,1,1c0.3,0.3,0.7,0.7,1,1
			c0.3,0.3,0.7,0.7,1,1c0.3,0.3,0.7,0.7,1,1c0.3,0.3,0.7,0.7,1,1c0.3,0.3,0.7,0.7,1,1c0.3,0.3,0.7,0.7,1,1c0.3,0.3,0.7,0.7,1,1
			c0.3,0.3,0.7,0.7,1,1c0.3,0.3,0.7,0.7,1,1c0.3,0.3,0.7,0.7,1,1c0.3,0.3,0.7,0.7,1,1c0.3,0.3,0.7,0.7,1,1c0.3,0.3,0.7,0.7,1,1
			c0.3,0.3,0.7,0.7,1,1c0.3,0.3,0.7,0.7,1,1c0.3,0.3,0.7,0.7,1,1c0.3,0.3,0.7,0.7,1,1c0.3,0.3,0.7,0.7,1,1c0.3,0.3,0.7,0.7,1,1
			c0.3,0.3,0.7,0.7,1,1c0.3,0.3,0.7,0.7,1,1c0.3,0.3,0.7,0.7,1,1c0.3,0.3,0.7,0.7,1,1c0.3,0.3,0.7,0.7,1,1c0.3,0.3,0.7,0.7,1,1
			c0.3,0.3,0.7,0.7,1,1c0.3,0.3,0.7,0.7,1,1c0.3,0.3,0.7,0.7,1,1c0.3,0.3,0.7,0.7,1,1c0.3,0.3,0.7,0.7,1,1c0.3,0.3,0.7,0.7,1,1
			c0.3,0.3,0.7,0.7,1,1c0.3,0.3,0.7,0.7,1,1c0.3,0.3,0.7,0.7,1,1c0.3,0.3,0.7,0.7,1,1c0.3,0.3,0.7,0.7,1,1c0.3,0.3,0.7,0.7,1,1
			c0.3,0.3,0.7,0.7,1,1c0.3,0.3,0.7,0.7,1,1c0.3,0.3,0.7,0.7,1,1c0.3,0.3,0.7,0.7,1,1c0.3,0.3,0.7,0.7,1,1c0.3,0.3,0.7,0.7,1,1
			c0.3,0.3,0.7,0.7,1,1c0.3,0.3,0.7,0.7,1,1c0.3,0.3,0.7,0.7,1,1c0.3,0.3,0.7,0.7,1,1c0.3,0.3,0.7,0.7,1,1c0.3,0.3,0.7,0.7,1,1
			c0.3,0.3,0.7,0.7,1,1c0.3,0.3,0.7,0.7,1,1c0.3,0.3,0.7,0.7,1,1c0.3,0.3,0.7,0.7,1,1c0.3,0.3,0.7,0.7,1,1c0.3,0.3,0.7,0.7,1,1
			c0.3,0.3,0.7,0.7,1,1c0.3,0.3,0.7,0.7,1,1c0.3,0.3,0.7,0.7,1,1c0.3,0.3,0.7,0.7,1,1c0.3,0.3,0.7,0.7,1,1c0.3,0.3,0.7,0.7,1,1
			c0.3,0.3,0.7,0.7,1,1c0.3,0.3,0.7,0.7,1,1c0.3,0.3,0.7,0.7,1,1c0.3,0.3,0.7,0.7,1,1c0.3,0.3,0.7,0.7,1,1c0.3,0.3,0.7,0.7,1,1
			c0.3,0.3,0.7,0.7,1,1c0.3,0.3,0.7,0.7,1,1c0.3,0.3,0.7,0.7,1,1c0.3,0.3,0.7,0.7,1,1c0.3,0.3,0.7,0.7,1,1c0.3,0.3,0.7,0.7,1,1
			c0.3,0.3,0.7,0.7,1,1c0.3,0.3,0.7,0.7,1,1c0.3,0.3,0.7,0.7,1,1c0.3,0.3,0.7,0.7,1,1c0.3,0.3,0.7,0.7,1,1c0.3,0.3,0.7,0.7,1,1
			c0.3,0.3,0.7,0.7,1,1c0.3,0.3,0.7,0.7,1,1c0.3,0.3,0.7,0.7,1,1c0.3,0.3,0.7,0.7,1,1c0.3,0.3,0.7,0.7,1,1c0.3,0.3,0.7,0.7,1,1
			c0.3,0.3,0.7,0.7,1,1c0.3,0.3,0.7,0.7,1,1c0.3,0.3,0.7,0.7,1,1c0.3,0.3,0.7,0.7,1,1c0.3,0.3,0.7,0.7,1,1c0.3,0.3,0.7,0.7,1,1
			c0.3,0.3,0.7,0.7,1,1c0.3,0.3,0.7,0.7,1,1c0.3,0.3,0.7,0.7,1,1c0.3,0.3,0.7,0.7,1,1c0.3,0.3,0.7,0.7,1,1c0.3,0.3,0.7,0.7,1,1
			c0.3,0.3,0.7,0.7,1,1c0.3,0.3,0.7,0.7,1,1c0.3,0.3,0.7,0.7,1,1c0.3,0.3,0.7,0.7,1,1c0.3,0.3,0.7,0.7,1,1c0.3,0.3,0.7,0.7,1,1
			c0.3,0.3,0.7,0.7,1,1c0.3,0.3,0.7,0.7,1,1c0.3,0.3,0.7,0.7,1,1c0.3,0.3,0.7,0.7,1,1c0.3,0.3,0.7,0.7,1,1c0.3,0.3,0.7,0.7,1,1
			c0.3,0.3,0.7,0.7,1,1c0.3,0.3,0.7,0.7,1,1c0.3,0.3,0.7,0.7,1,1c0.3,0.3,0.7,0.7,1,1c0.3,0.3,0.7,0.7,1,1c0.3,0.3,0.7,0.7,1,1
			c0.3,0.3,0.7,0.7,1,1c0.3,0.3,0.7,0.7,1,1c0.3,0.3,0.7,0.7,1,1c0.3,0.3,0.7,0.7,1,1c0.3,0.3,0.7,0.7,1,1c0.3,0.3,0.7,0.7,1,1
			c0.3,0.3,0.7,0.7,1,1c0.3,0.3,0.7,0.7,1,1c0.3,0.3,0.7,0.7,1,1c0.3,0.3,0.7,0.7,1,1c0.3,0.3,0.7,0.7,1,1c0.3,0.3,0.7,0.7,1,1
			c0.3,0.3,0.7,0.7,1,1c0.3,0.3,0.7,0.7,1,1c0.3,0.3,0.7,0.7,1,1c0.3,0.3,0.7,0.7,1,1c0.3,0.3,0.7,0.7,1,1c0.3,0.3,0.7,0.7,1,1
			c0.1,0.1,0.3,0.3,0.4,0.4C363.3,798.7,381.5,800,400,800z"/>
	</g>
</g>
<g>
	<path class="st2" d="M593.5,640c-128.7,0-257.5,0-386.2,0c-1.7-0.4-3.5-0.3-5.2-0.5c-8.7-0.7-16.1-4.7-22.8-10
		c-8.6-6.8-14.5-15.5-17.7-26.1c-1.1-3.5-1-7.2-1.4-10.8c0-0.3,0-0.5-0.2-0.8c0-128.1,0-256.1,0-384.2c0.5-1.5,0.4-3.1,0.5-4.7
		c0.8-9.8,5.2-18.1,11.3-25.4c5.8-6.9,12.9-11.9,21.2-15.3c4-1.6,8.2-1.8,12.3-2.2c0.7-0.1,1.4,0.2,2-0.2c128.7,0,257.5,0,386.2,0
		c1.9,0.4,3.7,0.3,5.6,0.5c8.2,0.7,15.2,4.4,21.6,9.3c8,6.1,13.7,14,17.3,23.5c1.3,3.3,1.5,6.8,1.8,10.3c0.1,0.8-0.2,1.6,0.2,2.4
		c0,129.3,0,258.6,0,387.9c-0.4,1.9-0.3,3.8-0.4,5.7c-0.5,5.7-2.8,10.6-5.6,15.4c-7.1,11.8-17.1,19.8-30.2,23.7
		c-2.9,0.9-5.9,0.8-8.9,1C594.4,639.8,593.9,639.6,593.5,640z"/>
	<path class="st3" d="M400.3,176.6c62.5,0,125.1,0,187.6,0c6.5,0,12.7,1.2,18.4,4.6c11.3,6.8,17.2,16.9,17.7,30.3c0,0.6,0,1.2,0,1.9
		c0,124.4,0,248.8,0,373.2c0,5.5-0.7,10.9-3.1,15.9c-6.3,13.2-16.7,20.1-31.1,20.9c-0.7,0-1.5,0-2.2,0c-124.9,0-249.7,0-374.6,0
		c-6.8,0-13.3-1.2-19.1-4.9c-11-6.9-16.9-16.9-17.2-30.1c0-0.8,0-1.5,0-2.3c0-124.2,0-248.4,0-372.5c0-5.8,0.8-11.5,3.4-16.7
		c6.4-12.8,16.8-19.6,30.9-20.1c7.3-0.3,14.7-0.1,22-0.1C288.7,176.6,344.5,176.6,400.3,176.6z"/>
	<path class="st4" d="M506.6,564.8c0-0.8,0-1.7,0-2.5c0-73.5,0-147,0-220.4c0-1,0-1.9,0-2.9c0.1-2.3,1.6-3.9,3.8-4
		c0.6,0,1.2,0,1.8,0c12.5,0,25,0,37.5,0c0.5,0,1.1,0,1.6,0c2.4,0.1,3.9,1.6,4.1,4.1c0.1,0.9,0,1.8,0,2.7c0,73.4,0,146.8,0,220.2
		c0,1,0,1.9,0,2.9c-0.7,1.3-2,1-3.1,1c-5.3,0.1-10.6,0-15.9,0c-8.8,0-17.6,0-26.5,0C508.9,565.9,507.4,566.3,506.6,564.8z"/>
	<path class="st2" d="M438.2,564.8c0-55.4,0-110.9,0-166.3c0-1.1,0-2.2,0.6-3.2c0.9-1.5,2.2-2.1,3.9-2.1c13.3,0,26.6,0,40,0
		c2.9,0,4.4,1.6,4.5,4.5c0,0.2,0,0.4,0,0.6c0,55.5,0,111,0,166.5c-0.6,1.3-1.8,1-2.9,1c-4.5,0.1-9,0-13.4,0c-9.7,0-19.4,0-29.1,0
		C440.5,565.9,439,566.3,438.2,564.8z"/>
	<path class="st5" d="M370,564.8c0-27.6,0-55.2,0-82.7c0-11.3,0.1-22.7,0-34c-0.1-6,1.4-7,6.8-7c11.8,0.1,23.6,0,35.5,0
		c0.7,0,1.4,0,2,0c3.1,0.1,4.6,1.5,4.7,4.7c0,0.8,0,1.5,0,2.3c0,37.9,0,75.9,0,113.8c0,1,0,1.9,0,2.9c-0.7,1.3-2,1-3.1,1
		c-5.7,0.1-11.4,0-17.1,0c-8.5,0-17,0-25.5,0C372.1,565.9,370.7,566.2,370,564.8z"/>
	<path class="st6" d="M347,442.1c4.5-4.2,9-8.4,13.5-12.6c66.4-61.6,132.9-123.2,199.3-184.9c0.7-0.6,1.5-1.1,2-2.3
		c-2.8-0.2-5.4-0.4-8-0.6c-4-0.3-8-0.6-12-0.9c-1.1-0.1-2.1-0.4-3.1-1c-2.3-1.3-3.2-3.3-2.7-6.1c0.3-1.9,2.2-3.5,4.6-3.7
		c1.8-0.2,3.7,0,5.5,0.2c9.2,0.6,18.3,1.3,27.4,2c1,0.1,1.9,0.2,2.8,0.5c2.2,0.8,4.1,2.5,4,5.6c0,2.7-0.5,5.4-0.8,8
		c-1,8.3-2.1,16.6-3.1,24.9c-0.1,1.1-0.5,2.2-1,3.1c-1.4,2.3-3.5,3.1-6.2,2.4c-2.1-0.5-3.5-2.4-3.5-5c0-3,0.7-6,1-9.1
		c0.4-3.6,0.9-7.3,1.4-10.9c0-0.4,0.2-0.8-0.2-1.3c-0.7,0.3-1.1,0.9-1.7,1.4c-51.2,47.5-102.4,94.9-153.5,142.4
		c-19.7,18.3-39.5,36.6-59.2,54.9c-0.2,0.2-0.4,0.3-0.6,0.5c-0.8,0.2-1.3-0.3-1.6-0.9c-0.9-1.8-2.2-3.3-3.6-4.7
		C347.1,443.6,346.7,443,347,442.1z"/>
	<path class="st7" d="M370,564.8c0.2,0,0.4,0,0.6,0c16.1,0,32.2,0,48.4,0c6.4,0.1,12.8,0.1,19.3,0c0.8,0,1.6,0.1,2.4,0.1
		c14.7,0,29.5,0,44.2,0c0.7,0,1.5-0.1,2.2-0.1c6.5,0.1,13,0.1,19.5,0c0.7,0,1.4,0.1,2,0.1c15.2,0,30.3,0,45.5,0c0.5,0,0.9,0,1.4,0
		c6.7,0,13.3,0,20,0.1c0.7,0,1.4,0,2,0c2.8,0.1,4.5,1.8,4.5,4.6c0,2.8-1.6,4.5-4.4,4.6c-0.6,0-1.2,0-1.8,0c-117.9,0-235.8,0-353.8,0
		c-0.7,0-1.5,0-2.2,0c-2.4-0.1-3.9-1.8-3.9-4.4c0-2.7,1.4-4.5,3.8-4.7c0.7-0.1,1.4,0,2,0c25.8,0,51.7,0,77.5,0c0.8,0,1.6,0,2.4-0.1
		c0.7-0.9,1.6-0.9,2.6-0.9c14.6-0.1,29.1-0.1,43.7,0c1,0,1.9,0.1,2.6,0.9C357,565,363.5,565,370,564.8z"/>
	<path class="st6" d="M227.7,278.4c1.1-29.9,13.6-55.8,39.8-74.1c11.4-8,24.1-12.8,37.9-14c32-2.8,57.8,9.2,77.4,34.8
		c9.6,12.6,15.4,27,17.2,42.9c3.8,33.4-6.4,61.6-31.6,83.7c-12.8,11.2-27.9,17.7-44.7,19.4c-28.5,2.9-52.7-6.7-72.2-27.9
		c-12.5-13.7-19.9-30-22.7-48.5C228.1,289.9,227.8,285.2,227.7,278.4z"/>
	<path class="st8" d="M350.5,564.8c-0.6,0-1.2,0.1-1.8,0.1c-15.2,0-30.3,0-45.5,0c-0.5,0-1.1,0-1.6-0.1c0-20.5,0-40.9,0-61.4
		c0-0.7,0-1.4,0-2.1c0.2-2.4,1.7-3.9,4.1-4.1c0.4,0,0.8,0,1.2,0c12.8,0,25.5,0,38.3,0c0.7,0,1.5-0.1,2.2,0.1c1.8,0.5,2.9,2,3.1,3.9
		c0,0.3,0,0.6,0,0.8C350.5,523.1,350.5,544,350.5,564.8z"/>
	<path class="st9" d="M314,442.3c-4.5,2-9.1,2.3-13.7,0.5c-1.4-0.5-2.6-1.3-4-2c-2.5-0.1-3.4-2.3-4.9-3.8c-0.8-0.9-1.4-2-1-3.3
		c0-1.3-0.7-2.4-0.9-3.6c-2.1-9.6,4.2-19.3,13.7-21.1c9.6-1.8,18.8,4.8,20.3,14.5c0.6,4-0.1,7.7-1.9,11.2c-0.2,0.5-0.6,0.9-0.7,1.5
		c0,3-2.5,4-4.3,5.5C316,442.4,315.1,443,314,442.3z"/>
	<path class="st9" d="M255.7,482.1c1.3,2.3,2.3,4.7,2.7,7.3c1.4,10-5.8,19.2-15.8,20c-10,0.8-18.6-7.1-18.7-17.3
		c-0.1-12.4,11.6-20.9,23.1-16.9c0.6,0.2,1.2,0.4,1.7,0.6C252,475.9,255.7,479.3,255.7,482.1z"/>
	<path class="st9" d="M347,442.1c0.8,0.8,1.6,1.6,2.4,2.4c1.5,1.5,2.5,3.3,3.5,5.2c2,5.5,1.8,10.8-1.1,15.9
		c-3.7,6.5-11.1,9.8-18.3,8.3c-7.1-1.5-12.5-7.3-13.7-14.6c-0.5-3.2,0-6.3,1-9.4c-0.2-3.3,2.8-7.2,5.9-7.7c2.6-1.5,5.3-2.9,8.3-3.1
		c3.9-0.4,7.6,0.4,10.9,2.5C346.3,441.8,346.6,441.9,347,442.1z"/>
	<path class="st6" d="M255.7,482.1c-1.8-2.6-4.3-4.5-6.9-6.2c13.7-13.9,27.4-27.8,41.1-41.7c0.2-0.2,0.4-0.3,0.6-0.5
		c1.6,2.7,3.4,5.2,5.8,7.1c-0.5,0.6-1,1.1-1.5,1.7C281.8,455.6,268.7,468.9,255.7,482.1z"/>
	<path class="st6" d="M326.7,442.3c-2.4,2.2-4.5,4.7-5.9,7.7c-2.3-2.5-4.5-5.1-6.8-7.6c2.9-1.3,5.1-3.6,7.1-6.1
		C323.1,438.1,324.7,440.3,326.7,442.3z"/>
	<path class="st10" d="M233.8,278.9c1-28.2,12.6-52.4,37-69.4c14.2-9.9,30.2-14.3,47.5-13.4c19.6,1,36.5,8.6,50.6,22.4
		c13.7,13.4,22.1,29.7,24.8,48.8c3.8,27-3,51-20.9,71.4c-12.3,14-27.8,22.8-46.1,25.6c-25.4,3.9-47.7-3.3-66.4-21
		c-14.1-13.3-22.3-29.9-25.4-49.2C234.2,289.7,234,285.1,233.8,278.9z"/>
	<path class="st2" d="M277.3,309.2c1.7,0.1,3.3,1.1,4.9,1.6c3.1,1.1,6.3,2.3,9.5,2.9c4.7,0.9,9.3,1.7,14.1,1.7
		c1.4,0,1.6-0.1,1.4-1.6c-0.3-3.8,0.1-7.6-0.1-11.4c-0.2-3.2,0.2-6.5,0-9.7c-0.1-1.8-0.3-2.1-1.9-2.4c-2.5-0.4-4.9-1.1-7.3-1.7
		c-4.9-1.1-9.4-3.3-13.3-6.5c-4.3-3.5-7-8.2-8.4-13.6c-1.1-4.2-1.4-8.5-1.1-12.7c0.4-7,2.3-13.5,6.9-18.9c3.3-3.9,7.2-6.9,11.9-8.7
		c3.9-1.5,7.8-2.8,11.9-3.4c1.3-0.2,1.4-0.3,1.3-1.8c-0.2-2.7,0-5.4,0-8.1c0-1.8,0-1.9,1.8-1.9c3.7,0,7.5,0,11.2,0
		c1.6,0,1.6,0.1,1.6,1.7c0,2.3,0,4.7,0,7.1c0,2.7,0,2.6,2.7,2.8c5.9,0.4,11.7,1.6,17.4,3.2c1.8,0.5,3.6,1.3,5.3,2
		c0.7,0.2,1,0.6,0.9,1.4c-0.2,3.3,0.2,6.6,0,9.9c-0.2,3.2,0.2,6.5,0,9.7c-0.1,1.6-0.2,1.7-1.7,1.2c-2.7-0.9-5.3-2-8.1-2.8
		c-4.9-1.4-9.9-2.4-15-2.8c-1.6-0.1-1.6-0.1-1.6,1.5c0,7.2,0,14.4,0,21.6c0,1.7,0.1,1.8,1.8,2.2c2.1,0.4,4.2,1.1,6.3,1.6
		c5.1,1.1,9.7,3.5,13.8,6.7c3.7,2.9,6.3,6.9,7.9,11.4c2.2,6.1,2.3,12.4,1.4,18.8c-0.4,2.5-0.8,4.9-1.8,7.2
		c-2.3,5.8-6.2,10.1-11.3,13.5c-3.8,2.5-8,3.7-12.2,4.9c-1.5,0.4-3,0.8-4.6,1c-1.2,0.1-1.4,0.7-1.4,1.8c0,2.6,0,5.3,0,7.9
		c0,2.1-0.1,2.2-2.2,2.2c-2.2,0-4.5-0.1-6.7,0c-1.4,0-2.8,0-4.3-0.1c-1.5-0.1-1.6-0.1-1.6-1.7c0-2,0.2-4,0.1-6
		c-0.1-3.7,0.3-3.4-3.3-3.5c-3.5-0.1-7-0.7-10.5-1.2c-4.9-0.6-9.5-2.2-14.1-3.9c-1.8-0.7-2.4-1.8-2.4-3.8c0.1-5.9,0.1-11.9,0.1-17.8
		C277,310.2,276.9,309.7,277.3,309.2z"/>
	<path class="st11" d="M307.3,258.2c0,3.1,0,6.2,0,9.3c0,0.7-0.4,0.9-1.1,0.7c-2.4-0.7-4.7-1.6-6.9-2.9c-3.9-2.2-4.6-8.8-3.1-12
		c1.5-3.2,4-4.8,7.1-5.7c0.9-0.3,1.8-0.6,2.8-0.6c0.7,0,1.1,0.3,1.2,1.1c0.1,1.9,0.2,3.7,0.1,5.6
		C307.2,255.1,307.3,256.6,307.3,258.2C307.3,258.2,307.3,258.2,307.3,258.2z"/>
	<path class="st11" d="M321.9,304c0-3,0-5.9,0-8.9c0-1.4,0.1-1.4,1.4-1.2c2.3,0.5,4.4,1.6,6.5,2.8c3.4,2,4.3,8.7,2.6,11.8
		c-1.6,3-4.1,4.4-7.1,5.5c-0.3,0.1-0.7,0.2-1,0.3c-2.4,0.7-2.5,0.6-2.5-2C321.9,309.5,321.9,306.7,321.9,304z"/>
</g>
</svg>
