<?xml version="1.0" encoding="utf-8"?>
<!-- Generator: Adobe Illustrator 24.1.2, SVG Export Plug-In . SVG Version: 6.00 Build 0)  -->
<svg version="1.1" id="Layer_1" xmlns="http://www.w3.org/2000/svg" xmlns:xlink="http://www.w3.org/1999/xlink" x="0px" y="0px"
	 viewBox="0 0 800 800" style="enable-background:new 0 0 800 800;" xml:space="preserve">
<style type="text/css">
	.st0{fill:#333333;}
	.st1{clip-path:url(#SVGID_2_);}
	.st2{fill:#1D1D1B;}
	.st3{fill:#20AA62;}
	.st4{fill:#6F7172;}
	.st5{fill:#5EC28E;}
	.st6{fill:#A2DCBE;}
	.st7{fill:#59C08B;}
	.st8{fill:#B1E1C8;}
	.st9{fill:#FCFBF1;}
	.st10{fill:#E24F36;}
	.st11{fill:#FEFDF3;}
	.st12{fill:#FCDF9A;}
	.st13{fill:#4C73B1;}
	.st14{fill:#707273;}
	.st15{fill:#CED0C9;}
	.st16{fill:#ADA99B;}
	.st17{fill:#BFB8A5;}
</style>
<g id="Layer_2_3_">
	<g id="Layer_2_4_">
		<g>
			<circle class="st0" cx="400" cy="400" r="400"/>
		</g>
	</g>
</g>
<g>
	<defs>
		<circle id="SVGID_1_" cx="400" cy="400" r="400"/>
	</defs>
	<clipPath id="SVGID_2_">
		<use xlink:href="#SVGID_1_"  style="overflow:visible;"/>
	</clipPath>
	<g class="st1">
		<g>
			<path class="st2" d="M895.9,839.8c-0.3-0.4,0-0.8-0.2-1.2c-0.1-0.4-0.1-0.8-0.2-1.2c-0.8-3.9-2.8-7.3-5.5-9.8
				c-0.3-0.3-0.7-0.7-1-1c-0.3-0.3-0.7-0.7-1-1c-0.3-0.3-0.7-0.7-1-1c-0.3-0.3-0.7-0.7-1-1c-0.3-0.3-0.7-0.7-1-1
				c-0.3-0.3-0.7-0.7-1-1c-0.3-0.3-0.7-0.7-1-1c-0.3-0.3-0.7-0.7-1-1c-0.3-0.3-0.7-0.7-1-1c-0.3-0.3-0.7-0.7-1-1
				c-0.3-0.3-0.7-0.7-1-1c-0.3-0.3-0.7-0.7-1-1c-0.3-0.3-0.7-0.7-1-1c-0.3-0.3-0.7-0.7-1-1c-0.3-0.3-0.7-0.7-1-1
				c-0.3-0.3-0.7-0.7-1-1c-0.3-0.3-0.7-0.7-1-1c-0.3-0.3-0.7-0.7-1-1c-0.3-0.3-0.7-0.7-1-1c-0.3-0.3-0.7-0.7-1-1
				c-0.3-0.3-0.7-0.7-1-1c-0.3-0.3-0.7-0.7-1-1c-0.3-0.3-0.7-0.7-1-1c-0.3-0.3-0.7-0.7-1-1c-0.3-0.3-0.7-0.7-1-1
				c-0.3-0.3-0.7-0.7-1-1c-0.3-0.3-0.7-0.7-1-1c-0.3-0.3-0.7-0.7-1-1c-0.3-0.3-0.7-0.7-1-1c-0.3-0.3-0.7-0.7-1-1
				c-0.3-0.3-0.7-0.7-1-1c-0.3-0.3-0.7-0.7-1-1c-0.3-0.3-0.7-0.7-1-1c-0.3-0.3-0.7-0.7-1-1c-0.3-0.3-0.7-0.7-1-1
				c-0.3-0.3-0.7-0.7-1-1c-0.3-0.3-0.7-0.7-1-1c-0.3-0.3-0.7-0.7-1-1c-0.3-0.3-0.7-0.7-1-1c-0.3-0.3-0.7-0.7-1-1
				c-0.3-0.3-0.7-0.7-1-1c-0.3-0.3-0.7-0.7-1-1c-0.3-0.3-0.7-0.7-1-1c-0.3-0.3-0.7-0.7-1-1c-0.3-0.3-0.7-0.7-1-1
				c-0.3-0.3-0.7-0.7-1-1c-0.3-0.3-0.7-0.7-1-1c-0.3-0.3-0.7-0.7-1-1c-0.3-0.3-0.7-0.7-1-1c-0.3-0.3-0.7-0.7-1-1
				c-0.3-0.3-0.7-0.7-1-1c-0.3-0.3-0.7-0.7-1-1c-0.3-0.3-0.7-0.7-1-1c-0.3-0.3-0.7-0.7-1-1c-0.3-0.3-0.7-0.7-1-1
				c-0.3-0.3-0.7-0.7-1-1c-0.3-0.3-0.7-0.7-1-1c-0.3-0.3-0.7-0.7-1-1c-0.3-0.3-0.7-0.7-1-1c-0.3-0.3-0.7-0.7-1-1
				c-0.3-0.3-0.7-0.7-1-1c-0.3-0.3-0.7-0.7-1-1c-0.3-0.3-0.7-0.7-1-1c-0.3-0.3-0.7-0.7-1-1c-0.3-0.3-0.7-0.7-1-1
				c-0.3-0.3-0.7-0.7-1-1c-0.3-0.3-0.7-0.7-1-1c-0.3-0.3-0.7-0.7-1-1c-0.3-0.3-0.7-0.7-1-1c-0.3-0.3-0.7-0.7-1-1
				c-0.3-0.3-0.7-0.7-1-1c-0.3-0.3-0.7-0.7-1-1c-0.2-0.2-0.4-0.4-0.6-0.6c0-84.3,0-168.6,0-252.8c0-2.9-0.1-5.7-0.4-8.6
				c-1.5-12.3-6.6-22.9-14.9-31.9c-0.7-0.8-1.5-1.6-2.3-2.3c-0.3-0.3-0.7-0.7-1-1c-0.3-0.3-0.7-0.7-1-1c-0.3-0.3-0.7-0.7-1-1
				c-0.3-0.3-0.7-0.7-1-1c-0.3-0.3-0.7-0.7-1-1c-0.3-0.3-0.7-0.7-1-1c-0.3-0.3-0.7-0.7-1-1c-0.3-0.3-0.7-0.7-1-1
				c-0.3-0.3-0.7-0.7-1-1c-0.3-0.3-0.7-0.7-1-1c-0.3-0.3-0.7-0.7-1-1c-0.3-0.3-0.7-0.7-1-1c-0.3-0.3-0.7-0.7-1-1
				c-0.3-0.3-0.7-0.7-1-1c-0.3-0.3-0.7-0.7-1-1c-0.3-0.3-0.7-0.7-1-1c-0.3-0.3-0.7-0.7-1-1c-0.3-0.3-0.7-0.7-1-1
				c-0.3-0.3-0.7-0.7-1-1c-0.3-0.3-0.7-0.7-1-1c-0.3-0.3-0.7-0.7-1-1c-0.3-0.3-0.7-0.7-1-1c-0.3-0.3-0.7-0.7-1-1
				c-0.3-0.3-0.7-0.7-1-1c-0.3-0.3-0.7-0.7-1-1c-0.3-0.3-0.7-0.7-1-1c-0.3-0.3-0.7-0.7-1-1c-0.3-0.3-0.7-0.7-1-1
				c-0.3-0.3-0.7-0.7-1-1c-0.3-0.3-0.7-0.7-1-1c-0.3-0.3-0.7-0.7-1-1c-0.3-0.3-0.7-0.7-1-1c-0.3-0.3-0.7-0.7-1-1
				c-0.3-0.3-0.7-0.7-1-1c-0.3-0.3-0.7-0.7-1-1c-0.3-0.3-0.7-0.7-1-1c-0.3-0.3-0.7-0.7-1-1c-0.3-0.3-0.7-0.7-1-1
				c-0.3-0.3-0.7-0.7-1-1c-0.3-0.3-0.7-0.7-1-1c-0.3-0.3-0.7-0.7-1-1c-0.3-0.3-0.7-0.7-1-1c-0.3-0.3-0.7-0.7-1-1
				c-0.3-0.3-0.7-0.7-1-1c-0.3-0.3-0.7-0.7-1-1c-0.3-0.3-0.7-0.7-1-1c-0.3-0.3-0.7-0.7-1-1c-0.3-0.3-0.7-0.7-1-1
				c-0.3-0.3-0.7-0.7-1-1c-0.3-0.3-0.7-0.7-1-1c-0.3-0.3-0.7-0.7-1-1c-0.3-0.3-0.7-0.7-1-1c-0.3-0.3-0.7-0.7-1-1
				c-0.3-0.3-0.7-0.7-1-1c-0.3-0.3-0.7-0.7-1-1c-0.3-0.3-0.7-0.7-1-1c-0.3-0.3-0.7-0.7-1-1c-0.3-0.3-0.7-0.7-1-1
				c-0.3-0.3-0.7-0.7-1-1c-0.3-0.3-0.7-0.7-1-1c-0.3-0.3-0.7-0.7-1-1c-0.3-0.3-0.7-0.7-1-1c-0.3-0.3-0.7-0.7-1-1
				c-0.3-0.3-0.7-0.7-1-1c-0.3-0.3-0.7-0.7-1-1c-0.3-0.3-0.7-0.7-1-1c-0.3-0.3-0.7-0.7-1-1c-0.3-0.3-0.7-0.7-1-1
				c-0.3-0.3-0.7-0.7-1-1c-0.3-0.3-0.7-0.7-1-1c-0.3-0.3-0.7-0.7-1-1c-0.3-0.3-0.7-0.7-1-1c-0.3-0.3-0.7-0.7-1-1
				c-0.3-0.3-0.7-0.7-1-1c-0.3-0.3-0.7-0.7-1-1c-0.3-0.3-0.7-0.7-1-1c-0.3-0.3-0.7-0.7-1-1c-0.3-0.3-0.7-0.7-1-1
				c-0.3-0.3-0.7-0.7-1-1c-0.3-0.3-0.7-0.7-1-1c-0.3-0.3-0.7-0.7-1-1c-0.3-0.3-0.7-0.7-1-1c-0.3-0.3-0.7-0.7-1-1
				c-0.3-0.3-0.7-0.7-1-1c-0.3-0.3-0.7-0.7-1-1c-0.3-0.3-0.7-0.7-1-1c-0.3-0.3-0.7-0.7-1-1c-0.3-0.3-0.7-0.7-1-1
				c-0.3-0.3-0.7-0.7-1-1c-0.3-0.3-0.7-0.7-1-1c-0.3-0.3-0.7-0.7-1-1c-0.3-0.3-0.7-0.7-1-1c-0.3-0.3-0.7-0.7-1-1
				c-0.3-0.3-0.7-0.7-1-1c-0.3-0.3-0.7-0.7-1-1c-0.3-0.3-0.7-0.7-1-1c-0.3-0.3-0.7-0.7-1-1c-0.3-0.3-0.7-0.7-1-1
				c-0.3-0.3-0.7-0.7-1-1c-0.3-0.3-0.7-0.7-1-1c-0.3-0.3-0.7-0.7-1-1c-0.3-0.3-0.7-0.7-1-1c-0.3-0.3-0.7-0.7-1-1
				c-0.3-0.3-0.7-0.7-1-1c-0.3-0.3-0.7-0.7-1-1c-0.3-0.3-0.7-0.7-1-1c-0.3-0.3-0.7-0.7-1-1c-0.3-0.3-0.7-0.7-1-1
				c-0.3-0.3-0.7-0.7-1-1c-0.3-0.3-0.7-0.7-1-1c-0.3-0.3-0.7-0.7-1-1c-0.3-0.3-0.7-0.7-1-1c-0.3-0.3-0.7-0.7-1-1
				c-0.3-0.3-0.7-0.7-1-1c-0.3-0.3-0.7-0.7-1-1c-0.3-0.3-0.7-0.7-1-1c-0.3-0.3-0.7-0.7-1-1c-0.3-0.3-0.7-0.7-1-1
				c-0.3-0.3-0.7-0.7-1-1c-0.3-0.3-0.7-0.7-1-1c-0.3-0.3-0.7-0.7-1-1c-0.3-0.3-0.7-0.7-1-1c-0.3-0.3-0.7-0.7-1-1
				c-0.3-0.3-0.7-0.7-1-1c-0.3-0.3-0.7-0.7-1-1c-0.3-0.3-0.7-0.7-1-1c-0.3-0.3-0.7-0.7-1-1c-0.3-0.3-0.7-0.7-1-1
				c-0.3-0.3-0.7-0.7-1-1c-0.3-0.3-0.7-0.7-1-1c-0.3-0.3-0.7-0.7-1-1c-0.3-0.3-0.7-0.7-1-1c-0.3-0.3-0.7-0.7-1-1
				c-0.3-0.3-0.7-0.7-1-1c-0.3-0.3-0.7-0.7-1-1c-0.3-0.3-0.7-0.7-1-1c-0.3-0.3-0.7-0.7-1-1c-0.3-0.3-0.7-0.7-1-1
				c-0.3-0.3-0.7-0.7-1-1c-0.3-0.3-0.7-0.7-1-1c-0.3-0.3-0.7-0.7-1-1c-0.3-0.3-0.7-0.7-1-1c-0.3-0.3-0.7-0.7-1-1
				c-0.3-0.3-0.7-0.7-1-1c-0.3-0.3-0.7-0.7-1-1c-0.3-0.3-0.7-0.7-1-1c-0.3-0.3-0.7-0.7-1-1c-0.3-0.3-0.7-0.7-1-1
				c-0.3-0.3-0.7-0.7-1-1c-0.3-0.3-0.7-0.7-1-1c-0.3-0.3-0.7-0.7-1-1c-0.3-0.3-0.7-0.7-1-1c-0.3-0.3-0.7-0.7-1-1
				c-0.3-0.3-0.7-0.7-1-1c-0.3-0.3-0.7-0.7-1-1c-0.3-0.3-0.7-0.7-1-1c-0.3-0.3-0.7-0.7-1-1c-0.3-0.3-0.7-0.7-1-1
				c-0.3-0.3-0.7-0.7-1-1c-0.3-0.3-0.7-0.7-1-1c-0.3-0.3-0.7-0.7-1-1c-0.3-0.3-0.7-0.7-1-1c-0.3-0.3-0.7-0.7-1-1
				c-0.3-0.3-0.7-0.7-1-1c-0.3-0.3-0.7-0.7-1-1c-0.3-0.3-0.7-0.7-1-1c-0.3-0.3-0.7-0.7-1-1c-0.3-0.3-0.7-0.7-1-1
				c-0.3-0.3-0.7-0.7-1-1c-0.3-0.3-0.7-0.7-1-1c-0.3-0.3-0.7-0.7-1-1c-0.3-0.3-0.7-0.7-1-1c-0.3-0.3-0.7-0.7-1-1
				c-0.3-0.3-0.7-0.7-1-1c-0.3-0.3-0.7-0.7-1-1c-0.3-0.3-0.7-0.7-1-1c-0.3-0.3-0.7-0.7-1-1c-0.3-0.3-0.7-0.7-1-1
				c-0.3-0.3-0.7-0.7-1-1c-0.3-0.3-0.7-0.7-1-1c-0.3-0.3-0.7-0.7-1-1c-0.3-0.3-0.7-0.7-1-1c-0.3-0.3-0.7-0.7-1-1
				c-0.3-0.3-0.7-0.7-1-1c-0.3-0.3-0.7-0.7-1-1c-0.3-0.3-0.7-0.7-1-1c-0.3-0.3-0.7-0.7-1-1c-0.3-0.3-0.7-0.7-1-1
				c-0.3-0.3-0.7-0.7-1-1c-0.3-0.3-0.7-0.7-1-1c-0.3-0.3-0.7-0.7-1-1c-0.3-0.3-0.7-0.7-1-1c-0.3-0.3-0.7-0.7-1-1
				c-0.3-0.3-0.7-0.7-1-1c-0.3-0.3-0.7-0.7-1-1c-0.3-0.3-0.7-0.7-1-1c-0.3-0.3-0.7-0.7-1-1c-0.3-0.3-0.7-0.7-1-1
				c-0.3-0.3-0.7-0.7-1-1c-0.3-0.3-0.7-0.7-1-1c-0.3-0.3-0.7-0.7-1-1c-0.3-0.3-0.7-0.7-1-1c-0.3-0.3-0.7-0.7-1-1
				c-0.3-0.3-0.7-0.7-1-1c-0.3-0.3-0.7-0.7-1-1c-0.3-0.3-0.7-0.7-1-1c-0.3-0.3-0.7-0.7-1-1c-0.3-0.3-0.7-0.7-1-1
				c-0.3-0.3-0.7-0.7-1-1c-0.3-0.3-0.7-0.7-1-1c-0.3-0.3-0.7-0.7-1-1c-0.3-0.3-0.7-0.7-1-1c-0.3-0.3-0.7-0.7-1-1
				c-0.3-0.3-0.7-0.7-1-1c-0.3-0.3-0.7-0.7-1-1c-0.3-0.3-0.7-0.7-1-1c-0.3-0.3-0.7-0.7-1-1c-0.3-0.3-0.7-0.7-1-1
				c-0.3-0.3-0.7-0.7-1-1c-0.3-0.3-0.7-0.7-1-1c-0.3-0.3-0.7-0.7-1-1c-0.3-0.3-0.7-0.7-1-1c-0.3-0.3-0.7-0.7-1-1
				c-0.3-0.3-0.7-0.7-1-1c-0.3-0.3-0.7-0.7-1-1c-0.3-0.3-0.7-0.7-1-1c-0.3-0.3-0.7-0.7-1-1c-0.3-0.3-0.7-0.7-1-1
				c-0.3-0.3-0.7-0.7-1-1c-0.3-0.3-0.7-0.7-1-1c-0.3-0.3-0.7-0.7-1-1c-0.3-0.3-0.7-0.7-1-1c-0.3-0.3-0.7-0.7-1-1
				c-0.3-0.3-0.7-0.7-1-1c-0.3-0.3-0.7-0.7-1-1c-0.3-0.3-0.7-0.7-1-1c-0.3-0.3-0.7-0.7-1-1c-0.3-0.3-0.7-0.7-1-1
				c-0.3-0.3-0.7-0.7-1-1c-0.3-0.3-0.7-0.7-1-1c-0.3-0.3-0.7-0.7-1-1c-0.3-0.3-0.7-0.7-1-1c-0.3-0.3-0.7-0.7-1-1
				c-0.3-0.3-0.7-0.7-1-1c-0.3-0.3-0.7-0.7-1-1c-0.3-0.3-0.7-0.7-1-1c-0.3-0.3-0.7-0.7-1-1c-0.3-0.3-0.7-0.7-1-1
				c-0.3-0.3-0.7-0.7-1-1c-0.3-0.3-0.7-0.7-1-1c-0.3-0.3-0.7-0.7-1-1c-0.3-0.3-0.7-0.7-1-1c-0.3-0.3-0.7-0.7-1-1
				c-0.3-0.3-0.7-0.7-1-1c-0.3-0.3-0.7-0.7-1-1c-0.3-0.3-0.7-0.7-1-1c-0.3-0.3-0.7-0.7-1-1c-0.3-0.3-0.7-0.7-1-1
				c-0.3-0.3-0.7-0.7-1-1c-0.3-0.3-0.7-0.7-1-1c-0.3-0.3-0.7-0.7-1-1c-0.3-0.3-0.7-0.7-1-1c-0.3-0.3-0.7-0.7-1-1
				c-0.3-0.3-0.7-0.7-1-1c-0.3-0.3-0.7-0.7-1-1c-0.3-0.3-0.7-0.7-1-1c-0.3-0.3-0.7-0.7-1-1c-0.3-0.3-0.7-0.7-1-1
				c-0.3-0.3-0.7-0.7-1-1c-0.3-0.3-0.7-0.7-1-1c-0.3-0.3-0.7-0.7-1-1c-0.3-0.3-0.7-0.7-1-1c-0.3-0.3-0.7-0.7-1-1
				c-0.3-0.3-0.7-0.7-1-1c-0.3-0.3-0.7-0.7-1-1c-0.3-0.3-0.7-0.7-1-1c-0.3-0.3-0.7-0.7-1-1c-0.3-0.3-0.7-0.7-1-1
				c-0.3-0.3-0.7-0.7-1-1c-0.3-0.3-0.7-0.7-1-1c-0.3-0.3-0.7-0.7-1-1c-0.3-0.3-0.7-0.7-1-1c-0.3-0.3-0.7-0.7-1-1
				c-4.8-4.9-10.4-8.8-16.7-11.7c-6.1-2.8-12.4-4.6-19.2-4.5c-0.4,0-0.8,0-1.2,0c-0.6-0.1-1.1,0.1-1.7-0.1c-78.4,0-156.9,0-235.3,0
				c-0.5,0.2-1.1,0.1-1.6,0.1c-0.4,0-0.7,0-1.1,0c-2.4,0.1-4.7,0.1-7,0.5c-10.4,2.1-19.4,6.8-27.2,13.9c-5.6,5.1-10,11.2-13.2,18.2
				c-2.8,6.1-4.6,12.5-4.5,19.4c0,0.4,0,0.7,0,1.1c-0.1,0.5,0.1,1.1-0.1,1.6c0,107.8,0,215.6,0,323.4c0.2,0.5,0.1,1,0.1,1.5
				c0,0.5,0,0.9,0,1.4c0.1,3.1,0.2,6.3,1.1,9.4c2.8,10.5,7.9,19.5,15.6,26.9c0.3,0.3,0.7,0.7,1,1c0.3,0.3,0.7,0.7,1,1
				c0.3,0.3,0.7,0.7,1,1c0.3,0.3,0.7,0.7,1,1c0.3,0.3,0.7,0.7,1,1c0.3,0.3,0.7,0.7,1,1c0.3,0.3,0.7,0.7,1,1c0.3,0.3,0.7,0.7,1,1
				c0.3,0.3,0.7,0.7,1,1c0.3,0.3,0.7,0.7,1,1c0.3,0.3,0.7,0.7,1,1c0.3,0.3,0.7,0.7,1,1c0.3,0.3,0.7,0.7,1,1c0.3,0.3,0.7,0.7,1,1
				c0.3,0.3,0.7,0.7,1,1c0.3,0.3,0.7,0.7,1,1c0.3,0.3,0.7,0.7,1,1c0.3,0.3,0.7,0.7,1,1c0.3,0.3,0.7,0.7,1,1c0.3,0.3,0.7,0.7,1,1
				c0.3,0.3,0.7,0.7,1,1c0.3,0.3,0.7,0.7,1,1c0.3,0.3,0.7,0.7,1,1c0.3,0.3,0.7,0.7,1,1c0.3,0.3,0.7,0.7,1,1c0.3,0.3,0.7,0.7,1,1
				c0.3,0.3,0.7,0.7,1,1c0.3,0.3,0.7,0.7,1,1c0.3,0.3,0.7,0.7,1,1c0.3,0.3,0.7,0.7,1,1c0.3,0.3,0.7,0.7,1,1c0.3,0.3,0.7,0.7,1,1
				c0.3,0.3,0.7,0.7,1,1c0.3,0.3,0.7,0.7,1,1c0.3,0.3,0.7,0.7,1,1c0.3,0.3,0.7,0.7,1,1c0.3,0.3,0.7,0.7,1,1c0.3,0.3,0.7,0.7,1,1
				c0.3,0.3,0.7,0.7,1,1c0.3,0.3,0.7,0.7,1,1c0.3,0.3,0.7,0.7,1,1c0.3,0.3,0.7,0.7,1,1c0.3,0.3,0.7,0.7,1,1c0.3,0.3,0.7,0.7,1,1
				c0.3,0.3,0.7,0.7,1,1c0.3,0.3,0.7,0.7,1,1c0.3,0.3,0.7,0.7,1,1c0.3,0.3,0.7,0.7,1,1c0.3,0.3,0.7,0.7,1,1c0.3,0.3,0.7,0.7,1,1
				c0.3,0.3,0.7,0.7,1,1c0.3,0.3,0.7,0.7,1,1c0.3,0.3,0.7,0.7,1,1c0.3,0.3,0.7,0.7,1,1c0.3,0.3,0.7,0.7,1,1c0.3,0.3,0.7,0.7,1,1
				c0.3,0.3,0.7,0.7,1,1c0.3,0.3,0.7,0.7,1,1c0.3,0.3,0.7,0.7,1,1c0.3,0.3,0.7,0.7,1,1c0.3,0.3,0.7,0.7,1,1c0.3,0.3,0.7,0.7,1,1
				c0.3,0.3,0.7,0.7,1,1c0.3,0.3,0.7,0.7,1,1c0.3,0.3,0.7,0.7,1,1c0.3,0.3,0.7,0.7,1,1c0.3,0.3,0.7,0.7,1,1c0.3,0.3,0.7,0.7,1,1
				c0.3,0.3,0.7,0.7,1,1c0.3,0.3,0.7,0.7,1,1c0.3,0.3,0.7,0.7,1,1c0.3,0.3,0.7,0.7,1,1c0.3,0.3,0.7,0.7,1,1c0.3,0.3,0.7,0.7,1,1
				c0.3,0.3,0.7,0.7,1,1c0.3,0.3,0.7,0.7,1,1c0.3,0.3,0.7,0.7,1,1c0.3,0.3,0.7,0.7,1,1c0.3,0.3,0.7,0.7,1,1c0.3,0.3,0.7,0.7,1,1
				c0.3,0.3,0.7,0.7,1,1c0.3,0.3,0.7,0.7,1,1c0.3,0.3,0.7,0.7,1,1c0.3,0.3,0.7,0.7,1,1c0.3,0.3,0.7,0.7,1,1c0.3,0.3,0.7,0.7,1,1
				c0.3,0.3,0.7,0.7,1,1c0.3,0.3,0.7,0.7,1,1c0.3,0.3,0.7,0.7,1,1c0.3,0.3,0.7,0.7,1,1c0.3,0.3,0.7,0.7,1,1c0.3,0.3,0.7,0.7,1,1
				c0.3,0.3,0.7,0.7,1,1c0.3,0.3,0.7,0.7,1,1c0.3,0.3,0.7,0.7,1,1c0.3,0.3,0.7,0.7,1,1c0.3,0.3,0.7,0.7,1,1c0.3,0.3,0.7,0.7,1,1
				c0.3,0.3,0.7,0.7,1,1c0.3,0.3,0.7,0.7,1,1c0.3,0.3,0.7,0.7,1,1c0.3,0.3,0.7,0.7,1,1c0.3,0.3,0.7,0.7,1,1c0.3,0.3,0.7,0.7,1,1
				c0.3,0.3,0.7,0.7,1,1c0.3,0.3,0.7,0.7,1,1c0.3,0.3,0.7,0.7,1,1c0.3,0.3,0.7,0.7,1,1c0.3,0.3,0.7,0.7,1,1c0.3,0.3,0.7,0.7,1,1
				c0.3,0.3,0.7,0.7,1,1c0.3,0.3,0.7,0.7,1,1c0.3,0.3,0.7,0.7,1,1c0.3,0.3,0.7,0.7,1,1c0.3,0.3,0.7,0.7,1,1c0.3,0.3,0.7,0.7,1,1
				c0.3,0.3,0.7,0.7,1,1c0.3,0.3,0.7,0.7,1,1c0.3,0.3,0.7,0.7,1,1c0.3,0.3,0.7,0.7,1,1c0.3,0.3,0.7,0.7,1,1c0.3,0.3,0.7,0.7,1,1
				c0.3,0.3,0.7,0.7,1,1c0.3,0.3,0.7,0.7,1,1c0.3,0.3,0.7,0.7,1,1c0.3,0.3,0.7,0.7,1,1c0.3,0.3,0.7,0.7,1,1c0.3,0.3,0.7,0.7,1,1
				c0.3,0.3,0.7,0.7,1,1c0.3,0.3,0.7,0.7,1,1c0.3,0.3,0.7,0.7,1,1c0.3,0.3,0.7,0.7,1,1c0.3,0.3,0.7,0.7,1,1c0.3,0.3,0.7,0.7,1,1
				c0.3,0.3,0.7,0.7,1,1c0.3,0.3,0.7,0.7,1,1c0.3,0.3,0.7,0.7,1,1c0.3,0.3,0.7,0.7,1,1c0.3,0.3,0.7,0.7,1,1c0.3,0.3,0.7,0.7,1,1
				c0.3,0.3,0.7,0.7,1,1c0.3,0.3,0.7,0.7,1,1c0.3,0.3,0.7,0.7,1,1c0.3,0.3,0.7,0.7,1,1c0.3,0.3,0.7,0.7,1,1c0.3,0.3,0.7,0.7,1,1
				c0.3,0.3,0.7,0.7,1,1c0.3,0.3,0.7,0.7,1,1c0.3,0.3,0.7,0.7,1,1c0.3,0.3,0.7,0.7,1,1c0.3,0.3,0.7,0.7,1,1c0.3,0.3,0.7,0.7,1,1
				c0.3,0.3,0.7,0.7,1,1c0.3,0.3,0.7,0.7,1,1c0.3,0.3,0.7,0.7,1,1c0.3,0.3,0.7,0.7,1,1c0.3,0.3,0.7,0.7,1,1c0.3,0.3,0.7,0.7,1,1
				c0.3,0.3,0.7,0.7,1,1c0.3,0.3,0.7,0.7,1,1c0.3,0.3,0.7,0.7,1,1c0.3,0.3,0.7,0.7,1,1c0.3,0.3,0.7,0.7,1,1c0.3,0.3,0.7,0.7,1,1
				c0.3,0.3,0.7,0.7,1,1c0.3,0.3,0.7,0.7,1,1c0.3,0.3,0.7,0.7,1,1c0.3,0.3,0.7,0.7,1,1c0.3,0.3,0.7,0.7,1,1c0.3,0.3,0.7,0.7,1,1
				c0.3,0.3,0.7,0.7,1,1c0.3,0.3,0.7,0.7,1,1c0.3,0.3,0.7,0.7,1,1c0.3,0.3,0.7,0.7,1,1c0.3,0.3,0.7,0.7,1,1c0.3,0.3,0.7,0.7,1,1
				c0.3,0.3,0.7,0.7,1,1c0.3,0.3,0.7,0.7,1,1c0.3,0.3,0.7,0.7,1,1c0.3,0.3,0.7,0.7,1,1c0.3,0.3,0.7,0.7,1,1c0.3,0.3,0.7,0.7,1,1
				c0.3,0.3,0.7,0.7,1,1c0.3,0.3,0.7,0.7,1,1c0.3,0.3,0.7,0.7,1,1c0.3,0.3,0.7,0.7,1,1c0.3,0.3,0.7,0.7,1,1c0.3,0.3,0.7,0.7,1,1
				c0.3,0.3,0.7,0.7,1,1c0.3,0.3,0.7,0.7,1,1c0.3,0.3,0.7,0.7,1,1c0.3,0.3,0.7,0.7,1,1c0.3,0.3,0.7,0.7,1,1c0.3,0.3,0.7,0.7,1,1
				c0.3,0.3,0.7,0.7,1,1c0.3,0.3,0.7,0.7,1,1c0.3,0.3,0.7,0.7,1,1c0.3,0.3,0.7,0.7,1,1c0.3,0.3,0.7,0.7,1,1c0.3,0.3,0.7,0.7,1,1
				c0.3,0.3,0.7,0.7,1,1c0.3,0.3,0.7,0.7,1,1c0.3,0.3,0.7,0.7,1,1c0.3,0.3,0.7,0.7,1,1c0.3,0.3,0.7,0.7,1,1c0.3,0.3,0.7,0.7,1,1
				c0.3,0.3,0.7,0.7,1,1c0.3,0.3,0.7,0.7,1,1c0.3,0.3,0.7,0.7,1,1c0.3,0.3,0.7,0.7,1,1c0.3,0.3,0.7,0.7,1,1c0.3,0.3,0.7,0.7,1,1
				c0.3,0.3,0.7,0.7,1,1c0.3,0.3,0.7,0.7,1,1c0.3,0.3,0.7,0.7,1,1c0.3,0.3,0.7,0.7,1,1c0.3,0.3,0.7,0.7,1,1c0.3,0.3,0.7,0.7,1,1
				c0.3,0.3,0.7,0.7,1,1c0.3,0.3,0.7,0.7,1,1c0.3,0.3,0.7,0.7,1,1c0.3,0.3,0.7,0.7,1,1c0.3,0.3,0.7,0.7,1,1c0.3,0.3,0.7,0.7,1,1
				c0.3,0.3,0.7,0.7,1,1c0.3,0.3,0.7,0.7,1,1c0.3,0.3,0.7,0.7,1,1c0.3,0.3,0.7,0.7,1,1c0.3,0.3,0.7,0.7,1,1c0.3,0.3,0.7,0.7,1,1
				c0.3,0.3,0.7,0.7,1,1c0.3,0.3,0.7,0.7,1,1c0.3,0.3,0.7,0.7,1,1c0.3,0.3,0.7,0.7,1,1c0.3,0.3,0.7,0.7,1,1c0.3,0.3,0.7,0.7,1,1
				c0.3,0.3,0.7,0.7,1,1c0.3,0.3,0.7,0.7,1,1c0.3,0.3,0.7,0.7,1,1c0.3,0.3,0.7,0.7,1,1c0.3,0.3,0.7,0.7,1,1c0.3,0.3,0.7,0.7,1,1
				c0.3,0.3,0.7,0.7,1,1c0.3,0.3,0.7,0.7,1,1c0.3,0.3,0.7,0.7,1,1c0.3,0.3,0.7,0.7,1,1c0.3,0.3,0.7,0.7,1,1c0.3,0.3,0.7,0.7,1,1
				c0.3,0.3,0.7,0.7,1,1c0.3,0.3,0.7,0.7,1,1c0.3,0.3,0.7,0.7,1,1c0.3,0.3,0.7,0.7,1,1c0.3,0.3,0.7,0.7,1,1c0.3,0.3,0.7,0.7,1,1
				c0.3,0.3,0.7,0.7,1,1c0.3,0.3,0.7,0.7,1,1c0.3,0.3,0.7,0.7,1,1c0.3,0.3,0.7,0.7,1,1c0.3,0.3,0.7,0.7,1,1c0.3,0.3,0.7,0.7,1,1
				c0.3,0.3,0.7,0.7,1,1c0.3,0.3,0.7,0.7,1,1c0.3,0.3,0.7,0.7,1,1c0.3,0.3,0.7,0.7,1,1c0.3,0.3,0.7,0.7,1,1c0.3,0.3,0.7,0.7,1,1
				c0.3,0.3,0.7,0.7,1,1c0.3,0.3,0.7,0.7,1,1c0.3,0.3,0.7,0.7,1,1c0.3,0.3,0.7,0.7,1,1c0.3,0.3,0.7,0.7,1,1c0.3,0.3,0.7,0.7,1,1
				c0.3,0.3,0.7,0.7,1,1c0.3,0.3,0.7,0.7,1,1c0.3,0.3,0.7,0.7,1,1c0.3,0.3,0.7,0.7,1,1c0.3,0.3,0.7,0.7,1,1c0.3,0.3,0.7,0.7,1,1
				c0.3,0.3,0.7,0.7,1,1c0.3,0.3,0.7,0.7,1,1c0.3,0.3,0.7,0.7,1,1c0.3,0.3,0.7,0.7,1,1c0.3,0.3,0.7,0.7,1,1c1.3,1.4,2.8,2.7,4.3,3.9
				c10.4,8.7,22.4,13.2,36,13.2c64,0.1,128.1,0,192.1,0c0.3,0.3,0.5,0.5,0.8,0.8c0.3,0.3,0.7,0.7,1,1c0.3,0.3,0.7,0.7,1,1
				c0.3,0.3,0.7,0.7,1,1c0.3,0.3,0.7,0.7,1,1c0.3,0.3,0.7,0.7,1,1c0.3,0.3,0.7,0.7,1,1c0.3,0.3,0.7,0.7,1,1c0.3,0.3,0.7,0.7,1,1
				c0.3,0.3,0.7,0.7,1,1c0.3,0.3,0.7,0.7,1,1c0.3,0.3,0.7,0.7,1,1c0.3,0.3,0.7,0.7,1,1c0.3,0.3,0.7,0.7,1,1c0.3,0.3,0.7,0.7,1,1
				c0.3,0.3,0.7,0.7,1,1c0.3,0.3,0.7,0.7,1,1c0.3,0.3,0.7,0.7,1,1c0.3,0.3,0.7,0.7,1,1c0.3,0.3,0.7,0.7,1,1c0.3,0.3,0.7,0.7,1,1
				c0.3,0.3,0.7,0.7,1,1c0.3,0.3,0.7,0.7,1,1c0.3,0.3,0.7,0.7,1,1c0.3,0.3,0.7,0.7,1,1c0.3,0.3,0.7,0.7,1,1c0.3,0.3,0.7,0.7,1,1
				c0.3,0.3,0.7,0.7,1,1c0.3,0.3,0.7,0.7,1,1c0.3,0.3,0.7,0.7,1,1c0.3,0.3,0.7,0.7,1,1c3.3,3.6,8.1,5.8,13.4,5.8
				c25.6,0,51.2,0,76.8,0c0.8-0.3,0.6-1.1,0.8-1.6c0.8-3.3,2.3-5.8,4.6-7.7c0.2,0.1,0.4,0.1,0.6,0.1c0,0.1,0,0.2,0,0.3
				c0.1,0.6,0.6,0.6,1,0.7c0,0.1,0,0.2,0,0.3c0.1,0.6,0.6,0.6,1,0.7c0,0.1,0,0.2,0,0.3c0.1,0.6,0.6,0.6,1.1,0.7
				c0.2,0,0.3,0.1,0.5,0.1c0.1,0.2,0.3,0.4,0.6,0.5c0,0,0.1,0,0.1,0c0.1,0.4,0.3,0.9,0.9,1c0,0,0.1,0,0.1,0c0.1,0.4,0.3,0.9,0.9,1
				c0,0,0.1,0,0.1,0c0.1,0.4,0.3,0.9,0.9,1c0,0,0.1,0,0.1,0c0.1,0.4,0.3,0.9,0.9,1c0,0,0.1,0,0.1,0c0.1,0.4,0.3,0.9,0.9,1
				c0,0,0.1,0,0.1,0c0.1,0.4,0.3,0.9,0.9,1c1.2,0.3,2.4,0.3,3.5,0c0.9-0.4,0.7-1.4,0.9-2.1c0.8-3.2,2.3-5.7,4.5-7.6
				c0.1,0.1,0.3,0.1,0.4,0.1c0,0,0.1,0,0.1,0c0,0.1,0,0.2,0,0.4c0.1,0.4,0.5,0.5,0.9,0.6c0,0,0.1,0,0.1,0c0,0.1,0,0.2,0,0.4
				c0.1,0.4,0.5,0.5,0.9,0.6c0,0,0.1,0,0.1,0c0,0.1,0,0.2,0,0.4c0.1,0.4,0.5,0.5,0.9,0.6c0.1,0,0.3,0.1,0.4,0.1c0.1,0,0.2,0,0.2,0.1
				c0.1,0.1,0.2,0.3,0.4,0.4c0.1,0.1,0.3,0.1,0.4,0.2c0.1,0.3,0.2,0.6,0.6,0.8c0.1,0.1,0.3,0.1,0.4,0.2c0.1,0.3,0.2,0.6,0.6,0.8
				c0.1,0.1,0.3,0.1,0.4,0.2c0.1,0.3,0.2,0.6,0.6,0.8c0.1,0.1,0.3,0.1,0.4,0.2c0.1,0.3,0.2,0.6,0.6,0.8c0.1,0.1,0.3,0.1,0.4,0.2
				c0.1,0.3,0.2,0.6,0.6,0.8c0.1,0.1,0.3,0.1,0.4,0.2c0.1,0.3,0.2,0.6,0.6,0.8c0.5,0.2,1.1,0.3,1.7,0.3c5.4-0.2,10-2.3,13.6-6.4
				c2.5-2.8,4.1-6,4-9.9c0.1-0.4-0.1-0.8,0.1-1.2C895.9,877.9,895.9,858.9,895.9,839.8z"/>
		</g>
	</g>
</g>
<g>
	<path class="st3" d="M188.1,538.1c0-107.8,0-215.6,0-323.4c0.2-0.5,0.1-1.1,0.1-1.6c0-0.4,0-0.7,0-1.1c-0.1-6.8,1.7-13.2,4.5-19.4
		c3.2-6.9,7.6-13,13.2-18.2c7.8-7.1,16.8-11.9,27.2-13.9c2.3-0.5,4.7-0.5,7-0.5c0.4,0,0.7,0,1.1,0c0.5-0.1,1.1,0.1,1.6-0.1
		c78.4,0,156.9,0,235.3,0c0.5,0.2,1.1,0.1,1.7,0.1c0.4,0,0.8,0,1.2,0c6.8-0.1,13.1,1.7,19.2,4.5c6.8,3.1,12.8,7.4,17.9,13
		c8.4,9.1,13.4,19.7,14.9,31.9c0.4,2.8,0.4,5.7,0.4,8.6c0,105.9,0,211.7,0,317.6c0,1.1,0.2,2.3-0.4,3.3c-0.3,0.3-0.8,0.3-1.2,0.3
		c-3.8,0.1-7.7,0-11.5,0c-0.3,0-0.7,0-1-0.2c-0.7-0.2-0.8-0.8-0.8-1.3c-0.1-1.9-0.8-3.7-2-5.2c-1.7-2-3.7-3-6.4-2.4
		c-3.4,0.8-6.4,3.3-6.4,7.3c0,0.6,0.1,1.2-0.7,1.5c-1.3,0.3-2.5,0.4-3.8-0.1c-0.4-0.2-0.4-0.6-0.4-1c-0.1-1.1-0.4-2.3-0.6-3.4
		c0.2-0.6,0.2-1.2,0.1-1.9c-0.1-0.8,0-1.7,0-2.5c0-104.4,0-208.8,0-313.2c0-5.6-1.7-10.6-5.4-14.9c-3.6-4.2-8.2-6.6-13.7-7.5
		c-1.2-0.2-2.4-0.2-3.6-0.2c-76.9,0-153.7,0-230.6,0c-6,0-11.4,1.9-15.8,6.1c-3.7,3.5-5.9,7.9-6.7,12.9c-0.2,1.2-0.3,2.3-0.3,3.5
		c0,106.3,0,212.6,0,318.9c0,6.1,2,11.3,6.2,15.7c3.5,3.7,7.8,5.8,12.9,6.6c1.3,0.2,2.7,0.2,4.1,0.2c71.1,0,142.2,0,213.4,0
		c1.1,0,2.2-0.2,3.3,0.4c0.4,0.5,0.4,1.1,0.4,1.6c0,10.4,0,20.7,0,31.1c0,0.5,0,1-0.2,1.4c-0.4,0.4-0.9,0.5-1.5,0.5
		c-0.7,0-1.4,0-2,0c-71.6,0-143.2,0-214.8,0c-13.5,0-25.6-4.6-36-13.2c-9.5-7.9-15.7-17.9-18.8-29.8c-0.8-3.1-0.9-6.2-1.1-9.4
		c0-0.5,0-0.9,0-1.4C188.1,539.1,188.3,538.6,188.1,538.1z"/>
	<path class="st4" d="M557.1,630c-25.6,0-51.2,0-76.8,0c-8.8,0-16.1-6-17.9-14.6c-0.3-1.3-0.3-2.6-0.3-3.9c0-6.2,0-12.4,0-18.5
		c0-11.3,0-22.6,0-33.9c-0.5-0.4-0.5-0.9-0.5-1.4c-0.4-9.2,6.4-17.5,15.6-19c2.2-0.3,4.3-0.5,6.5,0c0.5,0.3,0.5,0.9,0.6,1.4
		c0.8,3.2,2.7,5.1,5.9,5.9c0.2,0,0.4,0.1,0.5,0.1c0.4,0.1,0.8,0.2,0.9,0.7c0.1,0.5-0.3,0.8-0.7,1.1c-1.6,0.9-3.3,1.6-5.2,1.6
		c-1.3,0-1.7,0.3-1.7,1.1c0,0.9,0.7,1.7,1.7,1.8c1.7,0.2,3.4-0.2,4.9-0.9c5-2.2,7.8-6.1,8.3-11.6c0-0.4,0-0.9,0.6-1
		c1.2,0,2.5,0,3.7,0c0.6,0.1,0.6,0.7,0.7,1.1c0.8,3.3,2.8,5.3,6.1,6c0.5,0.1,1.1,0.1,1.2,0.8c0.1,0.7-0.5,0.9-1,1.2
		c-1.5,0.8-3.1,1.5-4.9,1.4c-0.8,0-1.6,0-1.7,1c-0.1,0.9,0.6,1.8,1.6,1.9c0.9,0.1,1.8,0.2,2.7-0.1c5.7-1.6,9.3-5.2,10.5-11
		c0.1-0.4,0.1-0.9,0.1-1.3c0-0.4,0-0.9,0.6-1c4.6,0,9.1,0,13.7,0c2.1,0,4.3,0,6.4,0c18.1,0,36.2,0,54.3,0c8.9,0,16.1,5.9,17.9,14.6
		c0.1,0.4,0.1,0.8,0.2,1.2c0.2,0.4-0.1,0.8,0.2,1.2c0,19.1,0,38.2,0,57.3c-0.2,0.4-0.1,0.8-0.1,1.2c0.1,3.9-1.5,7.1-4,9.9
		c-3.6,4.1-8.2,6.2-13.6,6.4c-0.6,0-1.1,0-1.7-0.3c-0.5-0.3-0.5-0.8-0.7-1.2c-1-2.8-2.9-4.6-5.9-5.2c-0.1,0-0.3-0.1-0.4-0.1
		c-0.4-0.1-0.8-0.2-0.9-0.6c-0.1-0.5,0.1-0.8,0.5-1c1.5-0.9,3-1.6,4.7-1.7c0.3,0,0.6,0,0.9,0c0.7,0,1.3-0.1,1.5-0.9
		c0.2-0.8-0.2-1.6-1-1.9c-1.2-0.6-2.5-0.3-3.6,0.1c-5.3,1.7-8.7,5.1-10.1,10.6c-0.2,0.7,0,1.6-0.9,2.1c-1.2,0.3-2.4,0.3-3.5,0
		c-0.6-0.1-0.8-0.7-0.9-1.2c-1-3-3.1-4.8-6.2-5.4c-0.4-0.1-1-0.1-1.1-0.7c-0.1-0.5,0.3-0.8,0.7-1.1c1.6-1,3.3-1.7,5.2-1.6
		c0.8,0,1.6,0.1,1.7-1c0.1-1-0.4-1.6-1.4-2c-1.1-0.3-2.1-0.1-3.1,0.2c-5.5,1.6-8.8,5.2-10.2,10.7C557.8,628.9,557.9,629.7,557.1,630
		z"/>
	<path class="st5" d="M188.3,213.1c0.1,0.6,0.1,1.1-0.2,1.6c0-0.5,0-1.1,0-1.6C188.1,213,188.2,213,188.3,213.1z"/>
	<path class="st6" d="M188.3,540.9C188.3,540.9,188.2,540.9,188.3,540.9l-0.2,0c0-0.5,0-0.9,0-1.4c0,0,0.1-0.1,0.1-0.1
		c0,0.1,0,0.1,0.1,0.2C188.3,540,188.3,540.4,188.3,540.9z"/>
	<path class="st7" d="M188.3,539.5c-0.1,0-0.1,0-0.2,0c0-0.5,0-0.9,0-1.4C188.4,538.6,188.3,539,188.3,539.5z"/>
	<path class="st8" d="M188.3,213.1c-0.1,0-0.1,0-0.2,0c0-0.4,0-0.8,0-1.1c0.1,0,0.1,0,0.2,0C188.3,212.4,188.3,212.8,188.3,213.1z"
		/>
	<path class="st9" d="M483.6,538.8c-2.4,0-4.7-0.1-7.1,0.4c-8.4,1.8-14.3,9-14.4,17.6c0,0.7,0,1.4,0,2.1c-72.4,0-144.9,0-217.3,0
		c-12.7,0-22.7-10.1-22.7-22.8c0-106.5,0-212.9,0-319.4c0-12.7,10-22.8,22.7-22.8c77.2,0,154.3,0,231.5,0C489.1,194,499,204,499,217
		c0,94,0,188,0,281.9c0,11.4,0,22.9,0,34.3c0,0.5,0,1,0,1.5c-0.6,0.2-0.8-0.3-1-0.6c-0.6-0.8-1.1-1.7-1.9-2.4
		c-1.6-1.4-3.5-2-5.6-1.4c-3.2,0.9-6.2,3.2-6.2,7.2C484.1,538,484.2,538.6,483.6,538.8z"/>
	<path class="st10" d="M483.6,538.8c0-0.6,0-1.2,0.1-1.8c0.2-5.3,6.5-8.3,9.8-7.3c1.6,0.5,2.9,1.4,3.9,2.7c0.6,0.7,1.1,1.5,1.6,2.3
		c0.4,1.3,0.4,2.7,0.6,4.1c-0.3,7.6-4.7,11.7-10.4,13.7c-1.2,0.4-2.4,0.5-3.6,0.4c-1-0.1-1.8-0.7-2.1-1.7c-0.4-1.5,0.2-2.4,1.8-2.4
		c2.3,0.1,4.2-0.7,6.3-2.1C486.8,546,484.1,543.4,483.6,538.8z"/>
	<path class="st10" d="M519.2,538.8c-0.3,7.6-4.7,11.7-10.4,13.7c-1.2,0.4-2.4,0.5-3.6,0.4c-1-0.1-1.8-0.7-2.1-1.7
		c-0.4-1.5,0.3-2.4,1.8-2.4c2.3,0.1,4.2-0.7,6.3-2.1c-4.9-0.6-7.5-3.2-8.1-7.8c0-0.6,0-1.1,0-1.7c0.1-5.4,6.4-8.3,10-7.4
		c2.3,0.6,5.8,4.2,5.8,7.5C519.1,537.7,519.2,538.3,519.2,538.8z"/>
	<path class="st10" d="M566,640c-0.8,0-1.6,0-2.3,0c-2.9-0.5-6-3.7-6.3-6.7c-0.1-1.1-0.2-2.2-0.3-3.3c0.8-7.2,5.5-11.9,12.4-13.2
		c0.8-0.2,1.7,0,2.4,0.3c1.2,0.5,1.7,2,1.2,3.1c-0.4,0.8-1,0.8-1.7,0.7c-2.3-0.2-4.3,0.7-6.3,2.1c4.4,0.5,7.1,2.8,8,6.9
		c0,0.4,0.1,0.8,0.1,1.1C573.4,636,570.4,639,566,640z"/>
	<path class="st11" d="M475.7,582.7c0-4.8,0-9.6,0-14.4c0-0.8,0.2-1.1,1.1-1.1c6.9,0,13.7,0,20.6,0c0.8,0,1.1,0.2,1,1
		c-0.1,1.1-0.1,2.2,0,3.3c0.1,0.8-0.3,1-1,1c-4.7,0-9.4,0-14.1,0c-1,0-1.2,0.3-1.2,1.2c0.1,1.5,0.1,3.1,0,4.6c0,0.8,0.2,1,1,1
		c4.3,0,8.7,0,13,0c0.9,0,1.3,0.2,1.2,1.2c-0.1,1-0.1,2,0,3.1c0.1,0.8-0.2,1-1,1c-4.3,0-8.6,0-12.9,0c-1,0-1.4,0.2-1.3,1.3
		c0.1,2,0.1,3.9,0,5.9c-0.1,1.1,0.4,1.3,1.3,1.3c4.8,0,9.7,0,14.5,0c1,0,1.3,0.3,1.2,1.3c-0.1,1-0.1,2.1,0,3.2
		c0,0.7-0.2,0.8-0.8,0.8c-7.2,0-14.4,0-21.6,0c-0.8,0-0.9-0.4-0.9-1C475.7,592.3,475.7,587.5,475.7,582.7z"/>
	<path class="st11" d="M573.9,595.3c0,3.6,0,6.9,0,10.2c0,1-0.3,1.3-1.3,1.2c-1.2-0.1-2.5-0.1-3.7,0c-0.8,0-0.9-0.2-0.9-1
		c0-4.7,0-9.4,0-14c0-5,0-10,0-15c0-0.8,0.2-1.1,1-1c1.2,0.1,2.4,0,3.6,0c0.6,0,0.9,0.2,0.8,0.8c-0.1,0.7,0,1.4,0,2.3
		c1.5-1.8,3.1-3,5.2-3.4c2.7-0.6,5,0.1,7.1,1.8c2.7,2.2,3.6,5.3,3.8,8.7c0.1,3.2-0.3,6.3-2.3,9c-3,4.2-9,4.9-12.4,1.2
		C574.6,595.9,574.3,595.7,573.9,595.3z"/>
	<path class="st11" d="M518.2,595.5c-3.1,3.3-6.9,4-10.5,2c-2.3-1.3-3.5-3.5-4.2-6c-1.1-3.8-1-7.6,0.7-11.3c2-4.2,6.9-6.1,11.2-4.3
		c1.3,0.6,2.1,1.8,3.3,2.8c0-0.8,0-1.5,0-2.2c-0.1-0.7,0.2-0.9,0.9-0.9c1.2,0,2.4,0.1,3.6,0c0.7,0,0.9,0.2,0.9,0.9c0,4,0,8,0,12
		c0,5.7,0,11.3,0,17c0,1-0.3,1.2-1.2,1.2c-1.3-0.1-2.6-0.1-3.8,0c-0.7,0-0.9-0.2-0.9-0.9C518.3,602.4,518.2,599,518.2,595.5z"/>
	<path class="st11" d="M544.7,594.8c-2.8,3.7-8.3,5-12.2,2.1c-1.4-1.1-2.1-2.5-2.3-4.2c-0.6-5.5-0.1-11-0.3-16.5
		c0-0.6,0.3-0.7,0.7-0.7c1.4,0,2.9,0,4.3,0c0.7,0,0.9,0.3,0.9,0.9c0,3.7,0,7.4,0,11.1c0,1.2,0.1,2.5,0.3,3.7c0.2,1.7,2.2,3,4.2,2.6
		c1.9-0.4,3.6-2,3.8-4.2c0.3-4.3,0.1-8.6,0.1-13c0-1,0.3-1.2,1.2-1.2c1.3,0.1,2.6,0,4,0c0.6,0,0.8,0.2,0.8,0.8c0,6.9,0,13.9,0,20.8
		c0,0.6-0.2,0.9-0.8,0.8c-1.2,0-2.5,0-3.7,0c-0.7,0-1-0.1-0.9-0.9C544.8,596.5,544.7,595.8,544.7,594.8z"/>
	<path class="st10" d="M585.7,640c-0.8,0-1.5,0-2.3,0c-3-0.6-6-3.8-6.3-6.9c-0.1-1-0.2-2.1-0.3-3.1c0.8-7.2,5.3-11.8,12.2-13.2
		c0.9-0.2,1.7-0.1,2.5,0.3c1.2,0.5,1.7,2,1.2,3.1c-0.4,0.8-1.1,0.8-1.8,0.7c-2.3-0.1-4.2,0.7-6.2,2.1c4.5,0.5,7.1,2.8,8,6.9
		c0,0.7,0.1,1.4,0.1,2.1C592.8,636.8,589.1,639.3,585.7,640z"/>
	<path class="st11" d="M562.1,587c0,3.4,0,6.7,0,10.1c0,0.9-0.2,1.1-1.1,1c-1.4-0.1-2.7,0-4.1,0c-0.6,0-0.8-0.2-0.8-0.8
		c0-7,0-13.9,0-20.9c0-0.6,0.2-0.8,0.8-0.8c1.4,0,2.8,0,4.2,0c0.7,0,1,0.2,1,0.9C562.1,580.1,562.1,583.5,562.1,587z"/>
	<path class="st11" d="M597.1,598c-0.9,0-2.1,0.3-2.6-0.1c-0.6-0.5-0.2-1.8-0.2-2.7c0-1-0.4-2.2,0.2-2.8c0.6-0.6,1.8-0.2,2.8-0.2
		c0.9,0,2.1-0.4,2.7,0.2c0.6,0.6,0.2,1.8,0.2,2.7c0,1,0.4,2.2-0.2,2.8c-0.6,0.6-1.8,0.1-2.7,0.2C597.2,598.1,597.1,598.1,597.1,598
		C597.1,598.1,597.1,598,597.1,598z"/>
	<path class="st11" d="M559.4,567.3c0.8,0.1,2-0.4,2.5,0.2c0.6,0.6,0.2,1.8,0.2,2.7c0,2.3,0,2.3-2.3,2.3c-1.1,0-2.6,0.5-3.3-0.2
		c-0.5-0.5-0.2-2-0.2-3c0-1.9,0-1.9,2-1.9C558.5,567.3,558.9,567.3,559.4,567.3z"/>
	<path class="st12" d="M378.7,415.5c1.3-1,2.6-2.1,4-3.1c1.5-1,3.7-0.7,4.9,0.6c1.2,1.3,1.3,3.4,0.3,4.9c-1,1.4-2.3,2.5-3.5,3.7
		c-4.5,4.7-7,10.4-7.5,16.9c-0.6,7.7,1.8,14.4,6.9,20.2c1.1,1.3,2.3,2.6,3.6,3.7c2.6,2.3,5.9,1.4,6.8-1.9c0.3-1.4-0.2-2.5-1.1-3.5
		c-1.6-1.6-3.2-3.2-4.6-5c-5.4-7.3-5-17.6,1.1-24.4c1.3-1.4,2.7-2.7,3.9-4.1c3.2-3.6,3.9-7.7,2.2-12.2c-1.6-4.2-5.8-7-10.2-7.2
		c-3.5-0.1-6.4,1-9,3.3c-4.2,3.8-9.4,4.4-14,1.8c-0.9-0.5-1.6-1.1-2.4-1.8c-1.7-1.6-1.7-4,0.1-5.9c1.4-1.5,2.9-2.9,4.3-4.3
		c4.7-4.7,9.4-9.4,14.2-14.2c1.8-1.8,4-2.9,6.7-2.8c1.8,0.1,3.5,0.7,4.8,2c6,5.9,12.1,11.8,18,17.8c4.8,4.9,7.2,10.9,7.8,17.7
		c0.5,5.4,1.2,10.9,1.9,16.3c0.4,3.7,0.7,7.4,1.4,11.1c1.4,6.7,4.2,12.6,8.3,18c1.8,2.3,2,1.6-0.1,3.7
		c-15.6,15.6-31.3,31.2-46.9,46.9c-1.2,1.2-1.2,1.2-2.4,0c-14-14-28-27.9-41.9-41.9c-1.1-1.1-1.1-1.1,0-2.3
		c9.4-9.4,18.7-18.8,28.1-28c3.8-3.8,7.7-7.6,11.5-11.4c0.5-0.4,0.9-0.9,1.2-1.5c0.8-1.4,0.9-2.8,0-4.2c-0.9-1.3-2.2-2-3.9-1.8
		c-0.3,0-0.5,0.1-0.8,0.1c-0.4-0.7,0.1-1.1,0.5-1.4c1.8-1.7,3.4-3.7,5.5-5.2C378.4,416.1,378.8,415.9,378.7,415.5z"/>
	<path class="st13" d="M453.3,478.7c2,2.1,4.1,4.1,6.1,6.2c0.5,0.5,1.2,0.9,1.9,1c0.7,0.1,0.8,0.5,0.8,1.1c0,14.7,0,29.3,0,44
		c0,0.7-0.2,1-0.9,0.9c-0.1,0-0.3,0-0.5,0c-25.5,0-51,0-76.6,0c-0.3,0-0.7,0-1,0c-0.4-2-1.9-3.3-3.3-4.7c-0.6-0.6-0.7-0.9-0.1-1.6
		c19.8-19.8,39.6-39.6,59.4-59.4c0.6-0.6,0.9-0.6,1.5,0c3.8,3.8,7.6,7.6,11.4,11.5C452.5,477.9,452.9,478.3,453.3,478.7z"/>
	<path class="st14" d="M378.7,415.5c0.2-0.1,0.4-0.1,0.8-0.2c-0.2,0.5-0.5,0.8-0.8,1.1c-2.1,2.2-4.4,4.2-6.4,6.5
		c-5.8,5.4-11.2,11.1-16.8,16.6c-14,14-28,28-42,41.9c-3.1,3-4.2,6.5-4.1,10.8c0.1,14.5-6.4,25.5-19.2,32.1
		c-17.7,9.1-38.4,2-47.5-15.7c-1.7-3.4-2.8-7-3.3-10.8c-2.1-14.5,5.4-28.9,18.1-35.7c5.7-3,11.7-4.5,18.2-4.2c3.9,0.2,7.2-1,10-3.8
		c3.3-3.3,6.6-6.6,9.9-9.9c0.7-0.7,1.1-0.7,1.8,0c4.2,4.2,8.4,8.4,12.5,12.6c6.2,6.2,15.2,6.7,21.6,1.1c4.3-3.7,5.9-8.6,5.1-14.2
		c-0.2-1.3-0.2-1.4,1.3-1.6c7.5-1.2,13.2-8.3,12.7-15.9c-0.1-1.8-0.4-3.5-1.2-5.1c-0.3-0.7-0.1-1,0.6-1.2c2.6-0.7,5-2,6.9-3.9
		c0.4-0.4,0.7-0.4,1.2-0.1c3.9,2.4,8.2,3.2,12.7,2.6C373.6,418.1,376.2,417.2,378.7,415.5z"/>
	<path class="st14" d="M412.8,382.2c-1.6,1.6-3.3,3.2-4.9,4.8c-1.1,1.1-1.1,1.1-2.1,0c-3.2-3.2-6.4-6.3-9.5-9.5
		c-6.2-6.2-15.1-6.6-21.9-1.1c-0.6,0.5-1,0.4-1.5-0.1c-1.3-1.3-2.6-2.7-3.9-3.9c-0.7-0.7-0.7-1.1,0-1.8c5-4.9,9.9-9.9,14.9-14.8
		c2.8-2.7,3.9-6,3.8-9.9c-0.3-12.1,4.4-22,14-29.4c6.3-4.9,13.5-7.1,21.5-7.1c1.8,0,3.6,0.1,5.4,0.5c0.3,0.1,0.7,0,0.8,0.4
		c0.1,0.4-0.3,0.5-0.5,0.7c-6.4,6.4-12.7,12.8-19.1,19.1c-1.5,1.4-2,3-1.7,5c0.9,5.7,1.6,11.5,2.5,17.2c0.5,3.2,1.5,4.2,4.7,4.6
		c5.6,0.8,11.3,1.6,16.9,2.4c2.1,0.3,3.8-0.1,5.3-1.7c6.3-6.4,12.7-12.7,19-19.1c0.2-0.2,0.4-0.6,0.7-0.5c0.4,0.1,0.3,0.5,0.4,0.9
		c0.6,3.5,0.6,7.1,0.1,10.6c-1.3,8.8-5.4,16.2-12.3,22c-1.3,1.1-2.7,2.1-4.2,3c-3.3,1.9-6.7,3.5-10.4,4.3c-3.1,0.6-6.3,1.1-9.5,0.8
		C418.1,379.4,415.2,380.2,412.8,382.2z"/>
	<path class="st12" d="M296.2,413.4c2.2-0.1,4.1,0.8,5.6,2.3c8.2,8.2,16.5,16.5,24.7,24.7c2.8,2.8,3.2,6.9,0.9,10.1
		c-2.1,3-6.2,4.1-9.7,2.5c-1.1-0.5-2-1.3-2.8-2.1c-7.9-7.9-15.8-15.8-23.7-23.7c-3-3-3.7-6.2-2.1-9.4
		C290.6,415,293,413.5,296.2,413.4z"/>
	<path class="st12" d="M310.3,394.4c2.1,0,4,0.7,5.5,2.2c8,8,16.1,16,24.1,24c1.5,1.5,2.5,3.2,2.7,5.3c0.4,3.4-1.9,7.1-5.2,8.1
		c-3.3,1-6.1,0.2-8.5-2.2c-8.1-8-16.1-16.1-24.2-24.2c-4.2-4.2-2.5-11.2,3.2-13C308.8,394.4,309.6,394.4,310.3,394.4z"/>
	<path class="st12" d="M321.1,372c2.4,0,4.3,1,6,2.6c8.1,8,16.1,16.1,24.2,24.1c0.6,0.6,0.7,1.1,0.4,1.9c-1,2.6-1,5.3,0,7.9
		c0.3,0.8,0.1,1.3-0.5,1.9c-3,2.6-7.8,2.4-10.6-0.4c-8.2-7.9-16.2-16.1-24.3-24.1c-3-3-3.7-6.3-2.1-9.5
		C315.3,373.8,318.1,372,321.1,372z"/>
	<path class="st10" d="M279,270.1c4.7,3.7,6.4,9.3,9.2,14.2c0.4,0.7,0.7,1.4,1,2c0.3,0.5,0.1,0.6-0.4,0.6c-2.1,0-4.2,0-6.3,0
		c-0.7,0-0.8-0.5-1-0.9c-2.2-3.9-4.4-7.8-6.5-11.7c-1.4-2.5-3.4-3.6-6.2-3.5c-0.8,0-1.1,0.2-1.1,1.1c0,4.6,0,9.3,0,13.9
		c0,0.9-0.3,1.2-1.1,1.1c-1.2-0.1-2.5,0-3.7,0c-1.7,0-1.5,0.3-1.5-1.5c0-10.3,0-20.6,0-30.9c0-1.7,0-3.3,0-5c0-0.8,0.2-1,1-1
		c4.9,0,9.8,0,14.7,0.1c2.6,0.1,5.2,0.4,7.1,2.6c1.1,1.2,1.9,2.6,2.3,4.1c0.7,2.6,0.7,5.1,0.1,7.7c-0.9,3.5-3.1,5.7-6.6,6.7
		C279.7,269.8,279.4,269.8,279,270.1z"/>
	<path class="st10" d="M403.2,270.1c4.5,3.4,6.2,8.5,8.7,13.1c0.6,1.1,1.2,2.3,1.9,3.7c-2.5,0-4.9,0-7.2,0c-0.6,0-0.6-0.5-0.8-0.8
		c-2.2-3.9-4.4-7.8-6.5-11.7c-1.4-2.6-3.4-3.6-6.3-3.5c-0.9,0-1,0.3-1,1.1c0,4.6,0,9.2,0,13.8c0,1-0.3,1.2-1.2,1.2
		c-1.2-0.1-2.5-0.1-3.7,0c-1.1,0.1-1.4-0.2-1.4-1.4c0.1-9.6,0-19.2,0-28.8c0-2.4,0-4.8,0-7.1c0-0.8,0.2-1,1-1c4.9,0,9.7,0,14.6,0.1
		c1,0,2,0.2,2.9,0.3c3.6,0.6,5.6,3,6.6,6.3c0.8,2.6,0.8,5.3,0.1,7.9c-0.9,3.4-3.2,5.6-6.5,6.6c-0.3,0.1-0.5,0.1-0.8,0.2
		C403.4,270,403.3,270,403.2,270.1z"/>
	<path class="st10" d="M350.1,268c0.1-4.2,0.5-8.3,2.4-12.1c2.9-5.7,7.5-8.3,13.9-7.9c5.8,0.4,9.9,3.4,12.1,8.6
		c3.1,7.4,3.1,15.1-0.2,22.5c-3.9,9-15.5,11.3-22.6,4.8c-3.1-2.8-4.5-6.6-5.2-10.6C350.3,271.6,350.2,269.8,350.1,268z"/>
	<path class="st12" d="M332.6,365.6c0.2-2.9,1.5-5.4,4.5-6.6c3-1.3,6-0.9,8.6,1.2c0.1,0.1,0.3,0.3,0.4,0.4
		c7,6.9,13.9,13.8,20.9,20.7c1.2,1.2,1.2,1.3,0,2.4c-3.1,3.1-6.1,6.1-9.2,9.2c-0.5,0.5-0.9,0.5-1.4,0c-7.2-7.3-14.5-14.5-21.7-21.8
		C333.2,369.7,332.7,367.9,332.6,365.6z"/>
	<path class="st10" d="M293,267.7c0-6,0-12,0-18c0-0.9,0.2-1.2,1.1-1.2c7,0,14.1,0,21.2,0c0.8,0,1.1,0.2,1.1,1.1
		c-0.1,1.5-0.1,2.9,0,4.4c0,0.9-0.3,1.1-1.1,1.1c-4.9,0-9.7,0-14.6,0c-1,0-1.4,0.3-1.3,1.3c0.1,2.1,0.1,4.1,0,6.2c0,0.8,0.3,1,1,1
		c4.5,0,9,0,13.6,0c0.9,0,1.2,0.2,1.1,1.1c-0.1,1.4-0.1,2.9,0,4.3c0.1,0.9-0.3,1-1.1,1c-4.4,0-8.9,0-13.3,0c-1.1,0-1.3,0.3-1.3,1.3
		c0.1,2.7,0.1,5.4,0,8c0,0.8,0.2,1.1,1.1,1.1c5.1,0,10.3,0,15.4,0c0.9,0,1.1,0.3,1.1,1.1c-0.1,1.5,0,3.1,0,4.6
		c0,0.6-0.2,0.8-0.8,0.8c-7.4,0-14.8,0-22.2,0c-0.8,0-0.9-0.4-0.9-1C293,279.9,293,273.8,293,267.7z"/>
	<path class="st10" d="M322.2,267.7c0-5.8,0-11.7,0-17.5c0-1.8-0.2-1.6,1.5-1.6c3.8,0,7.6,0,11.4,0.1c7,0.1,10.3,3,11,10
		c0.3,3.2,0,6.3-1.7,9.2c-1.6,2.8-4.1,4.1-7.3,4.5c-2.5,0.3-5,0.2-7.6,0.2c-0.8,0-1.1,0.2-1.1,1.1c0,4.1,0,8.3,0,12.4
		c0,0.8-0.2,1.1-1,1c-1.5-0.1-2.9-0.1-4.4,0c-0.8,0-1-0.3-1-1C322.2,279.9,322.2,273.8,322.2,267.7z"/>
	<path class="st10" d="M424.2,271c0-4.9,0-9.8,0-14.7c0-1-0.3-1.2-1.2-1.2c-2.4,0.1-4.8,0-7.1,0c-0.7,0-1-0.2-1-1c0-1.5,0-3.1,0-4.6
		c0-0.7,0.2-0.9,0.9-0.9c7.7,0,15.5,0,23.2,0c0.7,0,0.9,0.3,0.9,0.9c0,1.5,0,3.1,0,4.6c0,0.8-0.3,0.9-1,0.9c-2.4,0-4.8,0-7.1,0
		c-1,0-1.2,0.3-1.2,1.2c0,9.8,0,19.5,0,29.3c0,1.1-0.2,1.5-1.3,1.4c-1.3-0.1-2.6-0.1-3.8,0c-1.1,0.1-1.2-0.3-1.2-1.3
		C424.3,280.8,424.2,275.9,424.2,271z"/>
	<path class="st15" d="M453.3,478.7c-0.5-0.2-0.8-0.6-1.1-0.9c-3.8-3.8-7.5-7.5-11.3-11.3c-0.7-0.7-1.2-0.7-1.9,0
		c-19.4,19.4-38.8,38.9-58.2,58.3c-1.7,1.7-1.8,1.2,0.1,3c1.2,1.1,2.3,2.2,2.4,4c-0.1,0-0.2-0.1-0.2-0.1c-0.4-2.1-2-3.3-3.4-4.6
		c-0.8-0.7-0.3-1.2,0.2-1.8c14.8-14.8,29.6-29.6,44.5-44.4c4.9-4.9,9.9-9.9,14.8-14.8c0.6-0.6,1-0.9,1.7-0.1
		c4,4.1,8.1,8.1,12.1,12.2C453,478.2,453.1,478.4,453.3,478.7z"/>
	<path class="st16" d="M412.8,382.2c1.2-1.4,2.8-1.9,4.5-2.4c1.1-0.3,2.2-0.4,3.4-0.3c7,0.3,13.5-1.1,19.6-4.6
		c0.3-0.1,0.5-0.3,0.8-0.3c-2.2,1.6-4.7,2.6-7.3,3.5c-4.3,1.4-8.7,2-13.2,1.8c-2.6-0.1-5,0.5-7.1,2.1
		C413.3,382,413,382.1,412.8,382.2z"/>
	<path class="st14" d="M583.6,587c-0.1,2.1-0.2,4.2-1.9,6c-1.4,1.4-4,1.4-5.7,0c-1.4-1.2-1.9-2.8-2.1-4.5c-0.2-1.9-0.2-3.8,0.5-5.6
		c0.8-2.2,2.9-3.2,4.6-3.1c1.8,0.1,3.4,1.4,4.1,3.5C583.6,584.4,583.7,585.7,583.6,587z"/>
	<path class="st14" d="M518.3,586c-0.1,2.9-0.4,5-2,6.7c-2.5,2.5-5.9,1.1-6.8-1.7c-1-3-1-6,0.3-8.9c0.8-1.8,2.4-2.5,4.3-2.4
		c1.8,0.1,2.9,1.3,3.6,2.9C518.1,583.9,518.3,585.3,518.3,586z"/>
	<path class="st11" d="M279.8,518.7c-1.8-0.2-3.4-0.8-5.2-1.2c-4.7-1.2-9.3-2.5-14-3.7c-1.2-0.3-2.3-0.6-3.5-1
		c-1.5-0.4-2.4-1.3-2.8-2.8c-1.8-6.7-3.6-13.3-5.4-20c-0.1-0.4-0.2-0.7-0.3-1.1c-0.5-1.8-0.2-3.3,1.1-4.7
		c5.1-5.1,10.2-10.2,15.4-15.3c1.3-1.3,2.7-1.7,4.5-1.2c6.9,1.9,13.9,3.7,20.8,5.6c1.7,0.5,2.8,1.5,3.3,3.2
		c1.9,7.1,3.8,14.3,5.7,21.4c0.5,1.7-0.2,3-1.4,4.2c-2.9,2.9-5.9,5.9-8.8,8.8c-2.1,2.1-4.3,4.3-6.4,6.4
		C282.1,518.1,281.2,518.7,279.8,518.7z"/>
	<path class="st11" d="M267.7,259.9c0-1.3,0-2.6,0-3.8c0-0.7,0.1-1,0.9-0.9c2.7,0.1,5.5-0.1,8.2,0.2c1.7,0.2,2.9,1,3.4,2.7
		c0.4,1.4,0.4,2.8-0.1,4.2c-0.5,1.4-1.5,2.2-3,2.4c-2.9,0.4-5.9,0.1-8.8,0.2c-0.6,0-0.6-0.3-0.6-0.7
		C267.7,262.7,267.7,261.3,267.7,259.9z"/>
	<path class="st11" d="M396.6,264.8c-1.5,0-2.7,0-3.9,0c-0.5,0-0.8-0.1-0.8-0.7c0-2.7,0-5.4,0-8.1c0-0.6,0.2-0.8,0.8-0.8
		c2.9,0.1,5.7-0.1,8.6,0.2c0.4,0,0.7,0.1,1.1,0.3c1.8,0.8,2.6,2.9,2.3,5.5c-0.3,2-1.5,3.2-3.4,3.5
		C399.6,264.8,398,264.7,396.6,264.8z"/>
	<path class="st11" d="M374.1,267.7c-0.1,2.8-0.3,5.5-1.4,8.1c-1.8,4.1-5.8,6.1-9.6,4.8c-2.5-0.9-4.1-2.7-5.1-5
		c-1.4-3.3-1.5-6.7-1.2-10.2c0.1-1.7,0.4-3.3,1-4.9c1.4-3.8,4.2-5.9,7.8-5.9c3.5,0.1,6.4,2.4,7.6,6.2c0.3,0.9,0.5,1.8,0.6,2.7
		C374,264.9,374.1,266.3,374.1,267.7z"/>
	<path class="st11" d="M328.6,260.5c0-1.5,0-3,0-4.5c0-0.6,0.2-0.9,0.8-0.8c1.8,0.1,3.5,0.1,5.3,0.1c4.3,0.1,5.4,3.7,4.9,6.5
		c-0.4,2.4-1.9,3.9-4.4,4.1c-2,0.2-4,0.1-6,0.2c-0.6,0-0.7-0.3-0.7-0.8C328.6,263.6,328.6,262,328.6,260.5z"/>
	<path class="st14" d="M291.3,498.1c-3.9,3.9-7.8,7.8-11.7,11.7c-0.5,0.5-0.9,0.8-1.7,0.6c-5.2-1.4-10.5-2.8-15.7-4.2
		c-0.7-0.2-1-0.5-1.2-1.2c-1.4-5.2-2.8-10.4-4.2-15.6c-0.2-0.9,0.1-1.3,0.7-1.9c3.9-3.9,7.7-7.7,11.6-11.6c0.8-0.6,1.6,0,2.3,0.2
		c4.8,1.4,9.7,2.5,14.6,3.9c0.7,0.2,1.1,0.5,1.2,1.2c0.7,2.5,1.3,5.1,2,7.6c0.7,2.7,1.5,5.3,2.2,8
		C291.4,497.3,291.6,497.7,291.3,498.1z"/>
	<path class="st17" d="M291.3,498.1c-0.1-2.1-0.9-4.1-1.4-6.1c-0.9-3.5-1.8-6.9-2.7-10.4c-0.2-0.8-0.6-1.2-1.4-1.4
		c-5.1-1.3-10.3-2.7-15.4-4.1c-0.4-0.1-0.8-0.2-1.2-0.1c0.2-0.5,0.6-0.4,1.1-0.3c5.3,1.4,10.7,2.9,16,4.3c0.7,0.2,1,0.6,1.2,1.2
		c1.4,5.3,2.8,10.5,4.3,15.8C291.7,497.3,291.9,497.8,291.3,498.1z"/>
</g>
</svg>
