<?xml version="1.0" encoding="utf-8"?>
<!-- Generator: Adobe Illustrator 24.1.2, SVG Export Plug-In . SVG Version: 6.00 Build 0)  -->
<svg version="1.1" id="Layer_1" xmlns="http://www.w3.org/2000/svg" xmlns:xlink="http://www.w3.org/1999/xlink" x="0px" y="0px"
	 viewBox="0 0 492 492" style="enable-background:new 0 0 492 492;" xml:space="preserve">
<style type="text/css">
	.st0{fill:#E53535;}
	.st1{fill:#E0E0E0;}
	.st2{fill:#707273;}
</style>
<g id="Layer_1_1_">
	<g>
		<path class="st0" d="M42.8,245.9c0-64,0-128.1,0-192c0-31.4,22-53.4,53.6-53.5c99.7,0,199.5,0,299.2,0c31.5,0,53.5,22.1,53.5,53.6
			c0,97.2,0,194.6,0.1,291.9c0,3.9-1.1,6.6-3.8,9.4C401.2,399.4,357,443.7,312.9,488c-2.7,2.7-5.2,3.7-8.9,3.7
			c-69.1-0.1-138.1-0.1-207.2-0.1c-32.1,0-53.9-22-53.9-54.3C42.8,373.5,42.8,309.8,42.8,245.9z M286.3,460c0-2.3,0-4.1,0-6
			c0-24,0-48,0-72c0.1-31.6,22-53.4,53.6-53.5c24,0,48,0,72,0c1.8,0,3.8,0,5.9,0c0-2.4,0-3.9,0-5.5c0-89.5,0-178.9,0-268.4
			c0-15-7.9-22.8-23-22.8c-99,0-197.9,0-296.9,0c-16.6,0-24,7.4-24,23.9c0,127.5,0,255,0,382.5c0,14.2,8,22.2,22.1,22.2
			c61.5,0,123.1,0,184.7,0C282.4,460.2,284,460.1,286.3,460z M318.2,436c25.7-25.7,51.2-51.2,76.2-76.2c-18.1,0-37.4-0.2-56.5,0.1
			c-9.7,0.2-18.2,7.3-18.5,16.3c-0.6,20.1-0.2,40-0.2,60.2C318.9,436.6,319.1,436.6,318.2,436z"/>
		<path class="st1" d="M286.3,460c-2.3,0.1-3.8,0.2-5.4,0.2c-61.5,0-123.1,0-184.7,0c-14.1,0-22-8-22.1-22.2c0-127.5,0-255,0-382.5
			c0-16.5,7.4-23.9,24-23.9c99,0,197.9,0,296.9,0c15.1,0,23,7.8,23,22.8c0,89.5,0,178.9,0,268.4c0,1.5,0,3.3,0,5.5
			c-2.3,0-4.1,0-5.9,0c-24,0-48,0-72,0c-31.6,0-53.5,21.9-53.6,53.5c0,24,0,48,0,72C286.3,455.9,286.3,457.8,286.3,460z
			 M131.9,209.1c76.4,0,152.2,0,228.2,0c0-10.3,0-20.5,0-30.6c-76.2,0-152.2,0-228.2,0C131.9,189,131.9,198.9,131.9,209.1z
			 M131.9,280.1c76.4,0,152.2,0,228,0c0-10.4,0-20.6,0-30.7c-76.2,0-152,0-228,0C131.9,259.7,131.9,269.9,131.9,280.1z M131.9,321.5
			c0,10.5,0,20.6,0,30.8c32.7,0,65,0,97.6,0c0-10.4,0-20.6,0-30.8C196.8,321.5,164.6,321.5,131.9,321.5z"/>
		<path class="st1" d="M318.2,436c1.1,0.6,0.8,0.5,0.8,0.5c0-20.1-0.4-40.1,0.2-60.2c0.3-9,8.8-16.2,18.5-16.3
			c19.2-0.3,38.5-0.1,56.5-0.1C369.2,384.8,343.8,410.3,318.2,436z"/>
		<path class="st2" d="M131.9,209.1c0-10.2,0-20.2,0-30.6c76,0,151.9,0,228.2,0c0,10.1,0,20.2,0,30.6
			C284.1,209.1,208.3,209.1,131.9,209.1z"/>
		<path class="st2" d="M131.9,280.1c0-10.2,0-20.4,0-30.7c76.1,0,151.7,0,228,0c0,10.1,0,20.3,0,30.7
			C284.1,280.1,208.3,280.1,131.9,280.1z"/>
		<path class="st2" d="M131.9,321.5c32.8,0,64.9,0,97.6,0c0,10.2,0,20.5,0,30.8c-32.6,0-64.8,0-97.6,0
			C131.9,342.1,131.9,332,131.9,321.5z"/>
	</g>
	<path class="st1" d="M175,121.6"/>
	<path class="st1" d="M253.3,104"/>
</g>
<g>
	<path class="st0" d="M134.9,107.7c2.3,0,4.2,0.2,5.9,0.6s3.1,1.1,4.5,2c2.1,1.4,3.7,3.2,4.8,5.4c1.1,2.2,1.7,4.6,1.7,7.3
		s-0.6,5.1-1.7,7.3c-1.1,2.2-2.7,4-4.8,5.4c-1.3,0.9-2.8,1.6-4.5,2s-3.6,0.6-5.9,0.6h-11.3v-30.7H134.9z M134.9,111.9H128v22.4h6.9
		c3.8,0,6.8-1,8.9-3s3.3-4.7,3.3-8.2c0-3.5-1.1-6.2-3.3-8.2C141.7,112.9,138.7,111.9,134.9,111.9z"/>
	<path class="st0" d="M157,138.4v-30.7h18.5v3.9h-14.1v9.3h13.7v4h-13.7v9.6h14.6v4H157z"/>
	<path class="st0" d="M181.5,138.4v-30.7H199v3.9h-13.1v9.1h12.7v4h-12.7v13.8H181.5z"/>
	<path class="st0" d="M204.2,138.4v-30.7h4.4v30.7H204.2z"/>
	<path class="st0" d="M241.5,131.1v5c-1.8,0.9-3.6,1.7-5.5,2.1c-1.9,0.5-3.7,0.7-5.5,0.7c-1.8,0-3.4-0.2-5-0.7
		c-1.6-0.5-3.1-1.1-4.5-2.1c-2.3-1.5-4.1-3.4-5.3-5.7s-1.9-4.8-1.9-7.6c0-2.1,0.4-4.1,1.3-6s2-3.6,3.6-5.1c1.6-1.6,3.5-2.7,5.5-3.5
		c2-0.8,4.3-1.2,6.8-1.2c1.7,0,3.4,0.2,5.1,0.6s3.5,1,5.3,1.9v4.8c-1.9-1.1-3.8-1.8-5.5-2.3c-1.7-0.5-3.4-0.8-5-0.8
		c-3.6,0-6.6,1.1-8.9,3.4s-3.5,5-3.5,8.4c0,3.3,1.2,6.1,3.5,8.3c2.3,2.2,5.2,3.4,8.7,3.4c1.8,0,3.6-0.3,5.4-0.9
		S239.6,132.3,241.5,131.1z"/>
	<path class="st0" d="M246.7,138.4v-30.7h4.4v30.7H246.7z"/>
	<path class="st0" d="M257.8,138.4v-30.7h18.5v3.9h-14.1v9.3h13.7v4h-13.7v9.6h14.6v4H257.8z"/>
	<path class="st0" d="M282.3,138.4v-30.7h3.8l20.2,23.9v-23.9h4.4v30.7h-3.9l-20.2-23.9v23.9H282.3z"/>
	<path class="st0" d="M343.5,131.1v5c-1.8,0.9-3.6,1.7-5.5,2.1c-1.9,0.5-3.7,0.7-5.5,0.7c-1.8,0-3.4-0.2-5-0.7
		c-1.6-0.5-3.1-1.1-4.5-2.1c-2.3-1.5-4.1-3.4-5.3-5.7c-1.3-2.3-1.9-4.8-1.9-7.6c0-2.1,0.4-4.1,1.3-6c0.8-1.9,2-3.6,3.6-5.1
		c1.6-1.6,3.5-2.7,5.5-3.5c2-0.8,4.3-1.2,6.8-1.2c1.7,0,3.4,0.2,5.1,0.6s3.5,1,5.3,1.9v4.8c-1.9-1.1-3.8-1.8-5.5-2.3
		c-1.7-0.5-3.4-0.8-5-0.8c-3.6,0-6.6,1.1-8.9,3.4c-2.3,2.2-3.5,5-3.5,8.4c0,3.3,1.2,6.1,3.5,8.3c2.3,2.2,5.2,3.4,8.7,3.4
		c1.8,0,3.6-0.3,5.4-0.9C339.7,133.3,341.6,132.3,343.5,131.1z"/>
	<path class="st0" d="M355.9,138.4V123L344,107.7h5.2l9,11.7l9.2-11.7h5.3l-12.3,15.6v15.2H355.9z"/>
</g>
</svg>
