<?xml version="1.0" encoding="utf-8"?>
<!-- Generator: Adobe Illustrator 23.0.0, SVG Export Plug-In . SVG Version: 6.00 Build 0)  -->
<svg version="1.1" id="Layer_1" xmlns="http://www.w3.org/2000/svg" xmlns:xlink="http://www.w3.org/1999/xlink" x="0px" y="0px"
	 viewBox="0 0 800 800" style="enable-background:new 0 0 800 800;" xml:space="preserve">
<style type="text/css">
	.st0{fill:#333333;}
	.st1{opacity:0.4;clip-path:url(#SVGID_2_);enable-background:new    ;}
	.st2{fill:#E0E0E0;}
	.st3{fill:#4C73B2;}
	.st4{fill:#FFFEF4;}
	.st5{fill:#707273;}
	.st6{fill:#F1D59D;}
	.st7{fill:#CDD0D3;}
	.st8{fill:#EFEFEF;}
	.st9{fill:none;stroke:#4C73B2;stroke-width:4.9988;stroke-miterlimit:10;}
	.st10{fill:#D7D7D7;}
	.st11{fill:none;stroke:#4C73B2;stroke-width:4;stroke-miterlimit:10;}
	.st12{fill:none;stroke:#4C73B2;stroke-width:8;stroke-miterlimit:10;}
</style>
<g>
	<circle class="st0" cx="400" cy="400" r="400"/>
</g>
<g>
	<g>
		<defs>
			<circle id="SVGID_1_" cx="400" cy="400" r="400"/>
		</defs>
		<clipPath id="SVGID_2_">
			<use xlink:href="#SVGID_1_"  style="overflow:visible;"/>
		</clipPath>
		<path class="st1" d="M889.2,722.8l-7-7.3l-0.1-0.1l-0.9-0.9l-0.1-0.1l-0.9-0.9l-0.1-0.1l-0.9-0.9l-0.1-0.1l-0.9-0.9l-0.1-0.1
			l-0.9-0.9l-0.1-0.1l-0.9-0.9l-0.1-0.1l-0.9-0.9l-0.1-0.1l-0.9-0.9l-0.1-0.1l-0.9-0.9l-0.1-0.1l-0.9-0.9l-0.1-0.1l-0.9-0.9
			l-0.1-0.1l-0.9-0.9l-0.1-0.1l-0.9-0.9l-0.1-0.1l-0.9-0.9l-0.1-0.1l-0.9-0.9l-0.1-0.1l-0.9-0.9l-0.1-0.1l-0.9-0.9l-0.1-0.1
			l-0.9-0.9l-0.1-0.1l-0.9-0.9l-0.1-0.1l-0.5-0.6c0.1-9.5,0.3-18.9,0.4-28.4c0,0,0,0,0.1-0.1c-0.4,0-0.7,0-1.1-0.1
			c0-0.3,0-0.6,0-0.9c0,0,0,0,0.1-0.1c-0.4,0-0.7,0-1.1-0.1c0-0.3,0-0.6,0-0.9c0,0,0,0,0.1-0.1c-0.4,0-0.7,0-1.1-0.1
			c0-0.3,0-0.6,0-0.9c0,0,0,0,0.1-0.1c-0.4,0-0.7,0-1.1-0.1c0-0.3,0-0.6,0-0.9c0,0,0,0,0.1-0.1c-0.4,0-0.7,0-1.1-0.1
			c0-0.3,0-0.6,0-0.9c0,0,0,0,0.1-0.1c-0.4,0-0.7,0-1.1-0.1c0-0.3,0-0.6,0-0.9c0,0,0,0,0.1-0.1c-0.4,0-0.7,0-1.1-0.1
			c0-0.3,0-0.6,0-0.9c0,0,0,0,0.1-0.1c-0.4,0-0.7,0-1.1-0.1c0-0.3,0-0.6,0-0.9c0,0,0,0,0.1-0.1c-0.4,0-0.7,0-1.1-0.1
			c0-0.3,0-0.6,0-0.9c0,0,0,0,0.1-0.1c-0.4,0-0.7,0-1.1-0.1c0-0.3,0-0.6,0-0.9c0,0,0,0,0.1-0.1c-0.4,0-0.7,0-1.1-0.1
			c0-0.3,0-0.6,0-0.9c0,0,0,0,0.1-0.1c-0.4,0-0.7,0-1.1-0.1c0-0.3,0-0.6,0-0.9c0,0,0,0,0.1-0.1c-0.4,0-0.7,0-1.1-0.1
			c0-0.3,0-0.6,0-0.9c0,0,0,0,0.1-0.1c-0.4,0-0.7,0-1.1-0.1c0-0.3,0-0.6,0-0.9c0,0,0,0,0.1-0.1c-0.4,0-0.7,0-1.1-0.1
			c0-0.3,0-0.6,0-0.9c0,0,0,0,0.1-0.1c-0.4,0-0.7,0-1.1-0.1c0-0.3,0-0.6,0-0.9c0,0,0,0,0.1-0.1c-0.4,0-0.7,0-1.1-0.1
			c0-0.3,0-0.6,0-0.9c0,0,0,0,0.1-0.1c-0.4,0-0.7,0-1.1-0.1c0-0.3,0-0.6,0-0.9c0,0,0,0,0.1-0.1c-0.4,0-0.7,0-1.1-0.1
			c0-0.3,0-0.6,0-0.9c0,0,0,0,0.1-0.1c-0.4,0-0.7,0-1.1-0.1c0-0.3,0-0.6,0-0.9c0,0,0,0,0.1-0.1c-0.4,0-0.7,0-1.1-0.1
			c0-0.3,0-0.6,0-0.9c0,0,0,0,0.1-0.1c-0.4,0-0.7,0-1.1-0.1c0-0.3,0-0.6,0-0.9c0,0,0,0,0.1-0.1c-0.4,0-0.7,0-1.1-0.1
			c0-0.3,0-0.6,0-0.9c0,0,0,0,0.1-0.1c-0.4,0-0.7,0-1.1-0.1c0-0.3,0-0.6,0-0.9c0,0,0,0,0.1-0.1c-0.4,0-0.7,0-1.1-0.1
			c0-0.3,0-0.6,0-0.9c0,0,0,0,0.1-0.1c-0.4,0-0.7,0-1.1-0.1c0-0.3,0-0.6,0-0.9c0,0,0,0,0.1-0.1c-0.4,0-0.7,0-1.1-0.1
			c0-0.3,0-0.6,0-0.9c0,0,0,0,0.1-0.1c-0.4,0-0.7,0-1.1-0.1c0-0.3,0-0.6,0-0.9c0,0,0,0,0.1-0.1c-0.4,0-0.7,0-1.1-0.1
			c0-0.3,0-0.6,0-0.9c0,0,0,0,0.1-0.1c-0.4,0-0.7,0-1.1-0.1c0-0.3,0-0.6,0-0.9c0,0,0,0,0.1-0.1c-0.4,0-0.7,0-1.1-0.1
			c0-0.3,0-0.6,0-0.9c0,0,0,0,0.1-0.1c-0.4,0-0.7,0-1.1-0.1c0-0.3,0-0.6,0-0.9c0,0,0,0,0.1-0.1c-0.4,0-0.7,0-1.1-0.1
			c0-0.3,0-0.6,0-0.9c0,0,0,0,0.1-0.1c-0.4,0-0.7,0-1.1-0.1c0-0.3,0-0.6,0-0.9c0,0,0,0,0.1-0.1c-0.4,0-0.7,0-1.1-0.1
			c0-0.3,0-0.6,0-0.9c0,0,0,0,0.1-0.1c-0.4,0-0.7,0-1.1-0.1c0-0.3,0-0.6,0-0.9c0,0,0,0,0.1-0.1c-0.4,0-0.7,0-1.1-0.1
			c0-0.3,0-0.6,0-0.9c0,0,0,0,0.1-0.1c-0.4,0-0.7,0-1.1-0.1c0-0.3,0-0.6,0-0.9c0,0,0,0,0.1-0.1c-0.4,0-0.7,0-1.1-0.1
			c0-0.3,0-0.6,0-0.9c0,0,0,0,0.1-0.1c-0.4,0-0.7,0-1.1-0.1c0-0.3,0-0.6,0-0.9c0,0,0,0,0.1-0.1c-0.4,0-0.7,0-1.1-0.1
			c0-0.3,0-0.6,0-0.9c0,0,0,0,0.1-0.1c-0.4,0-0.7,0-1.1-0.1c0-0.3,0-0.6,0-0.9c0,0,0,0,0.1-0.1c-0.4,0-0.7,0-1.1-0.1
			c0-0.3,0-0.6,0-0.9c0,0,0,0,0.1-0.1c-0.4,0-0.7,0-1.1-0.1c0-0.3,0-0.6,0-0.9c0,0,0,0,0.1-0.1c-0.4,0-0.7,0-1.1-0.1
			c0-0.3,0-0.6,0-0.9c0,0,0,0,0.1-0.1c-0.4,0-0.7,0-1.1-0.1c0-0.3,0-0.6,0-0.9c0,0,0,0,0.1-0.1c-0.4,0-0.7,0-1.1-0.1
			c0-0.3,0-0.6,0-0.9c0,0,0,0,0.1-0.1c-0.4,0-0.7,0-1.1-0.1c0-0.3,0-0.6,0-0.9c0,0,0,0,0.1-0.1c-0.4,0-0.7,0-1.1-0.1
			c0-0.3,0-0.6,0-0.9c0,0,0,0,0.1-0.1c-0.4,0-0.7,0-1.1-0.1c0-0.3,0-0.6,0-0.9c0,0,0,0,0.1-0.1c-0.4,0-0.7,0-1.1-0.1
			c0-0.3,0-0.6,0-0.9c0,0,0,0,0.1-0.1c-0.4,0-0.7,0-1.1-0.1c0-0.3,0-0.6,0-0.9c0,0,0,0,0.1-0.1c-0.4,0-0.7,0-1.1-0.1
			c0-0.3,0-0.6,0-0.9c0,0,0,0,0.1-0.1c-0.4,0-0.7,0-1.1-0.1c0-0.3,0-0.6,0-0.9c0,0,0,0,0.1-0.1c-0.4,0-0.7,0-1.1-0.1
			c0-0.3,0-0.6,0-0.9c0,0,0,0,0.1-0.1c-0.4,0-0.7,0-1.1-0.1c0-0.3,0-0.6,0-0.9c0,0,0,0,0.1-0.1c-0.4,0-0.7,0-1.1-0.1
			c0-0.3,0-0.6,0-0.9c0,0,0,0,0.1-0.1c-0.4,0-0.7,0-1.1-0.1c0-0.3,0-0.6,0-0.9c0,0,0,0,0.1-0.1c-0.4,0-0.7,0-1.1-0.1
			c0-0.3,0-0.6,0-0.9c0,0,0,0,0.1-0.1c-0.4,0-0.7,0-1.1-0.1c0-0.3,0-0.6,0-0.9c0,0,0,0,0.1-0.1c-0.4,0-0.7,0-1.1-0.1
			c0-0.3,0-0.6,0-0.9c0,0,0,0,0.1-0.1c-0.4,0-0.7,0-1.1-0.1c0-0.3,0-0.6,0-0.9c0,0,0,0,0.1-0.1c-0.4,0-0.7,0-1.1-0.1
			c0-0.3,0-0.6,0-0.9c0,0,0,0,0.1-0.1c-0.4,0-0.7,0-1.1-0.1c0-0.3,0-0.6,0-0.9c0,0,0,0,0.1-0.1c-0.4,0-0.7,0-1.1-0.1
			c0-0.3,0-0.6,0-0.9c0,0,0,0,0.1-0.1c-0.4,0-0.7,0-1.1-0.1l0,0c20.4,0,40.8,0,61.2,0c2.9,0,3.5-0.5,3.5-3.1c0-15,0-30,0-44.9
			c0-1.8-0.2-2.6-1.2-2.9c-0.2-0.5-0.5-0.8-1-1c-0.2-0.5-0.5-0.8-1-1c-0.2-0.5-0.5-0.8-1-1c-0.2-0.5-0.5-0.8-1-1
			c-0.2-0.5-0.5-0.8-1-1c-0.2-0.5-0.5-0.8-1-1c-0.2-0.5-0.5-0.8-1-1c-0.2-0.5-0.5-0.8-1-1c-0.2-0.5-0.5-0.8-1-1
			c-0.2-0.5-0.5-0.8-1-1c-0.2-0.5-0.5-0.8-1-1c-0.2-0.5-0.5-0.8-1-1c-0.2-0.5-0.5-0.8-1-1c-0.2-0.5-0.5-0.8-1-1
			c-0.2-0.5-0.5-0.8-1-1c-0.2-0.5-0.5-0.8-1-1c-0.2-0.5-0.5-0.8-1-1c-0.2-0.5-0.5-0.8-1-1c-0.2-0.5-0.5-0.8-1-1
			c-0.2-0.5-0.5-0.8-1-1c-0.2-0.5-0.5-0.8-1-1c-0.2-0.5-0.5-0.8-1-1c-0.1-0.4-0.3-0.6-0.6-0.8c0-10.9,0-21.9-0.1-32.8
			c0-1.9,0.7-2.6,2.5-2.9c9.4-1.8,17.8-5.5,25.2-11.1c24.4-18.3,30.2-51.3,13.4-75.9c-2.2-3.3-4.7-6.2-7.5-8.9c-0.3-0.3-0.7-0.7-1-1
			s-0.7-0.7-1-1s-0.7-0.7-1-1s-0.7-0.7-1-1s-0.7-0.7-1-1s-0.7-0.7-1-1s-0.7-0.7-1-1s-0.7-0.7-1-1s-0.7-0.7-1-1s-0.7-0.7-1-1
			s-0.7-0.7-1-1s-0.7-0.7-1-1s-0.7-0.7-1-1s-0.7-0.7-1-1s-0.7-0.7-1-1s-0.7-0.7-1-1s-0.7-0.7-1-1s-0.7-0.7-1-1s-0.7-0.7-1-1
			s-0.7-0.7-1-1s-0.7-0.7-1-1s-0.7-0.7-1-1s-0.7-0.7-1-1s-0.7-0.7-1-1s-0.7-0.7-1-1s-0.7-0.7-1-1s-0.7-0.7-1-1s-0.7-0.7-1-1
			s-0.7-0.7-1-1s-0.7-0.7-1-1s-0.7-0.7-1-1s-0.7-0.7-1-1s-0.7-0.7-1-1s-0.7-0.7-1-1s-0.7-0.7-1-1s-0.7-0.7-1-1s-0.7-0.7-1-1
			s-0.7-0.7-1-1s-0.7-0.7-1-1s-0.7-0.7-1-1s-0.7-0.7-1-1s-0.7-0.7-1-1s-0.7-0.7-1-1s-0.7-0.7-1-1s-0.7-0.7-1-1s-0.7-0.7-1-1
			s-0.7-0.7-1-1s-0.7-0.7-1-1s-0.7-0.7-1-1s-0.7-0.7-1-1s-0.7-0.7-1-1s-0.7-0.7-1-1s-0.7-0.7-1-1s-0.7-0.7-1-1s-0.7-0.7-1-1
			s-0.7-0.7-1-1s-0.7-0.7-1-1s-0.7-0.7-1-1s-0.7-0.7-1-1s-0.7-0.7-1-1s-0.7-0.7-1-1s-0.7-0.7-1-1s-0.7-0.7-1-1s-0.7-0.7-1-1
			s-0.7-0.7-1-1s-0.7-0.7-1-1s-0.7-0.7-1-1s-0.7-0.7-1-1s-0.7-0.7-1-1s-0.7-0.7-1-1s-0.7-0.7-1-1s-0.7-0.7-1-1s-0.7-0.7-1-1
			s-0.7-0.7-1-1s-0.7-0.7-1-1s-0.7-0.7-1-1s-0.7-0.7-1-1s-0.7-0.7-1-1s-0.7-0.7-1-1s-0.7-0.7-1-1s-0.7-0.7-1-1s-0.7-0.7-1-1
			s-0.7-0.7-1-1s-0.7-0.7-1-1s-0.7-0.7-1-1s-0.7-0.7-1-1s-0.7-0.7-1-1s-0.7-0.7-1-1s-0.7-0.7-1-1s-0.7-0.7-1-1s-0.7-0.7-1-1
			s-0.7-0.7-1-1s-0.7-0.7-1-1s-0.7-0.7-1-1s-0.7-0.7-1-1s-0.7-0.7-1-1s-0.7-0.7-1-1s-0.7-0.7-1-1s-0.7-0.7-1-1s-0.7-0.7-1-1
			s-0.7-0.7-1-1s-0.7-0.7-1-1s-0.7-0.7-1-1s-0.7-0.7-1-1s-0.7-0.7-1-1s-0.7-0.7-1-1s-0.7-0.7-1-1s-0.7-0.7-1-1s-0.7-0.7-1-1
			s-0.7-0.7-1-1s-0.7-0.7-1-1s-0.7-0.7-1-1s-0.7-0.7-1-1s-0.7-0.7-1-1s-0.7-0.7-1-1s-0.7-0.7-1-1s-0.7-0.7-1-1s-0.7-0.7-1-1
			s-0.7-0.7-1-1s-0.7-0.7-1-1s-0.7-0.7-1-1s-0.7-0.7-1-1s-0.7-0.7-1-1s-0.7-0.7-1-1s-0.7-0.7-1-1s-0.7-0.7-1-1s-0.7-0.7-1-1
			s-0.7-0.7-1-1s-0.7-0.7-1-1c-0.3-0.3-0.7-0.7-1-1c-0.3-0.3-0.7-0.7-1-1c-0.3-0.3-0.7-0.7-1-1c-0.3-0.3-0.7-0.7-1-1
			c-0.3-0.3-0.7-0.7-1-1c-0.3-0.3-0.7-0.7-1-1s-0.7-0.7-1-1s-0.7-0.7-1-1s-0.7-0.7-1-1s-0.7-0.7-1-1s-0.7-0.7-1-1s-0.7-0.7-1-1
			s-0.7-0.7-1-1s-0.7-0.7-1-1s-0.7-0.7-1-1s-0.7-0.7-1-1s-0.7-0.7-1-1s-0.7-0.7-1-1s-0.7-0.7-1-1s-0.7-0.7-1-1s-0.7-0.7-1-1
			s-0.7-0.7-1-1s-0.7-0.7-1-1s-0.7-0.7-1-1s-0.7-0.7-1-1s-0.7-0.7-1-1s-0.7-0.7-1-1s-0.7-0.7-1-1s-0.7-0.7-1-1s-0.7-0.7-1-1
			s-0.7-0.7-1-1s-0.7-0.7-1-1s-0.7-0.7-1-1s-0.7-0.7-1-1s-0.7-0.7-1-1s-0.7-0.7-1-1s-0.7-0.7-1-1s-0.7-0.7-1-1s-0.7-0.7-1-1
			s-0.7-0.7-1-1s-0.7-0.7-1-1s-0.7-0.7-1-1s-0.7-0.7-1-1s-0.7-0.7-1-1s-0.7-0.7-1-1s-0.7-0.7-1-1s-0.7-0.7-1-1s-0.7-0.7-1-1
			s-0.7-0.7-1-1s-0.7-0.7-1-1s-0.7-0.7-1-1s-0.7-0.7-1-1s-0.7-0.7-1-1s-0.7-0.7-1-1s-0.7-0.7-1-1s-0.7-0.7-1-1s-0.7-0.7-1-1
			s-0.7-0.7-1-1s-0.7-0.7-1-1s-0.7-0.7-1-1s-0.7-0.7-1-1s-0.7-0.7-1-1s-0.7-0.7-1-1s-0.7-0.7-1-1s-0.7-0.7-1-1s-0.7-0.7-1-1
			s-0.7-0.7-1-1s-0.7-0.7-1-1s-0.7-0.7-1-1s-0.7-0.7-1-1s-0.7-0.7-1-1s-0.7-0.7-1-1s-0.7-0.7-1-1s-0.7-0.7-1-1s-0.7-0.7-1-1
			s-0.7-0.7-1-1s-0.7-0.7-1-1s-0.7-0.7-1-1s-0.7-0.7-1-1s-0.7-0.7-1-1s-0.7-0.7-1-1s-0.7-0.7-1-1s-0.7-0.7-1-1s-0.7-0.7-1-1
			s-0.7-0.7-1-1s-0.7-0.7-1-1s-0.7-0.7-1-1s-0.7-0.7-1-1s-0.7-0.7-1-1s-0.7-0.7-1-1s-0.7-0.7-1-1s-0.7-0.7-1-1s-0.7-0.7-1-1
			s-0.7-0.7-1-1s-0.7-0.7-1-1s-0.7-0.7-1-1s-0.7-0.7-1-1s-0.7-0.7-1-1s-0.7-0.7-1-1s-0.7-0.7-1-1c-13.9-14.2-34.3-20.8-54.9-17.2
			c-22.9,4-42.4,21.7-47.1,42.9c-0.6,2.3-1,4.7-1.4,7c-0.2-0.2-0.5-0.5-0.7-0.7c-0.3-0.4-0.6-0.7-1-1c-0.3-0.4-0.6-0.7-1-1
			c-0.3-0.4-0.6-0.7-1-1c-0.3-0.4-0.6-0.7-1-1c-0.3-0.4-0.6-0.7-1-1c-0.3-0.4-0.6-0.7-1-1c-0.3-0.4-0.6-0.7-1-1
			c-0.3-0.4-0.6-0.7-1-1c-0.3-0.4-0.6-0.7-1-1c-0.3-0.4-0.6-0.7-1-1c-0.3-0.4-0.6-0.7-1-1c-0.3-0.4-0.6-0.7-1-1
			c-0.3-0.4-0.6-0.7-1-1c-0.3-0.4-0.6-0.7-1-1c-0.3-0.4-0.6-0.7-1-1c-0.3-0.4-0.6-0.7-1-1c-0.3-0.4-0.6-0.7-1-1
			c-0.3-0.4-0.6-0.7-1-1c-0.3-0.4-0.6-0.7-1-1c-0.3-0.4-0.6-0.7-1-1c-0.3-0.4-0.6-0.7-1-1c-0.3-0.4-0.6-0.7-1-1
			c-0.3-0.4-0.6-0.7-1-1c-0.3-0.4-0.6-0.7-1-1c-0.3-0.4-0.6-0.7-1-1c-0.3-0.4-0.6-0.7-1-1c-0.3-0.4-0.6-0.7-1-1
			c-0.3-0.4-0.6-0.7-1-1c-0.3-0.4-0.6-0.7-1-1c-0.3-0.4-0.6-0.7-1-1c-0.3-0.4-0.6-0.7-1-1c-0.3-0.4-0.6-0.7-1-1
			c-0.3-0.4-0.6-0.7-1-1c-0.3-0.4-0.6-0.7-1-1c-0.3-0.4-0.6-0.7-1-1c-0.3-0.4-0.6-0.7-1-1c-0.3-0.4-0.6-0.7-1-1
			c-0.3-0.4-0.6-0.7-1-1c-0.3-0.4-0.6-0.7-1-1c-0.3-0.4-0.6-0.7-1-1c-0.3-0.4-0.6-0.7-1-1c-0.3-0.4-0.6-0.7-1-1
			c-0.3-0.4-0.6-0.7-1-1c-0.3-0.4-0.6-0.7-1-1c-0.3-0.4-0.6-0.7-1-1c-0.3-0.4-0.6-0.7-1-1c-0.3-0.4-0.6-0.7-1-1
			c-0.3-0.4-0.6-0.7-1-1c-0.3-0.4-0.6-0.7-1-1c-0.3-0.4-0.6-0.7-1-1c-1.6-1.9-4-3-7-3c-8.7-0.1-17.4-0.1-26.1,0
			c-5.1,0-8.6,3.4-8.7,8.1c0,2,0,4.1,0,6.1c0,1.9,0.2,2.7,1.2,3c0.2,0.5,0.5,0.8,1,1c0.2,0.5,0.5,0.8,1,1c0.2,0.5,0.5,0.8,1,1
			c0.2,0.5,0.5,0.8,1,1c0.2,0.5,0.5,0.8,1,1c-0.1,18.2,0,36.4,0,54.7c0,0.8,0,1.7,0,2.6c-3,0-5.6-0.1-8.2,0
			c-3.8,0.2-6.4,1.9-6.9,4.9c-0.3,1.7-0.3,3.6,0.1,5.4c0.4,1.9,1.3,3.3,2.6,4.4c0.3,0.4,0.6,0.7,1,1c0.3,0.4,0.6,0.7,1,1
			c0.3,0.4,0.6,0.7,1,1c0.3,0.4,0.6,0.7,1,1c0.3,0.4,0.6,0.7,1,1c0.3,0.4,0.6,0.7,1,1c0.1,0.1,0.1,0.1,0.2,0.2c0,0.2,0,0.4,0,0.6
			c0.1,2.8,1.3,5.3,3.3,7c0.3,0.4,0.6,0.7,1,1c0.3,0.4,0.6,0.7,1,1c0.3,0.4,0.6,0.7,1,1c0.3,0.4,0.6,0.7,1,1c0.3,0.4,0.6,0.7,1,1
			c0.3,0.3,0.6,0.6,0.9,0.9c0,11.2,0,22.3,0,33.5c0,0.8-0.1,1.6-0.2,2.6c-1.5,0-2.5,0-3.7,0c-6.4,0-10.4,3.7-10.5,9.7
			c0,4.8,0,9.6,0,14.6c-1.5,0-2.3,0-3.1,0c-2.7,0-5.4,0-8.1,0c-0.3-0.3-0.6-0.6-0.9-0.9c-0.3-0.4-0.6-0.7-1-1c-0.3-0.4-0.6-0.7-1-1
			c-0.3-0.4-0.6-0.7-1-1c-0.3-0.4-0.6-0.7-1-1c-0.3-0.4-0.6-0.7-1-1c-0.3-0.4-0.6-0.7-1-1c-0.3-0.4-0.6-0.7-1-1
			c-0.3-0.4-0.6-0.7-1-1c-0.3-0.4-0.6-0.7-1-1c-0.3-0.4-0.6-0.7-1-1c-0.3-0.4-0.6-0.7-1-1c-0.3-0.4-0.6-0.7-1-1
			c-0.3-0.4-0.6-0.7-1-1c-0.3-0.4-0.6-0.7-1-1c-0.3-0.4-0.6-0.7-1-1c-0.3-0.4-0.6-0.7-1-1c-0.3-0.4-0.6-0.7-1-1
			c-0.3-0.4-0.6-0.7-1-1c-0.3-0.4-0.6-0.7-1-1c-0.3-0.4-0.6-0.7-1-1c-0.3-0.4-0.6-0.7-1-1c-0.3-0.4-0.6-0.7-1-1
			c-0.3-0.4-0.6-0.7-1-1c-0.3-0.4-0.6-0.7-1-1c-0.3-0.4-0.6-0.7-1-1c-0.3-0.4-0.6-0.7-1-1c-0.3-0.4-0.6-0.7-1-1
			c-0.3-0.4-0.6-0.7-1-1c-0.3-0.4-0.6-0.7-1-1c-0.3-0.4-0.6-0.7-1-1c-0.3-0.4-0.6-0.7-1-1c-0.3-0.4-0.6-0.7-1-1
			c-0.3-0.4-0.6-0.7-1-1c-0.3-0.4-0.6-0.7-1-1c-0.3-0.4-0.6-0.7-1-1c-0.3-0.4-0.6-0.7-1-1c-0.3-0.4-0.6-0.7-1-1
			c-0.3-0.4-0.6-0.7-1-1c-0.3-0.4-0.6-0.7-1-1c-0.3-0.4-0.6-0.7-1-1c-0.3-0.4-0.6-0.7-1-1c-0.3-0.4-0.6-0.7-1-1
			c-0.3-0.4-0.6-0.7-1-1c-0.3-0.4-0.6-0.7-1-1c-0.3-0.4-0.6-0.7-1-1c-0.3-0.4-0.6-0.7-1-1c-0.3-0.4-0.6-0.7-1-1
			c-0.3-0.4-0.6-0.7-1-1c-0.3-0.4-0.6-0.7-1-1c-0.3-0.4-0.6-0.7-1-1c-0.3-0.4-0.6-0.7-1-1c-0.3-0.4-0.6-0.7-1-1
			c-0.3-0.4-0.6-0.7-1-1c-0.3-0.4-0.6-0.7-1-1c-0.3-0.4-0.6-0.7-1-1c-0.3-0.4-0.6-0.7-1-1c-0.3-0.4-0.6-0.7-1-1
			c-0.3-0.4-0.6-0.7-1-1c-0.3-0.4-0.6-0.7-1-1c-0.3-0.4-0.6-0.7-1-1c-0.3-0.4-0.6-0.7-1-1c-0.3-0.4-0.6-0.7-1-1
			c-0.3-0.4-0.6-0.7-1-1c-0.3-0.4-0.6-0.7-1-1c-0.3-0.4-0.6-0.7-1-1c-0.3-0.4-0.6-0.7-1-1c-0.3-0.4-0.6-0.7-1-1
			c-0.3-0.4-0.6-0.7-1-1c-0.3-0.4-0.6-0.7-1-1c-0.3-0.4-0.6-0.7-1-1c-0.3-0.4-0.6-0.7-1-1c-0.3-0.4-0.6-0.7-1-1
			c-0.3-0.4-0.6-0.7-1-1c-0.3-0.4-0.6-0.7-1-1c-0.3-0.4-0.6-0.7-1-1c-0.3-0.4-0.6-0.7-1-1c-0.3-0.4-0.6-0.7-1-1
			c-0.3-0.4-0.6-0.7-1-1c-0.3-0.4-0.6-0.7-1-1c-0.3-0.4-0.6-0.7-1-1c-0.3-0.4-0.6-0.7-1-1c-0.3-0.4-0.6-0.7-1-1
			c-0.3-0.4-0.6-0.7-1-1c-0.3-0.4-0.6-0.7-1-1c-0.3-0.4-0.6-0.7-1-1c-0.3-0.4-0.6-0.7-1-1c-0.3-0.4-0.6-0.7-1-1
			c-0.3-0.4-0.6-0.7-1-1c-0.3-0.4-0.6-0.7-1-1c-0.3-0.4-0.6-0.7-1-1c-0.3-0.4-0.6-0.7-1-1c-0.3-0.4-0.6-0.7-1-1
			c-0.3-0.4-0.6-0.7-1-1c-0.3-0.4-0.6-0.7-1-1c-0.3-0.4-0.6-0.7-1-1c-0.3-0.4-0.6-0.7-1-1c-0.3-0.4-0.6-0.7-1-1
			c-0.3-0.4-0.6-0.7-1-1c-0.3-0.4-0.6-0.7-1-1c-0.3-0.4-0.6-0.7-1-1c-0.3-0.4-0.6-0.7-1-1c-0.3-0.4-0.6-0.7-1-1
			c-0.3-0.4-0.6-0.7-1-1c-0.3-0.4-0.6-0.7-1-1c-0.3-0.4-0.6-0.7-1-1c-0.3-0.4-0.6-0.7-1-1c-0.3-0.4-0.6-0.7-1-1
			c-0.3-0.4-0.6-0.7-1-1c-0.3-0.4-0.6-0.7-1-1c-0.3-0.4-0.6-0.7-1-1c-0.3-0.4-0.6-0.7-1-1c-0.3-0.4-0.6-0.7-1-1
			c-0.3-0.4-0.6-0.7-1-1c-0.7-0.9-1.8-1.6-3.2-2.2c-14.6-6.1-29.3-12.3-43.8-18.6c-2.8-1.2-5.4-1.3-8.3-0.6
			c-17.9,4.7-35.7,9.4-53.6,14.1c-24.4,6.4-48.9,12.8-73.3,19.1c-2.2,0.5-4.9,0.5-4.9,4.5c0.2,12.6,0.1,25.4,0.1,38
			c0,1.4,0,2.5,1.4,3.4c0.2,0.4,0.5,0.7,1,1c0.2,0.3,0.5,0.6,0.8,0.9c0.4,1-0.1,2.2-1.5,3c-1.8,1-1.8,2.4-1.7,3.9
			c0.7,11,0.2,21.9,0.3,32.8c0,1.9-0.5,4.5,0.9,5.6c2.1,1.8,1.8,3.8,1.8,6c0,2.5,0.1,5,0,7.5c-0.1,2,0.4,3.2,1.6,4
			c0.3,0.4,0.6,0.7,1,1c0.3,0.4,0.6,0.7,1,1c0.3,0.4,0.6,0.7,1,1c0.3,0.4,0.6,0.7,1,1c0.3,0.4,0.6,0.7,1,1c0.3,0.4,0.6,0.7,1,1
			c0.3,0.4,0.6,0.7,1,1c0.3,0.4,0.6,0.7,1,1c0.3,0.4,0.6,0.7,1,1c0.3,0.4,0.6,0.7,1,1c0.3,0.4,0.6,0.7,1,1c0.3,0.4,0.6,0.7,1,1
			c0.3,0.4,0.6,0.7,1,1c0.3,0.4,0.6,0.7,1,1c0.3,0.4,0.6,0.7,1,1c0.3,0.4,0.6,0.7,1,1c0.3,0.4,0.6,0.7,1,1c0.3,0.4,0.6,0.7,1,1
			c0.3,0.4,0.6,0.7,1,1c0.3,0.4,0.6,0.7,1,1c0.3,0.4,0.6,0.7,1,1c0.3,0.4,0.6,0.7,1,1c0.3,0.4,0.6,0.7,1,1c0.3,0.4,0.6,0.7,1,1
			c0.3,0.4,0.6,0.7,1,1c0.3,0.4,0.6,0.7,1,1c0.3,0.4,0.6,0.7,1,1c0.3,0.4,0.6,0.7,1,1c0.3,0.4,0.6,0.7,1,1c0.3,0.4,0.6,0.7,1,1
			c0.3,0.4,0.6,0.7,1,1c0.3,0.4,0.6,0.7,1,1c0.3,0.4,0.6,0.7,1,1c0.3,0.4,0.6,0.7,1,1c0.3,0.4,0.6,0.7,1,1c0.3,0.4,0.6,0.7,1,1
			c0.3,0.4,0.6,0.7,1,1c0.3,0.4,0.6,0.7,1,1c0.3,0.4,0.6,0.7,1,1c0.3,0.4,0.6,0.7,1,1c0.3,0.4,0.6,0.7,1,1c0.3,0.4,0.6,0.7,1,1
			c0.3,0.4,0.6,0.7,1,1c0.3,0.4,0.6,0.7,1,1c0.3,0.4,0.6,0.7,1,1c0.3,0.4,0.6,0.7,1,1c0.3,0.4,0.6,0.7,1,1c0.3,0.4,0.6,0.7,1,1
			c0.3,0.4,0.6,0.7,1,1c0.3,0.4,0.6,0.7,1,1c0.3,0.4,0.6,0.7,1,1c0.3,0.4,0.6,0.7,1,1c0.3,0.4,0.6,0.7,1,1c0.3,0.4,0.6,0.7,1,1
			c0.3,0.4,0.6,0.7,1,1c0.3,0.4,0.6,0.7,1,1c0.3,0.4,0.6,0.7,1,1c0.3,0.4,0.6,0.7,1,1c0.3,0.4,0.6,0.7,1,1c0.3,0.4,0.6,0.7,1,1
			c0.3,0.4,0.6,0.7,1,1c0.3,0.4,0.6,0.7,1,1c0.3,0.4,0.6,0.7,1,1c0.3,0.4,0.6,0.7,1,1c0.3,0.4,0.6,0.7,1,1c0.3,0.4,0.6,0.7,1,1
			c0.3,0.4,0.6,0.7,1,1c0.3,0.4,0.6,0.7,1,1c0.3,0.4,0.6,0.7,1,1c0.3,0.4,0.6,0.7,1,1c0.3,0.4,0.6,0.7,1,1c0.3,0.4,0.6,0.7,1,1
			c0.3,0.4,0.6,0.7,1,1c0.3,0.4,0.6,0.7,1,1c0.3,0.4,0.6,0.7,1,1c0.3,0.4,0.6,0.7,1,1c0.3,0.4,0.6,0.7,1,1c0.3,0.4,0.6,0.7,1,1
			c0.3,0.4,0.6,0.7,1,1c0.3,0.4,0.6,0.7,1,1c0.3,0.4,0.6,0.7,1,1c0.3,0.4,0.6,0.7,1,1c0.3,0.4,0.6,0.7,1,1c0.3,0.4,0.6,0.7,1,1
			c0.3,0.4,0.6,0.7,1,1c0.3,0.4,0.6,0.7,1,1c0.3,0.4,0.6,0.7,1,1c0.3,0.4,0.6,0.7,1,1c0.3,0.4,0.6,0.7,1,1c0.3,0.4,0.6,0.7,1,1
			c0.3,0.4,0.6,0.7,1,1c0.3,0.4,0.6,0.7,1,1c0.3,0.4,0.6,0.7,1,1c0.3,0.4,0.6,0.7,1,1c0.3,0.4,0.6,0.7,1,1c0.3,0.4,0.6,0.7,1,1
			c0.3,0.4,0.6,0.7,1,1c0.3,0.4,0.6,0.7,1,1c0.3,0.4,0.6,0.7,1,1c0.3,0.4,0.6,0.7,1,1c0.3,0.4,0.6,0.7,1,1c0.3,0.4,0.6,0.7,1,1
			c0.3,0.4,0.6,0.7,1,1c0.3,0.4,0.6,0.7,1,1c0.3,0.4,0.6,0.7,1,1c0.3,0.4,0.6,0.7,1,1c0.3,0.4,0.6,0.7,1,1c0.3,0.4,0.6,0.7,1,1
			c0.1,0.2,0.3,0.4,0.4,0.5c-6.3-1-13.5-1.6-21.3-1.6c-17.5,0-32.5,3-39.2,7.2c-5.3-0.7-10.7-1.5-16-2.2
			c-12.1,12.5-24.2,24.9-36.3,37.3c0.6,0.1,1.2,0.1,1.8,0.2c-0.1,0.1-0.2,0.2-0.3,0.3c-0.6-0.1-1.2-0.2-1.9-0.2
			c0.5,30.9,1,61.8,1.4,92.7c-0.1,0-0.2,0-0.2,0c-0.8,3.8-1.5,7.6-2.4,11.4c0.4,0.1,0.8,0.1,1.2,0.2c-0.1,0.3-0.1,0.6-0.2,0.8
			c0.4,0.1,0.8,0.1,1.2,0.2c-0.1,0.3-0.1,0.6-0.2,0.8c0.4,0.1,0.8,0.1,1.2,0.2c-0.1,0.3-0.1,0.6-0.2,0.8c0.4,0.1,0.8,0.1,1.2,0.2
			c-0.1,0.3-0.1,0.6-0.2,0.8c0.4,0.1,0.8,0.1,1.2,0.2c-0.1,0.3-0.1,0.6-0.2,0.8c0.4,0.1,0.8,0.1,1.2,0.2c-0.1,0.3-0.1,0.6-0.2,0.8
			c0.4,0.1,0.8,0.1,1.2,0.2c-0.1,0.3-0.1,0.6-0.2,0.8c0.4,0.1,0.8,0.1,1.2,0.2c-0.1,0.3-0.1,0.6-0.2,0.8c0.4,0.1,0.8,0.1,1.2,0.2
			c-0.1,0.3-0.1,0.6-0.2,0.8c0.4,0.1,0.8,0.1,1.2,0.2c-0.1,0.3-0.1,0.6-0.2,0.8c0.4,0.1,0.8,0.1,1.2,0.2c-0.1,0.3-0.1,0.6-0.2,0.8
			c0.4,0.1,0.8,0.1,1.2,0.2c-0.1,0.3-0.1,0.6-0.2,0.8c0.4,0.1,0.8,0.1,1.2,0.2c-0.1,0.3-0.1,0.6-0.2,0.8c0.4,0.1,0.8,0.1,1.2,0.2
			c-0.1,0.3-0.1,0.6-0.2,0.8c0.4,0.1,0.8,0.1,1.2,0.2c-0.1,0.3-0.1,0.6-0.2,0.8c0.4,0.1,0.8,0.1,1.2,0.2c-0.1,0.3-0.1,0.6-0.2,0.8
			c0.4,0.1,0.8,0.1,1.2,0.2c-0.1,0.3-0.1,0.6-0.2,0.8c0.4,0.1,0.8,0.1,1.2,0.2c-0.1,0.3-0.1,0.6-0.2,0.8c0.4,0.1,0.8,0.1,1.2,0.2
			c-0.1,0.3-0.1,0.6-0.2,0.8c0.4,0.1,0.8,0.1,1.2,0.2c-0.1,0.3-0.1,0.6-0.2,0.8c0.4,0.1,0.8,0.1,1.2,0.2c-0.1,0.3-0.1,0.6-0.2,0.8
			c0.4,0.1,0.8,0.1,1.2,0.2c-0.1,0.3-0.1,0.6-0.2,0.8c0.4,0.1,0.8,0.1,1.2,0.2c-0.1,0.3-0.1,0.6-0.2,0.8c0.4,0.1,0.8,0.1,1.2,0.2
			c-0.1,0.3-0.1,0.6-0.2,0.8c0.4,0.1,0.8,0.1,1.2,0.2c-0.1,0.3-0.1,0.6-0.2,0.8c0.4,0.1,0.8,0.1,1.2,0.2c-0.1,0.3-0.1,0.6-0.2,0.8
			c0.4,0.1,0.8,0.1,1.2,0.2c-0.1,0.3-0.1,0.6-0.2,0.8c0.4,0.1,0.8,0.1,1.2,0.2c-0.1,0.3-0.1,0.6-0.2,0.8c0.4,0.1,0.8,0.1,1.2,0.2
			c-0.1,0.3-0.1,0.6-0.2,0.8c0.4,0.1,0.8,0.1,1.2,0.2c-0.1,0.3-0.1,0.6-0.2,0.8c0.4,0.1,0.8,0.1,1.2,0.2c-0.1,0.3-0.1,0.6-0.2,0.8
			c0.4,0.1,0.8,0.1,1.2,0.2c-0.1,0.3-0.1,0.6-0.2,0.8c0.4,0.1,0.8,0.1,1.2,0.2c-0.1,0.3-0.1,0.6-0.2,0.8c0.4,0.1,0.8,0.1,1.2,0.2
			c-0.1,0.3-0.1,0.6-0.2,0.8c0.4,0.1,0.8,0.1,1.2,0.2c-0.1,0.3-0.1,0.6-0.2,0.8c0.4,0.1,0.8,0.1,1.2,0.2c-0.1,0.3-0.1,0.6-0.2,0.8
			c0.4,0.1,0.8,0.1,1.2,0.2c-0.1,0.3-0.1,0.6-0.2,0.8c0.4,0.1,0.8,0.1,1.2,0.2c-0.1,0.3-0.1,0.6-0.2,0.8c0.4,0.1,0.8,0.1,1.2,0.2
			c-0.1,0.3-0.1,0.6-0.2,0.8c0.4,0.1,0.8,0.1,1.2,0.2c-0.1,0.3-0.1,0.6-0.2,0.8c0.4,0.1,0.8,0.1,1.2,0.2c-0.1,0.3-0.1,0.6-0.2,0.8
			c0.4,0.1,0.8,0.1,1.2,0.2c-0.1,0.3-0.1,0.6-0.2,0.8c0.4,0.1,0.8,0.1,1.2,0.2c-0.1,0.3-0.1,0.6-0.2,0.8c0.4,0.1,0.8,0.1,1.2,0.2
			c-0.1,0.3-0.1,0.6-0.2,0.8c0.4,0.1,0.8,0.1,1.2,0.2c-0.1,0.3-0.1,0.6-0.2,0.8c0.4,0.1,0.8,0.1,1.2,0.2c-0.1,0.3-0.1,0.6-0.2,0.8
			c0.4,0.1,0.8,0.1,1.2,0.2c-0.1,0.3-0.1,0.6-0.2,0.8c0.4,0.1,0.8,0.1,1.2,0.2c-0.1,0.3-0.1,0.6-0.2,0.8c0.4,0.1,0.8,0.1,1.2,0.2
			c-0.1,0.3-0.1,0.6-0.2,0.8c0.4,0.1,0.8,0.1,1.2,0.2c-0.1,0.3-0.1,0.6-0.2,0.8c0.4,0.1,0.8,0.1,1.2,0.2c-0.1,0.3-0.1,0.6-0.2,0.8
			c0.4,0.1,0.8,0.1,1.2,0.2c-0.1,0.3-0.1,0.6-0.2,0.8c0.4,0.1,0.8,0.1,1.2,0.2c-0.1,0.3-0.1,0.6-0.2,0.8c0.4,0.1,0.8,0.1,1.2,0.2
			c-0.1,0.3-0.1,0.6-0.2,0.8c0.4,0.1,0.8,0.1,1.2,0.2c-0.1,0.3-0.1,0.6-0.2,0.8c0.4,0.1,0.8,0.1,1.2,0.2c-0.1,0.3-0.1,0.6-0.2,0.8
			c0.4,0.1,0.8,0.1,1.2,0.2c-0.1,0.3-0.1,0.6-0.2,0.8c0.4,0.1,0.8,0.1,1.2,0.2c-0.1,0.3-0.1,0.6-0.2,0.8c0.4,0.1,0.8,0.1,1.2,0.2
			c-0.1,0.3-0.1,0.6-0.2,0.8c0.4,0.1,0.8,0.1,1.2,0.2c-0.1,0.3-0.1,0.6-0.2,0.8c0.4,0.1,0.8,0.1,1.2,0.2c-0.1,0.3-0.1,0.6-0.2,0.8
			c0.4,0.1,0.8,0.1,1.2,0.2c-0.1,0.3-0.1,0.6-0.2,0.8c0.4,0.1,0.8,0.1,1.2,0.2c-0.1,0.3-0.1,0.6-0.2,0.8c0.4,0.1,0.8,0.1,1.2,0.2
			c-0.1,0.3-0.1,0.6-0.2,0.8c0.4,0.1,0.8,0.1,1.2,0.2c-0.1,0.3-0.1,0.6-0.2,0.8c0.4,0.1,0.8,0.1,1.2,0.2c-0.1,0.3-0.1,0.6-0.2,0.8
			c0.4,0.1,0.8,0.1,1.2,0.2c-0.1,0.3-0.1,0.6-0.2,0.8c0.4,0.1,0.8,0.1,1.2,0.2c-0.1,0.3-0.1,0.6-0.2,0.8c0.4,0.1,0.8,0.1,1.2,0.2
			c-0.1,0.3-0.1,0.6-0.2,0.8c0.4,0.1,0.8,0.1,1.2,0.2c-0.1,0.3-0.1,0.6-0.2,0.8c0.4,0.1,0.8,0.1,1.2,0.2c-0.1,0.3-0.1,0.6-0.2,0.8
			c0.4,0.1,0.8,0.1,1.2,0.2c-0.1,0.3-0.1,0.6-0.2,0.8c0.4,0.1,0.8,0.1,1.2,0.2c-0.1,0.3-0.1,0.6-0.2,0.8c0.4,0.1,0.8,0.1,1.2,0.2
			c-0.1,0.3-0.1,0.6-0.2,0.8c0.4,0.1,0.8,0.1,1.2,0.2c-0.1,0.3-0.1,0.6-0.2,0.8c0.4,0.1,0.8,0.1,1.2,0.2c-0.1,0.3-0.1,0.6-0.2,0.8
			c0.4,0.1,0.8,0.1,1.2,0.2c-0.1,0.3-0.1,0.6-0.2,0.8c0.4,0.1,0.8,0.1,1.2,0.2c-0.1,0.3-0.1,0.6-0.2,0.8c0.4,0.1,0.8,0.1,1.2,0.2
			c-0.1,0.3-0.1,0.6-0.2,0.8c0.4,0.1,0.8,0.1,1.2,0.2c-0.1,0.3-0.1,0.6-0.2,0.8c0.4,0.1,0.8,0.1,1.2,0.2c-0.1,0.3-0.1,0.6-0.2,0.8
			c0.4,0.1,0.8,0.1,1.2,0.2c-0.1,0.3-0.1,0.6-0.2,0.8c0.4,0.1,0.8,0.1,1.2,0.2c-0.1,0.3-0.1,0.6-0.2,0.8c0.4,0.1,0.8,0.1,1.2,0.2
			c-0.1,0.3-0.1,0.6-0.2,0.8c0.4,0.1,0.8,0.1,1.2,0.2c-0.1,0.3-0.1,0.6-0.2,0.8c0.4,0.1,0.8,0.1,1.2,0.2c-0.1,0.3-0.1,0.6-0.2,0.8
			c0.4,0.1,0.8,0.1,1.2,0.2c-0.1,0.3-0.1,0.6-0.2,0.8c0.4,0.1,0.8,0.1,1.2,0.2c-0.1,0.3-0.1,0.6-0.2,0.8c0.4,0.1,0.8,0.1,1.2,0.2
			c-0.1,0.3-0.1,0.6-0.2,0.8c0.4,0.1,0.8,0.1,1.2,0.2c-0.1,0.3-0.1,0.6-0.2,0.8c0.4,0.1,0.8,0.1,1.2,0.2c-0.1,0.3-0.1,0.6-0.2,0.8
			c0.4,0.1,0.8,0.1,1.2,0.2c-0.1,0.3-0.1,0.6-0.2,0.8c0.4,0.1,0.8,0.1,1.2,0.2c-0.1,0.3-0.1,0.6-0.2,0.8c0.4,0.1,0.8,0.1,1.2,0.2
			c-0.1,0.3-0.1,0.6-0.2,0.8c0.4,0.1,0.8,0.1,1.2,0.2c-0.1,0.3-0.1,0.6-0.2,0.8c0.4,0.1,0.8,0.1,1.2,0.2c-0.1,0.3-0.1,0.6-0.2,0.8
			c0.4,0.1,0.8,0.1,1.2,0.2c-0.1,0.3-0.1,0.6-0.2,0.8c0.4,0.1,0.8,0.1,1.2,0.2c-0.1,0.3-0.1,0.6-0.2,0.8c0.4,0.1,0.8,0.1,1.2,0.2
			c-0.1,0.3-0.1,0.6-0.2,0.8c0.4,0.1,0.8,0.1,1.2,0.2c-0.1,0.3-0.1,0.6-0.2,0.8c0.4,0.1,0.8,0.1,1.2,0.2c-0.1,0.3-0.1,0.6-0.2,0.8
			c0.4,0.1,0.8,0.1,1.2,0.2c-0.1,0.3-0.1,0.6-0.2,0.8c0.4,0.1,0.8,0.1,1.2,0.2c-0.1,0.3-0.1,0.6-0.2,0.8c0.4,0.1,0.8,0.1,1.2,0.2
			c-0.1,0.3-0.1,0.6-0.2,0.8c0.4,0.1,0.8,0.1,1.2,0.2c-0.1,0.3-0.1,0.6-0.2,0.8c0.4,0.1,0.8,0.1,1.2,0.2c-0.1,0.3-0.1,0.6-0.2,0.8
			c0.4,0.1,0.8,0.1,1.2,0.2c-0.1,0.3-0.1,0.6-0.2,0.8c0.4,0.1,0.8,0.1,1.2,0.2c-0.1,0.3-0.1,0.6-0.2,0.8c0.4,0.1,0.8,0.1,1.2,0.2
			c-0.1,0.3-0.1,0.6-0.2,0.8c0.4,0.1,0.8,0.1,1.2,0.2c-0.1,0.3-0.1,0.6-0.2,0.8c0.4,0.1,0.8,0.1,1.2,0.2c-0.1,0.3-0.1,0.6-0.2,0.8
			c0.4,0.1,0.8,0.1,1.2,0.2c-0.1,0.3-0.1,0.6-0.2,0.8c0.4,0.1,0.8,0.1,1.2,0.2c-0.1,0.3-0.1,0.6-0.2,0.8c0.4,0.1,0.8,0.1,1.2,0.2
			c-0.1,0.3-0.1,0.6-0.2,0.8c0.4,0.1,0.8,0.1,1.2,0.2c-0.1,0.3-0.1,0.6-0.2,0.8c0.4,0.1,0.8,0.1,1.2,0.2c-0.1,0.3-0.1,0.6-0.2,0.8
			c0.4,0.1,0.8,0.1,1.2,0.2c-0.1,0.3-0.1,0.6-0.2,0.8c0.4,0.1,0.8,0.1,1.2,0.2c-0.1,0.3-0.1,0.6-0.2,0.8c0.4,0.1,0.8,0.1,1.2,0.2
			c-0.1,0.3-0.1,0.6-0.2,0.8c0.4,0.1,0.8,0.1,1.2,0.2c-0.1,0.3-0.1,0.6-0.2,0.8c0.4,0.1,0.8,0.1,1.2,0.2c-0.1,0.3-0.1,0.6-0.2,0.8
			c0.4,0.1,0.8,0.1,1.2,0.2c-0.1,0.3-0.1,0.6-0.2,0.8c0.4,0.1,0.8,0.1,1.2,0.2c-0.1,0.3-0.1,0.6-0.2,0.8c0.4,0.1,0.8,0.1,1.2,0.2
			c-0.1,0.3-0.1,0.6-0.2,0.8c0.4,0.1,0.8,0.1,1.2,0.2c-0.1,0.3-0.1,0.6-0.2,0.8c0.4,0.1,0.8,0.1,1.2,0.2c-0.1,0.3-0.1,0.6-0.2,0.8
			c0.4,0.1,0.8,0.1,1.2,0.2c-0.1,0.3-0.1,0.6-0.2,0.8c0.4,0.1,0.8,0.1,1.2,0.2c-0.1,0.3-0.1,0.6-0.2,0.8c0.4,0.1,0.8,0.1,1.2,0.2
			c-0.1,0.3-0.1,0.6-0.2,0.8c0.4,0.1,0.8,0.1,1.2,0.2c-0.1,0.3-0.1,0.6-0.2,0.8c0.4,0.1,0.8,0.1,1.2,0.2c-0.1,0.3-0.1,0.6-0.2,0.8
			c0.4,0.1,0.8,0.1,1.2,0.2c-0.1,0.3-0.1,0.6-0.2,0.8c0.4,0.1,0.8,0.1,1.2,0.2c-0.1,0.3-0.1,0.6-0.2,0.8c0.4,0.1,0.8,0.1,1.2,0.2
			c-0.1,0.3-0.1,0.6-0.2,0.8c0.4,0.1,0.8,0.1,1.2,0.2c-0.1,0.3-0.1,0.6-0.2,0.8c0.4,0.1,0.8,0.1,1.2,0.2c-0.1,0.3-0.1,0.6-0.2,0.8
			c0.4,0.1,0.8,0.1,1.2,0.2c-0.1,0.3-0.1,0.6-0.2,0.8c0.4,0.1,0.8,0.1,1.2,0.2c-0.1,0.3-0.1,0.6-0.2,0.8c0.4,0.1,0.8,0.1,1.2,0.2
			c-0.1,0.3-0.1,0.6-0.2,0.8c0.4,0.1,0.8,0.1,1.2,0.2c-0.1,0.3-0.1,0.6-0.2,0.8c0.4,0.1,0.8,0.1,1.2,0.2c-0.1,0.3-0.1,0.6-0.2,0.8
			c0.4,0.1,0.8,0.1,1.2,0.2c-0.1,0.3-0.1,0.6-0.2,0.8c0.4,0.1,0.8,0.1,1.2,0.2c-0.1,0.3-0.1,0.6-0.2,0.8c0.4,0.1,0.8,0.1,1.2,0.2
			c-0.1,0.3-0.1,0.6-0.2,0.8c0.4,0.1,0.8,0.1,1.2,0.2c-0.1,0.3-0.1,0.6-0.2,0.8c0.4,0.1,0.8,0.1,1.2,0.2c-0.1,0.3-0.1,0.6-0.2,0.8
			c0.4,0.1,0.8,0.1,1.2,0.2c-0.1,0.3-0.1,0.6-0.2,0.8c0.4,0.1,0.8,0.1,1.2,0.2c-0.1,0.3-0.1,0.6-0.2,0.8c0.4,0.1,0.8,0.1,1.2,0.2
			c-0.1,0.3-0.1,0.6-0.2,0.8c0.4,0.1,0.8,0.1,1.2,0.2c-0.1,0.3-0.1,0.6-0.2,0.8c0.4,0.1,0.8,0.1,1.2,0.2c-0.1,0.3-0.1,0.6-0.2,0.8
			c0.4,0.1,0.8,0.1,1.2,0.2c-0.1,0.3-0.1,0.6-0.2,0.8c0.4,0.1,0.8,0.1,1.2,0.2c-0.1,0.3-0.1,0.6-0.2,0.8c0.4,0.1,0.8,0.1,1.2,0.2
			c-0.1,0.3-0.1,0.6-0.2,0.8c0.4,0.1,0.8,0.1,1.2,0.2c-0.1,0.3-0.1,0.6-0.2,0.8c0.4,0.1,0.8,0.1,1.2,0.2c-0.1,0.3-0.1,0.6-0.2,0.8
			c0.4,0.1,0.8,0.1,1.2,0.2c-0.1,0.3-0.1,0.6-0.2,0.8c0.4,0.1,0.8,0.1,1.2,0.2c-0.1,0.3-0.1,0.6-0.2,0.8c0.4,0.1,0.8,0.1,1.2,0.2
			c-0.1,0.3-0.1,0.6-0.2,0.8c0.4,0.1,0.8,0.1,1.2,0.2c-0.1,0.3-0.1,0.6-0.2,0.8c0.4,0.1,0.8,0.1,1.2,0.2c-0.1,0.3-0.1,0.6-0.2,0.8
			c0.4,0.1,0.8,0.1,1.2,0.2c-0.1,0.3-0.1,0.6-0.2,0.8c0.4,0.1,0.8,0.1,1.2,0.2c-0.1,0.3-0.1,0.6-0.2,0.8c0.4,0.1,0.8,0.1,1.2,0.2
			c-0.1,0.3-0.1,0.6-0.2,0.8c0.4,0.1,0.8,0.1,1.2,0.2c-0.1,0.3-0.1,0.6-0.2,0.8c0.4,0.1,0.8,0.1,1.2,0.2c-0.1,0.3-0.1,0.6-0.2,0.8
			c0.4,0.1,0.8,0.1,1.2,0.2c-0.1,0.3-0.1,0.6-0.2,0.8c0.4,0.1,0.8,0.1,1.2,0.2c-0.1,0.3-0.1,0.6-0.2,0.8c0.4,0.1,0.8,0.1,1.2,0.2
			c-0.1,0.3-0.1,0.6-0.2,0.8c0.4,0.1,0.8,0.1,1.2,0.2c-0.1,0.3-0.1,0.6-0.2,0.8c0.4,0.1,0.8,0.1,1.2,0.2c-0.1,0.3-0.1,0.6-0.2,0.8
			c0.4,0.1,0.8,0.1,1.2,0.2c-0.1,0.3-0.1,0.6-0.2,0.8c0.4,0.1,0.8,0.1,1.2,0.2c-0.1,0.3-0.1,0.6-0.2,0.8c0.4,0.1,0.8,0.1,1.2,0.2
			c-0.1,0.3-0.1,0.6-0.2,0.8c0.4,0.1,0.8,0.1,1.2,0.2c-0.1,0.3-0.1,0.6-0.2,0.8c0.4,0.1,0.8,0.1,1.2,0.2c-0.1,0.3-0.1,0.6-0.2,0.8
			c0.4,0.1,0.8,0.1,1.2,0.2c-0.1,0.3-0.1,0.6-0.2,0.8c0.4,0.1,0.8,0.1,1.2,0.2c-0.1,0.3-0.1,0.6-0.2,0.8c0.4,0.1,0.8,0.1,1.2,0.2
			c-0.1,0.3-0.1,0.6-0.2,0.8c0.4,0.1,0.8,0.1,1.2,0.2c-0.1,0.3-0.1,0.6-0.2,0.8c0.4,0.1,0.8,0.1,1.2,0.2c-0.1,0.3-0.1,0.6-0.2,0.8
			c0.4,0.1,0.8,0.1,1.2,0.2c-0.1,0.3-0.1,0.6-0.2,0.8c0.4,0.1,0.8,0.1,1.2,0.2c-0.1,0.3-0.1,0.6-0.2,0.8c0.4,0.1,0.8,0.1,1.2,0.2
			c-0.1,0.3-0.1,0.6-0.2,0.8c0.4,0.1,0.8,0.1,1.2,0.2c-0.1,0.3-0.1,0.6-0.2,0.8c0.4,0.1,0.8,0.1,1.2,0.2c-0.1,0.3-0.1,0.6-0.2,0.8
			c0.4,0.1,0.8,0.1,1.2,0.2c-0.1,0.3-0.1,0.6-0.2,0.8c0.4,0.1,0.8,0.1,1.2,0.2c-0.1,0.3-0.1,0.6-0.2,0.8c0.4,0.1,0.8,0.1,1.2,0.2
			c-0.1,0.3-0.1,0.6-0.2,0.8c0.4,0.1,0.8,0.1,1.2,0.2c-0.1,0.3-0.1,0.6-0.2,0.8c0.4,0.1,0.8,0.1,1.2,0.2c-0.1,0.3-0.1,0.6-0.2,0.8
			c0.4,0.1,0.8,0.1,1.2,0.2c-0.1,0.3-0.1,0.6-0.2,0.8c0.4,0.1,0.8,0.1,1.2,0.2c-0.1,0.3-0.1,0.6-0.2,0.8c0.4,0.1,0.8,0.1,1.2,0.2
			c-0.1,0.3-0.1,0.6-0.2,0.8c0.4,0.1,0.8,0.1,1.2,0.2c-0.1,0.3-0.1,0.6-0.2,0.8c0.4,0.1,0.8,0.1,1.2,0.2c-0.1,0.3-0.1,0.6-0.2,0.8
			c0.4,0.1,0.8,0.1,1.2,0.2c-0.1,0.3-0.1,0.6-0.2,0.8c0.4,0.1,0.8,0.1,1.2,0.2c-0.1,0.3-0.1,0.6-0.2,0.8c0.4,0.1,0.8,0.1,1.2,0.2
			c-0.1,0.3-0.1,0.6-0.2,0.8c0.4,0.1,0.8,0.1,1.2,0.2c-0.1,0.3-0.1,0.6-0.2,0.8c0.4,0.1,0.8,0.1,1.2,0.2c-0.1,0.3-0.1,0.6-0.2,0.8
			c0.4,0.1,0.8,0.1,1.2,0.2c-0.1,0.3-0.1,0.6-0.2,0.8c0.4,0.1,0.8,0.1,1.2,0.2c-0.1,0.3-0.1,0.6-0.2,0.8c0.4,0.1,0.8,0.1,1.2,0.2
			c-0.1,0.3-0.1,0.6-0.2,0.8c0.4,0.1,0.8,0.1,1.2,0.2c-0.1,0.3-0.1,0.6-0.2,0.8c0.4,0.1,0.8,0.1,1.2,0.2c-0.1,0.3-0.1,0.6-0.2,0.8
			c0.4,0.1,0.8,0.1,1.2,0.2c-0.1,0.3-0.1,0.6-0.2,0.8c0.4,0.1,0.8,0.1,1.2,0.2c-0.1,0.3-0.1,0.6-0.2,0.8c0.4,0.1,0.8,0.1,1.2,0.2
			c-0.1,0.3-0.1,0.6-0.2,0.8c0.4,0.1,0.8,0.1,1.2,0.2c-0.1,0.3-0.1,0.6-0.2,0.8c0.4,0.1,0.8,0.1,1.2,0.2c-0.1,0.3-0.1,0.6-0.2,0.8
			c0.4,0.1,0.8,0.1,1.2,0.2c-0.1,0.3-0.1,0.6-0.2,0.8c0.4,0.1,0.8,0.1,1.2,0.2c-0.1,0.3-0.1,0.6-0.2,0.8c0.4,0.1,0.8,0.1,1.2,0.2
			c-0.1,0.3-0.1,0.6-0.2,0.8c0.4,0.1,0.8,0.1,1.2,0.2c-0.1,0.3-0.1,0.6-0.2,0.8c0.4,0.1,0.8,0.1,1.2,0.2c-0.1,0.3-0.1,0.6-0.2,0.8
			c0.4,0.1,0.8,0.1,1.2,0.2c-0.1,0.3-0.1,0.6-0.2,0.8c0.4,0.1,0.8,0.1,1.2,0.2c-0.1,0.3-0.1,0.6-0.2,0.8c0.4,0.1,0.8,0.1,1.2,0.2
			c-0.1,0.3-0.1,0.6-0.2,0.8c0.4,0.1,0.8,0.1,1.2,0.2c-0.1,0.3-0.1,0.6-0.2,0.8c0.4,0.1,0.8,0.1,1.2,0.2c-0.1,0.3-0.1,0.6-0.2,0.8
			c0.4,0.1,0.8,0.1,1.2,0.2c-0.1,0.3-0.1,0.6-0.2,0.8c0.4,0.1,0.8,0.1,1.2,0.2c-0.1,0.3-0.1,0.6-0.2,0.8c0.4,0.1,0.8,0.1,1.2,0.2
			c-0.1,0.3-0.1,0.6-0.2,0.8c0.4,0.1,0.8,0.1,1.2,0.2c-0.1,0.3-0.1,0.6-0.2,0.8c0.4,0.1,0.8,0.1,1.2,0.2c-0.1,0.3-0.1,0.6-0.2,0.8
			c0.4,0.1,0.8,0.1,1.2,0.2c-0.1,0.3-0.1,0.6-0.2,0.8c0.4,0.1,0.8,0.1,1.2,0.2c-0.1,0.3-0.1,0.6-0.2,0.8c0.4,0.1,0.8,0.1,1.2,0.2
			c-0.1,0.3-0.1,0.6-0.2,0.8c0.4,0.1,0.8,0.1,1.2,0.2c-0.1,0.3-0.1,0.6-0.2,0.8c52.8,7.5,105.6,14.9,158.4,22.4l0,0l0,0h0.1v-0.1
			c11.7-10.2,23.3-20.3,35-30.4c-0.1-3.4-0.2-6.8-0.4-10.1l0,0c0.2-6.2,0.5-12.5,0.7-18.7c0,0.1,0,0.2,0,0.3c0.3,0,0.6-0.1,1-0.1
			c0,0.4,0,0.7,0,1.1c0.3,0,0.6-0.1,1-0.1c0,0.4,0,0.7,0,1.1c0.3,0,0.6-0.1,1-0.1c0,0.4,0,0.7,0,1.1c0.3,0,0.6-0.1,1-0.1
			c0,0.4,0,0.7,0,1.1c0.3,0,0.6-0.1,1-0.1c0,0.4,0,0.7,0,1.1c0.3,0,0.6-0.1,1-0.1c0,0.4,0,0.7,0,1.1c0.3,0,0.6-0.1,1-0.1
			c0,0.4,0,0.7,0,1.1c0.3,0,0.6-0.1,1-0.1c0,0.4,0,0.7,0,1.1c0.3,0,0.6-0.1,1-0.1c0,0.4,0,0.7,0,1.1c0.3,0,0.6-0.1,1-0.1
			c0,0.4,0,0.7,0,1.1c0.3,0,0.6-0.1,1-0.1c0,0.4,0,0.7,0,1.1c0.3,0,0.6-0.1,1-0.1c0,0.4,0,0.7,0,1.1c0.3,0,0.6-0.1,1-0.1
			c0,0.4,0,0.7,0,1.1c0.3,0,0.6-0.1,1-0.1c0,0.4,0,0.7,0,1.1c0.3,0,0.6-0.1,1-0.1c0,0.4,0,0.7,0,1.1c0.3,0,0.6-0.1,1-0.1
			c0,0.4,0,0.7,0,1.1c0.3,0,0.6-0.1,1-0.1c0,0.4,0,0.7,0,1.1c0.3,0,0.6-0.1,1-0.1c0,0.4,0,0.7,0,1.1c0.3,0,0.6-0.1,1-0.1
			c0,0.4,0,0.7,0,1.1c0.3,0,0.6-0.1,1-0.1c0,0.4,0,0.7,0,1.1c0.3,0,0.6-0.1,1-0.1c0,0.4,0,0.7,0,1.1c0.3,0,0.6-0.1,1-0.1
			c0,0.4,0,0.7,0,1.1c0.3,0,0.6-0.1,1-0.1c0,0.4,0,0.7,0,1.1c0.3,0,0.6-0.1,1-0.1c0,0.4,0,0.7,0,1.1c0.3,0,0.6-0.1,1-0.1
			c0,0.4,0,0.7,0,1.1c0.3,0,0.6-0.1,1-0.1c0,0.4,0,0.7,0,1.1c0.3,0,0.6-0.1,1-0.1c0,0.4,0,0.7,0,1.1c0.3,0,0.6-0.1,1-0.1
			c0,0.4,0,0.7,0,1.1c0.3,0,0.6-0.1,1-0.1c0,0.4,0,0.7,0,1.1c0.3,0,0.6-0.1,1-0.1c0,0.4,0,0.7,0,1.1c0.3,0,0.6-0.1,1-0.1
			c0,0.4,0,0.7,0,1.1c0.3,0,0.6-0.1,1-0.1c0,0.4,0,0.7,0,1.1c0.3,0,0.6-0.1,1-0.1c0,0.4,0,0.7,0,1.1c0.3,0,0.6-0.1,1-0.1
			c0,0.4,0,0.7,0,1.1c0.3,0,0.6-0.1,1-0.1c0,0.4,0,0.7,0,1.1c0.3,0,0.6-0.1,1-0.1c0,0.4,0,0.7,0,1.1c2.8-0.3,5.5-0.6,8.3-0.9
			c-0.1-5-0.1-10-0.2-14.9c0.1,0.1,0.2,0.2,0.4,0.3c0.3,0.4,0.6,0.7,1,1c0.3,0.4,0.6,0.7,1,1c0.3,0.4,0.6,0.7,1,1
			c0.3,0.4,0.6,0.7,1,1c0.3,0.4,0.6,0.7,1,1c0.3,0.4,0.6,0.7,1,1c0.3,0.4,0.6,0.7,1,1c0.3,0.4,0.6,0.7,1,1c0.3,0.4,0.6,0.7,1,1
			c0.3,0.4,0.6,0.7,1,1c0.3,0.4,0.6,0.7,1,1c0.3,0.4,0.6,0.7,1,1c0.3,0.4,0.6,0.7,1,1c0.3,0.4,0.6,0.7,1,1c0.3,0.4,0.6,0.7,1,1
			c0.3,0.4,0.6,0.7,1,1c0.3,0.4,0.6,0.7,1,1c0.3,0.4,0.6,0.7,1,1c0.3,0.4,0.6,0.7,1,1c0.3,0.4,0.6,0.7,1,1c0.3,0.4,0.6,0.7,1,1
			c0.3,0.4,0.6,0.7,1,1c0.3,0.4,0.6,0.7,1,1c0.3,0.4,0.6,0.7,1,1c0.3,0.4,0.6,0.7,1,1c0.3,0.4,0.6,0.7,1,1c0.3,0.4,0.6,0.7,1,1
			c0.3,0.4,0.6,0.7,1,1c0.3,0.4,0.6,0.7,1,1c0.3,0.4,0.6,0.7,1,1c0.3,0.4,0.6,0.7,1,1c0.3,0.4,0.6,0.7,1,1c0.3,0.4,0.6,0.7,1,1
			c0.3,0.4,0.6,0.7,1,1c0.3,0.4,0.6,0.7,1,1c0.3,0.4,0.6,0.7,1,1c0.3,0.4,0.6,0.7,1,1c0.3,0.4,0.6,0.7,1,1c0.3,0.4,0.6,0.7,1,1
			c0.3,0.4,0.6,0.7,1,1c0.3,0.4,0.6,0.7,1,1c0.3,0.4,0.6,0.7,1,1c0.3,0.4,0.6,0.7,1,1c0.3,0.4,0.6,0.7,1,1c0.3,0.4,0.6,0.7,1,1
			c0.3,0.4,0.6,0.7,1,1c0.3,0.4,0.6,0.7,1,1c0.3,0.4,0.6,0.7,1,1c0.3,0.4,0.6,0.7,1,1c0.3,0.4,0.6,0.7,1,1c0.3,0.4,0.6,0.7,1,1
			c0.3,0.4,0.6,0.7,1,1c0.3,0.4,0.6,0.7,1,1c0.3,0.4,0.6,0.7,1,1c0.3,0.4,0.6,0.7,1,1c0.3,0.4,0.6,0.7,1,1c0.3,0.4,0.6,0.7,1,1
			c0.3,0.4,0.6,0.7,1,1c0.8,1.1,2.2,1.9,3.7,1.9h29.8c2.6,0,4.6-2,4.6-4.6v-70.1c-0.4-1.9-1-4.3-2.8-6.6c-0.5-0.7-1.1-1.4-1.8-2
			c-0.3-0.3-0.7-0.7-1-1s-0.7-0.7-1-1s-0.7-0.7-1-1s-0.7-0.7-1-1s-0.7-0.7-1-1s-0.7-0.7-1-1s-0.7-0.7-1-1s-0.7-0.7-1-1s-0.7-0.7-1-1
			s-0.7-0.7-1-1s-0.7-0.7-1-1s-0.6-0.6-0.9-0.9v-6.5h-1v-1H674v-5.3l14.8-4.5c49.3,4,98,8,147.4,12c8.7-8.8,17.4-17.6,26.1-26.5
			c0-3,0.1-6,0.1-8.9h0.9c0,0.3,0,0.7,0,1h1c0,0.3,0,0.7,0,1h1c0,0.3,0,0.7,0,1h1c0,0.3,0,0.7,0,1h8.7c0,0.1,0,0.3,0,0.4h-0.1
			c0,0,0.3,0.3,0.8,0.3c0.1,0,0.3,0,0.4-0.1c0,0.3,0,0.5,0,0.8H876c0,0,0.3,0.3,0.8,0.3c0.1,0,0.3,0,0.4-0.1c0,0.3,0,0.5,0,0.8h-0.1
			c0,0,0.3,0.3,0.8,0.3c0.1,0,0.3,0,0.4-0.1c0,0.3,0,0.5,0,0.8h-0.1c0,0,0.3,0.3,0.8,0.3c0.1,0,0.3,0,0.4-0.1c0,0.3,0,0.5,0,0.8
			h-0.1c0,0,0.3,0.3,0.8,0.3c0.1,0,0.3,0,0.4-0.1c0,0.3,0,0.5,0,0.8h-0.1c0,0,0.3,0.3,0.8,0.3c0.1,0,0.3,0,0.4-0.1
			c0,0.3,0,0.5,0,0.8h-0.1c0,0,0.3,0.3,0.8,0.3c0.3,0,0.5-0.1,0.8-0.3l7-7.3C889.6,723.9,889.6,723.2,889.2,722.8z"/>
	</g>
</g>
<g>
	<g>
		<path class="st2" d="M317.3,216.2c0,12,0.1,24-0.1,36c0,3.4,0.8,4.6,4.1,4.4c15.1-0.5,30.1,2.6,45.2,3.6c2.4,0.1,3.3,1.2,3.3,3.9
			c-0.1,25.5-0.1,51,0,76.4c0,2.4-0.8,3.8-2.7,5.1c-11.7,7.7-23.4,15.4-35.1,23.3c-2.5,1.6-4.9,1.4-7.4,0.8
			c-22.4-5.4-44.8-10.8-67.2-16.2c-40.3-9.6-80.5-19.3-120.8-28.8c-2.6-0.6-3.8-1.9-3.6-4.8c0.1-2.5,0.1-5,0.1-7.5
			c-0.1-2.2,0.3-4.3-1.8-6c-1.3-1.1-0.8-3.7-0.8-5.6c-0.2-10.9,0.3-21.9-0.4-32.8c-0.1-1.5-0.1-2.9,1.7-3.9c2.3-1.4,2.1-3.5-0.1-4.7
			c-1.6-0.9-1.6-2.1-1.6-3.5c0-12.6,0.1-25.4-0.1-38c-0.1-4,2.7-3.9,4.9-4.5c24.4-6.4,48.9-12.7,73.3-19.1
			c17.9-4.7,35.7-9.3,53.6-14.1c2.8-0.7,5.5-0.6,8.3,0.6c14.5,6.3,29.2,12.5,43.8,18.6c3.3,1.3,4.6,3.3,4.3,7.1
			c-0.3,3.2,0,6.6,0,9.9C317.9,216.2,317.6,216.2,317.3,216.2z"/>
		<path class="st3" d="M327.7,307.8c0,12.5-0.1,25.1,0,37.6c0,3.5-0.8,4.3-4,3.5c-8-1.9-16.1-3.5-24.2-5c-2.6-0.5-3.5-1.8-3.5-4.4
			c0.1-23.4,0.1-46.7,0-70.1c0-2.7,0.7-4.1,3.6-4c8.1,0.1,16.2-0.1,24.3-0.4c3.1-0.1,4,1.1,4,4.4c-0.1,12.8,0,25.6,0,38.4
			C327.8,307.8,327.7,307.8,327.7,307.8z"/>
		<path class="st3" d="M293,304c0,11.3,0,22.7,0,34c0,4.6,0,4.6-4.4,3.7c-10.8-2.2-21.7-4.4-32.6-6.4c-2.5-0.5-3.3-1.7-3.3-4.2
			c0.1-20.2,0.1-40.4,0-60.6c0-3.1,1.4-3.6,3.9-3.7c11-0.4,22.1-0.8,33.1-1.3c2.6-0.1,3.4,0.9,3.4,3.6
			C292.9,280.7,293,292.4,293,304z"/>
		<path class="st3" d="M331,348c-0.6-1-0.3-2.3-0.3-3.4c0-25,0-50.1-0.1-75.2c0-3.5,0.8-4.6,4.1-4.2c9.4,1,18.8,1.8,28.2,2.5
			c2.4,0.2,3.4,1.1,3.5,3.8c0.6,18.1,0.2,36.4,0.4,54.6c0,1.9-0.6,3.3-2.3,4.2c-11,5.9-22.1,11.9-33.2,17.8
			C331.4,348.2,331.3,348.1,331,348z"/>
		<path class="st3" d="M327.7,360c0,6.8,0,6.8-6.4,5.3c-59.9-14.3-119.8-28.6-179.7-42.9c-1.1-0.3-2.3-0.4-3.2-1
			c-1.8-1.1-2.4-3.1-1.8-5.1c0.6-1.9,2.3-1.1,3.5-0.9c28,5.6,55.9,11.2,84,16.8c32.6,6.5,65.1,13,97.8,19.5
			C327.7,353,327.7,352.9,327.7,360z"/>
		<path class="st3" d="M175,262.7c0,17.3-0.1,34.5,0.1,51.9c0,3.4-0.7,4.5-4,3.5s-6.7-1.4-10.1-2c-2.4-0.4-3.7-1.4-3.7-4.4
			c0.1-32.4,0.1-64.9,0-97.4c0-2.6,1.1-3.8,3.3-4.4c3.7-0.9,7.4-1.8,11.1-2.9c2.8-0.8,3.4,0.1,3.4,3
			C174.9,227.6,175,245.1,175,262.7z"/>
		<path class="st3" d="M194.2,262.3c0,18.7-0.1,37.4,0.1,56.2c0,3.3-0.6,4.5-3.9,3.5c-3-1-6.2-1.3-9.4-1.8c-2-0.4-2.9-1.3-2.9-3.6
			c0.1-35.9,0.1-71.8,0-107.7c0-2.4,0.9-3.7,3-4.2c3.3-0.8,6.4-1.6,9.6-2.5c2.7-0.8,3.7-0.1,3.7,3.1
			C194.1,224.3,194.2,243.3,194.2,262.3z"/>
		<path class="st3" d="M267.4,220.6c0-11.1,0.1-22.2-0.1-33.3c0-3.2,0.7-3.9,3.5-2.6c13.5,5.9,27.1,11.6,40.7,17.4
			c2.5,1.1,3.3,2.6,3.3,5.4c-0.4,15-0.8,30.1-0.9,45.1c0,3.1-1,4.1-3.8,4.1c-12.9,0.1-25.8,0.3-38.7,0.8c-3.4,0.1-4.1-1.1-4.1-4.4
			C267.5,242.3,267.4,231.5,267.4,220.6z"/>
		<path class="st3" d="M249.7,300.9c0,9.9-0.1,19.8,0.1,29.7c0,2.7-0.9,3.5-3.2,2.9c-7.2-1.5-14.4-3.1-21.6-4.5
			c-2.6-0.5-3.4-2-3.4-4.6c0.1-17.5,0.1-35.1,0-52.6c0-2.9,0.9-3.9,3.7-3.9c7-0.1,14-0.4,21-0.8c2.8-0.1,3.6,0.9,3.6,3.8
			C249.6,280.8,249.7,290.8,249.7,300.9z"/>
		<path class="st3" d="M241.3,223.7c0,10-0.1,20.1,0.1,30.1c0.1,3.7-1.1,4.8-4.3,4.8c-7.2,0-14.5,0.3-21.7,0.7
			c-2.5,0.1-3.3-0.9-3.2-3.4c0.1-1.7,0-3.4,0-5.1c0-16.3,0.1-32.7-0.1-49.1c-0.1-3.7,1.1-5.4,4.5-6.1c7.1-1.6,14.1-3.5,21-5.6
			c3.2-1,3.8,0.2,3.7,3.3C241.3,203.3,241.3,213.5,241.3,223.7z"/>
		<path class="st3" d="M264.4,220.3c0,11.1-0.1,22.2,0.1,33.2c0,3.5-1.1,4.7-4.3,4.6c-4-0.1-8.1-0.2-12.1,0.1
			c-3,0.3-3.8-0.8-3.8-3.9c0.1-13.2,0.1-26.4,0.1-39.6c0-7.6,0.1-15.3-0.1-23c-0.1-2.7,0.8-4,3.3-4.6c4.5-1.1,9.1-2.2,13.6-3.6
			c2.7-0.8,3.4,0.1,3.3,2.9C264.4,197.9,264.4,209.1,264.4,220.3z"/>
		<path class="st3" d="M153.9,263.5c0,15.7-0.1,31.4,0.1,47.1c0.1,3.1-0.7,4-3.5,3.3c-3.5-0.9-7.2-1.4-10.8-2
			c-1.1-0.2-2.7-0.3-2.8-1.5c-0.3-3.9-3.3-6.6-3.2-10.8c0.2-8.9-0.1-17.9-0.2-26.9c0-2.1-0.5-4.4,2-5.8c1.3-0.6,0.9-9.8-0.3-10.4
			c-1.8-0.9-1.8-2.3-1.8-3.9c0-10.5,0.1-21.1-0.1-31.6c-0.1-2.8,0.9-4,3.4-4.5c4.1-0.9,8.1-2.1,12.1-3.1c5-1.3,5-1.3,5,4.1
			C153.9,232.7,153.9,248.1,153.9,263.5z"/>
		<path class="st3" d="M218.5,297.9c0,8.7-0.1,17.4,0.1,26.1c0.1,3-1,3.6-3.5,3c-4.7-1-9.3-2.1-14.1-2.9c-3.1-0.4-3.9-2.3-3.8-5.1
			c0.6-13.3,0.1-26.6,0.3-39.9c0-1,0.1-2.1,0-3.1c-0.2-7.6-0.3-7.6,6.9-8c3.5-0.2,7.1,0,10.7-0.2c2.6-0.1,3.5,0.9,3.4,3.6
			C218.4,280.2,218.5,289.1,218.5,297.9z"/>
		<path class="st3" d="M208.8,228.7c0,8.8-0.1,17.7,0.1,26.5c0.1,3.3-1.1,4.4-4,4.3c-7.9-0.2-7.5,0.9-7.4-7.7
			c0.1-15.7,0.1-31.4-0.1-47c-0.1-3.4,1-4.8,4.2-5.4c7.2-1.3,7.2-1.6,7.2,6.4C208.8,213.4,208.8,221.1,208.8,228.7z"/>
		<path class="st3" d="M330.8,359.7c-0.4-6.3,0.3-7.3,5.4-10c9.2-5,18.4-9.8,27.5-14.9c2.5-1.4,3.2-1.1,3.3,2c0,3.6-1.2,5.9-4,7.7
			c-9.4,6.1-18.8,12.4-28.2,18.6c-1.1,0.7-2.2,2.4-3.5,1.7c-1.3-0.7-0.4-2.6-0.6-4C330.7,360.6,330.8,360.2,330.8,359.7z"/>
		<path class="st3" d="M198,262.9c42.9-1.1,85.8-2.2,128.7-3.2c0,0.5,0,1,0,1.5c-42.9,1.2-85.8,2.4-128.7,3.6
			C198.1,264.2,198,263.6,198,262.9z"/>
		<path class="st4" d="M280.5,290.4c0.1,6.6-4.4,12.3-9.7,12.2c-5.1,0-9.2-5.2-9.3-11.6c-0.1-6.8,4.2-12.5,9.4-12.4
			C276,278.5,280.4,283.9,280.5,290.4z"/>
		<path class="st4" d="M344.2,296.1c0-5.4,0.1-10.8,0-16.2c-0.1-3,1.1-3.9,3.8-3.7c2.8,0.1,5.6,0.1,8.4,0c2.3-0.1,3.3,0.7,3.2,3.4
			c-0.1,9.2-0.1,18.4,0,27.7c0,2-0.6,3.1-2.4,3.8c-3.3,1.3-6.6,2.8-9.9,4.3c-2.2,1-3.2,0.5-3.1-2.2
			C344.2,307.4,344.2,301.8,344.2,296.1z"/>
		<path class="st4" d="M272.6,198.8c9.1,2.8,18,5.6,27,8.4c3.6,1.1,7.3,2.4,10.9,3.4c1.4,0.4,2.5,0.9,2,2.5s-1.8,1.1-2.8,0.8
			c-12.4-3.7-24.7-7.5-37.1-11.3c-1.2-0.4-2.4-1.1-2.1-2.8C270.6,198.4,271.8,198.9,272.6,198.8z"/>
		<path class="st4" d="M274.6,232.9c11.6,1.3,23.2,2.7,34.7,4.2c1.3,0.1,3,0.1,2.9,2.2c-0.2,2.3-2,1.6-3.2,1.4
			c-11.6-1.4-23.1-2.7-34.7-4.2c-1.4-0.2-4.2,0.5-3.8-2.4C270.9,231.7,273.2,233.1,274.6,232.9z"/>
		<path class="st4" d="M273.4,224.2c12.2,1.9,24.4,3.8,36.5,5.8c1.1,0.2,2.6,0.4,2.4,2.3c-0.3,2.1-1.8,1.3-2.9,1.1
			c-11.8-1.8-23.5-3.6-35.3-5.5c-0.3-0.1-0.7-0.1-1.1-0.2c-1.2-0.3-2.7-0.5-2.5-2.3C270.8,223.7,272.3,224.2,273.4,224.2z"/>
		<path class="st4" d="M272.2,215.7c12.9,2.7,25.3,5.2,37.7,7.8c1.4,0.3,2.8,1.1,2.3,2.9c-0.5,1.6-1.9,0.8-2.8,0.6
			c-12-2.5-24.1-5-36.1-7.5c-1.4-0.3-2.9-0.5-2.8-2.4C270.5,215.7,271.6,215.7,272.2,215.7z"/>
		<path class="st4" d="M312.9,206.4c-0.9,2.3-2.4,1.3-3.5,0.9c-6.8-2.4-13.7-4.9-20.6-7.3c-5.3-1.9-10.7-3.9-16-5.8
			c-1.3-0.4-2.9-0.9-2.3-2.8c0.7-2.3,2.3-0.8,3.4-0.3c12,4.2,23.9,8.5,35.9,12.8C311.1,204.2,312.8,204.5,312.9,206.4z"/>
		<path class="st3" d="M364.3,263.9c-0.1,1.9-1.3,1.5-2.1,1.4c-5.1-0.5-10.2-1.1-15.3-1.6c-4-0.4-8-0.9-11.9-1.3
			c-1-0.1-2.1-0.1-2.1-1.7c0-1.9,1.4-1,2.2-1c8.9,0.9,17.8,1.8,26.7,2.8C362.6,262.6,363.8,262.5,364.3,263.9z"/>
		<path class="st4" d="M272.6,207.3c12.6,3.3,25.3,6.5,37.9,9.8c1.2,0.4,2.1,1,1.8,2.5c-0.4,1.9-1.5,1.1-2.6,0.9
			c-12.3-3.2-24.6-6.4-36.9-9.5c-1.3-0.4-2.6-0.6-2.4-2.4C270.5,207.1,271.4,206.8,272.6,207.3z"/>
		<path class="st4" d="M305,246.2c-10.1-0.5-20.3-1-30.4-1.6c-0.5-0.1-1-0.1-1.4-0.1c-1.2-0.2-2.8-0.1-2.6-2
			c0.1-1.9,1.5-1.7,2.8-1.6c6,0.3,12,0.6,18,1s11.9,0.9,17.9,1.4c1.1,0.1,2.9-0.3,2.9,1.5c0,2.3-1.9,1.6-3,1.6
			c-1.3,0.1-2.7,0.1-4,0.1C305,246.3,305,246.3,305,246.2z"/>
		<path class="st4" d="M291.3,252.9c-5.9,0-11.8,0-17.7,0c-1.3,0-3,0.4-3-1.8c0-1.9,1.6-1.6,2.8-1.6c12,0.1,24.1,0.1,36.2,0.1
			c1.1,0,2.5-0.3,2.5,1.5c0,1.9-1.4,1.8-2.6,1.8C303.3,252.9,297.3,252.9,291.3,252.9z"/>
		<path class="st4" d="M217.7,215.6c-0.1-6.3,3.2-11,8-11.2c4.8-0.1,8.7,4.4,8.8,10.5s-3.7,11.4-8.4,11.5
			C221.4,226.6,217.9,222,217.7,215.6z"/>
		<path class="st4" d="M151.2,236.9c0,5.1-0.1,10.2,0.1,15.4c0.1,3.1-1.1,4.3-3.9,4.1c-2.5-0.1-5.2-0.1-7.7-0.1
			c-2.1,0.1-3.1-1-3.1-3.3c0.1-9.6,0.1-19.2,0-28.8c0-1.9,0.7-2.9,2.4-3.2c3-0.6,5.9-1.4,8.9-2.3c2.6-0.8,3.3,0.3,3.3,2.9
			C151.2,226.6,151.2,231.7,151.2,236.9z"/>
		<path class="st4" d="M264.7,290.4c0-1.3,0-2.8,0.8-4.2c1.1-2.3,2.7-4.1,5.4-4.1c2.5,0,3.9,1.8,5.1,3.9c1.3,2.5,1.3,5.1,0.7,7.6
			c-0.9,3.6-3.8,5.9-6.6,5.4C266.9,298.5,264.8,295.2,264.7,290.4z"/>
		<path class="st4" d="M347.1,295.9c0-4.2,0-8.4,0-12.6c0-2.3,0.9-3.6,3-3.5c2.3,0.2,5.2-1,6,2.8c0.2,1.1,0.4,2,0.4,3.1
			c0,6.3,0.1,12.6,0,18.9c0,2.5-6.5,7.2-8.4,6.3c-1.1-0.5-0.9-1.8-0.9-2.7C347.1,304,347.1,299.9,347.1,295.9z"/>
		<path class="st4" d="M231.4,214.9c0,4.2-2.4,7.9-5.1,8c-3,0.1-5.5-3.3-5.5-7.6c0-4.1,2.6-7.6,5.6-7.6
			C229.1,207.8,231.4,211.1,231.4,214.9z"/>
		<path class="st4" d="M147.8,237.4c0,4.2,0.1,8.4,0,12.6c-0.1,4.1-3,2.3-4.9,2.6c-2.1,0.4-2.8-0.8-2.7-2.9
			c0.1-7.2-0.1-14.5-0.1-21.7c0-3.5,3.7-6.4,6.7-5.4c1.4,0.4,1.1,1.6,1.1,2.6C147.8,229.2,147.8,233.3,147.8,237.4z"/>
	</g>
</g>
<g>
	<g>
		<path class="st5" d="M485.4,187.8c5.7,0,11.2,0.1,16.7-0.1c2.4-0.1,4.3,0.3,4.3,3.2c3.6,0,7,0,10.5,0c3.6,0,3.8,0.3,3.9,3.5
			c0,0.4,0.1,0.8,0.2,1.4c6.2,0,12.5,0,18.8,0c0.6-2.7,1-5.3,1.6-7.9c4.7-21.2,24.2-38.9,47.1-42.9c24.1-4.2,48.1,5.6,61.4,25.2
			c16.8,24.7,11.1,57.6-13.4,75.9c-7.4,5.6-15.8,9.3-25.2,11.1c-1.9,0.3-2.5,1-2.5,2.9c0.1,17.6,0.1,35.1,0.1,52.6
			c0,0.8,0,1.7,0,2.7c1,0.1,1.8,0.1,2.7,0.1c5.9,0,11.7,0,17.6,0c3.1,0,3.6,0.5,3.6,3.2c0,15,0,30,0,44.9c0,2.7-0.6,3.1-3.5,3.1
			c-28.8,0-57.5,0-86.3,0c-1,0-2,0-3.3,0c0,1.2,0,2.2,0,3.2c-0.1,5.6-3.9,9.2-9.9,9.2c-3.6,0.1-7.2,0.1-10.8,0
			c-5.8-0.1-9.5-3.7-9.6-9c0-0.7,0.2-1.5-0.1-2.1c-0.3-0.6-0.9-1.2-1.5-1.3c-1-0.2-2.1-0.1-3.2-0.1c-27.2,0-54.4,0-81.5,0
			c-3.6,0-3.9-0.3-3.9-3.6c0-14.8,0-29.5,0-44.3c0-3,0.5-3.4,3.7-3.4c5.4,0,10.8,0,16.2,0c0.8,0,1.6,0,3.1,0c0-5-0.1-9.8,0-14.6
			c0.1-6,4.1-9.7,10.5-9.7c1.2,0,2.2,0,3.7,0c0-1,0.2-1.8,0.2-2.6c0-11.6,0-23.1,0.1-34.7c0-1.5-0.3-2.3-2.1-2.8
			c-4.3-1.2-6.9-4.7-7.1-9c0-1.5,0-2.9,0-4.5c-4.6-0.7-7.9-2.6-8.8-6.8c-0.4-1.8-0.4-3.7-0.1-5.4c0.5-3,3.1-4.8,6.9-4.9
			c2.7-0.1,5.2,0,8.2,0c0-1,0-1.8,0-2.6c0-19-0.1-38,0.1-57c0-1.9-0.5-2.6-2.7-2.5c-3.1,0.2-3.5-0.3-3.6-3.2c0-2-0.1-4.1,0-6.1
			c0.1-4.8,3.6-8.1,8.7-8.1c8.8-0.1,17.4-0.1,26.1,0c5.1,0.1,8.6,3.3,8.9,8c0.1,2.2-0.1,4.5,0.1,6.7c0.1,2-0.8,3-2.9,2.7
			s-2.7,0.6-2.7,2.5c0.1,8.2,0.1,16.3,0.1,24.5C485.2,186.1,485.3,186.8,485.4,187.8z M539.4,315.3c15.2,0,30,0,44.8,0
			c0.1-0.4,0.2-0.7,0.2-1c0-18.8,0-37.6,0.1-56.4c0-1.4-0.8-1.6-1.8-1.9c-17.1-5-29.5-15-37-29.9c-2.6-5.1-4.1-10.6-6.1-16.1
			c-5.9,0-12.3,0-18.8,0c-0.1,0.9-0.1,1.6-0.1,2.2c-0.1,2.9-0.4,3.2-3.5,3.3c-3,0-6,0.1-9,0c-1.4-0.1-2.1,0.4-2,1.8
			c0.1,1.4,0.1,2.8,0,4.2c-0.1,2.7-0.5,3.1-3.3,3.1c-1.1,0-2.2,0-3.6,0c0,2,0,3.6,0,5.3c-0.1,4.6-2.7,7.3-7.6,7.7
			c-1.2,0.1-1.6,0.5-1.6,1.5c0.1,1.8,0.1,3.7-0.1,5.4c-0.1,3.5-2.4,6.1-6,7c-1,0.3-1.9,0.3-2.9,0.5c0,13.1,0,26.1,0,39.1
			c7.2,0.8,9.6,3.3,9.7,9.8c0.1,3.8,0.3,7.5,0.4,11.3c0.1,1.1,0.1,2.2,0.2,3.2c6,0,11.8,0,17.7,0c0-1.6-0.1-3.1,0-4.6
			c0.1-5.1,3.9-8.7,9.4-8.8c3.6-0.1,7.2-0.1,10.8,0c6.3,0.1,10,3.5,10.1,9.4C539.4,312.6,539.4,314,539.4,315.3z M598.3,148.1
			c-6.4-0.1-13.6,1.3-20.4,4c-32.8,13.2-44.6,51.7-24.6,79.2c18.1,24.8,53.1,30.9,78.3,13c19-13.4,26.1-31.7,22-53.5
			C649.1,166.1,626,148.2,598.3,148.1z M423.5,362.6c28.7,0,57.1,0,85.5,0c0-14.5,0-28.8,0-43.2c-6.1,0-12.1,0-18,0
			c-3.4,0-3.9-0.5-3.9-3.7c-0.1-5.3-0.3-10.6-0.4-15.9c-0.1-3.5-1.6-4.8-5.3-4.8c-9.6,0-19.2,0-28.8,0c-4.2,0-6.2,1.9-6.3,5.7
			c-0.1,5.1-0.3,10.2-0.4,15.3c-0.1,2.8-0.7,3.3-3.6,3.3c-5.2,0-10.4,0-15.5,0c-1.1,0-2.2,0-3.3,0
			C423.5,334,423.5,348.2,423.5,362.6z M628,319.5c-0.8,0-1.4-0.1-1.9-0.1c-6.2,0-12.3,0-18.5,0c-2.6,0-3.2-0.6-3.2-3
			c0-2.2,0-4.5,0-6.7c0-2.6,0-5.1,0-7.7c-5.5,0-10.6,0-15.9,0c0,4.6,0,9,0,13.4c0,3.7-0.3,4-4.4,4c-14,0-28.1,0-42.1,0
			c-0.9,0-1.8,0.1-2.7,0.1c0,14.5,0,28.8,0,43.1c29.6,0,59,0,88.5,0C628,348.1,628,333.9,628,319.5z M501.8,191.8
			c-1-0.1-1.7-0.1-2.4-0.1c-4.5,0-9,0-13.5,0c-4.8,0-4.8,0-4.8-4.6c0-8.8-0.1-17.6,0.1-26.3c0-1.6-0.5-2.2-2.3-2.2
			c-6.3,0.1-12.6,0.1-18.9,0c-2.2-0.1-2.8,0.6-2.8,2.6c0.1,19,0,38,0,57c0,0.8,0,1.5,0,2.4c15.1,0,29.8,0,44.6,0
			C501.8,210.9,501.8,201.5,501.8,191.8z M460.5,251.8c0,13.2,0,26.2,0,39.2c5.5,0,10.8,0,16.1,0c0-13.1,0-26.1,0-39.2
			C471.3,251.8,466,251.8,460.5,251.8z M588.8,257.9c0,13.2,0,26.5,0,39.9c5.2,0,10.3,0,15.5,0c0-13.2,0-26.3,0-39.3
			C599.1,258.3,594,258.1,588.8,257.9z M469.4,224.6c-8,0-15.9,0-23.9,0c-1.7,0-3.1,0.3-3.3,2.1c-0.6,4.3,0.9,7.1,6.2,7.1
			c13.2-0.2,26.3-0.1,39.4-0.1c7.1,0,7.4-0.3,7.4-7c0-1.7-0.7-2.1-2.4-2.1C485,224.6,477.2,224.6,469.4,224.6z M451.4,237.7
			c0,1.9-0.2,3.7,0.1,5.5c0.4,2.5,2.7,4.5,5.4,4.5c8.5,0.1,17,0.1,25.4,0.1c1.9,0,3.4-1,3.5-2.7c0.3-2.4,0.1-5,0.1-7.4
			C474.2,237.7,462.9,237.7,451.4,237.7z M468.6,154.9c4.4,0,8.9,0,13.3,0c4.8,0,4.8,0,4.7-4.4c-0.1-3.7-1.8-5.2-5.6-5.2
			c-7.2,0-14.4,0.2-21.6-0.1c-7.9-0.3-8.3,1.7-8.2,7.9c0.1,1.5,0.6,1.9,2.1,1.9C458.4,154.8,463.5,154.9,468.6,154.9z M513.5,338.3
			c7.3,0,14.5,0,21.8,0c0-4.2-0.1-8.1,0-12.1c0-1.4-1-1.4-2-1.4c-5.1,0-10.1,0-15.1,0c-1.6,0-3.1,0-4.8,0
			C513.5,329.6,513.5,334,513.5,338.3z M513.5,342.5c0,4.3,0,8.5,0,12.8c1.1,0,2,0.1,2.9,0.1c4.8,0,9.5,0,14.2,0
			c4.8,0,4.8,0,4.8-4.3c0-2.9,0-5.6,0-8.6C527.8,342.5,520.8,342.5,513.5,342.5z M513.4,359.2c0,2.8-0.1,5.2,0.1,7.7
			c0,0.4,1,1,1.6,1c6.2,0.1,12.5,0.1,18.7,0.1c1.2,0,1.6-0.4,1.6-1.5c0-1.8-0.1-3.6,0-5.4c0.1-1.4-0.5-1.9-2-1.8
			c-3.5,0.1-7.1,0-10.6,0C519.7,359.2,516.7,359.2,513.4,359.2z M516.2,211.6c0-5.6,0-11.1,0-16.7c-3.4,0-6.7,0-10,0
			c0,5.7,0,11.1,0,16.7C509.6,211.6,512.7,211.6,516.2,211.6z M535.3,313.4c-7.5,0-14.7,0-21.8,0c0,2.7,0,5.2,0,7.8
			c6.9,0,13.6,0.1,20.3,0c0.5,0,1.4-0.8,1.4-1.2C535.3,317.8,535.3,315.7,535.3,313.4z M520.7,205.9c6.3,0,12.4,0,18.6,0
			c0-2,0-3.9,0-5.8c-6.3,0-12.4,0-18.6,0C520.7,202.1,520.7,203.8,520.7,205.9z M513.8,371.8c0.6,2.2,2.3,3.2,4.3,3.3
			c4.2,0.2,8.4,0.2,12.6,0c2-0.1,3.6-1.2,4.1-3.3C527.7,371.8,520.8,371.8,513.8,371.8z M513.8,309.1c7.2,0,14,0,21.1,0
			c-1-2.3-2.7-3.2-4.9-3.3c-3.8-0.1-7.5-0.1-11.3,0C516.5,305.9,514.7,306.7,513.8,309.1z"/>
		<path class="st6" d="M598.3,148.1c27.7,0.1,50.8,18.1,55.5,42.8c4.1,21.8-3,40.1-22,53.5c-25.3,17.8-60.2,11.8-78.3-13
			c-20.1-27.6-8.2-66.1,24.6-79.3C584.8,149.3,591.9,147.9,598.3,148.1z M627.1,226.1c0.4-0.6,0.7-0.9,1-1.2
			c8.9-10.3,11.5-21.8,7.6-34.5c-6.4-20.8-31.4-31.4-52.4-22.1c-15.7,6.9-24.2,22.6-21.4,39.4s19.2,29.8,37.4,29.8
			c8.6-0.1,16.4-2.6,23.1-7.5c1.3-1,2-0.9,2.9,0.2c1,1.1,2,2.1,3.1,3.1c1,1,2.1,1.5,3.3,0.4s0.8-2.1-0.3-3.1
			C630,229.1,628.6,227.7,627.1,226.1z"/>
		<path class="st6" d="M423.5,362.6c0-14.4,0-28.6,0-43.2c1.2,0,2.2,0,3.3,0c5.2,0,10.4,0,15.5,0c2.9,0,3.5-0.6,3.6-3.3
			c0.1-5.1,0.3-10.2,0.4-15.3c0.1-3.9,2.2-5.7,6.3-5.7c9.6,0,19.2,0,28.8,0c3.7,0,5.2,1.3,5.3,4.8c0.2,5.3,0.3,10.6,0.4,15.9
			c0.1,3.2,0.6,3.7,3.9,3.7c6,0,11.9,0,18,0c0,14.5,0,28.8,0,43.2C480.5,362.6,452.1,362.6,423.5,362.6z M468.5,344.5c9,0,18,0,27,0
			c0.7,0,1.5,0.2,2-0.1c0.8-0.5,1.6-1.2,1.6-1.9c0.1-0.6-0.8-1.4-1.4-1.8c-0.6-0.3-1.5-0.2-2.2-0.2c-17.9,0-35.9,0-53.8,0
			c-0.6,0-1.4-0.2-1.8,0.1c-0.8,0.5-1.8,1.3-1.8,2s1.1,1.4,1.8,1.9c0.4,0.3,1.2,0.1,1.8,0.1C450.7,344.5,459.6,344.5,468.5,344.5z
			 M468.7,329.2c-9.2,0-18.5,0-27.7,0c-1.6,0-3.1,0.2-3,2s1.6,2,3.1,2c0.2,0,0.3,0,0.5,0c18.1,0,36.2,0,54.3,0c0.7,0,1.5,0.1,2-0.2
			c0.6-0.5,1.3-1.2,1.3-1.9c0.1-0.6-0.8-1.4-1.4-1.6c-0.6-0.3-1.5-0.2-2.2-0.2C486.6,329.2,477.7,329.2,468.7,329.2z M468.7,355.8
			c8.9,0,17.7,0,26.6,0c0.6,0,1.4,0.2,1.8-0.1c0.8-0.5,1.5-1.3,2.2-1.9c-0.8-0.7-1.4-1.4-2.2-1.9c-0.4-0.3-1,0-1.6,0
			c-18,0-35.9,0-53.8,0c-0.7,0-1.6-0.2-2,0.2c-0.7,0.5-1.5,1.3-1.6,2c-0.1,0.6,0.9,1.4,1.6,1.7c0.6,0.3,1.5,0.1,2.2,0.1
			C450.8,355.8,459.8,355.8,468.7,355.8z"/>
		<path class="st6" d="M628,319.5c0,14.5,0,28.7,0,43.1c-29.5,0-58.9,0-88.5,0c0-14.3,0-28.6,0-43.1c1,0,1.8-0.1,2.7-0.1
			c14,0,28.1,0,42.1,0c4.1,0,4.4-0.3,4.4-4c0-4.4,0-8.8,0-13.4c5.3,0,10.4,0,15.9,0c0,2.6,0,5.2,0,7.7c0,2.2,0,4.5,0,6.7
			c0,2.4,0.6,3,3.2,3c6.2,0,12.3,0,18.5,0C626.7,319.4,627.2,319.5,628,319.5z M598.8,341.3c-6.6,0-13.2,0-19.8,0
			c-1.6,0-3.1,0.3-3.1,2s1.4,2,3.1,2c13.1,0,26.2,0,39.3,0c1.6,0,3.1-0.2,3.1-2s-1.4-2-3-2C611.8,341.4,605.3,341.4,598.8,341.3z
			 M598.7,329.2c-6.6,0-13.2,0-19.8,0c-1.5,0-2.9,0.3-3,1.9c0,1.8,1.4,2.1,3,2.1c13.2,0,26.3,0,39.4,0c1.5,0,3.1-0.1,3-2
			c0-1.9-1.5-2-3.1-2C611.7,329.2,605.2,329.2,598.7,329.2z M598.5,356.5c6.6,0,13.2,0,19.8-0.1c1,0,2.4-0.7,2.8-1.4
			c0.8-1.4-0.5-2.5-2.7-2.5c-10.2,0-20.4,0-30.6,0c-3.3,0-6.5-0.1-9.7,0.1c-0.8,0.1-1.5,1.2-2.3,1.8c0.8,0.7,1.4,1.5,2.2,2
			c0.4,0.3,1.2,0.1,1.8,0.1C586.1,356.5,592.3,356.5,598.5,356.5z"/>
		<path class="st6" d="M501.8,191.8c0,9.8,0,19.2,0,28.8c-14.8,0-29.6,0-44.6,0c0-0.9,0-1.6,0-2.4c0-19,0.1-38-0.1-57
			c0-2,0.6-2.7,2.8-2.6c6.3,0.1,12.6,0.1,18.9,0c1.8-0.1,2.3,0.6,2.3,2.2c-0.1,8.8-0.1,17.6-0.1,26.3c0,4.6,0,4.6,4.8,4.6
			c4.5,0,9,0,13.5,0C500.2,191.6,500.9,191.7,501.8,191.8z"/>
		<path class="st6" d="M460.5,251.8c5.4,0,10.7,0,16.1,0c0,13.1,0,26.1,0,39.2c-5.4,0-10.7,0-16.1,0
			C460.5,278.1,460.5,265.1,460.5,251.8z"/>
		<path class="st6" d="M588.8,257.9c5.2,0.2,10.3,0.4,15.5,0.7c0,13,0,26,0,39.3c-5.2,0-10.3,0-15.5,0
			C588.8,284.4,588.8,271.1,588.8,257.9z"/>
		<path class="st6" d="M469.4,224.6c7.8,0,15.6,0.1,23.4-0.1c1.7,0,2.4,0.4,2.4,2.1c0,6.7-0.2,7-7.4,7c-13.2,0-26.3-0.1-39.4,0.1
			c-5.3,0.1-6.8-2.8-6.2-7.1c0.3-1.8,1.7-2.1,3.3-2.1C453.6,224.6,461.5,224.6,469.4,224.6z"/>
		<path class="st6" d="M451.4,237.7c11.5,0,22.9,0,34.5,0c0,2.5,0.2,5-0.1,7.4c-0.2,1.7-1.7,2.7-3.5,2.7c-8.5,0.1-17,0.1-25.4-0.1
			c-2.7-0.1-5.1-2-5.4-4.5C451.2,241.5,451.4,239.6,451.4,237.7z"/>
		<path class="st6" d="M468.6,154.9c-5.1,0-10.2-0.1-15.3,0.1c-1.6,0-2-0.4-2.1-1.9c-0.2-6.2,0.3-8.1,8.2-7.9
			c7.2,0.2,14.4,0.1,21.6,0.1c3.9,0,5.6,1.6,5.6,5.2c0.1,4.4,0.1,4.4-4.7,4.4C477.5,154.9,473.1,154.9,468.6,154.9z"/>
		<path class="st6" d="M513.5,338.3c0-4.4,0-8.8,0-13.4c1.7,0,3.2,0,4.8,0c5.1,0,10.1,0,15.1,0c1,0,2-0.1,2,1.4c0,4,0,7.9,0,12.1
			C527.9,338.3,520.8,338.3,513.5,338.3z"/>
		<path class="st6" d="M513.5,342.5c7.3,0,14.3,0,21.8,0c0,2.9,0,5.7,0,8.6c0,4.4,0,4.3-4.8,4.3s-9.5,0-14.2,0
			c-0.9,0-1.8-0.1-2.9-0.1C513.5,350.9,513.5,346.8,513.5,342.5z"/>
		<path class="st6" d="M513.4,359.2c3.3,0,6.4,0,9.4,0c3.5,0,7.1,0.1,10.6,0c1.5,0,2,0.5,2,1.8c-0.1,1.8-0.1,3.6,0,5.4
			c0,1.1-0.5,1.5-1.6,1.5c-6.2,0-12.5,0-18.7,0c-0.6,0-1.6-0.6-1.6-1C513.3,364.4,513.4,361.9,513.4,359.2z"/>
		<path class="st6" d="M516.2,211.6c-3.5,0-6.7,0-10,0c0-5.6,0-11.1,0-16.7c3.3,0,6.7,0,10,0C516.2,200.6,516.2,206,516.2,211.6z"/>
		<path class="st6" d="M535.3,313.4c0,2.3,0.1,4.5-0.1,6.6c-0.1,0.4-0.9,1.2-1.4,1.2c-6.7,0.1-13.5,0-20.3,0c0-2.7,0-5.1,0-7.8
			C520.6,313.4,527.7,313.4,535.3,313.4z"/>
		<path class="st6" d="M520.7,205.9c0-2.1,0-3.9,0-5.8c6.2,0,12.3,0,18.6,0c0,1.9,0,3.8,0,5.8C533.1,205.9,527,205.9,520.7,205.9z"
			/>
		<path class="st6" d="M513.8,371.8c7.1,0,13.9,0,21,0c-0.6,2.1-2.2,3.2-4.1,3.3c-4.2,0.2-8.4,0.2-12.6,0
			C516.1,375,514.4,374,513.8,371.8z"/>
		<path class="st6" d="M513.8,309.1c0.9-2.4,2.7-3.2,5-3.3c3.8-0.1,7.5-0.1,11.3,0c2.2,0.1,4,1,4.9,3.3
			C527.7,309.1,520.9,309.1,513.8,309.1z"/>
		<path class="st5" d="M627.1,226.1c1.6,1.6,2.9,3,4.4,4.4c1,1,1.4,2.1,0.3,3.1c-1.2,1.1-2.4,0.6-3.3-0.4c-1-1-2.1-2-3.1-3.1
			s-1.7-1.2-2.9-0.2c-6.8,5-14.5,7.5-23.1,7.5c-18.3,0.1-34.7-13-37.4-29.8c-2.8-16.8,5.7-32.5,21.4-39.4c21-9.3,46,1.3,52.4,22.1
			c3.9,12.7,1.3,24.2-7.6,34.5C627.7,225.3,627.5,225.6,627.1,226.1z M623.9,223c11.1-10.5,13.4-30.8-0.6-44.5
			c-12.9-12.7-34.3-13-47.6-0.7c-14.1,13-13.8,34.7,0.6,47.2c14.4,12.5,34.3,9.9,44.5,0.8c-5.2-5.3-10.5-10.5-15.7-15.8
			c-0.6,0.3-1.2,0.6-1.7,0.8c-4.1,1.6-8.9,0.7-11.9-2.2c-3.2-3-4.1-7.6-2.4-11.4c1.8-4,5.7-6.4,10.2-6.3c7.9,0.1,13,7.9,9.6,14.7
			c-0.7,1.3-0.6,2.1,0.6,3.1c2.2,2,4.1,4.1,6.2,6.1C618.5,217.5,621.2,220.3,623.9,223z M605,204c1.7-2.8,0.9-6-1.8-7.9
			c-2.6-1.8-6.3-1.6-8.6,0.6c-2.4,2.2-2.7,5.9-0.7,8.4s5.1,3.3,8.1,1.8c-1.3-1.3-2.6-2.6-3.8-3.8c-1.1-1.1-1.5-2.2-0.2-3.3
			c1.3-1,2.4-0.3,3.3,0.6C602.5,201.5,603.7,202.7,605,204z"/>
		<path class="st4" d="M468.5,344.5c-9,0-17.8,0-26.8,0c-0.6,0-1.4,0.2-1.8-0.1c-0.8-0.5-1.9-1.3-1.8-1.9c0-0.7,1.1-1.4,1.8-2
			c0.4-0.3,1.2-0.1,1.8-0.1c17.9,0,35.9,0,53.8,0c0.8,0,1.6-0.1,2.2,0.2c0.7,0.4,1.5,1.2,1.4,1.8c-0.1,0.7-0.9,1.5-1.6,1.9
			c-0.5,0.3-1.3,0.1-2,0.1C486.5,344.5,477.5,344.5,468.5,344.5z"/>
		<path class="st4" d="M468.7,329.2c9,0,17.9,0,26.8,0c0.8,0,1.6-0.1,2.2,0.2c0.6,0.3,1.4,1.1,1.4,1.6c0,0.7-0.7,1.5-1.3,1.9
			c-0.5,0.3-1.3,0.2-2,0.2c-18.1,0-36.2,0-54.3,0c-0.2,0-0.3,0-0.5,0c-1.6,0.1-3.1-0.2-3.1-2c-0.1-1.8,1.5-2,3-2
			C450.3,329.2,459.5,329.2,468.7,329.2z"/>
		<path class="st4" d="M468.7,355.8c-9,0-17.9,0-26.8,0c-0.8,0-1.6,0.2-2.2-0.1c-0.7-0.4-1.6-1.2-1.6-1.7c0-0.7,0.9-1.5,1.6-2
			c0.5-0.3,1.3-0.2,2-0.2c18,0,35.9,0,53.8,0c0.6,0,1.2-0.2,1.6,0c0.8,0.6,1.5,1.3,2.2,1.9c-0.8,0.7-1.4,1.4-2.2,1.9
			c-0.4,0.3-1.2,0.1-1.8,0.1C486.4,355.8,477.6,355.8,468.7,355.8z"/>
		<path class="st4" d="M598.8,341.4c6.5,0,13,0,19.6,0c1.6,0,3,0.3,3,2c0,1.8-1.5,2-3.1,2c-13.1,0-26.2,0-39.3,0
			c-1.6,0-3.1-0.3-3.1-2s1.5-2,3.1-2C585.6,341.4,592.2,341.3,598.8,341.4z"/>
		<path class="st4" d="M598.7,329.2c6.5,0,13.1,0,19.6,0c1.6,0,3,0.1,3.1,2c0,1.9-1.5,2-3,2c-13.2,0-26.3,0-39.4,0
			c-1.6,0-3.1-0.3-3-2.1c0-1.6,1.4-1.9,3-1.9C585.5,329.2,592.1,329.2,598.7,329.2z"/>
		<path class="st4" d="M598.5,356.5c-6.2,0-12.5,0-18.7,0c-0.6,0-1.4,0.2-1.8,0c-0.9-0.6-1.5-1.3-2.2-2c0.8-0.7,1.5-1.8,2.3-1.8
			c3.2-0.2,6.4-0.1,9.7-0.1c10.2,0,20.4,0,30.6,0c2.3,0,3.5,1,2.7,2.5c-0.4,0.8-1.8,1.4-2.8,1.4
			C611.7,356.6,605.2,356.5,598.5,356.5z"/>
		<path class="st4" d="M623.9,223c-2.8-2.8-5.5-5.5-8.3-8.2c-2-2-4-4.2-6.2-6.1c-1.1-1-1.2-1.8-0.6-3.1c3.5-6.9-1.7-14.7-9.6-14.7
			c-4.6-0.1-8.4,2.4-10.2,6.3c-1.8,3.9-0.8,8.4,2.4,11.4c3,2.9,7.8,3.7,11.9,2.2c0.6-0.2,1.1-0.5,1.7-0.8
			c5.3,5.3,10.5,10.5,15.7,15.8c-10.2,9.2-30.1,11.8-44.5-0.8c-14.4-12.5-14.7-34.2-0.6-47.2c13.3-12.3,34.7-12,47.6,0.7
			C637.3,192.2,635,212.5,623.9,223z"/>
		<path class="st6" d="M605,204c-1.3-1.3-2.5-2.4-3.7-3.6c-1-1-2-1.6-3.3-0.6c-1.4,1.1-0.9,2.2,0.2,3.3c1.3,1.3,2.5,2.5,3.8,3.8
			c-3,1.5-6.1,0.8-8.1-1.8s-1.7-6.2,0.7-8.4c2.3-2.2,6-2.4,8.6-0.6C605.9,198,606.7,201.2,605,204z"/>
	</g>
</g>
<g>
	<g>
		<path class="st2" d="M321.8,559.4c-11.8,9.2-23.4,18.4-35.1,27.6c0-31.5,0-63.1,0-94.7c13-11.4,26-22.8,38.9-34.1
			C324.3,491.9,323,525.6,321.8,559.4z"/>
		<path class="st3" d="M287.2,600c-52.9-7.5-105.7-14.9-158.6-22.4c0.8-3.8,1.6-7.6,2.4-11.4c51.8,6.9,103.7,13.9,155.6,20.8
			C286.8,591.3,287,595.6,287.2,600z"/>
		<path class="st3" d="M322.2,569.5c-11.6,10.2-23.4,20.3-35,30.5c-0.2-4.3-0.4-8.6-0.6-12.8c11.8-9.4,23.5-18.9,35.1-28.3
			C321.9,562.4,322,566,322.2,569.5z"/>
		<path class="st7" d="M286.6,587.2c-51.8-6.8-103.6-13.7-155.4-20.5c-0.4-31.1-0.9-62.2-1.4-93.2c52.3,6.3,104.6,12.6,156.8,19
			C286.6,524,286.6,555.6,286.6,587.2z"/>
		<path class="st3" d="M295,574.5c-2.6,1.5-5.3,3.1-7.9,4.7c0-25.1,0-50.1,0-75.1c2.3-0.9,4.7-1.9,7-2.9
			C294.4,525.7,294.7,550.1,295,574.5z"/>
		<path class="st3" d="M287.1,579.2c-2.9-0.8-5.9-1.5-8.9-2.3c0-25,0-50.1,0-75.1c3,0.8,6,1.6,8.9,2.4
			C287.1,529.2,287.1,554.2,287.1,579.2z"/>
		<g>
			<rect x="151.6" y="489.4" class="st3" width="6.1" height="70.9"/>
			<rect x="163.8" y="491.3" class="st3" width="6.1" height="70.9"/>
			<rect x="176" y="493.2" class="st3" width="6.1" height="70.9"/>
			<rect x="188.7" y="494.6" class="st3" width="6.1" height="70.9"/>
			<rect x="201.3" y="495.5" class="st3" width="6.1" height="70.9"/>
			<rect x="213.5" y="497.9" class="st3" width="6.1" height="70.9"/>
			<rect x="226.6" y="499.9" class="st3" width="6.1" height="70.9"/>
			<rect x="238.1" y="501.3" class="st3" width="6.1" height="70.9"/>
			<rect x="251.2" y="503.2" class="st3" width="6.1" height="70.9"/>
			<rect x="263.2" y="504.6" class="st3" width="6.1" height="70.9"/>
		</g>
		<path class="st8" d="M325.8,458.2c-53.1-7.4-106.3-14.8-159.4-22.3c-12.1,12.5-24.1,24.9-36.3,37.3
			c52.3,6.4,104.6,12.8,156.8,19.1C299.9,481,312.8,469.6,325.8,458.2z"/>
		<g>
			<ellipse class="st7" cx="221.7" cy="464.4" rx="42.8" ry="12.1"/>
			<rect x="178.8" y="443" class="st7" width="85.7" height="21.4"/>
			<ellipse class="st8" cx="221.7" cy="443" rx="42.8" ry="12.1"/>
			<g>
				<path class="st3" d="M225.9,446.4c5.8-0.6,8.2-2.6,5.4-4.3c0.9-0.1,1.6-0.2,2.5-0.3c2.3-0.3,4.6-0.4,6.9-0.4
					c2.1-0.1,4.3-0.1,6.4,0.1c3.3,0.3,5.5,0.9,6.8,1.8c1.6,1.1,1.6,2.2,0.3,3.3c-2.1,1.8-5.8,3.1-11.1,4.2
					c-3.2,0.6-6.8,0.9-10.6,0.9c-0.6,0-1.1,0-1.6,0c-1.6-0.1-2.6-0.4-2.9-0.9c-0.4-0.5-0.3-1-0.2-1.5c0.2-0.9,0-1.8-1.1-2.6
					C226.5,446.8,226.2,446.5,225.9,446.4z"/>
				<path class="st3" d="M229.3,441.4c-5.1-1.4-12.4-0.8-15.2,0.6c-0.9-0.3-1.8-0.4-2.7-0.7c-2.3-0.6-4.3-1.4-5.7-2.1
					c-2.9-1.7-1.1-3.2,3.1-4.3c2.3-0.6,4.9-0.9,7.6-1c6-0.3,11.8,0,17.1,0.8c3.7,0.6,6.6,1.4,8.6,2.6c0.9,0.5,0.6,0.9-0.8,1.4
					c-0.9,0.3-2.1,0.5-3.4,0.6c-2.4,0.3-4.6,0.8-6.6,1.3C230.4,440.8,229.6,441,229.3,441.4z"/>
				<path class="st3" d="M212.7,443c-1.1,1.9,3.7,3.6,10.1,3.6c-0.1,0.3-0.3,0.5-0.4,0.8c-0.6,0.9-1.4,1.7-2.9,2.5
					c-1.1,0.6-2.6,1.2-4.8,1.6c-2.4,0.4-5.1,0.5-7.9,0.3c-4.2-0.3-7.4-0.9-9.8-2c-2.8-1.1-4.6-2.4-5.1-3.9c-0.6-1.5,0.1-2.9,2.9-4.1
					c0.9-0.4,2.1-0.6,3.7-0.5c0.8,0.1,1.6,0.1,2.3,0.3c1.3,0.3,2.4,0.5,3.7,0.7c2.3,0.4,4.6,0.8,7.4,0.8
					C212.1,443,212.4,443,212.7,443z"/>
				<path class="st3" d="M230.4,443.6c-0.1,1.4-3.7,2.4-8.1,2.4c-4.4,0-8-1.1-8-2.4c0-1.4,3.6-2.5,8.3-2.4
					C226.8,441.2,230.4,442.3,230.4,443.6z M222.4,442.5c-1.8,0-3.2,0.4-3.3,1c-0.1,0.5,1.4,0.9,3.1,0.9c1.7,0,3.3-0.4,3.3-0.9
					S224.2,442.5,222.4,442.5z"/>
				<path class="st3" d="M222.4,442.5c1.8,0,3.1,0.5,3.1,1c-0.1,0.5-1.6,0.9-3.3,0.9s-3.2-0.4-3.1-0.9
					C219.2,443,220.6,442.5,222.4,442.5z"/>
			</g>
		</g>
		<path class="st9" d="M180.2,467.5"/>
	</g>
	<g id="Layer_3">
		<path class="st3" d="M356.7,515.1c-19.1-1.8-38.3-3.7-57.4-5.6c-0.1-3.6-0.3-7.2-0.5-10.8c22.3,2.9,44.7,5.6,67,8.4
			C362.8,509.9,359.8,512.5,356.7,515.1z"/>
		<path class="st3" d="M366.7,576.1c-2.8,0.3-5.5,0.5-8.3,0.8c-0.5-20.6-1-41.1-1.6-61.8c3-2.7,6-5.4,8.9-8
			C366.1,530.2,366.4,553.2,366.7,576.1z"/>
		<ellipse class="st3" cx="361.9" cy="543" rx="6.8" ry="3.6"/>
	</g>
</g>
<g>
	<g>
		<path class="st2" d="M607,456.8c-53.5-4-103.5-5.6-156-11.8c11.4-7.8,22.7-15.6,34.1-23.5c49.6,3.4,99.3,6.8,148.9,10.2
			C625.5,442.4,617.5,446.9,607,456.8z"/>
		<path class="st10" d="M607,521c-52.3-4.3-103.8-8.5-156-12.8V445c54.3,4.3,103.9,7.6,158.2,12C607,478,609.1,500,607,521z"/>
		<path class="st3" d="M633.1,494.5c-8.7,8.9-17.4,17.7-26.1,26.5c0.8-21.2,0-41.7,0-64.3c8.9-8.5,18.3-16.3,27-25
			C633.7,452.7,633.4,473.6,633.1,494.5z"/>
		<path class="st10" d="M458.4,621.4h-29.8c-2.5,0-4.6-2-4.6-4.5v-72.4c0.3-1.3,0.8-3.2,2.1-5c6.4-9,26.9-9,34.1,0.7
			c1.7,2.3,2.4,4.8,2.8,6.6v70.1C463,619.3,460.9,621.4,458.4,621.4z"/>
		<path class="st3" d="M454.5,570.5h-21.6c-1.8,0-3.1-1.4-3.1-3.2v-16.6c0-1.8,1.4-3.2,3.1-3.2h21.6c1.8,0,3.1,1.4,3.1,3.2v16.6
			C457.6,569.1,456.2,570.5,454.5,570.5z"/>
		<rect x="437.3" y="578.5" class="st3" width="5.3" height="2.2"/>
		<rect x="429.8" y="578.5" class="st3" width="5.3" height="2.2"/>
		<rect x="444.8" y="578.5" class="st3" width="5.3" height="2.2"/>
		<rect x="452.3" y="578.5" class="st3" width="5.3" height="2.2"/>
		<rect x="439.1" y="519.7" class="st3" width="7.5" height="12.8"/>
		<rect x="440.9" y="513" class="st3" width="4" height="6.8"/>
		<path class="st11" d="M443.1,514c-0.6-5-1.2-10-1.8-15c-3.9-10,1.6-19.4,7.5-20.8c5.4-1.2,16.8-3.5,15.4,13.3s4.6,17,10.6,17.3
			c4.1,0.2,8.2-2.9,10.6-7.5"/>
		<line class="st12" x1="485.5" y1="501.1" x2="525.7" y2="482.1"/>
		<g>
			<path class="st3" d="M660.2,487.1l-7-7.3c-0.2-0.2-0.5-0.4-0.8-0.4c-0.5,0-0.8,0.3-0.8,0.4c0,0,0,0,0.1,0c0,2,0,4,0,6.1H637
				c0,0.4,0,0.8,0,1.2c0,0.3,0,0.5,0,0.8c0,0.6,0,1.1,0,1.7h15c-0.1,2.1-0.3,4.3-0.4,6.4l-0.1-0.1c0,0,0.3,0.4,0.8,0.4
				c0.3,0,0.5-0.1,0.8-0.4l7-7.3C660.6,488.2,660.6,487.5,660.2,487.1z"/>
		</g>
		<g>
			<path class="st3" d="M443.6,454.4l-7-7.3c-0.2-0.2-0.5-0.4-0.8-0.4c-0.4,0-0.8,0.3-0.8,0.4h0.1c0,2,0,4,0,6.1h-14.8
				c0,0.4,0,0.8,0,1.2c0,0.3,0,0.5,0,0.8c0,0.6,0,1.1,0,1.7h15.1c-0.1,2.1-0.3,4.3-0.4,6.4c-0.1,0-0.1-0.1-0.1-0.1s0.4,0.4,0.8,0.4
				c0.3,0,0.6-0.1,0.8-0.4l7-7.3C444.1,455.5,444.1,454.8,443.6,454.4z"/>
		</g>
	</g>
</g>
</svg>
