<?xml version="1.0" encoding="utf-8"?>
<!-- Generator: Adobe Illustrator 23.0.0, SVG Export Plug-In . SVG Version: 6.00 Build 0)  -->
<svg version="1.1" xmlns="http://www.w3.org/2000/svg" xmlns:xlink="http://www.w3.org/1999/xlink" x="0px" y="0px"
	 viewBox="0 0 800 800" style="enable-background:new 0 0 800 800;" xml:space="preserve">
<style type="text/css">
	.st0{fill:#333333;}
	.st1{opacity:0.4;clip-path:url(#SVGID_2_);}
	.st2{fill:#4C73B2;}
</style>
<g id="Layer_2">
	<circle class="st0" cx="400" cy="400" r="400"/>
</g>
<g id="Layer_1_copy">
	<g>
		<defs>
			<circle id="SVGID_1_" cx="400" cy="400" r="400"/>
		</defs>
		<clipPath id="SVGID_2_">
			<use xlink:href="#SVGID_1_"  style="overflow:visible;"/>
		</clipPath>
		<path class="st1" d="M920.1,686.8c-0.3-0.4-0.6-0.7-1-1c-0.3-0.4-0.6-0.7-1-1c-0.3-0.4-0.6-0.7-1-1c-0.3-0.4-0.6-0.7-1-1
			c-0.3-0.4-0.6-0.7-1-1c-0.3-0.4-0.6-0.7-1-1c-0.3-0.4-0.6-0.7-1-1c-0.3-0.4-0.6-0.7-1-1c-0.3-0.4-0.6-0.7-1-1
			c-0.3-0.4-0.6-0.7-1-1c-0.3-0.4-0.6-0.7-1-1c-0.3-0.4-0.6-0.7-1-1c-0.3-0.4-0.6-0.7-1-1c-0.3-0.4-0.6-0.7-1-1
			c-0.3-0.4-0.6-0.7-1-1c-0.3-0.4-0.6-0.7-1-1c-0.3-0.4-0.6-0.7-1-1c-0.3-0.4-0.6-0.7-1-1c-0.3-0.4-0.6-0.7-1-1
			c-0.3-0.4-0.6-0.7-1-1c-0.3-0.4-0.6-0.7-1-1c-0.3-0.4-0.6-0.7-1-1c-0.3-0.4-0.6-0.7-1-1c-0.3-0.4-0.6-0.7-1-1
			c-0.2-0.3-0.4-0.5-0.7-0.8c6.7,0.4,9.2-2.6,9.1-9.7c-0.3-19.7-0.1-39.5-0.1-59.3c0-26.2,0-52.3,0-78.5c0-3.1,0.4-6.7-2.1-8.4
			c-0.3-0.4-0.6-0.7-1-1c-0.3-0.4-0.6-0.7-1-1c-0.3-0.4-0.6-0.7-1-1c-0.3-0.4-0.6-0.7-1-1c-0.3-0.4-0.6-0.7-1-1
			c-0.3-0.4-0.6-0.7-1-1c-0.3-0.4-0.6-0.7-1-1c-0.3-0.4-0.6-0.7-1-1c-0.3-0.4-0.6-0.7-1-1c-0.3-0.4-0.6-0.7-1-1
			c-0.3-0.4-0.6-0.7-1-1c-0.3-0.4-0.6-0.7-1-1c-0.3-0.4-0.6-0.7-1-1c-0.3-0.4-0.6-0.7-1-1c-0.3-0.4-0.6-0.7-1-1
			c-0.3-0.4-0.6-0.7-1-1c-0.3-0.4-0.6-0.7-1-1c-0.3-0.4-0.6-0.7-1-1c-0.3-0.4-0.6-0.7-1-1c-0.3-0.4-0.6-0.7-1-1
			c-0.3-0.4-0.6-0.7-1-1c-0.3-0.4-0.6-0.7-1-1c-0.3-0.4-0.6-0.7-1-1c-0.3-0.4-0.6-0.7-1-1c-0.3-0.4-0.6-0.7-1-1
			c-0.3-0.4-0.6-0.7-1-1c-0.3-0.4-0.6-0.7-1-1c-0.3-0.4-0.6-0.7-1-1c-0.3-0.4-0.6-0.7-1-1c-0.3-0.4-0.6-0.7-1-1
			c-0.3-0.4-0.6-0.7-1-1c-0.3-0.4-0.6-0.7-1-1c-0.3-0.4-0.6-0.7-1-1c-0.3-0.4-0.6-0.7-1-1c-0.3-0.4-0.6-0.7-1-1
			c-0.3-0.4-0.6-0.7-1-1c-0.3-0.4-0.6-0.7-1-1c-0.3-0.4-0.6-0.7-1-1c-0.3-0.4-0.6-0.7-1-1c-0.3-0.4-0.6-0.7-1-1
			c-0.3-0.4-0.6-0.7-1-1c-0.3-0.4-0.6-0.7-1-1c-0.3-0.4-0.6-0.7-1-1c-0.3-0.4-0.6-0.7-1-1c-0.3-0.4-0.6-0.7-1-1
			c-0.3-0.4-0.6-0.7-1-1c-0.3-0.4-0.6-0.7-1-1c-0.3-0.4-0.6-0.7-1-1c-0.3-0.4-0.6-0.7-1-1c-0.3-0.4-0.6-0.7-1-1
			c-0.3-0.4-0.6-0.7-1-1c-0.3-0.4-0.6-0.7-1-1c-0.3-0.4-0.6-0.7-1-1c-0.3-0.4-0.6-0.7-1-1c-0.3-0.4-0.6-0.7-1-1
			c-0.3-0.4-0.6-0.7-1-1c-0.3-0.4-0.6-0.7-1-1c-0.3-0.4-0.6-0.7-1-1c-0.3-0.4-0.6-0.7-1-1c-0.3-0.4-0.6-0.7-1-1
			c-0.3-0.4-0.6-0.7-1-1c-0.3-0.4-0.6-0.7-1-1c-0.3-0.4-0.6-0.7-1-1c-0.3-0.4-0.6-0.7-1-1c-0.3-0.4-0.6-0.7-1-1
			c-0.3-0.4-0.6-0.7-1-1c-0.3-0.4-0.6-0.7-1-1c-0.3-0.4-0.6-0.7-1-1c-0.3-0.4-0.6-0.7-1-1c-0.3-0.4-0.6-0.7-1-1
			c-0.3-0.4-0.6-0.7-1-1c-0.3-0.4-0.6-0.7-1-1c-0.3-0.4-0.6-0.7-1-1c-0.3-0.4-0.6-0.7-1-1c-0.3-0.4-0.6-0.7-1-1
			c-0.3-0.4-0.6-0.7-1-1c-0.3-0.4-0.6-0.7-1-1c-0.3-0.4-0.6-0.7-1-1c-0.3-0.4-0.6-0.7-1-1c-0.3-0.4-0.6-0.7-1-1
			c-0.3-0.4-0.6-0.7-1-1c-0.3-0.4-0.6-0.7-1-1c-0.3-0.4-0.6-0.7-1-1c-0.3-0.4-0.6-0.7-1-1c-0.3-0.4-0.6-0.7-1-1
			c-0.3-0.4-0.6-0.7-1-1c-0.3-0.4-0.6-0.7-1-1c-0.3-0.4-0.6-0.7-1-1c-0.3-0.4-0.6-0.7-1-1c-0.3-0.4-0.6-0.7-1-1
			c-0.3-0.4-0.6-0.7-1-1c-0.3-0.4-0.6-0.7-1-1c-0.3-0.4-0.6-0.7-1-1c-0.3-0.4-0.6-0.7-1-1c-0.3-0.4-0.6-0.7-1-1
			c-0.3-0.4-0.6-0.7-1-1c-0.3-0.4-0.6-0.7-1-1c-0.3-0.4-0.6-0.7-1-1c-0.3-0.4-0.6-0.7-1-1c-0.3-0.4-0.6-0.7-1-1
			c-0.3-0.4-0.6-0.7-1-1c-0.3-0.4-0.6-0.7-1-1c-0.3-0.4-0.6-0.7-1-1c-0.3-0.4-0.6-0.7-1-1c-0.3-0.4-0.6-0.7-1-1
			c-0.3-0.4-0.6-0.7-1-1c-0.3-0.4-0.6-0.7-1-1c-0.3-0.4-0.6-0.7-1-1c-0.3-0.4-0.6-0.7-1-1c-0.3-0.4-0.6-0.7-1-1
			c-0.3-0.4-0.6-0.7-1-1c-0.3-0.4-0.6-0.7-1-1c-0.3-0.4-0.6-0.7-1-1c-0.3-0.4-0.6-0.7-1-1c-0.3-0.4-0.6-0.7-1-1
			c-0.3-0.4-0.6-0.7-1-1c-0.3-0.4-0.6-0.7-1-1c-0.3-0.4-0.6-0.7-1-1c-0.3-0.4-0.6-0.7-1-1c-0.3-0.4-0.6-0.7-1-1
			c-0.3-0.4-0.6-0.7-1-1c-0.3-0.4-0.6-0.7-1-1c-0.3-0.4-0.6-0.7-1-1c-0.3-0.4-0.6-0.7-1-1c-0.3-0.4-0.6-0.7-1-1
			c-0.3-0.4-0.6-0.7-1-1c-0.3-0.4-0.6-0.7-1-1c-0.3-0.4-0.6-0.7-1-1c-0.3-0.4-0.6-0.7-1-1c-0.3-0.4-0.6-0.7-1-1
			c-0.3-0.4-0.6-0.7-1-1c-0.3-0.4-0.6-0.7-1-1c-0.3-0.4-0.6-0.7-1-1c-0.3-0.4-0.6-0.7-1-1c-0.3-0.4-0.6-0.7-1-1
			c-0.3-0.4-0.6-0.7-1-1c-0.3-0.4-0.6-0.7-1-1c-0.3-0.4-0.6-0.7-1-1c-0.3-0.4-0.6-0.7-1-1c-0.3-0.4-0.6-0.7-1-1
			c-0.3-0.4-0.6-0.7-1-1c-0.3-0.4-0.6-0.7-1-1c-0.3-0.4-0.6-0.7-1-1c-0.3-0.4-0.6-0.7-1-1c-0.3-0.4-0.6-0.7-1-1
			c-0.3-0.4-0.6-0.7-1-1c-0.3-0.4-0.6-0.7-1-1c-0.3-0.4-0.6-0.7-1-1c-0.3-0.4-0.6-0.7-1-1c-0.3-0.4-0.6-0.7-1-1
			c-0.3-0.4-0.6-0.7-1-1c-0.3-0.4-0.6-0.7-1-1c-0.3-0.4-0.6-0.7-1-1c-0.3-0.4-0.6-0.7-1-1c-0.3-0.4-0.6-0.7-1-1
			c-0.3-0.4-0.6-0.7-1-1c-0.3-0.4-0.6-0.7-1-1c-0.3-0.4-0.6-0.7-1-1c-0.3-0.4-0.6-0.7-1-1c-0.3-0.4-0.6-0.7-1-1
			c-0.3-0.4-0.6-0.7-1-1c-0.3-0.4-0.6-0.7-1-1c-0.3-0.4-0.6-0.7-1-1c-0.3-0.4-0.6-0.7-1-1c-0.3-0.4-0.6-0.7-1-1
			c-0.3-0.4-0.6-0.7-1-1c-0.3-0.4-0.6-0.7-1-1c-0.3-0.4-0.6-0.7-1-1c-0.3-0.4-0.6-0.7-1-1c-0.3-0.4-0.6-0.7-1-1
			c-0.3-0.4-0.6-0.7-1-1c-0.3-0.4-0.6-0.7-1-1c-0.3-0.4-0.6-0.7-1-1c-0.3-0.4-0.6-0.7-1-1c-0.3-0.4-0.6-0.7-1-1
			c-0.3-0.4-0.6-0.7-1-1c-0.3-0.4-0.6-0.7-1-1c-0.3-0.4-0.6-0.7-1-1c-0.3-0.4-0.6-0.7-1-1c-0.3-0.4-0.6-0.7-1-1
			c-0.3-0.4-0.6-0.7-1-1c-0.3-0.4-0.6-0.7-1-1c-0.3-0.4-0.6-0.7-1-1c-0.3-0.4-0.6-0.7-1-1c-0.3-0.4-0.6-0.7-1-1
			c-0.3-0.4-0.6-0.7-1-1c-0.3-0.4-0.6-0.7-1-1c-0.3-0.4-0.6-0.7-1-1c-0.3-0.4-0.6-0.7-1-1c-0.3-0.4-0.6-0.7-1-1
			c-0.3-0.4-0.6-0.7-1-1c-0.3-0.4-0.6-0.7-1-1c-0.3-0.4-0.6-0.7-1-1c-0.3-0.4-0.6-0.7-1-1c-0.3-0.4-0.6-0.7-1-1
			c-0.3-0.4-0.6-0.7-1-1c-0.3-0.4-0.6-0.7-1-1c-0.3-0.4-0.6-0.7-1-1c-0.3-0.4-0.6-0.7-1-1c-0.3-0.4-0.6-0.7-1-1
			c-0.3-0.4-0.6-0.7-1-1c-0.3-0.4-0.6-0.7-1-1c-0.3-0.4-0.6-0.7-1-1c-0.3-0.4-0.6-0.7-1-1c-0.3-0.4-0.6-0.7-1-1
			c-0.3-0.4-0.6-0.7-1-1c-0.3-0.4-0.6-0.7-1-1c-0.3-0.4-0.6-0.7-1-1c-0.3-0.4-0.6-0.7-1-1c-0.3-0.4-0.6-0.7-1-1
			c-0.3-0.4-0.6-0.7-1-1c-0.3-0.4-0.6-0.7-1-1c-0.3-0.4-0.6-0.7-1-1c-0.3-0.4-0.6-0.7-1-1c-0.3-0.4-0.6-0.7-1-1
			c-0.3-0.4-0.6-0.7-1-1c-0.3-0.4-0.6-0.7-1-1c-0.3-0.4-0.6-0.7-1-1c-0.3-0.4-0.6-0.7-1-1c-0.3-0.4-0.6-0.7-1-1
			c-0.3-0.4-0.6-0.7-1-1c-0.3-0.4-0.6-0.7-1-1c-0.3-0.4-0.6-0.7-1-1c-0.3-0.4-0.6-0.7-1-1c-0.3-0.4-0.6-0.7-1-1
			c-0.3-0.4-0.6-0.7-1-1c-0.3-0.4-0.6-0.7-1-1c-0.3-0.4-0.6-0.7-1-1c-0.3-0.4-0.6-0.7-1-1c-0.3-0.4-0.6-0.7-1-1
			c-0.3-0.4-0.6-0.7-1-1c-0.3-0.4-0.6-0.7-1-1c-0.3-0.4-0.6-0.7-1-1c-0.3-0.4-0.6-0.7-1-1c-0.3-0.4-0.6-0.7-1-1
			c-0.3-0.4-0.6-0.7-1-1c-0.3-0.4-0.6-0.7-1-1c-0.3-0.4-0.6-0.7-1-1c-0.3-0.4-0.6-0.7-1-1c-0.3-0.4-0.6-0.7-1-1
			c-0.3-0.4-0.6-0.7-1-1c-0.3-0.4-0.6-0.7-1-1c-0.3-0.4-0.6-0.7-1-1c-0.3-0.4-0.6-0.7-1-1c-0.3-0.4-0.6-0.7-1-1
			c-0.3-0.4-0.6-0.7-1-1c-0.3-0.4-0.6-0.7-1-1c-0.3-0.4-0.6-0.7-1-1c-0.3-0.4-0.6-0.7-1-1c-0.3-0.4-0.6-0.7-1-1
			c-0.3-0.4-0.6-0.7-1-1c-0.3-0.4-0.6-0.7-1-1c-0.3-0.4-0.6-0.7-1-1c-0.3-0.4-0.6-0.7-1-1c-0.3-0.4-0.6-0.7-1-1
			c-0.3-0.4-0.6-0.7-1-1c-0.3-0.4-0.6-0.7-1-1c-0.3-0.4-0.6-0.7-1-1c-0.3-0.4-0.6-0.7-1-1c-0.3-0.4-0.6-0.7-1-1
			c-0.3-0.4-0.6-0.7-1-1c-0.3-0.4-0.6-0.7-1-1c-0.3-0.4-0.6-0.7-1-1c-0.3-0.4-0.6-0.7-1-1c-0.3-0.4-0.6-0.7-1-1
			c-0.3-0.4-0.6-0.7-1-1c-0.3-0.4-0.6-0.7-1-1c-0.3-0.4-0.6-0.7-1-1c-0.3-0.4-0.6-0.7-1-1c-0.3-0.4-0.6-0.7-1-1
			c-0.3-0.4-0.6-0.7-1-1c-0.3-0.4-0.6-0.7-1-1c-0.3-0.4-0.6-0.7-1-1c-0.3-0.4-0.6-0.7-1-1c-0.3-0.4-0.6-0.7-1-1
			c-0.3-0.4-0.6-0.7-1-1c-0.8-1.1-2.1-1.9-4.4-2c-6.2-0.2-12.5-1.3-18.6,0.8c0,0-0.1,0-0.1,0c-0.2-0.4-0.6-0.7-1-1
			c-0.2-0.4-0.6-0.7-1-1c-0.2-0.4-0.6-0.7-1-1c-0.2-0.4-0.6-0.7-1-1c-0.2-0.4-0.6-0.7-1-1c-0.2-0.4-0.6-0.7-1-1
			c-0.2-0.4-0.6-0.7-1-1c-0.2-0.4-0.6-0.7-1-1c-0.2-0.4-0.6-0.7-1-1c-0.2-0.4-0.6-0.7-1-1c-0.2-0.4-0.6-0.7-1-1
			c-0.2-0.4-0.6-0.7-1-1c-0.2-0.4-0.6-0.7-1-1c-0.2-0.4-0.6-0.7-1-1c-0.2-0.4-0.6-0.7-1-1c-0.2-0.4-0.6-0.7-1-1
			c-0.2-0.4-0.6-0.7-1-1c-0.2-0.4-0.6-0.7-1-1c-0.2-0.4-0.6-0.7-1-1c-0.2-0.4-0.6-0.7-1-1c-0.2-0.4-0.6-0.7-1-1
			c-0.2-0.4-0.6-0.7-1-1c-0.2-0.4-0.6-0.7-1-1c-0.2-0.4-0.6-0.7-1-1c-0.2-0.4-0.6-0.7-1-1c-0.2-0.4-0.6-0.7-1-1
			c-0.2-0.4-0.6-0.7-1-1c-0.2-0.4-0.6-0.7-1-1c-0.2-0.4-0.6-0.7-1-1c-0.2-0.4-0.6-0.7-1-1c-0.2-0.4-0.6-0.7-1-1
			c-0.2-0.4-0.6-0.7-1-1c-0.2-0.4-0.6-0.7-1-1c-0.2-0.4-0.6-0.7-1-1c-0.2-0.4-0.6-0.7-1-1c-0.2-0.4-0.6-0.7-1-1
			c-0.2-0.4-0.6-0.7-1-1c-0.2-0.4-0.6-0.7-1-1c-0.2-0.4-0.6-0.7-1-1c-0.2-0.4-0.6-0.7-1-1c-0.2-0.4-0.6-0.7-1-1
			c-0.2-0.4-0.6-0.7-1-1c-0.2-0.4-0.6-0.7-1-1c-0.2-0.4-0.6-0.7-1-1c-0.2-0.4-0.6-0.7-1-1c-0.3-0.5-0.7-0.9-1.3-1.2
			c-6.3-3.1-13.2-2.2-19.6-0.8c-4.9,1.1-3.6,6.3-3.6,10c-0.1,41.2-0.1,82.4-0.1,123.6c0,2.6,0,5.1,0,7.7c-0.2-0.3-0.5-0.5-0.8-0.7
			c-0.2-0.4-0.6-0.7-1-1c-0.2-0.4-0.6-0.7-1-1c-0.2-0.4-0.6-0.7-1-1c-0.2-0.4-0.6-0.7-1-1c-0.2-0.4-0.6-0.7-1-1
			c-0.2-0.4-0.6-0.7-1-1c-0.2-0.4-0.6-0.7-1-1c-0.2-0.4-0.6-0.7-1-1c-0.2-0.4-0.6-0.7-1-1c-0.2-0.4-0.6-0.7-1-1
			c-0.2-0.4-0.6-0.7-1-1c-0.2-0.4-0.6-0.7-1-1c-0.2-0.4-0.6-0.7-1-1c-0.2-0.4-0.6-0.7-1-1c-0.2-0.4-0.6-0.7-1-1
			c-0.2-0.4-0.6-0.7-1-1c-0.2-0.4-0.6-0.7-1-1c-0.2-0.4-0.6-0.7-1-1c-0.2-0.4-0.6-0.7-1-1c-0.2-0.4-0.6-0.7-1-1
			c-0.2-0.4-0.6-0.7-1-1c-0.2-0.4-0.6-0.7-1-1c-0.2-0.4-0.6-0.7-1-1c-0.2-0.4-0.6-0.7-1-1c-0.2-0.4-0.6-0.7-1-1
			c-0.2-0.4-0.6-0.7-1-1c-0.2-0.4-0.6-0.7-1-1c-0.2-0.4-0.6-0.7-1-1c-0.2-0.4-0.6-0.7-1-1c-0.2-0.4-0.6-0.7-1-1
			c-0.2-0.4-0.6-0.7-1-1c-0.2-0.4-0.6-0.7-1-1c-0.2-0.4-0.6-0.7-1-1c-0.2-0.4-0.6-0.7-1-1c-0.2-0.4-0.6-0.7-1-1
			c-0.2-0.4-0.6-0.7-1-1c-0.2-0.4-0.6-0.7-1-1c-0.2-0.4-0.6-0.7-1-1c-0.2-0.4-0.6-0.7-1-1c-0.2-0.4-0.6-0.7-1-1
			c-0.2-0.4-0.6-0.7-1-1c-0.2-0.4-0.6-0.7-1-1c-0.2-0.4-0.6-0.7-1-1c-0.2-0.4-0.6-0.7-1-1c-0.2-0.4-0.6-0.7-1-1
			c-0.3-0.5-0.8-0.9-1.4-1.3c-5.7-2.9-12.1-2.2-18-0.7c-5.3,1.4-4,6.7-4,10.7c0,14.3,0,28.7,0,43c-0.1-0.1-0.1-0.1-0.2-0.2
			c-0.3-0.3-0.7-0.7-1-1c-0.3-0.3-0.7-0.7-1-1c-0.3-0.3-0.7-0.7-1-1c-0.3-0.3-0.7-0.7-1-1c-0.3-0.3-0.7-0.7-1-1
			c-0.3-0.3-0.7-0.7-1-1c-0.3-0.3-0.7-0.7-1-1c-0.3-0.3-0.7-0.7-1-1c-0.3-0.3-0.7-0.7-1-1c-0.3-0.3-0.7-0.7-1-1
			c-0.3-0.3-0.7-0.7-1-1c-0.3-0.3-0.7-0.7-1-1c-0.3-0.3-0.7-0.7-1-1c-0.3-0.3-0.7-0.7-1-1c-0.3-0.3-0.7-0.7-1-1
			c-0.3-0.3-0.7-0.7-1-1c-0.3-0.3-0.7-0.7-1-1c-0.3-0.3-0.7-0.7-1-1c-0.3-0.3-0.7-0.7-1-1c-0.3-0.3-0.7-0.7-1-1
			c-0.3-0.3-0.7-0.7-1-1c-0.3-0.3-0.7-0.7-1-1c-0.3-0.3-0.7-0.7-1-1c-0.3-0.3-0.7-0.7-1-1c-0.3-0.3-0.7-0.7-1-1
			c-0.3-0.3-0.7-0.7-1-1c-0.3-0.3-0.7-0.7-1-1c-0.3-0.3-0.7-0.7-1-1c-0.3-0.3-0.7-0.7-1-1c-0.3-0.3-0.7-0.7-1-1
			c-0.3-0.3-0.7-0.7-1-1c-0.3-0.3-0.7-0.7-1-1c-0.3-0.3-0.7-0.7-1-1c-0.3-0.3-0.7-0.7-1-1c-0.3-0.3-0.7-0.7-1-1
			c-0.3-0.3-0.7-0.7-1-1c-0.3-0.3-0.7-0.7-1-1c-0.3-0.3-0.7-0.7-1-1c-0.3-0.3-0.7-0.7-1-1c-0.3-0.3-0.7-0.7-1-1
			c-0.3-0.3-0.7-0.7-1-1c-0.3-0.3-0.7-0.7-1-1c-0.3-0.3-0.7-0.7-1-1c-0.3-0.3-0.7-0.7-1-1c-0.3-0.3-0.7-0.7-1-1
			c-0.3-0.3-0.7-0.7-1-1c-0.3-0.3-0.7-0.7-1-1c-0.3-0.3-0.7-0.7-1-1c-0.3-0.3-0.7-0.7-1-1c-0.3-0.3-0.7-0.7-1-1
			c-0.3-0.3-0.7-0.7-1-1c-0.3-0.3-0.7-0.7-1-1c-0.3-0.3-0.7-0.7-1-1c-0.3-0.3-0.7-0.7-1-1c-0.3-0.3-0.7-0.7-1-1
			c-0.3-0.3-0.7-0.7-1-1c-0.3-0.3-0.7-0.7-1-1c-0.3-0.3-0.7-0.7-1-1c-0.3-0.3-0.7-0.7-1-1c-0.3-0.3-0.7-0.7-1-1
			c-0.3-0.3-0.7-0.7-1-1c-0.3-0.3-0.7-0.7-1-1c-0.3-0.3-0.7-0.7-1-1c-0.3-0.3-0.7-0.7-1-1c-0.3-0.3-0.7-0.7-1-1
			c-0.3-0.3-0.7-0.7-1-1c-0.3-0.3-0.7-0.7-1-1c-0.3-0.3-0.7-0.7-1-1c-0.3-0.3-0.7-0.7-1-1c-0.3-0.3-0.7-0.7-1-1
			c-0.3-0.3-0.7-0.7-1-1c-0.3-0.3-0.7-0.7-1-1c-0.3-0.3-0.7-0.7-1-1c-0.3-0.3-0.7-0.7-1-1c-0.3-0.3-0.7-0.7-1-1
			c-0.3-0.3-0.7-0.7-1-1c-0.3-0.3-0.7-0.7-1-1c-0.3-0.3-0.7-0.7-1-1c-0.3-0.3-0.7-0.7-1-1c-0.3-0.3-0.7-0.7-1-1
			c-0.3-0.3-0.7-0.7-1-1c-0.3-0.3-0.7-0.7-1-1c-0.3-0.3-0.7-0.7-1-1c-0.3-0.3-0.7-0.7-1-1c-0.3-0.3-0.7-0.7-1-1
			c-0.3-0.3-0.7-0.7-1-1c-0.3-0.3-0.7-0.7-1-1c-0.3-0.3-0.7-0.7-1-1c-0.3-0.3-0.7-0.7-1-1c-0.3-0.3-0.7-0.7-1-1
			c-0.3-0.3-0.7-0.7-1-1c-0.3-0.3-0.7-0.7-1-1c-0.3-0.3-0.7-0.7-1-1c-0.3-0.3-0.7-0.7-1-1c-0.3-0.3-0.7-0.7-1-1
			c-0.3-0.3-0.7-0.7-1-1c-0.3-0.3-0.7-0.7-1-1c-0.3-0.3-0.7-0.7-1-1c-0.3-0.3-0.7-0.7-1-1c-0.3-0.3-0.7-0.7-1-1
			c-0.3-0.3-0.7-0.7-1-1c-0.3-0.3-0.7-0.7-1-1c-0.3-0.3-0.7-0.7-1-1c-0.3-0.3-0.7-0.7-1-1c-0.3-0.3-0.7-0.7-1-1
			c-0.3-0.3-0.7-0.7-1-1c-0.3-0.3-0.7-0.7-1-1c-0.3-0.3-0.7-0.7-1-1c-0.3-0.3-0.7-0.7-1-1c-0.3-0.3-0.7-0.7-1-1
			c-0.3-0.3-0.7-0.7-1-1c-0.3-0.3-0.7-0.7-1-1c-0.3-0.3-0.7-0.7-1-1c-0.3-0.3-0.7-0.7-1-1c-0.3-0.3-0.7-0.7-1-1
			c-0.3-0.3-0.7-0.7-1-1c-0.3-0.3-0.7-0.7-1-1c-0.3-0.3-0.7-0.7-1-1c-0.3-0.3-0.7-0.7-1-1c-0.3-0.3-0.7-0.7-1-1
			c-0.3-0.3-0.7-0.7-1-1c-0.3-0.3-0.7-0.7-1-1c-0.3-0.3-0.7-0.7-1-1c-0.3-0.3-0.7-0.7-1-1c-0.3-0.3-0.7-0.7-1-1
			c-0.3-0.3-0.7-0.7-1-1c-0.3-0.3-0.7-0.7-1-1c-0.3-0.3-0.7-0.7-1-1c-0.3-0.3-0.7-0.7-1-1c-0.3-0.3-0.7-0.7-1-1
			c-0.3-0.3-0.7-0.7-1-1c-0.3-0.3-0.7-0.7-1-1c-0.3-0.3-0.7-0.7-1-1c-0.3-0.3-0.7-0.7-1-1c-0.3-0.3-0.7-0.7-1-1
			c-0.3-0.3-0.7-0.7-1-1c-11.4-11.5-24.8-20.2-41.6-21.6c-23.5-1.9-40.2,11.2-53.5,28.9c-18.2,24.1-29.1,51.8-39.1,80
			c-8.9,24.9-14.4,50.8-21,76.3c-3.3,12.6-5.5,25.5-7.7,38.4c-0.9,5.4-0.4,8.4,2,10.4c0.3,0.4,0.6,0.7,1,1c0.3,0.4,0.6,0.7,1,1
			c0.3,0.4,0.6,0.7,1,1c0.3,0.4,0.6,0.7,1,1c0.3,0.4,0.6,0.7,1,1c0.3,0.4,0.6,0.7,1,1c0.3,0.4,0.6,0.7,1,1c0.3,0.4,0.6,0.7,1,1
			c0.3,0.4,0.6,0.7,1,1c0.3,0.4,0.6,0.7,1,1c0.3,0.4,0.6,0.7,1,1c0.3,0.4,0.6,0.7,1,1c0.3,0.4,0.6,0.7,1,1c0.3,0.4,0.6,0.7,1,1
			c0.3,0.4,0.6,0.7,1,1c0.3,0.4,0.6,0.7,1,1c0.3,0.4,0.6,0.7,1,1c0.3,0.4,0.6,0.7,1,1c0.3,0.4,0.6,0.7,1,1c0.3,0.4,0.6,0.7,1,1
			c0.3,0.4,0.6,0.7,1,1c0.3,0.4,0.6,0.7,1,1c0.3,0.4,0.6,0.7,1,1c0.3,0.4,0.6,0.7,1,1c0.3,0.4,0.6,0.7,1,1c0.3,0.4,0.6,0.7,1,1
			c0.3,0.4,0.6,0.7,1,1c0.3,0.4,0.6,0.7,1,1c0.1,0.1,0.2,0.3,0.4,0.4c-2.8,1.2-4.3,3.8-4.2,9.1c0.5,22,0.2,43.9,0.2,65.9
			c0,22.5,0.2,45.1-0.1,67.6c0,3.9,0.7,6.5,2.7,7.9c0.3,0.4,0.6,0.7,1,1c0.3,0.4,0.6,0.7,1,1c0.3,0.4,0.6,0.7,1,1
			c0.3,0.4,0.6,0.7,1,1c0.3,0.4,0.6,0.7,1,1c0.3,0.4,0.6,0.7,1,1c0.3,0.4,0.6,0.7,1,1c0.3,0.4,0.6,0.7,1,1c0.3,0.4,0.6,0.7,1,1
			c0.3,0.4,0.6,0.7,1,1c0.3,0.4,0.6,0.7,1,1c0.3,0.4,0.6,0.7,1,1c0.3,0.4,0.6,0.7,1,1c0.3,0.4,0.6,0.7,1,1c0.3,0.4,0.6,0.7,1,1
			c0.3,0.4,0.6,0.7,1,1c0.3,0.4,0.6,0.7,1,1c0.3,0.4,0.6,0.7,1,1c0.3,0.4,0.6,0.7,1,1c0.3,0.4,0.6,0.7,1,1c0.3,0.4,0.6,0.7,1,1
			c0.3,0.4,0.6,0.7,1,1c0.3,0.4,0.6,0.7,1,1c0.3,0.4,0.6,0.7,1,1c0.3,0.4,0.6,0.7,1,1c0.3,0.4,0.6,0.7,1,1c0.3,0.4,0.6,0.7,1,1
			c0.3,0.4,0.6,0.7,1,1c0.3,0.4,0.6,0.7,1,1c0.3,0.4,0.6,0.7,1,1c0.3,0.4,0.6,0.7,1,1c0.3,0.4,0.6,0.7,1,1c0.3,0.4,0.6,0.7,1,1
			c0.3,0.4,0.6,0.7,1,1c0.3,0.4,0.6,0.7,1,1c0.3,0.4,0.6,0.7,1,1c0.3,0.4,0.6,0.7,1,1c0.3,0.4,0.6,0.7,1,1c0.3,0.4,0.6,0.7,1,1
			c0.3,0.4,0.6,0.7,1,1c0.3,0.4,0.6,0.7,1,1c0.3,0.4,0.6,0.7,1,1c0.3,0.4,0.6,0.7,1,1c0.3,0.4,0.6,0.7,1,1c0.3,0.4,0.6,0.7,1,1
			c0.3,0.4,0.6,0.7,1,1c0.3,0.4,0.6,0.7,1,1c0.3,0.4,0.6,0.7,1,1c0.3,0.4,0.6,0.7,1,1c0.3,0.4,0.6,0.7,1,1c0.3,0.4,0.6,0.7,1,1
			c0.3,0.4,0.6,0.7,1,1c0.3,0.4,0.6,0.7,1,1c0.3,0.4,0.6,0.7,1,1c0.3,0.4,0.6,0.7,1,1c0.3,0.4,0.6,0.7,1,1c0.3,0.4,0.6,0.7,1,1
			c0.3,0.4,0.6,0.7,1,1c0.3,0.4,0.6,0.7,1,1c0.3,0.4,0.6,0.7,1,1c0.3,0.4,0.6,0.7,1,1c0.3,0.4,0.6,0.7,1,1c0.3,0.4,0.6,0.7,1,1
			c0.3,0.4,0.6,0.7,1,1c0.3,0.4,0.6,0.7,1,1c0.3,0.4,0.6,0.7,1,1c0.3,0.4,0.6,0.7,1,1c0.3,0.4,0.6,0.7,1,1c0.3,0.4,0.6,0.7,1,1
			c0.3,0.4,0.6,0.7,1,1c0.3,0.4,0.6,0.7,1,1c0.3,0.4,0.6,0.7,1,1c0.3,0.4,0.6,0.7,1,1c0.3,0.4,0.6,0.7,1,1c0.3,0.4,0.6,0.7,1,1
			c0.3,0.4,0.6,0.7,1,1c0.3,0.4,0.6,0.7,1,1c0.3,0.4,0.6,0.7,1,1c0.3,0.4,0.6,0.7,1,1c0.3,0.4,0.6,0.7,1,1c0.3,0.4,0.6,0.7,1,1
			c0.3,0.4,0.6,0.7,1,1c0.3,0.4,0.6,0.7,1,1c0.3,0.4,0.6,0.7,1,1c0.3,0.4,0.6,0.7,1,1c0.3,0.4,0.6,0.7,1,1c0.3,0.4,0.6,0.7,1,1
			c0.3,0.4,0.6,0.7,1,1c0.3,0.4,0.6,0.7,1,1c0.3,0.4,0.6,0.7,1,1c0.3,0.4,0.6,0.7,1,1c0.3,0.4,0.6,0.7,1,1c0.3,0.4,0.6,0.7,1,1
			c0.3,0.4,0.6,0.7,1,1c0.3,0.4,0.6,0.7,1,1c0.3,0.4,0.6,0.7,1,1c0.3,0.4,0.6,0.7,1,1c0.3,0.4,0.6,0.7,1,1c0.3,0.4,0.6,0.7,1,1
			c0.3,0.4,0.6,0.7,1,1c0.3,0.4,0.6,0.7,1,1c0.3,0.4,0.6,0.7,1,1c0.3,0.4,0.6,0.7,1,1c0.3,0.4,0.6,0.7,1,1c0.3,0.4,0.6,0.7,1,1
			c0.3,0.4,0.6,0.7,1,1c0.3,0.4,0.6,0.7,1,1c0.3,0.4,0.6,0.7,1,1c0.3,0.4,0.6,0.7,1,1c0.3,0.4,0.6,0.7,1,1c0.3,0.4,0.6,0.7,1,1
			c0.3,0.4,0.6,0.7,1,1c0.3,0.4,0.6,0.7,1,1c0.3,0.4,0.6,0.7,1,1c0.3,0.4,0.6,0.7,1,1c0.3,0.4,0.6,0.7,1,1c0.3,0.4,0.6,0.7,1,1
			c0.3,0.4,0.6,0.7,1,1c0.3,0.4,0.6,0.7,1,1c0.3,0.4,0.6,0.7,1,1c0.3,0.4,0.6,0.7,1,1c0.3,0.4,0.6,0.7,1,1c0.3,0.4,0.6,0.7,1,1
			c0.3,0.4,0.6,0.7,1,1c0.3,0.4,0.6,0.7,1,1c0.3,0.4,0.6,0.7,1,1c0.3,0.4,0.6,0.7,1,1c0.3,0.4,0.6,0.7,1,1c0.3,0.4,0.6,0.7,1,1
			c0.3,0.4,0.6,0.7,1,1c0.3,0.4,0.6,0.7,1,1c0.3,0.4,0.6,0.7,1,1c0.3,0.4,0.6,0.7,1,1c0.3,0.4,0.6,0.7,1,1c0.3,0.4,0.6,0.7,1,1
			c0.3,0.4,0.6,0.7,1,1c0.3,0.4,0.6,0.7,1,1c0.3,0.4,0.6,0.7,1,1c0.3,0.4,0.6,0.7,1,1c0.3,0.4,0.6,0.7,1,1c0.3,0.4,0.6,0.7,1,1
			c0.3,0.4,0.6,0.7,1,1c0.3,0.4,0.6,0.7,1,1c0.3,0.4,0.6,0.7,1,1c0.3,0.4,0.6,0.7,1,1c0.3,0.4,0.6,0.7,1,1c0.3,0.4,0.6,0.7,1,1
			c0.3,0.4,0.6,0.7,1,1c0.3,0.4,0.6,0.7,1,1c0.3,0.4,0.6,0.7,1,1c0.3,0.4,0.6,0.7,1,1c0.3,0.4,0.6,0.7,1,1c0.3,0.4,0.6,0.7,1,1
			c0.3,0.4,0.6,0.7,1,1c0.3,0.4,0.6,0.7,1,1c0.3,0.4,0.6,0.7,1,1c0.3,0.4,0.6,0.7,1,1c0.3,0.4,0.6,0.7,1,1c0.3,0.4,0.6,0.7,1,1
			c0.3,0.4,0.6,0.7,1,1c0.3,0.4,0.6,0.7,1,1c0.3,0.4,0.6,0.7,1,1c0.3,0.4,0.6,0.7,1,1c0.3,0.4,0.6,0.7,1,1c0.3,0.4,0.6,0.7,1,1
			c0.3,0.4,0.6,0.7,1,1c0.3,0.4,0.6,0.7,1,1c0.3,0.4,0.6,0.7,1,1c0.3,0.4,0.6,0.7,1,1c0.3,0.4,0.6,0.7,1,1c0.3,0.4,0.6,0.7,1,1
			c0.3,0.4,0.6,0.7,1,1c0.3,0.4,0.6,0.7,1,1c0.3,0.4,0.6,0.7,1,1c0.3,0.4,0.6,0.7,1,1c0.3,0.4,0.6,0.7,1,1c0.3,0.4,0.6,0.7,1,1
			c0.3,0.4,0.6,0.7,1,1c0.3,0.4,0.6,0.7,1,1c0.3,0.4,0.6,0.7,1,1c0.3,0.4,0.6,0.7,1,1c0.3,0.4,0.6,0.7,1,1c0.3,0.4,0.6,0.7,1,1
			c0.3,0.4,0.6,0.7,1,1c0.3,0.4,0.6,0.7,1,1c0.3,0.4,0.6,0.7,1,1c0.3,0.4,0.6,0.7,1,1c0.3,0.4,0.6,0.7,1,1c0.3,0.4,0.6,0.7,1,1
			c0.3,0.4,0.6,0.7,1,1c0.3,0.4,0.6,0.7,1,1c0.3,0.4,0.6,0.7,1,1c0.3,0.4,0.6,0.7,1,1c0.3,0.4,0.6,0.7,1,1c0.3,0.4,0.6,0.7,1,1
			c0.3,0.4,0.6,0.7,1,1c0.3,0.4,0.6,0.7,1,1c0.3,0.4,0.6,0.7,1,1c0.3,0.4,0.6,0.7,1,1c0.3,0.4,0.6,0.7,1,1c0.3,0.4,0.6,0.7,1,1
			c0.3,0.4,0.6,0.7,1,1c0.3,0.4,0.6,0.7,1,1c0.3,0.4,0.6,0.7,1,1c0.3,0.4,0.6,0.7,1,1c0.3,0.4,0.6,0.7,1,1c0.3,0.4,0.6,0.7,1,1
			c0.3,0.4,0.6,0.7,1,1c0.3,0.4,0.6,0.7,1,1c0.3,0.4,0.6,0.7,1,1c0.3,0.4,0.6,0.7,1,1c0.3,0.4,0.6,0.7,1,1c0.3,0.4,0.6,0.7,1,1
			c0.3,0.4,0.6,0.7,1,1c0.3,0.4,0.6,0.7,1,1c0.3,0.4,0.6,0.7,1,1c0.3,0.4,0.6,0.7,1,1c0.3,0.4,0.6,0.7,1,1c0.3,0.4,0.6,0.7,1,1
			c0.3,0.4,0.6,0.7,1,1c0.3,0.4,0.6,0.7,1,1c0.3,0.4,0.6,0.7,1,1c0.3,0.4,0.6,0.7,1,1c0.3,0.4,0.6,0.7,1,1c0.3,0.4,0.6,0.7,1,1
			c0.3,0.4,0.6,0.7,1,1c0.3,0.4,0.6,0.7,1,1c0.3,0.4,0.6,0.7,1,1c0.3,0.4,0.6,0.7,1,1c0.3,0.4,0.6,0.7,1,1c0.3,0.4,0.6,0.7,1,1
			c0.3,0.4,0.6,0.7,1,1c0.3,0.4,0.6,0.7,1,1c0.3,0.4,0.6,0.7,1,1c0.3,0.4,0.6,0.7,1,1c0.3,0.4,0.6,0.7,1,1c0.3,0.4,0.6,0.7,1,1
			c0.3,0.4,0.6,0.7,1,1c0.3,0.4,0.6,0.7,1,1c0.3,0.4,0.6,0.7,1,1c0.3,0.4,0.6,0.7,1,1c0.3,0.4,0.6,0.7,1,1c0.3,0.4,0.6,0.7,1,1
			c0.3,0.4,0.6,0.7,1,1c0.3,0.4,0.6,0.7,1,1c0.3,0.4,0.6,0.7,1,1c0.3,0.4,0.6,0.7,1,1c0.3,0.4,0.6,0.7,1,1c0.3,0.4,0.6,0.7,1,1
			c0.3,0.4,0.6,0.7,1,1c0.3,0.4,0.6,0.7,1,1c0.3,0.4,0.6,0.7,1,1c0.3,0.4,0.6,0.7,1,1c0.3,0.4,0.6,0.7,1,1c0.3,0.4,0.6,0.7,1,1
			c0.3,0.4,0.6,0.7,1,1c0.3,0.4,0.6,0.7,1,1c0.3,0.4,0.6,0.7,1,1c0.3,0.4,0.6,0.7,1,1c0.3,0.4,0.6,0.7,1,1c0.3,0.4,0.6,0.7,1,1
			c0.3,0.4,0.6,0.7,1,1c0.3,0.4,0.6,0.7,1,1c0.3,0.4,0.6,0.7,1,1c0.3,0.4,0.6,0.7,1,1c0.3,0.4,0.6,0.7,1,1c0.3,0.4,0.6,0.7,1,1
			c0.3,0.4,0.6,0.7,1,1c0.3,0.4,0.6,0.7,1,1c0.3,0.4,0.6,0.7,1,1c0.3,0.4,0.6,0.7,1,1c0.3,0.4,0.6,0.7,1,1c0.3,0.4,0.6,0.7,1,1
			c0.3,0.4,0.6,0.7,1,1c0.3,0.4,0.6,0.7,1,1c0.3,0.4,0.6,0.7,1,1c1.4,1.9,3.9,2.6,7.6,2.3c2.2-0.2,4.5-0.2,6.7,0
			c2.1,0.2,3.7,0,5-0.5c0.1,0,0.1,0.1,0.2,0.2c0.3,0.4,0.6,0.7,1,1c0.3,0.4,0.6,0.7,1,1c0.3,0.4,0.6,0.7,1,1c0.3,0.4,0.6,0.7,1,1
			c0.3,0.4,0.6,0.7,1,1c0.3,0.4,0.6,0.7,1,1c0.3,0.4,0.6,0.7,1,1c0.3,0.4,0.6,0.7,1,1c0.3,0.4,0.6,0.7,1,1c0.3,0.4,0.6,0.7,1,1
			c0.3,0.4,0.6,0.7,1,1c0.3,0.4,0.6,0.7,1,1c0.3,0.4,0.6,0.7,1,1c0.3,0.4,0.6,0.7,1,1c0.3,0.4,0.6,0.7,1,1c0.3,0.4,0.6,0.7,1,1
			c0.3,0.4,0.6,0.7,1,1c0.3,0.4,0.6,0.7,1,1c0.3,0.4,0.6,0.7,1,1c0.3,0.4,0.6,0.7,1,1c0.3,0.4,0.6,0.7,1,1c0.3,0.4,0.6,0.7,1,1
			c0.3,0.4,0.6,0.7,1,1c0.3,0.4,0.6,0.7,1,1c0.3,0.4,0.6,0.7,1,1c0.3,0.4,0.6,0.7,1,1c0.3,0.4,0.6,0.7,1,1c0.3,0.4,0.6,0.7,1,1
			c0.3,0.4,0.6,0.7,1,1c0.3,0.4,0.6,0.7,1,1c0.3,0.4,0.6,0.7,1,1c0.3,0.4,0.6,0.7,1,1c0.3,0.4,0.6,0.7,1,1c0.3,0.4,0.6,0.7,1,1
			c0.3,0.4,0.6,0.7,1,1c0.3,0.4,0.6,0.7,1,1c0.3,0.4,0.6,0.7,1,1c0.3,0.4,0.6,0.7,1,1c0.3,0.4,0.6,0.7,1,1c0.3,0.4,0.6,0.7,1,1
			c0.3,0.4,0.6,0.7,1,1c0.3,0.4,0.6,0.7,1,1c0.3,0.4,0.6,0.7,1,1c0.3,0.4,0.6,0.7,1,1c0.3,0.4,0.6,0.7,1,1c0.3,0.4,0.6,0.7,1,1
			c0.3,0.4,0.6,0.7,1,1c0.3,0.4,0.6,0.7,1,1c1.5,2,4.2,2.6,8.3,2.1c1.6-0.2,3.4-0.2,5,0c7.8,1.1,10.2-2.5,10.1-10
			c-0.3-24.5-0.1-49-0.1-73.5c0-19.8,0-39.6,0-59.4c0.3,0.4,0.6,0.7,0.9,0.9c0.3,0.4,0.6,0.7,1,1c0.3,0.4,0.6,0.7,1,1
			c0.3,0.4,0.6,0.7,1,1c0.3,0.4,0.6,0.7,1,1c0.3,0.4,0.6,0.7,1,1c0.3,0.4,0.6,0.7,1,1c0.3,0.4,0.6,0.7,1,1c0.3,0.4,0.6,0.7,1,1
			c0.3,0.4,0.6,0.7,1,1c0.3,0.4,0.6,0.7,1,1c0.3,0.4,0.6,0.7,1,1c0.3,0.4,0.6,0.7,1,1c0.3,0.4,0.6,0.7,1,1c0.3,0.4,0.6,0.7,1,1
			c0.3,0.4,0.6,0.7,1,1c0.3,0.4,0.6,0.7,1,1c0.3,0.4,0.6,0.7,1,1c0.3,0.4,0.6,0.7,1,1c0.3,0.4,0.6,0.7,1,1c0.3,0.4,0.6,0.7,1,1
			c0.3,0.4,0.6,0.7,1,1c0.3,0.4,0.6,0.7,1,1c0.3,0.4,0.6,0.7,1,1c0.3,0.4,0.6,0.7,1,1c0.3,0.4,0.6,0.7,1,1c0.3,0.4,0.6,0.7,1,1
			c0.3,0.4,0.6,0.7,1,1c0.3,0.4,0.6,0.7,1,1c0.3,0.4,0.6,0.7,1,1c0.3,0.4,0.6,0.7,1,1c0.3,0.4,0.6,0.7,1,1c0.3,0.4,0.6,0.7,1,1
			c0.3,0.4,0.6,0.7,1,1c0.3,0.4,0.6,0.7,1,1c0.3,0.4,0.6,0.7,1,1c0.3,0.4,0.6,0.7,1,1c0.3,0.4,0.6,0.7,1,1c0.3,0.4,0.6,0.7,1,1
			c0.3,0.4,0.6,0.7,1,1c0.3,0.4,0.6,0.7,1,1c0.3,0.4,0.6,0.7,1,1c0.3,0.4,0.6,0.7,1,1c0.3,0.4,0.6,0.7,1,1c0.3,0.4,0.6,0.7,1,1
			c0.3,0.4,0.6,0.7,1,1c1.4,2.1,4.6,2.2,12.1,2.2c11.6,0,12.1-0.3,12.1-10.5c0-19.1,0-38.1,0-57.2c0.3,0.3,0.6,0.6,0.9,0.9
			c0.3,0.3,0.7,0.7,1,1c0.3,0.3,0.7,0.7,1,1c0.3,0.3,0.7,0.7,1,1c0.3,0.3,0.7,0.7,1,1c0.3,0.3,0.7,0.7,1,1c0.3,0.3,0.7,0.7,1,1
			c0.3,0.3,0.7,0.7,1,1c0.3,0.3,0.7,0.7,1,1c0.3,0.3,0.7,0.7,1,1c0.3,0.3,0.7,0.7,1,1c0.3,0.3,0.7,0.7,1,1c0.3,0.3,0.7,0.7,1,1
			c0.3,0.3,0.7,0.7,1,1c0.3,0.3,0.7,0.7,1,1c0.3,0.3,0.7,0.7,1,1c0.3,0.3,0.7,0.7,1,1c0.3,0.3,0.7,0.7,1,1c0.3,0.3,0.7,0.7,1,1
			c0.3,0.3,0.7,0.7,1,1c0.3,0.3,0.7,0.7,1,1c0.3,0.3,0.7,0.7,1,1c0.3,0.3,0.7,0.7,1,1c0.3,0.3,0.7,0.7,1,1c0.3,0.3,0.7,0.7,1,1
			c0.3,0.3,0.7,0.7,1,1c0.3,0.3,0.7,0.7,1,1c0.3,0.3,0.7,0.7,1,1c0.3,0.3,0.7,0.7,1,1c0.3,0.3,0.7,0.7,1,1c0.3,0.3,0.7,0.7,1,1
			c0.3,0.3,0.7,0.7,1,1c0.3,0.3,0.7,0.7,1,1c0.3,0.3,0.7,0.7,1,1c0.3,0.3,0.7,0.7,1,1c0.3,0.3,0.7,0.7,1,1c0.3,0.3,0.7,0.7,1,1
			c0.3,0.3,0.7,0.7,1,1c0.3,0.3,0.7,0.7,1,1c0.3,0.3,0.7,0.7,1,1c0.3,0.3,0.7,0.7,1,1c0.3,0.3,0.7,0.7,1,1c0.3,0.3,0.7,0.7,1,1
			c0.3,0.3,0.7,0.7,1,1c0.3,0.3,0.7,0.7,1,1c0.3,0.3,0.7,0.7,1,1c0.3,0.3,0.7,0.7,1,1c0.3,0.3,0.7,0.7,1,1c0.3,0.3,0.7,0.7,1,1
			c0.3,0.3,0.7,0.7,1,1c0.3,0.3,0.7,0.7,1,1c0.3,0.3,0.7,0.7,1,1c0.3,0.3,0.7,0.7,1,1c0.3,0.3,0.7,0.7,1,1c0.3,0.3,0.7,0.7,1,1
			c0.3,0.3,0.7,0.7,1,1c0.3,0.3,0.7,0.7,1,1c0.3,0.3,0.7,0.7,1,1c0.3,0.3,0.7,0.7,1,1c0.3,0.3,0.7,0.7,1,1c0.3,0.3,0.7,0.7,1,1
			c0.3,0.3,0.7,0.7,1,1c0.3,0.3,0.7,0.7,1,1c0.3,0.3,0.7,0.7,1,1c0.3,0.3,0.7,0.7,1,1c0.3,0.3,0.7,0.7,1,1c0.3,0.3,0.7,0.7,1,1
			c0.3,0.3,0.7,0.7,1,1c0.3,0.3,0.7,0.7,1,1c0.3,0.3,0.7,0.7,1,1c0.3,0.3,0.7,0.7,1,1c0.3,0.3,0.7,0.7,1,1c0.3,0.3,0.7,0.7,1,1
			c0.3,0.3,0.7,0.7,1,1c0.3,0.3,0.7,0.7,1,1c0.3,0.3,0.7,0.7,1,1c0.3,0.3,0.7,0.7,1,1c0.3,0.3,0.7,0.7,1,1c0.3,0.3,0.7,0.7,1,1
			c0.3,0.3,0.7,0.7,1,1c0.3,0.3,0.7,0.7,1,1c0.3,0.3,0.7,0.7,1,1c0.3,0.3,0.7,0.7,1,1c0.3,0.3,0.7,0.7,1,1c0.3,0.3,0.7,0.7,1,1
			c0.3,0.3,0.7,0.7,1,1c0.3,0.3,0.7,0.7,1,1c0.3,0.3,0.7,0.7,1,1c0.3,0.3,0.7,0.7,1,1c0.3,0.3,0.7,0.7,1,1c0.3,0.3,0.7,0.7,1,1
			c0.3,0.3,0.7,0.7,1,1c0.3,0.3,0.7,0.7,1,1c0.3,0.3,0.7,0.7,1,1c0.3,0.3,0.7,0.7,1,1c0.3,0.3,0.7,0.7,1,1c0.3,0.3,0.7,0.7,1,1
			c0.3,0.3,0.7,0.7,1,1c0.3,0.3,0.7,0.7,1,1c0.3,0.3,0.7,0.7,1,1c0.3,0.3,0.7,0.7,1,1c0.3,0.3,0.7,0.7,1,1c0.3,0.3,0.7,0.7,1,1
			c0.3,0.3,0.7,0.7,1,1c0.3,0.3,0.7,0.7,1,1c0.3,0.3,0.7,0.7,1,1c0.3,0.3,0.7,0.7,1,1c0.3,0.3,0.7,0.7,1,1c0.3,0.3,0.7,0.7,1,1
			c0.3,0.3,0.7,0.7,1,1c0.3,0.3,0.7,0.7,1,1c0.3,0.3,0.7,0.7,1,1c0.3,0.3,0.7,0.7,1,1c0.3,0.3,0.7,0.7,1,1c0.3,0.3,0.7,0.7,1,1
			c0.3,0.3,0.7,0.7,1,1c0.3,0.3,0.7,0.7,1,1c0.3,0.3,0.7,0.7,1,1c0.3,0.3,0.7,0.7,1,1c0.3,0.3,0.7,0.7,1,1c0.3,0.3,0.7,0.7,1,1
			c0.3,0.3,0.7,0.7,1,1c0.3,0.3,0.7,0.7,1,1c0.3,0.3,0.7,0.7,1,1c0.3,0.3,0.7,0.7,1,1c0.3,0.3,0.7,0.7,1,1c0.3,0.3,0.7,0.7,1,1
			c0.3,0.3,0.7,0.7,1,1c0.3,0.3,0.7,0.7,1,1c0.3,0.3,0.7,0.7,1,1c3.5,3.6,7.2,7,11.1,10.3c13,11,27.6,18.7,51.7,19.5
			c6.9,0.6,17.9-4.8,28.3-12.6c16-12,25.5-28.8,33.1-46.5c21.6-50.6,31.9-103.9,36.6-158.5C922.1,689.6,921.6,687.9,920.1,686.8z"/>
	</g>
</g>
<g id="Layer_1">
	<g>
		<path class="st2" d="M259.1,500.3c0-40.6-0.1-81.3,0.1-122c0-3.9-2.1-9.7,3.1-11c6.3-1.6,13.5-2.3,19.6,0.7
			c3.5,1.8,2.1,6.6,2.1,10.1c0.1,57.9,0,115.8,0,173.7c0,24.5-0.2,49,0.1,73.5c0.1,7.5-2.3,11.1-10.1,10c-1.6-0.2-3.4-0.2-5,0
			c-7.7,1.1-10.2-2.1-10.1-9.8C259.3,583.9,259.1,542.1,259.1,500.3z"/>
		<path class="st2" d="M533.7,315.7c0-41.2,0-82.4,0.1-123.6c0-3.7-1.3-8.9,3.6-10c6.4-1.4,13.3-2.3,19.6,0.8
			c2.4,1.2,1.9,4.5,1.9,6.9c0,83.8,0,167.6,0.1,251.4c0,6.4-2.6,9.3-9,8.9c-1.7-0.1-3.3,0-5,0c-10.4-0.1-11.1-0.7-11.1-10.8
			c-0.1-9.5,0-18.9,0-28.4C533.7,379.2,533.7,347.5,533.7,315.7z"/>
		<path class="st2" d="M546.9,632.8c-24.1-0.8-38.7-8.5-51.7-19.5c-20.5-17.4-35.4-39.2-47.3-63.1c-19.4-39-32.7-80.3-45.3-121.8
			c-12.8-42.3-25-84.7-39.1-126.5c-10.2-30.3-21.7-60.3-42.7-85.4c-3.7-4.5-7.8-8.8-12.1-12.7c-17.4-16-37.9-14.6-53.6,3
			c-17,19.1-27.3,41.9-36.2,65.4c-14.3,37.8-23.4,77-31.6,116.5c-0.7,3.3-0.7,6.6-1.1,9.9c-0.8,6.6-3.2,11.1-11.3,9.8
			c-8.6-1.4-11.1-4-9.6-13c2.2-12.9,4.4-25.8,7.7-38.4c6.6-25.5,12.1-51.4,21-76.3c10-28.1,20.9-55.9,39.1-80
			c13.3-17.6,30-30.7,53.5-28.9c19.7,1.6,34.6,13.2,47.2,27.6c20.3,23.3,32.4,51.2,43.1,79.7c18.8,50,32.1,101.7,47.9,152.7
			c13.3,43,27.1,86,50.3,125.1c12.2,20.5,26.3,39.5,48.5,50.6c16.3,8.1,29.8,5.7,42.7-6.8c16.7-16,24.8-36.8,32.1-57.8
			c13.9-39.9,21.1-81.2,25.6-123c1.3-12.2,3.4-13.6,15.5-11.2c4.1,0.8,5.7,2.5,5.3,6.8c-4.8,54.6-15,107.9-36.6,158.5
			c-7.6,17.7-17.1,34.5-33.1,46.5C564.9,627.9,553.8,633.4,546.9,632.8z"/>
		<path class="st2" d="M354.2,430c0,33.4,0,66.8,0,100.2c0,10.2-0.5,10.5-12.1,10.5c-12.7,0-13.1-0.2-13.1-10.3
			c0-67.3,0.1-134.7-0.2-202c0-9.3,4.2-10.5,11.7-10.3c12.7,0.3,13.6,0.6,13.6,10.1C354.2,362.1,354.2,396.1,354.2,430z"/>
		<path class="st2" d="M488.5,386.9c0,33.7,0,67.4,0,101.1c0,10.3-0.1,10.4-12,10.4c-11.6,0-12-0.2-12-10.5c0-67.1,0-134.2,0-201.3
			c0-4-1.3-9.4,4-10.7c5.8-1.5,12.3-2.2,18,0.7c3.1,1.6,2,5.5,2,8.5C488.5,318.9,488.5,352.9,488.5,386.9z"/>
		<path class="st2" d="M191.7,509c0-22,0.3-43.9-0.2-65.9c-0.2-8.7,3.9-10.1,11.2-10c13,0.3,14,0.5,14,9.7c0.1,44.5,0,89,0.1,133.5
			c0,6.7-2.3,10-9.3,9.4c-2.2-0.2-4.5-0.2-6.7,0c-6.8,0.6-9.4-2.3-9.3-9.2C191.8,554,191.7,531.5,191.7,509z"/>
		<path class="st2" d="M602,229.6c6.5-2.7,13.2-1.5,19.8-1.3c6.1,0.2,5.5,5.3,5.5,9.4c0.1,26.2,0,52.3,0,78.5
			c0,19.8-0.2,39.5,0.1,59.3c0.1,7.3-2.6,10.3-9.8,9.6c-5.2-0.5-10.6,0.9-15.7-1.5c0.3-0.4,0.5-0.8,0.8-1.3c2.6-2.1,5.4-3.8,8.9-4.1
			c6.2-0.5,7.8-4.6,8.9-10.1c4.4-22.8,2.2-45.9,2.4-68.8c0.2-17.4,1.3-34.8-2.2-52.2c-2.3-11.4-3.2-13.1-14.9-15
			c-1.1-0.2-2.1-0.6-3.1-1.2C602.6,230.4,602.3,230,602,229.6z"/>
		<path class="st2" d="M602,383.5c-1.9-3.3-1.5-7-1.5-10.6c0-44.2,0-88.5,0-132.7c0-3.6-0.3-7.3,1.5-10.6l0.4,0.3
			c2.7,2.7,2.2,6.2,2.2,9.4c0,44.8,0,89.6,0,134.4c0,3.3,0.4,6.8-2.3,9.4L602,383.5z"/>
		<path class="st2" d="M283.4,174.6c13.7-1,24.5,6.7,34.6,14.9c18.6,15.2,31.6,35.2,42,56.4c10.9,22.2,19,45.6,26.7,69
			c12.1,36.9,23.2,74.2,33.8,111.6c6.7,23.8,15.4,46.8,23.4,70.1c5.2,15.3,12.1,29.8,18.8,44.5c11.1,24.4,27.8,44.8,48.1,62.1
			c12.1,10.3,27.1,13.6,42.4,10.1c8.1-1.9,15.7-7.5,20.9-14.4c17.7-23.5,27-51,34.8-78.9c9.5-33.8,15.1-68.3,18.8-103.2
			c0.4-4.3,2.3-6.9,6.9-6.4c4.2,0.4,8,1.9,7.8,6.9c-0.3,6.7-0.6,13.4-1.8,19.9c-5.2,27.5-8.8,55.3-16.1,82.3
			c-6.8,25.3-16,49.8-29.3,72.3c-7.9,13.2-18.1,25.4-32.2,32.8c-17.7,9.3-34.3,4.5-50.9-4.3c-15.2-8.1-25.9-21.4-36.6-33.5
			c-12-13.6-20.9-30.4-28.8-47.4c-15.5-33.3-27.3-67.9-38.3-102.8c-9.5-29.9-17.5-60.2-26.9-90.1c-8.4-26.8-16.7-53.6-27.6-79.5
			c-9.9-23.6-20.9-46.6-40.4-64.1c-15.4-13.7-33-18.5-48.1-9.2c-8.5,5.3-15.8,12.8-21.4,21c-11.1,16.3-19,34.5-26.4,52.7
			c-11.6,28.3-18.2,58.1-25.6,87.7c-3.5,14-5.8,28.2-8.2,42.4c-0.9,5.3-2.1,8.8-8.9,7.8c-6.1-0.9-7.3-3.6-6.3-9
			c4.9-25.1,10.1-50.1,17-74.8c4.6-16.6,9.3-33.1,15.1-49.3c11.8-32.9,25.8-64.7,54.1-87.3C262.5,178.4,271.9,173.9,283.4,174.6z"/>
		<path class="st2" d="M602.4,383.2c0-51.1,0-102.2,0-153.3c27.7-0.2,23-2.8,23.2,22.5c0.3,39.4,0.1,78.9,0.1,118.3
			c0,12.6,0,12.6-12.4,12.6C609.6,383.3,606,383.2,602.4,383.2z"/>
		<path class="st2" d="M623.9,307.2c0,21.7-0.2,43.4,0.1,65.1c0.1,7.5-3,9.6-10,9.5c-6.7-0.1-10.3-1.5-10.3-9.2
			c0.2-43.4,0.2-86.7,0-130.1c0-7.4,2.9-9.5,10-9.6c7.6-0.1,10.4,2.5,10.3,10.2C623.7,264.3,623.9,285.7,623.9,307.2z"/>
	</g>
</g>
</svg>
