<?xml version="1.0" encoding="utf-8"?>
<!-- Generator: Adobe Illustrator 23.0.0, SVG Export Plug-In . SVG Version: 6.00 Build 0)  -->
<svg version="1.1" xmlns="http://www.w3.org/2000/svg" xmlns:xlink="http://www.w3.org/1999/xlink" x="0px" y="0px"
	 viewBox="0 0 800 800" style="enable-background:new 0 0 800 800;" xml:space="preserve">
<style type="text/css">
	.st0{fill:#333333;}
	.st1{opacity:0.4;clip-path:url(#SVGID_2_);}
	.st2{fill:#FFFEF4;}
	.st3{fill:#12A65A;}
	.st4{fill:#727272;}
	.st5{fill:#FDFDFD;}
	.st6{fill:#E34F36;}
</style>
<g id="Layer_2">
	<g>
		<circle class="st0" cx="400.2" cy="400" r="400"/>
	</g>
</g>
<g id="Layer_1_copy">
	<g>
		<defs>
			<circle id="SVGID_1_" cx="400.2" cy="400" r="400"/>
		</defs>
		<clipPath id="SVGID_2_">
			<use xlink:href="#SVGID_1_"  style="overflow:visible;"/>
		</clipPath>
		<path class="st1" d="M814.6,477.4c0-5.5-0.1-10.9-0.8-16.3c-1-9.2-3.9-17.7-9.2-25.4c-2.5-3.6-5.1-6.8-8-9.7c-0.3-0.3-0.7-0.7-1-1
			c-0.3-0.3-0.7-0.7-1-1c-0.3-0.3-0.7-0.7-1-1c-0.3-0.3-0.7-0.7-1-1c-0.3-0.3-0.7-0.7-1-1c-0.3-0.3-0.7-0.7-1-1
			c-0.3-0.3-0.7-0.7-1-1c-0.3-0.3-0.7-0.7-1-1c-0.3-0.3-0.7-0.7-1-1c-0.3-0.3-0.7-0.7-1-1c-0.3-0.3-0.7-0.7-1-1
			c-0.3-0.3-0.7-0.7-1-1c-0.3-0.3-0.7-0.7-1-1c-0.3-0.3-0.7-0.7-1-1c-0.3-0.3-0.7-0.7-1-1c-0.3-0.3-0.7-0.7-1-1
			c-0.3-0.3-0.7-0.7-1-1c-0.3-0.3-0.7-0.7-1-1c-0.3-0.3-0.7-0.7-1-1c-0.3-0.3-0.7-0.7-1-1c-0.3-0.3-0.7-0.7-1-1
			c-0.3-0.3-0.7-0.7-1-1c-0.3-0.3-0.7-0.7-1-1c-0.3-0.3-0.7-0.7-1-1c-0.3-0.3-0.7-0.7-1-1c-0.3-0.3-0.7-0.7-1-1
			c-0.3-0.3-0.7-0.7-1-1c-0.3-0.3-0.7-0.7-1-1c-0.3-0.3-0.7-0.7-1-1c-0.3-0.3-0.7-0.7-1-1c-0.3-0.3-0.7-0.7-1-1
			c-0.3-0.3-0.7-0.7-1-1c-0.3-0.3-0.7-0.7-1-1c-0.3-0.3-0.7-0.7-1-1c-0.3-0.3-0.7-0.7-1-1c-0.3-0.3-0.7-0.7-1-1
			c-0.3-0.3-0.7-0.7-1-1c-0.3-0.3-0.7-0.7-1-1c-0.3-0.3-0.7-0.7-1-1c-0.3-0.3-0.7-0.7-1-1c-0.3-0.3-0.7-0.7-1-1
			c-0.3-0.3-0.7-0.7-1-1c-0.3-0.3-0.7-0.7-1-1c-0.3-0.3-0.7-0.7-1-1c-0.3-0.3-0.7-0.7-1-1c-0.3-0.3-0.7-0.7-1-1
			c-0.3-0.3-0.7-0.7-1-1c-0.3-0.3-0.7-0.7-1-1c-0.3-0.3-0.7-0.7-1-1c-0.3-0.3-0.7-0.7-1-1c-0.3-0.3-0.7-0.7-1-1
			c-0.3-0.3-0.7-0.7-1-1c-0.3-0.3-0.7-0.7-1-1c-0.3-0.3-0.7-0.7-1-1c-0.3-0.3-0.7-0.7-1-1c-0.3-0.3-0.7-0.7-1-1
			c-0.3-0.3-0.7-0.7-1-1c-0.3-0.3-0.7-0.7-1-1c-0.3-0.3-0.7-0.7-1-1c-0.3-0.3-0.7-0.7-1-1c-0.3-0.3-0.7-0.7-1-1
			c-0.3-0.3-0.7-0.7-1-1c-0.3-0.3-0.7-0.7-1-1c-0.3-0.3-0.7-0.7-1-1c-0.3-0.3-0.7-0.7-1-1c-0.3-0.3-0.7-0.7-1-1
			c-0.3-0.3-0.7-0.7-1-1c-0.3-0.3-0.7-0.7-1-1c-0.3-0.3-0.7-0.7-1-1c-0.3-0.3-0.7-0.7-1-1c-0.3-0.3-0.7-0.7-1-1
			c-0.3-0.3-0.7-0.7-1-1c-0.3-0.3-0.7-0.7-1-1c-0.3-0.3-0.7-0.7-1-1c-0.3-0.3-0.7-0.7-1-1c-0.3-0.3-0.7-0.7-1-1
			c-0.3-0.3-0.7-0.7-1-1c-0.3-0.3-0.7-0.7-1-1c-0.3-0.3-0.7-0.7-1-1c-0.3-0.3-0.7-0.7-1-1c-0.3-0.3-0.7-0.7-1-1
			c-0.3-0.3-0.7-0.7-1-1c-0.3-0.3-0.7-0.7-1-1c-0.3-0.3-0.7-0.7-1-1c-0.3-0.3-0.7-0.7-1-1c-0.3-0.3-0.7-0.7-1-1
			c-0.3-0.3-0.7-0.7-1-1c-0.3-0.3-0.7-0.7-1-1c-0.3-0.3-0.7-0.7-1-1c-0.3-0.3-0.7-0.7-1-1c-0.3-0.3-0.7-0.7-1-1
			c-0.3-0.3-0.7-0.7-1-1c-0.3-0.3-0.7-0.7-1-1c-0.3-0.3-0.7-0.7-1-1c-0.3-0.3-0.7-0.7-1-1c-0.3-0.3-0.7-0.7-1-1
			c-0.3-0.3-0.7-0.7-1-1c-0.3-0.3-0.7-0.7-1-1c-0.3-0.3-0.7-0.7-1-1c-0.3-0.3-0.7-0.7-1-1c-0.3-0.3-0.7-0.7-1-1
			c-0.3-0.3-0.7-0.7-1-1c-0.3-0.3-0.7-0.7-1-1c-0.3-0.3-0.7-0.7-1-1c-0.3-0.3-0.7-0.7-1-1c-0.3-0.3-0.7-0.7-1-1
			c-0.3-0.3-0.7-0.7-1-1c-0.3-0.3-0.7-0.7-1-1c-0.3-0.3-0.7-0.7-1-1c-0.3-0.3-0.7-0.7-1-1c-0.3-0.3-0.7-0.7-1-1
			c-0.3-0.3-0.7-0.7-1-1c-0.3-0.3-0.7-0.7-1-1c-0.3-0.3-0.7-0.7-1-1c-0.3-0.3-0.7-0.7-1-1c-0.3-0.3-0.7-0.7-1-1
			c-0.3-0.3-0.7-0.7-1-1c-0.3-0.3-0.7-0.7-1-1c-0.3-0.3-0.7-0.7-1-1c-0.3-0.3-0.7-0.7-1-1c-0.3-0.3-0.7-0.7-1-1
			c-0.3-0.3-0.7-0.7-1-1c-0.3-0.3-0.7-0.7-1-1c-0.3-0.3-0.7-0.7-1-1c-0.3-0.3-0.7-0.7-1-1c-0.3-0.3-0.7-0.7-1-1
			c-0.3-0.3-0.7-0.7-1-1c-0.3-0.3-0.7-0.7-1-1c-0.3-0.3-0.7-0.7-1-1c-0.3-0.3-0.7-0.7-1-1c-0.3-0.3-0.7-0.7-1-1
			c-0.3-0.3-0.7-0.7-1-1c-0.3-0.3-0.7-0.7-1-1c-0.3-0.3-0.7-0.7-1-1c-0.3-0.3-0.7-0.7-1-1c-0.3-0.3-0.7-0.7-1-1
			c-0.3-0.3-0.7-0.7-1-1c-0.3-0.3-0.7-0.7-1-1c-0.3-0.3-0.7-0.7-1-1c-0.3-0.3-0.7-0.7-1-1c-0.3-0.3-0.7-0.7-1-1
			c-0.3-0.3-0.7-0.7-1-1c-0.3-0.3-0.7-0.7-1-1c-0.3-0.3-0.7-0.7-1-1c-0.3-0.3-0.7-0.7-1-1c-0.3-0.3-0.7-0.7-1-1
			c-0.3-0.3-0.7-0.7-1-1c-0.3-0.3-0.7-0.7-1-1c-0.3-0.3-0.7-0.7-1-1c-0.3-0.3-0.7-0.7-1-1c-0.3-0.3-0.7-0.7-1-1
			c-0.3-0.3-0.7-0.7-1-1c-0.3-0.3-0.7-0.7-1-1c-0.3-0.3-0.7-0.7-1-1c-0.3-0.3-0.7-0.7-1-1c-0.3-0.3-0.7-0.7-1-1
			c-0.3-0.3-0.7-0.7-1-1c-0.3-0.3-0.7-0.7-1-1c-0.3-0.3-0.7-0.7-1-1c-0.3-0.3-0.7-0.7-1-1c-0.3-0.3-0.7-0.7-1-1
			c-0.3-0.3-0.7-0.7-1-1c-0.3-0.3-0.7-0.7-1-1c-0.3-0.3-0.7-0.7-1-1c-0.3-0.3-0.7-0.7-1-1c-0.3-0.3-0.7-0.7-1-1
			c-0.3-0.3-0.7-0.7-1-1c-0.3-0.3-0.7-0.7-1-1c-0.3-0.3-0.7-0.7-1-1c-0.3-0.3-0.7-0.7-1-1c-0.3-0.3-0.7-0.7-1-1
			c-0.3-0.3-0.7-0.7-1-1c-0.3-0.3-0.7-0.7-1-1c-0.3-0.3-0.7-0.7-1-1c-0.3-0.3-0.7-0.7-1-1c-0.3-0.3-0.7-0.7-1-1
			c-0.3-0.3-0.7-0.7-1-1c-0.3-0.3-0.7-0.7-1-1c-0.3-0.3-0.7-0.7-1-1c-0.3-0.3-0.7-0.7-1-1c-0.3-0.3-0.7-0.7-1-1
			c-0.3-0.3-0.7-0.7-1-1c-0.3-0.3-0.7-0.7-1-1c-0.3-0.3-0.7-0.7-1-1c-0.3-0.3-0.7-0.7-1-1c-0.3-0.3-0.7-0.7-1-1
			c-0.3-0.3-0.7-0.7-1-1c-0.3-0.3-0.7-0.7-1-1c-0.3-0.3-0.7-0.7-1-1c-0.3-0.3-0.7-0.7-1-1c-0.3-0.3-0.7-0.7-1-1
			c-0.3-0.3-0.7-0.7-1-1c-0.3-0.3-0.7-0.7-1-1c-0.3-0.3-0.7-0.7-1-1c-0.3-0.3-0.7-0.7-1-1c-0.3-0.3-0.7-0.7-1-1
			c-0.3-0.3-0.7-0.7-1-1c-0.3-0.3-0.7-0.7-1-1c-0.3-0.3-0.7-0.7-1-1c-0.3-0.3-0.7-0.7-1-1c-0.3-0.3-0.7-0.7-1-1
			c-0.3-0.3-0.7-0.7-1-1c-0.3-0.3-0.7-0.7-1-1c-0.3-0.3-0.7-0.7-1-1c-0.3-0.3-0.7-0.7-1-1c-0.3-0.3-0.7-0.7-1-1
			c-0.3-0.3-0.7-0.7-1-1c-0.3-0.3-0.7-0.7-1-1c-0.3-0.3-0.7-0.7-1-1c-0.3-0.3-0.7-0.7-1-1c-0.3-0.3-0.7-0.7-1-1
			c-0.3-0.3-0.7-0.7-1-1c-0.3-0.3-0.7-0.7-1-1c-0.3-0.3-0.7-0.7-1-1c-0.3-0.3-0.7-0.7-1-1c-0.3-0.3-0.7-0.7-1-1
			c-0.3-0.3-0.7-0.7-1-1c-0.3-0.3-0.7-0.7-1-1c-0.3-0.3-0.7-0.7-1-1c-0.3-0.3-0.7-0.7-1-1c-0.3-0.3-0.7-0.7-1-1
			c-0.3-0.3-0.7-0.7-1-1c-0.3-0.3-0.7-0.7-1-1c-0.3-0.3-0.7-0.7-1-1c-0.3-0.3-0.7-0.7-1-1c-0.3-0.3-0.7-0.7-1-1
			c-0.3-0.3-0.7-0.7-1-1c-0.3-0.3-0.7-0.7-1-1c-0.3-0.3-0.7-0.7-1-1c-0.3-0.3-0.7-0.7-1-1c-0.3-0.3-0.7-0.7-1-1
			c-0.3-0.3-0.7-0.7-1-1c-0.3-0.3-0.7-0.7-1-1c-0.3-0.3-0.7-0.7-1-1c-0.3-0.3-0.7-0.7-1-1c-0.3-0.3-0.7-0.7-1-1
			c-0.3-0.3-0.7-0.7-1-1c-0.3-0.3-0.7-0.7-1-1c-0.3-0.3-0.7-0.7-1-1c-0.3-0.3-0.7-0.7-1-1c-0.3-0.3-0.7-0.7-1-1
			c-0.3-0.3-0.7-0.7-1-1c-0.3-0.3-0.7-0.7-1-1c-0.3-0.3-0.7-0.7-1-1c-0.3-0.3-0.7-0.7-1-1c-0.3-0.3-0.7-0.7-1-1
			c-0.3-0.3-0.7-0.7-1-1c-0.3-0.3-0.7-0.7-1-1c-0.3-0.3-0.7-0.7-1-1c-0.3-0.3-0.7-0.7-1-1c-0.3-0.3-0.7-0.7-1-1
			c-0.3-0.3-0.7-0.7-1-1c-0.3-0.3-0.7-0.7-1-1c-0.3-0.3-0.7-0.7-1-1c-0.3-0.3-0.7-0.7-1-1c-0.3-0.3-0.7-0.7-1-1
			c-0.3-0.3-0.7-0.7-1-1c-0.3-0.3-0.7-0.7-1-1c-0.3-0.3-0.7-0.7-1-1c-0.3-0.3-0.7-0.7-1-1c-0.3-0.3-0.7-0.7-1-1
			c-0.3-0.3-0.7-0.7-1-1c-11-11.6-25.1-17.5-42.2-17.5c-81.8,0-163.5,0-245.3,0c-5.7,0-11.4,0.8-16.9,2.4
			c-22.1,6.6-42.6,28.5-41.2,55.3c0,115.5,0,231.1,0,346.6c0,1.5-0.1,3.1,0,4.6c0.3,2.8,0.5,5.6,1.1,8.3c2.5,11,8.1,20.3,16,28
			c0.3,0.3,0.7,0.7,1,1c0.3,0.3,0.7,0.7,1,1c0.3,0.3,0.7,0.7,1,1c0.3,0.3,0.7,0.7,1,1c0.3,0.3,0.7,0.7,1,1c0.3,0.3,0.7,0.7,1,1
			c0.3,0.3,0.7,0.7,1,1c0.3,0.3,0.7,0.7,1,1c0.3,0.3,0.7,0.7,1,1c0.3,0.3,0.7,0.7,1,1c0.3,0.3,0.7,0.7,1,1c0.3,0.3,0.7,0.7,1,1
			c0.3,0.3,0.7,0.7,1,1c0.3,0.3,0.7,0.7,1,1c0.3,0.3,0.7,0.7,1,1c0.3,0.3,0.7,0.7,1,1c0.3,0.3,0.7,0.7,1,1c0.3,0.3,0.7,0.7,1,1
			c0.3,0.3,0.7,0.7,1,1c0.3,0.3,0.7,0.7,1,1c0.3,0.3,0.7,0.7,1,1c0.3,0.3,0.7,0.7,1,1c0.3,0.3,0.7,0.7,1,1c0.3,0.3,0.7,0.7,1,1
			c0.3,0.3,0.7,0.7,1,1c0.3,0.3,0.7,0.7,1,1c0.3,0.3,0.7,0.7,1,1c0.3,0.3,0.7,0.7,1,1c0.3,0.3,0.7,0.7,1,1c0.3,0.3,0.7,0.7,1,1
			c0.3,0.3,0.7,0.7,1,1c0.3,0.3,0.7,0.7,1,1c0.3,0.3,0.7,0.7,1,1c0.3,0.3,0.7,0.7,1,1c0.3,0.3,0.7,0.7,1,1c0.3,0.3,0.7,0.7,1,1
			c0.3,0.3,0.7,0.7,1,1c0.3,0.3,0.7,0.7,1,1c0.3,0.3,0.7,0.7,1,1c0.3,0.3,0.7,0.7,1,1c0.3,0.3,0.7,0.7,1,1c0.3,0.3,0.7,0.7,1,1
			c0.3,0.3,0.7,0.7,1,1c0.3,0.3,0.7,0.7,1,1c0.3,0.3,0.7,0.7,1,1c0.3,0.3,0.7,0.7,1,1c0.3,0.3,0.7,0.7,1,1c0.3,0.3,0.7,0.7,1,1
			c0.3,0.3,0.7,0.7,1,1c0.3,0.3,0.7,0.7,1,1c0.3,0.3,0.7,0.7,1,1c0.3,0.3,0.7,0.7,1,1c0.3,0.3,0.7,0.7,1,1c0.3,0.3,0.7,0.7,1,1
			c0.3,0.3,0.7,0.7,1,1c0.3,0.3,0.7,0.7,1,1c0.3,0.3,0.7,0.7,1,1c0.3,0.3,0.7,0.7,1,1c0.3,0.3,0.7,0.7,1,1c0.3,0.3,0.7,0.7,1,1
			c0.3,0.3,0.7,0.7,1,1c0.3,0.3,0.7,0.7,1,1c0.3,0.3,0.7,0.7,1,1c0.3,0.3,0.7,0.7,1,1c0.3,0.3,0.7,0.7,1,1c0.3,0.3,0.7,0.7,1,1
			c0.3,0.3,0.7,0.7,1,1c0.3,0.3,0.7,0.7,1,1c0.3,0.3,0.7,0.7,1,1c0.3,0.3,0.7,0.7,1,1c0.3,0.3,0.7,0.7,1,1c0.3,0.3,0.7,0.7,1,1
			c0.3,0.3,0.7,0.7,1,1c0.3,0.3,0.7,0.7,1,1c0.3,0.3,0.7,0.7,1,1c0.3,0.3,0.7,0.7,1,1c0.3,0.3,0.7,0.7,1,1c0.3,0.3,0.7,0.7,1,1
			c0.3,0.3,0.7,0.7,1,1c0.3,0.3,0.7,0.7,1,1c0.3,0.3,0.7,0.7,1,1c0.3,0.3,0.7,0.7,1,1c0.3,0.3,0.7,0.7,1,1c0.3,0.3,0.7,0.7,1,1
			c0.3,0.3,0.7,0.7,1,1c0.3,0.3,0.7,0.7,1,1c0.3,0.3,0.7,0.7,1,1c0.3,0.3,0.7,0.7,1,1c0.3,0.3,0.7,0.7,1,1c0.3,0.3,0.7,0.7,1,1
			c0.3,0.3,0.7,0.7,1,1c0.3,0.3,0.7,0.7,1,1c0.3,0.3,0.7,0.7,1,1c0.3,0.3,0.7,0.7,1,1c0.3,0.3,0.7,0.7,1,1c0.3,0.3,0.7,0.7,1,1
			c0.3,0.3,0.7,0.7,1,1c0.3,0.3,0.7,0.7,1,1c0.3,0.3,0.7,0.7,1,1c0.3,0.3,0.7,0.7,1,1c0.3,0.3,0.7,0.7,1,1c0.3,0.3,0.7,0.7,1,1
			c0.3,0.3,0.7,0.7,1,1c0.3,0.3,0.7,0.7,1,1c0.3,0.3,0.7,0.7,1,1c0.3,0.3,0.7,0.7,1,1c0.3,0.3,0.7,0.7,1,1c0.3,0.3,0.7,0.7,1,1
			c0.3,0.3,0.7,0.7,1,1c0.3,0.3,0.7,0.7,1,1c0.3,0.3,0.7,0.7,1,1c0.3,0.3,0.7,0.7,1,1c0.3,0.3,0.7,0.7,1,1c0.3,0.3,0.7,0.7,1,1
			c0.3,0.3,0.7,0.7,1,1c0.3,0.3,0.7,0.7,1,1c0.3,0.3,0.7,0.7,1,1c0.3,0.3,0.7,0.7,1,1c0.3,0.3,0.7,0.7,1,1c0.3,0.3,0.7,0.7,1,1
			c0.3,0.3,0.7,0.7,1,1c0.3,0.3,0.7,0.7,1,1c0.3,0.3,0.7,0.7,1,1c0.3,0.3,0.7,0.7,1,1c0.3,0.3,0.7,0.7,1,1c0.3,0.3,0.7,0.7,1,1
			c0.3,0.3,0.7,0.7,1,1c0.3,0.3,0.7,0.7,1,1c0.3,0.3,0.7,0.7,1,1c0.3,0.3,0.7,0.7,1,1c0.3,0.3,0.7,0.7,1,1c0.3,0.3,0.7,0.7,1,1
			c0.3,0.3,0.7,0.7,1,1c0.3,0.3,0.7,0.7,1,1c0.3,0.3,0.7,0.7,1,1c0.3,0.3,0.7,0.7,1,1c0.3,0.3,0.7,0.7,1,1c0.3,0.3,0.7,0.7,1,1
			c0.3,0.3,0.7,0.7,1,1c0.3,0.3,0.7,0.7,1,1c0.3,0.3,0.7,0.7,1,1c0.3,0.3,0.7,0.7,1,1c0.3,0.3,0.7,0.7,1,1c0.3,0.3,0.7,0.7,1,1
			c0.3,0.3,0.7,0.7,1,1c0.3,0.3,0.7,0.7,1,1c0.3,0.3,0.7,0.7,1,1c0.3,0.3,0.7,0.7,1,1c0.3,0.3,0.7,0.7,1,1c0.3,0.3,0.7,0.7,1,1
			c0.3,0.3,0.7,0.7,1,1c0.3,0.3,0.7,0.7,1,1c0.3,0.3,0.7,0.7,1,1c0.3,0.3,0.7,0.7,1,1c0.3,0.3,0.7,0.7,1,1c0.3,0.3,0.7,0.7,1,1
			c0.3,0.3,0.7,0.7,1,1c0.3,0.3,0.7,0.7,1,1c0.3,0.3,0.7,0.7,1,1c0.3,0.3,0.7,0.7,1,1c0.3,0.3,0.7,0.7,1,1c0.3,0.3,0.7,0.7,1,1
			c0.3,0.3,0.7,0.7,1,1c0.3,0.3,0.7,0.7,1,1c0.3,0.3,0.7,0.7,1,1c0.3,0.3,0.7,0.7,1,1c0.3,0.3,0.7,0.7,1,1c0.3,0.3,0.7,0.7,1,1
			c0.3,0.3,0.7,0.7,1,1c0.3,0.3,0.7,0.7,1,1c0.3,0.3,0.7,0.7,1,1c0.3,0.3,0.7,0.7,1,1c0.3,0.3,0.7,0.7,1,1c0.3,0.3,0.7,0.7,1,1
			c0.3,0.3,0.7,0.7,1,1c0.3,0.3,0.7,0.7,1,1c0.3,0.3,0.7,0.7,1,1c0.3,0.3,0.7,0.7,1,1c0.3,0.3,0.7,0.7,1,1c0.3,0.3,0.7,0.7,1,1
			c0.3,0.3,0.7,0.7,1,1c0.3,0.3,0.7,0.7,1,1c0.3,0.3,0.7,0.7,1,1c0.3,0.3,0.7,0.7,1,1c0.3,0.3,0.7,0.7,1,1c0.3,0.3,0.7,0.7,1,1
			c0.3,0.3,0.7,0.7,1,1c0.3,0.3,0.7,0.7,1,1c0.3,0.3,0.7,0.7,1,1c0.3,0.3,0.7,0.7,1,1c0.3,0.3,0.7,0.7,1,1c0.3,0.3,0.7,0.7,1,1
			c0.3,0.3,0.7,0.7,1,1c0.3,0.3,0.7,0.7,1,1c0.3,0.3,0.7,0.7,1,1c0.3,0.3,0.7,0.7,1,1c0.3,0.3,0.7,0.7,1,1c0.3,0.3,0.7,0.7,1,1
			c0.3,0.3,0.7,0.7,1,1c0.3,0.3,0.7,0.7,1,1c0.3,0.3,0.7,0.7,1,1c0.3,0.3,0.7,0.7,1,1c0.3,0.3,0.7,0.7,1,1c0.3,0.3,0.7,0.7,1,1
			c0.3,0.3,0.7,0.7,1,1c0.3,0.3,0.7,0.7,1,1c0.3,0.3,0.7,0.7,1,1c0.3,0.3,0.7,0.7,1,1c0.3,0.3,0.7,0.7,1,1c0.3,0.3,0.7,0.7,1,1
			c0.3,0.3,0.7,0.7,1,1c0.3,0.3,0.7,0.7,1,1c0.3,0.3,0.7,0.7,1,1c0.3,0.3,0.7,0.7,1,1c0.3,0.3,0.7,0.7,1,1c0.3,0.3,0.7,0.7,1,1
			c0.3,0.3,0.7,0.7,1,1c0.3,0.3,0.7,0.7,1,1c0.3,0.3,0.7,0.7,1,1c0.3,0.3,0.7,0.7,1,1c0.3,0.3,0.7,0.7,1,1c0.3,0.3,0.7,0.7,1,1
			c0.3,0.3,0.7,0.7,1,1c0.3,0.3,0.7,0.7,1,1c0.3,0.3,0.7,0.7,1,1c0.3,0.3,0.7,0.7,1,1c0.3,0.3,0.7,0.7,1,1c0.3,0.3,0.7,0.7,1,1
			c0.3,0.3,0.7,0.7,1,1c0.3,0.3,0.7,0.7,1,1c0.3,0.3,0.7,0.7,1,1c0.3,0.3,0.7,0.7,1,1c0.3,0.3,0.7,0.7,1,1c0.3,0.3,0.7,0.7,1,1
			c0.3,0.3,0.7,0.7,1,1c0.3,0.3,0.7,0.7,1,1c0.3,0.3,0.7,0.7,1,1c0.3,0.3,0.7,0.7,1,1c0.3,0.3,0.7,0.7,1,1c0.3,0.3,0.7,0.7,1,1
			c0.3,0.3,0.7,0.7,1,1c0.3,0.3,0.7,0.7,1,1c0.3,0.3,0.7,0.7,1,1c0.3,0.3,0.7,0.7,1,1c0.3,0.3,0.7,0.7,1,1c0.3,0.3,0.7,0.7,1,1
			c0.3,0.3,0.7,0.7,1,1c0.3,0.3,0.7,0.7,1,1c0.3,0.3,0.7,0.7,1,1c0.3,0.3,0.7,0.7,1,1c0.3,0.3,0.7,0.7,1,1c0.3,0.3,0.7,0.7,1,1
			c0.3,0.3,0.7,0.7,1,1c0.3,0.3,0.7,0.7,1,1c0.3,0.3,0.7,0.7,1,1c0.3,0.3,0.7,0.7,1,1c0.3,0.3,0.7,0.7,1,1c0.3,0.3,0.7,0.7,1,1
			c0.3,0.3,0.7,0.7,1,1c0.3,0.3,0.7,0.7,1,1c0.3,0.3,0.7,0.7,1,1c0.3,0.3,0.7,0.7,1,1c0.7,0.7,1.5,1.5,2.3,2.2
			c7.6,7,16.3,11.7,26.6,13.5c9.2,1.5,18.5,2.1,27.8,2.2c15.7,0.1,31.3-0.3,47-0.3c55.8,0,111.6,0,167.3,0c0.8,0,1.5,0,2.8,0
			c-0.8-0.9-1.2-1.5-1.7-1.9c-0.1-0.1-0.1-0.1-0.2-0.2c-0.3-0.3-0.5-0.6-0.8-0.8c-0.1-0.1-0.1-0.1-0.2-0.2c-0.3-0.3-0.5-0.6-0.8-0.8
			c-0.1-0.1-0.1-0.1-0.2-0.2c-0.3-0.3-0.5-0.6-0.8-0.8c-0.1-0.1-0.1-0.1-0.2-0.2c-0.3-0.3-0.5-0.6-0.8-0.8c-0.1-0.1-0.1-0.1-0.2-0.2
			c-0.3-0.3-0.5-0.6-0.8-0.8c-0.1-0.1-0.1-0.1-0.2-0.2c-0.3-0.3-0.5-0.6-0.8-0.8c-0.1-0.1-0.1-0.1-0.2-0.2c-0.3-0.3-0.5-0.6-0.8-0.8
			c-0.1-0.1-0.1-0.1-0.2-0.2c-0.3-0.3-0.5-0.6-0.8-0.8c-0.1-0.1-0.1-0.1-0.2-0.2c-0.3-0.3-0.5-0.6-0.8-0.8c-0.1-0.1-0.1-0.1-0.2-0.2
			c-0.3-0.3-0.5-0.6-0.8-0.8c-0.1-0.1-0.1-0.1-0.2-0.2c-0.3-0.3-0.5-0.6-0.8-0.8c-0.1-0.1-0.1-0.1-0.2-0.2c-0.3-0.3-0.5-0.6-0.8-0.8
			c-0.1-0.1-0.1-0.1-0.2-0.2c-0.3-0.3-0.5-0.6-0.8-0.8c-0.1-0.1-0.1-0.1-0.2-0.2c-0.3-0.3-0.5-0.6-0.8-0.8c-0.1-0.1-0.1-0.1-0.2-0.2
			c-0.3-0.3-0.5-0.6-0.8-0.8c-0.1-0.1-0.1-0.1-0.2-0.2c-0.3-0.3-0.5-0.6-0.8-0.8c-0.1-0.1-0.1-0.1-0.2-0.2c-0.3-0.3-0.5-0.6-0.8-0.8
			c-0.1-0.1-0.1-0.1-0.2-0.2c-0.3-0.3-0.5-0.6-0.8-0.8c-0.1-0.1-0.1-0.1-0.2-0.2c-0.3-0.3-0.5-0.6-0.8-0.8c-0.1-0.1-0.1-0.1-0.2-0.2
			c-0.3-0.3-0.5-0.6-0.8-0.8c-0.1-0.1-0.1-0.1-0.2-0.2c-0.3-0.3-0.5-0.6-0.8-0.8c-0.1-0.1-0.1-0.1-0.2-0.2c-0.3-0.3-0.5-0.6-0.8-0.8
			c-0.1-0.1-0.1-0.1-0.2-0.2c-0.3-0.3-0.5-0.6-0.8-0.8c-0.1-0.1-0.1-0.1-0.2-0.2c-0.3-0.3-0.5-0.6-0.8-0.8c-0.1-0.1-0.1-0.1-0.2-0.2
			c-0.3-0.3-0.5-0.6-0.8-0.8c-0.1-0.1-0.1-0.1-0.2-0.2c-0.1-0.1-0.1-0.2-0.2-0.2h42.4c16,0,29-13,29-29.1V675.9
			c6.2,0.3,26.5,0.2,28.2-0.2c0-1.1,0-2.1,0-3C814.6,607.6,814.6,542.5,814.6,477.4z"/>
	</g>
</g>
<g id="Layer_1">
	<g>
		<path class="st2" d="M494.4,580.9H245.3c-16,0-29-13-29-29.1v-348c0-16.1,13-29.1,29-29.1h249.1c16,0,29,13,29,29.1v348
			C523.4,567.9,510.5,580.9,494.4,580.9z"/>
		<path class="st3" d="M551.6,412.7c-1.9,0.5-27.8,0.5-29.8,0.1c-0.1-0.5-0.2-1-0.2-1.5c0-0.7,0-1.3,0-2c0-66.5,0-133,0-199.4
			c0-4.3-0.1-8.6-1.3-12.9c-3.2-12-13.9-20.4-26.4-20.4c-82.7,0-165.4,0-248,0c-9.6,0-22.4,6.1-25.9,19.8c-0.5,2-0.6,4.1-0.9,6.1
			c-0.1,0.9,0,1.9,0,2.8c0,115.3,0,230.5-0.1,345.8c0,7.4,2.7,13.4,7.3,18.9c3.4,4.1,8.1,6.1,13.2,7.4c5.5,1.3,11,1.5,16.6,1.4
			c6.4-0.1,12.7-0.5,19.1-0.5c50.9,0,101.7,0,152.6,0c4.5,0,9-0.3,13.5-0.3c1.7,0,3.4,0.2,5.2,0.4c1.9,0.2,3.5,1.1,4.7,2.7
			c2.2,2.9,4.4,5.7,6.7,8.4c4.9,5.8,10.5,10.8,16.8,14.9c0.9,0.6,1.9,1.3,2.7,2c0.5,0.4,0.9,1,1.7,1.9c-1.3,0-2.1,0-2.8,0
			c-55.8,0-111.6,0-167.3,0c-15.7,0-31.3,0.4-47,0.3c-9.3,0-18.6-0.6-27.8-2.2c-10.3-1.7-19.1-6.4-26.6-13.5
			c-8.6-8-14.7-17.6-17.3-29.2c-0.6-2.7-0.8-5.5-1.1-8.3c-0.1-1.5,0-3.1,0-4.6c0-115.5,0-231.1,0-346.6c-1.5-26.8,19-48.7,41.2-55.3
			c5.5-1.6,11.1-2.4,16.9-2.4c81.8,0,163.5,0,245.3,0c20.9,0,37.3,8.8,49.2,26.1c5.3,7.7,8.2,16.2,9.2,25.4
			c0.6,5.4,0.8,10.9,0.8,16.3c0,65.1,0,130.2,0,195.3C551.6,410.6,551.6,411.6,551.6,412.7z"/>
		<path class="st3" d="M476.1,432.6c0-24.6,0-48.7,0-73c-0.9-0.1-1.6-0.1-2.3-0.1c-11.2,0-22.4,0-33.7,0c-0.4,0-0.8,0-1.2,0
			c-0.8,0-1.2,0.4-1.2,1.2c0,0.7,0,1.5,0,2.2c0,38.3,0,76.7,0,115c0,6.9-2,13.4-4.5,19.7c-0.2,0.6-0.6,1.2-1,1.7
			c-0.5,0.8-1.2,1.2-2.2,1.2c-0.6,0-1.2,0-1.8,0c-58.4,0-116.9,0-175.3,0c-0.7,0-1.3,0-2,0c-1.8-0.1-2.5-0.7-2.7-2.5c-0.1-1,0-2,0-3
			c0.1-4.7,0.3-9.4,0.3-14.2c0-42.3,0-84.5-0.1-126.8c0-2.5,0-4.9,0-7.4c0-1.5,0.1-1.6,1.6-1.7c2.4-0.2,4.8-0.3,7.2-0.4
			c15.7-0.2,31.3-0.5,47-0.6c29.2-0.1,58.3-0.2,87.5-0.1c31.9,0,63.7,0.2,95.6,0.4c0.8,0,1.6,0,2.4,0.1c1,0.2,1.7,0.8,1.7,1.9
			c0,0.5,0,1.1,0,1.6c0,24.4,0,48.8,0,73.3c0,1.9-0.6,3.2-2.1,4.2C485.4,428.2,481.1,430.4,476.1,432.6z M368.6,359.5
			c-1.1,0-2.1,0-3,0c-32.9,0-65.9,0-98.8,0c-3.4,0-3.3-0.5-3.3,3.4c0,39.7,0,79.5,0,119.2c0,3.2-0.5,3.4,3.4,3.4
			c32.9,0,65.7,0,98.6,0c3.7,0,3.3-0.1,3.3-3.4c0-30.3,0-60.7,0-91c0-9.5,0-19,0-28.6C368.8,361.5,368.7,360.6,368.6,359.5z
			 M384.1,359.6c-0.1,1-0.2,1.9-0.2,2.8c0,40,0,80,0,119.9c0,3,0,3,2.9,3c10.7,0,21.4,0,32.1,0c3.9,0,3.6,0.2,3.6-3.7
			c0-39.5,0-79,0-118.5c0-0.7,0-1.3,0-2c0-0.5-0.2-1-0.3-1.5C409.5,359.6,396.9,359.6,384.1,359.6z"/>
		<path class="st3" d="M312.5,318.7c-19.8,0-39.7,0-59.6,0c-0.7,0-1.3,0-2,0c-1.9-0.2-2.6-0.9-2.7-2.8c-0.1-1.5,0-2.9,0-4.4
			c0-1.9,0.1-3.7,0.2-5.6c0.1-1.6,0.1-1.8,1.7-1.9c2.9-0.3,5.8-0.5,8.7-0.5c24.8-0.2,49.7-0.3,74.5-0.4c12.9,0,25.9,0.2,38.8,0.3
			c2.7,0,3.6,0.8,3.6,3.5c0,3.4-0.1,6.8-0.2,10.2c0,1.4-0.2,1.5-1.5,1.6c-0.5,0-1.1,0-1.6,0C352.5,318.7,332.5,318.7,312.5,318.7z"
			/>
		<path class="st3" d="M375.2,288.9c-0.8,0-1.5,0-2.3,0c-40.3,0-80.6,0-120.9,0c-3.2,0-3.9-0.6-3.9-3.8c0-3.1,0.1-6.1,0.3-9.2
			c0.1-1.7,0.5-2,2.2-2.1c0.7,0,1.5,0,2.2,0c39.4,0,78.7,0,118.1,0c0.7,0,1.3,0,2,0c1.8,0.1,2.3,0.6,2.7,2.3c0.1,0.3,0.1,0.7,0.1,1
			c-0.1,3.6-0.2,7.2-0.3,10.8C375.6,288.1,375.4,288.3,375.2,288.9z"/>
		<path class="st3" d="M306.9,546.6c0-4.3,0-8.4,0-12.8c1.1-0.1,2-0.2,3-0.2c23.2,0,46.3,0,69.5,0c16.8,0,33.6,0,50.4,0
			c3.5,0,3.2-0.1,3.2,3.3c0,2.5,0,4.9,0,7.4c0,0.7-0.1,1.4-0.1,2.3C390.8,546.6,348.9,546.6,306.9,546.6z"/>
		<path class="st4" d="M291.4,219.9c0,0.7,0,1.4,0,2.1c0.1,5,0.1,10,0.2,15c0,1.9,0,3.7-0.2,5.6c-0.2,1.8-1.1,2.6-2.9,2.7
			c-1.5,0.1-3,0-4.5,0c-0.5-1.9-0.5-36.4,0-38.4c2.4,0,4.8-0.1,7.2,0c1.4,0.1,2.6,1.1,3.4,2.2c1.1,1.6,2.3,3.2,3.3,5
			c2.6,4.9,5,9.8,7.5,14.7c0.4,0.9,1,1.7,1.4,2.5c0.2,0,0.3,0,0.5-0.1c0.1-0.5,0.2-0.9,0.2-1.4c-0.2-5.5-0.4-11-0.6-16.5
			c0-1.1-0.1-2.3-0.1-3.4c0-1.8,0.8-2.9,2.6-3.2c1-0.2,2-0.2,3-0.1c2.2,0.2,3,1.2,3,3.4c0.1,10,0.2,20.1,0.3,30.1
			c0,1.1-0.2,2.2-0.4,3.4c-0.2,1.1-1,1.7-2.1,1.7c-1.7,0-3.3,0.1-5-0.1c-0.8-0.1-1.7-0.6-2.2-1.2c-1.1-1.2-2.1-2.4-2.9-3.8
			c-2.1-3.7-4-7.5-5.9-11.3c-1.3-2.5-2.6-5.1-4-7.6c-0.3-0.6-0.8-1.1-1.2-1.7C291.8,219.7,291.6,219.8,291.4,219.9z"/>
		<path class="st4" d="M374.5,245.8c-8.2,0.1-18-5.6-18.3-18.4c-0.1-3.4,0.4-6.6,1.7-9.7c3.2-7.9,11.3-12.4,19.7-11
			c8.8,1.5,14.6,7.9,15.5,16.8c0.5,5.6-0.9,10.6-3.9,15.1C385.7,243.7,380.5,245.7,374.5,245.8z M365.5,226.8c0,2.9,0.5,5.2,1.5,7.3
			c2.8,5.8,11.2,6.4,14.5,0.7c3.3-5.8,3.2-11.7,0-17.5c-0.9-1.7-2.4-3-4.3-3.6c-4.2-1.4-8.6,0.5-10.4,4.7
			C365.7,221,365.5,223.7,365.5,226.8z"/>
		<path class="st4" d="M448.8,207c0.4-0.1,0.7-0.1,1.1-0.1c6,0,11.9-0.1,17.9-0.1c0.6,0,1.2,0,1.8,0.1c1.7,0.2,2.3,0.9,2.4,2.6
			c0,0.9,0,1.9,0,2.8c0,0.4-0.1,0.8-0.2,1.4c-0.7,0-1.4,0.1-2.1,0.1c-3.5,0-6.9,0-10.4,0c-2,0-2.1,0.1-2.1,2.1c0,1.8,0,3.6,0,5.3
			c1,0.8,1.9,0.6,2.8,0.6c2.5,0,4.9-0.1,7.4-0.1c0.7,0,1.4,0.1,2.2,0.3c1,0.2,1.5,0.8,1.6,1.8c0,1.5,0,3,0,4.7
			c-3.1,0.4-5.9,1.4-9,0.6c-0.5-0.1-1-0.2-1.6-0.2c-2.2-0.3-3.3,0.6-3.4,2.9c-0.1,1.3-0.1,2.7,0,4c0.1,1.8,0.7,2.6,2.5,2.8
			c2.6,0.2,5.3,0.1,7.9,0.2c1.3,0,2.6-0.1,4-0.1c0.7,0,1.3,0.2,1.3,0.9c0,1.4,0,2.9-0.1,4.4c-0.1,1-0.8,1.5-1.8,1.5
			c-0.3,0-0.7,0-1,0c-6.5,0-13,0-19.5,0c-0.5,0-1-0.1-1.5-0.1C448.4,243.6,448.3,209.3,448.8,207z"/>
		<path class="st4" d="M319.9,206.9c2.6,0,4.8-0.1,7.1,0c1.6,0.1,2.3,1.1,2.8,2.6c2.1,7.6,4.2,15.1,6.3,22.7c0.2,0.7,0.5,1.3,0.7,2
			c0.2,0,0.3,0,0.5,0c0.2-0.6,0.5-1.1,0.6-1.7c2-7.2,4-14.3,6-21.5c0.1-0.5,0.3-1,0.5-1.5c0.7-1.8,1.9-2.8,3.9-2.7
			c1.5,0.1,2.9,0.1,4.3,0.3c1.2,0.2,1.4,0.7,1.2,1.8c-0.1,0.6-0.4,1.3-0.6,1.9c-3.4,10.2-6.8,20.4-10.2,30.6
			c-0.2,0.6-0.4,1.1-0.6,1.7c-0.5,1.3-1.5,2-2.9,2c-2,0-4,0-6,0c-1.1,0-1.9-0.5-2.4-1.4c-0.5-0.9-1-1.9-1.3-2.9
			c-2.8-8.7-5.5-17.5-8.2-26.2c-0.6-1.8-1-3.7-1.5-5.6C320,208.5,320,207.8,319.9,206.9z"/>
		<path class="st4" d="M441.4,237.6c0.7,2.1,1.1,4.3,0.9,6.5c-1,0.8-2.2,1.1-3.3,1.1c-4.3,0.1-8.6,0-12.9-0.7
			c-6.6-1.1-10.6-4.9-12-11.4c-0.8-3.6-1.2-7.2-0.8-10.9c0.7-6.1,4.1-10.4,9.4-13.2c5.6-2.9,11.6-3.1,17.6-1.7
			c2.2,0.5,2.7,1.4,2.1,3.6c-0.3,1.1-0.7,2.3-1.1,3.6c-1.6-0.2-3.2-0.5-4.7-0.6c-1.8-0.1-3.7-0.3-5.5,0c-5.3,0.8-8.1,3.4-8.9,8.7
			c-0.3,2.4-0.3,4.9,0.2,7.3c1,5.3,4.5,8.2,9.9,8.3c2.6,0,5.1-0.3,7.7-0.6C440.5,237.7,440.8,237.7,441.4,237.6z"/>
		<path class="st4" d="M275.3,206.9c0.5,2.5,0.4,36.6-0.1,38.4c-2.1,0-4.3,0.1-6.4,0c-1.1,0-1.6-0.8-1.8-1.8c-0.1-0.5,0-0.9,0-1.4
			c0-10.6,0-21.2,0-31.7c0-0.4,0-0.8,0-1.2c0.1-1.3,0.7-2.1,1.9-2.2C271,206.8,273.1,206.9,275.3,206.9z"/>
		<path class="st4" d="M406.9,245.3c-2.3,0-4.4,0.1-6.5,0c-1.2,0-1.8-0.8-1.9-1.9c-0.1-0.5,0-0.9,0-1.4c0-10.5,0-21,0-31.5
			c0-0.3,0-0.7,0-1c0.1-1.7,0.7-2.5,2.4-2.6c1.9-0.1,3.8,0,6,0c0.1,0.7,0.3,1.4,0.3,2c0,11.5,0,23,0,34.5
			C407.1,243.9,407,244.4,406.9,245.3z"/>
		<path class="st5" d="M554.5,534.8c0,1.4,0,2.3,0,3.3c0,15.2,0,30.4,0,45.6c0,2.8-0.4,5.5-1.5,8c-2.9,6.3-7.9,9.6-14.7,9.8
			c-6.3,0.2-11.8-3.7-14.4-9.8c-1.4-3.3-1.9-6.7-1.9-10.2c0-14.5,0-28.9,0-43.4c0-1,0-1.9,0-3.1c-1.2-0.1-2.1-0.2-3-0.2
			c-14.9,0-29.8,0-44.7,0c-4.5,0-8.7-1-12.6-3.3c-3.1-1.8-5.6-4.3-6.3-8c-0.9-5.1-0.3-10,2.6-14.4c2.6-4,6.7-5.5,11.2-6.1
			c2.5-0.3,5-0.4,7.5-0.5c13.9,0,27.8,0,41.7,0c1,0,2.1,0,3.3,0c0.1-1.2,0.1-2.2,0.1-3.1c-0.1-10.2-0.4-20.4-0.4-30.5
			c0-6.4,0.4-12.8,1.5-19.1c0.6-3.5,1.5-7,4.4-9.5c4.6-4,9.8-5.4,15.6-3.6c5.9,1.8,9.5,6,10.9,12c0.4,1.7,0.5,3.5,0.5,5.3
			c0,15,0,30.1,0,45.1c0,1,0,1.9,0,3.2c1.2,0.1,2.2,0.2,3.2,0.2c14.4,0,28.8,0,43.2,0c3.4,0,6.7,0.3,9.8,1.5
			c5.5,2,9.3,5.5,10.6,11.4c1.7,7.9-2.9,15.8-10.7,18.4c-2.1,0.7-4.4,1-6.7,1c-15.4,0.1-30.7,0-46.1,0
			C556.8,534.8,555.9,534.8,554.5,534.8z"/>
		<path class="st6" d="M647.1,514.2c-0.2,1-0.4,2-0.5,3.1c-0.2,4.3-0.3,8.6-0.6,12.8c-1.5,19-7.8,36.2-19.5,51.4
			c-9.1,11.7-19.4,22.2-32.3,29.9c-12.1,7.2-25.1,11.8-39,13.8c-8.8,1.3-17.7,1.7-26.5,0.8c-26.3-2.6-49-12.9-67.5-31.8
			c-3.9-4-7.6-8.2-11-12.6c-10-12.9-15.7-27.6-18.7-43.5c-1.9-10.2-2.3-20.6-1.3-30.9c0.9-9.8,4-19.1,7.3-28.3
			c9.6-26.9,38.8-58.5,79.2-65.9c11.7-2.1,23.5-2.7,35.4-1.2c28.4,3.6,51.7,16.4,69.8,38.4c9.9,12.1,17.7,25.3,21.8,40.5
			c1.6,5.6,2.7,11.3,2.7,17.2c0,1.3,0.4,2.5,0.6,3.8C647.1,512.6,647.1,513.4,647.1,514.2z M554.5,534.8c1.4,0,2.3,0,3.3,0
			c15.4,0,30.7,0,46.1,0c2.2,0,4.6-0.3,6.7-1c7.8-2.5,12.4-10.5,10.7-18.4c-1.3-5.8-5.1-9.4-10.6-11.4c-3.2-1.1-6.5-1.5-9.8-1.5
			c-14.4,0-28.8,0-43.2,0c-1,0-2-0.1-3.2-0.2c0-1.2,0-2.2,0-3.2c0-15,0-30.1,0-45.1c0-1.8-0.1-3.6-0.5-5.3c-1.4-5.9-5-10.1-10.9-12
			c-5.8-1.8-11-0.4-15.6,3.6c-2.9,2.5-3.8,5.9-4.4,9.5c-1.1,6.3-1.5,12.7-1.5,19.1c0.1,10.2,0.3,20.4,0.4,30.5
			c0,0.9-0.1,1.9-0.1,3.1c-1.3,0-2.3,0-3.3,0c-13.9,0-27.8,0-41.7,0c-2.5,0-5,0.1-7.5,0.5c-4.5,0.6-8.6,2.2-11.2,6.1
			c-2.9,4.4-3.5,9.3-2.6,14.4c0.7,3.7,3.1,6.1,6.3,8c3.9,2.3,8.1,3.3,12.6,3.3c14.9,0,29.8,0,44.7,0c0.9,0,1.9,0.1,3,0.2
			c0,1.2,0,2.2,0,3.1c0,14.5,0,28.9,0,43.4c0,3.5,0.5,6.9,1.9,10.2c2.6,6.1,8.1,10,14.4,9.8c6.9-0.2,11.9-3.5,14.7-9.8
			c1.2-2.5,1.6-5.2,1.5-8c0-15.2,0-30.4,0-45.6C554.5,537.1,554.5,536.1,554.5,534.8z"/>
	</g>
</g>
</svg>
