<?xml version="1.0" encoding="utf-8"?>
<!-- Generator: Adobe Illustrator 23.0.0, SVG Export Plug-In . SVG Version: 6.00 Build 0)  -->
<svg version="1.1" xmlns="http://www.w3.org/2000/svg" xmlns:xlink="http://www.w3.org/1999/xlink" x="0px" y="0px"
	 viewBox="0 0 800 800" style="enable-background:new 0 0 800 800;" xml:space="preserve">
<style type="text/css">
	.st0{fill:#333333;}
	.st1{opacity:0.4;clip-path:url(#SVGID_2_);}
	.st2{fill:#12A65A;}
	.st3{fill:#F1D59D;}
	.st4{fill:#FDFDFD;}
</style>
<g id="Layer_2">
	<circle class="st0" cx="400" cy="400" r="400"/>
</g>
<g id="Layer_1_copy">
	<g>
		<defs>
			<circle id="SVGID_1_" cx="400" cy="400" r="400"/>
		</defs>
		<clipPath id="SVGID_2_">
			<use xlink:href="#SVGID_1_"  style="overflow:visible;"/>
		</clipPath>
		<path class="st1" d="M899,840.8c0-0.3,0-0.6,0-1c-0.4,0-0.7,0-1,0c0-0.3,0-0.6,0-1c-0.4,0-0.7,0-1,0c0-0.3,0-0.6,0-1
			c-0.4,0-0.7,0-1,0c0-0.3,0-0.6,0-1c-0.4,0-0.7,0-1,0c0-0.3,0-0.6,0-1c-0.4,0-0.7,0-1,0c0-0.3,0-0.6,0-1c-0.4,0-0.7,0-1,0
			c0-0.3,0-0.6,0-1c-0.4,0-0.7,0-1,0c0-0.3,0-0.6,0-1c-0.4,0-0.7,0-1,0c0-0.3,0-0.6,0-1c-0.4,0-0.7,0-1,0c0-0.3,0-0.6,0-1
			c-0.4,0-0.7,0-1,0c0-0.3,0-0.6,0-1c-0.4,0-0.7,0-1,0c0-0.3,0-0.6,0-1c-0.4,0-0.7,0-1,0c0-0.3,0-0.6,0-1c-0.4,0-0.7,0-1,0
			c0-0.3,0-0.6,0-1c-0.4,0-0.7,0-1,0c0-0.3,0-0.6,0-1c-0.4,0-0.7,0-1,0c0-0.3,0-0.6,0-1c-0.4,0-0.7,0-1,0c0-0.3,0-0.6,0-1
			c-0.4,0-0.7,0-1,0c0-0.3,0-0.6,0-1c-0.4,0-0.7,0-1,0c0-0.3,0-0.6,0-1c-0.4,0-0.7,0-1,0c0-0.3,0-0.6,0-1c-0.4,0-0.7,0-1,0
			c0-0.3,0-0.6,0-1c-0.4,0-0.7,0-1,0c0-0.3,0-0.6,0-1c-0.4,0-0.7,0-1,0c0-0.3,0-0.6,0-1c-0.4,0-0.7,0-1,0c0-0.3,0-0.6,0-1
			c-0.4,0-0.7,0-1,0c0-0.3,0-0.6,0-1c-0.4,0-0.7,0-1,0c0-0.3,0-0.6,0-1c-0.4,0-0.7,0-1,0c0-0.3,0-0.6,0-1c-0.4,0-0.7,0-1,0
			c0-0.3,0-0.6,0-1c-0.4,0-0.7,0-1,0c0-0.3,0-0.6,0-1c-0.3,0-0.6,0-0.9,0c0-0.1-0.1-0.2-0.1-0.3c0-0.2,0-0.5,0-0.7
			c-0.1,0-0.2,0-0.3,0c-0.6-1.5-1.2-3.1-1.9-4.6c-4.4-10.6-9.2-20.9-15.2-30.7c-3-4.9-6.3-9.6-10.1-13.9c-1-1.1-1.9-2.1-3-3.1
			c-0.3-0.3-0.7-0.7-1-1c-0.3-0.3-0.7-0.7-1-1c-0.3-0.3-0.7-0.7-1-1c-0.3-0.3-0.7-0.7-1-1c-0.3-0.3-0.7-0.7-1-1
			c-0.3-0.3-0.7-0.7-1-1c-0.3-0.3-0.7-0.7-1-1c-0.3-0.3-0.7-0.7-1-1c-0.3-0.3-0.7-0.7-1-1c-0.3-0.3-0.7-0.7-1-1
			c-0.3-0.3-0.7-0.7-1-1c-0.3-0.3-0.7-0.7-1-1c-0.3-0.3-0.7-0.7-1-1c-0.3-0.3-0.7-0.7-1-1c-0.3-0.3-0.7-0.7-1-1
			c-0.3-0.3-0.7-0.7-1-1c-0.3-0.3-0.7-0.7-1-1c-0.3-0.3-0.7-0.7-1-1c-0.3-0.3-0.7-0.7-1-1c-0.3-0.3-0.7-0.7-1-1
			c-0.3-0.3-0.7-0.7-1-1c-0.3-0.3-0.7-0.7-1-1c-0.3-0.3-0.7-0.7-1-1c-0.3-0.3-0.7-0.7-1-1c-0.3-0.3-0.7-0.7-1-1
			c-0.3-0.3-0.7-0.7-1-1c-0.3-0.3-0.7-0.7-1-1c-0.3-0.3-0.7-0.7-1-1c-0.3-0.3-0.7-0.7-1-1c-0.3-0.3-0.7-0.7-1-1
			c-0.3-0.3-0.7-0.7-1-1c-0.3-0.3-0.7-0.7-1-1c-0.3-0.3-0.7-0.7-1-1c-0.3-0.3-0.7-0.7-1-1c-0.3-0.3-0.7-0.7-1-1
			c-0.3-0.3-0.7-0.7-1-1c-0.3-0.3-0.7-0.7-1-1c-0.3-0.3-0.7-0.7-1-1c-0.3-0.3-0.7-0.7-1-1c-0.3-0.3-0.7-0.7-1-1
			c-0.3-0.3-0.7-0.7-1-1c-0.3-0.3-0.7-0.7-1-1c-0.3-0.3-0.7-0.7-1-1c-0.3-0.3-0.7-0.7-1-1c-0.3-0.3-0.7-0.7-1-1
			c-0.3-0.3-0.7-0.7-1-1c-0.3-0.3-0.7-0.7-1-1c-0.3-0.3-0.7-0.7-1-1c-0.3-0.3-0.7-0.7-1-1c-0.3-0.3-0.7-0.7-1-1
			c-0.3-0.3-0.7-0.7-1-1c-0.3-0.3-0.7-0.7-1-1c-0.3-0.3-0.7-0.7-1-1c-0.3-0.3-0.7-0.7-1-1c-0.3-0.3-0.7-0.7-1-1
			c-0.3-0.3-0.7-0.7-1-1c-0.3-0.3-0.7-0.7-1-1c-0.3-0.3-0.7-0.7-1-1c-0.3-0.3-0.7-0.7-1-1c-0.3-0.3-0.7-0.7-1-1
			c-0.3-0.3-0.7-0.7-1-1c-0.3-0.3-0.7-0.7-1-1c-0.3-0.3-0.7-0.7-1-1c-0.3-0.3-0.7-0.7-1-1c-0.3-0.3-0.7-0.7-1-1
			c-0.3-0.3-0.7-0.7-1-1c-0.3-0.3-0.7-0.7-1-1c-0.3-0.3-0.7-0.7-1-1c-0.3-0.3-0.7-0.7-1-1c-0.3-0.3-0.7-0.7-1-1
			c-0.3-0.3-0.7-0.7-1-1c-0.3-0.3-0.7-0.7-1-1c-0.3-0.3-0.7-0.7-1-1c-0.3-0.3-0.7-0.7-1-1c-0.3-0.3-0.7-0.7-1-1
			c-0.3-0.3-0.7-0.7-1-1c-0.3-0.3-0.7-0.7-1-1c-0.3-0.3-0.7-0.7-1-1c-0.3-0.3-0.7-0.7-1-1c-0.3-0.3-0.7-0.7-1-1
			c-0.3-0.3-0.7-0.7-1-1c-0.3-0.3-0.7-0.7-1-1c-0.3-0.3-0.7-0.7-1-1c-0.3-0.3-0.7-0.7-1-1c-0.3-0.3-0.7-0.7-1-1
			c-0.3-0.3-0.7-0.7-1-1c-0.3-0.3-0.7-0.7-1-1c-0.3-0.3-0.7-0.7-1-1c-0.3-0.3-0.7-0.7-1-1c-0.3-0.3-0.7-0.7-1-1
			c-0.3-0.3-0.7-0.7-1-1c-0.3-0.3-0.7-0.7-1-1c-0.3-0.3-0.7-0.7-1-1c-0.3-0.3-0.7-0.7-1-1c-0.3-0.3-0.7-0.7-1-1
			c-0.3-0.3-0.7-0.7-1-1c-0.3-0.3-0.7-0.7-1-1c-0.3-0.3-0.7-0.7-1-1c-0.3-0.3-0.7-0.7-1-1c-0.3-0.3-0.7-0.7-1-1
			c-0.3-0.3-0.7-0.7-1-1c-0.3-0.3-0.7-0.7-1-1c-0.3-0.3-0.7-0.7-1-1c-0.3-0.3-0.7-0.7-1-1c-0.3-0.3-0.7-0.7-1-1
			c-0.3-0.3-0.7-0.7-1-1c-0.3-0.3-0.7-0.7-1-1c-0.3-0.3-0.7-0.7-1-1c-0.3-0.3-0.7-0.7-1-1c-0.3-0.3-0.7-0.7-1-1
			c-0.3-0.3-0.7-0.7-1-1c-0.3-0.3-0.7-0.7-1-1c-0.3-0.3-0.7-0.7-1-1c-0.3-0.3-0.7-0.7-1-1c-0.3-0.3-0.7-0.7-1-1
			c-0.3-0.3-0.7-0.7-1-1c-0.3-0.3-0.7-0.7-1-1c-0.3-0.3-0.7-0.7-1-1c-0.3-0.3-0.7-0.7-1-1c-0.2-0.2-0.4-0.4-0.5-0.5
			c33.3-42.8,66.6-85.6,100-128.5c0.2-0.3,0.4-0.6,0.6-0.9c0,0,0-0.1,0-0.2c0-0.1,0-0.1-0.1-0.3c-0.3-0.2-0.6-0.5-0.9-0.7
			c0-0.1,0-0.1-0.1-0.3c-0.3-0.2-0.6-0.5-0.9-0.7c0-0.1,0-0.1-0.1-0.3c-0.3-0.2-0.6-0.5-0.9-0.7c0-0.1,0-0.1-0.1-0.3
			c-0.3-0.2-0.6-0.5-0.9-0.7c0-0.1,0-0.1-0.1-0.3c-0.3-0.2-0.6-0.5-0.9-0.7c0-0.1,0-0.1-0.1-0.3c-0.3-0.2-0.6-0.5-0.9-0.7
			c0-0.1,0-0.1-0.1-0.3c-0.3-0.2-0.6-0.5-0.9-0.7c0-0.1,0-0.1-0.1-0.3c-0.3-0.2-0.6-0.5-0.9-0.7c0-0.1,0-0.1-0.1-0.3
			c-0.3-0.2-0.6-0.5-0.9-0.7c0-0.1,0-0.1-0.1-0.3c-0.3-0.2-0.6-0.5-0.9-0.7c0-0.1,0-0.1-0.1-0.3c-0.3-0.2-0.6-0.5-0.9-0.7
			c0-0.1,0-0.1-0.1-0.3c-0.3-0.2-0.6-0.5-0.9-0.7c0-0.1,0-0.1-0.1-0.3c-0.3-0.2-0.6-0.5-0.9-0.7c0-0.1,0-0.1-0.1-0.3
			c-0.3-0.2-0.6-0.5-0.9-0.7c0-0.1,0-0.1-0.1-0.3c-0.3-0.2-0.6-0.5-0.9-0.7c0-0.1,0-0.1-0.1-0.3c-0.3-0.2-0.6-0.5-0.9-0.7
			c0-0.1,0-0.1-0.1-0.3c-0.3-0.2-0.6-0.5-0.9-0.7c0-0.1,0-0.1-0.1-0.3c-0.3-0.2-0.6-0.5-0.9-0.7c0-0.1,0-0.1-0.1-0.3
			c-0.3-0.2-0.6-0.5-0.9-0.7c0-0.1,0-0.1-0.1-0.3c-0.3-0.2-0.6-0.5-0.9-0.7c0-0.1,0-0.1-0.1-0.3c-0.3-0.2-0.6-0.5-0.9-0.7
			c0-0.1,0-0.1-0.1-0.3c-0.3-0.2-0.6-0.5-0.9-0.7c0-0.1,0-0.1-0.1-0.3c-0.3-0.2-0.6-0.5-0.9-0.7c0-0.1,0-0.1-0.1-0.3
			c-0.3-0.2-0.6-0.5-0.9-0.7c0-0.1,0-0.1-0.1-0.3c-0.3-0.2-0.6-0.5-0.9-0.7c0-0.1,0-0.1-0.1-0.3c-0.3-0.2-0.6-0.5-0.9-0.7
			c0-0.1,0-0.1-0.1-0.3c-0.3-0.2-0.6-0.5-0.9-0.7c0-0.1,0-0.1-0.1-0.3c-0.3-0.2-0.6-0.5-0.9-0.7c0-0.1,0-0.1-0.1-0.3
			c-0.3-0.2-0.6-0.5-0.9-0.7c0-0.1,0-0.1-0.1-0.3c-0.3-0.2-0.6-0.5-0.9-0.7c0-0.1,0-0.1-0.1-0.3c-0.3-0.2-0.6-0.5-0.9-0.7
			c0-0.1,0-0.1-0.1-0.3c-0.3-0.2-0.6-0.5-0.9-0.7c0-0.1,0-0.1-0.1-0.3c-0.3-0.2-0.6-0.5-0.9-0.7c0-0.1,0-0.1-0.1-0.3
			c-0.3-0.2-0.6-0.5-0.9-0.7c0-0.1,0-0.1-0.1-0.3c-0.3-0.2-0.6-0.5-0.9-0.7c0-0.1,0-0.1-0.1-0.3c-0.3-0.2-0.6-0.5-0.9-0.7
			c0-0.1,0-0.1-0.1-0.3c-0.3-0.2-0.6-0.5-0.9-0.7c0-0.1,0-0.1-0.1-0.3c-0.3-0.2-0.6-0.5-0.9-0.7c0-0.1,0-0.1-0.1-0.3
			c-0.3-0.2-0.6-0.5-0.9-0.7c0-0.1,0-0.1-0.1-0.3c-0.3-0.2-0.6-0.5-0.9-0.7c0-0.1,0-0.1-0.1-0.3c-0.3-0.2-0.6-0.5-0.9-0.7
			c0-0.1,0-0.1-0.1-0.3c-0.3-0.2-0.6-0.5-0.9-0.7c0-0.1,0-0.1-0.1-0.3c-0.3-0.2-0.6-0.5-0.9-0.7c0-0.1,0-0.1-0.1-0.3
			c-0.3-0.2-0.6-0.5-0.9-0.7c0-0.1,0-0.1-0.1-0.3c-0.3-0.2-0.6-0.5-0.9-0.7c0-0.1,0-0.1-0.1-0.3c-0.3-0.2-0.6-0.5-0.9-0.7
			c0-0.1,0-0.1-0.1-0.3c-0.3-0.2-0.6-0.5-0.9-0.7c0-0.1,0-0.1-0.1-0.3c-0.3-0.2-0.6-0.5-0.9-0.7c0-0.1,0-0.1-0.1-0.3
			c-0.3-0.2-0.6-0.5-0.9-0.7c0-0.1,0-0.1-0.1-0.3c-0.3-0.2-0.6-0.5-0.9-0.7c0-0.1,0-0.1-0.1-0.3c-0.3-0.2-0.6-0.5-0.9-0.7
			c0-0.1,0-0.1-0.1-0.3c-0.3-0.2-0.6-0.5-0.9-0.7c0-0.1,0-0.1-0.1-0.3c-0.3-0.2-0.6-0.5-0.9-0.7c0-0.1,0-0.1-0.1-0.3
			c-0.3-0.2-0.6-0.5-0.9-0.7c0-0.1,0-0.1-0.1-0.3c-0.3-0.2-0.6-0.5-0.9-0.7c0-0.1,0-0.1-0.1-0.3c-0.3-0.2-0.6-0.5-0.9-0.7
			c0-0.1,0-0.1-0.1-0.3c-0.3-0.2-0.6-0.5-0.9-0.7c0-0.1,0-0.1-0.1-0.3c-0.3-0.2-0.6-0.5-0.9-0.7c0-0.1,0-0.1-0.1-0.3
			c-0.3-0.2-0.6-0.5-0.9-0.7c0-0.1,0-0.1-0.1-0.3c-0.3-0.2-0.6-0.5-0.9-0.7c0-0.1,0-0.1-0.1-0.3c-0.3-0.2-0.6-0.5-0.9-0.7
			c0-0.1,0-0.1-0.1-0.3c-0.3-0.2-0.6-0.5-0.9-0.7c0-0.1,0-0.1-0.1-0.3c-0.3-0.2-0.6-0.5-0.9-0.7c0-0.1,0-0.1-0.1-0.3
			c-0.3-0.2-0.6-0.5-0.9-0.7c0-0.1,0-0.1-0.1-0.3c-0.3-0.2-0.6-0.5-0.9-0.7c0-0.1,0-0.1-0.1-0.3c-0.3-0.2-0.6-0.5-0.9-0.7
			c0-0.1,0-0.1-0.1-0.3c-0.3-0.2-0.6-0.5-0.9-0.7c0-0.1,0-0.1-0.1-0.3c-0.3-0.2-0.6-0.5-0.9-0.7c0-0.1,0-0.1-0.1-0.3
			c-0.3-0.2-0.6-0.5-0.9-0.7c0-0.1,0-0.1-0.1-0.3c-0.3-0.2-0.6-0.5-0.9-0.7c0-0.1,0-0.1-0.1-0.3c-0.3-0.2-0.6-0.5-0.9-0.7
			c0-0.1,0-0.1-0.1-0.3c-0.3-0.2-0.6-0.5-0.9-0.7c0-0.1,0-0.1-0.1-0.3c-0.3-0.2-0.6-0.5-0.9-0.7c0-0.1,0-0.1-0.1-0.3
			c-0.3-0.2-0.6-0.5-0.9-0.7c0-0.1,0-0.1-0.1-0.3c-0.3-0.2-0.6-0.5-0.9-0.7c0-0.1,0-0.1-0.1-0.3c-0.3-0.2-0.6-0.5-0.9-0.7
			c0-0.1,0-0.1-0.1-0.3c-0.3-0.2-0.6-0.5-0.9-0.7c0-0.1,0-0.1-0.1-0.3c-0.3-0.2-0.6-0.5-0.9-0.7c0-0.1,0-0.1-0.1-0.3
			c-0.3-0.2-0.6-0.5-0.9-0.7c0-0.1,0-0.1-0.1-0.3c-0.3-0.2-0.6-0.5-0.9-0.7c0-0.1,0-0.1-0.1-0.3c-0.3-0.2-0.6-0.5-0.9-0.7
			c0-0.1,0-0.1-0.1-0.3c-0.3-0.2-0.6-0.5-0.9-0.7c0-0.1,0-0.1-0.1-0.3c-0.3-0.2-0.6-0.5-0.9-0.7c0-0.1,0-0.1-0.1-0.3
			c-0.3-0.2-0.6-0.5-0.9-0.7c0-0.1,0-0.1-0.1-0.3c-0.3-0.2-0.6-0.5-0.9-0.7c0-0.1,0-0.1-0.1-0.3c-0.3-0.2-0.6-0.5-0.9-0.7
			c0-0.1,0-0.1-0.1-0.3c-0.3-0.2-0.6-0.5-0.9-0.7c0-0.1,0-0.1-0.1-0.3c-0.3-0.2-0.6-0.5-0.9-0.7c0-0.1,0-0.1-0.1-0.3
			c-0.3-0.2-0.6-0.5-0.9-0.7c0-0.1,0-0.1-0.1-0.3c-0.3-0.2-0.6-0.5-0.9-0.7c0-0.1,0-0.1-0.1-0.3c-0.3-0.2-0.6-0.5-0.9-0.7
			c0-0.1,0-0.1-0.1-0.3c-0.3-0.2-0.6-0.5-0.9-0.7c0-0.1,0-0.1-0.1-0.3c-0.3-0.2-0.6-0.5-0.9-0.7c0-0.1,0-0.1-0.1-0.3
			c-0.3-0.2-0.6-0.5-0.9-0.7c0-0.1,0-0.1-0.1-0.3c-0.3-0.2-0.6-0.5-0.9-0.7c0-0.1,0-0.1-0.1-0.3c-0.3-0.2-0.6-0.5-0.9-0.7
			c0-0.1,0-0.1-0.1-0.3c-0.3-0.2-0.6-0.5-0.9-0.7c0-0.1,0-0.1-0.1-0.3c-0.3-0.2-0.6-0.5-0.9-0.7c0-0.1,0-0.1-0.1-0.3
			c-0.3-0.2-0.6-0.5-0.9-0.7c0-0.1,0-0.1-0.1-0.3c-0.3-0.2-0.6-0.5-0.9-0.7c0-0.1,0-0.1-0.1-0.3c-0.3-0.2-0.6-0.5-0.9-0.7
			c0-0.1,0-0.1-0.1-0.3c-0.3-0.2-0.6-0.5-0.9-0.7c0-0.1,0-0.1-0.1-0.3c-0.3-0.2-0.6-0.5-0.9-0.7c0-0.1,0-0.1-0.1-0.3
			c-0.3-0.2-0.6-0.5-0.9-0.7c0-0.1,0-0.1-0.1-0.3c-0.3-0.2-0.6-0.5-0.9-0.7c0-0.1,0-0.1-0.1-0.3c-0.3-0.2-0.6-0.5-0.9-0.7
			c0-0.1,0-0.1-0.1-0.3c-0.3-0.2-0.6-0.5-0.9-0.7c0-0.1,0-0.1-0.1-0.3c-0.3-0.2-0.6-0.5-0.9-0.7c0-0.1,0-0.1-0.1-0.3
			c-0.3-0.2-0.6-0.5-0.9-0.7c0-0.1,0-0.1-0.1-0.3c-0.3-0.2-0.6-0.5-0.9-0.7c0-0.1,0-0.1-0.1-0.3c-0.3-0.2-0.6-0.5-0.9-0.7
			c0-0.1,0-0.1-0.1-0.3c-0.3-0.2-0.6-0.5-0.9-0.7c0-0.1,0-0.1-0.1-0.3c-0.3-0.2-0.6-0.5-0.9-0.7c0-0.1,0-0.1-0.1-0.3
			c-0.3-0.2-0.6-0.5-0.9-0.7c0-0.1,0-0.1-0.1-0.3c-0.3-0.2-0.6-0.5-0.9-0.7c0-0.1,0-0.1-0.1-0.3c-0.3-0.2-0.6-0.5-0.9-0.7
			c0-0.1,0-0.1-0.1-0.3c-0.3-0.2-0.6-0.5-0.9-0.7c0-0.1,0-0.1-0.1-0.3c-0.3-0.2-0.6-0.5-0.9-0.7c0-0.1,0-0.1-0.1-0.3
			c-0.3-0.2-0.6-0.5-0.9-0.7c0-0.1,0-0.1-0.1-0.3c-0.3-0.2-0.6-0.5-0.9-0.7c0-0.1,0-0.1-0.1-0.3c-0.3-0.2-0.6-0.5-0.9-0.7
			c0-0.1,0-0.1-0.1-0.3c-0.3-0.2-0.6-0.5-0.9-0.7c0-0.1,0-0.1-0.1-0.3c-0.3-0.2-0.6-0.5-0.9-0.7c0-0.1,0-0.1-0.1-0.3
			c-0.3-0.2-0.6-0.5-0.9-0.7c0-0.1,0-0.1-0.1-0.3c-0.3-0.2-0.6-0.5-0.9-0.7c0-0.1,0-0.1-0.1-0.3c-0.3-0.2-0.6-0.5-0.9-0.7
			c0-0.1,0-0.1-0.1-0.3c-0.3-0.2-0.6-0.5-0.9-0.7c0-0.1,0-0.1-0.1-0.3c-0.3-0.2-0.6-0.5-0.9-0.7c0-0.1,0-0.1-0.1-0.3
			c-0.3-0.2-0.6-0.5-0.9-0.7c0-0.1,0-0.1-0.1-0.3c-0.3-0.2-0.6-0.5-0.9-0.7c0-0.1,0-0.1-0.1-0.3c-0.3-0.2-0.6-0.5-0.9-0.7
			c0-0.1,0-0.1-0.1-0.3c-0.3-0.2-0.6-0.5-0.9-0.7c0-0.1,0-0.1-0.1-0.3c-0.3-0.2-0.6-0.5-0.9-0.7c0-0.1,0-0.1-0.1-0.3
			c-0.3-0.2-0.6-0.5-0.9-0.7c0-0.1,0-0.1-0.1-0.3c-0.3-0.2-0.6-0.5-0.9-0.7c0-0.1,0-0.1-0.1-0.3c-0.3-0.2-0.6-0.5-0.9-0.7
			c0-0.1,0-0.1-0.1-0.3c-0.3-0.2-0.6-0.5-0.9-0.7c0-0.1,0-0.1-0.1-0.3c-0.3-0.2-0.6-0.5-0.9-0.7c0-0.1,0-0.1-0.1-0.3
			c-0.3-0.2-0.6-0.5-0.9-0.7c0-0.1,0-0.1-0.1-0.3c-0.3-0.2-0.6-0.5-0.9-0.7c0-0.1,0-0.1-0.1-0.3c-0.3-0.2-0.6-0.5-0.9-0.7
			c0-0.1,0-0.1-0.1-0.3c-0.3-0.2-0.6-0.5-0.9-0.7c0-0.1,0-0.1-0.1-0.3c-0.3-0.2-0.6-0.5-0.9-0.7c0-0.1,0-0.1-0.1-0.3
			c-0.3-0.2-0.6-0.5-0.9-0.7c0-0.1,0-0.1-0.1-0.3c-0.3-0.2-0.6-0.5-0.9-0.7c0-0.1,0-0.1-0.1-0.3c-0.3-0.2-0.6-0.5-0.9-0.7
			c0-0.1,0-0.1-0.1-0.3c-0.3-0.2-0.6-0.5-0.9-0.7c0-0.1,0-0.1-0.1-0.3c-0.3-0.2-0.6-0.5-0.9-0.7c0-0.1,0-0.1-0.1-0.3
			c-0.3-0.2-0.6-0.5-0.9-0.7c0-0.1,0-0.1-0.1-0.3c-0.3-0.2-0.6-0.5-0.9-0.7c0-0.1,0-0.1-0.1-0.3c-0.3-0.2-0.6-0.5-0.9-0.7
			c0-0.1,0-0.1-0.1-0.3c-0.3-0.2-0.6-0.5-0.9-0.7c0-0.1,0-0.1-0.1-0.3c-0.3-0.2-0.6-0.5-0.9-0.7c0-0.1,0-0.1-0.1-0.3
			c-0.3-0.2-0.6-0.5-0.9-0.7c0-0.1,0-0.1-0.1-0.3c-0.3-0.2-0.6-0.5-0.9-0.7c0-0.1,0-0.1-0.1-0.3c-0.3-0.2-0.6-0.5-0.9-0.7
			c0-0.1,0-0.1-0.1-0.3c-0.3-0.2-0.6-0.5-0.9-0.7c0-0.1,0-0.1-0.1-0.3c-0.3-0.2-0.6-0.5-0.9-0.7c0-0.1,0-0.1-0.1-0.3
			c-0.3-0.2-0.6-0.5-0.9-0.7c0-0.1,0-0.1-0.1-0.3c-0.3-0.2-0.6-0.5-0.9-0.7c0-0.1,0-0.1-0.1-0.3c-0.3-0.2-0.6-0.5-0.9-0.7
			c0-0.1,0-0.1-0.1-0.3c-0.3-0.2-0.6-0.5-0.9-0.7c0-0.1,0-0.1-0.1-0.3c-0.3-0.2-0.6-0.5-0.9-0.7c0-0.1,0-0.1-0.1-0.3
			c-0.3-0.2-0.6-0.5-0.9-0.7c0-0.1,0-0.1-0.1-0.3c-0.3-0.2-0.6-0.5-0.9-0.7c0-0.1,0-0.1-0.1-0.3c-0.3-0.2-0.6-0.5-0.9-0.7
			c0-0.1,0-0.1-0.1-0.3c-0.3-0.2-0.6-0.5-0.9-0.7c0-0.1,0-0.1-0.1-0.3c-0.3-0.2-0.6-0.5-0.9-0.7c0-0.1,0-0.1-0.1-0.3
			c-0.3-0.2-0.6-0.5-0.9-0.7c0-0.1,0-0.1-0.1-0.3c-0.3-0.2-0.6-0.5-0.9-0.7c0-0.1,0-0.1-0.1-0.3c-0.3-0.2-0.6-0.5-0.9-0.7
			c0-0.1,0-0.1-0.1-0.3c-0.3-0.2-0.6-0.5-0.9-0.7c0-0.1,0-0.1-0.1-0.3c-0.3-0.2-0.6-0.5-0.9-0.7c0-0.1,0-0.1-0.1-0.3
			c-0.3-0.2-0.6-0.5-0.9-0.7c0-0.1,0-0.1-0.1-0.3c-0.3-0.2-0.6-0.5-0.9-0.7c0-0.1,0-0.1-0.1-0.3c-0.3-0.2-0.6-0.5-0.9-0.7
			c0-0.1,0-0.1-0.1-0.3c-0.3-0.2-0.6-0.5-0.9-0.7c0-0.1,0-0.1-0.1-0.3c-0.3-0.2-0.6-0.5-0.9-0.7c0-0.1,0-0.1-0.1-0.3
			c-0.3-0.2-0.6-0.5-0.9-0.7c0-0.1,0-0.1-0.1-0.3c-0.3-0.2-0.6-0.5-0.9-0.7c0-0.1,0-0.1-0.1-0.3c-0.3-0.2-0.6-0.5-0.9-0.7
			c0-0.1,0-0.1-0.1-0.3c-0.3-0.2-0.6-0.5-0.9-0.7c0-0.1,0-0.1-0.1-0.3c-0.3-0.2-0.6-0.5-0.9-0.7c0-0.1,0-0.1-0.1-0.3
			c-0.3-0.2-0.6-0.5-0.9-0.7c0-0.1,0-0.1-0.1-0.3c-0.3-0.2-0.6-0.5-0.9-0.7c0-0.1,0-0.1-0.1-0.3c-0.3-0.2-0.6-0.5-0.9-0.7
			c0-0.1,0-0.1-0.1-0.3c-0.3-0.2-0.6-0.5-0.9-0.7c0-0.1,0-0.1-0.1-0.3c-0.3-0.2-0.6-0.5-0.9-0.7c0-0.1,0-0.1-0.1-0.3
			c-0.3-0.2-0.6-0.5-0.9-0.7c0-0.1,0-0.1-0.1-0.3c-0.3-0.2-0.6-0.5-0.9-0.7c0-0.1,0-0.1-0.1-0.3c-0.3-0.2-0.6-0.5-0.9-0.7
			c0-0.1,0-0.1-0.1-0.3c-0.3-0.2-0.6-0.5-0.9-0.7c0-0.1,0-0.1-0.1-0.3c-0.3-0.2-0.6-0.5-0.9-0.7c0-0.1,0-0.1-0.1-0.3
			c-0.3-0.2-0.6-0.5-0.9-0.7c0-0.1,0-0.1-0.1-0.3c-0.3-0.2-0.6-0.5-0.9-0.7c0-0.1,0-0.1-0.1-0.3c-0.3-0.2-0.6-0.5-0.9-0.7
			c0-0.1,0-0.1-0.1-0.3c-0.3-0.2-0.6-0.5-0.9-0.7c0-0.1,0-0.1-0.1-0.3c-0.3-0.2-0.6-0.5-0.9-0.7c0-0.1,0-0.1-0.1-0.3
			c-0.3-0.2-0.6-0.5-0.9-0.7c0-0.1,0-0.1-0.1-0.3c-0.3-0.2-0.6-0.5-0.9-0.7c0-0.1,0-0.1-0.1-0.3c-0.3-0.2-0.6-0.5-0.9-0.7
			c0-0.1,0-0.1-0.1-0.3c-0.3-0.2-0.6-0.5-0.9-0.7c0-0.1,0-0.1-0.1-0.3c-0.3-0.2-0.6-0.5-0.9-0.7c0-0.1,0-0.1-0.1-0.3
			c-0.3-0.2-0.6-0.5-0.9-0.7c0-0.1,0-0.1-0.1-0.3c-0.3-0.2-0.6-0.5-0.9-0.7c0-0.1,0-0.1-0.1-0.3c-0.3-0.2-0.6-0.5-0.9-0.7
			c0-0.1,0-0.1-0.1-0.3c-0.3-0.2-0.6-0.5-0.9-0.7c0-0.1,0-0.1-0.1-0.3c-0.3-0.2-0.6-0.5-0.9-0.7c0-0.1,0-0.1-0.1-0.3
			c-0.3-0.2-0.6-0.5-0.9-0.7c0-0.1,0-0.1-0.1-0.3c-0.3-0.2-0.6-0.5-0.9-0.7c0-0.1,0-0.1-0.1-0.3c-0.3-0.2-0.6-0.5-0.9-0.7
			c0-0.1,0-0.1-0.1-0.3c-0.3-0.2-0.6-0.5-0.9-0.7c0-0.1,0-0.1-0.1-0.3c-0.3-0.2-0.6-0.5-0.9-0.7c0-0.1,0-0.1-0.1-0.3
			c-0.3-0.2-0.6-0.5-0.9-0.7c0-0.1,0-0.1-0.1-0.3c-0.3-0.2-0.6-0.5-0.9-0.7c0-0.1,0-0.1-0.1-0.3c-0.3-0.2-0.6-0.5-0.9-0.7
			c0-0.1,0-0.1-0.1-0.3c-0.3-0.2-0.6-0.5-0.9-0.7c0-0.1,0-0.1-0.1-0.3c-0.3-0.2-0.6-0.5-0.9-0.7c0-0.1,0-0.1-0.1-0.3
			c-0.3-0.2-0.6-0.5-0.9-0.7c0-0.1,0-0.1-0.1-0.3c-0.3-0.2-0.6-0.5-0.9-0.7c0-0.1,0-0.1-0.1-0.3c-0.3-0.2-0.6-0.5-0.9-0.7
			c0-0.1,0-0.1-0.1-0.3c-0.3-0.2-0.6-0.5-0.9-0.7c0-0.1,0-0.1-0.1-0.3c-0.3-0.2-0.6-0.5-0.9-0.7c0-0.1,0-0.1-0.1-0.3
			c-0.3-0.2-0.6-0.5-0.9-0.7c0-0.1,0-0.1-0.1-0.3c-0.3-0.2-0.6-0.5-0.9-0.7c0-0.1,0-0.1-0.1-0.3c-0.3-0.2-0.6-0.5-0.9-0.7
			c0-0.1,0-0.1-0.1-0.3c-0.3-0.2-0.6-0.5-0.9-0.7c0-0.1,0-0.1-0.1-0.3c-0.3-0.2-0.6-0.5-0.9-0.7c0-0.1,0-0.1-0.1-0.3
			c-0.3-0.2-0.6-0.5-0.9-0.7c0-0.1,0-0.1-0.1-0.3c-0.3-0.2-0.6-0.5-0.9-0.7c0-0.1,0-0.1-0.1-0.3c-0.3-0.2-0.6-0.5-0.9-0.7
			c0-0.1,0-0.1-0.1-0.3c-0.3-0.2-0.6-0.5-0.9-0.7c0-0.1,0-0.1-0.1-0.3c-0.3-0.2-0.6-0.5-0.9-0.7c0-0.1,0-0.1-0.1-0.3
			c-0.3-0.2-0.6-0.5-0.9-0.7c0-0.1,0-0.1-0.1-0.3c-0.3-0.2-0.6-0.5-0.9-0.7c0-0.1,0-0.1-0.1-0.3c-0.3-0.2-0.6-0.5-0.9-0.7
			c0-0.1,0-0.1-0.1-0.3c-0.3-0.2-0.6-0.5-0.9-0.7c0-0.1,0-0.1-0.1-0.3c-0.3-0.2-0.6-0.5-0.9-0.7c0-0.1,0-0.1-0.1-0.3
			c-0.3-0.2-0.6-0.5-0.9-0.7c0-0.1,0-0.1-0.1-0.3c-0.3-0.2-0.6-0.5-0.9-0.7c0-0.1,0-0.1-0.1-0.3c-0.3-0.2-0.6-0.5-0.9-0.7
			c0-0.1,0-0.1-0.1-0.3c-0.3-0.2-0.6-0.5-0.9-0.7c0-0.1,0-0.1-0.1-0.3c-0.3-0.2-0.6-0.5-0.9-0.7c0-0.1,0-0.1-0.1-0.3
			c-0.3-0.2-0.6-0.5-0.9-0.7c0-0.1,0-0.1-0.1-0.3c-0.3-0.2-0.6-0.5-0.9-0.7c0-0.1,0-0.1-0.1-0.3c-0.3-0.2-0.6-0.5-0.9-0.7
			c0-0.1,0-0.1-0.1-0.3c-0.3-0.2-0.6-0.5-0.9-0.7c0-0.1,0-0.1-0.1-0.3c-0.3-0.2-0.6-0.5-0.9-0.7c0-0.1,0-0.1-0.1-0.3
			c-0.3-0.2-0.6-0.5-0.9-0.7c0-0.1,0-0.1-0.1-0.3c-0.3-0.2-0.6-0.5-0.9-0.7c0-0.1,0-0.1-0.1-0.3c-0.3-0.2-0.6-0.5-0.9-0.7
			c0-0.1,0-0.1-0.1-0.3c-0.3-0.2-0.6-0.5-0.9-0.7c0-0.1,0-0.1-0.1-0.3c-0.3-0.2-0.6-0.5-0.9-0.7c0-0.1,0-0.1-0.1-0.3
			c-0.3-0.2-0.6-0.5-0.9-0.7c0-0.1,0-0.1-0.1-0.3c-0.3-0.2-0.6-0.5-0.9-0.7c0-0.1,0-0.1-0.1-0.3c-0.3-0.2-0.6-0.5-0.9-0.7
			c0-0.1,0-0.1-0.1-0.3c-0.3-0.2-0.6-0.5-0.9-0.7c0-0.1,0-0.1-0.1-0.3c-0.3-0.2-0.6-0.5-0.9-0.7c0-0.1,0-0.1-0.1-0.3
			c-0.3-0.2-0.6-0.5-0.9-0.7c0-0.1,0-0.1-0.1-0.3c-0.3-0.2-0.6-0.5-0.9-0.7c0-0.1,0-0.1-0.1-0.3c-37.7-29.6-75.8-58.9-113.4-89.1
			c-23.7,30.4-47.3,60.8-71,91.2c-0.1-0.1-0.2-0.1-0.4-0.2c0.1-0.1,0.2-0.3,0.3-0.4c-0.5-0.2-0.9-0.4-1.3-0.6
			c0.1-0.1,0.2-0.3,0.3-0.4c-0.5-0.2-0.9-0.4-1.3-0.6c0.1-0.1,0.2-0.3,0.3-0.4c-0.5-0.2-0.9-0.4-1.3-0.6c0.1-0.1,0.2-0.3,0.3-0.4
			c-0.5-0.2-0.9-0.4-1.3-0.6c0.1-0.1,0.2-0.3,0.3-0.4c-0.7-0.3-1.3-0.6-1.8-0.7c-2.1-0.6-4.2-1.3-6.4-1.9c-9.4-2.4-19-4.1-28.6-5.2
			c-7.1-0.8-14.2-1.7-21.4-2.2c-6.5-0.4-13-0.4-19.5-0.4c-2.1,0-4.2,0.2-6.2,0.6c-3.4,0.6-6.8,1.4-10.1,2.3
			c-10.9,3.3-21.8,6.7-32.7,10c-11.4,3.5-22.9,6.7-34.8,7.9c0-0.3,0-0.6,0-0.9c-0.2,0-0.5-0.1-1-0.1c0-0.3,0-0.6,0-0.9
			c-0.2,0-0.5-0.1-1-0.1c0-0.3,0-0.6,0-0.9c-0.2,0-0.5-0.1-1-0.1c0-0.3,0-0.6,0-0.9c-0.2,0-0.5-0.1-1-0.1c0-0.3,0-0.6,0-0.9
			c-0.2,0-0.5-0.1-1-0.1c0-0.3,0-0.6,0-0.9c-0.2,0-0.5-0.1-1-0.1c0-0.3,0-0.6,0-0.9c-0.2,0-0.5-0.1-1-0.1c0-0.3,0-0.6,0-0.9
			c-2.1-0.4-39.9-0.6-43.8-0.2c2,14.3,3.9,28.4,5.9,42.6c2,14.1,4,28.2,6,42.3c2,14.1,3.9,28.3,6,42.3c0.2,0,0.5,0.1,0.9,0.1
			c0,0.3,0.1,0.6,0.1,0.9c0.2,0,0.5,0.1,0.9,0.1c0,0.3,0.1,0.6,0.1,0.9c0.2,0,0.5,0.1,0.9,0.1c0,0.3,0.1,0.6,0.1,0.9
			c0.2,0,0.5,0.1,0.9,0.1c0,0.3,0.1,0.6,0.1,0.9c0.2,0,0.5,0.1,0.9,0.1c0,0.3,0.1,0.6,0.1,0.9c0.2,0,0.5,0.1,0.9,0.1
			c0,0.3,0.1,0.6,0.1,0.9c0.2,0,0.5,0.1,0.9,0.1c0,0.3,0.1,0.6,0.1,0.9c0.2,0,0.5,0.1,0.9,0.1c0,0.3,0.1,0.6,0.1,0.9
			c0.2,0,0.5,0.1,0.9,0.1c0,0.3,0.1,0.6,0.1,0.9c0.2,0,0.5,0.1,0.9,0.1c0,0.3,0.1,0.6,0.1,0.9c0.2,0,0.5,0.1,0.9,0.1
			c0,0.3,0.1,0.6,0.1,0.9c0.2,0,0.5,0.1,0.9,0.1c0,0.3,0.1,0.6,0.1,0.9c0.2,0,0.5,0.1,0.9,0.1c0,0.3,0.1,0.6,0.1,0.9
			c0.2,0,0.5,0.1,0.9,0.1c0,0.3,0.1,0.6,0.1,0.9c0.2,0,0.5,0.1,0.9,0.1c0,0.3,0.1,0.6,0.1,0.9c0.2,0,0.5,0.1,0.9,0.1
			c0,0.3,0.1,0.6,0.1,0.9c0.2,0,0.5,0.1,0.9,0.1c0,0.3,0.1,0.6,0.1,0.9c0.2,0,0.5,0.1,0.9,0.1c0,0.3,0.1,0.6,0.1,0.9
			c0.2,0,0.5,0.1,0.9,0.1c0,0.3,0.1,0.6,0.1,0.9c0.2,0,0.5,0.1,0.9,0.1c0,0.3,0.1,0.6,0.1,0.9c0.2,0,0.5,0.1,0.9,0.1
			c0,0.3,0.1,0.6,0.1,0.9c0.2,0,0.5,0.1,0.9,0.1c0,0.3,0.1,0.6,0.1,0.9c0.2,0,0.5,0.1,0.9,0.1c0,0.3,0.1,0.6,0.1,0.9
			c0.2,0,0.5,0.1,0.9,0.1c0,0.3,0.1,0.6,0.1,0.9c0.2,0,0.5,0.1,0.9,0.1c0,0.3,0.1,0.6,0.1,0.9c0.2,0,0.5,0.1,0.9,0.1
			c0,0.3,0.1,0.6,0.1,0.9c0.2,0,0.5,0.1,0.9,0.1c0,0.3,0.1,0.6,0.1,0.9c0.2,0,0.5,0.1,0.9,0.1c0,0.3,0.1,0.6,0.1,0.9
			c0.2,0,0.5,0.1,0.9,0.1c0,0.3,0.1,0.6,0.1,0.9c0.2,0,0.5,0.1,0.9,0.1c0,0.3,0.1,0.6,0.1,0.9c0.2,0,0.5,0.1,0.9,0.1
			c0,0.3,0.1,0.6,0.1,0.9c0.2,0,0.5,0.1,0.9,0.1c0,0.3,0.1,0.6,0.1,0.9c0.2,0,0.5,0.1,0.9,0.1c0,0.3,0.1,0.6,0.1,0.9
			c0.2,0,0.5,0.1,0.9,0.1c0,0.3,0.1,0.6,0.1,0.9c0.2,0,0.5,0.1,0.9,0.1c0,0.3,0.1,0.6,0.1,0.9c0.2,0,0.5,0.1,0.9,0.1
			c0,0.3,0.1,0.6,0.1,0.9c0.2,0,0.5,0.1,0.9,0.1c0,0.3,0.1,0.6,0.1,0.9c0.2,0,0.5,0.1,0.9,0.1c0,0.3,0.1,0.6,0.1,0.9
			c0.2,0,0.5,0.1,0.9,0.1c0,0.3,0.1,0.6,0.1,0.9c0.2,0,0.5,0.1,0.9,0.1c0,0.3,0.1,0.6,0.1,0.9c0.2,0,0.5,0.1,0.9,0.1
			c0,0.3,0.1,0.6,0.1,0.9c0.2,0,0.5,0.1,0.9,0.1c0,0.3,0.1,0.6,0.1,0.9c0.2,0,0.5,0.1,0.9,0.1c0,0.3,0.1,0.6,0.1,0.9
			c0.2,0,0.5,0.1,0.9,0.1c0,0.3,0.1,0.6,0.1,0.9c0.2,0,0.5,0.1,0.9,0.1c0,0.3,0.1,0.6,0.1,0.9c0.2,0,0.5,0.1,0.9,0.1
			c0,0.3,0.1,0.6,0.1,0.9c0.2,0,0.5,0.1,0.9,0.1c0,0.3,0.1,0.6,0.1,0.9c0.2,0,0.5,0.1,0.9,0.1c0,0.3,0.1,0.6,0.1,0.9
			c0.2,0,0.5,0.1,0.9,0.1c0,0.3,0.1,0.6,0.1,0.9c0.2,0,0.5,0.1,0.9,0.1c0,0.3,0.1,0.6,0.1,0.9c0.2,0,0.5,0.1,0.9,0.1
			c0,0.3,0.1,0.6,0.1,0.9c0.2,0,0.5,0.1,0.9,0.1c0,0.3,0.1,0.6,0.1,0.9c0.2,0,0.5,0.1,0.9,0.1c0,0.3,0.1,0.6,0.1,0.9
			c0.2,0,0.5,0.1,0.9,0.1c0,0.3,0.1,0.6,0.1,0.9c0.2,0,0.5,0.1,0.9,0.1c0,0.3,0.1,0.6,0.1,0.9c0.2,0,0.5,0.1,0.9,0.1
			c0,0.3,0.1,0.6,0.1,0.9c0.2,0,0.5,0.1,0.9,0.1c0,0.3,0.1,0.6,0.1,0.9c0.2,0,0.5,0.1,0.9,0.1c0,0.3,0.1,0.6,0.1,0.9
			c0.2,0,0.5,0.1,0.9,0.1c0,0.3,0.1,0.6,0.1,0.9c0.2,0,0.5,0.1,0.9,0.1c0,0.3,0.1,0.6,0.1,0.9c0.2,0,0.5,0.1,0.9,0.1
			c0,0.3,0.1,0.6,0.1,0.9c0.2,0,0.5,0.1,0.9,0.1c0,0.3,0.1,0.6,0.1,0.9c0.2,0,0.5,0.1,0.9,0.1c0,0.3,0.1,0.6,0.1,0.9
			c0.2,0,0.5,0.1,0.9,0.1c0,0.3,0.1,0.6,0.1,0.9c0.2,0,0.5,0.1,0.9,0.1c0,0.3,0.1,0.6,0.1,0.9c0.2,0,0.5,0.1,0.9,0.1
			c0,0.3,0.1,0.6,0.1,0.9c0.2,0,0.5,0.1,0.9,0.1c0,0.3,0.1,0.6,0.1,0.9c0.2,0,0.5,0.1,0.9,0.1c0,0.3,0.1,0.6,0.1,0.9
			c0.2,0,0.5,0.1,0.9,0.1c0,0.3,0.1,0.6,0.1,0.9c0.2,0,0.5,0.1,0.9,0.1c0,0.3,0.1,0.6,0.1,0.9c0.2,0,0.5,0.1,0.9,0.1
			c0,0.3,0.1,0.6,0.1,0.9c0.2,0,0.5,0.1,0.9,0.1c0,0.3,0.1,0.6,0.1,0.9c0.2,0,0.5,0.1,0.9,0.1c0,0.3,0.1,0.6,0.1,0.9
			c0.2,0,0.5,0.1,0.9,0.1c0,0.3,0.1,0.6,0.1,0.9c0.2,0,0.5,0.1,0.9,0.1c0,0.3,0.1,0.6,0.1,0.9c0.2,0,0.5,0.1,0.9,0.1
			c0,0.3,0.1,0.6,0.1,0.9c0.2,0,0.5,0.1,0.9,0.1c0,0.3,0.1,0.6,0.1,0.9c0.2,0,0.5,0.1,0.9,0.1c0,0.3,0.1,0.6,0.1,0.9
			c0.2,0,0.5,0.1,0.9,0.1c0,0.3,0.1,0.6,0.1,0.9c0.2,0,0.5,0.1,0.9,0.1c0,0.3,0.1,0.6,0.1,0.9c0.2,0,0.5,0.1,0.9,0.1
			c0,0.3,0.1,0.6,0.1,0.9c0.2,0,0.5,0.1,0.9,0.1c0,0.3,0.1,0.6,0.1,0.9c0.2,0,0.5,0.1,0.9,0.1c0,0.3,0.1,0.6,0.1,0.9
			c0.2,0,0.5,0.1,0.9,0.1c0,0.3,0.1,0.6,0.1,0.9c0.2,0,0.5,0.1,0.9,0.1c0,0.3,0.1,0.6,0.1,0.9c0.2,0,0.5,0.1,0.9,0.1
			c0,0.3,0.1,0.6,0.1,0.9c0.2,0,0.5,0.1,0.9,0.1c0,0.3,0.1,0.6,0.1,0.9c0.2,0,0.5,0.1,0.9,0.1c0,0.3,0.1,0.6,0.1,0.9
			c0.2,0,0.5,0.1,0.9,0.1c0,0.3,0.1,0.6,0.1,0.9c0.2,0,0.5,0.1,0.9,0.1c0,0.3,0.1,0.6,0.1,0.9c0.2,0,0.5,0.1,0.9,0.1
			c0,0.3,0.1,0.6,0.1,0.9c0.2,0,0.5,0.1,0.9,0.1c0,0.3,0.1,0.6,0.1,0.9c0.2,0,0.5,0.1,0.9,0.1c0,0.3,0.1,0.6,0.1,0.9
			c0.2,0,0.5,0.1,0.9,0.1c0,0.3,0.1,0.6,0.1,0.9c0.2,0,0.5,0.1,0.9,0.1c0,0.3,0.1,0.6,0.1,0.9c0.2,0,0.5,0.1,0.9,0.1
			c0,0.3,0.1,0.6,0.1,0.9c0.2,0,0.5,0.1,0.9,0.1c0,0.3,0.1,0.6,0.1,0.9c0.2,0,0.5,0.1,0.9,0.1c0,0.3,0.1,0.6,0.1,0.9
			c0.2,0,0.5,0.1,0.9,0.1c0,0.3,0.1,0.6,0.1,0.9c0.2,0,0.5,0.1,0.9,0.1c0,0.3,0.1,0.6,0.1,0.9c0.2,0,0.5,0.1,0.9,0.1
			c0,0.3,0.1,0.6,0.1,0.9c0.2,0,0.5,0.1,0.9,0.1c0,0.3,0.1,0.6,0.1,0.9c0.2,0,0.5,0.1,0.9,0.1c0,0.3,0.1,0.6,0.1,0.9
			c0.2,0,0.5,0.1,0.9,0.1c0,0.3,0.1,0.6,0.1,0.9c0.2,0,0.5,0.1,0.9,0.1c0,0.3,0.1,0.6,0.1,0.9c0.2,0,0.5,0.1,0.9,0.1
			c0,0.2,0.1,0.4,0.1,0.6c-3.2,2.8-5.1,6.9-5.3,12c-0.3,7.8-0.1,8.7,4.6,14.4c3.9,4.7,8,9.1,12.3,13.4c0.1,0.1,0.1,0.1,0.2,0.2
			c0.3,0.3,0.6,0.6,0.8,0.8c0.1,0.1,0.1,0.1,0.2,0.2c0.3,0.3,0.6,0.6,0.8,0.8c0.1,0.1,0.1,0.1,0.2,0.2c0.3,0.3,0.6,0.6,0.8,0.8
			c0.1,0.1,0.1,0.1,0.2,0.2c0.3,0.3,0.6,0.6,0.8,0.8c0.1,0.1,0.1,0.1,0.2,0.2c0.3,0.3,0.6,0.6,0.8,0.8c0.1,0.1,0.1,0.1,0.2,0.2
			c0.3,0.3,0.6,0.6,0.8,0.8c0.1,0.1,0.1,0.1,0.2,0.2c0.3,0.3,0.6,0.6,0.8,0.8c0.1,0.1,0.1,0.1,0.2,0.2c0.3,0.3,0.6,0.6,0.8,0.8
			c0.1,0.1,0.1,0.1,0.2,0.2c0.3,0.3,0.6,0.6,0.8,0.8c0.1,0.1,0.1,0.1,0.2,0.2c0.3,0.3,0.6,0.6,0.8,0.8c0.1,0.1,0.1,0.1,0.2,0.2
			c0.3,0.3,0.6,0.6,0.8,0.8c0.1,0.1,0.1,0.1,0.2,0.2c0.3,0.3,0.6,0.6,0.8,0.8c0.1,0.1,0.1,0.1,0.2,0.2c0.3,0.3,0.6,0.6,0.8,0.8
			c0.1,0.1,0.1,0.1,0.2,0.2c0.3,0.3,0.6,0.6,0.8,0.8c0.1,0.1,0.1,0.1,0.2,0.2c0.3,0.3,0.6,0.6,0.8,0.8c0.1,0.1,0.1,0.1,0.2,0.2
			c0.3,0.3,0.6,0.6,0.8,0.8c0.1,0.1,0.1,0.1,0.2,0.2c0.3,0.3,0.6,0.6,0.8,0.8c0.1,0.1,0.1,0.1,0.2,0.2c0.3,0.3,0.6,0.6,0.8,0.8
			c0.1,0.1,0.1,0.1,0.2,0.2c0.3,0.3,0.6,0.6,0.8,0.8c0.1,0.1,0.1,0.1,0.2,0.2c0.3,0.3,0.6,0.6,0.8,0.8c0.1,0.1,0.1,0.1,0.2,0.2
			c0.3,0.3,0.6,0.6,0.8,0.8c0.1,0.1,0.1,0.1,0.2,0.2c0.3,0.3,0.6,0.6,0.8,0.8c0.1,0.1,0.1,0.1,0.2,0.2c0.3,0.3,0.6,0.6,0.8,0.8
			c0.1,0.1,0.1,0.1,0.2,0.2c0.3,0.3,0.6,0.6,0.8,0.8c0.1,0.1,0.1,0.1,0.2,0.2c0.3,0.3,0.6,0.6,0.8,0.8c0.1,0.1,0.1,0.1,0.2,0.2
			c0.3,0.3,0.6,0.6,0.8,0.8c0.1,0.1,0.1,0.1,0.2,0.2c0.3,0.3,0.6,0.6,0.8,0.8c0.1,0.1,0.1,0.1,0.2,0.2c0.3,0.3,0.6,0.6,0.8,0.8
			c0.1,0.1,0.1,0.1,0.2,0.2c0.3,0.3,0.6,0.6,0.8,0.8c0.1,0.1,0.1,0.1,0.2,0.2c0.3,0.3,0.6,0.6,0.8,0.8c0.1,0.1,0.1,0.1,0.2,0.2
			c0.3,0.3,0.6,0.6,0.8,0.8c0.1,0.1,0.1,0.1,0.2,0.2c0.3,0.3,0.6,0.6,0.8,0.8c0.1,0.1,0.1,0.1,0.2,0.2c0.3,0.3,0.6,0.6,0.8,0.8
			c0.1,0.1,0.1,0.1,0.2,0.2c0.3,0.3,0.6,0.6,0.8,0.8c0.1,0.1,0.1,0.1,0.2,0.2c0.3,0.3,0.6,0.6,0.8,0.8c0.1,0.1,0.1,0.1,0.2,0.2
			c0.3,0.3,0.6,0.6,0.8,0.8c0.1,0.1,0.1,0.1,0.2,0.2c0.3,0.3,0.6,0.6,0.8,0.8c0.1,0.1,0.1,0.1,0.2,0.2c0.3,0.3,0.6,0.6,0.8,0.8
			c0.1,0.1,0.1,0.1,0.2,0.2c0.3,0.3,0.6,0.6,0.8,0.8c0.1,0.1,0.1,0.1,0.2,0.2c0.3,0.3,0.6,0.6,0.8,0.8c0.1,0.1,0.1,0.1,0.2,0.2
			c0.3,0.3,0.6,0.6,0.8,0.8c0.1,0.1,0.1,0.1,0.2,0.2c0.3,0.3,0.6,0.6,0.8,0.8c0.1,0.1,0.1,0.1,0.2,0.2c0.3,0.3,0.6,0.6,0.8,0.8
			c0.1,0.1,0.1,0.1,0.2,0.2c0.3,0.3,0.6,0.6,0.8,0.8c0.1,0.1,0.1,0.1,0.2,0.2c0.3,0.3,0.6,0.6,0.8,0.8c0.1,0.1,0.1,0.1,0.2,0.2
			c0.3,0.3,0.6,0.6,0.8,0.8c0.1,0.1,0.1,0.1,0.2,0.2c0.3,0.3,0.6,0.6,0.8,0.8c0.1,0.1,0.1,0.1,0.2,0.2c0.3,0.3,0.6,0.6,0.8,0.8
			c0.1,0.1,0.1,0.1,0.2,0.2c0.3,0.3,0.6,0.6,0.8,0.8c0.1,0.1,0.1,0.1,0.2,0.2c0.3,0.3,0.6,0.6,0.8,0.8c0.1,0.1,0.1,0.1,0.2,0.2
			c0.3,0.3,0.6,0.6,0.8,0.8c0.1,0.1,0.1,0.1,0.2,0.2c0.3,0.3,0.6,0.6,0.8,0.8c0.1,0.1,0.1,0.1,0.2,0.2c0.3,0.3,0.6,0.6,0.8,0.8
			c0.1,0.1,0.1,0.1,0.2,0.2c0.3,0.3,0.6,0.6,0.8,0.8c0.1,0.1,0.1,0.1,0.2,0.2c0.3,0.3,0.6,0.6,0.8,0.8c0.1,0.1,0.1,0.1,0.2,0.2
			c0.3,0.3,0.6,0.6,0.8,0.8c0.1,0.1,0.1,0.1,0.2,0.2c0.3,0.3,0.6,0.6,0.8,0.8c0.1,0.1,0.1,0.1,0.2,0.2c0.3,0.3,0.6,0.6,0.8,0.8
			c0.1,0.1,0.1,0.1,0.2,0.2c0.3,0.3,0.6,0.6,0.8,0.8c0.1,0.1,0.1,0.1,0.2,0.2c0.3,0.3,0.6,0.6,0.8,0.8c0.1,0.1,0.1,0.1,0.2,0.2
			c0.3,0.3,0.6,0.6,0.8,0.8c0.1,0.1,0.1,0.1,0.2,0.2c0.3,0.3,0.6,0.6,0.8,0.8c0.1,0.1,0.1,0.1,0.2,0.2c0.3,0.3,0.6,0.6,0.8,0.8
			c0.1,0.1,0.1,0.1,0.2,0.2c0.3,0.3,0.6,0.6,0.8,0.8c0.1,0.1,0.1,0.1,0.2,0.2c0.3,0.3,0.6,0.6,0.8,0.8c0.1,0.1,0.1,0.1,0.2,0.2
			c0.3,0.3,0.6,0.6,0.8,0.8c0.1,0.1,0.1,0.1,0.2,0.2c0.3,0.3,0.6,0.6,0.8,0.8c0.1,0.1,0.1,0.1,0.2,0.2c0.3,0.3,0.6,0.6,0.8,0.8
			c0.1,0.1,0.1,0.1,0.2,0.2c0.3,0.3,0.6,0.6,0.8,0.8c0.1,0.1,0.1,0.1,0.2,0.2c0.3,0.3,0.6,0.6,0.8,0.8c0.1,0.1,0.1,0.1,0.2,0.2
			c0.3,0.3,0.6,0.6,0.8,0.8c0.1,0.1,0.1,0.1,0.2,0.2c0.3,0.3,0.6,0.6,0.8,0.8c0.1,0.1,0.1,0.1,0.2,0.2c0.3,0.3,0.6,0.6,0.8,0.8
			c0.1,0.1,0.1,0.1,0.2,0.2c0.3,0.3,0.6,0.6,0.8,0.8c0.1,0.1,0.1,0.1,0.2,0.2c0.3,0.3,0.6,0.6,0.8,0.8c0.1,0.1,0.1,0.1,0.2,0.2
			c0.3,0.3,0.6,0.6,0.8,0.8c0.1,0.1,0.1,0.1,0.2,0.2c0.3,0.3,0.6,0.6,0.8,0.8c0.1,0.1,0.1,0.1,0.2,0.2c0.3,0.3,0.6,0.6,0.8,0.8
			c0.1,0.1,0.1,0.1,0.2,0.2c0.3,0.3,0.6,0.6,0.8,0.8c0.1,0.1,0.1,0.1,0.2,0.2c0.3,0.3,0.6,0.6,0.8,0.8c0.1,0.1,0.1,0.1,0.2,0.2
			c0.3,0.3,0.6,0.6,0.8,0.8c0.1,0.1,0.1,0.1,0.2,0.2c0.3,0.3,0.6,0.6,0.8,0.8c0.1,0.1,0.1,0.1,0.2,0.2c0.3,0.3,0.6,0.6,0.8,0.8
			c0.1,0.1,0.1,0.1,0.2,0.2c0.3,0.3,0.6,0.6,0.8,0.8c0.1,0.1,0.1,0.1,0.2,0.2c0.3,0.3,0.6,0.6,0.8,0.8c0.1,0.1,0.1,0.1,0.2,0.2
			c0.3,0.3,0.6,0.6,0.8,0.8c0.1,0.1,0.1,0.1,0.2,0.2c0.3,0.3,0.6,0.6,0.8,0.8c0.1,0.1,0.1,0.1,0.2,0.2c0.3,0.3,0.6,0.6,0.8,0.8
			c0.1,0.1,0.1,0.1,0.2,0.2c0.3,0.3,0.6,0.6,0.8,0.8c0.1,0.1,0.1,0.1,0.2,0.2c0.3,0.3,0.6,0.6,0.8,0.8c0.1,0.1,0.1,0.1,0.2,0.2
			c0.3,0.3,0.6,0.6,0.8,0.8c0.1,0.1,0.1,0.1,0.2,0.2c0.3,0.3,0.6,0.6,0.8,0.8c0.1,0.1,0.1,0.1,0.2,0.2c0.3,0.3,0.6,0.6,0.8,0.8
			c0.1,0.1,0.1,0.1,0.2,0.2c0.3,0.3,0.6,0.6,0.8,0.8c0.1,0.1,0.1,0.1,0.2,0.2c0.3,0.3,0.6,0.6,0.8,0.8c0.1,0.1,0.1,0.1,0.2,0.2
			c0.3,0.3,0.6,0.6,0.8,0.8c0.1,0.1,0.1,0.1,0.2,0.2c0.3,0.3,0.6,0.6,0.8,0.8c0.1,0.1,0.1,0.1,0.2,0.2c0.3,0.3,0.6,0.6,0.8,0.8
			c0.1,0.1,0.1,0.1,0.2,0.2c0.3,0.3,0.6,0.6,0.8,0.8c0.1,0.1,0.1,0.1,0.2,0.2c0.3,0.3,0.6,0.6,0.8,0.8c0.1,0.1,0.1,0.1,0.2,0.2
			c0.3,0.3,0.6,0.6,0.8,0.8c0.1,0.1,0.1,0.1,0.2,0.2c0.3,0.3,0.6,0.6,0.8,0.8c0.1,0.1,0.1,0.1,0.2,0.2c0.3,0.3,0.6,0.6,0.8,0.8
			c0.1,0.1,0.1,0.1,0.2,0.2c0.3,0.3,0.6,0.6,0.8,0.8c0.1,0.1,0.1,0.1,0.2,0.2c0.3,0.3,0.6,0.6,0.8,0.8c0.1,0.1,0.1,0.1,0.2,0.2
			c0.3,0.3,0.6,0.6,0.8,0.8c0.1,0.1,0.1,0.1,0.2,0.2c0.3,0.3,0.6,0.6,0.8,0.8c0.1,0.1,0.1,0.1,0.2,0.2c0.3,0.3,0.6,0.6,0.8,0.8
			c0.1,0.1,0.1,0.1,0.2,0.2c0.3,0.3,0.6,0.6,0.8,0.8c0.1,0.1,0.1,0.1,0.2,0.2c0.3,0.3,0.6,0.6,0.8,0.8c0.1,0.1,0.1,0.1,0.2,0.2
			c0.3,0.3,0.6,0.6,0.8,0.8c0.1,0.1,0.1,0.1,0.2,0.2c0.3,0.3,0.6,0.6,0.8,0.8c0.1,0.1,0.1,0.1,0.2,0.2c0.3,0.3,0.6,0.6,0.8,0.8
			c0.1,0.1,0.1,0.1,0.2,0.2c0.3,0.3,0.6,0.6,0.8,0.8c0.1,0.1,0.1,0.1,0.2,0.2c0.3,0.3,0.6,0.6,0.8,0.8c0.1,0.1,0.1,0.1,0.2,0.2
			c0.3,0.3,0.6,0.6,0.8,0.8c0.1,0.1,0.1,0.1,0.2,0.2c0.3,0.3,0.6,0.6,0.8,0.8c0.1,0.1,0.1,0.1,0.2,0.2c0.3,0.3,0.6,0.6,0.8,0.8
			c0.1,0.1,0.1,0.1,0.2,0.2c0.3,0.3,0.6,0.6,0.8,0.8c0.1,0.1,0.1,0.1,0.2,0.2c0.3,0.3,0.6,0.6,0.8,0.8c0.1,0.1,0.1,0.1,0.2,0.2
			c0.3,0.3,0.6,0.6,0.8,0.8c0.1,0.1,0.1,0.1,0.2,0.2c0.3,0.3,0.6,0.6,0.8,0.8c0.1,0.1,0.1,0.1,0.2,0.2c0.3,0.3,0.6,0.6,0.8,0.8
			c0.1,0.1,0.1,0.1,0.2,0.2c0.3,0.3,0.6,0.6,0.8,0.8c0.1,0.1,0.1,0.1,0.2,0.2c0.3,0.3,0.6,0.6,0.8,0.8c0.1,0.1,0.1,0.1,0.2,0.2
			c0.3,0.3,0.6,0.6,0.8,0.8c0.1,0.1,0.1,0.1,0.2,0.2c0.3,0.3,0.6,0.6,0.8,0.8c0.1,0.1,0.1,0.1,0.2,0.2c0.3,0.3,0.6,0.6,0.8,0.8
			c0.1,0.1,0.1,0.1,0.2,0.2c0.3,0.3,0.6,0.6,0.8,0.8c0.1,0.1,0.1,0.1,0.2,0.2c0.3,0.3,0.6,0.6,0.8,0.8c0.1,0.1,0.1,0.1,0.2,0.2
			c0.3,0.3,0.6,0.6,0.8,0.8c0.1,0.1,0.1,0.1,0.2,0.2c0.3,0.3,0.6,0.6,0.8,0.8c0.1,0.1,0.1,0.1,0.2,0.2c0.3,0.3,0.6,0.6,0.8,0.8
			c0.1,0.1,0.1,0.1,0.2,0.2c0.3,0.3,0.6,0.6,0.8,0.8c0.1,0.1,0.1,0.1,0.2,0.2c0.3,0.3,0.6,0.6,0.8,0.8c0.1,0.1,0.1,0.1,0.2,0.2
			c0.3,0.3,0.6,0.6,0.8,0.8c0.1,0.1,0.1,0.1,0.2,0.2c0.3,0.3,0.6,0.6,0.8,0.8c0.1,0.1,0.1,0.1,0.2,0.2c0.3,0.3,0.6,0.6,0.8,0.8
			c0.1,0.1,0.1,0.1,0.2,0.2c0.3,0.3,0.6,0.6,0.8,0.8c0.1,0.1,0.1,0.1,0.2,0.2c0.3,0.3,0.6,0.6,0.8,0.8c0.1,0.1,0.1,0.1,0.2,0.2
			c0.3,0.3,0.6,0.6,0.8,0.8c0.1,0.1,0.1,0.1,0.2,0.2c0.3,0.3,0.6,0.6,0.8,0.8c0.1,0.1,0.1,0.1,0.2,0.2c0.3,0.3,0.6,0.6,0.8,0.8
			c0.1,0.1,0.1,0.1,0.2,0.2c0.3,0.3,0.6,0.6,0.8,0.8c0.1,0.1,0.1,0.1,0.2,0.2c0.3,0.3,0.6,0.6,0.8,0.8c0.1,0.1,0.1,0.1,0.2,0.2
			c0.3,0.3,0.6,0.6,0.8,0.8c0.1,0.1,0.1,0.1,0.2,0.2c0.3,0.3,0.6,0.6,0.8,0.8c0.1,0.1,0.1,0.1,0.2,0.2c0.3,0.3,0.6,0.6,0.8,0.8
			c0.1,0.1,0.1,0.1,0.2,0.2c0.3,0.3,0.6,0.6,0.8,0.8c0.1,0.1,0.1,0.1,0.2,0.2c0.3,0.3,0.6,0.6,0.8,0.8c0.1,0.1,0.1,0.1,0.2,0.2
			c0.3,0.3,0.6,0.6,0.8,0.8c0.1,0.1,0.1,0.1,0.2,0.2c0.3,0.3,0.6,0.6,0.8,0.8c0.1,0.1,0.1,0.1,0.2,0.2c0.3,0.3,0.6,0.6,0.8,0.8
			c0.1,0.1,0.1,0.1,0.2,0.2c0.3,0.3,0.6,0.6,0.8,0.8c0.1,0.1,0.1,0.1,0.2,0.2c0.3,0.3,0.6,0.6,0.8,0.8c0.1,0.1,0.1,0.1,0.2,0.2
			c0.3,0.3,0.6,0.6,0.8,0.8c0.1,0.1,0.1,0.1,0.2,0.2c0.3,0.3,0.6,0.6,0.8,0.8c0.1,0.1,0.1,0.1,0.2,0.2c0.3,0.3,0.6,0.6,0.8,0.8
			c0.1,0.1,0.1,0.1,0.2,0.2c0.3,0.3,0.6,0.6,0.8,0.8c0.1,0.1,0.1,0.1,0.2,0.2c0.3,0.3,0.6,0.6,0.8,0.8c0.1,0.1,0.1,0.1,0.2,0.2
			c0.3,0.3,0.6,0.6,0.8,0.8c0.1,0.1,0.1,0.1,0.2,0.2c0.3,0.3,0.6,0.6,0.8,0.8c0.1,0.1,0.1,0.1,0.2,0.2c0.3,0.3,0.6,0.6,0.8,0.8
			c0.1,0.1,0.1,0.1,0.2,0.2c0.3,0.3,0.6,0.6,0.8,0.8c0.1,0.1,0.1,0.1,0.2,0.2c0.3,0.3,0.6,0.6,0.8,0.8c0.1,0.1,0.1,0.1,0.2,0.2
			c0.3,0.3,0.6,0.6,0.8,0.8c0.1,0.1,0.1,0.1,0.2,0.2c0.3,0.3,0.6,0.6,0.8,0.8c0.1,0.1,0.1,0.1,0.2,0.2c0.3,0.3,0.6,0.6,0.8,0.8
			c0.1,0.1,0.1,0.1,0.2,0.2c0.3,0.3,0.6,0.6,0.8,0.8c0.1,0.1,0.1,0.1,0.2,0.2c0.3,0.3,0.6,0.6,0.8,0.8c0.1,0.1,0.1,0.1,0.2,0.2
			c0.3,0.3,0.6,0.6,0.8,0.8c0.1,0.1,0.1,0.1,0.2,0.2c0.3,0.3,0.6,0.6,0.8,0.8c0.1,0.1,0.1,0.1,0.2,0.2c0.3,0.3,0.6,0.6,0.8,0.8
			c0.1,0.1,0.1,0.1,0.2,0.2c0.3,0.3,0.6,0.6,0.8,0.8c0.1,0.1,0.1,0.1,0.2,0.2c0.3,0.3,0.6,0.6,0.8,0.8c0.1,0.1,0.1,0.1,0.2,0.2
			c0.3,0.3,0.6,0.6,0.8,0.8c0.1,0.1,0.1,0.1,0.2,0.2c0.3,0.3,0.6,0.6,0.8,0.8c0.1,0.1,0.1,0.1,0.2,0.2c0.3,0.3,0.6,0.6,0.8,0.8
			c0.1,0.1,0.1,0.1,0.2,0.2c0.3,0.3,0.6,0.6,0.8,0.8c0.1,0.1,0.1,0.1,0.2,0.2c0.3,0.3,0.6,0.6,0.8,0.8c0.1,0.1,0.1,0.1,0.2,0.2
			c0.3,0.3,0.6,0.6,0.8,0.8c0.1,0.1,0.1,0.1,0.2,0.2c0.3,0.3,0.6,0.6,0.8,0.8c0.1,0.1,0.1,0.1,0.2,0.2c0.3,0.3,0.6,0.6,0.8,0.8
			c0.1,0.1,0.1,0.1,0.2,0.2c0.3,0.3,0.6,0.6,0.8,0.8c0.1,0.1,0.1,0.1,0.2,0.2c0.3,0.3,0.6,0.6,0.8,0.8c0.1,0.1,0.1,0.1,0.2,0.2
			c0.3,0.3,0.6,0.6,0.8,0.8c0.1,0.1,0.1,0.1,0.2,0.2c0.3,0.3,0.6,0.6,0.8,0.8c0.1,0.1,0.1,0.1,0.2,0.2c0.3,0.3,0.6,0.6,0.8,0.8
			c0.1,0.1,0.1,0.1,0.2,0.2c0.3,0.3,0.6,0.6,0.8,0.8c0.1,0.1,0.1,0.1,0.2,0.2c0.3,0.3,0.6,0.6,0.8,0.8c0.1,0.1,0.1,0.1,0.2,0.2
			c0.3,0.3,0.6,0.6,0.8,0.8c0.1,0.1,0.1,0.1,0.2,0.2c0.3,0.3,0.6,0.6,0.8,0.8c0.1,0.1,0.1,0.1,0.2,0.2c0.3,0.3,0.6,0.6,0.8,0.8
			c0.1,0.1,0.1,0.1,0.2,0.2c0.3,0.3,0.6,0.6,0.8,0.8c0.1,0.1,0.1,0.1,0.2,0.2c0.3,0.3,0.6,0.6,0.8,0.8c0.1,0.1,0.1,0.1,0.2,0.2
			c0.3,0.3,0.6,0.6,0.8,0.8c0.1,0.1,0.1,0.1,0.2,0.2c0.3,0.3,0.6,0.6,0.8,0.8c0.1,0.1,0.1,0.1,0.2,0.2c0.3,0.3,0.6,0.6,0.8,0.8
			c0.1,0.1,0.1,0.1,0.2,0.2c0.3,0.3,0.6,0.6,0.8,0.8c0.1,0.1,0.1,0.1,0.2,0.2c0.3,0.3,0.6,0.6,0.8,0.8c0.1,0.1,0.1,0.1,0.2,0.2
			c0.3,0.3,0.6,0.6,0.8,0.8c0.1,0.1,0.1,0.1,0.2,0.2c0.3,0.3,0.6,0.6,0.8,0.8c0.1,0.1,0.1,0.1,0.2,0.2c0.3,0.3,0.6,0.6,0.8,0.8
			c0.1,0.1,0.1,0.1,0.2,0.2c0.3,0.3,0.6,0.6,0.8,0.8c0.1,0.1,0.1,0.1,0.2,0.2c0.3,0.3,0.6,0.6,0.8,0.8c0.1,0.1,0.1,0.1,0.2,0.2
			c0.3,0.3,0.6,0.6,0.8,0.8c0.1,0.1,0.1,0.1,0.2,0.2c0.3,0.3,0.6,0.6,0.8,0.8c0.1,0.1,0.1,0.1,0.2,0.2c0.3,0.3,0.6,0.6,0.8,0.8
			c0.1,0.1,0.1,0.1,0.2,0.2c0.3,0.3,0.6,0.6,0.8,0.8c0.1,0.1,0.1,0.1,0.2,0.2c0.3,0.3,0.6,0.6,0.8,0.8c0.1,0.1,0.1,0.1,0.2,0.2
			c0.3,0.3,0.6,0.6,0.8,0.8c0.1,0.1,0.1,0.1,0.2,0.2c0.3,0.3,0.6,0.6,0.8,0.8c0.1,0.1,0.1,0.1,0.2,0.2c0.3,0.3,0.6,0.6,0.8,0.8
			c0.1,0.1,0.1,0.1,0.2,0.2c0.3,0.3,0.6,0.6,0.8,0.8c0.1,0.1,0.1,0.1,0.2,0.2c0.3,0.3,0.6,0.6,0.8,0.8c0.1,0.1,0.1,0.1,0.2,0.2
			c0.3,0.3,0.6,0.6,0.8,0.8c0.1,0.1,0.1,0.1,0.2,0.2c0.3,0.3,0.6,0.6,0.8,0.8c0.1,0.1,0.1,0.1,0.2,0.2c0.3,0.3,0.6,0.6,0.8,0.8
			c0.1,0.1,0.1,0.1,0.2,0.2c0.3,0.3,0.6,0.6,0.8,0.8c0.1,0.1,0.1,0.1,0.2,0.2c0.3,0.3,0.6,0.6,0.8,0.8c0.1,0.1,0.1,0.1,0.2,0.2
			c0.3,0.3,0.6,0.6,0.8,0.8c0.1,0.1,0.1,0.1,0.2,0.2c0.3,0.3,0.6,0.6,0.8,0.8c0.1,0.1,0.1,0.1,0.2,0.2c0.3,0.3,0.6,0.6,0.8,0.8
			c0.1,0.1,0.1,0.1,0.2,0.2c0.3,0.3,0.6,0.6,0.8,0.8c0.1,0.1,0.1,0.1,0.2,0.2c0.3,0.3,0.6,0.6,0.8,0.8c0.1,0.1,0.1,0.1,0.2,0.2
			c0.3,0.3,0.6,0.6,0.8,0.8c0.1,0.1,0.1,0.1,0.2,0.2c0.3,0.3,0.6,0.6,0.8,0.8c0.1,0.1,0.1,0.1,0.2,0.2c0.3,0.3,0.6,0.6,0.8,0.8
			c0.1,0.1,0.1,0.1,0.2,0.2c0.3,0.3,0.6,0.6,0.8,0.8c0.1,0.1,0.1,0.1,0.2,0.2c0.3,0.3,0.6,0.6,0.8,0.8c0.1,0.1,0.1,0.1,0.2,0.2
			c0.3,0.3,0.6,0.6,0.8,0.8c0.1,0.1,0.1,0.1,0.2,0.2c0.3,0.3,0.6,0.6,0.8,0.8c0.1,0.1,0.1,0.1,0.2,0.2c0.3,0.3,0.6,0.6,0.8,0.8
			c0.1,0.1,0.1,0.1,0.2,0.2c0.3,0.3,0.6,0.6,0.8,0.8c0.1,0.1,0.1,0.1,0.2,0.2c0.3,0.3,0.6,0.6,0.8,0.8c0.1,0.1,0.1,0.1,0.2,0.2
			c0.3,0.3,0.6,0.6,0.8,0.8c0.1,0.1,0.1,0.1,0.2,0.2c0.3,0.3,0.6,0.6,0.8,0.8c0.1,0.1,0.1,0.1,0.2,0.2c0.3,0.3,0.6,0.6,0.8,0.8
			c0.1,0.1,0.1,0.1,0.2,0.2c0.3,0.3,0.6,0.6,0.8,0.8c0.1,0.1,0.1,0.1,0.2,0.2c0.3,0.3,0.6,0.6,0.8,0.8c0.1,0.1,0.1,0.1,0.2,0.2
			c0.3,0.3,0.6,0.6,0.8,0.8c0.1,0.1,0.1,0.1,0.2,0.2c0.3,0.3,0.6,0.6,0.8,0.8c0.1,0.1,0.1,0.1,0.2,0.2c0.3,0.3,0.6,0.6,0.8,0.8
			c0.1,0.1,0.1,0.1,0.2,0.2c0.3,0.3,0.6,0.6,0.8,0.8c0.1,0.1,0.1,0.1,0.2,0.2c0.3,0.3,0.6,0.6,0.8,0.8c0.1,0.1,0.1,0.1,0.2,0.2
			c0.3,0.3,0.6,0.6,0.8,0.8c0.1,0.1,0.1,0.1,0.2,0.2c0.3,0.3,0.6,0.6,0.8,0.8c0.1,0.1,0.1,0.1,0.2,0.2c0.3,0.3,0.6,0.6,0.8,0.8
			c0.1,0.1,0.1,0.1,0.2,0.2c0.3,0.3,0.6,0.6,0.8,0.8c0.1,0.1,0.1,0.1,0.2,0.2c0.3,0.3,0.6,0.6,0.8,0.8c0.1,0.1,0.1,0.1,0.2,0.2
			c0.3,0.3,0.6,0.6,0.8,0.8c0.1,0.1,0.1,0.1,0.2,0.2c0.3,0.3,0.6,0.6,0.8,0.8c0.1,0.1,0.1,0.1,0.2,0.2c0.3,0.3,0.6,0.6,0.8,0.8
			c0.1,0.1,0.1,0.1,0.2,0.2c0.3,0.3,0.6,0.6,0.8,0.8c0.1,0.1,0.1,0.1,0.2,0.2c0.3,0.3,0.6,0.6,0.8,0.8c0.1,0.1,0.1,0.1,0.2,0.2
			c0.3,0.3,0.6,0.6,0.8,0.8c0.1,0.1,0.1,0.1,0.2,0.2c0.3,0.3,0.6,0.6,0.8,0.8c0.1,0.1,0.1,0.1,0.2,0.2c0.3,0.3,0.6,0.6,0.8,0.8
			c0.1,0.1,0.1,0.1,0.2,0.2c0.3,0.3,0.6,0.6,0.8,0.8c0.1,0.1,0.1,0.1,0.2,0.2c0.3,0.3,0.6,0.6,0.8,0.8c16.1,15.9,33.3,30.5,51,44.5
			c3.8,3,7.8,5.9,12,8.5c13.4,8.1,28.3,11.6,43.8,12.8c5.6,0.4,11.3,0.4,17.8,0.7c9.9-0.4,20.6-1,31.4-1.3c1.9-0.1,3.8-0.1,5.8-0.2
			c0,0,0,0,0,0c0.3,0,0.7,0.1,1,0.1c0,0.3,0,0.6,0,0.9c0.3,0,0.7,0.1,1,0.1c0,0.3,0,0.6,0,0.9c0.3,0,0.7,0.1,1,0.1
			c0,0.3,0,0.6,0,0.9c0.3,0,0.7,0.1,1,0.1c0,0.3,0,0.6,0,0.9c0.3,0,0.7,0.1,1,0.1c0,0.3,0,0.6,0,0.9c0.3,0,0.7,0.1,1,0.1
			c0,0.3,0,0.6,0,0.9c0.3,0,0.7,0.1,1,0.1c0,0.3,0,0.6,0,0.9c0.3,0,0.7,0.1,1,0.1c0,0.3,0,0.6,0,0.9c0.3,0,0.7,0.1,1,0.1
			c0,0.3,0,0.6,0,0.9c0.3,0,0.7,0.1,1,0.1c0,0.3,0,0.6,0,0.9c0.3,0,0.7,0.1,1,0.1c0,0.3,0,0.6,0,0.9c0.3,0,0.7,0.1,1,0.1
			c0,0.3,0,0.6,0,0.9c0.3,0,0.7,0.1,1,0.1c0,0.3,0,0.6,0,0.9c0.3,0,0.7,0.1,1,0.1c0,0.3,0,0.6,0,0.9c0.3,0,0.7,0.1,1,0.1
			c0,0.3,0,0.6,0,0.9c0.3,0,0.7,0.1,1,0.1c0,0.3,0,0.6,0,0.9c0.3,0,0.7,0.1,1,0.1c0,0.3,0,0.6,0,0.9c0.3,0,0.7,0.1,1,0.1
			c0,0.3,0,0.6,0,0.9c0.3,0,0.7,0.1,1,0.1c0,0.3,0,0.6,0,0.9c0.3,0,0.7,0.1,1,0.1c0,0.3,0,0.6,0,0.9c0.3,0,0.7,0.1,1,0.1
			c0,0.3,0,0.6,0,0.9c0.3,0,0.7,0.1,1,0.1c0,0.3,0,0.6,0,0.9c0.3,0,0.7,0.1,1,0.1c0,0.3,0,0.6,0,0.9c0.3,0,0.7,0.1,1,0.1
			c0,0.3,0,0.6,0,0.9c0.3,0,0.7,0.1,1,0.1c0,0.3,0,0.6,0,0.9c0.3,0,0.7,0.1,1,0.1c0,0.3,0,0.6,0,0.9c0.3,0,0.7,0.1,1,0.1
			c0,0.3,0,0.6,0,0.9c0.3,0,0.7,0.1,1,0.1c0,0.3,0,0.6,0,0.9c0.3,0,0.7,0.1,1,0.1c0,0.3,0,0.6,0,0.9c0.3,0,0.7,0.1,1,0.1
			c0,0.3,0,0.6,0,0.9c0.3,0,0.7,0.1,1,0.1c0,0.3,0,0.6,0,0.9c0.3,0,0.7,0.1,1,0.1c0,0.3,0,0.6,0,0.9c0.3,0,0.7,0.1,1,0.1
			c0,0.3,0,0.6,0,0.9c0.3,0,0.7,0.1,1,0.1c0,0.3,0,0.6,0,0.9c0.3,0,0.7,0.1,1,0.1c0,0.3,0,0.6,0,0.9c0.3,0,0.7,0.1,1,0.1
			c0,0.3,0,0.6,0,0.9c0.3,0,0.7,0.1,1,0.1c0,0.3,0,0.6,0,0.9c0.3,0,0.7,0.1,1,0.1c0,0.3,0,0.6,0,0.9c0.3,0,0.7,0.1,1,0.1
			c0,0.3,0,0.6,0,0.9c0.3,0,0.7,0.1,1,0.1c0,0.3,0,0.6,0,0.9c0.3,0,0.7,0.1,1,0.1c0,0.3,0,0.6,0,0.9c0.3,0,0.7,0.1,1,0.1
			c0,0.3,0,0.6,0,0.9c0.3,0,0.7,0.1,1,0.1c0,0.3,0,0.6,0,0.9c0.3,0,0.7,0.1,1,0.1c0,0.3,0,0.6,0,0.9c0.3,0,0.7,0.1,1,0.1
			c0,0.3,0,0.6,0,0.9c0.3,0,0.7,0.1,1,0.1c0,0.3,0,0.6,0,0.9c0.3,0,0.7,0.1,1,0.1c0,0.3,0,0.6,0,0.9c0.3,0,0.7,0.1,1,0.1
			c0,0.3,0,0.6,0,0.9c0.3,0,0.7,0.1,1,0.1c0,0.3,0,0.6,0,0.9c0.3,0,0.7,0.1,1,0.1c0,0.3,0,0.6,0,0.9c0.3,0,0.7,0.1,1,0.1
			c0,0.3,0,0.6,0,0.9c0.3,0,0.7,0.1,1,0.1c0,0.3,0,0.6,0,0.9c0.3,0,0.7,0.1,1,0.1c0,0.3,0,0.6,0,0.9c1,0.1,1.9,0.3,2.8,0.3
			c19.3,0,38.6,0,57.9,0.1c22.1,0,44.2,0,66.3,0c0.9,0,1.9-0.2,2.9-0.4c0-19.8,0-39,0-58.8C899.6,840.8,899.3,840.8,899,840.8z"/>
	</g>
</g>
<g id="Layer_1">
	<g>
		<g>
			<path class="st2" d="M391.1,467.4c-32-25.2-64-50.5-96.1-75.7c0-0.1,0-0.2,0.1-0.2c0.5,0.1,1.1,0.2,1.6,0.4c8,2.5,16,5.1,24,7.6
				c7.3,2.3,14.7,4.2,22.3,5.2c6.5,0.8,12.9,1,19.3-0.8c7.3-2,12.7-6.4,16.3-13c2.6-4.8,4.2-9.9,4.4-15.4c0.2-6.5-1.9-12.3-5.6-17.5
				c-3.5-4.9-7.9-8.8-12.7-12.3c-7.2-5.2-15.1-9.4-23.2-13.1c-6.3-2.9-12.6-5.7-18.9-8.6c-0.7-0.3-1.3-0.6-2.2-1
				C362.8,268.5,405,214.3,447.2,160c37.6,30.2,75.7,59.5,113.4,89.1c0,0.2,0.1,0.3,0.1,0.3c0,0.1,0,0.1,0,0.2
				c-0.2,0.3-0.4,0.6-0.6,0.9C504,322.7,447.8,394.8,391.7,467C391.6,467.1,391.4,467.2,391.1,467.4z M465.9,315.1
				c-0.1-6.5-1.9-13.7-5.3-20.4c-8.2-16.4-21.3-25.8-39.6-27.4c-6.6-0.6-13.2,0.2-19.6,2.1c-10.6,3.2-18.9,9.4-24.1,19.4
				c-4.3,8.3-5.6,17.2-4.5,26.5c0.9,7.9,3.3,15.3,7.6,22.1c9,14.4,21.9,22.1,38.8,22.9c5.8,0.3,11.5-0.4,17-2
				c10.4-3,18.7-8.8,24.2-18.3C464.6,332.7,466.2,324.7,465.9,315.1z"/>
			<path class="st3" d="M420,588.1c-6.5-0.2-12.2-0.2-17.8-0.7c-15.5-1.2-30.4-4.7-43.8-12.8c-4.2-2.5-8.1-5.5-12-8.5
				c-17.8-13.9-34.9-28.6-51-44.5c-4.3-4.3-8.5-8.7-12.3-13.4c-4.7-5.7-4.9-6.6-4.6-14.4c0.4-9.8,7-16,17-16.4
				c8.9-0.4,16.5,2.9,23.6,8c5.4,3.9,10.7,7.9,16.2,11.7c10.4,7.2,20.8,14.3,31.3,21.4c6.9,4.7,14.2,8.4,22.4,10.4
				c4.5,1.1,9.1,1.6,13.7,1.8c0.3,0,0.5,0,0.8,0c16.7,0.1,33.4,0.3,50,0.4c7.6,0,15.2-0.4,22.8-1.6c2.3-0.4,4.6-0.9,6.8-1.8
				c3.2-1.3,3.4-3.3,0.7-5.5c-3.2-2.6-6.9-3.8-11-4.3c-5.4-0.6-10.8-0.5-16.2-0.1c-6.3,0.4-12.6,0.7-18.9,0.8c-4,0-8.1-0.4-12-1.5
				c-8-2.3-12.5-7.8-13.1-16.1c-0.3-3.5-0.1-6.9,1.2-10.2c1.8-4.8,5-8,9.9-9.5c3.7-1.2,7.5-1.7,11.3-1.8c6.2-0.1,12.4,0.1,18.6,0.2
				c4,0,7.9-0.1,11.9-0.1c0.4,0,0.8,0,1.2,0c7.1-0.2,14.2-0.4,21.3-0.5c9.4-0.1,18.8-0.5,28.1-0.2c13.2,0.3,26.4,1.7,39.1,5.8
				c10.5,3.4,20,8.6,27.4,17c3.8,4.3,7.1,9,10.1,13.9c6,9.8,10.8,20.1,15.2,30.7c2.4,5.7,4.5,11.4,6.6,17.2
				c2.2,5.8,4.5,11.6,7.3,17.1c1.3,2.6,2.5,5.1,3.1,8c0.8,3.7-0.5,6.4-4,7.6c-2.7,0.9-5.5,1.5-8.3,1.8c-6.3,0.8-12.7,1.4-19,1.9
				c-2.7,0.2-5.3,0.3-8,0.5c-6,0.4-12.1,0.7-18.1,1.1c-2.3,0.1-4.7,0.2-7,0.4c-5.3,0.5-10.6,1-15.9,1.5c-6.4,0.5-12.7,1.2-19.1,0.8
				c-2.6-0.1-5.2-0.6-7.7-1.2c-3.2-0.7-5.8-2.5-7.9-5.1c-0.2-0.2-0.3-0.4-0.5-0.6c-3.5-5.3-8.6-7.8-14.7-8.7
				c-4.6-0.7-9.2-1.2-13.7-1.6c-9.8-0.9-19.7-0.5-29.5-0.2C440.7,587.1,430,587.7,420,588.1z"/>
			<path class="st3" d="M202.9,355.3c-0.5-2.3-0.2-94.9,0.3-97.5c1.1-0.1,2.2-0.3,3.4-0.4c13.4-0.9,26.3-4.4,39-8.3
				c10.9-3.3,21.8-6.7,32.7-10c3.3-1,6.7-1.7,10.1-2.3c2-0.4,4.1-0.6,6.2-0.6c6.5,0,13,0,19.5,0.4c7.1,0.5,14.2,1.4,21.4,2.2
				c9.6,1.1,19.2,2.8,28.6,5.2c2.1,0.5,4.2,1.2,6.4,1.9c0.5,0.2,1.1,0.4,1.8,0.7c-0.4,0.6-0.7,1.1-1,1.5
				c-14.2,17.2-28.6,34.3-42.7,51.6c-1.8,2.2-3.6,3.2-6.4,2.9c-2.9-0.3-5.9-0.2-8.8-0.1c-2.5,0.2-5,0.5-7.5,1.1
				c-6.5,1.4-10.3,9-6.9,15.7c1.2,2.3,2.9,4.2,5.1,5.5c5.3,3.1,10.7,6.3,16.1,9.3c12.9,7.2,25.9,14.3,38.8,21.5
				c3.6,2,7,4.2,10.5,6.5c5.6,3.6,8,9,7.9,15.5c-0.1,7.4-3.3,13.2-9.7,17.1c-3.8,2.3-8,2.8-12.4,1.8c-8.6-1.9-17.1-4.3-25.6-6.9
				c-16.6-5-33-10.4-49.3-16.3c-6.9-2.5-12.8-6.3-18-11.4c-2.2-2.2-4.2-4.4-6.4-6.6c-2.1-2-4.2-4.1-6.5-6c-2.6-2.2-5.7-2.8-9.2-2.5
				c-7.7,0.5-15,2.7-22.3,4.6c-4.7,1.3-9.4,2.6-14.1,3.9C203.6,355.2,203.3,355.2,202.9,355.3z"/>
			<path class="st4" d="M160,249c3.8-0.4,41.7-0.3,43.8,0.2c0,42.2,0,84.5,0,126.7c-2,0.5-23,0.8-26,0.4c-2.1-14.1-4-28.2-6-42.3
				c-2-14.1-4-28.2-6-42.3C163.9,277.4,162,263.2,160,249z"/>
			<path class="st4" d="M640,580.8c0,19.8,0,39,0,58.8c-1,0.1-1.9,0.4-2.9,0.4c-22.1,0-44.2,0-66.3,0c-19.3,0-38.6,0-57.9-0.1
				c-0.9,0-1.8-0.2-2.8-0.3c0-11.7,0-23,0-34.7c0.8-0.3,1.6-0.8,2.4-0.9c3.4-0.6,6.7-1.2,10.1-1.8c3.6-0.6,7.1-1.4,10.7-2
				c3.3-0.6,6.6-1.2,9.9-1.8c3.8-0.7,7.5-1.4,11.3-2.1c3.2-0.6,6.3-1.1,9.5-1.7c3.8-0.7,7.6-1.5,11.5-2.1c3.2-0.6,6.5-1.1,9.7-1.7
				c3.8-0.7,7.5-1.4,11.3-2.1c3.4-0.6,6.7-1.2,10.1-1.8c3.6-0.7,7.2-1.4,10.9-2.1c3.2-0.6,6.5-1.2,9.7-1.8c3.8-0.7,7.5-1.4,11.3-2.1
				C638.9,580.8,639.3,580.8,640,580.8z"/>
			<path class="st2" d="M385.6,296.9c2.2-3.2,4.3-6.4,6.6-9.8c1.3,0.8,2.4,1.6,3.6,2.4c0.5,0.3,1,0.6,1.4,1c0.8,0.6,1.5,0.6,2.2-0.1
				c2.4-2.1,4.9-4.1,7.4-6.1c0.6-0.5,1.2-1,1.8-1.4c1.8,1,7.3,7.3,9.3,10.6c-0.4,0.3-0.9,0.7-1.4,1c-2.9,1.8-5.8,3.8-8.1,6.4
				c-1,1-1.8,2.2-2.5,3.5c-0.4,0.7-0.6,1.6-0.6,2.4c0,1.9,1.3,2.9,3.1,2.6c1.2-0.2,2.4-0.6,3.5-1.2c2.6-1.5,5.2-3,7.7-4.7
				c2.7-1.8,5.6-3.3,8.9-3.9c6-1.1,11,0.4,14.8,5.3c2.9,3.8,4,8.2,4,12.8c0,2.3-0.3,4.6-0.6,6.8c-0.2,1.1,0,1.7,0.9,2.3
				c2,1.5,3.9,3,6.1,4.7c-2.2,3.3-4.5,6.4-6.8,9.8c-1.6-1-3-2-4.4-3c-2.7-1.8-2.1-1.8-4.6,0.2c-2.9,2.3-5.7,4.6-8.5,6.9
				c-0.5,0.4-1,0.8-1.6,1.2c-3.6-3.3-6.4-7.2-9.5-11c0.6-0.4,1.1-0.7,1.6-1c3.4-2,6.6-4.2,9.3-7c1.3-1.3,2.4-2.9,3.4-4.5
				c0.7-1.1,0.8-2.5,0.4-3.8c-0.4-1.4-1.3-2.2-2.8-2.2c-1.5-0.1-2.8,0.4-4.1,1.2c-2,1.2-3.9,2.4-5.8,3.6c-2.6,1.7-5.2,3.2-8.1,4.3
				c-3.9,1.4-7.8,1.4-11.6,0c-4.5-1.7-7.3-4.9-8.5-9.5c-1.1-4-0.9-8-0.3-12c0.4-2.4,0.4-2.4-1.6-4c-1.3-1-2.6-2-3.9-3
				C386.1,297.5,386,297.3,385.6,296.9z"/>
		</g>
	</g>
</g>
</svg>
