<?xml version="1.0" encoding="utf-8"?>
<!-- Generator: Adobe Illustrator 24.1.2, SVG Export Plug-In . SVG Version: 6.00 Build 0)  -->
<svg version="1.1" id="Layer_1" xmlns="http://www.w3.org/2000/svg" xmlns:xlink="http://www.w3.org/1999/xlink" x="0px" y="0px"
	 viewBox="0 0 800 800" style="enable-background:new 0 0 800 800;" xml:space="preserve">
<style type="text/css">
	.st0{fill:#333333;}
	.st1{clip-path:url(#SVGID_2_);fill:#040403;}
	.st2{fill:#406194;}
	.st3{fill:#DFDFDF;}
	.st4{fill:#4C73B1;}
	.st5{fill:#F9DD9B;}
	.st6{fill:#3E5E8F;}
	.st7{fill:#12A55A;}
	.st8{fill:#4E74B2;}
	.st9{fill:#0DA559;}
	.st10{fill:#EBD799;}
	.st11{fill:#119954;}
	.st12{fill:#605D5B;}
	.st13{fill:#12844A;}
	.st14{fill:#8D8681;}
	.st15{fill:#3E5E90;}
	.st16{fill:#8E8781;}
	.st17{fill:#FEFEFE;}
	.st18{fill:#416295;}
	.st19{fill:#14844B;}
	.st20{fill:#5F5D5B;}
	.st21{fill:#5377AF;}
	.st22{fill:#65615F;}
	.st23{fill:#4B73B1;}
	.st24{fill:#F8DC9B;}
	.st25{fill:#C2B99D;}
	.st26{fill:#272727;}
	.st27{fill:#FDFDFD;}
	.st28{fill:#416091;}
	.st29{fill:#405F90;}
	.st30{fill:#EBEDF1;}
	.st31{fill:#CFC596;}
	.st32{fill:#F8DD9B;}
	.st33{fill:#F6DC9B;}
	.st34{fill:#F7DD9B;}
	.st35{fill:#F4DC9A;}
	.st36{fill:#F3DB99;}
	.st37{fill:#4BA965;}
	.st38{fill:#5B5A56;}
	.st39{fill:#3F4045;}
	.st40{fill:#738AA7;}
	.st41{fill:#060505;}
	.st42{fill:#F4DA9B;}
	.st43{fill:#4569A2;}
	.st44{fill:#080707;}
	.st45{fill:#8D8680;}
	.st46{fill:#F5DA9A;}
	.st47{fill:#282828;}
	.st48{fill:#272827;}
	.st49{fill:#292928;}
	.st50{fill:#415B83;}
	.st51{fill:#179354;}
	.st52{fill:#C5B182;}
	.st53{fill:#179B56;}
	.st54{fill:#080807;}
	.st55{fill:#0F0E0D;}
	.st56{fill:#0E0D0C;}
	.st57{fill:#0B0908;}
	.st58{fill:#080606;}
	.st59{fill:#1B1E1D;}
	.st60{fill:#199C56;}
	.st61{fill:#1D9D57;}
	.st62{fill:#EFDA98;}
	.st63{fill:#F3DC9A;}
	.st64{fill:#EEDA98;}
	.st65{fill:#E8D896;}
	.st66{fill:#EDD998;}
	.st67{fill:#F1DB99;}
	.st68{fill:#F2DB99;}
	.st69{fill:#E3D795;}
	.st70{fill:#E7D896;}
	.st71{fill:#E0D694;}
	.st72{fill:#EAD997;}
	.st73{fill:#E4D795;}
	.st74{fill:#DCD592;}
	.st75{fill:#DBD492;}
	.st76{fill:#2BA15C;}
	.st77{fill:#2A2A2A;}
	.st78{fill:#5D5C58;}
	.st79{fill:#8A847E;}
	.st80{fill:#249F59;}
	.st81{fill:#E5D795;}
	.st82{fill:#E9D896;}
	.st83{fill:#D4D290;}
	.st84{fill:#DCD593;}
	.st85{fill:#EFDA99;}
	.st86{fill:#E9D997;}
	.st87{fill:#E6D795;}
	.st88{fill:#CCD08D;}
	.st89{fill:#E1D794;}
	.st90{fill:#D7D391;}
	.st91{fill:#D9D491;}
	.st92{fill:#D6D391;}
	.st93{fill:#C0CC8A;}
	.st94{fill:#DCD493;}
	.st95{fill:#B3C986;}
	.st96{fill:#ECD998;}
	.st97{fill:#9DC37E;}
	.st98{fill:#C2CD8A;}
	.st99{fill:#1C1E1E;}
	.st100{fill:#444341;}
	.st101{fill:#DFD692;}
	.st102{fill:#7CB976;}
	.st103{fill:#857F7A;}
	.st104{fill:#0C0B0C;}
	.st105{fill:#080708;}
	.st106{fill:#474544;}
	.st107{fill:#464545;}
	.st108{fill:#040403;}
</style>
<g id="Layer_2_3_">
	<g id="Layer_2_4_">
		<g>
			<circle class="st0" cx="400" cy="401.4" r="400"/>
		</g>
	</g>
</g>
<g>
	<g>
		<defs>
			<circle id="SVGID_1_" cx="400" cy="401.4" r="400"/>
		</defs>
		<clipPath id="SVGID_2_">
			<use xlink:href="#SVGID_1_"  style="overflow:visible;"/>
		</clipPath>
		<path class="st1" d="M939.4,594.8c-1.2-4.6-3.5-8.2-6.7-11.2c-0.3-0.3-0.7-0.7-1-1c-0.3-0.3-0.7-0.7-1-1c-0.3-0.3-0.7-0.7-1-1
			c-0.3-0.3-0.7-0.7-1-1c-0.3-0.3-0.7-0.7-1-1c-0.3-0.3-0.7-0.7-1-1c-0.3-0.3-0.7-0.7-1-1c-0.3-0.3-0.7-0.7-1-1
			c-0.3-0.3-0.7-0.7-1-1c-0.3-0.3-0.7-0.7-1-1c-0.3-0.3-0.7-0.7-1-1c-0.3-0.3-0.7-0.7-1-1c-0.3-0.3-0.7-0.7-1-1
			c-0.3-0.3-0.7-0.7-1-1c-0.3-0.3-0.7-0.7-1-1c-0.3-0.3-0.7-0.7-1-1c-0.3-0.3-0.7-0.7-1-1c-0.3-0.3-0.7-0.7-1-1
			c-0.3-0.3-0.7-0.7-1-1c-0.3-0.3-0.7-0.7-1-1c-0.3-0.3-0.7-0.7-1-1c-0.3-0.3-0.7-0.7-1-1c-0.3-0.3-0.7-0.7-1-1
			c-0.3-0.3-0.7-0.7-1-1c-0.3-0.3-0.7-0.7-1-1c-0.3-0.3-0.7-0.7-1-1c-0.3-0.3-0.7-0.7-1-1c-0.3-0.3-0.7-0.7-1-1
			c-0.3-0.3-0.7-0.7-1-1c-0.3-0.3-0.7-0.7-1-1c-0.3-0.3-0.7-0.7-1-1c-0.3-0.3-0.7-0.7-1-1c-0.3-0.3-0.7-0.7-1-1
			c-0.3-0.3-0.7-0.7-1-1c-0.3-0.3-0.7-0.7-1-1c-0.3-0.3-0.7-0.7-1-1c-0.3-0.3-0.7-0.7-1-1c-0.3-0.3-0.7-0.7-1-1
			c-0.3-0.3-0.7-0.7-1-1c-0.3-0.3-0.7-0.7-1-1c-0.3-0.3-0.7-0.7-1-1c-0.3-0.3-0.7-0.7-1-1c-0.3-0.3-0.7-0.7-1-1
			c-0.3-0.3-0.7-0.7-1-1c-0.3-0.3-0.7-0.7-1-1c-0.3-0.3-0.7-0.7-1-1c-0.3-0.3-0.7-0.7-1-1c-0.3-0.3-0.7-0.7-1-1
			c-0.3-0.3-0.7-0.7-1-1c-0.3-0.3-0.7-0.7-1-1c-0.3-0.3-0.7-0.7-1-1c-0.3-0.3-0.7-0.7-1-1c-0.3-0.3-0.7-0.7-1-1
			c-0.3-0.3-0.7-0.7-1-1c-0.3-0.3-0.7-0.7-1-1c-0.3-0.3-0.7-0.7-1-1c-0.3-0.3-0.7-0.7-1-1c-0.3-0.3-0.7-0.7-1-1
			c-0.3-0.3-0.7-0.7-1-1c-0.3-0.3-0.7-0.7-1-1c-0.3-0.3-0.7-0.7-1-1c-0.3-0.3-0.7-0.7-1-1c-0.3-0.3-0.7-0.7-1-1
			c-0.3-0.3-0.7-0.7-1-1c-0.3-0.3-0.7-0.7-1-1c-0.3-0.3-0.7-0.7-1-1c-0.3-0.3-0.7-0.7-1-1c-0.3-0.3-0.7-0.7-1-1
			c-0.3-0.3-0.7-0.7-1-1c-0.3-0.3-0.7-0.7-1-1c-0.3-0.3-0.7-0.7-1-1c-0.3-0.3-0.7-0.7-1-1c-0.3-0.3-0.7-0.7-1-1
			c-0.3-0.3-0.7-0.7-1-1c-0.3-0.3-0.7-0.7-1-1c-0.3-0.3-0.7-0.7-1-1c-0.3-0.3-0.7-0.7-1-1c-0.3-0.3-0.7-0.7-1-1
			c-0.3-0.3-0.7-0.7-1-1c-0.3-0.3-0.7-0.7-1-1c-0.3-0.3-0.7-0.7-1-1c-0.3-0.3-0.7-0.7-1-1c-0.3-0.3-0.7-0.7-1-1
			c-0.3-0.3-0.7-0.7-1-1c-0.3-0.3-0.7-0.7-1-1c-0.3-0.3-0.7-0.7-1-1c-0.3-0.3-0.7-0.7-1-1c-0.3-0.3-0.7-0.7-1-1
			c-0.3-0.3-0.7-0.7-1-1c-0.3-0.3-0.7-0.7-1-1c-0.3-0.3-0.7-0.7-1-1c-0.3-0.3-0.7-0.7-1-1c-0.3-0.3-0.7-0.7-1-1
			c-0.3-0.3-0.7-0.7-1-1c-0.3-0.3-0.7-0.7-1-1c-0.3-0.3-0.7-0.7-1-1c-0.3-0.3-0.7-0.7-1-1c-0.3-0.3-0.7-0.7-1-1
			c-0.3-0.3-0.7-0.7-1-1c-0.3-0.3-0.7-0.7-1-1c-0.3-0.3-0.7-0.7-1-1c-0.3-0.3-0.7-0.7-1-1c-0.3-0.3-0.7-0.7-1-1
			c-0.3-0.3-0.7-0.7-1-1c-0.3-0.3-0.7-0.7-1-1c-0.3-0.3-0.7-0.7-1-1c-0.3-0.3-0.7-0.7-1-1c-0.3-0.3-0.7-0.7-1-1
			c-0.3-0.3-0.7-0.7-1-1c-0.3-0.3-0.7-0.7-1-1c-0.3-0.3-0.7-0.7-1-1c-0.3-0.3-0.7-0.7-1-1c-0.3-0.3-0.7-0.7-1-1
			c-0.3-0.3-0.7-0.7-1-1c-0.3-0.3-0.7-0.7-1-1c-0.3-0.3-0.7-0.7-1-1c-0.3-0.3-0.7-0.7-1-1c-0.3-0.3-0.7-0.7-1-1
			c-0.3-0.3-0.7-0.7-1-1c-0.3-0.3-0.7-0.7-1-1c-0.3-0.3-0.7-0.7-1-1c-0.3-0.3-0.7-0.7-1-1c-0.3-0.3-0.7-0.7-1-1
			c-0.3-0.3-0.7-0.7-1-1c-0.3-0.3-0.7-0.7-1-1c-0.3-0.3-0.7-0.7-1-1c-0.3-0.3-0.7-0.7-1-1c-0.3-0.3-0.7-0.7-1-1
			c-0.3-0.3-0.7-0.7-1-1c-0.3-0.3-0.7-0.7-1-1c-0.3-0.3-0.7-0.7-1-1c-0.3-0.3-0.7-0.7-1-1c-0.3-0.3-0.7-0.7-1-1
			c-0.3-0.3-0.7-0.7-1-1c-0.3-0.3-0.7-0.7-1-1c-0.3-0.3-0.7-0.7-1-1c-0.3-0.3-0.7-0.7-1-1c-0.3-0.3-0.7-0.7-1-1
			c-0.3-0.3-0.7-0.7-1-1c-0.3-0.3-0.7-0.7-1-1c-0.3-0.3-0.7-0.7-1-1c-0.3-0.3-0.7-0.7-1-1c-0.3-0.3-0.7-0.7-1-1
			c-0.3-0.3-0.7-0.7-1-1c-0.3-0.3-0.7-0.7-1-1c-0.3-0.3-0.7-0.7-1-1c-0.3-0.3-0.7-0.7-1-1c-0.3-0.3-0.7-0.7-1-1
			c-0.3-0.3-0.7-0.7-1-1c-0.3-0.3-0.7-0.7-1-1c-0.3-0.3-0.7-0.7-1-1c-0.3-0.3-0.7-0.7-1-1c-0.3-0.3-0.7-0.7-1-1
			c-0.3-0.3-0.7-0.7-1-1c-0.3-0.3-0.7-0.7-1-1c-0.3-0.3-0.7-0.7-1-1c-0.3-0.3-0.7-0.7-1-1c-0.3-0.3-0.7-0.7-1-1
			c-0.3-0.3-0.7-0.7-1-1c-0.3-0.3-0.7-0.7-1-1c-0.3-0.3-0.7-0.7-1-1c-0.3-0.3-0.7-0.7-1-1c-0.3-0.3-0.7-0.7-1-1
			c-0.3-0.3-0.7-0.7-1-1c-0.3-0.3-0.7-0.7-1-1c-0.3-0.3-0.7-0.7-1-1c-0.3-0.3-0.7-0.7-1-1c-0.3-0.3-0.7-0.7-1-1
			c-0.3-0.3-0.7-0.7-1-1c-0.3-0.3-0.7-0.7-1-1c-0.3-0.3-0.7-0.7-1-1c-0.3-0.3-0.7-0.7-1-1c-0.3-0.3-0.7-0.7-1-1
			c-0.3-0.3-0.7-0.7-1-1c-0.3-0.3-0.7-0.7-1-1c-0.3-0.3-0.7-0.7-1-1c-0.3-0.3-0.7-0.7-1-1c-0.3-0.3-0.7-0.7-1-1
			c-0.3-0.3-0.7-0.7-1-1c-0.3-0.3-0.7-0.7-1-1c-0.3-0.3-0.7-0.7-1-1c-0.3-0.3-0.7-0.7-1-1c-0.3-0.3-0.7-0.7-1-1
			c-0.3-0.3-0.7-0.7-1-1c-0.3-0.3-0.7-0.7-1-1c-0.3-0.3-0.7-0.7-1-1c-0.3-0.3-0.7-0.7-1-1c-0.3-0.3-0.7-0.7-1-1
			c-0.3-0.3-0.7-0.7-1-1c-0.3-0.3-0.7-0.7-1-1c-0.3-0.3-0.7-0.7-1-1c-0.3-0.3-0.7-0.7-1-1c-0.3-0.3-0.7-0.7-1-1
			c-0.3-0.3-0.7-0.7-1-1c-0.3-0.3-0.7-0.7-1-1c-0.3-0.3-0.7-0.7-1-1c-0.3-0.3-0.7-0.7-1-1c-0.3-0.3-0.7-0.7-1-1
			c-0.3-0.3-0.7-0.7-1-1c-0.3-0.3-0.7-0.7-1-1c-0.3-0.3-0.7-0.7-1-1c-0.3-0.3-0.7-0.7-1-1c-0.3-0.3-0.7-0.7-1-1
			c-0.3-0.3-0.7-0.7-1-1c-0.3-0.3-0.7-0.7-1-1c-0.3-0.3-0.7-0.7-1-1c-0.3-0.3-0.7-0.7-1-1c-0.3-0.3-0.7-0.7-1-1
			c-0.3-0.3-0.7-0.7-1-1c-0.3-0.3-0.7-0.7-1-1c-0.3-0.3-0.7-0.7-1-1c-0.3-0.3-0.7-0.7-1-1c-0.3-0.3-0.7-0.7-1-1
			c-0.3-0.3-0.7-0.7-1-1c-0.3-0.3-0.7-0.7-1-1c-0.3-0.3-0.7-0.7-1-1c-0.3-0.3-0.7-0.7-1-1c-0.3-0.3-0.7-0.7-1-1
			c-0.3-0.3-0.7-0.7-1-1c-0.3-0.3-0.7-0.7-1-1c-0.3-0.3-0.7-0.7-1-1c-0.3-0.3-0.7-0.7-1-1c-0.3-0.3-0.7-0.7-1-1
			c-0.3-0.3-0.7-0.7-1-1c-0.3-0.3-0.7-0.7-1-1c-0.3-0.3-0.7-0.7-1-1c-0.3-0.3-0.7-0.7-1-1c-0.3-0.3-0.7-0.7-1-1
			c-0.3-0.3-0.7-0.7-1-1c-0.3-0.3-0.7-0.7-1-1c-0.3-0.3-0.7-0.7-1-1c-0.3-0.3-0.7-0.7-1-1c-0.3-0.3-0.7-0.7-1-1
			c-0.3-0.3-0.7-0.7-1-1c-0.3-0.3-0.7-0.7-1-1c-0.3-0.3-0.7-0.7-1-1c-0.3-0.3-0.7-0.7-1-1c-0.3-0.3-0.7-0.7-1-1
			c-0.3-0.3-0.7-0.7-1-1c-0.3-0.3-0.7-0.7-1-1c-0.3-0.3-0.7-0.7-1-1c-0.3-0.3-0.7-0.7-1-1c-0.3-0.3-0.7-0.7-1-1
			c-0.3-0.3-0.7-0.7-1-1c-0.3-0.3-0.7-0.7-1-1c-0.3-0.3-0.7-0.7-1-1c-0.3-0.3-0.7-0.7-1-1c-0.3-0.3-0.7-0.7-1-1
			c-0.3-0.3-0.7-0.7-1-1c-0.3-0.3-0.7-0.7-1-1c-0.3-0.3-0.7-0.7-1-1c-0.3-0.3-0.7-0.7-1-1c-0.3-0.3-0.7-0.7-1-1
			c-0.3-0.3-0.7-0.7-1-1c-0.3-0.3-0.7-0.7-1-1c-0.3-0.3-0.7-0.7-1-1c-0.3-0.3-0.7-0.7-1-1c-0.3-0.3-0.7-0.7-1-1
			c-0.3-0.3-0.7-0.7-1-1c-0.3-0.3-0.7-0.7-1-1c-0.3-0.3-0.7-0.7-1-1c-0.3-0.3-0.7-0.7-1-1c-0.3-0.3-0.7-0.7-1-1
			c-0.3-0.3-0.7-0.7-1-1c-0.3-0.3-0.7-0.7-1-1c-0.3-0.3-0.7-0.7-1-1c-0.3-0.3-0.7-0.7-1-1c-0.3-0.3-0.7-0.7-1-1
			c-0.3-0.3-0.7-0.7-1-1c-0.3-0.3-0.7-0.7-1-1c-0.3-0.3-0.7-0.7-1-1c-0.3-0.3-0.7-0.7-1-1c-0.3-0.3-0.7-0.7-1-1
			c-0.3-0.3-0.7-0.7-1-1c-0.3-0.3-0.7-0.7-1-1c-0.3-0.3-0.7-0.7-1-1c-0.3-0.3-0.7-0.7-1-1c-0.3-0.3-0.7-0.7-1-1
			c-0.3-0.3-0.7-0.7-1-1c-0.3-0.3-0.7-0.7-1-1c-0.3-0.3-0.7-0.7-1-1c-0.3-0.3-0.7-0.7-1-1c-0.3-0.3-0.7-0.7-1-1
			c-0.3-0.3-0.7-0.7-1-1c-0.3-0.3-0.7-0.7-1-1c-0.3-0.3-0.7-0.7-1-1c-0.3-0.3-0.7-0.7-1-1c-0.3-0.3-0.7-0.7-1-1
			c-0.3-0.3-0.7-0.7-1-1c-0.3-0.3-0.7-0.7-1-1c-0.3-0.3-0.7-0.7-1-1c-0.3-0.3-0.7-0.7-1-1c-0.3-0.3-0.7-0.7-1-1
			c-0.3-0.3-0.7-0.7-1-1c-0.3-0.3-0.7-0.7-1-1c-0.3-0.3-0.7-0.7-1-1c-0.3-0.3-0.7-0.7-1-1c-0.3-0.3-0.7-0.7-1-1
			c-0.3-0.3-0.7-0.7-1-1c-1.7-1.8-3.7-3.3-5.9-4.7c-0.2-0.3-0.5-0.5-0.8-0.5c0,0,0,0,0,0c-0.1-0.7-0.5-0.9-1-1c-0.2-1.3-1.5-1-2.3-1
			c-4.5-0.3-9.1-0.5-13.6-0.7c-30.1-1.5-60.1-3-90.2-4.5c-15.9-0.8-31.8-1.7-47.7-2.4c-17.3-0.8-34.7-1.5-52.1-2.3
			c-3.1-1.1-6.4-0.6-9.5-1.1c-2.5-0.4-3.4,0.3-3.4,3.1c0,3.7,0,7.5,0,11.2c-0.2-0.3-0.4-0.5-0.8-0.6c-0.2-0.4-0.5-0.8-1-1
			c-0.2-0.4-0.5-0.8-1-1c-0.2-0.4-0.5-0.8-1-1c-0.2-0.4-0.5-0.8-1-1c-0.2-0.4-0.5-0.8-1-1c-0.2-0.4-0.5-0.8-1-1
			c-0.2-0.4-0.5-0.8-1-1c-0.2-0.4-0.5-0.8-1-1c-0.2-0.4-0.5-0.8-1-1c-0.2-0.4-0.5-0.8-1-1c-0.2-0.4-0.5-0.8-1-1
			c-0.2-0.4-0.5-0.8-1-1c-0.3-0.8-1-1.2-2.4-1.3c-2.6-0.3-5.3-0.6-7.9-0.3c-0.4,0-0.9-0.1-1.3-0.1c-25.4,0.6-50.7,1.2-76.1,1.8
			c-36.3,0.8-72.6,1.5-108.9,2.3c-11.7,0.3-23.5,0.7-35.2,0.9c-2,0-2.6,0.7-2.5,2.7c0.3,4.8,0.4,9.5,0.5,14.3
			c1.2,52.8,2.4,105.6,3.6,158.4c0.4,17.8,0.9,35.6,1.2,53.5c0,1.4,0.2,2.3,1.2,2.7c0.2,0.5,0.5,0.8,1,1c0.2,0.5,0.5,0.8,1,1
			c0.2,0.5,0.5,0.8,1,1c0.2,0.5,0.5,0.8,1,1c0.2,0.5,0.5,0.8,1,1c0.2,0.5,0.5,0.8,1,1c0.2,0.5,0.5,0.8,1,1c0.2,0.5,0.5,0.8,1,1
			c0.2,0.5,0.5,0.8,1,1c0.2,0.5,0.5,0.8,1,1c0.2,0.5,0.5,0.8,1,1c0.2,0.5,0.5,0.8,1,1c0.2,0.5,0.5,0.8,1,1c0.2,0.5,0.5,0.8,1,1
			c0.2,0.5,0.5,0.8,1,1c0.2,0.5,0.5,0.8,1,1c0.2,0.5,0.5,0.8,1,1c0.2,0.5,0.5,0.8,1,1c0.2,0.5,0.5,0.8,1,1c0.2,0.5,0.5,0.8,1,1
			c0.2,0.5,0.5,0.8,1,1c0.2,0.5,0.5,0.8,1,1c0.2,0.5,0.5,0.8,1,1c0.2,0.5,0.5,0.8,1,1c0.2,0.5,0.5,0.8,1,1c0.2,0.5,0.5,0.8,1,1
			c0.2,0.5,0.5,0.8,1,1c0.2,0.5,0.5,0.8,1,1c0.2,0.5,0.5,0.8,1,1c0.2,0.5,0.5,0.8,1,1c0.2,0.5,0.5,0.8,1,1c0.2,0.5,0.5,0.8,1,1
			c0.2,0.5,0.5,0.8,1,1c0.2,0.5,0.5,0.8,1,1c0.2,0.5,0.5,0.8,1,1c0.2,0.5,0.5,0.8,1,1c0.2,0.5,0.5,0.8,1,1c0.2,0.5,0.5,0.8,1,1
			c0.2,0.5,0.5,0.8,1,1c0.2,0.5,0.5,0.8,1,1c0.2,0.5,0.5,0.8,1,1c0.2,0.5,0.5,0.8,1,1c0.2,0.5,0.5,0.8,1,1c0.2,0.5,0.5,0.8,1,1
			c0.2,0.5,0.5,0.8,1,1c0.2,0.5,0.5,0.8,1,1c0.2,0.5,0.5,0.8,1,1c0.2,0.5,0.5,0.8,1,1c0.2,0.5,0.5,0.8,1,1c0.2,0.5,0.5,0.8,1,1
			c0.2,0.5,0.5,0.8,1,1c0.2,0.5,0.5,0.8,1,1c0.2,0.5,0.5,0.8,1,1c0.2,0.5,0.5,0.8,1,1c0.2,0.5,0.5,0.8,1,1c0.2,0.5,0.5,0.8,1,1
			c0.2,0.5,0.5,0.8,1,1c0.2,0.5,0.5,0.8,1,1c0.2,0.5,0.5,0.8,1,1c0.2,0.5,0.5,0.8,1,1c0.2,0.5,0.5,0.8,1,1c0.2,0.5,0.5,0.8,1,1
			c0.2,0.5,0.5,0.8,1,1c0.2,0.5,0.5,0.8,1,1c0.2,0.5,0.5,0.8,1,1c0.2,0.5,0.5,0.8,1,1c0.2,0.5,0.5,0.8,1,1c0.2,0.5,0.5,0.8,1,1
			c0.2,0.5,0.5,0.8,1,1c0.2,0.5,0.5,0.8,1,1c0.2,0.5,0.5,0.8,1,1c0.2,0.5,0.5,0.8,1,1c0.2,0.5,0.5,0.8,1,1c0.2,0.5,0.5,0.8,1,1
			c0.2,0.5,0.5,0.8,1,1c0.2,0.5,0.5,0.8,1,1c0.2,0.5,0.5,0.8,1,1c0.2,0.5,0.5,0.8,1,1c0.2,0.5,0.5,0.8,1,1c0.2,0.5,0.5,0.8,1,1
			c0.2,0.5,0.5,0.8,1,1c0.2,0.5,0.5,0.8,1,1c0.2,0.5,0.5,0.8,1,1c0.2,0.5,0.5,0.8,1,1c0.2,0.5,0.5,0.8,1,1c0.2,0.5,0.5,0.8,1,1
			c0.2,0.5,0.5,0.8,1,1c0.2,0.5,0.5,0.8,1,1c0.2,0.5,0.5,0.8,1,1c0.2,0.5,0.5,0.8,1,1c0.2,0.5,0.5,0.8,1,1c0.2,0.5,0.5,0.8,1,1
			c0.2,0.5,0.5,0.8,1,1c0.2,0.5,0.5,0.8,1,1c0.2,0.5,0.5,0.8,1,1c0.2,0.5,0.5,0.8,1,1c0.2,0.5,0.5,0.8,1,1c0.2,0.5,0.5,0.8,1,1
			c0.2,0.5,0.5,0.8,1,1c0.2,0.5,0.5,0.8,1,1c0.2,0.5,0.5,0.8,1,1c0.2,0.5,0.5,0.8,1,1c0.2,0.5,0.5,0.8,1,1c0.2,0.5,0.5,0.8,1,1
			c0.2,0.5,0.5,0.8,1,1c0.2,0.5,0.5,0.8,1,1c0.2,0.5,0.5,0.8,1,1c0.2,0.5,0.5,0.8,1,1c0.2,0.5,0.5,0.8,1,1c0.2,0.5,0.5,0.8,1,1
			c0.2,0.5,0.5,0.8,1,1c0.2,0.5,0.5,0.8,1,1c0.2,0.5,0.5,0.8,1,1c0.2,0.5,0.5,0.8,1,1c0.2,0.5,0.5,0.8,1,1c0.2,0.5,0.5,0.8,1,1
			c0.2,0.5,0.5,0.8,1,1c0.2,0.5,0.5,0.8,1,1c0.2,0.5,0.5,0.8,1,1c0.2,0.5,0.5,0.8,1,1c0.2,0.5,0.5,0.8,1,1c0.2,0.5,0.5,0.8,1,1
			c0.2,0.5,0.5,0.8,1,1c0.2,0.5,0.5,0.8,1,1c0.2,0.5,0.5,0.8,1,1c0.2,0.5,0.5,0.8,1,1c0.2,0.5,0.5,0.8,1,1c0.2,0.5,0.5,0.8,1,1
			c0.2,0.5,0.5,0.8,1,1c0.2,0.5,0.5,0.8,1,1c0.2,0.5,0.5,0.8,1,1c0.2,0.5,0.5,0.8,1,1c0.2,0.5,0.5,0.8,1,1c0.2,0.5,0.5,0.8,1,1
			c0.2,0.5,0.5,0.8,1,1c0.2,0.5,0.5,0.8,1,1c0.2,0.5,0.5,0.8,1,1c0.2,0.5,0.5,0.8,1,1c0.2,0.5,0.5,0.8,1,1c0.2,0.5,0.5,0.8,1,1
			c0.2,0.5,0.5,0.8,1,1c0.2,0.5,0.5,0.8,1,1c0.2,0.5,0.5,0.8,1,1c0.2,0.5,0.5,0.8,1,1c0.2,0.5,0.5,0.8,1,1c0.2,0.5,0.5,0.8,1,1
			c0.2,0.5,0.5,0.8,1,1c0.2,0.5,0.5,0.8,1,1c0.2,0.5,0.5,0.8,1,1c0.2,0.5,0.5,0.8,1,1c0.2,0.5,0.5,0.8,1,1c0.2,0.5,0.5,0.8,1,1
			c0.2,0.5,0.5,0.8,1,1c0.2,0.5,0.5,0.8,1,1c0.2,0.5,0.5,0.8,1,1c0.2,0.5,0.5,0.8,1,1c0.2,0.5,0.5,0.8,1,1c0.2,0.5,0.5,0.8,1,1
			c0.2,0.5,0.5,0.8,1,1c0.2,0.5,0.5,0.8,1,1c0.2,0.5,0.5,0.8,1,1c0.2,0.5,0.5,0.8,1,1c0.2,0.5,0.5,0.8,1,1c0.2,0.5,0.5,0.8,1,1
			c0.2,0.5,0.5,0.8,1,1c0.2,0.5,0.5,0.8,1,1c0.2,0.5,0.5,0.8,1,1c0.2,0.5,0.5,0.8,1,1c0.2,0.5,0.5,0.8,1,1c0.2,0.5,0.5,0.8,1,1
			c0.2,0.5,0.5,0.8,1,1c0.2,0.5,0.5,0.8,1,1c0.2,0.5,0.5,0.8,1,1c0.2,0.5,0.5,0.8,1,1c0.2,0.5,0.5,0.8,1,1c0.2,0.5,0.5,0.8,1,1
			c0.2,0.5,0.5,0.8,1,1c0.2,0.5,0.5,0.8,1,1c0.2,0.5,0.5,0.8,1,1c0.2,0.5,0.5,0.8,1,1c0.2,0.5,0.5,0.8,1,1c0.2,0.5,0.5,0.8,1,1
			c0.2,0.5,0.5,0.8,1,1c0.2,0.5,0.5,0.8,1,1c0.2,0.5,0.5,0.8,1,1c0.2,0.5,0.5,0.8,1,1c0.2,0.5,0.5,0.8,1,1c0.2,0.5,0.5,0.8,1,1
			c0.2,0.5,0.5,0.8,1,1c0.2,0.5,0.5,0.8,1,1c0.2,0.5,0.5,0.8,1,1c0.2,0.5,0.5,0.8,1,1c0.2,0.5,0.5,0.8,1,1c0.2,0.5,0.5,0.8,1,1
			c0.2,0.5,0.5,0.8,1,1c0.2,0.5,0.5,0.8,1,1c0.2,0.5,0.5,0.8,1,1c0.2,0.5,0.5,0.8,1,1c0.2,0.5,0.5,0.8,1,1c0.2,0.5,0.5,0.8,1,1
			c0.2,0.5,0.5,0.8,1,1c0.2,0.5,0.5,0.8,1,1c0.2,0.5,0.5,0.8,1,1c0.2,0.5,0.5,0.8,1,1c0.2,0.5,0.5,0.8,1,1c0.2,0.5,0.5,0.8,1,1
			c0.2,0.5,0.5,0.8,1,1c0.2,0.5,0.5,0.8,1,1c0.2,0.5,0.5,0.8,1,1c0.2,0.5,0.5,0.8,1,1c0.2,0.5,0.5,0.8,1,1c0.2,0.5,0.5,0.8,1,1
			c0.2,0.5,0.5,0.8,1,1c0.2,0.5,0.5,0.8,1,1c0.2,0.5,0.5,0.8,1,1c0.2,0.5,0.5,0.8,1,1c0.2,0.5,0.5,0.8,1,1c0.2,0.5,0.5,0.8,1,1
			c0.2,0.5,0.5,0.8,1,1c0.2,0.5,0.5,0.8,1,1c0.2,0.5,0.5,0.8,1,1c0.2,0.5,0.5,0.8,1,1c0.2,0.5,0.5,0.8,1,1c0.2,0.5,0.5,0.8,1,1
			c0.2,0.5,0.5,0.8,1,1c0.2,0.5,0.5,0.8,1,1c0.2,0.5,0.5,0.8,1,1c0.2,0.5,0.5,0.8,1,1c0.2,0.5,0.5,0.8,1,1c0.2,0.5,0.5,0.8,1,1
			c0.2,0.5,0.5,0.8,1,1c0.2,0.5,0.5,0.8,1,1c0.2,0.5,0.5,0.8,1,1c0.2,0.5,0.5,0.8,1,1c0.2,0.5,0.5,0.8,1,1c0.2,0.5,0.5,0.8,1,1
			c0.2,0.5,0.5,0.8,1,1c0.2,0.5,0.5,0.8,1,1c0.2,0.5,0.5,0.8,1,1c0.2,0.5,0.5,0.8,1,1c0.2,0.5,0.5,0.8,1,1c0.2,0.5,0.5,0.8,1,1
			c0.2,0.5,0.5,0.8,1,1c0.2,0.5,0.5,0.8,1,1c0.2,0.5,0.5,0.8,1,1c0.2,0.5,0.5,0.8,1,1c0.2,0.5,0.5,0.8,1,1c0.2,0.5,0.5,0.8,1,1
			c0.2,0.5,0.5,0.8,1,1c0.2,0.5,0.5,0.8,1,1c0.2,0.5,0.5,0.8,1,1c0.2,0.5,0.5,0.8,1,1c0.2,0.5,0.5,0.8,1,1c0.2,0.5,0.5,0.8,1,1
			c0.2,0.5,0.5,0.8,1,1c0.2,0.5,0.5,0.8,1,1c0.2,0.5,0.5,0.8,1,1c0.2,0.5,0.5,0.8,1,1c0.2,0.5,0.5,0.8,1,1c0.2,0.5,0.5,0.8,1,1
			c0.2,0.5,0.5,0.8,1,1c0.2,0.5,0.5,0.8,1,1c0.2,0.5,0.5,0.8,1,1c0.2,0.5,0.5,0.8,1,1c0.2,0.5,0.5,0.8,1,1c0.2,0.5,0.5,0.8,1,1
			c0.2,0.5,0.5,0.8,1,1c0.2,0.5,0.5,0.8,1,1c0.2,0.5,0.5,0.8,1,1c0.2,0.5,0.5,0.8,1,1c0.2,0.5,0.5,0.8,1,1c0.2,0.5,0.5,0.8,1,1
			c0.2,0.5,0.5,0.8,1,1c0.2,0.5,0.5,0.8,1,1c0.2,0.5,0.5,0.8,1,1c0.2,0.5,0.5,0.8,1,1c0.2,0.5,0.5,0.8,1,1c0.2,0.5,0.5,0.8,1,1
			c0.2,0.5,0.5,0.8,1,1c0.2,0.5,0.5,0.8,1,1c0.2,0.5,0.5,0.8,1,1c0.2,0.5,0.5,0.8,1,1c0.2,0.5,0.5,0.8,1,1c0.2,0.5,0.5,0.8,1,1
			c0.2,0.5,0.5,0.8,1,1c0.2,0.5,0.5,0.8,1,1c0.2,0.5,0.5,0.8,1,1c0.2,0.5,0.5,0.8,1,1c0.2,0.5,0.5,0.8,1,1c0.2,0.5,0.5,0.8,1,1
			c0.2,0.5,0.5,0.8,1,1c0.2,0.5,0.5,0.8,1,1c0.2,0.5,0.5,0.8,1,1c0.2,0.5,0.5,0.8,1,1c0.2,0.5,0.5,0.8,1,1c0.2,0.5,0.5,0.8,1,1
			c0.2,0.5,0.5,0.8,1,1c0.2,0.5,0.5,0.8,1,1c0.2,0.5,0.5,0.8,1,1c0.3,0.8,0.9,1.2,2.3,1.2c2.7,0.2,5.5,0.8,8.2,1.3
			c1.5,0.7,3.1,1.3,4.5,2.4c3.5,2.8,7.3,0.6,10.9,0.1c0.9,0.1,1.8,0.1,2.6,0.2c35.4,5.5,70.8,11.1,106.2,16.6
			c0.7,0.4,1.3,0.9,1.9,1.4c0.3,0.3,0.6,0.6,0.8,0.8c3.9,4.4,9.6,5.2,14.7,2.4c1-0.6,2.2-0.9,3.3-1.4c8,1.2,15.9,2.5,23.9,3.7
			c11.2,1.7,22.5,3.4,33.8,5.1c1.1,0.9,2.2,1.1,3.6,0.3c1.7-1,3.5-1.8,5.4-2.5c2.2-0.8,2.9-2.2,2.9-4.5c0-4.9,0.1-9.7,0.2-14.6
			c0.2,0.2,0.4,0.3,0.8,0.4c0,0.5,0.3,0.9,1,1c0,0.5,0.3,0.9,1,1c0,0.5,0.3,0.9,1,1c0,0.5,0.3,0.9,1,1c0,0.5,0.3,0.9,1,1
			c0,0.5,0.3,0.9,1,1c0,0.5,0.3,0.9,1,1c0,0.5,0.3,0.9,1,1c0,0.5,0.3,0.9,1,1c0,0.5,0.3,0.9,1,1c0,0.5,0.3,0.9,1,1
			c0,0.5,0.3,0.9,1,1c0,0.5,0.3,0.9,1,1c0,0.5,0.3,0.9,1,1c0,0.5,0.3,0.9,1,1c0,0.5,0.3,1,1,1c4,0.1,8.1,2.2,11.9-0.5
			c5.7-0.8,11.3-1.6,17-2.4c14.2-2.1,28.3-4.3,42.5-6.4c1.3,0.3,2.6,0.5,3.8,1c8.8,3.5,17.6,7,26.4,10.5c4.2,1.6,8.3,1.8,12.5-0.1
			c7.1-3.2,9.5-9.1,9.8-16.3c0.1-1.7,0.4-2.9,2.1-3.6c20.4-3.1,40.7-6.3,61.1-9.4c4.9,0.5,9.4,2.2,14.1,3.5
			c5.2,1.5,10.2,2.6,15.5,0.6c6.1-2.4,12.3-9.5,12.3-15.1c0.1-11.5,0-23,0.6-34.5c0.5-10.1,0-20.3,0.6-30.5
			c0.8-13.3-0.1-26.7,0.7-40.1c0.7-11.9,0.3-23.9,0.5-35.8c0.4-17.7,0.9-35.4,0.9-53.1C940,597.4,939.7,596.1,939.4,594.8z"/>
	</g>
</g>
<g>
	<path class="st2" d="M176,504.5c-2.7-0.5-5.4-1.1-8.2-1.3c-2.1-0.1-2.5-1-2.5-2.9c-0.4-17.8-0.8-35.6-1.2-53.5
		c-1.2-52.8-2.4-105.6-3.6-158.4c-0.1-4.8-0.2-9.5-0.5-14.3c-0.1-2,0.5-2.6,2.5-2.7c11.7-0.2,23.5-0.6,35.2-0.9
		c36.3-0.8,72.6-1.5,108.9-2.3c25.4-0.6,50.7-1.2,76.1-1.8c0.4,0,0.9,0.1,1.3,0.1c1.7,0.9,1.8,2.5,1.7,4c-1.4,16,0.2,32.1-1.2,48.1
		c-0.1,1.7-0.1,3.3-0.1,5c0.4,23.1-0.6,46.3-0.9,69.4c-0.2,13.2,0.2,26.4-0.6,39.5c-0.8,13.5,0.1,27-0.7,40.5
		c-0.7,12.7-0.2,25.5-0.6,38.2c-0.2,7.1-0.7,14.1-0.7,21.2c0,1.4,0.4,3.6-2.4,3.3c-11.3-1.7-22.5-3.4-33.8-5.1
		c-8-1.2-15.9-2.5-23.9-3.7c0-1.8,1.5-2.3,2.7-2.9c5.9-3.3,11.7-6.7,17.6-9.9c0.8-0.4,1.6-0.8,2.2-1.4c1.2-1.2,0.8-2.4,0-3.6
		c-0.7-1.2-1.7-0.7-2.6-0.2c-1.7,1-3.5,1.9-5.3,2.8c-2.7,1.4-3.6,0.9-3.7-2.1c-0.2-7-0.1-13.9,0-20.9c0-2.2-0.3-4.4,0.4-6.6
		c3-3.2,7.5-4.7,10.4-8.1c10.7-8.9,18.4-19.9,23.9-32.6c6.6-15.4,9.4-31.7,8.5-48.3c-1.9-32.3-13.9-59.9-38.8-81.2
		c-1.1-0.9-2.2-1.9-2.7-3.3c-0.7-6.5-0.3-13-0.3-19.5c0-2.3,1.2-3.4,3.5-3.5c2.9-0.1,5.8,0,8.6-0.1c1,0,2,0,2.7-0.9
		c0.6-0.9,1-2,0.6-3.1c-0.4-1.2-1.5-1.2-2.5-1.2c-10.4,0-20.8-0.4-31.2,0.1c-5.9,0.3-9.6,4.5-12.6,9.3c-0.7,1.2-1.1,2.7-2.2,3.7
		c-2.2,1.3-4.3,0.2-6.5,0c-20-2.3-38,2.8-53.8,15.2c-17.1,13.4-27.2,31.4-32.3,52.3c-1.7,8.4-3,16.7-2.9,25.3c0,1.4,0.1,2.9,0.4,4.3
		c0.6,8.2,0.2,16.5,0.2,24.7c0,2.9,0.8,4.9,3.7,5.5c0.3,0.2,0.6,0.5,0.8,0.8c0.2,1.5,1.7,3.1,0,4.6c-2.6,0.2-5.3,1.8-7.9-0.1
		c-0.7-1.2-0.6-2.6-0.6-3.9c-0.8-25.5-0.4-50.9-0.8-76.4c-0.3-17.3-0.5-34.5-0.5-51.8c0-1.1,0-2.2,0-3.3c0.2-4.1,0.9-4.8,4.9-5
		c1.1,0,2.2,0,3.3-0.1c1.7-0.1,2.3-1.1,2.3-2.6s-0.7-2.2-2.2-2.4c-1.5-0.1-3.1-0.1-4.6-0.1c-5.5,0-11.1,0-16.6,0
		c-6.3,0.1-10.4,3.3-12.8,8.9c-1.4,3.2-2.1,6.5-2.1,10c0.3,28.7,0.5,57.3,0.9,86c0.2,13.7,0.4,27.4,0.4,41.2
		c0.1,21.8,1.2,43.6,0.7,65.4c-0.1,3.6,1,7,2.4,10.3C177.2,502.7,178.6,504.4,176,504.5z"/>
	<path class="st2" d="M420.1,267.6c17.4,0.8,34.7,1.5,52.1,2.3c15.9,0.8,31.8,1.6,47.7,2.4c30.1,1.5,60.1,3,90.2,4.5
		c4.5,0.2,9.1,0.4,13.6,0.7c0.9,0.1,2.4-0.5,2.3,1.4c-0.7,0.7-1.6,0.6-2.5,0.6c-8.6-0.2-17.1,0-25.7-0.1c-4.9,0-5.5,0.2-5.4,4.7
		c0,0.8-0.2,1.5-0.6,2.2c-2.5,1.8-5.6,0.8-8.3,1.6c-9.7,0.9-19.5,1.4-29.3,1.7c-2.4-0.9-4.6-2.2-7-2.9c-6.3-1.8-12-0.3-17.4,3.1
		c-1.2-0.4-2.1-1.3-3-2c-4.6-3.8-9.9-4.9-15.8-4.2c-6.5,0.7-13,0.7-19.5,1.1c-7.5,0.4-15,0.4-22.5,1.3c-1.3,0.2-3.2-0.3-3.1,2
		c0.1,2.2,1.6,2.6,3.4,2.7c3.9,0.2,7.7-0.8,11.6-0.7c5.3,0.2,5.8,0.6,5.8,6c0,1.3,0.1,2.7-0.4,3.9c-0.6,1.2-1.7,1.6-2.8,2.1
		c-14.5,6.5-26,16.7-35.3,29.4c-13.6,18.5-20.7,39.4-22.8,62.2c-1.2,13.4-0.3,26.5,3.1,39.5c0.4,2.5,1.8,4.7,2.2,7.2
		c1.8,7.5,5.3,14.3,9.3,20.8c6.9,11.4,16.1,20.4,27.8,26.9c4.4,2.4,9.1,4,13.9,5.5c1.4,0.4,2.9,0.5,3.9,1.7c1,6,0.5,12.1,0.3,18.1
		c-0.1,2.6-2.1,2.4-3.9,1.8c-4.7-1.5-9.3-3.4-14.1-4.9c-0.8-0.3-1.7-0.8-2.6-0.4c-1.3,0.5-1.8,1.6-2.1,2.8c-0.3,1.4,0.9,1.6,1.8,2
		c3.7,1.4,7.4,2.8,11.1,4.4c1.2,0.5,2.9,0.7,2.9,2.6c-14.2,2.1-28.3,4.3-42.5,6.4c-5.7,0.8-11.3,1.6-17,2.4
		c-1.8,0.6-2.1-0.7-2.4-1.9c-0.3-1.4-0.2-2.9-0.2-4.3c0-37.7-0.6-75.5,0.1-113.2c0.9-45.9,0.1-91.9,0.5-137.8c0-1.3-0.1-2.7,0.3-4
		C418.1,268.1,418.6,267.1,420.1,267.6z"/>
	<path class="st3" d="M479,521.6c-4.6-3-9.9-4-14.8-6.4c-1-0.5-3.6-0.1-2.2-2.4c1.1-1.7,0.9-5.5,5-3.8c5.1,2.1,10.4,3.6,15.5,5.6
		c2.2,0.8,2.6,0.3,2.6-1.9c-0.1-5.8-0.1-11.7-0.1-17.5c-0.9-1.1-1-2.4-1-3.7c0-21.3-0.2-42.6,0.1-63.8c0.1-8.7-0.6-17.3,0.5-26
		c0.1-1.2,0.2-2.4,0-3.6c0.4-8.6,0-17.2,0.2-25.8c-0.1-8.7,0.1-17.3-0.2-26c0.3-7.7,0.1-15.5,0.1-23.2c0.1-6,0-12,0-17.9
		c0-1.7-0.1-3.3,1-4.8c0.4-9.6,0.4-9.6-9.1-9c-3.1,0.2-6.2,0.2-9.3,0.4c-1.4,0.1-2.1-0.3-2.3-1.9c-0.7-4.6-0.8-4.6,3.8-4.9
		c14.8-0.8,29.6-1.4,44.3-2.4c7-0.5,12.4,2.3,17.1,7c1.7,0.4,2.5,1.8,3.2,3.1c2.1,3.8,3.1,8,3.2,12.4c0.2,14.1-1,28.2-0.8,42.4
		c0,1,0,2.1,0,3.1c0.5,12.9-1,25.9-0.7,38.8c0.1,3.6,0.1,7.2,0,10.7c0.1,8.2-1.2,16.3-0.6,24.5c0.2,2.3-0.1,4.6,0,6.9
		c0.5,11.8-1,23.5-0.7,35.3c0.1,3.4,1,6.8,0.5,10.2c-1,4-0.3,8.2-0.5,12.2c-1,8-0.6,16-0.2,24c-1.6,0.7-2,1.8-2.1,3.6
		c-0.4,7.1-2.7,13.1-9.8,16.3c-4.2,1.9-8.4,1.7-12.5,0.1c-8.8-3.5-17.6-7-26.4-10.5C481.6,522.1,480.2,521.9,479,521.6z"/>
	<path class="st3" d="M333.2,481.8c0,10,0,20,0,30.4c2.7-1.5,5.3-3,7.9-4.3c0.9-0.5,2.4-2.3,3,0.1c0.5,1.8,3.8,3.7,0,5.7
		c-6.5,3.5-12.9,7.2-19.4,10.9c-1.3,0.7-2.9,1.2-3.8,2.5c-1.1,0.5-2.3,0.8-3.3,1.4c-5.1,2.8-10.7,2-14.7-2.4
		c-0.8-0.9-1.8-1.5-2.7-2.2c-1.8-3.8-2.4-7.6-1.9-11.9c0.7-6.4,0.1-12.8,0.3-19.2c-0.2-14.7-0.2-29.4,0-44.1c-0.1-6.7-0.1-13.3,0-20
		c-0.1-4.3,0-8.5,0-12.8c-0.1-9.9-0.1-19.8,0-29.7c0.2-3.4-0.2-6.8,0.1-10.2c-0.2-20.4,0-40.7-0.1-61.1c0-4.3,0-8.6-0.5-12.9
		c-0.3-3-0.7-6.2,1.6-8.9c1.5-3.1,2.7-6.3,5.3-8.7c3.5-3.4,7.4-5.6,12.6-5.4c9.8,0.3,19.7,0.1,29.5,0c2.4,0,3.2,0.4,3,3.1
		c-0.3,3.4-1.4,4.8-5,4.4c-2.7-0.4-5.5,0-8.3-0.1c-2-0.1-2.7,0.4-2.7,2.5c0.1,6.7,0,13.5,0,20.2c1.2,1.6,1,3.5,1.1,5.4
		c0.4,15.9-0.7,31.7-0.7,47.6c0.1,7.1,0.1,14.3,0,21.4c0.2,23.9,0.1,47.7,0,71.6c-1.1,7-0.4,14.1-0.6,21.2
		C333.9,478.1,333.9,480,333.2,481.8z"/>
	<path class="st2" d="M299.6,493.1c-0.1,7.1,0.5,14.3-0.4,21.4c-0.3,2.4,0.4,4.8,1.2,7.1c0.2,0.7,1.3,1.5-0.1,2.2
		c-35.4-5.5-70.8-11.1-106.2-16.6c-0.9-0.1-1.8-0.1-2.6-0.2c-0.2-1.9,1.4-2.3,2.7-2.8c4.3-2,8.8-3.7,13.1-5.6
		c1.1-0.5,2.2-0.9,3.3-1.6c0.9-0.5,1.7-1.3,1.3-2.4c-0.6-1.5-1.6-0.4-2.5-0.2c-0.2,0.1-0.4,0.2-0.6,0.3c-6.1,2.9-6.5,2.7-6.4-3.9
		c0.1-15.4-1.2-30.7-0.7-46.1c0.1-1.6-0.3-3.3,0.8-4.8c4.9,2.2,10.2,2.2,15.4,2.4c1.5,0.1,3.1-0.2,4.5,0.7c0.1,0.1,0.2,0.2,0.2,0.2
		c-2.6,2.6-0.6,4.6,0.8,6.7c1.6,2.5,3.3,5,5.3,7.1c0.3,0.3,0.6,0.7,0.8,1.1c0.2,1.3,1.3,1.8,2.1,2.6c10.3,12.1,22.7,21.4,37.7,26.9
		c8.1,3,16.4,4.5,25,4.7C296,492.3,297.9,491.8,299.6,493.1z"/>
	<path class="st3" d="M202.7,439.9c0,18.6,0,37.3,0,56.6c2.8-1.3,4.7-2.4,6.8-3.1c1-0.3,2.2-2.5,3.1-0.4c0.8,1.8,1.5,3.9-1.6,5
		c-5.8,2.2-11.4,4.7-17.1,7.2c-0.9,0.4-2.3,0.4-2.6,1.8c-3.6,0.5-7.4,2.7-10.9-0.1c-1.4-1.1-2.9-1.7-4.5-2.4
		c1.3-0.2,0.9-0.7,0.4-1.5c-2.4-3.8-3.1-7.9-3.1-12.4c-0.2-33.1-0.6-66.2-0.9-99.3c-0.2-19.8-0.4-39.6-0.6-59.4
		c-0.1-11-0.3-21.9-0.5-32.9c-0.1-3.7,0.6-7.3,2.1-10.6c2.8-6,7.2-9.6,14.3-9.4c7.2,0.2,14.4,0.1,21.6,0c1.8,0,3.2,0.2,2.6,2.5
		c-0.5,1.8,1.6,5-2.7,4.9c-2.6,0-6.2-1.3-7.6,0.6c-1.3,1.7-0.4,5.1-0.4,7.7c0.3,35.2,0.6,70.4,0.9,105.6c0.1,8.5,0.3,17,0.5,25.6
		C204.2,430.6,204.2,435.3,202.7,439.9z"/>
	<path class="st4" d="M420.1,267.6c-2,0.4-1.5,1.9-1.5,3.2c0,7.2,0,14.4,0,21.6c0,36.7,0.6,73.3-0.2,110
		c-0.8,41.4-0.1,82.8-0.5,124.2c0,1.4-0.9,3.3,1.4,3.8c-3.9,2.6-7.9,0.5-11.9,0.5c-1.5,0-0.8-1.8-0.9-2.8c0-12.5,0-25,0-37.6
		c0.1-30.1,0.1-60.3,0.2-90.4c0.1-43.5,0.3-87.1,0.3-130.6c0-2.8,0.8-3.5,3.4-3.1C413.7,267,417,266.5,420.1,267.6z"/>
	<path class="st3" d="M591.5,286.3c-0.4-8-0.4-8,7.7-8c7.2,0,14.4,0,21.6,0c1.8,0,3.5,0.1,5.2,0.6c6.6,3.5,11.5,8.4,13.4,15.9
		c0.3,1.3,0.6,2.6,0.6,3.9c0,17.7-0.5,35.4-0.9,53.1c-0.2,11.9,0.2,23.9-0.5,35.8c-0.8,13.4,0.1,26.8-0.7,40.1
		c-0.6,10.2,0,20.3-0.6,30.5c-0.6,11.5-0.5,23-0.6,34.5c-0.1,5.6-6.2,12.8-12.3,15.1c-5.3,2.1-10.3,0.9-15.5-0.6
		c-4.7-1.3-9.2-3-14.1-3.5c-9.3-1.4-18.2-4.6-27.3-7c-1.5-0.4-3.6-0.6-3.6-2.8c0-2.5,0.5-4.9,2.3-6.7c1-1,2.3-0.4,3.5-0.1
		c5.2,1.4,10.5,2.8,15.7,4.3c2.2,0.6,3.1,0.4,3.2-2.2c0.6-10.6,0.3-21.2,0.7-31.8c0.3-6.2,0-12.4,1.1-18.5c0.2-0.3,0.5-0.6,1-0.6
		c2.5,0.2,5.2-0.5,7.2,1.9c0.8,1.7,0.5,3.5,0.6,5.2c0.5,14.5-0.9,29-0.7,43.4c0.1,6.3,0,6.3,5.9,7.9c3.5,1,7.1,1.9,10.6,2.9
		c2.5,1,5,0.9,7.3-0.7c4-2.4,5.6-5.8,5.5-10.5c-0.2-18,1.1-36,0.6-54c-0.1-2.9,1.4-5.9-0.4-8.8c1.1-3,1.2-6,1.1-9.1
		c0-6.7-0.2-13.5,0.1-20.2c0.1-2-0.4-3.2-2.2-3.8c-0.4-0.3-0.5-0.9-0.1-1.1c3.7-1.3,2.9-4.3,2.7-7c0-0.4-0.1-0.9,0-1.3
		c0-0.9,0.2-1.8,0.1-2.7c-0.4-15.1,1.1-30.3,0.7-45.4c-0.3-11.2,1-22.3,0.7-33.5c-0.1-4.9-1.7-9-5.5-12.2c-2-1.6-4.4-1.9-6.9-1.9
		c-8.7-0.1-17.4,0.4-26.1-0.3C592.1,286.9,591.8,286.7,591.5,286.3z"/>
	<path class="st4" d="M378.7,535.7c1.6-0.2,1.4-1.4,1.4-2.5c-0.4-10.3,0.9-20.5,0.7-30.8c-0.3-20.8,0.5-41.6,0.9-62.3
		c0.2-13.5-0.3-27,0.6-40.4c0.8-13.2-0.2-26.3,0.7-39.4c0.9-13.4-0.2-26.8,0.7-40.1c0.8-13.3,0.1-26.5,0.6-39.8
		c0.1-3.4,0.7-6.8,0.6-10.2c0-1.2,0.1-2.4-0.7-3.5c2.7-0.2,5.3,0.1,7.9,0.3c2.4,0.2,2.8,1.3,2.7,3.4c-0.8,45.9-1.5,91.9-2.2,137.8
		c-0.4,25.5-0.8,50.9-1.2,76.4c-0.2,14.8-0.5,29.7-0.7,44.5c0,2.3-0.7,3.7-2.9,4.5c-1.9,0.7-3.7,1.5-5.4,2.5
		C380.9,536.8,379.8,536.6,378.7,535.7z"/>
	<path class="st2" d="M590.9,438.8c-0.3,9.9-0.5,19.9-0.8,29.8c-0.2,7.5-0.5,15-0.5,22.5c0,2.2-0.8,2.3-2.5,1.8
		c-5.8-1.7-11.7-3.1-17.5-5c-2.7-0.9-3.9-0.2-4.1,2.5c0,0.2-0.1,0.4-0.2,0.6c-1.3,2.8-0.8,4.1,2.6,4.8c8.2,1.9,16.2,4.3,24.3,6.6
		c0.9,0.3,2,0.2,2.6,1.1c-20.4,3.1-40.7,6.3-61.1,9.4c-0.8-0.1-1.5-0.3-1.4-1.4c0.4-7.5-0.3-15.1,0.6-22.6c0.8-1.4,0.4-3.2,1.7-4.4
		c5.7-3.8,11.1-8,15.9-12.9c6.5-6.6,12.1-14,16.8-22.1c3.1-5.3,5.6-10.8,7.9-16.4c0.5-1.2,0.7-2.6,2.2-3.1c0.8,0,1.5,0.4,2,0.9
		c2.9,3.1,6.4,5.4,10.5,6.7C590.4,438,590.7,438.3,590.9,438.8z"/>
	<path class="st5" d="M333.7,362.2c-0.3-17.7,1-35.4,0.5-53.1c20.6,16,33.2,37.1,38.8,62.3c6.5,29,3.3,56.9-12.1,82.8
		c-4.2,7-9.3,13.2-15.3,18.7c-0.8,0.7-1.5,1.7-2.7,1.7c-0.2,0-0.6,0-0.6-0.2c0-6-4.2-10.2-6.9-15c-0.8-1.5-1.3-3-1.9-4.5
		c0-23.8,0.1-47.7,0.1-71.5c0.9-1.2,2.3-1.6,3.7-2.1c8.5-3.3,17-6.9,25.5-10.3c5.8-2.4,6.9-5.1,4.4-10.9c-0.4-0.8-0.7-1.6-1.1-2.4
		c-1.8-4.1-4.9-5.5-9.2-3.9c-6.5,2.5-12.9,5.2-19.4,7.7C336.3,361.9,335.1,362.7,333.7,362.2z"/>
	<path class="st5" d="M299.6,293.1c-1,4.5-0.2,8.9-0.1,13.4c0.2,23.2,0.1,46.4,0.1,69.6c-1,0.8-2,0.6-3.1,0.2
		c-0.4-0.2-0.8-0.4-1.2-0.6c-6.7-3.8-6.7-3.8-6.7-11.5c0-19.9,0-39.8,0-59.7c0-1.4,0.1-2.9-0.1-4.3c-0.4-3.9-2.7-6-6.6-6
		s-6.1,2.1-6.5,6.1c-0.1,1.3-0.1,2.7-0.1,4c0,21,0,42,0,63.1c0,1.9,0.3,3.8-0.7,5.5c-2.2,1.5-4.7,1.1-7.1,0.6
		c-3.7-3.9-8.5-5.3-13.4-6.6c-7.9-2.2-15.8-4.3-23.6-6.8c-7.7-2.5-15.2-3.7-22.5,1.1c-0.6-0.1-1.1-0.3-0.8-1
		c2.8-13.4,8.5-25.6,16.7-36.5c12.4-16.4,28.5-27.3,49-30.9C281.8,291.1,290.8,291.4,299.6,293.1z"/>
	<path class="st6" d="M202.7,439.9c0-4.7,0-9.3-0.1-14c2.6-0.2,5.2-1,7.9-0.6c0.4-0.4,0.9-0.6,1.4-0.5c0.9,0.2,1.6,0.7,2.2,1.4
		c8.4,10.5,18.9,12.6,31.1,7.6c9.8-2.4,19.7-4.7,29.5-7.1c1.2-0.3,2.3-0.6,3.6-0.6c2,0.3,4,0.2,6,0.2c0.4,0,0.8,0,1.1,0
		c3.8-0.3,7.6,0.8,11.4,0.7c1.1,0,2.2,0.4,2.7,1.5c0,6.6,0,13.1,0,19.7c-2.3,2.7-5.3,3.3-8.6,3c-11.7-1-23.4-2.2-35.1-3.2
		c-6-0.8-12-1-18-1.8c-1.6-0.2-3.2-0.5-4.9-0.6c-3.5-0.4-7.3,0.6-10.4-1.9c-1-0.9-2.3-0.6-3.5-0.5c-4.4,0.4-8.7-0.9-13-0.7
		C204.2,442.6,203.4,441.4,202.7,439.9z"/>
	<path class="st7" d="M245.1,434.6c-11.4,5.6-24,2.5-31.4-7.6c-0.5-0.6-1-1.2-1.5-1.7c-1.5-0.7-1.7-2.2-2.3-3.5c0-0.2,0-0.3-0.1-0.5
		c0.4-1.2,0-2.4-0.4-3.5c-2.5-7.1-2.3-14.1,0.4-21.1c0.7-1.9,2.4-3.6,1.1-5.9c-0.4-1.2,0.2-2.2,0.8-3.1c4.6-6.9,10.6-11.8,18.9-13.4
		c2.7-0.7,5.4-0.6,8.1-0.3c22.2,3.6,30.9,32.2,17.6,51.2C253.5,429.4,250.2,433.1,245.1,434.6z"/>
	<path class="st5" d="M230.7,375.1c-9.1,1.9-15.3,7.6-19.7,15.5c-2.2,1.2-4.3,0.5-6.4-0.5c-0.2-0.4-0.6-0.7-0.6-1.1
		c-0.2-9.8,0.5-19.5,3.2-29c0.3,0.2,0.5,0.5,0.8,0.7c-0.1,5.4,3.5,7.3,7.9,8.6c4.1,1.2,8.3,2.3,12.4,3.6
		C229.3,373.4,230.9,373.3,230.7,375.1z"/>
	<path class="st8" d="M333.5,454.9c2.7,4.4,5.4,8.8,8.2,13.2c1.4,2.1,0.8,4.3,1.1,6.5c-2.5,3.4-6.2,5.1-9.7,7.2
		C333,472.8,332.7,463.9,333.5,454.9z"/>
	<path class="st9" d="M204.6,390.2c2.1,0.2,4.3,0.3,6.4,0.5c2.4,0,2,1.1,1.3,2.7c-2.4,4.9-4,10-3.7,15.6c0.2,3.7,0.8,7.2,2.4,10.5
		c0.6,1.4,0.6,2.1-1.1,1.9c-5.3-1.3-5.3-1.3-5.3-6.8C204.6,406.4,204.6,398.3,204.6,390.2z"/>
	<path class="st10" d="M209.9,421.8c1.3,0.8,1.7,2.2,2.3,3.5c-0.6,0-1.1,0-1.7,0C210.2,424.2,209,423.2,209.9,421.8z"/>
	<path class="st5" d="M485.6,371.9c0,7.8,0.1,15.7,0.1,23.5c0,0.8-0.4,1.7-0.6,2.5c-2.4,3.1-6.1,4.3-9.3,6.1
		c-13.9,8-27.8,15.9-41.8,23.7c-2.5,1.4-4.2,3.5-6.1,5.4c-2.3-4.5-2.6-9.5-3.1-14.4c-3.3-32.4,3.8-62.2,23.2-88.7
		c9.8-13.3,22.1-23.8,37.7-30c0,14.7,0.1,29.4,0.1,44.1c0,0.6-0.3,1.3-0.4,1.9c-1.3-0.1-1.8-1.1-2.5-2c-4.9-6.1-9.6-12.5-14.4-18.7
		c-3.8-5-10.3-4.4-13.2,1.3c-1.2,2.3-0.2,4.3,1.2,6.1c3.1,4,6.1,8.1,9.2,12.1c6.2,7.9,12.1,16,18.4,23.9
		C484.8,369.9,485.1,371,485.6,371.9z"/>
	<path class="st5" d="M485.1,427.3c0,22.6,0,45.2-0.1,67.8c-21.3-4.5-36.3-17.5-47.1-35.8c-3.5-5.9-6.6-12-8-18.8
		c2.1-0.1,2.3,1.7,3.1,3c4.2,7.3,4.9,7.6,12.4,3.7c11.9-6.1,23.6-12.5,35.5-18.7C482.1,427.8,483.4,426.7,485.1,427.3z"/>
	<path class="st11" d="M553.6,289c10-0.6,19.9-1.3,29.8-1.9c-0.1,2-1.8,2.3-3,3.1c-8.4,5.5-13.7,13-15.5,22.9
		c-1.5,8.2,1.4,14.9,6.6,21c1.6,1.8,3.8,3.1,4.7,5.5c0.3,2.7,0.8,5.5-0.5,8.1c-4.9,1.6-9.9,0.9-14.8,0.2c-1.2-0.2-2.4-0.4-3.5-0.8
		c-19-6.4-25.3-27-17.3-45c2-4.5,4.5-8.6,8.1-12C549.9,288.6,551.5,287.7,553.6,289z"/>
	<path class="st4" d="M485.1,427.3c-13.7,7.2-27.4,14.4-41.1,21.6c-5.5,2.9-7.7,2.1-10.7-3.2c-1-1.8-1.4-4-3.3-5.2
		c-0.3-2.5-2.3-4.6-2-7.3c0.6-2.7,2.5-4.3,4.8-5.6c17.5-9.9,35-19.8,52.4-29.7c1.1,2.7,0.1,5.4,0.1,8.1
		C485.3,413.2,485.2,420.2,485.1,427.3z"/>
	<path class="st12" d="M575.5,338.9c-5.6-4.5-10-10-11.3-17.3c-1.8-9.7,1.8-17.9,7.7-25.3c3.2-3.9,7.6-6.3,11.6-9.2
		c2.6-1,5.4-0.6,8.1-0.7c0.2,0,0.4,0.1,0.6,0.1c3.2,0.4,6.2,1.3,8.5,3.6c0.8,0.9,2.2,1.6,1.3,3.2c-1.8,0.8-3.7,1.1-5.6,1.2
		c-1.1,0-2.1,0.1-3.1,0.5c-10.5,3.4-15.6,10.5-16.2,21.6c-0.4,6.3-0.5,12.6-0.6,18.8C576.4,336.7,576.5,337.9,575.5,338.9z"/>
	<path class="st13" d="M553.6,289c-3.5-0.6-5.3,1.9-7,4.1c-8.2,10.7-11.6,22.5-7.1,35.6c2.9,8.5,9.1,14.1,17.4,17.5
		c-1,2.7-3.3,3.7-5.8,3.5c-4.4-0.4-8.8-0.5-13.2-0.6c-1.2,0-2.1-0.6-2.9-1.5c0.2-13.7,0.3-27.4,0.6-41.1c0.2-6.4-1.4-12-5.4-17
		c1.7-3.1,5-3.4,7.9-4C543.8,284.2,549,285.5,553.6,289z"/>
	<path class="st5" d="M577.4,430.5c-3.7,8.9-7.7,17.6-13.1,25.6c-7.9,11.7-17.5,21.6-29.4,29.2c-2.3-2.4-1.5-5.4-1.3-8.2
		c0.5-2.6-0.6-5-0.6-7.5c-0.3-12.9,0.8-25.7,0.8-38.6c0.8-1.1,2-1.4,3.2-1.4c11.9-0.1,23.8-0.8,35.6-1.4c1,0,2,0,3,0.2
		C576.6,428.8,577.6,429.1,577.4,430.5z"/>
	<path class="st5" d="M527,342.4c0,1.3,0,2.6-0.1,3.8c-0.9,0.7-1.2,2-2.4,2.5c-2.7,0.8-5.5,0.2-8.2-0.1c-3.2-0.4-3.9,0.3-3.4,3.4
		c0.7,4.3,0.3,8.6,0.9,12.9c0.3,2.3,0.8,3.8,3.5,3.7c1,0,2,0.3,2.8,1c0.6,3-1.1,6.1-3.8,6.5c-2.3,0.4-4.6,0.3-6.9,0.6
		c-1,0.1-2-0.3-2.6-1.1c-4.1-5.4-8.4-10.5-12.2-16.2c-0.4-0.5-0.3-1.3-0.7-1.8c0-20.2,0-40.3,0-60.5c0.7-0.8,1.6-1.2,2.6-1.4
		c7.2-1.5,14.4-2.3,21.8-1.3c1.3,0.2,2.7,0.2,3.7,1.3c0.3,2.7-1.1,4.5-3.2,5.9c-2.4,0.7-4.8,0.4-7.2,0.4c-2.1,0-3.3,0.7-3.3,3
		c0,8.8,0,17.6,0,26.4c0,2,0.8,3,2.9,3.1c2.9,0.2,5.7,0.6,8.5,0.9C522.2,337.5,524.5,340.1,527,342.4z"/>
	<path class="st4" d="M525.5,430.6c-0.5,20.6-0.2,41.2-1.1,61.8c-1.3,1.1-2.9,1-4.5,1.1c-1.2-0.3-2.4,0-3.7,0.3
		c-4.3-0.2-6.6-2-7.6-6.3c-1-4.4-1.2-9-1.8-13.4c-1.7-14.4-3.4-28.7-5-43.1c-0.1-1.2-0.5-2.4,0.2-3.6c0.6-0.8,1.5-0.9,2.4-0.8
		C511.5,427.8,518.6,428.6,525.5,430.6z"/>
	<path class="st14" d="M534.3,389.4c-0.3-13.1,0.6-26.2,0.7-39.2c2.7-1.8,5.8-0.8,8.7-0.9c4.2-0.1,8.3,0.5,12.5-0.1
		c1.3-0.2,2.7,0,3.8,0.7c1,0.9,1.1,2.2,1,3.4c-1.1,11.1-1.3,22.3-2.6,33.4c0.1,7.1-0.2,7.3-7.2,6.2c-4.3-0.7-8.6-1.5-13-2.1
		C536.9,390.5,535.5,390.4,534.3,389.4z"/>
	<path class="st5" d="M502.4,427.3c2.3,19.4,4.5,38.9,6.8,58.3c0.7,5.5,2.5,7.2,7.8,7.7c0.2,0.4,0.1,0.8-0.3,1
		c-7,2.7-14.3,3.5-21.8,3c-0.7,0-1.3-0.4-1.8-0.8c0-22.6,0-45.2,0-67.8c0-1-0.2-2,0.7-2.8C497,424.5,499.8,425.2,502.4,427.3z"/>
	<path class="st4" d="M526.2,391.4c0.3,8.2-0.2,16.4-0.5,24.6c-3.2,1.7-6.9,1.4-10.3,1.5c-5.2,0.2-10.3,0.9-15.5,0.9
		c-4.3,0-4.5,0.4-5.3,4.8c-0.1,0.8-0.3,1.5-0.9,2c-1.1-2.3-0.5-4.7-0.5-7.1c0-8.4,0.2-16.9,0.3-25.3c3.1-1.8,6.2-0.1,9.4-0.2
		c2.4-0.1,4.8,0.5,7.3,0.5c1.5,0,2.9,0.3,4,1.3c2.3,2.2,5.2,2.2,8,2.7c1.7,0.3,2.4-0.3,2.5-2.1C524.8,393.7,524.3,392.1,526.2,391.4
		z"/>
	<path class="st4" d="M485.6,371.9c-4.5-4.8-8.2-10.4-12.3-15.6c-5.9-7.6-11.7-15.2-17.5-22.9c-2.9-3.9-2.7-6.6,0.7-9.1
		c5.8-4.4,8.5-4.4,11.8-0.2c5.7,7.3,11.3,14.7,17,22.1c0.8,7.1,0.1,14.3,0.3,21.4C485.7,369.1,485.6,370.5,485.6,371.9z"/>
	<path class="st2" d="M493.1,496.4c8.1,0.4,15.9-0.7,23.7-2.8c0.8-0.7,1.7-1.3,2.8-0.6c1.5-0.8,3.2-0.6,4.8-0.6
		c0,6.2,0,12.4-0.1,18.6c0,1.4-0.1,2.9-1.4,3.9c-1.1,1.4-2.8,1.3-4.2,1.5c-5.8,0.9-11.5,1.7-17.3,2.7c-1.7,0.3-3.3,0.2-4.9-0.1
		c-2.4-0.1-3.5-1-3.4-3.7C493.2,509,493.1,502.7,493.1,496.4z"/>
	<path class="st6" d="M576.3,429.1c-12.6,0.5-25.3,1.1-37.9,1.6c-1.5,0.1-3.1,0.2-4.6,0.3c0-2.1,0-4.3,0-6.4
		c0.5-2.3,0.3-4.6,0.2-6.9s0.9-3.2,2.9-3.6c0.7-0.1,1.3-0.3,2-0.3c9-0.2,18-1.2,27-1.5c1.9,0,3.8-0.1,5.4,1c0.7,0.5,1.1,1.1,1.2,1.9
		c0.8,4.5,2.1,8.9,4,13C576.6,428.5,576.4,428.8,576.3,429.1z"/>
	<path class="st4" d="M493.8,357.6c4.3,5.6,8.7,11.1,12.9,16.7c1.1,1.4,2.1,2.2,3.8,1.5c0.6-0.2,1.3-0.4,1.9-0.3
		c4.6,1.1,6.5-1.8,7.9-5.4c0.9-0.1,1.2,0.5,1.3,1.2c1,5.4,1.5,10.8,0.6,16.3c-3.4,1.8-6.9,0.1-10.4,0c-5.1-0.2-10.3-1.1-15.4-1.2
		c-1,0-2-0.2-2.7-1c0.3-0.3,0.8-0.7,0.8-1C492.4,375.5,494.1,366.5,493.8,357.6z"/>
	<path class="st15" d="M534.3,389.4c6.7,0.3,13.2,1.8,19.7,2.9c3.4,0.5,3.8-0.6,3.5-3.2c-0.1-0.8,0-1.5,0-2.3
		c0.6-0.5,1.3-0.9,2.1-0.9c3.7,0,7.3-0.4,10.9-0.7c1-0.1,2,0.1,2.9,0.7c1.9,3.1,0.6,6-0.4,8.9c-5.5,1.8-11.1,0.8-16.7,1
		c-4.9-0.2-9.7,1.2-14.6,0c-0.4,0.1,0.2,0.6,0,0.2c10.3,0.3,20.4,2.6,30.5,4.6c1.1,2,0.4,3.8-0.5,5.7c-1.2,0.9-2.5,0.7-3.8,0.5
		c-9.9-1.7-19.8-3.3-29.8-4.8c-1.4-0.2-2.8-0.5-3.8-1.7C534.3,396.5,534.3,392.9,534.3,389.4z"/>
	<path class="st4" d="M534.3,400c12.4,2,24.8,4,37.2,6c1.6,2.6,1.6,5.3,0,7.9c-4-1-8-0.7-12.1-0.3c-4.6,0.5-9.2,0.7-13.8,1
		c-1.8,0.1-3.5,0-5.3,0c-5.9,0.1-6,0.2-6,6.1c0,1.3,0.4,2.7-0.5,3.8C533.4,416.4,534,408.2,534.3,400z"/>
	<path class="st16" d="M522.4,387.4c-1-1.5-0.7-3.2-0.7-4.8c-0.1-4.2,0-8.4-1.3-12.5c-0.2,0-0.5,0-0.6-0.1c-2-1.1-5.2,0.6-6.4-1.5
		c-1-1.8-0.6-4.3-0.8-6.5c-0.3-4-0.4-7.9-0.8-11.9c-0.2-2.2,0.7-2.7,2.7-2.5c3.5,0.3,7,0.9,10.6,0.6c0.9,0.5,1.2,1.4,1.9,2
		c0.3,12.5-0.6,24.9-0.7,37.4C524.9,388.4,523.6,388.4,522.4,387.4z"/>
	<path class="st15" d="M493.7,425.2c0-0.9,0.1-1.8,0.1-2.7c0-4.8,0-4.9,4.9-5.2c9-0.6,18-0.9,27-1.4c0,4.9-0.1,9.8-0.1,14.6
		c-5.6,0.3-10.9-1.7-16.4-2.3c-2.3-0.2-4.5-0.7-6.8-1c-2.9-0.5-5.7-1-8.6-1.5C493.8,425.6,493.7,425.4,493.7,425.2z"/>
	<path class="st15" d="M522.4,387.4c1.3,0,2.5,0.1,3.8,0.1c0,1.3,0,2.6,0,3.9c-0.6,0.6-0.5,1.4-0.5,2.2c-0.2,5.3-0.2,5.4-5.4,4.3
		c-2.4-0.6-5.4-0.1-6.9-3c-0.2-0.4-1.1-0.7-1.7-0.7c-6-0.5-12-0.8-18.1-1.3c-0.9-2.5,0.4-5,0.3-7.5
		C503.4,385.2,512.8,387.2,522.4,387.4z"/>
	<path class="st17" d="M496.4,519c8.8-1.7,17.6-3,26.5-4.1c1.8,3.1,0.4,5.9-1.2,8.3c-1.7,2.5-4.7,4.1-7.5,3
		C508.1,524,502,522.2,496.4,519z"/>
	<path class="st18" d="M521.9,296.2c-8.5-2.2-16.9-1.2-25.2,0.4c-1,0.2-2,0.3-2.9,0.5c-0.1-5.5-0.1-5.6,5.5-5.9
		c5-0.3,10-0.4,14.9-0.8c3.8-0.3,6.9,1.1,9.4,4C523.5,295.4,523.2,296.3,521.9,296.2z"/>
	<path class="st19" d="M521.9,296.2c0.5-0.6,1.1-1.2,1.6-1.8c3.1,2.8,4.1,6.4,4.1,10.5c-0.2,12.5-0.4,25-0.7,37.5
		c-2.8-1.4-5.5-2.9-6.7-6.1c4.1-0.9,4.5-3.8,4.4-7.4c-0.2-7.3-0.1-14.5,0-21.8c0-2.6-0.3-4.6-3.6-4.6c-0.9,0-2.1-0.2-2.1-1.5
		C519.9,299.4,520.9,297.8,521.9,296.2z"/>
	<path class="st20" d="M560.3,350.2c-8.4,0-16.8-0.1-25.3-0.1c0-0.9,0-1.7,0-2.6c5.5,1.1,11.2,0.5,16.7,1.2c2.2,0.3,3.5-1.7,5.1-2.6
		c6.1,1.5,12.4,1.6,18.6,1.2c1.5,1,1.6,2.6,1.7,4.1c0.1,5.2,0.1,10.3,0,15.5c0,1.3,0.1,2.7-1.6,3.3c-1.3-1.2-1.1-2.8-1.1-4.3
		c-0.1-3.9-0.1-7.7,0-11.6c0-2.2-0.9-3.2-3.2-3.1c-2.4,0.1-4.8,0-7.3,0C562.7,351.2,561.4,351.2,560.3,350.2z"/>
	<path class="st21" d="M533.6,477.2c0.3,2.8,0.1,5.6,1.3,8.2c-0.7,1.3-1.3,2.5-2,3.8C533,485.1,532.1,481.1,533.6,477.2z"/>
	<path class="st22" d="M526.8,350.1c-1.6,0.3-1.9-0.7-1.9-2c-0.1-1.4,0.4-2.2,2-1.9C526.9,347.5,526.9,348.8,526.8,350.1z"/>
	<path class="st11" d="M245.1,434.6c9.2-5.5,14.6-13.7,16.3-24.1c2.2-13.9-3.9-29.4-18.9-34.7c-1.1-0.4-2.5,0.2-3.4-1
		c0.7-1.5,2.1-1.6,3.4-1.6c7.5,0.1,15-0.9,22.5-0.9c0.8,0,1.5,0.1,2.2,0.5c2.4,0,4.7-0.1,7.1-0.1c10-3,12.4-1.5,20.3,5.8
		c2.2,2,4.3,4.5,4.9,7.7c0,10,0,19.9,0,29.9c-1.6,4.7-4.6,8-9.7,9c-1.7,0.3-3.4,0.9-5.1,1.3c-1,0.3-1.9,0.4-2.9,0.4
		c-1.1-0.1-2.2,0.7-3.4,0.1C267.3,429.3,256.2,431.9,245.1,434.6z"/>
	<path class="st5" d="M255.7,447.2c11.3,1,22.7,1.7,34,3.1c3.7,0.4,6.6-1,9.9-2c0,14.9,0,29.9,0.1,44.8
		c-28.5,0.8-51.1-11.1-69.2-32.4c-0.2-0.6,0.1-0.9,0.6-1.2c1.7-0.6,3.3,0.2,4.8,0.8c3.8,1.4,6.9,0.5,9.7-2.3c2.4-2.3,4.4-5,6.5-7.5
		C253.1,449.1,254,447.8,255.7,447.2z"/>
	<path class="st5" d="M307.6,372.7c0-22,0-44,0-66c0-3.9-1.6-7.8,0.1-11.8c2.6-0.6,4.7,0.9,6.9,1.8c4,1.8,8.3,3.2,11.6,6.3
		c0.3,20.8-0.3,41.6-0.6,62.4c-0.5,0.9-1.3,1.4-2.3,1.8c-4.3,1.7-8.6,3.4-12.8,5.2C309.6,372.9,308.6,373.3,307.6,372.7z"/>
	<path class="st4" d="M299.5,386.1c-2.9-3.9-5.7-7.8-9.6-10.8c-3.6-2.8-7.3-3.8-11.7-2.9c-1.3,0.3-2.6,0.1-3.9,0.2
		c0-23.9,0-47.8,0.1-71.8c0-6.1,4.8-9.5,10.6-7.5c3.2,1.1,4.7,3.4,4.7,7.5c0,22.5,0.1,45-0.1,67.4c0,2.5,0.5,4,3,4.6
		c2.6,0.6,3.9,3.7,7,3.3C299.6,379.4,299.5,382.8,299.5,386.1z"/>
	<path class="st4" d="M333.7,362.2c7.8-3.2,15.5-6.4,23.3-9.5c4.1-1.6,7.8,0,9.6,4c0.8,1.7,1.5,3.4,2.2,5.2c1.3,3.6,0.2,7.2-3.3,8.7
		c-10.6,4.4-21.1,9-32,12.8C333.6,376.3,333.7,369.3,333.7,362.2z"/>
	<path class="st5" d="M307.7,412.8c0-6.3,0-12.5,0-18.8c3.2-2.9,7.5-3.6,11.3-5.2c2-0.9,4-2.5,6.5-1.7c0,14.5,0,29.1,0,43.6
		c-2.3,1.5-4.5,0.2-6.7-0.1c-1.9-0.8-2.5-2.8-3.4-4.3C312.6,421.9,309.5,417.7,307.7,412.8z"/>
	<path class="st2" d="M324.9,486.8c0,8.7-0.1,17.4,0,26.2c0,1.7-0.6,2.6-2,3.4c-2.9,1.5-5.8,3.2-8.7,4.8c-2.6,1.4-4.5,0.9-6-1.7
		c-0.7-1.3-1.3-2.7-1.1-4.1c1-7.8,0.1-15.7,0.6-23.5c0.7-1,1.8-1.2,2.8-1.4c3.8-0.9,7.6-2,11.3-3.4
		C322.8,486.6,323.8,486.2,324.9,486.8z"/>
	<path class="st4" d="M323.6,438.7c1.4,1.7,1.9,3.6,1.8,5.8c-0.2,12.4-0.4,24.9-0.6,37.3c-1.2,0.4-1.9-0.4-2.5-1.2
		c-4.9-6.5-9.5-13.1-13.9-19.8c-0.3-0.4-0.5-1-0.4-1.6c-0.9-4.9-0.3-9.7-0.4-14.6c4.5-3.1,9.7-4.6,14.8-6.4
		C322.9,438,323.3,438.3,323.6,438.7z"/>
	<path class="st4" d="M325.5,387.1c-5.9,2.3-11.9,4.6-17.8,6.9c0-7.1,0-14.2,0-21.3c6-2.4,11.9-4.8,17.9-7.2
		C325.5,372.7,325.5,379.9,325.5,387.1z"/>
	<path class="st5" d="M308.1,459.2c4.6,6.5,9.3,13.1,13.9,19.6c0.8,1.2,1.6,2.4,3,3c0,1.7,0,3.3,0,5c-5.7,2-11.2,4.3-17.3,5.1
		c0-10.2,0-20.3-0.1-30.5C307.6,460.6,307.5,459.8,308.1,459.2z"/>
	<path class="st15" d="M323.6,438.7c-5.5,1.3-10.4,4.5-15.9,5.9c0-5.1,0-10.2,0-15.3c3.7-2,7.1-0.7,10.6,0.6
		c2.4,0.3,4.8,0.5,7.1,0.8C324.9,433.4,326.8,436.6,323.6,438.7z"/>
	<path class="st2" d="M326.2,303.1c-6.1-2.8-12.1-6-18.5-8.1c2.7-6.5,5.1-8,12.7-8c5.9,0,5.9,0,5.9,5.8
		C326.2,296.3,326.2,299.7,326.2,303.1z"/>
	<path class="st4" d="M318.3,429.9c-3.6,0.2-7-1.1-10.6-0.6c0-5.5,0-11,0-16.5C311.6,418.3,314.8,424.2,318.3,429.9z"/>
	<path class="st23" d="M284.4,425.4c6.5-0.7,11.8-3.4,15.1-9.4c0,4.2,0,8.4,0,12.6c-4.8-1-9.7-1.1-14.6-1.4
		C284.5,426.7,284,426.2,284.4,425.4z"/>
	<path class="st4" d="M255.7,447.2c-2.4,3-4.9,6-7.3,8.9c-4.7,5.7-7.5,6.5-14.6,4.3c-0.8-0.3-1.7-0.5-2.5-0.7
		c-0.8-0.3-1.9-0.2-2.1-1.5c-0.1-0.2-0.2-0.3-0.4-0.4c-1.8-2-0.9-3.9,0.2-5.7c1.5-2.4,3.1-4.8,4.1-7.5c6.5,0.8,13,1.7,19.5,1.9
		C253.6,446.6,254.7,446.6,255.7,447.2z"/>
	<path class="st24" d="M233,444.7c1.6,1.2,0.1,2-0.3,3c-1.7,3.3-5.1,5.9-4,10.3c-4.4-3.7-6.8-8.9-9.7-13.6c1.3-0.8,2.4-0.2,3.5-0.5
		C226,444.1,229.5,444.4,233,444.7z"/>
	<path class="st25" d="M229.1,458.3c0.7,0.5,1.4,1,2.1,1.5c-0.3,0.3-0.6,0.6-0.8,0.8C229.8,460,228.4,459.7,229.1,458.3z"/>
	<path class="st2" d="M180.8,422c-0.3-27.6-0.6-55.1-0.9-82.7c-0.2-13.4-0.3-26.8-0.5-40.2c0-2,0.2-4,0.8-5.9
		c1.7-5.5,6.7-8,12.1-6.2c1.7,0.6,1,2,1,3.1c0.1,12.6,0.2,25.2,0.3,37.9c0.2,24.1,0.4,48.3,0.7,72.4c0.2,11.8,0.4,23.7,0.3,35.5
		c-2.1-0.8-1.3-2.7-1.5-4.2c-0.3-3.2-0.6-3.6-3.8-3.3c-2.5,0.3-5,1.1-7.5,0.6C180.4,426.8,181.4,424.3,180.8,422z"/>
	<path class="st2" d="M180.8,422c0.6,2.2,1.1,4.3,0.6,6.6c1.6,2.2,1,4.7,0.9,7c-0.2,3,1,3.9,3.7,3.9c2.9,0.1,6-0.1,8.6,1.7
		c0.2,17.6,0.5,35.2,0.7,52.8c0,0.9,0.2,1.9-0.8,2.3c-2.9,1.3-5.9,2.5-8.9,3.7c-1,0.4-1.6-0.5-2.2-1.1c-1.4-1.7-2-3.7-2-5.9
		C181.1,469.3,181,445.7,180.8,422z"/>
	<path class="st15" d="M194.5,441.2c-3.6-0.4-7.2-1-10.8-1c-2.6,0-2.5-1.3-2.4-3c0.1-2.9,0-5.7,0-8.6c3.4-0.4,6.7-0.9,10.1-1.3
		c1.8-0.2,2.5,0.5,2.6,2.4c0,2-0.6,4.2,0.5,6.2C194.5,437.7,194.5,439.5,194.5,441.2z"/>
	<path class="st2" d="M615.4,500.5c-5.3-1.4-10.6-2.9-16-4.1c-2.2-0.5-2-1.9-2-3.5c0.2-15,0.4-30,0.6-45c0-2.6,0-5.3,0-7.9
		c0.5-0.7,1.3-0.8,2.1-0.8c8.7-0.2,14.8-4.9,19.6-11.6c0.7-1,1.3-2.3,2.8-2.6c0.7,0,1.1,0.3,1.4,0.9c0.5,1.4,0.4,2.8,0.2,4.3
		c-0.3,1.8-0.4,3.5-0.3,5.3c0.4,19.1-1.1,38.2-0.7,57.2c0,1.1,0,2.2-0.2,3.3C621.6,500.5,621,500.9,615.4,500.5z"/>
	<path class="st12" d="M622.1,425.3c-5.4,9.2-12.7,15.2-24,14.6c-2.1-1-4.6-0.1-6.7-1.3c-12.6-6.7-19.4-20.9-17.2-35.7
		c0.7-5,2.1-9.7,4.5-14.1c0.7-1.1,1.5-2.2,2.2-3.2c1.3-1.6,2.4-3.4,3.9-4.9c3.3-2.6,6.6-5,10.8-6.1c4.3-1.1,8.5-0.9,12.6,0.5
		c1.3,0.4,2.5,1,3.6-0.3c0.4-0.3,1-0.2,1.1,0.2c0.8,3.4,3.9,4.9,6.2,7.1c0.5,0.5,0.9,1,1.1,1.6c1.8,2.8,3.5,5.6,4.7,8.8
		c3.1,7.8,3.6,15.9,1.5,24C625.1,419.5,625.1,423.1,622.1,425.3z"/>
	<path class="st26" d="M579.5,388.7c-5.1,10.4-6.4,21.2-2.5,32.3c2.5,7.1,6.6,13.2,13.7,16.6c0.4,0.2,1.3,0.2,0.6,1.1
		c-0.2,0-0.3,0-0.5,0.1c-5.6-0.9-9.6-4.5-13.5-8.2c-0.4-0.5-0.7-0.9-1.1-1.4c-2.9-4.6-4-9.8-4.8-15.2c0-2.6,0-5.3,0-7.9
		c0.2-1.8,0.4-3.6,0.6-5.4c-0.2-0.3-0.4-0.6-0.5-1c-0.3-1.9-0.3-3.7,1.2-5.1c0.3-2.8,0.6-5.7,0.8-8.5c-0.4-5.5,0.1-10.8,2.1-16
		c1-7.6,1.1-15.2-0.1-22.8c0-2.8,0-5.7,0-8.5c0.2-8.1,0-16.1,0.6-24.2c0.7-10,7.7-18.6,17.3-20.4c0.7-0.2,0.9,0.3,0.8,0.9
		c-0.4,0.9-1.2,1.3-1.8,1.9c-10.7,8.5-10.9,26-4.3,35.3c2.1,3,4.7,5.5,8.3,6.8c1.2,0.4,2.7,0.7,2.3,2.6c-4,1.7-7.3-0.4-10.6-2.1
		c-1.7-0.8-3.1-2.1-4.4-3.7c-0.6,2.7-0.8,5.2-0.7,7.7c0,1.1,0,2.2,0,3.2c0.1,1.1,0,2.3,0,3.4c0.4,3.5-0.5,6.9-0.6,10.4
		c-0.1,1-0.1,1.9-0.1,2.9c-0.1,7.3-0.9,14.5-1.9,21.7C580.2,386.5,580,387.6,579.5,388.7z"/>
	<path class="st2" d="M619.4,384.1c-0.2-0.4-0.3-0.9-0.5-1.3c-1.8-2-1.4-4.7-1.5-7c-0.4-7.7-1.9-15.4-0.4-23.2
		c0.1-0.7,0.2-1.3,0.5-1.9c0.5-1,1.4-1.2,2.4-1.4c0.6-0.2,1.4-0.2,1.5-1c0.1-1.1-0.9-1-1.6-1.2c-0.8-0.2-1.7-0.4-2.2-1.3
		c-0.6-5.2,0.5-10.3,0.2-15.5c-0.1-1.5,0-3.1,0-4.6c0.2-4.6,1.2-9.1,0.3-13.8c-1.7-8.5-5.6-15-14.3-17.7c-0.6-0.2-1.2-0.5-1.6-1.1
		c-2.4-3.6-6.3-5-10-6.5c9.7,0,19.4,0,29-0.1c1.9,0,3.3,1,4.7,2c1.2,1.4,1.3,3,1,4.7c-0.6,4-0.5,7.9-0.5,11.9
		c0.3,17.8-0.8,35.5-0.8,53.3c0,7.4-0.4,14.8-0.5,22.2c0,1.2,0,2.4-0.7,3.5C622.7,385.4,621.1,385,619.4,384.1z"/>
	<path class="st17" d="M624.2,384c0-5.1-0.1-10.2,0-15.3c0.5-26.8,1.1-53.6,1.7-80.4c4,3,6.1,6.9,6.1,11.9
		c-0.1,17.6-0.6,35.2-0.9,52.7c-0.2,9.2-0.2,18.3-0.5,27.5c0,1.1,0.3,2.3-0.8,3.1C628.1,384.9,626.2,385.5,624.2,384z"/>
	<path class="st17" d="M622,496.2c0.2-23.6,0.4-47.3,1.5-70.9c1.5-1.2,2.9-1.1,4.5-0.1c1.7,0,2.3,0.9,2.1,2.6
		c-1.3,12.9,0,25.8-0.8,38.7c-0.5,7.9-0.3,15.9-0.5,23.8c-0.1,4.9-2,7.6-6.6,9.5C621.5,498.5,621.7,497.4,622,496.2z"/>
	<path class="st27" d="M625.5,416.5c2.2-8.3,1.3-16.4-1.4-24.5c0.8-0.7,1.7-0.8,2.5-0.1c3.1-0.2,4.1,0.5,3.7,4.2
		c-0.7,6.8-0.2,13.7-0.3,20.6C628.4,417.8,626.9,417.9,625.5,416.5z"/>
	<path class="st28" d="M626.6,392c-0.8,0-1.7,0.1-2.5,0.1c-1.5-2.7-3.1-5.3-4.6-8c1.6,0,3.2,0,4.8-0.1c1.9-0.2,3.8-0.3,5.7-0.5
		c1.4,2.2,0.7,4.5,0.5,6.8C630.2,392.5,627.7,390.9,626.6,392z"/>
	<path class="st29" d="M625.5,416.5c1.5,0.1,3,0.1,4.5,0.2c0,1.8-0.2,3.7,0,5.5c0.1,1.7-0.5,2.6-2.1,3c-1.5,0-3,0.1-4.5,0.1
		c-0.4,0-0.9,0-1.3,0C623.6,422.5,624.6,419.5,625.5,416.5z"/>
	<path class="st30" d="M622,496.2c0,1.2,0.1,2.3,0.1,3.5c-2,2-4.3,1.8-6.6,0.9c0.9-0.1,1.7-0.4,2.6-0.4
		C620.8,500.2,621.9,498.8,622,496.2z"/>
	<path class="st4" d="M267.3,372.7c-7.8,1-15.7,1.2-23.6,1.4c-1.5,0-3.1-0.2-4.5,0.6c-2.8,0.1-5.7-0.3-8.5,0.4
		c-3.3-2.2-7.2-2.4-10.8-3.7c-3.1-1.1-6.5-1.6-9.3-3.4c-3.1-2-3.7-3.8-2.5-7.2c4.2-4.1,9.5-5,14.8-3.6c12.9,3.3,25.7,7.1,38.5,10.8
		C263.8,368.7,266.2,369.9,267.3,372.7z"/>
	<path class="st31" d="M278.4,426.7c1.1-0.2,2.2-0.4,3.3-0.6c0.7,0.8,2.4-0.7,2.6,1.1C282.4,427.2,280.3,427.8,278.4,426.7z"/>
	<path class="st24" d="M284.3,427.2c-0.9-0.4-1.7-0.7-2.6-1.1c0.9-0.2,1.8-0.5,2.7-0.7c0.4,0.6,0.7,1.1,0.5,1.9
		C284.7,427.3,284.5,427.2,284.3,427.2z"/>
	<path class="st32" d="M219.8,390c7.4-10.6,21.1-11.4,29.4-1.7c0.8,0.9,1.8,1.7,1.3,3.2c0.1,2-1.1,2.7-2.8,3c-1.2-0.2-2-1-2.7-1.8
		c-2.2-2.5-5-4-8.1-4.8c-1.2-0.3-2.8-0.4-2.6-2.4c0,1.5-1,2-2.2,2.2c-3,0.6-5.6,1.9-8,3.8c-0.8,0.6-1.7,1.1-2.7,0.5
		C220.5,391.5,219.9,390.9,219.8,390z"/>
	<path class="st33" d="M247.7,423.3c-5.9,9.4-21.9,9.8-27.7,0c0.2-0.9,0.7-1.5,1.6-1.7c3.8,2.2,7.5,4.3,11.6,5.8
		c0.4,0.2,0.2,0.9,0.2,1.1c-0.1-0.8,0.3-1.7,1.5-1.9c3.5-0.7,6.6-2.3,9.4-4.4c0.5-0.4,1.2-0.5,1.9-0.1
		C246.9,422.3,247.4,422.6,247.7,423.3z"/>
	<path class="st34" d="M247.9,394c1-0.7,1.9-1.5,2.5-2.6c3.2,1.6,3.2,4.9,3.9,7.7c0.8,2.8,1.1,5.8,0.7,8.8c-0.9,1.9-2.4,1.8-4,1
		c-1.2-1.4-0.6-3.1-0.9-4.7c-0.4-2.4-1-4.7-2-6.9C247.6,396.3,246.7,395.2,247.9,394z"/>
	<path class="st35" d="M247.7,423.3c-0.4-0.1-0.8-0.2-1.2-0.4c-0.4-0.9-1-1.9-0.4-2.8c2.2-3.4,2.9-7.5,4.9-10.9
		c1.3-0.4,2.5-0.2,3.5,0.8C253.5,415.1,252.2,420,247.7,423.3z"/>
	<path class="st36" d="M221.1,422.1c-0.4,0.4-0.8,0.7-1.1,1.1c-5.1-4.7-6-10.8-6-17.3c0.5-1.1,1.2-1.2,2.2-0.7
		c0.2,0.2,0.6,0.4,0.6,0.8c0.6,5.3,2.2,10.2,4.7,14.9C221.7,421.3,221.5,421.8,221.1,422.1z"/>
	<path class="st35" d="M215.9,405.4c-0.6,0.2-1.2,0.4-1.8,0.6c0.3-5.9,1.7-11.4,5.7-16c0.5,0.4,0.9,0.8,1.4,1.2
		c0.5,0.8,0.9,1.7,0.5,2.5c-2,3.5-3.2,7.4-4.6,11.1C216.8,405.3,216.4,405.4,215.9,405.4z"/>
	<path class="st37" d="M254.4,410c-1.1-0.2-2.2-0.4-3.3-0.6c-0.2-0.3-0.2-0.6,0-0.8c1.3,0,2.8,0.7,3.8-0.7
		C255.2,408.7,254.7,409.3,254.4,410z"/>
	<path class="st38" d="M602.2,293c8.6,1,14.7,8.8,16.6,17.2c1.1,5,0.6,9.8-0.1,14.8c-0.4,3.5-1.7,6.7-4,9.5c-0.9,1.2-1,2.6-1.1,4
		c-0.1,1.2,0.3,2.7-1.5,3.2c-1.3-1.2-0.6-2.9-0.9-4.1c-2.3,2.7-5.6,3.5-8.9,4.1c-1.2-0.1-2.4,0.7-3.5-0.2c-0.3-0.3-0.5-0.9-0.8-1
		c-9.4-3-13.5-10.3-14.8-19.4c-1.3-9.3,0.8-17.8,8.2-24.4c0.8-0.7,1.8-1.2,2.7-1.8c0.4-0.9,1.4-0.8,2-1.3
		C598.1,293.4,600.1,293.2,602.2,293z"/>
	<path class="st39" d="M596.1,293.7c-0.5,0.8-1.3,1-2,1.3c-0.2-0.2-0.4-0.5-0.6-0.7C594.2,293.4,595.2,293.7,596.1,293.7z"/>
	<path class="st12" d="M518.9,301c0.5,0.2,1,0.6,1.5,0.6c5.2,0.5,5.2,0.5,5.2,5.7c0,7.8,0,15.6,0,23.5c0,5.5,0,5.5-5.3,5.5
		c-3.7-0.2-7.5-0.4-11.2-0.5c-1.6,0-2.1-0.6-2.1-2.1c0.1-10.1,0.1-20.3,0-30.4c0-1.9,0.7-2.2,2.4-2.1
		C512.5,301.1,515.7,301,518.9,301z"/>
	<path class="st40" d="M519.6,493.1c-0.9,0.2-1.9,0.4-2.8,0.6c0-0.1,0.1-0.3,0.1-0.4C517.8,492.2,518.7,492.1,519.6,493.1z"/>
	<path class="st5" d="M575.6,370.1c-0.5,5.4-0.8,10.7-2.1,16c-5.3,0.2-10.7,0.4-16,0.6c0.9-12.2,1.8-24.3,2.7-36.5
		c4.3,0,8.6,0,12.9-0.1c1.9-0.1,2.5,0.5,2.5,2.4C575.6,358.4,575.6,364.3,575.6,370.1z"/>
	<path class="st41" d="M552.7,382.1c0.1-1.3,0.2-2.8,1.9-2.7c1.4,0.1,1.7,1.3,1.7,2.4c0,1.3-0.3,2.7-1.7,2.8
		C552.9,384.7,552.8,383.2,552.7,382.1z"/>
	<path class="st42" d="M572.7,394.6c-0.2,1.9-0.4,3.7-0.7,5.6c-6.9-0.4-13.5-1.9-20.4-4c1.8-1.8,3.5-0.6,4.8-1.4
		C561.8,394.7,567.3,394.7,572.7,394.6z"/>
	<path class="st43" d="M556.4,394.8c-1.3,0.3-2.5,0.5-4.5,0.9c7.2,1.5,13.6,3.6,20.2,4.5c0.1,0.2,0.1,0.3,0,0.5
		c-7-0.2-13.7-2.1-20.5-3c-3.5-0.5-7.1-1.1-10.6-2C546.2,396,551.2,394.3,556.4,394.8z"/>
	<path class="st44" d="M519.9,354.2c-1.3-0.4-1.6-1.3-1.5-2.3c0.1-0.9,0.6-1.8,1.6-1.6c1,0.2,1.2,1.2,1.1,2.1
		C521.1,353.3,520.8,354.1,519.9,354.2z"/>
	<path class="st2" d="M581.6,360.8c0.2-3.5,0.4-7.1,0.6-10.6c1-1,2.4-1.1,3.7-1.1c7.6,0,15.2-0.1,22.8,0c1.2,0,2.4,0.1,3.5,0.9
		c1.6,8.3,1.6,16.5,0,24.8c-0.4,0.9,0.6,3.2-2,2c-8.6-3.8-16.5-2.4-23.6,3.6c-0.5,0.4-1.1,0.7-1.7,1c-1.9-2.7-1.4-5.8-1.9-8.8
		c-0.4-2.6-0.6-5.2-0.9-7.8C582.2,363.5,581.9,362.1,581.6,360.8z"/>
	<path class="st45" d="M614,407.7c-0.2,5.2-1.7,9.7-6.2,12.8c-6.1,4.2-12.9,1.9-15.4-5.1c-2.3-6.4-1-12.1,3.6-16.7
		c2.9-2.9,6.7-4.3,10.9-2.7c4.7,1.8,6.2,5.9,7,10.4C614.1,406.8,614,407.3,614,407.7z"/>
	<path class="st26" d="M612.2,374.8c-0.1-8.2-0.1-16.4-0.2-24.6c-1-1.2-0.9-2.6-0.9-4.1c0-1.6-0.4-3.3,1.1-4.6
		c-0.3-6.5,4.7-10.9,6.5-16.6c0.3,7.1-0.1,14.1-0.5,21.2c0.9,1.4,0.9,2.7-0.1,4.1c-1.5,10.9,0.2,21.7,0.8,32.6
		C616.1,380.6,612.6,379,612.2,374.8z"/>
	<path class="st46" d="M582.7,364.1c1.2,5.7,1.6,11.5,2.2,17.3c-1.1,1.5-2.3,2.9-3.4,4.4c-0.9,1-1.4,0.4-1.8-0.5
		c0.6-7.3,1.3-14.6,1.9-21.9C582.2,363.3,582.5,363.6,582.7,364.1z"/>
	<path class="st47" d="M585,429.5c2.9-2,5.6-3.9,8.4-5.6c2.5-1.5,7.3,1.4,7.4,4.3c0,0.3,0,0.7,0,1c0.4,5.8,0.3,5.8-5.3,4.7
		C591.8,433.2,588.4,431.8,585,429.5z"/>
	<path class="st48" d="M621.2,423.7c-3.3,5-7.6,8.4-13.1,10.8c0-3.4-0.1-6.4,0-9.3c0.2-3.6,4.9-6.2,8.1-4.4
		C617.8,421.7,619.4,422.6,621.2,423.7z"/>
	<path class="st47" d="M589.4,415c0.2,1.8-1.1,2.5-2.4,3.2c-6.2,3.5-6.2,3.5-7.6-3.6c-0.5-2.6-0.5-5.3-0.5-7.9c0-2,0.8-2.4,2.4-1.2
		c1.5,1,2.9,2,4.5,2.7C588.9,409.5,589,412.3,589.4,415z"/>
	<path class="st47" d="M593.8,383.7c1.4,3.4,1,6.6,1.6,9.8c0.5,2.7-4.2,6.1-6.8,5c-7.4-2.9-7.5-1.4-2.4-8.2
		C588.2,387.6,590.8,385.7,593.8,383.7z"/>
	<path class="st47" d="M601.4,383.7c-0.2-1.8,0.6-2.5,2.3-2.2c4.2,0.8,8.3,2,12.1,4.1c1.4,0.8,2,1.4,0.2,2.5c-2.3,1.3-4.5,2.8-6.8,4
		c-2.6,1.3-6.9-1.3-7.2-4.1C601.9,386.5,601.6,385.1,601.4,383.7z"/>
	<path class="st49" d="M620.5,395.7c1.6,5.7,2.4,11.2,2.1,17.2c-2.5-0.8-4.9-1.5-5.7-4.1C615.1,403.2,615.8,400.8,620.5,395.7z"/>
	<path class="st50" d="M579.7,385.4c0.6,0.2,1.2,0.3,1.8,0.5c-0.6,0.9-1.3,1.9-1.9,2.8C579.6,387.6,579.6,386.5,579.7,385.4z"/>
	<path class="st20" d="M612.1,346.2c0,1.3,0,2.7,0,4c-9.9,0-19.9,0-29.8,0c0-1.1,0-2.2,0-3.3c2.3-1.5,4.9-0.7,7.5-1
		c-2.8-0.2-5.5-0.2-7.4-2.3c-0.4-3,0.4-5.8,0.7-9.3c4.5,4.6,9.3,7.8,15.7,7.3c1.1-0.2,2.3-0.4,3.4-0.6c-1.2,4.1-4.9,4.2-7.5,4.8
		C600,345.3,606.1,344.3,612.1,346.2z"/>
	<path class="st51" d="M582.3,343.5c2.6,0.7,5.3,1.4,8.3,2.2c-2.9,1.6-5.7,1-8.4,1.1C582.3,345.7,582.3,344.6,582.3,343.5z"/>
	<path class="st52" d="M582.7,364.1c-0.3-0.2-0.7-0.4-1-0.6c0-0.9,0-1.8,0-2.8C582.3,361.8,582.6,362.9,582.7,364.1z"/>
	<path class="st20" d="M618.1,350.2c0-1.4,0.1-2.7,0.1-4.1c1.6,0.6,4.9-1.4,4.4,2.4C622.3,351.5,619.6,349.7,618.1,350.2z"/>
	<path class="st53" d="M251.2,408.6c0,0.3,0,0.6,0,0.8c-0.9,3.8-1.8,7.5-4.3,10.6c-0.7,0.9-0.3,1.9-0.4,2.8
		c-0.9-1.2-1.6-0.5-2.4,0.2c-2.3,2.1-5.1,3.6-8.2,3.9c-1.8,0.2-2.2,1.2-2.1,1.9c-4.1-2.6-8.9-3.9-12.7-6.8c-0.4-2.7-2.5-4.6-3.3-7.1
		c-1.1-3.2-0.8-6.5-1.9-9.7c1.1-4.9,4.2-9.1,5.3-14.1c0.8,0.8,1.4,0.5,2.2-0.2c2.5-2.3,5.4-3.7,8.8-4.2c0.7-0.1,1.6,0.1,1.7-1
		c0-0.2,0.3-0.4,0.4-0.7c2.3,3.4,7,2.1,9.6,5.2c1.2,1.4,2.2,3,4,3.7C249.6,398.7,251.6,403.4,251.2,408.6z"/>
	<path class="st45" d="M584.2,315c0.3-5.5,2.3-12,7.9-17c5.4-4.8,12.8-4.7,18.3,0.1c10.6,9.2,10.1,29.5-0.5,38.2
		c-5.1,4.2-12.6,4.4-17.5-0.1C586.7,330.9,584.1,324.8,584.2,315z"/>
	<path class="st2" d="M612.1,346.2c-6.4,0-12.8,0-19.2,0c3.3-1.4,6.8-2.5,9.3-5.3c3.6-0.4,6.7-1.9,9.8-4.5c0.1,2,0.2,3.6,0.3,5.2
		C612.1,343.1,612.1,344.6,612.1,346.2z"/>
	<path class="st54" d="M598.1,408.8c0.1-3.7,2.7-6.9,5.5-6.8c2.7,0.1,4.6,2.8,4.5,6.3c-0.1,3.9-2.8,7.2-5.6,7
		C599.9,415.1,598,412.3,598.1,408.8z"/>
	<path class="st55" d="M599.4,402c0,1.3-0.7,1.8-1.6,1.9c-1.1,0.2-2-0.3-2.2-1.5c-0.2-1.1,0.6-1.6,1.6-1.8
		C598.3,400.6,599,401.2,599.4,402z"/>
	<path class="st56" d="M608.4,413.3c1,0.2,1.7,0.7,1.7,1.7c-0.1,1-0.7,1.6-1.8,1.5c-0.9-0.1-1.4-0.7-1.4-1.5
		C606.8,414,607.5,413.5,608.4,413.3z"/>
	<path class="st57" d="M597.4,415c0,0.7-0.3,1.5-1,1.5s-1-0.8-1-1.5s0.3-1.5,1-1.5C597.2,413.5,597.4,414.3,597.4,415z"/>
	<path class="st58" d="M610.5,402.8c0.6,0.2,0.9,0.7,0.8,1.3c-0.1,0.6-0.4,1.1-1,1s-0.9-0.6-0.8-1.2
		C609.5,403.3,609.9,402.9,610.5,402.8z"/>
	<path class="st59" d="M587.4,429.6c2.3-1.6,4.2-3.1,6.3-4.2c2.4-1.3,5.5,0.7,5.7,3.4c0.4,5.1,0.4,5.1-4.6,3.8c-1-0.3-1.9-0.6-2.8-1
		C590.6,431,589.3,430.4,587.4,429.6z"/>
	<path class="st59" d="M609.4,427.3c-0.6-2.4,0.7-4.5,3-5.6c2.2-1.1,3.9,1,5.7,1.7c1.2,0.5,1,1.2,0.2,2c-1.9,1.8-3.6,3.9-5.9,5.2
		c-0.8,0.4-1.5,1.3-2.3,1c-1.2-0.5-0.5-1.7-0.7-2.6C609.4,428.5,609.4,428.1,609.4,427.3z"/>
	<path class="st59" d="M580.1,410.4c0-3.9,0-3.9,3.3-2c1.3,0.8,2.9,1.5,3.7,2.7c2,2.8-0.7,7.6-4.2,7.9c-1.1,0.1-1.2-0.7-1.4-1.4
		C580.8,415.1,580.2,412.8,580.1,410.4z"/>
	<path class="st59" d="M594.1,392.6c0.1,2.8-2.9,5.3-5.3,4.7c-4.5-1-4.8-1.8-2.1-5.6c1.3-1.9,2.9-3.5,4.9-4.8c1.1-0.7,1.9-1,1.9,0.7
		C593.4,389.4,593.6,391.1,594.1,392.6z"/>
	<path class="st59" d="M615.3,387c-1.9,1.1-3.8,1.9-5.3,3.2c-2.3,1.9-4.6,0.7-5.9-0.6c-1.3-1.3-1.5-3.8-1.2-5.9
		c0.1-0.6,0.6-0.9,1.2-0.8C607.9,383.8,611.8,384.3,615.3,387z"/>
	<path class="st59" d="M619.8,399.1c1.2,3.2,1.2,6.4,1.6,9.6c0.1,0.6,0.2,1.4-0.6,1.7c-0.8,0.2-1.5-0.3-2-0.8
		C617.1,407.8,617.8,400.7,619.8,399.1z"/>
	<path class="st60" d="M247.1,408c0,0.5-0.1,1-0.1,1.5c-1.5,0-1.6,1.2-2,2.2c-0.7,1.9-1.5,3.7-3.2,4.9l0.1-0.1
		c-1.9,2.9-4.8,3.8-8,4.2c-2.7-0.1-5.2-0.6-6.9-3c-0.1-0.3-0.1-0.7,0-1c0.2-0.3,0.5-0.4,0.8-0.5c2.1,0,3.7,1.8,5.9,1.5
		c1.7,0,3.1-0.6,4.5-1.6c-1.5,0.5-2.9,1.3-4.5,1.2c-1.9-0.1-3.5-0.8-4.8-2.1c-0.5-0.6-1-1.2-1.6-1.8c-1.6-2.4-3.3-4.8-2.4-8
		c0.9-2.1,1.8-4.2,1.9-6.5c0.1-0.3,0.3-0.5,0.6-0.7c2.4-0.2,4.5-2.1,7-1.8c1.8,0.2,3.3,1,4.7,2.2c1.2,1,1.4,0.3,1.6-0.8
		c0.1-0.4,0.4-0.8,0.8-0.9c0.9,0.2,1.9,0.2,2.8,0.2c0.2,0.3,0.5,0.5,0.7,0.8C244.5,401.7,245.7,404.9,247.1,408z"/>
	<path class="st61" d="M227.9,416.6c-0.2,0-0.5,0-0.7,0c-0.4,0.4-0.9,0.4-1.4,0.3c-2.5-2.1-3.1-5.1-3.9-8c-0.2-0.7,0-1.5-0.7-2.1
		c0-0.3,0-0.5,0-0.8c1.3-3.1,2.4-6.1,3.3-9.3c0.2-0.2,0.4-0.4,0.6-0.6c3.1-1.5,5.8-3.7,9.5-3.5c3,0.7,6.3,0.9,7.1,4.8
		c-0.2,0.3-0.4,0.5-0.7,0.8c-2.5-0.1-4-2.8-6.7-2.6c-3-0.2-5.1,1.6-7.3,3.1l0,0c-1.4,2.3-2.1,4.8-2.6,7.3c-0.4,2.4,0.6,4.5,1.5,6.5
		c0.3,0.8,1,1.1,1.9,0.8c0.4,0.5,0.8,0.9,1.2,1.4C228.9,415.4,228.7,416.2,227.9,416.6z"/>
	<path class="st62" d="M223.2,419.9c-1,0.1-1.6-0.4-2.1-1.3c-2.2-3.7-3.7-7.6-3.1-12c0.2-0.6,0.5-1,1.1-0.6c0.7,2.7,1.3,5.5,2.2,8.2
		c0.4,1.1,1.2,2.1,1.8,3.1c1.1,0.6,0.9,1.5,0.3,2.4C223.5,419.8,223.3,419.8,223.2,419.9z"/>
	<path class="st63" d="M226.5,420.6c2.1,1.9,4.7,2.4,7.3,2.8c0.7,0.8,0.7,1.6,0,2.4c-5.2,0.1-9.6-2.4-10.6-5.9v0.1
		C224.7,418,225.7,419,226.5,420.6z"/>
	<path class="st64" d="M233.8,425.8c0-0.8,0-1.6,0-2.4c3.9-0.1,6.9-2.2,10.1-4c0.4,0,0.5,0.1,0.5,0.5
		C243.2,423.4,238.9,425.8,233.8,425.8z"/>
	<path class="st65" d="M219.2,406c-0.4,0.2-0.8,0.4-1.1,0.6c0.2-4.8,0.7-9.5,5.2-12.6c0.5-0.2,0.7,0,0.6,0.6
		C221.7,398.2,220.6,402.2,219.2,406z"/>
	<path class="st66" d="M223.8,394.6c-0.2-0.2-0.4-0.4-0.6-0.6c1.1-3,6.5-6.3,9.4-6c0.6,0.1,1.1,0.2,1.1,0.9c0,0.7-0.3,1-1,1.1
		C229.2,390.5,226.7,392.8,223.8,394.6z"/>
	<path class="st62" d="M245.8,396c-3.1-2.7-6.1-5.7-10.7-6c-0.5,0-0.7-0.5-0.7-0.9c0-0.5,0.2-0.8,0.7-0.9
		C238.3,387.1,245.7,392.6,245.8,396L245.8,396z"/>
	<path class="st67" d="M241.8,397.4c-1.7-2.6-4.4-3.5-7.3-4.1c-0.5-0.6-0.5-1.1,0-1.7c4.5-0.1,7.5,2.2,9.9,5.8
		C243.5,398.3,242.6,398.5,241.8,397.4z"/>
	<path class="st68" d="M247.1,408c-0.8,0.2-1.9,0.5-1.9-0.8c0-2.5-0.7-4.9-1.4-7.3c-0.3-1,0.3-1.6,1.4-1.8
		C246.5,401.3,247.4,404.5,247.1,408z"/>
	<path class="st69" d="M244.4,419.9c-0.2-0.2-0.3-0.3-0.5-0.5c1.8-3.2,3.7-6.5,4.8-10.1C249.6,413.2,247.4,418.3,244.4,419.9z"/>
	<path class="st70" d="M233.8,420.1c3.1-0.2,5.5-2,8-3.5c0.4,1.1,0.6,2.1-0.8,3c-2.3,1.3-4.5,2.6-7.2,2.3
		C233.3,421.3,233.3,420.7,233.8,420.1z"/>
	<path class="st71" d="M245.8,396.1c0.5,0.1,1.1-0.2,1.4,0.5c2,3.7,3.1,7.6,1.9,11.9C248.5,404.2,247.4,400.1,245.8,396.1
		C245.8,396,245.8,396.1,245.8,396.1z"/>
	<path class="st72" d="M241.8,416.7c0.9-2.4,2.5-4.3,3-6.9c0.3-1.5,1.4-1,2.2-0.3c-0.7,2.2-1.3,4.5-2.7,6.5
		C243.6,417.1,242.9,417.6,241.8,416.7z"/>
	<path class="st73" d="M234.5,391.5c0,0.6,0,1.1,0,1.7c-2.7,0.2-5.1,0.9-7.1,2.7c-0.8,0.7-1.4,0.9-2.2,0.1
		C227.5,393,230.6,391.3,234.5,391.5z"/>
	<path class="st74" d="M233.8,420.1c0,0.6,0,1.2,0,1.7c-2.5,0.4-4.5-0.9-6.6-1.9c-1-0.4-2-0.9-1.6-2.3c0.2-0.7,0.9-0.8,1.5-0.4
		C229,419.3,231.4,419.7,233.8,420.1z"/>
	<path class="st70" d="M221.2,406.8c0.8-0.2,1.3,0.2,1.3,1c0.2,3.3,1.7,6.1,3.4,8.9c-0.7,1-1.4,1.2-2-0.2
		C222.4,413.4,220.9,410.3,221.2,406.8z"/>
	<path class="st75" d="M224.5,396.6c0.1,0,0.3,0,0.3,0.1c0.5,1.4-2.3,8.5-3.6,9.2C221.3,402.5,222.4,399.4,224.5,396.6z"/>
	<path class="st76" d="M223.9,416.5c0.6,0.6,1.3,0.8,2,0.2c0.4,0,0.9,0,1.3,0c0,0.2,0,0.4,0,0.7c-3.4,1,0.3,1.7,0.1,2.6
		c-0.2,0.2-0.5,0.5-0.7,0.7c-1.1-0.4-1.9-1.9-3.3-0.6c0-0.9,0.9-1.8,0.1-2.7C223.5,417,223.7,416.8,223.9,416.5z"/>
	<path class="st77" d="M594.1,330.2c-6.8-7.8-7.4-16.9-1.8-24.7c1.2-1.6,2.8-2.8,4.4-3.9c0.6-0.5,1.3-0.5,2-0.2
		c1,1.5-0.3,2.5-0.9,3.6c-3.7,6-4.3,12.4-2.3,19.2c0.9,2.9,3.2,4.7,4.7,7.2c0.1,0.6-0.1,1-0.7,1.2
		C597.5,332.3,595.8,331.3,594.1,330.2z"/>
	<path class="st78" d="M598.8,301.6c-0.7,0-1.4,0-2.1,0c5.1-3.4,10.8-2.5,15.6,2.6c8.4,8.8,4.1,25.5-7.5,28.8
		c-4.1,1.2-7.8,0.3-10.8-2.9c1.8,0.7,3.5,1.4,5.3,2c1.2,0.4,2-0.6,3-0.7c9.9-1.7,16.1-14.5,9.1-24.8c-2.4-3.6-5.9-5.3-10.3-4.7
		C600.5,302.2,599.6,302.4,598.8,301.6z"/>
	<path class="st79" d="M599.5,409.6c-0.1-3.3,1.9-6.2,3.9-6.1c2.7,0.2,3.3,2.3,3.3,4.5c0.1,3-2,6.2-4,5.9
		C600,413.5,599.7,411.3,599.5,409.6z"/>
	<path class="st80" d="M229.9,407.5c0-0.3-0.1-0.5-0.1-0.8c0.8-0.7,0.9-1.8,1.4-2.7l0,0c0.8-0.7,1.5-1.4,2.1-2.2
		c0.4-0.2,0.9-0.3,1.3-0.5c0.6,1.4,2.1,2.2,2.5,3.7c1.3,3.6,0.9,5-1.8,6.1c-1.1,0.3-2.2,0.6-3.4,0.1l0,0
		C231.2,410.1,231.2,408.5,229.9,407.5z"/>
	<path class="st81" d="M234.5,394.9c2.9-0.2,4.7,1.7,6.6,3.2c0.4,0.9,1.1,1.7-0.1,2.6c-1.2,0.8-1.5-0.5-2-1
		c-1.3-1.3-2.9-1.9-4.6-2.5C233.8,396.4,233.8,395.7,234.5,394.9z"/>
	<path class="st82" d="M234.5,394.9c0,0.8,0,1.6,0,2.3c-1.7,0-3.2,0.5-4.5,1.5c-1,0.8-1.9,0.8-2.8,0
		C228.5,395.4,231.3,394.8,234.5,394.9z"/>
	<path class="st83" d="M228,413.3c0,0.7,0,1.4-0.8,1.7c-0.9,0.3-1.1-0.6-1.4-1.1c-1.4-2.4-2.3-5-1.7-7.9c0.6-0.5,1.1-0.5,1.7,0
		C225.8,408.7,226.2,411.2,228,413.3z"/>
	<path class="st84" d="M225.7,406c-0.6,0-1.1,0-1.7,0c0-2.9,0.4-5.6,3.1-7.3C228.5,401.5,226,403.5,225.7,406z"/>
	<path class="st85" d="M243.8,405.9c-0.2,0.7,0.5,1.9-0.9,2c-1.5,0.1-1-1.1-1.1-1.9c-0.1-0.3-0.1-0.7-0.1-1
		c-0.1-1.4-1.7-3.6,0.3-3.9c1.5-0.2,1.3,2.5,1.7,4C243.8,405.4,243.8,405.6,243.8,405.9z"/>
	<path class="st86" d="M227.9,416.6c-0.3-1.1,0.2-1.7,1.2-1.9c1.2,1.4,3,1.7,4.7,2.1c0.5,0.6,0.5,1.1,0,1.7
		C231.5,419,229.8,417.5,227.9,416.6z"/>
	<path class="st70" d="M233.8,418.5c0-0.6,0-1.1,0-1.7c1.4-0.3,2.7-0.7,3.9-1.5c0.7-0.4,1.5-1.4,2.1-0.2c0.6,1.1-0.6,1.4-1.2,1.9
		C237.2,418,235.7,418.8,233.8,418.5z"/>
	<path class="st87" d="M240.2,414.7c0,0-0.3-0.4-0.2-0.8c0.4-1.9,1-3.7,2.3-5.1c0.1-0.1,0.9,0.1,1.1,0.4
		C243.9,409.8,241.8,414.4,240.2,414.7z"/>
	<path class="st88" d="M238.5,412c-0.5,2.1-2,2.9-4,3.2c-0.5,0.1-0.9-0.5-0.7-0.9c0.8-1.6,2.4-1.9,3.9-2.3
		C238,411.7,238.3,411.8,238.5,412z"/>
	<path class="st89" d="M229.8,412.6c-2.6-0.9-2.5-3-2.2-5.2C228.8,409,230.2,410.5,229.8,412.6L229.8,412.6z"/>
	<path class="st90" d="M239.2,403.3c-1.6-1.2-3.2-2.5-4.8-3.7c0.2-0.3,0.5-0.6,0.7-0.8C236.9,399.6,239.1,400.2,239.2,403.3
		L239.2,403.3z"/>
	<path class="st91" d="M238.5,412c-0.3,0-0.5,0-0.8,0c0.5-1.5,1-3.1,1.6-4.6c0.3-0.4,0.7-0.4,1,0C239.8,408.9,240.6,411,238.5,412z"
		/>
	<path class="st73" d="M229.8,412.7c0.1,0,0.2,0,0.3,0c1.4-0.1,2.6,0,3.1,1.5c0.1,0.4-0.1,1-0.6,0.9
		C231.3,414.9,229.9,414.5,229.8,412.7C229.8,412.6,229.8,412.7,229.8,412.7z"/>
	<path class="st92" d="M229.8,402c-0.6,1.6-1.1,3.1-1.7,4.7c-0.3-0.1-0.5-0.2-0.8-0.3C227.7,404.7,226.7,402.4,229.8,402L229.8,402z
		"/>
	<path class="st93" d="M237,405.1c-0.9-1.2-3.4-1.3-2.5-3.7C236.1,402.1,237.6,402.9,237,405.1z"/>
	<path class="st73" d="M240.3,407.3c-0.3,0-0.7,0-1,0c-0.3-1.3-0.5-2.7-0.2-4H239C240.8,404.3,240.5,405.8,240.3,407.3z"/>
	<path class="st94" d="M230.5,400c0.9-0.7,1.8-1.5,3.2-0.9c-0.3,1.3-1.5,1.3-2.4,1.7C230.6,401,230.4,400.7,230.5,400z"/>
	<path class="st70" d="M229.9,407.5c2.4,0.4,1.8,2.3,1.9,3.9C230.6,410.4,230.1,409,229.9,407.5z"/>
	<path class="st95" d="M231.2,404c0.5,1.4,0.8,2.7-1.3,2.7C229.8,405.6,229.5,404.3,231.2,404z"/>
	<path class="st96" d="M233.2,401.8c0.3,1.7-0.4,2.4-2.1,2.2C231,402.5,231.8,402,233.2,401.8z"/>
	<path class="st97" d="M231.8,411.3c1.1-0.3,2.2-0.8,3.4-0.1C234.1,412.4,233,412.4,231.8,411.3z"/>
	<path class="st98" d="M230.5,400c0.3,0.3,0.5,0.5,0.8,0.8c-0.5,0.4-1,0.8-1.5,1.2c0,0,0,0,0.1,0C229.4,401.2,229.3,400.4,230.5,400
		z"/>
	<path class="st45" d="M598.8,301.6c10.3-2.8,15.4,4.9,16.5,12.4c1.3,8.8-5,17.5-13.3,18.3c-0.9,0.6-1.5,0-2-0.6
		c-7.7-4.3-8.5-19.4-2.7-27.5C597.9,303.3,598.8,302.8,598.8,301.6z"/>
	<path class="st99" d="M595,328.2c-6.2-5.4-6.4-16-0.5-22.1C591.6,313.4,591.2,320.6,595,328.2z"/>
	<path class="st100" d="M600.1,331.6c0.7,0.2,1.3,0.4,2,0.6c-0.9,1-1.8,0.8-2.6,0C599.6,332,599.9,331.8,600.1,331.6z"/>
	<path class="st101" d="M234.6,407.1c-0.2-0.6-0.3-0.9-0.3-1.3s0.2-0.9,0.8-0.5c0.3,0.2,0.4,0.7,0.4,1.1
		C235.4,406.6,235,406.8,234.6,407.1z"/>
	<path class="st102" d="M232.4,405.7c0.9,1.4,1.1,2,0.8,2.6c0,0-0.5,0-0.5-0.1C232.6,407.7,232.6,407.2,232.4,405.7z"/>
	<path class="st103" d="M603.4,314.9c2.5-3.1,3-3.1,4.7,0c0.5,1.1,0.5,2.2,0,3.3c-2.1,3-2.2,3.1-4,0.7
		C602.6,317.8,603,316.4,603.4,314.9z"/>
	<path class="st104" d="M603.8,308.2c-0.3,1.2-1,2-2.3,1.8c-1.1-0.1-1.9-0.8-1.8-2c0.2-1.2,0.8-2.4,2.3-2.3
		C603.4,305.8,603.3,307.3,603.8,308.2z"/>
	<path class="st105" d="M607.8,326.9c-0.3,1.1-1.2,1.7-2.2,1.7c-1.1,0-1.9-0.7-1.8-1.9c0.1-1.1,0.8-1.9,2-1.7
		C606.8,325.1,607.5,325.9,607.8,326.9z"/>
	<path class="st106" d="M603.4,314.9c0,1.3-0.2,2.7,0.6,3.9C601.8,317.9,602.6,316.4,603.4,314.9z"/>
	<path class="st107" d="M608.1,318.2c0-1.1,0-2.2,0-3.3C609.1,316,609.1,317.1,608.1,318.2z"/>
	<path class="st108" d="M604.6,316.3c0.3-0.2,0.6-0.4,0.8-0.4c0.6,0,0.7,0.5,0.6,0.9c-0.1,0.2-0.4,0.4-0.6,0.5
		C605.1,317.1,604.9,316.8,604.6,316.3z"/>
</g>
</svg>
