<?xml version="1.0" encoding="utf-8"?>
<!-- Generator: Adobe Illustrator 24.1.2, SVG Export Plug-In . SVG Version: 6.00 Build 0)  -->
<svg version="1.1" id="Layer_1" xmlns="http://www.w3.org/2000/svg" xmlns:xlink="http://www.w3.org/1999/xlink" x="0px" y="0px"
	 viewBox="0 0 800 800" style="enable-background:new 0 0 800 800;" xml:space="preserve">
<style type="text/css">
	.st0{fill:#333333;}
	.st1{clip-path:url(#SVGID_2_);fill:#1D1D1B;}
	.st2{fill:#4C73B1;}
	.st3{fill:#46689F;}
	.st4{fill:#406194;}
	.st5{fill:#406195;}
	.st6{fill:#DFDFDF;}
	.st7{fill:#FECE5B;}
	.st8{fill:#FDCE5B;}
	.st9{fill:#FCCD5C;}
	.st10{fill:#E3BC59;}
	.st11{fill:#E3BB5A;}
	.st12{fill:#1D1D1B;}
	.st13{fill:#F9DD9B;}
	.st14{fill:#96988E;}
	.st15{fill:#F8CC5F;}
	.st16{fill:#6881A4;}
</style>
<g id="Layer_2_3_">
	<g id="Layer_2_4_">
		<g>
			<circle class="st0" cx="400" cy="400" r="400"/>
		</g>
	</g>
</g>
<g>
	<g>
		<defs>
			<circle id="SVGID_1_" cx="400" cy="400" r="400"/>
		</defs>
		<clipPath id="SVGID_2_">
			<use xlink:href="#SVGID_1_"  style="overflow:visible;"/>
		</clipPath>
		<path class="st1" d="M847.6,477.3c-0.3-0.4-0.6-0.7-1-1c-0.3-0.4-0.6-0.7-1-1c-0.3-0.4-0.6-0.7-1-1c-0.3-0.4-0.6-0.7-1-1
			c-0.3-0.4-0.6-0.7-1-1c-0.3-0.4-0.6-0.7-1-1c-0.3-0.4-0.6-0.7-1-1c-0.3-0.4-0.6-0.7-1-1c-0.3-0.4-0.6-0.7-1-1
			c-0.3-0.4-0.6-0.7-1-1c-0.3-0.4-0.6-0.7-1-1c-0.3-0.4-0.6-0.7-1-1c-0.3-0.4-0.6-0.7-1-1c-0.3-0.4-0.6-0.7-1-1
			c-0.3-0.4-0.6-0.7-1-1c-0.3-0.4-0.6-0.7-1-1c-0.3-0.4-0.6-0.7-1-1c-0.3-0.4-0.6-0.7-1-1c-0.3-0.4-0.6-0.7-1-1
			c-0.3-0.4-0.6-0.7-1-1c-0.3-0.4-0.6-0.7-1-1c-0.3-0.4-0.6-0.7-1-1c-0.3-0.4-0.6-0.7-1-1c-0.3-0.4-0.6-0.7-1-1
			c-0.3-0.4-0.6-0.7-1-1c-0.3-0.4-0.6-0.7-1-1c-0.3-0.4-0.6-0.7-1-1c-0.3-0.4-0.6-0.7-1-1c-0.3-0.4-0.6-0.7-1-1
			c-0.3-0.4-0.6-0.7-1-1c-0.3-0.4-0.6-0.7-1-1c-0.3-0.4-0.6-0.7-1-1c-0.3-0.4-0.6-0.7-1-1c-0.3-0.4-0.6-0.7-1-1
			c-0.3-0.4-0.6-0.7-1-1c-0.3-0.4-0.6-0.7-1-1c-0.3-0.4-0.6-0.7-1-1c-0.3-0.4-0.6-0.7-1-1c-0.3-0.4-0.6-0.7-1-1
			c-0.3-0.4-0.6-0.7-1-1c-0.3-0.4-0.6-0.7-1-1c-0.3-0.4-0.6-0.7-1-1c-0.3-0.4-0.6-0.7-1-1c-0.3-0.4-0.6-0.7-1-1
			c-0.3-0.4-0.6-0.7-1-1c-0.3-0.4-0.6-0.7-1-1c-0.3-0.4-0.6-0.7-1-1c-0.3-0.4-0.6-0.7-1-1c-0.3-0.4-0.6-0.7-1-1
			c-0.3-0.4-0.6-0.7-1-1c-0.3-0.4-0.6-0.7-1-1c-0.3-0.4-0.6-0.7-1-1c-0.3-0.4-0.6-0.7-1-1c-0.3-0.4-0.6-0.7-1-1
			c-0.3-0.4-0.6-0.7-1-1c-0.3-0.4-0.6-0.7-1-1c-0.3-0.4-0.6-0.7-1-1c-0.3-0.4-0.6-0.7-1-1c-0.3-0.4-0.6-0.7-1-1
			c-0.3-0.4-0.6-0.7-1-1c-0.3-0.4-0.6-0.7-1-1c-0.3-0.4-0.6-0.7-1-1c-0.3-0.4-0.6-0.7-1-1c-0.3-0.4-0.6-0.7-1-1
			c-0.3-0.4-0.6-0.7-1-1c-0.3-0.4-0.6-0.7-1-1c-0.3-0.4-0.6-0.7-1-1c-0.3-0.4-0.6-0.7-1-1c-0.3-0.4-0.6-0.7-1-1
			c-0.3-0.4-0.6-0.7-1-1c-0.3-0.4-0.6-0.7-1-1c-0.3-0.4-0.6-0.7-1-1c-0.3-0.4-0.6-0.7-1-1c-0.3-0.4-0.6-0.7-1-1
			c-0.3-0.4-0.6-0.7-1-1c-0.3-0.4-0.6-0.7-1-1c-0.3-0.4-0.6-0.7-1-1c-0.3-0.4-0.6-0.7-1-1c-0.3-0.4-0.6-0.7-1-1
			c-0.3-0.4-0.6-0.7-1-1c-0.3-0.4-0.6-0.7-1-1c-0.3-0.4-0.6-0.7-1-1c-0.3-0.4-0.6-0.7-1-1c-0.3-0.4-0.6-0.7-1-1
			c-0.3-0.4-0.6-0.7-1-1c-0.3-0.4-0.6-0.7-1-1c-0.3-0.4-0.6-0.7-1-1c-0.3-0.4-0.6-0.7-1-1c-0.3-0.4-0.6-0.7-1-1
			c-0.3-0.4-0.6-0.7-1-1c-0.3-0.4-0.6-0.7-1-1c-0.3-0.4-0.6-0.7-1-1c-0.3-0.4-0.6-0.7-1-1c-0.3-0.4-0.6-0.7-1-1
			c-0.3-0.4-0.6-0.7-1-1c-0.3-0.4-0.6-0.7-1-1c-0.3-0.4-0.6-0.7-1-1c-0.3-0.4-0.6-0.7-1-1c-0.3-0.4-0.6-0.7-1-1
			c-0.3-0.4-0.6-0.7-1-1c-0.3-0.4-0.6-0.7-1-1c-0.3-0.4-0.6-0.7-1-1c-0.3-0.4-0.6-0.7-1-1c-0.3-0.4-0.6-0.7-1-1
			c-0.3-0.4-0.6-0.7-1-1c-0.3-0.4-0.6-0.7-1-1c-0.3-0.4-0.6-0.7-1-1c-0.3-0.4-0.6-0.7-1-1c-0.3-0.4-0.6-0.7-1-1
			c-0.3-0.4-0.6-0.7-1-1c-0.3-0.4-0.6-0.7-1-1c-0.3-0.4-0.6-0.7-1-1c-0.3-0.4-0.6-0.7-1-1c-0.3-0.4-0.6-0.7-1-1
			c-0.3-0.4-0.6-0.7-1-1c-0.3-0.4-0.6-0.7-1-1c-0.3-0.4-0.6-0.7-1-1c-0.3-0.4-0.6-0.7-1-1c-0.3-0.4-0.6-0.7-1-1
			c-0.3-0.4-0.6-0.7-1-1c-0.3-0.4-0.6-0.7-1-1c-0.3-0.4-0.6-0.7-1-1c-0.3-0.4-0.6-0.7-1-1c-0.3-0.4-0.6-0.7-1-1
			c-0.3-0.4-0.6-0.7-1-1c-0.3-0.4-0.6-0.7-1-1c-0.3-0.4-0.6-0.7-1-1c-0.3-0.4-0.6-0.7-1-1c-0.3-0.4-0.6-0.7-1-1
			c-0.3-0.4-0.6-0.7-1-1c-0.3-0.4-0.6-0.7-1-1c-0.3-0.4-0.6-0.7-1-1c-0.3-0.4-0.6-0.7-1-1c-0.3-0.4-0.6-0.7-1-1
			c-0.3-0.4-0.6-0.7-1-1c-0.3-0.4-0.6-0.7-1-1c-0.3-0.4-0.6-0.7-1-1c-0.3-0.4-0.6-0.7-1-1c-0.3-0.4-0.6-0.7-1-1
			c-0.3-0.4-0.6-0.7-1-1c-0.3-0.4-0.6-0.7-1-1c-0.3-0.4-0.6-0.7-1-1c-0.3-0.4-0.6-0.7-1-1c-0.3-0.4-0.6-0.7-1-1
			c-0.3-0.4-0.6-0.7-1-1c-0.3-0.4-0.6-0.7-1-1c-0.3-0.4-0.6-0.7-1-1c-0.3-0.4-0.6-0.7-1-1c-0.3-0.4-0.6-0.7-1-1
			c-0.3-0.4-0.6-0.7-1-1c-0.3-0.4-0.6-0.7-1-1c-0.3-0.4-0.6-0.7-1-1c-0.3-0.4-0.6-0.7-1-1c-0.3-0.4-0.6-0.7-1-1
			c-0.3-0.4-0.6-0.7-1-1c-0.3-0.4-0.6-0.7-1-1c-0.3-0.4-0.6-0.7-1-1c-0.3-0.4-0.6-0.7-1-1c-0.3-0.4-0.6-0.7-1-1
			c-0.3-0.4-0.6-0.7-1-1c-0.3-0.4-0.6-0.7-1-1c-0.3-0.4-0.6-0.7-1-1c-0.3-0.4-0.6-0.7-1-1c-0.3-0.4-0.6-0.7-1-1
			c-0.3-0.4-0.6-0.7-1-1c-0.3-0.4-0.6-0.7-1-1c-0.3-0.4-0.6-0.7-1-1c-0.3-0.4-0.6-0.7-1-1c-0.3-0.4-0.6-0.7-1-1
			c-0.3-0.4-0.6-0.7-1-1c-0.3-0.4-0.6-0.7-1-1c-0.3-0.4-0.6-0.7-1-1c-0.3-0.4-0.6-0.7-1-1c-0.3-0.4-0.6-0.7-1-1
			c-0.3-0.4-0.6-0.7-1-1c-0.3-0.4-0.6-0.7-1-1c-0.3-0.4-0.6-0.7-1-1c-0.3-0.4-0.6-0.7-1-1c-0.3-0.4-0.6-0.7-1-1
			c-0.3-0.4-0.6-0.7-1-1c-0.3-0.4-0.6-0.7-1-1c-0.3-0.4-0.6-0.7-1-1c-0.3-0.4-0.6-0.7-1-1c-0.3-0.4-0.6-0.7-1-1
			c-0.3-0.4-0.6-0.7-1-1c-0.3-0.4-0.6-0.7-1-1c-0.3-0.4-0.6-0.7-1-1c-0.3-0.4-0.6-0.7-1-1c-0.3-0.4-0.6-0.7-1-1
			c-0.3-0.4-0.6-0.7-1-1c-0.3-0.4-0.6-0.7-1-1c-0.3-0.4-0.6-0.7-1-1c-0.3-0.4-0.6-0.7-1-1c-0.3-0.4-0.6-0.7-1-1
			c-0.3-0.4-0.6-0.7-1-1c-0.3-0.4-0.6-0.7-1-1c-0.3-0.4-0.6-0.7-1-1c-0.3-0.4-0.6-0.7-1-1c-0.3-0.4-0.6-0.7-1-1
			c-0.3-0.4-0.6-0.7-1-1c-0.3-0.4-0.6-0.7-1-1c-0.3-0.4-0.6-0.7-1-1c-0.3-0.4-0.6-0.7-1-1c-0.3-0.4-0.6-0.7-1-1
			c-0.3-0.4-0.6-0.7-1-1c-0.3-0.4-0.6-0.7-1-1c-0.3-0.4-0.6-0.7-1-1c-0.3-0.4-0.6-0.7-1-1c-0.3-0.4-0.6-0.7-1-1
			c-0.3-0.4-0.6-0.7-1-1c-0.3-0.4-0.6-0.7-1-1c-0.3-0.4-0.6-0.7-1-1c-0.3-0.4-0.6-0.7-1-1c-0.3-0.4-0.6-0.7-1-1
			c-0.3-0.4-0.6-0.7-1-1c-0.3-0.4-0.6-0.7-1-1c-0.3-0.4-0.6-0.7-1-1c-0.3-0.4-0.6-0.7-1-1c-0.3-0.4-0.6-0.7-1-1
			c-0.3-0.4-0.6-0.7-1-1c-0.3-0.4-0.6-0.7-1-1c-0.3-0.4-0.6-0.7-1-1c-0.3-0.4-0.6-0.7-1-1c-0.3-0.4-0.6-0.7-1-1
			c-0.3-0.4-0.6-0.7-1-1c-0.3-0.4-0.6-0.7-1-1c-0.3-0.4-0.6-0.7-1-1c-0.3-0.4-0.6-0.7-1-1c-0.3-0.4-0.6-0.7-1-1
			c-0.3-0.4-0.6-0.7-1-1c-0.3-0.4-0.6-0.7-1-1c-0.3-0.4-0.6-0.7-1-1c-0.3-0.4-0.6-0.7-1-1c-0.3-0.4-0.6-0.7-1-1
			c-0.3-0.4-0.6-0.7-1-1c-0.3-0.4-0.6-0.7-1-1c-0.3-0.4-0.6-0.7-1-1c-0.3-0.4-0.6-0.7-1-1c-0.3-0.4-0.6-0.7-1-1
			c-0.3-0.4-0.6-0.7-1-1c-0.3-0.4-0.6-0.7-1-1c-0.3-0.4-0.6-0.7-1-1c-0.3-0.4-0.6-0.7-1-1c-0.3-0.4-0.6-0.7-1-1
			c-0.3-0.4-0.6-0.7-1-1c-0.3-0.4-0.6-0.7-1-1c-0.3-0.4-0.6-0.7-1-1c-0.3-0.4-0.6-0.7-1-1c-0.3-0.4-0.6-0.7-1-1
			c-0.3-0.4-0.6-0.7-1-1c-0.3-0.4-0.6-0.7-1-1c-0.3-0.4-0.6-0.7-1-1c-0.3-0.4-0.6-0.7-1-1c-0.3-0.4-0.6-0.7-1-1
			c-0.3-0.4-0.6-0.7-1-1c-0.3-0.4-0.6-0.7-1-1c-0.3-0.4-0.6-0.7-1-1c-0.3-0.4-0.6-0.7-1-1c-0.3-0.4-0.6-0.7-1-1
			c-0.3-0.4-0.6-0.7-1-1c-0.3-0.4-0.6-0.7-1-1c-0.3-0.4-0.6-0.7-1-1c-0.3-0.4-0.6-0.7-1-1c-0.3-0.4-0.6-0.7-1-1
			c-0.3-0.4-0.6-0.7-1-1c-0.3-0.4-0.6-0.7-1-1c-0.3-0.4-0.6-0.7-1-1c-0.3-0.4-0.6-0.7-1-1c-0.3-0.4-0.6-0.7-1-1
			c-0.3-0.4-0.6-0.7-1-1c-0.3-0.4-0.6-0.7-1-1c-0.3-0.4-0.6-0.7-1-1c-0.3-0.4-0.6-0.7-1-1c-0.3-0.4-0.6-0.7-1-1
			c-0.3-0.4-0.6-0.7-1-1c-0.3-0.4-0.6-0.7-1-1c-0.3-0.4-0.6-0.7-1-1c-0.3-0.4-0.6-0.7-1-1c-0.3-0.4-0.6-0.7-1-1
			c-0.3-0.4-0.6-0.7-1-1c-0.3-0.4-0.6-0.7-1-1c-0.3-0.4-0.6-0.7-1-1c-0.3-0.4-0.6-0.7-1-1c-0.3-0.4-0.6-0.7-1-1
			c-0.3-0.4-0.6-0.7-1-1c-0.3-0.4-0.6-0.7-1-1c-0.3-0.4-0.6-0.7-1-1c-0.3-0.4-0.6-0.7-1-1c-0.3-0.4-0.6-0.7-1-1
			c-0.3-0.4-0.6-0.7-1-1c-0.3-0.4-0.6-0.7-1-1c-0.3-0.4-0.6-0.7-1-1c-0.3-0.4-0.6-0.7-1-1c-0.3-0.4-0.6-0.7-1-1
			c-0.3-0.4-0.6-0.7-1-1c-0.3-0.4-0.6-0.7-1-1c-0.3-0.4-0.6-0.7-1-1c-0.3-0.4-0.6-0.7-1-1c-0.3-0.4-0.6-0.7-1-1
			c-0.8-1-1.9-1.7-3.3-2.4c-11.1-4.9-22.1-10-33.1-15c-3.5-1.6-4.4-1-5.3,2.9c0,2.1-1.6,1.6-2.7,1.7c-10.6,0.9-21.2,1.7-31.9,2.5
			c-16.7,1.2-33.4,2.3-50.1,3.5c-1.1-0.6-2.2-1.1-3.3-1.7c-1.4-0.7-2.8-1.2-4,0.3c-1.1,1.3-1.7,2.8-0.3,4.3
			c-0.4,34.6-0.9,69.3-1.3,103.9c-0.6,58.4-1.1,116.7-1.9,175.1c-0.1,7.4,0.7,13.8,5.8,18.4c0.3,0.3,0.6,0.7,1,1
			c0.3,0.3,0.6,0.7,1,1c0.3,0.3,0.6,0.7,1,1c0.3,0.3,0.6,0.7,1,1c0.3,0.3,0.6,0.6,0.9,0.9c0,0,0,0.1-0.1,0.1
			c-5.5,1.8-10.3,0.5-15.5-2c-9.1-4.4-19-5.3-29-4.4c-10,0.9-19.8,2.8-29.8,3.9c-11.1,1.2-21.6,4.2-31.8,8.6
			c-6.8,3-13.1,6.7-18.3,12.1c-6,6.1-8.5,13.4-6.6,21.9c0.4,1.8,0.9,3.7,0.9,5.6c0,4.3,1.7,7.6,4.6,10.3c0.3,0.3,0.6,0.7,1,1
			c0.3,0.3,0.6,0.7,1,1c0.3,0.3,0.6,0.7,1,1c0.3,0.3,0.6,0.7,1,1c0.3,0.3,0.6,0.7,1,1c0.3,0.3,0.6,0.7,1,1c0.1,0.1,0.2,0.3,0.3,0.4
			c-3.5,2.9-4.2,7.4-5.4,11.7c-0.9-0.3-1.6-0.6-2.3-0.8c-11.9-4.8-23.7-9.6-35.6-14.4c-4.7-1.9-9.1,0.3-9.6,4.7
			c-0.3,2.6,0.6,4.3,2.2,5.7c0.3,0.4,0.6,0.7,1,1c0.3,0.4,0.6,0.7,1,1c0.3,0.4,0.6,0.7,1,1c0.3,0.4,0.6,0.7,1,1c0.3,0.4,0.6,0.7,1,1
			c0.3,0.4,0.6,0.7,1,1c0.3,0.4,0.6,0.7,1,1c0.3,0.4,0.6,0.7,1,1c0.3,0.4,0.6,0.7,1,1c0.3,0.4,0.6,0.7,1,1c0.3,0.4,0.6,0.7,1,1
			c0.3,0.4,0.6,0.7,1,1c0.3,0.4,0.6,0.7,1,1c0.3,0.4,0.6,0.7,1,1c0.3,0.4,0.6,0.7,1,1c0.3,0.4,0.6,0.7,1,1c0.3,0.4,0.6,0.7,1,1
			c0.3,0.4,0.6,0.7,1,1c0.3,0.4,0.6,0.7,1,1c0.3,0.4,0.6,0.7,1,1c0.3,0.4,0.6,0.7,1,1c0.3,0.4,0.6,0.7,1,1c0.3,0.4,0.6,0.7,1,1
			c0.3,0.4,0.6,0.7,1,1c0.3,0.4,0.6,0.7,1,1c0.3,0.4,0.6,0.7,1,1c0.3,0.4,0.6,0.7,1,1c0.3,0.4,0.6,0.7,1,1c0.3,0.4,0.6,0.7,1,1
			c0.3,0.4,0.6,0.7,1,1c0.3,0.4,0.6,0.7,1,1c0.3,0.4,0.6,0.7,1,1c0.3,0.4,0.6,0.7,1,1c0.3,0.4,0.6,0.7,1,1c0.3,0.4,0.6,0.7,1,1
			c0.3,0.4,0.6,0.7,1,1c0.3,0.4,0.6,0.7,1,1c0.3,0.4,0.6,0.7,1,1c0.3,0.4,0.6,0.7,1,1c0.3,0.4,0.6,0.7,1,1c0.3,0.4,0.6,0.7,1,1
			c0.3,0.4,0.6,0.7,1,1c0.3,0.4,0.6,0.7,1,1c0.3,0.4,0.6,0.7,1,1c0.3,0.4,0.6,0.7,1,1c0.3,0.4,0.6,0.7,1,1c0.3,0.4,0.6,0.7,1,1
			c0.3,0.4,0.6,0.7,1,1c0.3,0.4,0.6,0.7,1,1c0.3,0.4,0.6,0.7,1,1c0.3,0.4,0.6,0.7,1,1c0.3,0.4,0.6,0.7,1,1c0.3,0.4,0.6,0.7,1,1
			c0.3,0.4,0.6,0.7,1,1c0.3,0.4,0.6,0.7,1,1c0.3,0.4,0.6,0.7,1,1c0.3,0.4,0.6,0.7,1,1c0.3,0.4,0.6,0.7,1,1c0.3,0.4,0.6,0.7,1,1
			c0.3,0.4,0.6,0.7,1,1c0.3,0.4,0.6,0.7,1,1c0.3,0.4,0.6,0.7,1,1c0.3,0.4,0.6,0.7,1,1c0.3,0.4,0.6,0.7,1,1c0.3,0.4,0.6,0.7,1,1
			c0.3,0.4,0.6,0.7,1,1c0.3,0.4,0.6,0.7,1,1c0.3,0.4,0.6,0.7,1,1c0.3,0.4,0.6,0.7,1,1c0.3,0.4,0.6,0.7,1,1c0.3,0.4,0.6,0.7,1,1
			c0.3,0.4,0.6,0.7,1,1c0.3,0.4,0.6,0.7,1,1c0.3,0.4,0.6,0.7,1,1c0.3,0.4,0.6,0.7,1,1c0.3,0.4,0.6,0.7,1,1c0.3,0.4,0.6,0.7,1,1
			c0.3,0.4,0.6,0.7,1,1c0.3,0.4,0.6,0.7,1,1c0.3,0.4,0.6,0.7,1,1c0.3,0.4,0.6,0.7,1,1c0.3,0.4,0.6,0.7,1,1c0.3,0.4,0.6,0.7,1,1
			c0.3,0.4,0.6,0.7,1,1c0.3,0.4,0.6,0.7,1,1c0.3,0.4,0.6,0.7,1,1c0.3,0.4,0.6,0.7,1,1c0.3,0.4,0.6,0.7,1,1c0.3,0.4,0.6,0.7,1,1
			c0.3,0.4,0.6,0.7,1,1c0.3,0.4,0.6,0.7,1,1c0.3,0.4,0.6,0.7,1,1c0.3,0.4,0.6,0.7,1,1c0.3,0.4,0.6,0.7,1,1c0.3,0.4,0.6,0.7,1,1
			c0.3,0.4,0.6,0.7,1,1c0.3,0.4,0.6,0.7,1,1c0.3,0.4,0.6,0.7,1,1c0.3,0.4,0.6,0.7,1,1c0.3,0.4,0.6,0.7,1,1c0.3,0.4,0.6,0.7,1,1
			c0.3,0.4,0.6,0.7,1,1c0.3,0.4,0.6,0.7,1,1c0.3,0.4,0.6,0.7,1,1c0.3,0.4,0.6,0.7,1,1c0.3,0.4,0.6,0.7,1,1c0.3,0.4,0.6,0.7,1,1
			c0.3,0.4,0.6,0.7,1,1c0.3,0.4,0.6,0.7,1,1c0.3,0.4,0.6,0.7,1,1c0.3,0.4,0.6,0.7,1,1c0.3,0.4,0.6,0.7,1,1c0.3,0.4,0.6,0.7,1,1
			c0.3,0.4,0.6,0.7,1,1c0.3,0.4,0.6,0.7,1,1c0.3,0.4,0.6,0.7,1,1c0.3,0.4,0.6,0.7,1,1c0.3,0.4,0.6,0.7,1,1c0.3,0.4,0.6,0.7,1,1
			c0.3,0.4,0.6,0.7,1,1c0.3,0.4,0.6,0.7,1,1c0.3,0.4,0.6,0.7,1,1c0.3,0.4,0.6,0.7,1,1c0.3,0.4,0.6,0.7,1,1c0.3,0.4,0.6,0.7,1,1
			c0.3,0.4,0.6,0.7,1,1c0.3,0.4,0.6,0.7,1,1c0.3,0.4,0.6,0.7,1,1c0.3,0.4,0.6,0.7,1,1c0.3,0.4,0.6,0.7,1,1c0.3,0.4,0.6,0.7,1,1
			c0.3,0.4,0.6,0.7,1,1c0.3,0.4,0.6,0.7,1,1c0.3,0.4,0.6,0.7,1,1c0.3,0.4,0.6,0.7,1,1c0.3,0.4,0.6,0.7,1,1c0.3,0.4,0.6,0.7,1,1
			c0.3,0.4,0.6,0.7,1,1c0.3,0.4,0.6,0.7,1,1c0.3,0.4,0.6,0.7,1,1c0.3,0.4,0.6,0.7,1,1c0.3,0.4,0.6,0.7,1,1c0.3,0.4,0.6,0.7,1,1
			c0.3,0.4,0.6,0.7,1,1c0.3,0.4,0.6,0.7,1,1c0.3,0.4,0.6,0.7,1,1c0.3,0.4,0.6,0.7,1,1c0.3,0.4,0.6,0.7,1,1c0.3,0.4,0.6,0.7,1,1
			c0.3,0.4,0.6,0.7,1,1c0.3,0.4,0.6,0.7,1,1c0.3,0.4,0.6,0.7,1,1c0.3,0.4,0.6,0.7,1,1c0.3,0.4,0.6,0.7,1,1c0.3,0.4,0.6,0.7,1,1
			c0.3,0.4,0.6,0.7,1,1c0.3,0.4,0.6,0.7,1,1c0.3,0.4,0.6,0.7,1,1c0.3,0.4,0.6,0.7,1,1c0.3,0.4,0.6,0.7,1,1c0.3,0.4,0.6,0.7,1,1
			c0.3,0.4,0.6,0.7,1,1c0.3,0.4,0.6,0.7,1,1c0.3,0.4,0.6,0.7,1,1c0.3,0.4,0.6,0.7,1,1c0.3,0.4,0.6,0.7,1,1c0.3,0.4,0.6,0.7,1,1
			c0.3,0.4,0.6,0.7,1,1c0.3,0.4,0.6,0.7,1,1c0.3,0.4,0.6,0.7,1,1c0.3,0.4,0.6,0.7,1,1c0.3,0.4,0.6,0.7,1,1c0.3,0.4,0.6,0.7,1,1
			c0.3,0.4,0.6,0.7,1,1c0.3,0.4,0.6,0.7,1,1c0.3,0.4,0.6,0.7,1,1c0.3,0.4,0.6,0.7,1,1c0.3,0.4,0.6,0.7,1,1c0.3,0.4,0.6,0.7,1,1
			c0.3,0.4,0.6,0.7,1,1c0.3,0.4,0.6,0.7,1,1c0.3,0.4,0.6,0.7,1,1c0.3,0.4,0.6,0.7,1,1c0.3,0.4,0.6,0.7,1,1c0.3,0.4,0.6,0.7,1,1
			c0.3,0.4,0.6,0.7,1,1c0.3,0.4,0.6,0.7,1,1c0.3,0.4,0.6,0.7,1,1c0.3,0.4,0.6,0.7,1,1c0.3,0.4,0.6,0.7,1,1c0.3,0.4,0.6,0.7,1,1
			c0.3,0.4,0.6,0.7,1,1c0.3,0.4,0.6,0.7,1,1c0.3,0.4,0.6,0.7,1,1c0.3,0.4,0.6,0.7,1,1c0.3,0.4,0.6,0.7,1,1c0.3,0.4,0.6,0.7,1,1
			c0.3,0.4,0.6,0.7,1,1c0.3,0.4,0.6,0.7,1,1c0.3,0.4,0.6,0.7,1,1c0.3,0.4,0.6,0.7,1,1c0.3,0.4,0.6,0.7,1,1c0.3,0.4,0.6,0.7,1,1
			c0.3,0.4,0.6,0.7,1,1c0.3,0.4,0.6,0.7,1,1c0.3,0.4,0.6,0.7,1,1c0.3,0.4,0.6,0.7,1,1c0.3,0.4,0.6,0.7,1,1c0.3,0.4,0.6,0.7,1,1
			c0.3,0.4,0.6,0.7,1,1c0.3,0.4,0.6,0.7,1,1c0.3,0.4,0.6,0.7,1,1c0.3,0.4,0.6,0.7,1,1c0.3,0.4,0.6,0.7,1,1c0.3,0.4,0.6,0.7,1,1
			c0.3,0.4,0.6,0.7,1,1c0.3,0.4,0.6,0.7,1,1c0.3,0.4,0.6,0.7,1,1c0.3,0.4,0.6,0.7,1,1c0.3,0.4,0.6,0.7,1,1c0.3,0.4,0.6,0.7,1,1
			c0.3,0.4,0.6,0.7,1,1c0.3,0.4,0.6,0.7,1,1c0.3,0.4,0.6,0.7,1,1c0.3,0.4,0.6,0.7,1,1c0.3,0.4,0.6,0.7,1,1c0.3,0.4,0.6,0.7,1,1
			c0.3,0.4,0.6,0.7,1,1c0.3,0.4,0.6,0.7,1,1c0.3,0.4,0.6,0.7,1,1c0.3,0.4,0.6,0.7,1,1c0.3,0.4,0.6,0.7,1,1c0.3,0.4,0.6,0.7,1,1
			c0.3,0.4,0.6,0.7,1,1c0.3,0.4,0.6,0.7,1,1c0.3,0.4,0.6,0.7,1,1c0.3,0.4,0.6,0.7,1,1c0.3,0.4,0.6,0.7,1,1c0.3,0.4,0.6,0.7,1,1
			c0.3,0.4,0.6,0.7,1,1c0.3,0.4,0.6,0.7,1,1c0.3,0.4,0.6,0.7,1,1c0.3,0.4,0.6,0.7,1,1c0.3,0.4,0.6,0.7,1,1c0.3,0.4,0.6,0.7,1,1
			c0.3,0.4,0.6,0.7,1,1c0.3,0.4,0.6,0.7,1,1c0.3,0.4,0.6,0.7,1,1c0.3,0.4,0.6,0.7,1,1c0.3,0.4,0.6,0.7,1,1c0.3,0.4,0.6,0.7,1,1
			c0.3,0.4,0.6,0.7,1,1c0.3,0.4,0.6,0.7,1,1c0.3,0.4,0.6,0.7,1,1c0.3,0.4,0.6,0.7,1,1c0.3,0.4,0.6,0.7,1,1c0.3,0.4,0.6,0.7,1,1
			c0.3,0.4,0.6,0.7,1,1c0.3,0.4,0.6,0.7,1,1c0.3,0.4,0.6,0.7,1,1c0.3,0.4,0.6,0.7,1,1c0.3,0.4,0.6,0.7,1,1c0.3,0.4,0.6,0.7,1,1
			c0.3,0.4,0.6,0.7,1,1c0.3,0.4,0.6,0.7,1,1c0.3,0.4,0.6,0.7,1,1c0.3,0.4,0.6,0.7,1,1c0.3,0.4,0.6,0.7,1,1c0.3,0.4,0.6,0.7,1,1
			c0.3,0.4,0.6,0.7,1,1c0.3,0.4,0.6,0.7,1,1c0.3,0.4,0.6,0.7,1,1c0.3,0.4,0.6,0.7,1,1c0.3,0.4,0.6,0.7,1,1c0.3,0.4,0.6,0.7,1,1
			c0.3,0.4,0.6,0.7,1,1c0.3,0.4,0.6,0.7,1,1c0.3,0.4,0.6,0.7,1,1c0.3,0.4,0.6,0.7,1,1c0.3,0.4,0.6,0.7,1,1c0.3,0.4,0.6,0.7,1,1
			c0.3,0.4,0.6,0.7,1,1c0.3,0.4,0.6,0.7,1,1c0.3,0.4,0.6,0.7,1,1c0.3,0.4,0.6,0.7,1,1c0.3,0.4,0.6,0.7,1,1c0.3,0.4,0.6,0.7,1,1
			c0.3,0.4,0.6,0.7,1,1c0.3,0.4,0.6,0.7,1,1c0.3,0.4,0.6,0.7,1,1c0.3,0.4,0.6,0.7,1,1c0.3,0.4,0.6,0.7,1,1c0.3,0.4,0.6,0.7,1,1
			c0.3,0.4,0.6,0.7,1,1c0.3,0.4,0.6,0.7,1,1c0.3,0.4,0.6,0.7,1,1c0.3,0.4,0.6,0.7,1,1c0.3,0.4,0.6,0.7,1,1c0.3,0.4,0.6,0.7,1,1
			c0.9,1.2,2.4,2,4,2.7c19.3,7.8,38.5,15.6,57.7,23.4c0.2,0.1,0.4,0.1,0.6,0.2c0.2,0.3,0.5,0.5,0.8,0.7c0.3,0.4,0.6,0.7,1,1
			c0.3,0.4,0.6,0.7,1,1c0.3,0.4,0.6,0.7,1,1c0.3,0.4,0.6,0.7,1,1c1.1,1.3,2.7,2.2,4.7,2.9c42.7,14.1,85.3,28.4,128,42.6
			c17.8,5.9,35.6,11.7,53.4,17.6c4,2,7.6,0.7,10.4-2.1c6.4-6.4,8.6-14.2,6.2-23.1c-0.6-2.2-1.5-3.8-2.8-4.8c-0.3-0.4-0.6-0.7-1-1
			c-0.3-0.4-0.6-0.7-1-1c-0.3-0.4-0.6-0.7-1-1c-0.3-0.4-0.6-0.7-1-1c-0.3-0.4-0.6-0.7-1-1c-0.3-0.4-0.6-0.7-1-1
			c-0.3-0.4-0.6-0.7-1-1c-0.3-0.4-0.6-0.7-1-1c-0.3-0.4-0.6-0.7-1-1c-0.3-0.4-0.6-0.7-1-1c-0.3-0.4-0.6-0.7-1-1
			c-0.3-0.4-0.6-0.7-1-1c-0.3-0.4-0.6-0.7-1-1c-0.3-0.4-0.6-0.7-1-1c-0.3-0.4-0.6-0.7-1-1c-0.3-0.4-0.6-0.7-1-1
			c-0.3-0.4-0.6-0.7-1-1c-0.3-0.4-0.6-0.7-1-1c-0.3-0.4-0.6-0.7-1-1c-0.3-0.4-0.6-0.7-1-1c-0.3-0.4-0.6-0.7-1-1
			c-0.3-0.4-0.6-0.7-1-1c-0.3-0.4-0.6-0.7-1-1c-0.3-0.4-0.6-0.7-1-1c-0.3-0.4-0.6-0.7-1-1c-0.3-0.4-0.6-0.7-1-1
			c-0.3-0.4-0.6-0.7-1-1c-0.3-0.4-0.6-0.7-1-1c-0.3-0.4-0.6-0.7-1-1c-0.3-0.4-0.6-0.7-1-1c-0.3-0.4-0.6-0.7-1-1
			c-0.3-0.4-0.6-0.7-1-1c-0.3-0.4-0.6-0.7-1-1c-0.3-0.4-0.6-0.7-1-1c-0.3-0.4-0.6-0.7-1-1c-0.3-0.4-0.6-0.7-1-1
			c-0.3-0.4-0.6-0.7-1-1c-0.3-0.4-0.6-0.7-1-1c-0.3-0.4-0.6-0.7-1-1c-0.3-0.4-0.6-0.7-1-1c-0.3-0.4-0.6-0.7-1-1
			c-0.3-0.4-0.6-0.7-1-1c-0.3-0.4-0.6-0.7-1-1c-0.3-0.4-0.6-0.7-1-1c-0.3-0.4-0.6-0.7-1-1c-0.3-0.4-0.6-0.7-1-1
			c-0.3-0.4-0.6-0.7-1-1c-0.3-0.4-0.6-0.7-1-1c-0.3-0.4-0.6-0.7-1-1c-0.3-0.4-0.6-0.7-1-1c-0.3-0.4-0.6-0.7-1-1
			c-0.3-0.4-0.6-0.7-1-1c-0.3-0.4-0.6-0.7-1-1c-0.3-0.4-0.6-0.7-1-1c-0.3-0.4-0.6-0.7-1-1c-0.3-0.4-0.6-0.7-1-1
			c-0.3-0.4-0.6-0.7-1-1c-0.3-0.4-0.6-0.7-1-1c-0.3-0.4-0.6-0.7-1-1c-0.3-0.4-0.6-0.7-1-1c-0.3-0.4-0.6-0.7-1-1
			c-0.3-0.4-0.6-0.7-1-1c-0.3-0.4-0.6-0.7-1-1c-0.3-0.4-0.6-0.7-1-1c-0.3-0.4-0.6-0.7-1-1c-0.3-0.4-0.6-0.7-1-1
			c-0.3-0.4-0.6-0.7-1-1c-0.3-0.4-0.6-0.7-1-1c-0.3-0.4-0.6-0.7-1-1c-0.3-0.4-0.6-0.7-1-1c-0.3-0.4-0.6-0.7-1-1
			c-0.3-0.4-0.6-0.7-1-1c-0.3-0.4-0.6-0.7-1-1c-0.3-0.4-0.6-0.7-1-1c-0.2-0.2-0.3-0.4-0.5-0.5c0.3-0.1,0.6-0.3,0.9-0.4
			c10.3-5.3,15.7-18.3,5.8-27.5c-0.3-0.3-0.6-0.7-1-1c-0.3-0.3-0.6-0.7-1-1c-0.3-0.3-0.6-0.7-1-1c-0.3-0.3-0.6-0.7-1-1
			c-0.3-0.3-0.6-0.7-1-1c-0.3-0.3-0.6-0.7-1-1c-0.3-0.3-0.6-0.7-1-1c-0.3-0.3-0.6-0.7-1-1c-0.3-0.3-0.6-0.7-1-1
			c-0.2-0.2-0.4-0.4-0.5-0.6c-1-1.7-2.2-3.1-3.6-4.4c-0.3-0.3-0.7-0.7-1-1c-0.3-0.3-0.7-0.7-1-1c-0.3-0.3-0.7-0.7-1-1
			c-0.3-0.3-0.7-0.7-1-1c-0.3-0.3-0.7-0.7-1-1c-0.3-0.3-0.7-0.7-1-1c-0.3-0.3-0.7-0.7-1-1c-0.3-0.3-0.7-0.7-1-1
			c-0.3-0.3-0.7-0.7-1-1c-0.3-0.3-0.7-0.7-1-1c-0.3-0.3-0.7-0.7-1-1c-0.3-0.3-0.7-0.7-1-1c-0.3-0.3-0.7-0.7-1-1
			c-0.2-0.2-0.3-0.3-0.5-0.5c0.5-0.2,0.9-0.4,1.3-0.7c1.1,0,1.8,0.8,2.6,1.4c7.8,6.1,15.7,12.2,23.5,18.3c1.1,0.8,2,1.9,3.6,1.9
			c1.4,1.1,2.9,0.6,4.4,0.4c27.1-3.9,54.1-7.9,81.2-11.9c5.6-0.8,8.2-3.8,8.2-9.5c0.2-19.8,0.3-39.6,0.4-59.4
			c0.3-54.3,0.6-108.6,0.8-162.9c0.1-24.4,0.1-48.7,0.1-73.1C850.3,480.8,849.4,478.7,847.6,477.3z"/>
	</g>
</g>
<g>
	<path class="st2" d="M550,183.6c0,24.4,0,48.7-0.1,73.1c-0.2,54.3-0.5,108.6-0.8,162.9c-0.1,19.8-0.3,39.6-0.4,59.4
		c0,5.7-2.6,8.7-8.2,9.5c-27.1,4-54.1,8-81.2,11.9c-1.5,0.2-3,0.6-4.4-0.4c-0.5-3.3,0.4-6.5,0.4-9.8c-0.1-94.7-0.1-189.3,0-284
		c0-3.8-1.1-7.6-0.3-11.4c0.4-1,1.1-1.6,2.1-2c7.3-1.7,14.8-1.9,22.2-2.6c14.7-1.5,29.5-2.9,44.2-4.3c7.7-0.7,15.3-1.7,23.1-1.8
		C547.7,184.1,548.8,183.3,550,183.6z"/>
	<path class="st3" d="M455.6,194.2c1.7,99.5,0.3,198.9,0.8,298.4c0,2.6-0.2,5.1-1.6,7.3c-1.5,0-2.5-1-3.6-1.9
		c-7.8-6.1-15.7-12.2-23.5-18.3c-0.8-0.6-1.5-1.3-2.6-1.4c-1.1-0.4-2.5-0.3-3.2-1.5c1.2-1.2,0.1-1.8-0.8-2.2
		c-8.7-4.6-9.9-12.2-9.8-21.2c0.8-58.4,1.3-116.7,1.9-175.1c0.4-34.6,0.9-69.3,1.3-103.9c1.8-0.4,3.2,0.6,4.6,1.3
		c11.1,5.5,22.3,10.9,33.4,16.3C453.7,192.6,455,193,455.6,194.2z"/>
	<path class="st2" d="M504.4,639c-17.8-5.8-35.6-11.6-53.4-17.6c-42.7-14.2-85.3-28.4-128-42.6c-3.5-1.2-5.9-2.9-6.1-6.8
		c-1.2-1.4-0.7-2.9-0.3-4.3c1.5-5.5,3.3-10.9,5.4-16.2c1-2.6,2.6-4.9,5.4-6.1c1.5-0.4,3-0.4,4.5,0.2c6.4,2.4,13.1,2.7,19.8,2.5
		c2,0,4.1-0.5,5.8,1.1c0,0.5-0.2,1.1-0.8,1.2c-4.2,0.5-8.4,0.6-12.6,0c4.2,0.7,8.4,0.3,12.7,0.3c1.4,0,2.8-0.4,3.8,0.9
		c-3.2,1.2-6.5,0.3-10.1,0.9c1.4,1.3,3.1,1.5,4.6,2c51.3,17.1,102.6,34.2,153.9,51.2c1.1,0.4,2.1,0.9,3.1,1.3
		c-0.2,1-1.1,1.3-1.8,1.8c-9.5,6.7-12.1,17.7-6.5,28C504.2,637.6,504.7,638.2,504.4,639z"/>
	<path class="st4" d="M360.6,551.6c-5.6-0.7-11.4,0.9-17.6-1.3c5.2-1,9.9,0.6,14.4-1.1c2.4-1.9,5.4-1.7,8.2-1.9
		c3-0.2,5.9-0.5,8.8-1.2c1.8,0.1,3.5-0.1,5.2-0.7c0.5-0.1,0.9-0.1,1.4-0.1c-1.1-0.1-2.1,0.1-3.1,0.4c-2.1,0.7-4.4-0.2-6.5,0.9
		c-1.5,0.2-3.1,0.1-4.6,0.4c-4.8,0.1-9.5,0-14.3,0.1c-8.1-0.8-16.2-1.2-24.3-2.4c-1.7-0.2-1.8,0.2-1.5,1.5
		c-6.3,7.4-7.8,16.7-9.9,25.7c-1.3-0.3-2.8-0.5-4-1c-19.3-7.8-38.5-15.6-57.7-23.4c-3.4-1.4-5.6-3.5-5.2-7.4
		c0.5-4.4,4.9-6.6,9.6-4.7c11.9,4.7,23.7,9.6,35.6,14.4c0.7,0.3,1.4,0.5,2.3,0.8c1.3-4.7,2-9.7,6.7-12.6c-1.6-1.9-3.7-2.5-5.5-3.7
		c-4.3-2.9-6.8-6.7-6.8-12c0-1.9-0.5-3.8-0.9-5.6c-1.9-8.5,0.6-15.8,6.6-21.9c5.2-5.3,11.5-9.1,18.3-12.1
		c10.1-4.5,20.7-7.5,31.8-8.6c9.9-1,19.8-2.9,29.8-3.9c9.9-0.9,19.9,0,29,4.4c5.2,2.5,10,3.7,15.5,2c1.3,0.1,2.6,0.1,3.2,1.5
		c-1.8,1.3-4,1.3-6.7,2.4c4.4,2.5,8.1,4.7,11.9,6.8c5.2,3,9.9,6.7,12.1,12.6c0.6,1.6,2,2.3,3.3,3c15.8,9,10.6,24.9-1.1,30.9
		c-7.4,3.8-15.3,6.3-23.5,7.2c-15,1.7-29.7,4.6-44.3,8.4C371.5,551,366.1,551.7,360.6,551.6z"/>
	<path class="st3" d="M547.8,185.1c-11,0.4-21.9,1.6-32.7,2.9c-6.1,0.7-12.3,1.1-18.4,1.7c-9.6,0.9-19.3,2-28.9,2.9
		c-3.5,0.3-7,0.6-10.6,0.9c-0.9-5.8-5.3-7.9-10.2-9.8c-7.5-2.9-14.7-6.8-22.1-9.9c-1.1-0.4-2.6-0.6-2.7-2.3
		c16.7-1.2,33.4-2.3,50.1-3.5c10.6-0.8,21.3-1.6,31.9-2.5c1.1-0.1,2.7,0.4,2.7-1.7c3.5,1,6.2,3.4,9.3,4.9
		c9.8,4.8,19.7,9.3,29.5,14.2C546.5,183.4,548,183.4,547.8,185.1z"/>
	<path class="st4" d="M504.4,639c-9.6-9.3-2.9-28.8,7.8-32c5,0.4,7.6,2.1,8.9,6.8c2.3,8.8,0.2,16.6-6.2,23.1
		C512,639.8,508.4,641,504.4,639z"/>
	<path class="st5" d="M422.1,171.5c9.4,4.2,18.8,8.4,28.3,12.5c4.3,1.8,7.6,4.1,6.7,9.5c-0.5,0.3-1,0.5-1.5,0.8
		c-8.2-3.8-16.4-7.6-24.6-11.5c-5.6-2.7-11-5.5-16.5-8.3c-1.5-1.5-0.8-3,0.3-4.3c1.2-1.5,2.6-1,4-0.3
		C419.9,170.4,421,170.9,422.1,171.5z"/>
	<path class="st5" d="M547.8,185.1c-11.1-5.4-22.3-10.6-33.3-16.1c-2.7-1.4-5.8-2.5-7.7-5.2c0.9-4,1.8-4.5,5.3-2.9
		c11,5,22,10.1,33.1,15c3.5,1.5,5.1,3.9,4.7,7.7C549.3,184.1,549,185.2,547.8,185.1z"/>
	<path class="st6" d="M464.9,316.2c0.4-25.9,0.9-51.7,1.2-77.6c0-2.4,0.7-3.2,3.2-3.4c23.9-1.6,47.8-3.3,71.6-5.2
		c2.9-0.2,3.9,0.4,3.8,3.6c-0.9,27.5-1.7,55-2.5,82.5c-0.2,5.4-0.5,5.5-5.8,6c-18.3,1.9-36.5,3.9-54.8,5.9c-4.8,0.5-9.6,1-14.3,1.6
		c-2,0.3-2.7-0.4-2.6-2.4c0.1-3.7,0-7.4,0-11C464.8,316.2,464.9,316.2,464.9,316.2z"/>
	<path class="st7" d="M474.7,456.4c18.1-2.1,36.2-4.1,54.3-6.3c3.7-0.4,5.6,0.1,5.4,4.5c-0.1,4.4,0.6,8.8,1.1,13.2
		c0.3,2.3,0.1,3.6-2.9,3.9c-15.8,1.8-31.6,3.9-47.4,5.9c-4,0.5-8,0.9-12,1.3c-1.7-0.8-1.8-2.3-1.8-3.8c-0.1-4.9,0-9.8,0-14.7
		C471.3,458,472.2,456.6,474.7,456.4z"/>
	<path class="st8" d="M504.4,207.3c2.7-0.3,5.4-0.4,7.6,1.5c0.6,0.6,0.6,1.5,0.2,2.1c-2.3,3.4-3.6,7.3-6.2,10.5
		c-1,0.8-1.3,2.3-2.7,2.7c-4.1-1.4-6-4.4-5.9-8.7C497.6,211,500.1,208.4,504.4,207.3z"/>
	<path class="st9" d="M505.1,220.9c2.8-3.8,4.8-8,7-12.1c3.7,2.9,4.8,6.3,3.3,10.3c-1.6,4.2-4.8,5.8-10.9,5.5
		c-0.3-0.2-0.4-0.5-0.4-0.9C504.4,222.8,504.8,221.9,505.1,220.9z"/>
	<path class="st10" d="M474.7,456.4c-0.6,0.8-2.2,0.5-2.2,1.8c0.2,6.9-0.9,13.9,0.7,20.7c-1.6,0.3-2.8,0.1-2.8-1.9
		c-0.1-6.1-0.2-12.2-0.2-18.2C470.2,455.6,472.8,456.5,474.7,456.4z"/>
	<path class="st11" d="M504.4,223.9c0,0.2,0,0.4,0,0.6c-5.1-0.7-8.3-3.9-8.4-8.4c-0.1-4.8,3.1-8.1,8.3-8.8
		c-6.1,3.8-7.6,8.1-4.7,13.3c0.9,1.7,2.3,2.6,3.9,3.3C503.9,223.5,504.1,223.5,504.4,223.9z"/>
	<path class="st12" d="M367.3,546.3c1.5-0.1,3-0.1,4.5-0.2c1.1-0.1,2.6-1.2,3.1,0.8c-5.7,1.5-11.7,1.6-17.5,2.4
		c-9-0.1-18.1,0.6-26.8-2.9c-1.1-0.4-2.5,0-3.7,0c-0.7-1-1.5-2-2.1-2.9c9,0.9,18.1,1.8,27.3,2.8
		C357.1,546.8,362.2,546.8,367.3,546.3z"/>
	<path class="st12" d="M383,537.1c-19.8-0.3-35.6-2.2-51.1-6.8c-0.5-0.1-1-0.3-1.5-0.4c-11.6-4-14.8-16.1-6.6-25.4
		c4.6-5.2,10-9.2,16.9-11.1c12.1-3.3,24.3-6.4,36.8-7.9c3.1-0.4,6,0.5,9,1.2c12.8,2.7,25.5,5.8,37.9,9.8c7.6,2.4,10.5,8.1,8.1,15.7
		c-3.4,10.9-9.7,18.1-21.5,20.6C400.5,534.9,390.1,537.3,383,537.1z"/>
	<path class="st12" d="M373.5,540.1c-0.6,1.3-2,1-3,1.1c-9.9,0.5-19.7,1.6-29.6,0.6c-6.8-0.7-13.2-2.6-19.1-6
		c-10.2-5.7-13.9-17.3-9.7-28.2c3.6-9.3,9.5-15.4,19.3-18.1c8.3-2.3,16.5-4.9,25.1-5.8c2.5-0.4,5-0.6,7.5,0.1
		c-0.6,1.5-2.1,1.2-3.2,1.5c-6.8,1.7-13.5,3.5-20.3,5.1c-7.6,1.8-13.6,6.2-18.7,11.8c-5.1,5.6-6.2,12.5-4.7,19.6
		c1.1,5.3,5.3,8.2,10.1,10c9.6,3.6,19.6,5.3,29.6,6.7c3.9,0.5,7.8,0.6,11.8,0.9C370.2,540.2,372,539.2,373.5,540.1z"/>
	<path class="st12" d="M317.7,538.6c-8.9-1.8-16.6-5.2-20.9-14c-1.5-3.1-1.6-5.6,0.1-8.6c2.8-4.8,6.5-8.7,10.7-12.3
		c0.7-0.5,1.4-1.5,2.3-0.8c0.8,0.6,0.3,1.7,0,2.5c-2.2,5.3-3.1,10.7-1.8,16.4c1.5,6.9,5.5,12.2,11.3,16
		C319.3,539.2,318.5,539,317.7,538.6z"/>
	<path class="st12" d="M294,514.5c-1.2-5.8,0.2-10.9,3.9-15.3c6.5-7.8,15.3-12,24.9-15.9C315.7,496.5,301.1,501.9,294,514.5z"/>
	<path class="st12" d="M429.7,534.8c4-1.9,8.1-3.6,11.4-6.7c6.1-5.7,7.1-12.1,3.3-21.2c5.4,1,9.2,7.3,7.8,13.3
		c-1,4.3-3.6,7.5-7.2,9.9c-4.2,2.8-8.8,4.4-13.7,5.5C430.7,535.8,429.7,536.3,429.7,534.8z"/>
	<path class="st12" d="M335.3,483.7c12.9-7.8,26.9-6.9,41-4.9c3.3,0.5,6.7,0.6,10.1,2.2c-4.3,1.4-8.3,1.1-12.3,0.5
		c-12.6-1.9-25-0.6-37.1,3.1C336.1,484.8,335.2,485.2,335.3,483.7z"/>
	<path class="st12" d="M407.7,478.8c-12.2,3.2-23.1-3.9-34.8-4.4C384.9,472.2,396.6,473.3,407.7,478.8z"/>
	<path class="st12" d="M419.9,533.4c2.6-1.3,5.2-2.5,7.8-3.9c3.4-1.8,6.4-4,9-6.9c2.4-2.7,3.8-6.1,5.9-9.6c2.1,4,1.1,7.1-1,10.1
		c-2.9,4.2-7.2,6.6-11.9,8.4c-2.7,1-5.5,1.8-8.3,2.6C420.7,534.4,419.9,534.7,419.9,533.4z"/>
	<path class="st12" d="M437.2,497.9c-9.7-5.6-19.2-11.5-30.5-15c4.3-1.8,7.6-1.3,10.9,0.8c5.2,3.2,10.7,5.7,15.6,9.3
		C434.9,494.2,436.5,495.6,437.2,497.9z"/>
	<path class="st12" d="M436.1,502.3c2.2,1.8,5.1,3.1,4.3,6.6c-1.3,5.5-3.9,10.3-8.5,13.8C434.1,516,438.2,509.9,436.1,502.3z"/>
	<path class="st12" d="M410.5,489.2c-6.4-1.5-12.7-3-19.1-4.5c7.5-1.9,14.1,1.3,20.8,3.7C412.2,489.9,411.2,489.3,410.5,489.2z"/>
	<path class="st7" d="M506.6,301.5c-6-1.9-11.6-4.6-17.8-6c-6-1.3-8.1-6.5-8.7-12.1c-1-10,5.4-21.1,14.4-25.7
		c5.7-2.9,12.3-2.9,17.5,3.5c3.7,4.6,8.6,8.1,13,12.1c-0.7,0.9-1.8,0.8-2.8,1c-12.5,1.6-19.3,12-15.7,23.9
		C506.9,299.4,507.6,300.5,506.6,301.5z"/>
	<path class="st13" d="M506.6,301.5c-2.7-6.1-3.2-12.1,0.3-18.1c4.1-7.1,10-10.5,18.2-9.9c6,2.7,9.5,7.2,9,13.9
		c-0.6,7.8-4.2,13.7-11.5,17.5C516.2,308.1,511.3,305.7,506.6,301.5z"/>
	<path class="st14" d="M504.4,223.9c-0.3,0-0.5,0-0.8,0c0.1-1.2,0.6-2.2,1.5-3C505.6,222.1,505,223,504.4,223.9z"/>
	<path class="st15" d="M523.5,290c-0.3,2.9-1.6,4.6-4.2,4.7c-2.8,0.1-3.9-2.1-4.2-4.4c-0.3-2.7,1.3-4.3,3.9-4.6
		C522.2,285.4,522.8,288,523.5,290z"/>
	<path class="st16" d="M520.1,290.9c0,1-0.7,0.6-1.1,0.7c-0.7,0.1-0.8-0.4-0.7-1c0.1-0.5,0.6-1,1-0.8
		C519.6,289.9,519.8,290.6,520.1,290.9z"/>
</g>
</svg>
