<?xml version="1.0" encoding="utf-8"?>
<!-- Generator: Adobe Illustrator 23.0.0, SVG Export Plug-In . SVG Version: 6.00 Build 0)  -->
<svg version="1.1" id="Layer_1" xmlns="http://www.w3.org/2000/svg" xmlns:xlink="http://www.w3.org/1999/xlink" x="0px" y="0px"
	 viewBox="0 0 800 800" style="enable-background:new 0 0 800 800;" xml:space="preserve">
<style type="text/css">
	.st0{fill:#333333;}
	.st1{opacity:0.4;clip-path:url(#SVGID_2_);}
	.st2{fill:#EAA926;}
	.st3{fill:#707273;}
	.st4{fill:#FFFEF4;}
	.st5{fill:#12A65A;}
	.st6{fill:#4C73B2;}
	.st7{fill:#FFCF5B;}
</style>
<circle class="st0" cx="400" cy="400" r="400"/>
<g>
	<defs>
		<circle id="SVGID_1_" cx="400" cy="400" r="400"/>
	</defs>
	<clipPath id="SVGID_2_">
		<use xlink:href="#SVGID_1_"  style="overflow:visible;"/>
	</clipPath>
	<path class="st1" d="M852.6,591.1c-0.3-0.4-0.6-0.7-1-1c-0.3-0.4-0.6-0.7-1-1c-0.3-0.4-0.6-0.7-1-1c-0.3-0.4-0.6-0.7-1-1
		c-0.3-0.4-0.6-0.7-1-1c-0.3-0.4-0.6-0.7-1-1c-0.3-0.4-0.6-0.7-1-1c-0.3-0.4-0.6-0.7-1-1c-0.3-0.4-0.6-0.7-1-1c-0.3-0.4-0.6-0.7-1-1
		c-0.3-0.4-0.6-0.7-1-1c-0.3-0.4-0.6-0.7-1-1c-0.3-0.4-0.6-0.7-1-1c-0.3-0.4-0.6-0.7-1-1c-0.3-0.4-0.6-0.7-1-1c-0.3-0.4-0.6-0.7-1-1
		c-0.3-0.4-0.6-0.7-1-1c-0.3-0.4-0.6-0.7-1-1c-0.3-0.4-0.6-0.7-1-1c-0.3-0.4-0.6-0.7-1-1c-0.3-0.4-0.6-0.7-1-1c-0.3-0.4-0.6-0.7-1-1
		c-0.1-0.1-0.2-0.2-0.3-0.3v-43.6c0-4.4-2-8.3-5-11.1c-0.3-0.3-0.7-0.7-1-1c-0.3-0.3-0.7-0.7-1-1c-0.3-0.3-0.7-0.7-1-1
		c-0.3-0.3-0.7-0.7-1-1c-0.3-0.3-0.7-0.7-1-1c-0.3-0.3-0.7-0.7-1-1c-0.3-0.3-0.7-0.7-1-1c-0.3-0.3-0.7-0.7-1-1c-0.3-0.3-0.7-0.7-1-1
		c-0.3-0.3-0.7-0.7-1-1c-0.2-0.2-0.3-0.4-0.5-0.5V400.1h-1v-1h-1v-1h-1v-1h-1v-1h-1v-1h-1v-1h-1v-1h-0.7V378h-1v-1h-1v-1h-1v-1h-1
		v-1h-1v-1h-1v-1h-1v-1h-1v-1h-1v-1h-1v-1h-1v-1h-1v-1h-1v-1h-1v-1h-1v-1h-1v-1h-1v-1h-1v-1h-1v-1h-1v-1h-1v-1h-1v-1h-1v-1h-1v-1h-1
		v-1h-1v-1h-1v-1h-1v-1h-1v-1h-1v-1h-1v-1h-1v-1h-1v-1h-1v-1h-1v-1h-1v-1h-1v-1h-1v-1h-1v-1h-1v-1h-1v-1h-1v-1h-1v-1h-1v-1h-1v-1h-1
		v-1h-1v-1h-1v-1h-1v-1h-1v-1h-1v-1h-1v-1h-1v-1h-1v-1h-1v-1h-1v-1h-1v-1h-1v-1h-1v-1h-1v-1h-1v-1h-1v-1h-1v-1h-1v-1h-1v-1h-1v-1h-1
		v-1h-1v-1h-1v-1h-1v-1h-1v-1h-1v-1h-1v-1h-1v-1h-1v-1h-1v-1h-1v-1h-1v-1h-1v-1h-1v-1h-1v-1h-1v-1h-1v-1h-1v-1h-1v-1h-1v-1h-1v-1h-1
		v-1h-1v-1h-1v-1h-1v-1h-1v-1h-1v-1h-1v-1h-1v-1h-1v-1h-1v-1h-1v-1h-1v-1h-1v-1h-1v-1h-1v-1h-1v-1h-1v-1h-1v-1h-1v-1h-1v-1h-1v-1h-1
		v-1h-1v-1h-1v-1h-1v-1h-1v-1h-1v-1h-1v-1h-1v-1h-1v-1h-1v-1h-1v-1h-1v-1h-1v-1h-1v-1h-1v-1h-1v-1h-1v-1h-1v-1h-1v-1h-1v-1h-1v-1h-1
		v-1h-1v-1h-1v-1h-1v-1h-1v-1h-1v-1h-1v-1h-1v-1h-1v-1h-1v-1h-1v-1h-1v-1h-1v-1h-1v-1h-1v-1h-1v-1h-1v-1h-1v-1h-1v-1h-1v-1h-1v-1h-1
		v-1h-1v-1h-1v-1h-1v-1h-1v-1h-1v-1h-1v-1h-1v-1h-1v-1h-1v-1h-1v-1h-1v-1h-1v-1h-1v-1h-1v-1h-1v-1h-1v-1h-1v-1h-1v-1h-1v-1h-1v-1h-1
		v-1h-1v-1h-1v-1h-1v-1h-1v-1h-1v-1h-1v-1h-1v-1h-1v-1h-1v-1h-1v-1h-1v-1h-1v-1h-1v-1h-1v-1h-1v-1h-1v-1h-1v-1h-1v-1h-1v-1h-1v-1h-1
		v-1h-1v-1h-1v-1h-1v-1h-1v-1h-1v-1h-1v-1h-1v-1h-1v-1h-1v-1h-1v-1h-1v-1h-1v-1h-1v-1h-1v-1h-1v-1h-1v-1h-1v-1h-1v-1h-1v-1h-1v-1h-1
		v-1h-1v-1h-1v-1h-1v-1h-1v-1H175.9v71.3h-0.7c-8.3,0-15.1,6.7-15.1,15.1v371.5c0.3,0,0.7,0,1,0v1c0.3,0,0.7,0,1,0v1
		c0.3,0,0.6,0,0.9,0l-0.7,2.9c-1.4,5.3,0.4,10.6,4.1,13.9c0.3,0.4,0.7,0.7,1,1c0.3,0.4,0.7,0.7,1,1c0.3,0.4,0.7,0.7,1,1
		c0.3,0.4,0.7,0.7,1,1c0.3,0.4,0.7,0.7,1,1c0.3,0.4,0.7,0.7,1,1c0.3,0.4,0.7,0.7,1,1c0.3,0.4,0.7,0.7,1,1c0.3,0.4,0.7,0.7,1,1
		c0.3,0.4,0.7,0.7,1,1c0.3,0.4,0.7,0.7,1,1c0.3,0.4,0.7,0.7,1,1c0.3,0.4,0.7,0.7,1,1c0.3,0.4,0.7,0.7,1,1c0.3,0.4,0.7,0.7,1,1
		c0.3,0.4,0.7,0.7,1,1c0.3,0.4,0.7,0.7,1,1c0.3,0.4,0.7,0.7,1,1c0.3,0.4,0.7,0.7,1,1c0.3,0.4,0.7,0.7,1,1c0.3,0.4,0.7,0.7,1,1
		c0.3,0.4,0.7,0.7,1,1c0.3,0.4,0.7,0.7,1,1c0.3,0.4,0.7,0.7,1,1c0.3,0.4,0.7,0.7,1,1c0.3,0.4,0.7,0.7,1,1c0.3,0.4,0.7,0.7,1,1
		c0.3,0.4,0.7,0.7,1,1c0.3,0.4,0.7,0.7,1,1c0.3,0.4,0.7,0.7,1,1c0.3,0.4,0.7,0.7,1,1c0.3,0.4,0.7,0.7,1,1c0.3,0.4,0.7,0.7,1,1
		c0.3,0.4,0.7,0.7,1,1c0.3,0.4,0.7,0.7,1,1c0.3,0.4,0.7,0.7,1,1c0.3,0.4,0.7,0.7,1,1c0.3,0.4,0.7,0.7,1,1c0.3,0.4,0.7,0.7,1,1
		c0.3,0.4,0.7,0.7,1,1c0.3,0.4,0.7,0.7,1,1c0.3,0.4,0.7,0.7,1,1c0.3,0.4,0.7,0.7,1,1c0.3,0.4,0.7,0.7,1,1c0.3,0.4,0.7,0.7,1,1
		c0.3,0.4,0.7,0.7,1,1c0.3,0.4,0.7,0.7,1,1c0.3,0.4,0.7,0.7,1,1c0.3,0.4,0.7,0.7,1,1c0.3,0.4,0.7,0.7,1,1c0.3,0.4,0.7,0.7,1,1
		c0.3,0.4,0.7,0.7,1,1c0.3,0.4,0.7,0.7,1,1c0.3,0.4,0.7,0.7,1,1c0.3,0.4,0.7,0.7,1,1c0.3,0.4,0.7,0.7,1,1c0.3,0.4,0.7,0.7,1,1
		c0.3,0.4,0.7,0.7,1,1c0.3,0.4,0.7,0.7,1,1c0.3,0.4,0.7,0.7,1,1c0.3,0.4,0.7,0.7,1,1c0.3,0.4,0.7,0.7,1,1c0.3,0.4,0.7,0.7,1,1
		c0.3,0.4,0.7,0.7,1,1c0.3,0.4,0.7,0.7,1,1c0.3,0.4,0.7,0.7,1,1c0.3,0.4,0.7,0.7,1,1c0.3,0.4,0.7,0.7,1,1c0.3,0.4,0.7,0.7,1,1
		c0.3,0.4,0.7,0.7,1,1c0.3,0.4,0.7,0.7,1,1c0.3,0.4,0.7,0.7,1,1c0.3,0.4,0.7,0.7,1,1c0.3,0.4,0.7,0.7,1,1c0.3,0.4,0.7,0.7,1,1
		c0.3,0.4,0.7,0.7,1,1c0.3,0.4,0.7,0.7,1,1c0.3,0.4,0.7,0.7,1,1c0.3,0.4,0.7,0.7,1,1c0.3,0.4,0.7,0.7,1,1c0.3,0.4,0.7,0.7,1,1
		c0.3,0.4,0.7,0.7,1,1c0.3,0.4,0.7,0.7,1,1c0.3,0.4,0.7,0.7,1,1c0.3,0.4,0.7,0.7,1,1c0.3,0.4,0.7,0.7,1,1c0.3,0.4,0.7,0.7,1,1
		c0.3,0.4,0.7,0.7,1,1c0.3,0.4,0.7,0.7,1,1c0.3,0.4,0.7,0.7,1,1c0.3,0.4,0.7,0.7,1,1c0.3,0.4,0.7,0.7,1,1c0.3,0.4,0.7,0.7,1,1
		c0.3,0.4,0.7,0.7,1,1c0.3,0.4,0.7,0.7,1,1c0.3,0.4,0.7,0.7,1,1c0.3,0.4,0.7,0.7,1,1c0.3,0.4,0.7,0.7,1,1c0.3,0.4,0.7,0.7,1,1
		c0.3,0.4,0.7,0.7,1,1c0.3,0.4,0.7,0.7,1,1c0.3,0.4,0.7,0.7,1,1c0.3,0.4,0.7,0.7,1,1c0.3,0.4,0.7,0.7,1,1c0.3,0.4,0.7,0.7,1,1
		c0.3,0.4,0.7,0.7,1,1c0.3,0.4,0.7,0.7,1,1c0.3,0.4,0.7,0.7,1,1c0.3,0.4,0.7,0.7,1,1c0.3,0.4,0.7,0.7,1,1c0.3,0.4,0.7,0.7,1,1
		c0.3,0.4,0.7,0.7,1,1c0.3,0.4,0.7,0.7,1,1c0.3,0.4,0.7,0.7,1,1c0.3,0.4,0.7,0.7,1,1c0.3,0.4,0.7,0.7,1,1c0.3,0.4,0.7,0.7,1,1
		c0.3,0.4,0.7,0.7,1,1c0.3,0.4,0.7,0.7,1,1c0.3,0.4,0.7,0.7,1,1c0.3,0.4,0.7,0.7,1,1c0.3,0.4,0.7,0.7,1,1c0.3,0.4,0.7,0.7,1,1
		c0.3,0.4,0.7,0.7,1,1c0.3,0.4,0.7,0.7,1,1c0.3,0.4,0.7,0.7,1,1c0.3,0.4,0.7,0.7,1,1c0.3,0.4,0.7,0.7,1,1c0.3,0.4,0.7,0.7,1,1
		c0.3,0.4,0.7,0.7,1,1c0.3,0.4,0.7,0.7,1,1c0.3,0.4,0.7,0.7,1,1c0.3,0.4,0.7,0.7,1,1c0.3,0.4,0.7,0.7,1,1c0.3,0.4,0.7,0.7,1,1
		c0.3,0.4,0.7,0.7,1,1c0.3,0.4,0.7,0.7,1,1c0.3,0.4,0.7,0.7,1,1c0.3,0.4,0.7,0.7,1,1c0.3,0.4,0.7,0.7,1,1c0.3,0.4,0.7,0.7,1,1
		c0.3,0.4,0.7,0.7,1,1c0.3,0.4,0.7,0.7,1,1c0.3,0.4,0.7,0.7,1,1c0.3,0.4,0.7,0.7,1,1c0.3,0.4,0.7,0.7,1,1c0.3,0.4,0.7,0.7,1,1
		c0.3,0.4,0.7,0.7,1,1c0.3,0.4,0.7,0.7,1,1c0.3,0.4,0.7,0.7,1,1c0.3,0.4,0.7,0.7,1,1c0.3,0.4,0.7,0.7,1,1c0.3,0.4,0.7,0.7,1,1
		c0.3,0.4,0.7,0.7,1,1c0.3,0.4,0.7,0.7,1,1c0.3,0.4,0.7,0.7,1,1c0.3,0.4,0.7,0.7,1,1c0.3,0.4,0.7,0.7,1,1c0.3,0.4,0.7,0.7,1,1
		c0.3,0.4,0.7,0.7,1,1c0.3,0.4,0.7,0.7,1,1c0.3,0.4,0.7,0.7,1,1c0.3,0.4,0.7,0.7,1,1c0.3,0.4,0.7,0.7,1,1c0.3,0.4,0.7,0.7,1,1
		c0.3,0.4,0.7,0.7,1,1c0.3,0.4,0.7,0.7,1,1c0.3,0.4,0.7,0.7,1,1c0.3,0.4,0.7,0.7,1,1c0.3,0.4,0.7,0.7,1,1c0.3,0.4,0.7,0.7,1,1
		c0.3,0.4,0.7,0.7,1,1c0.3,0.4,0.7,0.7,1,1c0.3,0.4,0.7,0.7,1,1c0.3,0.4,0.7,0.7,1,1c0.3,0.4,0.7,0.7,1,1c0.3,0.4,0.7,0.7,1,1
		c0.3,0.4,0.7,0.7,1,1c0.3,0.4,0.7,0.7,1,1c0.3,0.4,0.7,0.7,1,1c0.3,0.4,0.7,0.7,1,1c0.3,0.4,0.7,0.7,1,1c0.3,0.4,0.7,0.7,1,1
		c0.3,0.4,0.7,0.7,1,1c0.3,0.4,0.7,0.7,1,1c0.3,0.4,0.7,0.7,1,1c0.3,0.4,0.7,0.7,1,1c0.3,0.4,0.7,0.7,1,1c0.3,0.4,0.7,0.7,1,1
		c0.3,0.4,0.7,0.7,1,1c0.3,0.4,0.7,0.7,1,1c0.3,0.4,0.7,0.7,1,1c0.3,0.4,0.7,0.7,1,1c0.3,0.4,0.7,0.7,1,1c0.3,0.4,0.7,0.7,1,1
		c0.3,0.4,0.7,0.7,1,1c0.3,0.4,0.7,0.7,1,1c0.3,0.4,0.7,0.7,1,1c0.3,0.4,0.7,0.7,1,1c0.3,0.4,0.7,0.7,1,1c0.3,0.4,0.7,0.7,1,1
		c0.3,0.4,0.7,0.7,1,1c0.3,0.4,0.7,0.7,1,1c0.3,0.4,0.7,0.7,1,1c0.3,0.4,0.7,0.7,1,1c0.3,0.4,0.7,0.7,1,1c0.3,0.4,0.7,0.7,1,1
		c0.3,0.4,0.7,0.7,1,1c0.3,0.4,0.7,0.7,1,1c0.3,0.4,0.7,0.7,1,1c0.3,0.4,0.7,0.7,1,1c0.3,0.4,0.7,0.7,1,1c0.3,0.4,0.7,0.7,1,1
		c0.3,0.4,0.7,0.7,1,1c0.3,0.4,0.7,0.7,1,1c0.3,0.4,0.7,0.7,1,1c0.3,0.4,0.7,0.7,1,1c2.3,2.6,5.6,4.2,9.4,4.2h368.9
		c5.9,0,11-4.1,12.5-10l83.7-242.4C857.9,599.9,856.2,594.3,852.6,591.1z"/>
</g>
<g>
	<g id="Capa_1">
		<g>
			<path class="st2" d="M597.2,292.2H377.5l-43.4-60.8H175.2c-8.3,0-15.1,6.7-15.1,15.1v371.5c0.6,0,1.2,0.1,1.8,0.1l450.4-247.5
				v-63.2C612.2,299,605.5,292.2,597.2,292.2z"/>
		</g>
		<g>
			<path class="st3" d="M404.4,607H175.9V160h413.2v262.2C589.1,524.2,506.5,607,404.4,607z"/>
		</g>
		<g id="Layer_2_copy_1_">
			<path class="st4" d="M412,629.1H183.6v-447h413.2v262.2C596.8,546.3,514.1,629.1,412,629.1z"/>
		</g>
		<g id="Layer_4">
			<path class="st5" d="M533.8,298H238.6c-3.8,0-6.9-3.1-6.9-6.9v-2.2c0-3.8,3.1-6.9,6.9-6.9h295.2c3.8,0,6.9,3.1,6.9,6.9v2.2
				C540.6,295,537.6,298,533.8,298z"/>
			<path class="st6" d="M526.2,247.1H246.2c-7.9,0-14.4-6.5-14.4-14.4l0,0c0-7.9,6.5-14.4,14.4-14.4h280.1c7.9,0,14.4,6.5,14.4,14.4
				l0,0C540.6,240.6,534.2,247.1,526.2,247.1z"/>
			<path class="st5" d="M533.8,349H238.6c-3.8,0-6.9-3.1-6.9-6.9v-2.2c0-3.8,3.1-6.9,6.9-6.9h295.2c3.8,0,6.9,3.1,6.9,6.9v2.2
				C540.6,346,537.6,349,533.8,349z"/>
			<path class="st5" d="M533.8,400H238.6c-3.8,0-6.9-3.1-6.9-6.9v-2.2c0-3.8,3.1-6.9,6.9-6.9h295.2c3.8,0,6.9,3.1,6.9,6.9v2.2
				C540.6,396.9,537.6,400,533.8,400z"/>
		</g>
		<path class="st7" d="M543.7,640H174.8c-8.5,0-14.6-8.5-12.4-17.1l44.9-191.1c3.1-13.2,14.4-22.5,27.4-22.4l226.3,1.4h2.7
			c6.3,0,12.1-3.5,15.2-9.2l0,0l12.7-23l0,0c3.1-5.5,8.7-8.9,14.8-8.9h2l119.1,0.8c8.5,0,12.4,8.5,12.4,17.1L556.2,630
			C554.7,635.9,549.6,640,543.7,640z"/>
	</g>
	<g id="Layer_5">
		<polygon class="st4" points="526.7,618 421.6,618 435.5,579.4 540.6,579.4 		"/>
	</g>
</g>
</svg>
