<?xml version="1.0" encoding="utf-8"?>
<!-- Generator: Adobe Illustrator 24.1.2, SVG Export Plug-In . SVG Version: 6.00 Build 0)  -->
<svg version="1.1" id="Layer_1" xmlns="http://www.w3.org/2000/svg" xmlns:xlink="http://www.w3.org/1999/xlink" x="0px" y="0px"
	 viewBox="0 0 800 800" style="enable-background:new 0 0 800 800;" xml:space="preserve">
<style type="text/css">
	.st0{fill:#333333;}
	.st1{clip-path:url(#SVGID_2_);}
	.st2{fill:#1D1D1B;}
	.st3{fill:#20AA63;}
	.st4{fill:#707273;}
	.st5{fill:#E24F36;}
	.st6{fill:#FEFDF3;}
	.st7{fill:#12A55A;}
</style>
<g id="Layer_2_3_">
	<g id="Layer_2_4_">
		<g>
			<circle class="st0" cx="400" cy="400" r="400"/>
		</g>
	</g>
</g>
<g>
	<defs>
		<circle id="SVGID_1_" cx="400" cy="400" r="400"/>
	</defs>
	<clipPath id="SVGID_2_">
		<use xlink:href="#SVGID_1_"  style="overflow:visible;"/>
	</clipPath>
	<g class="st1">
		<g>
			<path class="st2" d="M895.9,839.8c-0.3-0.4,0-0.8-0.2-1.2c-0.1-0.4-0.1-0.8-0.2-1.2c-0.8-3.9-2.8-7.3-5.5-9.8
				c-0.3-0.3-0.7-0.7-1-1c-0.3-0.3-0.7-0.7-1-1c-0.3-0.3-0.7-0.7-1-1c-0.3-0.3-0.7-0.7-1-1c-0.3-0.3-0.7-0.7-1-1
				c-0.3-0.3-0.7-0.7-1-1c-0.3-0.3-0.7-0.7-1-1c-0.3-0.3-0.7-0.7-1-1c-0.3-0.3-0.7-0.7-1-1c-0.3-0.3-0.7-0.7-1-1
				c-0.3-0.3-0.7-0.7-1-1c-0.3-0.3-0.7-0.7-1-1c-0.3-0.3-0.7-0.7-1-1c-0.3-0.3-0.7-0.7-1-1c-0.3-0.3-0.7-0.7-1-1
				c-0.3-0.3-0.7-0.7-1-1c-0.3-0.3-0.7-0.7-1-1c-0.3-0.3-0.7-0.7-1-1c-0.3-0.3-0.7-0.7-1-1c-0.3-0.3-0.7-0.7-1-1
				c-0.3-0.3-0.7-0.7-1-1c-0.3-0.3-0.7-0.7-1-1c-0.3-0.3-0.7-0.7-1-1c-0.3-0.3-0.7-0.7-1-1c-0.3-0.3-0.7-0.7-1-1
				c-0.3-0.3-0.7-0.7-1-1c-0.3-0.3-0.7-0.7-1-1c-0.3-0.3-0.7-0.7-1-1c-0.3-0.3-0.7-0.7-1-1c-0.3-0.3-0.7-0.7-1-1
				c-0.3-0.3-0.7-0.7-1-1c-0.3-0.3-0.7-0.7-1-1c-0.3-0.3-0.7-0.7-1-1c-0.3-0.3-0.7-0.7-1-1c-0.3-0.3-0.7-0.7-1-1
				c-0.3-0.3-0.7-0.7-1-1c-0.3-0.3-0.7-0.7-1-1c-0.3-0.3-0.7-0.7-1-1c-0.3-0.3-0.7-0.7-1-1c-0.3-0.3-0.7-0.7-1-1
				c-0.3-0.3-0.7-0.7-1-1c-0.3-0.3-0.7-0.7-1-1c-0.3-0.3-0.7-0.7-1-1c-0.3-0.3-0.7-0.7-1-1c-0.3-0.3-0.7-0.7-1-1
				c-0.3-0.3-0.7-0.7-1-1c-0.3-0.3-0.7-0.7-1-1c-0.3-0.3-0.7-0.7-1-1c-0.3-0.3-0.7-0.7-1-1c-0.3-0.3-0.7-0.7-1-1
				c-0.3-0.3-0.7-0.7-1-1c-0.3-0.3-0.7-0.7-1-1c-0.3-0.3-0.7-0.7-1-1c-0.3-0.3-0.7-0.7-1-1c-0.3-0.3-0.7-0.7-1-1
				c-0.3-0.3-0.7-0.7-1-1c-0.3-0.3-0.7-0.7-1-1c-0.3-0.3-0.7-0.7-1-1c-0.3-0.3-0.7-0.7-1-1c-0.3-0.3-0.7-0.7-1-1
				c-0.3-0.3-0.7-0.7-1-1c-0.3-0.3-0.7-0.7-1-1c-0.3-0.3-0.7-0.7-1-1c-0.3-0.3-0.7-0.7-1-1c-0.3-0.3-0.7-0.7-1-1
				c-0.3-0.3-0.7-0.7-1-1c-0.3-0.3-0.7-0.7-1-1c-0.3-0.3-0.7-0.7-1-1c-0.3-0.3-0.7-0.7-1-1c-0.3-0.3-0.7-0.7-1-1
				c-0.3-0.3-0.7-0.7-1-1c-0.3-0.3-0.7-0.7-1-1c-0.2-0.2-0.4-0.4-0.6-0.6c0-84.3,0-168.6,0-252.8c0-2.9-0.1-5.7-0.4-8.6
				c-1.5-12.3-6.6-22.9-14.9-31.9c-0.7-0.8-1.5-1.6-2.3-2.3c-0.3-0.3-0.7-0.7-1-1c-0.3-0.3-0.7-0.7-1-1c-0.3-0.3-0.7-0.7-1-1
				c-0.3-0.3-0.7-0.7-1-1c-0.3-0.3-0.7-0.7-1-1c-0.3-0.3-0.7-0.7-1-1c-0.3-0.3-0.7-0.7-1-1c-0.3-0.3-0.7-0.7-1-1
				c-0.3-0.3-0.7-0.7-1-1c-0.3-0.3-0.7-0.7-1-1c-0.3-0.3-0.7-0.7-1-1c-0.3-0.3-0.7-0.7-1-1c-0.3-0.3-0.7-0.7-1-1
				c-0.3-0.3-0.7-0.7-1-1c-0.3-0.3-0.7-0.7-1-1c-0.3-0.3-0.7-0.7-1-1c-0.3-0.3-0.7-0.7-1-1c-0.3-0.3-0.7-0.7-1-1
				c-0.3-0.3-0.7-0.7-1-1c-0.3-0.3-0.7-0.7-1-1c-0.3-0.3-0.7-0.7-1-1c-0.3-0.3-0.7-0.7-1-1c-0.3-0.3-0.7-0.7-1-1
				c-0.3-0.3-0.7-0.7-1-1c-0.3-0.3-0.7-0.7-1-1c-0.3-0.3-0.7-0.7-1-1c-0.3-0.3-0.7-0.7-1-1c-0.3-0.3-0.7-0.7-1-1
				c-0.3-0.3-0.7-0.7-1-1c-0.3-0.3-0.7-0.7-1-1c-0.3-0.3-0.7-0.7-1-1c-0.3-0.3-0.7-0.7-1-1c-0.3-0.3-0.7-0.7-1-1
				c-0.3-0.3-0.7-0.7-1-1c-0.3-0.3-0.7-0.7-1-1c-0.3-0.3-0.7-0.7-1-1c-0.3-0.3-0.7-0.7-1-1c-0.3-0.3-0.7-0.7-1-1
				c-0.3-0.3-0.7-0.7-1-1c-0.3-0.3-0.7-0.7-1-1c-0.3-0.3-0.7-0.7-1-1c-0.3-0.3-0.7-0.7-1-1c-0.3-0.3-0.7-0.7-1-1
				c-0.3-0.3-0.7-0.7-1-1c-0.3-0.3-0.7-0.7-1-1c-0.3-0.3-0.7-0.7-1-1c-0.3-0.3-0.7-0.7-1-1c-0.3-0.3-0.7-0.7-1-1
				c-0.3-0.3-0.7-0.7-1-1c-0.3-0.3-0.7-0.7-1-1c-0.3-0.3-0.7-0.7-1-1c-0.3-0.3-0.7-0.7-1-1c-0.3-0.3-0.7-0.7-1-1
				c-0.3-0.3-0.7-0.7-1-1c-0.3-0.3-0.7-0.7-1-1c-0.3-0.3-0.7-0.7-1-1c-0.3-0.3-0.7-0.7-1-1c-0.3-0.3-0.7-0.7-1-1
				c-0.3-0.3-0.7-0.7-1-1c-0.3-0.3-0.7-0.7-1-1c-0.3-0.3-0.7-0.7-1-1c-0.3-0.3-0.7-0.7-1-1c-0.3-0.3-0.7-0.7-1-1
				c-0.3-0.3-0.7-0.7-1-1c-0.3-0.3-0.7-0.7-1-1c-0.3-0.3-0.7-0.7-1-1c-0.3-0.3-0.7-0.7-1-1c-0.3-0.3-0.7-0.7-1-1
				c-0.3-0.3-0.7-0.7-1-1c-0.3-0.3-0.7-0.7-1-1c-0.3-0.3-0.7-0.7-1-1c-0.3-0.3-0.7-0.7-1-1c-0.3-0.3-0.7-0.7-1-1
				c-0.3-0.3-0.7-0.7-1-1c-0.3-0.3-0.7-0.7-1-1c-0.3-0.3-0.7-0.7-1-1c-0.3-0.3-0.7-0.7-1-1c-0.3-0.3-0.7-0.7-1-1
				c-0.3-0.3-0.7-0.7-1-1c-0.3-0.3-0.7-0.7-1-1c-0.3-0.3-0.7-0.7-1-1c-0.3-0.3-0.7-0.7-1-1c-0.3-0.3-0.7-0.7-1-1
				c-0.3-0.3-0.7-0.7-1-1c-0.3-0.3-0.7-0.7-1-1c-0.3-0.3-0.7-0.7-1-1c-0.3-0.3-0.7-0.7-1-1c-0.3-0.3-0.7-0.7-1-1
				c-0.3-0.3-0.7-0.7-1-1c-0.3-0.3-0.7-0.7-1-1c-0.3-0.3-0.7-0.7-1-1c-0.3-0.3-0.7-0.7-1-1c-0.3-0.3-0.7-0.7-1-1
				c-0.3-0.3-0.7-0.7-1-1c-0.3-0.3-0.7-0.7-1-1c-0.3-0.3-0.7-0.7-1-1c-0.3-0.3-0.7-0.7-1-1c-0.3-0.3-0.7-0.7-1-1
				c-0.3-0.3-0.7-0.7-1-1c-0.3-0.3-0.7-0.7-1-1c-0.3-0.3-0.7-0.7-1-1c-0.3-0.3-0.7-0.7-1-1c-0.3-0.3-0.7-0.7-1-1
				c-0.3-0.3-0.7-0.7-1-1c-0.3-0.3-0.7-0.7-1-1c-0.3-0.3-0.7-0.7-1-1c-0.3-0.3-0.7-0.7-1-1c-0.3-0.3-0.7-0.7-1-1
				c-0.3-0.3-0.7-0.7-1-1c-0.3-0.3-0.7-0.7-1-1c-0.3-0.3-0.7-0.7-1-1c-0.3-0.3-0.7-0.7-1-1c-0.3-0.3-0.7-0.7-1-1
				c-0.3-0.3-0.7-0.7-1-1c-0.3-0.3-0.7-0.7-1-1c-0.3-0.3-0.7-0.7-1-1c-0.3-0.3-0.7-0.7-1-1c-0.3-0.3-0.7-0.7-1-1
				c-0.3-0.3-0.7-0.7-1-1c-0.3-0.3-0.7-0.7-1-1c-0.3-0.3-0.7-0.7-1-1c-0.3-0.3-0.7-0.7-1-1c-0.3-0.3-0.7-0.7-1-1
				c-0.3-0.3-0.7-0.7-1-1c-0.3-0.3-0.7-0.7-1-1c-0.3-0.3-0.7-0.7-1-1c-0.3-0.3-0.7-0.7-1-1c-0.3-0.3-0.7-0.7-1-1
				c-0.3-0.3-0.7-0.7-1-1c-0.3-0.3-0.7-0.7-1-1c-0.3-0.3-0.7-0.7-1-1c-0.3-0.3-0.7-0.7-1-1c-0.3-0.3-0.7-0.7-1-1
				c-0.3-0.3-0.7-0.7-1-1c-0.3-0.3-0.7-0.7-1-1c-0.3-0.3-0.7-0.7-1-1c-0.3-0.3-0.7-0.7-1-1c-0.3-0.3-0.7-0.7-1-1
				c-0.3-0.3-0.7-0.7-1-1c-0.3-0.3-0.7-0.7-1-1c-0.3-0.3-0.7-0.7-1-1c-0.3-0.3-0.7-0.7-1-1c-0.3-0.3-0.7-0.7-1-1
				c-0.3-0.3-0.7-0.7-1-1c-0.3-0.3-0.7-0.7-1-1c-0.3-0.3-0.7-0.7-1-1c-0.3-0.3-0.7-0.7-1-1c-0.3-0.3-0.7-0.7-1-1
				c-0.3-0.3-0.7-0.7-1-1c-0.3-0.3-0.7-0.7-1-1c-0.3-0.3-0.7-0.7-1-1c-0.3-0.3-0.7-0.7-1-1c-0.3-0.3-0.7-0.7-1-1
				c-0.3-0.3-0.7-0.7-1-1c-0.3-0.3-0.7-0.7-1-1c-0.3-0.3-0.7-0.7-1-1c-0.3-0.3-0.7-0.7-1-1c-0.3-0.3-0.7-0.7-1-1
				c-0.3-0.3-0.7-0.7-1-1c-0.3-0.3-0.7-0.7-1-1c-0.3-0.3-0.7-0.7-1-1c-0.3-0.3-0.7-0.7-1-1c-0.3-0.3-0.7-0.7-1-1
				c-0.3-0.3-0.7-0.7-1-1c-0.3-0.3-0.7-0.7-1-1c-0.3-0.3-0.7-0.7-1-1c-0.3-0.3-0.7-0.7-1-1c-0.3-0.3-0.7-0.7-1-1
				c-0.3-0.3-0.7-0.7-1-1c-0.3-0.3-0.7-0.7-1-1c-0.3-0.3-0.7-0.7-1-1c-0.3-0.3-0.7-0.7-1-1c-0.3-0.3-0.7-0.7-1-1
				c-0.3-0.3-0.7-0.7-1-1c-0.3-0.3-0.7-0.7-1-1c-0.3-0.3-0.7-0.7-1-1c-0.3-0.3-0.7-0.7-1-1c-0.3-0.3-0.7-0.7-1-1
				c-0.3-0.3-0.7-0.7-1-1c-0.3-0.3-0.7-0.7-1-1c-0.3-0.3-0.7-0.7-1-1c-0.3-0.3-0.7-0.7-1-1c-0.3-0.3-0.7-0.7-1-1
				c-0.3-0.3-0.7-0.7-1-1c-0.3-0.3-0.7-0.7-1-1c-0.3-0.3-0.7-0.7-1-1c-0.3-0.3-0.7-0.7-1-1c-0.3-0.3-0.7-0.7-1-1
				c-0.3-0.3-0.7-0.7-1-1c-0.3-0.3-0.7-0.7-1-1c-0.3-0.3-0.7-0.7-1-1c-0.3-0.3-0.7-0.7-1-1c-0.3-0.3-0.7-0.7-1-1
				c-0.3-0.3-0.7-0.7-1-1c-0.3-0.3-0.7-0.7-1-1c-0.3-0.3-0.7-0.7-1-1c-0.3-0.3-0.7-0.7-1-1c-0.3-0.3-0.7-0.7-1-1
				c-0.3-0.3-0.7-0.7-1-1c-0.3-0.3-0.7-0.7-1-1c-0.3-0.3-0.7-0.7-1-1c-0.3-0.3-0.7-0.7-1-1c-0.3-0.3-0.7-0.7-1-1
				c-0.3-0.3-0.7-0.7-1-1c-0.3-0.3-0.7-0.7-1-1c-0.3-0.3-0.7-0.7-1-1c-0.3-0.3-0.7-0.7-1-1c-0.3-0.3-0.7-0.7-1-1
				c-0.3-0.3-0.7-0.7-1-1c-0.3-0.3-0.7-0.7-1-1c-0.3-0.3-0.7-0.7-1-1c-0.3-0.3-0.7-0.7-1-1c-0.3-0.3-0.7-0.7-1-1
				c-0.3-0.3-0.7-0.7-1-1c-0.3-0.3-0.7-0.7-1-1c-0.3-0.3-0.7-0.7-1-1c-0.3-0.3-0.7-0.7-1-1c-0.3-0.3-0.7-0.7-1-1
				c-0.3-0.3-0.7-0.7-1-1c-0.3-0.3-0.7-0.7-1-1c-0.3-0.3-0.7-0.7-1-1c-0.3-0.3-0.7-0.7-1-1c-0.3-0.3-0.7-0.7-1-1
				c-0.3-0.3-0.7-0.7-1-1c-0.3-0.3-0.7-0.7-1-1c-0.3-0.3-0.7-0.7-1-1c-0.3-0.3-0.7-0.7-1-1c-0.3-0.3-0.7-0.7-1-1
				c-0.3-0.3-0.7-0.7-1-1c-0.3-0.3-0.7-0.7-1-1c-0.3-0.3-0.7-0.7-1-1c-0.3-0.3-0.7-0.7-1-1c-0.3-0.3-0.7-0.7-1-1
				c-0.3-0.3-0.7-0.7-1-1c-0.3-0.3-0.7-0.7-1-1c-0.3-0.3-0.7-0.7-1-1c-0.3-0.3-0.7-0.7-1-1c-0.3-0.3-0.7-0.7-1-1
				c-0.3-0.3-0.7-0.7-1-1c-0.3-0.3-0.7-0.7-1-1c-0.3-0.3-0.7-0.7-1-1c-0.3-0.3-0.7-0.7-1-1c-0.3-0.3-0.7-0.7-1-1
				c-0.3-0.3-0.7-0.7-1-1c-0.3-0.3-0.7-0.7-1-1c-0.3-0.3-0.7-0.7-1-1c-0.3-0.3-0.7-0.7-1-1c-0.3-0.3-0.7-0.7-1-1
				c-0.3-0.3-0.7-0.7-1-1c-0.3-0.3-0.7-0.7-1-1c-0.3-0.3-0.7-0.7-1-1c-0.3-0.3-0.7-0.7-1-1c-0.3-0.3-0.7-0.7-1-1
				c-0.3-0.3-0.7-0.7-1-1c-0.3-0.3-0.7-0.7-1-1c-0.3-0.3-0.7-0.7-1-1c-0.3-0.3-0.7-0.7-1-1c-0.3-0.3-0.7-0.7-1-1
				c-0.3-0.3-0.7-0.7-1-1c-0.3-0.3-0.7-0.7-1-1c-0.3-0.3-0.7-0.7-1-1c-0.3-0.3-0.7-0.7-1-1c-0.3-0.3-0.7-0.7-1-1
				c-0.3-0.3-0.7-0.7-1-1c-0.3-0.3-0.7-0.7-1-1c-0.3-0.3-0.7-0.7-1-1c-0.3-0.3-0.7-0.7-1-1c-0.3-0.3-0.7-0.7-1-1
				c-0.3-0.3-0.7-0.7-1-1c-0.3-0.3-0.7-0.7-1-1c-0.3-0.3-0.7-0.7-1-1c-0.3-0.3-0.7-0.7-1-1c-0.3-0.3-0.7-0.7-1-1
				c-0.3-0.3-0.7-0.7-1-1c-0.3-0.3-0.7-0.7-1-1c-0.3-0.3-0.7-0.7-1-1c-0.3-0.3-0.7-0.7-1-1c-0.3-0.3-0.7-0.7-1-1
				c-0.3-0.3-0.7-0.7-1-1c-0.3-0.3-0.7-0.7-1-1c-0.3-0.3-0.7-0.7-1-1c-0.3-0.3-0.7-0.7-1-1c-0.3-0.3-0.7-0.7-1-1
				c-4.8-4.9-10.4-8.8-16.7-11.7c-6.1-2.8-12.4-4.6-19.2-4.5c-0.4,0-0.8,0-1.2,0c-0.6-0.1-1.1,0.1-1.7-0.1c-78.4,0-156.9,0-235.3,0
				c-0.5,0.2-1.1,0.1-1.6,0.1c-0.4,0-0.7,0-1.1,0c-2.4,0.1-4.7,0.1-7,0.5c-10.4,2.1-19.4,6.8-27.2,13.9c-5.6,5.1-10,11.2-13.2,18.2
				c-2.8,6.1-4.6,12.5-4.5,19.4c0,0.4,0,0.7,0,1.1c-0.1,0.5,0.1,1.1-0.1,1.6c0,107.8,0,215.6,0,323.4c0.2,0.5,0.1,1,0.1,1.5
				c0,0.5,0,0.9,0,1.4c0.1,3.1,0.2,6.3,1.1,9.4c2.8,10.5,7.9,19.5,15.6,26.9c0.3,0.3,0.7,0.7,1,1c0.3,0.3,0.7,0.7,1,1
				c0.3,0.3,0.7,0.7,1,1c0.3,0.3,0.7,0.7,1,1c0.3,0.3,0.7,0.7,1,1c0.3,0.3,0.7,0.7,1,1c0.3,0.3,0.7,0.7,1,1c0.3,0.3,0.7,0.7,1,1
				c0.3,0.3,0.7,0.7,1,1c0.3,0.3,0.7,0.7,1,1c0.3,0.3,0.7,0.7,1,1c0.3,0.3,0.7,0.7,1,1c0.3,0.3,0.7,0.7,1,1c0.3,0.3,0.7,0.7,1,1
				c0.3,0.3,0.7,0.7,1,1c0.3,0.3,0.7,0.7,1,1c0.3,0.3,0.7,0.7,1,1c0.3,0.3,0.7,0.7,1,1c0.3,0.3,0.7,0.7,1,1c0.3,0.3,0.7,0.7,1,1
				c0.3,0.3,0.7,0.7,1,1c0.3,0.3,0.7,0.7,1,1c0.3,0.3,0.7,0.7,1,1c0.3,0.3,0.7,0.7,1,1c0.3,0.3,0.7,0.7,1,1c0.3,0.3,0.7,0.7,1,1
				c0.3,0.3,0.7,0.7,1,1c0.3,0.3,0.7,0.7,1,1c0.3,0.3,0.7,0.7,1,1c0.3,0.3,0.7,0.7,1,1c0.3,0.3,0.7,0.7,1,1c0.3,0.3,0.7,0.7,1,1
				c0.3,0.3,0.7,0.7,1,1c0.3,0.3,0.7,0.7,1,1c0.3,0.3,0.7,0.7,1,1c0.3,0.3,0.7,0.7,1,1c0.3,0.3,0.7,0.7,1,1c0.3,0.3,0.7,0.7,1,1
				c0.3,0.3,0.7,0.7,1,1c0.3,0.3,0.7,0.7,1,1c0.3,0.3,0.7,0.7,1,1c0.3,0.3,0.7,0.7,1,1c0.3,0.3,0.7,0.7,1,1c0.3,0.3,0.7,0.7,1,1
				c0.3,0.3,0.7,0.7,1,1c0.3,0.3,0.7,0.7,1,1c0.3,0.3,0.7,0.7,1,1c0.3,0.3,0.7,0.7,1,1c0.3,0.3,0.7,0.7,1,1c0.3,0.3,0.7,0.7,1,1
				c0.3,0.3,0.7,0.7,1,1c0.3,0.3,0.7,0.7,1,1c0.3,0.3,0.7,0.7,1,1c0.3,0.3,0.7,0.7,1,1c0.3,0.3,0.7,0.7,1,1c0.3,0.3,0.7,0.7,1,1
				c0.3,0.3,0.7,0.7,1,1c0.3,0.3,0.7,0.7,1,1c0.3,0.3,0.7,0.7,1,1c0.3,0.3,0.7,0.7,1,1c0.3,0.3,0.7,0.7,1,1c0.3,0.3,0.7,0.7,1,1
				c0.3,0.3,0.7,0.7,1,1c0.3,0.3,0.7,0.7,1,1c0.3,0.3,0.7,0.7,1,1c0.3,0.3,0.7,0.7,1,1c0.3,0.3,0.7,0.7,1,1c0.3,0.3,0.7,0.7,1,1
				c0.3,0.3,0.7,0.7,1,1c0.3,0.3,0.7,0.7,1,1c0.3,0.3,0.7,0.7,1,1c0.3,0.3,0.7,0.7,1,1c0.3,0.3,0.7,0.7,1,1c0.3,0.3,0.7,0.7,1,1
				c0.3,0.3,0.7,0.7,1,1c0.3,0.3,0.7,0.7,1,1c0.3,0.3,0.7,0.7,1,1c0.3,0.3,0.7,0.7,1,1c0.3,0.3,0.7,0.7,1,1c0.3,0.3,0.7,0.7,1,1
				c0.3,0.3,0.7,0.7,1,1c0.3,0.3,0.7,0.7,1,1c0.3,0.3,0.7,0.7,1,1c0.3,0.3,0.7,0.7,1,1c0.3,0.3,0.7,0.7,1,1c0.3,0.3,0.7,0.7,1,1
				c0.3,0.3,0.7,0.7,1,1c0.3,0.3,0.7,0.7,1,1c0.3,0.3,0.7,0.7,1,1c0.3,0.3,0.7,0.7,1,1c0.3,0.3,0.7,0.7,1,1c0.3,0.3,0.7,0.7,1,1
				c0.3,0.3,0.7,0.7,1,1c0.3,0.3,0.7,0.7,1,1c0.3,0.3,0.7,0.7,1,1c0.3,0.3,0.7,0.7,1,1c0.3,0.3,0.7,0.7,1,1c0.3,0.3,0.7,0.7,1,1
				c0.3,0.3,0.7,0.7,1,1c0.3,0.3,0.7,0.7,1,1c0.3,0.3,0.7,0.7,1,1c0.3,0.3,0.7,0.7,1,1c0.3,0.3,0.7,0.7,1,1c0.3,0.3,0.7,0.7,1,1
				c0.3,0.3,0.7,0.7,1,1c0.3,0.3,0.7,0.7,1,1c0.3,0.3,0.7,0.7,1,1c0.3,0.3,0.7,0.7,1,1c0.3,0.3,0.7,0.7,1,1c0.3,0.3,0.7,0.7,1,1
				c0.3,0.3,0.7,0.7,1,1c0.3,0.3,0.7,0.7,1,1c0.3,0.3,0.7,0.7,1,1c0.3,0.3,0.7,0.7,1,1c0.3,0.3,0.7,0.7,1,1c0.3,0.3,0.7,0.7,1,1
				c0.3,0.3,0.7,0.7,1,1c0.3,0.3,0.7,0.7,1,1c0.3,0.3,0.7,0.7,1,1c0.3,0.3,0.7,0.7,1,1c0.3,0.3,0.7,0.7,1,1c0.3,0.3,0.7,0.7,1,1
				c0.3,0.3,0.7,0.7,1,1c0.3,0.3,0.7,0.7,1,1c0.3,0.3,0.7,0.7,1,1c0.3,0.3,0.7,0.7,1,1c0.3,0.3,0.7,0.7,1,1c0.3,0.3,0.7,0.7,1,1
				c0.3,0.3,0.7,0.7,1,1c0.3,0.3,0.7,0.7,1,1c0.3,0.3,0.7,0.7,1,1c0.3,0.3,0.7,0.7,1,1c0.3,0.3,0.7,0.7,1,1c0.3,0.3,0.7,0.7,1,1
				c0.3,0.3,0.7,0.7,1,1c0.3,0.3,0.7,0.7,1,1c0.3,0.3,0.7,0.7,1,1c0.3,0.3,0.7,0.7,1,1c0.3,0.3,0.7,0.7,1,1c0.3,0.3,0.7,0.7,1,1
				c0.3,0.3,0.7,0.7,1,1c0.3,0.3,0.7,0.7,1,1c0.3,0.3,0.7,0.7,1,1c0.3,0.3,0.7,0.7,1,1c0.3,0.3,0.7,0.7,1,1c0.3,0.3,0.7,0.7,1,1
				c0.3,0.3,0.7,0.7,1,1c0.3,0.3,0.7,0.7,1,1c0.3,0.3,0.7,0.7,1,1c0.3,0.3,0.7,0.7,1,1c0.3,0.3,0.7,0.7,1,1c0.3,0.3,0.7,0.7,1,1
				c0.3,0.3,0.7,0.7,1,1c0.3,0.3,0.7,0.7,1,1c0.3,0.3,0.7,0.7,1,1c0.3,0.3,0.7,0.7,1,1c0.3,0.3,0.7,0.7,1,1c0.3,0.3,0.7,0.7,1,1
				c0.3,0.3,0.7,0.7,1,1c0.3,0.3,0.7,0.7,1,1c0.3,0.3,0.7,0.7,1,1c0.3,0.3,0.7,0.7,1,1c0.3,0.3,0.7,0.7,1,1c0.3,0.3,0.7,0.7,1,1
				c0.3,0.3,0.7,0.7,1,1c0.3,0.3,0.7,0.7,1,1c0.3,0.3,0.7,0.7,1,1c0.3,0.3,0.7,0.7,1,1c0.3,0.3,0.7,0.7,1,1c0.3,0.3,0.7,0.7,1,1
				c0.3,0.3,0.7,0.7,1,1c0.3,0.3,0.7,0.7,1,1c0.3,0.3,0.7,0.7,1,1c0.3,0.3,0.7,0.7,1,1c0.3,0.3,0.7,0.7,1,1c0.3,0.3,0.7,0.7,1,1
				c0.3,0.3,0.7,0.7,1,1c0.3,0.3,0.7,0.7,1,1c0.3,0.3,0.7,0.7,1,1c0.3,0.3,0.7,0.7,1,1c0.3,0.3,0.7,0.7,1,1c0.3,0.3,0.7,0.7,1,1
				c0.3,0.3,0.7,0.7,1,1c0.3,0.3,0.7,0.7,1,1c0.3,0.3,0.7,0.7,1,1c0.3,0.3,0.7,0.7,1,1c0.3,0.3,0.7,0.7,1,1c0.3,0.3,0.7,0.7,1,1
				c0.3,0.3,0.7,0.7,1,1c0.3,0.3,0.7,0.7,1,1c0.3,0.3,0.7,0.7,1,1c0.3,0.3,0.7,0.7,1,1c0.3,0.3,0.7,0.7,1,1c0.3,0.3,0.7,0.7,1,1
				c0.3,0.3,0.7,0.7,1,1c0.3,0.3,0.7,0.7,1,1c0.3,0.3,0.7,0.7,1,1c0.3,0.3,0.7,0.7,1,1c0.3,0.3,0.7,0.7,1,1c0.3,0.3,0.7,0.7,1,1
				c0.3,0.3,0.7,0.7,1,1c0.3,0.3,0.7,0.7,1,1c0.3,0.3,0.7,0.7,1,1c0.3,0.3,0.7,0.7,1,1c0.3,0.3,0.7,0.7,1,1c0.3,0.3,0.7,0.7,1,1
				c0.3,0.3,0.7,0.7,1,1c0.3,0.3,0.7,0.7,1,1c0.3,0.3,0.7,0.7,1,1c0.3,0.3,0.7,0.7,1,1c0.3,0.3,0.7,0.7,1,1c0.3,0.3,0.7,0.7,1,1
				c0.3,0.3,0.7,0.7,1,1c0.3,0.3,0.7,0.7,1,1c0.3,0.3,0.7,0.7,1,1c0.3,0.3,0.7,0.7,1,1c0.3,0.3,0.7,0.7,1,1c0.3,0.3,0.7,0.7,1,1
				c0.3,0.3,0.7,0.7,1,1c0.3,0.3,0.7,0.7,1,1c0.3,0.3,0.7,0.7,1,1c0.3,0.3,0.7,0.7,1,1c0.3,0.3,0.7,0.7,1,1c0.3,0.3,0.7,0.7,1,1
				c0.3,0.3,0.7,0.7,1,1c0.3,0.3,0.7,0.7,1,1c0.3,0.3,0.7,0.7,1,1c0.3,0.3,0.7,0.7,1,1c0.3,0.3,0.7,0.7,1,1c0.3,0.3,0.7,0.7,1,1
				c0.3,0.3,0.7,0.7,1,1c0.3,0.3,0.7,0.7,1,1c0.3,0.3,0.7,0.7,1,1c0.3,0.3,0.7,0.7,1,1c0.3,0.3,0.7,0.7,1,1c0.3,0.3,0.7,0.7,1,1
				c0.3,0.3,0.7,0.7,1,1c0.3,0.3,0.7,0.7,1,1c0.3,0.3,0.7,0.7,1,1c0.3,0.3,0.7,0.7,1,1c0.3,0.3,0.7,0.7,1,1c0.3,0.3,0.7,0.7,1,1
				c0.3,0.3,0.7,0.7,1,1c0.3,0.3,0.7,0.7,1,1c0.3,0.3,0.7,0.7,1,1c0.3,0.3,0.7,0.7,1,1c0.3,0.3,0.7,0.7,1,1c0.3,0.3,0.7,0.7,1,1
				c0.3,0.3,0.7,0.7,1,1c0.3,0.3,0.7,0.7,1,1c0.3,0.3,0.7,0.7,1,1c0.3,0.3,0.7,0.7,1,1c0.3,0.3,0.7,0.7,1,1c0.3,0.3,0.7,0.7,1,1
				c0.3,0.3,0.7,0.7,1,1c0.3,0.3,0.7,0.7,1,1c0.3,0.3,0.7,0.7,1,1c0.3,0.3,0.7,0.7,1,1c0.3,0.3,0.7,0.7,1,1c0.3,0.3,0.7,0.7,1,1
				c0.3,0.3,0.7,0.7,1,1c0.3,0.3,0.7,0.7,1,1c0.3,0.3,0.7,0.7,1,1c0.3,0.3,0.7,0.7,1,1c0.3,0.3,0.7,0.7,1,1c0.3,0.3,0.7,0.7,1,1
				c0.3,0.3,0.7,0.7,1,1c0.3,0.3,0.7,0.7,1,1c0.3,0.3,0.7,0.7,1,1c0.3,0.3,0.7,0.7,1,1c0.3,0.3,0.7,0.7,1,1c0.3,0.3,0.7,0.7,1,1
				c0.3,0.3,0.7,0.7,1,1c0.3,0.3,0.7,0.7,1,1c0.3,0.3,0.7,0.7,1,1c0.3,0.3,0.7,0.7,1,1c0.3,0.3,0.7,0.7,1,1c0.3,0.3,0.7,0.7,1,1
				c0.3,0.3,0.7,0.7,1,1c0.3,0.3,0.7,0.7,1,1c0.3,0.3,0.7,0.7,1,1c0.3,0.3,0.7,0.7,1,1c0.3,0.3,0.7,0.7,1,1c1.3,1.4,2.8,2.7,4.3,3.9
				c10.4,8.7,22.4,13.2,36,13.2c64,0.1,128.1,0,192.1,0c0.3,0.3,0.5,0.5,0.8,0.8c0.3,0.3,0.7,0.7,1,1c0.3,0.3,0.7,0.7,1,1
				c0.3,0.3,0.7,0.7,1,1c0.3,0.3,0.7,0.7,1,1c0.3,0.3,0.7,0.7,1,1c0.3,0.3,0.7,0.7,1,1c0.3,0.3,0.7,0.7,1,1c0.3,0.3,0.7,0.7,1,1
				c0.3,0.3,0.7,0.7,1,1c0.3,0.3,0.7,0.7,1,1c0.3,0.3,0.7,0.7,1,1c0.3,0.3,0.7,0.7,1,1c0.3,0.3,0.7,0.7,1,1c0.3,0.3,0.7,0.7,1,1
				c0.3,0.3,0.7,0.7,1,1c0.3,0.3,0.7,0.7,1,1c0.3,0.3,0.7,0.7,1,1c0.3,0.3,0.7,0.7,1,1c0.3,0.3,0.7,0.7,1,1c0.3,0.3,0.7,0.7,1,1
				c0.3,0.3,0.7,0.7,1,1c0.3,0.3,0.7,0.7,1,1c0.3,0.3,0.7,0.7,1,1c0.3,0.3,0.7,0.7,1,1c0.3,0.3,0.7,0.7,1,1c0.3,0.3,0.7,0.7,1,1
				c0.3,0.3,0.7,0.7,1,1c0.3,0.3,0.7,0.7,1,1c0.3,0.3,0.7,0.7,1,1c0.3,0.3,0.7,0.7,1,1c3.3,3.6,8.1,5.8,13.4,5.8
				c25.6,0,51.2,0,76.8,0c0.8-0.3,0.6-1.1,0.8-1.6c0.8-3.3,2.3-5.8,4.6-7.7c0.2,0.1,0.4,0.1,0.6,0.1c0,0.1,0,0.2,0,0.3
				c0.1,0.6,0.6,0.6,1,0.7c0,0.1,0,0.2,0,0.3c0.1,0.6,0.6,0.6,1,0.7c0,0.1,0,0.2,0,0.3c0.1,0.6,0.6,0.6,1.1,0.7
				c0.2,0,0.3,0.1,0.5,0.1c0.1,0.2,0.3,0.4,0.6,0.5c0,0,0.1,0,0.1,0c0.1,0.4,0.3,0.9,0.9,1c0,0,0.1,0,0.1,0c0.1,0.4,0.3,0.9,0.9,1
				c0,0,0.1,0,0.1,0c0.1,0.4,0.3,0.9,0.9,1c0,0,0.1,0,0.1,0c0.1,0.4,0.3,0.9,0.9,1c0,0,0.1,0,0.1,0c0.1,0.4,0.3,0.9,0.9,1
				c0,0,0.1,0,0.1,0c0.1,0.4,0.3,0.9,0.9,1c1.2,0.3,2.4,0.3,3.5,0c0.9-0.4,0.7-1.4,0.9-2.1c0.8-3.2,2.3-5.7,4.5-7.6
				c0.1,0.1,0.3,0.1,0.4,0.1c0,0,0.1,0,0.1,0c0,0.1,0,0.2,0,0.4c0.1,0.4,0.5,0.5,0.9,0.6c0,0,0.1,0,0.1,0c0,0.1,0,0.2,0,0.4
				c0.1,0.4,0.5,0.5,0.9,0.6c0,0,0.1,0,0.1,0c0,0.1,0,0.2,0,0.4c0.1,0.4,0.5,0.5,0.9,0.6c0.1,0,0.3,0.1,0.4,0.1c0.1,0,0.2,0,0.2,0.1
				c0.1,0.1,0.2,0.3,0.4,0.4c0.1,0.1,0.3,0.1,0.4,0.2c0.1,0.3,0.2,0.6,0.6,0.8c0.1,0.1,0.3,0.1,0.4,0.2c0.1,0.3,0.2,0.6,0.6,0.8
				c0.1,0.1,0.3,0.1,0.4,0.2c0.1,0.3,0.2,0.6,0.6,0.8c0.1,0.1,0.3,0.1,0.4,0.2c0.1,0.3,0.2,0.6,0.6,0.8c0.1,0.1,0.3,0.1,0.4,0.2
				c0.1,0.3,0.2,0.6,0.6,0.8c0.1,0.1,0.3,0.1,0.4,0.2c0.1,0.3,0.2,0.6,0.6,0.8c0.5,0.2,1.1,0.3,1.7,0.3c5.4-0.2,10-2.3,13.6-6.4
				c2.5-2.8,4.1-6,4-9.9c0.1-0.4-0.1-0.8,0.1-1.2C895.9,877.9,895.9,858.9,895.9,839.8z"/>
		</g>
	</g>
</g>
<g>
	<path class="st3" d="M240.9,160c79.5,0,159,0,238.5,0c2,0.2,4,0.2,5.9,0.4c3.6,0.3,7,1.4,10.4,2.7c6,2.2,11.5,5.4,16.4,9.5
		c9,7.5,15.2,16.8,18.4,28.1c1.6,5.4,2.2,10.9,2.2,16.5c0,100.4,0,200.8,0,301.2c0,1.1,0.3,2.3-0.4,3.3c-0.5,0.4-1.1,0.3-1.6,0.3
		c-10.3,0-20.5,0-30.8,0c-0.6,0-1.1,0.1-1.6-0.3c-0.4-0.5-0.4-1-0.4-1.6c0-0.9,0-1.7,0-2.6c0-99.9,0-199.8,0-299.8
		c0-6.1-1.8-11.5-5.9-16c-3.5-3.9-8-6.1-13.1-6.9c-1.2-0.2-2.5-0.2-3.7-0.2c-76.6,0-153.2,0-229.9,0c-6,0-11.3,1.9-15.8,6
		c-3.8,3.5-6,7.9-6.8,13.1c-0.2,1.2-0.2,2.5-0.2,3.7c0,105.9,0,211.8,0,317.7c0,6,1.9,11.3,6,15.7c3.5,3.8,7.9,6,13.1,6.8
		c1.3,0.2,2.6,0.2,3.9,0.2c63.6,0,127.1,0,190.7,0c1.1,0,2.2-0.2,3.2,0.4c0.4,0.4,0.4,1,0.4,1.5c0,10.4,0,20.8,0,31.2
		c0,0.4,0,0.9-0.2,1.3c-0.4,0.4-0.9,0.5-1.4,0.5c-0.8,0-1.6,0-2.4,0c-63.6,0-127.3,0-190.9,0c-13.8,0-26-4.4-36.6-13.2
		c-10.1-8.4-16.5-19.1-19.3-31.9c-0.5-2.3-0.5-4.6-0.6-6.9c0-0.4,0.1-0.9-0.1-1.3c0-108.8,0-217.6,0-326.3c0.2-2,0.2-4,0.4-5.9
		c0.4-4,1.7-7.8,3.1-11.5c2.2-5.6,5.2-10.8,9.1-15.4c7.5-8.9,16.8-15.1,28.1-18.4c3.8-1.1,7.6-1.5,11.4-1.6
		C240.4,160.1,240.7,160.2,240.9,160z"/>
	<path class="st4" d="M532.2,521.3c8.1,0,16.1,0,24.2,0c4.7,0,9.3,0,14,0c9.3,0,16.7,6.4,18.1,15.5c0,0.2,0.1,0.3,0.2,0.5
		c0,19.6,0,39.3,0,58.9c-0.2,0.6-0.2,1.2-0.2,1.8c-0.1,3.1-1.6,5.5-3.4,7.8c-3.2,4-7.4,6.2-12.5,6.9c-1.1,0.1-2.2,0.2-3.2-0.2
		c-0.4-0.3-0.5-0.8-0.7-1.3c-1-2.8-2.9-4.5-5.8-5.1c-0.2,0-0.4-0.1-0.6-0.1c-0.4-0.1-0.8-0.2-0.9-0.6c-0.1-0.5,0.2-0.8,0.5-1
		c1.5-0.9,3-1.6,4.7-1.6c0.3,0,0.5,0,0.8,0c0.7,0,1.4,0,1.5-0.9c0.1-0.9-0.3-1.6-1.1-2c-1-0.4-2.1-0.3-3.1,0c-3.1,1-6,2.4-8,5.2
		c-1.4,1.9-2.2,4.1-2.7,6.4c-0.1,0.5-0.1,1-0.7,1.2c-1.2,0.3-2.4,0.3-3.5,0c-0.6-0.2-0.7-0.7-0.9-1.2c-1-3-3.1-4.8-6.2-5.4
		c-0.3,0-0.5,0-0.7-0.2c-0.6-0.6-0.2-1,0.3-1.4c1.3-0.9,2.8-1.6,4.5-1.7c0.4,0,0.8,0,1.1,0c0.7,0,1.3-0.1,1.5-0.9
		c0.1-0.8-0.1-1.5-0.9-1.9c-0.7-0.3-1.5-0.5-2.3-0.3c-6.1,1.3-10,4.9-11.5,11c-0.2,0.7,0,1.6-0.9,2c-0.7,0.3-1.4,0.2-2.1,0.2
		c-24.9,0-49.8,0-74.7,0c-9,0-16.7-6.6-18.2-15.5c-0.2-1.3-0.3-2.7-0.2-4c0-0.5,0.1-1,0.5-1.3c0-11.3,0-22.6,0-33.9
		c-0.5-0.4-0.5-0.9-0.5-1.4c0-6.2-0.1-12.3,0-18.5c0.1-4,1.6-7.5,4.2-10.6c4.4-5.2,10.1-7.2,16.7-6.8c0.3,0,0.7,0.1,1,0.2
		c0.6,0.3,0.6,0.9,0.7,1.5c0.8,3.2,2.7,5.1,5.9,5.9c0.5,0.1,1.3,0,1.4,0.9c0.1,0.8-0.7,1-1.2,1.3c-1.5,0.8-3,1.3-4.7,1.3
		c-0.8,0-1.6,0-1.7,1.1c-0.1,0.8,0.6,1.7,1.5,1.9c0.9,0.2,1.9,0.2,2.8-0.1c5.6-1.6,9.2-5.1,10.5-10.9c0.1-0.5,0.1-1,0.2-1.6
		c0-0.5,0.1-0.9,0.6-1.1c1.2-0.3,2.4-0.3,3.6,0c0.6,0.2,0.6,0.7,0.8,1.2c0.8,3.4,2.8,5.5,6.3,6.3c0.5,0.1,1.1,0.1,1.1,0.8
		c0.1,0.6-0.4,0.9-0.9,1.2c-1.6,0.9-3.2,1.5-5,1.4c-0.8,0-1.6,0-1.7,1c-0.1,0.9,0.7,1.8,1.7,1.9c1.5,0.2,3-0.1,4.4-0.7
		c5.3-2.2,8.3-6.1,8.9-11.8c0-0.5,0.1-1,0.6-1.2c0.8-0.2,1.5-0.4,2.1,0.3C509.6,521.3,520.9,521.3,532.2,521.3z"/>
	<path class="st5" d="M569.5,612.4c0,0.7,0.1,1.5,0.1,2.2c-0.1,4.4-3.5,6.8-6.8,7.7c-0.2,0.1-0.5,0.1-0.7,0.2c-0.5,0-1.1,0-1.6,0
		c-0.1,0-0.1-0.1-0.2-0.1c-1.8,0.1-3.2-0.7-4.4-2c-1.9-1.9-2.6-4.2-2.7-6.8c0-0.5,0.1-0.9,0.5-1.2c0.8-7.1,5.2-11.7,12.2-13.2
		c0.9-0.2,1.9-0.1,2.7,0.4c1.1,0.5,1.6,2.1,1,3.1c-0.4,0.7-1,0.7-1.6,0.7c-2.1-0.2-3.9,0.5-5.6,1.6c-0.2,0.1-0.3,0.3-0.7,0.5
		C566,605.9,568.6,608.2,569.5,612.4z"/>
	<path class="st5" d="M540.8,622.5c-2.8-0.6-4.6-2.4-5.9-4.8c-0.9-1.7-0.7-3.6-0.9-5.4c0.8-7.2,5.3-11.8,12.2-13.2
		c0.9-0.2,1.7,0,2.5,0.3c1.2,0.5,1.7,2,1.2,3.1c-0.3,0.7-1,0.8-1.6,0.7c-2.3-0.2-4.3,0.6-6.4,2.1c4.4,0.5,7,2.8,8,6.9
		c0.5,0.4,0.7,0.9,0.7,1.6c0,4.8-3.4,8.5-7.8,8.5c-0.1,0-0.1,0.1-0.2,0.1C542,622.5,541.4,622.5,540.8,622.5z"/>
	<path class="st6" d="M498.3,521.3c-0.7,0-1.4,0-2.2,0c-0.7-0.2-0.6-0.8-0.6-1.3c-0.3-3.1-1.8-5.4-4.5-6.8c-1.3-0.7-2.7-0.8-4-0.4
		c-3.3,0.9-6.2,3.2-6.2,7.1c0,0.5,0.1,1.1-0.6,1.3c-1.2,0-2.5,0-3.7,0c-0.7-0.2-0.6-0.8-0.6-1.3c-0.3-3.1-1.8-5.4-4.5-6.8
		c-1.3-0.7-2.7-0.8-4-0.4c-3.3,0.9-6.2,3.2-6.2,7.1c0,0.5,0.1,1.1-0.6,1.3c-3.3,0-6.5,0-9.7,1.1c-6.9,2.6-11.7,9.3-11.7,16.7
		c0,6.3,0,12.6,0,18.9c-64.9,0-129.9,0-194.8,0c-12.4,0-22.4-10.2-22.4-22.5c0-106.4,0-212.7,0-319.1c0-12.6,10.1-22.6,22.7-22.6
		c55.5,0,111,0,166.4,0c21.4,0,42.8,0,64.1,0c11.5,0,20.6,7.4,22.8,18.7c0.2,1.3,0.3,2.5,0.3,3.8
		C498.3,318.1,498.3,419.7,498.3,521.3z"/>
	<path class="st5" d="M460.6,521.4c0-0.6,0-1.1,0-1.7c0.1-5.3,6.4-8.4,10-7.4c2.3,0.6,5.8,4.1,5.8,7.6c0,0.5,0.1,1,0.1,1.5
		c-0.1,3.9-1.4,7.3-4.1,9.9c-2.6,2.5-5.7,4.3-9.5,4.1c-1.4-0.1-2.4-0.9-2.5-2.1c-0.2-1.4,0.4-2.1,1.8-2c2.1,0.1,3.9-0.6,5.6-1.6
		c0.2-0.1,0.4-0.2,0.5-0.5C463.8,528.5,461.2,526,460.6,521.4z"/>
	<path class="st5" d="M480.2,521.4c0-0.6,0-1.1,0-1.7c0.1-5.3,6.4-8.4,10-7.4c2.3,0.6,5.8,4.1,5.8,7.6c0,0.5,0.1,1,0.1,1.5
		c-0.1,3.9-1.4,7.3-4.1,9.9c-2.6,2.5-5.7,4.3-9.5,4.1c-1.4-0.1-2.4-0.9-2.5-2.1c-0.2-1.4,0.4-2.1,1.8-2c2.1,0.1,3.9-0.6,5.6-1.6
		c0.2-0.1,0.4-0.2,0.5-0.5C483.4,528.5,480.8,526,480.2,521.4z"/>
	<path class="st6" d="M524.5,570.7c0.1,5.9-4.3,10.5-10.1,10.3c-5.8-0.3-9.9-3.7-9.7-10.6c0.2-5.5,3.8-9.7,10.2-9.7
		C520.3,560.7,524.6,565.1,524.5,570.7z"/>
	<path class="st6" d="M569.6,572.2c-1.9,0-3.8,0-5.6,0c-0.4,0-0.7-0.1-0.8,0.5c-0.1,1.9,1.7,4.2,3.5,4.4c1.4,0.2,2.6-0.4,3.3-1.7
		c0.4-0.7,0.7-1.1,1.7-0.8c0.9,0.3,1.9,0.2,2.9,0.3c0.9,0.1,1.1,0.5,0.6,1.3c-1.1,2.2-2.6,3.7-5,4.3c-3,0.8-5.9,0.6-8.5-1.2
		c-1.9-1.3-2.9-3.3-3.4-5.4c-0.5-2.6-0.5-5.3,0.6-7.9c1.3-3.2,3.7-5,7-5.4c3.6-0.4,6.6,0.8,8.6,4c1.3,2.1,1.6,4.5,1.6,6.9
		c0,0.7-0.4,0.6-0.8,0.6C573.3,572.2,571.4,572.2,569.6,572.2z"/>
	<path class="st6" d="M467.4,563.9c2.7-3.6,7.1-4.3,10.5-1.8c1,0.7,1.4,1.8,1.6,2.9c0.2,1,0.3,2.1,0.3,3.1c0,3.8,0,7.6,0,11.4
		c0,0.8-0.2,1-1,1c-1.1-0.1-2.2-0.1-3.3,0c-0.7,0-0.9-0.2-0.9-0.9c0-3.6,0-7.2,0-10.8c0-0.8-0.1-1.6-0.3-2.4c-0.3-1-1.1-1.7-2.1-1.8
		c-1.4-0.2-2.5,0.4-3.3,1.4c-0.8,1.1-0.9,2.4-1,3.7c-0.1,3.3,0,6.6,0,9.9c0,0.8-0.2,1.1-1,1c-1.2-0.1-2.3,0-3.5,0
		c-0.5,0-0.7-0.1-0.7-0.7c0-6,0-12,0-18.1c0-0.6,0.2-0.7,0.7-0.7c1,0,2,0.1,3,0c0.8-0.1,1.1,0.2,1,1
		C467.4,562.6,467.4,563.1,467.4,563.9z"/>
	<path class="st6" d="M555.9,574.3c-0.8,3.2-2.5,5.5-5.8,6.3c-5.1,1.2-10.1-0.4-11.8-5.7c-1-3.2-0.9-6.4,0.5-9.5
		c1.1-2.4,3-3.8,5.5-4.4c2.7-0.6,5.4-0.5,7.9,0.9c1.7,1,2.6,2.7,3.3,4.5c0.1,0.4-0.1,0.3-0.3,0.4c-1.4,0.2-2.8,0.4-4.3,0.7
		c-0.5,0.1-0.6-0.3-0.7-0.6c-0.4-1.9-2.3-2.5-3.7-2.4c-1.7,0.2-3.1,1.5-3.4,3.3c-0.4,2.2-0.3,4.4,0.2,6.5c0.4,1.6,2,2.8,3.7,2.8
		c1.9,0,3.1-0.9,3.5-2.8c0.2-0.7,0.4-0.9,1.2-0.7C553.1,573.9,554.5,574,555.9,574.3z"/>
	<path class="st6" d="M492.4,574.3c1.2-4.2,2.7-8.3,4-12.5c0.2-0.5,0.3-0.7,0.9-0.7c1.3,0,2.6,0,3.8,0c0.7,0,0.9,0.1,0.6,0.9
		c-2.3,5.9-4.6,11.9-6.8,17.9c-0.2,0.5-0.5,0.7-1.1,0.7c-0.7,0-1.4-0.1-2.1,0c-1.2,0.2-1.8-0.3-2.2-1.4c-2.2-5.8-4.4-11.5-6.6-17.2
		c-0.3-0.6-0.2-0.8,0.5-0.8c1.4,0,2.7,0,4.1,0c0.4,0,0.6,0.1,0.8,0.6C489.6,565.9,491.1,570,492.4,574.3z"/>
	<path class="st6" d="M457.5,567.3c0,4.1,0,8.2,0,12.3c0,0.8-0.2,1-1,1c-1.1-0.1-2.3-0.1-3.4,0c-0.8,0.1-1.1-0.2-1.1-1
		c0-4.5,0-8.9,0-13.4c0-3.8,0-7.5,0-11.3c0-0.7,0.2-1,0.9-0.9c1.1,0.1,2.3,0.1,3.4,0c0.9-0.1,1.1,0.2,1.1,1.1
		C457.4,559.1,457.5,563.2,457.5,567.3z"/>
	<path class="st6" d="M533.8,571c0,2.9,0,5.7,0,8.6c0,0.9-0.3,1.1-1.1,1c-1.1-0.1-2.3,0-3.4,0c-0.6,0-0.8-0.2-0.8-0.8
		c0-6,0-11.9,0-17.9c0-0.6,0.2-0.8,0.8-0.8c1.2,0,2.3,0.1,3.5,0c0.7,0,1,0.2,0.9,0.9C533.8,565,533.8,568,533.8,571z"/>
	<path class="st6" d="M531.2,558.4c-2.6,0-2.6,0-2.6-2.6c0-1.9,0-1.9,1.9-1.9c0.8,0,1.7,0,2.5,0c0.7-0.1,0.9,0.2,0.9,0.9
		c0,0.3,0,0.7,0,1C533.8,558.4,533.8,558.4,531.2,558.4z"/>
	<path class="st7" d="M360.7,506.5c-37.5,0-75,0-112.6,0c-1.1,0-1.4-0.2-1.4-1.4c0-47.6,0-95.1,0-142.7c0-1.1,0.3-1.4,1.4-1.4
		c75,0,150.1,0,225.1,0c1.1,0,1.4,0.2,1.4,1.4c0,47.6,0,95.1,0,142.7c0,1.1-0.3,1.4-1.4,1.4C435.8,506.5,398.2,506.5,360.7,506.5z"
		/>
	<path class="st7" d="M306.1,335.5c-18.7,0-37.5,0-56.2,0c-2.4,0-3.1-0.7-3.1-3.1c0-2.6,0-5.1,0-7.7c0-2.6,0.6-3.2,3.2-3.2
		c36.2,0,72.3,0,108.5,0c1.5,0,2.9,0,4.4,0c1.6,0,2.5,0.9,2.5,2.5c0,2.8,0,5.6,0,8.4c0,2.4-0.7,3.1-3.1,3.1
		C343.5,335.5,324.8,335.5,306.1,335.5z"/>
	<path class="st7" d="M306,294c18.7,0,37.5,0,56.2,0c2.4,0,3.1,0.7,3.1,3.1c0,2.7,0,5.4,0,8.1c0,1.9-0.8,2.8-2.7,2.8
		c-37.7,0-75.4,0-113.1,0c-1.9,0-2.7-0.8-2.7-2.8c0-2.8,0-5.6,0-8.5c0-2,0.8-2.8,2.8-2.8C268.4,294,287.2,294,306,294z"/>
	<path class="st5" d="M287.9,250.2c4.1,2.9,5.7,7.2,7.9,11.2c0.9,1.6,1.6,3.2,2.5,4.8c0.3,0.5,0.4,0.9-0.4,0.8c-2,0-4.1,0-6.1,0
		c-0.7,0-0.9-0.4-1.1-0.9c-2.2-3.9-4.4-7.8-6.5-11.7c-1.4-2.5-3.4-3.6-6.2-3.5c-0.9,0-1.1,0.3-1.1,1.2c0,4.6,0,9.2,0,13.8
		c0,0.9-0.2,1.2-1.1,1.1c-1.4-0.1-2.9-0.1-4.3,0c-0.8,0-1-0.2-1-1c0-6.1,0-12.1,0-18.2c0-6,0-12,0-17.9c0-1,0.3-1.2,1.2-1.2
		c5,0.1,9.9,0,14.9,0.1c2.7,0.1,5.2,0.6,7.1,2.9c1.3,1.6,2.1,3.5,2.3,5.5c0.4,3.6,0.1,7.1-2.5,10C292,248.9,290.2,249.7,287.9,250.2
		z"/>
	<path class="st5" d="M412,250.2c4.5,3.4,6.2,8.6,8.8,13.2c0.6,1.1,1.2,2.3,1.9,3.7c-2.5,0-4.9,0-7.2,0c-0.6,0-0.6-0.5-0.8-0.8
		c-2.2-3.9-4.4-7.8-6.5-11.7c-1.4-2.6-3.4-3.6-6.3-3.5c-0.9,0-1.1,0.3-1,1.1c0,4.6,0,9.2,0,13.8c0,0.9-0.3,1.2-1.2,1.2
		c-1.3-0.1-2.6-0.1-3.9,0c-1.1,0.1-1.2-0.3-1.2-1.3c0-8.9,0-17.8,0-26.6c0-3.1,0-6.2,0-9.4c0-0.8,0.2-1,1-1c4.8,0,9.6,0,14.4,0.1
		c1,0,2,0.1,3,0.3c4,0.8,6.7,4.1,7.1,8.8c0.1,1.6,0.1,3.2-0.3,4.8c-0.9,3.7-3.2,6.1-6.9,7.1C412.6,250,412.3,250.1,412,250.2z"/>
	<path class="st5" d="M359,248c0.1-4,0.5-8,2.3-11.6c2.7-5.6,7.1-8.4,13.3-8.2c5.9,0.2,10.2,3,12.5,8.3c3.4,7.7,3.3,15.6-0.1,23.2
		c-2.5,5.6-7.2,8.2-13.3,8c-6.3-0.2-10.4-3.5-12.8-9.2C359.6,255.6,359,251.6,359,248z"/>
	<path class="st5" d="M302,247.9c0-6,0-12,0-17.9c0-0.9,0.2-1.2,1.1-1.2c7,0,14.1,0,21.1,0c0.8,0,1.1,0.2,1.1,1.1
		c-0.1,1.5-0.1,2.9,0,4.4c0,0.9-0.3,1.1-1.1,1.1c-4.9,0-9.7,0-14.6,0c-1,0-1.4,0.3-1.3,1.3c0.1,2.1,0.1,4.1,0,6.2c0,0.8,0.3,1,1,1
		c4.5,0,9,0,13.5,0c0.9,0,1.2,0.2,1.1,1.1c-0.1,1.4-0.1,2.9,0,4.3c0.1,0.9-0.3,1-1.1,1c-4.4,0-8.9,0-13.3,0c-1.1,0-1.3,0.3-1.3,1.3
		c0.1,2.7,0.1,5.3,0,8c0,0.8,0.2,1.1,1.1,1.1c5.1,0,10.2,0,15.2,0c1,0,1.3,0.3,1.2,1.3c-0.1,1.5-0.1,3,0,4.5c0,0.6-0.2,0.8-0.8,0.8
		c-7.4,0-14.8,0-22.1,0c-0.8,0-0.9-0.4-0.9-1C302,260,302,254,302,247.9z"/>
	<path class="st5" d="M331.2,247.9c0-6,0-12,0-17.9c0-0.9,0.3-1.2,1.2-1.2c4.4,0.1,8.8,0.1,13.2,0.1c5.6,0,8,3.4,9.1,7.1
		c0.9,3.3,0.9,6.7-0.3,10c-1.4,3.9-4.1,6.1-8.3,6.4c-2.5,0.2-5,0.2-7.4,0.2c-0.9,0-1.1,0.3-1.1,1.1c0,4.1,0,8.2,0,12.3
		c0,0.9-0.2,1.1-1.1,1.1c-1.4-0.1-2.7-0.1-4.1,0c-1,0.1-1.3-0.2-1.3-1.2C331.2,259.9,331.2,253.9,331.2,247.9z"/>
	<path class="st5" d="M439.4,251.3c0,4.9,0,9.9,0,14.8c0,0.8-0.2,1.1-1.1,1.1c-1.4-0.1-2.9-0.1-4.3,0c-0.9,0.1-1-0.3-1-1.1
		c0-9.7,0-19.4,0-29.1c0-1.8,0.2-1.6-1.6-1.6c-2.2,0-4.4,0-6.7,0c-0.9,0-1.1-0.3-1.1-1.1c0.1-1.4,0.1-2.9,0-4.3
		c0-0.9,0.2-1.1,1.1-1.1c6.7,0,13.3,0,20,0c0.9,0,1.9,0,2.8,0c0.7,0,1,0.2,1,0.9c-0.1,1.5-0.1,3.1,0,4.6c0,0.8-0.3,1-1,0.9
		c-2.3,0-4.7,0-7,0c-1,0-1.3,0.2-1.3,1.3C439.4,241.5,439.4,246.4,439.4,251.3z"/>
	<path class="st4" d="M519.1,571c0.1,1.2-0.2,2.4-0.7,3.6c-0.7,1.5-1.8,2.4-3.4,2.6c-1.8,0.2-3.2-0.7-4.1-2.1
		c-1.4-2.2-1.4-6.9,0.4-8.9c2.1-2.4,5.4-2.1,7,0.7C518.9,568.1,519.2,569.5,519.1,571z"/>
	<path class="st4" d="M567,569c-1.1,0-2.1,0-3.2,0c-0.6,0-0.6-0.1-0.5-0.7c0.3-1.7,0.9-3,2.6-3.6c2.5-0.8,4.7,1.1,4.9,3.8
		c0,0.5-0.2,0.6-0.6,0.6C569.1,569,568,569,567,569z"/>
	<path class="st6" d="M259.3,433.8c0-19.6,0-39.2,0-58.8c0-1.1,0.3-1.4,1.4-1.4c32.5,0,65,0,97.4,0c1.1,0,1.4,0.3,1.4,1.4
		c0,39.2,0,78.4,0,117.7c0,1.1-0.2,1.4-1.4,1.4c-32.5,0-65,0-97.4,0c-1.1,0-1.4-0.3-1.4-1.4C259.3,473,259.3,453.4,259.3,433.8z"/>
	<path class="st6" d="M371.7,433.8c0-19.6,0-39.2,0-58.8c0-1.2,0.4-1.4,1.5-1.4c12.9,0,25.9,0,38.8,0c1.1,0,1.3,0.3,1.3,1.3
		c0,39.3,0,78.6,0,117.9c0,1-0.2,1.3-1.3,1.3c-13,0-26,0-39.1,0c-1.1,0-1.3-0.3-1.3-1.3C371.7,473,371.7,453.4,371.7,433.8z"/>
	<path class="st6" d="M425.4,433.8c0-19.6,0-39.3,0-58.9c0-1,0.2-1.3,1.3-1.3c11.4,0,22.8,0,34.2,0c1,0,1.3,0.3,1.3,1.3
		c0,39.3,0,78.6,0,117.9c0,1-0.3,1.3-1.3,1.3c-11.4,0-22.9,0-34.3,0c-1,0-1.2-0.3-1.2-1.2C425.4,473.1,425.4,453.4,425.4,433.8z"/>
	<path class="st6" d="M276.8,240.1c0-1.4,0-2.7,0-4.1c0-0.6,0.2-0.8,0.8-0.8c2.8,0.1,5.6-0.1,8.4,0.2c0.3,0,0.5,0.1,0.8,0.1
		c1.9,0.6,2.9,2.4,2.7,5.1c-0.2,2.3-1.3,3.7-3.4,4c-2.9,0.4-5.8,0.1-8.7,0.2c-0.6,0-0.7-0.3-0.6-0.8
		C276.8,242.8,276.8,241.5,276.8,240.1z"/>
	<path class="st6" d="M400.7,240.1c0-1.3,0-2.6,0-3.8c0-0.6,0.1-1,0.9-0.9c2.7,0.1,5.5-0.1,8.2,0.2c1.8,0.2,3,1.1,3.5,2.9
		c0.3,1.2,0.3,2.5,0,3.7c-0.5,1.6-1.5,2.5-3.2,2.8c-2.9,0.4-5.8,0.1-8.7,0.2c-0.6,0-0.6-0.4-0.6-0.8
		C400.7,242.8,400.7,241.4,400.7,240.1z"/>
	<path class="st6" d="M365.6,247.9c0-2.7,0.3-5.3,1.3-7.8c2-4.8,7.3-6.7,11.5-4.1c1.9,1.2,3.1,3,3.7,5.1c1.3,4.5,1.2,9,0,13.5
		c-0.5,1.7-1.3,3.2-2.6,4.4c-3.1,3-7.9,2.8-10.7-0.4c-2.5-2.8-2.9-6.2-3.1-9.6C365.6,248.6,365.6,248.2,365.6,247.9z"/>
	<path class="st6" d="M337.5,240.6c0-1.5,0-2.9,0-4.4c0-0.8,0.3-1,1-0.9c1.7,0.1,3.5,0.1,5.2,0.1c4.3,0.1,5.4,3.8,4.9,6.5
		c-0.4,2.5-2,3.9-4.6,4.1c-1.9,0.1-3.8,0.1-5.6,0.1c-0.6,0-0.8-0.2-0.8-0.8C337.5,243.8,337.5,242.2,337.5,240.6z"/>
</g>
</svg>
