<?xml version="1.0" encoding="utf-8"?>
<!-- Generator: Adobe Illustrator 24.1.2, SVG Export Plug-In . SVG Version: 6.00 Build 0)  -->
<svg version="1.1" id="Layer_1" xmlns="http://www.w3.org/2000/svg" xmlns:xlink="http://www.w3.org/1999/xlink" x="0px" y="0px"
	 viewBox="0 0 492 492" style="enable-background:new 0 0 492 492;" xml:space="preserve">
<style type="text/css">
	.st0{fill:#12A65A;}
	.st1{fill:#E0E0E0;}
	.st2{fill:#707273;}
</style>
<g id="Layer_1_1_">
	<g>
		<path class="st0" d="M42.8,245.9c0-64,0-128.1,0-192c0-31.4,22-53.4,53.6-53.5c99.7,0,199.5,0,299.2,0c31.5,0,53.5,22.1,53.5,53.6
			c0,97.2,0,194.6,0.1,291.9c0,3.9-1.1,6.6-3.8,9.4C401.2,399.4,357,443.7,312.9,488c-2.7,2.7-5.2,3.7-8.9,3.7
			c-69.1-0.1-138.1-0.1-207.2-0.1c-32.1,0-53.9-22-53.9-54.3C42.8,373.5,42.8,309.8,42.8,245.9z M286.3,460c0-2.3,0-4.1,0-6
			c0-24,0-48,0-72c0.1-31.6,22-53.4,53.6-53.5c24,0,48,0,72,0c1.8,0,3.8,0,5.9,0c0-2.4,0-3.9,0-5.5c0-89.5,0-178.9,0-268.4
			c0-15-7.9-22.8-23-22.8c-99,0-197.9,0-296.9,0c-16.6,0-24,7.4-24,23.9c0,127.5,0,255,0,382.5c0,14.2,8,22.2,22.1,22.2
			c61.5,0,123.1,0,184.7,0C282.4,460.2,284,460.1,286.3,460z M318.2,436c25.7-25.7,51.2-51.2,76.2-76.2c-18.1,0-37.4-0.2-56.5,0.1
			c-9.7,0.2-18.2,7.3-18.5,16.3c-0.6,20.1-0.2,40-0.2,60.2C318.9,436.6,319.1,436.6,318.2,436z"/>
		<path class="st1" d="M286.3,460c-2.3,0.1-3.8,0.2-5.4,0.2c-61.5,0-123.1,0-184.7,0c-14.1,0-22-8-22.1-22.2c0-127.5,0-255,0-382.5
			c0-16.5,7.4-23.9,24-23.9c99,0,197.9,0,296.9,0c15.1,0,23,7.8,23,22.8c0,89.5,0,178.9,0,268.4c0,1.5,0,3.3,0,5.5
			c-2.3,0-4.1,0-5.9,0c-24,0-48,0-72,0c-31.6,0-53.5,21.9-53.6,53.5c0,24,0,48,0,72C286.3,455.9,286.3,457.8,286.3,460z
			 M131.9,209.1c76.4,0,152.2,0,228.2,0c0-10.3,0-20.5,0-30.6c-76.2,0-152.2,0-228.2,0C131.9,189,131.9,198.9,131.9,209.1z
			 M131.9,280.1c76.4,0,152.2,0,228,0c0-10.4,0-20.6,0-30.7c-76.2,0-152,0-228,0C131.9,259.7,131.9,269.9,131.9,280.1z M131.9,321.5
			c0,10.5,0,20.6,0,30.8c32.7,0,65,0,97.6,0c0-10.4,0-20.6,0-30.8C196.8,321.5,164.6,321.5,131.9,321.5z"/>
		<path class="st1" d="M318.2,436c1.1,0.6,0.8,0.5,0.8,0.5c0-20.1-0.4-40.1,0.2-60.2c0.3-9,8.8-16.2,18.5-16.3
			c19.2-0.3,38.5-0.1,56.5-0.1C369.2,384.8,343.8,410.3,318.2,436z"/>
		<path class="st2" d="M131.9,209.1c0-10.2,0-20.2,0-30.6c76,0,151.9,0,228.2,0c0,10.1,0,20.2,0,30.6
			C284.1,209.1,208.3,209.1,131.9,209.1z"/>
		<path class="st2" d="M131.9,280.1c0-10.2,0-20.4,0-30.7c76.1,0,151.7,0,228,0c0,10.1,0,20.3,0,30.7
			C284.1,280.1,208.3,280.1,131.9,280.1z"/>
		<path class="st2" d="M131.9,321.5c32.8,0,64.9,0,97.6,0c0,10.2,0,20.5,0,30.8c-32.6,0-64.8,0-97.6,0
			C131.9,342.1,131.9,332,131.9,321.5z"/>
	</g>
	<path class="st1" d="M175,121.6"/>
	<path class="st1" d="M253.3,104"/>
</g>
<g>
	<path class="st0" d="M139.1,146.3v-58h33v7.4h-24.8v17.2h24.1v7.5h-24.1v26h-8.2V146.3z"/>
	<path class="st0" d="M182.1,146.3v-58h8.3v58.1L182.1,146.3L182.1,146.3z"/>
	<path class="st0" d="M203.1,146.3v-58h7.2l38.2,45.1V88.3h8.3v58.1h-7.4l-38.1-45.1v45.1L203.1,146.3L203.1,146.3z"/>
	<path class="st0" d="M261.1,146.3l25.2-58.1h6.1l25.5,58.1h-8.6l-7.5-17.1H277l-7.4,17.1H261.1z M280.3,121.8h18.1l-9.2-20.9
		L280.3,121.8z"/>
	<path class="st0" d="M322.5,146.3v-58h8.2v50.6h27.6v7.5L322.5,146.3L322.5,146.3z"/>
</g>
</svg>
