<?xml version="1.0" encoding="utf-8"?>
<!-- Generator: Adobe Illustrator 24.1.2, SVG Export Plug-In . SVG Version: 6.00 Build 0)  -->
<svg version="1.1" id="Layer_1" xmlns="http://www.w3.org/2000/svg" xmlns:xlink="http://www.w3.org/1999/xlink" x="0px" y="0px"
	 viewBox="0 0 492 492" style="enable-background:new 0 0 492 492;" xml:space="preserve">
<style type="text/css">
	.st0{fill:#E2C937;}
	.st1{fill:#E0E0E0;}
	.st2{fill:#707273;}
</style>
<g id="Layer_1_1_">
	<g>
		<path class="st0" d="M42.8,245.9c0-64,0-128.1,0-192c0-31.4,22-53.4,53.6-53.5c99.7,0,199.5,0,299.2,0c31.5,0,53.5,22.1,53.5,53.6
			c0,97.2,0,194.6,0.1,291.9c0,3.9-1.1,6.6-3.8,9.4C401.2,399.4,357,443.7,312.9,488c-2.7,2.7-5.2,3.7-8.9,3.7
			c-69.1-0.1-138.1-0.1-207.2-0.1c-32.1,0-53.9-22-53.9-54.3C42.8,373.5,42.8,309.8,42.8,245.9z M286.3,460c0-2.3,0-4.1,0-6
			c0-24,0-48,0-72c0.1-31.6,22-53.4,53.6-53.5c24,0,48,0,72,0c1.8,0,3.8,0,5.9,0c0-2.4,0-3.9,0-5.5c0-89.5,0-178.9,0-268.4
			c0-15-7.9-22.8-23-22.8c-99,0-197.9,0-296.9,0c-16.6,0-24,7.4-24,23.9c0,127.5,0,255,0,382.5c0,14.2,8,22.2,22.1,22.2
			c61.5,0,123.1,0,184.7,0C282.4,460.2,284,460.1,286.3,460z M318.2,436c25.7-25.7,51.2-51.2,76.2-76.2c-18.1,0-37.4-0.2-56.5,0.1
			c-9.7,0.2-18.2,7.3-18.5,16.3c-0.6,20.1-0.2,40-0.2,60.2C318.9,436.6,319.1,436.6,318.2,436z"/>
		<path class="st1" d="M286.3,460c-2.3,0.1-3.8,0.2-5.4,0.2c-61.5,0-123.1,0-184.7,0c-14.1,0-22-8-22.1-22.2c0-127.5,0-255,0-382.5
			c0-16.5,7.4-23.9,24-23.9c99,0,197.9,0,296.9,0c15.1,0,23,7.8,23,22.8c0,89.5,0,178.9,0,268.4c0,1.5,0,3.3,0,5.5
			c-2.3,0-4.1,0-5.9,0c-24,0-48,0-72,0c-31.6,0-53.5,21.9-53.6,53.5c0,24,0,48,0,72C286.3,455.9,286.3,457.8,286.3,460z
			 M131.9,209.1c76.4,0,152.2,0,228.2,0c0-10.3,0-20.5,0-30.6c-76.2,0-152.2,0-228.2,0C131.9,189,131.9,198.9,131.9,209.1z
			 M131.9,280.1c76.4,0,152.2,0,228,0c0-10.4,0-20.6,0-30.7c-76.2,0-152,0-228,0C131.9,259.7,131.9,269.9,131.9,280.1z M131.9,321.5
			c0,10.5,0,20.6,0,30.8c32.7,0,65,0,97.6,0c0-10.4,0-20.6,0-30.8C196.8,321.5,164.6,321.5,131.9,321.5z"/>
		<path class="st1" d="M318.2,436c1.1,0.6,0.8,0.5,0.8,0.5c0-20.1-0.4-40.1,0.2-60.2c0.3-9,8.8-16.2,18.5-16.3
			c19.2-0.3,38.5-0.1,56.5-0.1C369.2,384.8,343.8,410.3,318.2,436z"/>
		<path class="st2" d="M131.9,209.1c0-10.2,0-20.2,0-30.6c76,0,151.9,0,228.2,0c0,10.1,0,20.2,0,30.6
			C284.1,209.1,208.3,209.1,131.9,209.1z"/>
		<path class="st2" d="M131.9,280.1c0-10.2,0-20.4,0-30.7c76.1,0,151.7,0,228,0c0,10.1,0,20.3,0,30.7
			C284.1,280.1,208.3,280.1,131.9,280.1z"/>
		<path class="st2" d="M131.9,321.5c32.8,0,64.9,0,97.6,0c0,10.2,0,20.5,0,30.8c-32.6,0-64.8,0-97.6,0
			C131.9,342.1,131.9,332,131.9,321.5z"/>
	</g>
	<path class="st1" d="M175,121.6"/>
	<path class="st1" d="M253.3,104"/>
</g>
<g>
	<path class="st0" d="M128.9,136.9v-27.3h8.5c2.9,0,5.1,0.7,6.7,2.1c1.6,1.4,2.4,3.3,2.4,5.7c0,2.4-0.8,4.3-2.4,5.7
		c-1.6,1.4-3.8,2.1-6.7,2.1h-4.7v11.8H128.9z M132.8,121.7h4.2c1.9,0,3.3-0.3,4.1-1c0.9-0.7,1.3-1.8,1.3-3.3s-0.4-2.6-1.3-3.3
		c-0.9-0.7-2.2-1-4.1-1h-4.2V121.7z"/>
	<path class="st0" d="M150.5,136.9v-27.3h8c2.8,0,4.9,0.7,6.4,2c1.5,1.3,2.2,3.1,2.2,5.5c0,1.8-0.4,3.2-1.2,4.3
		c-0.8,1.1-2.1,1.9-3.9,2.5c0.5,0.2,0.9,0.6,1.3,1c0.4,0.4,0.9,1.1,1.6,2.1l6.6,10h-4.7l-4.7-7.2c-1.4-2.2-2.5-3.5-3.4-4.1
		c-0.9-0.6-1.9-0.9-3.1-0.9h-1.2v12.2H150.5z M154.5,121.4h3.2c1.8,0,3.2-0.4,4.1-1.1s1.4-1.8,1.4-3.2c0-1.5-0.4-2.6-1.3-3.2
		c-0.9-0.7-2.2-1-4.2-1h-3.2V121.4z"/>
	<path class="st0" d="M173.2,136.9v-27.3h16.4v3.5h-12.6v8.3h12.2v3.5h-12.2v8.5h13v3.5H173.2z"/>
	<path class="st0" d="M195.1,136.9v-27.3h3.9v23.8h13v3.5H195.1z"/>
	<path class="st0" d="M215.3,136.9v-27.3h3.9v27.3H215.3z"/>
	<path class="st0" d="M225.2,136.9v-27.3h3.4l9.8,11.5l9.9-11.5h3.4v27.3h-3.8v-21.3l-9.5,11l-9.4-11v21.3H225.2z"/>
	<path class="st0" d="M257.7,136.9v-27.3h3.9v27.3H257.7z"/>
	<path class="st0" d="M267.6,136.9v-27.3h3.4l18,21.2v-21.2h3.9v27.3h-3.5l-17.9-21.2v21.2H267.6z"/>
	<path class="st0" d="M294.9,136.9l11.8-27.3h2.9l12,27.3h-4l-3.5-8.1h-11.7l-3.5,8.1H294.9z M303.9,125.3h8.5l-4.3-9.9L303.9,125.3
		z"/>
	<path class="st0" d="M323.6,136.9v-27.3h8c2.8,0,4.9,0.7,6.4,2c1.5,1.3,2.2,3.1,2.2,5.5c0,1.8-0.4,3.2-1.2,4.3
		c-0.8,1.1-2.1,1.9-3.9,2.5c0.5,0.2,0.9,0.6,1.3,1c0.4,0.4,0.9,1.1,1.6,2.1l6.6,10h-4.7l-4.7-7.2c-1.4-2.2-2.5-3.5-3.4-4.1
		c-0.9-0.6-1.9-0.9-3.1-0.9h-1.2v12.2H323.6z M327.5,121.4h3.2c1.8,0,3.2-0.4,4.1-1.1c0.9-0.7,1.4-1.8,1.4-3.2
		c0-1.5-0.4-2.6-1.3-3.2c-0.9-0.7-2.2-1-4.2-1h-3.2V121.4z"/>
	<path class="st0" d="M352.1,136.9v-13.7l-10.6-13.7h4.6l8,10.4l8.2-10.4h4.7l-11,13.9v13.5H352.1z"/>
</g>
</svg>
