<?xml version="1.0" encoding="utf-8"?>
<!-- Generator: Adobe Illustrator 23.0.0, SVG Export Plug-In . SVG Version: 6.00 Build 0)  -->
<svg version="1.1" xmlns="http://www.w3.org/2000/svg" xmlns:xlink="http://www.w3.org/1999/xlink" x="0px" y="0px"
	 viewBox="0 0 800 800" style="enable-background:new 0 0 800 800;" xml:space="preserve">
<style type="text/css">
	.st0{fill:#333333;}
	.st1{opacity:0.4;clip-path:url(#SVGID_2_);}
	.st2{fill:#FFCF5B;}
</style>
<g id="Layer_2">
	<circle class="st0" cx="400" cy="400" r="400"/>
</g>
<g id="Layer_1_copy">
	<g>
		<defs>
			<circle id="SVGID_1_" cx="400" cy="400" r="400"/>
		</defs>
		<clipPath id="SVGID_2_">
			<use xlink:href="#SVGID_1_"  style="overflow:visible;"/>
		</clipPath>
		<path class="st1" d="M939.9,709.6c-0.2-0.5-0.5-0.6-1-0.6c0-0.1,0-0.3,0-0.4c-0.2-0.5-0.5-0.6-1-0.6c0-0.1,0-0.3,0-0.4
			c-0.2-0.5-0.5-0.6-1-0.6c0-0.1,0-0.3,0-0.4c-0.2-0.5-0.5-0.6-1-0.6c0-0.1,0-0.3,0-0.4c-0.2-0.5-0.5-0.6-1-0.6c0-0.1,0-0.3,0-0.4
			c-0.2-0.5-0.5-0.6-1-0.6c0-0.1,0-0.3,0-0.4c-0.2-0.5-0.5-0.6-1-0.6c0-0.1,0-0.3,0-0.4c-0.2-0.5-0.5-0.6-1-0.6c0-0.1,0-0.3,0-0.4
			c-0.2-0.5-0.5-0.6-1-0.6c0-0.1,0-0.3,0-0.4c-0.2-0.5-0.5-0.6-1-0.6c0-0.1,0-0.3,0-0.4c-0.2-0.5-0.5-0.6-1-0.6c0-0.1,0-0.3,0-0.4
			c-0.2-0.5-0.5-0.6-1-0.6c0-0.1,0-0.3,0-0.4c-0.2-0.5-0.5-0.6-1-0.6c0-0.1,0-0.3,0-0.4c-0.2-0.5-0.5-0.6-1-0.6c0-0.1,0-0.3,0-0.4
			c-0.2-0.5-0.5-0.6-1-0.6c0-0.1,0-0.3,0-0.4c-0.2-0.5-0.5-0.6-1-0.6c0-0.1,0-0.3,0-0.4c-0.2-0.5-0.5-0.6-1-0.6c0-0.1,0-0.3,0-0.4
			c-0.2-0.5-0.5-0.6-1-0.6c0-0.1,0-0.3,0-0.4c-0.2-0.5-0.5-0.6-1-0.6c0-0.1,0-0.3,0-0.4c-0.2-0.5-0.5-0.6-1-0.6c0-0.1,0-0.3,0-0.4
			c-0.2-0.5-0.5-0.6-1-0.6c0-0.1,0-0.3,0-0.4c-0.2-0.5-0.5-0.6-1-0.6c0-0.1,0-0.3,0-0.4c-0.2-0.5-0.5-0.6-1-0.6c0-0.1,0-0.3,0-0.4
			c-0.2-0.5-0.5-0.6-1-0.6c0-0.1,0-0.3,0-0.4c-0.2-0.5-0.5-0.6-1-0.6c0-0.1,0-0.3,0-0.4c-0.2-0.5-0.5-0.6-1-0.6c0-0.1,0-0.3,0-0.4
			c-0.2-0.5-0.5-0.6-1-0.6c0-0.1,0-0.3,0-0.4c-0.2-0.5-0.5-0.6-1-0.6c0-0.1,0-0.3,0-0.4c-0.2-0.5-0.5-0.6-1-0.6c0-0.1,0-0.3,0-0.4
			c-0.2-0.5-0.5-0.6-1-0.6c0-0.1,0-0.3,0-0.4c-0.2-0.5-0.5-0.6-1-0.6c0-0.1,0-0.3,0-0.4c-0.2-0.5-0.5-0.6-1-0.6c0-0.1,0-0.3,0-0.4
			c-0.2-0.5-0.5-0.6-1-0.6c0-0.1,0-0.3,0-0.4c-0.2-0.5-0.5-0.6-1-0.6c0-0.1,0-0.3,0-0.4c-0.2-0.5-0.5-0.6-1-0.6c0-0.1,0-0.3,0-0.4
			c-0.2-0.5-0.5-0.6-1-0.6c0-0.1,0-0.3,0-0.4c-0.2-0.5-0.5-0.6-1-0.6c0-0.1,0-0.3,0-0.4c-0.2-0.5-0.5-0.6-1-0.6c0-0.1,0-0.3,0-0.4
			c-0.2-0.5-0.5-0.6-1-0.6c0-0.1,0-0.3,0-0.4c-0.2-0.5-0.5-0.6-1-0.6c0-0.1,0-0.3,0-0.4c-0.2-0.5-0.5-0.6-1-0.6c0-0.1,0-0.3,0-0.4
			c-0.2-0.5-0.5-0.6-1-0.6c0-0.1,0-0.3,0-0.4c-0.2-0.5-0.5-0.6-1-0.6c0-0.1,0-0.3,0-0.4c-0.2-0.5-0.5-0.6-1-0.6c0-0.1,0-0.3,0-0.4
			c-0.2-0.5-0.5-0.6-1-0.6c0-0.1,0-0.3,0-0.4c-0.2-0.5-0.5-0.6-1-0.6c0-0.1,0-0.3,0-0.4c-0.2-0.5-0.5-0.6-1-0.6c0-0.1,0-0.3,0-0.4
			c-0.2-0.5-0.5-0.6-1-0.6c0-0.1,0-0.3,0-0.4c-0.2-0.5-0.5-0.6-1-0.6c0-0.1,0-0.3,0-0.4c-0.2-0.5-0.5-0.6-1-0.6c0-0.1,0-0.3,0-0.4
			c-0.2-0.5-0.5-0.6-1-0.6c0-0.1,0-0.3,0-0.4c-0.2-0.5-0.5-0.6-1-0.6c0-0.1,0-0.3,0-0.4c-0.2-0.5-0.5-0.6-1-0.6c0-0.1,0-0.3,0-0.4
			c-0.2-0.5-0.5-0.6-1-0.6c0-0.1,0-0.3,0-0.4c-0.2-0.5-0.5-0.6-1-0.6c0-0.1,0-0.3,0-0.4c-0.2-0.5-0.5-0.6-1-0.6c0-0.1,0-0.3,0-0.4
			c-0.2-0.5-0.5-0.6-1-0.6c0-0.1,0-0.3,0-0.4c-0.2-0.5-0.5-0.6-1-0.6c0-0.1,0-0.3,0-0.4c-0.2-0.5-0.5-0.6-1-0.6c0-0.1,0-0.3,0-0.4
			c-0.2-0.5-0.5-0.6-1-0.6c0-0.1,0-0.3,0-0.4c-0.2-0.5-0.5-0.6-1-0.6c0-0.1,0-0.3,0-0.4c-0.2-0.5-0.5-0.6-1-0.6c0-0.1,0-0.3,0-0.4
			c-0.2-0.5-0.5-0.6-1-0.6c0-0.1,0-0.3,0-0.4c-0.2-0.5-0.5-0.6-1-0.6c0-0.1,0-0.3,0-0.4c-0.2-0.5-0.5-0.6-1-0.6c0-0.1,0-0.3,0-0.4
			c-0.2-0.5-0.5-0.6-1-0.6c0-0.1,0-0.3,0-0.4c-0.2-0.5-0.5-0.6-1-0.6c0-0.1,0-0.3,0-0.4c-0.2-0.5-0.5-0.6-1-0.6c0-0.1,0-0.3,0-0.4
			c-0.2-0.5-0.5-0.6-1-0.6c0-0.1,0-0.3,0-0.4c-0.2-0.5-0.5-0.6-1-0.6c0-0.1,0-0.3,0-0.4c-0.2-0.5-0.5-0.6-1-0.6c0-0.1,0-0.3,0-0.4
			c-0.2-0.5-0.5-0.6-1-0.6c0-0.1,0-0.3,0-0.4c-0.2-0.5-0.5-0.6-1-0.6c0-0.1,0-0.3,0-0.4c-0.2-0.5-0.5-0.6-1-0.6c0-0.1,0-0.3,0-0.4
			c-0.2-0.5-0.5-0.6-1-0.6c0-0.1,0-0.3,0-0.4c-0.2-0.5-0.5-0.6-1-0.6c0-0.1,0-0.3,0-0.4c-0.2-0.5-0.5-0.6-1-0.6c0-0.1,0-0.3,0-0.4
			c-0.2-0.5-0.5-0.6-1-0.6c0-0.1,0-0.3,0-0.4c-0.2-0.5-0.5-0.6-1-0.6c0-0.1,0-0.3,0-0.4c-0.2-0.5-0.5-0.6-1-0.6c0-0.1,0-0.3,0-0.4
			c-0.2-0.5-0.5-0.6-1-0.6c0-0.1,0-0.3,0-0.4c-0.2-0.5-0.5-0.6-1-0.6c0-0.1,0-0.3,0-0.4c-0.2-0.5-0.5-0.6-1-0.6c0-0.1,0-0.3,0-0.4
			c-0.2-0.5-0.5-0.6-1-0.6c0-0.1,0-0.3,0-0.4c-0.2-0.5-0.5-0.6-1-0.6c0-0.1,0-0.3,0-0.4c-0.2-0.5-0.5-0.6-1-0.6c0-0.1,0-0.3,0-0.4
			c-0.2-0.5-0.5-0.6-1-0.6c0-0.1,0-0.3,0-0.4c-0.2-0.5-0.5-0.6-1-0.6c0-0.1,0-0.3,0-0.4c-0.2-0.5-0.5-0.6-1-0.6c0-0.1,0-0.3,0-0.4
			c-0.2-0.5-0.5-0.6-1-0.6c0-0.1,0-0.3,0-0.4c-0.2-0.5-0.5-0.6-1-0.6c0-0.1,0-0.3,0-0.4c-0.2-0.5-0.5-0.6-1-0.6c0-0.1,0-0.3,0-0.4
			c-0.2-0.5-0.5-0.6-1-0.6c0-0.1,0-0.3,0-0.4c-0.2-0.5-0.5-0.6-1-0.6c0-0.1,0-0.3,0-0.4c-0.2-0.5-0.5-0.6-1-0.6c0-0.1,0-0.3,0-0.4
			c-0.2-0.5-0.5-0.6-1-0.6c0-0.1,0-0.3,0-0.4c-0.2-0.5-0.5-0.6-1-0.6c0-0.1,0-0.3,0-0.4c-0.2-0.5-0.5-0.6-1-0.6c0-0.1,0-0.3,0-0.4
			c-0.2-0.5-0.5-0.6-1-0.6c0-0.1,0-0.3,0-0.4c-0.2-0.5-0.5-0.6-1-0.6c0-0.1,0-0.3,0-0.4c-0.2-0.5-0.5-0.6-1-0.6c0-0.1,0-0.3,0-0.4
			c-0.2-0.5-0.5-0.6-1-0.6c0-0.1,0-0.3,0-0.4c-0.2-0.5-0.5-0.6-1-0.6c0-0.1,0-0.3,0-0.4c-0.2-0.5-0.5-0.6-1-0.6c0-0.1,0-0.3,0-0.4
			c-0.2-0.5-0.5-0.6-1-0.6c0-0.1,0-0.3,0-0.4c-0.2-0.5-0.5-0.6-1-0.6c0-0.1,0-0.3,0-0.4c-0.2-0.5-0.5-0.6-1-0.6c0-0.1,0-0.3,0-0.4
			c-0.2-0.5-0.5-0.6-1-0.6c0-0.1,0-0.3,0-0.4c-0.2-0.5-0.5-0.6-1-0.6c0-0.1,0-0.3,0-0.4c-0.2-0.5-0.5-0.6-1-0.6c0-0.1,0-0.3,0-0.4
			c-0.2-0.5-0.5-0.6-1-0.6c0-0.1,0-0.3,0-0.4c-0.2-0.5-0.5-0.6-1-0.6c0-0.1,0-0.3,0-0.4c-0.2-0.5-0.5-0.6-1-0.6c0-0.1,0-0.3,0-0.4
			c-0.2-0.5-0.5-0.6-1-0.6c0-0.1,0-0.3,0-0.4c-0.2-0.5-0.5-0.6-1-0.6c0-0.1,0-0.3,0-0.4c-0.2-0.5-0.5-0.6-1-0.6c0-0.1,0-0.3,0-0.4
			c-0.2-0.5-0.5-0.6-1-0.6c0-0.1,0-0.3,0-0.4c-0.2-0.5-0.5-0.6-1-0.6c0-0.1,0-0.3,0-0.4c-0.2-0.5-0.5-0.6-1-0.6c0-0.1,0-0.3,0-0.4
			c-0.2-0.5-0.5-0.6-1-0.6c0-0.1,0-0.3,0-0.4c-0.2-0.5-0.5-0.6-1-0.6c0-0.1,0-0.3,0-0.4c-0.2-0.5-0.5-0.6-1-0.6c0-0.1,0-0.3,0-0.4
			c-0.2-0.5-0.5-0.6-1-0.6c0-0.1,0-0.3,0-0.4c-0.2-0.5-0.5-0.6-1-0.6c0-0.1,0-0.3,0-0.4c-0.2-0.5-0.5-0.6-1-0.6c0-0.1,0-0.3,0-0.4
			c-0.2-0.5-0.5-0.6-1-0.6c0-0.1,0-0.3,0-0.4c-0.2-0.5-0.5-0.6-1-0.6c0-0.1,0-0.3,0-0.4c-0.2-0.5-0.5-0.6-1-0.6c0-0.1,0-0.3,0-0.4
			c-0.2-0.5-0.5-0.6-1-0.6c0-0.1,0-0.3,0-0.4c-0.2-0.5-0.5-0.6-1-0.6c0-0.1,0-0.3,0-0.4c-0.2-0.5-0.5-0.6-1-0.6c0-0.1,0-0.3,0-0.4
			c-0.2-0.5-0.5-0.6-1-0.6c0-0.1,0-0.3,0-0.4c-0.2-0.5-0.5-0.6-1-0.6c0-0.1,0-0.3,0-0.4c-0.2-0.5-0.5-0.6-1-0.6c0-0.1,0-0.3,0-0.4
			c-0.2-0.5-0.5-0.6-1-0.6c0-0.1,0-0.3,0-0.4c-0.2-0.5-0.5-0.6-1-0.6c0-0.1,0-0.3,0-0.4c-0.2-0.5-0.5-0.6-1-0.6c0-0.1,0-0.3,0-0.4
			c-0.2-0.5-0.5-0.6-1-0.6c0-0.1,0-0.3,0-0.4c-0.2-0.5-0.5-0.6-1-0.6c0-0.1,0-0.3,0-0.4c-0.2-0.5-0.5-0.6-1-0.6c0-0.1,0-0.3,0-0.4
			c-0.2-0.5-0.5-0.6-1-0.6c0-0.1,0-0.3,0-0.4c-0.2-0.5-0.5-0.6-1-0.6c0-0.1,0-0.3,0-0.4c-0.2-0.5-0.5-0.6-1-0.6c0-0.1,0-0.3,0-0.4
			c-0.2-0.5-0.5-0.6-1-0.6c0-0.1,0-0.3,0-0.4c-0.2-0.5-0.5-0.6-1-0.6c0-0.1,0-0.3,0-0.4c-0.2-0.5-0.5-0.6-1-0.6c0-0.1,0-0.3,0-0.4
			c-0.2-0.5-0.5-0.6-1-0.6c0-0.1,0-0.3,0-0.4c-0.2-0.5-0.5-0.6-1-0.6c0-0.1,0-0.3,0-0.4c-0.2-0.5-0.5-0.6-1-0.6c0-0.1,0-0.3,0-0.4
			c-0.2-0.5-0.5-0.6-1-0.6c0-0.1,0-0.3,0-0.4c-0.2-0.5-0.5-0.6-1-0.6c0-0.1,0-0.3,0-0.4c-0.2-0.5-0.5-0.6-1-0.6c0-0.1,0-0.3,0-0.4
			c-0.2-0.5-0.5-0.6-1-0.6c0-0.1,0-0.3,0-0.4c-0.2-0.5-0.5-0.6-1-0.6c0-0.1,0-0.3,0-0.4c-0.2-0.5-0.5-0.6-1-0.6c0-0.1,0-0.3,0-0.4
			c-0.2-0.5-0.5-0.6-1-0.6c0-0.1,0-0.3,0-0.4c-0.2-0.5-0.5-0.6-1-0.6c0-0.1,0-0.3,0-0.4c-0.2-0.5-0.5-0.6-1-0.6c0-0.1,0-0.3,0-0.4
			c-0.2-0.5-0.5-0.6-1-0.6c0-0.1,0-0.3,0-0.4c-0.2-0.5-0.5-0.6-1-0.6c0-0.1,0-0.3,0-0.4c-0.2-0.5-0.5-0.6-1-0.6c0-0.1,0-0.3,0-0.4
			c-0.2-0.5-0.5-0.6-1-0.6c0-0.1,0-0.3,0-0.4c-0.2-0.5-0.5-0.6-1-0.6c0-0.1,0-0.3,0-0.4c-0.2-0.5-0.5-0.6-1-0.6c0-0.1,0-0.3,0-0.4
			c-0.2-0.5-0.5-0.6-1-0.6c0-0.1,0-0.3,0-0.4c-0.2-0.5-0.5-0.6-1-0.6c0-0.1,0-0.3,0-0.4c-0.2-0.5-0.5-0.6-1-0.6c0-0.1,0-0.3,0-0.4
			c-0.2-0.5-0.5-0.6-1-0.6c0-0.1,0-0.3,0-0.4c-0.2-0.5-0.5-0.6-1-0.6c0-0.1,0-0.3,0-0.4c-0.2-0.5-0.5-0.6-1-0.6c0-0.1,0-0.3,0-0.4
			c-0.2-0.5-0.5-0.6-1-0.6c0-0.1,0-0.3,0-0.4c-0.2-0.5-0.5-0.6-1-0.6c0-0.1,0-0.3,0-0.4c-0.2-0.5-0.5-0.6-1-0.6c0-0.1,0-0.3,0-0.4
			c-0.2-0.5-0.5-0.6-1-0.6c0-0.1,0-0.3,0-0.4c-0.2-0.5-0.5-0.6-1-0.6c0-0.1,0-0.3,0-0.4c-0.2-0.5-0.5-0.6-1-0.6c0-0.1,0-0.3,0-0.4
			c-0.2-0.5-0.5-0.6-1-0.6c0-0.1,0-0.3,0-0.4c-0.2-0.5-0.5-0.6-1-0.6c0-0.1,0-0.3,0-0.4c-0.2-0.5-0.5-0.6-1-0.6c0-0.1,0-0.3,0-0.4
			c-0.2-0.5-0.5-0.6-1-0.6c0-0.1,0-0.3,0-0.4c-0.2-0.5-0.5-0.6-1-0.6c0-0.1,0-0.3,0-0.4c-0.2-0.5-0.5-0.6-1-0.6c0-0.1,0-0.3,0-0.4
			c-0.2-0.5-0.5-0.6-1-0.6c0-0.1,0-0.3,0-0.4c-0.2-0.5-0.5-0.6-1-0.6c0-0.1,0-0.3,0-0.4c-0.2-0.5-0.5-0.6-1-0.6c0-0.1,0-0.3,0-0.4
			c-0.2-0.5-0.5-0.6-1-0.6c0-0.1,0-0.3,0-0.4c-0.2-0.5-0.5-0.6-1-0.6c0-0.1,0-0.3,0-0.4c-0.2-0.5-0.5-0.6-1-0.6c0-0.1,0-0.3,0-0.4
			c-0.2-0.5-0.5-0.6-1-0.6c0-0.1,0-0.3,0-0.4c-0.2-0.5-0.5-0.6-1-0.6c0-0.1,0-0.3,0-0.4c-0.2-0.5-0.5-0.6-1-0.6c0-0.1,0-0.3,0-0.4
			c-0.2-0.5-0.5-0.6-1-0.6c0-0.1,0-0.3,0-0.4c-0.2-0.5-0.5-0.6-1-0.6c0-0.1,0-0.3,0-0.4c-0.2-0.5-0.5-0.6-1-0.6c0-0.1,0-0.3,0-0.4
			c-0.2-0.5-0.5-0.6-1-0.6c0-0.1,0-0.3,0-0.4c-0.2-0.5-0.5-0.6-1-0.6c0-0.1,0-0.3,0-0.4c-0.2-0.5-0.5-0.6-1-0.6c0-0.1,0-0.3,0-0.4
			c-0.2-0.5-0.5-0.6-1-0.6c0-0.1,0-0.3,0-0.4c-0.2-0.5-0.5-0.6-1-0.6c0-0.1,0-0.3,0-0.4c-0.2-0.5-0.5-0.6-1-0.6c0-0.1,0-0.3,0-0.4
			c-0.2-0.5-0.5-0.6-1-0.6c0-0.1,0-0.3,0-0.4c-0.2-0.5-0.5-0.6-1-0.6c0-0.1,0-0.3,0-0.4c-0.2-0.5-0.5-0.6-1-0.6c0-0.1,0-0.3,0-0.4
			c-0.2-0.5-0.5-0.6-1-0.6c0-0.1,0-0.3,0-0.4c-0.2-0.5-0.5-0.6-1-0.6c0-0.1,0-0.3,0-0.4c-0.2-0.5-0.5-0.6-1-0.6c0-0.1,0-0.3,0-0.4
			c-0.2-0.5-0.5-0.6-1-0.6c0-0.1,0-0.3,0-0.4c-0.2-0.5-0.5-0.6-1-0.6c0-0.1,0-0.3,0-0.4c-0.2-0.5-0.5-0.6-1-0.6c0-0.1,0-0.3,0-0.4
			c-0.2-0.5-0.5-0.6-1-0.6c0-0.1,0-0.3,0-0.4c-0.2-0.5-0.5-0.6-1-0.6c0-0.1,0-0.3,0-0.4c-0.2-0.5-0.5-0.6-1-0.6c0-0.1,0-0.3,0-0.4
			c-0.2-0.5-0.5-0.6-1-0.6c0-0.1,0-0.3,0-0.4c-0.2-0.5-0.5-0.6-1-0.6c0-0.1,0-0.3,0-0.4c-0.2-0.5-0.5-0.6-1-0.6c0-0.1,0-0.3,0-0.4
			c-0.2-0.5-0.5-0.6-1-0.6c0-0.1,0-0.3,0-0.4c-0.2-0.5-0.5-0.6-1-0.6c0-0.1,0-0.3,0-0.4c-0.2-0.5-0.5-0.6-1-0.6c0-0.1,0-0.3,0-0.4
			c-0.2-0.5-0.5-0.6-1-0.6c0-0.1,0-0.3,0-0.4c-0.2-0.5-0.5-0.6-1-0.6c0-0.1,0-0.3,0-0.4c-0.2-0.5-0.5-0.6-1-0.6c0-0.1,0-0.3,0-0.4
			c-0.2-0.5-0.5-0.6-1-0.6c0-0.1,0-0.3,0-0.4c-0.2-0.5-0.5-0.6-1-0.6c0-0.1,0-0.3,0-0.4c-0.2-0.5-0.5-0.6-1-0.6c0-0.1,0-0.3,0-0.4
			c-0.2-0.5-0.5-0.6-1-0.6c0-0.1,0-0.3,0-0.4c-0.2-0.5-0.5-0.6-1-0.6c0-0.1,0-0.3,0-0.4c-0.2-0.5-0.5-0.6-1-0.6c0-0.1,0-0.3,0-0.4
			c-0.2-0.5-0.5-0.6-1-0.6c0-0.1,0-0.3,0-0.4c-0.2-0.5-0.5-0.6-1-0.6c0-0.1,0-0.3,0-0.4c-0.2-0.5-0.5-0.6-1-0.6c0-0.1,0-0.3,0-0.4
			c-0.2-0.5-0.5-0.6-1-0.6c0-0.1,0-0.3,0-0.4c-0.2-0.5-0.5-0.6-1-0.6c0-0.1,0-0.3,0-0.4c-0.2-0.5-0.5-0.6-1-0.6c0-0.1,0-0.3,0-0.4
			c-0.2-0.5-0.5-0.6-1-0.6c0-0.1,0-0.3,0-0.4c-0.2-0.5-0.5-0.6-1-0.6c0-0.1,0-0.3,0-0.4c-0.2-0.5-0.5-0.6-1-0.6c0-0.1,0-0.3,0-0.4
			c-0.2-0.5-0.5-0.6-1-0.6c0-0.1,0-0.3,0-0.4c-0.2-0.5-0.5-0.6-1-0.6c0-0.1,0-0.3,0-0.4c-0.2-0.5-0.5-0.6-1-0.6c0-0.1,0-0.3,0-0.4
			c-0.2-0.5-0.5-0.6-1-0.6c0-0.1,0-0.3,0-0.4c-0.2-0.5-0.5-0.6-1-0.6c0-0.1,0-0.3,0-0.4c-0.2-0.5-0.5-0.6-1-0.6c0-0.1,0-0.3,0-0.4
			c-0.2-0.5-0.5-0.6-1-0.6c0-0.1,0-0.3,0-0.4c-0.2-0.5-0.5-0.6-1-0.6c0-0.1,0-0.3,0-0.4c-0.2-0.5-0.5-0.6-1-0.6c0-0.1,0-0.3,0-0.4
			c-0.2-0.5-0.5-0.6-1-0.6c0-0.1,0-0.3,0-0.4c-0.2-0.5-0.5-0.6-1-0.6c0-0.1,0-0.3,0-0.4c-0.2-0.5-0.5-0.6-1-0.6c0-0.1,0-0.3,0-0.4
			c-0.2-0.5-0.5-0.6-1-0.6c0-0.1,0-0.3,0-0.4c-0.2-0.5-0.5-0.6-1-0.6c0-0.1,0-0.3,0-0.4c-0.2-0.5-0.5-0.6-1-0.6c0-0.1,0-0.3,0-0.4
			c-0.2-0.5-0.5-0.6-1-0.6c0-0.1,0-0.3,0-0.4c-0.2-0.5-0.5-0.6-1-0.6c0-0.1,0-0.3,0-0.4c-0.2-0.5-0.5-0.6-1-0.6c0-0.1,0-0.3,0-0.4
			c-0.2-0.5-0.5-0.6-1-0.6c0-0.1,0-0.3,0-0.4c-0.2-0.5-0.5-0.6-1-0.6c0-0.1,0-0.3,0-0.4c-0.2-0.5-0.5-0.6-1-0.6c0-0.1,0-0.3,0-0.4
			c-0.2-0.5-0.5-0.6-1-0.6c0-0.1,0-0.3,0-0.4c-0.2-0.5-0.5-0.6-1-0.6c0-0.1,0-0.3,0-0.4c-0.2-0.5-0.5-0.6-1-0.6c0-0.1,0-0.3,0-0.4
			c-0.2-0.5-0.5-0.6-1-0.6c0-0.1,0-0.3,0-0.4c-0.2-0.5-0.5-0.6-1-0.6c0-0.1,0-0.3,0-0.4c-0.2-0.5-0.5-0.6-1-0.6c0-0.1,0-0.3,0-0.4
			c-0.2-0.5-0.5-0.6-1-0.6c0-0.1,0-0.3,0-0.4c-0.2-0.5-0.5-0.6-1-0.6c0-0.1,0-0.3,0-0.4c-0.2-0.5-0.5-0.6-1-0.6c0-0.1,0-0.3,0-0.4
			c-0.2-0.5-0.5-0.6-1-0.6c0-0.1,0-0.3,0-0.4c-0.2-0.5-0.5-0.6-1-0.6c0-0.1,0-0.3,0-0.4c-0.2-0.5-0.5-0.6-1-0.6c0-0.1,0-0.3,0-0.4
			c-0.2-0.5-0.5-0.6-1-0.6c0-0.1,0-0.3,0-0.4c-0.2-0.5-0.5-0.6-1-0.6c0-0.1,0-0.3,0-0.4c-0.2-0.5-0.5-0.6-1-0.6c0-0.1,0-0.3,0-0.4
			c-0.2-0.5-0.5-0.6-1-0.6c0-0.1,0-0.3,0-0.4c-0.2-0.5-0.5-0.6-1-0.6c0-0.1,0-0.3,0-0.4c-0.2-0.5-0.5-0.6-1-0.6c0-0.1,0-0.3,0-0.4
			c-0.2-0.5-0.5-0.6-1-0.6c0-0.1,0-0.3,0-0.4c-0.2-0.5-0.5-0.6-1-0.6c0-0.1,0-0.3,0-0.4c-0.2-0.5-0.5-0.6-1-0.6c0-0.1,0-0.3,0-0.4
			c-0.2-0.5-0.5-0.6-1-0.6c0-0.1,0-0.3,0-0.4c-0.2-0.5-0.5-0.6-1-0.6c0-0.1,0-0.3,0-0.4c-0.2-0.5-0.5-0.6-1-0.6c0-0.1,0-0.3,0-0.4
			c-0.2-0.5-0.5-0.6-1-0.6c0-0.1,0-0.3,0-0.4c-0.2-0.5-0.5-0.6-1-0.6c0-0.1,0-0.3,0-0.4c-0.2-0.5-0.5-0.6-1-0.6c0-0.1,0-0.3,0-0.4
			c-0.2-0.5-0.5-0.6-1-0.6c0-0.1,0-0.3,0-0.4c-0.2-0.5-0.5-0.6-1-0.6c0-0.1,0-0.3,0-0.4c-0.2-0.5-0.5-0.6-1-0.6c0-0.1,0-0.3,0-0.4
			c-0.2-0.5-0.5-0.6-1-0.6c0-0.1,0-0.3,0-0.4c-0.2-0.5-0.5-0.6-1-0.6c0-0.1,0-0.3,0-0.4c-0.2-0.5-0.5-0.6-1-0.6c0-0.1,0-0.3,0-0.4
			c-0.2-0.5-0.5-0.6-1-0.6c0-0.1,0-0.3,0-0.4c-0.2-0.5-0.5-0.6-1-0.6c0-0.1,0-0.3,0-0.4c-0.2-0.5-0.5-0.6-1-0.6c0-0.1,0-0.3,0-0.4
			c-0.2-0.5-0.5-0.6-1-0.6c0-0.1,0-0.3,0-0.4c-0.2-0.5-0.5-0.6-1-0.6c0-0.1,0-0.3,0-0.4c-0.2-0.5-0.5-0.6-1-0.6c0-0.1,0-0.3,0-0.4
			c-0.2-0.5-0.5-0.6-1-0.6c0-0.1,0-0.3,0-0.4c-0.2-0.5-0.5-0.6-1-0.6c0-0.1,0-0.3,0-0.4c-0.2-0.5-0.5-0.6-1-0.6c0-0.1,0-0.3,0-0.4
			c-0.2-0.5-0.5-0.6-1-0.6c0-0.1,0-0.3,0-0.4c-0.3-0.8-1.1-0.5-1.7-0.5c-4.2-0.2-8.5-0.3-12.7-0.4c-6.9-0.4-13.9-0.8-20.8-1.1
			c-1.2,0-3.3-0.7-3.6,0.5c-0.3,1.2,0.8,2.2,1.8,3.1c0.2,0.3,0.5,0.5,0.7,0.7c0,0,0,0,0,0c0.1,0.1,0.2,0.1,0.2,0.2
			c0.2,0.3,0.5,0.5,0.7,0.7c0,0,0,0,0,0c0.1,0.1,0.2,0.1,0.2,0.2c0.2,0.3,0.5,0.5,0.7,0.7c0,0,0,0,0,0c0.1,0.1,0.2,0.1,0.2,0.2
			c0.2,0.3,0.5,0.5,0.7,0.7c0,0,0,0,0,0c0.1,0.1,0.2,0.1,0.2,0.2c0.2,0.3,0.5,0.5,0.7,0.7c0,0,0,0,0,0c0.1,0.1,0.2,0.1,0.2,0.2
			c0.2,0.3,0.5,0.5,0.7,0.7c0,0,0,0,0,0c0.1,0.1,0.1,0.1,0.2,0.2c0,0.1,0,0.1,0,0.2c-0.2,0.6-0.7,0.4-1.1,0.4
			c-4.3,0.8-8.6,0.9-13,0.8c-7.4-0.1-14.5-1.6-21.5-3.7c-0.1-0.3-0.4-0.5-0.9-0.6c-0.1-0.6-0.4-0.9-1-1c-0.1-0.6-0.4-0.9-1-1
			c-0.1-0.6-0.4-0.9-1-1c-0.1-0.6-0.4-0.9-1-1c-0.1-0.6-0.4-0.9-1-1c-0.1-0.6-0.4-0.9-1-1c-0.1-0.6-0.4-0.9-1-1
			c-0.1-0.6-0.4-0.9-1-1c-0.1-0.6-0.4-0.9-1-1c-0.1-0.6-0.4-0.9-1-1c-0.1-0.6-0.4-0.9-1-1c-0.1-0.6-0.4-0.9-1-1
			c-0.1-0.6-0.4-0.9-1-1c-0.1-0.6-0.4-0.9-1-1c-0.1-0.6-0.4-0.9-1-1c-0.1-0.6-0.4-0.9-1-1c-0.1-0.6-0.4-0.9-1-1
			c-0.1-0.6-0.4-0.9-1-1c-0.1-0.6-0.4-0.9-1-1c-0.1-0.6-0.4-0.9-1-1c-0.1-0.6-0.4-0.9-1-1c-0.1-0.6-0.4-0.9-1-1
			c-0.1-0.6-0.4-0.9-1-1c-0.1-0.6-0.4-0.9-1-1c-0.1-0.6-0.4-0.9-1-1c-0.1-0.6-0.4-0.9-1-1c-0.1-0.6-0.4-0.9-1-1
			c-0.1-0.6-0.4-0.9-1-1c-0.1-0.6-0.4-0.9-1-1c-0.1-0.6-0.4-0.9-1-1c-0.1-0.6-0.4-0.9-1-1c-0.1-0.6-0.4-0.9-1-1
			c-0.1-0.6-0.4-0.9-1-1c-0.1-0.6-0.4-0.9-1-1c-0.1-0.6-0.4-0.9-1-1c-0.1-0.6-0.4-0.9-1-1c-0.1-0.6-0.4-0.9-1-1
			c-0.1-0.6-0.4-0.9-1-1c-0.1-0.6-0.4-0.9-1-1c-0.1-0.6-0.4-0.9-1-1c-0.1-0.6-0.4-0.9-1-1c-0.1-0.6-0.4-0.9-1-1
			c-0.1-0.6-0.4-0.9-1-1c-0.1-0.6-0.4-0.9-1-1c-0.1-0.6-0.4-0.9-1-1c-0.1-0.6-0.4-0.9-1-1c-0.1-0.6-0.4-0.9-1-1
			c-0.1-0.6-0.4-0.9-1-1c-0.1-0.6-0.4-0.9-1-1c-0.1-0.6-0.4-0.9-1-1c-0.1-0.6-0.4-0.9-1-1c-0.1-0.6-0.4-0.9-1-1
			c-0.1-0.6-0.4-0.9-1-1c-0.1-0.6-0.4-0.9-1-1c-0.1-0.6-0.4-0.9-1-1c-0.1-0.6-0.4-0.9-1-1c-0.1-0.6-0.4-0.9-1-1
			c-0.1-0.6-0.4-0.9-1-1c-0.1-0.6-0.4-0.9-1-1c-0.1-0.6-0.4-0.9-1-1c-0.1-0.6-0.4-0.9-1-1c-0.1-0.6-0.4-0.9-1-1
			c-0.2-1.1-0.8-1.1-2.7-1.1c-14.3,0.1-28.6,0.3-42.9,0.3c-34.6,0.1-69.1,0.6-103.7,0.6c0,0,0,0,0,0c-0.3-0.4-0.6-0.7-1-1
			c-0.3-0.4-0.6-0.7-1-1c-0.3-0.4-0.6-0.7-1-1c-0.3-0.4-0.6-0.7-1-1c-0.3-0.4-0.6-0.7-1-1c-0.3-0.4-0.6-0.7-1-1
			c-0.3-0.4-0.6-0.7-1-1c-0.3-0.4-0.6-0.7-1-1c-0.3-0.4-0.6-0.7-1-1c-0.3-0.4-0.6-0.7-1-1c-0.3-0.4-0.6-0.7-1-1
			c-0.3-0.4-0.6-0.7-1-1c-0.3-0.4-0.6-0.7-1-1c-0.3-0.4-0.6-0.7-1-1c-0.3-0.4-0.6-0.7-1-1c-0.3-0.4-0.6-0.7-1-1
			c-0.3-0.4-0.6-0.7-1-1c-0.3-0.4-0.6-0.7-1-1c-0.3-0.4-0.6-0.7-1-1c-0.3-0.4-0.6-0.7-1-1c-0.3-0.4-0.6-0.7-1-1
			c-0.3-0.4-0.6-0.7-1-1c-0.3-0.4-0.6-0.7-1-1c-0.3-0.4-0.6-0.7-1-1c-0.3-0.4-0.6-0.7-1-1c-0.3-0.4-0.6-0.7-1-1
			c-0.3-0.4-0.6-0.7-1-1c-0.3-0.4-0.6-0.7-1-1c-0.3-0.4-0.6-0.7-1-1c-0.3-0.4-0.6-0.7-1-1c-0.3-0.4-0.6-0.7-1-1
			c-0.3-0.4-0.6-0.7-1-1c-0.3-0.4-0.6-0.7-1-1c-0.3-0.4-0.6-0.7-1-1c-0.3-0.4-0.6-0.7-1-1c-0.3-0.4-0.6-0.7-1-1
			c-0.3-0.4-0.6-0.7-1-1c-0.3-0.4-0.6-0.7-1-1c-0.3-0.4-0.6-0.7-1-1c-0.3-0.4-0.6-0.7-1-1c-0.3-0.4-0.6-0.7-1-1
			c-0.3-0.4-0.6-0.7-1-1c-0.3-0.4-0.6-0.7-1-1c-0.3-0.4-0.6-0.7-1-1c-0.3-0.4-0.6-0.7-1-1c-0.3-0.4-0.6-0.7-1-1
			c-0.6-1-1.6-1.5-2.9-1.6c-1.5-0.2-3.1-0.3-4.7,0c-9.7,1.6-19.4,3.3-29.1,4.8c-10.6,1.8-21.2,3.5-31.7,5.2
			c-13.3,2.1-26.6,4-39.7,6.2c-13.8,2.3-27.5,4.8-41.3,7.3c-3.3,0.6-5.2,2-5.5,4.7c-0.1,1.3,0.1,2.7,0.4,4c2.5,13.5,4,27.2,5.9,40.7
			c1.7,11.3,3.1,22.8,4.7,34.1c1.7,12.1,3.4,24.4,5.2,36.5c2,14.2,4,28.5,6.7,42.6c0.7,3.5,0.9,4.8,2,5.1c0.2,0.6,0.6,0.9,1,1
			c0.2,0.6,0.6,0.9,1,1c0.2,0.6,0.6,0.9,1,1c0.2,0.6,0.6,0.9,1,1c0.2,0.6,0.6,0.9,1,1c0.2,0.6,0.6,0.9,1,1c0.2,0.6,0.6,0.9,1,1
			c0.2,0.6,0.6,0.9,1,1c0.2,0.6,0.6,0.9,1,1c0.2,0.6,0.6,0.9,1,1c0.2,0.6,0.6,0.9,1,1c0.2,0.6,0.6,0.9,1,1c0.2,0.6,0.6,0.9,1,1
			c0.2,0.6,0.6,0.9,1,1c0.2,0.6,0.6,0.9,1,1c0.2,0.6,0.6,0.9,1,1c0.2,0.6,0.6,0.9,1,1c0.2,0.6,0.6,0.9,1,1c0.2,0.6,0.6,0.9,1,1
			c0.2,0.6,0.6,0.9,1,1c0.2,0.6,0.6,0.9,1,1c0.2,0.6,0.6,0.9,1,1c0.2,0.6,0.6,0.9,1,1c0.2,0.6,0.6,0.9,1,1c0.2,0.6,0.6,0.9,1,1
			c0.2,0.6,0.6,0.9,1,1c0.2,0.6,0.6,0.9,1,1c0.2,0.6,0.6,0.9,1,1c0.2,0.6,0.6,0.9,1,1c0.2,0.6,0.6,0.9,1,1c0.2,0.6,0.6,0.9,1,1
			c0.2,0.6,0.6,0.9,1,1c0.2,0.6,0.6,0.9,1,1c0.2,0.6,0.6,0.9,1,1c0.2,0.6,0.6,0.9,1,1c0.2,0.6,0.6,0.9,1,1c0.2,0.6,0.6,0.9,1,1
			c0.2,0.6,0.6,0.9,1,1c0.2,0.6,0.6,0.9,1,1c0.2,0.6,0.6,0.9,1,1c0.2,0.6,0.6,0.9,1,1c0.2,0.6,0.6,0.9,1,1c0.2,0.6,0.6,0.9,1,1
			c0.2,0.6,0.6,0.9,1,1c0.2,0.6,0.6,0.9,1,1c0.2,0.6,0.6,0.9,1,1c0.2,0.6,0.6,0.9,1,1c0.2,0.6,0.6,0.9,1,1c0.2,0.6,0.6,0.9,1,1
			c0.2,0.6,0.6,0.9,1,1c0.2,0.6,0.6,0.9,1,1c0.2,0.6,0.6,0.9,1,1c0.2,0.6,0.6,0.9,1,1c0.2,0.6,0.6,0.9,1,1c0.2,0.6,0.6,0.9,1,1
			c0.2,0.6,0.6,0.9,1,1c0.2,0.6,0.6,0.9,1,1c0.2,0.6,0.6,0.9,1,1c0.2,0.6,0.6,0.9,1,1c0.2,0.6,0.6,0.9,1,1c0.2,0.6,0.6,0.9,1,1
			c0.2,0.6,0.6,0.9,1,1c0.2,0.6,0.6,0.9,1,1c0.2,0.6,0.6,0.9,1,1c0.2,0.6,0.6,0.9,1,1c0.2,0.6,0.6,0.9,1,1c0.2,0.6,0.6,0.9,1,1
			c0.2,0.6,0.6,0.9,1,1c0.2,0.6,0.6,0.9,1,1c0.2,0.6,0.6,0.9,1,1c0.2,0.6,0.6,0.9,1,1c0.2,0.6,0.6,0.9,1,1c0.2,0.6,0.6,0.9,1,1
			c0.2,0.6,0.6,0.9,1,1c0.2,0.6,0.6,0.9,1,1c0.2,0.6,0.6,0.9,1,1c0.2,0.6,0.6,0.9,1,1c0.2,0.6,0.6,0.9,1,1c0.2,0.6,0.6,0.9,1,1
			c0.2,0.6,0.6,0.9,1,1c0.2,0.6,0.6,0.9,1,1c0.2,0.6,0.6,0.9,1,1c0.2,0.6,0.6,0.9,1,1c0.2,0.6,0.6,0.9,1,1c0.2,0.6,0.6,0.9,1,1
			c0.2,0.6,0.6,0.9,1,1c0.2,0.6,0.6,0.9,1,1c0.2,0.6,0.6,0.9,1,1c0.2,0.6,0.6,0.9,1,1c0.2,0.6,0.6,0.9,1,1c0.2,0.6,0.6,0.9,1,1
			c0.2,0.6,0.6,0.9,1,1c0.2,0.6,0.6,0.9,1,1c0.2,0.6,0.6,0.9,1,1c0.2,0.6,0.6,0.9,1,1c0.2,0.6,0.6,0.9,1,1c0.2,0.6,0.6,0.9,1,1
			c0.2,0.6,0.6,0.9,1,1c0.2,0.6,0.6,0.9,1,1c0.2,0.6,0.6,0.9,1,1c0.2,0.6,0.6,0.9,1,1c0.2,0.6,0.6,0.9,1,1c0.2,0.6,0.6,0.9,1,1
			c0.2,0.6,0.6,0.9,1,1c0.2,0.6,0.6,0.9,1,1c0.2,0.6,0.6,0.9,1,1c0.2,0.6,0.6,0.9,1,1c0.2,0.6,0.6,0.9,1,1c0.2,0.6,0.6,0.9,1,1
			c0.2,0.6,0.6,0.9,1,1c0.2,0.6,0.6,0.9,1,1c0.2,0.6,0.6,0.9,1,1c0.2,0.6,0.6,0.9,1,1c0.2,0.6,0.6,0.9,1,1c0.2,0.6,0.6,0.9,1,1
			c0.2,0.6,0.6,0.9,1,1c0.2,0.6,0.6,0.9,1,1c0.2,0.6,0.6,0.9,1,1c0.2,0.6,0.6,0.9,1,1c0.2,0.6,0.6,0.9,1,1c0.2,0.6,0.6,0.9,1,1
			c0.2,0.6,0.6,0.9,1,1c0.2,0.6,0.6,0.9,1,1c0.2,0.6,0.6,0.9,1,1c0.2,0.6,0.6,0.9,1,1c0.2,0.6,0.6,0.9,1,1c0.2,0.6,0.6,0.9,1,1
			c0.2,0.6,0.6,0.9,1,1c0.2,0.6,0.6,0.9,1,1c0.2,0.6,0.6,0.9,1,1c0.2,0.6,0.6,0.9,1,1c0.2,0.6,0.6,0.9,1,1c0.2,0.6,0.6,0.9,1,1
			c0.2,0.6,0.6,0.9,1,1c0.2,0.6,0.6,0.9,1,1c0.2,0.6,0.6,0.9,1,1c0.2,0.6,0.6,0.9,1,1c0.2,0.6,0.6,0.9,1,1c0.2,0.6,0.6,0.9,1,1
			c0.2,0.6,0.6,0.9,1,1c0.2,0.6,0.6,0.9,1,1c0.2,0.6,0.6,0.9,1,1c0.2,0.6,0.6,0.9,1,1c0.2,0.6,0.6,0.9,1,1c0.2,0.6,0.6,0.9,1,1
			c0.2,0.6,0.6,0.9,1,1c0.2,0.6,0.6,0.9,1,1c0.2,0.6,0.6,0.9,1,1c0.2,0.6,0.6,0.9,1,1c0.2,0.6,0.6,0.9,1,1c0.2,0.6,0.6,0.9,1,1
			c0.2,0.6,0.6,0.9,1,1c0.2,0.6,0.6,0.9,1,1c0.2,0.6,0.6,0.9,1,1c0.2,0.6,0.6,0.9,1,1c0.2,0.6,0.6,0.9,1,1c0.2,0.6,0.6,0.9,1,1
			c0.2,0.6,0.6,0.9,1,1c0.2,0.6,0.6,0.9,1,1c0.2,0.6,0.6,0.9,1,1c0.2,0.6,0.6,0.9,1,1c0.2,0.6,0.6,0.9,1,1c0.2,0.6,0.6,0.9,1,1
			c0.2,0.6,0.6,0.9,1,1c0.2,0.6,0.6,0.9,1,1c0.2,0.6,0.6,0.9,1,1c0.2,0.6,0.6,0.9,1,1c0.2,0.6,0.6,0.9,1,1c0.2,0.6,0.6,0.9,1,1
			c0.2,0.6,0.6,0.9,1,1c0.2,0.6,0.6,0.9,1,1c0.2,0.6,0.6,0.9,1,1c0.2,0.6,0.6,0.9,1,1c0.2,0.6,0.6,0.9,1,1c0.2,0.6,0.6,0.9,1,1
			c0.2,0.6,0.6,0.9,1,1c0.2,0.6,0.6,0.9,1,1c0.2,0.6,0.6,0.9,1,1c0.2,0.6,0.6,0.9,1,1c0.2,0.6,0.6,0.9,1,1c0.2,0.6,0.6,0.9,1,1
			c0.2,0.6,0.6,0.9,1,1c0.2,0.6,0.6,0.9,1,1c0.2,0.6,0.6,0.9,1,1c0.2,0.6,0.6,0.9,1,1c0.2,0.6,0.6,0.9,1,1c0.2,0.6,0.6,0.9,1,1
			c0.2,0.6,0.6,0.9,1,1c0.2,0.6,0.6,0.9,1,1c0.2,0.6,0.6,0.9,1,1c0.2,0.6,0.6,0.9,1,1c0.2,0.6,0.6,0.9,1,1c0.2,0.6,0.6,0.9,1,1
			c0.2,0.6,0.6,0.9,1,1c0.2,0.6,0.6,0.9,1,1c0.2,0.6,0.6,0.9,1,1c0.2,0.6,0.6,0.9,1,1c0.2,0.6,0.6,0.9,1,1c0.2,0.6,0.6,0.9,1,1
			c0.2,0.6,0.6,0.9,1,1c0.2,0.6,0.6,0.9,1,1c0.2,0.6,0.6,0.9,1,1c0.2,0.6,0.6,0.9,1,1c0.2,0.6,0.6,0.9,1,1c0.2,0.6,0.6,0.9,1,1
			c0.2,0.6,0.6,0.9,1,1c0.2,0.6,0.6,0.9,1,1c0.2,0.6,0.6,0.9,1,1c0.2,0.6,0.6,0.9,1,1c0.2,0.6,0.6,0.9,1,1c0.2,0.6,0.6,0.9,1,1
			c0.2,0.6,0.6,0.9,1,1c0.2,0.6,0.6,0.9,1,1c0.2,0.6,0.6,0.9,1,1c0.2,0.6,0.6,0.9,1,1c0.2,0.6,0.6,0.9,1,1c0.2,0.6,0.6,0.9,1,1
			c0.2,0.6,0.6,0.9,1,1c0.2,0.6,0.6,0.9,1,1c0.2,0.6,0.6,0.9,1,1c0.2,0.6,0.6,0.9,1,1c0.2,0.6,0.6,0.9,1,1c0.2,0.6,0.6,0.9,1,1
			c0.2,0.6,0.6,0.9,1,1c0.2,0.6,0.6,0.9,1,1c0.2,0.6,0.6,0.9,1,1c0.2,0.6,0.6,0.9,1,1c0.2,0.6,0.6,0.9,1,1c0.2,0.6,0.6,0.9,1,1
			c0.2,0.6,0.6,0.9,1,1c0.2,0.6,0.6,0.9,1,1c0.2,0.6,0.6,0.9,1,1c0.2,0.6,0.6,0.9,1,1c0.2,0.6,0.6,0.9,1,1c0.2,0.6,0.6,0.9,1,1
			c0.2,0.6,0.6,0.9,1,1c0.2,0.6,0.6,0.9,1,1c0.2,0.6,0.6,0.9,1,1c0.2,0.6,0.6,0.9,1,1c0.2,0.6,0.6,0.9,1,1c0.2,0.6,0.6,0.9,1,1
			c0.2,0.6,0.6,0.9,1,1c0.2,0.6,0.6,0.9,1,1c0.2,0.6,0.6,0.9,1,1c0.2,0.6,0.6,0.9,1,1c0.2,0.6,0.6,0.9,1,1c0.2,0.6,0.6,0.9,1,1
			c0.2,0.6,0.6,0.9,1,1c0.2,0.6,0.6,0.9,1,1c0.2,0.6,0.6,0.9,1,1c0.2,0.6,0.6,0.9,1,1c0.2,0.6,0.6,0.9,1,1c0.2,0.6,0.6,0.9,1,1
			c0.2,0.6,0.6,0.9,1,1c0.2,0.6,0.6,0.9,1,1c0.2,0.6,0.6,0.9,1,1c0.2,0.6,0.6,0.9,1,1c0.2,0.6,0.6,0.9,1,1c0.2,0.6,0.6,0.9,1,1
			c0.2,0.6,0.6,0.9,1,1c0.2,0.6,0.6,0.9,1,1c0.2,0.6,0.6,0.9,1,1c0.2,0.6,0.6,0.9,1,1c0.2,0.6,0.6,0.9,1,1c0.2,0.6,0.6,0.9,1,1
			c0.2,0.6,0.6,0.9,1,1c0.2,0.6,0.6,0.9,1,1c0.2,0.6,0.6,0.9,1,1c0.2,0.6,0.6,0.9,1,1c0.2,0.6,0.6,0.9,1,1c0.2,0.6,0.6,0.9,1,1
			c0.2,0.6,0.6,0.9,1,1c0.2,0.6,0.6,0.9,1,1c0.2,0.6,0.6,0.9,1,1c0.2,0.6,0.6,0.9,1,1c0.2,0.6,0.6,0.9,1,1c0.2,0.6,0.6,0.9,1,1
			c0.2,0.6,0.6,0.9,1,1c0.2,0.6,0.6,0.9,1,1c0.2,0.6,0.6,0.9,1,1c0.2,0.6,0.6,0.9,1,1c0.2,0.6,0.6,0.9,1,1c0.2,0.6,0.6,0.9,1,1
			c0.2,0.6,0.6,0.9,1,1c0.2,0.6,0.6,0.9,1,1c0.2,0.6,0.6,0.9,1,1c0.2,0.6,0.6,0.9,1,1c0.2,0.6,0.6,0.9,1,1c0.2,0.6,0.6,0.9,1,1
			c0.2,0.6,0.6,0.9,1,1c0.2,0.6,0.6,0.9,1,1c0.2,0.6,0.6,0.9,1,1c0.2,0.6,0.6,0.9,1,1c0.2,0.6,0.6,0.9,1,1c0.2,0.6,0.6,0.9,1,1
			c0.2,0.6,0.6,0.9,1,1c0.2,0.6,0.6,0.9,1,1c0.2,0.6,0.6,0.9,1,1c0.2,0.6,0.6,0.9,1,1c0.7,1.5,1.7,1.1,5.1,0.8
			c9.3-1,18.6-2.5,27.9-3.9c12-1.8,23.8-4,35.8-6c12.5-2,25-4.1,37.5-6.2c9.9-1.7,20-3.4,30-5.1c4.1-0.7,8.3-1.1,12.3-1.7
			c4-0.6,5.7-2.5,5.5-6.8c-0.3-4-1-8-1.5-12c-0.4-2.7-0.4-2.7,2.3-2.7c53.4,0,106.7,0,159.9,0c0.9,0,1.8,0,2.6,0.3
			c4.2,1.2,8.1,3.5,12.2,5.1c9,3.5,18.2,5.5,27.7,6c10.1,0.4,20-0.3,29.9-2.8c7-1.8,13.9-4.2,19.9-8.9c2.4-1.9,4.7-4.1,5.6-7.4
			c0.2-0.7,0.7-1.4,0.2-1.9c-0.3-0.3-0.5-0.3-0.8-0.2c0.1-0.3,0-0.5-0.2-0.8c-0.3-0.3-0.5-0.3-0.8-0.2c0-0.2,0-0.4-0.1-0.6
			c1.7-0.9,3.3-1.9,4.8-3.2c2.2-1.8,4-4,4.7-6.9c0.2-0.6,0.4-1.2,0-1.8c-0.2-0.3-0.5-0.3-0.8-0.2c0-0.3,0-0.6-0.2-0.8
			c-0.2-0.3-0.5-0.3-0.8-0.2c0-0.3,0-0.6-0.2-0.8c-0.2-0.3-0.5-0.3-0.8-0.2c0-0.3,0-0.6-0.2-0.8c-0.2-0.3-0.5-0.3-0.8-0.2
			c0-0.3,0-0.6-0.2-0.8c-0.2-0.3-0.5-0.3-0.8-0.2c0-0.2,0-0.4-0.1-0.5c0.4,0,0.7-0.1,1.1-0.1c0,0,0.1,0,0.1,0c0,0.4,0.2,0.8,0.5,0.9
			c0.2,0.1,0.3,0.1,0.5,0.1c0,0.4,0.2,0.8,0.5,0.9c0.2,0.1,0.3,0.1,0.5,0.1c0,0.4,0.2,0.8,0.5,0.9c0.2,0.1,0.3,0.1,0.5,0.1
			c0,0.4,0.2,0.8,0.5,0.9c0.2,0.1,0.3,0.1,0.5,0.1c0,0.4,0.2,0.8,0.5,0.9c0.2,0.1,0.3,0.1,0.5,0.1c0,0.4,0.2,0.8,0.5,0.9
			c0.2,0.1,0.3,0.1,0.5,0.1c0,0.4,0.2,0.8,0.5,0.9c0.2,0.1,0.3,0.1,0.5,0.1c0,0.4,0.2,0.8,0.5,0.9c0.2,0.1,0.3,0.1,0.5,0.1
			c0,0.4,0.2,0.8,0.5,0.9c0.2,0.1,0.3,0.1,0.5,0.1c0,0.4,0.2,0.8,0.5,0.9c0.2,0.1,0.3,0.1,0.5,0.1c0,0.4,0.2,0.8,0.5,0.9
			c1.1,0.5,2-1.1,3-1.9c0.2-0.2,0.4-0.3,0.6-0.4c8.1-6.8,16.2-13.5,24.3-20.1C939.5,710.9,940.2,710.4,939.9,709.6z"/>
	</g>
</g>
<g id="Layer_1">
	<g>
		<path class="st2" d="M587,433c5.5-1.1,10.6-3.2,15.7-5.1c0.4-0.2,1.1-0.8,1.5-0.2c0.4,0.5,0.2,1.1,0,1.8c-0.8,2.9-2.5,5-4.7,6.9
			c-4,3.3-8.7,5.1-13.4,6.8c-9.5,3.3-19.3,4-29,3.3c-10.5-0.8-20.7-3.6-30.5-7.6c-4.7-1.9-9.5-4-14.2-5.9c-0.6-0.3-1.3-1.1-1.9-0.1
			c-0.5,1,0,3.4,0.8,3.8c4.7,1.7,9,4.6,13.7,6.2c6.6,2.3,13.1,5.1,20,6.3c5.7,1,11.5,1,17.4,0.5c6.2-0.5,12.4-1.7,18.5-3.3
			c4.7-1.3,9.3-3.1,14-4.8c0.6-0.2,1.2-0.8,1.8-0.2c0.5,0.5,0,1.2-0.2,1.9c-1,3.3-3.3,5.5-5.6,7.4c-6,4.7-12.8,7-19.9,8.9
			c-9.8,2.5-19.8,3.3-29.9,2.8c-9.5-0.4-18.7-2.5-27.7-6c-4.1-1.6-8-3.9-12.2-5.1c-0.9-0.3-1.8-0.3-2.6-0.3c-53.3,0-106.6,0-159.9,0
			c-2.6,0-2.6,0-2.3,2.7c0.5,4,1.2,8,1.5,12c0.3,4.2-1.4,6.2-5.5,6.8c-4,0.6-8.2,1-12.3,1.7c-10,1.7-20,3.4-30,5.1
			c-12.5,2.1-25,4.2-37.5,6.2c-12,2-23.8,4.1-35.8,6c-9.3,1.4-18.6,2.9-27.9,3.9c-5.1,0.5-4.9,1.1-6.1-4.9
			c-2.7-14.1-4.7-28.3-6.7-42.6c-1.8-12.1-3.5-24.4-5.2-36.5c-1.6-11.3-3-22.8-4.7-34.1c-1.9-13.5-3.3-27.2-5.9-40.7
			c-0.3-1.3-0.4-2.7-0.4-4c0.3-2.6,2.1-4,5.5-4.7c13.8-2.5,27.5-5,41.3-7.3c13.2-2.2,26.5-4.1,39.7-6.2c10.6-1.7,21.2-3.4,31.7-5.2
			c9.7-1.6,19.4-3.3,29.1-4.8c1.6-0.3,3.2-0.2,4.7,0c1.8,0.2,3.2,1.2,3.5,3.3c0.8,5.5,1.5,11,2.3,16.4c1.2,9,2.5,17.9,3.8,26.9
			c0.2,1.1,0.7,1.3,1.6,1.3c8.2-0.2,16.4,0.4,24.6-0.4c0.5-0.1,1-0.1,1.5-0.1c38.4,0.3,76.9-0.4,115.3-0.5c14.3,0,28.6-0.2,42.9-0.3
			c2.8,0,2.8,0,2.8,3c0,1.1,0,2,0,3.1c0.3,8.7-0.6,17.3-0.4,26c0,1.8,0.6,3,2.2,3.8c9.9,4.7,19.8,9.6,29.6,14.4
			c8.9,4.3,17.8,8.6,27,11.9c8.4,3,17,5,25.9,5.2c4.4,0.1,8.7,0,13-0.8c0.4-0.1,1,0.2,1.1-0.4c0.2-0.6-0.4-0.9-0.7-1.3
			c-1.2-1.5-2.7-2.6-4.1-3.9c-0.2-0.2-0.4-0.2-0.4-0.4c-1.1-1.1-2.8-2.3-2.5-3.8c0.4-1.2,2.4-0.5,3.6-0.5c6.9,0.4,13.9,0.8,20.8,1.1
			c4.2,0.2,8.5,0.3,12.7,0.4c0.6,0,1.4-0.3,1.7,0.5c0.3,0.9-0.4,1.3-1,1.8c-8.1,6.7-16.2,13.4-24.3,20.1c-0.2,0.2-0.4,0.3-0.6,0.4
			c-1,0.8-1.9,2.5-3,1.9c-1-0.4-0.4-2.4-0.4-3.6c0-2.4,0.4-4.7,0.4-7.1c0-1.7-0.5-1.9-1.9-1.7c-6.1,1.3-12.1,2.1-18.3,1.9
			c-9-0.3-17.6-2.3-26.2-4.7c-10-2.9-19.3-7.8-28.8-12.1c-8.1-3.7-16.1-7.6-24.1-11.3c-1.1-0.5-1.6-0.4-1.5,1c0,0.2,0,0.3,0,0.4
			c-0.6,4.7,0.4,7.6,5.3,9.8c12,5.1,23,12.2,35,17.4c7.5,3.3,15.2,4.9,23.2,5.5c4.7,0.3,9.5,0.3,14.2,0.3c1.5,0,3-0.3,4.5-0.4
			c0.4,0,1.1-0.1,1.1,0.7c0.1,0.7-0.4,0.9-1,1.1C590.9,431.4,588.9,432.2,587,433z M392,381.3c-2-0.4-2.7-1.6-2.1-3.5
			c0.3-0.8,0.6-1.5,1-2.2c0.3-0.5,0.4-0.9-0.1-1.4c-2.5-2.3-0.3-4.3,0.4-6.4c0.5-1.8,1.9-1.1,3.1-1.1c30.3,0,60.7,0,91,0
			c2.5,0,4.9,2.7,4.7,5.5c0,0.5-0.2,1.1-0.5,1.5c-0.5,0.5-1.6,0.7-1,2c0.4,0.8,0.8,1.6,1.6,1.9c1.8,0.8,3.8,1.4,5.8,1.8
			c1.9,0.4,4,0.6,5.4,2.5c0.4,0.5,1.1,0.7,1.8,1c1.1,0.5,1.6,0.2,1.6-1.2c0-7.5,0-14.9,0-22.4c0-1.3-0.4-1.9-1.7-1.8
			c-0.5,0-1,0-1.5,0c-58.5,0-117,0-175.5,0c-0.5,0-1,0-1.5,0c-1.4-0.1-1.8,0.7-1.6,2c0.2,1.4,0.5,2.8,0.7,4.2c0.4,3,0.4,3,3.1,3
			c17.5,0,35,0,52.6,0c2.2,0,4.8,3.8,4.2,6.1c-0.1,0.4-0.3,0.8-0.4,0.9c-1.8,0.7-0.9,1.8-0.4,2.9c0.4,0.7,0.6,1.3,0.9,2
			c0.4,0.8,0.4,1.6-0.3,2.2c-0.7,0.5-1.3,1-2.2,0.5c-0.6-0.4-1.2-0.6-1.6-1.4c-0.7-1.6-1.9-1.9-3.4-1.9c-16.2,0-32.4,0-48.6,0
			c-0.5,0-1.4-0.4-1.6,0.5c-0.1,0.7-0.2,1.6,0.4,2.1c0.5,0.6,1.4,0.4,2.1,0.4c14.6,0,29.1,0,43.7,0c2.1,0,4.3-0.1,6.4,0
			c2.5,0.1,4.8,2.4,5,4.8c0.1,1.2-0.1,2.3-1.4,2.5c-1.1,0.3-2.5,0.3-2.7-1.3c-0.4-1.7-1.4-1.8-2.6-1.8c-16,0-32,0-48,0
			c-1.9,0-2.5,1-1.5,2.8c0.5,1.1,1.6,0.7,2.4,0.7c16.5,0,33.1,0,49.5,0c2.2,0,5.1,3.5,4.7,5.9c-0.1,0.6-0.4,0.8-0.9,0.9
			c-1.6,0.4-1.3,1.1-0.6,2.3c0.4,0.5,0.6,1.1,0.9,1.6c1.3,2.7,0.7,3.8-2.3,3.8c-0.4-0.4-1.1-0.7-1.2-1.1c-0.7-2.1-2.2-2-3.9-2
			c-14.7,0-29.4,0-44.1,0c-0.6,0-1.2,0-1.8,0.1c-0.7,0.1-0.9,0.6-0.9,1.3c0,0.7,0.2,1.2,1,1.2c0.6,0.1,1.2,0.1,1.8,0.1
			c14.2,0,28.5,0,42.7,0c2.1,0,4.3-0.1,6.3,0.5c0.5,0.6,1.1,1.2,1.7,1.9c1.1,1.6,1.5,4.7,0.5,5c-2.2,0.7-1,1.7-0.4,2.7
			c0.4,0.9,0.8,1.8,1.1,2.8c0.3,0.6,0.2,1.4-0.5,1.5c-2.5,0.5-1.2,1.8-0.6,2.9c0.4,0.7,0.8,1.4,1.1,2.1c0.5,1.5-0.7,3-2.2,2.7
			c-0.9-0.2-1.6-0.6-1.9-1.4c-0.8-1.8-2.1-2-3.7-1.9c-13.7,0.1-27.3,0-41.1,0c-0.5,0-1,0-1.5,0c-0.7,0-1.2,0.3-1.2,1.1
			s0.2,1.7,1.1,1.8c0.6,0.2,1.2,0.1,1.8,0.1c14.3,0,28.7,0,42.9,0c1.3,0,2.5,0.2,3.6,1c1.2,0.9,2.3,3.8,2.1,5.2
			c-0.3,1.6-1.5,1.1-2.5,1.5c1.2,1.2,2,2.7,2.5,4.3c0.5,1.8,0,2.6-1.8,2.8c-1.2,0.1-2-0.6-2.3-1.7c-0.4-1.8-1.6-1.9-3.1-1.9
			c-8.3,0-16.6,0-24.9,0c-5.3,0-10.6,0-15.8,0c-1.3,0-2,0.3-1.6,2c0.4,1.9,0.7,4,0.8,6c0.2,1.8,0.9,2.5,2.6,2.5
			c50.7-0.1,101.5,0,152.1-0.1c0.5,0,1.2,0.3,1.8-0.4c-0.2-0.2-0.4-0.4-0.5-0.5c-5.2-3.3-10.5-6.2-15.8-9c-0.8-0.4-1.7-0.4-2.5-0.4
			c-25.2,0-50.5,0-75.7,0c-1.4,0-2.3,0.4-2.9,1.9c-0.7,1.9-2,2.3-3.4,1.3c-1.2-0.9-1-1.9-0.4-3.2c0.6-1.5,2.4-3-0.1-4.6
			c-0.5-0.4-0.4-1.4-0.1-2.1c0.3-0.9,0.5-1.8,1-2.6c0.4-0.8,0.4-1.2-0.3-1.9c-1.2-1.1-1.1-2.5-0.4-3.9c0.7-1.4,1.9-2.5-0.1-3.9
			c-0.5-0.3-0.4-1.3-0.2-1.9c0.3-0.9,0.6-1.8,1-2.6c0.4-1,1-1.8-0.5-2.4c-0.7-0.4-0.7-1.3-0.5-2c0.4-1.8,1-3.7,2.6-4.7
			c1.4-0.4,2.8-0.4,4.3-0.5c8.9-0.3,17.8,0.5,26.6,0c2.8-0.2,5.3-1.4,7.8-2.7c-0.6,0-1.2,0-1.8,0c-10.2,0-20.5,0-30.7,0
			c-2.2,0-4.4-0.2-5.5,2.6c-0.1,0.3-0.4,0.4-0.7,0.6c-2.2,0-3.2-1.4-2.5-3.6c0.2-0.6,0.4-1.2,0.9-1.8c0.6-0.8,0.4-1.4-0.3-2
			c-1.2-1.1-1-2.5-0.4-3.9c0.7-1.5,1.1-3.2,3.3-3.1c3,0.2,6.1-0.1,9.1,0.1c2.9,0.2,5.2-1,7-3.3c-0.6-0.4-1.2-0.3-1.8-0.3
			c-3.3,0-6.7,0.1-9.9,0c-1.8-0.1-3.4,0-4.2,2.4c-0.5,1.5-2.1,1.1-3.2,0.7s-0.9-1.6-0.6-2.6C390,383.8,390.8,382.5,392,381.3
			c2.9-0.9,6-0.7,8.9-0.6c5,0.2,10,0.1,15,0.1c1.8,0,3.6-0.8,5.5-2.3c-5.8,0.3-11.1-0.5-16.4-0.4c-3.1,0.1-6.2,0.4-9.3-0.3
			c-0.8-0.2-1.6-0.1-1.8,1.1C393.8,380.1,392.9,380.7,392,381.3z M309.8,307.6c-6.8,1.1-12.8,2.1-18.8,3.1
			c-10.6,1.8-21.2,3.4-31.7,5.2c-10.6,1.7-21.3,3.3-31.9,5c-10.1,1.7-20.3,3.3-30.5,5.2c-10.1,1.8-20.1,3.4-30.1,6.1
			c-2.9,0.7-2.9,0.9-2.4,4c0.9,5.5,1.7,11.1,2.5,16.6c1.5,10.2,2.9,20.5,4.4,30.7c1.1,7.3,2.1,14.6,3.2,21.8
			c1.5,10.2,2.9,20.5,4.4,30.7c1.3,9.1,2.6,18,4,27.1c1.3,9.1,2.5,18.2,3.9,27.3c0.2,1.4,0.8,1.9,2.2,1.8c4.8-0.7,9.7-1.2,14.5-1.9
			c7.5-1.1,14.9-2.3,22.5-3.5c8.2-1.3,16.4-2.8,24.4-4.2c10.6-1.8,21.3-3.7,31.9-5.5c8.2-1.4,16.3-2.9,24.4-4.2
			c8.4-1.4,16.8-2.7,25.2-4.1c1.7-0.3,2.3-1.2,2-2.9c-0.5-3.5-1-6.9-1.4-10.5c-1.1-8.4-2.4-16.7-3.5-25.1c-1.3-9.6-2.6-19.1-4-28.7
			c-1.1-8.4-2.4-16.7-3.5-25.1c-1.3-9.6-2.7-19.3-4-28.8c-1.1-7.6-2.1-15.1-3.2-22.7c-0.7-4.7-1.2-9.5-2-14.2
			C311.7,308.8,311.2,307,309.8,307.6z M586.9,448.2c-0.6,0.1-1.2,0.2-1.8,0.3c-0.4,0.1-0.7,0.2-1.1,0.4
			c-11.8,3.7-23.7,5.8-36.1,4.1c-6.8-0.9-13.3-2.5-19.8-4.8c-9.3-3.3-18.1-8.2-27.1-12.7c-10.6-5.3-21.1-10.5-32.2-14.1
			c-10-3.3-20.2-5.7-30.9-4.7c-5,0.4-9.8,1.7-14.3,3.9c-1.5,0.7-2.9,1.7-4.2,3.1c0.8,0.4,1.3,0.1,1.9,0c3.8-1.1,7.7-1.8,11.7-2
			c6.8-0.4,13.5,0.8,20.1,2.3c14.6,3.3,27.5,10.8,40.4,18.5c7.6,4.5,15.2,8.8,23.4,11.5c12,4,24.1,6.1,36.7,4.8
			c8.8-0.9,17.5-2.5,25.9-5.7C582.2,451.9,584.9,450.8,586.9,448.2z M426.9,405.7c2.6-0.3,5.2-0.7,7.8-1c8.3-0.7,16.5-0.5,24.7,1.1
			c12,2.4,23.1,7.1,33.9,13c14.1,7.6,28.4,14.7,43.5,19.6c8.2,2.7,16.5,4.7,25.1,4.9c8.3,0.3,16.3-1.7,24.2-4.2c3-1,6-1.9,9-4.5
			c-4.9,1.5-9.3,2.6-13.8,3.4c-7,1.2-14.1,1.8-21.1,1c-9.1-1.2-17.7-4.7-26.2-8.4c-16.2-6.9-31.7-15.6-48.1-22.1
			c-10.1-4-20.6-6.9-31.4-7.6C444.9,400.3,435.7,401.8,426.9,405.7z M411.5,388.5c0.7,0,1.5,0,2.2,0c23.7,0,47.3,0,71,0
			c0.7,0,1.4-0.1,2.1,0.1c1.9,0.3,2.3,2.1,3,3.6c0.5,1.1,0.4,2.3-0.4,3.2c-0.5,0.5-1,1.1-0.7,1.9c0.4,0.8,1.1,0.9,1.8,1
			c4.4,0.5,8.6,1.8,12.8,3.1c1.1,0.4,1.5,0.1,1.5-1.1c0-2.5,0-5,0-7.6c0-1-0.4-1.5-1.1-1.8c-4-1.7-7.9-3.3-11.9-5
			c-0.9-0.4-1.5-0.4-1.5,0.9c0,1-0.5,1.5-1.4,1.5c-1,0-2.3,0.3-2.6-1.1c-0.5-2.4-2-2.2-3.6-2.2c-20.7,0-41.4,0.1-62.2-0.1
			C416.9,384.9,414.1,386.1,411.5,388.5z M486.4,395.4c-0.9-2.6-2.2-3.6-4.7-3.4c-3,0.3-6.1,0.1-9.1,0.1c-21.6,0-43.3,0-65,0
			c-2.7,0-4.1,1-5,3.4C430.7,395.4,458.5,395.4,486.4,395.4z M393.1,373.9c12.3,0,24.5,0.2,36.8-0.1c4.1-0.1,8.3-0.5,12.3-1.3
			c9.9-2,20-1.9,29.9,0.1c4.3,0.9,8.7,1.2,13.1,1.3c1.3,0,1.6-0.3,0.8-1.6c-0.9-1.7-2.2-1.9-3.8-1.9c-28,0-56,0.1-84,0
			C395.7,370.3,393.7,370.7,393.1,373.9z M464.4,431.4c-3.9-1.8-7.8-3.2-12-3.2c-9.7-0.1-19.3,0-29,0c-3.5,0-6.9,0.4-10,2.2
			c-0.6,0.4-1.3,0.5-1.9,0.6c-0.5,0.1-1.1,0.6-1.6,0c-0.4-0.5,0.3-1,0.4-1.4c0.4-0.8,0.6-1.4-0.6-1.4c-4.7,0-9.4,0-14.1,0
			c-1.7,0-1.8,1.7-2,2.7c-0.2,1.4,1.2,0.7,1.8,0.7c22.4,0.1,44.8,0,67.2,0C463.3,431.7,463.8,431.9,464.4,431.4z M379.7,373.7
			c-1-3-1.3-3.3-4.1-3.3c-16.3,0-32.5,0-48.7,0c-0.4,0-0.8,0-1.1,0c-0.8-0.1-1.1,0.3-1.1,1.2c0,1.9,0.9,2.4,2.5,2.4
			c17.1,0,34.1,0,51.2,0C378.8,373.9,379.3,374,379.7,373.7z M353.8,395.5c3,0,6.1,0,9.1,0c5,0,10,0,15,0c0.5,0,1.4,0.4,1.5-0.6
			c0.1-1.2-1.4-2.8-2.6-2.8c-15.8,0-31.7,0-47.5,0c-0.6,0-1.3-0.2-1.6,0.7c-0.3,0.8,0,1.7,0.4,2.3c0.5,0.7,1.2,0.4,1.9,0.4
			C338,395.5,345.9,395.5,353.8,395.5z M354.9,410.1c7.6,0,15.2,0,22.8,0c0.6,0,1.6,0.4,1.8-0.4c0.3-0.7-0.4-1.4-0.7-2
			c-0.5-1.1-1.6-1.1-2.5-1.1c-14.9,0-29.8,0-44.8,0c-1.7,0-2,0.5-1.7,2.3c0.3,1.6,1.2,1.3,2.1,1.3
			C339.7,410.2,347.2,410.1,354.9,410.1z M355.2,417c7.3,0,14.7,0,22.1,0c0.5,0,1,0,1.5,0c0.4,0,0.7-0.2,0.6-0.7
			c-0.1-1.3-1.4-2.7-2.7-2.7c-14.8,0-29.5,0-44.2,0c-0.6,0-1.5-0.2-1.7,0.8c-0.2,0.9,0,1.7,0.5,2.3c0.5,0.6,1.3,0.4,1.9,0.4
			C340.5,417,347.9,417,355.2,417z M356.4,431.7c3.4,0,6.8,0,10.2,0c3.9,0,7.6,0,11.5,0c1.3,0,1.8-0.3,1.1-1.7
			c-0.6-1.3-1.3-1.8-2.7-1.8c-13.9,0.1-27.9,0.1-41.8,0c-1.4,0-1.8,0.4-1.7,1.9c0.2,1.6,1,1.6,2,1.6
			C342,431.7,349.2,431.7,356.4,431.7z M431.6,380.1c15,0.8,30.1,0.7,45.1,0.3C461.7,377.2,446.7,376.2,431.6,380.1z M582.4,434.3
			c-2.5,0.3-4.8,0.6-7.3,0.7c-4.1,0.2-8.3-0.2-12.4-0.7c-9-1.1-17.6-3.5-25.9-7c-8.7-3.7-16.6-8.8-24.9-13.4c-0.4-0.3-1.1-1-1.4-0.3
			s-0.4,1.6,0.4,2.1c0.4,0.3,0.8,0.4,1.2,0.6c4,1.9,8,3.9,12,5.7c8.8,4,17.5,8.4,26.7,11.3C561.4,436.5,571.9,437.1,582.4,434.3z
			 M554.7,429.1c-0.3-0.2-0.5-0.3-0.8-0.4c-7.2-2.7-14.2-6-21.1-9.6c-6.2-3.3-12.5-6.9-19-9.8c-2.7-1.2-5.5-2.5-8.5-3.3
			c10,5.1,19.4,11.5,29.5,16.4C541.3,425.6,547.9,427.8,554.7,429.1z M480.1,421.6c3.5,1.7,7,3.3,10.6,4.9c4.1,1.9,8.3,3.9,12.4,5.7
			c0.4,0.2,1,0.8,1.4-0.2c0.6-1.5-0.1-3.3-1.5-4c-0.7-0.3-1.4-0.6-2-1c-3.2-1.7-6.3-3.3-9.5-4.9c-0.4-0.2-1.3-1-1.2,0.3
			c0.1,1.4-0.8,1.7-1.5,2c-1,0.4-2-0.2-2.5-1.1C484.8,420.5,482.4,421.3,480.1,421.6z M416.7,406.7c-7.3,0-14.1,0-20.8,0
			c-0.1,0-0.3,0-0.4,0c-1.3,0.4-1.8,1.7-1.8,2.7c0,1.3,1.2,0.7,1.9,0.7c4.7,0.1,9.5,0,14.2,0C412.4,410.2,414.6,409.1,416.7,406.7z
			 M451.2,413.6c4.3,0.3,8.4,1.3,12.5,2.6c5.7,1.8,11.4,1.6,17.6,0.8C471.4,411.7,461.2,414.2,451.2,413.6z M416.2,421.2
			c-6.5,0-12.7,0.1-18.9-0.1c-2.2-0.1-3.4,0.7-3.9,3.2c1.8-0.5,3.6-0.3,5.5-0.4c4-0.2,7.8,0.7,11.8,0.4
			C412.7,424.2,414.8,423.8,416.2,421.2z M408.6,417c4,0,7.9,0,11.9,0c1.3,0,2.5-0.2,3.7-0.7c3.1-1.3,6.2-2.4,9.5-2.7
			c-5.1-0.1-10.2,0-15.2-0.1C414.8,413.4,411.7,415.1,408.6,417z M408.9,413.5c-2.6,0-5,0-7.4,0c-1.9,0-3.9,0-5.8,0
			c-1,0-2.5,1.9-2.2,2.8c0.4,1.2,1.4,0.6,2.1,0.6c2.6,0.1,5.3-0.2,7.9,0.1C406.1,417.4,407.6,416.2,408.9,413.5z M460,410.1
			c-10.3-2.4-20.7-3.3-31.6-0.9C439.3,410.3,449.8,409.1,460,410.1z M488,403.4c0.6,1.7,1.4,2.8,2.7,3.3c4.1,1.4,8,3.6,12,5.2
			c0.5,0.2,1.3,1,1.8-0.2c0.3-0.9,0-1.7-1-2.1c-1.3-0.5-2.6-1.2-4-1.8C495.8,406.1,492,404.6,488,403.4z M393.1,395.5
			c1.8,0,3.5-0.1,5.2,0c1.9,0.2,2.5-1.4,3.4-2.6c0.4-0.6-0.1-0.9-0.6-0.9c-2,0-4-0.2-6,0.2c-1.3,0.2-1.1,2.2-2,3
			C393,395.1,393.1,395.2,393.1,395.5z M483.9,402.2c-4.1-1.2-8.2-3-13-2.3C475.3,401,479.4,403,483.9,402.2z"/>
		<path class="st2" d="M298.2,321.8c0.8,0,1.2,0.1,1.6,0c2-0.5,2.8,0.6,3.3,2.5c1.3,6.2,2.5,12.3,3.4,18.5
			c1.2,7.6,2.5,15.2,3.5,22.8c1.5,10.4,3,20.8,4.4,31.3c1.2,9.1,2.5,18,3.6,27.1c0.9,7.1,1.6,14.3,2.4,21.5c0.4,3,0.4,5.9,0.8,8.9
			c0.2,1.8-0.6,2.9-2.1,3.6c-3.6,1.6-7.4,2.4-11.3,3.2c-8.8,1.8-17.7,2.9-26.6,4.1c-10.3,1.5-20.5,3.3-30.8,5.1
			c-10.3,1.7-20.7,3.3-31,5.1c-5.1,0.9-10.3,1.7-15.4,2.5c-2,0.4-4.1,0.4-6.2,0.2c-2.4-0.3-3.9-2-4.1-5.2
			c-1.2-13.8-3.6-27.4-5.5-41.2c-1.3-10-2.9-20-4.3-30.1c-1.6-11-3.1-22.1-4.7-33.1c-0.9-6.3-1.9-12.7-3.2-19
			c-1.1-5.2,0.4-7.8,5.2-8.9c6.5-1.4,13.1-2.5,19.6-3.6c8.2-1.4,16.4-2.9,24.6-4.3c10.1-1.8,20.3-3.4,30.4-5.1
			c6.2-1.1,12.2-2.1,18.4-3.1c6.4-1,12.9-1.8,19.3-2.6C295.5,322,297.1,321.6,298.2,321.8z M313.5,455.3c0.1-0.3,0.2-0.4,0.3-0.7
			c-0.4-0.4-1-0.7-1.4-1.1c-4.4-3.7-8.9-7.3-13.1-11.2c-6.6-5.9-14.4-9.9-21-16c-6.3-5.8-13.2-10.9-20-16.1
			c-0.4-0.4-0.9-0.4-1.4-0.3c-3.2,0.5-6.3,1.1-9.5,1.6c-2.6,0.4-5.3,1.1-6.6,4c-1.8,3.8-4.1,7.1-6.4,10.5c-7,10.6-15.4,20-21.1,31.6
			c-0.3,0.4-0.6,0.9-1,1.2c-3.7,3.7-6.3,8.2-9.1,12.7c-0.3,0.4-0.6,0.8-0.4,1.3c0.3,0.6,0.9,0.4,1.3,0.4c8.5-1.4,17.1-2.7,25.6-4.1
			c8.6-1.4,17.3-2.9,25.9-4.3c8.9-1.4,17.7-2.9,26.6-4.3c7.2-1.1,14.3-2.3,21.5-3.4C307,456.4,310.3,455.8,313.5,455.3z
			 M198.1,470.5c1.1-1.2,1.8-1.9,2.5-2.8c5.5-7.1,10.3-14.7,15.3-22.1c6.2-9.3,12.2-18.8,19.1-27.7c1.7-2.2,3.3-4.5,3.8-7.6
			c0.7-3.8-0.4-7.3-0.6-10.9c-0.3-4.4-2.1-7.6-5.6-10.2c-13.9-9.8-26.9-21-40.4-31.6c-3.2-2.5-6.3-4.8-9.5-7.3
			c-0.4-0.3-0.8-0.6-1.2-0.4c-0.5,0.3-0.3,0.8-0.2,1.2c0.9,6.2,1.8,12.3,2.6,18.5c1.6,11.3,3.3,22.6,4.8,33.9c1.3,9.5,2.7,19,4,28.5
			c1.1,8.4,2.4,16.7,3.5,25.1C196.8,461.4,197.4,465.7,198.1,470.5z M317.2,450.5c-5.7-40.4-11.3-80.2-17-119.9
			c-0.2-0.1-0.4-0.2-0.5-0.3c-0.4,0.6-1,1.2-1.4,1.8c-3.1,4.2-6.1,8.4-9.2,12.6c-4.7,6.3-8.3,13.7-13.2,20
			c-4.5,5.7-8.6,11.8-12.6,17.9c-1.7,2.6-3.7,5.1-4,8.6c-0.4,4.7,0.4,9.2,1.7,13.7c0.4,1.4,1.1,2.5,2.3,3.4c2,1.7,4,3.3,6.2,4.8
			c1.6,1.1,3.3,1.8,4.8,3.1c2.4,2.2,4.8,4.3,7.3,6.4c7.5,6.3,15.2,12.4,22.9,18.4C308.5,444.2,312.7,447.1,317.2,450.5z
			 M184.6,344.7c0.2,1,0.8,1.3,1.2,1.8c8.4,7.3,17.4,13.9,26.1,20.8c6.9,5.5,13.9,10.6,20.5,16.5c2.5,2.2,4.8,4.5,8.3,4.9
			c1.9,0.3,3.7-0.1,5.6-0.2c6.3-0.5,11.3-3.7,15.1-9.1c4-5.7,7.5-12,11.4-17.8c7.2-10.5,14.9-20.6,21.5-31.6c0.6-1,1.2-1.9,1.5-3.4
			C258.4,332.7,221.5,338.7,184.6,344.7z M253.1,391.5c-3,0.4-6.1,0.8-9.1,1.4c-1.6,0.4-2.5,1.6-2.2,3.4c0.4,3.4,1.1,6.8,1.4,10.2
			c0.2,1.2,0.7,1.6,1.8,1.5c3.4-0.4,6.9-0.9,10.4-1.3c1.5-0.2,2.2-1.3,1.8-2.9c-0.6-3.5-1.4-7-2.1-10.5
			C254.9,392.1,254.4,391.4,253.1,391.5z"/>
		<path class="st2" d="M297.7,448.4c0.5,0.1,1.2,0.3,2,0.4c0.6,0.1,1.4,0.1,1.6,0.8c0.2,0.9-0.4,1.5-1.1,2c-1.5,1.2-3.3,1.6-5.1,1.8
			c-7.4,0.7-14.8,2.3-22.1,3.4c-8.8,1.3-17.6,2.9-26.3,4.4c-9.8,1.7-19.8,3.1-29.6,5.1c-0.4,0.1-0.8,0.2-1.1,0.1
			c-1.2-0.2-2.6-0.6-2.8-1.9s1.4-1.5,2.4-1.8c6.9-2.1,13.8-3.3,20.8-4.5c11.5-1.9,22.9-3.8,34.5-5.6c8.6-1.4,17.2-2.7,25.8-4.1
			C296.8,448.4,297.2,448.4,297.7,448.4z"/>
		<path class="st2" d="M289.2,439.8c0.8,0.2,1.7-0.3,2.2,0.8c0.8,1.6,0.4,2.6-1.3,3.1c-5.5,1.3-10.9,2.3-16.4,3.3
			c-8,1.3-15.9,2.5-23.9,3.9c-8.7,1.4-17.4,2.8-26.1,4.3c-0.5,0.1-1,0-1.5,0c-1.1,0.1-1.5-0.7-1.8-1.8c-0.3-1.1,0.5-1.4,1.1-1.8
			c3.3-1.5,6.9-2.2,10.4-2.7c12-1.9,24.2-3.5,36.1-5.9C275,441.5,282.1,440.5,289.2,439.8z"/>
		<path class="st2" d="M230.3,443.7c-1.1,0.1-2.5,0-2.6-1.5s0.7-2.6,2.3-2.9c4.7-0.7,9.5-1.5,14.2-2.2c11.6-1.8,23.1-3.5,34.7-5.5
			c2.3-0.4,2.1,1.5,2.5,2.6c0.5,1.7-1.1,1.5-1.8,1.6c-11.4,1.1-22.7,4-34.1,5.5c-4.5,0.6-9.1,1.5-13.5,2.3
			C231.4,443.6,230.9,443.7,230.3,443.7z"/>
		<path class="st2" d="M236.3,431.9c-0.5-0.1-1.3,0.4-1.4-0.8c-0.1-1,0.2-1.9,1.1-2.5c1-0.6,2.1-0.9,3.3-1
			c5.9-0.6,11.6-1.9,17.4-2.7c4.3-0.6,8.4-1.8,12.8-1.8c1,0,1.8,0.2,1.8,1.5c0,1.2-0.4,2.1-1.6,2.3c-10.8,1.6-21.6,3.3-32.4,4.9
			C236.8,431.8,236.6,431.8,236.3,431.9z"/>
		<path class="st2" d="M244.8,421.2c-0.3,0.1-0.6,0.2-1,0.2c-0.9,0.1-1.3-0.4-1.7-1.3c-0.4-1,0.1-1.4,0.7-1.8
			c2.1-1.3,4.3-2.1,6.8-2.3c2.9-0.3,5.6-1.2,8.5-1.1c2,0.2,2.8,1.1,2.3,2.9c-0.4,1.1-1.2,1.1-2,1.2c-4.6,0.8-9.1,1.6-13.7,2.3
			C244.8,421.3,244.8,421.3,244.8,421.2z"/>
		<path class="st2" d="M204.4,453.3c0,0.5,0,1.1,0,1.6c0,1.2-0.7,1.6-1.7,1.8c-1.1,0.3-1.3-0.5-1.5-1.3c-1.1-3.7-1.7-7.5-2.2-11.3
			c-1.5-10.1-3-20.1-4.5-30.2c-1.4-9.8-2.5-19.7-4-29.5c-0.6-4.3-1.7-8.6-2.4-12.9c-0.4-2.6-0.9-5.4-0.2-8c0.3-1,0.4-2.2,1.5-2.3
			c0.9-0.2,1.3,0.9,1.8,1.7c1.9,3.5,2.2,7.5,2.5,11.3c0.5,8,1.8,15.8,2.9,23.7c1.3,9.5,2.6,19,4,28.5c1.1,8.2,2.4,16.3,3.5,24.4
			C204.3,451.7,204.4,452.6,204.4,453.3C204.5,453.3,204.4,453.3,204.4,453.3z"/>
		<path class="st2" d="M211.8,439c0.1,1.7-0.6,3.3-0.5,4.8c0,0.7,0.1,1.6-1,1.7c-1,0.1-1.6-0.4-1.8-1.4c-0.4-2.5-0.8-4.9-1.1-7.4
			c-1.8-13.2-3.5-26.3-5.8-39.4c-1.1-6.6-2.3-13.3-2.6-20c-0.1-2.2-0.2-4.3,0.1-6.4c0.1-0.8,0.2-1.8,1.1-1.9c0.8-0.1,1,1,1.1,1.6
			c1.2,4.3,2,8.8,2.8,13.3c1.7,9.9,3,19.9,4.3,29.8C209.6,422,210.7,430.6,211.8,439z"/>
		<path class="st2" d="M220.2,432.6c0.1,1.4-1.1,1.8-2.2,2.2c-1.1,0.4-1.2-0.6-1.5-1.3c-1.8-4.6-2.2-9.6-2.8-14.4
			c-0.8-6.9-1.5-13.8-2.2-20.8c-0.7-6.7-1.2-13.5-1.8-20.1c-0.1-1.1,0.3-1.3,1.2-1c1.3,0.5,2,1.8,2.1,3.1c0.8,8.9,2.2,17.7,3.4,26.5
			c1.1,7.4,2.1,14.7,3.2,22.1C219.8,430,220,431.2,220.2,432.6z"/>
		<path class="st2" d="M227.5,418.6c-0.1,1.2,0.2,2.5-0.3,3.7c-0.2,0.5-0.3,1.2-0.9,1.4c-0.8,0.3-1.1-0.5-1.5-1
			c-1-1.2-1.2-2.8-1.6-4.3c-1.1-4.5-1.1-9.2-1.8-13.8c-0.7-4.1-1.3-8.3-2-12.3c-0.3-1.6-0.3-3.3-0.3-4.8c0-1.4,0.8-2.4,1.9-2.6
			c1.3-0.4,1.4,1.1,1.8,1.9c1.2,3.5,1.7,7.2,2,10.9c0.4,5.9,1.6,11.6,2.5,17.4C227.5,416.2,227.4,417.5,227.5,418.6z"/>
		<path class="st2" d="M234.9,407.2c0,0.8,0.1,2.1,0,3.4c-0.1,0.7-0.1,1.7-0.9,1.8c-0.9,0.3-1.3-0.6-1.8-1.2
			c-0.8-1.2-1.2-2.7-1.5-4.1c-0.8-4.1-1.4-8.4-1.2-12.7c0-0.9-0.4-1.9,1.1-2.1c1.3-0.1,2.1,0.1,2.5,1.7
			C234.1,398.1,235.2,402.3,234.9,407.2z"/>
		<path class="st2" d="M309.6,435.5c0,0.4,0,1,0,1.4c-0.1,0.7,0.4,1.8-0.5,1.9s-1.5-0.6-1.8-1.4c-1.2-2.5-1.8-5.4-2.2-8.2
			c-1.3-12.1-3.2-24.2-4.8-36.3c-1.9-13.4-3.7-26.7-6-40c-0.4-2.4-0.4-4.8,0-7.3c0.1-0.8,0.4-1.9,1.3-1.9c0.9,0,1,1.1,1.1,1.8
			c1.5,5.5,2.5,11.2,3.4,16.9c2.5,14.2,4.5,28.5,6.3,42.8c1.2,9.2,2,18.6,3.1,27.8C309.6,433.8,309.5,434.6,309.6,435.5
			C309.5,435.5,309.5,435.5,309.6,435.5z"/>
		<path class="st2" d="M299.4,425.3c-0.1,1.4,0,2.9-0.2,4.2c-0.3,1.8-1,2-2.3,0.8c-0.9-0.9-1.3-1.9-1.4-3.2
			c-1.2-11.9-3.4-23.7-5.1-35.4c-1.3-9.2-2.8-18.4-3.6-27.7c-0.3-2.5-0.5-4.8-0.7-7.2c-0.1-0.9-0.2-2.1,1-2.3
			c1.1-0.2,2.3,0.4,2.7,1.7c0.7,1.8,0.5,3.7,0.8,5.6c1.1,7.7,2.1,15.5,3.3,23.2c1.6,10.9,3.4,21.9,4.9,32.8
			C299.2,420.2,299.7,422.7,299.4,425.3z"/>
		<path class="st2" d="M289.5,422c0,1.2-1.3,1.1-2.3,1.3c-1.1,0.4-1.1-0.4-1.1-1.2c-2.1-14.2-4.2-28.3-6.3-42.5
			c-0.5-3.6-1.1-7.2-1.6-10.8c-0.4-2.3,1-3.7,3.1-3.6c0.6,0,0.7,0.5,0.7,1c1,7.6,2,15.1,3,22.7c1.2,8.9,2.4,17.8,3.6,26.6
			C288.9,417.6,289.2,419.6,289.5,422z"/>
		<path class="st2" d="M279.1,412.6c0.1,2.4-0.4,3-2.1,2.9c-0.9,0-1.3-0.4-1.5-1.4c-1.6-10.9-3.3-21.7-4.8-32.6
			c-0.2-1.1-0.1-2.3-0.1-3.4c0-0.9,0.1-1.5,1.1-1.8c1.1-0.4,1.6,0.4,1.8,1.1c1.2,2.7,1.8,5.7,2.4,8.7c1.3,7.5,2.1,14.9,2.7,22.5
			C278.8,410,279.2,411.4,279.1,412.6z"/>
		<path class="st2" d="M268.5,402.3c0.1,1.1-0.3,2.1-0.4,3.3c-0.1,0.7-0.2,1.7-1,1.7c-0.9,0-1.9-0.3-2.1-1.6c-0.4-2.1-0.7-4.2-1-6.4
			c-0.4-3.3-1.2-6.5-1.3-9.8c0-1.1,0.1-2,1.3-2.3s1.5,0.7,1.8,1.6C267.7,392.9,268.1,397.6,268.5,402.3z"/>
		<path class="st2" d="M202,352.1c-1.3-0.4-2.5-0.6-3.8-1c-0.6-0.2-1.1-0.6-1.2-1.3c-0.1-0.9,0.6-1.1,1.1-1.3
			c3.7-1.7,7.6-2.3,11.4-3.1c8.2-1.6,16.4-2.6,24.7-3.8c7.9-1.1,15.7-2.8,23.5-4.2c8.2-1.4,16.4-3.2,24.8-3.1c1,0,2.3-0.4,2.5,1.4
			c0.2,1.8-0.9,2.2-2.2,2.5c-5.5,1-11,1.8-16.5,2.8c-7.8,1.3-15.6,2.5-23.4,3.9c-8,1.3-16.1,2.5-24.1,4c-4,0.7-8.1,1.7-12.1,2.5
			C205.1,351.8,203.5,351.5,202,352.1z"/>
		<path class="st2" d="M273.3,345.8c0.9,0,1.6-0.1,2.2,0c0.9,0.1,2,0,2.1,1.1c0.1,1.2-0.7,2.1-1.8,2.5c-0.7,0.3-1.5,0.4-2.2,0.4
			c-8.3,1.1-16.4,2.6-24.7,4c-10.3,1.7-20.5,3.3-30.8,5c-2.4,0.4-4.7,0.9-7,1.4c-0.8,0.2-1.6,0.3-2.4-0.1c-0.8-0.4-1.7-1-1.8-1.9
			c-0.1-1,1-1.1,1.6-1.4c3-2.1,6.6-1.9,9.9-2.5c8.7-1.7,17.4-3.2,26.1-4.7c8.2-1.4,16.3-2.8,24.5-3.5
			C270.6,346.1,272,345.6,273.3,345.8z"/>
		<path class="st2" d="M221.9,368c-1,0-2,0-3,0c-0.9,0-1.9,0-2-1.2c-0.2-1.1,0.7-1.7,1.5-2.1c1.5-0.8,3.2-1.1,4.7-1.2
			c5.9-0.4,11.6-1.8,17.5-2.6c8-1.2,15.9-2.6,23.9-4c1-0.2,1.8-0.4,2.7-0.6c1.5-0.4,2.6,0.6,3,1.8c0.4,1.1-0.9,1.8-1.7,2.3
			c-1.6,1-3.3,1.3-5,1.5c-7.2,0.6-14.2,2.4-21.3,3.6C235.5,366.5,228.8,367.8,221.9,368z"/>
		<path class="st2" d="M231.6,376.6c-1.3-0.1-2.4-0.1-3.4-0.2c-0.9-0.1-1.2-0.8-1.4-1.7c-0.1-1,0.6-1.1,1.1-1.3
			c2.7-1.2,5.7-1.3,8.6-1.8c6.3-1.2,12.7-2.4,19-3.5c1.9-0.4,3.9-0.4,5.8,0.1c0.7,0.2,1.8,0.5,1.8,1.6c0,1-1,1.1-1.7,1.4
			c-4,1.6-8.1,2.4-12.2,3.2C243.3,375.4,237.3,376.2,231.6,376.6z"/>
		<path class="st2" d="M239.2,385.5c-0.9-0.2-1.8-0.1-2.2-1.3c-0.4-1.2,0.3-1.8,1-2.5c1.1-1.1,2.5-1,3.9-1.2
			c2.7-0.6,5.5-0.9,8.1-1.5c1.7-0.4,3.1-0.1,4.6,0.4c0.9,0.3,1.1,1,1.1,1.8c0,0.8-0.3,1.5-1.1,1.6
			C249.4,383.8,244.3,384.7,239.2,385.5z"/>
	</g>
</g>
</svg>
