<?xml version="1.0" encoding="utf-8"?>
<!-- Generator: Adobe Illustrator 24.1.2, SVG Export Plug-In . SVG Version: 6.00 Build 0)  -->
<svg version="1.1" id="Layer_1" xmlns="http://www.w3.org/2000/svg" xmlns:xlink="http://www.w3.org/1999/xlink" x="0px" y="0px"
	 viewBox="0 0 800 800" style="enable-background:new 0 0 800 800;" xml:space="preserve">
<style type="text/css">
	.st0{clip-path:url(#SVGID_2_);}
	.st1{fill:#333333;}
	.st2{clip-path:url(#SVGID_2_);fill:#1D1D1B;}
	.st3{fill:#1D1D1B;}
	.st4{fill:#CBCBCB;}
	.st5{fill:#808080;}
	.st6{fill:#A49529;}
	.st7{fill:#898659;}
	.st8{fill:#A43333;}
	.st9{fill:#A39E6A;}
	.st10{fill:#7D7D7D;}
	.st11{fill:#448CCA;}
	.st12{fill:#646464;}
	.st13{fill:#847C36;}
	.st14{fill:#CCC684;}
	.st15{fill:#982F2F;}
	.st16{fill:#852929;}
	.st17{fill:#972F2F;}
	.st18{fill:#842B2B;}
	.st19{fill:#282828;}
	.st20{fill:#A63838;}
	.st21{fill:#7A2626;}
	.st22{fill:#A13839;}
	.st23{fill:#A33434;}
	.st24{fill:#6E6E6E;}
	.st25{fill:#502C2C;}
	.st26{fill:#A3993F;}
	.st27{fill:#3670A1;}
	.st28{fill:#326795;}
	.st29{fill:#842A2A;}
	.st30{fill:#7C7C7B;}
	.st31{fill:#215796;}
	.st32{fill:#336CAD;}
	.st33{fill:#696969;}
	.st34{fill:#777777;}
	.st35{fill:#797979;}
	.st36{fill:#C2BDBD;}
	.st37{fill:#B05C5E;}
	.st38{fill:#676542;}
	.st39{fill:#7E7E7B;}
	.st40{fill:#7D7D7B;}
	.st41{fill:#615F44;}
	.st42{fill:#58563A;}
	.st43{fill:#525040;}
	.st44{fill:#7B7B7A;}
	.st45{fill:#6F3737;}
	.st46{fill:#5C5B53;}
	.st47{fill:#555344;}
	.st48{fill:#B19898;}
	.st49{fill:#9C8383;}
	.st50{fill:#A49A44;}
	.st51{fill:#7C7C7A;}
	.st52{fill:#605D3E;}
	.st53{fill:#877B22;}
	.st54{fill:#545029;}
	.st55{fill:#5F5C3D;}
	.st56{fill:#787870;}
	.st57{fill:#7B7B7B;}
	.st58{fill:#5F2222;}
	.st59{fill:#481A1A;}
	.st60{fill:#787770;}
	.st61{fill:#7A7977;}
	.st62{fill:#2660AB;}
	.st63{fill:#432532;}
	.st64{fill:#4B252F;}
	.st65{fill:#322433;}
	.st66{fill:#A13232;}
	.st67{fill:#A03131;}
	.st68{fill:#73715E;}
	.st69{fill:#75746C;}
	.st70{fill:#1E5495;}
	.st71{fill:#1F5495;}
	.st72{fill:#205595;}
	.st73{fill:#3876B0;}
	.st74{fill:#3373B4;}
	.st75{fill:#615E3E;}
	.st76{fill:#666341;}
</style>
<g id="Layer_2_3_">
	<defs>
		<circle id="SVGID_1_" cx="400" cy="400" r="400"/>
	</defs>
	<clipPath id="SVGID_2_">
		<use xlink:href="#SVGID_1_"  style="overflow:visible;"/>
	</clipPath>
	<g class="st0">
		<circle class="st1" cx="400" cy="400" r="400"/>
	</g>
	<path class="st2" d="M921.5,699.2c0.1-1.9-0.4-2.9-1.4-3.4c-0.2-0.4-0.6-0.8-1-1c-0.2-0.4-0.6-0.8-1-1c-0.2-0.4-0.6-0.8-1-1
		c-0.2-0.4-0.6-0.8-1-1c-0.2-0.4-0.6-0.8-1-1c-0.2-0.4-0.6-0.8-1-1c-0.2-0.4-0.6-0.8-1-1c-0.2-0.4-0.6-0.8-1-1c-0.2-0.4-0.6-0.8-1-1
		c-0.2-0.4-0.6-0.8-1-1c-0.2-0.4-0.6-0.8-1-1c-0.2-0.4-0.6-0.8-1-1c-0.2-0.4-0.6-0.8-1-1c-0.2-0.4-0.6-0.8-1-1c-0.2-0.4-0.6-0.8-1-1
		c-0.2-0.4-0.6-0.8-1-1c-0.2-0.4-0.6-0.8-1-1c-0.2-0.4-0.6-0.8-1-1c-0.2-0.4-0.6-0.8-1-1c-0.2-0.4-0.6-0.8-1-1c-0.2-0.4-0.6-0.8-1-1
		c-0.2-0.4-0.6-0.8-1-1c-0.2-0.4-0.6-0.8-1-1c-0.2-0.4-0.6-0.8-1-1c-0.2-0.4-0.6-0.8-1-1c-0.2-0.4-0.6-0.8-1-1c-0.2-0.4-0.6-0.8-1-1
		c-0.2-0.4-0.6-0.8-1-1c-0.2-0.4-0.6-0.8-1-1c-0.2-0.4-0.6-0.8-1-1c-0.2-0.4-0.6-0.8-1-1c-0.2-0.4-0.6-0.8-1-1c-0.2-0.4-0.6-0.8-1-1
		c-0.2-0.4-0.6-0.8-1-1c-0.2-0.4-0.6-0.8-1-1c-0.2-0.4-0.6-0.8-1-1c-0.2-0.4-0.6-0.8-1-1c-0.2-0.4-0.6-0.8-1-1c-0.2-0.4-0.6-0.8-1-1
		c-0.2-0.4-0.6-0.8-1-1c-0.2-0.4-0.6-0.8-1-1c-0.2-0.4-0.6-0.8-1-1c-0.2-0.4-0.6-0.8-1-1c-0.2-0.4-0.6-0.8-1-1c-0.2-0.4-0.6-0.8-1-1
		c-0.2-0.4-0.6-0.8-1-1c-0.2-0.4-0.6-0.8-1-1c-0.2-0.4-0.6-0.8-1-1c-0.2-0.4-0.6-0.8-1-1c-0.2-0.4-0.6-0.8-1-1c-0.2-0.4-0.6-0.8-1-1
		c-0.2-0.4-0.6-0.8-1-1c-0.2-0.4-0.6-0.8-1-1c-0.2-0.4-0.6-0.8-1-1c-0.2-0.4-0.6-0.8-1-1c-0.2-0.4-0.6-0.8-1-1c-0.2-0.4-0.6-0.8-1-1
		c-0.2-0.4-0.6-0.8-1-1c-0.2-0.4-0.6-0.8-1-1c-0.2-0.4-0.6-0.8-1-1c-0.2-0.4-0.6-0.8-1-1c-0.2-0.4-0.6-0.8-1-1c-0.2-0.4-0.6-0.8-1-1
		c-0.2-0.4-0.6-0.8-1-1c-0.2-0.4-0.6-0.8-1-1c-0.2-0.4-0.6-0.8-1-1c-0.2-0.4-0.6-0.8-1-1c-0.2-0.4-0.6-0.8-1-1c-0.2-0.4-0.6-0.8-1-1
		c-0.2-0.4-0.6-0.8-1-1c-0.2-0.4-0.6-0.8-1-1c-0.2-0.4-0.6-0.8-1-1c-0.2-0.4-0.6-0.8-1-1c-0.2-0.4-0.6-0.8-1-1c-0.2-0.4-0.6-0.8-1-1
		c-0.2-0.4-0.6-0.8-1-1c-0.2-0.4-0.6-0.8-1-1c-0.2-0.4-0.6-0.8-1-1c-0.2-0.4-0.6-0.8-1-1c-0.2-0.4-0.6-0.8-1-1c-0.2-0.4-0.6-0.8-1-1
		c-0.2-0.4-0.6-0.8-1-1c-0.2-0.4-0.6-0.8-1-1c-0.2-0.4-0.6-0.8-1-1c-0.2-0.4-0.6-0.8-1-1c-0.2-0.4-0.6-0.8-1-1c-0.2-0.4-0.6-0.8-1-1
		c-0.2-0.4-0.6-0.8-1-1c-0.2-0.4-0.6-0.8-1-1c-0.2-0.4-0.6-0.8-1-1c-0.2-0.4-0.6-0.8-1-1c-0.2-0.4-0.6-0.8-1-1c-0.2-0.4-0.6-0.8-1-1
		c-0.2-0.4-0.6-0.8-1-1c-0.2-0.4-0.6-0.8-1-1c-0.2-0.4-0.6-0.8-1-1c-0.2-0.4-0.6-0.8-1-1c-0.2-0.4-0.6-0.8-1-1c-0.2-0.4-0.6-0.8-1-1
		c-0.2-0.4-0.6-0.8-1-1c-0.2-0.4-0.6-0.8-1-1c-0.2-0.4-0.6-0.8-1-1c-0.2-0.4-0.6-0.8-1-1c-0.2-0.4-0.6-0.8-1-1c-0.2-0.4-0.6-0.8-1-1
		c-0.2-0.4-0.6-0.8-1-1c-0.2-0.4-0.6-0.8-1-1c-0.2-0.4-0.6-0.8-1-1c-0.2-0.4-0.6-0.8-1-1c-0.2-0.4-0.6-0.8-1-1c-0.2-0.4-0.6-0.8-1-1
		c-0.2-0.4-0.6-0.8-1-1c-0.2-0.4-0.6-0.8-1-1c-0.2-0.4-0.6-0.8-1-1c-0.2-0.4-0.6-0.8-1-1c-0.2-0.4-0.6-0.8-1-1c-0.2-0.4-0.6-0.8-1-1
		c-0.2-0.4-0.6-0.8-1-1c-0.2-0.4-0.6-0.8-1-1c-0.2-0.4-0.6-0.8-1-1c-0.2-0.4-0.6-0.8-1-1c-0.2-0.4-0.6-0.8-1-1c-0.2-0.4-0.6-0.8-1-1
		c-0.2-0.4-0.6-0.8-1-1c-0.2-0.4-0.6-0.8-1-1c-0.2-0.4-0.6-0.8-1-1c-0.2-0.4-0.6-0.8-1-1c-0.2-0.4-0.6-0.8-1-1c-0.2-0.4-0.6-0.8-1-1
		c-0.2-0.4-0.6-0.8-1-1c-0.2-0.4-0.6-0.8-1-1c-0.2-0.4-0.6-0.8-1-1c-0.2-0.4-0.6-0.8-1-1c-0.2-0.4-0.6-0.8-1-1c-0.2-0.4-0.6-0.8-1-1
		c-0.2-0.4-0.6-0.8-1-1c-0.2-0.4-0.6-0.8-1-1c-0.2-0.4-0.6-0.8-1-1c-0.2-0.4-0.6-0.8-1-1c-0.2-0.4-0.6-0.8-1-1c-0.2-0.4-0.6-0.8-1-1
		c-0.2-0.4-0.6-0.8-1-1c-0.2-0.4-0.6-0.8-1-1c-0.2-0.4-0.6-0.8-1-1c-0.2-0.4-0.6-0.8-1-1c-0.2-0.4-0.6-0.8-1-1c-0.2-0.4-0.6-0.8-1-1
		c-0.2-0.4-0.6-0.8-1-1c-0.2-0.4-0.6-0.8-1-1c-0.2-0.4-0.6-0.8-1-1c-0.2-0.4-0.6-0.8-1-1c-0.2-0.4-0.6-0.8-1-1c-0.2-0.4-0.6-0.8-1-1
		c-0.2-0.4-0.6-0.8-1-1c-0.2-0.4-0.6-0.8-1-1c-0.2-0.4-0.6-0.8-1-1c-0.2-0.4-0.6-0.8-1-1c-0.2-0.4-0.6-0.8-1-1c-0.2-0.4-0.6-0.8-1-1
		c-0.2-0.4-0.6-0.8-1-1c-0.2-0.4-0.6-0.8-1-1c-0.2-0.4-0.6-0.8-1-1c-0.2-0.4-0.6-0.8-1-1c-0.2-0.4-0.6-0.8-1-1c-0.2-0.4-0.6-0.8-1-1
		c-0.2-0.4-0.6-0.8-1-1c-0.2-0.4-0.6-0.8-1-1c-0.2-0.4-0.6-0.8-1-1c-0.2-0.4-0.6-0.8-1-1c-0.2-0.4-0.6-0.8-1-1c-0.2-0.4-0.6-0.8-1-1
		c-0.2-0.4-0.6-0.8-1-1c-0.2-0.4-0.6-0.8-1-1c-0.2-0.4-0.6-0.8-1-1c-0.2-0.4-0.6-0.8-1-1c-0.2-0.4-0.6-0.8-1-1c-0.2-0.4-0.6-0.8-1-1
		c-0.2-0.4-0.6-0.8-1-1c-0.2-0.4-0.6-0.8-1-1c-0.2-0.4-0.6-0.8-1-1c-0.2-0.4-0.6-0.8-1-1c-0.2-0.4-0.6-0.8-1-1c-0.2-0.4-0.6-0.8-1-1
		c-0.2-0.4-0.6-0.8-1-1c-0.2-0.4-0.6-0.8-1-1c-0.2-0.4-0.6-0.8-1-1c-0.2-0.4-0.6-0.8-1-1c-0.2-0.4-0.6-0.8-1-1c-0.2-0.4-0.6-0.8-1-1
		c-0.2-0.4-0.6-0.8-1-1c-0.2-0.4-0.6-0.8-1-1c-0.2-0.4-0.6-0.8-1-1c-0.2-0.4-0.6-0.8-1-1c-0.2-0.4-0.6-0.8-1-1c-0.2-0.4-0.6-0.8-1-1
		c-0.2-0.4-0.6-0.8-1-1c-0.2-0.4-0.6-0.8-1-1c-0.2-0.4-0.6-0.8-1-1c-0.2-0.4-0.6-0.8-1-1c-0.2-0.4-0.6-0.8-1-1c-0.2-0.4-0.6-0.8-1-1
		c-0.2-0.4-0.6-0.8-1-1c-0.2-0.4-0.6-0.8-1-1c-0.2-0.4-0.6-0.8-1-1c-0.2-0.4-0.6-0.8-1-1c-0.2-0.4-0.6-0.8-1-1c-0.2-0.4-0.6-0.8-1-1
		c-0.2-0.4-0.6-0.8-1-1c-0.2-0.4-0.6-0.8-1-1c-0.2-0.4-0.6-0.8-1-1c-0.2-0.4-0.6-0.8-1-1c-0.2-0.4-0.6-0.8-1-1c-0.2-0.4-0.6-0.8-1-1
		c-0.2-0.4-0.6-0.8-1-1c-0.2-0.4-0.6-0.8-1-1c-0.2-0.4-0.6-0.8-1-1c-0.2-0.4-0.6-0.8-1-1c-0.2-0.4-0.6-0.8-1-1c-0.2-0.4-0.6-0.8-1-1
		c-0.2-0.4-0.6-0.8-1-1c-0.2-0.4-0.6-0.8-1-1c-0.2-0.4-0.6-0.8-1-1c-0.2-0.4-0.6-0.8-1-1c-0.2-0.4-0.6-0.8-1-1c-0.2-0.4-0.6-0.8-1-1
		c-0.2-0.4-0.6-0.8-1-1c-0.2-0.4-0.6-0.8-1-1c-0.2-0.4-0.6-0.8-1-1c-0.2-0.4-0.6-0.8-1-1c-0.2-0.4-0.6-0.8-1-1c-0.2-0.4-0.6-0.8-1-1
		c-0.2-0.4-0.6-0.8-1-1c-0.2-0.4-0.6-0.8-1-1c-0.2-0.4-0.6-0.8-1-1c-0.2-0.4-0.6-0.8-1-1c-0.2-0.4-0.6-0.8-1-1c-0.2-0.4-0.6-0.8-1-1
		c-0.2-0.4-0.6-0.8-1-1c-0.2-0.4-0.6-0.8-1-1c-0.2-0.4-0.6-0.8-1-1c-0.2-0.4-0.6-0.8-1-1c-0.2-0.4-0.6-0.8-1-1c-0.2-0.4-0.6-0.8-1-1
		c-0.2-0.4-0.6-0.8-1-1c-0.2-0.4-0.6-0.8-1-1c-0.2-0.4-0.6-0.8-1-1c-0.2-0.4-0.6-0.8-1-1c-0.2-0.4-0.6-0.8-1-1c-0.2-0.4-0.6-0.8-1-1
		c-0.2-0.4-0.6-0.8-1-1c-0.2-0.4-0.6-0.8-1-1c-0.2-0.4-0.6-0.8-1-1c-0.2-0.4-0.6-0.8-1-1c-0.2-0.4-0.6-0.8-1-1c-0.2-0.4-0.6-0.8-1-1
		c-0.2-0.4-0.6-0.8-1-1c-0.2-0.4-0.6-0.8-1-1c-0.2-0.4-0.6-0.8-1-1c-0.2-0.4-0.6-0.8-1-1c-0.2-0.4-0.6-0.8-1-1c-0.2-0.4-0.6-0.8-1-1
		c-0.2-0.4-0.6-0.8-1-1c-0.2-0.4-0.6-0.8-1-1c-0.2-0.4-0.6-0.8-1-1c-0.2-0.4-0.6-0.8-1-1c-0.2-0.4-0.6-0.8-1-1c-0.2-0.4-0.6-0.8-1-1
		c-0.2-0.4-0.6-0.8-1-1c-0.2-0.4-0.6-0.8-1-1c-0.2-0.4-0.6-0.8-1-1c-0.2-0.4-0.6-0.8-1-1c-0.2-0.4-0.6-0.8-1-1c-0.2-0.4-0.6-0.8-1-1
		c-0.2-0.4-0.6-0.8-1-1c-0.2-0.4-0.6-0.8-1-1c-0.2-0.4-0.6-0.8-1-1c-0.2-0.4-0.6-0.8-1-1c-0.2-0.4-0.6-0.8-1-1c-0.2-0.4-0.6-0.8-1-1
		c-0.2-0.4-0.6-0.8-1-1c-0.2-0.4-0.6-0.8-1-1c-0.2-0.4-0.6-0.8-1-1c-0.2-0.4-0.6-0.8-1-1c-0.2-0.4-0.6-0.8-1-1c-0.2-0.4-0.6-0.8-1-1
		c-0.2-0.4-0.6-0.8-1-1c-0.2-0.4-0.6-0.8-1-1c-0.2-0.4-0.6-0.8-1-1c-0.2-0.4-0.6-0.8-1-1c-0.2-0.4-0.6-0.8-1-1c-0.2-0.4-0.6-0.8-1-1
		c-0.2-0.4-0.6-0.8-1-1c-0.2-0.4-0.6-0.8-1-1c-0.2-0.4-0.6-0.8-1-1c-0.2-0.4-0.6-0.8-1-1c-0.2-0.4-0.6-0.8-1-1c-0.2-0.4-0.6-0.8-1-1
		c-0.2-0.4-0.6-0.8-1-1c-0.2-0.4-0.6-0.8-1-1c-0.5-1.1-1.7-1.4-3.5-1.4c-3.4,0.1-6.9,0.1-10.3-0.3c-0.2-0.3-0.5-0.5-0.8-0.8
		c-0.3-0.4-0.6-0.7-1-1c-0.3-0.4-0.6-0.7-1-1c-0.3-0.4-0.6-0.7-1-1c-0.3-0.4-0.6-0.7-1-1c-0.3-0.4-0.6-0.7-1-1c-0.3-0.4-0.6-0.7-1-1
		c-0.3-0.4-0.6-0.7-1-1c-0.3-0.4-0.6-0.7-1-1c-0.3-0.4-0.6-0.7-1-1c-0.3-0.4-0.6-0.7-1-1c-0.3-0.4-0.6-0.7-1-1c-0.3-0.4-0.6-0.7-1-1
		c-0.3-0.4-0.6-0.7-1-1c-0.9-1.1-1.9-1.9-3.7-1.8c-8.1,0.3-16.1-1-24.1-1c-0.1-0.1-0.3-0.2-0.4-0.3c-0.2-0.4-0.6-0.7-1-1
		c-0.2-0.4-0.6-0.7-1-1c-0.2-0.4-0.6-0.7-1-1c-0.2-0.4-0.6-0.7-1-1c-0.2-0.4-0.6-0.7-1-1c-0.2-0.4-0.6-0.7-1-1c-0.2-0.4-0.6-0.7-1-1
		c-0.2-0.4-0.6-0.7-1-1c-0.2-0.4-0.6-0.7-1-1c-0.2-0.4-0.6-0.7-1-1c-0.2-0.4-0.6-0.7-1-1c-0.2-0.4-0.6-0.7-1-1c-0.2-0.4-0.6-0.7-1-1
		c-0.2-0.4-0.6-0.7-1-1c-0.2-0.4-0.6-0.7-1-1c-0.2-0.4-0.6-0.7-1-1c-0.2-0.4-0.6-0.7-1-1c-0.2-0.4-0.6-0.7-1-1c-0.2-0.4-0.6-0.7-1-1
		c-0.2-0.4-0.6-0.7-1-1c-0.2-0.4-0.6-0.7-1-1c-0.2-0.4-0.6-0.7-1-1c-0.2-0.4-0.6-0.7-1-1c-0.2-0.4-0.6-0.7-1-1c-0.2-0.4-0.6-0.7-1-1
		c-0.2-0.4-0.6-0.7-1-1c-0.2-0.4-0.6-0.7-1-1c-0.2-0.4-0.6-0.7-1-1c-0.2-0.4-0.6-0.7-1-1c-0.2-0.4-0.6-0.7-1-1c-0.2-0.4-0.6-0.7-1-1
		c-0.2-0.4-0.6-0.7-1-1c-0.2-0.4-0.6-0.7-1-1c-0.2-0.4-0.6-0.7-1-1c-0.2-0.4-0.6-0.7-1-1c-0.2-0.4-0.6-0.7-1-1c-0.2-0.4-0.6-0.7-1-1
		c-0.2-0.4-0.6-0.7-1-1c-0.2-0.4-0.6-0.7-1-1c-0.2-0.4-0.6-0.7-1-1c-0.2-0.4-0.6-0.7-1-1c-0.2-0.4-0.6-0.7-1-1c-0.2-0.4-0.6-0.7-1-1
		c-0.2-0.4-0.6-0.7-1-1c-0.2-0.4-0.6-0.7-1-1c-0.2-0.4-0.6-0.7-1-1c-0.2-0.4-0.6-0.7-1-1c-0.2-0.4-0.6-0.7-1-1c-0.2-0.4-0.6-0.7-1-1
		c-0.2-0.4-0.6-0.7-1-1c-0.2-0.4-0.6-0.7-1-1c-0.2-0.4-0.6-0.7-1-1c-0.2-0.4-0.6-0.7-1-1c-0.2-0.4-0.6-0.7-1-1c-0.2-0.4-0.6-0.7-1-1
		c-0.2-0.4-0.6-0.7-1-1c-0.2-0.4-0.6-0.7-1-1c-0.2-0.4-0.6-0.7-1-1c-0.2-0.4-0.6-0.7-1-1c-0.2-0.4-0.6-0.7-1-1c-0.2-0.4-0.6-0.7-1-1
		c-0.2-0.4-0.6-0.7-1-1c-0.2-0.4-0.6-0.7-1-1c-0.2-0.4-0.6-0.7-1-1c-0.2-0.4-0.6-0.7-1-1c-0.2-0.4-0.6-0.7-1-1c-0.2-0.4-0.6-0.7-1-1
		c-0.2-0.4-0.6-0.7-1-1c-0.2-0.4-0.6-0.7-1-1c-0.2-0.4-0.6-0.7-1-1c-0.2-0.4-0.6-0.7-1-1c-0.2-0.4-0.6-0.7-1-1c-0.2-0.4-0.6-0.7-1-1
		c-0.2-0.4-0.6-0.7-1-1c-0.2-0.4-0.6-0.7-1-1c-0.2-0.4-0.6-0.7-1-1c-0.2-0.4-0.6-0.7-1-1c-0.2-0.4-0.6-0.7-1-1c-0.2-0.4-0.6-0.7-1-1
		c-0.2-0.4-0.6-0.7-1-1c-0.2-0.4-0.6-0.7-1-1c-0.2-0.4-0.6-0.7-1-1c-0.8-1.2-2.4-1.8-4.9-2c-12.3-0.8-24.5-2.5-36.8-3.4
		c-4.8-0.4-9.6-1.8-14.5-0.8c-12.4,2.5-24.8,5.1-37.2,7.5c-9,1.8-18,3.6-27,5.3c-0.3-0.3-0.5-0.5-0.8-0.7c-0.3-0.4-0.7-0.7-1-1
		c-0.3-0.4-0.7-0.7-1-1c-0.3-0.4-0.7-0.7-1-1c-0.3-0.4-0.7-0.7-1-1c-0.3-0.4-0.7-0.7-1-1c-0.3-0.4-0.7-0.7-1-1c-0.3-0.4-0.7-0.7-1-1
		c-0.3-0.4-0.7-0.7-1-1c-0.3-0.4-0.7-0.7-1-1c-0.3-0.4-0.7-0.7-1-1c-0.3-0.4-0.7-0.7-1-1c-0.3-0.4-0.7-0.7-1-1c-0.3-0.4-0.7-0.7-1-1
		c-0.3-0.4-0.7-0.7-1-1c-0.3-0.4-0.7-0.7-1-1c-0.3-0.4-0.7-0.7-1-1c-0.3-0.4-0.7-0.7-1-1c-0.3-0.4-0.7-0.7-1-1c-0.3-0.4-0.7-0.7-1-1
		c-0.3-0.4-0.7-0.7-1-1c-0.3-0.4-0.7-0.7-1-1c-0.3-0.4-0.7-0.7-1-1c-0.3-0.4-0.7-0.7-1-1c-0.3-0.4-0.7-0.7-1-1c-0.3-0.4-0.7-0.7-1-1
		c-0.3-0.4-0.7-0.7-1-1c-0.3-0.4-0.7-0.7-1-1c-0.3-0.4-0.7-0.7-1-1c-0.3-0.4-0.7-0.7-1-1c-0.3-0.4-0.7-0.7-1-1c-0.3-0.4-0.7-0.7-1-1
		c-0.3-0.4-0.7-0.7-1-1c-0.3-0.4-0.7-0.7-1-1c-0.3-0.4-0.7-0.7-1-1c-1.8-1.9-3.6-3.3-4.2-3c-4.1,2.2-9.7,1.3-12.1,6.8
		c-0.7,1.6-2.1,2.9-3.5,4.2c-0.2-0.3-0.5-0.5-0.8-0.7c-0.2-0.4-0.6-0.8-1-1c-0.3-0.7-1-1.1-1.7-1.3c-8.2-2-16.5-1.4-24.8-1.1
		c-1.2,0.1-2.2,1-2.3,2.4c-0.1,1.2,0.4,2,1.2,2.4c0.2,0.5,0.5,0.8,1,1c0.2,0.5,0.5,0.8,1,1c0.2,0.5,0.5,0.8,1,1c0.2,0.5,0.5,0.8,1,1
		c0.1,0.1,0.1,0.3,0.2,0.4c0.1,8.7,0.3,17.4,0.4,26.2c0.1,2.5-0.6,3.9-3.7,4.2c-3.2,0.3-3.4,3-2.3,5.5c0.4,0.9,1,1.6,1.6,2
		c0.3,0.4,0.6,0.7,1,1c0.3,0.4,0.6,0.7,1,1c0.3,0.4,0.6,0.7,1,1c0.3,0.4,0.6,0.7,1,1c0.3,0.4,0.6,0.7,1,1c0,0,0,0,0,0c0,0,0,0,0,0
		c-3.9,0.6-7.8,1.2-11.8,1.9c0.1-0.1,0.1-0.2,0.2-0.4c-0.5-0.1-0.9-0.1-1.4-0.2c0.1-0.2,0.3-0.5,0.4-0.8c-0.5-0.1-0.9-0.1-1.4-0.2
		c0.1-0.2,0.3-0.5,0.4-0.8c-4.5-0.8-9-0.7-13.9,0c0.3,0.5,0.6,0.8,1.1,1c0,0-0.1,0-0.1,0c0.3,0.5,0.6,0.8,1.1,1c0,0-0.1,0-0.1,0
		c0.3,0.5,0.6,0.8,1.1,1c0,0-0.1,0-0.1,0c0.3,0.5,0.6,0.8,1.1,1c0,0-0.1,0-0.1,0c0.1,0.2,0.3,0.4,0.5,0.5c0,0,0,0.1,0,0.1
		c-2,0.4-4,0.7-6,1.1c-0.1,0-0.1,0-0.2-0.1c-1.1-1.8-2.9-1-4.4-1c-1.2,0-2.1-0.2-3-0.6c-0.3-0.4-0.6-0.6-0.9-0.8
		c-0.3-0.4-0.6-0.8-1-1c-0.8-1.3-2.2-1.5-3.8-1.6c-9.4,0-18.7,0-28.1,0c-1.6,0-3.2,0.1-3.6,2.1c0.1,0,0.1,0,0.2,0c0,0-0.1,0-0.1,0.1
		c-4.6,0.1-9.1,0.1-13.6,0.2c0,0,0,0,0,0c0,0-0.1-0.1-0.1-0.1c-4.6,1-9.1,2.1-13.7,2.9c-3.1,0.6-4.2,1.9-4.1,5.2
		c0.5,14.4,1.4,28.9,0.7,43.3c-1,19.1,2.5,36.8,10.4,54.1c2.2,4.7,4.7,8.5,8.1,11.7c0.3,0.3,0.7,0.7,1,1c0.3,0.3,0.7,0.7,1,1
		c0.3,0.3,0.7,0.7,1,1c0.3,0.3,0.7,0.7,1,1c0.3,0.3,0.7,0.7,1,1c0.3,0.3,0.7,0.7,1,1c0.3,0.3,0.7,0.7,1,1c0.3,0.3,0.7,0.7,1,1
		c0.3,0.3,0.7,0.7,1,1c0.3,0.3,0.7,0.7,1,1c0.3,0.3,0.7,0.7,1,1c0.2,0.2,0.4,0.4,0.6,0.6c0.2,0.3,0.4,0.7,0.6,1
		c3.2,4.6,6.8,8.8,10.7,12.6c0.3,0.3,0.7,0.7,1,1c0.3,0.3,0.7,0.7,1,1c0.3,0.3,0.7,0.7,1,1c0.3,0.3,0.7,0.7,1,1c0.3,0.3,0.7,0.7,1,1
		c0.3,0.3,0.7,0.7,1,1c0.3,0.3,0.7,0.7,1,1c0.3,0.3,0.7,0.7,1,1c0.3,0.3,0.7,0.7,1,1c0.3,0.3,0.7,0.7,1,1c0.3,0.3,0.7,0.7,1,1
		c0.3,0.3,0.7,0.7,1,1c0.2,2.8,1.7,5.8-1.8,7.9c0,0-0.1,0-0.1,0c-1.1,0-2.8-1.1-3.1,1.2c-0.1,1.1,0.4,1.6,1,1.8c0.1,0.5,0.5,0.8,1,1
		c0.1,0.5,0.5,0.8,1,1c0.1,0.5,0.5,0.8,1,1c0.1,0.5,0.5,0.8,1,1c0.1,0.5,0.5,0.8,1,1c0.1,0.3,0.2,0.5,0.4,0.6c0,0.5,0.1,1.1,0.1,1.6
		c-0.1,0.3-0.2,0.6-0.3,0.8c0.1,0.1,0.3,0.2,0.4,0.3c-0.1,0-0.2,0-0.3-0.1c-1.9,0.9-5.4-1.5-6,1.8c-0.3,1.7,0.2,2.5,1.1,2.9
		c0.2,0.5,0.6,0.8,1,1c0.2,0.5,0.6,0.8,1,1c0.2,0.5,0.6,0.8,1,1c0.2,0.5,0.6,0.8,1,1c0.2,0.5,0.6,0.8,1,1c0.2,0.5,0.6,0.8,1,1
		c0.2,0.5,0.6,0.8,1,1c0.2,0.5,0.6,0.8,1,1c0.2,0.5,0.6,0.8,1,1c0.2,0.5,0.6,0.8,1,1c0.2,0.5,0.6,0.8,1,1c0.2,0.5,0.6,0.8,1,1
		c0.2,0.5,0.6,0.8,1,1c0.2,0.5,0.6,0.8,1,1c0.2,0.5,0.6,0.8,1,1c0.2,0.5,0.6,0.8,1,1c0.2,0.5,0.6,0.8,1,1c0.2,0.5,0.6,0.8,1,1
		c0.2,0.5,0.6,0.8,1,1c0.2,0.5,0.6,0.8,1,1c0.2,0.5,0.6,0.8,1,1c0.2,0.5,0.6,0.8,1,1c0.2,0.5,0.6,0.8,1,1c0.2,0.5,0.6,0.8,1,1
		c0.2,0.5,0.6,0.8,1,1c0.2,0.5,0.6,0.8,1,1c0.2,0.5,0.6,0.8,1,1c0.2,0.5,0.6,0.8,1,1c0.2,0.5,0.6,0.8,1,1c0.2,0.5,0.6,0.8,1,1
		c0.2,0.5,0.6,0.8,1,1c0.2,0.5,0.6,0.8,1,1c0.2,0.5,0.6,0.8,1,1c0.2,0.5,0.6,0.8,1,1c0.2,0.5,0.6,0.8,1,1c0.2,0.5,0.6,0.8,1,1
		c0.2,0.5,0.6,0.8,1,1c0.2,0.5,0.6,0.8,1,1c0.2,0.5,0.6,0.8,1,1c0.2,0.5,0.6,0.8,1,1c0.2,0.5,0.6,0.8,1,1c0.2,0.5,0.6,0.8,1,1
		c0.2,0.5,0.6,0.8,1,1c0.2,0.5,0.6,0.8,1,1c0.2,0.5,0.6,0.8,1,1c0.2,0.5,0.6,0.8,1,1c0.2,0.5,0.6,0.8,1,1c0.2,0.5,0.6,0.8,1,1
		c0.2,0.5,0.6,0.8,1,1c0.2,0.5,0.6,0.8,1,1c0.2,0.5,0.6,0.8,1,1c0.2,0.5,0.6,0.8,1,1c0.2,0.5,0.6,0.8,1,1c0.2,0.5,0.6,0.8,1,1
		c0.2,0.5,0.6,0.8,1,1c0.2,0.5,0.6,0.8,1,1c0.2,0.5,0.6,0.8,1,1c0.2,0.5,0.6,0.8,1,1c0.2,0.5,0.6,0.8,1,1c0.2,0.5,0.6,0.8,1,1
		c0.2,0.5,0.6,0.8,1,1c0.2,0.5,0.6,0.8,1,1c0.2,0.5,0.6,0.8,1,1c0.2,0.5,0.6,0.8,1,1c0.2,0.5,0.6,0.8,1,1c0.2,0.5,0.6,0.8,1,1
		c0.2,0.5,0.6,0.8,1,1c0.2,0.5,0.6,0.8,1,1c0.2,0.5,0.6,0.8,1,1c0.2,0.5,0.6,0.8,1,1c0.2,0.5,0.6,0.8,1,1c0.2,0.5,0.6,0.8,1,1
		c0.2,0.5,0.6,0.8,1,1c0.2,0.5,0.6,0.8,1,1c0.2,0.5,0.6,0.8,1,1c0.2,0.5,0.6,0.8,1,1c0.2,0.5,0.6,0.8,1,1c0.2,0.5,0.6,0.8,1,1
		c0.2,0.5,0.6,0.8,1,1c0.2,0.5,0.6,0.8,1,1c0.2,0.5,0.6,0.8,1,1c0.2,0.5,0.6,0.8,1,1c0.2,0.5,0.6,0.8,1,1c0.2,0.5,0.6,0.8,1,1
		c0.2,0.5,0.6,0.8,1,1c0.2,0.5,0.6,0.8,1,1c0.2,0.5,0.6,0.8,1,1c0.2,0.5,0.6,0.8,1,1c0.2,0.5,0.6,0.8,1,1c0.2,0.5,0.6,0.8,1,1
		c0.2,0.5,0.6,0.8,1,1c0.2,0.5,0.6,0.8,1,1c0.2,0.5,0.6,0.8,1,1c0.2,0.5,0.6,0.8,1,1c0.2,0.5,0.6,0.8,1,1c0.2,0.5,0.6,0.8,1,1
		c0.2,0.5,0.6,0.8,1,1c0.2,0.5,0.6,0.8,1,1c0.2,0.5,0.6,0.8,1,1c0.2,0.5,0.6,0.8,1,1c0.2,0.5,0.6,0.8,1,1c0.2,0.5,0.6,0.8,1,1
		c0.2,0.5,0.6,0.8,1,1c0.2,0.5,0.6,0.8,1,1c0.2,0.5,0.6,0.8,1,1c0.2,0.5,0.6,0.8,1,1c0.2,0.5,0.6,0.8,1,1c0.2,0.5,0.6,0.8,1,1
		c0.2,0.5,0.6,0.8,1,1c0.2,0.5,0.6,0.8,1,1c0.2,0.5,0.6,0.8,1,1c0.2,0.5,0.6,0.8,1,1c0.2,0.5,0.6,0.8,1,1c0.2,0.5,0.6,0.8,1,1
		c0.2,0.5,0.6,0.8,1,1c0.2,0.5,0.6,0.8,1,1c0.2,0.5,0.6,0.8,1,1c0.2,0.5,0.6,0.8,1,1c0.2,0.5,0.6,0.8,1,1c0.2,0.5,0.6,0.8,1,1
		c0.2,0.5,0.6,0.8,1,1c0.2,0.5,0.6,0.8,1,1c0.2,0.5,0.6,0.8,1,1c0.2,0.5,0.6,0.8,1,1c0.2,0.5,0.6,0.8,1,1c0.2,0.5,0.6,0.8,1,1
		c0.2,0.5,0.6,0.8,1,1c0.2,0.5,0.6,0.8,1,1c0.2,0.5,0.6,0.8,1,1c0.2,0.5,0.6,0.8,1,1c0.2,0.5,0.6,0.8,1,1c0.2,0.5,0.6,0.8,1,1
		c0.2,0.5,0.6,0.8,1,1c0.2,0.5,0.6,0.8,1,1c0.2,0.5,0.6,0.8,1,1c0.2,0.5,0.6,0.8,1,1c0.2,0.5,0.6,0.8,1,1c0.2,0.5,0.6,0.8,1,1
		c0.2,0.5,0.6,0.8,1,1c0.2,0.5,0.6,0.8,1,1c0.2,0.5,0.6,0.8,1,1c0.2,0.5,0.6,0.8,1,1c0.2,0.5,0.6,0.8,1,1c0.2,0.5,0.6,0.8,1,1
		c0.2,0.5,0.6,0.8,1,1c0.2,0.5,0.6,0.8,1,1c0.2,0.5,0.6,0.8,1,1c0.2,0.5,0.6,0.8,1,1c0.2,0.5,0.6,0.8,1,1c0.2,0.5,0.6,0.8,1,1
		c0.2,0.5,0.6,0.8,1,1c0.2,0.5,0.6,0.8,1,1c0.2,0.5,0.6,0.8,1,1c0.2,0.5,0.6,0.8,1,1c0.2,0.5,0.6,0.8,1,1c0.2,0.5,0.6,0.8,1,1
		c0.2,0.5,0.6,0.8,1,1c0.2,0.5,0.6,0.8,1,1c0.2,0.5,0.6,0.8,1,1c0.2,0.5,0.6,0.8,1,1c0.2,0.5,0.6,0.8,1,1c0.2,0.5,0.6,0.8,1,1
		c0.2,0.5,0.6,0.8,1,1c0.2,0.5,0.6,0.8,1,1c0.2,0.5,0.6,0.8,1,1c0.2,0.5,0.6,0.8,1,1c0.2,0.5,0.6,0.8,1,1c0.2,0.5,0.6,0.8,1,1
		c0.2,0.5,0.6,0.8,1,1c0.2,0.5,0.6,0.8,1,1c0.2,0.5,0.6,0.8,1,1c0.2,0.5,0.6,0.8,1,1c0.2,0.5,0.6,0.8,1,1c0.2,0.5,0.6,0.8,1,1
		c0.2,0.5,0.6,0.8,1,1c0.2,0.5,0.6,0.8,1,1c0.2,0.5,0.6,0.8,1,1c0.2,0.5,0.6,0.8,1,1c0.2,0.5,0.6,0.8,1,1c0.2,0.5,0.6,0.8,1,1
		c0.2,0.5,0.6,0.8,1,1c0.2,0.5,0.6,0.8,1,1c0.2,0.5,0.6,0.8,1,1c0.2,0.5,0.6,0.8,1,1c0.2,0.5,0.6,0.8,1,1c0.2,0.5,0.6,0.8,1,1
		c0.2,0.5,0.6,0.8,1,1c0.2,0.5,0.6,0.8,1,1c0.2,0.5,0.6,0.8,1,1c0.2,0.5,0.6,0.8,1,1c0.2,0.5,0.6,0.8,1,1c0.2,0.5,0.6,0.8,1,1
		c0.2,0.5,0.6,0.8,1,1c0.2,0.5,0.6,0.8,1,1c0.2,0.5,0.6,0.8,1,1c0.2,0.5,0.6,0.8,1,1c0.2,0.5,0.6,0.8,1,1c0.2,0.5,0.6,0.8,1,1
		c0.2,0.5,0.6,0.8,1,1c0.2,0.5,0.6,0.8,1,1c0.2,0.5,0.6,0.8,1,1c0.2,0.5,0.6,0.8,1,1c0.2,0.5,0.6,0.8,1,1c0.2,0.5,0.6,0.8,1,1
		c0.2,0.5,0.6,0.8,1,1c0.2,0.5,0.6,0.8,1,1c0.2,0.5,0.6,0.8,1,1c0.2,0.5,0.6,0.8,1,1c0.2,0.5,0.6,0.8,1,1c0.2,0.5,0.6,0.8,1,1
		c0.2,0.5,0.6,0.8,1,1c0.2,0.5,0.6,0.8,1,1c0.2,0.5,0.6,0.8,1,1c0.2,0.5,0.6,0.8,1,1c0.2,0.5,0.6,0.8,1,1c0.2,0.5,0.6,0.8,1,1
		c0.2,0.5,0.6,0.8,1,1c0.2,0.5,0.6,0.8,1,1c0.2,0.5,0.6,0.8,1,1c0.2,0.5,0.6,0.8,1,1c0.2,0.5,0.6,0.8,1,1c0.2,0.5,0.6,0.8,1,1
		c0.2,0.5,0.6,0.8,1,1c0.2,0.5,0.6,0.8,1,1c0.2,0.5,0.6,0.8,1,1c0.2,0.5,0.6,0.8,1,1c0.2,0.5,0.6,0.8,1,1c0.2,0.5,0.6,0.8,1,1
		c0.2,0.5,0.6,0.8,1,1c0.2,0.5,0.6,0.8,1,1c0.2,0.5,0.6,0.8,1,1c0.2,0.5,0.6,0.8,1,1c0.2,0.5,0.6,0.8,1,1c0.2,0.5,0.6,0.8,1,1
		c0.2,0.5,0.6,0.8,1,1c0.2,0.5,0.6,0.8,1,1c0.2,0.5,0.6,0.8,1,1c0.2,0.5,0.6,0.8,1,1c0.2,0.5,0.6,0.8,1,1c0.2,0.5,0.6,0.8,1,1
		c0.2,0.5,0.6,0.8,1,1c0.2,0.5,0.6,0.8,1,1c0.2,0.5,0.6,0.8,1,1c0.2,0.5,0.6,0.8,1,1c0.2,0.5,0.6,0.8,1,1c0.2,0.5,0.6,0.8,1,1
		c0.2,0.5,0.6,0.8,1,1c0.2,0.5,0.6,0.8,1,1c0.2,0.5,0.6,0.8,1,1c0.2,0.5,0.6,0.8,1,1c0.2,0.5,0.6,0.8,1,1c0.2,0.5,0.6,0.8,1,1
		c0.2,0.5,0.6,0.8,1,1c0.2,0.5,0.6,0.8,1,1c0.2,0.5,0.6,0.8,1,1c0.2,0.5,0.6,0.8,1,1c0.2,0.5,0.6,0.8,1,1c0.2,0.5,0.6,0.8,1,1
		c0.2,0.5,0.6,0.8,1,1c0.2,0.5,0.6,0.8,1,1c0.2,0.5,0.6,0.8,1,1c0.2,0.5,0.6,0.8,1,1c0.2,0.5,0.6,0.8,1,1c0.2,0.5,0.6,0.8,1,1
		c0.2,0.5,0.6,0.8,1,1c0.2,0.5,0.6,0.8,1,1c0.2,0.5,0.6,0.8,1,1c0.2,0.5,0.6,0.8,1,1c0.2,0.5,0.6,0.8,1,1c0.2,0.5,0.6,0.8,1,1
		c0.2,0.5,0.6,0.8,1,1c0.2,0.5,0.6,0.8,1,1c0.2,0.5,0.6,0.8,1,1c0.2,0.5,0.6,0.8,1,1c0.2,0.5,0.6,0.8,1,1c0.2,0.5,0.6,0.8,1,1
		c0.2,0.5,0.6,0.8,1,1c0.2,0.5,0.6,0.8,1,1c0.2,0.5,0.6,0.8,1,1c0.2,0.5,0.6,0.8,1,1c0.2,0.5,0.6,0.8,1,1c0.2,0.5,0.6,0.8,1,1
		c0.2,0.5,0.6,0.8,1,1c0.2,0.5,0.6,0.8,1,1c0.2,0.5,0.6,0.8,1,1c0.2,0.5,0.6,0.8,1,1c0.2,0.5,0.6,0.8,1,1c0.2,0.5,0.6,0.8,1,1
		c0.2,0.5,0.6,0.8,1,1c0.2,0.5,0.6,0.8,1,1c0.2,0.5,0.6,0.8,1,1c0.2,0.5,0.6,0.8,1,1c0.2,0.5,0.6,0.8,1,1c0.2,0.5,0.6,0.8,1,1
		c0.2,0.5,0.6,0.8,1,1c0.2,0.5,0.6,0.8,1,1c0.2,0.5,0.6,0.8,1,1c0.2,0.5,0.6,0.8,1,1c0.2,0.5,0.6,0.8,1,1c0.8,1.8,3.6,1.3,5.4,1.7
		c38,8.6,76.1,17.1,114.1,25.8c11.8,2.7,23.5,5.8,35.8,2.6c1.4-0.3,3.2,0.2,3.2-2.3c0-1.3-0.5-2-1.2-2.2c-0.2-0.5-0.6-0.8-1-1
		c-0.2-0.5-0.6-0.8-1-1c-0.2-0.5-0.6-0.8-1-1c-0.2-0.5-0.6-0.8-1-1c-0.2-0.5-0.6-0.8-1-1c-0.2-0.5-0.6-0.8-1-1c-0.2-0.5-0.6-0.8-1-1
		c-0.1-0.2-0.2-0.3-0.3-0.5c0-0.2,0-0.4,0-0.6c-0.2-5.2,3.5-3.2,5.7-3.3c4-0.1,3.1-2.9,2.3-4.6c-0.2-0.5-0.5-0.7-0.9-0.9
		c0,0,0-0.1-0.1-0.1c-0.2-0.5-0.5-0.7-0.9-0.9c0,0,0-0.1-0.1-0.1c-0.2-0.5-0.5-0.7-0.9-0.9c0,0,0-0.1-0.1-0.1
		c-0.2-0.5-0.5-0.7-0.9-0.9c0,0,0-0.1-0.1-0.1c-0.2-0.5-0.5-0.7-0.9-0.9c0,0,0-0.1-0.1-0.1c0-0.1-0.1-0.2-0.2-0.3
		c4.1,0.7,8.2,1.5,12.3,2.1c11.4,1.7,22.6,4.8,34.2,5.5c0,0,0,0,0-0.1c0,0,0.1,0,0.1,0.1c5.3,1,10.3,2.8,15.7,3.1
		c0.1,0,0.1,0,0.2-0.1c1.2,0.1,2.4,0.2,3.6,0.3c0.1,0,0.1,0,0.2,0c-0.1,0-0.1,0.1-0.2,0.1c8.3,2.1,16.6,3.6,25.1,4.9c0,0,0,0,0,0
		c0,0,0,0,0.1,0c0,0,0,0,0,0c0,0,0,0,0,0c4.1-0.2,8.2-0.5,12.1-0.8c0.9,0,2.1,0.2,2.3-1.3c0.1-1-0.2-1.8-1.1-2c-0.1-0.5-0.5-0.9-1-1
		c-0.1-0.5-0.5-0.9-1-1c-0.1-0.5-0.5-0.9-1-1c-0.1-0.5-0.5-0.9-1-1c-0.1-0.5-0.5-0.9-1-1c0-0.2-0.1-0.3-0.2-0.4
		c0.1-0.8,0.1-1.6,0.1-2.4c0.1-0.1,0.1-0.1,0.2-0.2c18.6-8.5,32.4-21.8,40.5-40.8c6.3,0.2,12.7,0.5,18.9,0.7c0.1,0,0.1-0.1,0.2-0.1
		c0,0,0,0.1-0.1,0.1c6.3,0.5,12.5-0.4,18.7-0.9c0,0,0.1-0.1,0.1-0.1c10.1,0.5,20-0.7,30-0.9c1.5,0,2.6-0.4,3.6-1.6
		c3.6-4.4,7.3-8.7,10.9-13.1c0,0-0.1,0-0.1,0c0,0,0.1-0.1,0.1-0.1c0.1-3.8,0.2-7.6,0.3-11.4c0.1-4.3-1.3-9.9,0.8-12.6
		c2.3-3,8.1-0.6,12.4-1c0.3,0,0.7,0,1,0c2.6,0.3,3.7-0.5,3.6-3.4C921.3,717.3,921.3,708.2,921.5,699.2z"/>
</g>
<g>
	<g>
		<path class="st3" d="M427.3,515.4c-11.6-0.7-22.8-3.8-34.2-5.5c-5.3-0.8-10.6-1.8-15.8-2.7c0.2-2.7-0.6-4.6-3.4-5.8
			c-5.2-2.2-9.5-5.9-13.7-9.8c-0.5-0.4-1-1-1.6-1.4c-4.2-2.6-5.9-1.7-6.3,3.1c-0.3,3.3,1,7-1.5,9.9c-3.4,0.9-6.5-0.5-9.7-1.1
			c-26-5-51.8-10.7-77.8-15.7c-1.5-0.3-3.1-0.7-4.5-1.2c-6.8-2.3-12.8-6.1-18.1-10.9c-4.9-3.4-5.3-3.3-6.6,2.4
			c-0.2,0.8-0.4,1.6-1.2,2.1c-8.9-6.3-16.8-13.7-23-22.8c-1.4-2.1-2.7-4.4-4-6.5c-3.1-5.5-5.3-11.4-8.2-17c-0.8-2.7-1.7-5.4-2.4-8.2
			c-0.5-6.5-0.1-13.1-0.3-19.6c0.1-4.3-0.2-8.5,0.3-12.8c0.2-1.4,0.8-2.7,0.9-4.1c3-14.9,11.7-26.5,20.9-38
			c7.5-9.4,16.8-16,28.2-19.7c3.1-1,6.2-2.2,9.6-1c2.1-0.4,4.1-0.7,6.2-1.1c1.2-0.2,2.2-1.1,3.5-1c6.6-1,13.2-2.1,19.7-3.1
			c5.6-4,12.5-3.8,18.8-5.5c1.1,0,2.1-0.3,3.1-0.5s2-0.2,3.1-0.2c4.4,0.3,8.3-1.8,12.5-2.7c2-0.4,3.9-1.2,6-0.8
			c0.4,0.3,0.7,0.7,0.9,1.2c-3.4,7.4-8.2,13.8-13.1,20.2c-1,1.7-2.7,3.1-3.1,5.2c1.7,3.1,4.4,5.3,7.1,7.4c2.1,1.1,4.1,0.4,6.1-0.1
			c1.8-0.4,3.6-0.4,5.4-0.4c1.9,0.1,3.7,0,5.5-0.6c1.6-0.4,3.2-0.4,4.8-0.4c2,0,4.1,0.2,6.1-0.4c3.9-0.2,6.6-2.2,8.8-5.5
			c4.6-6.9,9.7-13.5,14.5-20.3c1.9-2.7,1.7-4.5-0.8-6.6c-1.6-1.4-4.9-2.2-2.9-5.6c0.9-0.9,2-1.3,3.2-1.6c16.5-4,33-7.5,49.7-10.2
			c1.2-0.2,2.4-0.2,3.6,0c1.1,0.2,2.2,0.5,2.8,1.6c-0.1,2.5-2.3,2.8-3.9,3.5c-21.4,9.2-36.3,25-46.3,45.8c-1.1,2-1.9,4.1-2.6,6.2
			c-2,4.6-3.5,9.2-4.7,14.1c-2.5,7.4-3.5,15.2-4.4,22.9c-0.8,2.4-0.7,4.9-0.6,7.4c0.1,0.6,0,1.1,0,1.7c-0.1,2.8-0.1,5.6,0,8.4
			c0,0.6,0,1.1,0,1.7c-0.1,2.2-0.1,4.4,0.6,6.5c0.5,3.6,0.5,7.2,1.4,10.7c1.5,9.8,4.5,19.2,8.6,28.2c0.7,1.9,1.3,3.8,2.3,5.6
			c7.7,16.2,17.6,30.8,31.8,42.1c4.5,3.6,9.4,6.5,14.6,9C424.8,512.8,427.1,512.9,427.3,515.4z"/>
		<path class="st3" d="M375,347.1c10.5-23,27.4-39.2,51-48.3c1.2-1.5,2.8-1.9,4.6-2.3c1.7-0.4,3.3-1,4.9-1.5c0.5-0.2,1-0.3,1.5-0.3
			c1.8-0.2,3.6-0.4,5.3-0.9c1.6-0.3,3.3-0.4,4.9-0.4c2.3,0,4.5,0,6.8,0c7.7,0.5,15.1,1.9,22.3,4.8c2.7,1.1,5.6,2.1,7.2,4.9
			c30,16.2,47,41.4,52.2,74.9c0.1,0.5,0.2,1,0.3,1.5c-0.2,0.2-0.4,0.4-0.6,0.6c-1.8,1-3.9,0.8-5.8,0.9c-1.9,0-3.8,0-5.8,0
			c-1.1,0-2.1-0.1-3.2-0.3c-0.5-0.1-1-0.3-1.4-0.5c-1.8-1.4-2.6-3.6-4.1-5.2c-3.2-3.2-5.7-7.2-10.5-8.4c-2.9-0.6-5.8-1.3-8.5-2.7
			c-2.6-1.3-5.4-0.6-8.2-0.7c-2.8-0.2-5.4,2-8.3,1c-1.2-3.6,0.7-6.2,2.7-8.8c0.5-0.5,0.2,0.1,0.5-0.1c0.5-0.4,0.6-0.6,0-0.6
			c-1.3-0.2-2.5,0.8-3.8,0.9c-2.6-0.2-5.7,1.6-7.2-2.2c1.1-0.7,2.2-0.4,3.4-0.6c-6.3,1.8-12.9,0.2-19.3,1.8c-2.9,0-6.1,1.6-8.2-2
			c1.8-1.2,3.7-1,4.4-0.7c-5.9,0.8-13,0.5-20.1,1.6c-2.9,0-6.2,1.6-8.3-1.9c1.8-1.2,3.7-1,4.4-0.7c-5.9,0.8-13,0.5-20,1.6
			c-2.9,0.1-6.2,1.5-8.3-1.8c0.9-1.4,2.4-0.6,3.6-1c-8.2,1.8-16.6,0.5-24.9,1.2C375.3,351,374.4,350.1,375,347.1z"/>
		<path class="st3" d="M540,471.4c-6.3-0.2-12.7-0.5-19-0.7c-6.8,1.9-13.7,0-20.5,0c-4.8-1.7-10,0.3-14.9-1.5
			c-0.9-0.5-1.5-1.2-1.9-2.2c-1.2-9.5-0.3-19.1-0.6-28.6c-0.1-2.9,0.3-5.9-0.7-8.8c-0.2-9.6-1.2-19.3,0.5-28.8c2.9-2.9,6.7-1.5,10-2
			c2.5-0.3,4.8-0.9,7.2-1.6c13.1-0.7,26.2-0.7,39.3,0c7.2,4.1,11.3,10.9,15.3,17.7c0.6,13,0.2,26,0.2,39.1c0,1.9-0.2,3.9-1.6,5.4
			C549.3,463.7,545.8,468.8,540,471.4z"/>
		<path class="st3" d="M602.6,394.2c4.9,1.3,10,1.3,15,1.2c2.8,0,4,0.8,3.9,3.8c-0.2,9-0.2,18.1,0,27.1c0.1,2.9-1,3.7-3.6,3.4
			c-0.3,0-0.7,0-1,0c-4.3,0.4-10.1-2-12.4,1c-2.1,2.7-0.7,8.3-0.8,12.6c-0.1,3.8-0.2,7.6-0.3,11.4c-1.3,1-2.7,1.6-4.3,1.6
			c-7.1-0.1-14.2,0.8-21.3,1.1c-5.4,0.2-6.9-1.4-6.9-6.8c-0.1-16.9-0.1-33.8-0.1-50.7c0-2.1,0-4.2,1.3-6c1.4-1.2,3.1-1.4,4.9-1.5
			c6.8-0.1,13.5-0.1,20.3,0C599.2,392.5,601,393.1,602.6,394.2z"/>
		<path class="st3" d="M381.3,512.2c1.7-0.1,4-0.7,4.7,0.9c0.8,1.7,1.7,4.5-2.3,4.6c-2.2,0.1-5.9-1.9-5.7,3.3c0.2,4-0.8,8.2,5.4,7.9
			c1.5-0.1,3.1,0,3.1,2.4c0,2.5-1.8,2-3.2,2.3c-12.3,3.2-24,0.1-35.8-2.6c-38-8.7-76.1-17.2-114.1-25.8c-2.2-0.5-6.2,0.5-5.5-3.6
			c0.6-3.3,4.1-0.9,6-1.8c28.4,6.2,56.8,11.9,85.3,17.8c17.3,3.6,34.6,7.3,51.9,10.7c-24.5-5-48.9-10.1-73.4-15.2
			c-19.5-4-38.9-8.1-58.4-12.1c-1.9-0.4-3.7-0.9-5.2-2.1c-0.1-2.1-0.2-4.2-0.3-6.3c1.7-1.5,3.7-0.7,5.5-0.3
			c28.3,5.4,56.6,10.5,84.9,15.9c12.1,2.3,24.2,4.6,36.3,6.8c1,0.2,2.5,0.7,3,0.2C368.8,509.5,375.4,513.5,381.3,512.2z"/>
		<path class="st3" d="M572.4,394.2c0,18.8,0.1,37.6-0.1,56.4c0,4,0.9,6,5.2,5.3c8.6-1.3,17.3-1,25.9-1.1
			c-3.6,4.4-7.3,8.7-10.9,13.1c-1,1.2-2.1,1.6-3.6,1.6c-10,0.2-20,1.4-30.1,0.9c-0.3-3.6,2.4-5.7,4.4-7.9c3.4-3.9,4.8-8.1,4.7-13.3
			c-0.3-11.3,0.1-22.6-0.2-33.9c-2.8-8.4-12-15.4-20.6-15.6c-2.1,0-4.1-0.1-5.9-1.3c-13.9,0-27.8,0-41.7,0c-0.2-0.2-0.5-0.5-0.7-0.7
			c-1.6-4.7-0.8-9.6-0.7-14.4c0.1-2.4,1.6-3.7,4-4c2.1-0.2,4.1-0.2,6.2-0.2c4-0.1,8.1,0.1,12.1,0.4c1,0,2,0,3,0
			c2,1.1,4.1,0.3,6.1,0.5c2-0.2,4.1,0.4,6.2-0.4c0.1-0.1,0.3-0.2,0.5-0.3c8.3-0.3,16.6-0.5,24.9-0.8
			C566.4,382.5,570.1,387.8,572.4,394.2z"/>
		<path class="st3" d="M500.4,469.4c6.9-0.2,13.8,0.1,20.7,1.2c-8,19.1-21.9,32.4-40.5,40.9c-0.8,0.7-1.3,1.7-2.2,2.2
			c-4.1,2.1-8.5,2.9-12.9,3.9c-2.7,0.6-5.5,0.1-8.2,1.1c-2.8,0.6-5.7-0.2-8.5-0.1c-1.9-0.4-3.8-0.9-5.7-0.1
			c-5.4-0.3-10.4-2.1-15.7-3.1c-10.9-5-21.1-11.2-29.2-20.2c-9.2-10.2-17.1-21.3-22.4-34.1c3.1-0.8,4.4,1.7,5.8,3.4
			c10.8,12.2,22.6,23.5,34,35.1c2.2,2.3,4.6,4.2,7.8,4.7c0.4,0.2,0.7,0.5,1,0.9c1.5,1.8,3.2-0.1,4.8,0.1c2.9,0.7,6.2-0.4,8.6,2.1
			c4.2,0.9,8.3,0.5,12.5-0.2c2.9-0.8,6,0.2,8.8-1.2c1.9-0.9,3.8-1.2,5.9-0.8c2.3,0.7,4.6,0.5,7,0.5c13.3,0,13.3,0,13.3-13.1
			c0-5.7-0.1-11.4,0-17.1c0.1-6.2,0.4-6.6,6.4-6.5C494.5,469.1,497.5,468.5,500.4,469.4z"/>
		<path class="st3" d="M196.4,425.5c1.7,2.1,2.1,4.6,2.1,7.2c1.5,3.7,2.9,7.4,4.7,10.9c0.7,1.3,1.8,2.7,0.3,4.2
			c-6.4-3.8-10.6-9-13.9-16.1c-7.9-17.3-11.4-35-10.4-54.1c0.7-14.4-0.2-28.9-0.7-43.3c-0.1-3.3,1-4.6,4.1-5.2
			c4.6-0.8,9.1-1.9,13.7-2.9c2.1,2.3,1.6,5.2,1.6,7.9c-0.1,17.8,0.6,35.7-0.7,53.5c0.1,1.2,0.1,2.4-0.9,3.3
			c-1.4,4.7-0.2,9.6-0.6,14.4C196.1,412.2,195,418.9,196.4,425.5z"/>
		<path class="st3" d="M284,320c-2.7,0-5.3-0.2-6.6-3.1c-1.1-2.5-0.9-5.2,2.3-5.5c3.1-0.3,3.8-1.7,3.7-4.2
			c-0.1-9.2-0.3-18.4-0.4-27.6c0-2.1-1-2.7-2.9-2.7c-1.7,0-2.6-0.9-2.5-2.6c0.1-1.4,1.1-2.3,2.3-2.4c8.3-0.3,16.6-0.9,24.8,1.1
			c1.2,0.3,2.1,1.2,2,2.7c-0.6,2.6-4.6,1.8-4.9,5.8c2-1.6,3.2-3.5,5.1-4.2c1.6-1.8,3.9-3.3,4.8-5.5c2.4-5.5,8-4.6,12.1-6.8
			c1.3-0.7,7.9,6.3,8,8.7c0.2,3.6,0.1,7.3,0,11c-0.1,2-1.1,1.8-2.3,0.7c-1.4-2.1-0.4-4.6-1-6.9c-0.1-0.5-0.3-0.9-0.3-1
			c-0.1,0.7,0.6,1.8,0.5,2.9c0.3,2-0.5,4-0.1,6c-0.3,2.9,0.1,5.1,3.6,6.2c3.1,1,4,7.3,1.7,9.7c-0.7,0.7-1.7,0.9-2.3,0.4
			c-6.6-5.3-4.1,1.6-4.9,3.7c-0.3,0.9,0,2,0.1,3.1c-2.5,3.6-6,3.3-9.6,2.3c-2.6-2.7-7-3.1-8.5-7.3c-2.2-6.7-1-11.6,4.8-16.8
			c-0.1-1-1-0.8-1.6-0.9c-9.6-1-9.9-0.6-10.1,9.1c-0.1,7.3,0.7,14.6-0.5,21.9c-0.3,0.6-0.7,1-1.2,1.3C295,319.5,289.6,322.6,284,320
			z"/>
		<path class="st3" d="M197.3,387.8c-1.4-1.2-0.9-2.9-0.9-4.4c0-19,0-38.1,0-57.1c4.5-0.1,9-0.1,13.6-0.2c2.6-1.9,5.4-0.5,8.1-0.5
			c9.2,0,18.4-0.3,27.6,0.2c1.1,1.7,2.6,2.2,4.6,2.2c1.5,0,3.4-0.8,4.5,1.2c-11.7,1.6-22.2,6.4-30.4,14.8
			C212.1,356.5,201.3,370.1,197.3,387.8z"/>
		<path class="st3" d="M569.2,414.1c0,12.2-0.3,24.4,0.2,36.5c0.2,5-1.4,8.7-4.4,12.2c-2.1,2.5-4.1,5.1-6.2,7.7
			c-6.2,0.5-12.4,1.4-18.7,0.9c0.4-0.5,0.8-1.2,1.3-1.6c11-7.5,13.8-17.9,12.4-30.7c-0.9-8.3-0.2-16.7-0.2-25
			C558.8,411.4,564,411.7,569.2,414.1z"/>
		<path class="st3" d="M317.4,311.6c3.3,0,6.5-0.7,9.6-1.9c20.9-4.1,41.8-8.1,62.8-12.3c12.4-2.4,24.8-5,37.2-7.5
			c4.9-1,9.7,0.4,14.5,0.8c12.3,0.9,24.5,2.6,36.8,3.4c4.6,0.3,6.1,2,5.3,6.3c-0.1,0.8,0,1.7-0.1,2.6c-9.2-4.9-18.9-7.8-29.2-8.3
			c-2.4-0.8-4.8-0.5-7.2-0.1c-1.8,0.1-3.6,0.2-5.4,0.4c-1.6,1-3.6-0.3-5.2,0.9H436l-0.5,0.1c-1.7,0.7-3.7,0.5-5.4,1.4
			c-2.1,0.7-4.2-0.2-6.3,0.5c-19.3,2.5-38.3,6.5-57.1,11.7c-1.2,0.8-2.4,0.1-3.6-0.2c-1.6-0.7-3.3-0.6-5-0.6s-3.4,0-5.1,0.6
			c-0.5,0.1-1,0.2-1.5,0.3c-2,0.3-4.1,0-6,1c-2.2,0.9-4.5,1.4-6.8,1.3c-1.7,0-3.3-0.2-5,0.4c-1,0.3-2.1,0.7-3,1.3
			c-0.9,0.5-1.6,1.5-2.8,1.3c-5.5,1.5-11,2.9-16.4,4.4c-1,0.3-2,0.9-2.6-0.4C307.2,313,309.9,310.8,317.4,311.6z"/>
		<path class="st3" d="M572.4,394.2c-3.8-5.2-7.7-10.4-11.5-15.6c9.7-0.7,19.2,1.2,28.9,0.9c2.3-0.1,3.4,1.3,4.5,2.9
			c2.8,4,5.6,7.9,8.4,11.8C592.5,394.2,582.4,394.2,572.4,394.2z"/>
		<path class="st3" d="M381.3,512.2c-3.8,2.5-8.1,0.7-12.1,1.2c-1.2,0.2-3.3-0.9-1.9,2.2c0.9,1.9-1.1,1.9-2.6,1.6
			c-18.2-3.4-36.3-6.8-54.5-10.2c-23.8-4.5-47.5-8.9-71.3-13.4c-1.7-0.3-3.4-0.7-5.1-1c-1.3-0.3-2.6-0.5-4-0.8
			c-1.2-0.2-2.4-0.4-2.2-2.1c0.3-2.3,2-1.2,3.1-1.2c3.6-0.2,7.2,0.1,10.8,1c31,6.1,62.1,11.8,93.1,17.4c0.5,0.1,1.1,0.2,1.6,0.3
			c3.4,0.8,6.8,2.1,10.5,1.3c1.1-0.1,2.1,0.2,3,0.7c4.7,1.3,9.3,3.2,14.3,2.1c3.6-0.7,7.3-0.3,10.9,0.1
			C377.1,511.5,379.3,511.2,381.3,512.2z"/>
		<path class="st3" d="M234.1,498.8c47.2,9.7,94.4,19.5,142,29.3c-1.7,2.6-3.2,2.1-4.4,1.8c-40.2-8.5-80.4-17-120.6-25.7
			c-5.8-1.3-12.1-0.8-17.3-4.6C233.9,499.4,234,499.1,234.1,498.8z"/>
		<path class="st3" d="M361.4,491.2c4.4,3.7,8.7,7.8,14.2,9.7c4.2,1.5,4.3,3.4,1.6,6.3c-0.7,0.7-1.4,1.5-2.2,2.2
			c-4.8,0.1-9.7,1.6-14.2-1.4C359.4,502.4,358.4,496.7,361.4,491.2z"/>
		<path class="st3" d="M241.2,490.4c-3.6,0.1-7.1-0.6-10.4-1.9c4.2-2.5,1.1-6.4,1.9-9.6c0-0.7,0-1.4,0.1-2.1c0.4-2.1-1.3-5,1.2-6.1
			c2.8-1.2,5.4,0.2,7.2,2.8c0.9,5.1-0.5,10.4,1.3,15.5C242.5,489.9,242.5,490.7,241.2,490.4z"/>
		<path class="st3" d="M465.8,516.4c4.2-1.3,8.4-2.6,12.6-3.9c2.2,6.6,1.9,7-6.3,11.2c-8.5-1.3-16.9-2.8-25.2-4.9
			c0.4-0.4,0.9-0.6,1.6-0.6c2.9,0,5.7,0,8.6,0C459.7,516.4,463.1,518,465.8,516.4z"/>
		<path class="st3" d="M245.6,325.8c-1,1.7-2.6,1.4-4.1,1.3c-10.5-0.3-21.1,0.7-31.6-1.1c0.4-2,2-2.1,3.6-2.1c9.4,0,18.7,0,28.1,0
			C243.3,324,244.8,324.2,245.6,325.8z"/>
		<path class="st3" d="M472,523.7c0.1-1,0-2.7,1.1-2.6c7.2,0.3,4.8-5,5.2-8.6c0.7-0.3,1.4-0.6,2.1-1c0,3.5-1.6,8,4.5,8
			c1.3,0,1.7,0.9,1.6,2.1c-0.2,1.5-1.4,1.3-2.3,1.3C480.3,523.2,476.1,523.5,472,523.7z"/>
		<path class="st3" d="M361.4,508.2c4.5,0.6,9.3-1.4,13.7,1.2c0.1,0.7-1,1.3-0.1,2c-3.7,2.1-7.7,0.4-11.5,1
			c-1.1,0.7-2.4,0.9-3.1-0.2C359.5,510.8,360.1,509.3,361.4,508.2z"/>
		<path class="st3" d="M284,320c5.6-0.4,11.1-0.9,16.7-1.3c1.3-0.6,2.6-1.2,3,1c-6.6,1.4-13.1,2.9-19.7,4.3
			C284.1,322.6,284.1,321.3,284,320z"/>
		<path class="st3" d="M264.4,327.1c-0.9,1.3-1.6,3-3.5,1c1.6-4-3-2.3-4.4-4.7c4.9-0.7,9.4-0.8,13.9,0
			C269.4,327.1,264.5,322.5,264.4,327.1z"/>
		<path class="st3" d="M203.5,447.9c-0.6-5.4-5.3-9.5-5-15.2c3.6,5.1,6.2,10.7,7.3,16.9C204.6,449.6,204.1,448.6,203.5,447.9z"/>
		<path class="st3" d="M307.1,277.3c-1.2,2.6-3.2,4.4-5.4,6.4c-3-6,1.4-6.8,5.2-8C307,276.2,307.1,276.8,307.1,277.3z"/>
		<path class="st3" d="M329.1,277.7c1.1,2.5,0.9,5.1,0.6,7.7c-0.3,0.4-0.6,0.7-0.9,1.1c-1.2-2.1-0.8-4.3-0.8-6.5
			C328.7,279.4,328.1,278.2,329.1,277.7z"/>
		<path class="st3" d="M448.2,518.4c-0.4,0.1-0.9,0.2-1.3,0.3c-1.3-0.1-2.6-0.2-3.9-0.3c1.5-1.5,3.4-0.8,5.2-0.7
			C448.1,518,448.2,518.2,448.2,518.4z"/>
		<path class="st3" d="M424,505.1c-3.4,0.5-5.8-1-8.2-3.4c-11.9-12.3-24.4-24.2-35.8-37c-1.2-1.4-2.4-3-4.3-3.6
			c-1.2-1.4-1.9-3-1.9-4.9c-2.3-8.7-1.6-17.6-1.1-26.4c0.8-2.4,0.8-4.8,0.8-7.2c0-16.4,0-32.7,0-49.1c0.1-6.2-0.1-12.4,0.1-18.6
			c0.5-1.7,0.2-4.1,3-4.2c4.9,0,9.4,1.6,14.1,2.6c1.7,0.4,3.2,1.2,4,2.9c0.8,2.6,0.5,5.2,0.5,7.8c0,30.1,0,60.2,0,90.3
			c0,2.4,1.7,3.6,3.2,5.1c13,13.3,27.3,25.1,40.3,38.4c1.5,1.5,5,2.9,2.2,6.1C435.4,506,429.7,505.2,424,505.1z"/>
		<path class="st3" d="M363.6,308.1c1,0.4,2.1,0.9,3.1,1.3c1.9,3.3,7.7,4.2,7.1,8.1c-0.5,3.4-4.1,6.3-6.3,9.4
			c-4,5.5-8,10.9-11.8,16.6c-2,3-4.3,4.4-7.8,3.7c-2,1.1-4.4-0.2-6.4,0.8c-1.7,0.1-3.4,0.2-5.1,0.2c-1.7,1-3.7-0.1-5.4,0.8
			c-2,0.1-4,0.2-6.1,0.3c-2.2,0.6-4.3,0.8-6.5-0.1c-3.2-2.3-6.1-5-8.3-8.4c6.6-3.2,14-2.3,21-3.9c3.7-0.7,7.5-0.6,11.2-1.6
			c0.2-0.3,0.5-0.7,0.6-1c0.6-1.1,1.3-2.2,1.7-3.3c0.6-1.3,1.4-2.3,2.4-3.3c1.2-1.1,2.2-2.3,2.8-3.9c0.5-1.3,1.4-2.3,2.3-3.3
			c1.3-1.2,2.4-2.5,3-4.2c0.5-1.2,1.4-2.3,2.3-3.2c1.3-1.2,2.3-2.7,3.5-4C361.8,308.4,362.7,308.3,363.6,308.1z"/>
		<path class="st3" d="M358.2,313.6c-0.7,1-1.4,2.1-2.1,3.1c-1,1.5-2.2,2.7-3.1,4.2c-0.7,1-1.4,2.1-2.1,3.1c-1,1.5-2.2,2.7-3.1,4.2
			c-0.7,1-1.4,2.1-2.1,3.1c-0.7,1.1-1.7,1.9-2.1,3.2c0,0.3,0,0.6,0,0.9c-3.7,0.8-7.3,1.8-11.2,1.6c-4.9,1.1-9.8,1.6-14.7,2.1
			c-3.3,0.4-3.9-1-3.4-3.8c4.6-6.6,9.2-13.2,13.8-19.9c3.9-3.3,9.3-2.3,13.6-4.6c1.6-0.2,3.2-0.7,4.8-0.8c2.1-0.4,4.2,0,6.3-0.7
			c1.8-0.5,3.6-0.5,5.3-0.9c0.8-0.1,1.5,0,2.2,0.4C361.1,311.2,358.7,312,358.2,313.6z"/>
		<path class="st3" d="M373.9,429.8c-0.1,8.8-0.1,17.6-0.2,26.5c-5-8.9-7.5-18.7-9.1-28.7c0.6-2.7,0.3-5.4-0.2-8.1
			c-0.9-4.3-1.6-8.5,0.7-12.7c1.4-2.4,0.9-5.1-0.4-7.5c-1.2-2.3-1.8-4.7-1.1-7.1c2.1-7.3,0.9-15.3,4.4-22.3c0.4-0.8,0.3-2.1-0.3-3
			c1.2-4.8,2.4-9.6,5-13.9c1,0.3,1.5,1.1,1.7,2.1c0.1,6.1,0,12.3,0,18.4c0,17,0,34,0,51C374.4,426.4,374.8,428.1,373.9,429.8z"/>
		<path class="st3" d="M242.3,489.4c-0.9-0.2-1.9-0.5-1.9-1.4c0.2-4.8-1.4-9.8,0.9-14.4c5.1,4,10.3,8,16.4,10.4
			c0.1,1.4-1.3,2-1.6,3.5c14.2,2.9,28.5,5.2,42.8,7.8c15.3,2.8,30.7,5.4,46,8.3c2.4,0.4,4.8,0.7,6.6,2.7c0.5,2.3,1.1,4.5-2.6,4
			c-0.5-0.8-1.2-1-2.1-1c-3.6,1.2-6.9-0.9-10.4-1.1l0,0c-29.4-5.8-58.8-11.3-88.2-16.8C246.1,491,244,490.7,242.3,489.4z"/>
		<path class="st3" d="M317.4,311.6c-1,0.3-1.9,0.8-2.9,0.9c-4,0.2-6.3,1.9-5.5,6.3c-0.9,0-1.9,0-2.8,0c-1.6-0.2-3.3-0.2-4.8-1
			c-0.1-9.8-0.2-19.5-0.2-29.3c0-1.6,0-3.3,2.3-3.2c5,0.2,10-0.4,15.9,2c-4.1,1.2-7.3,2.4-8.8,5.7c-1.4,3.1-1,6.4-0.7,9.7
			c0.3,3.4,1.8,5.3,5,5.4C317.5,308.3,317.7,309.6,317.4,311.6z"/>
		<path class="st3" d="M350.8,506c0-1-0.1-2-0.1-2.9c0-3.6,0-7.2,0.2-10.8c0.1-1.7-1.2-4.2,1.4-4.8c2.2-0.4,4.8-1.1,6.8,1
			c0.8,0.9,1.5,1.8,2.3,2.7c0,5.7,0,11.4-0.1,17c0.6,1.4-2.2,4.5,2,4.2c-5.2,1.6-9.8-0.8-14.6-2.1
			C351.7,509.9,350.7,507.7,350.8,506z"/>
		<path class="st3" d="M367.7,366.9c1.6,1.8,2,3.1,0.7,5.8c-2.1,4.1-4.2,8.8-1.7,13.7c0.1,0.3,0.4,0.8,0.2,0.9
			c-4.9,5.1-1.3,9.9,0.4,14.8c0.8,2.3-0.4,4.5-1.4,6.4c-2,3.6-2,7-0.3,10.8c1.3,2.8,0.1,5.6-1,8.2c-1.1-3.7-1.5-7.4-1.2-11.2
			c-1-2.1,0.2-4.4-0.8-6.4c0-0.4,0-0.8,0-1.2c0.6-3.1,0.6-6.2,0-9.3c0-0.4,0-0.8,0-1.2c1-2.4-0.3-5,0.8-7.4
			C363.4,382.6,365.3,374.7,367.7,366.9z"/>
		<path class="st3" d="M373.9,354.4c-0.4-0.4-0.8-0.9-1.2-1.3c0.1-2.3,1.3-4.1,2.4-6c0.8,1.3,0.5,2.6,3.4,2.4
			c9.1-0.7,18.4-0.3,28.8-0.3c-3.1,1.5-5.3,0.7-7.3,1c-2.3,2.2-5.2,1.5-7.9,1.6c-5,0.1-10,0.1-15-0.5c-2.2,0-2,1.6-2.1,3.1
			C374.6,354.9,374.2,354.9,373.9,354.4z"/>
		<path class="st3" d="M314.3,335.5c0.5,3.9,3.3,3.4,5.8,3c4-0.5,8-1.3,12-2c0.4,0.2,0.5,0.5,0.4,0.7s-0.2,0.3-0.4,0.3
			c-7.1,2.1-14.4,2.5-21.8,3.1C311.7,339,313,337.2,314.3,335.5z"/>
		<path class="st3" d="M341.5,311.5c-0.5,3.2-3.3,1.9-5,2.4c-2.7,0.9-5.6,1.2-8.5,1.8c0-0.3-0.1-0.6,0-0.9c0.7-0.7,1.4-1.4,2.1-2.1
			C333.9,311.8,337.6,310.8,341.5,311.5z"/>
		<path class="st3" d="M196.4,425.5c-2.4-4.7-0.6-9.8-1.1-14.7c-0.2-2.1,0-4.2,0-6.2c0.3-0.5,0.6-0.5,0.9,0
			C196.2,411.6,196.3,418.6,196.4,425.5z"/>
		<path class="st3" d="M196.1,404.6c-0.3,0-0.6,0-0.9,0c0-4.8,0-9.6,0-14.3c0-0.1,0.2-0.2,0.4-0.3c0.2,0.4,0.5,0.7,0.7,1.1
			C196.3,395.6,196.2,400.1,196.1,404.6z"/>
		<path class="st3" d="M362.5,399.4c1.4,3.1,1.4,6.2,0,9.3C362.5,405.6,362.5,402.5,362.5,399.4z"/>
		<path class="st3" d="M423.8,297.7c1.9-1.3,4.2-0.8,6.3-1.1c1.1-0.4,1.3,0.1,1,1c-1.7,0.4-3.4,0.8-5.1,1.2
			C425.3,298.4,424.6,298.1,423.8,297.7z"/>
		<path class="st3" d="M301.3,317.7c1.5,0.7,3.5-0.9,4.8,1c-0.6,0.8-1.4,1.1-2.4,0.9c-0.8-1-2-0.6-3-1
			C300.9,318.3,301.1,318,301.3,317.7z"/>
		<path class="st3" d="M363.4,390.8c-0.3,2.5,0.9,5.1-0.8,7.4C362.6,395.8,361.9,393.2,363.4,390.8z"/>
		<path class="st3" d="M362.5,409.9c1.7,2,0.6,4.3,0.8,6.4C361.9,414.3,362.5,412.1,362.5,409.9z"/>
		<path class="st3" d="M318.6,349.1c2.2,0,4.3,0.1,6.5,0.1C322.9,350.2,320.7,350.9,318.6,349.1z"/>
		<path class="st3" d="M341.6,347.9c2-1.6,4.3-0.6,6.4-0.8C345.9,348.4,343.7,348,341.6,347.9z"/>
		<path class="st3" d="M331.1,348.9c1.6-1.5,3.6-0.7,5.4-0.8C334.8,349.3,333,349,331.1,348.9z"/>
		<path class="st3" d="M494.1,400c-3.5,0.1-7,0.3-10.5,0.4c-1.2,10-0.5,20-0.3,30c0.2,6.9,1.1,13.8-0.6,20.6c-3.9,1-7-0.3-9.1-5.1
			c-3.4-7.6-8-14.8-8.1-23.5c-0.3-8.7,0.1-17.4-0.2-26.1c0.6-12.6,8.7-22,14.2-32.5c2.8-0.5,5.3-2.4,8.3-2.1c3,1.3,6.4-0.4,9.4,1
			c2.8,1,5.5,2.1,8.3,3.1c4.3,1.8,6.7,6,10.5,8.4c1.4,1.5,2.8,3,3.3,5.1c-3.4,1.3-6.9,0.3-10.4,0.6c-10.2,0-10.2,0-10.2,10.4
			c0,2.3,0,4.5,0,6.8C498.4,400,494.9,397.9,494.1,400z"/>
		<path class="st3" d="M466.8,423.6c0,7,4.3,12.5,6.4,18.7c1.5,4.3,3.9,7.6,8.3,9.3c1.4-0.1,2.2,0.6,2.5,1.9c0.4,4.6-0.6,9.4,0.6,14
			c0.3,0.3,0.7,0.7,1,1c1.1,11.6,0.2,23.2,0.5,34.9c0,1.9-1.1,2.3-2.7,2.3c-4,0-7.9,1.1-11.9,1c-2.3-0.2-4.6,0.5-6.8-0.4
			c-1.8-0.2-3.6,0-5.2,1c-4.8,1.1-9.9,0.1-14.7,1.4c-2.4,0-4.9,0.7-7.3-0.4c-2.9-1.9-6.5-0.6-9.5-2c-1.4,0.6-2.8,0.7-4.1-0.1
			c0-0.3,0-0.6,0-1c5.8-1.9,12-1,17.9-2.2c4.4-2.4,9.3-2.2,14.1-2.5c6.7-0.5,13.4-1.1,20.1-1.7c3.8,0,5.1-2,5-5.7
			c-0.2-8.2,0.1-16.3-0.2-24.5c-3.3-9.2-8-17.8-12.7-26.3c-4.5-8.2-6.9-16.6-6-25.9c0.3-3.1,0.3-6.3-0.7-9.3
			c-0.4-5.7-0.5-11.4,0-17.2c3.4-8.6,7.6-16.8,11.4-25.1c1.5-3.3,1.5-4.8-2.9-4.9c-6.2-0.1-12.4-1.3-18.7-0.9
			c-4.6-0.2-9.2,0.3-13.8-0.4c-3.2-1.1-6.6-0.7-9.8-0.6c-10.8,0.5-21.5-0.7-32.3-1.5c-0.6-0.3-1.2-0.6-1.6-1
			c-5.5-1.6-11.4-2-16.8-4.2c7.6-1.6,15.3-0.9,23-1.1c2.6,2,5.6,0.6,8.4,1c5.2-0.7,10.4-0.8,15.6,0.1c2.6,2,5.6,0.6,8.4,1
			c5.2-0.7,10.4-0.8,15.6,0.1c2.6,2,5.6,0.6,8.4,1c5.2-0.7,10.4-0.8,15.6,0.1c2.6,2,5.6,0.6,8.4,1c1.3-0.3,2.8-1.4,3.1,1.1
			c-2.3,2.4-2.4,5.8-4.1,8.5c-1.2,3.6-3.3,7-3,11.1c-6.5,1.9-5.3,9-8.6,13c-1.7,2.1,1.1,5.5-2,7.3c0.9,7.6,0.1,15.2,0.4,22.7
			C466.4,419.9,465.9,421.8,466.8,423.6z"/>
		<path class="st3" d="M424,351.2c-5.2,0-10.4,0-15.6-0.1c7.2-2.2,14.5-0.3,21.8,0.1C428.1,351.2,426,351.2,424,351.2z"/>
		<path class="st3" d="M448,352.3c-5.2,0-10.4,0-15.6-0.1c7.2-2.2,14.5-0.3,21.8,0.1C452.1,352.3,450.1,352.3,448,352.3z"/>
		<path class="st3" d="M472,353.3c-5.2,0-10.4,0-15.6-0.1c7.2-2.2,14.5-0.3,21.8,0.1C476.2,353.3,474.1,353.3,472,353.3z"/>
		<path class="st3" d="M516,374.2c-4.6-1.3-6.8-5.9-10.5-8.4C510.5,366.7,513,370.8,516,374.2z"/>
		<path class="st3" d="M508.6,379.5c3.5,0,7-0.1,10.6-0.1c0.3,0,0.7,0.1,1,0.1c-3.7,2.3-7.7,0.6-11.6,1c-0.3-0.2-0.5-0.4-0.3-0.7
			C508.4,379.6,508.5,379.5,508.6,379.5z"/>
		<path class="st3" d="M497.2,362.8c-3.1-0.5-6.4,1-9.4-1C490.9,362,494.2,360.6,497.2,362.8z"/>
		<path class="st3" d="M483.5,355.4c-0.7-1.2-2-1-3.1-1.1c1.3-1.3,2.8-1.4,4.3-0.4c0.2,0.1-0.2,1.1-0.4,1.7c0,0.1-0.3,0.1-0.5,0.1
			C483.8,355.6,483.7,355.5,483.5,355.4z"/>
		<path class="st3" d="M447.1,294.5c2.4-1.1,4.8-1.4,7.2,0.1C451.9,294.6,449.5,294.5,447.1,294.5z"/>
		<path class="st3" d="M529.5,380.4c-2.1-0.2-4.5,1-6.3-0.9c2.1,0,4.2,0,6.3,0.1c0.3,0.2,0.4,0.4,0.3,0.6
			C529.8,380.3,529.6,380.4,529.5,380.4z"/>
		<path class="st3" d="M529.5,380.4c0-0.3,0-0.6,0-0.9c2,0,4,0.1,6,0.1C533.7,381.3,531.5,380.3,529.5,380.4z"/>
		<path class="st3" d="M431.1,297.6c-0.3-0.3-0.6-0.7-1-1c1.6-1.3,3.5-0.8,5.3-0.8C434.3,297.2,432.6,297,431.1,297.6z"/>
		<path class="st3" d="M436.5,295.7c1.5-1.5,3.4-0.9,5.2-0.9C440.2,296.4,438.2,295.5,436.5,295.7z"/>
		<path class="st3" d="M569.2,414.1c-5.2,0-10.4,0-15.6,0c-4.2-5.2-8.4-10.5-12.6-15.7c0.9,0,1.7,0.1,2.6,0
			C556.8,395.9,562.9,405.1,569.2,414.1z"/>
		<path class="st3" d="M471,506.1c4-0.2,7.8-1.4,11.8-1.1c3.3,0.2,2.8-2.3,2.8-4.4c0-10.7,0-21.5,0-32.2c4.9,0.4,9.9-0.9,14.7,1
			c-13.7,0.2-13.7,0.2-13.7,14c0,6.3,0,12.5,0,18.8c0,2.4-0.4,3.7-3.3,4.1c-4.1,0.6-8.2,1.1-12.4,0.9c-0.3-0.2-0.5-0.5-0.3-0.7
			C470.8,506.2,470.9,506.1,471,506.1z"/>
		<path class="st3" d="M483.5,452.7c-0.7-0.4-1.3-0.7-2-1.1c1.3-2,1-4.3,1-6.6c0-14.5,0-29,0-43.5c0-0.3,0.1-0.7,0.2-0.9
			c0.1-0.1,0.6,0,0.8,0c0,9.7,0,19.5,0,29.2C484.3,437.4,484.5,445,483.5,452.7z"/>
		<path class="st3" d="M483.5,452.7c0-7.7,0.1-15.3,0.1-23c1.6,1.6,0.9,3.6,0.9,5.5c0.1,10.8,0,21.5,0.1,32.3
			C482.4,462.6,484.1,457.6,483.5,452.7z"/>
		<path class="st3" d="M494.1,400c0.5-2.5,2.6-1.4,4.1-1.7c0.4-0.5,0.7-0.5,1,0.1h0.2C498,400.1,495.8,399.2,494.1,400z"/>
		<path class="st3" d="M499.1,398.3c-0.3,0-0.6,0-1-0.1c0-4.5,0.3-8.9-0.1-13.4c-0.3-4.2,1-6.1,5.4-5.5c1.7,0.2,3.4,0,5.1,0
			c0,0.3,0,0.7,0,1c-9.4,0.3-9.4,0.3-9.4,9.6C499.2,392.9,499.2,395.6,499.1,398.3z"/>
		<path class="st3" d="M444.9,508.2c4.8-2.1,9.8-0.6,14.7-1.1c-2.9,2.1-6.3,0.6-9.4,1.1C448.4,509,446.6,509,444.9,508.2z"/>
		<path class="st3" d="M444.9,508.2c1.8,0,3.5,0,5.3,0c-4,2.1-8.3,0.8-12.5,0.8c-0.1,0-0.2-0.2-0.2-0.4c0-0.2,0.1-0.3,0.2-0.5
			C440,508.2,442.5,508.2,444.9,508.2z"/>
		<path class="st3" d="M465.8,516.4c-2.4,2.2-5.7,1-8.4,2.2c-0.3-0.2-0.4-0.5-0.3-0.7s0.2-0.4,0.3-0.4
			C460,515.9,463,516.9,465.8,516.4z"/>
		<path class="st3" d="M457.4,517.5c0,0.4,0,0.7,0,1.1c-3.1-0.1-6.1-0.1-9.2-0.2c-0.1-0.2-0.1-0.4-0.1-0.7
			C451.2,517.7,454.3,517.6,457.4,517.5z"/>
		<path class="st3" d="M471,506.1c0,0.3,0,0.7,0,1c-2.1-0.3-4.4,0.8-6.2-1C466.9,506.2,469,506.2,471,506.1z"/>
		<path class="st3" d="M424,506.1c1.4,0,2.7,0.1,4.1,0.1C426.8,507.2,425.4,508.3,424,506.1z"/>
		<path class="st3" d="M307.4,281.6c2.9-3.3,5.1-6,7.4-8.5c1-1.1,1.9-3.3,3.4-2.6c1.8,0.8,3.4,2.6,3.4,4.8c0,2.4-0.5,4.8-0.9,7.2
			c-0.3,1.7-1.5,1.5-2.8,1.3C314.8,283.1,311.6,282.5,307.4,281.6z"/>
		<path class="st3" d="M329.1,277.7c-0.3,0.8-0.7,1.5-1,2.3c-0.3-2.3-0.7-4.7-1.2-8.4C329.6,274.2,329,276,329.1,277.7z"/>
		<path class="st3" d="M341.5,311.5c-3.8,0.9-7.5,1.6-11.4,1.3c1-0.5,2-0.9,3-1.4c1.7-1,3.7,0.2,5.4-0.9c2.4-0.4,4.7-0.7,7.1-1.1
			c1.7-1,3.5-0.3,5.3-0.5c0.5,0,1,0.2,1.4,0.6c0.1,0.5-0.1,1-0.5,1.3c-1.6,0.5-3.5-0.5-5.1,0.7C345,311.5,343.3,311.5,341.5,311.5z"
			/>
		<path class="st3" d="M360.3,309.4c-0.7,0-1.4,0-2.1,0c-2.1,0.8-4.2,0.7-6.2,0.1l-0.3-0.3l-0.1-0.5l0.4-0.3c0.3,0,0.6,0,0.9-0.1
			c1.7-1,3.8,0.2,5.5-0.9c1.8,0.3,3.7-0.7,5.3,0.8c-0.5,0.9-1.3,1.2-2.2,1.3C361,309.9,360.7,309.9,360.3,309.4z"/>
		<path class="st3" d="M352,308.3c-0.1,0.3-0.2,0.5-0.3,0.8c-2,0.1-4.1,0.2-6.1,0.2C347.5,307.6,349.9,308.5,352,308.3z"/>
		<path class="st3" d="M338.5,310.4c-1.6,1.4-3.5,0.9-5.4,0.9C334.7,309.9,336.7,310.5,338.5,310.4z"/>
		<path class="st3" d="M358.4,307.3c-1.6,1.5-3.6,0.9-5.5,0.9C354.5,306.8,356.5,307.4,358.4,307.3z"/>
		<path class="st3" d="M242.3,489.4c24.3,4.7,48.7,9.3,73,14.1c7,1.4,14.3,1.8,21,4.7c-10.5-0.7-20.7-3.4-31-5.2
			c-20.6-3.7-41.2-7.7-61.8-11.6c-0.8-0.1-1.5-0.7-2.3-1C241.6,490.1,241.9,489.7,242.3,489.4z"/>
		<path class="st3" d="M336.3,508.2c3.6-0.6,6.9,1.2,10.4,1.1C343,511.5,339.7,509.2,336.3,508.2z"/>
		<path class="st3" d="M476.3,499.9c-4.5,2.1-9.5,0.8-14.2,1.7c-6.6,1.2-13.4,0.9-20.1,1.3c-9.5-10.6-20.5-19.7-30.8-29.5
			c-5.8-5.5-11.5-11.1-17.2-16.6c0.7-1.9,0.4-3.8,0.4-5.7c0-30,0-60,0-89.9c0-1.9-0.5-3.8,0.5-5.7c13.5,0.3,27.1,0.7,40.6,1.1
			c0.8,0,1.6,0.6,2.4,0.9c-2.3,1.2-4.7,0.1-6.8,0.7c6.9-0.4,14.1,0.5,21.2-0.5c8.1-0.7,16.1,1.4,24.9,0.9
			c-4.7,10.6-9,20.8-14.3,30.4c-1.5,6.5-0.2,13-0.6,19.5c0,0.1-0.1,0.2-0.2,0.3c0.6-0.1,0.3-0.9,0.8-1.1c2,4.7,0.9,9.6,0.9,14.3
			c-0.1,5.4,1.1,10.1,3.6,14.8c5.3,10.1,10.2,20.4,15.2,30.7c-0.9,8.3-0.5,16.6-0.3,24.9C482.2,497.1,481.4,499.9,476.3,499.9z"/>
		<path class="st3" d="M394.8,355.5c0,32.1,0,64.2,0,96.3c0,1.7,0.6,3.5-0.9,4.9c0-33.8-0.1-67.6-0.1-101.4
			C394.1,355.4,394.4,355.4,394.8,355.5z"/>
		<path class="st3" d="M373.9,429.8c0-18.9,0-37.7,0-56.6c0.3-0.5,0.6-0.5,1,0c0,17.6,0,35.1,0,52.7
			C374.9,427.2,375.1,428.7,373.9,429.8z"/>
		<path class="st3" d="M374.9,373.2c-0.3,0-0.6,0-1,0c0-6.3,0-12.6,0-18.8c0.3,0,0.7,0,1,0C374.9,360.6,374.9,366.9,374.9,373.2z"/>
		<path class="st3" d="M332.1,337.6c0-0.3,0-0.7,0-1c3.8-0.4,7.7-0.7,11.5-1.1C340.1,338,336.1,337.6,332.1,337.6z"/>
		<path class="st3" d="M347.8,328.2c0.1-2.1,1.4-3.3,3.1-4.2C350.8,326.1,349.4,327.3,347.8,328.2z"/>
		<path class="st3" d="M353,320.9c0.1-2.1,1.4-3.3,3.1-4.2C356,318.8,354.7,319.9,353,320.9z"/>
		<path class="st3" d="M360.3,309.4c0.4,0,0.7,0,1.1,0c-0.1,2.1-1.5,3.3-3.2,4.2C358,311.7,359.7,310.8,360.3,309.4z"/>
		<path class="st3" d="M343.6,334.5c-1.1-2.2,1.2-2.3,2.1-3.2C345.7,332.8,345,333.9,343.6,334.5z"/>
		<path class="st3" d="M346.7,311.4c1.5-1.8,3.5-0.8,5.2-1c0.3-0.5,0.7-0.4,1,0C351.2,312.3,348.8,311.1,346.7,311.4z"/>
		<path class="st3" d="M353,310.4c-0.3,0-0.7,0-1,0c0-0.3,0-0.7,0-1c2.1,0,4.2,0,6.2-0.1C356.8,311.1,354.8,310.2,353,310.4z"/>
		<path class="st3" d="M466.8,423.6c-2.1-3.9-0.8-8.1-0.9-12.2c-0.2-5.4,0-10.8,0.1-16.1c2,5,0.6,10.2,0.9,15.3
			C467,414.9,466.8,419.3,466.8,423.6z"/>
		<path class="st3" d="M476.3,499.9c5.3-0.9,5.3-4.5,5.3-8.9c0.1-7.8-1.3-15.8,0.8-23.6c0,8.8-0.2,17.6,0.3,26.4
			C482.9,499.1,481,500.7,476.3,499.9z"/>
		<path class="st3" d="M462.7,407.6c0,1.3,0,2.7,0,4c-0.3-7.6-2.6-15.2,0.1-22.8C462.8,395.1,462.7,401.4,462.7,407.6z"/>
		<path class="st3" d="M452.2,357.6c-7.6,2.1-15.2,0.3-22.8-0.2c2.8,0,5.6,0,8.4,0C442.5,357.5,447.3,357.6,452.2,357.6z"/>
	</g>
	<g>
		<path class="st4" d="M427.3,515.4c-11.6-0.7-22.8-3.8-34.2-5.5c-5.3-0.8-10.6-1.8-15.8-2.7c0.2-2.7-0.6-4.6-3.4-5.8
			c-5.2-2.2-9.5-5.9-13.7-9.8c-0.5-0.4-1-1-1.6-1.4c-4.2-2.6-5.9-1.7-6.3,3.1c-0.3,3.3,1,7-1.5,9.9c-3.4,0.9-6.5-0.5-9.7-1.1
			c-26-5-51.8-10.7-77.8-15.7c-1.5-0.3-3.1-0.7-4.5-1.2c-6.8-2.3-12.8-6.1-18.1-10.9c-4.9-3.4-5.3-3.3-6.6,2.4
			c-0.2,0.8-0.4,1.6-1.2,2.1c-8.9-6.3-16.8-13.7-23-22.8c-1.4-2.1-2.7-4.4-4-6.5c-3.1-5.5-5.3-11.4-8.2-17c-0.8-2.7-1.7-5.4-2.4-8.2
			c-0.5-6.5-0.1-13.1-0.3-19.6c0.1-4.3-0.2-8.5,0.3-12.8c0.2-1.4,0.8-2.7,0.9-4.1c3-14.9,11.7-26.5,20.9-38
			c7.5-9.4,16.8-16,28.2-19.7c3.1-1,6.2-2.2,9.6-1c2.1-0.4,4.1-0.7,6.2-1.1c1.2-0.2,2.2-1.1,3.5-1c6.6-1,13.2-2.1,19.7-3.1
			c5.6-4,12.5-3.8,18.8-5.5c1.1,0,2.1-0.3,3.1-0.5s2-0.2,3.1-0.2c4.4,0.3,8.3-1.8,12.5-2.7c2-0.4,3.9-1.2,6-0.8
			c0.4,0.3,0.7,0.7,0.9,1.2c-3.4,7.4-8.2,13.8-13.1,20.2c-1,1.7-2.7,3.1-3.1,5.2c1.7,3.1,4.4,5.3,7.1,7.4c2.1,1.1,4.1,0.4,6.1-0.1
			c1.8-0.4,3.6-0.4,5.4-0.4c1.9,0.1,3.7,0,5.5-0.6c1.6-0.4,3.2-0.4,4.8-0.4c2,0,4.1,0.2,6.1-0.4c3.9-0.2,6.6-2.2,8.8-5.5
			c4.6-6.9,9.7-13.5,14.5-20.3c1.9-2.7,1.7-4.5-0.8-6.6c-1.6-1.4-4.9-2.2-2.9-5.6c0.9-0.9,2-1.3,3.2-1.6c16.5-4,33-7.5,49.7-10.2
			c1.2-0.2,2.4-0.2,3.6,0c1.1,0.2,2.2,0.5,2.8,1.6c-0.1,2.5-2.3,2.8-3.9,3.5c-21.4,9.2-36.3,25-46.3,45.8c-1.1,2-1.9,4.1-2.6,6.2
			c-2,4.6-3.5,9.2-4.7,14.1c-2.5,7.4-3.5,15.2-4.4,22.9c-0.8,2.4-0.7,4.9-0.6,7.4c0.1,0.6,0,1.1,0,1.7c-0.1,2.8-0.1,5.6,0,8.4
			c0,0.6,0,1.1,0,1.7c-0.1,2.2-0.1,4.4,0.6,6.5c0.5,3.6,0.5,7.2,1.4,10.7c1.5,9.8,4.5,19.2,8.6,28.2c0.7,1.9,1.3,3.8,2.3,5.6
			c7.7,16.2,17.6,30.8,31.8,42.1c4.5,3.6,9.4,6.5,14.6,9C424.8,512.8,427.1,512.9,427.3,515.4z"/>
		<path class="st5" d="M375,347.1c10.5-23,27.4-39.2,51-48.3c1.2-1.5,2.8-1.9,4.6-2.3c1.7-0.4,3.3-1,4.9-1.5c0.5-0.2,1-0.3,1.5-0.3
			c1.8-0.2,3.6-0.4,5.3-0.9c1.6-0.3,3.3-0.4,4.9-0.4c2.3,0,4.5,0,6.8,0c7.7,0.5,15.1,1.9,22.3,4.8c2.7,1.1,5.6,2.1,7.2,4.9
			c30,16.2,47,41.4,52.2,74.9c0.1,0.5,0.2,1,0.3,1.5c-0.2,0.2-0.4,0.4-0.6,0.6c-1.8,1-3.9,0.8-5.8,0.9c-1.9,0-3.8,0-5.8,0
			c-1.1,0-2.1-0.1-3.2-0.3c-0.5-0.1-1-0.3-1.4-0.5c-1.8-1.4-2.6-3.6-4.1-5.2c-3.2-3.2-5.7-7.2-10.5-8.4c-2.9-0.6-5.8-1.3-8.5-2.7
			c-2.6-1.3-5.4-0.6-8.2-0.7c-2.8-0.2-5.4,2-8.3,1c-1.2-3.6,0.7-6.2,2.7-8.8c0.5-0.5,0.2,0.1,0.5-0.1c0.5-0.4,0.6-0.6,0-0.6
			c-1.3-0.2-2.5,0.8-3.8,0.9c-2.6-0.2-5.7,1.6-7.2-2.2c1.1-0.7,2.2-0.4,3.4-0.6c-6.3,1.8-12.9,0.2-19.3,1.8c-2.9,0-6.1,1.6-8.2-2
			c1.8-1.2,3.7-1,4.4-0.7c-5.9,0.8-13,0.5-20.1,1.6c-2.9,0-6.2,1.6-8.3-1.9c1.8-1.2,3.7-1,4.4-0.7c-5.9,0.8-13,0.5-20,1.6
			c-2.9,0.1-6.2,1.5-8.3-1.8c0.9-1.4,2.4-0.6,3.6-1c-8.2,1.8-16.6,0.5-24.9,1.2C375.3,351,374.4,350.1,375,347.1z"/>
		<path class="st6" d="M540,471.4c-6.3-0.2-12.7-0.5-19-0.7c-6.8,1.9-13.7,0-20.5,0c-4.8-1.7-10,0.3-14.9-1.5
			c-0.9-0.5-1.5-1.2-1.9-2.2c-1.2-9.5-0.3-19.1-0.6-28.6c-0.1-2.9,0.3-5.9-0.7-8.8c-0.2-9.6-1.2-19.3,0.5-28.8c2.9-2.9,6.7-1.5,10-2
			c2.5-0.3,4.8-0.9,7.2-1.6c13.1-0.7,26.2-0.7,39.3,0c7.2,4.1,11.3,10.9,15.3,17.7c0.6,13,0.2,26,0.2,39.1c0,1.9-0.2,3.9-1.6,5.4
			C549.3,463.7,545.8,468.8,540,471.4z"/>
		<path class="st7" d="M602.6,394.2c4.9,1.3,10,1.3,15,1.2c2.8,0,4,0.8,3.9,3.8c-0.2,9-0.2,18.1,0,27.1c0.1,2.9-1,3.7-3.6,3.4
			c-0.3,0-0.7,0-1,0c-4.3,0.4-10.1-2-12.4,1c-2.1,2.7-0.7,8.3-0.8,12.6c-0.1,3.8-0.2,7.6-0.3,11.4c-1.3,1-2.7,1.6-4.3,1.6
			c-7.1-0.1-14.2,0.8-21.3,1.1c-5.4,0.2-6.9-1.4-6.9-6.8c-0.1-16.9-0.1-33.8-0.1-50.7c0-2.1,0-4.2,1.3-6c1.4-1.2,3.1-1.4,4.9-1.5
			c6.8-0.1,13.5-0.1,20.3,0C599.2,392.5,601,393.1,602.6,394.2z"/>
		<path class="st8" d="M381.3,512.2c1.7-0.1,4-0.7,4.7,0.9c0.8,1.7,1.7,4.5-2.3,4.6c-2.2,0.1-5.9-1.9-5.7,3.3c0.2,4-0.8,8.2,5.4,7.9
			c1.5-0.1,3.1,0,3.1,2.4c0,2.5-1.8,2-3.2,2.3c-12.3,3.2-24,0.1-35.8-2.6c-38-8.7-76.1-17.2-114.1-25.8c-2.2-0.5-6.2,0.5-5.5-3.6
			c0.6-3.3,4.1-0.9,6-1.8c28.4,6.2,56.8,11.9,85.3,17.8c17.3,3.6,34.6,7.3,51.9,10.7c-24.5-5-48.9-10.1-73.4-15.2
			c-19.5-4-38.9-8.1-58.4-12.1c-1.9-0.4-3.7-0.9-5.2-2.1c-0.1-2.1-0.2-4.2-0.3-6.3c1.7-1.5,3.7-0.7,5.5-0.3
			c28.3,5.4,56.6,10.5,84.9,15.9c12.1,2.3,24.2,4.6,36.3,6.8c1,0.2,2.5,0.7,3,0.2C368.8,509.5,375.4,513.5,381.3,512.2z"/>
		<path class="st9" d="M572.4,394.2c0,18.8,0.1,37.6-0.1,56.4c0,4,0.9,6,5.2,5.3c8.6-1.3,17.3-1,25.9-1.1
			c-3.6,4.4-7.3,8.7-10.9,13.1c-1,1.2-2.1,1.6-3.6,1.6c-10,0.2-20,1.4-30.1,0.9c-0.3-3.6,2.4-5.7,4.4-7.9c3.4-3.9,4.8-8.1,4.7-13.3
			c-0.3-11.3,0.1-22.6-0.2-33.9c-2.8-8.4-12-15.4-20.6-15.6c-2.1,0-4.1-0.1-5.9-1.3c-13.9,0-27.8,0-41.7,0c-0.2-0.2-0.5-0.5-0.7-0.7
			c-1.6-4.7-0.8-9.6-0.7-14.4c0.1-2.4,1.6-3.7,4-4c2.1-0.2,4.1-0.2,6.2-0.2c4-0.1,8.1,0.1,12.1,0.4c1,0,2,0,3,0
			c2,1.1,4.1,0.3,6.1,0.5c2-0.2,4.1,0.4,6.2-0.4c0.1-0.1,0.3-0.2,0.5-0.3c8.3-0.3,16.6-0.5,24.9-0.8
			C566.4,382.5,570.1,387.8,572.4,394.2z"/>
		<path class="st5" d="M500.4,469.4c6.9-0.2,13.8,0.1,20.7,1.2c-8,19.1-21.9,32.4-40.5,40.9c-0.8,0.7-1.3,1.7-2.2,2.2
			c-4.1,2.1-8.5,2.9-12.9,3.9c-2.7,0.6-5.5,0.1-8.2,1.1c-2.8,0.6-5.7-0.2-8.5-0.1c-1.9-0.4-3.8-0.9-5.7-0.1
			c-5.4-0.3-10.4-2.1-15.7-3.1c-10.9-5-21.1-11.2-29.2-20.2c-9.2-10.2-17.1-21.3-22.4-34.1c3.1-0.8,4.4,1.7,5.8,3.4
			c10.8,12.2,22.6,23.5,34,35.1c2.2,2.3,4.6,4.2,7.8,4.7c0.4,0.2,0.7,0.5,1,0.9c1.5,1.8,3.2-0.1,4.8,0.1c2.9,0.7,6.2-0.4,8.6,2.1
			c4.2,0.9,8.3,0.5,12.5-0.2c2.9-0.8,6,0.2,8.8-1.2c1.9-0.9,3.8-1.2,5.9-0.8c2.3,0.7,4.6,0.5,7,0.5c13.3,0,13.3,0,13.3-13.1
			c0-5.7-0.1-11.4,0-17.1c0.1-6.2,0.4-6.6,6.4-6.5C494.5,469.1,497.5,468.5,500.4,469.4z"/>
		<path class="st10" d="M196.4,425.5c1.7,2.1,2.1,4.6,2.1,7.2c1.5,3.7,2.9,7.4,4.7,10.9c0.7,1.3,1.8,2.7,0.3,4.2
			c-6.4-3.8-10.6-9-13.9-16.1c-7.9-17.3-11.4-35-10.4-54.1c0.7-14.4-0.2-28.9-0.7-43.3c-0.1-3.3,1-4.6,4.1-5.2
			c4.6-0.8,9.1-1.9,13.7-2.9c2.1,2.3,1.6,5.2,1.6,7.9c-0.1,17.8,0.6,35.7-0.7,53.5c0.1,1.2,0.1,2.4-0.9,3.3
			c-1.4,4.7-0.2,9.6-0.6,14.4C196.1,412.2,195,418.9,196.4,425.5z"/>
		<path class="st11" d="M284,320c-2.7,0-5.3-0.2-6.6-3.1c-1.1-2.5-0.9-5.2,2.3-5.5c3.1-0.3,3.8-1.7,3.7-4.2
			c-0.1-9.2-0.3-18.4-0.4-27.6c0-2.1-1-2.7-2.9-2.7c-1.7,0-2.6-0.9-2.5-2.6c0.1-1.4,1.1-2.3,2.3-2.4c8.3-0.3,16.6-0.9,24.8,1.1
			c1.2,0.3,2.1,1.2,2,2.7c-0.6,2.6-4.6,1.8-4.9,5.8c2-1.6,3.2-3.5,5.1-4.2c1.6-1.8,3.9-3.3,4.8-5.5c2.4-5.5,8-4.6,12.1-6.8
			c1.3-0.7,7.9,6.3,8,8.7c0.2,3.6,0.1,7.3,0,11c-0.1,2-1.1,1.8-2.3,0.7c-1.4-2.1-0.4-4.6-1-6.9c-0.1-0.5-0.3-0.9-0.3-1
			c-0.1,0.7,0.6,1.8,0.5,2.9c0.3,2-0.5,4-0.1,6c-0.3,2.9,0.1,5.1,3.6,6.2c3.1,1,4,7.3,1.7,9.7c-0.7,0.7-1.7,0.9-2.3,0.4
			c-6.6-5.3-4.1,1.6-4.9,3.7c-0.3,0.9,0,2,0.1,3.1c-2.5,3.6-6,3.3-9.6,2.3c-2.6-2.7-7-3.1-8.5-7.3c-2.2-6.7-1-11.6,4.8-16.8
			c-0.1-1-1-0.8-1.6-0.9c-9.6-1-9.9-0.6-10.1,9.1c-0.1,7.3,0.7,14.6-0.5,21.9c-0.3,0.6-0.7,1-1.2,1.3C295,319.5,289.6,322.6,284,320
			z"/>
		<path class="st12" d="M197.3,387.8c-1.4-1.2-0.9-2.9-0.9-4.4c0-19,0-38.1,0-57.1c4.5-0.1,9-0.1,13.6-0.2c2.6-1.9,5.4-0.5,8.1-0.5
			c9.2,0,18.4-0.3,27.6,0.2c1.1,1.7,2.6,2.2,4.6,2.2c1.5,0,3.4-0.8,4.5,1.2c-11.7,1.6-22.2,6.4-30.4,14.8
			C212.1,356.5,201.3,370.1,197.3,387.8z"/>
		<path class="st13" d="M569.2,414.1c0,12.2-0.3,24.4,0.2,36.5c0.2,5-1.4,8.7-4.4,12.2c-2.1,2.5-4.1,5.1-6.2,7.7
			c-6.2,0.5-12.4,1.4-18.7,0.9c0.4-0.5,0.8-1.2,1.3-1.6c11-7.5,13.8-17.9,12.4-30.7c-0.9-8.3-0.2-16.7-0.2-25
			C558.8,411.4,564,411.7,569.2,414.1z"/>
		<path class="st8" d="M317.4,311.6c3.3,0,6.5-0.7,9.6-1.9c20.9-4.1,41.8-8.1,62.8-12.3c12.4-2.4,24.8-5,37.2-7.5
			c4.9-1,9.7,0.4,14.5,0.8c12.3,0.9,24.5,2.6,36.8,3.4c4.6,0.3,6.1,2,5.3,6.3c-0.1,0.8,0,1.7-0.1,2.6c-9.2-4.9-18.9-7.8-29.2-8.3
			c-2.4-0.8-4.8-0.5-7.2-0.1c-1.8,0.1-3.6,0.2-5.4,0.4c-1.6,1-3.6-0.3-5.2,0.9H436l-0.5,0.1c-1.7,0.7-3.7,0.5-5.4,1.4
			c-2.1,0.7-4.2-0.2-6.3,0.5c-19.3,2.5-38.3,6.5-57.1,11.7c-1.2,0.8-2.4,0.1-3.6-0.2c-1.6-0.7-3.3-0.6-5-0.6s-3.4,0-5.1,0.6
			c-0.5,0.1-1,0.2-1.5,0.3c-2,0.3-4.1,0-6,1c-2.2,0.9-4.5,1.4-6.8,1.3c-1.7,0-3.3-0.2-5,0.4c-1,0.3-2.1,0.7-3,1.3
			c-0.9,0.5-1.6,1.5-2.8,1.3c-5.5,1.5-11,2.9-16.4,4.4c-1,0.3-2,0.9-2.6-0.4C307.2,313,309.9,310.8,317.4,311.6z"/>
		<path class="st14" d="M572.4,394.2c-3.8-5.2-7.7-10.4-11.5-15.6c9.7-0.7,19.2,1.2,28.9,0.9c2.3-0.1,3.4,1.3,4.5,2.9
			c2.8,4,5.6,7.9,8.4,11.8C592.5,394.2,582.4,394.2,572.4,394.2z"/>
		<path class="st15" d="M381.3,512.2c-3.8,2.5-8.1,0.7-12.1,1.2c-1.2,0.2-3.3-0.9-1.9,2.2c0.9,1.9-1.1,1.9-2.6,1.6
			c-18.2-3.4-36.3-6.8-54.5-10.2c-23.8-4.5-47.5-8.9-71.3-13.4c-1.7-0.3-3.4-0.7-5.1-1c-1.3-0.3-2.6-0.5-4-0.8
			c-1.2-0.2-2.4-0.4-2.2-2.1c0.3-2.3,2-1.2,3.1-1.2c3.6-0.2,7.2,0.1,10.8,1c31,6.1,62.1,11.8,93.1,17.4c0.5,0.1,1.1,0.2,1.6,0.3
			c3.4,0.8,6.8,2.1,10.5,1.3c1.1-0.1,2.1,0.2,3,0.7c4.7,1.3,9.3,3.2,14.3,2.1c3.6-0.7,7.3-0.3,10.9,0.1
			C377.1,511.5,379.3,511.2,381.3,512.2z"/>
		<path class="st16" d="M234.1,498.8c47.2,9.7,94.4,19.5,142,29.3c-1.7,2.6-3.2,2.1-4.4,1.8c-40.2-8.5-80.4-17-120.6-25.7
			c-5.8-1.3-12.1-0.8-17.3-4.6C233.9,499.4,234,499.1,234.1,498.8z"/>
		<path class="st17" d="M361.4,491.2c4.4,3.7,8.7,7.8,14.2,9.7c4.2,1.5,4.3,3.4,1.6,6.3c-0.7,0.7-1.4,1.5-2.2,2.2
			c-4.8,0.1-9.7,1.6-14.2-1.4C359.4,502.4,358.4,496.7,361.4,491.2z"/>
		<path class="st8" d="M241.2,490.4c-3.6,0.1-7.1-0.6-10.4-1.9c4.2-2.5,1.1-6.4,1.9-9.6c0-0.7,0-1.4,0.1-2.1c0.4-2.1-1.3-5,1.2-6.1
			c2.8-1.2,5.4,0.2,7.2,2.8c0.9,5.1-0.5,10.4,1.3,15.5C242.5,489.9,242.5,490.7,241.2,490.4z"/>
		<path class="st18" d="M465.8,516.4c4.2-1.3,8.4-2.6,12.6-3.9c2.2,6.6,1.9,7-6.3,11.2c-8.5-1.3-16.9-2.8-25.2-4.9
			c0.4-0.4,0.9-0.6,1.6-0.6c2.9,0,5.7,0,8.6,0C459.7,516.4,463.1,518,465.8,516.4z"/>
		<path class="st19" d="M245.6,325.8c-1,1.7-2.6,1.4-4.1,1.3c-10.5-0.3-21.1,0.7-31.6-1.1c0.4-2,2-2.1,3.6-2.1c9.4,0,18.7,0,28.1,0
			C243.3,324,244.8,324.2,245.6,325.8z"/>
		<path class="st20" d="M472,523.7c0.1-1,0-2.7,1.1-2.6c7.2,0.3,4.8-5,5.2-8.6c0.7-0.3,1.4-0.6,2.1-1c0,3.5-1.6,8,4.5,8
			c1.3,0,1.7,0.9,1.6,2.1c-0.2,1.5-1.4,1.3-2.3,1.3C480.3,523.2,476.1,523.5,472,523.7z"/>
		<path class="st21" d="M361.4,508.2c4.5,0.6,9.3-1.4,13.7,1.2c0.1,0.7-1,1.3-0.1,2c-3.7,2.1-7.7,0.4-11.5,1
			c-1.1,0.7-2.4,0.9-3.1-0.2C359.5,510.8,360.1,509.3,361.4,508.2z"/>
		<path class="st22" d="M284,320c5.6-0.4,11.1-0.9,16.7-1.3c1.3-0.6,2.6-1.2,3,1c-6.6,1.4-13.1,2.9-19.7,4.3
			C284.1,322.6,284.1,321.3,284,320z"/>
		<path class="st23" d="M264.4,327.1c-0.9,1.3-1.6,3-3.5,1c1.6-4-3-2.3-4.4-4.7c4.9-0.7,9.4-0.8,13.9,0
			C269.4,327.1,264.5,322.5,264.4,327.1z"/>
		<path class="st24" d="M203.5,447.9c-0.6-5.4-5.3-9.5-5-15.2c3.6,5.1,6.2,10.7,7.3,16.9C204.6,449.6,204.1,448.6,203.5,447.9z"/>
		<path class="st1" d="M307.1,277.3c-1.2,2.6-3.2,4.4-5.4,6.4c-3-6,1.4-6.8,5.2-8C307,276.2,307.1,276.8,307.1,277.3z"/>
		<path class="st1" d="M329.1,277.7c1.1,2.5,0.9,5.1,0.6,7.7c-0.3,0.4-0.6,0.7-0.9,1.1c-1.2-2.1-0.8-4.3-0.8-6.5
			C328.7,279.4,328.1,278.2,329.1,277.7z"/>
		<path class="st25" d="M448.2,518.4c-0.4,0.1-0.9,0.2-1.3,0.3c-1.3-0.1-2.6-0.2-3.9-0.3c1.5-1.5,3.4-0.8,5.2-0.7
			C448.1,518,448.2,518.2,448.2,518.4z"/>
		<path class="st26" d="M424,505.1c-3.4,0.5-5.8-1-8.2-3.4c-11.9-12.3-24.4-24.2-35.8-37c-1.2-1.4-2.4-3-4.3-3.6
			c-1.2-1.4-1.9-3-1.9-4.9c-2.3-8.7-1.6-17.6-1.1-26.4c0.8-2.4,0.8-4.8,0.8-7.2c0-16.4,0-32.7,0-49.1c0.1-6.2-0.1-12.4,0.1-18.6
			c0.5-1.7,0.2-4.1,3-4.2c4.9,0,9.4,1.6,14.1,2.6c1.7,0.4,3.2,1.2,4,2.9c0.8,2.6,0.5,5.2,0.5,7.8c0,30.1,0,60.2,0,90.3
			c0,2.4,1.7,3.6,3.2,5.1c13,13.3,27.3,25.1,40.3,38.4c1.5,1.5,5,2.9,2.2,6.1C435.4,506,429.7,505.2,424,505.1z"/>
		<path class="st27" d="M363.6,308.1c1,0.4,2.1,0.9,3.1,1.3c1.9,3.3,7.7,4.2,7.1,8.1c-0.5,3.4-4.1,6.3-6.3,9.4
			c-4,5.5-8,10.9-11.8,16.6c-2,3-4.3,4.4-7.8,3.7c-2,1.1-4.4-0.2-6.4,0.8c-1.7,0.1-3.4,0.2-5.1,0.2c-1.7,1-3.7-0.1-5.4,0.8
			c-2,0.1-4,0.2-6.1,0.3c-2.2,0.6-4.3,0.8-6.5-0.1c-3.2-2.3-6.1-5-8.3-8.4c6.6-3.2,14-2.3,21-3.9c3.7-0.7,7.5-0.6,11.2-1.6
			c0.2-0.3,0.5-0.7,0.6-1c0.6-1.1,1.3-2.2,1.7-3.3c0.6-1.3,1.4-2.3,2.4-3.3c1.2-1.1,2.2-2.3,2.8-3.9c0.5-1.3,1.4-2.3,2.3-3.3
			c1.3-1.2,2.4-2.5,3-4.2c0.5-1.2,1.4-2.3,2.3-3.2c1.3-1.2,2.3-2.7,3.5-4C361.8,308.4,362.7,308.3,363.6,308.1z"/>
		<path class="st28" d="M358.2,313.6c-0.7,1-1.4,2.1-2.1,3.1c-1,1.5-2.2,2.7-3.1,4.2c-0.7,1-1.4,2.1-2.1,3.1c-1,1.5-2.2,2.7-3.1,4.2
			c-0.7,1-1.4,2.1-2.1,3.1c-0.7,1.1-1.7,1.9-2.1,3.2c0,0.3,0,0.6,0,0.9c-3.7,0.8-7.3,1.8-11.2,1.6c-4.9,1.1-9.8,1.6-14.7,2.1
			c-3.3,0.4-3.9-1-3.4-3.8c4.6-6.6,9.2-13.2,13.8-19.9c3.9-3.3,9.3-2.3,13.6-4.6c1.6-0.2,3.2-0.7,4.8-0.8c2.1-0.4,4.2,0,6.3-0.7
			c1.8-0.5,3.6-0.5,5.3-0.9c0.8-0.1,1.5,0,2.2,0.4C361.1,311.2,358.7,312,358.2,313.6z"/>
		<path class="st5" d="M373.9,429.8c-0.1,8.8-0.1,17.6-0.2,26.5c-5-8.9-7.5-18.7-9.1-28.7c0.6-2.7,0.3-5.4-0.2-8.1
			c-0.9-4.3-1.6-8.5,0.7-12.7c1.4-2.4,0.9-5.1-0.4-7.5c-1.2-2.3-1.8-4.7-1.1-7.1c2.1-7.3,0.9-15.3,4.4-22.3c0.4-0.8,0.3-2.1-0.3-3
			c1.2-4.8,2.4-9.6,5-13.9c1,0.3,1.5,1.1,1.7,2.1c0.1,6.1,0,12.3,0,18.4c0,17,0,34,0,51C374.4,426.4,374.8,428.1,373.9,429.8z"/>
		<path class="st29" d="M242.3,489.4c-0.9-0.2-1.9-0.5-1.9-1.4c0.2-4.8-1.4-9.8,0.9-14.4c5.1,4,10.3,8,16.4,10.4
			c0.1,1.4-1.3,2-1.6,3.5c14.2,2.9,28.5,5.2,42.8,7.8c15.3,2.8,30.7,5.4,46,8.3c2.4,0.4,4.8,0.7,6.6,2.7c0.5,2.3,1.1,4.5-2.6,4
			c-0.5-0.8-1.2-1-2.1-1c-3.6,1.2-6.9-0.9-10.4-1.1l0,0c-29.4-5.8-58.8-11.3-88.2-16.8C246.1,491,244,490.7,242.3,489.4z"/>
		<path class="st1" d="M317.4,311.6c-1,0.3-1.9,0.8-2.9,0.9c-4,0.2-6.3,1.9-5.5,6.3c-0.9,0-1.9,0-2.8,0c-1.6-0.2-3.3-0.2-4.8-1
			c-0.1-9.8-0.2-19.5-0.2-29.3c0-1.6,0-3.3,2.3-3.2c5,0.2,10-0.4,15.9,2c-4.1,1.2-7.3,2.4-8.8,5.7c-1.4,3.1-1,6.4-0.7,9.7
			c0.3,3.4,1.8,5.3,5,5.4C317.5,308.3,317.7,309.6,317.4,311.6z"/>
		<path class="st8" d="M350.8,506c0-1-0.1-2-0.1-2.9c0-3.6,0-7.2,0.2-10.8c0.1-1.7-1.2-4.2,1.4-4.8c2.2-0.4,4.8-1.1,6.8,1
			c0.8,0.9,1.5,1.8,2.3,2.7c0,5.7,0,11.4-0.1,17c0.6,1.4-2.2,4.5,2,4.2c-5.2,1.6-9.8-0.8-14.6-2.1
			C351.7,509.9,350.7,507.7,350.8,506z"/>
		<path class="st5" d="M367.7,366.9c1.6,1.8,2,3.1,0.7,5.8c-2.1,4.1-4.2,8.8-1.7,13.7c0.1,0.3,0.4,0.8,0.2,0.9
			c-4.9,5.1-1.3,9.9,0.4,14.8c0.8,2.3-0.4,4.5-1.4,6.4c-2,3.6-2,7-0.3,10.8c1.3,2.8,0.1,5.6-1,8.2c-1.1-3.7-1.5-7.4-1.2-11.2
			c-1-2.1,0.2-4.4-0.8-6.4c0-0.4,0-0.8,0-1.2c0.6-3.1,0.6-6.2,0-9.3c0-0.4,0-0.8,0-1.2c1-2.4-0.3-5,0.8-7.4
			C363.4,382.6,365.3,374.7,367.7,366.9z"/>
		<path class="st30" d="M373.9,354.4c-0.4-0.4-0.8-0.9-1.2-1.3c0.1-2.3,1.3-4.1,2.4-6c0.8,1.3,0.5,2.6,3.4,2.4
			c9.1-0.7,18.4-0.3,28.8-0.3c-3.1,1.5-5.3,0.7-7.3,1c-2.3,2.2-5.2,1.5-7.9,1.6c-5,0.1-10,0.1-15-0.5c-2.2,0-2,1.6-2.1,3.1
			C374.6,354.9,374.2,354.9,373.9,354.4z"/>
		<path class="st31" d="M314.3,335.5c0.5,3.9,3.3,3.4,5.8,3c4-0.5,8-1.3,12-2c0.4,0.2,0.5,0.5,0.4,0.7s-0.2,0.3-0.4,0.3
			c-7.1,2.1-14.4,2.5-21.8,3.1C311.7,339,313,337.2,314.3,335.5z"/>
		<path class="st32" d="M341.5,311.5c-0.5,3.2-3.3,1.9-5,2.4c-2.7,0.9-5.6,1.2-8.5,1.8c0-0.3-0.1-0.6,0-0.9c0.7-0.7,1.4-1.4,2.1-2.1
			C333.9,311.8,337.6,310.8,341.5,311.5z"/>
		<path class="st33" d="M196.4,425.5c-2.4-4.7-0.6-9.8-1.1-14.7c-0.2-2.1,0-4.2,0-6.2c0.3-0.5,0.6-0.5,0.9,0
			C196.2,411.6,196.3,418.6,196.4,425.5z"/>
		<path class="st34" d="M196.1,404.6c-0.3,0-0.6,0-0.9,0c0-4.8,0-9.6,0-14.3c0-0.1,0.2-0.2,0.4-0.3c0.2,0.4,0.5,0.7,0.7,1.1
			C196.3,395.6,196.2,400.1,196.1,404.6z"/>
		<path class="st35" d="M362.5,399.4c1.4,3.1,1.4,6.2,0,9.3C362.5,405.6,362.5,402.5,362.5,399.4z"/>
		<path class="st36" d="M423.8,297.7c1.9-1.3,4.2-0.8,6.3-1.1c1.1-0.4,1.3,0.1,1,1c-1.7,0.4-3.4,0.8-5.1,1.2
			C425.3,298.4,424.6,298.1,423.8,297.7z"/>
		<path class="st37" d="M301.3,317.7c1.5,0.7,3.5-0.9,4.8,1c-0.6,0.8-1.4,1.1-2.4,0.9c-0.8-1-2-0.6-3-1
			C300.9,318.3,301.1,318,301.3,317.7z"/>
		<path class="st5" d="M363.4,390.8c-0.3,2.5,0.9,5.1-0.8,7.4C362.6,395.8,361.9,393.2,363.4,390.8z"/>
		<path class="st5" d="M362.5,409.9c1.7,2,0.6,4.3,0.8,6.4C361.9,414.3,362.5,412.1,362.5,409.9z"/>
		<path class="st27" d="M318.6,349.1c2.2,0,4.3,0.1,6.5,0.1C322.9,350.2,320.7,350.9,318.6,349.1z"/>
		<path class="st27" d="M341.6,347.9c2-1.6,4.3-0.6,6.4-0.8C345.9,348.4,343.7,348,341.6,347.9z"/>
		<path class="st27" d="M331.1,348.9c1.6-1.5,3.6-0.7,5.4-0.8C334.8,349.3,333,349,331.1,348.9z"/>
		<path class="st38" d="M494.1,400c-3.5,0.1-7,0.3-10.5,0.4c-1.2,10-0.5,20-0.3,30c0.2,6.9,1.1,13.8-0.6,20.6c-3.9,1-7-0.3-9.1-5.1
			c-3.4-7.6-8-14.8-8.1-23.5c-0.3-8.7,0.1-17.4-0.2-26.1c0.6-12.6,8.7-22,14.2-32.5c2.8-0.5,5.3-2.4,8.3-2.1c3,1.3,6.4-0.4,9.4,1
			c2.8,1,5.5,2.1,8.3,3.1c4.3,1.8,6.7,6,10.5,8.4c1.4,1.5,2.8,3,3.3,5.1c-3.4,1.3-6.9,0.3-10.4,0.6c-10.2,0-10.2,0-10.2,10.4
			c0,2.3,0,4.5,0,6.8C498.4,400,494.9,397.9,494.1,400z"/>
		<path class="st9" d="M466.8,423.6c0,7,4.3,12.5,6.4,18.7c1.5,4.3,3.9,7.6,8.3,9.3c1.4-0.1,2.2,0.6,2.5,1.9c0.4,4.6-0.6,9.4,0.6,14
			c0.3,0.3,0.7,0.7,1,1c1.1,11.6,0.2,23.2,0.5,34.9c0,1.9-1.1,2.3-2.7,2.3c-4,0-7.9,1.1-11.9,1c-2.3-0.2-4.6,0.5-6.8-0.4
			c-1.8-0.2-3.6,0-5.2,1c-4.8,1.1-9.9,0.1-14.7,1.4c-2.4,0-4.9,0.7-7.3-0.4c-2.9-1.9-6.5-0.6-9.5-2c-1.4,0.6-2.8,0.7-4.1-0.1
			c0-0.3,0-0.6,0-1c5.8-1.9,12-1,17.9-2.2c4.4-2.4,9.3-2.2,14.1-2.5c6.7-0.5,13.4-1.1,20.1-1.7c3.8,0,5.1-2,5-5.7
			c-0.2-8.2,0.1-16.3-0.2-24.5c-3.3-9.2-8-17.8-12.7-26.3c-4.5-8.2-6.9-16.6-6-25.9c0.3-3.1,0.3-6.3-0.7-9.3
			c-0.4-5.7-0.5-11.4,0-17.2c3.4-8.6,7.6-16.8,11.4-25.1c1.5-3.3,1.5-4.8-2.9-4.9c-6.2-0.1-12.4-1.3-18.7-0.9
			c-4.6-0.2-9.2,0.3-13.8-0.4c-3.2-1.1-6.6-0.7-9.8-0.6c-10.8,0.5-21.5-0.7-32.3-1.5c-0.6-0.3-1.2-0.6-1.6-1
			c-5.5-1.6-11.4-2-16.8-4.2c7.6-1.6,15.3-0.9,23-1.1c2.6,2,5.6,0.6,8.4,1c5.2-0.7,10.4-0.8,15.6,0.1c2.6,2,5.6,0.6,8.4,1
			c5.2-0.7,10.4-0.8,15.6,0.1c2.6,2,5.6,0.6,8.4,1c5.2-0.7,10.4-0.8,15.6,0.1c2.6,2,5.6,0.6,8.4,1c1.3-0.3,2.8-1.4,3.1,1.1
			c-2.3,2.4-2.4,5.8-4.1,8.5c-1.2,3.6-3.3,7-3,11.1c-6.5,1.9-5.3,9-8.6,13c-1.7,2.1,1.1,5.5-2,7.3c0.9,7.6,0.1,15.2,0.4,22.7
			C466.4,419.9,465.9,421.8,466.8,423.6z"/>
		<path class="st39" d="M424,351.2c-5.2,0-10.4,0-15.6-0.1c7.2-2.2,14.5-0.3,21.8,0.1C428.1,351.2,426,351.2,424,351.2z"/>
		<path class="st39" d="M448,352.3c-5.2,0-10.4,0-15.6-0.1c7.2-2.2,14.5-0.3,21.8,0.1C452.1,352.3,450.1,352.3,448,352.3z"/>
		<path class="st40" d="M472,353.3c-5.2,0-10.4,0-15.6-0.1c7.2-2.2,14.5-0.3,21.8,0.1C476.2,353.3,474.1,353.3,472,353.3z"/>
		<path class="st41" d="M516,374.2c-4.6-1.3-6.8-5.9-10.5-8.4C510.5,366.7,513,370.8,516,374.2z"/>
		<path class="st42" d="M508.6,379.5c3.5,0,7-0.1,10.6-0.1c0.3,0,0.7,0.1,1,0.1c-3.7,2.3-7.7,0.6-11.6,1c-0.3-0.2-0.5-0.4-0.3-0.7
			C508.4,379.6,508.5,379.5,508.6,379.5z"/>
		<path class="st43" d="M497.2,362.8c-3.1-0.5-6.4,1-9.4-1C490.9,362,494.2,360.6,497.2,362.8z"/>
		<path class="st44" d="M483.5,355.4c-0.7-1.2-2-1-3.1-1.1c1.3-1.3,2.8-1.4,4.3-0.4c0.2,0.1-0.2,1.1-0.4,1.7c0,0.1-0.3,0.1-0.5,0.1
			C483.8,355.6,483.7,355.5,483.5,355.4z"/>
		<path class="st45" d="M447.1,294.5c2.4-1.1,4.8-1.4,7.2,0.1C451.9,294.6,449.5,294.5,447.1,294.5z"/>
		<path class="st46" d="M529.5,380.4c-2.1-0.2-4.5,1-6.3-0.9c2.1,0,4.2,0,6.3,0.1c0.3,0.2,0.4,0.4,0.3,0.6
			C529.8,380.3,529.6,380.4,529.5,380.4z"/>
		<path class="st47" d="M529.5,380.4c0-0.3,0-0.6,0-0.9c2,0,4,0.1,6,0.1C533.7,381.3,531.5,380.3,529.5,380.4z"/>
		<path class="st48" d="M431.1,297.6c-0.3-0.3-0.6-0.7-1-1c1.6-1.3,3.5-0.8,5.3-0.8C434.3,297.2,432.6,297,431.1,297.6z"/>
		<path class="st49" d="M436.5,295.7c1.5-1.5,3.4-0.9,5.2-0.9C440.2,296.4,438.2,295.5,436.5,295.7z"/>
		<path class="st50" d="M569.2,414.1c-5.2,0-10.4,0-15.6,0c-4.2-5.2-8.4-10.5-12.6-15.7c0.9,0,1.7,0.1,2.6,0
			C556.8,395.9,562.9,405.1,569.2,414.1z"/>
		<path class="st51" d="M471,506.1c4-0.2,7.8-1.4,11.8-1.1c3.3,0.2,2.8-2.3,2.8-4.4c0-10.7,0-21.5,0-32.2c4.9,0.4,9.9-0.9,14.7,1
			c-13.7,0.2-13.7,0.2-13.7,14c0,6.3,0,12.5,0,18.8c0,2.4-0.4,3.7-3.3,4.1c-4.1,0.6-8.2,1.1-12.4,0.9c-0.3-0.2-0.5-0.5-0.3-0.7
			C470.8,506.2,470.9,506.1,471,506.1z"/>
		<path class="st52" d="M483.5,452.7c-0.7-0.4-1.3-0.7-2-1.1c1.3-2,1-4.3,1-6.6c0-14.5,0-29,0-43.5c0-0.3,0.1-0.7,0.2-0.9
			c0.1-0.1,0.6,0,0.8,0c0,9.7,0,19.5,0,29.2C484.3,437.4,484.5,445,483.5,452.7z"/>
		<path class="st53" d="M483.5,452.7c0-7.7,0.1-15.3,0.1-23c1.6,1.6,0.9,3.6,0.9,5.5c0.1,10.8,0,21.5,0.1,32.3
			C482.4,462.6,484.1,457.6,483.5,452.7z"/>
		<path class="st54" d="M494.1,400c0.5-2.5,2.6-1.4,4.1-1.7c0.4-0.5,0.7-0.5,1,0.1h0.2C498,400.1,495.8,399.2,494.1,400z"/>
		<path class="st55" d="M499.1,398.3c-0.3,0-0.6,0-1-0.1c0-4.5,0.3-8.9-0.1-13.4c-0.3-4.2,1-6.1,5.4-5.5c1.7,0.2,3.4,0,5.1,0
			c0,0.3,0,0.7,0,1c-9.4,0.3-9.4,0.3-9.4,9.6C499.2,392.9,499.2,395.6,499.1,398.3z"/>
		<path class="st56" d="M444.9,508.2c4.8-2.1,9.8-0.6,14.7-1.1c-2.9,2.1-6.3,0.6-9.4,1.1C448.4,509,446.6,509,444.9,508.2z"/>
		<path class="st57" d="M444.9,508.2c1.8,0,3.5,0,5.3,0c-4,2.1-8.3,0.8-12.5,0.8c-0.1,0-0.2-0.2-0.2-0.4c0-0.2,0.1-0.3,0.2-0.5
			C440,508.2,442.5,508.2,444.9,508.2z"/>
		<path class="st58" d="M465.8,516.4c-2.4,2.2-5.7,1-8.4,2.2c-0.3-0.2-0.4-0.5-0.3-0.7s0.2-0.4,0.3-0.4
			C460,515.9,463,516.9,465.8,516.4z"/>
		<path class="st59" d="M457.4,517.5c0,0.4,0,0.7,0,1.1c-3.1-0.1-6.1-0.1-9.2-0.2c-0.1-0.2-0.1-0.4-0.1-0.7
			C451.2,517.7,454.3,517.6,457.4,517.5z"/>
		<path class="st60" d="M471,506.1c0,0.3,0,0.7,0,1c-2.1-0.3-4.4,0.8-6.2-1C466.9,506.2,469,506.2,471,506.1z"/>
		<path class="st61" d="M424,506.1c1.4,0,2.7,0.1,4.1,0.1C426.8,507.2,425.4,508.3,424,506.1z"/>
		<path class="st1" d="M307.4,281.6c2.9-3.3,5.1-6,7.4-8.5c1-1.1,1.9-3.3,3.4-2.6c1.8,0.8,3.4,2.6,3.4,4.8c0,2.4-0.5,4.8-0.9,7.2
			c-0.3,1.7-1.5,1.5-2.8,1.3C314.8,283.1,311.6,282.5,307.4,281.6z"/>
		<path class="st1" d="M329.1,277.7c-0.3,0.8-0.7,1.5-1,2.3c-0.3-2.3-0.7-4.7-1.2-8.4C329.6,274.2,329,276,329.1,277.7z"/>
		<path class="st62" d="M341.5,311.5c-3.8,0.9-7.5,1.6-11.4,1.3c1-0.5,2-0.9,3-1.4c1.7-1,3.7,0.2,5.4-0.9c2.4-0.4,4.7-0.7,7.1-1.1
			c1.7-1,3.5-0.3,5.3-0.5c0.5,0,1,0.2,1.4,0.6c0.1,0.5-0.1,1-0.5,1.3c-1.6,0.5-3.5-0.5-5.1,0.7C345,311.5,343.3,311.5,341.5,311.5z"
			/>
		<path class="st62" d="M360.3,309.4c-0.7,0-1.4,0-2.1,0c-2.1,0.8-4.2,0.7-6.2,0.1l-0.3-0.3l-0.1-0.5l0.4-0.3c0.3,0,0.6,0,0.9-0.1
			c1.7-1,3.8,0.2,5.5-0.9c1.8,0.3,3.7-0.7,5.3,0.8c-0.5,0.9-1.3,1.2-2.2,1.3C361,309.9,360.7,309.9,360.3,309.4z"/>
		<path class="st63" d="M352,308.3c-0.1,0.3-0.2,0.5-0.3,0.8c-2,0.1-4.1,0.2-6.1,0.2C347.5,307.6,349.9,308.5,352,308.3z"/>
		<path class="st64" d="M338.5,310.4c-1.6,1.4-3.5,0.9-5.4,0.9C334.7,309.9,336.7,310.5,338.5,310.4z"/>
		<path class="st65" d="M358.4,307.3c-1.6,1.5-3.6,0.9-5.5,0.9C354.5,306.8,356.5,307.4,358.4,307.3z"/>
		<path class="st66" d="M242.3,489.4c24.3,4.7,48.7,9.3,73,14.1c7,1.4,14.3,1.8,21,4.7c-10.5-0.7-20.7-3.4-31-5.2
			c-20.6-3.7-41.2-7.7-61.8-11.6c-0.8-0.1-1.5-0.7-2.3-1C241.6,490.1,241.9,489.7,242.3,489.4z"/>
		<path class="st67" d="M336.3,508.2c3.6-0.6,6.9,1.2,10.4,1.1C343,511.5,339.7,509.2,336.3,508.2z"/>
		<path class="st38" d="M476.3,499.9c-4.5,2.1-9.5,0.8-14.2,1.7c-6.6,1.2-13.4,0.9-20.1,1.3c-9.5-10.6-20.5-19.7-30.8-29.5
			c-5.8-5.5-11.5-11.1-17.2-16.6c0.7-1.9,0.4-3.8,0.4-5.7c0-30,0-60,0-89.9c0-1.9-0.5-3.8,0.5-5.7c13.5,0.3,27.1,0.7,40.6,1.1
			c0.8,0,1.6,0.6,2.4,0.9c-2.3,1.2-4.7,0.1-6.8,0.7c6.9-0.4,14.1,0.5,21.2-0.5c8.1-0.7,16.1,1.4,24.9,0.9
			c-4.7,10.6-9,20.8-14.3,30.4c-1.5,6.5-0.2,13-0.6,19.5c0,0.1-0.1,0.2-0.2,0.3c0.6-0.1,0.3-0.9,0.8-1.1c2,4.7,0.9,9.6,0.9,14.3
			c-0.1,5.4,1.1,10.1,3.6,14.8c5.3,10.1,10.2,20.4,15.2,30.7c-0.9,8.3-0.5,16.6-0.3,24.9C482.2,497.1,481.4,499.9,476.3,499.9z"/>
		<path class="st52" d="M394.8,355.5c0,32.1,0,64.2,0,96.3c0,1.7,0.6,3.5-0.9,4.9c0-33.8-0.1-67.6-0.1-101.4
			C394.1,355.4,394.4,355.4,394.8,355.5z"/>
		<path class="st68" d="M373.9,429.8c0-18.9,0-37.7,0-56.6c0.3-0.5,0.6-0.5,1,0c0,17.6,0,35.1,0,52.7
			C374.9,427.2,375.1,428.7,373.9,429.8z"/>
		<path class="st69" d="M374.9,373.2c-0.3,0-0.6,0-1,0c0-6.3,0-12.6,0-18.8c0.3,0,0.7,0,1,0C374.9,360.6,374.9,366.9,374.9,373.2z"
			/>
		<path class="st70" d="M332.1,337.6c0-0.3,0-0.7,0-1c3.8-0.4,7.7-0.7,11.5-1.1C340.1,338,336.1,337.6,332.1,337.6z"/>
		<path class="st71" d="M347.8,328.2c0.1-2.1,1.4-3.3,3.1-4.2C350.8,326.1,349.4,327.3,347.8,328.2z"/>
		<path class="st71" d="M353,320.9c0.1-2.1,1.4-3.3,3.1-4.2C356,318.8,354.7,319.9,353,320.9z"/>
		<path class="st71" d="M360.3,309.4c0.4,0,0.7,0,1.1,0c-0.1,2.1-1.5,3.3-3.2,4.2C358,311.7,359.7,310.8,360.3,309.4z"/>
		<path class="st72" d="M343.6,334.5c-1.1-2.2,1.2-2.3,2.1-3.2C345.7,332.8,345,333.9,343.6,334.5z"/>
		<path class="st73" d="M346.7,311.4c1.5-1.8,3.5-0.8,5.2-1c0.3-0.5,0.7-0.4,1,0C351.2,312.3,348.8,311.1,346.7,311.4z"/>
		<path class="st74" d="M353,310.4c-0.3,0-0.7,0-1,0c0-0.3,0-0.7,0-1c2.1,0,4.2,0,6.2-0.1C356.8,311.1,354.8,310.2,353,310.4z"/>
		<path class="st52" d="M466.8,423.6c-2.1-3.9-0.8-8.1-0.9-12.2c-0.2-5.4,0-10.8,0.1-16.1c2,5,0.6,10.2,0.9,15.3
			C467,414.9,466.8,419.3,466.8,423.6z"/>
		<path class="st52" d="M476.3,499.9c5.3-0.9,5.3-4.5,5.3-8.9c0.1-7.8-1.3-15.8,0.8-23.6c0,8.8-0.2,17.6,0.3,26.4
			C482.9,499.1,481,500.7,476.3,499.9z"/>
		<path class="st75" d="M462.7,407.6c0,1.3,0,2.7,0,4c-0.3-7.6-2.6-15.2,0.1-22.8C462.8,395.1,462.7,401.4,462.7,407.6z"/>
		<path class="st76" d="M452.2,357.6c-7.6,2.1-15.2,0.3-22.8-0.2c2.8,0,5.6,0,8.4,0C442.5,357.5,447.3,357.6,452.2,357.6z"/>
	</g>
</g>
</svg>
