<?xml version="1.0" encoding="utf-8"?>
<!-- Generator: Adobe Illustrator 23.0.0, SVG Export Plug-In . SVG Version: 6.00 Build 0)  -->
<svg version="1.1" xmlns="http://www.w3.org/2000/svg" xmlns:xlink="http://www.w3.org/1999/xlink" x="0px" y="0px"
	 viewBox="0 0 800 800" style="enable-background:new 0 0 800 800;" xml:space="preserve">
<style type="text/css">
	.st0{fill:#333333;}
	.st1{opacity:0.4;clip-path:url(#SVGID_2_);}
	.st2{fill:#707273;}
	.st3{fill:#F1D59D;}
	.st4{fill:#FFFEF4;}
</style>
<g id="Layer_2">
	<circle class="st0" cx="400" cy="400" r="400"/>
</g>
<g id="Layer_1_copy">
	<g>
		<defs>
			<circle id="SVGID_1_" cx="400" cy="400" r="400"/>
		</defs>
		<clipPath id="SVGID_2_">
			<use xlink:href="#SVGID_1_"  style="overflow:visible;"/>
		</clipPath>
		<path class="st1" d="M830.9,428.3c-4.3-6.3-9.2-12.1-14.5-17.3c-0.3-0.3-0.7-0.7-1-1c-0.3-0.3-0.7-0.7-1-1c-0.3-0.3-0.7-0.7-1-1
			c-0.3-0.3-0.7-0.7-1-1c-0.3-0.3-0.7-0.7-1-1c-0.3-0.3-0.7-0.7-1-1c-0.3-0.3-0.7-0.7-1-1c-0.3-0.3-0.7-0.7-1-1
			c-0.3-0.3-0.7-0.7-1-1c-0.3-0.3-0.7-0.7-1-1c-0.3-0.3-0.7-0.7-1-1c-0.3-0.3-0.7-0.7-1-1c-0.3-0.3-0.7-0.7-1-1
			c-0.3-0.3-0.7-0.7-1-1c-0.3-0.3-0.7-0.7-1-1c-0.3-0.3-0.7-0.7-1-1c-0.3-0.3-0.7-0.7-1-1c-0.3-0.3-0.7-0.7-1-1
			c-0.3-0.3-0.7-0.7-1-1c-0.3-0.3-0.7-0.7-1-1c-0.3-0.3-0.7-0.7-1-1c-0.3-0.3-0.7-0.7-1-1c-0.3-0.3-0.7-0.7-1-1
			c-0.3-0.3-0.7-0.7-1-1c-0.3-0.3-0.7-0.7-1-1c-0.3-0.3-0.7-0.7-1-1c-0.3-0.3-0.7-0.7-1-1c-0.3-0.3-0.7-0.7-1-1
			c-0.3-0.3-0.7-0.7-1-1c-0.3-0.3-0.7-0.7-1-1c-0.3-0.3-0.7-0.7-1-1c-0.3-0.3-0.7-0.7-1-1c-0.3-0.3-0.7-0.7-1-1
			c-0.3-0.3-0.7-0.7-1-1c-0.3-0.3-0.7-0.7-1-1c-0.3-0.3-0.7-0.7-1-1c-0.3-0.3-0.7-0.7-1-1c-0.3-0.3-0.7-0.7-1-1
			c-0.3-0.3-0.7-0.7-1-1c-0.3-0.3-0.7-0.7-1-1c-0.3-0.3-0.7-0.7-1-1c-0.3-0.3-0.7-0.7-1-1c-0.3-0.3-0.7-0.7-1-1
			c-0.3-0.3-0.7-0.7-1-1c-0.3-0.3-0.7-0.7-1-1c-0.3-0.3-0.7-0.7-1-1c-0.3-0.3-0.7-0.7-1-1c-0.3-0.3-0.7-0.7-1-1
			c-0.3-0.3-0.7-0.7-1-1c-0.3-0.3-0.7-0.7-1-1c-0.3-0.3-0.7-0.7-1-1c-0.3-0.3-0.7-0.7-1-1c-0.3-0.3-0.7-0.7-1-1
			c-0.3-0.3-0.7-0.7-1-1c-0.3-0.3-0.7-0.7-1-1c-0.3-0.3-0.7-0.7-1-1c-0.3-0.3-0.7-0.7-1-1c-0.3-0.3-0.7-0.7-1-1
			c-0.3-0.3-0.7-0.7-1-1c-0.3-0.3-0.7-0.7-1-1c-0.3-0.3-0.7-0.7-1-1c-0.3-0.3-0.7-0.7-1-1c-0.3-0.3-0.7-0.7-1-1
			c-0.3-0.3-0.7-0.7-1-1c-0.3-0.3-0.7-0.7-1-1c-0.3-0.3-0.7-0.7-1-1c-0.3-0.3-0.7-0.7-1-1c-0.3-0.3-0.7-0.7-1-1
			c-0.3-0.3-0.7-0.7-1-1c-0.3-0.3-0.7-0.7-1-1c-0.3-0.3-0.7-0.7-1-1c-0.3-0.3-0.7-0.7-1-1c-0.3-0.3-0.7-0.7-1-1
			c-0.3-0.3-0.7-0.7-1-1c-0.3-0.3-0.7-0.7-1-1c-0.3-0.3-0.7-0.7-1-1c-0.3-0.3-0.7-0.7-1-1c-0.3-0.3-0.7-0.7-1-1
			c-0.3-0.3-0.7-0.7-1-1c-0.3-0.3-0.7-0.7-1-1c-0.3-0.3-0.7-0.7-1-1c-0.3-0.3-0.7-0.7-1-1c-0.3-0.3-0.7-0.7-1-1
			c-0.3-0.3-0.7-0.7-1-1c-0.3-0.3-0.7-0.7-1-1c-0.3-0.3-0.7-0.7-1-1c-0.3-0.3-0.7-0.7-1-1c-0.3-0.3-0.7-0.7-1-1
			c-0.3-0.3-0.7-0.7-1-1c-0.3-0.3-0.7-0.7-1-1c-0.3-0.3-0.7-0.7-1-1c-0.3-0.3-0.7-0.7-1-1c-0.3-0.3-0.7-0.7-1-1
			c-0.3-0.3-0.7-0.7-1-1c-0.3-0.3-0.7-0.7-1-1c-0.3-0.3-0.7-0.7-1-1c-0.3-0.3-0.7-0.7-1-1c-0.3-0.3-0.7-0.7-1-1
			c-0.3-0.3-0.7-0.7-1-1c-0.3-0.3-0.7-0.7-1-1c-0.3-0.3-0.7-0.7-1-1c-0.3-0.3-0.7-0.7-1-1c-0.3-0.3-0.7-0.7-1-1
			c-0.3-0.3-0.7-0.7-1-1c-0.3-0.3-0.7-0.7-1-1c-0.3-0.3-0.7-0.7-1-1c-0.3-0.3-0.7-0.7-1-1c-0.3-0.3-0.7-0.7-1-1
			c-0.3-0.3-0.7-0.7-1-1c-0.3-0.3-0.7-0.7-1-1c-0.3-0.3-0.7-0.7-1-1c-0.3-0.3-0.7-0.7-1-1c-0.3-0.3-0.7-0.7-1-1
			c-0.3-0.3-0.7-0.7-1-1c-0.3-0.3-0.7-0.7-1-1c-0.3-0.3-0.7-0.7-1-1c-0.3-0.3-0.7-0.7-1-1c-0.3-0.3-0.7-0.7-1-1
			c-0.3-0.3-0.7-0.7-1-1c-0.3-0.3-0.7-0.7-1-1c-0.3-0.3-0.7-0.7-1-1c-0.3-0.3-0.7-0.7-1-1c-0.3-0.3-0.7-0.7-1-1
			c-0.3-0.3-0.7-0.7-1-1c-0.3-0.3-0.7-0.7-1-1c-0.3-0.3-0.7-0.7-1-1c-0.3-0.3-0.7-0.7-1-1c-0.3-0.3-0.7-0.7-1-1
			c-0.3-0.3-0.7-0.7-1-1c-0.3-0.3-0.7-0.7-1-1c-0.3-0.3-0.7-0.7-1-1c-0.3-0.3-0.7-0.7-1-1c-0.3-0.3-0.7-0.7-1-1
			c-0.3-0.3-0.7-0.7-1-1c-0.3-0.3-0.7-0.7-1-1c-0.3-0.3-0.7-0.7-1-1c-0.3-0.3-0.7-0.7-1-1c-0.3-0.3-0.7-0.7-1-1
			c-0.3-0.3-0.7-0.7-1-1c-0.3-0.3-0.7-0.7-1-1c-0.3-0.3-0.7-0.7-1-1c-0.3-0.3-0.7-0.7-1-1c-0.3-0.3-0.7-0.7-1-1
			c-0.3-0.3-0.7-0.7-1-1c-0.3-0.3-0.7-0.7-1-1c-0.3-0.3-0.7-0.7-1-1c-0.3-0.3-0.7-0.7-1-1c-0.3-0.3-0.7-0.7-1-1
			c-0.3-0.3-0.7-0.7-1-1c-0.3-0.3-0.7-0.7-1-1c-0.3-0.3-0.7-0.7-1-1c-0.3-0.3-0.7-0.7-1-1c-0.3-0.3-0.7-0.7-1-1
			c-0.3-0.3-0.7-0.7-1-1c-0.3-0.3-0.7-0.7-1-1c-0.3-0.3-0.7-0.7-1-1c-0.3-0.3-0.7-0.7-1-1c-0.3-0.3-0.7-0.7-1-1
			c-0.3-0.3-0.7-0.7-1-1c-0.3-0.3-0.7-0.7-1-1c-0.3-0.3-0.7-0.7-1-1c-0.3-0.3-0.7-0.7-1-1c-0.3-0.3-0.7-0.7-1-1
			c-0.3-0.3-0.7-0.7-1-1c-0.3-0.3-0.7-0.7-1-1c-0.3-0.3-0.7-0.7-1-1c-0.3-0.3-0.7-0.7-1-1c-0.3-0.3-0.7-0.7-1-1
			c-0.3-0.3-0.7-0.7-1-1c-0.3-0.3-0.7-0.7-1-1c-0.3-0.3-0.7-0.7-1-1c-0.3-0.3-0.7-0.7-1-1c-0.3-0.3-0.7-0.7-1-1
			c-0.3-0.3-0.7-0.7-1-1c-0.3-0.3-0.7-0.7-1-1c-0.3-0.3-0.7-0.7-1-1c-0.3-0.3-0.7-0.7-1-1c-0.3-0.3-0.7-0.7-1-1
			c-0.3-0.3-0.7-0.7-1-1c-0.3-0.3-0.7-0.7-1-1c-0.3-0.3-0.7-0.7-1-1c-0.3-0.3-0.7-0.7-1-1c-0.3-0.3-0.7-0.7-1-1
			c-0.3-0.3-0.7-0.7-1-1c-0.3-0.3-0.7-0.7-1-1c-0.3-0.3-0.7-0.7-1-1c-0.3-0.3-0.7-0.7-1-1c-0.3-0.3-0.7-0.7-1-1
			c-0.3-0.3-0.7-0.7-1-1c-0.3-0.3-0.7-0.7-1-1c-0.3-0.3-0.7-0.7-1-1c-0.3-0.3-0.7-0.7-1-1c-0.3-0.3-0.7-0.7-1-1
			c-0.3-0.3-0.7-0.7-1-1c-0.3-0.3-0.7-0.7-1-1c-0.3-0.3-0.7-0.7-1-1c-0.3-0.3-0.7-0.7-1-1c-0.3-0.3-0.7-0.7-1-1
			c-0.3-0.3-0.7-0.7-1-1c-0.3-0.3-0.7-0.7-1-1c-0.3-0.3-0.7-0.7-1-1c-0.3-0.3-0.7-0.7-1-1c-0.3-0.3-0.7-0.7-1-1
			c-0.3-0.3-0.7-0.7-1-1c-0.3-0.3-0.7-0.7-1-1c-0.3-0.3-0.7-0.7-1-1c-0.3-0.3-0.7-0.7-1-1c-0.3-0.3-0.7-0.7-1-1
			c-27.7-28-68.4-41.1-109.3-33.9c-45.7,7.9-84.8,43.4-94.1,85.7c-1.1,4.8-1.9,9.6-2.9,14.4c-0.1,0-0.1-0.1-0.2-0.1
			c-0.3-0.3-0.6-0.7-1-1c-0.3-0.3-0.6-0.7-1-1c-0.3-0.3-0.6-0.7-1-1c-0.3-0.3-0.6-0.7-1-1c-0.3-0.3-0.6-0.7-1-1
			c-0.3-0.3-0.6-0.7-1-1c-0.3-0.3-0.6-0.7-1-1c-0.3-0.3-0.6-0.7-1-1c-0.3-0.3-0.6-0.7-1-1c-0.3-0.3-0.6-0.7-1-1
			c-0.3-0.3-0.6-0.7-1-1c-0.3-0.3-0.6-0.7-1-1c-0.3-0.3-0.6-0.7-1-1c-0.3-0.3-0.6-0.7-1-1c-0.3-0.3-0.6-0.7-1-1
			c-0.3-0.3-0.6-0.7-1-1c-0.3-0.3-0.6-0.7-1-1c-0.3-0.3-0.6-0.7-1-1c-0.3-0.3-0.6-0.7-1-1c-0.3-0.3-0.6-0.7-1-1
			c-0.3-0.3-0.6-0.7-1-1c-0.3-0.3-0.6-0.7-1-1c-0.3-0.3-0.6-0.7-1-1c-0.3-0.3-0.6-0.7-1-1c-0.3-0.3-0.6-0.7-1-1
			c-0.3-0.3-0.6-0.7-1-1c-0.3-0.3-0.6-0.7-1-1c-0.3-0.3-0.6-0.7-1-1c-0.3-0.3-0.6-0.7-1-1c-0.3-0.3-0.6-0.7-1-1
			c-0.3-0.3-0.6-0.7-1-1c-0.3-0.3-0.6-0.7-1-1c-0.3-0.3-0.6-0.7-1-1c-0.3-0.3-0.6-0.7-1-1c-0.3-0.3-0.6-0.7-1-1
			c-0.3-0.3-0.6-0.7-1-1c-0.3-0.3-0.6-0.7-1-1c-0.3-0.3-0.6-0.7-1-1c-0.3-0.3-0.6-0.7-1-1c-0.3-0.3-0.6-0.7-1-1
			c-0.3-0.3-0.6-0.7-1-1c-0.3-0.3-0.6-0.7-1-1c-0.3-0.3-0.6-0.7-1-1c-0.3-0.3-0.6-0.7-1-1c-0.3-0.3-0.6-0.7-1-1
			c-0.3-0.3-0.6-0.7-1-1c-0.3-0.3-0.6-0.7-1-1c-0.3-0.3-0.6-0.7-1-1c-0.3-0.3-0.6-0.7-1-1c-0.3-0.3-0.6-0.7-1-1
			c-0.3-0.3-0.6-0.7-1-1c-0.3-0.3-0.6-0.7-1-1c-0.3-0.3-0.6-0.7-1-1c-0.3-0.3-0.6-0.7-1-1c-0.3-0.3-0.6-0.7-1-1
			c-0.3-0.3-0.6-0.7-1-1c-0.3-0.3-0.6-0.7-1-1c-0.3-0.3-0.6-0.7-1-1c-0.3-0.3-0.6-0.7-1-1c-0.3-0.3-0.6-0.7-1-1
			c-0.3-0.3-0.6-0.7-1-1c-0.3-0.3-0.6-0.7-1-1c-0.3-0.3-0.6-0.7-1-1c-0.3-0.3-0.6-0.7-1-1c-0.3-0.3-0.6-0.7-1-1
			c-0.3-0.3-0.6-0.7-1-1c-0.3-0.3-0.6-0.7-1-1c-0.3-0.3-0.6-0.7-1-1c-0.3-0.3-0.6-0.7-1-1c-0.3-0.3-0.6-0.7-1-1
			c-0.3-0.3-0.6-0.7-1-1c-0.3-0.3-0.6-0.7-1-1c-0.3-0.3-0.6-0.7-1-1c-0.3-0.3-0.6-0.7-1-1c-0.3-0.3-0.6-0.7-1-1
			c-0.3-0.3-0.6-0.7-1-1c-0.3-0.3-0.6-0.7-1-1c-0.3-0.3-0.6-0.7-1-1c-0.3-0.3-0.6-0.7-1-1c-0.3-0.3-0.6-0.7-1-1
			c-0.3-0.3-0.6-0.7-1-1c-0.3-0.3-0.6-0.7-1-1c-0.3-0.3-0.6-0.7-1-1c-0.3-0.3-0.6-0.7-1-1c-0.3-0.3-0.6-0.7-1-1
			c-0.3-0.3-0.6-0.7-1-1c-0.3-0.3-0.6-0.7-1-1c-0.3-0.3-0.6-0.7-1-1c-0.3-0.3-0.6-0.7-1-1c-0.3-0.3-0.6-0.7-1-1
			c-0.3-0.3-0.6-0.7-1-1c-0.3-0.3-0.6-0.7-1-1c-0.3-0.3-0.6-0.7-1-1c-0.3-0.3-0.6-0.7-1-1c-0.3-0.3-0.6-0.7-1-1
			c-0.3-0.3-0.6-0.7-1-1c-0.3-0.3-0.6-0.7-1-1c-0.3-0.3-0.6-0.7-1-1c-0.3-0.3-0.6-0.7-1-1c-0.3-0.3-0.6-0.7-1-1
			c-0.3-0.3-0.6-0.7-1-1c-0.3-0.3-0.6-0.7-1-1c-3.1-3.4-7.8-5.4-13.4-5.4c-17.4-0.2-34.8-0.2-52.2,0c-10.2,0.1-17.1,6.7-17.3,16.2
			c-0.1,4,0,8.1,0,12.1c0,3.2,0.3,4.9,1.8,5.7c0.2,0.4,0.6,0.8,1,1c0.2,0.4,0.6,0.8,1,1c0.2,0.4,0.6,0.8,1,1c0.2,0.4,0.6,0.8,1,1
			c0.2,0.4,0.6,0.8,1,1c0.2,0.4,0.6,0.8,1,1c0.2,0.4,0.6,0.8,1,1c0.2,0.4,0.6,0.8,1,1c0.2,0.4,0.6,0.8,1,1c0.2,0.4,0.6,0.8,1,1
			c0.2,0.3,0.4,0.5,0.6,0.7c-0.1,36.3-0.1,72.6-0.1,108.9c0,1.6,0,3.2,0,5.2c-6,0-11.2-0.2-16.4,0c-7.4,0.2-12.8,3.8-13.7,9.8
			c-0.6,3.5-0.5,7.3,0.2,10.7c0.7,3.5,2.3,6.2,4.6,8.3c0.3,0.3,0.7,0.7,1,1c0.3,0.3,0.7,0.7,1,1c0.3,0.3,0.7,0.7,1,1
			c0.3,0.3,0.7,0.7,1,1c0.3,0.3,0.7,0.7,1,1c0.3,0.3,0.7,0.7,1,1c0.3,0.3,0.7,0.7,1,1c0.3,0.3,0.7,0.7,1,1c0.3,0.3,0.7,0.7,1,1
			c0.3,0.3,0.7,0.7,1,1c0.3,0.3,0.7,0.7,1,1c0.3,0.3,0.7,0.7,1,1c0.3,0.3,0.6,0.6,0.9,0.9c0,0.4,0,0.8,0,1.3c0.3,5.3,2.4,10,6,13.4
			c0.3,0.3,0.7,0.7,1,1c0.3,0.3,0.7,0.7,1,1c0.3,0.3,0.7,0.7,1,1c0.3,0.3,0.7,0.7,1,1c0.3,0.3,0.7,0.7,1,1c0.3,0.3,0.7,0.7,1,1
			c0.3,0.3,0.7,0.7,1,1c0.3,0.3,0.7,0.7,1,1c0.3,0.3,0.7,0.7,1,1c0.3,0.3,0.7,0.7,1,1c0.3,0.3,0.7,0.7,1,1c0.3,0.3,0.7,0.7,1,1
			c0.1,0.1,0.3,0.3,0.4,0.4c-0.1,22.3-0.1,44.6-0.1,66.9c0,1.6-0.2,3.2-0.3,5.1c-2.8,0-5,0-7.3,0c-12.6,0-20.8,7.4-20.9,19.3
			c-0.1,9.5,0,19.1,0,29.1c-2.9,0-4.5,0-6.1,0c-10.8,0-21.6,0-32.4,0c-6.4,0-7.3,0.9-7.3,6.8c0,29.5,0,59,0,88.5
			c0,3.8,0.2,5.5,1.7,6.4c0.2,0.4,0.6,0.8,1,1c0.2,0.4,0.6,0.8,1,1c0.2,0.4,0.6,0.8,1,1c0.2,0.4,0.6,0.8,1,1c0.2,0.4,0.6,0.8,1,1
			c0.2,0.4,0.6,0.8,1,1c0.2,0.4,0.6,0.8,1,1c0.2,0.4,0.6,0.8,1,1c0.2,0.4,0.6,0.8,1,1c0.2,0.4,0.6,0.8,1,1c0.2,0.4,0.6,0.8,1,1
			c0.2,0.4,0.6,0.8,1,1c0.2,0.4,0.6,0.8,1,1c0.2,0.4,0.6,0.8,1,1c0.2,0.4,0.6,0.8,1,1c0.2,0.4,0.6,0.8,1,1c0.2,0.4,0.6,0.8,1,1
			c0.2,0.4,0.6,0.8,1,1c0.2,0.4,0.6,0.8,1,1c0.2,0.4,0.6,0.8,1,1c0.2,0.4,0.6,0.8,1,1c0.2,0.4,0.6,0.8,1,1c0.2,0.4,0.6,0.8,1,1
			c0.2,0.4,0.6,0.8,1,1c0.2,0.4,0.6,0.8,1,1c0.2,0.4,0.6,0.8,1,1c0.2,0.4,0.6,0.8,1,1c0.2,0.4,0.6,0.8,1,1c0.2,0.4,0.6,0.8,1,1
			c0.2,0.4,0.6,0.8,1,1c0.2,0.4,0.6,0.8,1,1c0.2,0.4,0.6,0.8,1,1c0.2,0.4,0.6,0.8,1,1c0.2,0.4,0.6,0.8,1,1c0.2,0.4,0.6,0.8,1,1
			c0.2,0.4,0.6,0.8,1,1c0.2,0.4,0.6,0.8,1,1c0.2,0.4,0.6,0.8,1,1c0.2,0.4,0.6,0.8,1,1c0.2,0.4,0.6,0.8,1,1c0.2,0.4,0.6,0.8,1,1
			c0.2,0.4,0.6,0.8,1,1c0.2,0.4,0.6,0.8,1,1c0.2,0.4,0.6,0.8,1,1c0.2,0.4,0.6,0.8,1,1c0.2,0.4,0.6,0.8,1,1c0.2,0.4,0.6,0.8,1,1
			c0.2,0.4,0.6,0.8,1,1c0.2,0.4,0.6,0.8,1,1c0.2,0.4,0.6,0.8,1,1c0.2,0.4,0.6,0.8,1,1c0.2,0.4,0.6,0.8,1,1c0.2,0.4,0.6,0.8,1,1
			c0.2,0.4,0.6,0.8,1,1c0.2,0.4,0.6,0.8,1,1c0.2,0.4,0.6,0.8,1,1c0.2,0.4,0.6,0.8,1,1c0.2,0.4,0.6,0.8,1,1c0.2,0.4,0.6,0.8,1,1
			c0.2,0.4,0.6,0.8,1,1c0.2,0.4,0.6,0.8,1,1c0.2,0.4,0.6,0.8,1,1c0.2,0.4,0.6,0.8,1,1c0.2,0.4,0.6,0.8,1,1c0.2,0.4,0.6,0.8,1,1
			c0.2,0.4,0.6,0.8,1,1c0.2,0.4,0.6,0.8,1,1c0.2,0.4,0.6,0.8,1,1c0.2,0.4,0.6,0.8,1,1c0.2,0.4,0.6,0.8,1,1c0.2,0.4,0.6,0.8,1,1
			c0.2,0.4,0.6,0.8,1,1c0.2,0.4,0.6,0.8,1,1c0.2,0.4,0.6,0.8,1,1c0.2,0.4,0.6,0.8,1,1c0.2,0.4,0.6,0.8,1,1c0.2,0.4,0.6,0.8,1,1
			c0.2,0.4,0.6,0.8,1,1c0.2,0.4,0.6,0.8,1,1c0.2,0.4,0.6,0.8,1,1c0.2,0.4,0.6,0.8,1,1c0.2,0.4,0.6,0.8,1,1c0.2,0.4,0.6,0.8,1,1
			c0.2,0.4,0.6,0.8,1,1c0.2,0.4,0.6,0.8,1,1c0.2,0.4,0.6,0.8,1,1c0.2,0.4,0.6,0.8,1,1c0.2,0.4,0.6,0.8,1,1c0.2,0.4,0.6,0.8,1,1
			c0.2,0.4,0.6,0.8,1,1c0.2,0.4,0.6,0.8,1,1c0.2,0.4,0.6,0.8,1,1c0.2,0.4,0.6,0.8,1,1c0.2,0.4,0.6,0.8,1,1c0.2,0.4,0.6,0.8,1,1
			c0.2,0.4,0.6,0.8,1,1c0.2,0.4,0.6,0.8,1,1c0.2,0.4,0.6,0.8,1,1c0.2,0.4,0.6,0.8,1,1c0.2,0.4,0.6,0.8,1,1c0.2,0.4,0.6,0.8,1,1
			c0.2,0.4,0.6,0.8,1,1c0.2,0.4,0.6,0.8,1,1c0.2,0.4,0.6,0.8,1,1c0.2,0.4,0.6,0.8,1,1c0.2,0.4,0.6,0.8,1,1c0.2,0.4,0.6,0.8,1,1
			c0.2,0.4,0.6,0.8,1,1c0.2,0.4,0.6,0.8,1,1c0.2,0.4,0.6,0.8,1,1c0.2,0.4,0.6,0.8,1,1c0.2,0.4,0.6,0.8,1,1c0.2,0.4,0.6,0.8,1,1
			c0.2,0.4,0.6,0.8,1,1c0.2,0.4,0.6,0.8,1,1c0.2,0.4,0.6,0.8,1,1c0.2,0.4,0.6,0.8,1,1c0.2,0.4,0.6,0.8,1,1c0.2,0.4,0.6,0.8,1,1
			c0.2,0.4,0.6,0.8,1,1c0.2,0.4,0.6,0.8,1,1c0.2,0.4,0.6,0.8,1,1c0.2,0.4,0.6,0.8,1,1c0.2,0.4,0.6,0.8,1,1c0.2,0.4,0.6,0.8,1,1
			c0.2,0.4,0.6,0.8,1,1c0.2,0.4,0.6,0.8,1,1c0.2,0.4,0.6,0.8,1,1c0.2,0.4,0.6,0.8,1,1c0.2,0.4,0.6,0.8,1,1c0.2,0.4,0.6,0.8,1,1
			c0.2,0.4,0.6,0.8,1,1c0.2,0.4,0.6,0.8,1,1c0.2,0.4,0.6,0.8,1,1c0.2,0.4,0.6,0.8,1,1c0.2,0.4,0.6,0.8,1,1c0.2,0.4,0.6,0.8,1,1
			c0.2,0.4,0.6,0.8,1,1c0.2,0.4,0.6,0.8,1,1c0.2,0.4,0.6,0.8,1,1c0.2,0.4,0.6,0.8,1,1c0.2,0.4,0.6,0.8,1,1c0.2,0.4,0.6,0.8,1,1
			c0.2,0.4,0.6,0.8,1,1c0.2,0.4,0.6,0.8,1,1c0.2,0.4,0.6,0.8,1,1c0.2,0.4,0.6,0.8,1,1c0.2,0.4,0.6,0.8,1,1c0.2,0.4,0.6,0.8,1,1
			c0.2,0.4,0.6,0.8,1,1c0.2,0.4,0.6,0.8,1,1c0.2,0.4,0.6,0.8,1,1c0.2,0.4,0.6,0.8,1,1c0.2,0.4,0.6,0.8,1,1c0.2,0.4,0.6,0.8,1,1
			c0.2,0.4,0.6,0.8,1,1c0.2,0.4,0.6,0.8,1,1c0.2,0.4,0.6,0.8,1,1c0.2,0.4,0.6,0.8,1,1c0.2,0.4,0.6,0.8,1,1c0.2,0.4,0.6,0.8,1,1
			c0.2,0.4,0.6,0.8,1,1c0.2,0.4,0.6,0.8,1,1c0.2,0.4,0.6,0.8,1,1c0.2,0.4,0.6,0.8,1,1c0.2,0.4,0.6,0.8,1,1c0.2,0.4,0.6,0.8,1,1
			c0.2,0.4,0.6,0.8,1,1c0.2,0.4,0.6,0.8,1,1c0.2,0.4,0.6,0.8,1,1c0.2,0.4,0.6,0.8,1,1c0.2,0.4,0.6,0.8,1,1c0.2,0.4,0.6,0.8,1,1
			c0.2,0.4,0.6,0.8,1,1c0.2,0.4,0.6,0.8,1,1c0.2,0.4,0.6,0.8,1,1c0.2,0.4,0.6,0.8,1,1c0.2,0.4,0.6,0.8,1,1c0.2,0.4,0.6,0.8,1,1
			c0.2,0.4,0.6,0.8,1,1c0.2,0.4,0.6,0.8,1,1c0.2,0.4,0.6,0.8,1,1c0.2,0.4,0.6,0.8,1,1c0.2,0.4,0.6,0.8,1,1c0.2,0.4,0.6,0.8,1,1
			c0.2,0.4,0.6,0.8,1,1c0.2,0.4,0.6,0.8,1,1c0.2,0.4,0.6,0.8,1,1c0.2,0.4,0.6,0.8,1,1c0.2,0.4,0.6,0.8,1,1c0.2,0.4,0.6,0.8,1,1
			c0.2,0.4,0.6,0.8,1,1c0.2,0.4,0.6,0.8,1,1c0.2,0.4,0.6,0.8,1,1c0.2,0.4,0.6,0.8,1,1c0.2,0.4,0.6,0.8,1,1c0.2,0.4,0.6,0.8,1,1
			c0.2,0.4,0.6,0.8,1,1c0.2,0.4,0.6,0.8,1,1c0.2,0.4,0.6,0.8,1,1c0.2,0.4,0.6,0.8,1,1c0.2,0.4,0.6,0.8,1,1c0.2,0.4,0.6,0.8,1,1
			c0.2,0.4,0.6,0.8,1,1c0.2,0.4,0.6,0.8,1,1c0.2,0.4,0.6,0.8,1,1c0.2,0.4,0.6,0.8,1,1c0.2,0.4,0.6,0.8,1,1c0.9,1.5,2.8,1.7,7,1.7
			c52.7,0,105.4,0,158.1,0c0.3,0.3,0.6,0.7,1,1c0.3,0.3,0.6,0.7,1,1c0.3,0.3,0.6,0.7,1,1c0.3,0.3,0.6,0.7,1,1c0.3,0.3,0.6,0.7,1,1
			c0.3,0.3,0.6,0.7,1,1c0.3,0.3,0.6,0.7,1,1c0.3,0.3,0.6,0.7,1,1c0.3,0.3,0.6,0.7,1,1c0.3,0.3,0.6,0.7,1,1c0.3,0.3,0.6,0.7,1,1
			c0.3,0.3,0.6,0.7,1,1c0.3,0.3,0.6,0.7,1,1c0.3,0.3,0.6,0.7,1,1c0.3,0.3,0.6,0.7,1,1c0.3,0.3,0.6,0.7,1,1c0.3,0.3,0.6,0.7,1,1
			c0.3,0.3,0.6,0.7,1,1c0.3,0.3,0.6,0.7,1,1c3.4,3.6,8.4,5.8,14.6,5.9c7.2,0.2,14.4,0.2,21.6,0c12-0.2,19.6-7.4,19.7-18.4
			c0-2,0-4,0-6.4c2.7,0,4.6,0,6.5,0c57.5,0,115,0,172.5,0c5.8,0,6.9-0.9,6.9-6.2c0-29.9,0-59.9,0-89.8c0-3.1-0.3-4.7-1.7-5.6
			c-0.3-0.4-0.6-0.7-1-1c-0.3-0.4-0.6-0.7-1-1c-0.3-0.4-0.6-0.7-1-1c-0.3-0.4-0.6-0.7-1-1c-0.3-0.4-0.6-0.7-1-1
			c-0.3-0.4-0.6-0.7-1-1c-0.3-0.4-0.6-0.7-1-1c-0.3-0.4-0.6-0.7-1-1c-0.3-0.4-0.6-0.7-1-1c-0.3-0.4-0.6-0.7-1-1
			c-0.3-0.4-0.6-0.7-1-1c-0.3-0.4-0.6-0.7-1-1c-0.3-0.4-0.6-0.7-1-1c-0.3-0.4-0.6-0.7-1-1c-0.3-0.4-0.6-0.7-1-1
			c-0.3-0.4-0.6-0.7-1-1c-0.3-0.4-0.6-0.7-1-1c-0.3-0.4-0.6-0.7-1-1c-0.3-0.4-0.6-0.7-1-1c-0.3-0.4-0.6-0.7-1-1
			c-0.3-0.4-0.6-0.7-1-1c-0.3-0.4-0.6-0.7-1-1c-0.3-0.4-0.6-0.7-1-1c-0.3-0.4-0.6-0.7-1-1c-0.3-0.4-0.6-0.7-1-1
			c-0.3-0.4-0.6-0.7-1-1c-0.3-0.4-0.6-0.7-1-1c-0.3-0.4-0.6-0.7-1-1c-0.3-0.4-0.6-0.7-1-1c-0.3-0.4-0.6-0.7-1-1
			c-0.3-0.4-0.6-0.7-1-1c-0.3-0.4-0.6-0.7-1-1c-0.3-0.4-0.6-0.7-1-1c-0.3-0.4-0.6-0.7-1-1c-0.3-0.4-0.6-0.7-1-1
			c-0.3-0.4-0.6-0.7-1-1c-0.3-0.4-0.6-0.7-1-1c-0.3-0.4-0.6-0.7-1-1c-0.3-0.4-0.6-0.7-1-1c-0.3-0.4-0.6-0.7-1-1
			c-0.3-0.4-0.6-0.7-1-1c-0.3-0.4-0.6-0.7-1-1c-0.3-0.4-0.6-0.7-1-1c-0.3-0.4-0.6-0.7-1-1c-0.3-0.4-0.6-0.7-1-1
			c-0.2-0.4-0.5-0.7-0.8-0.9c0-21.9,0-43.8-0.1-65.7c0-3.7,1.3-5,5-5.7c18.7-3.5,35.6-10.9,50.3-22.1
			C852.9,543.5,864.5,477.6,830.9,428.3z"/>
	</g>
</g>
<g id="Layer_1">
	<g>
		<path class="st2" d="M293.5,254.5c11.4,0,22.3,0.1,33.3-0.1c4.7-0.1,8.6,0.5,8.5,6.4c7.1,0,14,0,20.9,0c7.1,0,7.5,0.5,7.8,7
			c0,0.8,0.2,1.6,0.3,2.7c12.4,0,24.9,0,37.6,0c1.1-5.3,1.9-10.6,3.2-15.8c9.4-42.3,48.4-77.7,94.1-85.7
			c48.2-8.4,96.1,11.2,122.8,50.3c33.6,49.3,22.1,115.2-26.7,151.8c-14.8,11.2-31.6,18.6-50.3,22.1c-3.7,0.6-5,1.9-5,5.7
			c0.2,35.1,0.1,70.1,0.1,105.2c0,1.6,0,3.3,0,5.3c2,0.1,3.6,0.2,5.3,0.2c11.7,0,23.4,0,35.2,0c6.1,0,7.2,0.9,7.2,6.4
			c0,29.9,0,59.9,0,89.8c0,5.3-1.1,6.2-6.9,6.2c-57.5,0-115,0-172.5,0c-1.9,0-3.9,0-6.5,0c0,2.3,0,4.4,0,6.4
			c-0.2,11.1-7.8,18.3-19.7,18.4c-7.2,0.2-14.4,0.2-21.6,0c-11.5-0.2-19-7.4-19.2-18c0-1.4,0.3-2.9-0.2-4.1
			c-0.5-1.1-1.8-2.3-2.9-2.6c-2-0.4-4.2-0.2-6.3-0.2c-54.3,0-108.7,0-163,0c-7.1,0-7.7-0.6-7.7-7.1c0-29.5,0-59,0-88.5
			c0-5.9,0.9-6.8,7.3-6.8c10.8,0,21.6,0,32.4,0c1.6,0,3.2,0,6.1,0c0-10-0.1-19.6,0-29.1c0.1-11.9,8.2-19.3,20.9-19.3
			c2.3,0,4.4,0,7.3,0c0.1-1.9,0.3-3.5,0.3-5.1c0-23.1,0-46.2,0.1-69.3c0-3-0.6-4.6-4.2-5.6c-8.6-2.3-13.8-9.3-14.2-17.9
			c-0.1-2.9,0-5.8,0-8.9c-9.1-1.4-15.8-5.1-17.5-13.6c-0.7-3.5-0.8-7.3-0.2-10.7c0.9-6,6.2-9.5,13.7-9.8c5.3-0.2,10.4,0,16.4,0
			c0-1.9,0-3.6,0-5.2c0-38-0.1-76,0.1-114c0-3.7-1-5.2-5.3-5c-6.2,0.3-7-0.6-7.1-6.3c0-4-0.1-8.1,0-12.1c0.2-9.5,7.1-16.1,17.3-16.2
			c17.5-0.2,34.8-0.2,52.2,0c10.2,0.1,17.1,6.5,17.7,15.9c0.2,4.4-0.1,8.9,0.1,13.3c0.2,3.9-1.6,5.9-5.8,5.4s-5.3,1.1-5.3,4.9
			c0.2,16.3,0.1,32.6,0.1,48.9C293.2,251.2,293.4,252.5,293.5,254.5z M401.6,509.4c30.3,0,59.9,0,89.6,0c0.2-0.8,0.3-1.4,0.3-1.9
			c0-37.6,0-75.2,0.1-112.7c0-2.7-1.5-3.2-3.6-3.8c-34.1-9.9-58.9-29.9-74-59.7c-5.1-10.1-8.1-21.1-12.2-32.1c-11.8,0-24.6,0-37.6,0
			c-0.1,1.7-0.2,3.1-0.2,4.4c-0.1,5.7-0.8,6.4-7,6.5c-6,0-12,0.1-18,0c-2.8-0.1-4.1,0.8-4,3.6s0.1,5.6,0,8.3
			c-0.1,5.3-0.9,6.1-6.5,6.1c-2.2,0-4.4,0-7.1,0c0,3.9,0,7.2,0,10.5c-0.2,9.2-5.3,14.5-15.1,15.4c-2.3,0.2-3.2,1-3.2,3
			c0.1,3.6,0.1,7.3-0.1,10.8c-0.2,7-4.7,12.1-12,13.9c-1.9,0.5-3.8,0.6-5.7,1c0,26.2,0,52.2,0,78.2c14.3,1.5,19.2,6.6,19.4,19.6
			c0.2,7.5,0.5,15,0.7,22.5c0.1,2.2,0.2,4.3,0.3,6.3c12,0,23.5,0,35.3,0c0-3.2-0.1-6.1,0-9.1c0.2-10.1,7.8-17.3,18.7-17.5
			c7.2-0.1,14.4-0.1,21.6,0c12.6,0.1,20,6.9,20.1,18.7C401.6,504.1,401.6,506.8,401.6,509.4z M519.3,175.1
			c-12.8-0.2-27.1,2.5-40.7,8c-65.5,26.4-89.2,103.4-49.1,158.4c36.2,49.5,106.1,61.7,156.6,26c38-26.8,52.2-63.4,44-107
			C620.9,211.2,574.7,175.3,519.3,175.1z M169.7,604c57.3,0,114.1,0,170.9,0c0-28.9,0-57.5,0-86.3c-12.2,0-24.1,0-35.9,0
			c-6.7,0-7.7-0.9-7.8-7.3c-0.2-10.6-0.5-21.2-0.8-31.7c-0.2-6.9-3.2-9.5-10.6-9.5c-19.2,0-38.4,0-57.6,0c-8.3,0-12.4,3.7-12.6,11.4
			c-0.2,10.2-0.6,20.3-0.8,30.5c-0.2,5.5-1.3,6.6-7.1,6.6c-10.3,0-20.7,0-31,0c-2.2,0-4.4,0-6.6,0
			C169.7,546.8,169.7,575.2,169.7,604z M578.8,517.8c-1.6-0.1-2.7-0.2-3.7-0.2c-12.3,0-24.6,0-36.9,0c-5.2,0-6.4-1.1-6.4-5.9
			c-0.1-4.4,0-8.9,0-13.3c0-5.1,0-10.2,0-15.4c-10.9,0-21.2,0-31.7,0c0,9.1,0,17.9,0,26.7c0,7.4-0.6,8-8.8,8c-28,0-56.2,0-84.2,0
			c-1.7,0-3.5,0.2-5.3,0.2c0,28.9,0,57.5,0,86.1c59.2,0,118,0,177,0C578.8,575.1,578.8,546.6,578.8,517.8z M326.4,262.5
			c-1.9-0.1-3.3-0.2-4.8-0.2c-9,0-18,0-27,0c-9.5,0-9.5,0-9.5-9.1c0-17.5-0.1-35.1,0.1-52.6c0-3.2-0.9-4.4-4.6-4.4
			c-12.6,0.2-25.2,0.2-37.8,0c-4.4-0.1-5.5,1.2-5.5,5.2c0.2,38,0.1,76,0.1,113.9c0,1.5,0,3,0,4.7c30.1,0,59.5,0,89.1,0
			C326.4,300.8,326.4,281.9,326.4,262.5z M243.8,382.6c0,26.4,0,52.3,0,78.3c11,0,21.5,0,32.2,0c0-26.2,0-52.1,0-78.3
			C265.3,382.6,254.7,382.6,243.8,382.6z M500.4,394.8c0,26.3,0,52.9,0,79.8c10.4,0,20.6,0,31,0c0-26.4,0-52.6,0-78.5
			C520.9,395.6,510.8,395.2,500.4,394.8z M261.6,328.2c-15.9,0-31.8,0-47.7,0c-3.3,0-6.1,0.6-6.6,4.1c-1.1,8.5,1.8,14.1,12.4,14.1
			c26.3-0.3,52.5-0.1,78.7-0.1c14.2,0,14.7-0.6,14.7-14c0-3.4-1.3-4.2-4.7-4.1C292.8,328.2,277.2,328.2,261.6,328.2z M225.6,354.3
			c0,3.8-0.4,7.4,0.1,11c0.7,5,5.4,9,10.8,9c16.9,0.2,33.9,0.1,50.8,0.1c3.8,0,6.7-1.9,7-5.3c0.6-4.8,0.2-9.9,0.2-14.8
			C271.2,354.3,248.6,354.3,225.6,354.3z M260,188.7c8.8,0,17.7,0,26.5,0c9.5,0,9.5,0,9.4-8.8c-0.1-7.3-3.5-10.4-11.2-10.4
			c-14.4,0-28.8,0.3-43.2-0.1c-15.8-0.5-16.6,3.3-16.3,15.7c0.1,3,1.1,3.8,4.1,3.8C239.6,188.6,249.8,188.7,260,188.7z M349.7,555.5
			c14.5,0,28.9,0,43.6,0c0-8.3-0.1-16.2,0-24.2c0-2.7-1.9-2.7-3.9-2.7c-10.1,0-20.1,0-30.1,0c-3.1,0-6.2,0-9.5,0
			C349.7,538,349.7,546.8,349.7,555.5z M349.8,563.8c0,8.6,0,16.9,0,25.5c2.1,0.1,3.9,0.2,5.7,0.2c9.5,0,18.9,0,28.3,0
			c9.5,0,9.5,0,9.5-8.6c0-5.7,0-11.2,0-17.1C378.4,563.8,364.3,563.8,349.8,563.8z M349.5,597.2c0,5.5-0.2,10.4,0.2,15.4
			c0,0.7,2,1.9,3.2,1.9c12.4,0.2,24.9,0.1,37.3,0.1c2.3,0,3.2-0.8,3.2-2.9c-0.1-3.6-0.2-7.2,0-10.8c0.2-2.7-1-3.7-3.9-3.6
			c-7,0.2-14.1,0.1-21.2,0C362.2,597.2,356.1,597.2,349.5,597.2z M355.2,302.2c0-11.2,0-22.1,0-33.3c-6.8,0-13.3,0-20,0
			c0,11.3,0,22.2,0,33.3C341.9,302.2,348.2,302.2,355.2,302.2z M393.3,505.6c-15,0-29.3,0-43.5,0c0,5.3,0,10.3,0,15.5
			c13.8,0,27.2,0.1,40.6-0.1c1,0,2.7-1.5,2.7-2.3C393.4,514.4,393.3,510.2,393.3,505.6z M364.1,290.7c12.6,0,24.8,0,37.1,0
			c0-4,0-7.8,0-11.6c-12.5,0-24.7,0-37.1,0C364.1,283.1,364.1,286.6,364.1,290.7z M350.4,622.5c1.2,4.4,4.5,6.4,8.5,6.5
			c8.4,0.3,16.7,0.3,25.1,0c4-0.2,7.1-2.3,8.2-6.5C378.1,622.5,364.4,622.5,350.4,622.5z M350.3,497c14.3,0,28,0,42.1,0
			c-1.9-4.6-5.3-6.4-9.8-6.5c-7.5-0.2-15-0.2-22.5,0C355.8,490.6,352.1,492.3,350.3,497z"/>
		<path class="st3" d="M519.3,175.1c55.4,0.2,101.6,36.2,110.9,85.5c8.2,43.5-6,80.2-44,107c-50.5,35.6-120.4,23.5-156.6-26
			c-40.2-55.1-16.4-132.1,49.1-158.5C492.3,177.6,506.6,174.8,519.3,175.1z M576.9,331.2c0.8-1.1,1.3-1.7,1.9-2.3
			c17.7-20.6,22.9-43.6,15.1-69c-12.8-41.6-62.8-62.7-104.7-44.2c-31.3,13.8-48.3,45.2-42.7,78.8c5.6,33.5,38.3,59.6,74.8,59.5
			c17.2-0.1,32.7-5.1,46.2-15c2.5-1.9,4-1.7,5.8,0.4c1.9,2.1,4,4.1,6.1,6.1c1.9,1.9,4.2,3,6.6,0.8c2.3-2.1,1.5-4.2-0.5-6.2
			C582.7,337.2,579.9,334.3,576.9,331.2z"/>
		<path class="st3" d="M169.7,604c0-28.7,0-57.1,0-86.3c2.3,0,4.4,0,6.6,0c10.3,0,20.7,0,31,0c5.8,0,7-1.1,7.1-6.6
			c0.2-10.2,0.6-20.3,0.8-30.5c0.2-7.7,4.3-11.4,12.6-11.4c19.2,0,38.4,0,57.6,0c7.4,0,10.4,2.6,10.6,9.5
			c0.3,10.6,0.6,21.2,0.8,31.7c0.2,6.4,1.1,7.3,7.8,7.3c11.9,0,23.7,0,35.9,0c0,28.9,0,57.5,0,86.3C283.8,604,227,604,169.7,604z
			 M259.8,567.9c18,0,36,0,54,0c1.4,0,3,0.4,4-0.2c1.5-0.9,3.1-2.3,3.2-3.7c0.2-1.1-1.5-2.8-2.8-3.6c-1.1-0.6-2.9-0.4-4.4-0.4
			c-35.8,0-71.7,0-107.5,0c-1.2,0-2.7-0.4-3.6,0.2c-1.5,1-3.6,2.5-3.6,3.9c0,1.3,2.1,2.8,3.6,3.8c0.8,0.5,2.3,0.2,3.6,0.2
			C224.1,567.9,241.9,567.9,259.8,567.9z M260.2,537.3c-18.4,0-36.9,0-55.4,0c-3.1,0-6.1,0.3-6,4c0.1,3.6,3.1,4,6.1,3.9
			c0.3,0,0.6,0,0.9,0c36.2,0,72.3,0,108.5,0c1.4,0,3,0.2,4-0.4c1.2-0.9,2.6-2.4,2.6-3.8c0.1-1.1-1.5-2.7-2.7-3.2
			c-1.2-0.6-2.9-0.3-4.4-0.3C296,537.3,278.1,537.3,260.2,537.3z M260.2,590.4c17.7,0,35.4,0,53.1,0c1.2,0,2.7,0.4,3.6-0.1
			c1.6-1,2.9-2.5,4.4-3.8c-1.5-1.3-2.7-2.7-4.4-3.8c-0.7-0.5-2-0.1-3.1-0.1c-35.9,0-71.8,0-107.6,0c-1.4,0-3.1-0.3-4,0.3
			c-1.4,0.9-3,2.5-3.1,3.9c-0.1,1.1,1.7,2.7,3.2,3.4c1.2,0.6,2.9,0.2,4.4,0.2C224.4,590.4,242.3,590.4,260.2,590.4z"/>
		<path class="st3" d="M578.8,517.8c0,28.9,0,57.3,0,86.1c-58.9,0-117.8,0-177,0c0-28.6,0-57.1,0-86.1c1.9-0.1,3.6-0.2,5.3-0.2
			c28,0,56.2,0,84.2,0c8.2,0,8.8-0.6,8.8-8c0-8.7,0-17.5,0-26.7c10.5,0,20.8,0,31.7,0c0,5.2,0,10.3,0,15.4c0,4.4-0.1,8.9,0,13.3
			c0.1,4.8,1.2,5.9,6.4,5.9c12.3,0,24.6,0,36.9,0C576.1,517.7,577.2,517.8,578.8,517.8z M520.4,561.5c-13.2,0-26.3,0.1-39.5,0
			c-3.2,0-6.1,0.6-6.1,4c0,3.4,2.8,4,6.1,4c26.2-0.1,52.4-0.1,78.6,0c3.1,0,6.1-0.4,6.1-4c0-3.6-2.8-4-6-4
			C546.4,561.6,533.4,561.6,520.4,561.5z M520.1,537.3c-13.2,0-26.4,0-39.6,0c-3,0-5.7,0.6-5.9,3.7c-0.1,3.5,2.7,4.1,5.9,4.1
			c26.3,0,52.5,0,78.7,0c3,0,6.1-0.2,6-4c0-3.7-3-3.9-6.1-3.9C546.2,537.3,533.1,537.3,520.1,537.3z M519.8,591.9
			c13.2,0,26.4,0.1,39.6-0.2c1.9,0,4.8-1.3,5.6-2.8c1.5-2.8-0.9-4.9-5.4-4.9c-20.4,0-40.8,0-61.2,0c-6.5,0-12.9-0.2-19.3,0.2
			c-1.6,0.1-3,2.3-4.5,3.6c1.5,1.3,2.7,2.9,4.4,3.9c0.8,0.5,2.3,0.1,3.6,0.1C494.9,591.9,507.4,591.9,519.8,591.9z"/>
		<path class="st3" d="M326.4,262.5c0,19.5,0,38.4,0,57.6c-29.6,0-59.1,0-89.1,0c0-1.7,0-3.2,0-4.7c0-38,0.1-76-0.1-113.9
			c0-4,1.1-5.3,5.5-5.2c12.6,0.2,25.2,0.2,37.8,0c3.6-0.1,4.6,1.1,4.6,4.4c-0.2,17.5-0.1,35.1-0.1,52.6c0,9.1,0,9.1,9.5,9.1
			c9,0,18,0,27,0C323.1,262.2,324.6,262.4,326.4,262.5z"/>
		<path class="st3" d="M243.8,382.6c10.8,0,21.4,0,32.2,0c0,26.2,0,52.1,0,78.3c-10.7,0-21.3,0-32.2,0
			C243.8,435,243.8,409.1,243.8,382.6z"/>
		<path class="st3" d="M500.4,394.8c10.4,0.4,20.5,0.8,31,1.3c0,25.9,0,52,0,78.5c-10.4,0-20.6,0-31,0
			C500.4,447.7,500.4,421,500.4,394.8z"/>
		<path class="st3" d="M261.6,328.2c15.6,0,31.2,0.1,46.8-0.1c3.4,0,4.7,0.7,4.7,4.1c0,13.4-0.4,14-14.7,14
			c-26.3,0-52.5-0.2-78.7,0.1c-10.6,0.1-13.5-5.6-12.4-14.1c0.5-3.6,3.3-4.1,6.6-4.1C229.9,328.2,245.7,328.2,261.6,328.2z"/>
		<path class="st3" d="M225.6,354.3c23,0,45.7,0,68.9,0c0,4.9,0.4,9.9-0.2,14.8c-0.4,3.3-3.3,5.3-7,5.3c-16.9,0.1-33.9,0.1-50.8-0.1
			c-5.3-0.1-10.1-4-10.8-9C225.2,361.9,225.6,358.2,225.6,354.3z"/>
		<path class="st3" d="M260,188.7c-10.2,0-20.4-0.1-30.6,0.1c-3.1,0-4-0.8-4.1-3.8c-0.3-12.4,0.5-16.2,16.3-15.7
			c14.4,0.4,28.8,0.1,43.2,0.1c7.8,0,11.2,3.2,11.2,10.4c0.1,8.8,0.1,8.8-9.4,8.8C277.7,188.7,268.9,188.7,260,188.7z"/>
		<path class="st3" d="M349.7,555.5c0-8.7,0-17.5,0-26.8c3.3,0,6.4,0,9.5,0c10.1,0,20.1,0,30.1,0c2,0,4-0.1,3.9,2.7
			c-0.1,7.9,0,15.8,0,24.2C378.5,555.5,364.3,555.5,349.7,555.5z"/>
		<path class="st3" d="M349.8,563.8c14.6,0,28.6,0,43.5,0c0,5.7,0,11.4,0,17.1c0,8.7,0,8.6-9.5,8.6c-9.5,0-18.9,0-28.3,0
			c-1.8,0-3.6-0.2-5.7-0.2C349.8,580.7,349.8,572.5,349.8,563.8z"/>
		<path class="st3" d="M349.5,597.2c6.5,0,12.7,0,18.7,0c7,0,14.1,0.1,21.2,0c2.9-0.1,4,0.9,3.9,3.6c-0.2,3.6-0.2,7.2,0,10.8
			c0.1,2.2-0.9,3-3.2,2.9c-12.4-0.1-24.9,0-37.3-0.1c-1.1,0-3.1-1.1-3.2-1.9C349.4,607.6,349.5,602.7,349.5,597.2z"/>
		<path class="st3" d="M355.2,302.2c-7,0-13.3,0-20,0c0-11.2,0-22.1,0-33.3c6.6,0,13.3,0,20,0C355.2,280.1,355.2,290.9,355.2,302.2z
			"/>
		<path class="st3" d="M393.3,505.6c0,4.6,0.2,8.9-0.2,13.1c-0.1,0.8-1.8,2.3-2.7,2.3c-13.4,0.2-26.9,0.1-40.6,0.1
			c0-5.3,0-10.2,0-15.5C364,505.6,378.2,505.6,393.3,505.6z"/>
		<path class="st3" d="M364.1,290.7c0-4.1,0-7.7,0-11.6c12.4,0,24.6,0,37.1,0c0,3.8,0,7.6,0,11.6
			C388.9,290.7,376.7,290.7,364.1,290.7z"/>
		<path class="st3" d="M350.4,622.5c14.1,0,27.7,0,41.9,0c-1.1,4.2-4.3,6.3-8.2,6.5c-8.3,0.4-16.7,0.4-25.1,0
			C354.9,628.9,351.6,626.9,350.4,622.5z"/>
		<path class="st3" d="M350.3,497c1.8-4.7,5.4-6.4,9.9-6.5c7.5-0.2,15-0.2,22.5,0c4.4,0.1,7.9,1.9,9.8,6.5
			C378.2,497,364.6,497,350.3,497z"/>
		<path class="st2" d="M576.9,331.2c3.1,3.1,5.8,6,8.7,8.8c2,2,2.8,4.1,0.5,6.2c-2.4,2.1-4.7,1.1-6.6-0.8c-2-2-4.2-4-6.1-6.1
			c-1.9-2.1-3.3-2.3-5.8-0.4c-13.5,9.9-29,15-46.2,15c-36.5,0.2-69.3-25.9-74.8-59.5c-5.6-33.6,11.4-65,42.7-78.8
			c41.9-18.5,91.9,2.6,104.7,44.2c7.8,25.4,2.6,48.4-15.1,69C578.2,329.5,577.7,330.2,576.9,331.2z M570.6,324.9
			c22.1-21,26.7-61.6-1.1-88.9c-25.8-25.3-68.5-25.9-95.1-1.3c-28.1,26-27.6,69.3,1.2,94.3c28.7,24.9,68.6,19.7,88.9,1.5
			c-10.4-10.5-20.9-20.9-31.4-31.5c-1.2,0.6-2.3,1.1-3.4,1.5c-8.2,3.1-17.7,1.4-23.7-4.4c-6.3-6-8.2-15.1-4.8-22.8
			c3.6-7.9,11.3-12.7,20.4-12.5c15.8,0.2,25.9,15.8,19.2,29.4c-1.3,2.6-1.1,4.1,1.1,6.1c4.3,4,8.2,8.2,12.3,12.2
			C559.7,314,565.1,319.5,570.6,324.9z M532.7,286.9c3.4-5.5,1.8-12-3.5-15.8c-5.1-3.6-12.6-3.2-17.1,1.1
			c-4.8,4.4-5.4,11.7-1.4,16.8c4,5,10.2,6.5,16.1,3.6c-2.6-2.6-5.1-5.1-7.6-7.6c-2.1-2.1-2.9-4.4-0.3-6.5c2.6-2,4.7-0.6,6.5,1.2
			C527.7,282,530.2,284.4,532.7,286.9z"/>
		<path class="st4" d="M259.8,567.9c-17.9,0-35.6,0-53.5,0c-1.2,0-2.7,0.4-3.6-0.2c-1.5-1-3.7-2.5-3.6-3.8c0-1.3,2.1-2.8,3.6-3.9
			c0.8-0.6,2.3-0.2,3.6-0.2c35.8,0,71.7,0,107.5,0c1.5,0,3.2-0.2,4.4,0.4c1.3,0.7,2.9,2.4,2.8,3.6c-0.2,1.4-1.8,2.9-3.2,3.7
			c-1,0.6-2.6,0.2-4,0.2C295.7,567.9,277.8,567.9,259.8,567.9z"/>
		<path class="st4" d="M260.2,537.3c17.9,0,35.7,0,53.6,0c1.5,0,3.2-0.2,4.4,0.3c1.2,0.6,2.7,2.2,2.7,3.2c-0.1,1.3-1.4,2.9-2.6,3.8
			c-0.9,0.6-2.6,0.4-4,0.4c-36.2,0-72.3,0-108.5,0c-0.3,0-0.6,0-0.9,0c-3.1,0.1-6.1-0.3-6.1-3.9c-0.1-3.6,2.9-4,6-4
			C223.3,537.3,241.8,537.3,260.2,537.3z"/>
		<path class="st4" d="M260.2,590.4c-17.9,0-35.7,0-53.6,0c-1.5,0-3.2,0.3-4.4-0.2c-1.4-0.7-3.2-2.3-3.2-3.4c0.1-1.4,1.7-3,3.1-3.9
			c0.9-0.6,2.6-0.3,4-0.3c35.9,0,71.8,0,107.6,0c1.1,0,2.3-0.3,3.1,0.1c1.6,1.1,3,2.5,4.4,3.8c-1.5,1.3-2.7,2.8-4.4,3.8
			c-0.8,0.5-2.3,0.1-3.6,0.1C295.6,590.4,277.9,590.4,260.2,590.4z"/>
		<path class="st4" d="M520.4,561.6c13,0,26,0,39.1,0c3.2,0,6,0.5,6,4c0,3.6-2.9,4-6.1,4c-26.2,0-52.4,0-78.6,0
			c-3.2,0-6.1-0.6-6.1-4c0-3.4,2.9-4,6.1-4C494,561.6,507.1,561.5,520.4,561.6z"/>
		<path class="st4" d="M520.1,537.3c13,0,26.1,0,39.1,0c3.1,0,6,0.2,6.1,3.9c0,3.8-3,4-6,4c-26.3,0-52.5,0-78.7,0
			c-3.2,0-6.1-0.6-5.9-4.1c0.1-3.2,2.8-3.7,5.9-3.7C493.7,537.3,507,537.3,520.1,537.3z"/>
		<path class="st4" d="M519.8,591.9c-12.4,0-24.9,0-37.3,0c-1.2,0-2.7,0.4-3.6-0.1c-1.7-1.1-3-2.6-4.4-3.9c1.5-1.3,2.9-3.6,4.5-3.6
			c6.4-0.4,12.8-0.2,19.3-0.2c20.4,0,40.8,0,61.2,0c4.5,0,7,2,5.4,4.9c-0.8,1.5-3.6,2.7-5.6,2.8C546.2,592,533.1,591.9,519.8,591.9z
			"/>
		<path class="st4" d="M570.6,324.9c-5.5-5.5-11-11-16.5-16.4c-4-4-8-8.3-12.3-12.2c-2.2-2-2.3-3.5-1.1-6.1
			c6.9-13.7-3.4-29.3-19.2-29.4c-9.1-0.1-16.8,4.7-20.4,12.5c-3.5,7.7-1.6,16.8,4.8,22.8c6,5.7,15.5,7.4,23.7,4.4
			c1.1-0.4,2.1-0.9,3.4-1.5c10.5,10.6,21,21,31.4,31.5c-20.3,18.3-60.2,23.5-88.9-1.5c-28.8-25-29.3-68.3-1.2-94.3
			c26.6-24.6,69.3-24,95.1,1.3C597.4,263.4,592.8,304,570.6,324.9z"/>
		<path class="st3" d="M532.7,286.9c-2.5-2.5-4.9-4.8-7.4-7.2c-1.9-1.9-4-3.2-6.5-1.2c-2.7,2.1-1.8,4.4,0.3,6.5c2.5,2.5,5,5,7.6,7.6
			c-5.9,3-12.1,1.5-16.1-3.6c-4-5.1-3.4-12.3,1.4-16.8c4.6-4.3,12-4.8,17.1-1.1C534.5,274.9,536.1,281.4,532.7,286.9z"/>
	</g>
</g>
</svg>
