<?xml version="1.0" encoding="utf-8"?>
<!-- Generator: Adobe Illustrator 23.0.0, SVG Export Plug-In . SVG Version: 6.00 Build 0)  -->
<svg version="1.1" xmlns="http://www.w3.org/2000/svg" xmlns:xlink="http://www.w3.org/1999/xlink" x="0px" y="0px"
	 viewBox="0 0 800 800" style="enable-background:new 0 0 800 800;" xml:space="preserve">
<style type="text/css">
	.st0{fill:#333333;}
	.st1{opacity:0.4;clip-path:url(#SVGID_2_);}
	.st2{fill:#EFEFEF;}
	.st3{fill:#FFFEF4;}
	.st4{fill:#707273;}
	.st5{display:none;fill-rule:evenodd;clip-rule:evenodd;fill:#E34F36;}
	.st6{display:none;fill-rule:evenodd;clip-rule:evenodd;fill:#4C73B2;}
	.st7{fill-rule:evenodd;clip-rule:evenodd;fill:#FFCF5B;}
	.st8{fill-rule:evenodd;clip-rule:evenodd;fill:#E34F36;}
	.st9{fill-rule:evenodd;clip-rule:evenodd;fill:#4C73B2;}
	.st10{fill-rule:evenodd;clip-rule:evenodd;fill:#12A65A;}
	.st11{fill:#E34F36;}
	.st12{fill:#FFCF5B;}
	.st13{fill:#4C73B2;}
	.st14{fill:#12A65A;}
</style>
<g id="Layer_2">
	<circle class="st0" cx="400" cy="400" r="400"/>
</g>
<g id="Layer_1_copy">
	<g>
		<defs>
			<circle id="SVGID_1_" cx="400" cy="400" r="400"/>
		</defs>
		<clipPath id="SVGID_2_">
			<use xlink:href="#SVGID_1_"  style="overflow:visible;"/>
		</clipPath>
		<path class="st1" d="M791.9,340.3c-0.3-0.3-0.7-0.7-1-1c-0.3-0.3-0.7-0.7-1-1c-0.3-0.3-0.7-0.7-1-1c-0.3-0.3-0.7-0.7-1-1
			c-0.3-0.3-0.7-0.7-1-1c-0.3-0.3-0.7-0.7-1-1c-0.3-0.3-0.7-0.7-1-1c-0.3-0.3-0.7-0.7-1-1c-0.3-0.3-0.7-0.7-1-1
			c-0.3-0.3-0.7-0.7-1-1c-0.3-0.3-0.7-0.7-1-1c-0.3-0.3-0.7-0.7-1-1c-0.3-0.3-0.7-0.7-1-1c-0.3-0.3-0.7-0.7-1-1
			c-0.3-0.3-0.7-0.7-1-1c-0.3-0.3-0.7-0.7-1-1c-0.3-0.3-0.7-0.7-1-1c-0.3-0.3-0.7-0.7-1-1c-0.3-0.3-0.7-0.7-1-1
			c-0.3-0.3-0.7-0.7-1-1c-0.3-0.3-0.7-0.7-1-1c-0.3-0.3-0.7-0.7-1-1c-0.3-0.3-0.7-0.7-1-1c-0.3-0.3-0.7-0.7-1-1
			c-0.3-0.3-0.7-0.7-1-1c-0.3-0.3-0.7-0.7-1-1c-0.3-0.3-0.7-0.7-1-1c-0.3-0.3-0.7-0.7-1-1c-0.3-0.3-0.7-0.7-1-1
			c-0.3-0.3-0.7-0.7-1-1c-0.3-0.3-0.7-0.7-1-1c-0.3-0.3-0.7-0.7-1-1c-0.3-0.3-0.7-0.7-1-1c-0.3-0.3-0.7-0.7-1-1
			c-0.3-0.3-0.7-0.7-1-1c-0.3-0.3-0.7-0.7-1-1c-0.3-0.3-0.7-0.7-1-1c-0.3-0.3-0.7-0.7-1-1c-0.3-0.3-0.7-0.7-1-1
			c-0.3-0.3-0.7-0.7-1-1c-0.3-0.3-0.7-0.7-1-1c-0.3-0.3-0.7-0.7-1-1c-0.3-0.3-0.7-0.7-1-1c-0.3-0.3-0.7-0.7-1-1
			c-0.3-0.3-0.7-0.7-1-1c-0.3-0.3-0.7-0.7-1-1c-0.3-0.3-0.7-0.7-1-1c-0.3-0.3-0.7-0.7-1-1c-0.3-0.3-0.7-0.7-1-1
			c-0.3-0.3-0.7-0.7-1-1c-0.3-0.3-0.7-0.7-1-1c-0.3-0.3-0.7-0.7-1-1c-0.3-0.3-0.7-0.7-1-1c-0.3-0.3-0.7-0.7-1-1
			c-0.3-0.3-0.7-0.7-1-1c-0.3-0.3-0.7-0.7-1-1c-0.3-0.3-0.7-0.7-1-1c-0.3-0.3-0.7-0.7-1-1c-0.3-0.3-0.7-0.7-1-1
			c-0.3-0.3-0.7-0.7-1-1c-0.3-0.3-0.7-0.7-1-1c-0.3-0.3-0.7-0.7-1-1c-0.3-0.3-0.7-0.7-1-1c-0.3-0.3-0.7-0.7-1-1
			c-0.3-0.3-0.7-0.7-1-1c-0.3-0.3-0.7-0.7-1-1c-0.3-0.3-0.7-0.7-1-1c-0.3-0.3-0.7-0.7-1-1c-0.3-0.3-0.7-0.7-1-1
			c-0.3-0.3-0.7-0.7-1-1c-0.3-0.3-0.7-0.7-1-1c-0.3-0.3-0.7-0.7-1-1c-0.3-0.3-0.7-0.7-1-1c-0.3-0.3-0.7-0.7-1-1
			c-0.3-0.3-0.7-0.7-1-1c-0.3-0.3-0.7-0.7-1-1c-0.3-0.3-0.7-0.7-1-1c-0.3-0.3-0.7-0.7-1-1c-0.3-0.3-0.7-0.7-1-1
			c-0.3-0.3-0.7-0.7-1-1c-0.3-0.3-0.7-0.7-1-1c-0.3-0.3-0.7-0.7-1-1c-0.3-0.3-0.7-0.7-1-1c-0.3-0.3-0.7-0.7-1-1
			c-0.3-0.3-0.7-0.7-1-1c-0.3-0.3-0.7-0.7-1-1c-0.3-0.3-0.7-0.7-1-1c-0.3-0.3-0.7-0.7-1-1c-0.3-0.3-0.7-0.7-1-1
			c-0.3-0.3-0.7-0.7-1-1c-0.3-0.3-0.7-0.7-1-1c-0.3-0.3-0.7-0.7-1-1c-0.3-0.3-0.7-0.7-1-1c-0.3-0.3-0.7-0.7-1-1
			c-0.3-0.3-0.7-0.7-1-1c-0.3-0.3-0.7-0.7-1-1c-0.3-0.3-0.7-0.7-1-1c-0.3-0.3-0.7-0.7-1-1c-0.3-0.3-0.7-0.7-1-1
			c-0.3-0.3-0.7-0.7-1-1c-0.3-0.3-0.7-0.7-1-1c-0.3-0.3-0.7-0.7-1-1c-0.3-0.3-0.7-0.7-1-1c-0.3-0.3-0.7-0.7-1-1
			c-0.3-0.3-0.7-0.7-1-1c-0.3-0.3-0.7-0.7-1-1c-0.3-0.3-0.7-0.7-1-1c-0.3-0.3-0.7-0.7-1-1c-0.3-0.3-0.7-0.7-1-1
			c-0.3-0.3-0.7-0.7-1-1c-0.3-0.3-0.7-0.7-1-1c-0.3-0.3-0.7-0.7-1-1c-0.3-0.3-0.7-0.7-1-1c-0.3-0.3-0.7-0.7-1-1
			c-0.3-0.3-0.7-0.7-1-1c-0.3-0.3-0.7-0.7-1-1c-0.3-0.3-0.7-0.7-1-1c-0.3-0.3-0.7-0.7-1-1c-0.3-0.3-0.7-0.7-1-1
			c-0.3-0.3-0.7-0.7-1-1c-0.3-0.3-0.7-0.7-1-1c-0.3-0.3-0.7-0.7-1-1c-0.3-0.3-0.7-0.7-1-1c-0.3-0.3-0.7-0.7-1-1
			c-0.3-0.3-0.7-0.7-1-1c-0.3-0.3-0.7-0.7-1-1c-0.3-0.3-0.7-0.7-1-1c-0.3-0.3-0.7-0.7-1-1c-0.3-0.3-0.7-0.7-1-1
			c-0.3-0.3-0.7-0.7-1-1c-0.3-0.3-0.7-0.7-1-1c-0.3-0.3-0.7-0.7-1-1c-0.3-0.3-0.7-0.7-1-1c-0.3-0.3-0.7-0.7-1-1
			c-0.3-0.3-0.7-0.7-1-1c-0.3-0.3-0.7-0.7-1-1c-0.3-0.3-0.7-0.7-1-1c-0.3-0.3-0.7-0.7-1-1c-0.3-0.3-0.7-0.7-1-1
			c-0.3-0.3-0.7-0.7-1-1c-0.3-0.3-0.7-0.7-1-1c-0.3-0.3-0.7-0.7-1-1c-0.3-0.3-0.7-0.7-1-1c-0.3-0.3-0.7-0.7-1-1
			c-0.3-0.3-0.7-0.7-1-1c-0.3-0.3-0.7-0.7-1-1c-0.3-0.3-0.7-0.7-1-1c-0.3-0.3-0.7-0.7-1-1c-0.3-0.3-0.7-0.7-1-1
			c-0.3-0.3-0.7-0.7-1-1c-0.3-0.3-0.7-0.7-1-1c-0.3-0.3-0.7-0.7-1-1c-0.3-0.3-0.7-0.7-1-1c-0.3-0.3-0.7-0.7-1-1
			c-0.3-0.3-0.7-0.7-1-1c-0.3-0.3-0.7-0.7-1-1c-0.3-0.3-0.7-0.7-1-1c-0.3-0.3-0.7-0.7-1-1c-0.3-0.3-0.7-0.7-1-1
			c-0.3-0.3-0.7-0.7-1-1c-0.3-0.3-0.7-0.7-1-1c-0.3-0.3-0.7-0.7-1-1c-0.3-0.3-0.7-0.7-1-1c-0.3-0.3-0.7-0.7-1-1
			c-0.3-0.3-0.7-0.7-1-1c-0.3-0.3-0.7-0.7-1-1c-0.3-0.3-0.7-0.7-1-1c-7.7-8-18.5-12.9-30.4-12.9h-10.2c-2.7-0.6-5.6-0.8-8.5-0.8
			H213.5c-23.4,0-42.3,19-42.3,42.3v394.5c0,11.9,5,22.7,12.9,30.4c0.3,0.3,0.7,0.7,1,1c0.3,0.3,0.7,0.7,1,1c0.3,0.3,0.7,0.7,1,1
			c0.3,0.3,0.7,0.7,1,1c0.3,0.3,0.7,0.7,1,1c0.3,0.3,0.7,0.7,1,1c0.3,0.3,0.7,0.7,1,1c0.3,0.3,0.7,0.7,1,1c0.3,0.3,0.7,0.7,1,1
			c0.3,0.3,0.7,0.7,1,1c0.3,0.3,0.7,0.7,1,1c0.3,0.3,0.7,0.7,1,1c0.3,0.3,0.7,0.7,1,1c0.3,0.3,0.7,0.7,1,1c0.3,0.3,0.7,0.7,1,1
			c0.3,0.3,0.7,0.7,1,1c0.3,0.3,0.7,0.7,1,1c0.3,0.3,0.7,0.7,1,1c0.3,0.3,0.7,0.7,1,1c0.3,0.3,0.7,0.7,1,1c0.3,0.3,0.7,0.7,1,1
			c0.3,0.3,0.7,0.7,1,1c0.3,0.3,0.7,0.7,1,1c0.3,0.3,0.7,0.7,1,1c0.3,0.3,0.7,0.7,1,1c0.3,0.3,0.7,0.7,1,1c0.3,0.3,0.7,0.7,1,1
			c0.3,0.3,0.7,0.7,1,1c0.3,0.3,0.7,0.7,1,1c0.3,0.3,0.7,0.7,1,1c0.3,0.3,0.7,0.7,1,1c0.3,0.3,0.7,0.7,1,1c0.3,0.3,0.7,0.7,1,1
			c0.3,0.3,0.7,0.7,1,1c0.3,0.3,0.7,0.7,1,1c0.3,0.3,0.7,0.7,1,1c0.3,0.3,0.7,0.7,1,1c0.3,0.3,0.7,0.7,1,1c0.3,0.3,0.7,0.7,1,1
			c0.3,0.3,0.7,0.7,1,1c0.3,0.3,0.7,0.7,1,1c0.3,0.3,0.7,0.7,1,1c0.3,0.3,0.7,0.7,1,1c0.3,0.3,0.7,0.7,1,1c0.3,0.3,0.7,0.7,1,1
			c0.3,0.3,0.7,0.7,1,1c0.3,0.3,0.7,0.7,1,1c0.3,0.3,0.7,0.7,1,1c0.3,0.3,0.7,0.7,1,1c0.3,0.3,0.7,0.7,1,1c0.3,0.3,0.7,0.7,1,1
			c0.3,0.3,0.7,0.7,1,1c0.3,0.3,0.7,0.7,1,1c0.3,0.3,0.7,0.7,1,1c0.3,0.3,0.7,0.7,1,1c0.3,0.3,0.7,0.7,1,1c0.3,0.3,0.7,0.7,1,1
			c0.3,0.3,0.7,0.7,1,1c0.3,0.3,0.7,0.7,1,1c0.3,0.3,0.7,0.7,1,1c0.3,0.3,0.7,0.7,1,1c0.3,0.3,0.7,0.7,1,1c0.3,0.3,0.7,0.7,1,1
			c0.3,0.3,0.7,0.7,1,1c0.3,0.3,0.7,0.7,1,1c0.3,0.3,0.7,0.7,1,1c0.3,0.3,0.7,0.7,1,1c0.3,0.3,0.7,0.7,1,1c0.3,0.3,0.7,0.7,1,1
			c0.3,0.3,0.7,0.7,1,1c0.3,0.3,0.7,0.7,1,1c0.3,0.3,0.7,0.7,1,1c0.3,0.3,0.7,0.7,1,1c0.3,0.3,0.7,0.7,1,1c0.3,0.3,0.7,0.7,1,1
			c0.3,0.3,0.7,0.7,1,1c0.3,0.3,0.7,0.7,1,1c0.3,0.3,0.7,0.7,1,1c0.3,0.3,0.7,0.7,1,1c0.3,0.3,0.7,0.7,1,1c0.3,0.3,0.7,0.7,1,1
			c0.3,0.3,0.7,0.7,1,1c0.3,0.3,0.7,0.7,1,1c0.3,0.3,0.7,0.7,1,1c0.3,0.3,0.7,0.7,1,1c0.3,0.3,0.7,0.7,1,1c0.3,0.3,0.7,0.7,1,1
			c0.3,0.3,0.7,0.7,1,1c0.3,0.3,0.7,0.7,1,1c0.3,0.3,0.7,0.7,1,1c0.3,0.3,0.7,0.7,1,1c0.3,0.3,0.7,0.7,1,1c0.3,0.3,0.7,0.7,1,1
			c0.3,0.3,0.7,0.7,1,1c0.3,0.3,0.7,0.7,1,1c0.3,0.3,0.7,0.7,1,1c0.3,0.3,0.7,0.7,1,1c0.3,0.3,0.7,0.7,1,1c0.3,0.3,0.7,0.7,1,1
			c0.3,0.3,0.7,0.7,1,1c0.3,0.3,0.7,0.7,1,1c0.3,0.3,0.7,0.7,1,1c0.3,0.3,0.7,0.7,1,1c0.3,0.3,0.7,0.7,1,1c0.3,0.3,0.7,0.7,1,1
			c0.3,0.3,0.7,0.7,1,1c0.3,0.3,0.7,0.7,1,1c0.3,0.3,0.7,0.7,1,1c0.3,0.3,0.7,0.7,1,1c0.3,0.3,0.7,0.7,1,1c0.3,0.3,0.7,0.7,1,1
			c0.3,0.3,0.7,0.7,1,1c0.3,0.3,0.7,0.7,1,1c0.3,0.3,0.7,0.7,1,1c0.3,0.3,0.7,0.7,1,1c0.3,0.3,0.7,0.7,1,1c0.3,0.3,0.7,0.7,1,1
			c0.3,0.3,0.7,0.7,1,1c0.3,0.3,0.7,0.7,1,1c0.3,0.3,0.7,0.7,1,1c0.3,0.3,0.7,0.7,1,1c0.3,0.3,0.7,0.7,1,1c0.3,0.3,0.7,0.7,1,1
			c0.3,0.3,0.7,0.7,1,1c0.3,0.3,0.7,0.7,1,1c0.3,0.3,0.7,0.7,1,1c0.3,0.3,0.7,0.7,1,1c0.3,0.3,0.7,0.7,1,1c0.3,0.3,0.7,0.7,1,1
			c0.3,0.3,0.7,0.7,1,1c0.3,0.3,0.7,0.7,1,1c0.3,0.3,0.7,0.7,1,1c0.3,0.3,0.7,0.7,1,1c0.3,0.3,0.7,0.7,1,1c0.3,0.3,0.7,0.7,1,1
			c0.3,0.3,0.7,0.7,1,1c0.3,0.3,0.7,0.7,1,1c0.3,0.3,0.7,0.7,1,1c0.3,0.3,0.7,0.7,1,1c0.3,0.3,0.7,0.7,1,1c0.3,0.3,0.7,0.7,1,1
			c0.3,0.3,0.7,0.7,1,1c0.3,0.3,0.7,0.7,1,1c0.3,0.3,0.7,0.7,1,1c0.3,0.3,0.7,0.7,1,1c0.3,0.3,0.7,0.7,1,1c0.3,0.3,0.7,0.7,1,1
			c0.3,0.3,0.7,0.7,1,1c0.3,0.3,0.7,0.7,1,1c0.3,0.3,0.7,0.7,1,1c0.3,0.3,0.7,0.7,1,1c0.3,0.3,0.7,0.7,1,1c0.3,0.3,0.7,0.7,1,1
			c0.3,0.3,0.7,0.7,1,1c0.3,0.3,0.7,0.7,1,1c0.3,0.3,0.7,0.7,1,1c0.3,0.3,0.7,0.7,1,1c0.3,0.3,0.7,0.7,1,1c0.3,0.3,0.7,0.7,1,1
			c0.3,0.3,0.7,0.7,1,1c0.3,0.3,0.7,0.7,1,1c0.3,0.3,0.7,0.7,1,1c0.3,0.3,0.7,0.7,1,1c0.3,0.3,0.7,0.7,1,1c0.3,0.3,0.7,0.7,1,1
			c0.3,0.3,0.7,0.7,1,1c0.3,0.3,0.7,0.7,1,1c7.7,8,18.5,12.9,30.4,12.9h10.2c2.7,0.6,5.6,0.8,8.5,0.8h362.3
			c23.4,0,42.3-19,42.3-42.3V370.7C804.8,358.7,799.8,348,791.9,340.3z"/>
	</g>
</g>
<g id="Layer_1">
	<path class="st2" d="M594.5,639.5H232.1c-23.4,0-42.3-19-42.3-42.3V202.7c0-23.4,19-42.3,42.3-42.3h362.3c23.4,0,42.3,19,42.3,42.3
		v394.5C636.8,620.5,617.8,639.5,594.5,639.5z"/>
	<path class="st3" d="M575.9,638.7H213.5c-23.4,0-42.3-19-42.3-42.3V201.8c0-23.4,19-42.3,42.3-42.3h362.3c23.4,0,42.3,19,42.3,42.3
		v394.5C618.2,619.7,599.2,638.7,575.9,638.7z"/>
	<g>
		<path class="st4" d="M576.8,492.5H416.6c-4.6,0-8.3-3.7-8.3-8.3v-2c0-4.6,3.7-8.3,8.3-8.3h160.2c4.6,0,8.3,3.7,8.3,8.3v2
			C585.2,488.8,581.4,492.5,576.8,492.5z"/>
		<path class="st4" d="M576.8,438.9H416.6c-4.6,0-8.3-3.7-8.3-8.3v-2c0-4.6,3.7-8.3,8.3-8.3h160.2c4.6,0,8.3,3.7,8.3,8.3v2
			C585.2,435.2,581.4,438.9,576.8,438.9z"/>
		<path class="st4" d="M576.8,546.1H416.6c-4.6,0-8.3-3.7-8.3-8.3v-2c0-4.6,3.7-8.3,8.3-8.3h160.2c4.6,0,8.3,3.7,8.3,8.3v2
			C585.2,542.4,581.4,546.1,576.8,546.1z"/>
		<path class="st4" d="M576.8,599.7H416.6c-4.6,0-8.3-3.7-8.3-8.3v-2c0-4.6,3.7-8.3,8.3-8.3h160.2c4.6,0,8.3,3.7,8.3,8.3v2
			C585.2,596,581.4,599.7,576.8,599.7z"/>
	</g>
	<g>
		<path class="st4" d="M363.5,268.2H203.2c-4.6,0-8.3-3.7-8.3-8.3v-1.2c0-4.6,3.7-8.3,8.3-8.3h160.2c4.6,0,8.3,3.7,8.3,8.3v1.2
			C371.8,264.4,368.1,268.2,363.5,268.2z"/>
		<path class="st4" d="M363.5,217.1H203.2c-4.6,0-8.3-3.7-8.3-8.3v-1.2c0-4.6,3.7-8.3,8.3-8.3h160.2c4.6,0,8.3,3.7,8.3,8.3v1.2
			C371.8,213.4,368.1,217.1,363.5,217.1z"/>
		<path class="st4" d="M363.5,319.2H203.2c-4.6,0-8.3-3.7-8.3-8.3v-1.2c0-4.6,3.7-8.3,8.3-8.3h160.2c4.6,0,8.3,3.7,8.3,8.3v1.2
			C371.8,315.5,368.1,319.2,363.5,319.2z"/>
		<path class="st4" d="M363.5,370.3H203.2c-4.6,0-8.3-3.7-8.3-8.3v-1.2c0-4.6,3.7-8.3,8.3-8.3h160.2c4.6,0,8.3,3.7,8.3,8.3v1.2
			C371.8,366.6,368.1,370.3,363.5,370.3z"/>
	</g>
	<g>
		<path class="st5" d="M347.8,583.6l-82.6-64.3L201,601.9c21.1,16.5,48.6,24.8,77.2,21.3v0C304.8,619.8,330.1,606.4,347.8,583.6z"/>
		<path class="st5" d="M340.5,591.3c18.5-21,29.1-48.6,27.5-78.3c0-0.6-0.6-1.1-1.3-1l-109.6,7c-1,0.1-1.5,1.3-0.7,1.9l82.3,70.5
			C339.3,591.8,340.1,591.8,340.5,591.3z"/>
		<path class="st6" d="M336.4,590.6L267.9,522c-1.5-1.5-3.9-1.5-5.4,0L194,590.5c-1.5,1.5-1.5,4,0.1,5.5
			c18.7,17.3,43.7,27.9,71.1,27.9v0c25.5,0,51.1-9.3,71.1-27.9C337.9,594.6,338,592.1,336.4,590.6z"/>
		<path class="st5" d="M365.6,547.2c0.2-0.6,0.3-1.3,0.5-1.9c0.1-0.4,0.2-0.9,0.3-1.3c0.1-0.4,0.2-0.8,0.3-1.2
			c0.2-0.7,0.3-1.4,0.5-2.1c0-0.1,0.1-0.3,0.1-0.4c2.1-10.5,2.8-21.4,1.8-32.5c-0.5-5-5.2-8.5-10.4-7.7L270.4,514
			c-9.5,1.5-13.3,12.6-6.6,19.3l59.9,59.5c5,5,13.3,4.6,17.9-0.7c11.1-12.8,19.3-27.8,23.9-44.4
			C365.5,547.5,365.5,547.3,365.6,547.2z"/>
	</g>
	<g>
		<path class="st7" d="M291.2,494.7v-70.3c0-3,2.4-5.5,5.5-5.5v0c18.6,0,35.8,6.7,49.2,18c13.4,11.3,22.8,27.2,25.9,45.5
			c0.5,3-1.5,5.8-4.5,6.3l-69.7,11.8c-3,0.5-5.8-1.5-6.3-4.5C291.2,495.5,291.1,495.1,291.2,494.7z"/>
		<path class="st8" d="M350.7,566.9l-67-52.1l-52.1,67c17.1,13.3,39.3,20.1,62.6,17.2v0C315.8,596.3,336.3,585.4,350.7,566.9z"/>
		<path class="st9" d="M283.7,599.7c-46.8,0-84.8-37.9-84.8-84.8c0-44.6,34.4-81.1,78.1-84.5c3.6-0.3,6.7,2.6,6.7,6.2V599.7z"/>
		<path class="st10" d="M366.2,534.9c0.1-0.5,0.2-0.9,0.3-1.4c0.1-0.3,0.1-0.6,0.2-1c0.1-0.3,0.1-0.6,0.2-0.9c0.1-0.5,0.2-1,0.3-1.5
			c0-0.1,0-0.2,0.1-0.3c1.4-7.7,1.7-15.6,0.9-23.7c-0.4-3.6-3.7-6.2-7.3-5.5l-77.1,14.3l60,60c10.7-10.7,18.6-24.3,22.4-39.6
			C366.1,535.1,366.1,535,366.2,534.9z"/>
	</g>
	<g>
		<path class="st11" d="M543.5,365.2h35.8v-40.8l-35.8-30.4l-10.1,14.9v44.3L543.5,365.2z"/>
		<path class="st12" d="M513.1,365.2h30.4v-71.2l-30.4-20.2l-10.1,15v66.4L513.1,365.2z"/>
		<path class="st13" d="M482.8,365.2h30.4v-91.4l-30.4,20.2l-10.1,11.1v52.7L482.8,365.2z"/>
		<path class="st14" d="M452.4,365.2h30.4v-71.2l-30.4-30.4L452.4,365.2L452.4,365.2z"/>
		<path class="st4" d="M420.3,219.7l62.5,67.9l30.4-20l69.4,53l-6.5,7.8l-62.9-48.2l-30.4,20.4l-69.7-73.8L420.3,219.7z"/>
		<path class="st4" d="M411.6,248.5h10.1v-20.2H442v-10.1h-30.4V248.5z"/>
		<path class="st4" d="M513.1,360.2h61.1V197.6h10.1v172.7h-71.2H411.6v-10.1H513.1z"/>
		<path class="st4" d="M513.1,360.2H411.6v10.1h101.5V360.2z"/>
	</g>
</g>
</svg>
