<?xml version="1.0" encoding="utf-8"?>
<!-- Generator: Adobe Illustrator 24.1.2, SVG Export Plug-In . SVG Version: 6.00 Build 0)  -->
<svg version="1.1" id="Layer_1" xmlns="http://www.w3.org/2000/svg" xmlns:xlink="http://www.w3.org/1999/xlink" x="0px" y="0px"
	 viewBox="0 0 800 800" style="enable-background:new 0 0 800 800;" xml:space="preserve">
<style type="text/css">
	.st0{fill:#333333;}
	.st1{clip-path:url(#SVGID_2_);}
	.st2{fill:#1D1D1B;}
	.st3{fill:#4D74B5;}
	.st4{fill:#E6483C;}
	.st5{fill:#0FA858;}
</style>
<g id="Layer_2_2_">
	<g id="Layer_2_1_">
		<g>
			<circle class="st0" cx="401.1" cy="400" r="400"/>
		</g>
	</g>
</g>
<g>
	<defs>
		<circle id="SVGID_1_" cx="401.1" cy="400" r="400"/>
	</defs>
	<clipPath id="SVGID_2_">
		<use xlink:href="#SVGID_1_"  style="overflow:visible;"/>
	</clipPath>
	<g class="st1">
		<g>
			<path class="st2" d="M952.5,681.9c-1.5-13.7-6.6-25.9-15.4-36.5c-1.5-1.8-3.1-3.6-4.8-5.2c-0.3-0.3-0.7-0.7-1-1
				c-0.3-0.3-0.7-0.7-1-1c-0.3-0.3-0.7-0.7-1-1c-0.3-0.3-0.7-0.7-1-1c-0.3-0.3-0.7-0.7-1-1c-0.3-0.3-0.7-0.7-1-1
				c-0.3-0.3-0.7-0.7-1-1c-0.3-0.3-0.7-0.7-1-1c-0.3-0.3-0.7-0.7-1-1c-0.3-0.3-0.7-0.7-1-1c-0.3-0.3-0.7-0.7-1-1
				c-0.3-0.3-0.7-0.7-1-1c-0.3-0.3-0.7-0.7-1-1c-0.3-0.3-0.7-0.7-1-1c-0.3-0.3-0.7-0.7-1-1c-0.3-0.3-0.7-0.7-1-1
				c-0.3-0.3-0.7-0.7-1-1c-0.3-0.3-0.7-0.7-1-1c-0.3-0.3-0.7-0.7-1-1c-0.3-0.3-0.7-0.7-1-1c-0.3-0.3-0.7-0.7-1-1
				c-0.3-0.3-0.7-0.7-1-1c-0.3-0.3-0.7-0.7-1-1c-0.3-0.3-0.7-0.7-1-1c-0.3-0.3-0.7-0.7-1-1c-0.3-0.3-0.7-0.7-1-1
				c-0.3-0.3-0.7-0.7-1-1c-0.3-0.3-0.7-0.7-1-1c-0.3-0.3-0.7-0.7-1-1c-0.3-0.3-0.7-0.7-1-1c-0.3-0.3-0.7-0.7-1-1
				c-0.3-0.3-0.7-0.7-1-1c-0.3-0.3-0.7-0.7-1-1c-0.3-0.3-0.7-0.7-1-1c-0.3-0.3-0.7-0.7-1-1c-0.3-0.3-0.7-0.7-1-1
				c-0.3-0.3-0.7-0.7-1-1c-0.3-0.3-0.7-0.7-1-1c-0.3-0.3-0.7-0.7-1-1c-0.3-0.3-0.7-0.7-1-1c-0.3-0.3-0.7-0.7-1-1
				c-0.3-0.3-0.7-0.7-1-1c-0.3-0.3-0.7-0.7-1-1c-0.3-0.3-0.7-0.7-1-1c-0.3-0.3-0.7-0.7-1-1c-0.3-0.3-0.7-0.7-1-1
				c-0.3-0.3-0.7-0.7-1-1c-0.3-0.3-0.7-0.7-1-1c-0.3-0.3-0.7-0.7-1-1c-0.3-0.3-0.7-0.7-1-1c-0.3-0.3-0.7-0.7-1-1
				c-0.3-0.3-0.7-0.7-1-1c-0.3-0.3-0.7-0.7-1-1c-0.3-0.3-0.7-0.7-1-1c-0.3-0.3-0.7-0.7-1-1c-0.3-0.3-0.7-0.7-1-1
				c-0.3-0.3-0.7-0.7-1-1c-0.3-0.3-0.7-0.7-1-1c-0.3-0.3-0.7-0.7-1-1c-0.3-0.3-0.7-0.7-1-1c-0.3-0.3-0.7-0.7-1-1
				c-0.3-0.3-0.7-0.7-1-1c-0.3-0.3-0.7-0.7-1-1c-0.3-0.3-0.7-0.7-1-1c-0.3-0.3-0.7-0.7-1-1c-0.3-0.3-0.7-0.7-1-1
				c-0.3-0.3-0.7-0.7-1-1c-0.3-0.3-0.7-0.7-1-1c-0.3-0.3-0.7-0.7-1-1c-0.3-0.3-0.7-0.7-1-1c-0.3-0.3-0.7-0.7-1-1
				c-0.3-0.3-0.7-0.7-1-1c-0.3-0.3-0.7-0.7-1-1c-0.3-0.3-0.7-0.7-1-1c-0.3-0.3-0.7-0.7-1-1c-0.3-0.3-0.7-0.7-1-1
				c-0.3-0.3-0.7-0.7-1-1c-0.3-0.3-0.7-0.7-1-1c-0.3-0.3-0.7-0.7-1-1c-0.3-0.3-0.7-0.7-1-1c-0.3-0.3-0.7-0.7-1-1
				c-0.3-0.3-0.7-0.7-1-1c-0.3-0.3-0.7-0.7-1-1c-0.3-0.3-0.7-0.7-1-1c-0.3-0.3-0.7-0.7-1-1c-0.3-0.3-0.7-0.7-1-1
				c-0.3-0.3-0.7-0.7-1-1c-0.3-0.3-0.7-0.7-1-1c-0.3-0.3-0.7-0.7-1-1c-0.3-0.3-0.7-0.7-1-1c-0.3-0.3-0.7-0.7-1-1
				c-0.3-0.3-0.7-0.7-1-1c-0.3-0.3-0.7-0.7-1-1c-0.3-0.3-0.7-0.7-1-1c-0.3-0.3-0.7-0.7-1-1c-0.3-0.3-0.7-0.7-1-1
				c-0.3-0.3-0.7-0.7-1-1c-0.3-0.3-0.7-0.7-1-1c-0.3-0.3-0.7-0.7-1-1c-0.3-0.3-0.7-0.7-1-1c-0.3-0.3-0.7-0.7-1-1
				c-0.3-0.3-0.7-0.7-1-1c-0.3-0.3-0.7-0.7-1-1c-0.3-0.3-0.7-0.7-1-1c-0.3-0.3-0.7-0.7-1-1c-0.3-0.3-0.7-0.7-1-1
				c-0.3-0.3-0.7-0.7-1-1c-0.3-0.3-0.7-0.7-1-1c-0.3-0.3-0.7-0.7-1-1c-0.3-0.3-0.7-0.7-1-1c-0.3-0.3-0.7-0.7-1-1
				c-0.3-0.3-0.7-0.7-1-1c-0.3-0.3-0.7-0.7-1-1c-0.3-0.3-0.7-0.7-1-1c-0.3-0.3-0.7-0.7-1-1c-0.3-0.3-0.7-0.7-1-1
				c-0.3-0.3-0.7-0.7-1-1c-0.3-0.3-0.7-0.7-1-1c-0.3-0.3-0.7-0.7-1-1c-0.3-0.3-0.7-0.7-1-1c-0.3-0.3-0.7-0.7-1-1
				c-0.3-0.3-0.7-0.7-1-1c-0.3-0.3-0.7-0.7-1-1c-0.3-0.3-0.7-0.7-1-1c-0.3-0.3-0.7-0.7-1-1c-0.3-0.3-0.7-0.7-1-1
				c-0.3-0.3-0.7-0.7-1-1c-0.3-0.3-0.7-0.7-1-1c-0.3-0.3-0.7-0.7-1-1c-0.3-0.3-0.7-0.7-1-1c-0.3-0.3-0.7-0.7-1-1
				c-0.3-0.3-0.7-0.7-1-1c-0.3-0.3-0.7-0.7-1-1c-0.3-0.3-0.7-0.7-1-1c-0.3-0.3-0.7-0.7-1-1c-0.3-0.3-0.7-0.7-1-1
				c-0.3-0.3-0.7-0.7-1-1c-0.3-0.3-0.7-0.7-1-1c-0.3-0.3-0.7-0.7-1-1c-0.3-0.3-0.7-0.7-1-1c-0.3-0.3-0.7-0.7-1-1
				c-0.3-0.3-0.7-0.7-1-1c-0.3-0.3-0.7-0.7-1-1c-0.3-0.3-0.7-0.7-1-1c-0.3-0.3-0.7-0.7-1-1c-0.3-0.3-0.7-0.7-1-1
				c-0.3-0.3-0.7-0.7-1-1c-0.3-0.3-0.7-0.7-1-1c-0.3-0.3-0.7-0.7-1-1c-0.3-0.3-0.7-0.7-1-1c-0.3-0.3-0.7-0.7-1-1
				c-0.3-0.3-0.7-0.7-1-1c-0.3-0.3-0.7-0.7-1-1c-0.3-0.3-0.7-0.7-1-1c-0.3-0.3-0.7-0.7-1-1c-0.3-0.3-0.7-0.7-1-1
				c-0.3-0.3-0.7-0.7-1-1c-0.3-0.3-0.7-0.7-1-1c-0.3-0.3-0.7-0.7-1-1c-0.3-0.3-0.7-0.7-1-1c-0.3-0.3-0.7-0.7-1-1
				c-0.3-0.3-0.7-0.7-1-1c-0.3-0.3-0.7-0.7-1-1c-0.3-0.3-0.7-0.7-1-1c-0.3-0.3-0.7-0.7-1-1c-0.3-0.3-0.7-0.7-1-1
				c-0.3-0.3-0.7-0.7-1-1c-0.3-0.3-0.7-0.7-1-1c-0.3-0.3-0.7-0.7-1-1c-0.3-0.3-0.7-0.7-1-1c-0.3-0.3-0.7-0.7-1-1
				c-0.3-0.3-0.7-0.7-1-1c-0.3-0.3-0.7-0.7-1-1c-0.3-0.3-0.7-0.7-1-1c-0.3-0.3-0.7-0.7-1-1c-0.3-0.3-0.7-0.7-1-1
				c-0.3-0.3-0.7-0.7-1-1c-0.3-0.3-0.7-0.7-1-1c-0.3-0.3-0.7-0.7-1-1c-0.3-0.3-0.7-0.7-1-1c-0.3-0.3-0.7-0.7-1-1
				c-0.3-0.3-0.7-0.7-1-1c-0.3-0.3-0.7-0.7-1-1c-0.3-0.3-0.7-0.7-1-1c-0.3-0.3-0.7-0.7-1-1c-0.3-0.3-0.7-0.7-1-1
				c-0.3-0.3-0.7-0.7-1-1c-0.3-0.3-0.7-0.7-1-1c-0.3-0.3-0.7-0.7-1-1c-0.3-0.3-0.7-0.7-1-1c-0.3-0.3-0.7-0.7-1-1
				c-0.3-0.3-0.7-0.7-1-1c-0.3-0.3-0.7-0.7-1-1c-0.3-0.3-0.7-0.7-1-1c-0.3-0.3-0.7-0.7-1-1c-0.3-0.3-0.7-0.7-1-1
				c-0.3-0.3-0.7-0.7-1-1c-0.3-0.3-0.7-0.7-1-1c-0.3-0.3-0.7-0.7-1-1c-0.3-0.3-0.7-0.7-1-1c-0.3-0.3-0.7-0.7-1-1
				c-0.3-0.3-0.7-0.7-1-1c-0.3-0.3-0.7-0.7-1-1c-0.3-0.3-0.7-0.7-1-1c-0.3-0.3-0.7-0.7-1-1c-0.3-0.3-0.7-0.7-1-1
				c-0.3-0.3-0.7-0.7-1-1c-0.3-0.3-0.7-0.7-1-1c-0.3-0.3-0.7-0.7-1-1c-0.3-0.3-0.7-0.7-1-1c-0.3-0.3-0.7-0.7-1-1
				c-0.3-0.3-0.7-0.7-1-1c-0.3-0.3-0.7-0.7-1-1c-0.3-0.3-0.7-0.7-1-1c-0.3-0.3-0.7-0.7-1-1c-0.3-0.3-0.7-0.7-1-1
				c-0.3-0.3-0.7-0.7-1-1c-0.3-0.3-0.7-0.7-1-1c-0.3-0.3-0.7-0.7-1-1c-0.3-0.3-0.7-0.7-1-1c-0.3-0.3-0.7-0.7-1-1
				c-0.3-0.3-0.7-0.7-1-1c-0.3-0.3-0.7-0.7-1-1c-0.3-0.3-0.7-0.7-1-1c-0.3-0.3-0.7-0.7-1-1c-0.3-0.3-0.7-0.7-1-1
				c-0.3-0.3-0.7-0.7-1-1c-0.3-0.3-0.7-0.7-1-1c-0.3-0.3-0.7-0.7-1-1c-0.3-0.3-0.7-0.7-1-1c-0.3-0.3-0.7-0.7-1-1
				c-0.3-0.3-0.7-0.7-1-1c-0.3-0.3-0.7-0.7-1-1c-0.3-0.3-0.7-0.7-1-1c-0.3-0.3-0.7-0.7-1-1c-0.3-0.3-0.7-0.7-1-1
				c-0.3-0.3-0.7-0.7-1-1c-0.3-0.3-0.7-0.7-1-1c-0.3-0.3-0.7-0.7-1-1c-0.3-0.3-0.7-0.7-1-1c-0.3-0.3-0.7-0.7-1-1
				c-0.3-0.3-0.7-0.7-1-1c-0.3-0.3-0.7-0.7-1-1c-0.3-0.3-0.7-0.7-1-1c-0.3-0.3-0.7-0.7-1-1c-0.3-0.3-0.7-0.7-1-1
				c-0.3-0.3-0.7-0.7-1-1c-0.3-0.3-0.7-0.7-1-1c-0.3-0.3-0.7-0.7-1-1c-0.3-0.3-0.7-0.7-1-1c-0.3-0.3-0.7-0.7-1-1
				c-0.3-0.3-0.7-0.7-1-1c-0.3-0.3-0.7-0.7-1-1c-0.3-0.3-0.7-0.7-1-1c-0.3-0.3-0.7-0.7-1-1c-0.3-0.3-0.7-0.7-1-1
				c-0.3-0.3-0.7-0.7-1-1c-0.3-0.3-0.7-0.7-1-1c-0.3-0.3-0.7-0.7-1-1c-0.3-0.3-0.7-0.7-1-1c-0.3-0.3-0.7-0.7-1-1
				c-0.3-0.3-0.7-0.7-1-1c-0.3-0.3-0.7-0.7-1-1c-0.3-0.3-0.7-0.7-1-1c-0.3-0.3-0.7-0.7-1-1c-0.3-0.3-0.7-0.7-1-1
				c-0.3-0.3-0.7-0.7-1-1c-0.3-0.3-0.7-0.7-1-1c-0.3-0.3-0.7-0.7-1-1c-0.3-0.3-0.7-0.7-1-1c-0.3-0.3-0.7-0.7-1-1
				c-0.3-0.3-0.7-0.7-1-1c-0.3-0.3-0.7-0.7-1-1c-0.3-0.3-0.7-0.7-1-1c-0.3-0.3-0.7-0.7-1-1c-0.3-0.3-0.7-0.7-1-1
				c-0.3-0.3-0.7-0.7-1-1c-0.3-0.3-0.7-0.7-1-1c-0.3-0.3-0.7-0.7-1-1c-0.3-0.3-0.7-0.7-1-1c-0.3-0.3-0.7-0.7-1-1
				c-0.3-0.3-0.7-0.7-1-1c-0.3-0.3-0.7-0.7-1-1c-0.3-0.3-0.7-0.7-1-1c-0.3-0.3-0.7-0.7-1-1c-0.3-0.3-0.7-0.7-1-1
				c-0.3-0.3-0.7-0.7-1-1c-0.3-0.3-0.7-0.7-1-1c-0.3-0.3-0.7-0.7-1-1c-0.3-0.3-0.7-0.7-1-1c-0.3-0.3-0.7-0.7-1-1
				c-0.3-0.3-0.7-0.7-1-1c-0.3-0.3-0.7-0.7-1-1c-0.3-0.3-0.7-0.7-1-1c-0.3-0.3-0.7-0.7-1-1c-0.3-0.3-0.7-0.7-1-1
				c-0.3-0.3-0.7-0.7-1-1c-0.3-0.3-0.7-0.7-1-1c-0.3-0.3-0.7-0.7-1-1c-0.3-0.3-0.7-0.7-1-1c-0.3-0.3-0.7-0.7-1-1
				c-0.3-0.3-0.7-0.7-1-1c-0.3-0.3-0.7-0.7-1-1c-0.3-0.3-0.7-0.7-1-1c-0.3-0.3-0.7-0.7-1-1c-0.3-0.3-0.7-0.7-1-1
				c-0.3-0.3-0.7-0.7-1-1c-0.3-0.3-0.7-0.7-1-1c-0.3-0.3-0.7-0.7-1-1c-0.3-0.3-0.7-0.7-1-1c-0.3-0.3-0.7-0.7-1-1
				c-9.6-9.9-21.4-16.3-35.2-19.1c-2.8-0.5-5.6-0.7-8.4-1c-0.7-0.1-1.4-0.2-2.1-0.4c-1.4,0-2.7,0-4.1,0c-1.8,0.2-3.6,0.4-5.3,0.6
				c-15.6,1.8-28.9,8.3-40,19.4c-1.9,1.9-3.7,3.9-5.3,6c-0.3-0.3-0.6-0.6-0.9-0.9c-0.3-0.4-0.6-0.7-1-1c-0.3-0.4-0.6-0.7-1-1
				c-0.3-0.4-0.6-0.7-1-1c-0.3-0.4-0.6-0.7-1-1c-0.3-0.4-0.6-0.7-1-1c-0.3-0.4-0.6-0.7-1-1c-0.3-0.4-0.6-0.7-1-1
				c-0.3-0.4-0.6-0.7-1-1c-0.3-0.4-0.6-0.7-1-1c-0.3-0.4-0.6-0.7-1-1c-0.3-0.4-0.6-0.7-1-1c-0.3-0.4-0.6-0.7-1-1
				c-0.3-0.4-0.6-0.7-1-1c-0.3-0.4-0.6-0.7-1-1c-0.3-0.4-0.6-0.7-1-1c-0.3-0.4-0.6-0.7-1-1c-0.3-0.4-0.6-0.7-1-1
				c-0.3-0.4-0.6-0.7-1-1c-0.3-0.4-0.6-0.7-1-1c-0.3-0.4-0.6-0.7-1-1c-0.3-0.4-0.6-0.7-1-1c-0.3-0.4-0.6-0.7-1-1
				c-0.3-0.4-0.6-0.7-1-1c-0.3-0.4-0.6-0.7-1-1c-0.3-0.4-0.6-0.7-1-1c-0.3-0.4-0.6-0.7-1-1c-0.3-0.4-0.6-0.7-1-1
				c-0.3-0.4-0.6-0.7-1-1c-0.3-0.4-0.6-0.7-1-1c-0.3-0.4-0.6-0.7-1-1c-0.3-0.4-0.6-0.7-1-1c-0.3-0.4-0.6-0.7-1-1
				c-0.3-0.4-0.6-0.7-1-1c-0.3-0.4-0.6-0.7-1-1c-0.3-0.4-0.6-0.7-1-1c-0.3-0.4-0.6-0.7-1-1c-0.3-0.4-0.6-0.7-1-1
				c-0.3-0.4-0.6-0.7-1-1c-0.3-0.4-0.6-0.7-1-1c-0.3-0.4-0.6-0.7-1-1c-0.3-0.4-0.6-0.7-1-1c-0.3-0.4-0.6-0.7-1-1
				c-0.3-0.4-0.6-0.7-1-1c-0.3-0.4-0.6-0.7-1-1c-0.3-0.4-0.6-0.7-1-1c-0.3-0.4-0.6-0.7-1-1c-0.3-0.4-0.6-0.7-1-1
				c-0.3-0.4-0.6-0.7-1-1c-0.3-0.4-0.6-0.7-1-1c-0.3-0.4-0.6-0.7-1-1c-0.3-0.4-0.6-0.7-1-1c-0.3-0.4-0.6-0.7-1-1
				c-0.3-0.4-0.6-0.7-1-1c-0.3-0.4-0.6-0.7-1-1c-0.3-0.4-0.6-0.7-1-1c-0.3-0.4-0.6-0.7-1-1c-0.3-0.4-0.6-0.7-1-1
				c-0.3-0.4-0.6-0.7-1-1c-0.3-0.4-0.6-0.7-1-1c-0.3-0.4-0.6-0.7-1-1c-0.3-0.4-0.6-0.7-1-1c-0.3-0.4-0.6-0.7-1-1
				c-0.3-0.4-0.6-0.7-1-1c-0.3-0.4-0.6-0.7-1-1c-0.3-0.4-0.6-0.7-1-1c-1.8-2.1-4.4-3.3-7.1-3.3c-92.5,0-185,0-277.5,0
				c-0.6,0-1.2,0-1.7,0.1c-4.6,1-7.5,4.6-7.5,9.5c0,66.2,0,132.3,0,198.5c0,3.2,1.3,5.9,3.4,7.7c0.3,0.4,0.6,0.7,1,1
				c0.3,0.4,0.6,0.7,1,1c0.3,0.4,0.6,0.7,1,1c0.3,0.4,0.6,0.7,1,1c0.3,0.4,0.6,0.7,1,1c0.3,0.4,0.6,0.7,1,1c0.3,0.4,0.6,0.7,1,1
				c0.3,0.4,0.6,0.7,1,1c0.3,0.4,0.6,0.7,1,1c0.3,0.4,0.6,0.7,1,1c0.3,0.4,0.6,0.7,1,1c0.3,0.4,0.6,0.7,1,1c0.3,0.4,0.6,0.7,1,1
				c0.3,0.4,0.6,0.7,1,1c0.3,0.4,0.6,0.7,1,1c0.3,0.4,0.6,0.7,1,1c0.3,0.4,0.6,0.7,1,1c0.3,0.4,0.6,0.7,1,1c0.3,0.4,0.6,0.7,1,1
				c0.3,0.4,0.6,0.7,1,1c0.3,0.4,0.6,0.7,1,1c0.3,0.4,0.6,0.7,1,1c0.3,0.4,0.6,0.7,1,1c0.3,0.4,0.6,0.7,1,1c0.3,0.4,0.6,0.7,1,1
				c0.3,0.4,0.6,0.7,1,1c0.3,0.4,0.6,0.7,1,1c0.3,0.4,0.6,0.7,1,1c0.3,0.4,0.6,0.7,1,1c0.3,0.4,0.6,0.7,1,1c0.3,0.4,0.6,0.7,1,1
				c0.3,0.4,0.6,0.7,1,1c0.3,0.4,0.6,0.7,1,1c0.3,0.4,0.6,0.7,1,1c0.3,0.4,0.6,0.7,1,1c0.3,0.4,0.6,0.7,1,1c0.3,0.4,0.6,0.7,1,1
				c0.3,0.4,0.6,0.7,1,1c0.3,0.4,0.6,0.7,1,1c0.3,0.4,0.6,0.7,1,1c0.3,0.4,0.6,0.7,1,1c0.3,0.4,0.6,0.7,1,1c0.3,0.4,0.6,0.7,1,1
				c0.3,0.4,0.6,0.7,1,1c0.3,0.4,0.6,0.7,1,1c0.3,0.4,0.6,0.7,1,1c0.3,0.4,0.6,0.7,1,1c0.3,0.4,0.6,0.7,1,1c0.3,0.4,0.6,0.7,1,1
				c0.3,0.4,0.6,0.7,1,1c0.3,0.4,0.6,0.7,1,1c0.3,0.4,0.6,0.7,1,1c0.3,0.4,0.6,0.7,1,1c0.3,0.4,0.6,0.7,1,1c0.3,0.4,0.6,0.7,1,1
				c0.3,0.4,0.6,0.7,1,1c0.3,0.4,0.6,0.7,1,1c0.3,0.4,0.6,0.7,1,1c0.3,0.4,0.6,0.7,1,1c0.3,0.4,0.6,0.7,1,1c0.3,0.4,0.6,0.7,1,1
				c0.3,0.4,0.6,0.7,1,1c0.3,0.4,0.6,0.7,1,1c0.3,0.4,0.6,0.7,1,1c0.3,0.4,0.6,0.7,1,1c0.3,0.4,0.6,0.7,1,1c0.3,0.4,0.6,0.7,1,1
				c0.3,0.4,0.6,0.7,1,1c0.3,0.4,0.6,0.7,1,1c0.3,0.4,0.6,0.7,1,1c0.3,0.4,0.6,0.7,1,1c0.3,0.4,0.6,0.7,1,1c0.3,0.4,0.6,0.7,1,1
				c0.3,0.4,0.6,0.7,1,1c0.3,0.4,0.6,0.7,1,1c0.3,0.4,0.6,0.7,1,1c0.3,0.4,0.6,0.7,1,1c0.3,0.4,0.6,0.7,1,1c0.3,0.4,0.6,0.7,1,1
				c0.3,0.4,0.6,0.7,1,1c0.3,0.4,0.6,0.7,1,1c0.3,0.4,0.6,0.7,1,1c0.3,0.4,0.6,0.7,1,1c0.3,0.4,0.6,0.7,1,1c0.3,0.4,0.6,0.7,1,1
				c0.3,0.4,0.6,0.7,1,1c0.3,0.4,0.6,0.7,1,1c0.3,0.4,0.6,0.7,1,1c0.3,0.4,0.6,0.7,1,1c0.3,0.4,0.6,0.7,1,1c0.3,0.4,0.6,0.7,1,1
				c0.3,0.4,0.6,0.7,1,1c0.3,0.4,0.6,0.7,1,1c0.3,0.4,0.6,0.7,1,1c0.3,0.4,0.6,0.7,1,1c0.3,0.4,0.6,0.7,1,1c0.3,0.4,0.6,0.7,1,1
				c0.3,0.4,0.6,0.7,1,1c0.3,0.4,0.6,0.7,1,1c0.3,0.4,0.6,0.7,1,1c0.3,0.4,0.6,0.7,1,1c0.3,0.4,0.6,0.7,1,1c0.3,0.4,0.6,0.7,1,1
				c0.3,0.4,0.6,0.7,1,1c0.3,0.4,0.6,0.7,1,1c0.3,0.4,0.6,0.7,1,1c0.3,0.4,0.6,0.7,1,1c0.3,0.4,0.6,0.7,1,1c0.3,0.4,0.6,0.7,1,1
				c0.3,0.4,0.6,0.7,1,1c0.3,0.4,0.6,0.7,1,1c0.3,0.4,0.6,0.7,1,1c0.3,0.4,0.6,0.7,1,1c0.3,0.4,0.6,0.7,1,1c0.3,0.4,0.6,0.7,1,1
				c0.3,0.4,0.6,0.7,1,1c0.3,0.4,0.6,0.7,1,1c0.3,0.4,0.6,0.7,1,1c0.3,0.4,0.6,0.7,1,1c0.3,0.4,0.6,0.7,1,1c0.3,0.4,0.6,0.7,1,1
				c0.3,0.4,0.6,0.7,1,1c0.3,0.4,0.6,0.7,1,1c0.3,0.4,0.6,0.7,1,1c0.3,0.4,0.6,0.7,1,1c0.3,0.4,0.6,0.7,1,1c0.3,0.4,0.6,0.7,1,1
				c0.3,0.4,0.6,0.7,1,1c0.3,0.4,0.6,0.7,1,1c0.3,0.4,0.6,0.7,1,1c0.3,0.4,0.6,0.7,1,1c0.3,0.4,0.6,0.7,1,1c0.3,0.4,0.6,0.7,1,1
				c0.3,0.4,0.6,0.7,1,1c0.3,0.4,0.6,0.7,1,1c0.3,0.4,0.6,0.7,1,1c0.3,0.4,0.6,0.7,1,1c0.3,0.4,0.6,0.7,1,1c0.3,0.4,0.6,0.7,1,1
				c0.3,0.4,0.6,0.7,1,1c0.3,0.4,0.6,0.7,1,1c0.3,0.4,0.6,0.7,1,1c0.3,0.4,0.6,0.7,1,1c0.3,0.4,0.6,0.7,1,1c0.3,0.4,0.6,0.7,1,1
				c0.3,0.4,0.6,0.7,1,1c0.3,0.4,0.6,0.7,1,1c0.3,0.4,0.6,0.7,1,1c0.3,0.4,0.6,0.7,1,1c0.3,0.4,0.6,0.7,1,1c0.3,0.4,0.6,0.7,1,1
				c0.3,0.4,0.6,0.7,1,1c0.3,0.4,0.6,0.7,1,1c0.3,0.4,0.6,0.7,1,1c0.3,0.4,0.6,0.7,1,1c0.3,0.4,0.6,0.7,1,1c0.3,0.4,0.6,0.7,1,1
				c0.3,0.4,0.6,0.7,1,1c0.3,0.4,0.6,0.7,1,1c0.3,0.4,0.6,0.7,1,1c0.3,0.4,0.6,0.7,1,1c0.3,0.4,0.6,0.7,1,1c0.3,0.4,0.6,0.7,1,1
				c0.3,0.4,0.6,0.7,1,1c0.3,0.4,0.6,0.7,1,1c0.3,0.4,0.6,0.7,1,1c0.3,0.4,0.6,0.7,1,1c0.3,0.4,0.6,0.7,1,1c0.3,0.4,0.6,0.7,1,1
				c0.3,0.4,0.6,0.7,1,1c0.3,0.4,0.6,0.7,1,1c0.3,0.4,0.6,0.7,1,1c0.3,0.4,0.6,0.7,1,1c0.3,0.4,0.6,0.7,1,1c0.3,0.4,0.6,0.7,1,1
				c0.3,0.4,0.6,0.7,1,1c0.3,0.4,0.6,0.7,1,1c0.3,0.4,0.6,0.7,1,1c0.3,0.4,0.6,0.7,1,1c0.3,0.4,0.6,0.7,1,1c0.3,0.4,0.6,0.7,1,1
				c0.3,0.4,0.6,0.7,1,1c0.3,0.4,0.6,0.7,1,1c0.3,0.4,0.6,0.7,1,1c0.3,0.4,0.6,0.7,1,1c0.3,0.4,0.6,0.7,1,1c0.3,0.4,0.6,0.7,1,1
				c0.3,0.4,0.6,0.7,1,1c0.3,0.4,0.6,0.7,1,1c0.3,0.4,0.6,0.7,1,1c0.3,0.4,0.6,0.7,1,1c0.3,0.4,0.6,0.7,1,1c0.3,0.4,0.6,0.7,1,1
				c0.3,0.4,0.6,0.7,1,1c0.3,0.4,0.6,0.7,1,1c0.3,0.4,0.6,0.7,1,1c0.3,0.4,0.6,0.7,1,1c0.3,0.4,0.6,0.7,1,1c0.3,0.4,0.6,0.7,1,1
				c0.3,0.4,0.6,0.7,1,1c0.3,0.4,0.6,0.7,1,1c0.3,0.4,0.6,0.7,1,1c0.3,0.4,0.6,0.7,1,1c0.3,0.4,0.6,0.7,1,1c0.3,0.4,0.6,0.7,1,1
				c0.3,0.4,0.6,0.7,1,1c0.3,0.4,0.6,0.7,1,1c0.3,0.4,0.6,0.7,1,1c0.3,0.4,0.6,0.7,1,1c0.3,0.4,0.6,0.7,1,1c0.3,0.4,0.6,0.7,1,1
				c0.3,0.4,0.6,0.7,1,1c0.3,0.4,0.6,0.7,1,1c0.3,0.4,0.6,0.7,1,1c0.3,0.4,0.6,0.7,1,1c0.3,0.4,0.6,0.7,1,1c0.3,0.4,0.6,0.7,1,1
				c0.3,0.4,0.6,0.7,1,1c0.3,0.4,0.6,0.7,1,1c0.3,0.4,0.6,0.7,1,1c0.3,0.4,0.6,0.7,1,1c0.3,0.4,0.6,0.7,1,1c0.3,0.4,0.6,0.7,1,1
				c0.3,0.4,0.6,0.7,1,1c0.3,0.4,0.6,0.7,1,1c0.3,0.4,0.6,0.7,1,1c0.3,0.4,0.6,0.7,1,1c0.3,0.4,0.6,0.7,1,1c0.3,0.4,0.6,0.7,1,1
				c0.3,0.4,0.6,0.7,1,1c0.3,0.4,0.6,0.7,1,1c0.3,0.4,0.6,0.7,1,1c0.3,0.4,0.6,0.7,1,1c0.3,0.4,0.6,0.7,1,1c0.3,0.4,0.6,0.7,1,1
				c0.3,0.4,0.6,0.7,1,1c0.3,0.4,0.6,0.7,1,1c0.3,0.4,0.6,0.7,1,1c0.3,0.4,0.6,0.7,1,1c0.3,0.4,0.6,0.7,1,1c0.3,0.4,0.6,0.7,1,1
				c0.3,0.4,0.6,0.7,1,1c0.3,0.4,0.6,0.7,1,1c0.3,0.4,0.6,0.7,1,1c0.3,0.4,0.6,0.7,1,1c0.3,0.4,0.6,0.7,1,1c0.3,0.4,0.6,0.7,1,1
				c0.3,0.4,0.6,0.7,1,1c0.3,0.4,0.6,0.7,1,1c0.3,0.4,0.6,0.7,1,1c0.3,0.4,0.6,0.7,1,1c0.3,0.4,0.6,0.7,1,1c0.3,0.4,0.6,0.7,1,1
				c0.3,0.4,0.6,0.7,1,1c0.3,0.4,0.6,0.7,1,1c0.3,0.4,0.6,0.7,1,1c0.3,0.4,0.6,0.7,1,1c0.3,0.4,0.6,0.7,1,1c0.3,0.4,0.6,0.7,1,1
				c0.3,0.4,0.6,0.7,1,1c0.3,0.4,0.6,0.7,1,1c0.3,0.4,0.6,0.7,1,1c0.3,0.4,0.6,0.7,1,1c0.3,0.4,0.6,0.7,1,1c0.3,0.4,0.6,0.7,1,1
				c0.3,0.4,0.6,0.7,1,1c0.3,0.4,0.6,0.7,1,1c0.3,0.4,0.6,0.7,1,1c0.3,0.4,0.6,0.7,1,1c0.3,0.4,0.6,0.7,1,1c0.3,0.4,0.6,0.7,1,1
				c0.3,0.4,0.6,0.7,1,1c0.3,0.4,0.6,0.7,1,1c0.3,0.4,0.6,0.7,1,1c0.3,0.4,0.6,0.7,1,1c0.3,0.4,0.6,0.7,1,1c0.3,0.4,0.6,0.7,1,1
				c0.3,0.4,0.6,0.7,1,1c0.3,0.4,0.6,0.7,1,1c0.3,0.4,0.6,0.7,1,1c0.3,0.4,0.6,0.7,1,1c0.3,0.4,0.6,0.7,1,1c0.3,0.4,0.6,0.7,1,1
				c0.3,0.4,0.6,0.7,1,1c0.3,0.4,0.6,0.7,1,1c0.3,0.4,0.6,0.7,1,1c0.3,0.4,0.6,0.7,1,1c0.3,0.4,0.6,0.7,1,1c0.3,0.4,0.6,0.7,1,1
				c0.3,0.4,0.6,0.7,1,1c0.3,0.4,0.6,0.7,1,1c0.3,0.4,0.6,0.7,1,1c0.3,0.4,0.6,0.7,1,1c0.3,0.4,0.6,0.7,1,1c0.3,0.4,0.6,0.7,1,1
				c0.3,0.4,0.6,0.7,1,1c0.3,0.4,0.6,0.7,1,1c0.3,0.4,0.6,0.7,1,1c0.3,0.4,0.6,0.7,1,1c0.3,0.4,0.6,0.7,1,1c0.3,0.4,0.6,0.7,1,1
				c0.3,0.4,0.6,0.7,1,1c0.3,0.4,0.6,0.7,1,1c0.3,0.4,0.6,0.7,1,1c0.3,0.4,0.6,0.7,1,1c0.3,0.4,0.6,0.7,1,1c0.3,0.4,0.6,0.7,1,1
				c0.3,0.4,0.6,0.7,1,1c0.3,0.4,0.6,0.7,1,1c0.3,0.4,0.6,0.7,1,1c0.3,0.4,0.6,0.7,1,1c1.8,2.1,4.6,3.4,7.8,3.4
				c46-0.1,91.9-0.1,137.9-0.1c46.1,0,92.2,0,138.3,0c1.4,0,2.8-0.2,4.1-0.7c3.7-1.4,5.6-4.6,5.6-9c0-18.5,0-37,0-55.4
				c18.2-2,36.5-4.1,54.7-6.1c0.3,0.3,0.5,0.5,0.8,0.8c0.3,0.3,0.7,0.7,1,1c0.3,0.3,0.7,0.7,1,1c0.3,0.3,0.7,0.7,1,1
				c0.3,0.3,0.7,0.7,1,1c0.3,0.3,0.7,0.7,1,1c0.3,0.3,0.7,0.7,1,1c0.3,0.3,0.7,0.7,1,1c0.3,0.3,0.7,0.7,1,1c0.3,0.3,0.7,0.7,1,1
				c0.3,0.3,0.7,0.7,1,1c0.3,0.3,0.7,0.7,1,1c0.3,0.3,0.7,0.7,1,1c0.3,0.3,0.7,0.7,1,1c9.6,9.9,21.4,16.3,35.2,19.1
				c2.8,0.5,5.6,0.7,8.4,1c0.7,0.1,1.4,0.2,2.1,0.4c1.4,0,2.7,0,4.1,0c1.8-0.2,3.6-0.4,5.5-0.7c14.2-1.6,26.5-7.2,37.1-16.7
				c11.6-10.4,18.7-23.4,21.7-38.7c0.5-2.8,0.7-5.7,1-8.5c0.1-0.8,0.2-1.6,0.4-2.4c0-1.3,0-2.5,0-3.8
				C952.9,685.8,952.7,683.9,952.5,681.9z"/>
		</g>
	</g>
</g>
<g>
	<g>
		<path class="st3" d="M309.1,483.7c-46,0-91.9-0.1-137.9,0.1c-5.8,0-10.2-4.2-10.1-10.1c0.1-66.2,0-132.3,0-198.5
			c0-4.9,2.9-8.5,7.5-9.5c0.6-0.1,1.2-0.1,1.7-0.1c92.5,0,185,0,277.5,0c4.9,0,9.4,4.1,9.3,9.5c-0.1,30.1-0.1,60.2-0.1,90.3
			c0,36.2,0,72.4,0,108.6c0,4.5-1.9,7.6-5.6,9c-1.3,0.5-2.7,0.7-4.1,0.7C401.3,483.7,355.2,483.7,309.1,483.7z M309.2,283.8
			c-42.5,0-85,0-127.5,0c-2.3,0-2.3,0-2.3,2.3c0,59,0,118.1,0,177.1c0,2.3,0,2.3,2.3,2.3c85,0,170,0,255,0c2.3,0,2.3,0,2.3-2.4
			c0-59,0-118,0-177c0-0.3,0-0.7,0-1c0.1-1-0.3-1.5-1.3-1.4c-0.5,0-1.1,0-1.6,0C393.8,283.8,351.5,283.8,309.2,283.8z"/>
		<path class="st3" d="M308.7,534.4c-26.9,0-53.8,0-80.8,0c-2.1,0-2.1,0-2.1-2.1c0-3.5,0.1-7,0-10.5c0-1.4,0.5-1.8,1.8-1.8
			c17.1,0,34.1,0,51.2,0c36.8,0,73.6,0,110.5,0c2.2,0,2.2,0,2.2,2.2c0,3.5-0.1,6.9,0,10.4c0,1.4-0.5,1.8-1.8,1.8
			C362.8,534.4,335.7,534.4,308.7,534.4z"/>
		<path class="st3" d="M308.3,514.8c-11.1,0-22.1,0-33.2,0c-1.4,0-1.8-0.4-1.8-1.8c0.1-6.9,0.1-13.9,0-20.8c0-1.3,0.3-1.8,1.7-1.8
			c22.2,0,44.4,0,66.6,0c1.4,0,1.7,0.4,1.7,1.8c-0.1,6.9,0,13.8,0,20.6c0,2,0,2-1.9,2C330.3,514.8,319.3,514.8,308.3,514.8z"/>
	</g>
	<g>
		<path class="st4" d="M376.2,348.5c-10.4-5.7-21-11.6-32-17.6c10.5-6.7,20.7-13.2,31.1-19.9c0.2,5.3,0.4,10.3,0.5,15
			c48.2,3.9,96.4,7.9,144.7,11.8c0,2.8,0,5.4,0,8.3c-2-0.1-4-0.2-6.1-0.4c-6.5-0.5-13.1-1.1-19.6-1.6c-7.7-0.6-15.3-1.3-23-1.9
			c-6.1-0.5-12.3-1-18.4-1.5c-7.8-0.6-15.7-1.3-23.5-1.9c-6.1-0.5-12.3-1-18.4-1.5c-7.8-0.6-15.7-1.3-23.5-1.9
			c-3.4-0.3-6.8-0.5-10.2-0.8c-1.4-0.1-1.7,0.4-1.7,1.7C376.3,340.3,376.2,344.3,376.2,348.5z"/>
		<path class="st4" d="M344.4,425.2c10-7.3,19.8-14.5,29.8-21.8c0.5,5.4,1.1,10.6,1.6,15.9c47.8-5.3,95.4-10.7,143.2-16
			c0.5,2.7,1,5.4,1.6,8.2c-48.1,5.4-95.9,10.7-144,16.1c0.4,4.5,0.8,8.8,1.2,13.4C366.6,435.7,355.6,430.5,344.4,425.2z"/>
	</g>
	<g>
		<path class="st5" d="M505.9,379.6c0-1.3,0-2.5,0-3.8c0.1-0.7,0.3-1.4,0.4-2.1c0.2-2.3,0.3-4.7,0.7-7c2.4-14.7,8.7-27.4,19.3-37.9
			c11.1-11.1,24.4-17.6,40-19.4c1.8-0.2,3.6-0.4,5.3-0.6c1.4,0,2.7,0,4.1,0c0.7,0.1,1.4,0.3,2.1,0.4c2.8,0.3,5.6,0.5,8.4,1
			c15.7,3.1,28.8,10.9,39,23.3c8.8,10.6,13.9,22.8,15.4,36.5c0.2,2,0.4,3.9,0.7,5.9c0,1.3,0,2.5,0,3.8c-0.1,0.8-0.3,1.6-0.4,2.4
			c-0.3,2.8-0.5,5.7-1,8.5c-2.9,15.3-10.1,28.3-21.7,38.7c-10.6,9.5-22.9,15.1-37.1,16.7c-1.8,0.2-3.6,0.4-5.5,0.7
			c-1.4,0-2.7,0-4.1,0c-0.7-0.1-1.4-0.3-2.1-0.4c-2.8-0.3-5.6-0.5-8.4-1c-15.7-3.1-28.8-10.9-39-23.3c-8.8-10.6-13.9-22.8-15.4-36.5
			C506.3,383.6,506.1,381.6,505.9,379.6z M514.3,379.3c0.2,1.6,0.4,5,0.9,8.2c1.9,12.3,7.2,23.1,15.7,32.2
			c5.4,5.8,11.8,10.4,19.2,13.6c9.3,4.1,19.1,5.6,29.2,4.7c8.1-0.8,15.7-3.2,22.8-7.2c9.8-5.6,17.5-13.2,22.9-23.1
			c6.8-12.4,9.1-25.7,6.9-39.6c-2.3-14.3-8.8-26.3-19.7-36c-4.6-4.1-9.6-7.4-15.3-9.8c-10.2-4.4-20.7-5.9-31.7-4.3
			c-15.6,2.3-28.4,9.8-38.1,22.2C518.6,351.1,514.5,363.7,514.3,379.3z"/>
		<path class="st5" d="M557.8,371.2c0-3.4,0-6.7-0.1-10c0-0.4-0.8-0.9-1.3-1c-2.9-0.6-5.8-1.2-8.4-2.8c-4.8-2.8-6.2-7.9-5.6-12.7
			c0.9-7.6,6.4-11.1,13.6-12.4c1.3-0.2,1.9-0.6,1.8-2.1c-0.2-3.1-0.1-3.2,2.9-3.2c1.2,0,2.7-0.3,3.5,0.3c0.6,0.5,0.3,2.2,0.3,3.3
			c0,1.1,0.5,1.3,1.5,1.4c3.3,0.6,6.7,1.2,10,2c0.4,0.1,1.1,0.7,1.1,1.1c0.1,2.8,0.1,5.6,0.1,8.6c-2.2-0.6-4.2-1.2-6.2-1.6
			c-2-0.4-4.1-0.7-6.4-1c0,2.8,0,5.3,0,7.8c0,3.2,0,3.1,3,4c2.1,0.6,4.3,1.3,6.2,2.3c5.1,2.8,6.5,7.9,5.9,13
			c-0.8,7.1-5.6,10.1-11.9,11.7c-1,0.3-2.1,0.5-3.2,0.7c0,1.3,0,2.5,0,3.7c0,0.9-0.2,1.2-1.2,1.2c-1.6-0.1-3.1,0-4.7,0
			c-0.8,0-1.1-0.3-1-1.1c0-0.1,0-0.2,0-0.3c0-3.5-0.1-3.3-3.5-3.7c-3.4-0.4-6.6-1.3-10-2c-0.4-0.1-1.1-0.7-1.1-1.1
			c-0.1-2.8-0.1-5.6-0.1-8.7C548,370.1,552.6,371.4,557.8,371.2z M557.8,350.9c0-2.4,0-4.6,0-6.9c0-2.8-0.3-3-3-2
			c-2.8,1-4,4.3-2.1,6.6C553.9,350.1,555.7,350.6,557.8,350.9z M564.7,370.8c3.3-0.2,5.7-2.1,5.6-4.4c-0.1-2.6-2.3-4.4-5.6-4.6
			C564.7,364.8,564.7,367.8,564.7,370.8z"/>
		<path class="st5" d="M588.8,374.8c1.9,0,3.5,0,5.4,0c0,0.7,0,1.4,0,2c0,2,0.1,1.9,2,2.2c2.6,0.4,5.1,1,7.7,1.5
			c0.8,0.1,1,0.5,1,1.3c-0.1,2.2,0,4.4,0,6.7c-2.3-0.6-4.4-1.1-6.5-1.6c-4.2-0.9-4.2-0.9-4.2,3.4c0,1.4,0,2.7,0,4.1
			c0,1,0.3,1.5,1.4,1.7c3,0.6,5.9,1.3,8.2,3.5c2.9,2.7,3.6,6,3.1,9.7c-0.6,4.8-3.5,7.6-8,9.1c-0.5,0.2-1,0.3-1.5,0.5
			c-1,0.3-2.4,0.3-3,0.9c-0.5,0.6-0.2,1.9-0.3,2.9c-0.1,0.4-0.6,0.9-0.9,0.9c-1.1,0.1-2.2,0-3.4,0.1c-1,0-1.3-0.5-1.2-1.4
			c0-0.3,0-0.7,0.1-1c0.1-1.2-0.5-1.6-1.7-1.8c-3-0.4-6-1-9-1.5c-1.1-0.2-1.6-0.8-1.5-2c0.1-2,0-4.1,0-6.3c1.7,0.5,3.3,1.1,4.9,1.4
			c2,0.4,4.1,0.5,6.2,0.8c0.7,0.1,1.1-0.1,1.1-1c0-2.2,0-4.4,0-6.6c0-1.4-0.6-1.8-1.9-2c-3-0.4-5.9-1.3-8.2-3.5
			c-3.1-3-3.5-6.7-2.6-10.7c1-4.5,4.1-7,8.4-8.3c1-0.3,2.1-0.6,3.1-0.8c1-0.1,1.3-0.6,1.2-1.6C588.6,376.7,588.8,375.8,588.8,374.8z
			 M588.7,394.8c0-2.4,0-4.7,0-6.9c0-0.3-0.5-1-0.8-0.9c-1.5,0.1-3,0.6-3.8,2.1c-0.7,1.3-0.7,2.6,0.1,3.7
			C585.2,394.1,586.8,394.6,588.7,394.8z M594.5,403.8c-0.1,0.3-0.2,0.4-0.2,0.6c0,1.5-0.1,3,0,4.5c0,0.9,0.3,1.8,0.4,2.6
			c1-0.3,2-0.6,3-0.9c0.2-0.1,0.4-0.3,0.5-0.5c1.1-1.2,1.3-2.7,0.5-4C597.8,404.5,596.2,404,594.5,403.8z"/>
	</g>
	<g>
		<path class="st5" d="M271.9,334.8c0-0.7,0-1.4,0-2c0.1-0.4,0.1-0.8,0.2-1.1c0.1-1.2,0.2-2.5,0.4-3.7c1.3-7.8,4.7-14.7,10.3-20.3
			c5.9-5.9,13-9.4,21.4-10.4c1-0.1,1.9-0.2,2.8-0.3c0.7,0,1.5,0,2.2,0c0.4,0.1,0.8,0.1,1.1,0.2c1.5,0.2,3,0.3,4.5,0.6
			c8.4,1.7,15.4,5.8,20.9,12.4c4.7,5.7,7.4,12.2,8.2,19.5c0.1,1.1,0.2,2.1,0.4,3.2c0,0.7,0,1.4,0,2c-0.1,0.4-0.1,0.9-0.2,1.3
			c-0.2,1.5-0.3,3.1-0.5,4.6c-1.6,8.2-5.4,15.1-11.6,20.7c-5.6,5.1-12.2,8.1-19.8,8.9c-1,0.1-2,0.2-2.9,0.3c-0.7,0-1.5,0-2.2,0
			c-0.4-0.1-0.8-0.1-1.1-0.2c-1.5-0.2-3-0.3-4.5-0.6c-8.4-1.7-15.4-5.8-20.9-12.4c-4.7-5.7-7.4-12.2-8.2-19.5
			C272.2,336.9,272,335.9,271.9,334.8z M276.4,334.7c0.1,0.9,0.2,2.6,0.5,4.4c1,6.6,3.8,12.3,8.4,17.2c2.9,3.1,6.3,5.5,10.2,7.3
			c5,2.2,10.2,3,15.6,2.5c4.3-0.4,8.4-1.7,12.2-3.8c5.2-3,9.4-7.1,12.3-12.3c3.7-6.6,4.9-13.7,3.7-21.2c-1.2-7.7-4.7-14.1-10.5-19.2
			c-2.5-2.2-5.2-3.9-8.2-5.3c-5.4-2.4-11.1-3.2-16.9-2.3c-8.4,1.2-15.2,5.3-20.4,11.9C278.7,319.6,276.5,326.3,276.4,334.7z"/>
		<path class="st5" d="M299.7,330.3c0-1.8,0-3.6,0-5.3c0-0.2-0.4-0.5-0.7-0.5c-1.6-0.3-3.1-0.7-4.5-1.5c-2.6-1.5-3.3-4.2-3-6.8
			c0.5-4.1,3.4-6,7.3-6.7c0.7-0.1,1-0.3,1-1.1c-0.1-1.7,0-1.7,1.6-1.7c0.6,0,1.5-0.2,1.9,0.2c0.3,0.3,0.2,1.2,0.2,1.8
			c0,0.6,0.3,0.7,0.8,0.8c1.8,0.3,3.6,0.7,5.3,1c0.2,0.1,0.6,0.4,0.6,0.6c0,1.5,0,3,0,4.6c-1.2-0.3-2.2-0.6-3.3-0.9
			c-1.1-0.2-2.2-0.4-3.4-0.5c0,1.5,0,2.8,0,4.2c0,1.7,0,1.7,1.6,2.1c1.1,0.3,2.3,0.7,3.3,1.2c2.7,1.5,3.5,4.2,3.1,6.9
			c-0.5,3.8-3,5.4-6.4,6.2c-0.6,0.1-1.1,0.2-1.7,0.4c0,0.7,0,1.3,0,2c0,0.5-0.1,0.7-0.6,0.6c-0.8,0-1.7,0-2.5,0
			c-0.4,0-0.6-0.2-0.5-0.6c0-0.1,0-0.1,0-0.2c0-1.9,0-1.8-1.9-2c-1.8-0.2-3.6-0.7-5.3-1.1c-0.2-0.1-0.6-0.4-0.6-0.6
			c-0.1-1.5,0-3,0-4.6C294.4,329.7,296.9,330.4,299.7,330.3z M299.7,319.5c0-1.3,0-2.5,0-3.7c0-1.5-0.1-1.6-1.6-1.1
			c-1.5,0.5-2.1,2.3-1.1,3.6C297.6,319,298.5,319.3,299.7,319.5z M303.4,330.1c1.8-0.1,3-1.1,3-2.4c0-1.4-1.2-2.4-3-2.5
			C303.4,326.9,303.4,328.5,303.4,330.1z"/>
		<path class="st5" d="M316.3,332.2c1,0,1.9,0,2.9,0c0,0.4,0,0.7,0,1.1c0,1.1,0.1,1,1.1,1.2c1.4,0.2,2.8,0.5,4.1,0.8
			c0.4,0.1,0.5,0.3,0.5,0.7c0,1.2,0,2.4,0,3.6c-1.2-0.3-2.3-0.6-3.5-0.8c-2.3-0.5-2.3-0.5-2.2,1.8c0,0.7,0,1.5,0,2.2
			c0,0.5,0.2,0.8,0.7,0.9c1.6,0.3,3.2,0.7,4.4,1.9c1.6,1.4,1.9,3.2,1.7,5.2c-0.3,2.6-1.9,4.1-4.3,4.9c-0.3,0.1-0.5,0.2-0.8,0.3
			c-0.5,0.2-1.3,0.1-1.6,0.5c-0.3,0.3-0.1,1-0.2,1.6c0,0.2-0.3,0.5-0.5,0.5c-0.6,0.1-1.2,0-1.8,0c-0.5,0-0.7-0.2-0.6-0.7
			c0-0.2,0-0.4,0-0.5c0-0.6-0.2-0.9-0.9-1c-1.6-0.2-3.2-0.5-4.8-0.8c-0.6-0.1-0.9-0.4-0.8-1.1c0.1-1.1,0-2.2,0-3.4
			c0.9,0.3,1.8,0.6,2.6,0.8c1.1,0.2,2.2,0.3,3.3,0.4c0.4,0,0.6-0.1,0.6-0.5c0-1.2,0-2.3,0-3.5c0-0.7-0.3-1-1-1.1
			c-1.6-0.2-3.2-0.7-4.4-1.9c-1.6-1.6-1.9-3.6-1.4-5.7c0.5-2.4,2.2-3.8,4.5-4.4c0.5-0.2,1.1-0.3,1.7-0.4c0.5-0.1,0.7-0.3,0.6-0.8
			C316.2,333.3,316.2,332.8,316.3,332.2z M316.2,342.9c0-1.3,0-2.5,0-3.7c0-0.2-0.3-0.5-0.4-0.5c-0.8,0.1-1.6,0.3-2,1.1
			c-0.4,0.7-0.4,1.4,0.1,2C314.4,342.6,315.2,342.8,316.2,342.9z M319.3,347.8c-0.1,0.2-0.1,0.2-0.1,0.3c0,0.8,0,1.6,0,2.4
			c0,0.5,0.1,0.9,0.2,1.4c0.5-0.2,1.1-0.3,1.6-0.5c0.1,0,0.2-0.2,0.3-0.3c0.6-0.6,0.7-1.4,0.3-2.2
			C321.1,348.1,320.2,347.9,319.3,347.8z"/>
	</g>
	<g>
		<path class="st5" d="M273.3,418.9c0-0.7,0-1.4,0-2c0.1-0.4,0.1-0.8,0.2-1.1c0.1-1.2,0.2-2.5,0.4-3.7c1.3-7.8,4.7-14.7,10.3-20.3
			c5.9-5.9,13-9.4,21.4-10.4c1-0.1,1.9-0.2,2.8-0.3c0.7,0,1.5,0,2.2,0c0.4,0.1,0.8,0.1,1.1,0.2c1.5,0.2,3,0.3,4.5,0.6
			c8.4,1.7,15.4,5.8,20.9,12.4c4.7,5.7,7.4,12.2,8.2,19.5c0.1,1.1,0.2,2.1,0.4,3.2c0,0.7,0,1.4,0,2c-0.1,0.4-0.1,0.9-0.2,1.3
			c-0.2,1.5-0.3,3.1-0.5,4.6c-1.6,8.2-5.4,15.1-11.6,20.7c-5.6,5.1-12.2,8.1-19.8,8.9c-1,0.1-2,0.2-2.9,0.3c-0.7,0-1.5,0-2.2,0
			c-0.4-0.1-0.8-0.1-1.1-0.2c-1.5-0.2-3-0.3-4.5-0.6c-8.4-1.7-15.4-5.8-20.9-12.4c-4.7-5.7-7.4-12.2-8.2-19.5
			C273.5,421,273.4,420,273.3,418.9z M277.8,418.8c0.1,0.9,0.2,2.6,0.5,4.4c1,6.6,3.8,12.3,8.4,17.2c2.9,3.1,6.3,5.5,10.2,7.3
			c5,2.2,10.2,3,15.6,2.5c4.3-0.4,8.4-1.7,12.2-3.8c5.2-3,9.4-7.1,12.3-12.3c3.7-6.6,4.9-13.7,3.7-21.2c-1.2-7.7-4.7-14.1-10.5-19.2
			c-2.5-2.2-5.2-3.9-8.2-5.3c-5.4-2.4-11.1-3.2-16.9-2.3c-8.4,1.2-15.2,5.3-20.4,11.9C280.1,403.7,277.9,410.4,277.8,418.8z"/>
		<path class="st5" d="M301,414.4c0-1.8,0-3.6,0-5.3c0-0.2-0.4-0.5-0.7-0.5c-1.6-0.3-3.1-0.7-4.5-1.5c-2.6-1.5-3.3-4.2-3-6.8
			c0.5-4.1,3.4-6,7.3-6.7c0.7-0.1,1-0.3,1-1.1c-0.1-1.7,0-1.7,1.6-1.7c0.6,0,1.5-0.2,1.9,0.2c0.3,0.3,0.2,1.2,0.2,1.8
			c0,0.6,0.3,0.7,0.8,0.8c1.8,0.3,3.6,0.7,5.3,1c0.2,0.1,0.6,0.4,0.6,0.6c0,1.5,0,3,0,4.6c-1.2-0.3-2.2-0.6-3.3-0.9
			c-1.1-0.2-2.2-0.4-3.4-0.5c0,1.5,0,2.8,0,4.2c0,1.7,0,1.7,1.6,2.1c1.1,0.3,2.3,0.7,3.3,1.2c2.7,1.5,3.5,4.2,3.1,6.9
			c-0.5,3.8-3,5.4-6.4,6.2c-0.6,0.1-1.1,0.2-1.7,0.4c0,0.7,0,1.3,0,2c0,0.5-0.1,0.7-0.6,0.6c-0.8,0-1.7,0-2.5,0
			c-0.4,0-0.6-0.2-0.5-0.6c0-0.1,0-0.1,0-0.2c0-1.9,0-1.8-1.9-2c-1.8-0.2-3.6-0.7-5.3-1.1c-0.2-0.1-0.6-0.4-0.6-0.6
			c-0.1-1.5,0-3,0-4.6C295.8,413.8,298.3,414.6,301,414.4z M301,403.6c0-1.3,0-2.5,0-3.7c0-1.5-0.1-1.6-1.6-1.1
			c-1.5,0.5-2.1,2.3-1.1,3.6C298.9,403.2,299.9,403.4,301,403.6z M304.7,414.2c1.8-0.1,3-1.1,3-2.4c0-1.4-1.2-2.4-3-2.5
			C304.7,411,304.7,412.6,304.7,414.2z"/>
		<path class="st5" d="M317.6,416.4c1,0,1.9,0,2.9,0c0,0.4,0,0.7,0,1.1c0,1.1,0.1,1,1.1,1.2c1.4,0.2,2.8,0.5,4.1,0.8
			c0.4,0.1,0.5,0.3,0.5,0.7c0,1.2,0,2.4,0,3.6c-1.2-0.3-2.3-0.6-3.5-0.8c-2.3-0.5-2.3-0.5-2.2,1.8c0,0.7,0,1.5,0,2.2
			c0,0.5,0.2,0.8,0.7,0.9c1.6,0.3,3.2,0.7,4.4,1.9c1.6,1.4,1.9,3.2,1.7,5.2c-0.3,2.6-1.9,4.1-4.3,4.9c-0.3,0.1-0.5,0.2-0.8,0.3
			c-0.5,0.2-1.3,0.1-1.6,0.5c-0.3,0.3-0.1,1-0.2,1.6c0,0.2-0.3,0.5-0.5,0.5c-0.6,0.1-1.2,0-1.8,0c-0.5,0-0.7-0.2-0.6-0.7
			c0-0.2,0-0.4,0-0.5c0-0.6-0.2-0.9-0.9-1c-1.6-0.2-3.2-0.5-4.8-0.8c-0.6-0.1-0.9-0.4-0.8-1.1c0.1-1.1,0-2.2,0-3.4
			c0.9,0.3,1.8,0.6,2.6,0.8c1.1,0.2,2.2,0.3,3.3,0.4c0.4,0,0.6-0.1,0.6-0.5c0-1.2,0-2.3,0-3.5c0-0.7-0.3-1-1-1.1
			c-1.6-0.2-3.2-0.7-4.4-1.9c-1.6-1.6-1.9-3.6-1.4-5.7c0.5-2.4,2.2-3.8,4.5-4.4c0.5-0.2,1.1-0.3,1.7-0.4c0.5-0.1,0.7-0.3,0.6-0.8
			C317.5,417.4,317.6,416.9,317.6,416.4z M317.6,427c0-1.3,0-2.5,0-3.7c0-0.2-0.3-0.5-0.4-0.5c-0.8,0.1-1.6,0.3-2,1.1
			c-0.4,0.7-0.4,1.4,0.1,2C315.7,426.7,316.5,427,317.6,427z M320.7,431.9c-0.1,0.2-0.1,0.2-0.1,0.3c0,0.8,0,1.6,0,2.4
			c0,0.5,0.1,0.9,0.2,1.4c0.5-0.2,1.1-0.3,1.6-0.5c0.1,0,0.2-0.2,0.3-0.3c0.6-0.6,0.7-1.4,0.3-2.2
			C322.4,432.2,321.6,432,320.7,431.9z"/>
	</g>
</g>
</svg>
