<?xml version="1.0" encoding="utf-8"?>
<!-- Generator: Adobe Illustrator 24.1.2, SVG Export Plug-In . SVG Version: 6.00 Build 0)  -->
<svg version="1.1" id="Layer_1" xmlns="http://www.w3.org/2000/svg" xmlns:xlink="http://www.w3.org/1999/xlink" x="0px" y="0px"
	 viewBox="0 0 800 800" style="enable-background:new 0 0 800 800;" xml:space="preserve">
<style type="text/css">
	.st0{fill:#333333;}
	.st1{opacity:0.4;clip-path:url(#SVGID_2_);enable-background:new    ;}
	.st2{fill:#E34F36;}
	.st3{fill:#E0E0E0;}
	.st4{fill:#707273;}
	.st5{fill:#12A65A;}
</style>
<g id="Layer_2_2_">
	<g id="Layer_2_1_">
		<g>
			<circle class="st0" cx="400" cy="400" r="400"/>
		</g>
	</g>
</g>
<g id="Layer_1_copy">
	<g>
		<g>
			<g>
				<defs>
					<circle id="SVGID_1_" cx="400" cy="400" r="400"/>
				</defs>
				<clipPath id="SVGID_2_">
					<use xlink:href="#SVGID_1_"  style="overflow:visible;"/>
				</clipPath>
				<path class="st1" d="M891.1,506.4c0-15.7-5.6-29-15.2-38.3c-0.3-0.3-0.7-0.7-1-1s-0.7-0.7-1-1s-0.7-0.7-1-1s-0.7-0.7-1-1
					s-0.7-0.7-1-1s-0.7-0.7-1-1s-0.7-0.7-1-1s-0.7-0.7-1-1s-0.7-0.7-1-1s-0.7-0.7-1-1s-0.7-0.7-1-1s-0.7-0.7-1-1s-0.7-0.7-1-1
					s-0.7-0.7-1-1s-0.7-0.7-1-1s-0.7-0.7-1-1s-0.7-0.7-1-1s-0.7-0.7-1-1s-0.7-0.7-1-1s-0.7-0.7-1-1s-0.7-0.7-1-1s-0.7-0.7-1-1
					s-0.7-0.7-1-1s-0.7-0.7-1-1s-0.7-0.7-1-1s-0.7-0.7-1-1s-0.7-0.7-1-1s-0.7-0.7-1-1s-0.7-0.7-1-1s-0.7-0.7-1-1s-0.7-0.7-1-1
					s-0.7-0.7-1-1s-0.7-0.7-1-1s-0.7-0.7-1-1s-0.7-0.7-1-1s-0.7-0.7-1-1s-0.7-0.7-1-1s-0.7-0.7-1-1s-0.7-0.7-1-1s-0.7-0.7-1-1
					s-0.7-0.7-1-1s-0.7-0.7-1-1s-0.7-0.7-1-1s-0.7-0.7-1-1s-0.7-0.7-1-1s-0.7-0.7-1-1s-0.7-0.7-1-1s-0.7-0.7-1-1s-0.7-0.7-1-1
					s-0.7-0.7-1-1s-0.7-0.7-1-1s-0.7-0.7-1-1s-0.7-0.7-1-1s-0.7-0.7-1-1s-0.7-0.7-1-1s-0.7-0.7-1-1s-0.7-0.7-1-1s-0.7-0.7-1-1
					s-0.7-0.7-1-1s-0.7-0.7-1-1s-0.7-0.7-1-1s-0.7-0.7-1-1s-0.7-0.7-1-1s-0.7-0.7-1-1s-0.7-0.7-1-1s-0.7-0.7-1-1s-0.7-0.7-1-1
					s-0.7-0.7-1-1s-0.7-0.7-1-1s-0.7-0.7-1-1s-0.7-0.7-1-1s-0.7-0.7-1-1s-0.7-0.7-1-1s-0.7-0.7-1-1s-0.7-0.7-1-1s-0.7-0.7-1-1
					s-0.7-0.7-1-1s-0.7-0.7-1-1s-0.7-0.7-1-1s-0.7-0.7-1-1s-0.7-0.7-1-1s-0.7-0.7-1-1s-0.7-0.7-1-1s-0.7-0.7-1-1s-0.7-0.7-1-1
					s-0.7-0.7-1-1s-0.7-0.7-1-1s-0.7-0.7-1-1s-0.7-0.7-1-1s-0.7-0.7-1-1s-0.7-0.7-1-1s-0.7-0.7-1-1s-0.7-0.7-1-1s-0.7-0.7-1-1
					s-0.7-0.7-1-1s-0.7-0.7-1-1s-0.7-0.7-1-1s-0.7-0.7-1-1s-0.7-0.7-1-1s-0.7-0.7-1-1s-0.7-0.7-1-1s-0.7-0.7-1-1s-0.7-0.7-1-1
					s-0.7-0.7-1-1s-0.7-0.7-1-1s-0.7-0.7-1-1s-0.7-0.7-1-1s-0.7-0.7-1-1s-0.7-0.7-1-1s-0.7-0.7-1-1s-0.7-0.7-1-1s-0.7-0.7-1-1
					s-0.7-0.7-1-1s-0.7-0.7-1-1s-0.7-0.7-1-1s-0.7-0.7-1-1s-0.7-0.7-1-1s-0.7-0.7-1-1s-0.7-0.7-1-1s-0.7-0.7-1-1s-0.7-0.7-1-1
					s-0.7-0.7-1-1s-0.7-0.7-1-1s-0.7-0.7-1-1s-0.7-0.7-1-1s-0.7-0.7-1-1s-0.7-0.7-1-1s-0.7-0.7-1-1s-0.7-0.7-1-1s-0.7-0.7-1-1
					s-0.7-0.7-1-1s-0.7-0.7-1-1s-0.7-0.7-1-1s-0.7-0.7-1-1s-0.7-0.7-1-1s-0.7-0.7-1-1s-0.7-0.7-1-1s-0.7-0.7-1-1s-0.7-0.7-1-1
					s-0.7-0.7-1-1s-0.7-0.7-1-1s-0.7-0.7-1-1s-0.7-0.7-1-1s-0.7-0.7-1-1s-0.7-0.7-1-1s-0.7-0.7-1-1s-0.7-0.7-1-1s-0.7-0.7-1-1
					s-0.7-0.7-1-1s-0.7-0.7-1-1s-0.7-0.7-1-1s-0.7-0.7-1-1s-0.7-0.7-1-1s-0.7-0.7-1-1s-0.7-0.7-1-1s-0.7-0.7-1-1s-0.7-0.7-1-1
					s-0.7-0.7-1-1s-0.7-0.7-1-1s-0.7-0.7-1-1s-0.7-0.7-1-1s-0.7-0.7-1-1s-0.7-0.7-1-1s-0.7-0.7-1-1s-0.7-0.7-1-1s-0.7-0.7-1-1
					s-0.7-0.7-1-1s-0.7-0.7-1-1s-0.7-0.7-1-1s-0.7-0.7-1-1s-0.7-0.7-1-1s-0.7-0.7-1-1s-0.7-0.7-1-1s-0.7-0.7-1-1s-0.7-0.7-1-1
					s-0.7-0.7-1-1s-0.7-0.7-1-1s-0.7-0.7-1-1s-0.7-0.7-1-1s-0.7-0.7-1-1s-0.7-0.7-1-1s-0.7-0.7-1-1s-0.7-0.7-1-1s-0.7-0.7-1-1
					s-0.7-0.7-1-1s-0.7-0.7-1-1s-0.7-0.7-1-1s-0.7-0.7-1-1s-0.7-0.7-1-1s-0.7-0.7-1-1s-0.7-0.7-1-1s-0.7-0.7-1-1s-0.7-0.7-1-1
					s-0.7-0.7-1-1s-0.7-0.7-1-1s-0.7-0.7-1-1s-0.7-0.7-1-1s-0.7-0.7-1-1s-0.7-0.7-1-1s-0.7-0.7-1-1s-0.7-0.7-1-1s-0.7-0.7-1-1
					s-0.7-0.7-1-1s-0.7-0.7-1-1s-0.7-0.7-1-1s-0.7-0.7-1-1s-0.7-0.7-1-1s-0.7-0.7-1-1s-0.7-0.7-1-1s-0.7-0.7-1-1s-0.7-0.7-1-1
					s-0.7-0.7-1-1c-0.3-0.3-0.7-0.7-1-1s-0.7-0.7-1-1s-0.7-0.7-1-1s-0.7-0.7-1-1s-0.7-0.7-1-1s-0.7-0.7-1-1s-0.7-0.7-1-1
					s-0.7-0.7-1-1s-0.7-0.7-1-1s-0.7-0.7-1-1s-0.7-0.7-1-1s-0.7-0.7-1-1s-0.7-0.7-1-1s-0.7-0.7-1-1s-0.7-0.7-1-1s-0.7-0.7-1-1
					s-0.7-0.7-1-1s-0.7-0.7-1-1s-0.7-0.7-1-1s-0.7-0.7-1-1s-0.7-0.7-1-1s-0.7-0.7-1-1s-0.7-0.7-1-1s-0.7-0.7-1-1s-0.7-0.7-1-1
					s-0.7-0.7-1-1s-0.7-0.7-1-1s-0.7-0.7-1-1s-0.7-0.7-1-1s-0.7-0.7-1-1s-0.7-0.7-1-1s-0.7-0.7-1-1s-0.7-0.7-1-1s-0.7-0.7-1-1
					s-0.7-0.7-1-1s-0.7-0.7-1-1s-0.7-0.7-1-1s-0.7-0.7-1-1s-0.7-0.7-1-1s-0.7-0.7-1-1s-0.7-0.7-1-1s-0.7-0.7-1-1s-0.7-0.7-1-1
					s-0.7-0.7-1-1s-0.7-0.7-1-1s-0.7-0.7-1-1s-0.7-0.7-1-1s-0.7-0.7-1-1s-0.7-0.7-1-1s-0.7-0.7-1-1s-0.7-0.7-1-1s-0.7-0.7-1-1
					s-0.7-0.7-1-1s-0.7-0.7-1-1s-0.7-0.7-1-1s-0.7-0.7-1-1s-0.7-0.7-1-1s-0.7-0.7-1-1s-0.7-0.7-1-1s-0.7-0.7-1-1s-0.7-0.7-1-1
					s-0.7-0.7-1-1s-0.7-0.7-1-1s-0.7-0.7-1-1s-0.7-0.7-1-1s-0.7-0.7-1-1s-0.7-0.7-1-1s-0.7-0.7-1-1s-0.7-0.7-1-1s-0.7-0.7-1-1
					s-0.7-0.7-1-1s-0.7-0.7-1-1s-0.7-0.7-1-1s-0.7-0.7-1-1s-0.7-0.7-1-1s-0.7-0.7-1-1s-0.7-0.7-1-1s-0.7-0.7-1-1s-0.7-0.7-1-1
					s-0.7-0.7-1-1s-0.7-0.7-1-1c-9.3-9.6-22.5-15.2-38.2-15.2c-97.4,0-194.9,0-292.3,0c-30.9,0.1-52.4,21.6-52.4,52.3
					c0,62.5,0,125.1,0,187.6c0,62.4,0,124.7,0.1,187c0,16.1,5.6,29.5,15.2,38.9c0.3,0.3,0.7,0.7,1,1s0.7,0.7,1,1s0.7,0.7,1,1
					s0.7,0.7,1,1s0.7,0.7,1,1s0.7,0.7,1,1s0.7,0.7,1,1s0.7,0.7,1,1s0.7,0.7,1,1s0.7,0.7,1,1s0.7,0.7,1,1s0.7,0.7,1,1s0.7,0.7,1,1
					s0.7,0.7,1,1s0.7,0.7,1,1s0.7,0.7,1,1s0.7,0.7,1,1s0.7,0.7,1,1s0.7,0.7,1,1s0.7,0.7,1,1s0.7,0.7,1,1s0.7,0.7,1,1s0.7,0.7,1,1
					s0.7,0.7,1,1s0.7,0.7,1,1s0.7,0.7,1,1s0.7,0.7,1,1s0.7,0.7,1,1s0.7,0.7,1,1s0.7,0.7,1,1s0.7,0.7,1,1s0.7,0.7,1,1s0.7,0.7,1,1
					s0.7,0.7,1,1s0.7,0.7,1,1s0.7,0.7,1,1s0.7,0.7,1,1s0.7,0.7,1,1s0.7,0.7,1,1s0.7,0.7,1,1s0.7,0.7,1,1c0.3,0.3,0.7,0.7,1,1
					s0.7,0.7,1,1s0.7,0.7,1,1s0.7,0.7,1,1s0.7,0.7,1,1s0.7,0.7,1,1s0.7,0.7,1,1s0.7,0.7,1,1s0.7,0.7,1,1s0.7,0.7,1,1s0.7,0.7,1,1
					s0.7,0.7,1,1s0.7,0.7,1,1s0.7,0.7,1,1s0.7,0.7,1,1s0.7,0.7,1,1s0.7,0.7,1,1s0.7,0.7,1,1s0.7,0.7,1,1s0.7,0.7,1,1s0.7,0.7,1,1
					s0.7,0.7,1,1s0.7,0.7,1,1s0.7,0.7,1,1s0.7,0.7,1,1s0.7,0.7,1,1s0.7,0.7,1,1s0.7,0.7,1,1s0.7,0.7,1,1s0.7,0.7,1,1s0.7,0.7,1,1
					s0.7,0.7,1,1s0.7,0.7,1,1s0.7,0.7,1,1s0.7,0.7,1,1s0.7,0.7,1,1s0.7,0.7,1,1s0.7,0.7,1,1s0.7,0.7,1,1s0.7,0.7,1,1s0.7,0.7,1,1
					s0.7,0.7,1,1s0.7,0.7,1,1s0.7,0.7,1,1s0.7,0.7,1,1s0.7,0.7,1,1s0.7,0.7,1,1s0.7,0.7,1,1s0.7,0.7,1,1s0.7,0.7,1,1s0.7,0.7,1,1
					s0.7,0.7,1,1s0.7,0.7,1,1s0.7,0.7,1,1s0.7,0.7,1,1s0.7,0.7,1,1s0.7,0.7,1,1s0.7,0.7,1,1s0.7,0.7,1,1s0.7,0.7,1,1s0.7,0.7,1,1
					s0.7,0.7,1,1s0.7,0.7,1,1s0.7,0.7,1,1s0.7,0.7,1,1s0.7,0.7,1,1s0.7,0.7,1,1s0.7,0.7,1,1s0.7,0.7,1,1s0.7,0.7,1,1s0.7,0.7,1,1
					s0.7,0.7,1,1s0.7,0.7,1,1s0.7,0.7,1,1s0.7,0.7,1,1s0.7,0.7,1,1s0.7,0.7,1,1s0.7,0.7,1,1s0.7,0.7,1,1s0.7,0.7,1,1s0.7,0.7,1,1
					s0.7,0.7,1,1s0.7,0.7,1,1s0.7,0.7,1,1s0.7,0.7,1,1s0.7,0.7,1,1s0.7,0.7,1,1s0.7,0.7,1,1s0.7,0.7,1,1s0.7,0.7,1,1s0.7,0.7,1,1
					s0.7,0.7,1,1s0.7,0.7,1,1s0.7,0.7,1,1s0.7,0.7,1,1s0.7,0.7,1,1s0.7,0.7,1,1s0.7,0.7,1,1s0.7,0.7,1,1s0.7,0.7,1,1s0.7,0.7,1,1
					s0.7,0.7,1,1s0.7,0.7,1,1s0.7,0.7,1,1s0.7,0.7,1,1s0.7,0.7,1,1s0.7,0.7,1,1s0.7,0.7,1,1s0.7,0.7,1,1s0.7,0.7,1,1s0.7,0.7,1,1
					s0.7,0.7,1,1s0.7,0.7,1,1s0.7,0.7,1,1s0.7,0.7,1,1s0.7,0.7,1,1s0.7,0.7,1,1s0.7,0.7,1,1s0.7,0.7,1,1s0.7,0.7,1,1s0.7,0.7,1,1
					s0.7,0.7,1,1s0.7,0.7,1,1s0.7,0.7,1,1s0.7,0.7,1,1s0.7,0.7,1,1s0.7,0.7,1,1s0.7,0.7,1,1s0.7,0.7,1,1s0.7,0.7,1,1s0.7,0.7,1,1
					s0.7,0.7,1,1s0.7,0.7,1,1s0.7,0.7,1,1s0.7,0.7,1,1s0.7,0.7,1,1s0.7,0.7,1,1s0.7,0.7,1,1s0.7,0.7,1,1s0.7,0.7,1,1s0.7,0.7,1,1
					s0.7,0.7,1,1s0.7,0.7,1,1s0.7,0.7,1,1s0.7,0.7,1,1s0.7,0.7,1,1s0.7,0.7,1,1s0.7,0.7,1,1s0.7,0.7,1,1s0.7,0.7,1,1s0.7,0.7,1,1
					s0.7,0.7,1,1s0.7,0.7,1,1s0.7,0.7,1,1s0.7,0.7,1,1s0.7,0.7,1,1s0.7,0.7,1,1s0.7,0.7,1,1s0.7,0.7,1,1s0.7,0.7,1,1s0.7,0.7,1,1
					s0.7,0.7,1,1s0.7,0.7,1,1s0.7,0.7,1,1s0.7,0.7,1,1s0.7,0.7,1,1s0.7,0.7,1,1s0.7,0.7,1,1s0.7,0.7,1,1s0.7,0.7,1,1s0.7,0.7,1,1
					s0.7,0.7,1,1s0.7,0.7,1,1s0.7,0.7,1,1s0.7,0.7,1,1s0.7,0.7,1,1s0.7,0.7,1,1s0.7,0.7,1,1s0.7,0.7,1,1s0.7,0.7,1,1s0.7,0.7,1,1
					s0.7,0.7,1,1s0.7,0.7,1,1s0.7,0.7,1,1s0.7,0.7,1,1s0.7,0.7,1,1s0.7,0.7,1,1s0.7,0.7,1,1s0.7,0.7,1,1s0.7,0.7,1,1s0.7,0.7,1,1
					s0.7,0.7,1,1s0.7,0.7,1,1s0.7,0.7,1,1s0.7,0.7,1,1s0.7,0.7,1,1s0.7,0.7,1,1s0.7,0.7,1,1s0.7,0.7,1,1s0.7,0.7,1,1s0.7,0.7,1,1
					s0.7,0.7,1,1s0.7,0.7,1,1s0.7,0.7,1,1s0.7,0.7,1,1s0.7,0.7,1,1s0.7,0.7,1,1s0.7,0.7,1,1s0.7,0.7,1,1s0.7,0.7,1,1s0.7,0.7,1,1
					s0.7,0.7,1,1s0.7,0.7,1,1s0.7,0.7,1,1s0.7,0.7,1,1s0.7,0.7,1,1s0.7,0.7,1,1s0.7,0.7,1,1s0.7,0.7,1,1s0.7,0.7,1,1s0.7,0.7,1,1
					s0.7,0.7,1,1s0.7,0.7,1,1s0.7,0.7,1,1s0.7,0.7,1,1s0.7,0.7,1,1s0.7,0.7,1,1s0.7,0.7,1,1s0.7,0.7,1,1s0.7,0.7,1,1s0.7,0.7,1,1
					s0.7,0.7,1,1s0.7,0.7,1,1s0.7,0.7,1,1s0.7,0.7,1,1s0.7,0.7,1,1s0.7,0.7,1,1s0.7,0.7,1,1s0.7,0.7,1,1s0.7,0.7,1,1s0.7,0.7,1,1
					s0.7,0.7,1,1s0.7,0.7,1,1s0.7,0.7,1,1s0.7,0.7,1,1s0.7,0.7,1,1s0.7,0.7,1,1s0.7,0.7,1,1s0.7,0.7,1,1s0.7,0.7,1,1s0.7,0.7,1,1
					s0.7,0.7,1,1c9.3,9.6,22.6,15.2,38.6,15.2c67.5,0,134.9,0,202.4,0.1c3.6,0,6.1-1.1,8.7-3.6c43.1-43.3,86.3-86.5,129.6-129.6
					c2.7-2.8,3.7-5.4,3.7-9.2C891.1,696.6,891.1,601.5,891.1,506.4z"/>
			</g>
		</g>
	</g>
</g>
<g>
	<path class="st2" d="M199.8,399.9c0-62.5,0-125.1,0-187.6c0-30.7,21.5-52.2,52.4-52.3c97.4,0,194.9,0,292.3,0
		c30.8,0,52.3,21.6,52.3,52.4c0,95,0,190.1,0.1,285.2c0,3.8-1.1,6.4-3.7,9.2c-43.3,43.1-86.5,86.3-129.6,129.6
		c-2.6,2.6-5.1,3.6-8.7,3.6c-67.5-0.1-134.9-0.1-202.4-0.1c-31.4,0-52.7-21.5-52.7-53C199.8,524.6,199.8,462.3,199.8,399.9z
		 M437.7,609.1c0-2.2,0-4,0-5.9c0-23.4,0-46.9,0-70.3c0.1-30.9,21.5-52.2,52.4-52.3c23.4,0,46.9,0,70.3,0c1.8,0,3.7,0,5.8,0
		c0-2.3,0-3.8,0-5.4c0-87.4,0-174.8,0-262.2c0-14.7-7.7-22.3-22.5-22.3c-96.7,0-193.3,0-290,0c-16.2,0-23.4,7.2-23.4,23.3
		c0,124.6,0,249.1,0,373.7c0,13.9,7.8,21.7,21.6,21.7c60.1,0,120.3,0,180.4,0C434,609.3,435.5,609.2,437.7,609.1z M468.9,585.6
		c25.1-25.1,50-50,74.4-74.4c-17.7,0-36.5-0.2-55.2,0.1c-9.5,0.2-17.8,7.1-18.1,15.9c-0.6,19.6-0.2,39.1-0.2,58.8
		C469.7,586.1,469.9,586.1,468.9,585.6z"/>
	<path class="st3" d="M437.7,609.1c-2.2,0.1-3.7,0.2-5.3,0.2c-60.1,0-120.3,0-180.4,0c-13.8,0-21.5-7.8-21.6-21.7
		c0-124.6,0-249.1,0-373.7c0-16.1,7.2-23.3,23.4-23.3c96.7,0,193.3,0,290,0c14.8,0,22.5,7.6,22.5,22.3c0,87.4,0,174.8,0,262.2
		c0,1.5,0,3.2,0,5.4c-2.2,0-4,0-5.8,0c-23.4,0-46.9,0-70.3,0c-30.9,0-52.3,21.4-52.4,52.3c0,23.4,0,46.9,0,70.3
		C437.7,605.1,437.7,606.9,437.7,609.1z M286.9,364c74.6,0,148.7,0,222.9,0c0-10.1,0-20,0-29.9c-74.4,0-148.7,0-222.9,0
		C286.9,344.3,286.9,354,286.9,364z M286.9,433.3c74.6,0,148.7,0,222.7,0c0-10.2,0-20.1,0-30c-74.4,0-148.5,0-222.7,0
		C286.9,413.4,286.9,423.3,286.9,433.3z M286.9,473.8c0,10.3,0,20.1,0,30.1c31.9,0,63.5,0,95.3,0c0-10.2,0-20.1,0-30.1
		C350.4,473.8,318.9,473.8,286.9,473.8z"/>
	<path class="st3" d="M468.9,585.6c1.1,0.6,0.8,0.5,0.8,0.5c0-19.6-0.4-39.2,0.2-58.8c0.3-8.8,8.6-15.8,18.1-15.9
		c18.8-0.3,37.6-0.1,55.2-0.1C518.8,535.6,494,560.5,468.9,585.6z"/>
	<path class="st4" d="M286.9,364c0-10,0-19.7,0-29.9c74.2,0,148.4,0,222.9,0c0,9.9,0,19.7,0,29.9C435.6,364,361.6,364,286.9,364z"/>
	<path class="st4" d="M286.9,433.3c0-10,0-19.9,0-30c74.3,0,148.2,0,222.7,0c0,9.9,0,19.8,0,30C435.6,433.3,361.6,433.3,286.9,433.3
		z"/>
	<path class="st4" d="M286.9,473.8c32,0,63.4,0,95.3,0c0,10,0,20,0,30.1c-31.8,0-63.3,0-95.3,0C286.9,493.9,286.9,484,286.9,473.8z"
		/>
	<g>
		<g>
			<g>
				<path class="st5" d="M298,253c0.8-0.6,1.9-0.9,3.2-0.9c1.4,0,2.4,0.4,3.2,1.1c0.8,0.7,1.2,1.7,1.2,3h7.6c0-1.9-0.5-3.6-1.5-5.2
					c-1-1.5-2.4-2.7-4.2-3.5c-1.8-0.8-3.9-1.2-6.1-1.2c-2.3,0-4.4,0.4-6.3,1.1c-1.9,0.7-3.3,1.8-4.3,3.1s-1.5,2.9-1.5,4.6
					c0,3.5,2.1,6.3,6.2,8.3c1.3,0.6,2.9,1.3,4.9,1.9c2,0.7,3.4,1.3,4.2,1.9c0.8,0.6,1.2,1.5,1.2,2.6c0,1-0.4,1.8-1.1,2.3
					s-1.7,0.8-3,0.8c-2,0-3.4-0.4-4.3-1.2s-1.3-2.1-1.3-3.8h-7.7c0,2.1,0.5,3.9,1.6,5.5c1.1,1.6,2.6,2.9,4.7,3.8
					c2.1,0.9,4.4,1.4,7,1.4c3.6,0,6.5-0.8,8.6-2.4c2.1-1.6,3.1-3.8,3.1-6.5c0-3.5-1.7-6.2-5.1-8.2c-1.4-0.8-3.2-1.6-5.4-2.3
					c-2.2-0.7-3.7-1.4-4.6-2c-0.9-0.7-1.3-1.4-1.3-2.2C296.9,254.4,297.2,253.6,298,253z"/>
				<path class="st5" d="M334.4,267.5c0,2-0.4,3.4-1.2,4.2s-2,1.3-3.6,1.3c-3.1,0-4.7-1.7-4.8-5.2v-21.1h-7.7v20.9
					c0,3.5,1.2,6.2,3.4,8.2c2.2,2,5.3,3,9.1,3c2.6,0,4.8-0.4,6.6-1.4c1.9-0.9,3.3-2.2,4.3-3.9c1-1.7,1.5-3.8,1.5-6.1v-20.8h-7.6
					V267.5z"/>
				<polygon class="st5" points="364,268.9 356.9,246.8 346.9,246.8 346.9,278.5 354.5,278.5 354.5,271.1 353.8,255.9 361.4,278.5 
					366.5,278.5 374.2,255.9 373.4,271.1 373.4,278.5 381.1,278.5 381.1,246.8 371,246.8 				"/>
				<polygon class="st5" points="403.1,268.9 396,246.8 385.9,246.8 385.9,278.5 393.6,278.5 393.6,271.1 392.8,255.9 400.5,278.5 
					405.6,278.5 413.3,255.9 412.5,271.1 412.5,278.5 420.2,278.5 420.2,246.8 410.1,246.8 				"/>
				<path class="st5" d="M434.6,246.8L423,278.5h8.2l1.8-5.9h10.5l1.9,5.9h8.2l-11.7-31.7H434.6z M434.8,266.7l3.4-11l3.4,11H434.8z
					"/>
				<path class="st5" d="M478.9,261.8c0.9-1.5,1.3-3.3,1.3-5.5c0-3-1.1-5.4-3.2-7.1c-2.1-1.7-5.1-2.5-8.8-2.5h-12.5v31.7h7.6v-11.2
					h4.1l5.6,11.2h8.2v-0.3l-6.6-12.8C476.7,264.5,478,263.3,478.9,261.8z M471.6,260.3c-0.7,0.8-1.8,1.1-3.3,1.1h-4.8v-8.7h4.8
					c1.4,0,2.5,0.4,3.3,1.2c0.7,0.8,1.1,1.9,1.1,3.2C472.7,258.4,472.3,259.5,471.6,260.3z"/>
				<polygon class="st5" points="501.3,246.8 495.5,260.6 489.6,246.8 481.4,246.8 491.6,267.1 491.6,278.5 499.3,278.5 
					499.3,267.1 509.6,246.8 				"/>
			</g>
		</g>
	</g>
</g>
<path class="st3" d="M329,278.5"/>
<path class="st3" d="M405.6,261.2"/>
</svg>
