<?xml version="1.0" encoding="utf-8"?>
<!-- Generator: Adobe Illustrator 23.0.0, SVG Export Plug-In . SVG Version: 6.00 Build 0)  -->
<svg version="1.1" xmlns="http://www.w3.org/2000/svg" xmlns:xlink="http://www.w3.org/1999/xlink" x="0px" y="0px"
	 viewBox="0 0 800 800" style="enable-background:new 0 0 800 800;" xml:space="preserve">
<style type="text/css">
	.st0{fill:#333333;}
	.st1{opacity:0.4;clip-path:url(#SVGID_2_);}
	.st2{fill:#FFFEF4;}
	.st3{fill:#707273;}
	.st4{fill:#EFEFEF;}
	.st5{fill:#E34F36;}
	.st6{fill:#666666;}
	.st7{fill:#CC4432;}
	.st8{fill:#5A5A5A;}
	.st9{fill:#CECECE;}
	.st10{fill:#F1D59D;}
	.st11{fill:#4C73B2;}
	.st12{opacity:0.1;}
	.st13{fill:#CEB58D;}
	.st14{fill:#466A9E;}
	.st15{fill:#4E4F4F;}
	.st16{fill:#D64836;}
	.st17{fill:#D14633;}
</style>
<g id="Layer_2">
	<circle class="st0" cx="400" cy="399.8" r="400"/>
</g>
<g id="Layer_1_copy">
	<g>
		<defs>
			<circle id="SVGID_1_" cx="400" cy="399.8" r="400"/>
		</defs>
		<clipPath id="SVGID_2_">
			<use xlink:href="#SVGID_1_"  style="overflow:visible;"/>
		</clipPath>
		<path class="st1" d="M793.1,434c-0.3-0.3-0.7-0.7-1-1c-0.3-0.3-0.7-0.7-1-1c-0.3-0.3-0.7-0.7-1-1c-0.3-0.3-0.7-0.7-1-1
			c-0.3-0.3-0.7-0.7-1-1c-0.3-0.3-0.7-0.7-1-1c-0.3-0.3-0.7-0.7-1-1c-0.3-0.3-0.7-0.7-1-1c-0.3-0.3-0.7-0.7-1-1
			c-0.3-0.3-0.7-0.7-1-1c-0.3-0.3-0.7-0.7-1-1c-0.3-0.3-0.7-0.7-1-1c-0.3-0.3-0.7-0.7-1-1c-0.3-0.3-0.7-0.7-1-1
			c-0.3-0.3-0.7-0.7-1-1c-0.3-0.3-0.7-0.7-1-1c-0.3-0.3-0.7-0.7-1-1c-0.3-0.3-0.7-0.7-1-1c-0.3-0.3-0.7-0.7-1-1
			c-0.3-0.3-0.7-0.7-1-1c-0.3-0.3-0.7-0.7-1-1c-0.3-0.3-0.7-0.7-1-1c-0.3-0.3-0.7-0.7-1-1c-0.3-0.3-0.7-0.7-1-1
			c-0.3-0.3-0.7-0.7-1-1c-0.3-0.3-0.7-0.7-1-1c-0.3-0.3-0.7-0.7-1-1c-0.3-0.3-0.7-0.7-1-1c-0.3-0.3-0.7-0.7-1-1
			c-0.3-0.3-0.7-0.7-1-1c-0.3-0.3-0.7-0.7-1-1c-0.3-0.3-0.7-0.7-1-1c-0.3-0.3-0.7-0.7-1-1c-0.3-0.3-0.7-0.7-1-1
			c-0.3-0.3-0.7-0.7-1-1c-0.3-0.3-0.7-0.7-1-1c-0.3-0.3-0.7-0.7-1-1c-0.3-0.3-0.7-0.7-1-1c-0.3-0.3-0.7-0.7-1-1
			c-0.3-0.3-0.7-0.7-1-1c-0.3-0.3-0.7-0.7-1-1c-0.3-0.3-0.7-0.7-1-1c-0.3-0.3-0.7-0.7-1-1c-0.3-0.3-0.7-0.7-1-1
			c-0.3-0.3-0.7-0.7-1-1c-0.3-0.3-0.7-0.7-1-1c-0.3-0.3-0.7-0.7-1-1c-0.3-0.3-0.7-0.7-1-1c-0.3-0.3-0.7-0.7-1-1
			c-0.3-0.3-0.7-0.7-1-1c-0.3-0.3-0.7-0.7-1-1c-0.3-0.3-0.7-0.7-1-1c-0.3-0.3-0.7-0.7-1-1c-0.3-0.3-0.7-0.7-1-1
			c-0.3-0.3-0.7-0.7-1-1c-0.3-0.3-0.7-0.7-1-1c-0.3-0.3-0.7-0.7-1-1c-0.3-0.3-0.7-0.7-1-1c-0.3-0.3-0.7-0.7-1-1
			c-0.3-0.3-0.7-0.7-1-1c-0.3-0.3-0.7-0.7-1-1c-0.3-0.3-0.7-0.7-1-1c-0.3-0.3-0.7-0.7-1-1c-0.3-0.3-0.7-0.7-1-1
			c-0.3-0.3-0.7-0.7-1-1c-0.3-0.3-0.7-0.7-1-1c-0.3-0.3-0.7-0.7-1-1c-0.3-0.3-0.7-0.7-1-1c-0.3-0.3-0.7-0.7-1-1
			c-0.3-0.3-0.7-0.7-1-1c-0.3-0.3-0.7-0.7-1-1c-0.3-0.3-0.7-0.7-1-1c-0.3-0.3-0.7-0.7-1-1c-0.3-0.3-0.7-0.7-1-1
			c-0.3-0.3-0.7-0.7-1-1c-0.3-0.3-0.7-0.7-1-1c-0.3-0.3-0.7-0.7-1-1c-0.3-0.3-0.7-0.7-1-1c-0.3-0.3-0.7-0.7-1-1
			c-0.3-0.3-0.7-0.7-1-1c-0.3-0.3-0.7-0.7-1-1c-0.3-0.3-0.7-0.7-1-1c-0.3-0.3-0.7-0.7-1-1c-0.3-0.3-0.7-0.7-1-1
			c-0.3-0.3-0.7-0.7-1-1c-0.3-0.3-0.7-0.7-1-1c-0.3-0.3-0.7-0.7-1-1c-0.3-0.3-0.7-0.7-1-1c-0.3-0.3-0.7-0.7-1-1
			c-0.3-0.3-0.7-0.7-1-1c-0.3-0.3-0.7-0.7-1-1c-0.3-0.3-0.7-0.7-1-1c-0.3-0.3-0.7-0.7-1-1c-0.3-0.3-0.7-0.7-1-1
			c-0.3-0.3-0.7-0.7-1-1c-0.3-0.3-0.7-0.7-1-1c-0.3-0.3-0.7-0.7-1-1c-0.3-0.3-0.7-0.7-1-1c-0.3-0.3-0.7-0.7-1-1
			c-0.3-0.3-0.7-0.7-1-1c-0.3-0.3-0.7-0.7-1-1c-0.3-0.3-0.7-0.7-1-1c-0.3-0.3-0.7-0.7-1-1c-0.3-0.3-0.7-0.7-1-1
			c-0.3-0.3-0.7-0.7-1-1c-0.3-0.3-0.7-0.7-1-1c-0.3-0.3-0.7-0.7-1-1c-0.3-0.3-0.7-0.7-1-1c-0.3-0.3-0.7-0.7-1-1
			c-0.3-0.3-0.7-0.7-1-1c-0.3-0.3-0.7-0.7-1-1c-0.3-0.3-0.7-0.7-1-1c-0.3-0.3-0.7-0.7-1-1c-0.3-0.3-0.7-0.7-1-1
			c-0.3-0.3-0.7-0.7-1-1c-0.3-0.3-0.7-0.7-1-1c-0.3-0.3-0.7-0.7-1-1c-0.3-0.3-0.7-0.7-1-1c-0.3-0.3-0.7-0.7-1-1
			c-0.3-0.3-0.7-0.7-1-1c-0.3-0.3-0.7-0.7-1-1c-0.3-0.3-0.7-0.7-1-1c-0.3-0.3-0.7-0.7-1-1c-0.3-0.3-0.7-0.7-1-1
			c-0.3-0.3-0.7-0.7-1-1c-0.3-0.3-0.7-0.7-1-1c-0.3-0.3-0.7-0.7-1-1c-0.3-0.3-0.7-0.7-1-1c-0.3-0.3-0.7-0.7-1-1
			c-0.3-0.3-0.7-0.7-1-1c-0.3-0.3-0.7-0.7-1-1c-0.3-0.3-0.7-0.7-1-1c-0.3-0.3-0.7-0.7-1-1c-0.3-0.3-0.7-0.7-1-1
			c-0.3-0.3-0.7-0.7-1-1c-0.3-0.3-0.7-0.7-1-1c-0.3-0.3-0.7-0.7-1-1c-0.3-0.3-0.7-0.7-1-1c-0.3-0.3-0.7-0.7-1-1
			c-0.3-0.3-0.7-0.7-1-1c-0.3-0.3-0.7-0.7-1-1c-0.3-0.3-0.7-0.7-1-1c-0.3-0.3-0.7-0.7-1-1c-0.3-0.3-0.7-0.7-1-1
			c-0.3-0.3-0.7-0.7-1-1c-0.3-0.3-0.7-0.7-1-1c-0.3-0.3-0.7-0.7-1-1c-0.3-0.3-0.7-0.7-1-1c-0.3-0.3-0.7-0.7-1-1
			c-0.3-0.3-0.7-0.7-1-1c-0.3-0.3-0.7-0.7-1-1c-0.3-0.3-0.7-0.7-1-1c-0.3-0.3-0.7-0.7-1-1c-0.3-0.3-0.7-0.7-1-1
			c-0.3-0.3-0.7-0.7-1-1c-0.3-0.3-0.7-0.7-1-1c-0.3-0.3-0.7-0.7-1-1c-0.3-0.3-0.7-0.7-1-1c-0.3-0.3-0.7-0.7-1-1
			c-0.3-0.3-0.7-0.7-1-1c-0.3-0.3-0.7-0.7-1-1c-0.3-0.3-0.7-0.7-1-1c-0.3-0.3-0.7-0.7-1-1c-0.3-0.3-0.7-0.7-1-1
			c-0.3-0.3-0.7-0.7-1-1c-0.3-0.3-0.7-0.7-1-1c-0.3-0.3-0.7-0.7-1-1c-0.3-0.3-0.7-0.7-1-1c-0.3-0.3-0.7-0.7-1-1
			c-0.3-0.3-0.7-0.7-1-1c-0.3-0.3-0.7-0.7-1-1c-0.3-0.3-0.7-0.7-1-1c-0.3-0.3-0.7-0.7-1-1c-0.3-0.3-0.7-0.7-1-1
			c-0.3-0.3-0.7-0.7-1-1c-0.3-0.3-0.7-0.7-1-1c-0.3-0.3-0.7-0.7-1-1c-0.3-0.3-0.7-0.7-1-1c-0.3-0.3-0.7-0.7-1-1
			c-0.3-0.3-0.7-0.7-1-1c-0.3-0.3-0.7-0.7-1-1c-0.3-0.3-0.7-0.7-1-1c-0.3-0.3-0.7-0.7-1-1c-0.3-0.3-0.7-0.7-1-1
			c-0.3-0.3-0.7-0.7-1-1c-0.3-0.3-0.7-0.7-1-1c-0.3-0.3-0.7-0.7-1-1c-0.3-0.3-0.7-0.7-1-1c-0.3-0.3-0.7-0.7-1-1
			c-0.3-0.3-0.7-0.7-1-1c-0.3-0.3-0.7-0.7-1-1c-0.3-0.3-0.7-0.7-1-1c-0.3-0.3-0.7-0.7-1-1c-0.3-0.3-0.7-0.7-1-1
			c-0.3-0.3-0.7-0.7-1-1c-0.3-0.3-0.7-0.7-1-1c-0.3-0.3-0.7-0.7-1-1c-0.3-0.3-0.7-0.7-1-1c-0.3-0.3-0.7-0.7-1-1
			c-0.3-0.3-0.7-0.7-1-1c-0.3-0.3-0.7-0.7-1-1c-0.3-0.3-0.7-0.7-1-1c-0.3-0.3-0.7-0.7-1-1c-0.3-0.3-0.7-0.7-1-1
			c-0.3-0.3-0.7-0.7-1-1c-0.3-0.3-0.7-0.7-1-1c-0.3-0.3-0.7-0.7-1-1c-0.3-0.3-0.7-0.7-1-1c-0.3-0.3-0.7-0.7-1-1
			c-0.3-0.3-0.7-0.7-1-1c-0.3-0.3-0.7-0.7-1-1c-0.3-0.3-0.7-0.7-1-1c-0.3-0.3-0.7-0.7-1-1c-0.3-0.3-0.7-0.7-1-1
			c-0.3-0.3-0.7-0.7-1-1c-0.3-0.3-0.7-0.7-1-1c-0.3-0.3-0.7-0.7-1-1c-0.3-0.3-0.7-0.7-1-1c-0.3-0.3-0.7-0.7-1-1
			c-0.3-0.3-0.7-0.7-1-1c-0.3-0.3-0.7-0.7-1-1c-0.3-0.3-0.7-0.7-1-1c-0.3-0.3-0.7-0.7-1-1c-0.3-0.3-0.7-0.7-1-1
			c-0.3-0.3-0.7-0.7-1-1c-0.3-0.3-0.7-0.7-1-1c-3.1-3.4-7.6-5.6-12.6-5.6H201.4c-9.5,0-17.2,7.7-17.2,17.2v401.9
			c0,5,2.1,9.5,5.6,12.6c0.3,0.3,0.7,0.7,1,1c0.3,0.3,0.7,0.7,1,1c0.3,0.3,0.7,0.7,1,1c0.3,0.3,0.7,0.7,1,1c0.3,0.3,0.7,0.7,1,1
			c0.3,0.3,0.7,0.7,1,1c0.3,0.3,0.7,0.7,1,1c0.3,0.3,0.7,0.7,1,1c0.3,0.3,0.7,0.7,1,1c0.3,0.3,0.7,0.7,1,1c0.3,0.3,0.7,0.7,1,1
			c0.3,0.3,0.7,0.7,1,1c0.3,0.3,0.7,0.7,1,1c0.3,0.3,0.7,0.7,1,1c0.3,0.3,0.7,0.7,1,1c0.3,0.3,0.7,0.7,1,1c0.3,0.3,0.7,0.7,1,1
			c0.3,0.3,0.7,0.7,1,1c0.3,0.3,0.7,0.7,1,1c0.3,0.3,0.7,0.7,1,1c0.3,0.3,0.7,0.7,1,1c0.3,0.3,0.7,0.7,1,1c0.3,0.3,0.7,0.7,1,1
			c0.3,0.3,0.7,0.7,1,1c0.3,0.3,0.7,0.7,1,1c0.3,0.3,0.7,0.7,1,1c0.3,0.3,0.7,0.7,1,1c0.3,0.3,0.7,0.7,1,1c0.3,0.3,0.7,0.7,1,1
			c0.3,0.3,0.7,0.7,1,1c0.3,0.3,0.7,0.7,1,1c0.3,0.3,0.7,0.7,1,1c0.3,0.3,0.7,0.7,1,1c0.3,0.3,0.7,0.7,1,1c0.3,0.3,0.7,0.7,1,1
			c0.3,0.3,0.7,0.7,1,1c0.3,0.3,0.7,0.7,1,1c0.3,0.3,0.7,0.7,1,1c0.3,0.3,0.7,0.7,1,1c0.3,0.3,0.7,0.7,1,1c0.3,0.3,0.7,0.7,1,1
			c0.3,0.3,0.7,0.7,1,1c0.3,0.3,0.7,0.7,1,1c0.3,0.3,0.7,0.7,1,1c0.3,0.3,0.7,0.7,1,1c0.3,0.3,0.7,0.7,1,1c0.3,0.3,0.7,0.7,1,1
			c0.3,0.3,0.7,0.7,1,1c0.3,0.3,0.7,0.7,1,1c0.3,0.3,0.7,0.7,1,1c0.3,0.3,0.7,0.7,1,1c0.3,0.3,0.7,0.7,1,1c0.3,0.3,0.7,0.7,1,1
			c0.3,0.3,0.7,0.7,1,1c0.3,0.3,0.7,0.7,1,1c0.3,0.3,0.7,0.7,1,1c0.3,0.3,0.7,0.7,1,1c0.3,0.3,0.7,0.7,1,1c0.3,0.3,0.7,0.7,1,1
			c0.3,0.3,0.7,0.7,1,1c0.3,0.3,0.7,0.7,1,1c0.3,0.3,0.7,0.7,1,1c0.3,0.3,0.7,0.7,1,1c0.3,0.3,0.7,0.7,1,1c0.3,0.3,0.7,0.7,1,1
			c0.3,0.3,0.7,0.7,1,1c0.3,0.3,0.7,0.7,1,1c0.3,0.3,0.7,0.7,1,1c0.3,0.3,0.7,0.7,1,1c0.3,0.3,0.7,0.7,1,1c0.3,0.3,0.7,0.7,1,1
			c0.3,0.3,0.7,0.7,1,1c0.3,0.3,0.7,0.7,1,1c0.3,0.3,0.7,0.7,1,1c0.3,0.3,0.7,0.7,1,1c0.3,0.3,0.7,0.7,1,1c0.3,0.3,0.7,0.7,1,1
			c0.3,0.3,0.7,0.7,1,1c0.3,0.3,0.7,0.7,1,1c0.3,0.3,0.7,0.7,1,1c0.3,0.3,0.7,0.7,1,1c0.3,0.3,0.7,0.7,1,1c0.3,0.3,0.7,0.7,1,1
			c0.3,0.3,0.7,0.7,1,1c0.3,0.3,0.7,0.7,1,1c0.3,0.3,0.7,0.7,1,1c0.3,0.3,0.7,0.7,1,1c0.3,0.3,0.7,0.7,1,1c0.3,0.3,0.7,0.7,1,1
			c0.3,0.3,0.7,0.7,1,1c0.3,0.3,0.7,0.7,1,1c0.3,0.3,0.7,0.7,1,1c0.3,0.3,0.7,0.7,1,1c0.3,0.3,0.7,0.7,1,1c0.3,0.3,0.7,0.7,1,1
			c0.3,0.3,0.7,0.7,1,1c0.3,0.3,0.7,0.7,1,1c0.3,0.3,0.7,0.7,1,1c0.3,0.3,0.7,0.7,1,1c0.3,0.3,0.7,0.7,1,1c0.3,0.3,0.7,0.7,1,1
			c0.3,0.3,0.7,0.7,1,1c0.3,0.3,0.7,0.7,1,1c0.3,0.3,0.7,0.7,1,1c0.3,0.3,0.7,0.7,1,1c0.3,0.3,0.7,0.7,1,1c0.3,0.3,0.7,0.7,1,1
			c0.3,0.3,0.7,0.7,1,1c0.3,0.3,0.7,0.7,1,1c0.3,0.3,0.7,0.7,1,1c0.3,0.3,0.7,0.7,1,1c0.3,0.3,0.7,0.7,1,1c0.3,0.3,0.7,0.7,1,1
			c0.3,0.3,0.7,0.7,1,1c0.3,0.3,0.7,0.7,1,1c0.3,0.3,0.7,0.7,1,1c0.3,0.3,0.7,0.7,1,1c0.3,0.3,0.7,0.7,1,1c0.3,0.3,0.7,0.7,1,1
			c0.3,0.3,0.7,0.7,1,1c0.3,0.3,0.7,0.7,1,1c0.3,0.3,0.7,0.7,1,1c0.3,0.3,0.7,0.7,1,1c0.3,0.3,0.7,0.7,1,1c0.3,0.3,0.7,0.7,1,1
			c0.3,0.3,0.7,0.7,1,1c0.3,0.3,0.7,0.7,1,1c0.3,0.3,0.7,0.7,1,1c0.3,0.3,0.7,0.7,1,1c0.3,0.3,0.7,0.7,1,1c0.3,0.3,0.7,0.7,1,1
			c0.3,0.3,0.7,0.7,1,1c0.3,0.3,0.7,0.7,1,1c0.3,0.3,0.7,0.7,1,1c0.3,0.3,0.7,0.7,1,1c0.3,0.3,0.7,0.7,1,1c0.3,0.3,0.7,0.7,1,1
			c0.3,0.3,0.7,0.7,1,1c0.3,0.3,0.7,0.7,1,1c0.3,0.3,0.7,0.7,1,1c0.3,0.3,0.7,0.7,1,1c0.3,0.3,0.7,0.7,1,1c0.3,0.3,0.7,0.7,1,1
			c0.3,0.3,0.7,0.7,1,1c0.3,0.3,0.7,0.7,1,1c0.3,0.3,0.7,0.7,1,1c0.3,0.3,0.7,0.7,1,1c0.3,0.3,0.7,0.7,1,1c0.3,0.3,0.7,0.7,1,1
			c0.3,0.3,0.7,0.7,1,1c0.3,0.3,0.7,0.7,1,1c0.3,0.3,0.7,0.7,1,1c0.3,0.3,0.7,0.7,1,1c0.3,0.3,0.7,0.7,1,1c0.3,0.3,0.7,0.7,1,1
			c0.3,0.3,0.7,0.7,1,1c0.3,0.3,0.7,0.7,1,1c0.3,0.3,0.7,0.7,1,1c0.3,0.3,0.7,0.7,1,1c0.3,0.3,0.7,0.7,1,1c0.3,0.3,0.7,0.7,1,1
			c0.3,0.3,0.7,0.7,1,1c0.3,0.3,0.7,0.7,1,1c0.3,0.3,0.7,0.7,1,1c0.3,0.3,0.7,0.7,1,1c0.3,0.3,0.7,0.7,1,1c0.3,0.3,0.7,0.7,1,1
			c0.3,0.3,0.7,0.7,1,1c0.3,0.3,0.7,0.7,1,1c0.3,0.3,0.7,0.7,1,1c0.3,0.3,0.7,0.7,1,1c0.3,0.3,0.7,0.7,1,1c0.3,0.3,0.7,0.7,1,1
			c0.3,0.3,0.7,0.7,1,1c0.3,0.3,0.7,0.7,1,1c0.3,0.3,0.7,0.7,1,1c0.3,0.3,0.7,0.7,1,1c0.3,0.3,0.7,0.7,1,1c0.3,0.3,0.7,0.7,1,1
			c0.3,0.3,0.7,0.7,1,1c0.3,0.3,0.7,0.7,1,1c0.3,0.3,0.7,0.7,1,1c0.3,0.3,0.7,0.7,1,1c0.3,0.3,0.7,0.7,1,1c0.3,0.3,0.7,0.7,1,1
			c0.3,0.3,0.7,0.7,1,1c0.3,0.3,0.7,0.7,1,1c0.3,0.3,0.7,0.7,1,1c0.3,0.3,0.7,0.7,1,1c0.3,0.3,0.7,0.7,1,1c0.3,0.3,0.7,0.7,1,1
			c0.3,0.3,0.7,0.7,1,1c0.3,0.3,0.7,0.7,1,1c0.3,0.3,0.7,0.7,1,1c0.3,0.3,0.7,0.7,1,1c0.3,0.3,0.7,0.7,1,1c0.3,0.3,0.7,0.7,1,1
			c0.3,0.3,0.7,0.7,1,1c0.3,0.3,0.7,0.7,1,1c0.3,0.3,0.7,0.7,1,1c0.3,0.3,0.7,0.7,1,1c0.3,0.3,0.7,0.7,1,1c0.3,0.3,0.7,0.7,1,1
			c0.3,0.3,0.7,0.7,1,1c0.3,0.3,0.7,0.7,1,1c0.3,0.3,0.7,0.7,1,1c0.3,0.3,0.7,0.7,1,1c0.3,0.3,0.7,0.7,1,1c0.3,0.3,0.7,0.7,1,1
			c0.3,0.3,0.7,0.7,1,1c0.3,0.3,0.7,0.7,1,1c0.3,0.3,0.7,0.7,1,1c0.3,0.3,0.7,0.7,1,1c0.3,0.3,0.7,0.7,1,1c0.3,0.3,0.7,0.7,1,1
			c0.3,0.3,0.7,0.7,1,1c0.3,0.3,0.7,0.7,1,1c0.3,0.3,0.7,0.7,1,1c0.3,0.3,0.7,0.7,1,1c0.3,0.3,0.7,0.7,1,1c0.3,0.3,0.7,0.7,1,1
			c0.3,0.3,0.7,0.7,1,1c0.3,0.3,0.7,0.7,1,1c0.3,0.3,0.7,0.7,1,1c0.3,0.3,0.7,0.7,1,1c0.3,0.3,0.7,0.7,1,1c3.1,3.4,7.6,5.6,12.6,5.6
			h353.1c9.5,0,17.2-7.7,17.2-17.2V446.6C798.7,441.6,796.5,437.1,793.1,434z"/>
	</g>
</g>
<g id="Layer_1">
	<path class="st2" d="M554.5,638.6H201.4c-9.5,0-17.2-7.7-17.2-17.2V219.6c0-9.5,7.7-17.2,17.2-17.2h353.1c9.5,0,17.2,7.7,17.2,17.2
		v401.9C571.7,630.9,564,638.6,554.5,638.6z"/>
	<g>
		<ellipse class="st3" cx="373.9" cy="186.9" rx="31.1" ry="26.9"/>
		<path class="st3" d="M429.5,237.9H318.3c-12.6,0-22.8-10.2-22.8-22.8v-5.8c0-12.6,10.2-22.8,22.8-22.8h111.1
			c12.6,0,22.8,10.2,22.8,22.8v5.8C452.2,227.7,442,237.9,429.5,237.9z"/>
	</g>
	<g>
		<path class="st3" d="M509.5,301.1H246.4c-6.9,0-12.5-5.6-12.5-12.5l0,0c0-6.9,5.6-12.5,12.5-12.5h263.1c6.9,0,12.5,5.6,12.5,12.5
			l0,0C522,295.5,516.4,301.1,509.5,301.1z"/>
		<path class="st3" d="M509.5,343H246.4c-6.9,0-12.5-5.6-12.5-12.5l0,0c0-6.9,5.6-12.5,12.5-12.5h263.1c6.9,0,12.5,5.6,12.5,12.5
			l0,0C522,337.4,516.4,343,509.5,343z"/>
		<path class="st3" d="M393.8,385H246.7c-6.9,0-12.5-5.6-12.5-12.5l0,0c0-6.9,5.6-12.5,12.5-12.5h147.1c6.9,0,12.5,5.6,12.5,12.5
			l0,0C406.3,379.4,400.7,385,393.8,385z"/>
	</g>
	<g>
		<path class="st3" d="M374.5,454.2l23.3,19.9l-70.3,82.1l-23.3-19.9L374.5,454.2z"/>
		<path class="st4" d="M327.5,556.3l-23.3-19.9l-5.8,27.4c-0.4,1.7,1.3,3.1,2.9,2.5L327.5,556.3z"/>
		<path class="st5" d="M455.2,402.9L436,386.5c-1.1-1-2.8-0.8-3.8,0.3l-57.7,67.4l23.3,19.9l57.7-67.4
			C456.5,405.6,456.3,403.9,455.2,402.9z"/>
		<path class="st3" d="M454.2,402.1L437,387.3l9.8-11.4c2.6-3.1,7.2-3.4,10.3-0.8l6.2,5.3c3.1,2.6,3.4,7.2,0.8,10.3L454.2,402.1z"/>
		<path class="st6" d="M319.6,549.6l70.3-82.1l7.8,6.7l-70.3,82.1L319.6,549.6z"/>
		<path class="st7" d="M455.2,402.9l-7.8-6.7c1.1,1,1.3,2.6,0.3,3.8l-57.7,67.4l7.8,6.7l57.7-67.4
			C456.5,405.6,456.3,403.9,455.2,402.9z"/>
		<path class="st6" d="M463.2,380.4l-6.2-5.3c-0.3-0.2-0.6-0.5-0.9-0.6c2.3,2.7,2.4,6.7,0,9.5l-9.8,11.4l7.8,6.7l9.8-11.4
			C466.6,387.7,466.3,383,463.2,380.4z"/>
		<g>
			<path class="st6" d="M365.8,449.3c-0.7,0.1-1.4-0.2-2-0.6c-1.2-1-1.3-2.7-0.3-3.9l43.8-51.2c1-1.2,2.7-1.3,3.9-0.3
				c1.2,1,1.3,2.7,0.3,3.9l-43.8,51.2C367.2,449,366.5,449.3,365.8,449.3L365.8,449.3z"/>
		</g>
		<path class="st8" d="M447.9,419l-31.2-26.7c-1.5-1.3-3.7-1.1-5,0.4l-7,8.1l33.9,29c1.5,1.3,3.8,1.1,5.2-0.4l4.5-5.3
			C449.6,422.6,449.4,420.3,447.9,419z"/>
		<path class="st3" d="M447.9,419l-33.2-28.4c-1.5-1.3-3.9-1.1-5.2,0.4l-6.9,8.1l36,30.8c1.5,1.3,3.8,1.1,5.2-0.4l4.5-5.3
			C449.6,422.6,449.4,420.3,447.9,419z"/>
		<path class="st6" d="M447.9,419l-7.8-6.7c1.5,1.3,1.7,3.6,0.4,5.2l-4.5,5.3c-1.3,1.5-3.6,1.7-5.2,0.4l7.8,6.7
			c1.5,1.3,3.8,1.1,5.2-0.4l4.5-5.3C449.6,422.6,449.4,420.3,447.9,419z"/>
		<path class="st9" d="M319.6,549.6l-19.8,7.6l-1.4,6.6c-0.4,1.7,1.3,3.1,2.9,2.5l26.1-10L319.6,549.6z"/>
	</g>
	<g>
		<polygon class="st10" points="538.7,540.9 538.7,589.4 480.7,589.4 479.6,540.9 		"/>
		<polygon class="st11" points="536.1,586 531.3,640 487.4,640 482.1,586 		"/>
		<polygon class="st3" points="516.2,601.4 520.8,640 497.5,640 502.1,601.3 502.1,601.3 495.9,595.1 509.2,581.8 522.5,595.1 
			516.2,601.3 		"/>
		<g>
			<path class="st11" d="M615.8,613.6V640h-84.5l7.4-82l0-0.1l50.6,18.2C605.2,581.7,615.8,596.8,615.8,613.6"/>
			<path class="st11" d="M487.4,640h-84.5v-25.8c0-16.9,10.6-31.9,26.4-37.6l43-15.4l0,0l7.6-2.7l0,0L487.4,640z"/>
		</g>
		<g class="st12">
			<g>
				<polygon class="st13" points="538.7,540.9 538.7,558 513.5,578.3 493,561.1 506.3,540.9 				"/>
			</g>
		</g>
		<g>
			<path class="st10" d="M480.1,506.6c0.6,7.5-3,13.9-8.1,14.3c-5.1,0.5-9.8-5.2-10.5-12.7c-0.6-7.5,3-13.9,8.1-14.3
				C474.7,493.5,479.4,499.2,480.1,506.6"/>
			<path class="st10" d="M556.8,508.2c-0.6,7.5-5.3,13.2-10.5,12.7c-5.1-0.5-8.7-6.9-8.1-14.3c0.6-7.5,5.3-13.2,10.5-12.7
				C553.9,494.4,557.5,500.8,556.8,508.2"/>
		</g>
		<path class="st10" d="M509.2,444.2c-23.8,0-43.1,19.3-43.1,43.1v12.9c0,3.3,0.2,6.6,0.6,9.9v0c2,16.7,9.3,32.4,20.6,44.9l4.1,4.5
			c3.8,4.1,9.1,6.5,14.6,6.5h6.2c5.6,0,10.9-2.3,14.6-6.5l4.1-4.5c11.4-12.5,18.6-28.2,20.7-44.9c0.4-3.3,0.6-6.6,0.6-9.9v-12.9
			C552.3,463.5,533,444.2,509.2,444.2"/>
		<g>
			<polygon class="st2" points="509.2,581.8 538.7,557.8 534.2,607 			"/>
			<polygon class="st2" points="509.1,581.8 480,558.3 484.1,607 			"/>
		</g>
		<g>
			<polygon class="st14" points="570.6,609.3 555.5,640 531.3,640 538.7,557.8 546.3,560.5 546.3,560.6 565.2,580.1 549.9,594.2 			
				"/>
			<polygon class="st14" points="487.4,640 463,640 448.1,609.9 468.9,594.7 453.5,580.6 472.4,561.1 472.4,561.1 480,558.4 
				480,558.5 			"/>
		</g>
		<polygon class="st15" points="522.5,595.1 509.2,581.8 495.9,595.1 499.1,598.3 509.2,588.2 519.3,598.3 		"/>
		<g class="st12">
			<g>
				<path class="st13" d="M549.8,519.9c0.8-3.2,1.5-6.4,1.9-9.7c0.4-3.2,0.6-6.5,0.6-9.7V489h-64.4L549.8,519.9z"/>
			</g>
		</g>
		<g>
			<path class="st3" d="M459.3,471.8c0.4,6.6,2.4,11.8,2.4,11.8c0.3,11.3,4.6,14.5,4.6,14.5s1-4.8,2-8.4c1-3.2,1.9-6.5,2.3-9.8
				c0.3-2.5,0.9-5.3,1.9-8.1L459.3,471.8L459.3,471.8L459.3,471.8z"/>
			<path class="st3" d="M540.9,471.8c2.4,2.5,4.2,5.6,4.8,9.1c0.2,1.2,0.5,2.4,0.9,3.7c0.8,2.5,1.5,5.1,1.8,7.8
				c0.6,5.1,3.3,5.9,3.3,5.9c2.6-3.8,5-16.9,5-16.9c1.2-3.3,1.4-6.6,1.1-9.7L540.9,471.8L540.9,471.8z"/>
		</g>
		<g>
			<path class="st16" d="M560.4,489H457.9c-3.6,0-3.6-9.7,0-9.7h102.5C564,479.2,564,489,560.4,489"/>
			<path class="st5" d="M509.2,428.5L509.2,428.5c-28,0-50.7,22.7-50.7,50.7h101.5C559.9,451.2,537.2,428.5,509.2,428.5"/>
		</g>
		<path class="st17" d="M492.6,487.6h32.5c2.1-6.2,4.3-27.9,6.4-34.1c3.1-7.3-6.8-18.3-22.7-18.3c-15.9,0-25.8,10.9-22.7,18.3
			C488.3,459.7,490.5,481.4,492.6,487.6"/>
	</g>
</g>
</svg>
