<?xml version="1.0" encoding="utf-8"?>
<!-- Generator: Adobe Illustrator 24.1.2, SVG Export Plug-In . SVG Version: 6.00 Build 0)  -->
<svg version="1.1" id="Layer_1" xmlns="http://www.w3.org/2000/svg" xmlns:xlink="http://www.w3.org/1999/xlink" x="0px" y="0px"
	 viewBox="0 0 800 800" style="enable-background:new 0 0 800 800;" xml:space="preserve">
<style type="text/css">
	.st0{fill:#333333;}
	.st1{clip-path:url(#SVGID_2_);}
	.st2{fill:#1D1D1B;}
	.st3{fill:#13A75B;}
	.st4{fill:#4B73AE;}
	.st5{fill:#E6483D;}
	.st6{fill:#717274;}
	.st7{fill:#FECF5B;}
</style>
<g id="Layer_2_2_">
	<g id="Layer_2_1_">
		<g>
			<circle class="st0" cx="400" cy="400" r="400"/>
		</g>
	</g>
</g>
<g>
	<defs>
		<circle id="SVGID_1_" cx="400" cy="400" r="400"/>
	</defs>
	<clipPath id="SVGID_2_">
		<use xlink:href="#SVGID_1_"  style="overflow:visible;"/>
	</clipPath>
	<g class="st1">
		<path class="st2" d="M999.8,751c-0.7-6.9-1.2-13.8-2-20.6c-0.9-6.8-1.8-13.5-3.2-20.2c-2.3-11.2-5.5-22.2-9.5-32.9
			c-4.8-12.8-10.4-25.3-17.5-37c-3.7-6.2-7.8-12.2-11.9-18.2c-2.7-4-5.4-8-8.5-11.7c-5.2-6.1-10.5-12.3-16.2-18
			c-0.3-0.3-0.7-0.7-1-1s-0.7-0.7-1-1s-0.7-0.7-1-1s-0.7-0.7-1-1s-0.7-0.7-1-1s-0.7-0.7-1-1s-0.7-0.7-1-1s-0.7-0.7-1-1s-0.7-0.7-1-1
			s-0.7-0.7-1-1s-0.7-0.7-1-1s-0.7-0.7-1-1s-0.7-0.7-1-1s-0.7-0.7-1-1s-0.7-0.7-1-1s-0.7-0.7-1-1s-0.7-0.7-1-1s-0.7-0.7-1-1
			s-0.7-0.7-1-1s-0.7-0.7-1-1s-0.7-0.7-1-1s-0.7-0.7-1-1s-0.7-0.7-1-1s-0.7-0.7-1-1s-0.7-0.7-1-1s-0.7-0.7-1-1s-0.7-0.7-1-1
			s-0.7-0.7-1-1s-0.7-0.7-1-1s-0.7-0.7-1-1s-0.7-0.7-1-1s-0.7-0.7-1-1s-0.7-0.7-1-1s-0.7-0.7-1-1s-0.7-0.7-1-1s-0.7-0.7-1-1
			s-0.7-0.7-1-1s-0.7-0.7-1-1s-0.7-0.7-1-1s-0.7-0.7-1-1s-0.7-0.7-1-1s-0.7-0.7-1-1s-0.7-0.7-1-1s-0.7-0.7-1-1s-0.7-0.7-1-1
			s-0.7-0.7-1-1s-0.7-0.7-1-1s-0.7-0.7-1-1s-0.7-0.7-1-1s-0.7-0.7-1-1s-0.7-0.7-1-1s-0.7-0.7-1-1s-0.7-0.7-1-1s-0.7-0.7-1-1
			s-0.7-0.7-1-1s-0.7-0.7-1-1s-0.7-0.7-1-1s-0.7-0.7-1-1s-0.7-0.7-1-1s-0.7-0.7-1-1s-0.7-0.7-1-1s-0.7-0.7-1-1s-0.7-0.7-1-1
			s-0.7-0.7-1-1s-0.7-0.7-1-1s-0.7-0.7-1-1s-0.7-0.7-1-1s-0.7-0.7-1-1s-0.7-0.7-1-1s-0.7-0.7-1-1s-0.7-0.7-1-1s-0.7-0.7-1-1
			s-0.7-0.7-1-1s-0.7-0.7-1-1s-0.7-0.7-1-1s-0.7-0.7-1-1s-0.7-0.7-1-1s-0.7-0.7-1-1s-0.7-0.7-1-1s-0.7-0.7-1-1s-0.7-0.7-1-1
			s-0.7-0.7-1-1s-0.7-0.7-1-1s-0.7-0.7-1-1s-0.7-0.7-1-1s-0.7-0.7-1-1s-0.7-0.7-1-1s-0.7-0.7-1-1s-0.7-0.7-1-1s-0.7-0.7-1-1
			s-0.7-0.7-1-1s-0.7-0.7-1-1s-0.7-0.7-1-1s-0.7-0.7-1-1s-0.7-0.7-1-1s-0.7-0.7-1-1s-0.7-0.7-1-1s-0.7-0.7-1-1s-0.7-0.7-1-1
			s-0.7-0.7-1-1s-0.7-0.7-1-1s-0.7-0.7-1-1s-0.7-0.7-1-1s-0.7-0.7-1-1s-0.7-0.7-1-1s-0.7-0.7-1-1s-0.7-0.7-1-1s-0.7-0.7-1-1
			s-0.7-0.7-1-1s-0.7-0.7-1-1s-0.7-0.7-1-1s-0.7-0.7-1-1s-0.7-0.7-1-1s-0.7-0.7-1-1s-0.7-0.7-1-1s-0.7-0.7-1-1s-0.7-0.7-1-1
			s-0.7-0.7-1-1s-0.7-0.7-1-1s-0.7-0.7-1-1s-0.7-0.7-1-1s-0.7-0.7-1-1s-0.7-0.7-1-1s-0.7-0.7-1-1s-0.7-0.7-1-1s-0.7-0.7-1-1
			s-0.7-0.7-1-1s-0.7-0.7-1-1s-0.7-0.7-1-1s-0.7-0.7-1-1s-0.7-0.7-1-1s-0.7-0.7-1-1s-0.7-0.7-1-1s-0.7-0.7-1-1s-0.7-0.7-1-1
			s-0.7-0.7-1-1s-0.7-0.7-1-1s-0.7-0.7-1-1s-0.7-0.7-1-1s-0.7-0.7-1-1s-0.7-0.7-1-1s-0.7-0.7-1-1s-0.7-0.7-1-1s-0.7-0.7-1-1
			s-0.7-0.7-1-1s-0.7-0.7-1-1s-0.7-0.7-1-1s-0.7-0.7-1-1s-0.7-0.7-1-1s-0.7-0.7-1-1s-0.7-0.7-1-1s-0.7-0.7-1-1s-0.7-0.7-1-1
			s-0.7-0.7-1-1s-0.7-0.7-1-1s-0.7-0.7-1-1s-0.7-0.7-1-1s-0.7-0.7-1-1s-0.7-0.7-1-1s-0.7-0.7-1-1s-0.7-0.7-1-1s-0.7-0.7-1-1
			s-0.7-0.7-1-1s-0.7-0.7-1-1s-0.7-0.7-1-1s-0.7-0.7-1-1s-0.7-0.7-1-1s-0.7-0.7-1-1s-0.7-0.7-1-1s-0.7-0.7-1-1s-0.7-0.7-1-1
			s-0.7-0.7-1-1s-0.7-0.7-1-1s-0.7-0.7-1-1s-0.7-0.7-1-1s-0.7-0.7-1-1s-0.7-0.7-1-1s-0.7-0.7-1-1s-0.7-0.7-1-1s-0.7-0.7-1-1
			s-0.7-0.7-1-1s-0.7-0.7-1-1s-0.7-0.7-1-1s-0.7-0.7-1-1s-0.7-0.7-1-1s-0.7-0.7-1-1s-0.7-0.7-1-1s-0.7-0.7-1-1s-0.7-0.7-1-1
			s-0.7-0.7-1-1s-0.7-0.7-1-1s-0.7-0.7-1-1s-0.7-0.7-1-1s-0.7-0.7-1-1s-0.7-0.7-1-1s-0.7-0.7-1-1s-0.7-0.7-1-1s-0.7-0.7-1-1
			s-0.7-0.7-1-1s-0.7-0.7-1-1s-0.7-0.7-1-1s-0.7-0.7-1-1s-0.7-0.7-1-1s-0.7-0.7-1-1s-0.7-0.7-1-1s-0.7-0.7-1-1s-0.7-0.7-1-1
			s-0.7-0.7-1-1s-0.7-0.7-1-1s-0.7-0.7-1-1s-0.7-0.7-1-1s-0.7-0.7-1-1s-0.7-0.7-1-1s-0.7-0.7-1-1s-0.7-0.7-1-1s-0.7-0.7-1-1
			s-0.7-0.7-1-1s-0.7-0.7-1-1s-0.7-0.7-1-1s-0.7-0.7-1-1s-0.7-0.7-1-1s-0.7-0.7-1-1s-0.7-0.7-1-1s-0.7-0.7-1-1s-0.7-0.7-1-1
			s-0.7-0.7-1-1s-0.7-0.7-1-1s-0.7-0.7-1-1s-0.7-0.7-1-1s-0.7-0.7-1-1s-0.7-0.7-1-1s-0.7-0.7-1-1s-0.7-0.7-1-1s-0.7-0.7-1-1
			s-0.7-0.7-1-1s-0.7-0.7-1-1s-0.7-0.7-1-1s-0.7-0.7-1-1s-0.7-0.7-1-1s-0.7-0.7-1-1s-0.7-0.7-1-1s-0.7-0.7-1-1s-0.7-0.7-1-1
			s-0.7-0.7-1-1s-0.7-0.7-1-1s-0.7-0.7-1-1s-0.7-0.7-1-1s-0.7-0.7-1-1s-0.7-0.7-1-1s-0.7-0.7-1-1s-0.7-0.7-1-1s-0.7-0.7-1-1
			s-0.7-0.7-1-1s-0.7-0.7-1-1s-0.7-0.7-1-1s-0.7-0.7-1-1s-0.7-0.7-1-1s-0.7-0.7-1-1s-0.7-0.7-1-1s-0.7-0.7-1-1s-0.7-0.7-1-1
			s-0.7-0.7-1-1s-0.7-0.7-1-1s-0.7-0.7-1-1s-0.7-0.7-1-1s-0.7-0.7-1-1s-0.7-0.7-1-1s-0.7-0.7-1-1s-0.7-0.7-1-1s-0.7-0.7-1-1
			s-0.7-0.7-1-1s-0.7-0.7-1-1s-0.7-0.7-1-1s-0.7-0.7-1-1s-0.7-0.7-1-1s-0.7-0.7-1-1s-0.7-0.7-1-1s-0.7-0.7-1-1s-0.7-0.7-1-1
			s-0.7-0.7-1-1s-0.7-0.7-1-1s-0.7-0.7-1-1s-0.7-0.7-1-1s-0.7-0.7-1-1s-0.7-0.7-1-1s-0.7-0.7-1-1s-0.7-0.7-1-1s-0.7-0.7-1-1
			s-0.7-0.7-1-1s-0.7-0.7-1-1s-0.7-0.7-1-1s-0.7-0.7-1-1s-0.7-0.7-1-1s-0.7-0.7-1-1s-0.7-0.7-1-1s-0.7-0.7-1-1s-0.7-0.7-1-1
			s-0.7-0.7-1-1s-0.7-0.7-1-1s-0.7-0.7-1-1s-0.7-0.7-1-1s-0.7-0.7-1-1s-0.7-0.7-1-1s-0.7-0.7-1-1s-0.7-0.7-1-1s-0.7-0.7-1-1
			s-0.7-0.7-1-1s-0.7-0.7-1-1s-0.7-0.7-1-1s-0.7-0.7-1-1s-0.7-0.7-1-1s-0.7-0.7-1-1s-0.7-0.7-1-1s-0.7-0.7-1-1s-0.7-0.7-1-1
			s-0.7-0.7-1-1s-0.7-0.7-1-1s-0.7-0.7-1-1s-0.7-0.7-1-1s-0.7-0.7-1-1s-0.7-0.7-1-1s-0.7-0.7-1-1s-0.7-0.7-1-1s-0.7-0.7-1-1
			s-0.7-0.7-1-1s-0.7-0.7-1-1s-0.7-0.7-1-1s-0.7-0.7-1-1s-0.7-0.7-1-1s-0.7-0.7-1-1s-0.7-0.7-1-1s-0.7-0.7-1-1s-0.7-0.7-1-1
			s-0.7-0.7-1-1s-0.7-0.7-1-1s-0.7-0.7-1-1s-0.7-0.7-1-1s-0.7-0.7-1-1s-0.7-0.7-1-1s-0.7-0.7-1-1s-0.7-0.7-1-1s-0.7-0.7-1-1
			s-0.7-0.7-1-1s-0.7-0.7-1-1s-0.7-0.7-1-1s-0.7-0.7-1-1s-0.7-0.7-1-1s-0.7-0.7-1-1s-0.7-0.7-1-1s-0.7-0.7-1-1s-0.7-0.7-1-1
			s-0.7-0.7-1-1s-0.7-0.7-1-1s-0.7-0.7-1-1s-0.7-0.7-1-1s-0.7-0.7-1-1s-0.7-0.7-1-1s-0.7-0.7-1-1s-0.7-0.7-1-1
			c-0.8-0.8-1.7-1.7-2.5-2.5c-7.6-7.3-15.7-14.1-23.7-20.9c-3.4-2.9-7.1-5.4-10.9-7.7c-7.9-4.9-15.7-9.8-23.8-14.4
			c-5.5-3.1-11.2-5.6-17-8.1c-5.6-2.4-11.2-4.7-17-6.6c-6.3-2.1-12.7-3.8-19.1-5.4c-7.3-1.8-14.7-3.4-22.1-4.6
			c-5.9-1-11.9-1.2-17.9-1.9c-2-0.2-4-0.8-6.1-1.3c-1,0-2,0-2.9,0c3.1,6.5,6.1,13,9.3,19.4c1.3,2.5,2.6,5.1,3.9,7.6
			c-0.2,0-0.3,0-0.5,0c-0.1-0.3-0.1-0.7-0.2-1c-0.3,0-0.5,0-0.8,0c-0.1-0.3-0.1-0.7-0.2-1c-0.3,0-0.5,0-0.8,0
			c-0.1-0.3-0.1-0.7-0.2-1c-0.3,0-0.5,0-0.8,0c-0.1-0.3-0.1-0.7-0.2-1c-0.3,0-0.5,0-0.8,0c-0.1-0.3-0.1-0.7-0.2-1
			c-0.3,0-0.5,0-0.8,0c-0.1-0.3-0.1-0.7-0.2-1c-0.3,0-0.5,0-0.8,0c-0.1-0.3-0.1-0.7-0.2-1c-0.3,0-0.5,0-0.8,0
			c-0.1-0.3-0.1-0.7-0.2-1c-0.3,0-0.5,0-0.8,0c-0.1-0.3-0.1-0.7-0.2-1c-0.3,0-0.5,0-0.8,0c-0.1-0.3-0.1-0.7-0.2-1
			c-0.3,0-0.5,0-0.8,0c-0.1-0.3-0.1-0.7-0.2-1c-0.3,0-0.5,0-0.8,0c-0.1-0.3-0.1-0.7-0.2-1c-0.3,0-0.5,0-0.8,0
			c-0.1-0.3-0.1-0.7-0.2-1c-0.3,0-0.5,0-0.8,0c-0.1-0.3-0.1-0.7-0.2-1c-0.3,0-0.5,0-0.8,0c-0.1-0.3-0.1-0.7-0.2-1
			c-0.3,0-0.5,0-0.8,0c-0.1-0.3-0.1-0.7-0.2-1c-0.3,0-0.5,0-0.8,0c-0.1-0.3-0.1-0.7-0.2-1c-0.3,0-0.5,0-0.8,0
			c-0.1-0.3-0.1-0.7-0.2-1c-0.3,0-0.5,0-0.8,0c-0.1-0.3-0.1-0.7-0.2-1c-0.3,0-0.5,0-0.8,0c-0.1-0.3-0.1-0.7-0.2-1
			c-0.3,0-0.5,0-0.8,0c-0.1-0.3-0.1-0.7-0.2-1c-0.3,0-0.5,0-0.8,0c-0.1-0.3-0.1-0.7-0.2-1c-0.3,0-0.5,0-0.8,0
			c-0.1-0.3-0.1-0.7-0.2-1c-0.3,0-0.5,0-0.8,0c-0.1-0.3-0.1-0.7-0.2-1c-0.3,0-0.5,0-0.8,0c-0.1-0.3-0.1-0.7-0.2-1
			c-0.3,0-0.5,0-0.8,0c-0.1-0.3-0.1-0.7-0.2-1c-0.3,0-0.5,0-0.8,0c-0.1-0.3-0.1-0.7-0.2-1c-2.5,0-5,0-7.6,0
			c-0.8,0.3-1.6,0.8-2.5,0.9c-8.3,1.1-16.6,1.9-24.9,3.1c-5.6,0.8-11.2,1.8-16.6,3.2c-8.1,2.1-16.1,4.4-24,7.2s-15.6,6.1-23.2,9.5
			c-12.7,5.7-24.6,12.9-35.9,21c-7.6,5.5-14.7,11.6-21.8,17.7c-11.2,9.5-20.9,20.6-29.9,32.2c-8.4,10.9-16,22.4-22,34.8
			c-4.7,9.7-9.1,19.5-13,29.5c-5.1,13.1-8.3,26.8-10.5,40.6c-0.9,5.6-1.6,11.2-2.3,16.8c-0.4,3.7-0.7,7.5-0.9,11.3
			c0,0.7,0.2,1.4,0.3,2.1c0.3,0,0.5-0.1,0.8-0.1c0.1,0.4,0.1,0.7,0.2,1.1c0.3,0,0.5-0.1,0.8-0.1c0.1,0.4,0.1,0.7,0.2,1.1
			c0.3,0,0.5-0.1,0.8-0.1c0.1,0.4,0.1,0.7,0.2,1.1c0.3,0,0.5-0.1,0.8-0.1c0.1,0.4,0.1,0.7,0.2,1.1c0.3,0,0.5-0.1,0.8-0.1
			c0.1,0.4,0.1,0.7,0.2,1.1c0.3,0,0.5-0.1,0.8-0.1c0.1,0.4,0.1,0.7,0.2,1.1c0.3,0,0.5-0.1,0.8-0.1c0.1,0.4,0.1,0.7,0.2,1.1
			c0.3,0,0.5-0.1,0.8-0.1c0.1,0.4,0.1,0.7,0.2,1.1c0.3,0,0.5-0.1,0.8-0.1c0.1,0.4,0.1,0.7,0.2,1.1c0.3,0,0.5-0.1,0.8-0.1
			c0,0.2,0.1,0.4,0.1,0.6c-2.8,1.4-5.7,2.9-8.6,4.3c-1.6,0.8-2.2,1.5-2.1,3.3c0.8,13.9,1.9,27.7,5,41.3c2.1,9.2,4.4,18.3,7.3,27.3
			c2.7,8.3,5.9,16.4,9.5,24.4c5,11.4,11.2,22.1,18,32.5c6.8,10.3,14.4,19.9,22.7,29.1c2.9,3.3,5.9,6.4,9,9.4c0.3,0.3,0.7,0.7,1,1
			s0.7,0.7,1,1s0.7,0.7,1,1s0.7,0.7,1,1s0.7,0.7,1,1s0.7,0.7,1,1s0.7,0.7,1,1s0.7,0.7,1,1s0.7,0.7,1,1s0.7,0.7,1,1s0.7,0.7,1,1
			s0.7,0.7,1,1s0.7,0.7,1,1s0.7,0.7,1,1s0.7,0.7,1,1s0.7,0.7,1,1s0.7,0.7,1,1s0.7,0.7,1,1s0.7,0.7,1,1s0.7,0.7,1,1s0.7,0.7,1,1
			s0.7,0.7,1,1s0.7,0.7,1,1s0.7,0.7,1,1s0.7,0.7,1,1s0.7,0.7,1,1s0.7,0.7,1,1s0.7,0.7,1,1s0.7,0.7,1,1s0.7,0.7,1,1s0.7,0.7,1,1
			s0.7,0.7,1,1s0.7,0.7,1,1s0.7,0.7,1,1s0.7,0.7,1,1s0.7,0.7,1,1s0.7,0.7,1,1s0.7,0.7,1,1s0.7,0.7,1,1s0.7,0.7,1,1s0.7,0.7,1,1
			s0.7,0.7,1,1s0.7,0.7,1,1s0.7,0.7,1,1s0.7,0.7,1,1s0.7,0.7,1,1s0.7,0.7,1,1s0.7,0.7,1,1s0.7,0.7,1,1s0.7,0.7,1,1s0.7,0.7,1,1
			s0.7,0.7,1,1s0.7,0.7,1,1s0.7,0.7,1,1s0.7,0.7,1,1s0.7,0.7,1,1s0.7,0.7,1,1s0.7,0.7,1,1s0.7,0.7,1,1s0.7,0.7,1,1s0.7,0.7,1,1
			s0.7,0.7,1,1s0.7,0.7,1,1s0.7,0.7,1,1s0.7,0.7,1,1s0.7,0.7,1,1s0.7,0.7,1,1s0.7,0.7,1,1s0.7,0.7,1,1s0.7,0.7,1,1s0.7,0.7,1,1
			s0.7,0.7,1,1s0.7,0.7,1,1s0.7,0.7,1,1s0.7,0.7,1,1s0.7,0.7,1,1s0.7,0.7,1,1s0.7,0.7,1,1s0.7,0.7,1,1s0.7,0.7,1,1s0.7,0.7,1,1
			s0.7,0.7,1,1s0.7,0.7,1,1s0.7,0.7,1,1s0.7,0.7,1,1s0.7,0.7,1,1s0.7,0.7,1,1s0.7,0.7,1,1s0.7,0.7,1,1s0.7,0.7,1,1s0.7,0.7,1,1
			s0.7,0.7,1,1s0.7,0.7,1,1s0.7,0.7,1,1s0.7,0.7,1,1s0.7,0.7,1,1s0.7,0.7,1,1s0.7,0.7,1,1s0.7,0.7,1,1s0.7,0.7,1,1s0.7,0.7,1,1
			s0.7,0.7,1,1s0.7,0.7,1,1s0.7,0.7,1,1s0.7,0.7,1,1s0.7,0.7,1,1s0.7,0.7,1,1s0.7,0.7,1,1s0.7,0.7,1,1s0.7,0.7,1,1s0.7,0.7,1,1
			s0.7,0.7,1,1s0.7,0.7,1,1s0.7,0.7,1,1s0.7,0.7,1,1s0.7,0.7,1,1s0.7,0.7,1,1s0.7,0.7,1,1s0.7,0.7,1,1s0.7,0.7,1,1s0.7,0.7,1,1
			s0.7,0.7,1,1s0.7,0.7,1,1s0.7,0.7,1,1s0.7,0.7,1,1s0.7,0.7,1,1s0.7,0.7,1,1s0.7,0.7,1,1s0.7,0.7,1,1s0.7,0.7,1,1s0.7,0.7,1,1
			s0.7,0.7,1,1s0.7,0.7,1,1s0.7,0.7,1,1s0.7,0.7,1,1s0.7,0.7,1,1s0.7,0.7,1,1s0.7,0.7,1,1s0.7,0.7,1,1s0.7,0.7,1,1s0.7,0.7,1,1
			s0.7,0.7,1,1s0.7,0.7,1,1s0.7,0.7,1,1s0.7,0.7,1,1s0.7,0.7,1,1s0.7,0.7,1,1s0.7,0.7,1,1s0.7,0.7,1,1s0.7,0.7,1,1s0.7,0.7,1,1
			s0.7,0.7,1,1s0.7,0.7,1,1s0.7,0.7,1,1s0.7,0.7,1,1s0.7,0.7,1,1s0.7,0.7,1,1s0.7,0.7,1,1s0.7,0.7,1,1s0.7,0.7,1,1s0.7,0.7,1,1
			s0.7,0.7,1,1s0.7,0.7,1,1s0.7,0.7,1,1s0.7,0.7,1,1s0.7,0.7,1,1s0.7,0.7,1,1s0.7,0.7,1,1s0.7,0.7,1,1s0.7,0.7,1,1s0.7,0.7,1,1
			s0.7,0.7,1,1s0.7,0.7,1,1s0.7,0.7,1,1s0.7,0.7,1,1s0.7,0.7,1,1s0.7,0.7,1,1s0.7,0.7,1,1s0.7,0.7,1,1s0.7,0.7,1,1s0.7,0.7,1,1
			s0.7,0.7,1,1s0.7,0.7,1,1s0.7,0.7,1,1s0.7,0.7,1,1s0.7,0.7,1,1s0.7,0.7,1,1s0.7,0.7,1,1s0.7,0.7,1,1s0.7,0.7,1,1s0.7,0.7,1,1
			s0.7,0.7,1,1s0.7,0.7,1,1s0.7,0.7,1,1s0.7,0.7,1,1s0.7,0.7,1,1s0.7,0.7,1,1s0.7,0.7,1,1s0.7,0.7,1,1s0.7,0.7,1,1s0.7,0.7,1,1
			s0.7,0.7,1,1s0.7,0.7,1,1s0.7,0.7,1,1s0.7,0.7,1,1s0.7,0.7,1,1s0.7,0.7,1,1s0.7,0.7,1,1s0.7,0.7,1,1s0.7,0.7,1,1s0.7,0.7,1,1
			s0.7,0.7,1,1s0.7,0.7,1,1s0.7,0.7,1,1s0.7,0.7,1,1s0.7,0.7,1,1s0.7,0.7,1,1s0.7,0.7,1,1s0.7,0.7,1,1s0.7,0.7,1,1s0.7,0.7,1,1
			s0.7,0.7,1,1s0.7,0.7,1,1s0.7,0.7,1,1s0.7,0.7,1,1s0.7,0.7,1,1s0.7,0.7,1,1s0.7,0.7,1,1s0.7,0.7,1,1s0.7,0.7,1,1s0.7,0.7,1,1
			s0.7,0.7,1,1s0.7,0.7,1,1s0.7,0.7,1,1s0.7,0.7,1,1s0.7,0.7,1,1s0.7,0.7,1,1s0.7,0.7,1,1s0.7,0.7,1,1s0.7,0.7,1,1s0.7,0.7,1,1
			s0.7,0.7,1,1s0.7,0.7,1,1s0.7,0.7,1,1s0.7,0.7,1,1s0.7,0.7,1,1s0.7,0.7,1,1s0.7,0.7,1,1s0.7,0.7,1,1s0.7,0.7,1,1s0.7,0.7,1,1
			s0.7,0.7,1,1s0.7,0.7,1,1s0.7,0.7,1,1s0.7,0.7,1,1s0.7,0.7,1,1s0.7,0.7,1,1s0.7,0.7,1,1s0.7,0.7,1,1s0.7,0.7,1,1s0.7,0.7,1,1
			s0.7,0.7,1,1s0.7,0.7,1,1s0.7,0.7,1,1s0.7,0.7,1,1s0.7,0.7,1,1s0.7,0.7,1,1s0.7,0.7,1,1s0.7,0.7,1,1s0.7,0.7,1,1s0.7,0.7,1,1
			s0.7,0.7,1,1s0.7,0.7,1,1s0.7,0.7,1,1s0.7,0.7,1,1s0.7,0.7,1,1s0.7,0.7,1,1s0.7,0.7,1,1s0.7,0.7,1,1s0.7,0.7,1,1s0.7,0.7,1,1
			c0.3,0.3,0.7,0.7,1,1s0.7,0.7,1,1s0.7,0.7,1,1s0.7,0.7,1,1s0.7,0.7,1,1s0.7,0.7,1,1s0.7,0.7,1,1s0.7,0.7,1,1s0.7,0.7,1,1
			s0.7,0.7,1,1s0.7,0.7,1,1s0.7,0.7,1,1s0.7,0.7,1,1s0.7,0.7,1,1s0.7,0.7,1,1s0.7,0.7,1,1s0.7,0.7,1,1s0.7,0.7,1,1s0.7,0.7,1,1
			s0.7,0.7,1,1s0.7,0.7,1,1s0.7,0.7,1,1s0.7,0.7,1,1s0.7,0.7,1,1s0.7,0.7,1,1s0.7,0.7,1,1s0.7,0.7,1,1s0.7,0.7,1,1s0.7,0.7,1,1
			s0.7,0.7,1,1s0.7,0.7,1,1s0.7,0.7,1,1s0.7,0.7,1,1s0.7,0.7,1,1s0.7,0.7,1,1s0.7,0.7,1,1s0.7,0.7,1,1s0.7,0.7,1,1s0.7,0.7,1,1
			s0.7,0.7,1,1s0.7,0.7,1,1s0.7,0.7,1,1s0.7,0.7,1,1s0.7,0.7,1,1s0.7,0.7,1,1s0.7,0.7,1,1s0.7,0.7,1,1s0.7,0.7,1,1s0.7,0.7,1,1
			s0.7,0.7,1,1s0.7,0.7,1,1s0.7,0.7,1,1s0.7,0.7,1,1s0.7,0.7,1,1s0.7,0.7,1,1s0.7,0.7,1,1s0.7,0.7,1,1s0.7,0.7,1,1s0.7,0.7,1,1
			s0.7,0.7,1,1s0.7,0.7,1,1s0.7,0.7,1,1s0.7,0.7,1,1s0.7,0.7,1,1s0.7,0.7,1,1s0.7,0.7,1,1s0.7,0.7,1,1s0.7,0.7,1,1s0.7,0.7,1,1
			s0.7,0.7,1,1s0.7,0.7,1,1s0.7,0.7,1,1s0.7,0.7,1,1s0.7,0.7,1,1s0.7,0.7,1,1s0.7,0.7,1,1s0.7,0.7,1,1s0.7,0.7,1,1
			c5.4,5.4,11.1,10.5,17,15.4c9.7,8,19.9,15.4,30.9,21.5c9,5,18.3,9.6,27.6,13.9c5.9,2.8,12.2,4.8,18.4,7c4.6,1.6,9.3,3,14,4.2
			c6.3,1.6,12.6,3.2,19,4.2c9.9,1.5,19.8,2.5,29.7,3.7c1.2,0.1,2.3,0,3.8,0c-1.6-3.4-3-6.4-4.5-9.3c-5.1-10.2-10.4-20.4-15.5-30.6
			c-4.8-9.6-9.5-19.3-14.3-28.8c-0.7-1.5-0.7-2.5,0-3.9c6.8-13.4,13.6-26.9,20.3-40.3c4.4-8.7,8.6-17.5,13-26.3
			c1-2.1,1.2-2.5-0.2-2.8c0.1-0.6-0.1-0.8-1-1c0.1-0.6-0.1-0.8-1-1c0.1-0.6-0.1-0.8-1-1c0.1-0.6-0.1-0.8-1-1c0.1-0.6-0.1-0.8-1-1
			c0.1-0.6-0.1-0.8-1-1c0.1-0.6-0.1-0.8-1-1c0.1-0.6-0.1-0.8-1-1c0.1-0.6-0.1-0.8-1-1c0.1-0.6-0.1-0.8-1-1c0.1-0.6-0.1-0.8-1-1
			c0.1-0.6-0.1-0.8-1-1c0.1-0.6-0.1-0.8-1-1c0.1-0.6-0.1-0.8-1-1c0.1-0.6-0.1-0.8-1-1c0.1-0.6-0.1-0.8-1-1c0.1-0.6-0.1-0.8-1-1
			c0.1-0.6-0.1-0.8-1-1c0.1-0.6-0.1-0.8-1-1c0.1-0.6-0.1-0.8-1-1c0.1-0.6-0.1-0.8-1-1c0.1-0.6-0.1-0.8-1-1c0.1-0.6-0.1-0.8-1-1
			c0.1-0.6-0.1-0.8-1-1c0.1-0.6-0.1-0.8-1-1c0.1-0.6-0.1-0.8-1-1c0.1-0.6-0.1-0.8-1-1c0.1-0.6-0.1-0.8-1-1c0.1-0.6-0.1-0.8-1-1
			c0.1-0.6-0.1-0.8-1-1c0.1-0.6-0.1-0.8-1-1c0.1-0.6-0.1-0.8-1-1c0.1-0.6-0.1-0.8-1-1c0.1-0.6-0.1-0.8-1-1c0.1-0.6-0.1-0.8-1-1
			c0.1-0.6-0.1-0.8-1-1c0.1-0.6-0.1-0.8-1-1c0.1-0.6-0.1-0.8-1-1c0.1-0.6-0.1-0.8-1-1c0.1-0.6-0.1-0.8-1-1c0.1-0.6-0.1-0.8-1-1
			c0.1-0.6-0.1-0.8-1-1c0.1-0.6-0.1-0.8-1-1c0.1-0.6-0.1-0.8-1-1c0.1-0.6-0.1-0.8-1-1c0.1-0.6-0.1-0.8-1-1c0.1-0.6-0.1-0.8-1-1
			c0.1-0.6-0.1-0.8-1-1c0.1-0.6-0.1-0.8-1-1c0.1-0.6-0.1-0.8-1-1c0.1-0.6-0.1-0.8-1-1c0.1-0.6-0.1-0.8-1-1c0.1-0.6-0.1-0.8-1-1
			c0.1-0.6-0.1-0.8-1-1c0.1-0.6-0.1-0.8-1-1c0.1-0.6-0.1-0.8-1-1c0.1-0.6-0.1-0.8-1-1c0.1-0.6-0.1-0.8-1-1c0.1-0.6-0.1-0.8-1-1
			c0.1-0.6-0.1-0.8-1-1c0.1-0.6-0.1-0.8-1-1c0.1-0.6-0.1-0.8-1-1c0.1-0.6-0.1-0.8-1-1c0.1-0.6-0.1-0.8-1-1c0.1-0.6-0.1-0.8-1-1
			c0.1-0.6-0.1-0.8-1-1c0.1-0.6-0.1-0.8-1-1c0.1-0.6-0.1-0.8-1-1c0.1-0.6-0.1-0.8-1-1c0.1-0.6-0.1-0.8-1-1c0.1-0.6-0.1-0.8-1-1
			c0.1-0.6-0.1-0.8-1-1c0.1-0.6-0.1-0.8-1-1c0.1-0.6-0.1-0.8-1-1c0.1-0.6-0.1-0.8-1-1c0.1-0.6-0.1-0.8-1-1c0.1-0.6-0.1-0.8-1-1
			c0.1-0.6-0.1-0.8-1-1c0.1-0.6-0.1-0.8-1-1c0.1-0.6-0.1-0.8-1-1c0.1-0.6-0.1-0.8-1-1c0.1-0.6-0.1-0.8-1-1c0.1-0.6-0.1-0.8-1-1
			c0.1-0.6-0.1-0.8-1-1c0.1-0.6-0.1-0.8-1-1c0.1-0.6-0.1-0.8-1-1c0.1-0.6-0.1-0.8-1-1c0.1-0.4,0-0.7-0.4-0.8
			c-0.1-0.9-0.2-1.9-0.2-2.8c0-1-0.6-2.3-1.3-2.8c-0.1-0.1-0.2-0.1-0.3-0.2c-0.2-0.4-0.5-0.7-0.7-0.8c-0.1-0.1-0.2-0.1-0.3-0.2
			c-0.2-0.4-0.5-0.7-0.7-0.8c-0.1-0.1-0.2-0.1-0.3-0.2c-0.2-0.4-0.5-0.7-0.7-0.8c-0.1-0.1-0.2-0.1-0.3-0.2c-0.2-0.4-0.5-0.7-0.7-0.8
			c-0.1-0.1-0.2-0.1-0.3-0.2c-0.2-0.4-0.5-0.7-0.7-0.8c-0.1-0.1-0.2-0.1-0.3-0.2c-0.2-0.4-0.5-0.7-0.7-0.8c-0.1-0.1-0.2-0.1-0.3-0.2
			c-0.2-0.4-0.5-0.7-0.7-0.8c-0.1-0.1-0.2-0.1-0.3-0.2c-0.2-0.4-0.5-0.7-0.7-0.8c-0.1-0.1-0.2-0.1-0.3-0.2c-0.2-0.4-0.5-0.7-0.7-0.8
			c-0.1-0.1-0.2-0.1-0.3-0.2c-0.2-0.4-0.5-0.7-0.7-0.8c-0.1-0.1-0.2-0.1-0.3-0.2c-0.2-0.4-0.5-0.7-0.7-0.8c-0.1-0.1-0.2-0.1-0.3-0.2
			c-0.2-0.4-0.5-0.7-0.7-0.8c-0.1-0.1-0.2-0.1-0.3-0.2c-0.2-0.4-0.5-0.7-0.7-0.8c-0.1-0.1-0.2-0.1-0.3-0.2c-0.2-0.4-0.5-0.7-0.7-0.8
			c-0.1-0.1-0.2-0.1-0.3-0.2c-0.2-0.4-0.5-0.7-0.7-0.8c-0.1-0.1-0.2-0.1-0.3-0.2c-0.2-0.4-0.5-0.7-0.7-0.8c-0.1-0.1-0.2-0.1-0.3-0.2
			c-0.2-0.4-0.5-0.7-0.7-0.8c-0.1-0.1-0.2-0.1-0.3-0.2c-0.2-0.4-0.5-0.7-0.7-0.8c-0.1-0.1-0.2-0.1-0.3-0.2c-0.2-0.4-0.5-0.7-0.7-0.8
			c-0.1-0.1-0.2-0.1-0.3-0.2c-0.2-0.4-0.5-0.7-0.7-0.8c-0.1-0.1-0.2-0.1-0.3-0.2c-0.2-0.4-0.5-0.7-0.7-0.8c-0.1-0.1-0.2-0.1-0.3-0.2
			c-0.2-0.4-0.5-0.7-0.7-0.8c-0.1-0.1-0.2-0.1-0.3-0.2c-0.2-0.4-0.5-0.7-0.7-0.8c-0.1-0.1-0.2-0.1-0.3-0.2c-0.2-0.4-0.5-0.7-0.7-0.8
			c-0.1-0.1-0.2-0.1-0.3-0.2c-0.2-0.4-0.5-0.7-0.7-0.8c-0.1-0.1-0.2-0.1-0.3-0.2c-0.2-0.4-0.5-0.7-0.7-0.8c-0.1-0.1-0.2-0.1-0.3-0.2
			c-0.2-0.4-0.5-0.7-0.7-0.8c-0.1-0.1-0.2-0.1-0.3-0.2c-0.1-0.1-0.1-0.2-0.2-0.3c7.6,3.8,15.1,7.6,22.7,11.4
			c1.9,0.9,3.8,1.8,5.9,2.7c0.2-0.8,0.4-1.1,0.4-1.5c0.7-7.4,2.4-14.6,4.9-21.6c4.5-12.6,11.2-24,20.3-33.9
			c10.4-11.4,22.9-19.9,37.1-25.5c9.1-3.6,18.7-5.7,28.5-6.3c1.4-0.1,2.3-0.4,3-1.8c0.9-1.8,1.7-3.5,2.6-5.3
			c0.2,0.4,0.5,0.7,0.9,0.8l0,0c0.3,0.4,0.6,0.8,1,1l0,0c0.3,0.4,0.6,0.8,1,1l0,0c0.3,0.4,0.6,0.8,1,1l0,0c0.3,0.4,0.6,0.8,1,1l0,0
			c0.3,0.4,0.6,0.8,1,1l0,0c0.3,0.4,0.6,0.8,1,1l0,0c0.3,0.4,0.6,0.8,1,1l0,0c0.3,0.4,0.6,0.8,1,1l0,0c0.3,0.4,0.6,0.8,1,1l0,0
			c0.3,0.4,0.6,0.8,1,1l0,0c0.3,0.4,0.6,0.8,1,1l0,0c0.3,0.4,0.6,0.8,1,1l0,0c0.3,0.4,0.6,0.8,1,1l0,0c0.3,0.4,0.6,0.8,1,1l0,0
			c0.3,0.4,0.6,0.8,1,1l0,0c0.3,0.4,0.6,0.8,1,1l0,0c0.3,0.4,0.6,0.8,1,1l0,0c0.3,0.4,0.6,0.8,1,1l0,0c0.3,0.4,0.6,0.8,1,1l0,0
			c0.3,0.4,0.6,0.8,1,1l0,0c0.3,0.4,0.6,0.8,1,1l0,0c0.3,0.4,0.6,0.8,1,1l0,0c0.3,0.4,0.6,0.8,1,1l0,0c0.3,0.4,0.6,0.8,1,1l0,0
			c0.3,0.4,0.6,0.8,1,1l0,0c0.3,0.4,0.6,0.8,1,1l0,0c0.3,0.4,0.6,0.8,1,1l0,0c0.3,0.4,0.6,0.8,1,1l0,0c0.3,0.4,0.6,0.8,1,1l0,0
			c0.3,0.4,0.6,0.8,1,1l0,0c0.3,0.4,0.6,0.8,1,1l0,0c0.3,0.4,0.6,0.8,1,1l0,0c0.3,0.4,0.6,0.8,1,1l0,0c0.3,0.4,0.6,0.8,1,1l0,0
			c0.3,0.4,0.6,0.8,1,1l0,0c0.3,0.4,0.6,0.8,1,1l0,0c0.3,0.4,0.6,0.8,1,1l0,0c0.3,0.4,0.6,0.8,1,1l0,0c0.3,0.4,0.6,0.8,1,1l0,0
			c0.3,0.4,0.6,0.8,1,1l0,0c0.3,0.4,0.6,0.8,1,1l0,0c0.3,0.4,0.6,0.8,1,1l0,0c0.3,0.4,0.6,0.8,1,1l0,0c0.3,0.4,0.6,0.8,1,1l0,0
			c0.3,0.4,0.6,0.8,1,1l0,0c0.3,0.4,0.6,0.8,1,1l0,0c0.3,0.4,0.6,0.8,1,1l0,0c0.3,0.4,0.6,0.8,1,1l0,0c0.3,0.4,0.6,0.8,1,1l0,0
			c0.3,0.4,0.6,0.8,1,1l0,0c0.3,0.4,0.6,0.8,1,1l0,0c0.3,0.4,0.6,0.8,1,1l0,0c0.3,0.4,0.6,0.8,1,1l0,0c0.3,0.4,0.6,0.8,1,1l0,0
			c0.3,0.4,0.6,0.8,1,1l0,0c0.3,0.4,0.6,0.8,1,1l0,0c0.3,0.4,0.6,0.8,1,1l0,0c0.3,0.4,0.6,0.8,1,1l0,0c0.3,0.4,0.6,0.8,1,1l0,0
			c0.3,0.4,0.6,0.8,1,1l0,0c0.3,0.4,0.6,0.8,1,1l0,0c0.3,0.4,0.6,0.8,1,1l0,0c0.3,0.4,0.6,0.8,1,1l0,0c0.3,0.4,0.6,0.8,1,1l0,0
			c0.3,0.4,0.6,0.8,1,1l0,0c0.3,0.4,0.6,0.8,1,1l0,0c0.3,0.4,0.6,0.8,1,1l0,0c0.3,0.4,0.6,0.8,1,1l0,0c0.3,0.4,0.6,0.8,1,1l0,0
			c0.3,0.4,0.6,0.8,1,1l0,0c0.3,0.4,0.6,0.8,1,1l0,0c0.3,0.4,0.6,0.8,1,1l0,0c0.3,0.4,0.6,0.8,1,1l0,0c0.3,0.4,0.6,0.8,1,1l0,0
			c0.3,0.4,0.6,0.8,1,1l0,0c0.3,0.4,0.6,0.8,1,1l0,0c0.3,0.4,0.6,0.8,1,1l0,0c0.3,0.4,0.6,0.8,1,1l0,0c0.3,0.4,0.6,0.8,1,1l0,0
			c0.3,0.4,0.6,0.8,1,1l0,0c0.3,0.4,0.6,0.8,1,1l0,0c0.3,0.4,0.6,0.8,1,1l0,0c0.3,0.4,0.6,0.8,1,1l0,0c0.3,0.4,0.6,0.8,1,1l0,0
			c0.3,0.4,0.6,0.8,1,1l0,0c0.3,0.4,0.6,0.8,1,1l0,0c0.3,0.4,0.6,0.8,1,1l0,0c0.3,0.4,0.6,0.8,1,1l0,0c0.3,0.4,0.6,0.8,1,1l0,0
			c0.3,0.4,0.6,0.8,1,1l0,0c0.3,0.4,0.6,0.8,1,1l0,0c0.3,0.4,0.6,0.8,1,1l0,0c0.3,0.4,0.6,0.8,1,1l0,0c0.3,0.4,0.6,0.8,1,1l0,0
			c0.3,0.4,0.6,0.8,1,1l0,0c0.3,0.4,0.6,0.8,1,1l0,0c0.3,0.4,0.6,0.8,1,1l0,0c0.3,0.4,0.6,0.8,1,1l0,0c0.3,0.4,0.6,0.8,1,1l0,0
			c0.3,0.4,0.6,0.8,1,1c6.9,3.5,13.8,6.9,20.8,10.4c6.6,3.3,13.2,6.6,19.8,9.9c8.6,4.4,17.3,8.8,25.9,13.2c2.1,1.1,4,1.1,6.1,0
			c7.2-3.7,14.5-7.5,21.8-11.1c8.2-4.1,16.4-8.1,24.5-12.2c5.9-2.9,11.7-6,17.6-8.8C1000.1,755.4,1000.3,755.4,999.8,751z"/>
	</g>
</g>
<g>
	<path class="st3" d="M412,160c2,0.4,4,1,6.1,1.3c6,0.7,12,0.9,17.9,1.9c7.4,1.2,14.8,2.8,22.1,4.6c6.4,1.5,12.8,3.3,19.1,5.4
		c5.8,1.9,11.4,4.2,17,6.6c5.8,2.5,11.5,5,17,8.1c8.1,4.5,15.9,9.4,23.8,14.4c3.8,2.4,7.5,4.9,10.9,7.7c8.1,6.8,16.2,13.5,23.7,20.9
		c6.3,6.1,12,12.9,17.7,19.5c3.1,3.6,5.8,7.7,8.5,11.7c4.1,6,8.2,12,11.9,18.2c7.1,11.7,12.7,24.2,17.5,37c4,10.7,7.2,21.7,9.5,32.9
		c1.4,6.7,2.3,13.5,3.2,20.2c0.9,6.9,1.3,13.7,2,20.6c0.4,4.4,0.3,4.4-3.8,6.4c-5.9,2.8-11.7,5.9-17.6,8.8
		c-8.2,4.1-16.4,8.1-24.5,12.2c-7.3,3.7-14.5,7.4-21.8,11.1c-2.1,1.1-4,1.1-6.1,0c-8.6-4.5-17.2-8.9-25.9-13.2
		c-6.6-3.3-13.2-6.6-19.8-9.9c-6.9-3.4-13.9-6.8-20.8-10.4c-0.7-0.3-1.3-1.4-1.4-2.1c-0.6-6.6-1.7-13.1-3.4-19.5
		c-2.7-10-7-19.2-12.6-27.9c-4.6-7.2-10.3-13.5-16.7-19.3c-5.4-4.9-11.3-9.2-17.7-12.6c-6.7-3.6-13.6-6.9-21-8.6
		c-5.1-1.2-10.2-2.1-15.4-3.2c-0.8-0.2-1.6-0.4-2.3-0.7c6.4-12.8,12.6-25.5,19-38.1c5.2-10.3,10.5-20.6,15.6-31
		c0.5-0.9,0.4-2.5-0.1-3.5c-4.3-8.8-8.6-17.6-13.1-26.4c-4-7.9-8.2-15.7-12.1-23.6c-3.2-6.4-6.2-12.9-9.3-19.4
		C410,160,411,160,412,160z M573.3,315.6L573.3,315.6c0-7.5,0-15.1,0-22.6c0-3.1-1.6-4.6-4.7-4.6c-1.7,0-3.5,0-5.2,0
		c-5.5,0.1-6.9,0-6.9,7.2c-0.1,11.7,0,23.5,0,35.2c0,2.6,0.1,5.3,0.3,7.9c0.1,2.2,1.3,3.6,3.5,3.7c3,0.1,6,0.3,9,0.1
		c2.9-0.2,4-1.8,4-4.8C573.3,330.3,573.3,323,573.3,315.6z M560.1,267.4c-0.1,0.7-0.1,0.9-0.2,1.1c-0.2,0.4-0.5,0.9-0.7,1.3
		c-7.2,10.3-16.7,18-27.8,23.6c-5.4,2.7-11.3,4.7-17,6.8c-5.7,2.1-11.7,2.7-17.7,2.8c-2.3,0.1-3.9,1.2-4,3.1
		c-0.1,1.6,1.6,3.5,3.6,3.4c5.5-0.5,11.2-0.6,16.6-2c6.2-1.6,12.2-4.2,18.2-6.7c12.8-5.6,23.3-14.2,32-25.1c0.9-1.2,1.8-2.4,3-3.9
		c0.4,2,0.5,3.6,1,5.1c0.6,1.9,2.3,2.8,3.9,2.4c1.5-0.4,2.7-2.4,2.5-4.2c-0.5-4.6-1-9.1-1.5-13.7c-0.3-2.6-2.1-4.1-4.6-3.4
		c-1.8,0.5-3.5,1.3-5.3,1.8c-2.8,0.8-5.6,1.5-8.4,2.4c-2,0.6-3,2.5-2.5,4.5c0.4,1.5,1.8,2.2,4.1,1.8
		C556.6,268.1,558.2,267.8,560.1,267.4z M535.4,322.5C535.4,322.5,535.3,322.5,535.4,322.5c0,5.2-0.1,10.3,0,15.5
		c0,3.1,1.4,4.5,4.5,4.6c2.4,0.1,4.9,0.1,7.3,0c3.3-0.1,4.7-1.6,4.7-4.8c0-6.1,0-12.2,0-18.2c0-4.1,0.1-8.2,0-12.4
		c0-3-1.4-4.2-4.3-4.2c-2.7,0.1-5.3,0-8,0.1c-3.2,0.1-4.2,0.9-4.3,4.1C535.3,312.3,535.4,317.4,535.4,322.5z M530.5,327.2
		c0-3.6,0-7.3,0-10.9c0-2.9-1.2-4.1-4.1-4.1c-2.4,0-4.9,0-7.3,0c-4.1,0-5.1,0.9-5.1,5c-0.1,6.9,0,13.8,0,20.7c0,3.1,1.2,4.5,4.4,4.6
		c2.6,0.1,5.2,0.1,7.8,0c2.8-0.1,4.4-1.7,4.4-4.5C530.5,334.5,530.5,330.9,530.5,327.2z M492.5,329.1L492.5,329.1c0,3,0,6,0,9
		c0,2.6,1.6,4.4,4.2,4.5c2.9,0.1,5.7,0,8.6-0.1c2.4-0.2,3.8-1.7,3.8-4.1c0.1-6.2,0.1-12.4,0-18.7c0-3.2-1.4-4.4-4.5-4.5
		c-2.5-0.1-5-0.1-7.6,0c-3,0-4.5,1.5-4.6,4.5C492.5,322.8,492.5,326,492.5,329.1z"/>
	<path class="st4" d="M395.6,160c0.2,0.9,0.3,1.8,0.6,2.6c6.5,13.1,13,26.1,19.6,39.2c3.1,6.1,6.2,12.2,9.3,18.3
		c1.5,2.9,2.7,5.8,4.3,8.6c1.1,1.9,0.8,3.6-0.1,5.3c-2.2,4.3-4.3,8.6-6.5,12.9c-5.7,11.3-11.3,22.6-17,33.9
		c-3.3,6.6-6.6,13.1-9.8,19.7c-0.7,1.4-1.6,1.7-3,1.8c-9.8,0.6-19.4,2.7-28.5,6.3c-14.3,5.7-26.7,14.1-37.1,25.5
		c-9.1,10-15.8,21.3-20.3,33.9c-2.5,7-4.3,14.2-4.9,21.6c0,0.4-0.2,0.8-0.4,1.5c-2.1-1-4-1.8-5.9-2.7c-10.8-5.4-21.6-10.8-32.4-16.2
		c-10.3-5.2-20.5-10.4-30.8-15.5c-1-0.5-2.5-0.5-3.5-0.1c-7.4,3.5-14.6,7.2-21.9,10.9c-9.6,4.8-19.2,9.6-28.8,14.5
		c-5.2,2.6-10.4,5.2-15.6,7.7c-0.6,0.3-1.4,0.3-2.2,0.4c-0.1-0.7-0.3-1.4-0.3-2.1c0.3-3.8,0.5-7.5,0.9-11.3
		c0.7-5.6,1.4-11.2,2.3-16.8c2.2-13.9,5.5-27.5,10.5-40.6c3.9-10,8.4-19.8,13-29.5c6-12.4,13.6-23.9,22-34.8
		c9-11.6,18.6-22.7,29.9-32.2c7.1-6.1,14.2-12.2,21.8-17.7c11.3-8.1,23.2-15.3,35.9-21c7.6-3.4,15.3-6.7,23.2-9.5
		c7.9-2.8,15.9-5.1,24-7.2c5.5-1.4,11.1-2.4,16.6-3.2c8.3-1.2,16.6-2,24.9-3.1c0.8-0.1,1.6-0.6,2.5-0.9
		C390.6,160,393.1,160,395.6,160z M321.1,238.9c-0.7-0.9-1.5-2.8-3-3.7c-10-5.9-20.9-7.3-32.2-5.5c-7.9,1.3-15.2,4.8-21.3,10
		c-9.6,8.3-15.2,18.8-16.4,31.4c-1.1,11.6,1.7,22.5,8.8,32c9.2,12.3,21.9,18.3,37,19c5.8,0.2,11.6-1.1,17.2-3.1
		c8.5-3.1,15.3-8.3,20.7-15.5c6.3-8.4,9.2-17.9,9.1-28.5c-0.1-8.5-2.2-16.3-6.4-23.5c-0.5-0.9-1.7-1.9-2.7-2
		c-1.9-0.1-3.9,0.2-5.8,0.8c-2.6,0.8-3.1,3.1-1.8,5.4c1.4,2.5,2.7,5,3.8,7.7c3.7,9.3,3.1,18.5-1.3,27.4
		c-5.3,10.9-14.1,17.5-26.1,19.9c-5.6,1.1-11.1,0.8-16.5-1c-11.8-4-19.9-11.7-23.8-23.7c-3-9.4-2.1-18.6,2.5-27.2
		c5.6-10.5,14.7-16.7,26.3-18.8c8.8-1.6,17,0.8,24.5,5.4c2.8,1.7,3.6,1.7,5.6-1c0.3-0.4,1-0.4,1.4-0.6c0,0.2,0.1,0.4,0.1,0.6
		c-3.5,3.6-7.1,7.2-10.6,10.8c1.3-3.4,1.2-4-1.1-5.4c-5.4-3-11.3-4-17.5-3.5c-6.1,0.5-11.5,2.5-16,6.4c-9,7.9-12.3,17.9-9.7,29.6
		c2.1,9.7,8,16.4,17.1,20.3c3.8,1.6,7.7,2.1,11.8,2.1c5.2,0,9.9-1.1,14.4-3.7c11.4-6.6,16.2-18,14.4-30.6c-0.5-3.3-2-6.5-3.3-9.6
		c-1.1-2.4-2.4-2.5-4.4-0.8c-1,0.9-2,2-3,2.9c-1.7,1.5-2,3.1-1,5.2c1.8,4.2,1.9,8.5,0.6,12.9c-2.8,9.4-14.6,15.1-22.8,12.5
		c-8.9-2.7-16.3-14.7-13.1-23.6c3.1-8.7,15-16.8,25.1-11.7c1.3,0.7,2.8,0.9,4.1-0.3c0.3-0.2,0.8-0.2,1.8-0.4c-4,3.9-7.6,7.4-11.1,11
		c0.1-0.7,0.6-1.1,0.9-1.6c0.4-0.8,0.9-1.6,0.9-2.4c0-0.4-0.9-1.2-1.4-1.3c-3.3-0.2-6.6-0.1-9.4,1.9c-4.9,3.6-6.5,8.7-4.4,14.7
		c2.8,7.9,11,9.5,17.4,6.5c5.4-2.5,6.9-7.3,6.3-13c-0.2-1.8-1.2-1.8-2.5-1.4c-0.6,0.2-1.2,0.4-1.8,0.5c1.5-1.9,3.3-3.2,4.9-4.8
		c5.7-5.7,11.2-11.5,17-17.1c1-1,2.8-1.3,4.2-1.8c1.5-0.5,3.4-0.5,4.7-1.4c2.7-1.7,5.1-3.9,7.6-5.9c0.8-0.7,1.7-1.3,2.3-2.1
		c1.3-1.7,0.6-3.1-1.4-3.4c-1-0.1-1.9-0.3-2.9-0.4c-4-0.5-4.6-1.1-4.7-5.3c0-0.4,0.1-0.9,0-1.3c-0.2-0.9-0.6-2.5-0.9-2.5
		c-1.1,0-2.6,0.2-3.4,0.9c-1.5,1.3-2.6,2.9-3.8,4.5C324.2,234.5,322.5,237,321.1,238.9z"/>
	<path class="st5" d="M391,640c-1.5,0-2.6,0.1-3.8,0c-9.9-1.2-19.9-2.2-29.7-3.7c-6.4-1-12.7-2.6-19-4.2c-4.7-1.2-9.4-2.6-14-4.2
		c-6.2-2.2-12.4-4.3-18.4-7c-9.3-4.3-18.6-8.9-27.6-13.9c-11-6.1-21.2-13.4-30.9-21.5c-8.9-7.4-17.3-15.2-25-23.8
		c-8.2-9.2-15.9-18.8-22.7-29.1c-6.8-10.4-13-21.2-18-32.5c-3.5-8-6.8-16.1-9.5-24.4c-2.9-8.9-5.2-18.1-7.3-27.3
		c-3.1-13.6-4.2-27.5-5-41.3c-0.1-1.7,0.5-2.5,2.1-3.3c8.6-4.2,17.2-8.7,25.8-13c7.7-3.8,15.4-7.5,23.1-11.4
		c5.6-2.8,11.2-5.7,16.8-8.6c2.1-1.1,4.1-1.1,6.3,0c6.4,3.4,12.9,6.6,19.4,9.8c7.2,3.6,14.4,7.4,21.6,11c6.1,3,12.3,6,18.4,9
		c2.4,1.2,4.9,2.3,7.2,3.8c0.7,0.5,1.3,1.8,1.3,2.8c0.4,8.7,2.4,17.2,5.2,25.3c3.6,10.1,8.9,19.4,15.4,28
		c10.1,13.3,23.1,23,38.3,29.8c8.7,3.9,17.9,6.3,27.4,7.4c2.8,0.3,2.8,0.4,1.5,3c-4.3,8.8-8.6,17.5-13,26.3
		c-6.7,13.5-13.5,26.9-20.3,40.3c-0.7,1.4-0.7,2.4,0,3.9c4.9,9.6,9.5,19.2,14.3,28.8c5.1,10.2,10.3,20.4,15.5,30.6
		C387.9,633.6,389.3,636.6,391,640z M288.7,492c-0.7-0.2-1.1-0.5-1.2-0.4c-2.9,1.3-6.3,0.9-9,3.1c-2,1.6-4.8,1.6-6.7,0.3
		c-1.7-1.1-2.9-3.7-2.6-5.4c0.9-4.8,5.7-6,9-4c0.6,0.4,1.5,0.6,2.2,0.4c5.3-1.2,10.9-1.8,13.1-8.3c1.2-3.5,2.1-6.9,1.7-10.6
		c-0.3-2.3-0.5-4.7-0.8-7c-0.2-2.1-0.3-4.2-0.6-6.2c-1.1-6.6-7.8-13.5-14.4-14.1c-4.5-0.4-9.1-0.7-13.8,1
		c-6.7,2.5-11.7,9.5-11.8,16.3c0,2.1,0.2,4.2-0.1,6.3c-0.1,1.1-1.1,2.1-1.5,3.1c-0.4,0.9-0.9,2-0.7,2.8c0.5,2,1.4,3.8,2.1,5.7
		c0.6,1.6,1.8,3.2,1.8,4.8c0,4.3,1.2,8.2,3.6,11.6c3,4.2,3.3,8.7,1.7,13.3c-0.5,1.3-1.5,2.8-2.7,3.5c-3,1.6-6.3,2.9-9.5,4.2
		c-4.2,1.8-8.5,3.4-12.7,5.3c-3.9,1.9-7.4,4.5-9.7,8.3c-1.7,2.8-1.6,3.9,1.1,5.6c0.9,0.6,2.3,0.6,3.4,0.6c29.1,0,58.2,0,87.3,0.1
		c2.3,0,3.8-1.1,4.6-2.7c0.5-0.9-0.3-2.6-0.9-3.8s-1.5-2.2-2.4-3.1c-3.2-3.1-6.8-5.5-11-7.1c-5.3-2-10.5-4.3-15.9-6.3
		c-3.6-1.3-5.6-3.9-5.7-7.7C286.8,498.5,286.4,495.1,288.7,492z M241.7,471.7C241.7,471.7,241.8,471.7,241.7,471.7
		c0.1,1.7,0.1,3.5,0.4,5.2c0.6,3.2,3.2,4.7,6.9,4.1c2.6-0.4,3.1-1.3,2.6-5.2c0-0.2,0-0.4,0-0.6c-0.2-3.4-0.5-6.8-0.7-10.2
		c-0.2-2.8-0.9-5.7-0.4-8.4c2.1-11.9,11.9-19.9,23.8-19.9c8.8,0.1,15.8,4.1,20.5,11.7c2.7,4.3,3.8,9,3.3,14c-0.4,4.8-1,9.7-1.7,14.5
		c-0.2,1.4-0.8,3-1.7,4c-3.4,3.6-7.9,5.3-12.6,6.3c-1.6,0.3-3.5,0-5-0.6c-2.2-0.9-4.2-0.7-5.6,1.2c-1.2,1.6-1,4.1,0.5,5.5
		c1.6,1.6,4.1,1.4,5.9,0c1-0.8,2.3-1.5,3.6-1.7c6.7-1.2,12.7-3.7,17.4-8.8c0.7-0.8,1.9-1.4,3-1.7c1.9-0.5,3.4-1.6,3.7-3.3
		c0.5-3.5,0.7-7.1,0.8-10.6c0-1-0.8-2.3-1.6-2.8c-2.1-1.3-2.2-3.3-2.4-5.4c-1.7-17.7-15.3-26.1-28.9-26.9c-1.6-0.1-3.2,0.6-4.8,1.1
		c-2.4,0.7-4.9,1.2-7.1,2.3c-10,5.3-15.6,13.5-15.7,25.1c0,1-0.8,2.2-1.6,2.8c-1.6,1.3-2.6,2.7-2.5,4.8
		C241.7,469.3,241.7,470.5,241.7,471.7z"/>
	<path class="st6" d="M426.9,384.6c0,0.8,0,1.6,0,2.4c0,10.8,0,21.5,0,32.3c0,1.8-0.5,2.5-2.4,2.4c-1.6-0.2-3.2-0.1-4.8,0
		c-1.2,0-1.8-0.3-1.8-1.6c0-15.5,0-30.9,0-46.4c0-1.1,0.3-1.7,1.6-1.6c3.4,0.1,6.7,0.1,10.1,0c1.6,0,1.9,1,2.2,2
		c1.7,5,3.4,9.9,5.1,14.9c2.3,6.7,4.6,13.4,6.8,19.9c1.4-4.5,2.9-9.3,4.5-14c2.3-6.9,4.8-13.9,7.2-20.8c0.5-1.4,1.2-2.2,2.9-2.1
		c3.1,0.2,6.2,0.1,9.2,0c1.4,0,1.8,0.4,1.8,1.8c0,15.3,0,30.6,0,45.9c0,1.5-0.5,2-1.9,1.9c-1.8-0.1-3.6-0.1-5.5,0
		c-1.6,0.1-2-0.6-2-2.1c0.1-10.7,0-21.4,0-32.1c0-0.8,0-1.6,0-2.5c-0.2,0-0.3-0.1-0.5-0.1c-0.5,1.4-1,2.7-1.5,4.1
		c-3.4,10.2-6.8,20.5-10.1,30.7c-0.5,1.4-1.1,1.9-2.7,1.9c-5.7-0.1-5.7,0-7.5-5.4c-3.5-10.6-6.9-21.1-10.3-31.7
		C427.3,384.7,427.1,384.7,426.9,384.6z"/>
	<path class="st6" d="M380.7,402.4c0,5.8-0.1,11.4,0,16.9c0,1.9-0.4,2.7-2.4,2.5c-1.8-0.2-3.6-0.1-5.4,0c-1.5,0.1-1.9-0.5-1.9-1.9
		c0.1-7.3,0-14.7,0-22c0-7.9,0-15.8,0-23.7c0-1.6,0.5-2,2-2c7.1,0.1,14.1-0.2,21.2,0.1c6.9,0.3,12.5,3.1,14.4,9.5
		c2,6.7,0,13.2-5.2,16.4c-1,0.6-2.2,1-3.4,1.6c1.1,0.7,2.1,1.3,2.9,2c3.1,2.5,4,6,4.8,9.6c0.8,3.5,1.8,7,2.7,10.5
		c-2.5,0-5.6,0.2-8.5-0.1c-0.8-0.1-1.9-1.5-2.2-2.5c-0.9-2.8-1.5-5.7-2.2-8.6c-1.1-4.9-4.2-8.5-10.1-8.1
		C385.2,402.5,383.1,402.4,380.7,402.4z M380.9,395.6c3.2,0,6.2-0.1,9.3,0c7.3,0.2,9.4-4.9,8.3-10.7c-0.5-2.6-2.1-4.1-4.4-4.3
		c-4.3-0.4-8.7-0.5-13.2-0.7C380.9,385.4,380.9,390.4,380.9,395.6z"/>
	<path class="st6" d="M354.4,393.7c-1-3.2-1.5-6-2.7-8.6c-1.8-4-5.2-5.8-9.5-5.8c-4.4,0-7.9,1.7-9.8,5.8c-3.5,7.4-3.4,15.1-0.5,22.6
		c2.5,6.3,11.5,8.4,17.7,4.5c2.4-1.5,3.7-3.7,4.6-6.2c0.5-1.5,1.1-1.8,2.5-1.2c2.3,0.8,4.6,1.3,7.1,1.9c-1,5.5-3.9,9.8-8.4,12.6
		c-9.2,5.7-18.5,5.2-27.5-0.8c-3.2-2.1-5-5.4-6.3-8.8c-3.3-8.9-3.1-18,0.5-26.8c2.7-6.4,7.9-10.1,14.6-11.4c5.6-1.1,11.2-0.7,16.4,2
		c5.9,3,8.9,8.1,10,14.4c0.7,4.1,0.5,4.2-3.6,5C357.7,393.1,355.9,393.4,354.4,393.7z"/>
	<g>
		<path class="st7" d="M406,639.1c-2,0.7-3.3-1.4-4.7-4.3c-6.7-13.8-13.6-27.4-20.4-41.1c-4-8-7.9-16-12-24c-0.7-1.4-0.6-2.5,0-3.8
			c2.3-4.7,4.7-9.3,7-14c3.6-7.3,7.2-14.7,10.8-22c3.1-6.2,6.2-12.3,9.4-18.5c2.2-4.4,4.5-8.7,6.6-13.1c0.7-1.4,1.5-1.7,2.9-1.8
			c9.4-0.8,18.5-2.6,27.3-6c12-4.6,22.9-10.8,32.2-19.6c9.1-8.5,16.7-18.2,22.1-29.6c3.9-8.1,6.6-16.4,8.4-25.1
			c0.5-2.5,0.8-5,1.1-7.5c0.1-1.3,0.5-1.6,1.8-1c8.7,4.4,17.3,8.8,26,13.2c8.2,4.1,16.4,8.2,24.5,12.3c6,3,12.1,6.1,18.2,9
			c0.8,0.4,2.1,0,2.9-0.4c6-3,11.9-6.1,17.9-9.1c6.4-3.2,12.9-6.4,19.3-9.5c10-4.9,19.9-9.9,29.9-14.8c1.5-0.8,2.2-0.3,2,1.3
			c-0.3,3.6-0.6,7.3-1,10.9c-0.7,5.8-1.3,11.5-2.3,17.2c-1.1,6.2-2.3,12.4-3.9,18.4c-2,7.8-4,15.7-6.8,23.3
			c-3,8.3-6.6,16.3-10.5,24.2c-4.1,8.2-8.5,16.4-13.3,24.2c-4,6.5-8.7,12.7-13.5,18.7c-5.2,6.5-10.5,13-16.4,18.8
			c-7.4,7.3-15.3,14.2-23.2,21c-9.9,8.5-21,15.3-32.3,21.9c-5.8,3.4-11.9,6.2-18,8.9c-6.9,3.1-13.8,5.9-20.9,8.5
			c-4.9,1.8-10,3.2-15,4.5c-6.4,1.7-12.9,3.2-19.4,4.5c-4.9,1-9.8,1.5-14.8,2.1C421.2,637.7,414.4,638.3,406,639.1z M489,515.5
			L489,515.5c-7.8,0-15.6,0-23.4,0c-1,0-2.2,0-3.1,0.4c-2.2,0.8-4.2,2-4.4,4.7c-0.2,2.7-0.4,5.4-0.4,8.2c-0.1,8.1-0.1,16.3,0,24.4
			c0,5,2.3,7.3,7.1,7.4c1.4,0.1,1.9,0.5,1.9,1.9c0,2.6-0.1,5.2,0.2,7.8c0.3,2.3,1.9,2.8,3.5,1.1c3-3,5.9-5.9,8.9-8.9
			c1.2-1.2,2.5-1.9,4.3-1.8c10.2,0.1,20.3-0.1,30.5,0.1c4.3,0.1,7-3.1,6.9-6.8c-0.2-5.2,0-10.4,0-15.6c0-5.8-0.1-11.6-0.2-17.5
			c0-2.2-2.3-4.8-4.4-5c-1.6-0.2-3.2-0.3-4.8-0.3C504,515.5,496.5,515.5,489,515.5z M520.5,497.9c0,0.1,0,0.2,0,0.3
			c-9.1,0-18.2-0.1-27.3,0c-3.1,0-5.1,2-5.6,5.2c-0.2,1.9-0.2,3.8-0.3,5.6c-0.1,2.9,0.6,3.6,3.5,3.6c7.9,0,15.9,0.1,23.8,0
			c5-0.1,9.5,4.5,9.3,9.3c-0.2,6.1-0.1,12.2,0,18.3c0,2.6,1,3.6,3.5,3c1.6-0.3,2.7,0,3.8,1.1c3.2,3.2,6.5,6.4,9.8,9.5
			c0.6,0.5,1.7,1.1,2.3,0.9c0.6-0.2,1.2-1.4,1.2-2.1c0.2-2.4,0.2-4.8,0.2-7.1c0-1.4,0.5-2,1.9-2.1c4.1-0.3,6.8-2.8,6.9-6.8
			c0.1-10.6,0.1-21.2,0-31.8c0-3.2-2.4-6.1-5-6.5c-1.7-0.2-3.3-0.4-5-0.4C535.8,497.8,528.1,497.9,520.5,497.9z"/>
	</g>
</g>
</svg>
