<?xml version="1.0" encoding="utf-8"?>
<!-- Generator: Adobe Illustrator 24.1.2, SVG Export Plug-In . SVG Version: 6.00 Build 0)  -->
<svg version="1.1" id="Layer_1" xmlns="http://www.w3.org/2000/svg" xmlns:xlink="http://www.w3.org/1999/xlink" x="0px" y="0px"
	 viewBox="0 0 800 800" style="enable-background:new 0 0 800 800;" xml:space="preserve">
<style type="text/css">
	.st0{fill:#333333;}
	.st1{clip-path:url(#SVGID_2_);}
	.st2{fill:#1D1D1B;}
	.st3{fill:#20AA62;}
	.st4{fill:#6F7172;}
	.st5{fill:#E24F36;}
	.st6{fill:#FCFBF1;}
	.st7{fill:#FEFDF3;}
	.st8{fill:#4C73B1;}
	.st9{fill:#20AA63;}
	.st10{fill:#707273;}
</style>
<g id="Layer_2_3_">
	<g id="Layer_2_4_">
		<g>
			<circle class="st0" cx="400" cy="400" r="400"/>
		</g>
	</g>
</g>
<g>
	<defs>
		<circle id="SVGID_1_" cx="400" cy="400" r="400"/>
	</defs>
	<clipPath id="SVGID_2_">
		<use xlink:href="#SVGID_1_"  style="overflow:visible;"/>
	</clipPath>
	<g class="st1">
		<g>
			<path class="st2" d="M895.9,839.8c-0.3-0.4,0-0.8-0.2-1.2c-0.1-0.4-0.1-0.8-0.2-1.2c-0.8-3.9-2.8-7.3-5.5-9.8
				c-0.3-0.3-0.7-0.7-1-1c-0.3-0.3-0.7-0.7-1-1c-0.3-0.3-0.7-0.7-1-1c-0.3-0.3-0.7-0.7-1-1c-0.3-0.3-0.7-0.7-1-1
				c-0.3-0.3-0.7-0.7-1-1c-0.3-0.3-0.7-0.7-1-1c-0.3-0.3-0.7-0.7-1-1c-0.3-0.3-0.7-0.7-1-1c-0.3-0.3-0.7-0.7-1-1
				c-0.3-0.3-0.7-0.7-1-1c-0.3-0.3-0.7-0.7-1-1c-0.3-0.3-0.7-0.7-1-1c-0.3-0.3-0.7-0.7-1-1c-0.3-0.3-0.7-0.7-1-1
				c-0.3-0.3-0.7-0.7-1-1c-0.3-0.3-0.7-0.7-1-1c-0.3-0.3-0.7-0.7-1-1c-0.3-0.3-0.7-0.7-1-1c-0.3-0.3-0.7-0.7-1-1
				c-0.3-0.3-0.7-0.7-1-1c-0.3-0.3-0.7-0.7-1-1c-0.3-0.3-0.7-0.7-1-1c-0.3-0.3-0.7-0.7-1-1c-0.3-0.3-0.7-0.7-1-1
				c-0.3-0.3-0.7-0.7-1-1c-0.3-0.3-0.7-0.7-1-1c-0.3-0.3-0.7-0.7-1-1c-0.3-0.3-0.7-0.7-1-1c-0.3-0.3-0.7-0.7-1-1
				c-0.3-0.3-0.7-0.7-1-1c-0.3-0.3-0.7-0.7-1-1c-0.3-0.3-0.7-0.7-1-1c-0.3-0.3-0.7-0.7-1-1c-0.3-0.3-0.7-0.7-1-1
				c-0.3-0.3-0.7-0.7-1-1c-0.3-0.3-0.7-0.7-1-1c-0.3-0.3-0.7-0.7-1-1c-0.3-0.3-0.7-0.7-1-1c-0.3-0.3-0.7-0.7-1-1
				c-0.3-0.3-0.7-0.7-1-1c-0.3-0.3-0.7-0.7-1-1c-0.3-0.3-0.7-0.7-1-1c-0.3-0.3-0.7-0.7-1-1c-0.3-0.3-0.7-0.7-1-1
				c-0.3-0.3-0.7-0.7-1-1c-0.3-0.3-0.7-0.7-1-1c-0.3-0.3-0.7-0.7-1-1c-0.3-0.3-0.7-0.7-1-1c-0.3-0.3-0.7-0.7-1-1
				c-0.3-0.3-0.7-0.7-1-1c-0.3-0.3-0.7-0.7-1-1c-0.3-0.3-0.7-0.7-1-1c-0.3-0.3-0.7-0.7-1-1c-0.3-0.3-0.7-0.7-1-1
				c-0.3-0.3-0.7-0.7-1-1c-0.3-0.3-0.7-0.7-1-1c-0.3-0.3-0.7-0.7-1-1c-0.3-0.3-0.7-0.7-1-1c-0.3-0.3-0.7-0.7-1-1
				c-0.3-0.3-0.7-0.7-1-1c-0.3-0.3-0.7-0.7-1-1c-0.3-0.3-0.7-0.7-1-1c-0.3-0.3-0.7-0.7-1-1c-0.3-0.3-0.7-0.7-1-1
				c-0.3-0.3-0.7-0.7-1-1c-0.3-0.3-0.7-0.7-1-1c-0.3-0.3-0.7-0.7-1-1c-0.3-0.3-0.7-0.7-1-1c-0.3-0.3-0.7-0.7-1-1
				c-0.3-0.3-0.7-0.7-1-1c-0.3-0.3-0.7-0.7-1-1c-0.2-0.2-0.4-0.4-0.6-0.6c0-84.3,0-168.6,0-252.8c0-2.9-0.1-5.7-0.4-8.6
				c-1.5-12.3-6.6-22.9-14.9-31.9c-0.7-0.8-1.5-1.6-2.3-2.3c-0.3-0.3-0.7-0.7-1-1c-0.3-0.3-0.7-0.7-1-1c-0.3-0.3-0.7-0.7-1-1
				c-0.3-0.3-0.7-0.7-1-1c-0.3-0.3-0.7-0.7-1-1c-0.3-0.3-0.7-0.7-1-1c-0.3-0.3-0.7-0.7-1-1c-0.3-0.3-0.7-0.7-1-1
				c-0.3-0.3-0.7-0.7-1-1c-0.3-0.3-0.7-0.7-1-1c-0.3-0.3-0.7-0.7-1-1c-0.3-0.3-0.7-0.7-1-1c-0.3-0.3-0.7-0.7-1-1
				c-0.3-0.3-0.7-0.7-1-1c-0.3-0.3-0.7-0.7-1-1c-0.3-0.3-0.7-0.7-1-1c-0.3-0.3-0.7-0.7-1-1c-0.3-0.3-0.7-0.7-1-1
				c-0.3-0.3-0.7-0.7-1-1c-0.3-0.3-0.7-0.7-1-1c-0.3-0.3-0.7-0.7-1-1c-0.3-0.3-0.7-0.7-1-1c-0.3-0.3-0.7-0.7-1-1
				c-0.3-0.3-0.7-0.7-1-1c-0.3-0.3-0.7-0.7-1-1c-0.3-0.3-0.7-0.7-1-1c-0.3-0.3-0.7-0.7-1-1c-0.3-0.3-0.7-0.7-1-1
				c-0.3-0.3-0.7-0.7-1-1c-0.3-0.3-0.7-0.7-1-1c-0.3-0.3-0.7-0.7-1-1c-0.3-0.3-0.7-0.7-1-1c-0.3-0.3-0.7-0.7-1-1
				c-0.3-0.3-0.7-0.7-1-1c-0.3-0.3-0.7-0.7-1-1c-0.3-0.3-0.7-0.7-1-1c-0.3-0.3-0.7-0.7-1-1c-0.3-0.3-0.7-0.7-1-1
				c-0.3-0.3-0.7-0.7-1-1c-0.3-0.3-0.7-0.7-1-1c-0.3-0.3-0.7-0.7-1-1c-0.3-0.3-0.7-0.7-1-1c-0.3-0.3-0.7-0.7-1-1
				c-0.3-0.3-0.7-0.7-1-1c-0.3-0.3-0.7-0.7-1-1c-0.3-0.3-0.7-0.7-1-1c-0.3-0.3-0.7-0.7-1-1c-0.3-0.3-0.7-0.7-1-1
				c-0.3-0.3-0.7-0.7-1-1c-0.3-0.3-0.7-0.7-1-1c-0.3-0.3-0.7-0.7-1-1c-0.3-0.3-0.7-0.7-1-1c-0.3-0.3-0.7-0.7-1-1
				c-0.3-0.3-0.7-0.7-1-1c-0.3-0.3-0.7-0.7-1-1c-0.3-0.3-0.7-0.7-1-1c-0.3-0.3-0.7-0.7-1-1c-0.3-0.3-0.7-0.7-1-1
				c-0.3-0.3-0.7-0.7-1-1c-0.3-0.3-0.7-0.7-1-1c-0.3-0.3-0.7-0.7-1-1c-0.3-0.3-0.7-0.7-1-1c-0.3-0.3-0.7-0.7-1-1
				c-0.3-0.3-0.7-0.7-1-1c-0.3-0.3-0.7-0.7-1-1c-0.3-0.3-0.7-0.7-1-1c-0.3-0.3-0.7-0.7-1-1c-0.3-0.3-0.7-0.7-1-1
				c-0.3-0.3-0.7-0.7-1-1c-0.3-0.3-0.7-0.7-1-1c-0.3-0.3-0.7-0.7-1-1c-0.3-0.3-0.7-0.7-1-1c-0.3-0.3-0.7-0.7-1-1
				c-0.3-0.3-0.7-0.7-1-1c-0.3-0.3-0.7-0.7-1-1c-0.3-0.3-0.7-0.7-1-1c-0.3-0.3-0.7-0.7-1-1c-0.3-0.3-0.7-0.7-1-1
				c-0.3-0.3-0.7-0.7-1-1c-0.3-0.3-0.7-0.7-1-1c-0.3-0.3-0.7-0.7-1-1c-0.3-0.3-0.7-0.7-1-1c-0.3-0.3-0.7-0.7-1-1
				c-0.3-0.3-0.7-0.7-1-1c-0.3-0.3-0.7-0.7-1-1c-0.3-0.3-0.7-0.7-1-1c-0.3-0.3-0.7-0.7-1-1c-0.3-0.3-0.7-0.7-1-1
				c-0.3-0.3-0.7-0.7-1-1c-0.3-0.3-0.7-0.7-1-1c-0.3-0.3-0.7-0.7-1-1c-0.3-0.3-0.7-0.7-1-1c-0.3-0.3-0.7-0.7-1-1
				c-0.3-0.3-0.7-0.7-1-1c-0.3-0.3-0.7-0.7-1-1c-0.3-0.3-0.7-0.7-1-1c-0.3-0.3-0.7-0.7-1-1c-0.3-0.3-0.7-0.7-1-1
				c-0.3-0.3-0.7-0.7-1-1c-0.3-0.3-0.7-0.7-1-1c-0.3-0.3-0.7-0.7-1-1c-0.3-0.3-0.7-0.7-1-1c-0.3-0.3-0.7-0.7-1-1
				c-0.3-0.3-0.7-0.7-1-1c-0.3-0.3-0.7-0.7-1-1c-0.3-0.3-0.7-0.7-1-1c-0.3-0.3-0.7-0.7-1-1c-0.3-0.3-0.7-0.7-1-1
				c-0.3-0.3-0.7-0.7-1-1c-0.3-0.3-0.7-0.7-1-1c-0.3-0.3-0.7-0.7-1-1c-0.3-0.3-0.7-0.7-1-1c-0.3-0.3-0.7-0.7-1-1
				c-0.3-0.3-0.7-0.7-1-1c-0.3-0.3-0.7-0.7-1-1c-0.3-0.3-0.7-0.7-1-1c-0.3-0.3-0.7-0.7-1-1c-0.3-0.3-0.7-0.7-1-1
				c-0.3-0.3-0.7-0.7-1-1c-0.3-0.3-0.7-0.7-1-1c-0.3-0.3-0.7-0.7-1-1c-0.3-0.3-0.7-0.7-1-1c-0.3-0.3-0.7-0.7-1-1
				c-0.3-0.3-0.7-0.7-1-1c-0.3-0.3-0.7-0.7-1-1c-0.3-0.3-0.7-0.7-1-1c-0.3-0.3-0.7-0.7-1-1c-0.3-0.3-0.7-0.7-1-1
				c-0.3-0.3-0.7-0.7-1-1c-0.3-0.3-0.7-0.7-1-1c-0.3-0.3-0.7-0.7-1-1c-0.3-0.3-0.7-0.7-1-1c-0.3-0.3-0.7-0.7-1-1
				c-0.3-0.3-0.7-0.7-1-1c-0.3-0.3-0.7-0.7-1-1c-0.3-0.3-0.7-0.7-1-1c-0.3-0.3-0.7-0.7-1-1c-0.3-0.3-0.7-0.7-1-1
				c-0.3-0.3-0.7-0.7-1-1c-0.3-0.3-0.7-0.7-1-1c-0.3-0.3-0.7-0.7-1-1c-0.3-0.3-0.7-0.7-1-1c-0.3-0.3-0.7-0.7-1-1
				c-0.3-0.3-0.7-0.7-1-1c-0.3-0.3-0.7-0.7-1-1c-0.3-0.3-0.7-0.7-1-1c-0.3-0.3-0.7-0.7-1-1c-0.3-0.3-0.7-0.7-1-1
				c-0.3-0.3-0.7-0.7-1-1c-0.3-0.3-0.7-0.7-1-1c-0.3-0.3-0.7-0.7-1-1c-0.3-0.3-0.7-0.7-1-1c-0.3-0.3-0.7-0.7-1-1
				c-0.3-0.3-0.7-0.7-1-1c-0.3-0.3-0.7-0.7-1-1c-0.3-0.3-0.7-0.7-1-1c-0.3-0.3-0.7-0.7-1-1c-0.3-0.3-0.7-0.7-1-1
				c-0.3-0.3-0.7-0.7-1-1c-0.3-0.3-0.7-0.7-1-1c-0.3-0.3-0.7-0.7-1-1c-0.3-0.3-0.7-0.7-1-1c-0.3-0.3-0.7-0.7-1-1
				c-0.3-0.3-0.7-0.7-1-1c-0.3-0.3-0.7-0.7-1-1c-0.3-0.3-0.7-0.7-1-1c-0.3-0.3-0.7-0.7-1-1c-0.3-0.3-0.7-0.7-1-1
				c-0.3-0.3-0.7-0.7-1-1c-0.3-0.3-0.7-0.7-1-1c-0.3-0.3-0.7-0.7-1-1c-0.3-0.3-0.7-0.7-1-1c-0.3-0.3-0.7-0.7-1-1
				c-0.3-0.3-0.7-0.7-1-1c-0.3-0.3-0.7-0.7-1-1c-0.3-0.3-0.7-0.7-1-1c-0.3-0.3-0.7-0.7-1-1c-0.3-0.3-0.7-0.7-1-1
				c-0.3-0.3-0.7-0.7-1-1c-0.3-0.3-0.7-0.7-1-1c-0.3-0.3-0.7-0.7-1-1c-0.3-0.3-0.7-0.7-1-1c-0.3-0.3-0.7-0.7-1-1
				c-0.3-0.3-0.7-0.7-1-1c-0.3-0.3-0.7-0.7-1-1c-0.3-0.3-0.7-0.7-1-1c-0.3-0.3-0.7-0.7-1-1c-0.3-0.3-0.7-0.7-1-1
				c-0.3-0.3-0.7-0.7-1-1c-0.3-0.3-0.7-0.7-1-1c-0.3-0.3-0.7-0.7-1-1c-0.3-0.3-0.7-0.7-1-1c-0.3-0.3-0.7-0.7-1-1
				c-0.3-0.3-0.7-0.7-1-1c-0.3-0.3-0.7-0.7-1-1c-0.3-0.3-0.7-0.7-1-1c-0.3-0.3-0.7-0.7-1-1c-0.3-0.3-0.7-0.7-1-1
				c-0.3-0.3-0.7-0.7-1-1c-0.3-0.3-0.7-0.7-1-1c-0.3-0.3-0.7-0.7-1-1c-0.3-0.3-0.7-0.7-1-1c-0.3-0.3-0.7-0.7-1-1
				c-0.3-0.3-0.7-0.7-1-1c-0.3-0.3-0.7-0.7-1-1c-0.3-0.3-0.7-0.7-1-1c-0.3-0.3-0.7-0.7-1-1c-0.3-0.3-0.7-0.7-1-1
				c-0.3-0.3-0.7-0.7-1-1c-0.3-0.3-0.7-0.7-1-1c-0.3-0.3-0.7-0.7-1-1c-0.3-0.3-0.7-0.7-1-1c-0.3-0.3-0.7-0.7-1-1
				c-0.3-0.3-0.7-0.7-1-1c-0.3-0.3-0.7-0.7-1-1c-0.3-0.3-0.7-0.7-1-1c-0.3-0.3-0.7-0.7-1-1c-0.3-0.3-0.7-0.7-1-1
				c-0.3-0.3-0.7-0.7-1-1c-0.3-0.3-0.7-0.7-1-1c-0.3-0.3-0.7-0.7-1-1c-0.3-0.3-0.7-0.7-1-1c-0.3-0.3-0.7-0.7-1-1
				c-0.3-0.3-0.7-0.7-1-1c-0.3-0.3-0.7-0.7-1-1c-0.3-0.3-0.7-0.7-1-1c-0.3-0.3-0.7-0.7-1-1c-0.3-0.3-0.7-0.7-1-1
				c-0.3-0.3-0.7-0.7-1-1c-0.3-0.3-0.7-0.7-1-1c-0.3-0.3-0.7-0.7-1-1c-0.3-0.3-0.7-0.7-1-1c-0.3-0.3-0.7-0.7-1-1
				c-0.3-0.3-0.7-0.7-1-1c-0.3-0.3-0.7-0.7-1-1c-0.3-0.3-0.7-0.7-1-1c-0.3-0.3-0.7-0.7-1-1c-0.3-0.3-0.7-0.7-1-1
				c-0.3-0.3-0.7-0.7-1-1c-0.3-0.3-0.7-0.7-1-1c-0.3-0.3-0.7-0.7-1-1c-0.3-0.3-0.7-0.7-1-1c-0.3-0.3-0.7-0.7-1-1
				c-0.3-0.3-0.7-0.7-1-1c-0.3-0.3-0.7-0.7-1-1c-0.3-0.3-0.7-0.7-1-1c-0.3-0.3-0.7-0.7-1-1c-0.3-0.3-0.7-0.7-1-1
				c-0.3-0.3-0.7-0.7-1-1c-0.3-0.3-0.7-0.7-1-1c-0.3-0.3-0.7-0.7-1-1c-0.3-0.3-0.7-0.7-1-1c-0.3-0.3-0.7-0.7-1-1
				c-0.3-0.3-0.7-0.7-1-1c-0.3-0.3-0.7-0.7-1-1c-0.3-0.3-0.7-0.7-1-1c-0.3-0.3-0.7-0.7-1-1c-0.3-0.3-0.7-0.7-1-1
				c-0.3-0.3-0.7-0.7-1-1c-0.3-0.3-0.7-0.7-1-1c-0.3-0.3-0.7-0.7-1-1c-0.3-0.3-0.7-0.7-1-1c-0.3-0.3-0.7-0.7-1-1
				c-0.3-0.3-0.7-0.7-1-1c-0.3-0.3-0.7-0.7-1-1c-0.3-0.3-0.7-0.7-1-1c-0.3-0.3-0.7-0.7-1-1c-0.3-0.3-0.7-0.7-1-1
				c-0.3-0.3-0.7-0.7-1-1c-0.3-0.3-0.7-0.7-1-1c-0.3-0.3-0.7-0.7-1-1c-0.3-0.3-0.7-0.7-1-1c-0.3-0.3-0.7-0.7-1-1
				c-0.3-0.3-0.7-0.7-1-1c-0.3-0.3-0.7-0.7-1-1c-0.3-0.3-0.7-0.7-1-1c-0.3-0.3-0.7-0.7-1-1c-0.3-0.3-0.7-0.7-1-1
				c-0.3-0.3-0.7-0.7-1-1c-0.3-0.3-0.7-0.7-1-1c-0.3-0.3-0.7-0.7-1-1c-0.3-0.3-0.7-0.7-1-1c-0.3-0.3-0.7-0.7-1-1
				c-4.8-4.9-10.4-8.8-16.7-11.7c-6.1-2.8-12.4-4.6-19.2-4.5c-0.4,0-0.8,0-1.2,0c-0.6-0.1-1.1,0.1-1.7-0.1c-78.4,0-156.9,0-235.3,0
				c-0.5,0.2-1.1,0.1-1.6,0.1c-0.4,0-0.7,0-1.1,0c-2.4,0.1-4.7,0.1-7,0.5c-10.4,2.1-19.4,6.8-27.2,13.9c-5.6,5.1-10,11.2-13.2,18.2
				c-2.8,6.1-4.6,12.5-4.5,19.4c0,0.4,0,0.7,0,1.1c-0.1,0.5,0.1,1.1-0.1,1.6c0,107.8,0,215.6,0,323.4c0.2,0.5,0.1,1,0.1,1.5
				c0,0.5,0,0.9,0,1.4c0.1,3.1,0.2,6.3,1.1,9.4c2.8,10.5,7.9,19.5,15.6,26.9c0.3,0.3,0.7,0.7,1,1c0.3,0.3,0.7,0.7,1,1
				c0.3,0.3,0.7,0.7,1,1c0.3,0.3,0.7,0.7,1,1c0.3,0.3,0.7,0.7,1,1c0.3,0.3,0.7,0.7,1,1c0.3,0.3,0.7,0.7,1,1c0.3,0.3,0.7,0.7,1,1
				c0.3,0.3,0.7,0.7,1,1c0.3,0.3,0.7,0.7,1,1c0.3,0.3,0.7,0.7,1,1c0.3,0.3,0.7,0.7,1,1c0.3,0.3,0.7,0.7,1,1c0.3,0.3,0.7,0.7,1,1
				c0.3,0.3,0.7,0.7,1,1c0.3,0.3,0.7,0.7,1,1c0.3,0.3,0.7,0.7,1,1c0.3,0.3,0.7,0.7,1,1c0.3,0.3,0.7,0.7,1,1c0.3,0.3,0.7,0.7,1,1
				c0.3,0.3,0.7,0.7,1,1c0.3,0.3,0.7,0.7,1,1c0.3,0.3,0.7,0.7,1,1c0.3,0.3,0.7,0.7,1,1c0.3,0.3,0.7,0.7,1,1c0.3,0.3,0.7,0.7,1,1
				c0.3,0.3,0.7,0.7,1,1c0.3,0.3,0.7,0.7,1,1c0.3,0.3,0.7,0.7,1,1c0.3,0.3,0.7,0.7,1,1c0.3,0.3,0.7,0.7,1,1c0.3,0.3,0.7,0.7,1,1
				c0.3,0.3,0.7,0.7,1,1c0.3,0.3,0.7,0.7,1,1c0.3,0.3,0.7,0.7,1,1c0.3,0.3,0.7,0.7,1,1c0.3,0.3,0.7,0.7,1,1c0.3,0.3,0.7,0.7,1,1
				c0.3,0.3,0.7,0.7,1,1c0.3,0.3,0.7,0.7,1,1c0.3,0.3,0.7,0.7,1,1c0.3,0.3,0.7,0.7,1,1c0.3,0.3,0.7,0.7,1,1c0.3,0.3,0.7,0.7,1,1
				c0.3,0.3,0.7,0.7,1,1c0.3,0.3,0.7,0.7,1,1c0.3,0.3,0.7,0.7,1,1c0.3,0.3,0.7,0.7,1,1c0.3,0.3,0.7,0.7,1,1c0.3,0.3,0.7,0.7,1,1
				c0.3,0.3,0.7,0.7,1,1c0.3,0.3,0.7,0.7,1,1c0.3,0.3,0.7,0.7,1,1c0.3,0.3,0.7,0.7,1,1c0.3,0.3,0.7,0.7,1,1c0.3,0.3,0.7,0.7,1,1
				c0.3,0.3,0.7,0.7,1,1c0.3,0.3,0.7,0.7,1,1c0.3,0.3,0.7,0.7,1,1c0.3,0.3,0.7,0.7,1,1c0.3,0.3,0.7,0.7,1,1c0.3,0.3,0.7,0.7,1,1
				c0.3,0.3,0.7,0.7,1,1c0.3,0.3,0.7,0.7,1,1c0.3,0.3,0.7,0.7,1,1c0.3,0.3,0.7,0.7,1,1c0.3,0.3,0.7,0.7,1,1c0.3,0.3,0.7,0.7,1,1
				c0.3,0.3,0.7,0.7,1,1c0.3,0.3,0.7,0.7,1,1c0.3,0.3,0.7,0.7,1,1c0.3,0.3,0.7,0.7,1,1c0.3,0.3,0.7,0.7,1,1c0.3,0.3,0.7,0.7,1,1
				c0.3,0.3,0.7,0.7,1,1c0.3,0.3,0.7,0.7,1,1c0.3,0.3,0.7,0.7,1,1c0.3,0.3,0.7,0.7,1,1c0.3,0.3,0.7,0.7,1,1c0.3,0.3,0.7,0.7,1,1
				c0.3,0.3,0.7,0.7,1,1c0.3,0.3,0.7,0.7,1,1c0.3,0.3,0.7,0.7,1,1c0.3,0.3,0.7,0.7,1,1c0.3,0.3,0.7,0.7,1,1c0.3,0.3,0.7,0.7,1,1
				c0.3,0.3,0.7,0.7,1,1c0.3,0.3,0.7,0.7,1,1c0.3,0.3,0.7,0.7,1,1c0.3,0.3,0.7,0.7,1,1c0.3,0.3,0.7,0.7,1,1c0.3,0.3,0.7,0.7,1,1
				c0.3,0.3,0.7,0.7,1,1c0.3,0.3,0.7,0.7,1,1c0.3,0.3,0.7,0.7,1,1c0.3,0.3,0.7,0.7,1,1c0.3,0.3,0.7,0.7,1,1c0.3,0.3,0.7,0.7,1,1
				c0.3,0.3,0.7,0.7,1,1c0.3,0.3,0.7,0.7,1,1c0.3,0.3,0.7,0.7,1,1c0.3,0.3,0.7,0.7,1,1c0.3,0.3,0.7,0.7,1,1c0.3,0.3,0.7,0.7,1,1
				c0.3,0.3,0.7,0.7,1,1c0.3,0.3,0.7,0.7,1,1c0.3,0.3,0.7,0.7,1,1c0.3,0.3,0.7,0.7,1,1c0.3,0.3,0.7,0.7,1,1c0.3,0.3,0.7,0.7,1,1
				c0.3,0.3,0.7,0.7,1,1c0.3,0.3,0.7,0.7,1,1c0.3,0.3,0.7,0.7,1,1c0.3,0.3,0.7,0.7,1,1c0.3,0.3,0.7,0.7,1,1c0.3,0.3,0.7,0.7,1,1
				c0.3,0.3,0.7,0.7,1,1c0.3,0.3,0.7,0.7,1,1c0.3,0.3,0.7,0.7,1,1c0.3,0.3,0.7,0.7,1,1c0.3,0.3,0.7,0.7,1,1c0.3,0.3,0.7,0.7,1,1
				c0.3,0.3,0.7,0.7,1,1c0.3,0.3,0.7,0.7,1,1c0.3,0.3,0.7,0.7,1,1c0.3,0.3,0.7,0.7,1,1c0.3,0.3,0.7,0.7,1,1c0.3,0.3,0.7,0.7,1,1
				c0.3,0.3,0.7,0.7,1,1c0.3,0.3,0.7,0.7,1,1c0.3,0.3,0.7,0.7,1,1c0.3,0.3,0.7,0.7,1,1c0.3,0.3,0.7,0.7,1,1c0.3,0.3,0.7,0.7,1,1
				c0.3,0.3,0.7,0.7,1,1c0.3,0.3,0.7,0.7,1,1c0.3,0.3,0.7,0.7,1,1c0.3,0.3,0.7,0.7,1,1c0.3,0.3,0.7,0.7,1,1c0.3,0.3,0.7,0.7,1,1
				c0.3,0.3,0.7,0.7,1,1c0.3,0.3,0.7,0.7,1,1c0.3,0.3,0.7,0.7,1,1c0.3,0.3,0.7,0.7,1,1c0.3,0.3,0.7,0.7,1,1c0.3,0.3,0.7,0.7,1,1
				c0.3,0.3,0.7,0.7,1,1c0.3,0.3,0.7,0.7,1,1c0.3,0.3,0.7,0.7,1,1c0.3,0.3,0.7,0.7,1,1c0.3,0.3,0.7,0.7,1,1c0.3,0.3,0.7,0.7,1,1
				c0.3,0.3,0.7,0.7,1,1c0.3,0.3,0.7,0.7,1,1c0.3,0.3,0.7,0.7,1,1c0.3,0.3,0.7,0.7,1,1c0.3,0.3,0.7,0.7,1,1c0.3,0.3,0.7,0.7,1,1
				c0.3,0.3,0.7,0.7,1,1c0.3,0.3,0.7,0.7,1,1c0.3,0.3,0.7,0.7,1,1c0.3,0.3,0.7,0.7,1,1c0.3,0.3,0.7,0.7,1,1c0.3,0.3,0.7,0.7,1,1
				c0.3,0.3,0.7,0.7,1,1c0.3,0.3,0.7,0.7,1,1c0.3,0.3,0.7,0.7,1,1c0.3,0.3,0.7,0.7,1,1c0.3,0.3,0.7,0.7,1,1c0.3,0.3,0.7,0.7,1,1
				c0.3,0.3,0.7,0.7,1,1c0.3,0.3,0.7,0.7,1,1c0.3,0.3,0.7,0.7,1,1c0.3,0.3,0.7,0.7,1,1c0.3,0.3,0.7,0.7,1,1c0.3,0.3,0.7,0.7,1,1
				c0.3,0.3,0.7,0.7,1,1c0.3,0.3,0.7,0.7,1,1c0.3,0.3,0.7,0.7,1,1c0.3,0.3,0.7,0.7,1,1c0.3,0.3,0.7,0.7,1,1c0.3,0.3,0.7,0.7,1,1
				c0.3,0.3,0.7,0.7,1,1c0.3,0.3,0.7,0.7,1,1c0.3,0.3,0.7,0.7,1,1c0.3,0.3,0.7,0.7,1,1c0.3,0.3,0.7,0.7,1,1c0.3,0.3,0.7,0.7,1,1
				c0.3,0.3,0.7,0.7,1,1c0.3,0.3,0.7,0.7,1,1c0.3,0.3,0.7,0.7,1,1c0.3,0.3,0.7,0.7,1,1c0.3,0.3,0.7,0.7,1,1c0.3,0.3,0.7,0.7,1,1
				c0.3,0.3,0.7,0.7,1,1c0.3,0.3,0.7,0.7,1,1c0.3,0.3,0.7,0.7,1,1c0.3,0.3,0.7,0.7,1,1c0.3,0.3,0.7,0.7,1,1c0.3,0.3,0.7,0.7,1,1
				c0.3,0.3,0.7,0.7,1,1c0.3,0.3,0.7,0.7,1,1c0.3,0.3,0.7,0.7,1,1c0.3,0.3,0.7,0.7,1,1c0.3,0.3,0.7,0.7,1,1c0.3,0.3,0.7,0.7,1,1
				c0.3,0.3,0.7,0.7,1,1c0.3,0.3,0.7,0.7,1,1c0.3,0.3,0.7,0.7,1,1c0.3,0.3,0.7,0.7,1,1c0.3,0.3,0.7,0.7,1,1c0.3,0.3,0.7,0.7,1,1
				c0.3,0.3,0.7,0.7,1,1c0.3,0.3,0.7,0.7,1,1c0.3,0.3,0.7,0.7,1,1c0.3,0.3,0.7,0.7,1,1c0.3,0.3,0.7,0.7,1,1c0.3,0.3,0.7,0.7,1,1
				c0.3,0.3,0.7,0.7,1,1c0.3,0.3,0.7,0.7,1,1c0.3,0.3,0.7,0.7,1,1c0.3,0.3,0.7,0.7,1,1c0.3,0.3,0.7,0.7,1,1c0.3,0.3,0.7,0.7,1,1
				c0.3,0.3,0.7,0.7,1,1c0.3,0.3,0.7,0.7,1,1c0.3,0.3,0.7,0.7,1,1c0.3,0.3,0.7,0.7,1,1c0.3,0.3,0.7,0.7,1,1c0.3,0.3,0.7,0.7,1,1
				c0.3,0.3,0.7,0.7,1,1c0.3,0.3,0.7,0.7,1,1c0.3,0.3,0.7,0.7,1,1c0.3,0.3,0.7,0.7,1,1c0.3,0.3,0.7,0.7,1,1c0.3,0.3,0.7,0.7,1,1
				c0.3,0.3,0.7,0.7,1,1c0.3,0.3,0.7,0.7,1,1c0.3,0.3,0.7,0.7,1,1c0.3,0.3,0.7,0.7,1,1c0.3,0.3,0.7,0.7,1,1c0.3,0.3,0.7,0.7,1,1
				c0.3,0.3,0.7,0.7,1,1c0.3,0.3,0.7,0.7,1,1c0.3,0.3,0.7,0.7,1,1c0.3,0.3,0.7,0.7,1,1c0.3,0.3,0.7,0.7,1,1c0.3,0.3,0.7,0.7,1,1
				c0.3,0.3,0.7,0.7,1,1c0.3,0.3,0.7,0.7,1,1c0.3,0.3,0.7,0.7,1,1c0.3,0.3,0.7,0.7,1,1c0.3,0.3,0.7,0.7,1,1c0.3,0.3,0.7,0.7,1,1
				c0.3,0.3,0.7,0.7,1,1c0.3,0.3,0.7,0.7,1,1c0.3,0.3,0.7,0.7,1,1c0.3,0.3,0.7,0.7,1,1c0.3,0.3,0.7,0.7,1,1c0.3,0.3,0.7,0.7,1,1
				c0.3,0.3,0.7,0.7,1,1c0.3,0.3,0.7,0.7,1,1c0.3,0.3,0.7,0.7,1,1c0.3,0.3,0.7,0.7,1,1c0.3,0.3,0.7,0.7,1,1c0.3,0.3,0.7,0.7,1,1
				c0.3,0.3,0.7,0.7,1,1c0.3,0.3,0.7,0.7,1,1c0.3,0.3,0.7,0.7,1,1c0.3,0.3,0.7,0.7,1,1c0.3,0.3,0.7,0.7,1,1c0.3,0.3,0.7,0.7,1,1
				c0.3,0.3,0.7,0.7,1,1c0.3,0.3,0.7,0.7,1,1c0.3,0.3,0.7,0.7,1,1c0.3,0.3,0.7,0.7,1,1c0.3,0.3,0.7,0.7,1,1c0.3,0.3,0.7,0.7,1,1
				c0.3,0.3,0.7,0.7,1,1c0.3,0.3,0.7,0.7,1,1c0.3,0.3,0.7,0.7,1,1c0.3,0.3,0.7,0.7,1,1c0.3,0.3,0.7,0.7,1,1c1.3,1.4,2.8,2.7,4.3,3.9
				c10.4,8.7,22.4,13.2,36,13.2c64,0.1,128.1,0,192.1,0c0.3,0.3,0.5,0.5,0.8,0.8c0.3,0.3,0.7,0.7,1,1c0.3,0.3,0.7,0.7,1,1
				c0.3,0.3,0.7,0.7,1,1c0.3,0.3,0.7,0.7,1,1c0.3,0.3,0.7,0.7,1,1c0.3,0.3,0.7,0.7,1,1c0.3,0.3,0.7,0.7,1,1c0.3,0.3,0.7,0.7,1,1
				c0.3,0.3,0.7,0.7,1,1c0.3,0.3,0.7,0.7,1,1c0.3,0.3,0.7,0.7,1,1c0.3,0.3,0.7,0.7,1,1c0.3,0.3,0.7,0.7,1,1c0.3,0.3,0.7,0.7,1,1
				c0.3,0.3,0.7,0.7,1,1c0.3,0.3,0.7,0.7,1,1c0.3,0.3,0.7,0.7,1,1c0.3,0.3,0.7,0.7,1,1c0.3,0.3,0.7,0.7,1,1c0.3,0.3,0.7,0.7,1,1
				c0.3,0.3,0.7,0.7,1,1c0.3,0.3,0.7,0.7,1,1c0.3,0.3,0.7,0.7,1,1c0.3,0.3,0.7,0.7,1,1c0.3,0.3,0.7,0.7,1,1c0.3,0.3,0.7,0.7,1,1
				c0.3,0.3,0.7,0.7,1,1c0.3,0.3,0.7,0.7,1,1c0.3,0.3,0.7,0.7,1,1c0.3,0.3,0.7,0.7,1,1c3.3,3.6,8.1,5.8,13.4,5.8
				c25.6,0,51.2,0,76.8,0c0.8-0.3,0.6-1.1,0.8-1.6c0.8-3.3,2.3-5.8,4.6-7.7c0.2,0.1,0.4,0.1,0.6,0.1c0,0.1,0,0.2,0,0.3
				c0.1,0.6,0.6,0.6,1,0.7c0,0.1,0,0.2,0,0.3c0.1,0.6,0.6,0.6,1,0.7c0,0.1,0,0.2,0,0.3c0.1,0.6,0.6,0.6,1.1,0.7
				c0.2,0,0.3,0.1,0.5,0.1c0.1,0.2,0.3,0.4,0.6,0.5c0,0,0.1,0,0.1,0c0.1,0.4,0.3,0.9,0.9,1c0,0,0.1,0,0.1,0c0.1,0.4,0.3,0.9,0.9,1
				c0,0,0.1,0,0.1,0c0.1,0.4,0.3,0.9,0.9,1c0,0,0.1,0,0.1,0c0.1,0.4,0.3,0.9,0.9,1c0,0,0.1,0,0.1,0c0.1,0.4,0.3,0.9,0.9,1
				c0,0,0.1,0,0.1,0c0.1,0.4,0.3,0.9,0.9,1c1.2,0.3,2.4,0.3,3.5,0c0.9-0.4,0.7-1.4,0.9-2.1c0.8-3.2,2.3-5.7,4.5-7.6
				c0.1,0.1,0.3,0.1,0.4,0.1c0,0,0.1,0,0.1,0c0,0.1,0,0.2,0,0.4c0.1,0.4,0.5,0.5,0.9,0.6c0,0,0.1,0,0.1,0c0,0.1,0,0.2,0,0.4
				c0.1,0.4,0.5,0.5,0.9,0.6c0,0,0.1,0,0.1,0c0,0.1,0,0.2,0,0.4c0.1,0.4,0.5,0.5,0.9,0.6c0.1,0,0.3,0.1,0.4,0.1c0.1,0,0.2,0,0.2,0.1
				c0.1,0.1,0.2,0.3,0.4,0.4c0.1,0.1,0.3,0.1,0.4,0.2c0.1,0.3,0.2,0.6,0.6,0.8c0.1,0.1,0.3,0.1,0.4,0.2c0.1,0.3,0.2,0.6,0.6,0.8
				c0.1,0.1,0.3,0.1,0.4,0.2c0.1,0.3,0.2,0.6,0.6,0.8c0.1,0.1,0.3,0.1,0.4,0.2c0.1,0.3,0.2,0.6,0.6,0.8c0.1,0.1,0.3,0.1,0.4,0.2
				c0.1,0.3,0.2,0.6,0.6,0.8c0.1,0.1,0.3,0.1,0.4,0.2c0.1,0.3,0.2,0.6,0.6,0.8c0.5,0.2,1.1,0.3,1.7,0.3c5.4-0.2,10-2.3,13.6-6.4
				c2.5-2.8,4.1-6,4-9.9c0.1-0.4-0.1-0.8,0.1-1.2C895.9,877.9,895.9,858.9,895.9,839.8z"/>
		</g>
	</g>
</g>
<g>
	<path class="st3" d="M188.1,538.7c0-108.6,0-217.3,0-325.9c0.2-2,0.2-4,0.4-6c0.3-3.4,1.3-6.6,2.5-9.8c2.1-6,5.3-11.4,9.3-16.4
		c4.4-5.5,9.7-9.9,15.7-13.5c5.2-3,10.7-5.1,16.5-6.4c2.3-0.5,4.7-0.5,7.1-0.6c0.4,0,0.9,0.1,1.3-0.1c79.4,0,158.8,0,238.2,0
		c2,0.2,3.9,0.2,5.9,0.4c3.6,0.3,7,1.4,10.3,2.6c5.9,2.2,11.4,5.3,16.2,9.3c9,7.5,15.2,16.8,18.6,28.1c1.6,5.4,2.3,11,2.3,16.7
		c0,103.9,0,207.7,0,311.6c0,1.1,0.2,2.3-0.4,3.3c-0.4,0.4-0.9,0.3-1.4,0.3c-5.5,0-11,0-16.5,0c-0.4,0-0.8,0-1.1-0.2
		c-0.7-0.2-0.8-0.7-0.8-1.3c-0.1-1.9-0.7-3.5-1.9-5c-2.1-2.6-5-3.4-8-2c-1.2,0.5-2.2,1.3-3.1,2.1c-0.5,0.4-0.9,0.7-1.4,0
		c-0.3-1-0.2-2-0.2-3c0-47.1,0-94.3,0-141.4c0-54.7,0-109.4,0-164.1c0-6.1-1.8-11.4-5.9-15.9c-3.5-3.8-8-6.1-13.1-6.9
		c-1.2-0.2-2.3-0.2-3.5-0.2c-76.7,0-153.4,0-230.1,0c-6,0-11.3,2-15.7,6.1c-3.7,3.5-5.8,7.8-6.6,12.8c-0.2,1.2-0.2,2.5-0.2,3.7
		c0,105.8,0,211.6,0,317.5c0,6,2,11.3,6,15.7c3.5,3.8,7.9,5.9,13,6.7c1.3,0.2,2.7,0.2,4,0.2c69.1,0,138.2,0,207.3,0
		c1.1,0,2.2-0.2,3.2,0.4c0.6,0.7,0.4,1.5,0.4,2.3c0,9.7,0,19.4,0,29.1c0,0.5,0,1,0,1.5c0,0.4,0,0.8-0.2,1.2c-0.4,0.4-1,0.5-1.6,0.5
		c-0.8,0-1.6,0-2.4,0c-69.2,0-138.3,0-207.5,0c-13.8,0-26-4.3-36.6-13.1c-10.1-8.4-16.5-19-19.3-31.9c-0.5-2.3-0.5-4.7-0.6-7
		C188.1,539.6,188.3,539.2,188.1,538.7z"/>
	<path class="st4" d="M550.5,622.6c-25.5,0-50.9,0-76.4,0c-8.9,0-16.1-5.9-17.9-14.6c-0.2-1.2-0.3-2.4-0.3-3.6c0-4.3,0-8.6,0-13
		c0-11.3,0-22.6,0-33.8c-0.3-0.3-0.5-0.6-0.5-1c0.1-3.6-0.4-7.1,0.4-10.7c1.5-7.5,7.7-13.4,15.2-14.6c2.1-0.3,4.2-0.5,6.4,0
		c0.5,0.2,0.5,0.7,0.6,1.1c0.8,3.4,2.8,5.5,6.2,6.2c0.1,0,0.2,0.1,0.3,0.1c0.4,0.1,0.8,0.2,0.8,0.6c0.1,0.5-0.2,0.8-0.5,1
		c-1.5,0.9-3,1.6-4.8,1.7c-0.2,0-0.4,0-0.6,0c-0.8,0-1.6,0-1.7,1.1c-0.1,0.8,0.6,1.7,1.5,1.8c0.9,0.1,1.9,0.2,2.8-0.1
		c5.5-1.6,9.2-5.1,10.4-10.8c0.1-0.6,0.1-1.1,0.2-1.7c0-0.5,0.1-0.9,0.6-1.1c1.2-0.3,2.4-0.3,3.6,0c0.5,0.1,0.6,0.6,0.7,1
		c0.7,3.5,2.9,5.7,6.4,6.4c0.4,0.1,0.9,0.2,1,0.7c0.1,0.6-0.3,0.9-0.8,1.1c-1.6,0.9-3.2,1.6-5.1,1.5c-0.8,0-1.6,0-1.7,1
		c-0.1,0.9,0.7,1.8,1.7,1.9c1.5,0.2,2.9-0.1,4.3-0.7c5.3-2.1,8.3-6,8.9-11.7c0.1-0.4,0-0.9,0.6-1.1c6.4,0,12.7,0,19.1,0
		c0.5,0,0.9,0,1.4,0c17.8,0,35.6,0,53.3,0c9.6,0,16.8,6.1,18.4,15.6c0,0.1,0.1,0.3,0.2,0.4c0,19.6,0,39.2,0,58.9
		c-0.2,0.6-0.2,1.2-0.2,1.8c-0.1,3.1-1.5,5.5-3.4,7.8c-3.2,4-7.4,6.2-12.5,6.9c-1.1,0.1-2.2,0.2-3.2-0.2c-0.4-0.3-0.5-0.7-0.7-1.1
		c-1-2.9-3-4.7-6-5.3c-0.5-0.1-1.1-0.1-1.2-0.8c-0.1-0.6,0.4-0.9,0.9-1.2c1.6-0.9,3.3-1.5,5.1-1.4c0.7,0,1.5,0,1.6-1
		c0.1-0.9-0.4-1.6-1.2-1.9c-1-0.4-2-0.3-2.9,0c-3.2,1-6.2,2.5-8.2,5.3c-1.3,1.9-2.1,4-2.6,6.3c-0.1,0.5-0.1,1-0.7,1.2
		c-1.2,0.3-2.4,0.3-3.5,0c-0.6-0.1-0.8-0.7-0.9-1.2c-1-3-3.1-4.8-6.2-5.4c-0.4-0.1-0.9-0.1-1-0.7c-0.1-0.5,0.3-0.8,0.7-1.1
		c1.6-1,3.3-1.7,5.2-1.6c0.8,0,1.6,0.1,1.7-1c0.1-1-0.4-1.6-1.4-2c-1-0.3-2-0.1-3,0.2c-5.5,1.6-8.9,5.2-10.3,10.7
		C551.1,621.6,551.3,622.3,550.5,622.6z"/>
	<path class="st5" d="M586,622.6c0,0.7,0.1,1.5,0.1,2.2c-0.1,4.4-3.5,6.8-6.8,7.7c-0.2,0.1-0.5,0.1-0.7,0.2c-0.5,0-1.1,0-1.6,0
		c-0.1,0-0.1-0.1-0.2-0.1c-1.8,0.1-3.2-0.7-4.4-2c-1.9-1.9-2.6-4.2-2.7-6.8c0-0.5,0.1-0.9,0.5-1.2c0.8-7.1,5.3-11.8,12.2-13.2
		c0.9-0.2,1.8-0.1,2.6,0.3c1.1,0.5,1.6,2,1.1,3.1c-0.4,0.8-1,0.8-1.7,0.7c-2.3-0.2-4.2,0.7-6.3,2.1
		C582.5,616.2,585.1,618.5,586,622.6z"/>
	<path class="st5" d="M550.5,622.6c0.8-7.2,5.3-11.7,12.2-13.2c0.9-0.2,1.7-0.1,2.5,0.3c1.2,0.5,1.7,2,1.2,3.1
		c-0.3,0.7-1,0.8-1.6,0.7c-2.3-0.2-4.3,0.6-6.4,2.1c4.4,0.5,7,2.8,7.9,6.9c0.5,0.4,0.7,0.9,0.7,1.6c0,4.8-3.4,8.5-7.8,8.4
		c-0.1,0-0.1,0.1-0.2,0.1c-0.6,0-1.2,0-1.8,0c-2.8-0.6-4.5-2.4-5.9-4.8C550.5,626.3,550.7,624.4,550.5,622.6z"/>
	<path class="st6" d="M496.8,531.7c-1.2,0-2.5,0-3.7,0c-0.7-0.1-0.6-0.7-0.6-1.2c-0.2-1.8-0.8-3.5-2-4.9c-1.7-2-3.8-3.1-6.4-2.4
		c-3.3,0.8-6.3,3.2-6.3,7.2c0,0.5,0.1,1.1-0.6,1.3c-3.2,0-6.4-0.1-9.4,1.1c-7.1,2.6-11.9,9.3-11.9,16.9c0,2.7,0,5.3,0,8
		c-70.5,0-141,0-211.5,0c-12.3,0-22.4-10.1-22.4-22.5c0-106.2,0-212.5,0-318.7c0-12.5,10.1-22.6,22.7-22.6c52.3,0,104.7,0,157,0
		c24.4,0,48.9,0,73.3,0c11.5,0,20.5,7.4,22.8,18.7c0.3,1.6,0.3,3.1,0.3,4.7c0,102.4,0,204.8,0,307.2c0,0.6,0,1.1,0,1.7
		c0.3,0.3,0.3,0.7,0.1,1c-0.5,1.2-0.8,2.4-0.8,3.7C497.3,531.2,497.3,531.6,496.8,531.7z"/>
	<path class="st5" d="M496.8,531.7c-0.1-2,0.3-3.8,1.2-5.6c1.7-1.7,3.4-3.1,5.9-3.5c2.3-0.4,4.2,0.2,5.9,1.8c2.1,2,3,4.4,3,7.3
		c-0.3,7.8-4.8,11.8-10.5,13.7c-1.1,0.4-2.2,0.4-3.3,0.3c-1.3-0.2-2.1-1-2.2-2.2c-0.1-1.4,0.4-1.9,1.8-1.9c2.5,0,4.7-0.7,6.2-2.1
		C500,538.9,497.4,536.3,496.8,531.7z"/>
	<path class="st7" d="M496.6,576.1c-0.1,3.5-0.7,6.9-2.9,9.8c-2.1,2.9-5,4.5-8.5,5.1c-2.5,0.4-4.9,0.3-7.3-0.3
		c-4.1-1.1-7.2-3.6-8.7-7.6c-2-5.2-2-10.4,0.4-15.4c2-4.1,5.3-6.4,10-7c3.4-0.4,6.7-0.2,9.7,1.4c3.7,1.9,5.9,5.1,6.7,9.2
		C496.5,573,496.8,574.5,496.6,576.1z"/>
	<path class="st7" d="M531.8,588.1c-1.6,1.5-3.2,2.5-5.2,3c-3,0.7-6.4-1-7.9-3c-2.4-3.2-2.8-6.8-2.3-10.7c0.2-2,0.8-3.9,2.1-5.5
		c2.6-3.6,8.6-4.5,11.8-1.2c0.3,0.3,0.6,0.5,1,1c0-3.1,0-6,0-8.8c0-1.8,0-1.8,1.9-1.8c1,0,2,0,3,0c0.6,0,0.8,0.2,0.8,0.8
		c0,9.4,0,18.8,0,28.2c0,0.6-0.2,0.9-0.8,0.8c-1.2,0-2.4,0-3.6,0c-0.6,0-0.8-0.1-0.8-0.8C531.9,589.4,531.8,588.8,531.8,588.1z"/>
	<path class="st7" d="M554.4,581.6c-2.1,0-4.3,0-6.4,0c-0.4,0-0.9,0-0.8,0.6c0.3,2.6,1.7,4.8,4.8,4.8c1.4,0,2.5-0.7,3.1-1.9
		c0.4-0.7,0.7-1.1,1.7-0.8c1.2,0.3,2.4,0.3,3.6,0.5c0.7,0.1,0.7,0.4,0.5,0.9c-1.2,2.8-3.2,4.8-6.2,5.5c-3,0.7-5.9,0.4-8.6-1.2
		c-1.4-0.8-2.4-2-3.1-3.4c-1.3-2.7-1.6-5.5-1.3-8.5c0.3-2,0.9-3.7,2-5.3c1.5-2.3,3.8-3.5,6.5-3.8c3.1-0.4,6.1,0.3,8.4,2.6
		c1.7,1.7,2.5,3.9,2.8,6.3c0.1,1,0.3,2,0.2,3c0,0.6-0.2,0.8-0.8,0.8C558.7,581.6,556.5,581.6,554.4,581.6z"/>
	<path class="st5" d="M477.2,531.7c0-0.6,0-1.1,0-1.7c0.1-5.3,6.4-8.3,10-7.4c2.2,0.6,5.8,4.1,5.8,7.6c0,0.5,0.1,1,0.1,1.5
		c-0.1,3.9-1.4,7.3-4.1,9.9c-2.6,2.5-5.6,4.3-9.4,4.1c-1.5-0.1-2.4-0.9-2.5-2.2c-0.1-1.4,0.4-2,1.8-1.9c2.1,0.1,3.9-0.5,5.6-1.6
		c0.1-0.1,0.3-0.2,0.4-0.3c0,0,0.1-0.1,0.1-0.3C480.4,538.9,477.8,536.3,477.2,531.7z"/>
	<path class="st7" d="M506.6,572.1c1.1-1.5,2.1-2.8,3.8-3.3c1.6-0.4,3,0.1,4.4,0.7c0.3,0.1,0.4,0.4,0.3,0.8
		c-0.5,1.4-0.9,2.9-1.3,4.4c-0.7-0.4-1.5-0.8-2.3-0.9c-2.4-0.2-3.4,1-3.9,3.2c-0.8,3.9-0.4,7.8-0.5,11.7c0,2,0,2-2,2
		c-1.2,0-2.8,0.5-3.4-0.2c-0.6-0.7-0.2-2.2-0.2-3.4c0-5.6,0-11.3,0-16.9c0-1,0.3-1.2,1.2-1.2c1.1,0.1,2.2,0,3.3,0
		c0.6,0,0.8,0.2,0.8,0.8C506.5,570.6,506.6,571.2,506.6,572.1z"/>
	<path class="st7" d="M571.3,572.1c1.1-1.5,2.1-2.8,3.8-3.3c1.6-0.4,3,0.1,4.4,0.7c0.3,0.1,0.4,0.4,0.3,0.8
		c-0.5,1.4-0.9,2.9-1.3,4.4c-0.7-0.4-1.5-0.8-2.3-0.9c-2.3-0.2-3.4,1-3.9,3.2c-0.8,3.9-0.4,7.8-0.5,11.7c0,2,0,2-2,2
		c-1.2,0-2.8,0.5-3.4-0.2c-0.6-0.7-0.2-2.2-0.2-3.4c0-5.6,0-11.3,0-16.9c0-1,0.3-1.2,1.2-1.2c1.1,0.1,2.2,0,3.3,0
		c0.6,0,0.8,0.2,0.8,0.8C571.3,570.6,571.3,571.2,571.3,572.1z"/>
	<path class="st8" d="M379,435.9c21.9,0,43.8,0,65.6,0c6.7,0,11,6.5,8.5,12.6c-1.4,3.4-4.6,5.5-8.5,5.5c-33.3,0-66.7,0-100,0
		c-10.5,0-21,0-31.6,0c-4.6,0-8.3-3.2-9-7.8c-0.6-4.4,2-8.5,6.3-9.9c1.1-0.3,2.1-0.4,3.2-0.4C335.4,435.9,357.2,435.9,379,435.9z"/>
	<path class="st8" d="M378.9,377.7c-22,0-43.9,0-65.9,0c-3.6,0-6.4-1.6-8-4.9c-1.7-3.3-1.4-6.6,0.8-9.6c1.7-2.3,4-3.4,6.8-3.6
		c0.3,0,0.5,0,0.8,0c43.6,0,87.3,0,130.9,0c4.3,0,7.7,2.3,9,6.1c2,5.9-2.3,12-8.6,12C422.8,377.7,400.9,377.7,378.9,377.7z"/>
	<path class="st9" d="M249.6,385.1c0-4.2,0-8.4,0-12.6c0-5.4,3.9-9.2,9.2-9.3c8.4,0,16.8,0,25.1,0c5.3,0,9.2,4,9.2,9.2
		c0,8.4,0,16.8,0,25.3c0,4.9-3.4,8.7-8.3,9.1c-1.3,0.1-2.6,0.1-3.8,0.1c-7.3,0-14.6,0-21.9,0c-4.5,0-7.9-2.3-9.1-6.3
		c-0.3-1-0.4-2-0.4-3c0-0.1,0-0.2,0-0.2C249.6,393.3,249.6,389.2,249.6,385.1z"/>
	<path class="st9" d="M293.2,463.5c0,4.2,0,8.4,0,12.6c0,5.3-3.8,9.2-9.2,9.2c-8.5,0-16.9,0-25.4,0c-5.1,0-9-4-9-9
		c0-8.5,0-17.1,0-25.6c0-5,3.9-9,8.9-9c8.5,0,17.1,0,25.6,0c5.2,0,9,3.9,9.1,9.1C293.2,455,293.2,459.3,293.2,463.5z"/>
	<path class="st8" d="M354.5,474.4c13.7,0,27.4,0,41.2,0c3.7,0,6.6,1.6,8.2,5c1.6,3.4,1.4,6.7-0.9,9.8c-1.7,2.3-4.1,3.5-6.9,3.5
		c-27.8,0-55.6,0-83.3,0c-4.9,0-8.8-4.1-8.7-9.2c0-5.1,3.8-9.1,8.9-9.1c13.5,0,27,0,40.5,0C353.8,474.4,354.2,474.4,354.5,474.4z"/>
	<path class="st8" d="M354.5,396.4c13.7,0,27.4,0,41.2,0c3.7,0,6.6,1.6,8.2,5c1.6,3.4,1.4,6.7-0.9,9.8c-1.7,2.3-4.1,3.5-6.9,3.5
		c-27.8,0-55.6,0-83.3,0c-4.9,0-8.8-4.1-8.7-9.2c0-5.1,3.8-9.1,8.9-9.1c13.5,0,27,0,40.5,0C353.8,396.4,354.2,396.4,354.5,396.4z"/>
	<path class="st5" d="M296.5,288.4c5.3,4.3,7.1,10.7,10.3,16.2c0.3,0.6,0.1,0.7-0.5,0.7c-2,0-4.1,0-6.1,0c-0.7,0-0.9-0.4-1.2-0.8
		c-2.2-4-4.5-7.9-6.6-11.9c-1.4-2.6-3.7-3.4-6.5-3.3c-0.8,0-0.7,0.5-0.7,1c0,4.6,0,9.2,0,13.9c0,0.9-0.2,1.2-1.2,1.2
		c-1.5-0.1-2.9-0.1-4.4,0c-0.6,0-0.8-0.2-0.8-0.8c0-1.7,0-3.3,0-5c0-10.4,0-20.8,0-31.2c0-1,0.3-1.2,1.3-1.2c4.8,0.1,9.7,0,14.5,0.1
		c2.7,0.1,5.3,0.5,7.2,2.7c1.4,1.6,2.3,3.5,2.5,5.7c0.4,3.6,0.1,7.1-2.5,10C300.4,287.1,298.6,287.9,296.5,288.4z"/>
	<path class="st5" d="M420.3,288.4c4.5,3.4,6.2,8.6,8.8,13.2c0.6,1.1,1.2,2.3,1.9,3.7c-2.5,0-4.9,0-7.2,0c-0.5,0-0.6-0.5-0.8-0.8
		c-2.2-3.9-4.4-7.8-6.5-11.7c-1.3-2.5-3.3-3.6-6.2-3.5c-0.9,0-1.2,0.2-1.1,1.1c0,4.5,0,9.1,0,13.6c0,1.1-0.3,1.3-1.3,1.3
		c-1.4-0.1-2.9,0-4.3,0c-0.5,0-0.7-0.2-0.7-0.7c0-0.6,0-1.3,0-1.9c0-11.4,0-22.9,0-34.3c0-1.1,0.3-1.4,1.4-1.3
		c4.7,0.1,9.4,0,14.1,0.1c1,0,1.9,0.1,2.9,0.3c3.6,0.6,5.6,3,6.7,6.3c0.8,2.6,0.8,5.2,0.1,7.8c-0.9,3.5-3.2,5.7-6.7,6.7
		C420.9,288.2,420.7,288.3,420.3,288.4z"/>
	<path class="st5" d="M397.8,287.4c-0.1,3.7-0.9,8.3-3.5,12.5c-5.1,8.1-18.6,8.1-23.6-0.3c-2-3.4-3-7.1-3.2-11
		c-0.2-4,0-7.9,1.3-11.7c1.8-5.2,4.9-9.2,10.7-10.2c8.6-1.5,15.3,3.1,17.5,11.7C397.6,281,397.8,283.6,397.8,287.4z"/>
	<path class="st5" d="M310.5,286.1c0-6,0-12,0-17.9c0-0.9,0.2-1.2,1.1-1.1c7,0,14.1,0,21.1,0c0.8,0,1.1,0.2,1.1,1.1
		c-0.1,1.4-0.1,2.8,0,4.2c0.1,1.1-0.4,1.3-1.3,1.3c-4.8,0-9.5,0-14.3,0c-1,0-1.3,0.3-1.3,1.3c0.1,2.1,0.1,4.1,0,6.2c0,0.8,0.3,1,1,1
		c4.5,0,9,0,13.5,0c0.9,0,1.2,0.2,1.1,1.1c-0.1,1.4-0.1,2.9,0,4.3c0,0.8-0.2,1-1,1c-4.5,0-8.9,0-13.4,0c-0.9,0-1.3,0.2-1.3,1.2
		c0.1,2.7,0.1,5.4,0,8.1c0,0.8,0.2,1.1,1.1,1.1c5.1,0,10.2,0,15.3,0c0.9,0,1.1,0.3,1.1,1.1c-0.1,1.5,0,3.1,0,4.6
		c0,0.7-0.2,0.8-0.8,0.8c-7.4,0-14.7,0-22.1,0c-0.8,0-0.9-0.4-0.9-1C310.5,298.2,310.5,292.2,310.5,286.1z"/>
	<path class="st5" d="M339.6,286.1c0-5.9,0-11.9,0-17.8c0-1,0.3-1.3,1.3-1.2c4.8,0.1,9.5-0.1,14.3,0.2c4,0.3,6.3,2.6,7.6,6.1
		c1.3,3.6,1.3,7.3,0,10.9c-1.4,3.8-4.1,6-8.2,6.3c-2.1,0.2-4.2,0.2-6.3,0.2c-2.3,0-2.3,0-2.3,2.3c0,3.7,0,7.4,0,11
		c0,0.9-0.3,1.1-1.1,1.1c-1.4-0.1-2.8-0.1-4.2,0c-0.8,0-1.1-0.2-1.1-1.1C339.6,298.2,339.6,292.1,339.6,286.1z"/>
	<path class="st5" d="M447.6,289.5c0,4.9,0,9.8,0,14.8c0,0.9-0.2,1.1-1.1,1.1c-1.4-0.1-2.8-0.1-4.2,0c-0.9,0-1.1-0.2-1.1-1.1
		c0-5.5,0-11,0-16.5c0-4.3,0-8.6,0-13c0-0.9-0.2-1.2-1.2-1.2c-2.3,0.1-4.7,0-7,0c-0.9,0-1.2-0.3-1.1-1.2c0.1-1.5,0-3,0-4.5
		c0-0.6,0.2-0.8,0.8-0.8c7.7,0,15.4,0,23.1,0c0.7,0,0.9,0.2,0.9,0.9c0,1.5,0,3.1,0,4.6c0,0.7-0.2,1-1,1c-2.3,0-4.5,0-6.8,0
		c-1.7,0-1.5-0.2-1.5,1.6C447.6,279.9,447.6,284.7,447.6,289.5z"/>
	<path class="st10" d="M474.1,576.5c0-2.9,0.3-4.9,1.3-6.9c1.5-2.8,5.3-4.5,8.3-3.8c2.3,0.5,4.2,1.5,5.4,3.6
		c0.9,1.5,1.2,3.2,1.4,4.8c0.2,2.3,0,4.7-0.9,6.9c-1.7,4.7-7.9,6.4-11.9,3.4C474.7,582.5,474.1,579.2,474.1,576.5z"/>
	<path class="st10" d="M521.9,579.9c0-2.2,0.1-4.2,1.9-5.7c2.4-2.1,5.8-1.4,6.9,1.7c1.1,2.9,1.2,5.9-0.3,8.7
		c-0.8,1.6-2.2,2.5-4.1,2.4c-1.8-0.1-3.1-1.2-3.8-2.8C522,582.8,521.9,581.3,521.9,579.9z"/>
	<path class="st10" d="M551.6,578.2c-1,0-2-0.1-2.9,0c-1,0.1-1.6,0-1.3-1.3c0.4-1.7,1.2-3,2.8-3.6c2.4-1,5,0.5,5.6,3
		c0,0.2,0.1,0.4,0.1,0.5c0.3,1.2,0.2,1.4-1,1.4C553.7,578.2,552.7,578.2,551.6,578.2z"/>
	<path class="st7" d="M285.3,278.3c0-1.4,0-2.7,0-4.1c0-0.5,0.2-0.7,0.7-0.7c2.9,0.1,5.8-0.1,8.7,0.2c0.3,0,0.5,0.1,0.8,0.2
		c1.9,0.7,2.8,2.5,2.5,5.3c-0.2,2.1-1.4,3.5-3.4,3.7c-2.9,0.4-5.8,0.1-8.7,0.2c-0.5,0-0.6-0.2-0.6-0.7
		C285.3,281.1,285.3,279.7,285.3,278.3z"/>
	<path class="st7" d="M409.1,278.3c0-1.3,0-2.6,0-3.9c0-0.6,0.2-0.8,0.9-0.8c2.7,0.1,5.5-0.1,8.2,0.1c1.8,0.2,3,1.1,3.5,2.9
		c0.3,1.2,0.3,2.5,0,3.7c-0.5,1.6-1.5,2.5-3.2,2.8c-2.9,0.4-5.8,0.1-8.7,0.2c-0.6,0-0.6-0.4-0.6-0.8
		C409.1,281,409.1,279.7,409.1,278.3z"/>
	<path class="st7" d="M391.3,286.1c-0.1,2.6-0.3,5.4-1.4,7.9c-1.8,4.2-5.8,6.2-9.6,4.9c-2.4-0.8-4-2.6-5-4.9
		c-1.4-3.3-1.5-6.8-1.3-10.3c0.1-1.6,0.4-3.2,0.9-4.7c1.4-3.8,4.2-6,7.9-5.9c3.6,0.1,6.4,2.4,7.6,6.3
		C391.1,281.5,391.2,283.7,391.3,286.1z"/>
	<path class="st7" d="M345.9,279c0-1.5,0-2.9,0-4.4c0-0.7,0.1-1.1,1-1.1c1.7,0.1,3.4,0.1,5.2,0.1c4.3,0.1,5.4,3.8,4.9,6.5
		c-0.4,2.5-2,3.9-4.6,4.1c-1.9,0.1-3.7,0.1-5.6,0.1c-0.6,0-0.8-0.2-0.8-0.8C345.9,282,345.9,280.5,345.9,279z"/>
</g>
</svg>
