<?xml version="1.0" encoding="utf-8"?>
<!-- Generator: Adobe Illustrator 24.1.2, SVG Export Plug-In . SVG Version: 6.00 Build 0)  -->
<svg version="1.1" id="Layer_1" xmlns="http://www.w3.org/2000/svg" xmlns:xlink="http://www.w3.org/1999/xlink" x="0px" y="0px"
	 viewBox="0 0 800 800" style="enable-background:new 0 0 800 800;" xml:space="preserve">
<style type="text/css">
	.st0{fill:#333333;}
	.st1{clip-path:url(#SVGID_2_);}
	.st2{fill:#1D1D1B;}
	.st3{fill:#20AA62;}
	.st4{fill:#6F7172;}
	.st5{fill:#FCFBF1;}
	.st6{fill:#E24F36;}
	.st7{fill:#FEFDF3;}
	.st8{fill:#4C73B1;}
	.st9{fill:#20AA63;}
	.st10{fill:#ECD19A;}
</style>
<g id="Layer_2_3_">
	<g id="Layer_2_4_">
		<g>
			<circle class="st0" cx="400" cy="400" r="400"/>
		</g>
	</g>
</g>
<g>
	<defs>
		<circle id="SVGID_1_" cx="400" cy="400" r="400"/>
	</defs>
	<clipPath id="SVGID_2_">
		<use xlink:href="#SVGID_1_"  style="overflow:visible;"/>
	</clipPath>
	<g class="st1">
		<g>
			<path class="st2" d="M895.9,839.8c-0.3-0.4,0-0.8-0.2-1.2c-0.1-0.4-0.1-0.8-0.2-1.2c-0.8-3.9-2.8-7.3-5.5-9.8
				c-0.3-0.3-0.7-0.7-1-1c-0.3-0.3-0.7-0.7-1-1c-0.3-0.3-0.7-0.7-1-1c-0.3-0.3-0.7-0.7-1-1c-0.3-0.3-0.7-0.7-1-1
				c-0.3-0.3-0.7-0.7-1-1c-0.3-0.3-0.7-0.7-1-1c-0.3-0.3-0.7-0.7-1-1c-0.3-0.3-0.7-0.7-1-1c-0.3-0.3-0.7-0.7-1-1
				c-0.3-0.3-0.7-0.7-1-1c-0.3-0.3-0.7-0.7-1-1c-0.3-0.3-0.7-0.7-1-1c-0.3-0.3-0.7-0.7-1-1c-0.3-0.3-0.7-0.7-1-1
				c-0.3-0.3-0.7-0.7-1-1c-0.3-0.3-0.7-0.7-1-1c-0.3-0.3-0.7-0.7-1-1c-0.3-0.3-0.7-0.7-1-1c-0.3-0.3-0.7-0.7-1-1
				c-0.3-0.3-0.7-0.7-1-1c-0.3-0.3-0.7-0.7-1-1c-0.3-0.3-0.7-0.7-1-1c-0.3-0.3-0.7-0.7-1-1c-0.3-0.3-0.7-0.7-1-1
				c-0.3-0.3-0.7-0.7-1-1c-0.3-0.3-0.7-0.7-1-1c-0.3-0.3-0.7-0.7-1-1c-0.3-0.3-0.7-0.7-1-1c-0.3-0.3-0.7-0.7-1-1
				c-0.3-0.3-0.7-0.7-1-1c-0.3-0.3-0.7-0.7-1-1c-0.3-0.3-0.7-0.7-1-1c-0.3-0.3-0.7-0.7-1-1c-0.3-0.3-0.7-0.7-1-1
				c-0.3-0.3-0.7-0.7-1-1c-0.3-0.3-0.7-0.7-1-1c-0.3-0.3-0.7-0.7-1-1c-0.3-0.3-0.7-0.7-1-1c-0.3-0.3-0.7-0.7-1-1
				c-0.3-0.3-0.7-0.7-1-1c-0.3-0.3-0.7-0.7-1-1c-0.3-0.3-0.7-0.7-1-1c-0.3-0.3-0.7-0.7-1-1c-0.3-0.3-0.7-0.7-1-1
				c-0.3-0.3-0.7-0.7-1-1c-0.3-0.3-0.7-0.7-1-1c-0.3-0.3-0.7-0.7-1-1c-0.3-0.3-0.7-0.7-1-1c-0.3-0.3-0.7-0.7-1-1
				c-0.3-0.3-0.7-0.7-1-1c-0.3-0.3-0.7-0.7-1-1c-0.3-0.3-0.7-0.7-1-1c-0.3-0.3-0.7-0.7-1-1c-0.3-0.3-0.7-0.7-1-1
				c-0.3-0.3-0.7-0.7-1-1c-0.3-0.3-0.7-0.7-1-1c-0.3-0.3-0.7-0.7-1-1c-0.3-0.3-0.7-0.7-1-1c-0.3-0.3-0.7-0.7-1-1
				c-0.3-0.3-0.7-0.7-1-1c-0.3-0.3-0.7-0.7-1-1c-0.3-0.3-0.7-0.7-1-1c-0.3-0.3-0.7-0.7-1-1c-0.3-0.3-0.7-0.7-1-1
				c-0.3-0.3-0.7-0.7-1-1c-0.3-0.3-0.7-0.7-1-1c-0.3-0.3-0.7-0.7-1-1c-0.3-0.3-0.7-0.7-1-1c-0.3-0.3-0.7-0.7-1-1
				c-0.3-0.3-0.7-0.7-1-1c-0.3-0.3-0.7-0.7-1-1c-0.2-0.2-0.4-0.4-0.6-0.6c0-84.3,0-168.6,0-252.8c0-2.9-0.1-5.7-0.4-8.6
				c-1.5-12.3-6.6-22.9-14.9-31.9c-0.7-0.8-1.5-1.6-2.3-2.3c-0.3-0.3-0.7-0.7-1-1c-0.3-0.3-0.7-0.7-1-1c-0.3-0.3-0.7-0.7-1-1
				c-0.3-0.3-0.7-0.7-1-1c-0.3-0.3-0.7-0.7-1-1c-0.3-0.3-0.7-0.7-1-1c-0.3-0.3-0.7-0.7-1-1c-0.3-0.3-0.7-0.7-1-1
				c-0.3-0.3-0.7-0.7-1-1c-0.3-0.3-0.7-0.7-1-1c-0.3-0.3-0.7-0.7-1-1c-0.3-0.3-0.7-0.7-1-1c-0.3-0.3-0.7-0.7-1-1
				c-0.3-0.3-0.7-0.7-1-1c-0.3-0.3-0.7-0.7-1-1c-0.3-0.3-0.7-0.7-1-1c-0.3-0.3-0.7-0.7-1-1c-0.3-0.3-0.7-0.7-1-1
				c-0.3-0.3-0.7-0.7-1-1c-0.3-0.3-0.7-0.7-1-1c-0.3-0.3-0.7-0.7-1-1c-0.3-0.3-0.7-0.7-1-1c-0.3-0.3-0.7-0.7-1-1
				c-0.3-0.3-0.7-0.7-1-1c-0.3-0.3-0.7-0.7-1-1c-0.3-0.3-0.7-0.7-1-1c-0.3-0.3-0.7-0.7-1-1c-0.3-0.3-0.7-0.7-1-1
				c-0.3-0.3-0.7-0.7-1-1c-0.3-0.3-0.7-0.7-1-1c-0.3-0.3-0.7-0.7-1-1c-0.3-0.3-0.7-0.7-1-1c-0.3-0.3-0.7-0.7-1-1
				c-0.3-0.3-0.7-0.7-1-1c-0.3-0.3-0.7-0.7-1-1c-0.3-0.3-0.7-0.7-1-1c-0.3-0.3-0.7-0.7-1-1c-0.3-0.3-0.7-0.7-1-1
				c-0.3-0.3-0.7-0.7-1-1c-0.3-0.3-0.7-0.7-1-1c-0.3-0.3-0.7-0.7-1-1c-0.3-0.3-0.7-0.7-1-1c-0.3-0.3-0.7-0.7-1-1
				c-0.3-0.3-0.7-0.7-1-1c-0.3-0.3-0.7-0.7-1-1c-0.3-0.3-0.7-0.7-1-1c-0.3-0.3-0.7-0.7-1-1c-0.3-0.3-0.7-0.7-1-1
				c-0.3-0.3-0.7-0.7-1-1c-0.3-0.3-0.7-0.7-1-1c-0.3-0.3-0.7-0.7-1-1c-0.3-0.3-0.7-0.7-1-1c-0.3-0.3-0.7-0.7-1-1
				c-0.3-0.3-0.7-0.7-1-1c-0.3-0.3-0.7-0.7-1-1c-0.3-0.3-0.7-0.7-1-1c-0.3-0.3-0.7-0.7-1-1c-0.3-0.3-0.7-0.7-1-1
				c-0.3-0.3-0.7-0.7-1-1c-0.3-0.3-0.7-0.7-1-1c-0.3-0.3-0.7-0.7-1-1c-0.3-0.3-0.7-0.7-1-1c-0.3-0.3-0.7-0.7-1-1
				c-0.3-0.3-0.7-0.7-1-1c-0.3-0.3-0.7-0.7-1-1c-0.3-0.3-0.7-0.7-1-1c-0.3-0.3-0.7-0.7-1-1c-0.3-0.3-0.7-0.7-1-1
				c-0.3-0.3-0.7-0.7-1-1c-0.3-0.3-0.7-0.7-1-1c-0.3-0.3-0.7-0.7-1-1c-0.3-0.3-0.7-0.7-1-1c-0.3-0.3-0.7-0.7-1-1
				c-0.3-0.3-0.7-0.7-1-1c-0.3-0.3-0.7-0.7-1-1c-0.3-0.3-0.7-0.7-1-1c-0.3-0.3-0.7-0.7-1-1c-0.3-0.3-0.7-0.7-1-1
				c-0.3-0.3-0.7-0.7-1-1c-0.3-0.3-0.7-0.7-1-1c-0.3-0.3-0.7-0.7-1-1c-0.3-0.3-0.7-0.7-1-1c-0.3-0.3-0.7-0.7-1-1
				c-0.3-0.3-0.7-0.7-1-1c-0.3-0.3-0.7-0.7-1-1c-0.3-0.3-0.7-0.7-1-1c-0.3-0.3-0.7-0.7-1-1c-0.3-0.3-0.7-0.7-1-1
				c-0.3-0.3-0.7-0.7-1-1c-0.3-0.3-0.7-0.7-1-1c-0.3-0.3-0.7-0.7-1-1c-0.3-0.3-0.7-0.7-1-1c-0.3-0.3-0.7-0.7-1-1
				c-0.3-0.3-0.7-0.7-1-1c-0.3-0.3-0.7-0.7-1-1c-0.3-0.3-0.7-0.7-1-1c-0.3-0.3-0.7-0.7-1-1c-0.3-0.3-0.7-0.7-1-1
				c-0.3-0.3-0.7-0.7-1-1c-0.3-0.3-0.7-0.7-1-1c-0.3-0.3-0.7-0.7-1-1c-0.3-0.3-0.7-0.7-1-1c-0.3-0.3-0.7-0.7-1-1
				c-0.3-0.3-0.7-0.7-1-1c-0.3-0.3-0.7-0.7-1-1c-0.3-0.3-0.7-0.7-1-1c-0.3-0.3-0.7-0.7-1-1c-0.3-0.3-0.7-0.7-1-1
				c-0.3-0.3-0.7-0.7-1-1c-0.3-0.3-0.7-0.7-1-1c-0.3-0.3-0.7-0.7-1-1c-0.3-0.3-0.7-0.7-1-1c-0.3-0.3-0.7-0.7-1-1
				c-0.3-0.3-0.7-0.7-1-1c-0.3-0.3-0.7-0.7-1-1c-0.3-0.3-0.7-0.7-1-1c-0.3-0.3-0.7-0.7-1-1c-0.3-0.3-0.7-0.7-1-1
				c-0.3-0.3-0.7-0.7-1-1c-0.3-0.3-0.7-0.7-1-1c-0.3-0.3-0.7-0.7-1-1c-0.3-0.3-0.7-0.7-1-1c-0.3-0.3-0.7-0.7-1-1
				c-0.3-0.3-0.7-0.7-1-1c-0.3-0.3-0.7-0.7-1-1c-0.3-0.3-0.7-0.7-1-1c-0.3-0.3-0.7-0.7-1-1c-0.3-0.3-0.7-0.7-1-1
				c-0.3-0.3-0.7-0.7-1-1c-0.3-0.3-0.7-0.7-1-1c-0.3-0.3-0.7-0.7-1-1c-0.3-0.3-0.7-0.7-1-1c-0.3-0.3-0.7-0.7-1-1
				c-0.3-0.3-0.7-0.7-1-1c-0.3-0.3-0.7-0.7-1-1c-0.3-0.3-0.7-0.7-1-1c-0.3-0.3-0.7-0.7-1-1c-0.3-0.3-0.7-0.7-1-1
				c-0.3-0.3-0.7-0.7-1-1c-0.3-0.3-0.7-0.7-1-1c-0.3-0.3-0.7-0.7-1-1c-0.3-0.3-0.7-0.7-1-1c-0.3-0.3-0.7-0.7-1-1
				c-0.3-0.3-0.7-0.7-1-1c-0.3-0.3-0.7-0.7-1-1c-0.3-0.3-0.7-0.7-1-1c-0.3-0.3-0.7-0.7-1-1c-0.3-0.3-0.7-0.7-1-1
				c-0.3-0.3-0.7-0.7-1-1c-0.3-0.3-0.7-0.7-1-1c-0.3-0.3-0.7-0.7-1-1c-0.3-0.3-0.7-0.7-1-1c-0.3-0.3-0.7-0.7-1-1
				c-0.3-0.3-0.7-0.7-1-1c-0.3-0.3-0.7-0.7-1-1c-0.3-0.3-0.7-0.7-1-1c-0.3-0.3-0.7-0.7-1-1c-0.3-0.3-0.7-0.7-1-1
				c-0.3-0.3-0.7-0.7-1-1c-0.3-0.3-0.7-0.7-1-1c-0.3-0.3-0.7-0.7-1-1c-0.3-0.3-0.7-0.7-1-1c-0.3-0.3-0.7-0.7-1-1
				c-0.3-0.3-0.7-0.7-1-1c-0.3-0.3-0.7-0.7-1-1c-0.3-0.3-0.7-0.7-1-1c-0.3-0.3-0.7-0.7-1-1c-0.3-0.3-0.7-0.7-1-1
				c-0.3-0.3-0.7-0.7-1-1c-0.3-0.3-0.7-0.7-1-1c-0.3-0.3-0.7-0.7-1-1c-0.3-0.3-0.7-0.7-1-1c-0.3-0.3-0.7-0.7-1-1
				c-0.3-0.3-0.7-0.7-1-1c-0.3-0.3-0.7-0.7-1-1c-0.3-0.3-0.7-0.7-1-1c-0.3-0.3-0.7-0.7-1-1c-0.3-0.3-0.7-0.7-1-1
				c-0.3-0.3-0.7-0.7-1-1c-0.3-0.3-0.7-0.7-1-1c-0.3-0.3-0.7-0.7-1-1c-0.3-0.3-0.7-0.7-1-1c-0.3-0.3-0.7-0.7-1-1
				c-0.3-0.3-0.7-0.7-1-1c-0.3-0.3-0.7-0.7-1-1c-0.3-0.3-0.7-0.7-1-1c-0.3-0.3-0.7-0.7-1-1c-0.3-0.3-0.7-0.7-1-1
				c-0.3-0.3-0.7-0.7-1-1c-0.3-0.3-0.7-0.7-1-1c-0.3-0.3-0.7-0.7-1-1c-0.3-0.3-0.7-0.7-1-1c-0.3-0.3-0.7-0.7-1-1
				c-0.3-0.3-0.7-0.7-1-1c-0.3-0.3-0.7-0.7-1-1c-0.3-0.3-0.7-0.7-1-1c-0.3-0.3-0.7-0.7-1-1c-0.3-0.3-0.7-0.7-1-1
				c-0.3-0.3-0.7-0.7-1-1c-0.3-0.3-0.7-0.7-1-1c-0.3-0.3-0.7-0.7-1-1c-0.3-0.3-0.7-0.7-1-1c-0.3-0.3-0.7-0.7-1-1
				c-0.3-0.3-0.7-0.7-1-1c-0.3-0.3-0.7-0.7-1-1c-0.3-0.3-0.7-0.7-1-1c-0.3-0.3-0.7-0.7-1-1c-0.3-0.3-0.7-0.7-1-1
				c-0.3-0.3-0.7-0.7-1-1c-0.3-0.3-0.7-0.7-1-1c-0.3-0.3-0.7-0.7-1-1c-0.3-0.3-0.7-0.7-1-1c-0.3-0.3-0.7-0.7-1-1
				c-0.3-0.3-0.7-0.7-1-1c-0.3-0.3-0.7-0.7-1-1c-0.3-0.3-0.7-0.7-1-1c-0.3-0.3-0.7-0.7-1-1c-0.3-0.3-0.7-0.7-1-1
				c-0.3-0.3-0.7-0.7-1-1c-0.3-0.3-0.7-0.7-1-1c-0.3-0.3-0.7-0.7-1-1c-0.3-0.3-0.7-0.7-1-1c-0.3-0.3-0.7-0.7-1-1
				c-0.3-0.3-0.7-0.7-1-1c-0.3-0.3-0.7-0.7-1-1c-0.3-0.3-0.7-0.7-1-1c-0.3-0.3-0.7-0.7-1-1c-0.3-0.3-0.7-0.7-1-1
				c-0.3-0.3-0.7-0.7-1-1c-0.3-0.3-0.7-0.7-1-1c-0.3-0.3-0.7-0.7-1-1c-0.3-0.3-0.7-0.7-1-1c-0.3-0.3-0.7-0.7-1-1
				c-0.3-0.3-0.7-0.7-1-1c-0.3-0.3-0.7-0.7-1-1c-0.3-0.3-0.7-0.7-1-1c-0.3-0.3-0.7-0.7-1-1c-0.3-0.3-0.7-0.7-1-1
				c-0.3-0.3-0.7-0.7-1-1c-0.3-0.3-0.7-0.7-1-1c-0.3-0.3-0.7-0.7-1-1c-0.3-0.3-0.7-0.7-1-1c-0.3-0.3-0.7-0.7-1-1
				c-0.3-0.3-0.7-0.7-1-1c-0.3-0.3-0.7-0.7-1-1c-0.3-0.3-0.7-0.7-1-1c-0.3-0.3-0.7-0.7-1-1c-0.3-0.3-0.7-0.7-1-1
				c-0.3-0.3-0.7-0.7-1-1c-0.3-0.3-0.7-0.7-1-1c-0.3-0.3-0.7-0.7-1-1c-0.3-0.3-0.7-0.7-1-1c-0.3-0.3-0.7-0.7-1-1
				c-0.3-0.3-0.7-0.7-1-1c-0.3-0.3-0.7-0.7-1-1c-0.3-0.3-0.7-0.7-1-1c-0.3-0.3-0.7-0.7-1-1c-0.3-0.3-0.7-0.7-1-1
				c-0.3-0.3-0.7-0.7-1-1c-0.3-0.3-0.7-0.7-1-1c-0.3-0.3-0.7-0.7-1-1c-0.3-0.3-0.7-0.7-1-1c-0.3-0.3-0.7-0.7-1-1
				c-0.3-0.3-0.7-0.7-1-1c-0.3-0.3-0.7-0.7-1-1c-0.3-0.3-0.7-0.7-1-1c-0.3-0.3-0.7-0.7-1-1c-0.3-0.3-0.7-0.7-1-1
				c-0.3-0.3-0.7-0.7-1-1c-0.3-0.3-0.7-0.7-1-1c-0.3-0.3-0.7-0.7-1-1c-0.3-0.3-0.7-0.7-1-1c-0.3-0.3-0.7-0.7-1-1
				c-0.3-0.3-0.7-0.7-1-1c-0.3-0.3-0.7-0.7-1-1c-0.3-0.3-0.7-0.7-1-1c-0.3-0.3-0.7-0.7-1-1c-0.3-0.3-0.7-0.7-1-1
				c-0.3-0.3-0.7-0.7-1-1c-0.3-0.3-0.7-0.7-1-1c-0.3-0.3-0.7-0.7-1-1c-0.3-0.3-0.7-0.7-1-1c-0.3-0.3-0.7-0.7-1-1
				c-4.8-4.9-10.4-8.8-16.7-11.7c-6.1-2.8-12.4-4.6-19.2-4.5c-0.4,0-0.8,0-1.2,0c-0.6-0.1-1.1,0.1-1.7-0.1c-78.4,0-156.9,0-235.3,0
				c-0.5,0.2-1.1,0.1-1.6,0.1c-0.4,0-0.7,0-1.1,0c-2.4,0.1-4.7,0.1-7,0.5c-10.4,2.1-19.4,6.8-27.2,13.9c-5.6,5.1-10,11.2-13.2,18.2
				c-2.8,6.1-4.6,12.5-4.5,19.4c0,0.4,0,0.7,0,1.1c-0.1,0.5,0.1,1.1-0.1,1.6c0,107.8,0,215.6,0,323.4c0.2,0.5,0.1,1,0.1,1.5
				c0,0.5,0,0.9,0,1.4c0.1,3.1,0.2,6.3,1.1,9.4c2.8,10.5,7.9,19.5,15.6,26.9c0.3,0.3,0.7,0.7,1,1c0.3,0.3,0.7,0.7,1,1
				c0.3,0.3,0.7,0.7,1,1c0.3,0.3,0.7,0.7,1,1c0.3,0.3,0.7,0.7,1,1c0.3,0.3,0.7,0.7,1,1c0.3,0.3,0.7,0.7,1,1c0.3,0.3,0.7,0.7,1,1
				c0.3,0.3,0.7,0.7,1,1c0.3,0.3,0.7,0.7,1,1c0.3,0.3,0.7,0.7,1,1c0.3,0.3,0.7,0.7,1,1c0.3,0.3,0.7,0.7,1,1c0.3,0.3,0.7,0.7,1,1
				c0.3,0.3,0.7,0.7,1,1c0.3,0.3,0.7,0.7,1,1c0.3,0.3,0.7,0.7,1,1c0.3,0.3,0.7,0.7,1,1c0.3,0.3,0.7,0.7,1,1c0.3,0.3,0.7,0.7,1,1
				c0.3,0.3,0.7,0.7,1,1c0.3,0.3,0.7,0.7,1,1c0.3,0.3,0.7,0.7,1,1c0.3,0.3,0.7,0.7,1,1c0.3,0.3,0.7,0.7,1,1c0.3,0.3,0.7,0.7,1,1
				c0.3,0.3,0.7,0.7,1,1c0.3,0.3,0.7,0.7,1,1c0.3,0.3,0.7,0.7,1,1c0.3,0.3,0.7,0.7,1,1c0.3,0.3,0.7,0.7,1,1c0.3,0.3,0.7,0.7,1,1
				c0.3,0.3,0.7,0.7,1,1c0.3,0.3,0.7,0.7,1,1c0.3,0.3,0.7,0.7,1,1c0.3,0.3,0.7,0.7,1,1c0.3,0.3,0.7,0.7,1,1c0.3,0.3,0.7,0.7,1,1
				c0.3,0.3,0.7,0.7,1,1c0.3,0.3,0.7,0.7,1,1c0.3,0.3,0.7,0.7,1,1c0.3,0.3,0.7,0.7,1,1c0.3,0.3,0.7,0.7,1,1c0.3,0.3,0.7,0.7,1,1
				c0.3,0.3,0.7,0.7,1,1c0.3,0.3,0.7,0.7,1,1c0.3,0.3,0.7,0.7,1,1c0.3,0.3,0.7,0.7,1,1c0.3,0.3,0.7,0.7,1,1c0.3,0.3,0.7,0.7,1,1
				c0.3,0.3,0.7,0.7,1,1c0.3,0.3,0.7,0.7,1,1c0.3,0.3,0.7,0.7,1,1c0.3,0.3,0.7,0.7,1,1c0.3,0.3,0.7,0.7,1,1c0.3,0.3,0.7,0.7,1,1
				c0.3,0.3,0.7,0.7,1,1c0.3,0.3,0.7,0.7,1,1c0.3,0.3,0.7,0.7,1,1c0.3,0.3,0.7,0.7,1,1c0.3,0.3,0.7,0.7,1,1c0.3,0.3,0.7,0.7,1,1
				c0.3,0.3,0.7,0.7,1,1c0.3,0.3,0.7,0.7,1,1c0.3,0.3,0.7,0.7,1,1c0.3,0.3,0.7,0.7,1,1c0.3,0.3,0.7,0.7,1,1c0.3,0.3,0.7,0.7,1,1
				c0.3,0.3,0.7,0.7,1,1c0.3,0.3,0.7,0.7,1,1c0.3,0.3,0.7,0.7,1,1c0.3,0.3,0.7,0.7,1,1c0.3,0.3,0.7,0.7,1,1c0.3,0.3,0.7,0.7,1,1
				c0.3,0.3,0.7,0.7,1,1c0.3,0.3,0.7,0.7,1,1c0.3,0.3,0.7,0.7,1,1c0.3,0.3,0.7,0.7,1,1c0.3,0.3,0.7,0.7,1,1c0.3,0.3,0.7,0.7,1,1
				c0.3,0.3,0.7,0.7,1,1c0.3,0.3,0.7,0.7,1,1c0.3,0.3,0.7,0.7,1,1c0.3,0.3,0.7,0.7,1,1c0.3,0.3,0.7,0.7,1,1c0.3,0.3,0.7,0.7,1,1
				c0.3,0.3,0.7,0.7,1,1c0.3,0.3,0.7,0.7,1,1c0.3,0.3,0.7,0.7,1,1c0.3,0.3,0.7,0.7,1,1c0.3,0.3,0.7,0.7,1,1c0.3,0.3,0.7,0.7,1,1
				c0.3,0.3,0.7,0.7,1,1c0.3,0.3,0.7,0.7,1,1c0.3,0.3,0.7,0.7,1,1c0.3,0.3,0.7,0.7,1,1c0.3,0.3,0.7,0.7,1,1c0.3,0.3,0.7,0.7,1,1
				c0.3,0.3,0.7,0.7,1,1c0.3,0.3,0.7,0.7,1,1c0.3,0.3,0.7,0.7,1,1c0.3,0.3,0.7,0.7,1,1c0.3,0.3,0.7,0.7,1,1c0.3,0.3,0.7,0.7,1,1
				c0.3,0.3,0.7,0.7,1,1c0.3,0.3,0.7,0.7,1,1c0.3,0.3,0.7,0.7,1,1c0.3,0.3,0.7,0.7,1,1c0.3,0.3,0.7,0.7,1,1c0.3,0.3,0.7,0.7,1,1
				c0.3,0.3,0.7,0.7,1,1c0.3,0.3,0.7,0.7,1,1c0.3,0.3,0.7,0.7,1,1c0.3,0.3,0.7,0.7,1,1c0.3,0.3,0.7,0.7,1,1c0.3,0.3,0.7,0.7,1,1
				c0.3,0.3,0.7,0.7,1,1c0.3,0.3,0.7,0.7,1,1c0.3,0.3,0.7,0.7,1,1c0.3,0.3,0.7,0.7,1,1c0.3,0.3,0.7,0.7,1,1c0.3,0.3,0.7,0.7,1,1
				c0.3,0.3,0.7,0.7,1,1c0.3,0.3,0.7,0.7,1,1c0.3,0.3,0.7,0.7,1,1c0.3,0.3,0.7,0.7,1,1c0.3,0.3,0.7,0.7,1,1c0.3,0.3,0.7,0.7,1,1
				c0.3,0.3,0.7,0.7,1,1c0.3,0.3,0.7,0.7,1,1c0.3,0.3,0.7,0.7,1,1c0.3,0.3,0.7,0.7,1,1c0.3,0.3,0.7,0.7,1,1c0.3,0.3,0.7,0.7,1,1
				c0.3,0.3,0.7,0.7,1,1c0.3,0.3,0.7,0.7,1,1c0.3,0.3,0.7,0.7,1,1c0.3,0.3,0.7,0.7,1,1c0.3,0.3,0.7,0.7,1,1c0.3,0.3,0.7,0.7,1,1
				c0.3,0.3,0.7,0.7,1,1c0.3,0.3,0.7,0.7,1,1c0.3,0.3,0.7,0.7,1,1c0.3,0.3,0.7,0.7,1,1c0.3,0.3,0.7,0.7,1,1c0.3,0.3,0.7,0.7,1,1
				c0.3,0.3,0.7,0.7,1,1c0.3,0.3,0.7,0.7,1,1c0.3,0.3,0.7,0.7,1,1c0.3,0.3,0.7,0.7,1,1c0.3,0.3,0.7,0.7,1,1c0.3,0.3,0.7,0.7,1,1
				c0.3,0.3,0.7,0.7,1,1c0.3,0.3,0.7,0.7,1,1c0.3,0.3,0.7,0.7,1,1c0.3,0.3,0.7,0.7,1,1c0.3,0.3,0.7,0.7,1,1c0.3,0.3,0.7,0.7,1,1
				c0.3,0.3,0.7,0.7,1,1c0.3,0.3,0.7,0.7,1,1c0.3,0.3,0.7,0.7,1,1c0.3,0.3,0.7,0.7,1,1c0.3,0.3,0.7,0.7,1,1c0.3,0.3,0.7,0.7,1,1
				c0.3,0.3,0.7,0.7,1,1c0.3,0.3,0.7,0.7,1,1c0.3,0.3,0.7,0.7,1,1c0.3,0.3,0.7,0.7,1,1c0.3,0.3,0.7,0.7,1,1c0.3,0.3,0.7,0.7,1,1
				c0.3,0.3,0.7,0.7,1,1c0.3,0.3,0.7,0.7,1,1c0.3,0.3,0.7,0.7,1,1c0.3,0.3,0.7,0.7,1,1c0.3,0.3,0.7,0.7,1,1c0.3,0.3,0.7,0.7,1,1
				c0.3,0.3,0.7,0.7,1,1c0.3,0.3,0.7,0.7,1,1c0.3,0.3,0.7,0.7,1,1c0.3,0.3,0.7,0.7,1,1c0.3,0.3,0.7,0.7,1,1c0.3,0.3,0.7,0.7,1,1
				c0.3,0.3,0.7,0.7,1,1c0.3,0.3,0.7,0.7,1,1c0.3,0.3,0.7,0.7,1,1c0.3,0.3,0.7,0.7,1,1c0.3,0.3,0.7,0.7,1,1c0.3,0.3,0.7,0.7,1,1
				c0.3,0.3,0.7,0.7,1,1c0.3,0.3,0.7,0.7,1,1c0.3,0.3,0.7,0.7,1,1c0.3,0.3,0.7,0.7,1,1c0.3,0.3,0.7,0.7,1,1c0.3,0.3,0.7,0.7,1,1
				c0.3,0.3,0.7,0.7,1,1c0.3,0.3,0.7,0.7,1,1c0.3,0.3,0.7,0.7,1,1c0.3,0.3,0.7,0.7,1,1c0.3,0.3,0.7,0.7,1,1c0.3,0.3,0.7,0.7,1,1
				c0.3,0.3,0.7,0.7,1,1c0.3,0.3,0.7,0.7,1,1c0.3,0.3,0.7,0.7,1,1c0.3,0.3,0.7,0.7,1,1c0.3,0.3,0.7,0.7,1,1c0.3,0.3,0.7,0.7,1,1
				c0.3,0.3,0.7,0.7,1,1c0.3,0.3,0.7,0.7,1,1c0.3,0.3,0.7,0.7,1,1c0.3,0.3,0.7,0.7,1,1c0.3,0.3,0.7,0.7,1,1c0.3,0.3,0.7,0.7,1,1
				c0.3,0.3,0.7,0.7,1,1c0.3,0.3,0.7,0.7,1,1c0.3,0.3,0.7,0.7,1,1c0.3,0.3,0.7,0.7,1,1c0.3,0.3,0.7,0.7,1,1c0.3,0.3,0.7,0.7,1,1
				c0.3,0.3,0.7,0.7,1,1c0.3,0.3,0.7,0.7,1,1c0.3,0.3,0.7,0.7,1,1c0.3,0.3,0.7,0.7,1,1c0.3,0.3,0.7,0.7,1,1c0.3,0.3,0.7,0.7,1,1
				c0.3,0.3,0.7,0.7,1,1c0.3,0.3,0.7,0.7,1,1c0.3,0.3,0.7,0.7,1,1c0.3,0.3,0.7,0.7,1,1c0.3,0.3,0.7,0.7,1,1c0.3,0.3,0.7,0.7,1,1
				c0.3,0.3,0.7,0.7,1,1c0.3,0.3,0.7,0.7,1,1c0.3,0.3,0.7,0.7,1,1c0.3,0.3,0.7,0.7,1,1c0.3,0.3,0.7,0.7,1,1c0.3,0.3,0.7,0.7,1,1
				c0.3,0.3,0.7,0.7,1,1c0.3,0.3,0.7,0.7,1,1c0.3,0.3,0.7,0.7,1,1c0.3,0.3,0.7,0.7,1,1c0.3,0.3,0.7,0.7,1,1c0.3,0.3,0.7,0.7,1,1
				c0.3,0.3,0.7,0.7,1,1c0.3,0.3,0.7,0.7,1,1c0.3,0.3,0.7,0.7,1,1c0.3,0.3,0.7,0.7,1,1c0.3,0.3,0.7,0.7,1,1c0.3,0.3,0.7,0.7,1,1
				c0.3,0.3,0.7,0.7,1,1c0.3,0.3,0.7,0.7,1,1c0.3,0.3,0.7,0.7,1,1c0.3,0.3,0.7,0.7,1,1c0.3,0.3,0.7,0.7,1,1c0.3,0.3,0.7,0.7,1,1
				c0.3,0.3,0.7,0.7,1,1c0.3,0.3,0.7,0.7,1,1c0.3,0.3,0.7,0.7,1,1c0.3,0.3,0.7,0.7,1,1c0.3,0.3,0.7,0.7,1,1c0.3,0.3,0.7,0.7,1,1
				c0.3,0.3,0.7,0.7,1,1c0.3,0.3,0.7,0.7,1,1c0.3,0.3,0.7,0.7,1,1c0.3,0.3,0.7,0.7,1,1c0.3,0.3,0.7,0.7,1,1c0.3,0.3,0.7,0.7,1,1
				c0.3,0.3,0.7,0.7,1,1c0.3,0.3,0.7,0.7,1,1c0.3,0.3,0.7,0.7,1,1c0.3,0.3,0.7,0.7,1,1c0.3,0.3,0.7,0.7,1,1c0.3,0.3,0.7,0.7,1,1
				c0.3,0.3,0.7,0.7,1,1c0.3,0.3,0.7,0.7,1,1c0.3,0.3,0.7,0.7,1,1c0.3,0.3,0.7,0.7,1,1c0.3,0.3,0.7,0.7,1,1c0.3,0.3,0.7,0.7,1,1
				c0.3,0.3,0.7,0.7,1,1c0.3,0.3,0.7,0.7,1,1c0.3,0.3,0.7,0.7,1,1c0.3,0.3,0.7,0.7,1,1c0.3,0.3,0.7,0.7,1,1c1.3,1.4,2.8,2.7,4.3,3.9
				c10.4,8.7,22.4,13.2,36,13.2c64,0.1,128.1,0,192.1,0c0.3,0.3,0.5,0.5,0.8,0.8c0.3,0.3,0.7,0.7,1,1c0.3,0.3,0.7,0.7,1,1
				c0.3,0.3,0.7,0.7,1,1c0.3,0.3,0.7,0.7,1,1c0.3,0.3,0.7,0.7,1,1c0.3,0.3,0.7,0.7,1,1c0.3,0.3,0.7,0.7,1,1c0.3,0.3,0.7,0.7,1,1
				c0.3,0.3,0.7,0.7,1,1c0.3,0.3,0.7,0.7,1,1c0.3,0.3,0.7,0.7,1,1c0.3,0.3,0.7,0.7,1,1c0.3,0.3,0.7,0.7,1,1c0.3,0.3,0.7,0.7,1,1
				c0.3,0.3,0.7,0.7,1,1c0.3,0.3,0.7,0.7,1,1c0.3,0.3,0.7,0.7,1,1c0.3,0.3,0.7,0.7,1,1c0.3,0.3,0.7,0.7,1,1c0.3,0.3,0.7,0.7,1,1
				c0.3,0.3,0.7,0.7,1,1c0.3,0.3,0.7,0.7,1,1c0.3,0.3,0.7,0.7,1,1c0.3,0.3,0.7,0.7,1,1c0.3,0.3,0.7,0.7,1,1c0.3,0.3,0.7,0.7,1,1
				c0.3,0.3,0.7,0.7,1,1c0.3,0.3,0.7,0.7,1,1c0.3,0.3,0.7,0.7,1,1c0.3,0.3,0.7,0.7,1,1c3.3,3.6,8.1,5.8,13.4,5.8
				c25.6,0,51.2,0,76.8,0c0.8-0.3,0.6-1.1,0.8-1.6c0.8-3.3,2.3-5.8,4.6-7.7c0.2,0.1,0.4,0.1,0.6,0.1c0,0.1,0,0.2,0,0.3
				c0.1,0.6,0.6,0.6,1,0.7c0,0.1,0,0.2,0,0.3c0.1,0.6,0.6,0.6,1,0.7c0,0.1,0,0.2,0,0.3c0.1,0.6,0.6,0.6,1.1,0.7
				c0.2,0,0.3,0.1,0.5,0.1c0.1,0.2,0.3,0.4,0.6,0.5c0,0,0.1,0,0.1,0c0.1,0.4,0.3,0.9,0.9,1c0,0,0.1,0,0.1,0c0.1,0.4,0.3,0.9,0.9,1
				c0,0,0.1,0,0.1,0c0.1,0.4,0.3,0.9,0.9,1c0,0,0.1,0,0.1,0c0.1,0.4,0.3,0.9,0.9,1c0,0,0.1,0,0.1,0c0.1,0.4,0.3,0.9,0.9,1
				c0,0,0.1,0,0.1,0c0.1,0.4,0.3,0.9,0.9,1c1.2,0.3,2.4,0.3,3.5,0c0.9-0.4,0.7-1.4,0.9-2.1c0.8-3.2,2.3-5.7,4.5-7.6
				c0.1,0.1,0.3,0.1,0.4,0.1c0,0,0.1,0,0.1,0c0,0.1,0,0.2,0,0.4c0.1,0.4,0.5,0.5,0.9,0.6c0,0,0.1,0,0.1,0c0,0.1,0,0.2,0,0.4
				c0.1,0.4,0.5,0.5,0.9,0.6c0,0,0.1,0,0.1,0c0,0.1,0,0.2,0,0.4c0.1,0.4,0.5,0.5,0.9,0.6c0.1,0,0.3,0.1,0.4,0.1c0.1,0,0.2,0,0.2,0.1
				c0.1,0.1,0.2,0.3,0.4,0.4c0.1,0.1,0.3,0.1,0.4,0.2c0.1,0.3,0.2,0.6,0.6,0.8c0.1,0.1,0.3,0.1,0.4,0.2c0.1,0.3,0.2,0.6,0.6,0.8
				c0.1,0.1,0.3,0.1,0.4,0.2c0.1,0.3,0.2,0.6,0.6,0.8c0.1,0.1,0.3,0.1,0.4,0.2c0.1,0.3,0.2,0.6,0.6,0.8c0.1,0.1,0.3,0.1,0.4,0.2
				c0.1,0.3,0.2,0.6,0.6,0.8c0.1,0.1,0.3,0.1,0.4,0.2c0.1,0.3,0.2,0.6,0.6,0.8c0.5,0.2,1.1,0.3,1.7,0.3c5.4-0.2,10-2.3,13.6-6.4
				c2.5-2.8,4.1-6,4-9.9c0.1-0.4-0.1-0.8,0.1-1.2C895.9,877.9,895.9,858.9,895.9,839.8z"/>
		</g>
	</g>
</g>
<g>
	<path class="st3" d="M188.3,536.2c0-107.2,0-214.5,0-321.7c0.2-0.5,0.1-1.1,0.1-1.6c0-0.4,0-0.7,0-1.1c-0.1-6.2,1.4-12.1,3.8-17.7
		c2.4-5.6,5.6-10.6,9.5-15.2c5.3-6.2,11.7-10.9,19.1-14.3c4.5-2.1,9.2-3.7,14.2-4.2c1.7-0.2,3.4-0.3,5.1-0.3c0.4,0,0.7,0,1.1,0
		c0.5-0.1,1.1,0.1,1.6-0.1c78,0,156.1,0,234.1,0c0.5,0.2,1.1,0.1,1.7,0.1c0.4,0,0.8,0,1.2,0c6.8-0.1,13.1,1.8,19.2,4.6
		c6.9,3.2,12.9,7.6,18.1,13.2c7.4,8.1,12.1,17.5,14,28.2c0.6,3.1,0.9,6.3,0.9,9.5c0,101.5,0,203,0,304.5c0,1.1,0.2,2.3-0.4,3.3
		c-0.5,0.4-1.1,0.3-1.6,0.3c-6.4,0-12.7,0-19.1,0c-0.5,0-1,0-1.4-0.2c-0.7-0.2-0.7-0.8-0.8-1.3c-0.1-1.8-0.7-3.4-1.8-4.8
		c-2.1-2.7-4.6-3.5-7.8-2.3c-0.6,0.2-1.2,0.6-1.7-0.1c-0.2-0.5-0.2-1-0.2-1.4c0-0.9,0-1.8,0-2.7c0-98,0-195.9,0-293.9
		c0-4.8-1.3-9.1-4-13c-3.6-5.2-8.7-8.2-15-9.2c-1.2-0.2-2.5-0.2-3.7-0.2c-76.4,0-152.8,0-229.2,0c-6,0-11.3,1.9-15.7,6
		c-3.7,3.5-6,7.9-6.7,12.9c-0.2,1.2-0.2,2.5-0.2,3.7c0,105.7,0,211.3,0,317c0,6,2,11.3,6.1,15.7c3.5,3.7,7.8,5.8,12.9,6.6
		c1.3,0.2,2.7,0.2,4,0.2c67.9,0,135.8,0,203.7,0c1.1,0,2.2-0.2,3.2,0.4c0.4,0.5,0.3,1.1,0.3,1.6c0,10.2,0,20.5,0,30.7
		c0,0.5,0,1.1-0.2,1.5c-0.4,0.4-0.9,0.5-1.4,0.5c-0.7,0-1.5,0-2.3,0c-68.2,0-136.5,0-204.7,0c-13.5,0-25.6-4.5-35.9-13.1
		c-10-8.3-16.5-19-19.2-31.7c-0.5-2.4-0.5-4.9-0.6-7.3c0-0.5,0-0.9,0-1.4C188.4,537.2,188.6,536.7,188.3,536.2z"/>
	<path class="st4" d="M531.4,523.1c3.2,0,6.4,0,9.6,0c14.1,0,28.2,0,42.3,0c8.8,0,16,5.9,17.8,14.5c0.1,0.4,0.1,0.8,0.2,1.2
		c0.2,0.4-0.1,0.8,0.2,1.2c0,19,0,38,0,57c-0.2,0.4-0.1,0.8-0.1,1.2c0.1,3.9-1.5,7-3.9,9.9c-3.6,4.1-8.1,6.1-13.5,6.4
		c-0.6,0-1.1,0-1.6-0.3c-0.5-0.3-0.5-0.8-0.7-1.2c-1-2.8-2.9-4.6-5.9-5.2c-0.5-0.1-1.2,0-1.3-0.8c-0.1-0.7,0.6-1,1.1-1.3
		c1.6-0.9,3.2-1.4,5-1.3c0.7,0,1.3-0.1,1.5-0.9c0.2-0.8-0.2-1.6-1-1.9c-1.2-0.6-2.5-0.3-3.6,0.1c-5.3,1.7-8.7,5.1-10,10.6
		c-0.2,0.7,0,1.6-0.9,2.1c-1.2,0.3-2.4,0.3-3.5,0c-0.6-0.1-0.7-0.7-0.9-1.2c-1-3-3.1-4.8-6.2-5.4c-0.4-0.1-1-0.1-1-0.7
		c-0.1-0.5,0.3-0.8,0.7-1.1c1.6-1,3.3-1.7,5.2-1.6c0.7,0,1.6,0.1,1.7-1c0.1-0.9-0.4-1.6-1.4-2c-1.1-0.3-2.1-0.1-3.1,0.2
		c-5.5,1.6-8.8,5.2-10.2,10.8c-0.2,0.6,0,1.5-0.8,1.8c-0.6,0.3-1.3,0.2-1.9,0.2c-25,0-49.9,0-74.9,0c-8.7,0-16.4-6.7-17.9-15.4
		c-0.4-2.4-0.2-4.8-0.2-7.2c0-0.4,0.1-0.8,0.5-1.1c0-11.3,0-22.5,0-33.8c-0.5-0.4-0.5-0.9-0.5-1.4c0-5.2-0.2-10.4,0.1-15.6
		c0.5-8.5,6.9-15.6,15.5-17c2.1-0.3,4.2-0.5,6.4,0c0.5,0.2,0.6,0.8,0.7,1.2c0.8,3.3,2.8,5.4,6.2,6.1c0.5,0.1,1.1,0.1,1.2,0.8
		c0.1,0.6-0.4,0.9-0.9,1.2c-1.6,0.9-3.2,1.5-5,1.4c-0.8,0-1.6,0-1.7,1.1c-0.1,0.8,0.6,1.7,1.5,1.8c0.9,0.2,1.9,0.2,2.8-0.1
		c5.6-1.6,9.2-5.1,10.4-10.9c0.1-0.5,0.1-1,0.2-1.6c0-0.5,0.1-0.9,0.6-1.1c1.2-0.3,2.4-0.3,3.5,0c0.5,0.1,0.6,0.6,0.7,1
		c0.7,3.5,2.9,5.7,6.4,6.4c0.4,0.1,0.9,0.2,1,0.7c0.1,0.6-0.4,0.9-0.8,1.1c-1.6,0.9-3.2,1.6-5.1,1.5c-0.8,0-1.6,0-1.7,1
		c-0.1,0.9,0.6,1.7,1.6,1.9c0.9,0.1,1.7,0.2,2.6-0.1c6-1.7,9.9-5.4,10.7-12.2c0.1-0.4,0-0.9,0.6-1.1
		C516.6,523.1,524,523.1,531.4,523.1z"/>
	<path class="st5" d="M473.8,523.1c-2.4,0-4.8-0.1-7.2,0.4c-8.1,1.8-14.1,9-14.2,17.3c-0.1,5.4,0,10.7,0,16.1
		c-69.2,0-138.4,0-207.7,0c-12.6,0-22.6-10-22.6-22.7c0-105.9,0-211.8,0-317.6c0-12.9,10-22.8,23-22.8c55.8,0,111.7,0,167.5,0
		c20.7,0,41.4,0,62.1,0c11.4,0,20.5,7.5,22.6,18.7c0.3,1.5,0.3,3.1,0.3,4.6c0,98.8,0,197.6,0,296.4c0,0.5,0,1,0,1.6
		c0.1,0.6-0.3,0.9-0.7,1.2c-2.1,1.4-3,3.4-3.1,5.9c0,0.4,0,0.9-0.6,1.1c-1.2,0-2.5,0-3.7,0c-0.7-0.1-0.6-0.7-0.6-1.2
		c-0.2-1.8-0.8-3.5-2-4.9c-1.7-2-3.8-3.1-6.4-2.4c-3.3,0.8-6.3,3.2-6.3,7.1C474.3,522.3,474.4,522.9,473.8,523.1z"/>
	<path class="st6" d="M493.3,523.1c0-0.8,0-1.6,0.1-2.5c0.3-2.7,2.1-4.4,4.2-5.7c1.6-0.8,3.2-1.2,5-1c2.9,0.3,6.4,4.2,6.4,7.6
		c0,0.5,0.1,1,0.1,1.6c-0.3,7.6-4.6,11.6-10.3,13.6c-1.2,0.4-2.3,0.5-3.5,0.4c-1-0.1-1.8-0.7-2.1-1.7c-0.4-1.5,0.2-2.4,1.8-2.3
		c2.3,0.1,4.2-0.7,6.3-2.1C496.5,530.3,493.9,527.7,493.3,523.1z"/>
	<path class="st7" d="M477.8,569.9c0.1-4.9,0.8-8.4,3.2-11.4c1.7-2.2,4-3.5,6.7-4c3.1-0.6,6.2-0.5,9.1,1c2.5,1.3,4.1,3.4,5,6.1
		c0.2,0.7-0.2,0.7-0.5,0.8c-1.3,0.3-2.6,0.4-3.9,0.8c-0.6,0.2-0.7-0.1-0.8-0.4c-0.9-2.5-2.7-3.7-5.2-3.9c-2.8-0.2-5.2,0.7-6.7,3.3
		c-0.7,1.2-1,2.6-1.1,4c-0.2,3-0.3,6,1.4,8.7c1.5,2.4,3.8,3.2,6.4,2.9c2.5-0.3,4.2-1.9,5.1-4.3c0.1-0.1,0.1-0.3,0.1-0.4
		c0.2-1,0.6-1.2,1.6-0.7c1,0.5,2.2,0.7,3.3,1c0.6,0.2,0.7,0.4,0.5,1c-1.4,4.1-3.8,7-8.2,7.9c-5.9,1.2-11.7-0.8-14.5-6.5
		C478.2,573.5,477.8,571.1,477.8,569.9z"/>
	<path class="st6" d="M473.8,523.1c0-0.6,0-1.2,0.1-1.8c0.2-5.3,6.4-8.1,9.9-7.3c2.3,0.6,5.8,4.1,5.9,7.5c0,0.5,0.1,1,0.1,1.6
		c-0.4,7.8-4.9,11.7-10.3,13.6c-1.2,0.4-2.3,0.5-3.5,0.4c-1-0.1-1.8-0.7-2.1-1.7c-0.4-1.5,0.3-2.4,1.8-2.4c2.3,0,4.7-0.7,6-2.1
		C476.9,530.3,474.3,527.7,473.8,523.1z"/>
	<path class="st6" d="M575.4,623.8c-0.8,0-1.5,0-2.3,0c-3-0.6-6-3.8-6.3-6.8c-0.1-1-0.2-2.1-0.3-3.1c0.8-7.2,5.3-11.8,12.2-13.2
		c0.9-0.2,1.7-0.1,2.5,0.3c1.2,0.5,1.7,2,1.2,3.1c-0.4,0.8-1.1,0.8-1.8,0.7c-2.3-0.2-4.1,0.7-6.2,2.1c4.5,0.5,7.1,2.8,8,6.9
		c0,0.7,0.1,1.4,0.1,2.1C582.4,620.6,578.7,623.1,575.4,623.8z"/>
	<path class="st6" d="M555.8,623.8c-0.8,0-1.5,0-2.3,0c-2.9-0.5-5.9-3.7-6.3-6.7c-0.1-1.1-0.2-2.2-0.3-3.2
		c0.8-7.2,5.5-11.9,12.3-13.2c0.8-0.2,1.6,0,2.4,0.3c1.2,0.5,1.7,2,1.2,3.1c-0.4,0.8-1,0.8-1.7,0.7c-2.3-0.2-4.2,0.7-6.3,2.1
		c4.4,0.5,7,2.8,7.9,6.9c0,0.4,0.1,0.7,0.1,1.1C563.2,619.8,560.2,622.9,555.8,623.8z"/>
	<path class="st7" d="M546.9,566.9c-1.4,0.5-2.9,0.4-4.3,0.8c-0.2,0.1-0.5,0-0.6-0.3c-1.1-2.4-3.3-2.3-5.4-2.1
		c-0.9,0.1-2.2,0.3-2.2,1.6c-0.1,1.3,1.1,1.4,2,1.7c1.8,0.5,3.5,0.9,5.3,1.4c1.3,0.3,2.5,0.8,3.6,1.4c2.8,1.6,3.1,5.6,1.1,8
		c-1.8,2.3-4.3,3-7.1,3.1c-2.7,0.1-5.3-0.1-7.6-1.8c-1.5-1-2.4-2.4-3-4.2c1.5-0.5,3.1-0.4,4.6-0.8c0.5-0.1,0.6,0.4,0.7,0.7
		c1.3,2.5,5.4,3.4,7.7,1.7c0.6-0.4,0.8-1.1,0.7-1.8c-0.2-0.7-0.8-1.1-1.4-1.2c-2.3-0.5-4.6-1-6.9-1.8c-2.1-0.7-3.8-1.7-4.4-3.9
		c-0.9-3,0.6-5.7,3.2-6.9c3.3-1.5,6.7-1.3,10.1-0.2C544.6,562.9,546,563.9,546.9,566.9z"/>
	<path class="st7" d="M520.2,579.2c-1.5,1.8-3.2,2.8-5.2,3.2c-3.2,0.6-7.3-0.9-7.7-5.3c-0.4-4.8-0.1-9.6-0.2-14.5
		c0-0.6,0.3-0.7,0.8-0.7c1.2,0,2.4,0.1,3.6,0c0.8,0,0.8,0.3,0.8,0.9c0,3.4,0,6.8,0,10.2c0,1,0.1,2,0.3,3c0.2,1.7,2.2,2.8,4,2.2
		c2.9-0.9,3.2-2.3,3.3-5.1c0.1-3.4,0.1-6.8,0-10.2c0-0.8,0.2-1.1,1-1c1.1,0.1,2.2,0,3.4,0c0.6,0,0.9,0.1,0.9,0.8
		c0,6.1,0,12.3,0,18.4c0,0.6-0.2,0.8-0.8,0.8c-1.1,0-2.2,0-3.4,0c-0.6,0-0.8-0.1-0.8-0.8C520.2,580.8,520.2,580.2,520.2,579.2z"/>
	<path class="st7" d="M558.7,555.1c0,2.1,0,4.1,0,6.1c0,0.7,0.2,1,0.9,0.9c0.1,0,0.2,0,0.2,0c0.9,0.1,2.3-0.4,2.5,0.2
		c0.4,1,0.2,2.3,0.2,3.4c0,0.4-0.3,0.4-0.6,0.4c-0.7,0-1.4,0.1-2.1,0c-0.9-0.1-1.1,0.3-1.1,1.1c0,3,0,6.1,0,9.1
		c0,1.6,0.8,2.2,2.3,1.9c1.7-0.4,1.7-0.4,1.7,1.3c0,0.2,0,0.5,0,0.7c0.5,2,0.3,1.7-1.3,2c-1.9,0.4-3.8,0.6-5.6-0.3
		c-1-0.5-1.6-1.2-1.9-2.2c-0.3-0.9-0.5-1.8-0.5-2.8c0-3.3,0-6.5,0-9.8c0-0.8-0.2-1.2-1.1-1c-1.1,0.2-1.7-0.2-1.5-1.4
		c0-0.2,0-0.4,0-0.7c0-1.8,0-1.9,1.8-2c0.5,0,0.7-0.2,0.7-0.7c0,0,0-0.1,0-0.1c-0.4-2.2,0.3-3.7,2.5-4.6
		C556.9,556.4,557.7,555.7,558.7,555.1z"/>
	<path class="st7" d="M572,579.5c0,2.6,0,2.6-2.5,2.6c-2.7,0-2.7,0-2.7-2.7c0-2.5,0-2.5,2.5-2.5c0,0,0.1,0,0.1,0
		C572,576.9,572,576.9,572,579.5z"/>
	<path class="st8" d="M325.4,426.9c2.9-3.1,6.1-5.7,10.1-7.4c4-1.7,8.3-2.4,12.6-2.2c0.7,0,1.1,0.2,1.4,0.8c3.8,5.7,9.2,8.5,16,8.2
		c6.2-0.3,11.2-3.2,15-8.1c0.5-0.6,1-0.9,1.8-0.9c8.5-0.1,15.3,3.4,20.9,9.6c0.3,0.3,0.5,0.5,0.8,0.8c0.5,0.1,0.9,0.4,1.3,0.8
		c2.3,2.8,4,6,5.3,9.3c0.4,1,0.6,2,0.6,3.1c0.2,3.4,0.4,6.7,0.5,10.1c0.2,4.4,0.2,8.8,0.2,13.1c0,3.6-0.2,7.3-0.4,10.9
		c0,0.5-0.1,1-0.5,1.3c-0.1,2.8-0.3,5.6-0.3,8.4c0,1-0.2,1.7-0.7,2.6c-0.7,1.4-1.8,1.8-3.2,1.8c-8.7-0.1-17.5-0.1-26.2-0.2
		c-12.2-0.1-24.3-0.1-36.5-0.2c-7.3,0-14.6-0.1-21.8-0.1c-1,0-1.8-0.3-2.6-1c-1.4-1.1-2-2.4-1.9-4.2c0.1-2.2-0.1-4.5-0.2-6.7
		c-0.5-0.4-0.5-0.9-0.5-1.4c0.1-5.7-0.5-11.3-0.2-17c0.3-6.2,0.4-12.4,0.9-18.6c0.2-2,1.1-3.8,2-5.6c1.1-2.4,2.5-4.6,4.2-6.6
		C324.5,427.1,324.9,426.9,325.4,426.9z"/>
	<path class="st6" d="M325.4,426.9c-1.8,2.2-3.4,4.5-4.7,7c-1.5,3-2.3,6.1-2.5,9.4c-0.5,10.7-0.8,21.4-0.4,32.1c0,0.4,0,0.9,0,1.3
		c-19.6,0-39.2,0-58.9,0c-1.3,0-2.9-1.4-3-2.7c-0.6-6.6-0.7-13.2-0.3-19.8c0.2-4.3,0.7-8.6,1.9-12.8c3.4-11.2,14.1-18.6,25.5-17.7
		c0.5,0,0.9,0.1,1.2,0.6c4,7.1,10.7,9.5,18.4,6.5c3.5-1.4,6.3-3.7,8.5-6.8c0.3-0.5,0.6-0.8,1.2-0.7c4.4,0.4,8.6,1.4,12.7,3.1
		C325.1,426.6,325.3,426.8,325.4,426.9z"/>
	<path class="st9" d="M411,476.3c0.1-3.4,0.3-6.7,0.4-10.1c0.2-7.3-0.2-14.5-0.4-21.8c-0.1-6-2.5-10.9-6-15.5
		c-0.3-0.4-0.6-0.8-0.9-1.3c4.1-2.7,8.6-4,13.4-4.3c0.5,0,1,0,1.3,0.6c5.5,9.4,16.5,9.4,23.5,4.9c1.8-1.2,3.4-2.6,4.7-4.3
		c0.3-0.4,0.6-0.7,1.2-0.6c8.9,1,16.3,4.7,21.4,12.3c1.3,1.9,2.2,3.9,2.9,6.1c0.1,0.4,0.2,0.9,0.3,1.3c0.3,9.9,0.6,19.7,0.9,29.6
		c0,0.9-0.3,1.4-0.8,2.1c-1.2,1.5-2.6,1.9-4.5,1.8C449.2,476.7,430.1,476.5,411,476.3z"/>
	<path class="st10" d="M361.9,351.8c2.1,0,4.2,0,6.3,0c1.1,0.3,2.3,0.4,3.5,0.8c3.8,1.1,7.2,2.9,10.3,5.5c2.7,2.3,4.9,5,6.4,8.1
		c1.3,2.7,2.3,5.5,2.6,8.6c0.5,4.6,0.3,9.2,0.3,13.8c0,2.9-0.2,5.9-1.1,8.7c-1.1,3.5-2.8,6.7-5.2,9.5c-1.5,1.4-2.8,2.9-4.4,4.1
		c-3.9,2.8-8.2,4.6-12.9,5.1c-2.5,0.3-5,0.2-7.6-0.3c-2.6-0.4-5.1-1.2-7.4-2.4c-4-2-7.3-4.9-9.9-8.5c-2.3-3.3-3.8-7-4.5-11
		c-0.3-1.5-0.3-3.1-0.3-4.7c-0.1-3.3,0-6.6,0-9.9c0-4.3,0.7-8.4,2.6-12.3c1.1-2.2,2.3-4.3,4-6.1c1.4-1.4,2.8-2.8,4.4-4
		c2.8-2.1,5.9-3.5,9.3-4.4C359.4,352.3,360.7,352.3,361.9,351.8z"/>
	<path class="st6" d="M296.4,288.2c4.1,2.9,5.7,7.2,7.8,11.2c0.9,1.6,1.6,3.2,2.5,4.8c0.3,0.6,0.4,0.8-0.5,0.8c-2,0-3.9-0.1-5.9,0
		c-0.7,0-1-0.3-1.4-0.9c-2.1-3.9-4.4-7.7-6.4-11.6c-1.4-2.6-3.5-3.7-6.3-3.5c-0.7,0-0.9,0.2-0.9,1c0,4.7,0,9.3,0,14
		c0,0.8-0.1,1.1-1,1.1c-1.5-0.1-3.1,0-4.6,0c-0.5,0-0.7-0.2-0.7-0.7c0-1.1,0-2.2,0-3.3c0-11,0-22,0-33c0-0.9,0.2-1.2,1.2-1.2
		c4.8,0.1,9.7,0,14.5,0.1c2.7,0.1,5.3,0.5,7.2,2.7c1.4,1.6,2.3,3.6,2.5,5.7c0.4,3.6,0.1,7.1-2.5,9.9
		C300.5,286.8,298.7,287.6,296.4,288.2z"/>
	<path class="st6" d="M420,288.2c3.8,2.7,5.4,6.6,7.4,10.4c1.1,2.1,2.1,4.2,3.3,6.4c-2.5,0-4.8,0-7.1,0c-0.6,0-0.7-0.5-0.9-0.9
		c-2.2-3.9-4.4-7.7-6.4-11.6c-1.4-2.6-3.4-3.7-6.3-3.5c-0.8,0-1,0.3-1,1c0,4.6,0,9.2,0,13.7c0,1-0.2,1.3-1.2,1.3
		c-1.4-0.1-2.8,0-4.2,0c-0.6,0-0.9-0.1-0.9-0.8c0-12.2,0-24.3,0-36.5c0-0.4-0.1-0.8,0.6-0.8c5.6,0.1,11.2-0.3,16.7,0.3
		c4.4,0.5,6.8,2.7,7.8,7c0.6,2.4,0.5,4.8-0.1,7.2c-0.9,3.4-3.2,5.5-6.5,6.5C420.8,288,420.5,288,420,288.2z"/>
	<path class="st6" d="M397.7,285.9c0,3.9-0.5,7.8-2.2,11.4c-4.1,8.8-15.4,11.2-22.5,4.8c-2.9-2.6-4.3-6.1-5-9.8
		c-1-5.2-0.9-10.5,0.8-15.6c1.4-4.3,3.8-8,8.4-9.6c8.3-2.9,16.6,0.6,19.5,10.2c0.3,1,0.5,2,0.7,3.1
		C397.5,282.2,397.7,284.1,397.7,285.9z"/>
	<path class="st6" d="M310.5,285.9c0-6,0-11.9,0-17.9c0-0.9,0.2-1.2,1.2-1.2c7,0,14,0,20.9,0c0.9,0,1.2,0.2,1.1,1.1
		c-0.1,1.4-0.1,2.8,0,4.2c0.1,1.1-0.4,1.2-1.3,1.2c-4.8,0-9.5,0-14.3,0c-1.1,0-1.4,0.3-1.4,1.4c0.1,2,0.1,4.1,0,6.1
		c0,0.9,0.3,1.1,1.1,1c4.5,0,9,0,13.5,0c0.8,0,1.1,0.2,1.1,1.1c-0.1,1.4-0.1,2.9,0,4.3c0,0.8-0.2,1.1-1.1,1.1c-4.5,0-8.9,0-13.4,0
		c-0.9,0-1.2,0.2-1.2,1.2c0.1,2.7,0.1,5.5,0,8.2c0,0.8,0.2,1,1,1c5.1,0,10.1,0,15.2,0c1.1,0,1.3,0.3,1.3,1.3c-0.1,1.5,0,2.9,0,4.4
		c0,0.6-0.1,0.9-0.8,0.9c-7.4,0-14.8,0-22.2,0c-0.9,0-0.8-0.5-0.8-1.1C310.5,297.9,310.5,291.9,310.5,285.9z"/>
	<path class="st6" d="M339.6,285.9c0-6,0-11.9,0-17.9c0-0.9,0.2-1.2,1.2-1.2c4.4,0.1,8.8,0.1,13.2,0.1c5.6,0,8,3.4,9,7.1
		c0.9,3.4,0.9,6.8-0.3,10.1c-1.4,3.8-4.1,6-8.2,6.3c-2.5,0.2-5,0.2-7.5,0.2c-0.8,0-1,0.2-1,1c0,4.1,0,8.2,0,12.4
		c0,0.8-0.2,1.1-1,1.1c-1.4-0.1-2.9-0.1-4.3,0c-0.9,0-1-0.3-1-1.1C339.6,297.9,339.6,291.9,339.6,285.9z"/>
	<path class="st6" d="M447.4,289.2c0,4.9,0,9.8,0,14.7c0,0.8-0.2,1.1-1,1c-1.5-0.1-2.9-0.1-4.4,0c-1,0.1-1-0.4-1-1.1
		c0-8.1,0-16.1,0-24.2c0-1.8,0-3.6,0-5.4c0-0.8-0.3-1-1-1c-2.4,0-4.9,0-7.3,0c-0.7,0-1-0.2-1-0.9c0-1.5,0-3.1,0-4.6
		c0-0.7,0.1-0.9,0.9-0.9c7.7,0,15.4,0,23.1,0c0.7,0,0.9,0.3,0.9,0.9c0,1.5,0,3.1,0,4.6c0,0.8-0.3,0.9-1,0.9c-2.4,0-4.8,0-7.2,0
		c-0.8,0-1.1,0.2-1.1,1.1C447.4,279.3,447.4,284.3,447.4,289.2z"/>
	<path class="st7" d="M285.4,278.1c0-1.3,0-2.7,0-4c0-0.6,0.2-0.8,0.8-0.8c2.8,0.1,5.6-0.1,8.4,0.2c0.3,0,0.5,0.1,0.8,0.1
		c1.9,0.6,2.9,2.4,2.7,5.1c-0.2,2.3-1.3,3.7-3.4,4c-2.9,0.4-5.8,0.1-8.6,0.2c-0.6,0-0.7-0.3-0.7-0.7
		C285.4,280.8,285.4,279.5,285.4,278.1z"/>
	<path class="st7" d="M408.9,278.2c0-1.3,0-2.6,0-3.9c0-0.7,0.2-0.9,0.9-0.9c2.7,0.1,5.5-0.1,8.2,0.2c1.7,0.2,2.9,1.1,3.4,2.8
		c0.4,1.3,0.4,2.6-0.1,3.9c-0.5,1.5-1.5,2.4-3.1,2.6c-2.9,0.4-5.8,0.1-8.8,0.2c-0.6,0-0.6-0.3-0.6-0.7
		C408.9,280.9,408.9,279.5,408.9,278.2z"/>
	<path class="st7" d="M391.2,285.8c0,2.3-0.2,4.6-0.9,6.8c-0.2,0.7-0.5,1.5-0.9,2.2c-3.1,5.6-10.1,5.8-13.5,0.3
		c-1.2-2-1.7-4.3-1.9-6.6c-0.3-3.5-0.2-7,1.2-10.4c2-4.9,7.6-6.7,11.7-3.9c2.3,1.6,3.3,4,3.8,6.6C391,282.4,391.2,284.1,391.2,285.8
		z"/>
	<path class="st7" d="M345.9,278.7c0-1.5,0-3.1,0-4.6c0-0.6,0.2-0.8,0.8-0.8c2.1,0,4.1-0.1,6.2,0.2c2.9,0.3,4.7,3.1,4.1,6.3
		c-0.4,2.5-2,4-4.6,4.1c-1.9,0.1-3.8,0.1-5.7,0.1c-0.6,0-0.7-0.3-0.7-0.8C345.9,281.8,345.9,280.2,345.9,278.7z"/>
	<path class="st10" d="M316.4,413.3c-1.7,2-3.3,4.2-5.5,5.7c-2.3,1.6-4.7,2.9-7.5,3.7c-2,0.6-4.1,0.9-6.2,0.9
		c-2.1,0-4.3-0.1-6.4-0.8c-2.1-0.7-4.1-1.3-6-2.5c-4.7-2.9-8.1-6.8-9.9-12c-1.1-3-1.5-6-1.5-9.1c0-2.7,0-5.3,0-8
		c0-4.4,0.8-8.5,3-12.4c0.2-0.3,0.3-0.7,0.4-1.1c0.7-0.6,1.1-1.4,1.7-2.1c2.7-3.4,6.1-5.7,10.1-7.3c4-1.6,8.1-1.8,12.3-1.1
		c6,0.9,10.9,4,14.6,8.8c1.8,2.3,3,4.9,3.8,7.8c0.7,2.6,0.9,5.3,0.9,8c0.1,4.2,0.2,8.4-0.4,12.6c-0.4,2.6-1.3,5.1-2.6,7.3
		C316.9,412.2,316.7,412.7,316.4,413.3z"/>
	<path class="st10" d="M414.8,374.1c0.2-0.2,0.3-0.3,0.5-0.5c1.8-1.3,3.4-2.9,5.4-4c4.4-2.2,8.9-3.4,13.8-2.8
		c5.5,0.6,10.1,2.8,14.1,6.5c2.5,2.4,4.3,5.2,5.5,8.5c1.2,3.3,1.6,6.7,1.5,10.3c-0.1,2.9,0.1,5.8,0,8.7c-0.1,4.3-1.4,8.4-3.7,12.1
		c-0.4,0.6-0.7,1.2-1,1.7c-3.5,4.3-7.9,7.2-13.3,8.5c-2.8,0.7-5.6,0.8-8.5,0.4c-5.2-0.7-9.7-2.9-13.5-6.5c-0.4-0.3-0.7-0.7-1-1
		c-0.7-1.4-1.8-2.4-2.6-3.8c-2-3.6-3.2-7.4-3.2-11.5c-0.1-3.7-0.1-7.3,0-11c0.1-5.5,1.9-10.5,5.5-14.7
		C414.5,374.7,414.8,374.4,414.8,374.1z"/>
</g>
</svg>
