<?xml version="1.0" encoding="utf-8"?>
<!-- Generator: Adobe Illustrator 24.1.2, SVG Export Plug-In . SVG Version: 6.00 Build 0)  -->
<svg version="1.1" id="Layer_1" xmlns="http://www.w3.org/2000/svg" xmlns:xlink="http://www.w3.org/1999/xlink" x="0px" y="0px"
	 viewBox="0 0 800 800" style="enable-background:new 0 0 800 800;" xml:space="preserve">
<style type="text/css">
	.st0{fill:#333333;}
	.st1{clip-path:url(#SVGID_2_);}
	.st2{fill:#1D1D1B;}
	.st3{fill:#20AA62;}
	.st4{fill:#6F7172;}
	.st5{fill:#E24F36;}
	.st6{fill:#FCFBF1;}
	.st7{fill:#FEFDF3;}
	.st8{fill:#707273;}
</style>
<g id="Layer_2_3_">
	<g id="Layer_2_4_">
		<g>
			<circle class="st0" cx="400" cy="400" r="400"/>
		</g>
	</g>
</g>
<g>
	<defs>
		<circle id="SVGID_1_" cx="400" cy="400" r="400"/>
	</defs>
	<clipPath id="SVGID_2_">
		<use xlink:href="#SVGID_1_"  style="overflow:visible;"/>
	</clipPath>
	<g class="st1">
		<g>
			<path class="st2" d="M895.9,839.8c-0.3-0.4,0-0.8-0.2-1.2c-0.1-0.4-0.1-0.8-0.2-1.2c-0.8-3.9-2.8-7.3-5.5-9.8
				c-0.3-0.3-0.7-0.7-1-1c-0.3-0.3-0.7-0.7-1-1c-0.3-0.3-0.7-0.7-1-1c-0.3-0.3-0.7-0.7-1-1c-0.3-0.3-0.7-0.7-1-1
				c-0.3-0.3-0.7-0.7-1-1c-0.3-0.3-0.7-0.7-1-1c-0.3-0.3-0.7-0.7-1-1c-0.3-0.3-0.7-0.7-1-1c-0.3-0.3-0.7-0.7-1-1
				c-0.3-0.3-0.7-0.7-1-1c-0.3-0.3-0.7-0.7-1-1c-0.3-0.3-0.7-0.7-1-1c-0.3-0.3-0.7-0.7-1-1c-0.3-0.3-0.7-0.7-1-1
				c-0.3-0.3-0.7-0.7-1-1c-0.3-0.3-0.7-0.7-1-1c-0.3-0.3-0.7-0.7-1-1c-0.3-0.3-0.7-0.7-1-1c-0.3-0.3-0.7-0.7-1-1
				c-0.3-0.3-0.7-0.7-1-1c-0.3-0.3-0.7-0.7-1-1c-0.3-0.3-0.7-0.7-1-1c-0.3-0.3-0.7-0.7-1-1c-0.3-0.3-0.7-0.7-1-1
				c-0.3-0.3-0.7-0.7-1-1c-0.3-0.3-0.7-0.7-1-1c-0.3-0.3-0.7-0.7-1-1c-0.3-0.3-0.7-0.7-1-1c-0.3-0.3-0.7-0.7-1-1
				c-0.3-0.3-0.7-0.7-1-1c-0.3-0.3-0.7-0.7-1-1c-0.3-0.3-0.7-0.7-1-1c-0.3-0.3-0.7-0.7-1-1c-0.3-0.3-0.7-0.7-1-1
				c-0.3-0.3-0.7-0.7-1-1c-0.3-0.3-0.7-0.7-1-1c-0.3-0.3-0.7-0.7-1-1c-0.3-0.3-0.7-0.7-1-1c-0.3-0.3-0.7-0.7-1-1
				c-0.3-0.3-0.7-0.7-1-1c-0.3-0.3-0.7-0.7-1-1c-0.3-0.3-0.7-0.7-1-1c-0.3-0.3-0.7-0.7-1-1c-0.3-0.3-0.7-0.7-1-1
				c-0.3-0.3-0.7-0.7-1-1c-0.3-0.3-0.7-0.7-1-1c-0.3-0.3-0.7-0.7-1-1c-0.3-0.3-0.7-0.7-1-1c-0.3-0.3-0.7-0.7-1-1
				c-0.3-0.3-0.7-0.7-1-1c-0.3-0.3-0.7-0.7-1-1c-0.3-0.3-0.7-0.7-1-1c-0.3-0.3-0.7-0.7-1-1c-0.3-0.3-0.7-0.7-1-1
				c-0.3-0.3-0.7-0.7-1-1c-0.3-0.3-0.7-0.7-1-1c-0.3-0.3-0.7-0.7-1-1c-0.3-0.3-0.7-0.7-1-1c-0.3-0.3-0.7-0.7-1-1
				c-0.3-0.3-0.7-0.7-1-1c-0.3-0.3-0.7-0.7-1-1c-0.3-0.3-0.7-0.7-1-1c-0.3-0.3-0.7-0.7-1-1c-0.3-0.3-0.7-0.7-1-1
				c-0.3-0.3-0.7-0.7-1-1c-0.3-0.3-0.7-0.7-1-1c-0.3-0.3-0.7-0.7-1-1c-0.3-0.3-0.7-0.7-1-1c-0.3-0.3-0.7-0.7-1-1
				c-0.3-0.3-0.7-0.7-1-1c-0.3-0.3-0.7-0.7-1-1c-0.2-0.2-0.4-0.4-0.6-0.6c0-84.3,0-168.6,0-252.8c0-2.9-0.1-5.7-0.4-8.6
				c-1.5-12.3-6.6-22.9-14.9-31.9c-0.7-0.8-1.5-1.6-2.3-2.3c-0.3-0.3-0.7-0.7-1-1c-0.3-0.3-0.7-0.7-1-1c-0.3-0.3-0.7-0.7-1-1
				c-0.3-0.3-0.7-0.7-1-1c-0.3-0.3-0.7-0.7-1-1c-0.3-0.3-0.7-0.7-1-1c-0.3-0.3-0.7-0.7-1-1c-0.3-0.3-0.7-0.7-1-1
				c-0.3-0.3-0.7-0.7-1-1c-0.3-0.3-0.7-0.7-1-1c-0.3-0.3-0.7-0.7-1-1c-0.3-0.3-0.7-0.7-1-1c-0.3-0.3-0.7-0.7-1-1
				c-0.3-0.3-0.7-0.7-1-1c-0.3-0.3-0.7-0.7-1-1c-0.3-0.3-0.7-0.7-1-1c-0.3-0.3-0.7-0.7-1-1c-0.3-0.3-0.7-0.7-1-1
				c-0.3-0.3-0.7-0.7-1-1c-0.3-0.3-0.7-0.7-1-1c-0.3-0.3-0.7-0.7-1-1c-0.3-0.3-0.7-0.7-1-1c-0.3-0.3-0.7-0.7-1-1
				c-0.3-0.3-0.7-0.7-1-1c-0.3-0.3-0.7-0.7-1-1c-0.3-0.3-0.7-0.7-1-1c-0.3-0.3-0.7-0.7-1-1c-0.3-0.3-0.7-0.7-1-1
				c-0.3-0.3-0.7-0.7-1-1c-0.3-0.3-0.7-0.7-1-1c-0.3-0.3-0.7-0.7-1-1c-0.3-0.3-0.7-0.7-1-1c-0.3-0.3-0.7-0.7-1-1
				c-0.3-0.3-0.7-0.7-1-1c-0.3-0.3-0.7-0.7-1-1c-0.3-0.3-0.7-0.7-1-1c-0.3-0.3-0.7-0.7-1-1c-0.3-0.3-0.7-0.7-1-1
				c-0.3-0.3-0.7-0.7-1-1c-0.3-0.3-0.7-0.7-1-1c-0.3-0.3-0.7-0.7-1-1c-0.3-0.3-0.7-0.7-1-1c-0.3-0.3-0.7-0.7-1-1
				c-0.3-0.3-0.7-0.7-1-1c-0.3-0.3-0.7-0.7-1-1c-0.3-0.3-0.7-0.7-1-1c-0.3-0.3-0.7-0.7-1-1c-0.3-0.3-0.7-0.7-1-1
				c-0.3-0.3-0.7-0.7-1-1c-0.3-0.3-0.7-0.7-1-1c-0.3-0.3-0.7-0.7-1-1c-0.3-0.3-0.7-0.7-1-1c-0.3-0.3-0.7-0.7-1-1
				c-0.3-0.3-0.7-0.7-1-1c-0.3-0.3-0.7-0.7-1-1c-0.3-0.3-0.7-0.7-1-1c-0.3-0.3-0.7-0.7-1-1c-0.3-0.3-0.7-0.7-1-1
				c-0.3-0.3-0.7-0.7-1-1c-0.3-0.3-0.7-0.7-1-1c-0.3-0.3-0.7-0.7-1-1c-0.3-0.3-0.7-0.7-1-1c-0.3-0.3-0.7-0.7-1-1
				c-0.3-0.3-0.7-0.7-1-1c-0.3-0.3-0.7-0.7-1-1c-0.3-0.3-0.7-0.7-1-1c-0.3-0.3-0.7-0.7-1-1c-0.3-0.3-0.7-0.7-1-1
				c-0.3-0.3-0.7-0.7-1-1c-0.3-0.3-0.7-0.7-1-1c-0.3-0.3-0.7-0.7-1-1c-0.3-0.3-0.7-0.7-1-1c-0.3-0.3-0.7-0.7-1-1
				c-0.3-0.3-0.7-0.7-1-1c-0.3-0.3-0.7-0.7-1-1c-0.3-0.3-0.7-0.7-1-1c-0.3-0.3-0.7-0.7-1-1c-0.3-0.3-0.7-0.7-1-1
				c-0.3-0.3-0.7-0.7-1-1c-0.3-0.3-0.7-0.7-1-1c-0.3-0.3-0.7-0.7-1-1c-0.3-0.3-0.7-0.7-1-1c-0.3-0.3-0.7-0.7-1-1
				c-0.3-0.3-0.7-0.7-1-1c-0.3-0.3-0.7-0.7-1-1c-0.3-0.3-0.7-0.7-1-1c-0.3-0.3-0.7-0.7-1-1c-0.3-0.3-0.7-0.7-1-1
				c-0.3-0.3-0.7-0.7-1-1c-0.3-0.3-0.7-0.7-1-1c-0.3-0.3-0.7-0.7-1-1c-0.3-0.3-0.7-0.7-1-1c-0.3-0.3-0.7-0.7-1-1
				c-0.3-0.3-0.7-0.7-1-1c-0.3-0.3-0.7-0.7-1-1c-0.3-0.3-0.7-0.7-1-1c-0.3-0.3-0.7-0.7-1-1c-0.3-0.3-0.7-0.7-1-1
				c-0.3-0.3-0.7-0.7-1-1c-0.3-0.3-0.7-0.7-1-1c-0.3-0.3-0.7-0.7-1-1c-0.3-0.3-0.7-0.7-1-1c-0.3-0.3-0.7-0.7-1-1
				c-0.3-0.3-0.7-0.7-1-1c-0.3-0.3-0.7-0.7-1-1c-0.3-0.3-0.7-0.7-1-1c-0.3-0.3-0.7-0.7-1-1c-0.3-0.3-0.7-0.7-1-1
				c-0.3-0.3-0.7-0.7-1-1c-0.3-0.3-0.7-0.7-1-1c-0.3-0.3-0.7-0.7-1-1c-0.3-0.3-0.7-0.7-1-1c-0.3-0.3-0.7-0.7-1-1
				c-0.3-0.3-0.7-0.7-1-1c-0.3-0.3-0.7-0.7-1-1c-0.3-0.3-0.7-0.7-1-1c-0.3-0.3-0.7-0.7-1-1c-0.3-0.3-0.7-0.7-1-1
				c-0.3-0.3-0.7-0.7-1-1c-0.3-0.3-0.7-0.7-1-1c-0.3-0.3-0.7-0.7-1-1c-0.3-0.3-0.7-0.7-1-1c-0.3-0.3-0.7-0.7-1-1
				c-0.3-0.3-0.7-0.7-1-1c-0.3-0.3-0.7-0.7-1-1c-0.3-0.3-0.7-0.7-1-1c-0.3-0.3-0.7-0.7-1-1c-0.3-0.3-0.7-0.7-1-1
				c-0.3-0.3-0.7-0.7-1-1c-0.3-0.3-0.7-0.7-1-1c-0.3-0.3-0.7-0.7-1-1c-0.3-0.3-0.7-0.7-1-1c-0.3-0.3-0.7-0.7-1-1
				c-0.3-0.3-0.7-0.7-1-1c-0.3-0.3-0.7-0.7-1-1c-0.3-0.3-0.7-0.7-1-1c-0.3-0.3-0.7-0.7-1-1c-0.3-0.3-0.7-0.7-1-1
				c-0.3-0.3-0.7-0.7-1-1c-0.3-0.3-0.7-0.7-1-1c-0.3-0.3-0.7-0.7-1-1c-0.3-0.3-0.7-0.7-1-1c-0.3-0.3-0.7-0.7-1-1
				c-0.3-0.3-0.7-0.7-1-1c-0.3-0.3-0.7-0.7-1-1c-0.3-0.3-0.7-0.7-1-1c-0.3-0.3-0.7-0.7-1-1c-0.3-0.3-0.7-0.7-1-1
				c-0.3-0.3-0.7-0.7-1-1c-0.3-0.3-0.7-0.7-1-1c-0.3-0.3-0.7-0.7-1-1c-0.3-0.3-0.7-0.7-1-1c-0.3-0.3-0.7-0.7-1-1
				c-0.3-0.3-0.7-0.7-1-1c-0.3-0.3-0.7-0.7-1-1c-0.3-0.3-0.7-0.7-1-1c-0.3-0.3-0.7-0.7-1-1c-0.3-0.3-0.7-0.7-1-1
				c-0.3-0.3-0.7-0.7-1-1c-0.3-0.3-0.7-0.7-1-1c-0.3-0.3-0.7-0.7-1-1c-0.3-0.3-0.7-0.7-1-1c-0.3-0.3-0.7-0.7-1-1
				c-0.3-0.3-0.7-0.7-1-1c-0.3-0.3-0.7-0.7-1-1c-0.3-0.3-0.7-0.7-1-1c-0.3-0.3-0.7-0.7-1-1c-0.3-0.3-0.7-0.7-1-1
				c-0.3-0.3-0.7-0.7-1-1c-0.3-0.3-0.7-0.7-1-1c-0.3-0.3-0.7-0.7-1-1c-0.3-0.3-0.7-0.7-1-1c-0.3-0.3-0.7-0.7-1-1
				c-0.3-0.3-0.7-0.7-1-1c-0.3-0.3-0.7-0.7-1-1c-0.3-0.3-0.7-0.7-1-1c-0.3-0.3-0.7-0.7-1-1c-0.3-0.3-0.7-0.7-1-1
				c-0.3-0.3-0.7-0.7-1-1c-0.3-0.3-0.7-0.7-1-1c-0.3-0.3-0.7-0.7-1-1c-0.3-0.3-0.7-0.7-1-1c-0.3-0.3-0.7-0.7-1-1
				c-0.3-0.3-0.7-0.7-1-1c-0.3-0.3-0.7-0.7-1-1c-0.3-0.3-0.7-0.7-1-1c-0.3-0.3-0.7-0.7-1-1c-0.3-0.3-0.7-0.7-1-1
				c-0.3-0.3-0.7-0.7-1-1c-0.3-0.3-0.7-0.7-1-1c-0.3-0.3-0.7-0.7-1-1c-0.3-0.3-0.7-0.7-1-1c-0.3-0.3-0.7-0.7-1-1
				c-0.3-0.3-0.7-0.7-1-1c-0.3-0.3-0.7-0.7-1-1c-0.3-0.3-0.7-0.7-1-1c-0.3-0.3-0.7-0.7-1-1c-0.3-0.3-0.7-0.7-1-1
				c-0.3-0.3-0.7-0.7-1-1c-0.3-0.3-0.7-0.7-1-1c-0.3-0.3-0.7-0.7-1-1c-0.3-0.3-0.7-0.7-1-1c-0.3-0.3-0.7-0.7-1-1
				c-0.3-0.3-0.7-0.7-1-1c-0.3-0.3-0.7-0.7-1-1c-0.3-0.3-0.7-0.7-1-1c-0.3-0.3-0.7-0.7-1-1c-0.3-0.3-0.7-0.7-1-1
				c-0.3-0.3-0.7-0.7-1-1c-0.3-0.3-0.7-0.7-1-1c-0.3-0.3-0.7-0.7-1-1c-0.3-0.3-0.7-0.7-1-1c-0.3-0.3-0.7-0.7-1-1
				c-0.3-0.3-0.7-0.7-1-1c-0.3-0.3-0.7-0.7-1-1c-0.3-0.3-0.7-0.7-1-1c-0.3-0.3-0.7-0.7-1-1c-0.3-0.3-0.7-0.7-1-1
				c-0.3-0.3-0.7-0.7-1-1c-0.3-0.3-0.7-0.7-1-1c-0.3-0.3-0.7-0.7-1-1c-0.3-0.3-0.7-0.7-1-1c-0.3-0.3-0.7-0.7-1-1
				c-0.3-0.3-0.7-0.7-1-1c-0.3-0.3-0.7-0.7-1-1c-0.3-0.3-0.7-0.7-1-1c-0.3-0.3-0.7-0.7-1-1c-0.3-0.3-0.7-0.7-1-1
				c-0.3-0.3-0.7-0.7-1-1c-0.3-0.3-0.7-0.7-1-1c-0.3-0.3-0.7-0.7-1-1c-0.3-0.3-0.7-0.7-1-1c-0.3-0.3-0.7-0.7-1-1
				c-0.3-0.3-0.7-0.7-1-1c-0.3-0.3-0.7-0.7-1-1c-0.3-0.3-0.7-0.7-1-1c-0.3-0.3-0.7-0.7-1-1c-0.3-0.3-0.7-0.7-1-1
				c-0.3-0.3-0.7-0.7-1-1c-0.3-0.3-0.7-0.7-1-1c-0.3-0.3-0.7-0.7-1-1c-0.3-0.3-0.7-0.7-1-1c-0.3-0.3-0.7-0.7-1-1
				c-0.3-0.3-0.7-0.7-1-1c-0.3-0.3-0.7-0.7-1-1c-0.3-0.3-0.7-0.7-1-1c-0.3-0.3-0.7-0.7-1-1c-0.3-0.3-0.7-0.7-1-1
				c-0.3-0.3-0.7-0.7-1-1c-0.3-0.3-0.7-0.7-1-1c-0.3-0.3-0.7-0.7-1-1c-0.3-0.3-0.7-0.7-1-1c-0.3-0.3-0.7-0.7-1-1
				c-0.3-0.3-0.7-0.7-1-1c-0.3-0.3-0.7-0.7-1-1c-0.3-0.3-0.7-0.7-1-1c-0.3-0.3-0.7-0.7-1-1c-0.3-0.3-0.7-0.7-1-1
				c-0.3-0.3-0.7-0.7-1-1c-0.3-0.3-0.7-0.7-1-1c-0.3-0.3-0.7-0.7-1-1c-0.3-0.3-0.7-0.7-1-1c-0.3-0.3-0.7-0.7-1-1
				c-0.3-0.3-0.7-0.7-1-1c-0.3-0.3-0.7-0.7-1-1c-0.3-0.3-0.7-0.7-1-1c-0.3-0.3-0.7-0.7-1-1c-0.3-0.3-0.7-0.7-1-1
				c-0.3-0.3-0.7-0.7-1-1c-0.3-0.3-0.7-0.7-1-1c-0.3-0.3-0.7-0.7-1-1c-0.3-0.3-0.7-0.7-1-1c-0.3-0.3-0.7-0.7-1-1
				c-0.3-0.3-0.7-0.7-1-1c-0.3-0.3-0.7-0.7-1-1c-0.3-0.3-0.7-0.7-1-1c-0.3-0.3-0.7-0.7-1-1c-0.3-0.3-0.7-0.7-1-1
				c-0.3-0.3-0.7-0.7-1-1c-0.3-0.3-0.7-0.7-1-1c-0.3-0.3-0.7-0.7-1-1c-0.3-0.3-0.7-0.7-1-1c-0.3-0.3-0.7-0.7-1-1
				c-4.8-4.9-10.4-8.8-16.7-11.7c-6.1-2.8-12.4-4.6-19.2-4.5c-0.4,0-0.8,0-1.2,0c-0.6-0.1-1.1,0.1-1.7-0.1c-78.4,0-156.9,0-235.3,0
				c-0.5,0.2-1.1,0.1-1.6,0.1c-0.4,0-0.7,0-1.1,0c-2.4,0.1-4.7,0.1-7,0.5c-10.4,2.1-19.4,6.8-27.2,13.9c-5.6,5.1-10,11.2-13.2,18.2
				c-2.8,6.1-4.6,12.5-4.5,19.4c0,0.4,0,0.7,0,1.1c-0.1,0.5,0.1,1.1-0.1,1.6c0,107.8,0,215.6,0,323.4c0.2,0.5,0.1,1,0.1,1.5
				c0,0.5,0,0.9,0,1.4c0.1,3.1,0.2,6.3,1.1,9.4c2.8,10.5,7.9,19.5,15.6,26.9c0.3,0.3,0.7,0.7,1,1c0.3,0.3,0.7,0.7,1,1
				c0.3,0.3,0.7,0.7,1,1c0.3,0.3,0.7,0.7,1,1c0.3,0.3,0.7,0.7,1,1c0.3,0.3,0.7,0.7,1,1c0.3,0.3,0.7,0.7,1,1c0.3,0.3,0.7,0.7,1,1
				c0.3,0.3,0.7,0.7,1,1c0.3,0.3,0.7,0.7,1,1c0.3,0.3,0.7,0.7,1,1c0.3,0.3,0.7,0.7,1,1c0.3,0.3,0.7,0.7,1,1c0.3,0.3,0.7,0.7,1,1
				c0.3,0.3,0.7,0.7,1,1c0.3,0.3,0.7,0.7,1,1c0.3,0.3,0.7,0.7,1,1c0.3,0.3,0.7,0.7,1,1c0.3,0.3,0.7,0.7,1,1c0.3,0.3,0.7,0.7,1,1
				c0.3,0.3,0.7,0.7,1,1c0.3,0.3,0.7,0.7,1,1c0.3,0.3,0.7,0.7,1,1c0.3,0.3,0.7,0.7,1,1c0.3,0.3,0.7,0.7,1,1c0.3,0.3,0.7,0.7,1,1
				c0.3,0.3,0.7,0.7,1,1c0.3,0.3,0.7,0.7,1,1c0.3,0.3,0.7,0.7,1,1c0.3,0.3,0.7,0.7,1,1c0.3,0.3,0.7,0.7,1,1c0.3,0.3,0.7,0.7,1,1
				c0.3,0.3,0.7,0.7,1,1c0.3,0.3,0.7,0.7,1,1c0.3,0.3,0.7,0.7,1,1c0.3,0.3,0.7,0.7,1,1c0.3,0.3,0.7,0.7,1,1c0.3,0.3,0.7,0.7,1,1
				c0.3,0.3,0.7,0.7,1,1c0.3,0.3,0.7,0.7,1,1c0.3,0.3,0.7,0.7,1,1c0.3,0.3,0.7,0.7,1,1c0.3,0.3,0.7,0.7,1,1c0.3,0.3,0.7,0.7,1,1
				c0.3,0.3,0.7,0.7,1,1c0.3,0.3,0.7,0.7,1,1c0.3,0.3,0.7,0.7,1,1c0.3,0.3,0.7,0.7,1,1c0.3,0.3,0.7,0.7,1,1c0.3,0.3,0.7,0.7,1,1
				c0.3,0.3,0.7,0.7,1,1c0.3,0.3,0.7,0.7,1,1c0.3,0.3,0.7,0.7,1,1c0.3,0.3,0.7,0.7,1,1c0.3,0.3,0.7,0.7,1,1c0.3,0.3,0.7,0.7,1,1
				c0.3,0.3,0.7,0.7,1,1c0.3,0.3,0.7,0.7,1,1c0.3,0.3,0.7,0.7,1,1c0.3,0.3,0.7,0.7,1,1c0.3,0.3,0.7,0.7,1,1c0.3,0.3,0.7,0.7,1,1
				c0.3,0.3,0.7,0.7,1,1c0.3,0.3,0.7,0.7,1,1c0.3,0.3,0.7,0.7,1,1c0.3,0.3,0.7,0.7,1,1c0.3,0.3,0.7,0.7,1,1c0.3,0.3,0.7,0.7,1,1
				c0.3,0.3,0.7,0.7,1,1c0.3,0.3,0.7,0.7,1,1c0.3,0.3,0.7,0.7,1,1c0.3,0.3,0.7,0.7,1,1c0.3,0.3,0.7,0.7,1,1c0.3,0.3,0.7,0.7,1,1
				c0.3,0.3,0.7,0.7,1,1c0.3,0.3,0.7,0.7,1,1c0.3,0.3,0.7,0.7,1,1c0.3,0.3,0.7,0.7,1,1c0.3,0.3,0.7,0.7,1,1c0.3,0.3,0.7,0.7,1,1
				c0.3,0.3,0.7,0.7,1,1c0.3,0.3,0.7,0.7,1,1c0.3,0.3,0.7,0.7,1,1c0.3,0.3,0.7,0.7,1,1c0.3,0.3,0.7,0.7,1,1c0.3,0.3,0.7,0.7,1,1
				c0.3,0.3,0.7,0.7,1,1c0.3,0.3,0.7,0.7,1,1c0.3,0.3,0.7,0.7,1,1c0.3,0.3,0.7,0.7,1,1c0.3,0.3,0.7,0.7,1,1c0.3,0.3,0.7,0.7,1,1
				c0.3,0.3,0.7,0.7,1,1c0.3,0.3,0.7,0.7,1,1c0.3,0.3,0.7,0.7,1,1c0.3,0.3,0.7,0.7,1,1c0.3,0.3,0.7,0.7,1,1c0.3,0.3,0.7,0.7,1,1
				c0.3,0.3,0.7,0.7,1,1c0.3,0.3,0.7,0.7,1,1c0.3,0.3,0.7,0.7,1,1c0.3,0.3,0.7,0.7,1,1c0.3,0.3,0.7,0.7,1,1c0.3,0.3,0.7,0.7,1,1
				c0.3,0.3,0.7,0.7,1,1c0.3,0.3,0.7,0.7,1,1c0.3,0.3,0.7,0.7,1,1c0.3,0.3,0.7,0.7,1,1c0.3,0.3,0.7,0.7,1,1c0.3,0.3,0.7,0.7,1,1
				c0.3,0.3,0.7,0.7,1,1c0.3,0.3,0.7,0.7,1,1c0.3,0.3,0.7,0.7,1,1c0.3,0.3,0.7,0.7,1,1c0.3,0.3,0.7,0.7,1,1c0.3,0.3,0.7,0.7,1,1
				c0.3,0.3,0.7,0.7,1,1c0.3,0.3,0.7,0.7,1,1c0.3,0.3,0.7,0.7,1,1c0.3,0.3,0.7,0.7,1,1c0.3,0.3,0.7,0.7,1,1c0.3,0.3,0.7,0.7,1,1
				c0.3,0.3,0.7,0.7,1,1c0.3,0.3,0.7,0.7,1,1c0.3,0.3,0.7,0.7,1,1c0.3,0.3,0.7,0.7,1,1c0.3,0.3,0.7,0.7,1,1c0.3,0.3,0.7,0.7,1,1
				c0.3,0.3,0.7,0.7,1,1c0.3,0.3,0.7,0.7,1,1c0.3,0.3,0.7,0.7,1,1c0.3,0.3,0.7,0.7,1,1c0.3,0.3,0.7,0.7,1,1c0.3,0.3,0.7,0.7,1,1
				c0.3,0.3,0.7,0.7,1,1c0.3,0.3,0.7,0.7,1,1c0.3,0.3,0.7,0.7,1,1c0.3,0.3,0.7,0.7,1,1c0.3,0.3,0.7,0.7,1,1c0.3,0.3,0.7,0.7,1,1
				c0.3,0.3,0.7,0.7,1,1c0.3,0.3,0.7,0.7,1,1c0.3,0.3,0.7,0.7,1,1c0.3,0.3,0.7,0.7,1,1c0.3,0.3,0.7,0.7,1,1c0.3,0.3,0.7,0.7,1,1
				c0.3,0.3,0.7,0.7,1,1c0.3,0.3,0.7,0.7,1,1c0.3,0.3,0.7,0.7,1,1c0.3,0.3,0.7,0.7,1,1c0.3,0.3,0.7,0.7,1,1c0.3,0.3,0.7,0.7,1,1
				c0.3,0.3,0.7,0.7,1,1c0.3,0.3,0.7,0.7,1,1c0.3,0.3,0.7,0.7,1,1c0.3,0.3,0.7,0.7,1,1c0.3,0.3,0.7,0.7,1,1c0.3,0.3,0.7,0.7,1,1
				c0.3,0.3,0.7,0.7,1,1c0.3,0.3,0.7,0.7,1,1c0.3,0.3,0.7,0.7,1,1c0.3,0.3,0.7,0.7,1,1c0.3,0.3,0.7,0.7,1,1c0.3,0.3,0.7,0.7,1,1
				c0.3,0.3,0.7,0.7,1,1c0.3,0.3,0.7,0.7,1,1c0.3,0.3,0.7,0.7,1,1c0.3,0.3,0.7,0.7,1,1c0.3,0.3,0.7,0.7,1,1c0.3,0.3,0.7,0.7,1,1
				c0.3,0.3,0.7,0.7,1,1c0.3,0.3,0.7,0.7,1,1c0.3,0.3,0.7,0.7,1,1c0.3,0.3,0.7,0.7,1,1c0.3,0.3,0.7,0.7,1,1c0.3,0.3,0.7,0.7,1,1
				c0.3,0.3,0.7,0.7,1,1c0.3,0.3,0.7,0.7,1,1c0.3,0.3,0.7,0.7,1,1c0.3,0.3,0.7,0.7,1,1c0.3,0.3,0.7,0.7,1,1c0.3,0.3,0.7,0.7,1,1
				c0.3,0.3,0.7,0.7,1,1c0.3,0.3,0.7,0.7,1,1c0.3,0.3,0.7,0.7,1,1c0.3,0.3,0.7,0.7,1,1c0.3,0.3,0.7,0.7,1,1c0.3,0.3,0.7,0.7,1,1
				c0.3,0.3,0.7,0.7,1,1c0.3,0.3,0.7,0.7,1,1c0.3,0.3,0.7,0.7,1,1c0.3,0.3,0.7,0.7,1,1c0.3,0.3,0.7,0.7,1,1c0.3,0.3,0.7,0.7,1,1
				c0.3,0.3,0.7,0.7,1,1c0.3,0.3,0.7,0.7,1,1c0.3,0.3,0.7,0.7,1,1c0.3,0.3,0.7,0.7,1,1c0.3,0.3,0.7,0.7,1,1c0.3,0.3,0.7,0.7,1,1
				c0.3,0.3,0.7,0.7,1,1c0.3,0.3,0.7,0.7,1,1c0.3,0.3,0.7,0.7,1,1c0.3,0.3,0.7,0.7,1,1c0.3,0.3,0.7,0.7,1,1c0.3,0.3,0.7,0.7,1,1
				c0.3,0.3,0.7,0.7,1,1c0.3,0.3,0.7,0.7,1,1c0.3,0.3,0.7,0.7,1,1c0.3,0.3,0.7,0.7,1,1c0.3,0.3,0.7,0.7,1,1c0.3,0.3,0.7,0.7,1,1
				c0.3,0.3,0.7,0.7,1,1c0.3,0.3,0.7,0.7,1,1c0.3,0.3,0.7,0.7,1,1c0.3,0.3,0.7,0.7,1,1c0.3,0.3,0.7,0.7,1,1c0.3,0.3,0.7,0.7,1,1
				c0.3,0.3,0.7,0.7,1,1c0.3,0.3,0.7,0.7,1,1c0.3,0.3,0.7,0.7,1,1c0.3,0.3,0.7,0.7,1,1c0.3,0.3,0.7,0.7,1,1c0.3,0.3,0.7,0.7,1,1
				c0.3,0.3,0.7,0.7,1,1c0.3,0.3,0.7,0.7,1,1c0.3,0.3,0.7,0.7,1,1c0.3,0.3,0.7,0.7,1,1c0.3,0.3,0.7,0.7,1,1c0.3,0.3,0.7,0.7,1,1
				c0.3,0.3,0.7,0.7,1,1c0.3,0.3,0.7,0.7,1,1c0.3,0.3,0.7,0.7,1,1c0.3,0.3,0.7,0.7,1,1c0.3,0.3,0.7,0.7,1,1c0.3,0.3,0.7,0.7,1,1
				c0.3,0.3,0.7,0.7,1,1c0.3,0.3,0.7,0.7,1,1c0.3,0.3,0.7,0.7,1,1c0.3,0.3,0.7,0.7,1,1c0.3,0.3,0.7,0.7,1,1c0.3,0.3,0.7,0.7,1,1
				c0.3,0.3,0.7,0.7,1,1c0.3,0.3,0.7,0.7,1,1c0.3,0.3,0.7,0.7,1,1c0.3,0.3,0.7,0.7,1,1c0.3,0.3,0.7,0.7,1,1c0.3,0.3,0.7,0.7,1,1
				c0.3,0.3,0.7,0.7,1,1c0.3,0.3,0.7,0.7,1,1c0.3,0.3,0.7,0.7,1,1c0.3,0.3,0.7,0.7,1,1c0.3,0.3,0.7,0.7,1,1c0.3,0.3,0.7,0.7,1,1
				c0.3,0.3,0.7,0.7,1,1c0.3,0.3,0.7,0.7,1,1c0.3,0.3,0.7,0.7,1,1c0.3,0.3,0.7,0.7,1,1c0.3,0.3,0.7,0.7,1,1c0.3,0.3,0.7,0.7,1,1
				c0.3,0.3,0.7,0.7,1,1c0.3,0.3,0.7,0.7,1,1c0.3,0.3,0.7,0.7,1,1c0.3,0.3,0.7,0.7,1,1c0.3,0.3,0.7,0.7,1,1c0.3,0.3,0.7,0.7,1,1
				c0.3,0.3,0.7,0.7,1,1c0.3,0.3,0.7,0.7,1,1c0.3,0.3,0.7,0.7,1,1c0.3,0.3,0.7,0.7,1,1c0.3,0.3,0.7,0.7,1,1c0.3,0.3,0.7,0.7,1,1
				c0.3,0.3,0.7,0.7,1,1c0.3,0.3,0.7,0.7,1,1c0.3,0.3,0.7,0.7,1,1c0.3,0.3,0.7,0.7,1,1c0.3,0.3,0.7,0.7,1,1c0.3,0.3,0.7,0.7,1,1
				c0.3,0.3,0.7,0.7,1,1c0.3,0.3,0.7,0.7,1,1c0.3,0.3,0.7,0.7,1,1c0.3,0.3,0.7,0.7,1,1c0.3,0.3,0.7,0.7,1,1c1.3,1.4,2.8,2.7,4.3,3.9
				c10.4,8.7,22.4,13.2,36,13.2c64,0.1,128.1,0,192.1,0c0.3,0.3,0.5,0.5,0.8,0.8c0.3,0.3,0.7,0.7,1,1c0.3,0.3,0.7,0.7,1,1
				c0.3,0.3,0.7,0.7,1,1c0.3,0.3,0.7,0.7,1,1c0.3,0.3,0.7,0.7,1,1c0.3,0.3,0.7,0.7,1,1c0.3,0.3,0.7,0.7,1,1c0.3,0.3,0.7,0.7,1,1
				c0.3,0.3,0.7,0.7,1,1c0.3,0.3,0.7,0.7,1,1c0.3,0.3,0.7,0.7,1,1c0.3,0.3,0.7,0.7,1,1c0.3,0.3,0.7,0.7,1,1c0.3,0.3,0.7,0.7,1,1
				c0.3,0.3,0.7,0.7,1,1c0.3,0.3,0.7,0.7,1,1c0.3,0.3,0.7,0.7,1,1c0.3,0.3,0.7,0.7,1,1c0.3,0.3,0.7,0.7,1,1c0.3,0.3,0.7,0.7,1,1
				c0.3,0.3,0.7,0.7,1,1c0.3,0.3,0.7,0.7,1,1c0.3,0.3,0.7,0.7,1,1c0.3,0.3,0.7,0.7,1,1c0.3,0.3,0.7,0.7,1,1c0.3,0.3,0.7,0.7,1,1
				c0.3,0.3,0.7,0.7,1,1c0.3,0.3,0.7,0.7,1,1c0.3,0.3,0.7,0.7,1,1c0.3,0.3,0.7,0.7,1,1c3.3,3.6,8.1,5.8,13.4,5.8
				c25.6,0,51.2,0,76.8,0c0.8-0.3,0.6-1.1,0.8-1.6c0.8-3.3,2.3-5.8,4.6-7.7c0.2,0.1,0.4,0.1,0.6,0.1c0,0.1,0,0.2,0,0.3
				c0.1,0.6,0.6,0.6,1,0.7c0,0.1,0,0.2,0,0.3c0.1,0.6,0.6,0.6,1,0.7c0,0.1,0,0.2,0,0.3c0.1,0.6,0.6,0.6,1.1,0.7
				c0.2,0,0.3,0.1,0.5,0.1c0.1,0.2,0.3,0.4,0.6,0.5c0,0,0.1,0,0.1,0c0.1,0.4,0.3,0.9,0.9,1c0,0,0.1,0,0.1,0c0.1,0.4,0.3,0.9,0.9,1
				c0,0,0.1,0,0.1,0c0.1,0.4,0.3,0.9,0.9,1c0,0,0.1,0,0.1,0c0.1,0.4,0.3,0.9,0.9,1c0,0,0.1,0,0.1,0c0.1,0.4,0.3,0.9,0.9,1
				c0,0,0.1,0,0.1,0c0.1,0.4,0.3,0.9,0.9,1c1.2,0.3,2.4,0.3,3.5,0c0.9-0.4,0.7-1.4,0.9-2.1c0.8-3.2,2.3-5.7,4.5-7.6
				c0.1,0.1,0.3,0.1,0.4,0.1c0,0,0.1,0,0.1,0c0,0.1,0,0.2,0,0.4c0.1,0.4,0.5,0.5,0.9,0.6c0,0,0.1,0,0.1,0c0,0.1,0,0.2,0,0.4
				c0.1,0.4,0.5,0.5,0.9,0.6c0,0,0.1,0,0.1,0c0,0.1,0,0.2,0,0.4c0.1,0.4,0.5,0.5,0.9,0.6c0.1,0,0.3,0.1,0.4,0.1c0.1,0,0.2,0,0.2,0.1
				c0.1,0.1,0.2,0.3,0.4,0.4c0.1,0.1,0.3,0.1,0.4,0.2c0.1,0.3,0.2,0.6,0.6,0.8c0.1,0.1,0.3,0.1,0.4,0.2c0.1,0.3,0.2,0.6,0.6,0.8
				c0.1,0.1,0.3,0.1,0.4,0.2c0.1,0.3,0.2,0.6,0.6,0.8c0.1,0.1,0.3,0.1,0.4,0.2c0.1,0.3,0.2,0.6,0.6,0.8c0.1,0.1,0.3,0.1,0.4,0.2
				c0.1,0.3,0.2,0.6,0.6,0.8c0.1,0.1,0.3,0.1,0.4,0.2c0.1,0.3,0.2,0.6,0.6,0.8c0.5,0.2,1.1,0.3,1.7,0.3c5.4-0.2,10-2.3,13.6-6.4
				c2.5-2.8,4.1-6,4-9.9c0.1-0.4-0.1-0.8,0.1-1.2C895.9,877.9,895.9,858.9,895.9,839.8z"/>
		</g>
	</g>
</g>
<g>
	<path class="st3" d="M188.1,539.4c0-108.8,0-217.5,0-326.3c0.2-2,0.2-4,0.4-6c0.3-3.4,1.3-6.6,2.5-9.8c2.1-6,5.3-11.5,9.3-16.4
		c4.4-5.5,9.7-10,15.7-13.5c5.2-3,10.7-5.1,16.5-6.4c2.3-0.5,4.7-0.5,7.1-0.6c0.4,0,0.9,0.1,1.3-0.1c79.5,0,159,0,238.4,0
		c2,0.2,3.9,0.2,5.9,0.4c3.6,0.3,7,1.4,10.3,2.6c6,2.2,11.4,5.3,16.4,9.4c9,7.5,15.2,16.8,18.5,28c1.6,5.5,2.3,11.1,2.3,16.8
		c0,103.2,0,206.3,0,309.5c0,1.1,0.2,2.3-0.4,3.3c-0.4,0.4-0.9,0.3-1.4,0.3c-5.1,0-10.1,0-15.2,0c-0.4,0-0.8,0-1.1-0.2
		c-0.7-0.2-0.8-0.7-0.8-1.3c-0.1-2-0.8-3.7-2.1-5.2c-1.7-1.9-3.7-2.9-6.3-2.3c-3.3,0.8-6.4,3.2-6.4,7.3c0,0.5,0.1,1.2-0.7,1.3
		c-0.1,0-0.2-0.1-0.3-0.2c-0.3-0.4-0.3-0.9-0.3-1.4c0-0.8,0-1.7,0-2.5c0-103,0-205.9,0-308.9c0-5.6-1.7-10.5-5.3-14.8
		c-3.6-4.2-8.2-6.7-13.6-7.5c-1.2-0.2-2.5-0.3-3.7-0.3c-76.7,0-153.3,0-230,0c-6,0-11.3,1.9-15.7,6c-3.8,3.5-6,7.9-6.7,13
		c-0.2,1.2-0.2,2.5-0.2,3.7c0,105.9,0,211.9,0,317.8c0,6.1,2,11.4,6.1,15.8c3.5,3.7,7.9,5.9,12.9,6.6c1.3,0.2,2.7,0.2,4.1,0.2
		c69.6,0,139.2,0,208.7,0c1.1,0,2.2-0.2,3.3,0.4c0.6,0.7,0.4,1.5,0.4,2.3c0,7.7,0,15.4,0,23.1c0,2.3,0,4.7,0,7
		c0,0.6,0.1,1.2-0.3,1.8c-0.4,0.4-1,0.5-1.6,0.5c-0.8,0-1.6,0-2.4,0c-69.8,0-139.7,0-209.5,0c-13.6,0-25.8-4.5-36.3-13.2
		c-9.3-7.7-15.5-17.6-18.7-29.3c-0.9-3.1-1-6.3-1.2-9.5C188.2,540.3,188.4,539.8,188.1,539.4z"/>
	<path class="st4" d="M552.3,621.1c-25.5,0-51,0-76.5,0c-8.9,0-16.1-5.9-18-14.6c-0.4-1.7-0.3-3.4-0.3-5.2c0-3,0-6.1,0-9.1
		c0-11.3,0-22.6,0-33.9c-0.3-0.3-0.5-0.6-0.5-1c0-4-0.4-8.1,0.2-12c1.3-9,9.2-15.7,18.3-15.7c1.2,0,2.3-0.2,3.5,0.3
		c0.4,0.2,0.5,0.6,0.6,1c0.8,3.5,2.8,5.6,6.4,6.3c0.1,0,0.1,0,0.2,0.1c0.4,0.1,0.8,0.2,0.8,0.6c0.1,0.5-0.2,0.8-0.6,1
		c-1.5,0.9-3.1,1.7-5,1.7c-0.2,0-0.3,0-0.5,0c-0.7,0-1.5,0-1.6,1c-0.1,0.8,0.5,1.7,1.4,1.9c1,0.2,2,0.2,2.9-0.1
		c5.5-1.6,9.1-5,10.4-10.8c0.1-0.6,0.2-1.1,0.2-1.7c0-0.5,0.1-1,0.7-1.2c1.2-0.2,2.4-0.5,3.5,0.3c0.1,0,0.1,0,0.2,0
		c0.6,0.1,0.6,0.6,0.7,1.1c0.8,3.3,2.8,5.3,6.1,6c0.5,0.1,1.1,0.1,1.2,0.8c0.1,0.7-0.5,0.9-1,1.2c-1.5,0.8-3.1,1.5-4.9,1.4
		c-0.8,0-1.6,0-1.7,1c-0.1,0.9,0.6,1.8,1.6,1.9c0.9,0.1,1.7,0.2,2.6-0.1c6-1.7,9.9-5.4,10.8-12.3c0.1-0.4,0-0.9,0.6-1.1
		c5.9,0,11.8,0,17.8,0c0.5,0,0.9,0,1.4,0c18.3,0,36.5,0,54.8,0c9.6,0,16.8,6.1,18.5,15.6c0,0.1,0.1,0.3,0.2,0.4
		c0,19.6,0,39.3,0,58.9c-0.2,0.6-0.2,1.2-0.2,1.8c-0.1,3.1-1.5,5.5-3.4,7.8c-3.2,4-7.4,6.2-12.5,6.9c-1.1,0.1-2.2,0.2-3.2-0.2
		c-0.4-0.3-0.5-0.7-0.7-1.1c-1-2.9-3-4.7-6-5.3c-0.5-0.1-1.1-0.1-1.2-0.8c-0.1-0.6,0.4-0.9,0.9-1.2c1.6-0.9,3.3-1.5,5.1-1.5
		c0.7,0,1.5,0,1.6-1c0.1-0.9-0.4-1.6-1.2-1.9c-1-0.4-2-0.3-2.9,0c-3.2,1-6.2,2.5-8.2,5.3c-1.3,1.9-2.2,4-2.6,6.3
		c-0.1,0.5-0.1,1-0.7,1.2c-1.2,0.3-2.4,0.3-3.5,0c-0.6-0.1-0.8-0.7-0.9-1.2c-1-3-3.1-4.8-6.2-5.4c-0.4-0.1-0.9-0.1-1-0.7
		c-0.1-0.5,0.3-0.8,0.7-1.1c1.6-1,3.3-1.7,5.2-1.6c0.8,0,1.6,0.1,1.7-1c0.1-1-0.4-1.6-1.4-2c-1-0.3-2-0.1-3,0.2
		c-5.5,1.6-8.9,5.2-10.3,10.7C553,620.1,553.1,620.8,552.3,621.1z"/>
	<path class="st5" d="M587.9,621.1c0,0.7,0.1,1.5,0.1,2.2c-0.1,4.4-3.5,6.8-6.8,7.7c-0.2,0.1-0.5,0.1-0.7,0.2c-0.5,0-1.1,0-1.6,0
		c-0.1,0-0.1-0.1-0.2-0.1c-1.8,0.1-3.2-0.7-4.4-2c-1.9-1.9-2.6-4.2-2.7-6.8c0-0.5,0.1-0.9,0.5-1.2c0.8-7.1,5.3-11.8,12.2-13.2
		c0.9-0.2,1.8-0.1,2.6,0.3c1.1,0.5,1.6,2,1.1,3.1c-0.4,0.8-1,0.8-1.7,0.7c-2.3-0.2-4.3,0.7-6.3,2.1
		C584.3,614.7,586.9,617,587.9,621.1z"/>
	<path class="st5" d="M552.3,621.1c0.8-7.2,5.3-11.8,12.2-13.2c0.9-0.2,1.7-0.1,2.5,0.3c1.2,0.5,1.7,2,1.2,3.1
		c-0.3,0.7-1,0.8-1.6,0.7c-2.3-0.2-4.3,0.6-6.4,2.1c4.4,0.5,7,2.8,7.9,6.9c0.5,0.4,0.7,0.9,0.7,1.6c0,4.8-3.4,8.5-7.8,8.5
		c-0.1,0-0.1,0.1-0.2,0.1c-0.6,0-1.2,0-1.8,0c-2.8-0.6-4.6-2.4-5.9-4.8C552.3,624.8,552.5,622.9,552.3,621.1z"/>
	<path class="st6" d="M478.9,530.1c-3.2,0-6.4-0.1-9.4,1.1c-7.1,2.6-11.9,9.3-12,16.9c0,3.4,0,6.8,0,10.2c-71,0-142,0-213,0
		c-12.4,0-22.4-10.2-22.4-22.5c0-106.4,0-212.7,0-319.1c0-12.6,10.1-22.6,22.7-22.6c52.2,0,104.5,0,156.7,0c24.6,0,49.2,0,73.8,0
		c11.5,0,20.6,7.4,22.8,18.7c0.3,1.6,0.3,3.1,0.3,4.7c0,102.9,0,205.8,0,308.7c0,1.3,0,2.6,0,3.8c-1.2,0-2.4,0-3.5,0.1
		c-0.7-0.1-0.6-0.7-0.6-1.2c-0.2-1.8-0.8-3.5-2-4.9c-1.7-2-3.8-3.1-6.4-2.4c-3.3,0.8-6.3,3.2-6.3,7.2
		C479.5,529.3,479.6,529.9,478.9,530.1z"/>
	<path class="st5" d="M514.5,530.1c-0.3,7.8-4.8,11.8-10.6,13.7c-1.1,0.4-2.2,0.4-3.3,0.3c-1-0.1-1.8-0.6-2.1-1.6
		c-0.5-1.5,0.2-2.5,1.8-2.5c2.3,0.1,4.2-0.7,6.3-2.1c-4.9-0.6-7.5-3.2-8-7.8c0-0.6,0-1.1,0-1.7c0.3-4.6,5.3-8.4,9.8-7.3
		c3,0.7,5.7,4,5.9,7.6C514.4,529.1,514.5,529.6,514.5,530.1z"/>
	<path class="st7" d="M495.5,585.1c1.3,1,2.7,1.7,4.2,2.3c0.8,0.3,0.6,0.6,0.3,1.1c-0.5,1-1,1.9-1.4,2.9c-0.3,0.9-0.8,0.9-1.5,0.6
		c-1.8-0.8-3.4-1.9-5-3c-0.5-0.4-0.9-0.3-1.5-0.2c-5.3,1.6-10.5,1.6-15.2-1.7c-2.8-2-4.5-4.8-5.2-8.2c-0.7-3.5-0.7-7,0.2-10.5
		c1.4-5.3,5.8-9.3,11.4-10c2.5-0.3,5-0.2,7.5,0.4c4.9,1.3,7.9,4.5,9.3,9.2c1.2,4.2,1.1,8.5-0.4,12.7
		C497.6,582.4,496.7,583.8,495.5,585.1z"/>
	<path class="st7" d="M528.6,578c0.1-6.6,4.5-11.6,11.6-11.5c6.4,0.1,11.3,4.8,11.2,12c-0.1,6.2-5.1,11.6-11.8,11.2
		C533,589.4,528.8,585.4,528.6,578z"/>
	<path class="st7" d="M582.2,579.8c-2.2,0-4.4,0-6.7,0c-0.5,0-1,0-0.8,0.7c0.4,2.7,1.8,4.8,5,4.8c1.5,0,2.6-0.7,3.2-2.1
		c0.3-0.7,0.6-1.1,1.6-0.9c1.3,0.3,2.6,0.3,4,0.5c0.8,0.1,0.5,0.5,0.4,0.8c-1.3,3-3.3,5.2-6.6,5.9c-2.8,0.6-5.5,0.4-8.1-0.8
		c-2.6-1.3-4.1-3.5-4.8-6.2c-1-3.7-0.8-7.3,1-10.8c1.6-3.1,4.2-4.7,7.5-5.1c3.3-0.4,6.4,0.4,8.8,2.9c1.7,1.8,2.5,4.1,2.8,6.5
		c0.1,1,0.3,2,0.3,3c0,0.7-0.2,0.9-0.9,0.9C586.6,579.8,584.4,579.8,582.2,579.8z"/>
	<path class="st7" d="M518.7,586.1c-2.2,2.6-4.9,3.9-8,3.6c-3.7-0.3-6-2.2-6.4-5.9c-0.6-5.4-0.1-10.8-0.3-16.2
		c0-0.7,0.3-0.7,0.8-0.7c1.3,0,2.6,0.1,3.9,0c0.9,0,1.1,0.2,1.1,1.1c-0.1,4.1,0,8.2,0,12.3c0,0.9,0.1,1.8,0.4,2.7
		c0.8,2.5,4,2.8,6.1,1.2c1.7-1.3,1.7-3.2,1.8-4.9c0.1-3.8,0.1-7.5,0-11.3c0-0.8,0.1-1.1,1-1.1c1.3,0.1,2.6,0,3.9,0
		c0.6,0,0.9,0.1,0.9,0.8c0,6.9,0,13.8,0,20.7c0,0.7-0.2,0.9-0.9,0.9c-1.3-0.1-2.6,0-3.8,0c-0.5,0-0.7-0.2-0.7-0.7
		C518.7,587.8,518.7,587.1,518.7,586.1z"/>
	<path class="st5" d="M478.9,530.1c0-0.6,0-1.1,0-1.7c0.1-5.3,6.4-8.4,10-7.4c2.3,0.6,5.8,4.1,5.8,7.6c0,0.5,0.1,1,0.1,1.5
		c-0.1,3.9-1.4,7.3-4.1,9.9c-2.6,2.5-5.6,4.3-9.4,4.1c-1.5-0.1-2.4-0.9-2.5-2.2c-0.1-1.4,0.4-2,1.8-1.9c2.1,0.1,3.9-0.6,5.6-1.6
		c0.1-0.1,0.3-0.2,0.4-0.3c0,0,0.1-0.1,0.1-0.3C482.1,537.3,479.5,534.7,478.9,530.1z"/>
	<path class="st7" d="M567,584.2c0.1,1.3-0.1,2.5,0.2,3.6c0.2,0.8-0.1,1.2-1,1.4c-2.7,0.6-5.4,1-7.9-0.7c-1-0.7-1.2-1.7-1.5-2.6
		c-0.2-0.9-0.3-1.8-0.3-2.8c0-3.4,0-6.8,0-10.3c0-1.1-0.2-1.6-1.4-1.4c-0.2,0-0.5,0-0.7,0c-0.6,0.1-0.7-0.2-0.7-0.7c0-1,0-2,0-3
		c0-0.6,0.2-0.8,0.8-0.8c1.9-0.1,2.1-0.1,1.9-2c-0.2-1.8,0.5-2.7,2-3.4c1.3-0.6,2.5-1.4,3.9-2.3c0,2.3,0,4.5,0,6.7
		c0,0.9,0.2,1.1,1.1,1.1c0.9-0.1,1.7,0,2.6,0c0.5,0,0.7,0.1,0.7,0.6c0,1.1,0,2.2,0,3.3c0,0.5-0.2,0.6-0.7,0.6c-0.9,0-1.9,0-2.8,0
		c-0.5,0-0.8,0.1-0.8,0.7c0,3.6,0,7.2,0,10.8c0,1.3,1.1,2.1,2.5,1.7C565.7,584.6,566.3,584.4,567,584.2z"/>
	<path class="st8" d="M362.2,355.4c40.3,0,80.7,0,121,0c4.7,0,7.5,2.7,7.5,7.5c0,1.5,0.2,3-0.2,4.5c-0.8,3-3.4,5.1-6.5,5.2
		c-0.2,0-0.3,0-0.5,0c-80.9,0-161.8,0-242.7,0c-3.3,0-5.9-1.7-6.7-4.6c-0.8-2.6-0.7-5.3,0-7.9c0.8-2.9,3.5-4.6,6.7-4.6
		c34.1,0,68.2,0,102.3,0C349.5,355.4,355.9,355.4,362.2,355.4z"/>
	<path class="st8" d="M362.2,411.4c40.3,0,80.7,0,121,0c4.7,0,7.5,2.8,7.5,7.5c0,1.5,0.2,3-0.2,4.5c-0.8,3-3.4,5.1-6.5,5.2
		c-0.3,0-0.6,0-0.9,0c-80.7,0-161.3,0-242,0c-3.8,0-6.6-2-7.2-5.5c-0.4-2-0.4-4.1,0-6.2c0.6-3.3,3.3-5.5,6.7-5.5
		c9.9,0,19.8,0,29.7,0C301,411.4,331.6,411.4,362.2,411.4z"/>
	<path class="st8" d="M340.3,455.2c-33,0-66,0-99,0c-4.8,0-7.6-2.7-7.6-7.5c0-1.5-0.2-2.9,0.2-4.4c0.7-3.1,3.4-5.2,6.5-5.2
		c0.4,0,0.8,0,1.1,0c65.9,0,131.8,0,197.7-0.1c4.5,0,8.2,3,7.8,7.9c-0.1,1.3,0.1,2.6-0.2,3.8c-0.6,3-3.3,5.3-6.3,5.5
		c-0.5,0-1,0-1.5,0C406.2,455.2,373.3,455.2,340.3,455.2z"/>
	<path class="st8" d="M340.3,400.5c-33,0-66,0-99,0c-4.8,0-7.6-2.7-7.6-7.5c0-1.5-0.2-2.9,0.2-4.4c0.7-3.1,3.4-5.2,6.5-5.2
		c0.3,0,0.7,0,1,0c66,0,131.9,0,197.9,0c4.4,0,8,3,7.7,7.7c-0.1,1.3,0.1,2.6-0.1,3.8c-0.6,3.3-3.3,5.6-6.6,5.7c-2.5,0-5,0-7.5,0
		C402,400.5,371.2,400.5,340.3,400.5z"/>
	<path class="st5" d="M285.7,276.5c4.7,3.7,6.4,9.3,9.2,14.2c0.4,0.7,0.7,1.3,1,2c0.2,0.4,0.1,0.5-0.3,0.5c-2.2,0-4.4,0-6.5,0
		c-0.6,0-0.7-0.5-0.9-0.9c-2.2-4-4.5-7.9-6.6-11.9c-1.4-2.7-3.7-3.4-6.5-3.3c-0.8,0-0.6,0.6-0.6,1c0,4.6,0,9.2,0,13.8
		c0,1.1-0.3,1.3-1.3,1.3c-1.4-0.1-2.8-0.1-4.2,0c-0.7,0-0.9-0.1-0.9-0.9c0-12.2,0-24.4,0-36.6c0-0.4-0.1-0.8,0.6-0.8
		c5.5,0.1,11.1-0.3,16.6,0.2c5,0.5,7.4,3.1,8.2,8.1c0.3,2.1,0.3,4.2-0.3,6.3c-0.9,3.4-3.1,5.5-6.4,6.5c-0.3,0.1-0.6,0.2-0.9,0.2
		C285.8,276.3,285.8,276.4,285.7,276.5z"/>
	<path class="st5" d="M409.5,276.4c4.5,3.4,6.2,8.6,8.8,13.2c0.6,1.1,1.2,2.3,1.9,3.7c-2.5,0-4.9,0-7.2,0c-0.5,0-0.6-0.5-0.8-0.8
		c-2.2-3.9-4.4-7.8-6.5-11.7c-1.3-2.5-3.3-3.6-6.2-3.5c-1,0-1.2,0.3-1.2,1.2c0,4.6,0,9.1,0,13.7c0,1-0.3,1.2-1.2,1.2
		c-1.3-0.1-2.6-0.1-3.8,0c-1,0.1-1.3-0.2-1.3-1.3c0-10.5,0-21,0-31.5c0-1.5,0-3.1,0-4.6c0-0.7,0.2-0.9,0.9-0.9c5,0,10,0,15,0.1
		c7.3,0.1,9.4,5.2,9.7,9.9c0.1,1.7-0.1,3.4-0.6,5c-1,3.2-3.2,5.2-6.4,6.1C410.3,276.2,410,276.3,409.5,276.4z"/>
	<path class="st5" d="M356.6,274.3c0.1-3.9,0.5-7.9,2.3-11.6c2.7-5.6,7-8.4,13.3-8.3c6,0.1,10.3,3,12.6,8.3
		c3.3,7.6,3.3,15.5-0.1,23.1c-2.5,5.6-7.1,8.2-13.3,8.1c-6.4-0.2-10.5-3.5-12.9-9.2C357,281.4,356.7,277.9,356.6,274.3z"/>
	<path class="st5" d="M299.6,274.1c0-6,0-12,0-17.9c0-0.9,0.2-1.2,1.2-1.2c7,0,14,0,21,0c0.9,0,1.2,0.2,1.1,1.1
		c-0.1,1.4-0.1,2.8,0,4.2c0.1,1.1-0.4,1.2-1.3,1.2c-4.8,0-9.6,0-14.3,0c-1.1,0-1.4,0.3-1.4,1.4c0.1,2,0.1,4.1,0,6.1
		c0,0.9,0.3,1.1,1.1,1.1c4.5,0,9,0,13.5,0c0.8,0,1.1,0.2,1.1,1.1c-0.1,1.4-0.1,2.9,0,4.3c0,0.8-0.2,1.1-1.1,1.1c-4.5,0-9,0-13.4,0
		c-0.9,0-1.2,0.2-1.2,1.2c0.1,2.7,0.1,5.5,0,8.2c0,0.8,0.2,1,1,1c5.1,0,10.2,0,15.2,0c1.1,0,1.3,0.3,1.3,1.3c-0.1,1.5,0,2.9,0,4.4
		c0,0.6-0.1,0.9-0.8,0.9c-7.4,0-14.8,0-22.2,0c-0.9,0-0.8-0.5-0.8-1.1C299.6,286.2,299.6,280.2,299.6,274.1z"/>
	<path class="st5" d="M328.7,274.2c0-6,0-12,0-18c0-0.9,0.2-1.2,1.1-1.1c4.8,0.1,9.6-0.1,14.4,0.2c4,0.3,6.4,2.6,7.6,6.2
		c1.3,3.5,1.2,7.2,0,10.7c-1.4,3.9-4.1,6.1-8.3,6.5c-2.5,0.2-5,0.2-7.4,0.2c-0.9,0-1.1,0.2-1.1,1.1c0,4.1,0,8.3,0,12.4
		c0,0.8-0.2,1-1,1c-1.5-0.1-2.9-0.1-4.4,0c-0.8,0-1-0.3-1-1C328.7,286.2,328.7,280.2,328.7,274.2z"/>
	<path class="st5" d="M436.9,277.4c0,5,0,9.9,0,14.9c0,0.8-0.2,1.1-1,1c-1.5-0.1-2.9-0.1-4.4,0c-1,0.1-1-0.5-1-1.2
		c0-8.5,0-16.9,0-25.4c0-1.4,0-2.9,0-4.3c0-0.8-0.3-1-1-1c-2.4,0-4.9,0-7.3,0c-0.7,0-1-0.2-1-1c0-1.5,0-3.1,0-4.6
		c0-0.7,0.2-0.9,0.9-0.9c7.7,0,15.4,0,23.1,0c0.7,0,0.9,0.3,0.9,0.9c0,1.5,0,3.1,0,4.6c0,0.8-0.3,0.9-1,0.9c-2.4,0-4.8,0-7.2,0
		c-0.9,0-1.1,0.2-1.1,1.1C436.9,267.5,436.9,272.4,436.9,277.4z"/>
	<path class="st8" d="M486.7,584c-5.3,1.9-9.8-2-10.4-7.2c-0.4-3.3-0.4-6.5,1.2-9.4c1.7-3.2,5-4.5,8.5-4c4.3,0.7,6.4,3.9,6.9,7.8
		c0.4,3.2,0.3,6.2-1.2,9.1c-0.8,1.6-0.8,1.6-2.4,0.7c-1.2-0.7-2.5-1.3-3.8-1.8c-0.5-0.2-0.8-0.2-1.1,0.4c-0.3,0.8-0.7,1.6-1.1,2.4
		c-0.2,0.5,0,0.6,0.4,0.8C484.7,583.1,485.7,583.5,486.7,584z"/>
	<path class="st8" d="M534.5,578c-0.1-1.6,0.3-3.1,1-4.4c0.9-1.7,2.4-2.6,4.4-2.6c2,0,3.5,0.9,4.3,2.7c1.4,3.2,1.5,6.4-0.4,9.4
		c-1.7,2.9-6.2,2.6-7.8,0.2C534.9,581.6,534.6,579.9,534.5,578z"/>
	<path class="st8" d="M579.2,576.2c-1.1,0-2.3,0-3.4,0c-0.8,0-1.1,0-0.9-1c0.4-2.6,2.2-4.3,4.7-4.2c1.7,0.1,3.6,1.6,3.9,3.3
		c0.4,1.9,0.4,1.9-1.6,1.9C581,576.2,580.1,576.2,579.2,576.2z"/>
	<path class="st7" d="M274.4,266.2c0-1.3,0-2.6,0-3.8c0-0.7,0.1-0.9,0.9-0.9c2.7,0.1,5.5-0.1,8.2,0.1c1.7,0.2,2.8,1,3.3,2.6
		c0.5,1.4,0.5,2.9-0.1,4.3c-0.5,1.4-1.5,2.2-3,2.4c-2.9,0.4-5.9,0.1-8.8,0.2c-0.6,0-0.6-0.3-0.6-0.7
		C274.4,269,274.4,267.6,274.4,266.2z"/>
	<path class="st7" d="M398.3,266.3c0-1.3,0-2.6,0-3.9c0-0.6,0.2-0.9,0.8-0.8c2.7,0.1,5.5-0.1,8.2,0.1c0.5,0,1,0.1,1.5,0.4
		c1.7,0.9,2.5,2.9,2.1,5.5c-0.3,2-1.5,3.2-3.5,3.4c-2.8,0.4-5.7,0.1-8.6,0.2c-0.6,0-0.6-0.3-0.6-0.8
		C398.3,269,398.3,267.6,398.3,266.3z"/>
	<path class="st7" d="M363.2,274c0-2.7,0.3-5.3,1.3-7.8c2-4.8,7.3-6.7,11.4-4.1c1.9,1.2,3.1,3,3.7,5.1c1.3,4.5,1.3,9.1,0,13.7
		c-0.5,1.7-1.3,3.1-2.6,4.3c-3,3-7.8,2.8-10.7-0.4c-2.5-2.7-3-6.1-3.2-9.6C363.1,274.8,363.2,274.4,363.2,274z"/>
	<path class="st7" d="M335.1,266.9c0-1.5,0-3.1,0-4.6c0-0.6,0.2-0.8,0.8-0.8c2.1,0,4.2-0.1,6.3,0.2c2.8,0.3,4.6,3.1,4,6.3
		c-0.4,2.5-2,4-4.6,4.2c-1.9,0.1-3.8,0.1-5.7,0.1c-0.6,0-0.8-0.2-0.7-0.8C335.1,270,335.1,268.4,335.1,266.9z"/>
</g>
</svg>
