<?xml version="1.0" encoding="utf-8"?>
<!-- Generator: Adobe Illustrator 24.1.2, SVG Export Plug-In . SVG Version: 6.00 Build 0)  -->
<svg version="1.1" id="Layer_1" xmlns="http://www.w3.org/2000/svg" xmlns:xlink="http://www.w3.org/1999/xlink" x="0px" y="0px"
	 viewBox="0 0 800 800" style="enable-background:new 0 0 800 800;" xml:space="preserve">
<style type="text/css">
	.st0{fill:#333333;}
	.st1{clip-path:url(#SVGID_2_);}
	.st2{fill:#1D1D1B;}
	.st3{fill:#15A65B;}
	.st4{fill:#6F6F6F;}
	.st5{fill:#FFEA5B;}
	.st6{fill:#FFEA6D;}
	.st7{fill:#FFCF5B;}
	.st8{fill:#FCD87F;}
	.st9{fill:#FFA749;}
	.st10{fill:#FFB05B;}
	.st11{fill:#E34F36;}
	.st12{fill:#F66F58;}
</style>
<g id="Layer_2_3_">
	<g id="Layer_2_4_">
		<g>
			<circle class="st0" cx="400" cy="400" r="400"/>
		</g>
	</g>
</g>
<g>
	<defs>
		<circle id="SVGID_1_" cx="400" cy="400" r="400"/>
	</defs>
	<clipPath id="SVGID_2_">
		<use xlink:href="#SVGID_1_"  style="overflow:visible;"/>
	</clipPath>
	<g class="st1">
		<g>
			<path class="st2" d="M859.6,448.3c-0.1-8.4-0.9-16.8-1.4-25.2c-0.5-8.2-0.9-16.5-1.5-24.7c-0.2-3.5-1.9-6.7-4.3-8.9
				c-0.3-0.4-0.6-0.7-1-1c-0.3-0.4-0.6-0.7-1-1c-0.3-0.4-0.6-0.7-1-1c-0.3-0.4-0.6-0.7-1-1c-0.3-0.4-0.6-0.7-1-1
				c-0.3-0.4-0.6-0.7-1-1c-0.3-0.4-0.6-0.7-1-1c-0.3-0.4-0.6-0.7-1-1c-0.3-0.4-0.6-0.7-1-1c-0.3-0.4-0.6-0.7-1-1
				c-0.3-0.4-0.6-0.7-1-1c-0.3-0.4-0.6-0.7-1-1c-0.3-0.4-0.6-0.7-1-1c-0.3-0.4-0.6-0.7-1-1c-0.3-0.4-0.6-0.7-1-1
				c-0.3-0.4-0.6-0.7-1-1c-0.3-0.4-0.6-0.7-1-1c-0.3-0.4-0.6-0.7-1-1c-0.3-0.4-0.6-0.7-1-1c-0.3-0.4-0.6-0.7-1-1
				c-0.3-0.4-0.6-0.7-1-1c-0.3-0.4-0.6-0.7-1-1c-0.3-0.4-0.6-0.7-1-1c-0.3-0.4-0.6-0.7-1-1c-0.3-0.4-0.6-0.7-1-1
				c-0.3-0.4-0.6-0.7-1-1c-0.3-0.4-0.6-0.7-1-1c-0.3-0.4-0.6-0.7-1-1c-0.3-0.4-0.6-0.7-1-1c-0.3-0.4-0.6-0.7-1-1
				c-0.3-0.4-0.6-0.7-1-1c-0.3-0.4-0.6-0.7-1-1c-0.3-0.4-0.6-0.7-1-1c-0.3-0.4-0.6-0.7-1-1c-0.3-0.4-0.6-0.7-1-1
				c-0.3-0.4-0.6-0.7-1-1c-0.3-0.4-0.6-0.7-1-1c-0.3-0.4-0.6-0.7-1-1c-0.3-0.4-0.6-0.7-1-1c-0.3-0.4-0.6-0.7-1-1
				c-0.3-0.4-0.6-0.7-1-1c-0.3-0.4-0.6-0.7-1-1c-0.3-0.4-0.6-0.7-1-1c-0.3-0.4-0.6-0.7-1-1c-0.3-0.4-0.6-0.7-1-1
				c-0.3-0.4-0.6-0.7-1-1c-0.3-0.4-0.6-0.7-1-1c-0.3-0.4-0.6-0.7-1-1c-0.3-0.4-0.6-0.7-1-1c-0.3-0.4-0.6-0.7-1-1
				c-0.3-0.4-0.6-0.7-1-1c-0.3-0.4-0.6-0.7-1-1c-0.3-0.4-0.6-0.7-1-1c-0.3-0.4-0.6-0.7-1-1c-0.3-0.4-0.6-0.7-1-1
				c-0.3-0.4-0.6-0.7-1-1c-0.3-0.4-0.6-0.7-1-1c-0.3-0.4-0.6-0.7-1-1c-0.3-0.4-0.6-0.7-1-1c-0.3-0.4-0.6-0.7-1-1
				c-0.3-0.4-0.6-0.7-1-1c-0.3-0.4-0.6-0.7-1-1c-0.3-0.4-0.6-0.7-1-1c-0.3-0.4-0.6-0.7-1-1c-0.3-0.4-0.6-0.7-1-1
				c-0.3-0.4-0.6-0.7-1-1c-0.3-0.4-0.6-0.7-1-1c-0.3-0.4-0.6-0.7-1-1c-0.3-0.4-0.6-0.7-1-1c-0.3-0.4-0.6-0.7-1-1
				c-0.3-0.4-0.6-0.7-1-1c-0.3-0.4-0.6-0.7-1-1c-0.3-0.4-0.6-0.7-1-1c-0.3-0.4-0.6-0.7-1-1c-0.3-0.4-0.6-0.7-1-1
				c-0.3-0.4-0.6-0.7-1-1c-0.3-0.4-0.6-0.7-1-1c-0.3-0.4-0.6-0.7-1-1c-0.3-0.4-0.6-0.7-1-1c-0.3-0.4-0.6-0.7-1-1
				c-0.3-0.4-0.6-0.7-1-1c-0.3-0.4-0.6-0.7-1-1c-0.3-0.4-0.6-0.7-1-1c-0.3-0.4-0.6-0.7-1-1c-0.3-0.4-0.6-0.7-1-1
				c-0.3-0.4-0.6-0.7-1-1c-0.3-0.4-0.6-0.7-1-1c-0.3-0.4-0.6-0.7-1-1c-0.3-0.4-0.6-0.7-1-1c-0.3-0.4-0.6-0.7-1-1
				c-0.3-0.4-0.6-0.7-1-1c-0.3-0.4-0.6-0.7-1-1c-0.3-0.4-0.6-0.7-1-1c-0.3-0.4-0.6-0.7-1-1c-0.3-0.4-0.6-0.7-1-1
				c-0.3-0.4-0.6-0.7-1-1c-0.3-0.4-0.6-0.7-1-1c-0.3-0.4-0.6-0.7-1-1c-0.3-0.4-0.6-0.7-1-1c-0.3-0.4-0.6-0.7-1-1
				c-0.3-0.4-0.6-0.7-1-1c-0.3-0.4-0.6-0.7-1-1c-0.3-0.4-0.6-0.7-1-1c-0.3-0.4-0.6-0.7-1-1c-0.3-0.4-0.6-0.7-1-1
				c-0.3-0.4-0.6-0.7-1-1c-0.3-0.4-0.6-0.7-1-1c-0.3-0.4-0.6-0.7-1-1c-0.3-0.4-0.6-0.7-1-1c-0.3-0.4-0.6-0.7-1-1
				c-0.3-0.4-0.6-0.7-1-1c-0.3-0.4-0.6-0.7-1-1c-0.3-0.4-0.6-0.7-1-1c-0.3-0.4-0.6-0.7-1-1c-0.3-0.4-0.6-0.7-1-1
				c-0.3-0.4-0.6-0.7-1-1c-0.3-0.4-0.6-0.7-1-1c-0.3-0.4-0.6-0.7-1-1c-0.3-0.4-0.6-0.7-1-1c-0.3-0.4-0.6-0.7-1-1
				c-0.3-0.4-0.6-0.7-1-1c-0.3-0.4-0.6-0.7-1-1c-0.3-0.4-0.6-0.7-1-1c-0.3-0.4-0.6-0.7-1-1c-0.3-0.4-0.6-0.7-1-1
				c-0.3-0.4-0.6-0.7-1-1c-0.3-0.4-0.6-0.7-1-1c-0.3-0.4-0.6-0.7-1-1c-0.3-0.4-0.6-0.7-1-1c-0.3-0.4-0.6-0.7-1-1
				c-0.3-0.4-0.6-0.7-1-1c-0.3-0.4-0.6-0.7-1-1c-0.3-0.4-0.6-0.7-1-1c-0.3-0.4-0.6-0.7-1-1c-0.3-0.4-0.6-0.7-1-1
				c-0.3-0.4-0.6-0.7-1-1c-0.3-0.4-0.6-0.7-1-1c-0.3-0.4-0.6-0.7-1-1c-0.3-0.4-0.6-0.7-1-1c-0.3-0.4-0.6-0.7-1-1
				c-0.3-0.4-0.6-0.7-1-1c-0.3-0.4-0.6-0.7-1-1c-0.3-0.4-0.6-0.7-1-1c-0.3-0.4-0.6-0.7-1-1c-0.3-0.4-0.6-0.7-1-1
				c-0.3-0.4-0.6-0.7-1-1c-0.3-0.4-0.6-0.7-1-1c-0.3-0.4-0.6-0.7-1-1c-0.3-0.4-0.6-0.7-1-1c-0.3-0.4-0.6-0.7-1-1
				c-0.3-0.4-0.6-0.7-1-1c-0.3-0.4-0.6-0.7-1-1c-0.3-0.4-0.6-0.7-1-1c-0.3-0.4-0.6-0.7-1-1c-0.3-0.4-0.6-0.7-1-1
				c-0.3-0.4-0.6-0.7-1-1c-0.3-0.4-0.6-0.7-1-1c-0.3-0.4-0.6-0.7-1-1c-0.3-0.4-0.6-0.7-1-1c-0.3-0.4-0.6-0.7-1-1
				c-0.3-0.4-0.6-0.7-1-1c-0.3-0.4-0.6-0.7-1-1c-0.3-0.4-0.6-0.7-1-1c-0.3-0.4-0.6-0.7-1-1c-0.3-0.4-0.6-0.7-1-1
				c-0.3-0.4-0.6-0.7-1-1c-0.3-0.4-0.6-0.7-1-1c-0.3-0.4-0.6-0.7-1-1c-0.3-0.4-0.6-0.7-1-1c-0.3-0.4-0.6-0.7-1-1
				c-0.3-0.4-0.6-0.7-1-1c-0.3-0.4-0.6-0.7-1-1c-0.3-0.4-0.6-0.7-1-1c-0.3-0.4-0.6-0.7-1-1c-0.3-0.4-0.6-0.7-1-1
				c-0.3-0.4-0.6-0.7-1-1c-0.3-0.4-0.6-0.7-1-1c-0.3-0.4-0.6-0.7-1-1c-0.3-0.4-0.6-0.7-1-1c-0.3-0.4-0.6-0.7-1-1
				c-0.3-0.4-0.6-0.7-1-1c-0.3-0.4-0.6-0.7-1-1c-0.3-0.4-0.6-0.7-1-1c-0.3-0.4-0.6-0.7-1-1c-0.3-0.4-0.6-0.7-1-1
				c-0.3-0.4-0.6-0.7-1-1c-0.3-0.4-0.6-0.7-1-1c-0.3-0.4-0.6-0.7-1-1c-0.3-0.4-0.6-0.7-1-1c-0.3-0.4-0.6-0.7-1-1
				c-0.3-0.4-0.6-0.7-1-1c-0.3-0.4-0.6-0.7-1-1c-0.3-0.4-0.6-0.7-1-1c-0.3-0.4-0.6-0.7-1-1c-0.3-0.4-0.6-0.7-1-1
				c-0.3-0.4-0.6-0.7-1-1c-0.3-0.4-0.6-0.7-1-1c-0.3-0.4-0.6-0.7-1-1c-0.3-0.4-0.6-0.7-1-1c-0.3-0.4-0.6-0.7-1-1
				c-0.3-0.4-0.6-0.7-1-1c-0.3-0.4-0.6-0.7-1-1c-0.3-0.4-0.6-0.7-1-1c-0.3-0.4-0.6-0.7-1-1c-0.3-0.4-0.6-0.7-1-1
				c-0.3-0.4-0.6-0.7-1-1c-0.3-0.4-0.6-0.7-1-1c-0.3-0.4-0.6-0.7-1-1c-0.3-0.4-0.6-0.7-1-1c-0.3-0.4-0.6-0.7-1-1
				c-0.3-0.4-0.6-0.7-1-1c-0.3-0.4-0.6-0.7-1-1c-0.3-0.4-0.6-0.7-1-1c-0.3-0.4-0.6-0.7-1-1c-0.3-0.4-0.6-0.7-1-1
				c-0.3-0.4-0.6-0.7-1-1c-0.3-0.4-0.6-0.7-1-1c-0.3-0.4-0.6-0.7-1-1c-0.3-0.4-0.6-0.7-1-1c-2.2-2.5-5.3-4.1-8.8-4.2
				c-2.4-0.1-4.8-0.1-7.1,0.1c-5.6,0.4-11.3,0.9-16.9,1.3c-9.3,0.7-18.5,1.3-27.8,2c-2.8,0.2-5.6,0.4-8.4,0.8
				c-2.5,0.3-4.7,1.5-6.5,3.2c-4,3.7-5.2,9.6-3.1,14.8c0.8,1.9,1.9,3.5,3.4,4.8c0.3,0.4,0.6,0.7,1,1c0.3,0.4,0.6,0.7,1,1
				c0.3,0.4,0.6,0.7,1,1c0.3,0.4,0.6,0.7,1,1c0.3,0.4,0.6,0.7,1,1c0.3,0.4,0.6,0.7,1,1c0.3,0.4,0.6,0.7,1,1c0.3,0.4,0.6,0.7,1,1
				c0.3,0.4,0.6,0.7,1,1c0.3,0.4,0.6,0.7,1,1c0.3,0.4,0.6,0.7,1,1c0.3,0.4,0.6,0.7,1,1c0.3,0.4,0.6,0.7,1,1c0.3,0.4,0.6,0.7,1,1
				c0.3,0.4,0.6,0.7,1,1c0.3,0.4,0.6,0.7,1,1c0.3,0.4,0.6,0.7,1,1c0.3,0.3,0.6,0.7,1,1c-9.3,10.7-18.5,21.3-27.8,32
				c-9.9,11.4-19.6,22.9-30.2,33.7c-42.3,43.1-91.3,76.2-147.2,98.8c-36,14.6-73.3,24-111.9,28.3c-12.3,1.4-24.7,2.3-37.1,2.6
				c-17,0.4-34,0-51-1.6c-1-0.1-1.7,0.2-2.5,0.6c-6.5,3.7-9.4,11.7-6.5,18.5c1,2.3,2.2,4.3,3.9,5.8c0.3,0.4,0.6,0.7,1,1
				c0.3,0.4,0.6,0.7,1,1c0.3,0.4,0.6,0.7,1,1c0.3,0.4,0.6,0.7,1,1c0.3,0.4,0.6,0.7,1,1c0.3,0.4,0.6,0.7,1,1c0.3,0.4,0.6,0.7,1,1
				c0.3,0.4,0.6,0.7,1,1c0.3,0.4,0.6,0.7,1,1c0.3,0.4,0.6,0.7,1,1c0.3,0.4,0.6,0.7,1,1c0.3,0.4,0.6,0.7,1,1c0.3,0.4,0.6,0.7,1,1
				c0.3,0.4,0.6,0.7,1,1c0.3,0.4,0.6,0.7,1,1c0.3,0.4,0.6,0.7,1,1c0.3,0.4,0.6,0.7,1,1c0.3,0.4,0.6,0.7,1,1c0.3,0.4,0.6,0.7,1,1
				c0.3,0.4,0.6,0.7,1,1c0.3,0.4,0.6,0.7,1,1c0.3,0.4,0.6,0.7,1,1c0.3,0.4,0.6,0.7,1,1c0.3,0.4,0.6,0.7,1,1c0.3,0.4,0.6,0.7,1,1
				c0.3,0.4,0.6,0.7,1,1c0.3,0.4,0.6,0.7,1,1c0.3,0.4,0.6,0.7,1,1c0.3,0.4,0.6,0.7,1,1c0.3,0.4,0.6,0.7,1,1c0.3,0.4,0.6,0.7,1,1
				c0.3,0.4,0.6,0.7,1,1c0.3,0.4,0.6,0.7,1,1c0.3,0.4,0.6,0.7,1,1c0.3,0.4,0.6,0.7,1,1c0.3,0.4,0.6,0.7,1,1c0.3,0.4,0.6,0.7,1,1
				c0.1,0.2,0.3,0.3,0.4,0.5c-1.4,0.1-2.8,0.2-4.3,0.3c-2.6,0.2-4.8,1.3-6.7,3.1c-2.7,2.6-3.6,5.8-3.6,9.5c0,41.9,0,83.9,0,125.8
				c-4.7,0-9.4,0-14,0.1c-6.5,0.1-11.6,3.7-13.6,9.9c-0.2,0.6-0.2,1.3-0.9,1.7c0,1.5,0,3,0,4.5c0.2,0.2,0.2,0.5,0.3,0.8
				c0.6,3.3,2,5.9,4.1,7.7c0.3,0.4,0.6,0.7,1,1c0.3,0.4,0.6,0.7,1,1c0.3,0.4,0.6,0.7,1,1c0.3,0.4,0.6,0.7,1,1c0.3,0.4,0.6,0.7,1,1
				c0.3,0.4,0.6,0.7,1,1c0.3,0.4,0.6,0.7,1,1c0.3,0.4,0.6,0.7,1,1c0.3,0.4,0.6,0.7,1,1c0.3,0.4,0.6,0.7,1,1c0.3,0.4,0.6,0.7,1,1
				c0.3,0.4,0.6,0.7,1,1c0.3,0.4,0.6,0.7,1,1c0.3,0.4,0.6,0.7,1,1c0.3,0.4,0.6,0.7,1,1c0.3,0.4,0.6,0.7,1,1c0.3,0.4,0.6,0.7,1,1
				c0.3,0.4,0.6,0.7,1,1c0.3,0.4,0.6,0.7,1,1c0.3,0.4,0.6,0.7,1,1c0.3,0.4,0.6,0.7,1,1c0.3,0.4,0.6,0.7,1,1c0.3,0.4,0.6,0.7,1,1
				c0.3,0.4,0.6,0.7,1,1c0.3,0.4,0.6,0.7,1,1c0.3,0.4,0.6,0.7,1,1c0.3,0.4,0.6,0.7,1,1c0.3,0.4,0.6,0.7,1,1c0.3,0.4,0.6,0.7,1,1
				c0.3,0.4,0.6,0.7,1,1c0.3,0.4,0.6,0.7,1,1c0.3,0.4,0.6,0.7,1,1c0.3,0.4,0.6,0.7,1,1c0.3,0.4,0.6,0.7,1,1c0.3,0.4,0.6,0.7,1,1
				c0.3,0.4,0.6,0.7,1,1c0.3,0.4,0.6,0.7,1,1c0.3,0.4,0.6,0.7,1,1c0.3,0.4,0.6,0.7,1,1c0.3,0.4,0.6,0.7,1,1c0.3,0.4,0.6,0.7,1,1
				c0.3,0.4,0.6,0.7,1,1c0.3,0.4,0.6,0.7,1,1c0.3,0.4,0.6,0.7,1,1c0.3,0.4,0.6,0.7,1,1c0.3,0.4,0.6,0.7,1,1c0.3,0.4,0.6,0.7,1,1
				c0.3,0.4,0.6,0.7,1,1c0.3,0.4,0.6,0.7,1,1c0.3,0.4,0.6,0.7,1,1c0.3,0.4,0.6,0.7,1,1c0.3,0.4,0.6,0.7,1,1c0.3,0.4,0.6,0.7,1,1
				c0.3,0.4,0.6,0.7,1,1c0.3,0.4,0.6,0.7,1,1c0.3,0.4,0.6,0.7,1,1c0.3,0.4,0.6,0.7,1,1c0.3,0.4,0.6,0.7,1,1c0.3,0.4,0.6,0.7,1,1
				c0.3,0.4,0.6,0.7,1,1c0.3,0.4,0.6,0.7,1,1c0.3,0.4,0.6,0.7,1,1c0.3,0.4,0.6,0.7,1,1c0.3,0.4,0.6,0.7,1,1c0.3,0.4,0.6,0.7,1,1
				c0.3,0.4,0.6,0.7,1,1c0.3,0.4,0.6,0.7,1,1c0.3,0.4,0.6,0.7,1,1c0.3,0.4,0.6,0.7,1,1c0.3,0.4,0.6,0.7,1,1c0.3,0.4,0.6,0.7,1,1
				c0.3,0.4,0.6,0.7,1,1c0.3,0.4,0.6,0.7,1,1c0.3,0.4,0.6,0.7,1,1c0.3,0.4,0.6,0.7,1,1c0.3,0.4,0.6,0.7,1,1c0.3,0.4,0.6,0.7,1,1
				c0.3,0.4,0.6,0.7,1,1c0.3,0.4,0.6,0.7,1,1c0.3,0.4,0.6,0.7,1,1c0.3,0.4,0.6,0.7,1,1c0.3,0.4,0.6,0.7,1,1c0.3,0.4,0.6,0.7,1,1
				c0.3,0.4,0.6,0.7,1,1c0.3,0.4,0.6,0.7,1,1c0.3,0.4,0.6,0.7,1,1c0.3,0.4,0.6,0.7,1,1c0.3,0.4,0.6,0.7,1,1c0.3,0.4,0.6,0.7,1,1
				c0.3,0.4,0.6,0.7,1,1c0.3,0.4,0.6,0.7,1,1c0.3,0.4,0.6,0.7,1,1c0.3,0.4,0.6,0.7,1,1c0.3,0.4,0.6,0.7,1,1c0.3,0.4,0.6,0.7,1,1
				c0.3,0.4,0.6,0.7,1,1c0.3,0.4,0.6,0.7,1,1c0.3,0.4,0.6,0.7,1,1c0.3,0.4,0.6,0.7,1,1c0.3,0.4,0.6,0.7,1,1c0.3,0.4,0.6,0.7,1,1
				c0.3,0.4,0.6,0.7,1,1c0.3,0.4,0.6,0.7,1,1c0.3,0.4,0.6,0.7,1,1c0.3,0.4,0.6,0.7,1,1c0.3,0.4,0.6,0.7,1,1c0.3,0.4,0.6,0.7,1,1
				c0.3,0.4,0.6,0.7,1,1c0.3,0.4,0.6,0.7,1,1c0.3,0.4,0.6,0.7,1,1c0.3,0.4,0.6,0.7,1,1c0.3,0.4,0.6,0.7,1,1c0.3,0.4,0.6,0.7,1,1
				c0.3,0.4,0.6,0.7,1,1c0.3,0.4,0.6,0.7,1,1c0.3,0.4,0.6,0.7,1,1c0.3,0.4,0.6,0.7,1,1c0.3,0.4,0.6,0.7,1,1c0.3,0.4,0.6,0.7,1,1
				c0.3,0.4,0.6,0.7,1,1c0.3,0.4,0.6,0.7,1,1c0.3,0.4,0.6,0.7,1,1c0.3,0.4,0.6,0.7,1,1c0.3,0.4,0.6,0.7,1,1c0.3,0.4,0.6,0.7,1,1
				c0.3,0.4,0.6,0.7,1,1c0.3,0.4,0.6,0.7,1,1c0.3,0.4,0.6,0.7,1,1c0.3,0.4,0.6,0.7,1,1c0.3,0.4,0.6,0.7,1,1c0.3,0.4,0.6,0.7,1,1
				c0.3,0.4,0.6,0.7,1,1c0.3,0.4,0.6,0.7,1,1c0.3,0.4,0.6,0.7,1,1c0.3,0.4,0.6,0.7,1,1c0.3,0.4,0.6,0.7,1,1c0.3,0.4,0.6,0.7,1,1
				c0.3,0.4,0.6,0.7,1,1c0.3,0.4,0.6,0.7,1,1c0.3,0.4,0.6,0.7,1,1c0.3,0.4,0.6,0.7,1,1c0.3,0.4,0.6,0.7,1,1c0.3,0.4,0.6,0.7,1,1
				c0.3,0.4,0.6,0.7,1,1c0.3,0.4,0.6,0.7,1,1c0.3,0.4,0.6,0.7,1,1c0.3,0.4,0.6,0.7,1,1c0.3,0.4,0.6,0.7,1,1c0.3,0.4,0.6,0.7,1,1
				c0.3,0.4,0.6,0.7,1,1c0.3,0.4,0.6,0.7,1,1c0.3,0.4,0.6,0.7,1,1c0.3,0.4,0.6,0.7,1,1c0.3,0.4,0.6,0.7,1,1c0.3,0.4,0.6,0.7,1,1
				c0.3,0.4,0.6,0.7,1,1c0.3,0.4,0.6,0.7,1,1c0.3,0.4,0.6,0.7,1,1c0.3,0.4,0.6,0.7,1,1c0.3,0.4,0.6,0.7,1,1c0.3,0.4,0.6,0.7,1,1
				c0.3,0.4,0.6,0.7,1,1c0.3,0.4,0.6,0.7,1,1c0.3,0.4,0.6,0.7,1,1c0.3,0.4,0.6,0.7,1,1c0.3,0.4,0.6,0.7,1,1c0.3,0.4,0.6,0.7,1,1
				c0.3,0.4,0.6,0.7,1,1c0.3,0.4,0.6,0.7,1,1c0.3,0.4,0.6,0.7,1,1c0.3,0.4,0.6,0.7,1,1c0.3,0.4,0.6,0.7,1,1c0.3,0.4,0.6,0.7,1,1
				c0.3,0.4,0.6,0.7,1,1c0.3,0.4,0.6,0.7,1,1c0.3,0.4,0.6,0.7,1,1c0.3,0.4,0.6,0.7,1,1c0.3,0.4,0.6,0.7,1,1c0.3,0.4,0.6,0.7,1,1
				c0.3,0.4,0.6,0.7,1,1c0.3,0.4,0.6,0.7,1,1c0.3,0.4,0.6,0.7,1,1c0.3,0.4,0.6,0.7,1,1c0.3,0.4,0.6,0.7,1,1c0.3,0.4,0.6,0.7,1,1
				c0.3,0.4,0.6,0.7,1,1c0.3,0.4,0.6,0.7,1,1c0.3,0.4,0.6,0.7,1,1c0.3,0.4,0.6,0.7,1,1c0.3,0.4,0.6,0.7,1,1c0.3,0.4,0.6,0.7,1,1
				c0.3,0.4,0.6,0.7,1,1c0.3,0.4,0.6,0.7,1,1c0.3,0.4,0.6,0.7,1,1c0.3,0.4,0.6,0.7,1,1c0.3,0.4,0.6,0.7,1,1c0.3,0.4,0.6,0.7,1,1
				c0.3,0.4,0.6,0.7,1,1c0.3,0.4,0.6,0.7,1,1c0.3,0.4,0.6,0.7,1,1c0.3,0.4,0.6,0.7,1,1c0.3,0.4,0.6,0.7,1,1c0.3,0.4,0.6,0.7,1,1
				c0.3,0.4,0.6,0.7,1,1c0.3,0.4,0.6,0.7,1,1c0.3,0.4,0.6,0.7,1,1c0.3,0.4,0.6,0.7,1,1c0.3,0.4,0.6,0.7,1,1c0.3,0.4,0.6,0.7,1,1
				c0.3,0.4,0.6,0.7,1,1c0.3,0.4,0.6,0.7,1,1c0.3,0.4,0.6,0.7,1,1c0.3,0.4,0.6,0.7,1,1c0.3,0.4,0.6,0.7,1,1c0.3,0.4,0.6,0.7,1,1
				c0.3,0.4,0.6,0.7,1,1c0.3,0.4,0.6,0.7,1,1c0.3,0.4,0.6,0.7,1,1c0.3,0.4,0.6,0.7,1,1c1.9,2.1,4.4,3.5,7.8,4.1
				c150.9,0,301.9,0,452.8,0c0.5-0.6,1.2-0.5,1.8-0.7c7-2.7,10.6-10.2,8.4-17.2c-0.8-2.4-2.1-4.4-3.9-6c-0.3-0.4-0.6-0.7-1-1
				c-0.3-0.4-0.6-0.7-1-1c-0.3-0.4-0.6-0.7-1-1c-0.3-0.4-0.6-0.7-1-1c-0.3-0.4-0.6-0.7-1-1c-0.3-0.4-0.6-0.7-1-1
				c-0.3-0.4-0.6-0.7-1-1c-0.3-0.4-0.6-0.7-1-1c-0.3-0.4-0.6-0.7-1-1c-0.3-0.4-0.6-0.7-1-1c-0.3-0.4-0.6-0.7-1-1
				c-0.3-0.4-0.6-0.7-1-1c-0.3-0.4-0.6-0.7-1-1c-0.3-0.4-0.6-0.7-1-1c-0.3-0.4-0.6-0.7-1-1c-0.3-0.4-0.6-0.7-1-1
				c-0.3-0.4-0.6-0.7-1-1c-0.3-0.4-0.6-0.7-1-1c-0.3-0.4-0.6-0.7-1-1c-0.3-0.4-0.6-0.7-1-1c-0.3-0.4-0.6-0.7-1-1
				c-0.3-0.4-0.6-0.7-1-1c-0.3-0.4-0.6-0.7-1-1c-0.3-0.4-0.6-0.7-1-1c-0.1-0.1-0.1-0.1-0.2-0.2c0-16.5,0-33.1-0.3-49.6
				c-0.4-28.5-0.1-57.1-0.4-85.6c-0.4-29.7-0.1-59.5-0.5-89.2c-0.3-23.2-0.2-46.4-0.2-69.6c0-3.3-0.3-6.7-0.9-10
				c-0.5-2.6-1.3-5.2-2.9-7.4c-0.4-0.6-0.9-1.1-1.4-1.5c-0.3-0.4-0.7-0.7-1-1c-0.3-0.4-0.7-0.7-1-1c-0.3-0.4-0.7-0.7-1-1
				c-0.3-0.4-0.7-0.7-1-1c-0.3-0.4-0.7-0.7-1-1c-0.3-0.4-0.7-0.7-1-1c-0.3-0.4-0.7-0.7-1-1c-0.3-0.4-0.7-0.7-1-1
				c-0.3-0.4-0.7-0.7-1-1c-0.3-0.4-0.7-0.7-1-1c-0.3-0.4-0.7-0.7-1-1c-0.3-0.4-0.7-0.7-1-1c-0.3-0.4-0.7-0.7-1-1
				c-0.3-0.4-0.7-0.7-1-1c-0.3-0.4-0.7-0.7-1-1c-0.3-0.4-0.7-0.7-1-1c-0.3-0.4-0.7-0.7-1-1c-0.3-0.4-0.7-0.7-1-1
				c-0.3-0.4-0.7-0.7-1-1c-0.3-0.4-0.7-0.7-1-1c-0.3-0.4-0.7-0.7-1-1c-0.3-0.4-0.7-0.7-1-1c0,0-0.1-0.1-0.1-0.1
				c0.7-0.8,1.3-1.6,2-2.4c6.8-8.1,13.8-16.1,20.8-24.1c0,0,0.1,0.1,0.1,0.1c0.3,0.4,0.6,0.7,1,1c0.3,0.4,0.6,0.7,1,1
				c0.3,0.4,0.6,0.7,1,1c0.3,0.4,0.6,0.7,1,1c0.3,0.4,0.6,0.7,1,1c0.3,0.4,0.6,0.7,1,1c0.3,0.4,0.6,0.7,1,1c0.3,0.4,0.6,0.7,1,1
				c0.3,0.4,0.6,0.7,1,1c0.3,0.4,0.6,0.7,1,1c0.3,0.4,0.6,0.7,1,1c0.3,0.4,0.6,0.7,1,1c0.3,0.4,0.6,0.7,1,1c0.3,0.4,0.6,0.7,1,1
				c0.3,0.4,0.6,0.7,1,1c0.3,0.4,0.6,0.7,1,1c0.3,0.4,0.6,0.7,1,1c3.1,3.5,8.1,5.1,13.1,3.9c4.1-1,7-3.5,8.8-7.3
				c0.5-1,0.2-2.2,0.9-3.2c0-1.6,0-3.3,0-4.9C859.6,449.4,859.7,448.8,859.6,448.3z"/>
		</g>
	</g>
</g>
<g>
	<path class="st3" d="M640,234.7c-0.7,0.9-0.4,2.1-0.9,3.2c-1.8,3.8-4.7,6.3-8.8,7.3c-7.2,1.8-14.3-2.4-16-9.5
		c-0.4-1.8-0.5-3.7-0.6-5.5c-0.4-6.2-0.7-12.5-1.1-18.7c0-0.3-0.1-0.6-0.1-0.8c-0.5-0.3-0.7,0.1-0.9,0.4
		c-10.8,12.4-21.7,24.7-32.3,37.3c-7.3,8.7-14.4,17.6-22.1,26c-37.4,41-80,75.6-128.6,102.6c-37.7,20.9-77.7,36-119.8,45.5
		c-14.9,3.4-30,6-45.2,7.9c-8.8,1.1-17.6,1.9-26.4,2.5c-16,1.1-32.1,1.2-48.1,0.7c-5.7-0.2-11.4-0.6-17.1-0.9
		c-5.3-0.3-8.2-3.9-10.1-8.3c-2.9-6.8,0-14.8,6.5-18.5c0.8-0.4,1.6-0.7,2.5-0.6c17,1.6,34,2,51,1.6c12.4-0.3,24.8-1.2,37.1-2.6
		c38.6-4.3,75.9-13.8,111.9-28.3c56-22.6,105-55.7,147.2-98.8c10.6-10.8,20.3-22.3,30.2-33.7c13.5-15.5,26.9-31,40.4-46.4
		c0.5-0.5,1.1-1,1.4-1.9c-0.8-0.2-1.6,0-2.3,0c-6.9,0.5-13.8,1.1-20.7,1.5c-5.5,0.3-10.3-2.9-12.3-7.9c-2.1-5.2-0.9-11,3.1-14.8
		c1.8-1.7,4-2.9,6.5-3.2c2.8-0.3,5.6-0.6,8.4-0.8c9.3-0.7,18.5-1.3,27.8-2c5.6-0.4,11.3-0.9,16.9-1.3c2.4-0.2,4.8-0.2,7.1-0.1
		c6.4,0.2,11.7,5.5,12.1,12.1c0.5,8.2,1,16.5,1.5,24.7c0.5,8.4,1.2,16.8,1.4,25.2c0,0.5,0,1.1,0.4,1.5
		C640,231.4,640,233.1,640,234.7z"/>
	<path class="st4" d="M160,617.7c0.7-0.3,0.7-1.1,0.9-1.7c2-6.1,7.1-9.8,13.6-9.9c4.7,0,9.4-0.1,14-0.1c0.7-0.7,1.6-0.7,2.5-0.7
		c13.1,0,26.2-0.1,39.4,0c13.3-0.1,26.6,0,39.9,0c0.9,0,1.8,0.1,2.5,0.7c5.3,0,10.6,0.1,15.9,0.1c3.5,0,6.9,0,10.4-0.1
		c0.7-0.7,1.6-0.7,2.5-0.7c13,0,25.9-0.1,38.9,0c13.6-0.1,27.1,0,40.7,0c0.9,0,1.8,0,2.5,0.7c9.1,0.1,18.2,0.1,27.3,0
		c0.7-0.7,1.6-0.7,2.5-0.7c12.8,0,25.7-0.1,38.5,0c13.4-0.1,26.8,0,40.3,0c0.9,0,1.8,0,2.5,0.7c9,0.1,17.9,0.1,26.9,0
		c0.7-0.7,1.6-0.7,2.5-0.7c13,0,26-0.1,38.9,0c13.4-0.1,26.9,0,40.3,0c0.9,0,1.8,0.1,2.5,0.7c4.9,0,9.8,0,14.7,0.1
		c6.2,0.1,11.5,3.9,13.3,9.6c2.3,7-1.4,14.6-8.4,17.2c-0.6,0.2-1.3,0.2-1.8,0.7c-150.9,0-301.9,0-452.8,0
		c-6.1-1.1-9.7-4.7-10.9-10.8c-0.1-0.3-0.1-0.6-0.3-0.8C160,620.6,160,619.1,160,617.7z"/>
	<path class="st5" d="M606.1,606c-1,0-1.9,0.1-2.9,0.1c-12.4,0-24.9,0-37.3,0c-0.9,0-1.8,0-2.7-0.1c-0.6-0.6-0.7-1.5-0.7-2.3
		c0-0.8,0-1.6,0-2.5c0-99.5,0-199,0-298.6c0-1.6-0.3-3.3,0.7-4.8c2.8-2.9,6-5.3,9-8c6-5.3,12.1-10.5,18.2-15.7
		c0.7-0.6,1.4-1.2,2.1-1.6c3.1-2,6.2-1.4,8.4,1.6c1.6,2.2,2.4,4.8,2.9,7.4c0.6,3.3,0.9,6.6,0.9,10c0.1,23.2-0.1,46.4,0.2,69.6
		c0.4,29.7,0,59.5,0.5,89.2c0.4,28.5,0,57.1,0.4,85.6C606.1,559.3,606,582.7,606.1,606z"/>
	<path class="st6" d="M563.2,297.9c0,0.9,0.1,1.8,0.1,2.7c0,101.8,0,203.6,0,305.4c-1.8,0-3.6,0.1-5.3,0.1c-11.2,0-22.4,0-33.7,0
		c-0.8,0-1.6,0-2.4-0.1c0-13.1,0.1-26.2-0.2-39.3c-0.5-21.6,0-43.3-0.5-64.9c-0.4-20.7,0-41.3-0.4-62c-0.4-21.4-0.1-42.8-0.5-64.2
		c-0.1-5.8-0.2-11.6-0.2-17.4c0-8.1,1.3-15.9,4.3-23.5c1.7-4.4,4.8-7.6,8.3-10.5c6.3-5.3,12.5-10.8,18.7-16.1
		c3.7-3.2,7.4-6.4,11.1-9.6C562.7,298.2,562.9,298.1,563.2,297.9z"/>
	<path class="st7" d="M494.9,606c-7.5,0-15,0.1-22.5,0.1c-6.8,0-13.5,0-20.3-0.1c-0.6-0.6-0.7-1.5-0.7-2.3c0-0.7,0-1.3,0-2
		c0-67.8,0-135.5,0-203.3c0-1.5-0.3-3,0.8-4.3c5.5-3,11.1-6.1,16.6-9.1c3.2-1.7,6.4-3.5,9.6-5.2c1.9-1,3.8-2,6.1-1.9
		c2.8,0.1,4.8,1.3,6.3,3.6c1.8,2.8,2.4,5.9,2.4,9.1c0.1,8.5-0.1,17,0.2,25.4c0.4,14,0.1,28.1,0.5,42.1c0.3,12.3,0.1,24.7,0.4,37
		c0.4,14.4,0.1,28.8,0.5,43.3c0.3,13.2,0.1,26.3,0.4,39.5c0.2,6.7,0.2,13.4,0.3,20.1C495.5,600.7,495.4,603.4,494.9,606z"/>
	<path class="st8" d="M452.2,394.1c0,0.8,0,1.6,0,2.5c0,69.8,0,139.6,0,209.4c-2.8,0-5.6,0.1-8.5,0.1c-10,0-20.1,0-30.1,0
		c-0.8,0-1.6,0-2.4-0.1c0-2.1,0-4.2-0.1-6.2c-0.4-16.5-0.2-33-0.6-49.5c-0.3-12.9,0-25.7-0.4-38.6c-0.5-14,0-28-0.5-41.9
		c-0.4-12.7-0.2-25.4-0.4-38.1c-0.1-4.7,1.3-9.1,3.5-13.2c1.7-3.2,4.3-5.4,7.5-7.1C430.9,405.7,441.6,399.9,452.2,394.1z"/>
	<path class="st9" d="M383.8,606c-9.6,0-19.1,0-28.7,0.1c-4.8,0-9.6,0-14.5-0.1c-1-1.1-0.7-2.5-0.7-3.8c0-16.6,0-33.3,0-49.9
		c0-35.5,0-71.1,0-106.6c0-1.5-0.4-3.2,1.2-4.3c5.8-1.9,11.5-3.9,17.3-5.8c3.8-1.3,7.6-2.5,11.4-3.7c4.1-1.2,8.1,0.1,10.3,3.4
		c1.2,1.7,1.9,3.7,2,5.8c0,0.5,0,1,0,1.6c0.2,15.2,0.3,30.3,0.5,45.5c0.2,20.1,0.2,40.1,0.6,60.2c0.2,13.2,0.2,26.3,0.3,39.5
		C383.6,593.9,384,599.9,383.8,606z"/>
	<path class="st10" d="M341.1,441.4c-0.6,0.9-0.4,2-0.4,3c0,25.9,0,51.9,0,77.8c0,27.9,0,55.9,0,83.8c-4.2,0-8.5,0.1-12.7,0.1
		c-9.6,0-19.2,0-28.7-0.1c-0.1-8,0.1-15.9-0.2-23.9c-0.4-10.6-0.1-21.2-0.4-31.9c-0.3-10.2-0.1-20.4-0.4-30.5
		c-0.4-10.7-0.1-21.4-0.5-32.1c-0.2-6.6-0.2-13.2-0.3-19.8c-0.1-4.2,1.4-8,4-11.3c1.5-1.9,3.4-3.3,5.7-4.1
		c11.2-3.7,22.4-7.4,33.6-11.1C340.8,441.4,341,441.4,341.1,441.4z"/>
	<path class="st11" d="M272.9,606c-6.7,0-13.5,0.1-20.2,0.1c-7.4,0-14.8,0-22.2-0.1c-1-1.2-0.7-2.7-0.7-4.1c0-23.5,0-47,0-70.4
		c0-20.7,0-41.3,0-62c0-1.4-0.3-2.9,0.7-4.1c5.8-0.4,11.7-0.9,17.5-1.3c3.7-0.3,7.4-0.5,11.1-0.8c7.5-0.7,12.1,5.1,12.1,10.7
		c-0.1,5.6,0.2,11.1,0.3,16.7c0.2,18.1,0.4,36.3,0.7,54.4C272.4,565.5,272.8,585.7,272.9,606z"/>
	<path class="st12" d="M230.5,465.5c0,46.8,0,93.7,0,140.5c-8.1,0-16.2,0-24.3,0.1c-5.9,0-11.7,0-17.6,0c0-41.9,0-83.9,0-125.8
		c0-3.7,1-6.9,3.6-9.5c1.9-1.8,4.1-3,6.7-3.1c5.8-0.4,11.7-0.8,17.5-1.3c3.4-0.2,6.8-0.5,10.2-0.7
		C228,465.5,229.2,465.5,230.5,465.5z"/>
</g>
</svg>
