<?xml version="1.0" encoding="utf-8"?>
<!-- Generator: Adobe Illustrator 23.0.0, SVG Export Plug-In . SVG Version: 6.00 Build 0)  -->
<svg version="1.1" xmlns="http://www.w3.org/2000/svg" xmlns:xlink="http://www.w3.org/1999/xlink" x="0px" y="0px"
	 viewBox="0 0 800 800" style="enable-background:new 0 0 800 800;" xml:space="preserve">
<style type="text/css">
	.st0{fill:#333333;}
	.st1{opacity:0.4;clip-path:url(#SVGID_2_);}
	.st2{fill:#FFCF5B;}
	.st3{fill:#FFFEF4;}
</style>
<g id="Layer_2">
	<circle class="st0" cx="401" cy="400" r="400"/>
</g>
<g id="Layer_1_copy">
	<g>
		<defs>
			<circle id="SVGID_1_" cx="401" cy="400" r="400"/>
		</defs>
		<clipPath id="SVGID_2_">
			<use xlink:href="#SVGID_1_"  style="overflow:visible;"/>
		</clipPath>
		<path class="st1" d="M819.2,515.9c-0.3-0.3-0.7-0.7-1-1c-0.3-0.3-0.7-0.7-1-1c-0.3-0.3-0.7-0.7-1-1c-0.3-0.3-0.7-0.7-1-1
			c-0.3-0.3-0.7-0.7-1-1c-0.3-0.3-0.7-0.7-1-1c-0.3-0.3-0.7-0.7-1-1c-0.3-0.3-0.7-0.7-1-1c-0.3-0.3-0.7-0.7-1-1
			c-0.3-0.3-0.7-0.7-1-1c-0.3-0.3-0.7-0.7-1-1c-0.3-0.3-0.7-0.7-1-1c-0.3-0.3-0.7-0.7-1-1c-0.3-0.3-0.7-0.7-1-1
			c-0.3-0.3-0.7-0.7-1-1c-0.3-0.3-0.7-0.7-1-1c-0.3-0.3-0.7-0.7-1-1c-0.3-0.3-0.7-0.7-1-1c-0.3-0.3-0.7-0.7-1-1
			c-0.3-0.3-0.7-0.7-1-1c-0.3-0.3-0.7-0.7-1-1c-0.3-0.3-0.7-0.7-1-1c-0.3-0.3-0.7-0.7-1-1c-0.3-0.3-0.7-0.7-1-1
			c-0.3-0.3-0.7-0.7-1-1c-0.3-0.3-0.7-0.7-1-1c-0.3-0.3-0.7-0.7-1-1c-0.3-0.3-0.7-0.7-1-1c-0.3-0.3-0.7-0.7-1-1
			c-0.3-0.3-0.7-0.7-1-1c-0.3-0.3-0.7-0.7-1-1c-0.3-0.3-0.7-0.7-1-1c-0.3-0.3-0.7-0.7-1-1c-0.3-0.3-0.7-0.7-1-1
			c-0.3-0.3-0.7-0.7-1-1c-0.3-0.3-0.7-0.7-1-1c-0.3-0.3-0.7-0.7-1-1c-0.3-0.3-0.7-0.7-1-1c-0.3-0.3-0.7-0.7-1-1
			c-0.3-0.3-0.7-0.7-1-1c-0.3-0.3-0.7-0.7-1-1c-0.3-0.3-0.7-0.7-1-1c-0.3-0.3-0.7-0.7-1-1c-0.3-0.3-0.7-0.7-1-1
			c-0.3-0.3-0.7-0.7-1-1c-0.3-0.3-0.7-0.7-1-1c-0.3-0.3-0.7-0.7-1-1c-0.3-0.3-0.7-0.7-1-1c-0.3-0.3-0.7-0.7-1-1
			c-0.3-0.3-0.7-0.7-1-1c-0.3-0.3-0.7-0.7-1-1c-0.3-0.3-0.7-0.7-1-1c-0.3-0.3-0.7-0.7-1-1c-0.3-0.3-0.7-0.7-1-1
			c-0.3-0.3-0.7-0.7-1-1c-0.3-0.3-0.7-0.7-1-1c-0.3-0.3-0.7-0.7-1-1c-0.3-0.3-0.7-0.7-1-1c-0.3-0.3-0.7-0.7-1-1
			c-0.3-0.3-0.7-0.7-1-1c-0.3-0.3-0.7-0.7-1-1c-0.3-0.3-0.7-0.7-1-1c-0.3-0.3-0.7-0.7-1-1c-0.3-0.3-0.7-0.7-1-1
			c-0.3-0.3-0.7-0.7-1-1c-0.3-0.3-0.7-0.7-1-1c-0.3-0.3-0.7-0.7-1-1c-0.3-0.3-0.7-0.7-1-1c-0.3-0.3-0.7-0.7-1-1
			c-0.3-0.3-0.7-0.7-1-1c-0.3-0.3-0.7-0.7-1-1c-0.3-0.3-0.7-0.7-1-1c-0.3-0.3-0.7-0.7-1-1c-0.3-0.3-0.7-0.7-1-1
			c-0.3-0.3-0.7-0.7-1-1c-0.3-0.3-0.7-0.7-1-1c-0.3-0.3-0.7-0.7-1-1c-0.3-0.3-0.7-0.7-1-1c-0.3-0.3-0.7-0.7-1-1
			c-0.3-0.3-0.7-0.7-1-1c-0.3-0.3-0.7-0.7-1-1c-0.3-0.3-0.7-0.7-1-1c-0.3-0.3-0.7-0.7-1-1c-0.3-0.3-0.7-0.7-1-1
			c-0.3-0.3-0.7-0.7-1-1c-0.3-0.3-0.7-0.7-1-1c-0.3-0.3-0.7-0.7-1-1c-0.3-0.3-0.7-0.7-1-1c-0.3-0.3-0.7-0.7-1-1
			c-0.3-0.3-0.7-0.7-1-1c-0.3-0.3-0.7-0.7-1-1c-0.3-0.3-0.7-0.7-1-1c-0.3-0.3-0.7-0.7-1-1c-0.3-0.3-0.7-0.7-1-1
			c-0.3-0.3-0.7-0.7-1-1c-0.3-0.3-0.7-0.7-1-1c-0.3-0.3-0.7-0.7-1-1c-0.3-0.3-0.7-0.7-1-1c-0.3-0.3-0.7-0.7-1-1
			c-0.3-0.3-0.7-0.7-1-1c-0.3-0.3-0.7-0.7-1-1c-0.3-0.3-0.7-0.7-1-1c-0.3-0.3-0.7-0.7-1-1c-0.3-0.3-0.7-0.7-1-1
			c-0.3-0.3-0.7-0.7-1-1c-0.3-0.3-0.7-0.7-1-1c-0.3-0.3-0.7-0.7-1-1c-0.3-0.3-0.7-0.7-1-1c-0.3-0.3-0.7-0.7-1-1
			c-0.3-0.3-0.7-0.7-1-1c-0.3-0.3-0.7-0.7-1-1c-0.3-0.3-0.7-0.7-1-1c-0.3-0.3-0.7-0.7-1-1c-0.3-0.3-0.7-0.7-1-1
			c-0.3-0.3-0.7-0.7-1-1c-0.3-0.3-0.7-0.7-1-1c-0.3-0.3-0.7-0.7-1-1c-0.3-0.3-0.7-0.7-1-1c-0.3-0.3-0.7-0.7-1-1
			c-0.3-0.3-0.7-0.7-1-1c-0.3-0.3-0.7-0.7-1-1c-0.3-0.3-0.7-0.7-1-1c-0.3-0.3-0.7-0.7-1-1c-0.3-0.3-0.7-0.7-1-1
			c-0.3-0.3-0.7-0.7-1-1c-0.3-0.3-0.7-0.7-1-1c-0.3-0.3-0.7-0.7-1-1c-0.3-0.3-0.7-0.7-1-1c-0.3-0.3-0.7-0.7-1-1
			c-0.3-0.3-0.7-0.7-1-1c-0.3-0.3-0.7-0.7-1-1c-0.3-0.3-0.7-0.7-1-1c-0.3-0.3-0.7-0.7-1-1c-0.3-0.3-0.7-0.7-1-1
			c-0.3-0.3-0.7-0.7-1-1c-0.3-0.3-0.7-0.7-1-1c-0.3-0.3-0.7-0.7-1-1c-0.3-0.3-0.7-0.7-1-1c-0.3-0.3-0.7-0.7-1-1
			c-0.3-0.3-0.7-0.7-1-1c-0.3-0.3-0.7-0.7-1-1c-0.3-0.3-0.7-0.7-1-1c-0.3-0.3-0.7-0.7-1-1c-0.3-0.3-0.7-0.7-1-1
			c-0.3-0.3-0.7-0.7-1-1c-0.3-0.3-0.7-0.7-1-1c-0.3-0.3-0.7-0.7-1-1c-0.3-0.3-0.7-0.7-1-1c-0.3-0.3-0.7-0.7-1-1
			c-0.3-0.3-0.7-0.7-1-1c-0.3-0.3-0.7-0.7-1-1c-0.3-0.3-0.7-0.7-1-1c-0.3-0.3-0.7-0.7-1-1c-0.3-0.3-0.7-0.7-1-1
			c-0.3-0.3-0.7-0.7-1-1c-0.3-0.3-0.7-0.7-1-1c-0.3-0.3-0.7-0.7-1-1c-0.3-0.3-0.7-0.7-1-1c-0.3-0.3-0.7-0.7-1-1
			c-0.3-0.3-0.7-0.7-1-1c-0.3-0.3-0.7-0.7-1-1c-0.3-0.3-0.7-0.7-1-1c-0.3-0.3-0.7-0.7-1-1c-0.3-0.3-0.7-0.7-1-1
			c-0.3-0.3-0.7-0.7-1-1c-0.3-0.3-0.7-0.7-1-1c-0.3-0.3-0.7-0.7-1-1c-0.3-0.3-0.7-0.7-1-1c-0.3-0.3-0.7-0.7-1-1
			c-0.3-0.3-0.7-0.7-1-1c-0.3-0.3-0.7-0.7-1-1c-0.3-0.3-0.7-0.7-1-1c-0.3-0.3-0.7-0.7-1-1c-0.3-0.3-0.7-0.7-1-1
			c-0.3-0.3-0.7-0.7-1-1c-0.3-0.3-0.7-0.7-1-1c-0.3-0.3-0.7-0.7-1-1c-0.3-0.3-0.7-0.7-1-1c-0.3-0.3-0.7-0.7-1-1
			c-0.3-0.3-0.7-0.7-1-1c-0.3-0.3-0.7-0.7-1-1c-0.3-0.3-0.7-0.7-1-1c-0.3-0.3-0.7-0.7-1-1c-0.3-0.3-0.7-0.7-1-1
			c-1.4-1.5-3-2.8-4.7-4.1c-36.5-28.7-73.1-57.5-109.6-86.2c-20.2-15.9-40.4-31.7-60.5-47.6v-0.1h-0.2c-7.4-5.8-14.8-11.7-22.2-17.6
			c-23.8-18.9-51.1-19.3-74.8-0.7c-7.7,6.1-15.4,12.1-23.2,18.2H338v1.7c-48.1,37.8-96.1,75.6-144.3,113.4
			c-9.1,7.2-18.4,14.3-27.3,21.8c-5.8,4.9-7.6,11.4-5.6,18c0.9,3,2.5,5.6,4.7,7.6c0.3,0.3,0.7,0.7,1,1c0.3,0.3,0.7,0.7,1,1
			c0.3,0.3,0.7,0.7,1,1c0.3,0.3,0.7,0.7,1,1c0.3,0.3,0.7,0.7,1,1c0.3,0.3,0.7,0.7,1,1c0.3,0.3,0.7,0.7,1,1c0.3,0.3,0.7,0.7,1,1
			c0.3,0.3,0.7,0.7,1,1c0.3,0.3,0.7,0.7,1,1c0.3,0.3,0.7,0.7,1,1c0.3,0.3,0.7,0.7,1,1c0.3,0.3,0.7,0.7,1,1c0.3,0.3,0.7,0.7,1,1
			c0.3,0.3,0.7,0.7,1,1c0.3,0.3,0.7,0.7,1,1c0.3,0.3,0.7,0.7,1,1c0.3,0.3,0.7,0.7,1,1c0.3,0.3,0.7,0.7,1,1c0.3,0.3,0.7,0.7,1,1
			c0.3,0.3,0.7,0.7,1,1c0.3,0.3,0.7,0.7,1,1c0.3,0.3,0.7,0.7,1,1c0.3,0.3,0.7,0.7,1,1c0.3,0.3,0.7,0.7,1,1c0.3,0.3,0.7,0.7,1,1
			c0.3,0.3,0.7,0.7,1,1c0.3,0.3,0.7,0.7,1,1c0.3,0.3,0.7,0.7,1,1c0.3,0.3,0.7,0.7,1,1c0.3,0.3,0.7,0.7,1,1c0.3,0.3,0.7,0.7,1,1
			c0.3,0.3,0.7,0.7,1,1c0.3,0.3,0.7,0.7,1,1c0.3,0.3,0.7,0.7,1,1c0.3,0.3,0.7,0.7,1,1c0.3,0.3,0.7,0.7,1,1c0.3,0.3,0.7,0.7,1,1
			c0.3,0.3,0.7,0.7,1,1c0.3,0.3,0.7,0.7,1,1c0.1,0.1,0.2,0.2,0.3,0.3c0,63,0.1,126,0,189.1c-0.1,12.4,3.7,22.9,10.4,31.6
			c2,2.6,4.1,4.9,6.3,7c0.3,0.3,0.7,0.7,1,1c0.3,0.3,0.7,0.7,1,1c0.3,0.3,0.7,0.7,1,1c0.3,0.3,0.7,0.7,1,1c0.3,0.3,0.7,0.7,1,1
			c0.3,0.3,0.7,0.7,1,1c0.3,0.3,0.7,0.7,1,1c0.3,0.3,0.7,0.7,1,1c0.3,0.3,0.7,0.7,1,1c0.3,0.3,0.7,0.7,1,1c0.3,0.3,0.7,0.7,1,1
			c0.3,0.3,0.7,0.7,1,1c0.3,0.3,0.7,0.7,1,1c0.3,0.3,0.7,0.7,1,1c0.3,0.3,0.7,0.7,1,1c0.3,0.3,0.7,0.7,1,1c0.3,0.3,0.7,0.7,1,1
			c0.3,0.3,0.7,0.7,1,1c0.3,0.3,0.7,0.7,1,1c0.3,0.3,0.7,0.7,1,1c0.3,0.3,0.7,0.7,1,1c0.3,0.3,0.7,0.7,1,1c0.3,0.3,0.7,0.7,1,1
			c0.3,0.3,0.7,0.7,1,1c0.3,0.3,0.7,0.7,1,1c0.3,0.3,0.7,0.7,1,1c0.3,0.3,0.7,0.7,1,1c0.3,0.3,0.7,0.7,1,1c0.3,0.3,0.7,0.7,1,1
			c0.3,0.3,0.7,0.7,1,1c0.3,0.3,0.7,0.7,1,1c0.3,0.3,0.7,0.7,1,1c0.3,0.3,0.7,0.7,1,1c0.3,0.3,0.7,0.7,1,1c0.3,0.3,0.7,0.7,1,1
			c0.3,0.3,0.7,0.7,1,1c0.3,0.3,0.7,0.7,1,1c0.3,0.3,0.7,0.7,1,1c0.3,0.3,0.7,0.7,1,1c0.3,0.3,0.7,0.7,1,1c0.3,0.3,0.7,0.7,1,1
			c0.3,0.3,0.7,0.7,1,1c0.3,0.3,0.7,0.7,1,1c0.3,0.3,0.7,0.7,1,1c0.3,0.3,0.7,0.7,1,1c0.3,0.3,0.7,0.7,1,1c0.3,0.3,0.7,0.7,1,1
			c0.3,0.3,0.7,0.7,1,1c0.3,0.3,0.7,0.7,1,1c0.3,0.3,0.7,0.7,1,1c0.3,0.3,0.7,0.7,1,1c0.3,0.3,0.7,0.7,1,1c0.3,0.3,0.7,0.7,1,1
			c0.3,0.3,0.7,0.7,1,1c0.3,0.3,0.7,0.7,1,1c0.3,0.3,0.7,0.7,1,1c0.3,0.3,0.7,0.7,1,1c0.3,0.3,0.7,0.7,1,1c0.3,0.3,0.7,0.7,1,1
			c0.3,0.3,0.7,0.7,1,1c0.3,0.3,0.7,0.7,1,1c0.3,0.3,0.7,0.7,1,1c0.3,0.3,0.7,0.7,1,1c0.3,0.3,0.7,0.7,1,1c0.3,0.3,0.7,0.7,1,1
			c0.3,0.3,0.7,0.7,1,1c0.3,0.3,0.7,0.7,1,1c0.3,0.3,0.7,0.7,1,1c0.3,0.3,0.7,0.7,1,1c0.3,0.3,0.7,0.7,1,1c0.3,0.3,0.7,0.7,1,1
			c0.3,0.3,0.7,0.7,1,1c0.3,0.3,0.7,0.7,1,1c0.3,0.3,0.7,0.7,1,1c0.3,0.3,0.7,0.7,1,1c0.3,0.3,0.7,0.7,1,1c0.3,0.3,0.7,0.7,1,1
			c0.3,0.3,0.7,0.7,1,1c0.3,0.3,0.7,0.7,1,1c0.3,0.3,0.7,0.7,1,1c0.3,0.3,0.7,0.7,1,1c0.3,0.3,0.7,0.7,1,1c0.3,0.3,0.7,0.7,1,1
			c0.3,0.3,0.7,0.7,1,1c0.3,0.3,0.7,0.7,1,1c0.3,0.3,0.7,0.7,1,1c0.3,0.3,0.7,0.7,1,1c0.3,0.3,0.7,0.7,1,1c0.3,0.3,0.7,0.7,1,1
			c0.3,0.3,0.7,0.7,1,1c0.3,0.3,0.7,0.7,1,1c0.3,0.3,0.7,0.7,1,1c0.3,0.3,0.7,0.7,1,1c0.3,0.3,0.7,0.7,1,1c0.3,0.3,0.7,0.7,1,1
			c0.3,0.3,0.7,0.7,1,1c0.3,0.3,0.7,0.7,1,1c0.3,0.3,0.7,0.7,1,1c0.3,0.3,0.7,0.7,1,1c0.3,0.3,0.7,0.7,1,1c0.3,0.3,0.7,0.7,1,1
			c0.3,0.3,0.7,0.7,1,1c0.3,0.3,0.7,0.7,1,1c0.3,0.3,0.7,0.7,1,1c0.3,0.3,0.7,0.7,1,1c0.3,0.3,0.7,0.7,1,1c0.3,0.3,0.7,0.7,1,1
			c0.3,0.3,0.7,0.7,1,1c0.3,0.3,0.7,0.7,1,1c0.3,0.3,0.7,0.7,1,1c0.3,0.3,0.7,0.7,1,1c0.3,0.3,0.7,0.7,1,1c0.3,0.3,0.7,0.7,1,1
			c0.3,0.3,0.7,0.7,1,1c0.3,0.3,0.7,0.7,1,1c0.3,0.3,0.7,0.7,1,1c0.3,0.3,0.7,0.7,1,1c0.3,0.3,0.7,0.7,1,1c0.3,0.3,0.7,0.7,1,1
			c0.3,0.3,0.7,0.7,1,1c0.3,0.3,0.7,0.7,1,1c0.3,0.3,0.7,0.7,1,1c0.3,0.3,0.7,0.7,1,1c0.3,0.3,0.7,0.7,1,1c0.3,0.3,0.7,0.7,1,1
			c0.3,0.3,0.7,0.7,1,1c0.3,0.3,0.7,0.7,1,1c0.3,0.3,0.7,0.7,1,1c0.3,0.3,0.7,0.7,1,1c0.3,0.3,0.7,0.7,1,1c0.3,0.3,0.7,0.7,1,1
			c0.3,0.3,0.7,0.7,1,1c0.3,0.3,0.7,0.7,1,1c0.3,0.3,0.7,0.7,1,1c0.3,0.3,0.7,0.7,1,1c0.3,0.3,0.7,0.7,1,1c0.3,0.3,0.7,0.7,1,1
			c0.3,0.3,0.7,0.7,1,1c0.3,0.3,0.7,0.7,1,1c0.3,0.3,0.7,0.7,1,1c0.3,0.3,0.7,0.7,1,1c0.3,0.3,0.7,0.7,1,1c0.3,0.3,0.7,0.7,1,1
			c0.3,0.3,0.7,0.7,1,1c0.3,0.3,0.7,0.7,1,1c0.3,0.3,0.7,0.7,1,1c0.3,0.3,0.7,0.7,1,1c0.3,0.3,0.7,0.7,1,1c0.3,0.3,0.7,0.7,1,1
			c0.3,0.3,0.7,0.7,1,1c0.3,0.3,0.7,0.7,1,1c0.3,0.3,0.7,0.7,1,1c0.3,0.3,0.7,0.7,1,1c0.3,0.3,0.7,0.7,1,1c0.3,0.3,0.7,0.7,1,1
			c0.3,0.3,0.7,0.7,1,1c0.3,0.3,0.7,0.7,1,1c0.3,0.3,0.7,0.7,1,1c0.3,0.3,0.7,0.7,1,1c0.3,0.3,0.7,0.7,1,1c0.3,0.3,0.7,0.7,1,1
			c0.3,0.3,0.7,0.7,1,1c0.3,0.3,0.7,0.7,1,1c0.3,0.3,0.7,0.7,1,1c0.3,0.3,0.7,0.7,1,1c0.3,0.3,0.7,0.7,1,1c0.3,0.3,0.7,0.7,1,1
			c0.3,0.3,0.7,0.7,1,1c0.3,0.3,0.7,0.7,1,1c0.3,0.3,0.7,0.7,1,1c0.3,0.3,0.7,0.7,1,1c0.3,0.3,0.7,0.7,1,1c0.3,0.3,0.7,0.7,1,1
			c0.3,0.3,0.7,0.7,1,1c0.3,0.3,0.7,0.7,1,1c0.3,0.3,0.7,0.7,1,1c0.3,0.3,0.7,0.7,1,1c0.3,0.3,0.7,0.7,1,1c0.3,0.3,0.7,0.7,1,1
			c0.3,0.3,0.7,0.7,1,1c0.3,0.3,0.7,0.7,1,1c0.3,0.3,0.7,0.7,1,1c0.3,0.3,0.7,0.7,1,1c0.3,0.3,0.7,0.7,1,1
			c9.7,9.7,21.2,14.4,34.1,14.5c48.5,0.2,97.1,0.1,145.6,0.1c47.4,0,94.9-0.1,142.4,0.2c5,0,9.8-0.3,14.6-1.5
			c19.3-4.5,38-21.7,40-50.2c0.6-8.7-0.6-17.2-0.6-25.9c0.2-72.1,0.2-144.2,0.1-216.3c0.4,0.3,0.8,0.6,1.1,0.9
			c5.9,4.6,11.3,9.8,17.9,13.2c11.1,5.8,23.3-2,23.3-14.3C825.2,523,822.6,519.1,819.2,515.9z"/>
	</g>
</g>
<g id="Layer_1">
	<g>
		<g>
			<path class="st2" d="M401.2,638c-48.5,0-97.1,0.1-145.6-0.1c-15.3-0.1-28.7-6.8-39.4-20.5c-6.8-8.7-10.5-19.2-10.4-31.6
				c0.1-81.4,0-162.8,0-244.1c0-15.8,8.9-25.2,20.6-22.4c8.4,2.1,13.2,9.6,13.2,21c0.1,46.3,0.1,92.7,0.1,139c0,30.3,0,60.6,0,90.9
				c0,1.7,0,3.4,0,5.2c0.3,15.3,4.2,20.5,16.6,21.9c2.3,0.2,4.6,0.2,6.8,0.2c92.7,0,185.3,0,278.1,0c19.4,0,22.8-4.2,22.8-28.4
				c0-73.4,0-146.7,0-220.1c0-3.3-0.1-6.5,0.1-9.7c0.4-12,7.7-20.7,16.9-20.2c10,0.4,16.9,8.7,16.9,20.9
				c0.1,73.6,0.1,147.2-0.1,220.8c0,8.7,1.1,17.1,0.6,25.9c-2,28.5-20.7,45.7-40,50.2c-4.8,1.1-9.6,1.5-14.6,1.5
				C496.1,637.9,448.6,638,401.2,638z"/>
			<path class="st2" d="M640,344.1c0.1,12.2-12.2,20.1-23.3,14.3c-6.5-3.4-12-8.7-17.9-13.2C538.4,297.7,478,250,417.6,202.4
				c-11.4-9.1-23-9.2-35,0.2c-35.3,27.6-70.4,55.4-105.6,83.1c-29.5,23.2-58.9,46.4-88.5,69.6c-4.1,3.2-8.6,5.3-13.7,5
				c-6.5-0.3-12.1-5.1-14-11.6c-2-6.6-0.2-13.1,5.6-18c9-7.5,18.2-14.6,27.3-21.8c56.6-44.5,113.1-88.9,169.6-133.3
				c23.7-18.6,50.9-18.3,74.8,0.7c27.6,21.9,55.2,43.5,82.9,65.3c36.5,28.7,73.1,57.5,109.6,86.2C635.6,331.7,640.2,336,640,344.1z"
				/>
			<g>
				<rect x="231.9" y="310.6" class="st2" width="349.4" height="297.2"/>
				<rect x="245.7" y="271.4" class="st2" width="310.2" height="44.1"/>
				<rect x="293.9" y="245.3" class="st2" width="210.6" height="31"/>
				<rect x="316.8" y="220.8" class="st2" width="166.5" height="31"/>
				<rect x="338" y="193.8" class="st2" width="122.5" height="31"/>
			</g>
		</g>
		<path class="st3" d="M342.1,413.3c17.3-0.3,31.3,5.3,45,11.8c14.3,6.7,28,14.9,43.4,18.6c10,2.4,20.1,3.2,30.2,0.6
			c9.1-2.3,14.5-9.8,15.1-20c0.6-9.6,6-15.8,13.3-15c8.2,0.8,13.2,8.5,12.1,18c-3.3,26-19.6,42.6-43.3,45.3
			c-23.3,2.7-44.3-4.7-65-14.9c-13.3-6.5-26.2-14-40.7-16.8c-4.2-0.8-8.5-0.9-12.7-0.6c-10.4,0.8-15.7,7.7-14.4,19.1
			c0.6,5-0.3,9.3-3.6,12.7c-3.5,3.8-7.7,5.2-12.6,3.6c-4.8-1.6-7.7-5.3-8.7-10.6c-4.5-24.5,9-46.1,31.4-50.9
			C335.6,413.4,339.8,413.2,342.1,413.3z"/>
		<path class="st3" d="M447.6,386.6c-20.1,0.1-38.5-7.2-56.5-16.2c-10.1-5.1-20.1-10.5-30.9-13.9c-6.9-2.1-14-3.9-21.3-2.7
			c-11.6,2-15.3,7.3-14.2,20.3c0.7,9.1-5,16-13,15.6c-5.9-0.2-10.8-4.5-11.8-10.9c-3.4-21,4.6-44,28.5-50.6
			c17.6-4.9,34-0.5,50.3,6.4c14.7,6.1,28.3,14.8,43.4,19.9c11.5,3.9,23.1,6.4,35.3,3.9c11.4-2.3,17.1-9,18.1-21.6
			c0.7-9.5,6.4-14.9,14.7-13.8c7.1,0.9,11.7,8.2,10.7,17c-3.1,28.1-20.7,45.3-47.6,46.5C451.5,386.7,449.5,386.6,447.6,386.6z"/>
		<path class="st3" d="M449.4,552.1c-21.6,0-39.9-7.1-57.7-16c-10.4-5.1-20.7-10.9-31.8-14.3c-7.1-2.2-14.3-3.9-21.7-2.4
			c-10.5,2.1-14.4,7.8-13.4,19.6c0.7,9-3.4,15.2-10.9,16.2c-6.9,0.9-12.7-3.8-14-11.1c-4.6-25,9.6-47.1,32.8-51.3
			c15.2-2.8,29.6,0.8,43.7,6.4c15.3,6.1,29.6,15.2,45.2,20.7c11.7,4.1,23.4,6.7,35.7,4.1c12.2-2.6,17.1-8.6,18.2-22
			c0.7-8.9,6.4-14.3,14-13.5c7.4,0.8,12.2,7.8,11.4,16.4c-2.3,25.1-16.8,42-39.8,46C456.8,551.7,452.3,552.3,449.4,552.1z"/>
	</g>
</g>
</svg>
