<?xml version="1.0" encoding="utf-8"?>
<!-- Generator: Adobe Illustrator 23.0.0, SVG Export Plug-In . SVG Version: 6.00 Build 0)  -->
<svg version="1.1" xmlns="http://www.w3.org/2000/svg" xmlns:xlink="http://www.w3.org/1999/xlink" x="0px" y="0px"
	 viewBox="0 0 800 800" style="enable-background:new 0 0 800 800;" xml:space="preserve">
<style type="text/css">
	.st0{fill:#333333;}
	.st1{opacity:0.4;clip-path:url(#SVGID_2_);}
	.st2{fill:#E0E0E0;}
	.st3{fill:#D7D7D7;}
	.st4{fill:#4C73B2;}
	.st5{fill:none;stroke:#4C73B2;stroke-width:4;stroke-miterlimit:10;}
	.st6{fill:none;stroke:#4C73B2;stroke-width:8;stroke-miterlimit:10;}
</style>
<g id="Layer_2">
	<circle class="st0" cx="400" cy="400" r="400"/>
</g>
<g id="Layer_1_copy_2">
	<g>
		<defs>
			<circle id="SVGID_1_" cx="400" cy="400" r="400"/>
		</defs>
		<clipPath id="SVGID_2_">
			<use xlink:href="#SVGID_1_"  style="overflow:visible;"/>
		</clipPath>
		<path class="st1" d="M965,598.5c-0.6,0-1.1-0.1-1.7-0.1c0.2-0.3,0.5-0.6,0.7-0.9c-0.6,0-1.1-0.1-1.7-0.1c0.2-0.3,0.5-0.6,0.7-0.9
			c-0.6,0-1.1-0.1-1.7-0.1c0.2-0.3,0.5-0.6,0.7-0.9c-0.6,0-1.1-0.1-1.7-0.1c0.2-0.3,0.5-0.6,0.7-0.9c-0.6,0-1.1-0.1-1.7-0.1
			c0.2-0.3,0.5-0.6,0.7-0.9c-0.6,0-1.1-0.1-1.7-0.1c0.2-0.3,0.5-0.6,0.7-0.9c-0.6,0-1.1-0.1-1.7-0.1c0.2-0.3,0.5-0.6,0.7-0.9
			c-0.6,0-1.1-0.1-1.7-0.1c0.2-0.3,0.5-0.6,0.7-0.9c-0.6,0-1.1-0.1-1.7-0.1c0.2-0.3,0.5-0.6,0.7-0.9c-0.6,0-1.1-0.1-1.7-0.1
			c0.2-0.3,0.5-0.6,0.7-0.9c-0.6,0-1.1-0.1-1.7-0.1c0.2-0.3,0.5-0.6,0.7-0.9c-0.6,0-1.1-0.1-1.7-0.1c0.2-0.3,0.5-0.6,0.7-0.9
			c-0.6,0-1.1-0.1-1.7-0.1c0.2-0.3,0.5-0.6,0.7-0.9c-0.6,0-1.1-0.1-1.7-0.1c0.2-0.3,0.5-0.6,0.7-0.9c-0.6,0-1.1-0.1-1.7-0.1
			c0.2-0.3,0.5-0.6,0.7-0.9c-0.6,0-1.1-0.1-1.7-0.1c0.2-0.3,0.5-0.6,0.7-0.9c-0.6,0-1.1-0.1-1.7-0.1c0.2-0.3,0.5-0.6,0.7-0.9
			c-0.6,0-1.1-0.1-1.7-0.1c0.2-0.3,0.5-0.6,0.7-0.9c-0.6,0-1.1-0.1-1.7-0.1c0.2-0.3,0.5-0.6,0.7-0.9c-0.6,0-1.1-0.1-1.7-0.1
			c0.2-0.3,0.5-0.6,0.7-0.9c-0.6,0-1.1-0.1-1.7-0.1c0.2-0.3,0.5-0.6,0.7-0.9c-0.6,0-1.1-0.1-1.7-0.1c0.2-0.3,0.5-0.6,0.7-0.9
			c-0.6,0-1.1-0.1-1.7-0.1c0.2-0.3,0.5-0.6,0.7-0.9c-0.6,0-1.1-0.1-1.7-0.1c0.2-0.3,0.5-0.6,0.7-0.9c-0.6,0-1.1-0.1-1.7-0.1
			c0.2-0.3,0.5-0.6,0.7-0.9c-0.6,0-1.1-0.1-1.7-0.1c0.2-0.3,0.5-0.6,0.7-0.9c-0.6,0-1.1-0.1-1.7-0.1c0.2-0.3,0.5-0.6,0.7-0.9
			c-0.6,0-1.1-0.1-1.7-0.1c0.2-0.3,0.5-0.6,0.7-0.9c-0.6,0-1.1-0.1-1.7-0.1c0.2-0.3,0.5-0.6,0.7-0.9c-0.6,0-1.1-0.1-1.7-0.1
			c0.2-0.3,0.5-0.6,0.7-0.9c-0.6,0-1.1-0.1-1.7-0.1c0.2-0.3,0.5-0.6,0.7-0.9c-0.6,0-1.1-0.1-1.7-0.1c0.2-0.3,0.5-0.6,0.7-0.9
			c-0.6,0-1.1-0.1-1.7-0.1c0.2-0.3,0.5-0.6,0.7-0.9c-0.6,0-1.1-0.1-1.7-0.1c0.2-0.3,0.5-0.6,0.7-0.9c-0.6,0-1.1-0.1-1.7-0.1
			c0.2-0.3,0.5-0.6,0.7-0.9c-0.6,0-1.1-0.1-1.7-0.1c0.2-0.3,0.5-0.6,0.7-0.9c-0.6,0-1.1-0.1-1.7-0.1c0.2-0.3,0.5-0.6,0.7-0.9
			c-0.6,0-1.1-0.1-1.7-0.1c0.2-0.3,0.5-0.6,0.7-0.9c-0.6,0-1.1-0.1-1.7-0.1c0.2-0.3,0.5-0.6,0.7-0.9c-0.6,0-1.1-0.1-1.7-0.1
			c0.2-0.3,0.5-0.6,0.7-0.9c-0.6,0-1.1-0.1-1.7-0.1c0.2-0.3,0.5-0.6,0.7-0.9c-0.6,0-1.1-0.1-1.7-0.1c0.2-0.3,0.5-0.6,0.7-0.9
			c-0.6,0-1.1-0.1-1.7-0.1c0.2-0.3,0.5-0.6,0.7-0.9c-0.6,0-1.1-0.1-1.7-0.1c0.2-0.3,0.5-0.6,0.7-0.9c-0.6,0-1.1-0.1-1.7-0.1
			c0.2-0.3,0.5-0.6,0.7-0.9c-0.6,0-1.1-0.1-1.7-0.1c0.2-0.3,0.5-0.6,0.7-0.9c-0.6,0-1.1-0.1-1.7-0.1c0.2-0.3,0.5-0.6,0.7-0.9
			c-0.6,0-1.1-0.1-1.7-0.1c0.2-0.3,0.5-0.6,0.7-0.9c-0.6,0-1.1-0.1-1.7-0.1c0.2-0.3,0.5-0.6,0.7-0.9c-0.6,0-1.1-0.1-1.7-0.1
			c0.2-0.3,0.5-0.6,0.7-0.9c-0.6,0-1.1-0.1-1.7-0.1c0.2-0.3,0.5-0.6,0.7-0.9c-0.6,0-1.1-0.1-1.7-0.1c0.2-0.3,0.5-0.6,0.7-0.9
			c-0.6,0-1.1-0.1-1.7-0.1c0.2-0.3,0.5-0.6,0.7-0.9c-0.6,0-1.1-0.1-1.7-0.1c0.2-0.3,0.5-0.6,0.7-0.9c-0.6,0-1.1-0.1-1.7-0.1
			c0.2-0.3,0.5-0.6,0.7-0.9c-0.6,0-1.1-0.1-1.7-0.1c0.2-0.3,0.5-0.6,0.7-0.9c-0.6,0-1.1-0.1-1.7-0.1c0.2-0.3,0.5-0.6,0.7-0.9
			c-0.6,0-1.1-0.1-1.7-0.1c0.2-0.3,0.5-0.6,0.7-0.9c-0.6,0-1.1-0.1-1.7-0.1c0.2-0.3,0.5-0.6,0.7-0.9c-0.6,0-1.1-0.1-1.7-0.1
			c0.2-0.3,0.5-0.6,0.7-0.9c-0.6,0-1.1-0.1-1.7-0.1c0.2-0.3,0.5-0.6,0.7-0.9c-0.6,0-1.1-0.1-1.7-0.1c0.2-0.3,0.5-0.6,0.7-0.9
			c-0.6,0-1.1-0.1-1.7-0.1c0.2-0.3,0.5-0.6,0.7-0.9c-0.6,0-1.1-0.1-1.7-0.1c0.2-0.3,0.5-0.6,0.7-0.9c-0.6,0-1.1-0.1-1.7-0.1
			c0.2-0.3,0.5-0.6,0.7-0.9c-0.6,0-1.1-0.1-1.7-0.1c0.2-0.3,0.5-0.6,0.7-0.9c-0.6,0-1.1-0.1-1.7-0.1c0.2-0.3,0.5-0.6,0.7-0.9
			c-0.6,0-1.1-0.1-1.7-0.1c0.2-0.3,0.5-0.6,0.7-0.9c-0.6,0-1.1-0.1-1.7-0.1c0.2-0.3,0.5-0.6,0.7-0.9c-0.6,0-1.1-0.1-1.7-0.1
			c0.2-0.3,0.5-0.6,0.7-0.9c-0.6,0-1.1-0.1-1.7-0.1c0.2-0.3,0.5-0.6,0.7-0.9c-0.6,0-1.1-0.1-1.7-0.1c0.2-0.3,0.5-0.6,0.7-0.9
			c-0.6,0-1.1-0.1-1.7-0.1c0.2-0.3,0.5-0.6,0.7-0.9c-0.6,0-1.1-0.1-1.7-0.1c0.2-0.3,0.5-0.6,0.7-0.9c-0.6,0-1.1-0.1-1.7-0.1
			c0.2-0.3,0.5-0.6,0.7-0.9c-0.6,0-1.1-0.1-1.7-0.1c0.2-0.3,0.5-0.6,0.7-0.9c-0.6,0-1.1-0.1-1.7-0.1c0.2-0.3,0.5-0.6,0.7-0.9
			c-0.6,0-1.1-0.1-1.7-0.1c0.2-0.3,0.5-0.6,0.7-0.9c-0.6,0-1.1-0.1-1.7-0.1c0.2-0.3,0.5-0.6,0.7-0.9c-0.6,0-1.1-0.1-1.7-0.1
			c0.2-0.3,0.5-0.6,0.7-0.9c-0.6,0-1.1-0.1-1.7-0.1c0.2-0.3,0.5-0.6,0.7-0.9c-0.6,0-1.1-0.1-1.7-0.1c0.2-0.3,0.5-0.6,0.7-0.9
			c-0.6,0-1.1-0.1-1.7-0.1c0.2-0.3,0.5-0.6,0.7-0.9c-0.6,0-1.1-0.1-1.7-0.1c0.2-0.3,0.5-0.6,0.7-0.9c-0.6,0-1.1-0.1-1.7-0.1
			c0.2-0.3,0.5-0.6,0.7-0.9c-0.6,0-1.1-0.1-1.7-0.1c0.2-0.3,0.5-0.6,0.7-0.9c-0.6,0-1.1-0.1-1.7-0.1c0.2-0.3,0.5-0.6,0.7-0.9
			c-0.6,0-1.1-0.1-1.7-0.1c0.2-0.3,0.5-0.6,0.7-0.9c-0.6,0-1.1-0.1-1.7-0.1c0.2-0.3,0.5-0.6,0.7-0.9c-0.6,0-1.1-0.1-1.7-0.1
			c0.2-0.3,0.5-0.6,0.7-0.9c-0.6,0-1.1-0.1-1.7-0.1c0.2-0.3,0.5-0.6,0.7-0.9c-0.6,0-1.1-0.1-1.7-0.1c0.2-0.3,0.5-0.6,0.7-0.9
			c-0.6,0-1.1-0.1-1.7-0.1c0.2-0.3,0.5-0.6,0.7-0.9c-0.6,0-1.1-0.1-1.7-0.1c0.2-0.3,0.5-0.6,0.7-0.9c-0.6,0-1.1-0.1-1.7-0.1
			c0.2-0.3,0.5-0.6,0.7-0.9c-0.6,0-1.1-0.1-1.7-0.1c0.2-0.3,0.5-0.6,0.7-0.9c-0.6,0-1.1-0.1-1.7-0.1c0.2-0.3,0.5-0.6,0.7-0.9
			c-0.6,0-1.1-0.1-1.7-0.1c0.2-0.3,0.5-0.6,0.7-0.9c-0.6,0-1.1-0.1-1.7-0.1c0.2-0.3,0.5-0.6,0.7-0.9c-0.6,0-1.1-0.1-1.7-0.1
			c0.2-0.3,0.5-0.6,0.7-0.9c-0.6,0-1.1-0.1-1.7-0.1c0.2-0.3,0.5-0.6,0.7-0.9c-0.6,0-1.1-0.1-1.7-0.1c0.2-0.3,0.5-0.6,0.7-0.9
			c-0.6,0-1.1-0.1-1.7-0.1c0.2-0.3,0.5-0.6,0.7-0.9c-0.6,0-1.1-0.1-1.7-0.1c0.2-0.3,0.5-0.6,0.7-0.9c-0.6,0-1.1-0.1-1.7-0.1
			c0.2-0.3,0.5-0.6,0.7-0.9c-0.6,0-1.1-0.1-1.7-0.1c0.2-0.3,0.5-0.6,0.7-0.9c-0.6,0-1.1-0.1-1.7-0.1c0.2-0.3,0.5-0.6,0.7-0.9
			c-0.6,0-1.1-0.1-1.7-0.1c0.2-0.3,0.5-0.6,0.7-0.9c-0.6,0-1.1-0.1-1.7-0.1c0.2-0.3,0.5-0.6,0.7-0.9c-0.6,0-1.1-0.1-1.7-0.1
			c0.2-0.3,0.5-0.6,0.7-0.9c-0.6,0-1.1-0.1-1.7-0.1c0.2-0.3,0.5-0.6,0.7-0.9c-0.6,0-1.1-0.1-1.7-0.1c0.2-0.3,0.5-0.6,0.7-0.9
			c-0.6,0-1.1-0.1-1.7-0.1c0.2-0.3,0.5-0.6,0.7-0.9c-0.6,0-1.1-0.1-1.7-0.1c0.2-0.3,0.5-0.6,0.7-0.9c-0.6,0-1.1-0.1-1.7-0.1
			c0.2-0.3,0.5-0.6,0.7-0.9c-0.6,0-1.1-0.1-1.7-0.1c0.2-0.3,0.5-0.6,0.7-0.9c-0.6,0-1.1-0.1-1.7-0.1c0.2-0.3,0.5-0.6,0.7-0.9
			c-0.6,0-1.1-0.1-1.7-0.1c0.2-0.3,0.5-0.6,0.7-0.9c-0.6,0-1.1-0.1-1.7-0.1c0.2-0.3,0.5-0.6,0.7-0.9c-0.6,0-1.1-0.1-1.7-0.1
			c0.2-0.3,0.5-0.6,0.7-0.9c-0.6,0-1.1-0.1-1.7-0.1c0.2-0.3,0.5-0.6,0.7-0.9c-0.6,0-1.1-0.1-1.7-0.1c0.2-0.3,0.5-0.6,0.7-0.9
			c-0.6,0-1.1-0.1-1.7-0.1c0.2-0.3,0.5-0.6,0.7-0.9c-0.6,0-1.1-0.1-1.7-0.1c0.2-0.3,0.5-0.6,0.7-0.9c-0.6,0-1.1-0.1-1.7-0.1
			c0.2-0.3,0.5-0.6,0.7-0.9c-0.6,0-1.1-0.1-1.7-0.1c0.2-0.3,0.5-0.6,0.7-0.9c-0.6,0-1.1-0.1-1.7-0.1c0.2-0.3,0.5-0.6,0.7-0.9
			c-0.6,0-1.1-0.1-1.7-0.1c0.2-0.3,0.5-0.6,0.7-0.9c-0.6,0-1.1-0.1-1.7-0.1c0.2-0.3,0.5-0.6,0.7-0.9c-0.6,0-1.1-0.1-1.7-0.1
			c0.2-0.3,0.5-0.6,0.7-0.9c-0.6,0-1.1-0.1-1.7-0.1c0.2-0.3,0.5-0.6,0.7-0.9c-0.6,0-1.1-0.1-1.7-0.1c0.2-0.3,0.5-0.6,0.7-0.9
			c-0.6,0-1.1-0.1-1.7-0.1c0.2-0.3,0.5-0.6,0.7-0.9c-0.6,0-1.1-0.1-1.7-0.1c0.2-0.3,0.5-0.6,0.7-0.9c-0.6,0-1.1-0.1-1.7-0.1
			c0.2-0.3,0.5-0.6,0.7-0.9c-0.6,0-1.1-0.1-1.7-0.1c0.2-0.3,0.5-0.6,0.7-0.9c-0.6,0-1.1-0.1-1.7-0.1c0.2-0.3,0.5-0.6,0.7-0.9
			c-0.6,0-1.1-0.1-1.7-0.1c0.2-0.3,0.5-0.6,0.7-0.9c-0.6,0-1.1-0.1-1.7-0.1c0.2-0.3,0.5-0.6,0.7-0.9c-0.6,0-1.1-0.1-1.7-0.1
			c0.2-0.3,0.5-0.6,0.7-0.9c-0.6,0-1.1-0.1-1.7-0.1c0.2-0.3,0.5-0.6,0.7-0.9c-0.6,0-1.1-0.1-1.7-0.1c0.2-0.3,0.5-0.6,0.7-0.9
			c-0.6,0-1.1-0.1-1.7-0.1c0.2-0.3,0.5-0.6,0.7-0.9c-0.6,0-1.1-0.1-1.7-0.1c0.2-0.3,0.5-0.6,0.7-0.9c-0.6,0-1.1-0.1-1.7-0.1
			c0.2-0.3,0.5-0.6,0.7-0.9c-0.6,0-1.1-0.1-1.7-0.1c0.2-0.3,0.5-0.6,0.7-0.9c-0.6,0-1.1-0.1-1.7-0.1c0.2-0.3,0.5-0.6,0.7-0.9
			c-0.6,0-1.1-0.1-1.7-0.1c0.2-0.3,0.5-0.6,0.7-0.9c-0.6,0-1.1-0.1-1.7-0.1c0.2-0.3,0.5-0.6,0.7-0.9c-0.6,0-1.1-0.1-1.7-0.1
			c0.2-0.3,0.5-0.6,0.7-0.9c-0.6,0-1.1-0.1-1.7-0.1c0.2-0.3,0.5-0.6,0.7-0.9c-0.6,0-1.1-0.1-1.7-0.1c0.2-0.3,0.5-0.6,0.7-0.9
			c-0.6,0-1.1-0.1-1.7-0.1c0.2-0.3,0.5-0.6,0.7-0.9c-0.6,0-1.1-0.1-1.7-0.1c0.2-0.3,0.5-0.6,0.7-0.9c-0.6,0-1.1-0.1-1.7-0.1
			c0.2-0.3,0.5-0.6,0.7-0.9c-0.6,0-1.1-0.1-1.7-0.1c0.2-0.3,0.5-0.6,0.7-0.9c-0.6,0-1.1-0.1-1.7-0.1c0.2-0.3,0.5-0.6,0.7-0.9
			c-0.6,0-1.1-0.1-1.7-0.1c0.2-0.3,0.5-0.6,0.7-0.9c-0.6,0-1.1-0.1-1.7-0.1c0.2-0.3,0.5-0.6,0.7-0.9c-0.6,0-1.1-0.1-1.7-0.1
			c0.2-0.3,0.5-0.6,0.7-0.9c-0.6,0-1.1-0.1-1.7-0.1c0.2-0.3,0.5-0.6,0.7-0.9c-0.6,0-1.1-0.1-1.7-0.1c0.2-0.3,0.5-0.6,0.7-0.9
			c-0.6,0-1.1-0.1-1.7-0.1c0.2-0.3,0.5-0.6,0.7-0.9c-0.6,0-1.1-0.1-1.7-0.1c0.2-0.3,0.5-0.6,0.7-0.9c-0.6,0-1.1-0.1-1.7-0.1
			c0.2-0.3,0.5-0.6,0.7-0.9c-0.6,0-1.1-0.1-1.7-0.1c0.2-0.3,0.5-0.6,0.7-0.9c-0.6,0-1.1-0.1-1.7-0.1c0.2-0.3,0.5-0.6,0.7-0.9
			c-0.6,0-1.1-0.1-1.7-0.1c0.2-0.3,0.5-0.6,0.7-0.9c-0.6,0-1.1-0.1-1.7-0.1c0.2-0.3,0.5-0.6,0.7-0.9c-0.6,0-1.1-0.1-1.7-0.1
			c0.2-0.3,0.5-0.6,0.7-0.9c-0.6,0-1.1-0.1-1.7-0.1c0.2-0.3,0.5-0.6,0.7-0.9c-0.6,0-1.1-0.1-1.7-0.1c0.2-0.3,0.5-0.6,0.7-0.9
			c-0.6,0-1.1-0.1-1.7-0.1c0.2-0.3,0.5-0.6,0.7-0.9c-0.6,0-1.1-0.1-1.7-0.1c0.2-0.3,0.5-0.6,0.7-0.9c-0.6,0-1.1-0.1-1.7-0.1
			c0.2-0.3,0.5-0.6,0.7-0.9c-0.6,0-1.1-0.1-1.7-0.1c0.2-0.3,0.5-0.6,0.7-0.9c-0.6,0-1.1-0.1-1.7-0.1c0.2-0.3,0.5-0.6,0.7-0.9
			c-0.6,0-1.1-0.1-1.7-0.1c0.2-0.3,0.5-0.6,0.7-0.9c-0.6,0-1.1-0.1-1.7-0.1c0.2-0.3,0.5-0.6,0.7-0.9c-0.6,0-1.1-0.1-1.7-0.1
			c0.2-0.3,0.5-0.6,0.7-0.9c-0.6,0-1.1-0.1-1.7-0.1c0.2-0.3,0.5-0.6,0.7-0.9c-0.6,0-1.1-0.1-1.7-0.1c0.2-0.3,0.5-0.6,0.7-0.9
			c-0.6,0-1.1-0.1-1.7-0.1c0.2-0.3,0.5-0.6,0.7-0.9c-0.6,0-1.1-0.1-1.7-0.1c0.2-0.3,0.5-0.6,0.7-0.9c-0.6,0-1.1-0.1-1.7-0.1
			c0.2-0.3,0.5-0.6,0.7-0.9c-0.6,0-1.1-0.1-1.7-0.1c0.2-0.3,0.5-0.6,0.7-0.9c-0.6,0-1.1-0.1-1.7-0.1c0.2-0.3,0.5-0.6,0.7-0.9
			c-0.6,0-1.1-0.1-1.7-0.1c0.2-0.3,0.5-0.6,0.7-0.9c-0.6,0-1.1-0.1-1.7-0.1c0.2-0.3,0.5-0.6,0.7-0.9c-0.6,0-1.1-0.1-1.7-0.1
			c0.2-0.3,0.5-0.6,0.7-0.9c-0.6,0-1.1-0.1-1.7-0.1c0.2-0.3,0.5-0.6,0.7-0.9c-0.6,0-1.1-0.1-1.7-0.1c0.2-0.3,0.5-0.6,0.7-0.9
			c-0.6,0-1.1-0.1-1.7-0.1c0.2-0.3,0.5-0.6,0.7-0.9c-0.6,0-1.1-0.1-1.7-0.1c0.2-0.3,0.5-0.6,0.7-0.9c-0.6,0-1.1-0.1-1.7-0.1
			c0.2-0.3,0.5-0.6,0.7-0.9c-0.6,0-1.1-0.1-1.7-0.1c0.2-0.3,0.5-0.6,0.7-0.9c-0.6,0-1.1-0.1-1.7-0.1c0.2-0.3,0.5-0.6,0.7-0.9
			c-0.6,0-1.1-0.1-1.7-0.1c0.2-0.3,0.5-0.6,0.7-0.9c-0.6,0-1.1-0.1-1.7-0.1c0.2-0.3,0.5-0.6,0.7-0.9c-0.6,0-1.1-0.1-1.7-0.1
			c0.2-0.3,0.5-0.6,0.7-0.9c-0.6,0-1.1-0.1-1.7-0.1c0.2-0.3,0.5-0.6,0.7-0.9c-0.6,0-1.1-0.1-1.7-0.1c0.2-0.3,0.5-0.6,0.7-0.9
			c-0.6,0-1.1-0.1-1.7-0.1c0.2-0.3,0.5-0.6,0.7-0.9c-0.6,0-1.1-0.1-1.7-0.1c0.2-0.3,0.5-0.6,0.7-0.9c-0.6,0-1.1-0.1-1.7-0.1
			c0.2-0.3,0.5-0.6,0.7-0.9c-0.6,0-1.1-0.1-1.7-0.1c0.2-0.3,0.5-0.6,0.7-0.9c-0.6,0-1.1-0.1-1.7-0.1c0.2-0.3,0.5-0.6,0.7-0.9
			c-0.6,0-1.1-0.1-1.7-0.1c0.2-0.3,0.5-0.6,0.7-0.9c-0.6,0-1.1-0.1-1.7-0.1c0.2-0.3,0.5-0.6,0.7-0.9c-0.6,0-1.1-0.1-1.7-0.1
			c0.2-0.3,0.5-0.6,0.7-0.9c-0.6,0-1.1-0.1-1.7-0.1c0.2-0.3,0.5-0.6,0.7-0.9c-0.6,0-1.1-0.1-1.7-0.1c0.2-0.3,0.5-0.6,0.7-0.9
			c-0.6,0-1.1-0.1-1.7-0.1c0.2-0.3,0.5-0.6,0.7-0.9c-0.6,0-1.1-0.1-1.7-0.1c0.2-0.3,0.5-0.6,0.7-0.9c-0.6,0-1.1-0.1-1.7-0.1
			c0.2-0.3,0.5-0.6,0.7-0.9c-0.6,0-1.1-0.1-1.7-0.1c0.2-0.3,0.5-0.6,0.7-0.9c-0.6,0-1.1-0.1-1.7-0.1c0.2-0.3,0.5-0.6,0.7-0.9
			c-0.6,0-1.1-0.1-1.7-0.1c0.2-0.3,0.5-0.6,0.7-0.9c-0.6,0-1.1-0.1-1.7-0.1c0.2-0.3,0.5-0.6,0.7-0.9c-0.6,0-1.1-0.1-1.7-0.1
			c0.2-0.3,0.5-0.6,0.7-0.9c-0.6,0-1.1-0.1-1.7-0.1c0.2-0.3,0.5-0.6,0.7-0.9c-0.6,0-1.1-0.1-1.7-0.1c0.2-0.3,0.5-0.6,0.7-0.9
			c-0.6,0-1.1-0.1-1.7-0.1c0.2-0.3,0.5-0.6,0.7-0.9c-0.6,0-1.1-0.1-1.7-0.1c0.2-0.3,0.5-0.6,0.7-0.9c-0.6,0-1.1-0.1-1.7-0.1
			c0.2-0.3,0.5-0.6,0.7-0.9c-0.6,0-1.1-0.1-1.7-0.1c0.2-0.3,0.5-0.6,0.7-0.9c-0.6,0-1.1-0.1-1.7-0.1c0.2-0.3,0.5-0.6,0.7-0.9
			c-0.6,0-1.1-0.1-1.7-0.1c0.2-0.3,0.5-0.6,0.7-0.9c-0.6,0-1.1-0.1-1.7-0.1c0.2-0.3,0.5-0.6,0.7-0.9c-0.6,0-1.1-0.1-1.7-0.1
			c0.2-0.3,0.5-0.6,0.7-0.9c-0.6,0-1.1-0.1-1.7-0.1c0.2-0.3,0.5-0.6,0.7-0.9c-0.6,0-1.1-0.1-1.7-0.1c0.2-0.3,0.5-0.6,0.7-0.9
			c-0.6,0-1.1-0.1-1.7-0.1c0.2-0.3,0.5-0.6,0.7-0.9c-0.6,0-1.1-0.1-1.7-0.1c0.2-0.3,0.5-0.6,0.7-0.9c-0.6,0-1.1-0.1-1.7-0.1
			c0.2-0.3,0.5-0.6,0.7-0.9c-0.6,0-1.1-0.1-1.7-0.1c0.2-0.3,0.5-0.6,0.7-0.9c-0.6,0-1.1-0.1-1.7-0.1c0.2-0.3,0.5-0.6,0.7-0.9
			c-0.6,0-1.1-0.1-1.7-0.1c0.2-0.3,0.5-0.6,0.7-0.9c-0.6,0-1.1-0.1-1.7-0.1c0.2-0.3,0.5-0.6,0.7-0.9c-0.6,0-1.1-0.1-1.7-0.1
			c0.2-0.3,0.5-0.6,0.7-0.9c-0.6,0-1.1-0.1-1.7-0.1c0.2-0.3,0.5-0.6,0.7-0.9c-0.6,0-1.1-0.1-1.7-0.1c0.2-0.3,0.5-0.6,0.7-0.9
			c-0.6,0-1.1-0.1-1.7-0.1c0.2-0.3,0.5-0.6,0.7-0.9c-0.6,0-1.1-0.1-1.7-0.1c0.2-0.3,0.5-0.6,0.7-0.9c-0.6,0-1.1-0.1-1.7-0.1
			c0.2-0.3,0.5-0.6,0.7-0.9c-0.6,0-1.1-0.1-1.7-0.1c0.2-0.3,0.5-0.6,0.7-0.9c-0.6,0-1.1-0.1-1.7-0.1c0.2-0.3,0.5-0.6,0.7-0.9
			c-0.6,0-1.1-0.1-1.7-0.1c0.2-0.3,0.5-0.6,0.7-0.9c-0.6,0-1.1-0.1-1.7-0.1c0.2-0.3,0.5-0.6,0.7-0.9c-0.6,0-1.1-0.1-1.7-0.1
			c0.2-0.3,0.5-0.6,0.7-0.9c-0.6,0-1.1-0.1-1.7-0.1c0.2-0.3,0.5-0.6,0.7-0.9c-0.6,0-1.1-0.1-1.7-0.1c0.2-0.3,0.5-0.6,0.7-0.9
			c-0.6,0-1.1-0.1-1.7-0.1c0.2-0.3,0.5-0.6,0.7-0.9c-0.6,0-1.1-0.1-1.7-0.1c0.2-0.3,0.5-0.6,0.7-0.9c-0.6,0-1.1-0.1-1.7-0.1
			c0.2-0.3,0.5-0.6,0.7-0.9c-0.6,0-1.1-0.1-1.7-0.1c0.2-0.3,0.5-0.6,0.7-0.9c-0.6,0-1.1-0.1-1.7-0.1c0.2-0.3,0.5-0.6,0.7-0.9
			c-0.6,0-1.1-0.1-1.7-0.1c0.2-0.3,0.5-0.6,0.7-0.9c-0.6,0-1.1-0.1-1.7-0.1c0.2-0.3,0.5-0.6,0.7-0.9c-0.6,0-1.1-0.1-1.7-0.1
			c0.2-0.3,0.5-0.6,0.7-0.9c-0.6,0-1.1-0.1-1.7-0.1c0.2-0.3,0.5-0.6,0.7-0.9c-0.6,0-1.1-0.1-1.7-0.1c0.2-0.3,0.5-0.6,0.7-0.9
			c-0.6,0-1.1-0.1-1.7-0.1c0.2-0.3,0.5-0.6,0.7-0.9c-0.6,0-1.1-0.1-1.7-0.1c0.2-0.3,0.5-0.6,0.7-0.9c-0.6,0-1.1-0.1-1.7-0.1
			c0.2-0.3,0.5-0.6,0.7-0.9c-0.6,0-1.1-0.1-1.7-0.1c0.2-0.3,0.5-0.6,0.7-0.9c-0.6,0-1.1-0.1-1.7-0.1c0.2-0.3,0.5-0.6,0.7-0.9
			c-0.6,0-1.1-0.1-1.7-0.1c0.2-0.3,0.5-0.6,0.7-0.9c-0.6,0-1.1-0.1-1.7-0.1c0.2-0.3,0.5-0.6,0.7-0.9c-0.6,0-1.1-0.1-1.7-0.1
			c0.2-0.3,0.5-0.6,0.7-0.9c-0.6,0-1.1-0.1-1.7-0.1c0.2-0.3,0.5-0.6,0.7-0.9c-0.6,0-1.1-0.1-1.7-0.1c0.2-0.3,0.5-0.6,0.7-0.9
			c-0.6,0-1.1-0.1-1.7-0.1c0.2-0.3,0.5-0.6,0.7-0.9c-0.6,0-1.1-0.1-1.7-0.1c0.2-0.3,0.5-0.6,0.7-0.9c-0.6,0-1.1-0.1-1.7-0.1
			c0.2-0.3,0.5-0.6,0.7-0.9c-0.6,0-1.1-0.1-1.7-0.1c0.2-0.3,0.5-0.6,0.7-0.9c-0.6,0-1.1-0.1-1.7-0.1c0.2-0.3,0.5-0.6,0.7-0.9
			c-0.6,0-1.1-0.1-1.7-0.1c0.2-0.3,0.5-0.6,0.7-0.9c-0.6,0-1.1-0.1-1.7-0.1c0.2-0.3,0.5-0.6,0.7-0.9c-0.6,0-1.1-0.1-1.7-0.1
			c0.2-0.3,0.5-0.6,0.7-0.9c-0.6,0-1.1-0.1-1.7-0.1c0.2-0.3,0.5-0.6,0.7-0.9c-0.6,0-1.1-0.1-1.7-0.1c0.2-0.3,0.5-0.6,0.7-0.9
			c-0.6,0-1.1-0.1-1.7-0.1c0.2-0.3,0.5-0.6,0.7-0.9c-0.6,0-1.1-0.1-1.7-0.1c0.2-0.3,0.5-0.6,0.7-0.9c-0.6,0-1.1-0.1-1.7-0.1
			c0.2-0.3,0.5-0.6,0.7-0.9c-0.6,0-1.1-0.1-1.7-0.1c0.2-0.3,0.5-0.6,0.7-0.9c-0.6,0-1.1-0.1-1.7-0.1c0.2-0.3,0.5-0.6,0.7-0.9
			c-0.6,0-1.1-0.1-1.7-0.1c0.2-0.3,0.5-0.6,0.7-0.9c-0.6,0-1.1-0.1-1.7-0.1c0.2-0.3,0.5-0.6,0.7-0.9c-0.6,0-1.1-0.1-1.7-0.1
			c0.2-0.3,0.5-0.6,0.7-0.9c-0.6,0-1.1-0.1-1.7-0.1c0.2-0.3,0.5-0.6,0.7-0.9c-0.6,0-1.1-0.1-1.7-0.1c0.2-0.3,0.5-0.6,0.7-0.9
			c-0.6,0-1.1-0.1-1.7-0.1c0.2-0.3,0.5-0.6,0.7-0.9c-0.6,0-1.1-0.1-1.7-0.1c0.2-0.3,0.5-0.6,0.7-0.9c-0.6,0-1.1-0.1-1.7-0.1
			c0.2-0.3,0.5-0.6,0.7-0.9c-0.6,0-1.1-0.1-1.7-0.1c0.2-0.3,0.5-0.6,0.7-0.9c-0.6,0-1.1-0.1-1.7-0.1c0.2-0.3,0.5-0.6,0.7-0.9
			c-0.6,0-1.1-0.1-1.7-0.1c0.2-0.3,0.5-0.6,0.7-0.9c-0.6,0-1.1-0.1-1.7-0.1c0.2-0.3,0.5-0.6,0.7-0.9c-0.6,0-1.1-0.1-1.7-0.1
			c0.2-0.3,0.5-0.6,0.7-0.9c-0.6,0-1.1-0.1-1.7-0.1c0.2-0.3,0.5-0.6,0.7-0.9c-0.6,0-1.1-0.1-1.7-0.1c0.2-0.3,0.5-0.6,0.7-0.9
			c-0.6,0-1.1-0.1-1.7-0.1c0.2-0.3,0.5-0.6,0.7-0.9c-0.6,0-1.1-0.1-1.7-0.1c0.2-0.3,0.5-0.6,0.7-0.9c-0.6,0-1.1-0.1-1.7-0.1
			c0.2-0.3,0.5-0.6,0.7-0.9c-0.6,0-1.1-0.1-1.7-0.1c0.2-0.3,0.5-0.6,0.7-0.9c-0.6,0-1.1-0.1-1.7-0.1c0.2-0.3,0.5-0.6,0.7-0.9
			c-0.6,0-1.1-0.1-1.7-0.1c0.2-0.3,0.5-0.6,0.7-0.9c-0.6,0-1.1-0.1-1.7-0.1c0.2-0.3,0.5-0.6,0.7-0.9c-0.6,0-1.1-0.1-1.7-0.1
			c0.2-0.3,0.5-0.6,0.7-0.9c-0.6,0-1.1-0.1-1.7-0.1c0.2-0.3,0.5-0.6,0.7-0.9c-0.6,0-1.1-0.1-1.7-0.1c0.2-0.3,0.5-0.6,0.7-0.9
			c-0.6,0-1.1-0.1-1.7-0.1c0.2-0.3,0.5-0.6,0.7-0.9c-0.6,0-1.1-0.1-1.7-0.1c0.2-0.3,0.5-0.6,0.7-0.9c-0.6,0-1.1-0.1-1.7-0.1
			c0.2-0.3,0.5-0.6,0.7-0.9c-0.6,0-1.1-0.1-1.7-0.1c0.2-0.3,0.5-0.6,0.7-0.9c-0.6,0-1.1-0.1-1.7-0.1c0.2-0.3,0.5-0.6,0.7-0.9
			c-0.6,0-1.1-0.1-1.7-0.1c0.2-0.3,0.5-0.6,0.7-0.9c-0.6,0-1.1-0.1-1.7-0.1c0.2-0.3,0.5-0.6,0.7-0.9c-0.6,0-1.1-0.1-1.7-0.1
			c0.2-0.3,0.5-0.6,0.7-0.9c-0.6,0-1.1-0.1-1.7-0.1c0.2-0.3,0.5-0.6,0.7-0.9c-0.6,0-1.1-0.1-1.7-0.1c0.2-0.3,0.5-0.6,0.7-0.9
			c-0.6,0-1.1-0.1-1.7-0.1c0.2-0.3,0.5-0.6,0.7-0.9c-0.6,0-1.1-0.1-1.7-0.1c0.2-0.3,0.5-0.6,0.7-0.9c-0.6,0-1.1-0.1-1.7-0.1
			c0.2-0.3,0.5-0.6,0.7-0.9c-0.6,0-1.1-0.1-1.7-0.1c0.2-0.3,0.5-0.6,0.7-0.9c-0.6,0-1.1-0.1-1.7-0.1c0.2-0.3,0.5-0.6,0.7-0.9
			c-0.6,0-1.1-0.1-1.7-0.1c0.2-0.3,0.5-0.6,0.7-0.9c-0.6,0-1.1-0.1-1.7-0.1c0.2-0.3,0.5-0.6,0.7-0.9c-0.6,0-1.1-0.1-1.7-0.1
			c0.2-0.3,0.5-0.6,0.7-0.9c-0.6,0-1.1-0.1-1.7-0.1c0.2-0.3,0.5-0.6,0.7-0.9c-0.6,0-1.1-0.1-1.7-0.1c0.2-0.3,0.5-0.6,0.7-0.9
			c-0.6,0-1.1-0.1-1.7-0.1c0.2-0.3,0.5-0.6,0.7-0.9c-0.6,0-1.1-0.1-1.7-0.1c0.2-0.3,0.5-0.6,0.7-0.9c-0.6,0-1.1-0.1-1.7-0.1
			c0.2-0.3,0.5-0.6,0.7-0.9c-0.6,0-1.1-0.1-1.7-0.1c0.2-0.3,0.5-0.6,0.7-0.9c-0.6,0-1.1-0.1-1.7-0.1c0.2-0.3,0.5-0.6,0.7-0.9
			c-0.6,0-1.1-0.1-1.7-0.1c0.2-0.3,0.5-0.6,0.7-0.9c-0.6,0-1.1-0.1-1.7-0.1c0.2-0.3,0.5-0.6,0.7-0.9c-0.6,0-1.1-0.1-1.7-0.1
			c0.2-0.3,0.5-0.6,0.7-0.9c-0.6,0-1.1-0.1-1.7-0.1c0.2-0.3,0.5-0.6,0.7-0.9c-0.6,0-1.1-0.1-1.7-0.1c0.2-0.3,0.5-0.6,0.7-0.9
			c-0.6,0-1.1-0.1-1.7-0.1c0.2-0.3,0.5-0.6,0.7-0.9c-0.6,0-1.1-0.1-1.7-0.1c0.2-0.3,0.5-0.6,0.7-0.9c-0.6,0-1.1-0.1-1.7-0.1
			c0.2-0.3,0.5-0.6,0.7-0.9c-0.6,0-1.1-0.1-1.7-0.1c0.2-0.3,0.5-0.6,0.7-0.9c-0.6,0-1.1-0.1-1.7-0.1c0.2-0.3,0.5-0.6,0.7-0.9
			c-0.6,0-1.1-0.1-1.7-0.1c0.2-0.3,0.5-0.6,0.7-0.9c-0.6,0-1.1-0.1-1.7-0.1c0.2-0.3,0.5-0.6,0.7-0.9c-0.6,0-1.1-0.1-1.7-0.1
			c0.2-0.3,0.5-0.6,0.7-0.9c-0.6,0-1.1-0.1-1.7-0.1c0.2-0.3,0.5-0.6,0.7-0.9c-0.6,0-1.1-0.1-1.7-0.1c0.2-0.3,0.5-0.6,0.7-0.9
			c-0.6,0-1.1-0.1-1.7-0.1c0.2-0.3,0.5-0.6,0.7-0.9c-0.6,0-1.1-0.1-1.7-0.1c0.2-0.3,0.5-0.6,0.7-0.9c-0.6,0-1.1-0.1-1.7-0.1
			c0.2-0.3,0.5-0.6,0.7-0.9c-0.6,0-1.1-0.1-1.7-0.1c0.2-0.3,0.5-0.6,0.7-0.9c-0.6,0-1.1-0.1-1.7-0.1c0.2-0.3,0.5-0.6,0.7-0.9
			c-0.6,0-1.1-0.1-1.7-0.1c0.2-0.3,0.5-0.6,0.7-0.9c-0.6,0-1.1-0.1-1.7-0.1c0.2-0.3,0.5-0.6,0.7-0.9c-0.6,0-1.1-0.1-1.7-0.1
			c0.2-0.3,0.5-0.6,0.7-0.9c-0.6,0-1.1-0.1-1.7-0.1c0.2-0.3,0.5-0.6,0.7-0.9c-0.6,0-1.1-0.1-1.7-0.1c0.2-0.3,0.5-0.6,0.7-0.9
			c-0.6,0-1.1-0.1-1.7-0.1c0.2-0.3,0.5-0.6,0.7-0.9c-0.6,0-1.1-0.1-1.7-0.1c0.2-0.3,0.5-0.6,0.7-0.9c-0.6,0-1.1-0.1-1.7-0.1
			c0.2-0.3,0.5-0.6,0.7-0.9c-0.6,0-1.1-0.1-1.7-0.1c0.2-0.3,0.5-0.6,0.7-0.9c-0.6,0-1.1-0.1-1.7-0.1c0.2-0.3,0.5-0.6,0.7-0.9
			c-0.6,0-1.1-0.1-1.7-0.1c0.2-0.3,0.5-0.6,0.7-0.9c-0.6,0-1.1-0.1-1.7-0.1c0.2-0.3,0.5-0.6,0.7-0.9c-0.6,0-1.1-0.1-1.7-0.1
			c0.2-0.3,0.5-0.6,0.7-0.9c-0.6,0-1.1-0.1-1.7-0.1c0.2-0.3,0.5-0.6,0.7-0.9c-0.6,0-1.1-0.1-1.7-0.1c0.2-0.3,0.5-0.6,0.7-0.9
			c-0.6,0-1.1-0.1-1.7-0.1c0.2-0.3,0.5-0.6,0.7-0.9c-0.6,0-1.1-0.1-1.7-0.1c0.2-0.3,0.5-0.6,0.7-0.9c-0.6,0-1.1-0.1-1.7-0.1
			c0.2-0.3,0.5-0.6,0.7-0.9c-0.6,0-1.1-0.1-1.7-0.1c0.2-0.3,0.5-0.6,0.7-0.9c-0.6,0-1.1-0.1-1.7-0.1c0.2-0.3,0.5-0.6,0.7-0.9
			c-0.6,0-1.1-0.1-1.7-0.1c0.2-0.3,0.5-0.6,0.7-0.9c-99.3-6.8-198.6-13.6-297.9-20.3c-22.7,15.6-45.4,31.2-68.1,46.9V280l-0.7-0.8
			c-0.1-0.1-0.1-0.1-0.2-0.2l-0.8-0.8c-0.1-0.1-0.1-0.1-0.2-0.2l-0.8-0.8c-0.1-0.1-0.1-0.1-0.2-0.2l-0.8-0.8
			c-0.1-0.1-0.1-0.1-0.2-0.2l-0.8-0.8c-0.1-0.1-0.1-0.1-0.2-0.2l-0.8-0.8c-0.1-0.1-0.1-0.1-0.2-0.2l-0.8-0.8
			c-0.1-0.1-0.1-0.1-0.2-0.2l-0.8-0.8c-0.1-0.1-0.1-0.1-0.2-0.2l-0.8-0.8c-0.1-0.1-0.1-0.1-0.2-0.2l-0.8-0.8
			c-0.1-0.1-0.1-0.1-0.2-0.2l-0.8-0.8c-0.1-0.1-0.1-0.1-0.2-0.2l-0.8-0.8c-0.1-0.1-0.1-0.1-0.2-0.2l-0.8-0.8
			c-0.1-0.1-0.1-0.1-0.2-0.2l-0.8-0.8c-0.1-0.1-0.1-0.1-0.2-0.2l-0.8-0.8c-0.1-0.1-0.1-0.1-0.2-0.2l-0.8-0.8
			c-0.1-0.1-0.1-0.1-0.2-0.2l-0.8-0.8c-0.1-0.1-0.1-0.1-0.2-0.2l-0.8-0.8c-0.1-0.1-0.1-0.1-0.2-0.2l-0.8-0.8
			c-0.1-0.1-0.1-0.1-0.2-0.2l-0.8-0.8c-0.1-0.1-0.1-0.1-0.2-0.2l-0.8-0.8c-0.1-0.1-0.1-0.1-0.2-0.2l-0.8-0.8
			c-0.1-0.1-0.1-0.1-0.2-0.2l-0.8-0.8c-0.1-0.1-0.1-0.1-0.2-0.2l-0.8-0.8c-0.1-0.1-0.1-0.1-0.2-0.2l-0.8-0.8
			c-0.1-0.1-0.1-0.1-0.2-0.2l-0.8-0.8c-0.1-0.1-0.1-0.1-0.2-0.2l-0.8-0.8c-0.1-0.1-0.1-0.1-0.2-0.2l-0.8-0.8
			c-0.1-0.1-0.1-0.1-0.2-0.2l-0.8-0.8c-0.4-0.4-1-0.7-1.5-0.7c-0.9,0-1.6,0.6-1.5,0.7c0,0,0.1,0,0.2,0c0,4.1,0,8.1,0,12.2H160
			c0,0.8,0,1.6,0,2.4c0,0.5,0,1,0,1.5c0,1.1,0,2.3,0,3.4h1c0,0.3,0,0.7,0,1h1c0,0.3,0,0.7,0,1h1c0,0.3,0,0.7,0,1h1c0,0.3,0,0.7,0,1
			h1c0,0.3,0,0.7,0,1h1c0,0.3,0,0.7,0,1h1c0,0.3,0,0.7,0,1h1c0,0.3,0,0.7,0,1h1c0,0.3,0,0.7,0,1h1c0,0.3,0,0.7,0,1h1
			c0,0.3,0,0.7,0,1h1c0,0.3,0,0.7,0,1h1c0,0.3,0,0.7,0,1h1c0,0.3,0,0.7,0,1h1c0,0.3,0,0.7,0,1h1c0,0.3,0,0.7,0,1h1c0,0.3,0,0.7,0,1
			h1c0,0.3,0,0.7,0,1h1c0,0.3,0,0.7,0,1h1c0,0.3,0,0.7,0,1h1c0,0.3,0,0.7,0,1h1c0,0.3,0,0.7,0,1h1c0,0.3,0,0.7,0,1h1
			c0,0.3,0,0.7,0,1h1c0,0.3,0,0.7,0,1h1c0,0.3,0,0.7,0,1h1c0,0.3,0,0.7,0,1h1c0,0.3,0,0.7,0,1h1c0,0.3,0,0.7,0,1h1c0,0.3,0,0.7,0,1
			h1c0,0.3,0,0.7,0,1h1c0,0.3,0,0.7,0,1h1c0,0.3,0,0.7,0,1h1c0,0.3,0,0.7,0,1h1c0,0.3,0,0.7,0,1h1c0,0.3,0,0.7,0,1h1
			c0,0.3,0,0.7,0,1h1c0,0.3,0,0.7,0,1h1c0,0.3,0,0.7,0,1h1c0,0.3,0,0.7,0,1h1c0,0.3,0,0.7,0,1h1c0,0.3,0,0.7,0,1h1c0,0.3,0,0.7,0,1
			h1c0,0.3,0,0.7,0,1h1c0,0.3,0,0.7,0,1h1c0,0.3,0,0.7,0,1h1c0,0.3,0,0.7,0,1h1c0,0.2,0,0.3,0,0.5c-7.6,7.4-12.2,21.6-6.5,36.6
			c1.1,9.4,2.2,18.8,3.3,28.1h-4.2v13.4h-3.5v25.6h1v0.8c-11.2,1.1-21.5,5.5-26.9,13c-2.6,3.6-3.6,7.3-4.1,10v144.7
			c0,2.8,1.2,5.3,3.2,6.9c0.3,0.4,0.6,0.7,1,1c0.3,0.4,0.6,0.7,1,1c0.3,0.4,0.6,0.7,1,1c0.3,0.4,0.6,0.7,1,1c0.3,0.4,0.6,0.7,1,1
			c0.3,0.4,0.6,0.7,1,1c0.3,0.4,0.6,0.7,1,1c0.3,0.4,0.6,0.7,1,1c0.3,0.4,0.6,0.7,1,1c0.3,0.4,0.6,0.7,1,1c0.3,0.4,0.6,0.7,1,1
			c0.3,0.4,0.6,0.7,1,1c0.3,0.4,0.6,0.7,1,1c0.3,0.4,0.6,0.7,1,1c0.3,0.4,0.6,0.7,1,1c0.3,0.4,0.6,0.7,1,1c0.3,0.4,0.6,0.7,1,1
			c0.3,0.4,0.6,0.7,1,1c0.3,0.4,0.6,0.7,1,1c0.3,0.4,0.6,0.7,1,1c0.3,0.4,0.6,0.7,1,1c0.3,0.4,0.6,0.7,1,1c0.3,0.4,0.6,0.7,1,1
			c0.3,0.4,0.6,0.7,1,1c0.3,0.4,0.6,0.7,1,1c0.3,0.4,0.6,0.7,1,1c0.3,0.4,0.6,0.7,1,1c0.3,0.4,0.6,0.7,1,1c0.3,0.4,0.6,0.7,1,1
			c0.3,0.4,0.6,0.7,1,1c0.3,0.4,0.6,0.7,1,1c0.3,0.4,0.6,0.7,1,1c0.3,0.4,0.6,0.7,1,1c0.3,0.4,0.6,0.7,1,1c0.3,0.4,0.6,0.7,1,1
			c0.3,0.4,0.6,0.7,1,1c0.3,0.4,0.6,0.7,1,1c0.3,0.4,0.6,0.7,1,1c0.3,0.4,0.6,0.7,1,1c0.3,0.4,0.6,0.7,1,1c0.3,0.4,0.6,0.7,1,1
			c0.3,0.4,0.6,0.7,1,1c0.3,0.4,0.6,0.7,1,1c0.3,0.4,0.6,0.7,1,1c0.3,0.4,0.6,0.7,1,1c0.3,0.4,0.6,0.7,1,1c0.3,0.4,0.6,0.7,1,1
			c0.3,0.4,0.6,0.7,1,1c0.3,0.4,0.6,0.7,1,1c0.3,0.4,0.6,0.7,1,1c0.3,0.4,0.6,0.7,1,1c0.3,0.4,0.6,0.7,1,1c0.3,0.4,0.6,0.7,1,1
			c0.3,0.4,0.6,0.7,1,1c0.3,0.4,0.6,0.7,1,1c0.3,0.4,0.6,0.7,1,1c0.3,0.4,0.6,0.7,1,1c0.3,0.4,0.6,0.7,1,1c0.3,0.4,0.6,0.7,1,1
			c0.3,0.4,0.6,0.7,1,1c0.3,0.4,0.6,0.7,1,1c0.3,0.4,0.6,0.7,1,1c0.3,0.4,0.6,0.7,1,1c0.3,0.4,0.6,0.7,1,1c0.3,0.4,0.6,0.7,1,1
			c0.3,0.4,0.6,0.7,1,1c0.3,0.4,0.6,0.7,1,1c0.3,0.4,0.6,0.7,1,1c0.3,0.4,0.6,0.7,1,1c0.3,0.4,0.6,0.7,1,1c0.3,0.4,0.6,0.7,1,1
			c0.3,0.4,0.6,0.7,1,1c0.3,0.4,0.6,0.7,1,1c0.3,0.4,0.6,0.7,1,1c0.3,0.4,0.6,0.7,1,1c0.3,0.4,0.6,0.7,1,1c0.3,0.4,0.6,0.7,1,1
			c0.3,0.4,0.6,0.7,1,1c0.3,0.4,0.6,0.7,1,1c0.3,0.4,0.6,0.7,1,1c0.3,0.4,0.6,0.7,1,1c0.3,0.4,0.6,0.7,1,1c0.3,0.4,0.6,0.7,1,1
			c0.3,0.4,0.6,0.7,1,1c0.3,0.4,0.6,0.7,1,1c0.3,0.4,0.6,0.7,1,1c0.3,0.4,0.6,0.7,1,1c0.3,0.4,0.6,0.7,1,1c0.3,0.4,0.6,0.7,1,1
			c0.3,0.4,0.6,0.7,1,1c0.3,0.4,0.6,0.7,1,1c0.3,0.4,0.6,0.7,1,1c0.3,0.4,0.6,0.7,1,1c0.3,0.4,0.6,0.7,1,1c0.3,0.4,0.6,0.7,1,1
			c0.3,0.4,0.6,0.7,1,1c0.3,0.4,0.6,0.7,1,1c0.3,0.4,0.6,0.7,1,1c0.3,0.4,0.6,0.7,1,1c0.3,0.4,0.6,0.7,1,1c0.3,0.4,0.6,0.7,1,1
			c0.3,0.4,0.6,0.7,1,1c0.3,0.4,0.6,0.7,1,1c0.3,0.4,0.6,0.7,1,1c0.3,0.4,0.6,0.7,1,1c0.3,0.4,0.6,0.7,1,1c0.3,0.4,0.6,0.7,1,1
			c0.3,0.4,0.6,0.7,1,1c0.3,0.4,0.6,0.7,1,1c0.3,0.4,0.6,0.7,1,1c0.3,0.4,0.6,0.7,1,1c0.3,0.4,0.6,0.7,1,1c0.3,0.4,0.6,0.7,1,1
			c0.3,0.4,0.6,0.7,1,1c0.3,0.4,0.6,0.7,1,1c0.3,0.4,0.6,0.7,1,1c0.3,0.4,0.6,0.7,1,1c0.3,0.4,0.6,0.7,1,1c0.3,0.4,0.6,0.7,1,1
			c0.3,0.4,0.6,0.7,1,1c0.3,0.4,0.6,0.7,1,1c0.3,0.4,0.6,0.7,1,1c0.3,0.4,0.6,0.7,1,1c0.3,0.4,0.6,0.7,1,1c0.3,0.4,0.6,0.7,1,1
			c0.3,0.4,0.6,0.7,1,1c0.3,0.4,0.6,0.7,1,1c0.3,0.4,0.6,0.7,1,1c0.3,0.4,0.6,0.7,1,1c0.3,0.4,0.6,0.7,1,1c0.3,0.4,0.6,0.7,1,1
			c0.3,0.4,0.6,0.7,1,1c0.3,0.4,0.6,0.7,1,1c0.3,0.4,0.6,0.7,1,1c0.3,0.4,0.6,0.7,1,1c0.3,0.4,0.6,0.7,1,1c0.3,0.4,0.6,0.7,1,1
			c0.3,0.4,0.6,0.7,1,1c0.3,0.4,0.6,0.7,1,1c0.3,0.4,0.6,0.7,1,1c0.3,0.4,0.6,0.7,1,1c0.3,0.4,0.6,0.7,1,1c0.3,0.4,0.6,0.7,1,1
			c0.3,0.4,0.6,0.7,1,1c0.3,0.4,0.6,0.7,1,1c0.3,0.4,0.6,0.7,1,1c0.3,0.4,0.6,0.7,1,1c0.3,0.4,0.6,0.7,1,1c0.3,0.4,0.6,0.7,1,1
			c0.3,0.4,0.6,0.7,1,1c0.3,0.4,0.6,0.7,1,1c0.3,0.4,0.6,0.7,1,1c0.3,0.4,0.6,0.7,1,1c0.3,0.4,0.6,0.7,1,1c0.3,0.4,0.6,0.7,1,1
			c0.3,0.4,0.6,0.7,1,1c0.3,0.4,0.6,0.7,1,1c0.3,0.4,0.6,0.7,1,1c0.3,0.4,0.6,0.7,1,1c0.3,0.4,0.6,0.7,1,1c0.3,0.4,0.6,0.7,1,1
			c0.3,0.4,0.6,0.7,1,1c0.3,0.4,0.6,0.7,1,1c0.3,0.4,0.6,0.7,1,1c0.3,0.4,0.6,0.7,1,1c0.3,0.4,0.6,0.7,1,1c0.3,0.4,0.6,0.7,1,1
			c0.3,0.4,0.6,0.7,1,1c0.3,0.4,0.6,0.7,1,1c0.3,0.4,0.6,0.7,1,1c0.3,0.4,0.6,0.7,1,1c0.3,0.4,0.6,0.7,1,1c0.3,0.4,0.6,0.7,1,1
			c0.3,0.4,0.6,0.7,1,1c0.3,0.4,0.6,0.7,1,1c0.3,0.4,0.6,0.7,1,1c0.3,0.4,0.6,0.7,1,1c0.3,0.4,0.6,0.7,1,1c0.3,0.4,0.6,0.7,1,1
			c0.3,0.4,0.6,0.7,1,1c0.3,0.4,0.6,0.7,1,1c0.3,0.4,0.6,0.7,1,1c0.3,0.4,0.6,0.7,1,1c0.3,0.4,0.6,0.7,1,1c0.3,0.4,0.6,0.7,1,1
			c0.3,0.4,0.6,0.7,1,1c0.3,0.4,0.6,0.7,1,1c0.3,0.4,0.6,0.7,1,1c0.3,0.4,0.6,0.7,1,1c0.3,0.4,0.6,0.7,1,1c0.3,0.4,0.6,0.7,1,1
			c0.3,0.4,0.6,0.7,1,1c0.3,0.4,0.6,0.7,1,1c0.3,0.4,0.6,0.7,1,1c0.3,0.4,0.6,0.7,1,1c0.3,0.4,0.6,0.7,1,1c0.3,0.4,0.6,0.7,1,1
			c0.3,0.4,0.6,0.7,1,1c0.3,0.4,0.6,0.7,1,1c0.3,0.4,0.6,0.7,1,1c0.3,0.4,0.6,0.7,1,1c0.3,0.4,0.6,0.7,1,1c0.3,0.4,0.6,0.7,1,1
			c0.3,0.4,0.6,0.7,1,1c0.3,0.4,0.6,0.7,1,1c0.3,0.4,0.6,0.7,1,1c0.3,0.4,0.6,0.7,1,1c0.3,0.4,0.6,0.7,1,1c0.3,0.4,0.6,0.7,1,1
			c0.3,0.4,0.6,0.7,1,1c0.3,0.4,0.6,0.7,1,1c0.3,0.4,0.6,0.7,1,1c0.3,0.4,0.6,0.7,1,1c0.3,0.4,0.6,0.7,1,1c0.3,0.4,0.6,0.7,1,1
			c0.3,0.4,0.6,0.7,1,1c0.3,0.4,0.6,0.7,1,1c0.3,0.4,0.6,0.7,1,1c0.3,0.4,0.6,0.7,1,1c0.3,0.4,0.6,0.7,1,1c0.3,0.4,0.6,0.7,1,1
			c0.3,0.4,0.6,0.7,1,1c0.3,0.4,0.6,0.7,1,1c0.3,0.4,0.6,0.7,1,1c0.3,0.4,0.6,0.7,1,1c0.3,0.4,0.6,0.7,1,1c0.3,0.4,0.6,0.7,1,1
			c0.3,0.4,0.6,0.7,1,1c0.3,0.4,0.6,0.7,1,1c0.3,0.4,0.6,0.7,1,1c0.3,0.4,0.6,0.7,1,1c0.3,0.4,0.6,0.7,1,1c0.3,0.4,0.6,0.7,1,1
			c0.3,0.4,0.6,0.7,1,1c0.3,0.4,0.6,0.7,1,1c0.3,0.4,0.6,0.7,1,1c0.3,0.4,0.6,0.7,1,1c0.3,0.4,0.6,0.7,1,1c0.3,0.4,0.6,0.7,1,1
			c0.3,0.4,0.6,0.7,1,1c0.3,0.4,0.6,0.7,1,1c0.3,0.4,0.6,0.7,1,1c0.3,0.4,0.6,0.7,1,1c0.3,0.4,0.6,0.7,1,1c0.3,0.4,0.6,0.7,1,1
			c0.3,0.4,0.6,0.7,1,1c0.3,0.4,0.6,0.7,1,1c0.3,0.4,0.6,0.7,1,1c0.3,0.4,0.6,0.7,1,1c0.3,0.4,0.6,0.7,1,1c0.3,0.4,0.6,0.7,1,1
			c0.3,0.4,0.6,0.7,1,1c0.3,0.4,0.6,0.7,1,1c0.3,0.4,0.6,0.7,1,1c0.3,0.4,0.6,0.7,1,1c0.3,0.4,0.6,0.7,1,1c0.3,0.4,0.6,0.7,1,1
			c0.3,0.4,0.6,0.7,1,1c0.3,0.4,0.6,0.7,1,1c0.3,0.4,0.6,0.7,1,1c0.3,0.4,0.6,0.7,1,1c0.3,0.4,0.6,0.7,1,1c0.3,0.4,0.6,0.7,1,1
			c0.3,0.4,0.6,0.7,1,1c0.3,0.4,0.6,0.7,1,1c0.3,0.4,0.6,0.7,1,1c0.3,0.4,0.6,0.7,1,1c0.3,0.4,0.6,0.7,1,1c0.3,0.4,0.6,0.7,1,1
			c0.3,0.4,0.6,0.7,1,1c0.3,0.4,0.6,0.7,1,1c0.3,0.4,0.6,0.7,1,1c0.3,0.4,0.6,0.7,1,1c0.3,0.4,0.6,0.7,1,1c0.3,0.4,0.6,0.7,1,1
			c0.3,0.4,0.6,0.7,1,1c0.3,0.4,0.6,0.7,1,1c0.3,0.4,0.6,0.7,1,1c0.3,0.4,0.6,0.7,1,1c0.3,0.4,0.6,0.7,1,1c0.3,0.4,0.6,0.7,1,1
			c0.3,0.4,0.6,0.7,1,1c0.3,0.4,0.6,0.7,1,1c0.3,0.4,0.6,0.7,1,1c0.3,0.4,0.6,0.7,1,1c0.3,0.4,0.6,0.7,1,1c0.3,0.4,0.6,0.7,1,1
			c0.3,0.4,0.6,0.7,1,1c0.3,0.4,0.6,0.7,1,1c0.3,0.4,0.6,0.7,1,1c0.3,0.4,0.6,0.7,1,1c0.3,0.4,0.6,0.7,1,1c0.3,0.4,0.6,0.7,1,1
			c0.3,0.4,0.6,0.7,1,1c0.3,0.4,0.6,0.7,1,1c0.3,0.4,0.6,0.7,1,1c0.3,0.4,0.6,0.7,1,1c0.3,0.4,0.6,0.7,1,1c0.3,0.4,0.6,0.7,1,1
			c0.3,0.4,0.6,0.7,1,1c0.3,0.4,0.6,0.7,1,1c0.3,0.4,0.6,0.7,1,1c0.3,0.4,0.6,0.7,1,1c0.3,0.4,0.6,0.7,1,1c0.3,0.4,0.6,0.7,1,1
			c0.3,0.4,0.6,0.7,1,1c0.3,0.4,0.6,0.7,1,1c0.3,0.4,0.6,0.7,1,1c0.3,0.4,0.6,0.7,1,1c0.3,0.4,0.6,0.7,1,1c0.3,0.4,0.6,0.7,1,1
			c0.3,0.4,0.6,0.7,1,1c0.3,0.4,0.6,0.7,1,1c0.3,0.4,0.6,0.7,1,1c0.3,0.4,0.6,0.7,1,1c0.3,0.4,0.6,0.7,1,1c0.3,0.4,0.6,0.7,1,1
			c0.3,0.4,0.6,0.7,1,1c0.3,0.4,0.6,0.7,1,1c0.3,0.4,0.6,0.7,1,1c0.3,0.4,0.6,0.7,1,1c0.3,0.4,0.6,0.7,1,1c0.3,0.4,0.6,0.7,1,1
			c0.3,0.4,0.6,0.7,1,1c0.3,0.4,0.6,0.7,1,1c0.3,0.4,0.6,0.7,1,1c0.3,0.4,0.6,0.7,1,1c0.3,0.4,0.6,0.7,1,1c0.3,0.4,0.6,0.7,1,1
			c0.3,0.4,0.6,0.7,1,1c0.3,0.4,0.6,0.7,1,1c0.3,0.4,0.6,0.7,1,1c0.3,0.4,0.6,0.7,1,1c0.3,0.4,0.6,0.7,1,1c0.3,0.4,0.6,0.7,1,1
			c0.3,0.4,0.6,0.7,1,1c0.3,0.4,0.6,0.7,1,1c0.3,0.4,0.6,0.7,1,1c0.3,0.4,0.6,0.7,1,1c0.3,0.4,0.6,0.7,1,1c0.3,0.4,0.6,0.7,1,1
			c0.3,0.4,0.6,0.7,1,1c0.3,0.4,0.6,0.7,1,1c0.3,0.4,0.6,0.7,1,1c0.3,0.4,0.6,0.7,1,1c0.3,0.4,0.6,0.7,1,1c0.3,0.4,0.6,0.7,1,1
			c0.3,0.4,0.6,0.7,1,1c0.3,0.4,0.6,0.7,1,1c0.3,0.4,0.6,0.7,1,1c0.3,0.4,0.6,0.7,1,1c0.3,0.4,0.6,0.7,1,1c0.3,0.4,0.6,0.7,1,1
			c0.3,0.4,0.6,0.7,1,1c0.3,0.4,0.6,0.7,1,1c0.3,0.4,0.6,0.7,1,1c0.3,0.4,0.6,0.7,1,1c0.3,0.4,0.6,0.7,1,1c0.3,0.4,0.6,0.7,1,1
			c0.3,0.4,0.6,0.7,1,1c0.3,0.4,0.6,0.7,1,1c0.3,0.4,0.6,0.7,1,1c0.3,0.4,0.6,0.7,1,1c0.3,0.4,0.6,0.7,1,1c0.3,0.4,0.6,0.7,1,1
			c0.3,0.4,0.6,0.7,1,1c0.3,0.4,0.6,0.7,1,1c0.3,0.4,0.6,0.7,1,1c0.3,0.4,0.6,0.7,1,1c0.3,0.4,0.6,0.7,1,1c0.3,0.4,0.6,0.7,1,1
			c0.3,0.4,0.6,0.7,1,1c0.3,0.4,0.6,0.7,1,1c0.3,0.4,0.6,0.7,1,1c0.3,0.4,0.6,0.7,1,1c0.3,0.4,0.6,0.7,1,1c0.3,0.4,0.6,0.7,1,1
			c1.7,2,4.2,3.2,6.9,3.2h59.5c5,0,9.1-4.1,9.1-9.1V828.5c-0.6-3.7-2-8.6-5.5-13.2c-1-1.3-2.1-2.5-3.3-3.7c-0.3-0.3-0.7-0.7-1-1
			c-0.3-0.3-0.7-0.7-1-1c-0.3-0.3-0.7-0.7-1-1c-0.3-0.3-0.7-0.7-1-1c-0.3-0.3-0.7-0.7-1-1c-0.3-0.3-0.7-0.7-1-1
			c-0.3-0.3-0.7-0.7-1-1c-0.3-0.3-0.7-0.7-1-1c-0.3-0.3-0.7-0.7-1-1c-0.3-0.3-0.7-0.7-1-1c-0.3-0.3-0.7-0.7-1-1
			c-0.3-0.3-0.7-0.7-1-1c-0.3-0.3-0.7-0.7-1-1c-0.3-0.3-0.7-0.7-1-1c-0.3-0.3-0.7-0.7-1-1c-0.3-0.3-0.7-0.7-1-1
			c-0.3-0.3-0.7-0.7-1-1c-0.3-0.3-0.7-0.7-1-1c-0.3-0.3-0.7-0.7-1-1c-0.3-0.3-0.7-0.7-1-1c-0.3-0.3-0.7-0.7-1-1
			c-0.3-0.3-0.7-0.7-1-1c-0.3-0.3-0.7-0.7-1-1c-0.3-0.3-0.6-0.6-0.9-1v-13.2h-1v-1h-1v-1h-1v-1h-0.5v-9.6l29.5-8.9
			c98.6,8.1,196.2,16,294.9,24.1c4.1-42.1,0.1-86,4.2-128.2c-0.4,0-0.7-0.1-1.1-0.1c0-0.3,0-0.6,0.1-0.9c-0.4,0-0.7-0.1-1.1-0.1
			c0-0.3,0-0.6,0.1-0.9c-0.1,0-0.3,0-0.4,0C933,628.3,948.4,619.1,965,598.5z"/>
	</g>
</g>
<g id="Layer_1">
	<g>
		<path class="st2" d="M533,270.6c-106.9-8.1-207.1-11.2-312-23.6c22.7-15.6,45.4-31.2,68.1-46.9c99.3,6.8,198.6,13.6,297.9,20.3
			C569.9,241.8,554,250.9,533,270.6z"/>
		<path class="st3" d="M533,399.1c-104.5-8.5-207.6-17-312-25.5V247.1c108.6,8.5,207.7,15.3,316.3,23.9
			C533.1,313.1,537.2,357,533,399.1z"/>
		<path class="st4" d="M585.2,346.1c-17.4,17.7-34.8,35.4-52.2,53c1.5-42.4,0-83.3,0-128.5c17.8-17,36.5-32.5,53.9-50.1
			C586.4,262.4,585.8,304.2,585.2,346.1z"/>
		<path class="st3" d="M235.7,599.8h-59.5c-5,0-9.1-4.1-9.1-9.1V445.9c0.5-2.7,1.6-6.4,4.1-10c12.9-17.9,53.7-18.1,68.2,1.3
			c3.4,4.6,4.8,9.5,5.5,13.2v140.2C244.9,595.7,240.8,599.8,235.7,599.8z"/>
		<path class="st4" d="M227.9,498.1h-43.1c-3.5,0-6.3-2.8-6.3-6.3v-33.3c0-3.5,2.8-6.3,6.3-6.3h43.1c3.5,0,6.3,2.8,6.3,6.3v33.3
			C234.2,495.3,231.4,498.1,227.9,498.1z"/>
		<rect x="193.6" y="514" class="st4" width="10.6" height="4.4"/>
		<rect x="178.6" y="514" class="st4" width="10.6" height="4.4"/>
		<rect x="208.6" y="514" class="st4" width="10.6" height="4.4"/>
		<rect x="223.6" y="514" class="st4" width="10.6" height="4.4"/>
		<rect x="197.1" y="396.5" class="st4" width="15" height="25.6"/>
		<rect x="200.7" y="383" class="st4" width="8" height="13.6"/>
		<path class="st5" d="M205.1,385c-1.2-10-2.4-20-3.5-30.1c-7.8-20.1,3.2-38.9,15-41.5c10.9-2.4,33.6-7.1,30.9,26.5
			c-2.7,33.6,9.3,34,21.2,34.5c8.1,0.4,16.4-5.9,21.2-15"/>
		<line class="st6" x1="289.9" y1="359.3" x2="370.4" y2="321.3"/>
		<g>
			<path class="st4" d="M639.4,331.2l-13.9-14.5c-0.4-0.4-1-0.7-1.5-0.7c-0.9,0-1.6,0.6-1.5,0.7c0,0,0.1,0,0.2,0c0,4.1,0,8.1,0,12.2
				h-29.4c0,0.8,0,1.6,0,2.4c0,0.5,0,1,0,1.5c0,1.1,0,2.3,0,3.4h30.1c-0.2,4.3-0.5,8.5-0.7,12.8c-0.1,0-0.2-0.1-0.2-0.1
				c0,0,0.7,0.7,1.5,0.7c0.6,0,1.1-0.2,1.5-0.7l13.9-14.5C640.2,333.5,640.2,332.1,639.4,331.2z"/>
		</g>
		<g>
			<path class="st4" d="M206.2,265.8l-13.9-14.5c-0.4-0.4-1-0.7-1.5-0.7c-0.9,0-1.6,0.6-1.5,0.7c0,0,0.1,0,0.2,0c0,4.1,0,8.1,0,12.2
				H160c0,0.8,0,1.6,0,2.4c0,0.5,0,1,0,1.5c0,1.1,0,2.3,0,3.4h30.1c-0.2,4.3-0.5,8.5-0.7,12.8c-0.1,0-0.2-0.1-0.2-0.1
				c0,0,0.7,0.7,1.5,0.7c0.6,0,1.1-0.2,1.5-0.7l13.9-14.5C207.1,268.1,207.1,266.6,206.2,265.8z"/>
		</g>
	</g>
</g>
</svg>
