<?xml version="1.0" encoding="utf-8"?>
<!-- Generator: Adobe Illustrator 23.0.0, SVG Export Plug-In . SVG Version: 6.00 Build 0)  -->
<svg version="1.1" xmlns="http://www.w3.org/2000/svg" xmlns:xlink="http://www.w3.org/1999/xlink" x="0px" y="0px"
	 viewBox="0 0 800 800" style="enable-background:new 0 0 800 800;" xml:space="preserve">
<style type="text/css">
	.st0{fill:#333333;}
	.st1{opacity:0.4;clip-path:url(#SVGID_2_);}
	.st2{fill:#E0E0E0;}
	.st3{fill:#4C73B2;}
	.st4{fill:#FFFEF4;}
</style>
<g id="Layer_2">
	<circle class="st0" cx="400" cy="400" r="400"/>
</g>
<g id="Layer_1_copy">
	<g>
		<defs>
			<circle id="SVGID_1_" cx="400" cy="400" r="400"/>
		</defs>
		<clipPath id="SVGID_2_">
			<use xlink:href="#SVGID_1_"  style="overflow:visible;"/>
		</clipPath>
		<path class="st1" d="M940,678.6c0-3.4-0.7-5.5-2.3-6.6c-0.3-0.4-0.6-0.7-1-1c-0.3-0.4-0.6-0.7-1-1c-0.3-0.4-0.6-0.7-1-1
			c-0.3-0.4-0.6-0.7-1-1c-0.3-0.4-0.6-0.7-1-1c-0.3-0.4-0.6-0.7-1-1c-0.3-0.4-0.6-0.7-1-1c-0.3-0.4-0.6-0.7-1-1
			c-0.3-0.4-0.6-0.7-1-1c-0.3-0.4-0.6-0.7-1-1c-0.3-0.4-0.6-0.7-1-1c-0.3-0.4-0.6-0.7-1-1c-0.3-0.4-0.6-0.7-1-1
			c-0.3-0.4-0.6-0.7-1-1c-0.3-0.4-0.6-0.7-1-1c-0.3-0.4-0.6-0.7-1-1c-0.3-0.4-0.6-0.7-1-1c-0.3-0.4-0.6-0.7-1-1
			c-0.3-0.4-0.6-0.7-1-1c-0.3-0.4-0.6-0.7-1-1c-0.3-0.4-0.6-0.7-1-1c-0.3-0.4-0.6-0.7-1-1c-0.3-0.4-0.6-0.7-1-1
			c-0.3-0.4-0.6-0.7-1-1c-0.3-0.4-0.6-0.7-1-1c-0.3-0.4-0.6-0.7-1-1c-0.3-0.4-0.6-0.7-1-1c-0.3-0.4-0.6-0.7-1-1
			c-0.3-0.4-0.6-0.7-1-1c-0.3-0.4-0.6-0.7-1-1c-0.3-0.4-0.6-0.7-1-1c-0.3-0.4-0.6-0.7-1-1c-0.3-0.4-0.6-0.7-1-1
			c-0.3-0.4-0.6-0.7-1-1c-0.3-0.4-0.6-0.7-1-1c-0.3-0.4-0.6-0.7-1-1c-0.3-0.4-0.6-0.7-1-1c-0.3-0.4-0.6-0.7-1-1
			c-0.3-0.4-0.6-0.7-1-1c-0.3-0.4-0.6-0.7-1-1c-0.3-0.4-0.6-0.7-1-1c-0.3-0.4-0.6-0.7-1-1c-0.3-0.4-0.6-0.7-1-1
			c-0.3-0.4-0.6-0.7-1-1c-0.3-0.4-0.6-0.7-1-1c-0.3-0.4-0.6-0.7-1-1c-0.3-0.4-0.6-0.7-1-1c-0.3-0.4-0.6-0.7-1-1
			c-0.3-0.4-0.6-0.7-1-1c-0.3-0.4-0.6-0.7-1-1c-0.3-0.4-0.6-0.7-1-1c-0.3-0.4-0.6-0.7-1-1c-0.3-0.4-0.6-0.7-1-1
			c-0.3-0.4-0.6-0.7-1-1c-0.3-0.4-0.6-0.7-1-1c-0.3-0.4-0.6-0.7-1-1c-0.3-0.4-0.6-0.7-1-1c-0.3-0.4-0.6-0.7-1-1
			c-0.3-0.4-0.6-0.7-1-1c-0.3-0.4-0.6-0.7-1-1c-0.3-0.4-0.6-0.7-1-1c-0.3-0.4-0.6-0.7-1-1c-0.3-0.4-0.6-0.7-1-1
			c-0.3-0.4-0.6-0.7-1-1c-0.3-0.4-0.6-0.7-1-1c-0.3-0.4-0.6-0.7-1-1c-0.3-0.4-0.6-0.7-1-1c-0.3-0.4-0.6-0.7-1-1
			c-0.3-0.4-0.6-0.7-1-1c-0.3-0.4-0.6-0.7-1-1c-0.3-0.4-0.6-0.7-1-1c-0.3-0.4-0.6-0.7-1-1c-0.3-0.4-0.6-0.7-1-1
			c-0.3-0.4-0.6-0.7-1-1c-0.3-0.4-0.6-0.7-1-1c-0.3-0.4-0.6-0.7-1-1c-0.3-0.4-0.6-0.7-1-1c-0.3-0.4-0.6-0.7-1-1
			c-0.3-0.4-0.6-0.7-1-1c-0.3-0.4-0.6-0.7-1-1c-0.3-0.4-0.6-0.7-1-1c-0.3-0.4-0.6-0.7-1-1c-0.3-0.4-0.6-0.7-1-1
			c-0.3-0.4-0.6-0.7-1-1c-0.3-0.4-0.6-0.7-1-1c-0.3-0.4-0.6-0.7-1-1c-0.3-0.4-0.6-0.7-1-1c-0.3-0.4-0.6-0.7-1-1
			c-0.3-0.4-0.6-0.7-1-1c-0.3-0.4-0.6-0.7-1-1c-0.3-0.4-0.6-0.7-1-1c-0.3-0.4-0.6-0.7-1-1c-0.3-0.4-0.6-0.7-1-1
			c-0.3-0.4-0.6-0.7-1-1c-0.3-0.4-0.6-0.7-1-1c-0.3-0.4-0.6-0.7-1-1c-0.3-0.4-0.6-0.7-1-1c-0.3-0.4-0.6-0.7-1-1
			c-0.3-0.4-0.6-0.7-1-1c-0.3-0.4-0.6-0.7-1-1c-0.3-0.4-0.6-0.7-1-1c-0.1-0.1-0.1-0.1-0.2-0.2c0-2.7,0-5.4,0.2-8.1
			c0.4-5.2-0.7-8.7-3.7-11.3c-0.3-0.3-0.6-0.7-1-1c-0.3-0.3-0.6-0.7-1-1c-0.3-0.3-0.6-0.7-1-1c-0.3-0.3-0.6-0.7-1-1
			c-0.3-0.3-0.6-0.7-1-1c-0.3-0.3-0.6-0.7-1-1c-0.3-0.3-0.6-0.7-1-1c-0.3-0.3-0.6-0.7-1-1c-0.3-0.3-0.6-0.7-1-1
			c-0.3-0.3-0.6-0.7-1-1c-0.3-0.3-0.6-0.7-1-1c-0.3-0.3-0.6-0.7-1-1c-0.3-0.3-0.6-0.7-1-1c-0.3-0.3-0.6-0.7-1-1
			c-0.3-0.3-0.6-0.7-1-1c-0.3-0.3-0.6-0.7-1-1c-0.3-0.3-0.6-0.7-1-1c-0.3-0.3-0.6-0.7-1-1c-0.3-0.3-0.6-0.7-1-1
			c-0.3-0.3-0.6-0.7-1-1c-0.3-0.3-0.6-0.7-1-1c-0.3-0.3-0.6-0.7-1-1c-0.3-0.3-0.6-0.7-1-1c-0.3-0.3-0.6-0.7-1-1
			c-0.3-0.3-0.6-0.7-1-1c-0.3-0.3-0.6-0.7-1-1c-0.3-0.3-0.6-0.7-1-1c-0.3-0.3-0.6-0.7-1-1c-0.3-0.3-0.6-0.7-1-1
			c-0.3-0.3-0.6-0.7-1-1c-0.3-0.3-0.6-0.7-1-1c-0.3-0.3-0.6-0.7-1-1c-0.3-0.3-0.6-0.7-1-1c-0.3-0.3-0.6-0.7-1-1
			c-0.3-0.3-0.6-0.7-1-1c-0.3-0.3-0.6-0.7-1-1c-0.3-0.3-0.6-0.7-1-1c-0.3-0.3-0.6-0.7-1-1c-0.3-0.3-0.6-0.7-1-1
			c-0.3-0.3-0.6-0.7-1-1c-0.3-0.3-0.6-0.7-1-1c-0.3-0.3-0.6-0.7-1-1c-0.3-0.3-0.6-0.7-1-1c-0.3-0.3-0.6-0.7-1-1
			c-0.3-0.3-0.6-0.7-1-1c-0.3-0.3-0.6-0.7-1-1c-0.3-0.3-0.6-0.7-1-1c-0.3-0.3-0.6-0.7-1-1c-0.3-0.3-0.6-0.7-1-1
			c-0.3-0.3-0.6-0.7-1-1c-0.3-0.3-0.6-0.7-1-1c-0.3-0.3-0.6-0.7-1-1c-0.3-0.3-0.6-0.7-1-1c-0.3-0.3-0.6-0.7-1-1
			c-0.3-0.3-0.6-0.7-1-1c-0.3-0.3-0.6-0.7-1-1c-0.3-0.3-0.6-0.7-1-1c-0.3-0.3-0.6-0.7-1-1c-0.3-0.3-0.6-0.7-1-1
			c-0.3-0.3-0.6-0.7-1-1c-0.3-0.3-0.6-0.7-1-1c-0.3-0.3-0.6-0.7-1-1c-0.3-0.3-0.6-0.7-1-1c-0.3-0.3-0.6-0.7-1-1
			c-0.3-0.3-0.6-0.7-1-1c-0.3-0.3-0.6-0.7-1-1c-0.3-0.3-0.6-0.7-1-1c-0.3-0.3-0.6-0.7-1-1c-0.3-0.3-0.6-0.7-1-1
			c-0.3-0.3-0.6-0.7-1-1c-0.3-0.3-0.6-0.7-1-1c-0.3-0.3-0.6-0.7-1-1c-0.3-0.3-0.6-0.7-1-1c-0.3-0.3-0.6-0.7-1-1
			c-0.3-0.3-0.6-0.7-1-1c-0.3-0.3-0.6-0.7-1-1c-0.3-0.3-0.6-0.7-1-1c-0.3-0.3-0.6-0.7-1-1c-0.3-0.3-0.6-0.7-1-1
			c-0.3-0.3-0.6-0.7-1-1c-0.3-0.3-0.6-0.7-1-1c-0.3-0.3-0.6-0.7-1-1c-0.3-0.3-0.6-0.7-1-1c-0.3-0.3-0.6-0.7-1-1
			c-0.3-0.3-0.6-0.7-1-1c-0.3-0.3-0.6-0.7-1-1c-0.3-0.3-0.6-0.7-1-1c-0.3-0.3-0.6-0.7-1-1c-0.3-0.3-0.6-0.7-1-1
			c-0.3-0.3-0.6-0.7-1-1c-0.3-0.3-0.6-0.7-1-1c-0.3-0.3-0.6-0.7-1-1c-0.3-0.3-0.6-0.7-1-1c-0.3-0.3-0.6-0.7-1-1
			c-0.3-0.3-0.6-0.7-1-1c-0.3-0.3-0.6-0.7-1-1c-0.3-0.3-0.6-0.7-1-1c-0.3-0.3-0.6-0.7-1-1c-0.3-0.3-0.6-0.7-1-1
			c-0.3-0.3-0.6-0.7-1-1c-0.3-0.3-0.6-0.7-1-1c-0.3-0.3-0.6-0.7-1-1c-0.3-0.3-0.6-0.7-1-1c-0.3-0.3-0.6-0.7-1-1
			c-0.3-0.3-0.6-0.7-1-1c-0.3-0.3-0.6-0.7-1-1c-0.3-0.3-0.6-0.7-1-1c-0.3-0.3-0.6-0.7-1-1c-0.3-0.3-0.6-0.7-1-1
			c-0.3-0.3-0.6-0.7-1-1c-0.3-0.3-0.6-0.7-1-1c-0.3-0.3-0.6-0.7-1-1c-0.3-0.3-0.6-0.7-1-1c-0.3-0.3-0.6-0.7-1-1
			c-0.3-0.3-0.6-0.7-1-1c-0.3-0.3-0.6-0.7-1-1c-0.3-0.3-0.6-0.7-1-1c-0.3-0.3-0.6-0.7-1-1c-0.3-0.3-0.6-0.7-1-1
			c-0.3-0.3-0.6-0.7-1-1c-0.3-0.3-0.6-0.7-1-1c-0.3-0.3-0.6-0.7-1-1c-0.3-0.3-0.6-0.7-1-1c-0.3-0.3-0.6-0.7-1-1
			c-0.3-0.3-0.6-0.7-1-1c-0.3-0.3-0.6-0.7-1-1c-0.3-0.3-0.6-0.7-1-1c-0.3-0.3-0.6-0.7-1-1c-0.3-0.3-0.6-0.7-1-1
			c-0.3-0.3-0.6-0.7-1-1c-0.3-0.3-0.6-0.7-1-1c-0.3-0.3-0.6-0.7-1-1c-0.3-0.3-0.6-0.7-1-1c-0.3-0.3-0.6-0.7-1-1
			c-0.3-0.3-0.6-0.7-1-1c-0.3-0.3-0.6-0.7-1-1c-0.3-0.3-0.6-0.7-1-1c-0.3-0.3-0.6-0.7-1-1c-0.3-0.3-0.6-0.7-1-1
			c-0.3-0.3-0.6-0.7-1-1c-0.3-0.3-0.6-0.7-1-1c-0.3-0.3-0.6-0.7-1-1c-0.3-0.3-0.6-0.7-1-1c-0.3-0.3-0.6-0.7-1-1
			c-0.3-0.3-0.6-0.7-1-1c-0.3-0.3-0.6-0.7-1-1c-0.3-0.3-0.6-0.7-1-1c-0.3-0.3-0.6-0.7-1-1c-0.3-0.3-0.6-0.7-1-1
			c-0.3-0.3-0.6-0.7-1-1c-0.3-0.3-0.6-0.7-1-1c-0.3-0.3-0.6-0.7-1-1c-0.3-0.3-0.6-0.7-1-1c-0.3-0.3-0.6-0.7-1-1
			c-0.3-0.3-0.6-0.7-1-1c-0.3-0.3-0.6-0.7-1-1c-0.3-0.3-0.6-0.7-1-1c-0.3-0.3-0.6-0.7-1-1c-0.3-0.3-0.6-0.7-1-1
			c-0.3-0.3-0.6-0.7-1-1c-0.3-0.3-0.6-0.7-1-1c-0.3-0.3-0.6-0.7-1-1c-0.3-0.3-0.6-0.7-1-1c-0.3-0.3-0.6-0.7-1-1
			c-0.3-0.3-0.6-0.7-1-1c-0.3-0.3-0.6-0.7-1-1c-0.3-0.3-0.6-0.7-1-1c-0.3-0.3-0.6-0.7-1-1c-0.3-0.3-0.6-0.7-1-1
			c-0.3-0.3-0.6-0.7-1-1c-0.3-0.3-0.6-0.7-1-1c-0.3-0.3-0.6-0.7-1-1c-0.3-0.3-0.6-0.7-1-1c-0.3-0.3-0.6-0.7-1-1
			c-0.3-0.3-0.6-0.7-1-1c-0.3-0.3-0.6-0.7-1-1c-0.3-0.3-0.6-0.7-1-1c-0.3-0.3-0.6-0.7-1-1c-0.3-0.3-0.6-0.7-1-1
			c-0.3-0.3-0.6-0.7-1-1c-0.3-0.3-0.6-0.7-1-1c-0.3-0.3-0.6-0.7-1-1c-0.3-0.3-0.6-0.7-1-1c-0.3-0.3-0.6-0.7-1-1
			c-0.3-0.3-0.6-0.7-1-1c-0.3-0.3-0.6-0.7-1-1c-0.3-0.3-0.6-0.7-1-1c-0.3-0.3-0.6-0.7-1-1c-0.3-0.3-0.6-0.7-1-1
			c-0.3-0.3-0.6-0.7-1-1c-0.3-0.3-0.6-0.7-1-1c-0.3-0.3-0.6-0.7-1-1c-0.3-0.3-0.6-0.7-1-1c-0.3-0.3-0.6-0.7-1-1
			c-0.3-0.3-0.6-0.7-1-1c-0.3-0.3-0.6-0.7-1-1c-0.3-0.3-0.6-0.7-1-1c-0.3-0.3-0.6-0.7-1-1c-0.3-0.3-0.6-0.7-1-1
			c-0.3-0.3-0.6-0.7-1-1c-0.3-0.3-0.6-0.7-1-1c-0.3-0.3-0.6-0.7-1-1c-0.3-0.3-0.6-0.7-1-1c-0.3-0.3-0.6-0.7-1-1
			c-0.3-0.3-0.6-0.7-1-1c-0.3-0.3-0.6-0.7-1-1c-0.3-0.3-0.6-0.7-1-1c-0.3-0.3-0.6-0.7-1-1c-0.3-0.3-0.6-0.7-1-1
			c-0.3-0.3-0.6-0.7-1-1c-0.3-0.3-0.6-0.7-1-1c-0.3-0.3-0.6-0.7-1-1c-0.3-0.3-0.6-0.7-1-1c-0.3-0.3-0.6-0.7-1-1
			c-0.3-0.3-0.6-0.7-1-1c-0.3-0.3-0.6-0.7-1-1c-0.3-0.3-0.6-0.7-1-1c-0.3-0.3-0.6-0.7-1-1c-0.3-0.3-0.6-0.7-1-1
			c-0.3-0.3-0.6-0.7-1-1c-0.3-0.3-0.6-0.7-1-1c-0.3-0.3-0.6-0.7-1-1c-0.3-0.3-0.6-0.7-1-1c-0.3-0.3-0.6-0.7-1-1
			c-0.3-0.3-0.6-0.7-1-1c-0.3-0.3-0.6-0.7-1-1c-0.3-0.3-0.6-0.7-1-1c-0.3-0.3-0.6-0.7-1-1c-0.3-0.3-0.6-0.7-1-1
			c-0.3-0.3-0.6-0.7-1-1c-0.3-0.3-0.6-0.7-1-1c-0.3-0.3-0.6-0.7-1-1c-0.3-0.3-0.6-0.7-1-1c-0.3-0.3-0.6-0.7-1-1
			c-0.3-0.3-0.6-0.7-1-1c-0.3-0.3-0.6-0.7-1-1c-0.3-0.3-0.6-0.7-1-1c-0.3-0.3-0.6-0.7-1-1c-0.3-0.3-0.6-0.7-1-1
			c-0.3-0.3-0.6-0.7-1-1c-0.3-0.3-0.6-0.7-1-1c-0.3-0.3-0.6-0.7-1-1c-0.3-0.3-0.6-0.7-1-1c-0.3-0.3-0.6-0.7-1-1
			c-0.3-0.3-0.6-0.7-1-1c-0.3-0.3-0.6-0.7-1-1c-0.3-0.3-0.6-0.7-1-1c-0.3-0.3-0.6-0.7-1-1c-0.3-0.3-0.6-0.7-1-1
			c-0.3-0.3-0.6-0.7-1-1c-0.3-0.3-0.6-0.7-1-1c-0.3-0.3-0.6-0.7-1-1c-0.3-0.3-0.6-0.7-1-1c-0.3-0.3-0.6-0.7-1-1
			c-0.3-0.3-0.6-0.7-1-1c-0.3-0.3-0.6-0.7-1-1c-0.3-0.3-0.6-0.7-1-1c-0.3-0.3-0.6-0.7-1-1c-0.3-0.3-0.6-0.7-1-1
			c-0.3-0.3-0.6-0.7-1-1c-0.3-0.3-0.6-0.7-1-1c-0.3-0.3-0.6-0.7-1-1c-0.3-0.3-0.6-0.7-1-1c-0.3-0.3-0.6-0.7-1-1
			c-0.3-0.3-0.6-0.7-1-1c-0.3-0.3-0.6-0.7-1-1c-0.3-0.3-0.6-0.7-1-1c-0.3-0.3-0.6-0.7-1-1c-0.3-0.3-0.6-0.7-1-1
			c-0.3-0.3-0.6-0.7-1-1c-0.3-0.3-0.6-0.7-1-1c-0.3-0.3-0.6-0.7-1-1c-0.3-0.3-0.6-0.7-1-1c-0.3-0.3-0.6-0.7-1-1
			c-0.3-0.3-0.6-0.7-1-1c-0.3-0.3-0.6-0.7-1-1c-0.3-0.3-0.6-0.7-1-1c-0.3-0.3-0.6-0.7-1-1c-0.3-0.3-0.6-0.7-1-1
			c-0.3-0.3-0.6-0.7-1-1c-0.3-0.3-0.6-0.7-1-1c-0.3-0.3-0.6-0.7-1-1c-0.3-0.3-0.6-0.7-1-1c-0.3-0.3-0.6-0.7-1-1
			c-0.3-0.3-0.6-0.7-1-1c-0.3-0.3-0.6-0.7-1-1c-0.3-0.3-0.6-0.7-1-1c-0.3-0.3-0.6-0.7-1-1c-0.3-0.3-0.6-0.7-1-1
			c-0.3-0.3-0.6-0.7-1-1c-0.3-0.3-0.6-0.7-1-1c-0.3-0.3-0.6-0.7-1-1c-0.3-0.3-0.6-0.7-1-1c-0.3-0.3-0.6-0.7-1-1
			c-0.3-0.3-0.6-0.7-1-1c-0.3-0.3-0.6-0.7-1-1c-0.3-0.3-0.6-0.7-1-1c-0.3-0.3-0.6-0.7-1-1c-0.3-0.3-0.6-0.7-1-1
			c-1.4-1.6-3.4-2.9-6-3.9c-29.3-12.2-58.5-24.6-87.7-37.2c-5.5-2.4-10.8-2.6-16.6-1.2c-35.8,9.5-71.5,18.9-107.3,28.2
			c-48.9,12.8-97.9,25.5-146.7,38.3c-4.4,1.2-9.9,0.9-9.8,9c0.4,25.3,0.2,50.8,0.2,76.1c0,2.5,0,4.6,2.2,6.3c0.3,0.3,0.6,0.7,1,1
			c0.3,0.3,0.6,0.7,1,1c0.3,0.3,0.6,0.7,1,1c0.3,0.3,0.6,0.7,1,1c0.1,0.1,0.2,0.3,0.4,0.4c0.6,2-0.4,4.2-3.1,5.8
			c-3.5,2-3.6,4.7-3.4,7.9c1.2,21.9,0.2,43.8,0.7,65.7c0.1,3.8-1,8.9,1.7,11.3c0.1,0.1,0.3,0.2,0.4,0.4c0.2,0.2,0.4,0.4,0.6,0.6
			c0.1,0.1,0.2,0.2,0.3,0.3c2.7,3.2,2.2,6.9,2.3,10.7c0,5.1,0.2,10.1-0.1,15.1c-0.2,3.7,0.6,6,2.5,7.5c0.3,0.4,0.6,0.7,1,1
			c0.3,0.4,0.6,0.7,1,1c0.3,0.4,0.6,0.7,1,1c0.3,0.4,0.6,0.7,1,1c0.3,0.4,0.6,0.7,1,1c0.3,0.4,0.6,0.7,1,1c0.3,0.4,0.6,0.7,1,1
			c0.3,0.4,0.6,0.7,1,1c0.3,0.4,0.6,0.7,1,1c0.3,0.4,0.6,0.7,1,1c0.3,0.4,0.6,0.7,1,1c0.3,0.4,0.6,0.7,1,1c0.3,0.4,0.6,0.7,1,1
			c0.3,0.4,0.6,0.7,1,1c0.3,0.4,0.6,0.7,1,1c0.3,0.4,0.6,0.7,1,1c0.3,0.4,0.6,0.7,1,1c0.3,0.4,0.6,0.7,1,1c0.3,0.4,0.6,0.7,1,1
			c0.3,0.4,0.6,0.7,1,1c0.3,0.4,0.6,0.7,1,1c0.3,0.4,0.6,0.7,1,1c0.3,0.4,0.6,0.7,1,1c0.3,0.4,0.6,0.7,1,1c0.3,0.4,0.6,0.7,1,1
			c0.3,0.4,0.6,0.7,1,1c0.3,0.4,0.6,0.7,1,1c0.3,0.4,0.6,0.7,1,1c0.3,0.4,0.6,0.7,1,1c0.3,0.4,0.6,0.7,1,1c0.3,0.4,0.6,0.7,1,1
			c0.3,0.4,0.6,0.7,1,1c0.3,0.4,0.6,0.7,1,1c0.3,0.4,0.6,0.7,1,1c0.3,0.4,0.6,0.7,1,1c0.3,0.4,0.6,0.7,1,1c0.3,0.4,0.6,0.7,1,1
			c0.3,0.4,0.6,0.7,1,1c0.3,0.4,0.6,0.7,1,1c0.3,0.4,0.6,0.7,1,1c0.3,0.4,0.6,0.7,1,1c0.3,0.4,0.6,0.7,1,1c0.3,0.4,0.6,0.7,1,1
			c0.3,0.4,0.6,0.7,1,1c0.3,0.4,0.6,0.7,1,1c0.3,0.4,0.6,0.7,1,1c0.3,0.4,0.6,0.7,1,1c0.3,0.4,0.6,0.7,1,1c0.3,0.4,0.6,0.7,1,1
			c0.3,0.4,0.6,0.7,1,1c0.3,0.4,0.6,0.7,1,1c0.3,0.4,0.6,0.7,1,1c0.3,0.4,0.6,0.7,1,1c0.3,0.4,0.6,0.7,1,1c0.3,0.4,0.6,0.7,1,1
			c0.3,0.4,0.6,0.7,1,1c0.3,0.4,0.6,0.7,1,1c0.3,0.4,0.6,0.7,1,1c0.3,0.4,0.6,0.7,1,1c0.3,0.4,0.6,0.7,1,1c0.3,0.4,0.6,0.7,1,1
			c0.3,0.4,0.6,0.7,1,1c0.3,0.4,0.6,0.7,1,1c0.3,0.4,0.6,0.7,1,1c0.3,0.4,0.6,0.7,1,1c0.3,0.4,0.6,0.7,1,1c0.3,0.4,0.6,0.7,1,1
			c0.3,0.4,0.6,0.7,1,1c0.3,0.4,0.6,0.7,1,1c0.3,0.4,0.6,0.7,1,1c0.3,0.4,0.6,0.7,1,1c0.3,0.4,0.6,0.7,1,1c0.3,0.4,0.6,0.7,1,1
			c0.3,0.4,0.6,0.7,1,1c0.3,0.4,0.6,0.7,1,1c0.3,0.4,0.6,0.7,1,1c0.3,0.4,0.6,0.7,1,1c0.3,0.4,0.6,0.7,1,1c0.3,0.4,0.6,0.7,1,1
			c0.3,0.4,0.6,0.7,1,1c0.3,0.4,0.6,0.7,1,1c0.3,0.4,0.6,0.7,1,1c0.3,0.4,0.6,0.7,1,1c0.3,0.4,0.6,0.7,1,1c0.3,0.4,0.6,0.7,1,1
			c0.3,0.4,0.6,0.7,1,1c0.3,0.4,0.6,0.7,1,1c0.3,0.4,0.6,0.7,1,1c0.3,0.4,0.6,0.7,1,1c0.3,0.4,0.6,0.7,1,1c0.3,0.4,0.6,0.7,1,1
			c0.3,0.4,0.6,0.7,1,1c0.3,0.4,0.6,0.7,1,1c0.3,0.4,0.6,0.7,1,1c0.3,0.4,0.6,0.7,1,1c0.3,0.4,0.6,0.7,1,1c0.3,0.4,0.6,0.7,1,1
			c0.3,0.4,0.6,0.7,1,1c0.3,0.4,0.6,0.7,1,1c0.3,0.4,0.6,0.7,1,1c0.3,0.4,0.6,0.7,1,1c0.3,0.4,0.6,0.7,1,1c0.3,0.4,0.6,0.7,1,1
			c0.3,0.4,0.6,0.7,1,1c0.3,0.4,0.6,0.7,1,1c0.3,0.4,0.6,0.7,1,1c0.3,0.4,0.6,0.7,1,1c0.3,0.4,0.6,0.7,1,1c0.3,0.4,0.6,0.7,1,1
			c0.3,0.4,0.6,0.7,1,1c0.3,0.4,0.6,0.7,1,1c0.3,0.4,0.6,0.7,1,1c0.3,0.4,0.6,0.7,1,1c0.3,0.4,0.6,0.7,1,1c0.3,0.4,0.6,0.7,1,1
			c0.3,0.4,0.6,0.7,1,1c0.3,0.4,0.6,0.7,1,1c0.3,0.4,0.6,0.7,1,1c0.3,0.4,0.6,0.7,1,1c0.3,0.4,0.6,0.7,1,1c0.3,0.4,0.6,0.7,1,1
			c0.3,0.4,0.6,0.7,1,1c0.3,0.4,0.6,0.7,1,1c0.3,0.4,0.6,0.7,1,1c0.3,0.4,0.6,0.7,1,1c0.3,0.4,0.6,0.7,1,1c0.3,0.4,0.6,0.7,1,1
			c0.3,0.4,0.6,0.7,1,1c0.3,0.4,0.6,0.7,1,1c0.3,0.4,0.6,0.7,1,1c0.3,0.4,0.6,0.7,1,1c0.3,0.4,0.6,0.7,1,1c0.3,0.4,0.6,0.7,1,1
			c0.3,0.4,0.6,0.7,1,1c0.3,0.4,0.6,0.7,1,1c0.3,0.4,0.6,0.7,1,1c0.3,0.4,0.6,0.7,1,1c0.3,0.4,0.6,0.7,1,1c0.3,0.4,0.6,0.7,1,1
			c0.3,0.4,0.6,0.7,1,1c0.3,0.4,0.6,0.7,1,1c0.3,0.4,0.6,0.7,1,1c0.3,0.4,0.6,0.7,1,1c0.3,0.4,0.6,0.7,1,1c0.3,0.4,0.6,0.7,1,1
			c0.3,0.4,0.6,0.7,1,1c0.3,0.4,0.6,0.7,1,1c0.3,0.4,0.6,0.7,1,1c0.3,0.4,0.6,0.7,1,1c0.3,0.4,0.6,0.7,1,1c0.3,0.4,0.6,0.7,1,1
			c0.3,0.4,0.6,0.7,1,1c0.3,0.4,0.6,0.7,1,1c0.3,0.4,0.6,0.7,1,1c0.3,0.4,0.6,0.7,1,1c0.3,0.4,0.6,0.7,1,1c0.3,0.4,0.6,0.7,1,1
			c0.3,0.4,0.6,0.7,1,1c0.3,0.4,0.6,0.7,1,1c0.3,0.4,0.6,0.7,1,1c0.3,0.4,0.6,0.7,1,1c0.3,0.4,0.6,0.7,1,1c0.3,0.4,0.6,0.7,1,1
			c0.3,0.4,0.6,0.7,1,1c0.3,0.4,0.6,0.7,1,1c0.3,0.4,0.6,0.7,1,1c0.3,0.4,0.6,0.7,1,1c0.3,0.4,0.6,0.7,1,1c0.3,0.4,0.6,0.7,1,1
			c0.3,0.4,0.6,0.7,1,1c0.3,0.4,0.6,0.7,1,1c0.3,0.4,0.6,0.7,1,1c0.3,0.4,0.6,0.7,1,1c0.3,0.4,0.6,0.7,1,1c0.3,0.4,0.6,0.7,1,1
			c0.3,0.4,0.6,0.7,1,1c0.3,0.4,0.6,0.7,1,1c0.3,0.4,0.6,0.7,1,1c0.3,0.4,0.6,0.7,1,1c0.3,0.4,0.6,0.7,1,1c0.3,0.4,0.6,0.7,1,1
			c0.3,0.4,0.6,0.7,1,1c0.3,0.4,0.6,0.7,1,1c0.3,0.4,0.6,0.7,1,1c0.3,0.4,0.6,0.7,1,1c0.3,0.4,0.6,0.7,1,1c0.3,0.4,0.6,0.7,1,1
			c0.3,0.4,0.6,0.7,1,1c0.3,0.4,0.6,0.7,1,1c0.3,0.4,0.6,0.7,1,1c0.3,0.4,0.6,0.7,1,1c0.3,0.4,0.6,0.7,1,1c0.3,0.4,0.6,0.7,1,1
			c0.3,0.4,0.6,0.7,1,1c0.3,0.4,0.6,0.7,1,1c0.3,0.4,0.6,0.7,1,1c0.3,0.4,0.6,0.7,1,1c0.3,0.4,0.6,0.7,1,1c0.3,0.4,0.6,0.7,1,1
			c0.3,0.4,0.6,0.7,1,1c0.3,0.4,0.6,0.7,1,1c0.3,0.4,0.6,0.7,1,1c0.3,0.4,0.6,0.7,1,1c0.3,0.4,0.6,0.7,1,1c0.3,0.4,0.6,0.7,1,1
			c0.3,0.4,0.6,0.7,1,1c0.3,0.4,0.6,0.7,1,1c0.3,0.4,0.6,0.7,1,1c0.3,0.4,0.6,0.7,1,1c0.3,0.4,0.6,0.7,1,1c0.3,0.4,0.6,0.7,1,1
			c0.3,0.4,0.6,0.7,1,1c0.3,0.4,0.6,0.7,1,1c0.3,0.4,0.6,0.7,1,1c0.3,0.4,0.6,0.7,1,1c0.3,0.4,0.6,0.7,1,1c0.3,0.4,0.6,0.7,1,1
			c0.3,0.4,0.6,0.7,1,1c0.3,0.4,0.6,0.7,1,1c0.3,0.4,0.6,0.7,1,1c0.3,0.4,0.6,0.7,1,1c0.3,0.4,0.6,0.7,1,1c0.3,0.4,0.6,0.7,1,1
			c0.3,0.4,0.6,0.7,1,1c0.3,0.4,0.6,0.7,1,1c0.3,0.4,0.6,0.7,1,1c0.3,0.4,0.6,0.7,1,1c0.3,0.4,0.6,0.7,1,1c0.3,0.4,0.6,0.7,1,1
			c0.3,0.4,0.6,0.7,1,1c0.3,0.4,0.6,0.7,1,1c0.3,0.4,0.6,0.7,1,1c0.3,0.4,0.6,0.7,1,1c0.3,0.4,0.6,0.7,1,1c0.3,0.4,0.6,0.7,1,1
			c0.3,0.4,0.6,0.7,1,1c0.3,0.4,0.6,0.7,1,1c0.3,0.4,0.6,0.7,1,1c0.3,0.4,0.6,0.7,1,1c0.3,0.4,0.6,0.7,1,1c0.3,0.4,0.6,0.7,1,1
			c0.3,0.4,0.6,0.7,1,1c0.3,0.4,0.6,0.7,1,1c0.3,0.4,0.6,0.7,1,1c0.3,0.4,0.6,0.7,1,1c0.3,0.4,0.6,0.7,1,1c0.3,0.4,0.6,0.7,1,1
			c0.3,0.4,0.6,0.7,1,1c0.3,0.4,0.6,0.7,1,1c0.3,0.4,0.6,0.7,1,1c0.3,0.4,0.6,0.7,1,1c0.3,0.4,0.6,0.7,1,1c0.3,0.4,0.6,0.7,1,1
			c0.3,0.4,0.6,0.7,1,1c0.3,0.4,0.6,0.7,1,1c0.3,0.4,0.6,0.7,1,1c0.3,0.4,0.6,0.7,1,1c0.3,0.4,0.6,0.7,1,1c0.3,0.4,0.6,0.7,1,1
			c0.3,0.4,0.6,0.7,1,1c0.3,0.4,0.6,0.7,1,1c0.3,0.4,0.6,0.7,1,1c0.3,0.4,0.6,0.7,1,1c0.3,0.4,0.6,0.7,1,1c0.3,0.4,0.6,0.7,1,1
			c0.3,0.4,0.6,0.7,1,1c0.3,0.4,0.6,0.7,1,1c0.3,0.4,0.6,0.7,1,1c0.3,0.4,0.6,0.7,1,1c0.3,0.4,0.6,0.7,1,1c0.3,0.4,0.6,0.7,1,1
			c0.3,0.4,0.6,0.7,1,1c0.3,0.4,0.6,0.7,1,1c0.3,0.4,0.6,0.7,1,1c0.3,0.4,0.6,0.7,1,1c0.3,0.4,0.6,0.7,1,1c0.3,0.4,0.6,0.7,1,1
			c0.3,0.4,0.6,0.7,1,1c0.3,0.4,0.6,0.7,1,1c0.3,0.4,0.6,0.7,1,1c0.3,0.4,0.6,0.7,1,1c0.3,0.4,0.6,0.7,1,1c0.3,0.4,0.6,0.7,1,1
			c0.3,0.4,0.6,0.7,1,1c0.3,0.4,0.6,0.7,1,1c0.3,0.4,0.6,0.7,1,1c0.3,0.4,0.6,0.7,1,1c0.3,0.4,0.6,0.7,1,1c0.3,0.4,0.6,0.7,1,1
			c0.3,0.4,0.6,0.7,1,1c0.3,0.4,0.6,0.7,1,1c0.3,0.4,0.6,0.7,1,1c0.3,0.4,0.6,0.7,1,1c0.3,0.4,0.6,0.7,1,1c0.3,0.4,0.6,0.7,1,1
			c0.3,0.4,0.6,0.7,1,1c0.3,0.4,0.6,0.7,1,1c0.3,0.4,0.6,0.7,1,1c0.3,0.4,0.6,0.7,1,1c1.2,1.5,3.1,2.4,5.8,3.1
			c80.6,19,161,38.3,241.6,57.6c44.8,10.7,89.6,21.6,134.4,32.4c5.1,1.2,9.9,1.7,14.9-1.6c23.3-15.7,46.7-31.2,70.2-46.6
			c3.7-2.5,5.5-5.3,5.5-10.2C939.8,780.6,939.8,729.6,940,678.6z"/>
	</g>
</g>
<g id="Layer_1">
	<g>
		<path class="st2" d="M534.8,282.4c0,24,0.2,48-0.2,72c-0.1,6.9,1.6,9.2,8.2,8.9c30.3-0.9,60.2,5.2,90.4,7.3
			c4.8,0.3,6.7,2.4,6.7,7.9c-0.2,51-0.2,102,0,152.9c0,4.9-1.7,7.7-5.5,10.2c-23.5,15.4-46.9,30.9-70.2,46.6
			c-5,3.3-9.8,2.8-14.9,1.6c-44.8-10.8-89.6-21.7-134.4-32.4c-80.6-19.3-161-38.6-241.6-57.6c-5.3-1.2-7.6-3.7-7.3-9.6
			c0.3-5,0.1-10,0.1-15.1c-0.1-4.4,0.6-8.5-3.6-12c-2.7-2.3-1.7-7.5-1.7-11.3c-0.4-21.9,0.6-43.8-0.7-65.7c-0.2-3.1-0.1-5.9,3.4-7.9
			c4.6-2.7,4.2-7-0.2-9.5c-3.2-1.8-3.2-4.1-3.2-7c0-25.3,0.2-50.8-0.2-76.1c-0.1-8.1,5.4-7.9,9.8-9c48.9-12.8,97.8-25.5,146.7-38.3
			c35.8-9.4,71.5-18.7,107.3-28.2c5.7-1.5,11-1.2,16.6,1.2c29.1,12.6,58.4,25,87.7,37.2c6.6,2.7,9.3,6.7,8.7,14.2
			c-0.5,6.5-0.1,13.2-0.1,19.8C536,282.4,535.4,282.4,534.8,282.4z"/>
		<path class="st3" d="M555.5,465.7c0,25.1-0.2,50.2,0.1,75.3c0.1,6.9-1.6,8.6-8.1,7c-16.1-3.8-32.3-7-48.5-9.9c-5.2-1-7-3.6-7-8.9
			c0.1-46.8,0.1-93.5,0-140.3c0-5.5,1.4-8.2,7.1-8.1c16.2,0.1,32.5-0.2,48.7-0.7c6.2-0.2,8.1,2.3,8.1,8.8
			c-0.2,25.6-0.1,51.3-0.1,76.8C555.7,465.7,555.6,465.7,555.5,465.7z"/>
		<path class="st3" d="M486.2,458.1c0,22.7,0,45.5,0,68.1c0,9.3,0,9.2-8.9,7.4c-21.7-4.4-43.5-8.8-65.2-12.8c-5-0.9-6.7-3.4-6.7-8.4
			c0.1-40.4,0.1-80.8,0-121.2c0-6.2,2.8-7.3,7.8-7.4c22.1-0.7,44.2-1.5,66.3-2.6c5.2-0.2,6.9,1.7,6.8,7.2
			C486,411.5,486.2,434.8,486.2,458.1z"/>
		<path class="st3" d="M562.2,546.1c-1.2-2.1-0.6-4.5-0.6-6.7c-0.1-50.1,0.1-100.3-0.2-150.4c0-7,1.6-9.2,8.3-8.4
			c18.8,2.1,37.7,3.6,56.5,5.1c4.8,0.4,6.8,2.2,7,7.6c1.3,36.3,0.4,72.8,0.7,109.2c0,3.9-1.3,6.6-4.5,8.4
			c-22.1,11.9-44.3,23.8-66.5,35.6C562.9,546.5,562.7,546.3,562.2,546.1z"/>
		<path class="st3" d="M555.5,570.1c0,13.7,0,13.7-12.9,10.7c-119.8-28.6-239.6-57.2-359.4-85.9c-2.2-0.5-4.5-0.8-6.4-1.9
			c-3.6-2.2-4.8-6.3-3.6-10.3c1.1-3.8,4.6-2.2,7-1.7c56,11.2,111.9,22.4,168,33.7c65.2,13.1,130.3,26.1,195.6,39
			C555.5,556.1,555.5,555.9,555.5,570.1z"/>
		<path class="st3" d="M250.1,375.4c0,34.6-0.1,69.1,0.1,103.8c0,6.7-1.3,9.1-8,7.1c-6.6-2-13.5-2.9-20.3-4.1
			c-4.8-0.8-7.4-2.9-7.4-8.7c0.1-64.9,0.1-129.8,0-194.8c0-5.2,2.2-7.7,6.6-8.8c7.5-1.8,14.8-3.6,22.2-5.8c5.5-1.7,6.9,0.2,6.9,6
			C250,305.2,250.1,340.3,250.1,375.4z"/>
		<path class="st3" d="M288.5,374.6c0,37.5-0.1,74.9,0.1,112.4c0,6.7-1.3,9.1-7.9,7c-6-2-12.5-2.7-18.8-3.7
			c-4.1-0.7-5.9-2.6-5.9-7.3c0.1-71.8,0.1-143.6,0-215.4c0-4.9,1.7-7.4,6-8.4c6.5-1.6,12.9-3.1,19.3-5c5.4-1.6,7.5-0.2,7.4,6.3
			C288.4,298.6,288.5,336.6,288.5,374.6z"/>
		<path class="st3" d="M434.9,291.3c0-22.2,0.2-44.4-0.1-66.6c-0.1-6.5,1.4-7.8,7.1-5.3c27.1,11.8,54.2,23.3,81.5,34.8
			c4.9,2.1,6.6,5.3,6.5,10.8c-0.7,30.1-1.5,60.2-1.8,90.3c-0.1,6.2-1.9,8.3-7.6,8.3c-25.8,0.2-51.7,0.7-77.4,1.7
			c-6.9,0.2-8.3-2.2-8.2-8.9C435.1,334.6,434.9,313,434.9,291.3z"/>
		<path class="st3" d="M399.5,451.9c0,19.8-0.2,39.6,0.1,59.4c0.1,5.5-1.7,7-6.4,5.9c-14.4-3.1-28.8-6.3-43.3-9
			c-5.3-1-6.8-4-6.8-9.3c0.1-35.1,0.1-70.2,0-105.3c0-5.7,1.8-7.9,7.4-7.9c14-0.2,28-0.7,42-1.6c5.6-0.3,7.3,1.9,7.2,7.7
			C399.3,411.7,399.5,431.7,399.5,451.9z"/>
		<path class="st3" d="M382.7,297.4c0,20.1-0.3,40.2,0.2,60.2c0.2,7.4-2.1,9.7-8.7,9.7c-14.5,0.1-29,0.6-43.5,1.4
			c-5,0.2-6.7-1.9-6.5-6.8c0.1-3.4,0-6.9,0-10.3c0-32.7,0.2-65.5-0.2-98.2c-0.1-7.5,2.2-10.8,9.1-12.3c14.2-3.1,28.2-7,42.1-11.3
			c6.5-2,7.6,0.3,7.5,6.6C382.7,256.6,382.7,277,382.7,297.4z"/>
		<path class="st3" d="M429,290.7c0,22.2-0.2,44.4,0.1,66.5c0.1,7-2.2,9.5-8.5,9.3c-8.1-0.2-16.2-0.4-24.3,0.3
			c-6,0.5-7.7-1.6-7.7-7.8c0.2-26.4,0.1-52.8,0.1-79.2c0-15.3,0.2-30.6-0.1-46c-0.1-5.5,1.7-8.1,6.6-9.2c9.1-2.1,18.2-4.4,27.2-7.1
			c5.5-1.7,6.8,0.2,6.7,5.9C428.9,245.8,429,268.2,429,290.7z"/>
		<path class="st3" d="M207.9,377.1c0,31.4-0.2,62.8,0.1,94.2c0.1,6.1-1.4,7.9-7.1,6.5c-7.1-1.8-14.5-2.7-21.7-4.1
			c-2.2-0.4-5.4-0.5-5.5-3c-0.6-7.8-6.6-13.3-6.4-21.7c0.4-17.9-0.2-35.9-0.4-53.8c0-4.3-1-8.8,4.1-11.6c2.5-1.3,1.8-19.5-0.7-20.9
			c-3.5-1.9-3.5-4.6-3.5-7.8c0-21.1,0.2-42.2-0.1-63.3c-0.1-5.6,1.9-8,6.8-9.1c8.2-1.8,16.2-4.2,24.3-6.3
			c10.1-2.6,10.1-2.6,10.1,8.2C207.9,315.4,207.9,346.3,207.9,377.1z"/>
		<path class="st3" d="M337.2,445.9c0,17.4-0.2,34.9,0.1,52.2c0.1,6.1-2.1,7.2-7,6.1c-9.4-2.1-18.7-4.3-28.2-5.7
			c-6.2-0.9-7.8-4.6-7.5-10.3c1.3-26.7,0.2-53.2,0.6-79.9c0-2.1,0.1-4.2,0-6.3c-0.4-15.2-0.5-15.3,13.8-16.1
			c7.1-0.4,14.2-0.1,21.4-0.4c5.1-0.2,7,1.7,6.9,7.3C337,410.5,337.2,428.3,337.2,445.9z"/>
		<path class="st3" d="M317.8,307.5c0,17.6-0.2,35.4,0.1,53c0.1,6.6-2.1,8.9-8.1,8.7c-15.9-0.4-15,1.7-14.8-15.5
			c0.2-31.4,0.2-62.8-0.1-94.1c-0.1-6.9,2-9.6,8.4-10.8c14.5-2.7,14.4-3.2,14.4,12.9C317.8,276.9,317.8,292.2,317.8,307.5z"/>
		<path class="st3" d="M561.7,569.5c-0.7-12.5,0.6-14.7,10.8-20.1c18.5-9.9,36.8-19.7,55.1-29.9c5.1-2.8,6.4-2.2,6.5,4.1
			c0.1,7.2-2.4,11.8-8,15.4c-18.9,12.3-37.6,24.9-56.4,37.3c-2.2,1.5-4.4,4.8-7,3.4c-2.6-1.4-0.7-5.3-1.2-8
			C561.6,571.2,561.7,570.4,561.7,569.5z"/>
		<path class="st3" d="M296.2,375.9c85.9-2.2,171.6-4.4,257.5-6.5c0,1.1,0.1,2.1,0.1,3.1c-85.9,2.4-171.6,4.8-257.5,7.2
			C296.3,378.5,296.2,377.3,296.2,375.9z"/>
		<path class="st4" d="M461.1,430.8c0.1,13.3-8.8,24.6-19.4,24.5c-10.2-0.1-18.5-10.5-18.7-23.3c-0.2-13.7,8.4-25,18.8-24.9
			C452.1,407.1,460.9,417.9,461.1,430.8z"/>
		<path class="st4" d="M588.5,442.3c0-10.8,0.2-21.6-0.1-32.5c-0.2-6,2.3-7.9,7.5-7.5c5.6,0.3,11.3,0.3,16.9,0.1
			c4.6-0.2,6.6,1.4,6.5,6.8c-0.2,18.5-0.2,36.9,0,55.4c0,4.1-1.3,6.3-4.9,7.7c-6.6,2.6-13.2,5.5-19.8,8.5c-4.4,2-6.4,1-6.3-4.4
			C588.6,464.9,588.5,453.6,588.5,442.3z"/>
		<path class="st4" d="M445.3,247.6c18.2,5.7,36.1,11.3,54,16.8c7.3,2.3,14.6,4.7,21.9,6.9c2.7,0.7,4.9,1.7,4,5.1
			c-0.9,3.3-3.6,2.2-5.6,1.5c-24.8-7.5-49.5-15.1-74.3-22.7c-2.4-0.7-4.8-2.1-4.3-5.5C441.4,246.8,443.8,247.8,445.3,247.6z"/>
		<path class="st4" d="M449.4,315.8c23.3,2.7,46.4,5.5,69.5,8.4c2.5,0.3,6,0.2,5.7,4.5c-0.4,4.6-4,3.1-6.4,2.7
			c-23.2-2.7-46.3-5.5-69.4-8.5c-2.9-0.4-8.4,1-7.5-4.7C441.9,313.5,446.6,316.3,449.4,315.8z"/>
		<path class="st4" d="M447,298.4c24.5,3.9,48.8,7.7,73,11.7c2.3,0.4,5.3,0.9,4.7,4.6c-0.6,4.2-3.6,2.6-5.8,2.3
			c-23.6-3.6-47.1-7.3-70.7-11c-0.7-0.1-1.5-0.2-2.2-0.4c-2.4-0.7-5.4-1-4.9-4.6C441.7,297.4,444.8,298.5,447,298.4z"/>
		<path class="st4" d="M444.5,281.5c25.8,5.4,50.7,10.4,75.5,15.6c2.7,0.6,5.5,2.1,4.5,5.9c-0.9,3.2-3.7,1.6-5.6,1.2
			c-24.1-5-48.2-10.1-72.3-15.1c-2.8-0.6-5.7-1-5.5-4.9C441.2,281.5,443.4,281.4,444.5,281.5z"/>
		<path class="st4" d="M525.9,262.9c-1.7,4.6-4.7,2.6-7,1.8c-13.7-4.8-27.4-9.8-41.2-14.7c-10.7-3.9-21.4-7.8-32-11.7
			c-2.6-0.9-5.8-1.8-4.6-5.6c1.4-4.7,4.6-1.5,6.7-0.7c24,8.4,47.9,17,71.9,25.6C522.3,258.5,525.7,259.1,525.9,262.9z"/>
		<path class="st3" d="M628.7,377.9c-0.2,3.8-2.6,2.9-4.3,2.7c-10.2-1-20.4-2.2-30.6-3.2c-7.9-0.9-15.9-1.8-23.8-2.6
			c-2-0.2-4.2-0.2-4.2-3.4c0.1-3.8,2.8-2,4.4-1.9c17.8,1.7,35.6,3.6,53.4,5.5C625.4,375.3,627.7,375.1,628.7,377.9z"/>
		<path class="st4" d="M445.3,264.7c25.3,6.5,50.6,13.1,75.9,19.6c2.4,0.7,4.2,2,3.6,5c-0.7,3.7-3.1,2.2-5.3,1.7
			c-24.6-6.4-49.2-12.8-73.8-19c-2.5-0.7-5.1-1.2-4.8-4.8C441.2,264.2,443,263.7,445.3,264.7z"/>
		<path class="st4" d="M510.2,342.4c-20.3-1-40.7-2-60.9-3.1c-1-0.1-2-0.2-2.9-0.3c-2.4-0.4-5.5-0.3-5.2-4.1
			c0.2-3.7,3.1-3.4,5.6-3.3c12,0.6,24,1.2,36,2c12,0.8,23.9,1.8,35.9,2.7c2.3,0.2,5.7-0.6,5.8,3.1c0.1,4.5-3.7,3.1-6.1,3.2
			c-2.6,0.2-5.4,0.1-8.1,0.1C510.2,342.7,510.2,342.6,510.2,342.4z"/>
		<path class="st4" d="M482.7,355.8c-11.8,0-23.6,0-35.4,0c-2.6,0-6.1,0.8-6.1-3.6c0-3.7,3.2-3.3,5.6-3.2
			c24.1,0.1,48.2,0.2,72.4,0.2c2.2,0,4.9-0.6,5,3c0.1,3.9-2.8,3.6-5.3,3.6C506.8,355.8,494.7,355.8,482.7,355.8z"/>
		<path class="st4" d="M335.6,281.3c-0.2-12.6,6.5-22.1,16.1-22.4c9.7-0.3,17.5,8.9,17.7,21c0.2,12.3-7.5,22.9-16.9,23.1
			C343,303.2,335.9,294,335.6,281.3z"/>
		<path class="st4" d="M202.6,323.9c0,10.3-0.2,20.5,0.1,30.9c0.2,6.2-2.1,8.6-7.8,8.2c-5.1-0.3-10.4-0.2-15.5-0.1
			c-4.3,0.1-6.2-2-6.1-6.7c0.1-19.2,0.1-38.5,0-57.7c0-3.7,1.3-5.8,4.9-6.5c6-1.3,11.9-2.9,17.9-4.6c5.1-1.5,6.7,0.6,6.6,5.8
			C202.6,303.2,202.6,313.5,202.6,323.9z"/>
		<path class="st4" d="M429.6,430.8c0.1-2.5,0.1-5.7,1.6-8.5c2.3-4.6,5.4-8.2,10.8-8.2c5.1,0,7.9,3.5,10.2,7.9
			c2.5,4.9,2.6,10.2,1.4,15.3c-1.7,7.3-7.5,11.8-13.3,10.8C433.9,447.1,429.7,440.4,429.6,430.8z"/>
		<path class="st4" d="M594.4,441.8c0-8.4,0.1-16.8,0-25.3c0-4.5,1.7-7.3,6-7c4.5,0.4,10.4-2.1,12,5.5c0.4,2.1,0.7,4.1,0.7,6.3
			c0.1,12.6,0.2,25.2,0,37.8c-0.1,5.1-12.9,14.5-16.9,12.7c-2.2-1.1-1.7-3.6-1.7-5.5C594.4,458.1,594.4,449.9,594.4,441.8z"/>
		<path class="st4" d="M362.9,279.8c0,8.5-4.7,15.8-10.3,16.1c-6,0.2-11-6.7-11-15.2c0-8.2,5.2-15.3,11.2-15.2
			C358.3,265.6,362.9,272.3,362.9,279.8z"/>
		<path class="st4" d="M195.7,324.8c0,8.4,0.1,16.9,0,25.3c-0.2,8.2-6.1,4.6-9.9,5.3c-4.1,0.7-5.6-1.5-5.5-5.9
			c0.1-14.5-0.1-29-0.1-43.5c0-7,7.4-12.8,13.4-10.8c2.7,0.8,2.2,3.2,2.2,5.1C195.8,308.5,195.7,316.7,195.7,324.8z"/>
	</g>
</g>
</svg>
