<?xml version="1.0" encoding="utf-8"?>
<!-- Generator: Adobe Illustrator 23.0.0, SVG Export Plug-In . SVG Version: 6.00 Build 0)  -->
<svg version="1.1" xmlns="http://www.w3.org/2000/svg" xmlns:xlink="http://www.w3.org/1999/xlink" x="0px" y="0px"
	 viewBox="0 0 800 800" style="enable-background:new 0 0 800 800;" xml:space="preserve">
<style type="text/css">
	.st0{fill:#333333;}
	.st1{opacity:0.4;clip-path:url(#SVGID_2_);}
	.st2{fill:#4C73B2;}
	.st3{fill:#E0E0E0;}
	.st4{fill:#EFEFEF;}
</style>
<g id="Layer_2">
	<circle class="st0" cx="400" cy="400.1" r="400"/>
</g>
<g id="Layer_1_copy">
	<g>
		<defs>
			<circle id="SVGID_1_" cx="400" cy="400.1" r="400"/>
		</defs>
		<clipPath id="SVGID_2_">
			<use xlink:href="#SVGID_1_"  style="overflow:visible;"/>
		</clipPath>
		<path class="st1" d="M890,760c0.2-6.4-1.1-12.5-2.8-18.6c-2.2-8.1-5.8-15.7-9.5-23.2c-0.8-1.7-1.9-3.2-3.3-4.3
			c-0.3-0.4-0.6-0.7-1-1c-0.3-0.4-0.6-0.7-1-1c-0.3-0.4-0.6-0.7-1-1c-0.3-0.4-0.6-0.7-1-1c-0.3-0.4-0.6-0.7-1-1
			c-0.3-0.4-0.6-0.7-1-1c-0.3-0.4-0.6-0.7-1-1c-0.3-0.4-0.6-0.7-1-1c-0.3-0.4-0.6-0.7-1-1c-0.3-0.4-0.6-0.7-1-1
			c-0.3-0.4-0.6-0.7-1-1c-0.3-0.4-0.6-0.7-1-1c-0.3-0.4-0.6-0.7-1-1c-0.3-0.4-0.6-0.7-1-1c-0.3-0.4-0.6-0.7-1-1
			c-0.3-0.4-0.6-0.7-1-1c-0.3-0.4-0.6-0.7-1-1c-0.3-0.4-0.6-0.7-1-1c-0.3-0.4-0.6-0.7-1-1c-0.3-0.4-0.6-0.7-1-1
			c-0.3-0.4-0.6-0.7-1-1c-0.3-0.4-0.6-0.7-1-1c-0.3-0.4-0.6-0.7-1-1c-0.3-0.4-0.6-0.7-1-1c-0.3-0.4-0.6-0.7-1-1
			c-0.3-0.4-0.6-0.7-1-1c-0.3-0.4-0.6-0.7-1-1c-0.3-0.4-0.6-0.7-1-1c-0.3-0.4-0.6-0.7-1-1c-0.3-0.4-0.6-0.7-1-1
			c-0.3-0.4-0.6-0.7-1-1c-0.3-0.4-0.6-0.7-1-1c-0.3-0.4-0.6-0.7-1-1c-0.3-0.4-0.6-0.7-1-1c-0.3-0.4-0.6-0.7-1-1
			c-0.3-0.4-0.6-0.7-1-1c-0.3-0.4-0.6-0.7-1-1c-0.3-0.4-0.6-0.7-1-1c-0.3-0.4-0.6-0.7-1-1c-0.3-0.4-0.6-0.7-1-1
			c-0.3-0.4-0.6-0.7-1-1c-0.3-0.4-0.6-0.7-1-1c-0.3-0.4-0.6-0.7-1-1c-0.3-0.4-0.6-0.7-1-1c-0.3-0.4-0.6-0.7-1-1
			c-0.3-0.4-0.6-0.7-1-1c-0.3-0.4-0.6-0.7-1-1c-0.3-0.4-0.6-0.7-1-1c-0.3-0.4-0.6-0.7-1-1c-0.3-0.4-0.6-0.7-1-1
			c-0.3-0.4-0.6-0.7-1-1c-0.3-0.4-0.6-0.7-1-1c-0.3-0.4-0.6-0.7-1-1c-0.3-0.4-0.6-0.7-1-1c-0.3-0.4-0.6-0.7-1-1
			c-0.3-0.4-0.6-0.7-1-1c-0.3-0.4-0.6-0.7-1-1c-0.3-0.4-0.6-0.7-1-1c-0.3-0.4-0.6-0.7-1-1c-0.3-0.4-0.6-0.7-1-1
			c-0.3-0.4-0.6-0.7-1-1c-0.3-0.4-0.6-0.7-1-1c-0.3-0.4-0.6-0.7-1-1c-0.3-0.4-0.6-0.7-1-1c-0.3-0.4-0.6-0.7-1-1
			c-0.3-0.4-0.6-0.7-1-1c-0.3-0.4-0.6-0.7-1-1c-0.3-0.4-0.6-0.7-1-1c-0.3-0.4-0.6-0.7-1-1c-0.3-0.4-0.6-0.7-1-1
			c-0.3-0.4-0.6-0.7-1-1c-0.3-0.4-0.6-0.7-1-1c-0.1-0.1-0.1-0.2-0.2-0.2c0.5-0.1,1-0.2,1.5-0.3c6.4-1.1,11.5-4.2,15.7-9.2
			c0.3-1.6,0.2-3.2,0-4.8c-0.5-1.1-0.5-2.5-1.4-3.4c-2.2-2.3-4.3-4.7-6.6-6.8c-0.3-0.3-0.7-0.7-1-1c-0.3-0.3-0.7-0.7-1-1
			c-0.3-0.3-0.7-0.7-1-1c-0.2-0.2-0.4-0.4-0.6-0.6c-0.3-0.6-0.3-1.3,0.1-2.1c0.4-0.9-0.1-1.9,0.3-2.8c0-0.5,0.1-1,0.1-1.6
			c0.4-0.9-0.1-1.9,0.3-2.8c0-0.5,0.1-1,0.1-1.6c0.4-0.9-0.1-1.9,0.3-2.8c0-0.6,0.1-1.1,0.1-1.6c0.4-0.9-0.1-1.9,0.3-2.8
			c0-0.3,0.1-0.7,0.1-1.1c0.4-1-0.1-2.1,0.3-3.2c0-0.3,0.1-0.7,0.1-1.1c0.4-1-0.2-2.1,0.3-3.2c0-0.4,0.1-0.8,0.1-1.2
			c0.4-1-0.2-2.1,0.3-3.2c0-0.4,0.1-0.8,0.1-1.2c0.4-1-0.2-2.1,0.3-3.2c0-0.4,0.1-0.8,0.1-1.2c0.4-1.1-0.2-2.1,0.3-3.2
			c0-0.4,0.1-0.8,0.1-1.2c0.4-1-0.2-2.1,0.3-3.1c0-0.4,0.1-0.8,0.1-1.2c0.4-1-0.2-2.1,0.3-3.1c0-0.4,0.1-0.8,0.1-1.2
			c0.4-1.1-0.2-2.2,0.3-3.2c0-0.4,0.1-0.8,0.1-1.2c0.4-1.1-0.2-2.2,0.3-3.2c0-0.4,0.1-0.8,0.1-1.2c0.4-1.1-0.2-2.2,0.3-3.2
			c0-0.4,0.1-0.8,0.1-1.2c0.4-1.1-0.2-2.2,0.3-3.2c0-0.4,0.1-0.8,0.1-1.2c0.2-0.9,0.2-1.7,0-2.6c0-0.3-0.1-0.6-0.1-0.8
			c-0.4-0.7,0.1-1.6-0.3-2.3c-0.6-2.2-1.3-4.3-2.5-6.3c-0.8-1.2-1.7-2.3-2.7-3.2c-0.3-0.3-0.7-0.7-1-1c-0.3-0.3-0.7-0.7-1-1
			c-0.3-0.3-0.7-0.7-1-1c-0.3-0.3-0.7-0.7-1-1c-0.3-0.3-0.7-0.7-1-1c-0.3-0.3-0.7-0.7-1-1c-0.3-0.3-0.5-0.5-0.8-0.8c0,0,0-0.1,0-0.1
			c-0.5-0.7,0.2-1.7-0.5-2.4c-0.2-0.1-0.5-0.2-0.7-0.4c0-0.2-0.1-0.4-0.3-0.6c-0.2-0.1-0.5-0.2-0.7-0.4c0-0.2-0.1-0.4-0.3-0.6
			c-0.2-0.1-0.5-0.2-0.7-0.4c0-0.2-0.1-0.4-0.3-0.6c-0.2-0.1-0.5-0.2-0.7-0.4c0-0.2-0.1-0.4-0.3-0.6c-0.2-0.1-0.5-0.2-0.7-0.4
			c0-0.2-0.1-0.4-0.3-0.6c-0.2-0.1-0.5-0.2-0.7-0.4c0-0.2-0.1-0.4-0.3-0.6c-0.2-0.1-0.5-0.2-0.7-0.4c0-0.2-0.1-0.4-0.3-0.6
			c-0.2-0.1-0.5-0.2-0.7-0.3c0-5,0-10,0.1-15c0-1.4-0.3-2.2-1.4-2.9c-0.2-0.4-0.5-0.7-1-1c-0.2-0.4-0.5-0.7-1-1
			c-0.2-0.4-0.5-0.7-1-1c-0.2-0.4-0.5-0.7-1-1c-0.2-0.4-0.5-0.7-1-1c-0.2-0.4-0.5-0.7-1-1c-0.2-0.4-0.5-0.7-1-1
			c-0.2-0.4-0.5-0.7-1-1c-0.2-0.3-0.4-0.5-0.6-0.7c0-0.4,0-0.8-0.3-1.1c-0.2-0.2-0.5-0.3-0.7-0.5c0-0.2-0.1-0.4-0.3-0.5
			c-0.2-0.2-0.5-0.3-0.7-0.5c0-0.2-0.1-0.4-0.3-0.5c-0.2-0.2-0.5-0.3-0.7-0.5c0-0.2-0.1-0.4-0.3-0.5c-0.2-0.2-0.5-0.3-0.7-0.5
			c0-0.2-0.1-0.4-0.3-0.5c-0.2-0.2-0.5-0.3-0.7-0.5c0-0.2-0.1-0.4-0.3-0.5c-0.2-0.2-0.5-0.3-0.7-0.5c0-0.2-0.1-0.4-0.3-0.5
			c-0.2-0.2-0.5-0.3-0.7-0.5c0-0.2-0.1-0.4-0.3-0.5c-0.2-0.2-0.5-0.3-0.7-0.5c0-0.2-0.1-0.4-0.3-0.5c-0.2-0.2-0.5-0.3-0.7-0.5
			c0-0.2-0.1-0.4-0.3-0.5c-0.2-0.2-0.5-0.3-0.7-0.5c0-0.2-0.1-0.4-0.3-0.5c-0.2-0.2-0.5-0.3-0.7-0.5c0-0.2-0.1-0.4-0.3-0.5
			c-0.2-0.2-0.5-0.3-0.7-0.5c0-0.2-0.1-0.4-0.3-0.5c-0.2-0.2-0.5-0.3-0.7-0.5c0-0.2-0.1-0.4-0.3-0.5c-0.2-0.2-0.5-0.3-0.7-0.5
			c0-0.2-0.1-0.4-0.3-0.5c-0.2-0.2-0.5-0.3-0.7-0.5c0-0.2-0.1-0.4-0.3-0.5c-0.2-0.2-0.5-0.3-0.7-0.5c0-0.2-0.1-0.4-0.3-0.5
			c-0.2-0.2-0.5-0.3-0.7-0.5c0-0.2-0.1-0.4-0.3-0.5c-0.2-0.2-0.5-0.3-0.7-0.5c0-0.2-0.1-0.4-0.3-0.5c-0.2-0.2-0.5-0.3-0.7-0.5
			c0-0.2-0.1-0.4-0.3-0.5c-0.2-0.2-0.5-0.3-0.7-0.5c0-0.2-0.1-0.4-0.3-0.5c-0.2-0.2-0.5-0.3-0.7-0.5c0-0.2-0.1-0.4-0.3-0.5
			c-0.2-0.2-0.5-0.3-0.7-0.5c0-0.2-0.1-0.4-0.3-0.5c-0.2-0.2-0.5-0.3-0.7-0.5c0-0.2-0.1-0.4-0.3-0.5c-0.2-0.2-0.5-0.3-0.7-0.5
			c0-0.2-0.1-0.4-0.3-0.5c-0.2-0.2-0.5-0.3-0.7-0.5c0-0.2-0.1-0.4-0.3-0.5c-0.2-0.2-0.5-0.3-0.7-0.5c0-0.2-0.1-0.4-0.3-0.5
			c-0.2-0.2-0.5-0.3-0.7-0.5c0-0.2-0.1-0.4-0.3-0.5c-0.2-0.2-0.5-0.3-0.7-0.5c0-0.2-0.1-0.4-0.3-0.5c-0.2-0.2-0.5-0.3-0.7-0.5
			c0-0.2-0.1-0.4-0.3-0.5c-0.2-0.2-0.5-0.3-0.7-0.5c0-0.2-0.1-0.4-0.3-0.5c-0.2-0.2-0.5-0.3-0.7-0.5c0-0.2-0.1-0.4-0.3-0.5
			c-0.2-0.2-0.5-0.3-0.7-0.5c0-0.2-0.1-0.4-0.3-0.5c-0.2-0.2-0.5-0.3-0.7-0.5c0-0.2-0.1-0.4-0.3-0.5c-0.2-0.2-0.5-0.3-0.7-0.5
			c0-0.2-0.1-0.4-0.3-0.5c-0.2-0.2-0.5-0.3-0.7-0.5c0-0.2-0.1-0.4-0.3-0.5c-0.2-0.2-0.5-0.3-0.7-0.5c0-0.2-0.1-0.4-0.3-0.5
			c-0.2-0.2-0.5-0.3-0.7-0.5c0-0.2-0.1-0.4-0.3-0.5c-0.2-0.2-0.5-0.3-0.7-0.5c0-0.2-0.1-0.4-0.3-0.5c-0.2-0.2-0.5-0.3-0.7-0.5
			c0-0.2-0.1-0.4-0.3-0.5c-0.2-0.2-0.5-0.3-0.7-0.5c0-0.2-0.1-0.4-0.3-0.5c-0.2-0.2-0.5-0.3-0.7-0.5c0-0.2-0.1-0.4-0.3-0.5
			c-0.2-0.2-0.5-0.3-0.7-0.5c0-0.2-0.1-0.4-0.3-0.5c-0.2-0.2-0.5-0.3-0.7-0.5c0-0.2-0.1-0.4-0.3-0.5c-0.2-0.2-0.5-0.3-0.7-0.5
			c0-0.2-0.1-0.4-0.3-0.5c-0.2-0.2-0.5-0.3-0.7-0.5c0-0.2-0.1-0.4-0.3-0.5c-0.2-0.2-0.5-0.3-0.7-0.5c0-0.2-0.1-0.4-0.3-0.5
			c-0.2-0.2-0.5-0.3-0.7-0.5c0-0.2-0.1-0.4-0.3-0.5c-0.2-0.2-0.5-0.3-0.7-0.5c0-0.2-0.1-0.4-0.3-0.5c-0.2-0.2-0.5-0.3-0.7-0.5
			c0-0.2-0.1-0.4-0.3-0.5c-0.2-0.2-0.5-0.3-0.7-0.5c0-0.2-0.1-0.4-0.3-0.5c-0.2-0.2-0.5-0.3-0.7-0.5c0-0.2-0.1-0.4-0.3-0.5
			c-0.2-0.2-0.5-0.3-0.7-0.5c0-0.2-0.1-0.4-0.3-0.5c-0.2-0.2-0.5-0.3-0.7-0.5c0-0.2-0.1-0.4-0.3-0.5c-0.2-0.2-0.5-0.3-0.7-0.5
			c0-0.2-0.1-0.4-0.3-0.5c-0.2-0.2-0.5-0.3-0.7-0.5c0-0.2-0.1-0.4-0.3-0.5c-0.2-0.2-0.5-0.3-0.7-0.5c0-0.2-0.1-0.4-0.3-0.5
			c-0.2-0.2-0.5-0.3-0.7-0.5c0-0.2-0.1-0.4-0.3-0.5c-0.2-0.2-0.5-0.3-0.7-0.5c0-0.2-0.1-0.4-0.3-0.5c-0.2-0.2-0.5-0.3-0.7-0.5
			c0-0.2-0.1-0.4-0.3-0.5c-0.2-0.2-0.5-0.3-0.7-0.5c0-0.2-0.1-0.4-0.3-0.5c-0.2-0.2-0.5-0.3-0.7-0.5c0-0.2-0.1-0.4-0.3-0.5
			c-0.2-0.2-0.5-0.3-0.7-0.5c0-0.2-0.1-0.4-0.3-0.5c-0.2-0.2-0.5-0.3-0.7-0.5c0-0.2-0.1-0.4-0.3-0.5c-0.2-0.2-0.5-0.3-0.7-0.5
			c0-0.2-0.1-0.4-0.3-0.5c-0.2-0.2-0.5-0.3-0.7-0.5c0-0.2-0.1-0.4-0.3-0.5c-0.2-0.2-0.5-0.3-0.7-0.5c0-0.2-0.1-0.4-0.3-0.5
			c-0.2-0.2-0.5-0.3-0.7-0.5c0-0.2-0.1-0.4-0.3-0.5c-0.2-0.2-0.5-0.3-0.7-0.5c0-0.2-0.1-0.4-0.3-0.5c-0.2-0.2-0.5-0.3-0.7-0.5
			c0-0.2-0.1-0.4-0.3-0.5c-0.2-0.2-0.5-0.3-0.7-0.5c0-0.2-0.1-0.4-0.3-0.5c-0.2-0.2-0.5-0.3-0.7-0.5c0-0.2-0.1-0.4-0.3-0.5
			c-0.2-0.2-0.5-0.3-0.7-0.5c0-0.2-0.1-0.4-0.3-0.5c-0.2-0.2-0.5-0.3-0.7-0.5c0-0.2-0.1-0.4-0.3-0.5c-0.2-0.2-0.5-0.3-0.7-0.5
			c0-0.2-0.1-0.4-0.3-0.5c-0.2-0.2-0.5-0.3-0.7-0.5c0-0.2-0.1-0.4-0.3-0.5c-0.2-0.2-0.5-0.3-0.7-0.5c0-0.2-0.1-0.4-0.3-0.5
			c-0.2-0.2-0.5-0.3-0.7-0.5c0-0.2-0.1-0.4-0.3-0.5c-0.2-0.2-0.5-0.3-0.7-0.5c0-0.2-0.1-0.4-0.3-0.5c-0.2-0.2-0.5-0.3-0.7-0.5
			c0-0.2-0.1-0.4-0.3-0.5c-0.2-0.2-0.5-0.3-0.7-0.5c0-0.2-0.1-0.4-0.3-0.5c-0.2-0.2-0.5-0.3-0.7-0.5c0-0.2-0.1-0.4-0.3-0.5
			c-0.2-0.2-0.5-0.3-0.7-0.5c0-0.2-0.1-0.4-0.3-0.5c-0.2-0.2-0.5-0.3-0.7-0.5c0-0.2-0.1-0.4-0.3-0.5c-0.2-0.2-0.5-0.3-0.7-0.5
			c0-0.2-0.1-0.4-0.3-0.5c-0.2-0.2-0.5-0.3-0.7-0.5c0-0.2-0.1-0.4-0.3-0.5c-0.2-0.2-0.5-0.3-0.7-0.5c0-0.2-0.1-0.4-0.3-0.5
			c-0.2-0.2-0.5-0.3-0.7-0.5c0-0.2-0.1-0.4-0.3-0.5c-0.2-0.2-0.5-0.3-0.7-0.5c0-0.2-0.1-0.4-0.3-0.5c-0.2-0.2-0.5-0.3-0.7-0.5
			c0-0.2-0.1-0.4-0.3-0.5c-0.2-0.2-0.5-0.3-0.7-0.5c0-0.2-0.1-0.4-0.3-0.5c-0.2-0.2-0.5-0.3-0.7-0.5c0-0.2-0.1-0.4-0.3-0.5
			c-0.2-0.2-0.5-0.3-0.7-0.5c0-0.2-0.1-0.4-0.3-0.5c-0.2-0.2-0.5-0.3-0.7-0.5c0-0.2-0.1-0.4-0.3-0.5c-0.2-0.2-0.5-0.3-0.7-0.5
			c0-0.2-0.1-0.4-0.3-0.5c-0.2-0.2-0.5-0.3-0.7-0.5c0-0.2-0.1-0.4-0.3-0.5c-0.2-0.2-0.5-0.3-0.7-0.5c0-0.2-0.1-0.4-0.3-0.5
			c-0.2-0.2-0.5-0.3-0.7-0.5c0-0.2-0.1-0.4-0.3-0.5c-0.2-0.2-0.5-0.3-0.7-0.5c0-0.2-0.1-0.4-0.3-0.5c-0.2-0.2-0.5-0.3-0.7-0.5
			c0-0.2-0.1-0.4-0.3-0.5c-0.2-0.2-0.5-0.3-0.7-0.5c0-0.2-0.1-0.4-0.3-0.5c-0.2-0.2-0.5-0.3-0.7-0.5c0-0.2-0.1-0.4-0.3-0.5
			c-0.2-0.2-0.5-0.3-0.7-0.5c0-0.2-0.1-0.4-0.3-0.5c-0.2-0.2-0.5-0.3-0.7-0.5c0-0.2-0.1-0.4-0.3-0.5c-0.2-0.2-0.5-0.3-0.7-0.5
			c0-0.2-0.1-0.4-0.3-0.5c-0.2-0.2-0.5-0.3-0.7-0.5c0-0.2-0.1-0.4-0.3-0.5c-0.2-0.2-0.5-0.3-0.7-0.5c0-0.2-0.1-0.4-0.3-0.5
			c-0.2-0.2-0.5-0.3-0.7-0.5c0-0.2-0.1-0.4-0.3-0.5c-0.2-0.2-0.5-0.3-0.7-0.5c0-0.2-0.1-0.4-0.3-0.5c-0.2-0.2-0.5-0.3-0.7-0.5
			c0-0.2-0.1-0.4-0.3-0.5c-0.2-0.2-0.5-0.3-0.7-0.5c0-0.2-0.1-0.4-0.3-0.5c-0.2-0.2-0.5-0.3-0.7-0.5c0-0.2-0.1-0.4-0.3-0.5
			c-0.2-0.2-0.5-0.3-0.7-0.5c0-0.2-0.1-0.4-0.3-0.5c-0.2-0.2-0.5-0.3-0.7-0.5c0-0.2-0.1-0.4-0.3-0.5c-0.2-0.2-0.5-0.3-0.7-0.5
			c0-0.2-0.1-0.4-0.3-0.5c-0.2-0.2-0.5-0.3-0.7-0.5c0-0.2-0.1-0.4-0.3-0.5c-0.2-0.2-0.5-0.3-0.7-0.5c0-0.2-0.1-0.4-0.3-0.5
			c-0.2-0.2-0.5-0.3-0.7-0.5c0-0.2-0.1-0.4-0.3-0.5c-0.2-0.2-0.5-0.3-0.7-0.5c0-0.2-0.1-0.4-0.3-0.5c-0.2-0.2-0.5-0.3-0.7-0.5
			c0-0.2-0.1-0.4-0.3-0.5c-0.2-0.2-0.5-0.3-0.7-0.5c0-0.2-0.1-0.4-0.3-0.5c-0.2-0.2-0.5-0.3-0.7-0.5c0-0.2-0.1-0.4-0.3-0.5
			c-0.2-0.2-0.5-0.3-0.7-0.5c0-0.2-0.1-0.4-0.3-0.5c-0.2-0.2-0.5-0.3-0.7-0.5c0-0.2-0.1-0.4-0.3-0.5c-0.2-0.2-0.5-0.3-0.7-0.5
			c0-0.2-0.1-0.4-0.3-0.5c-0.2-0.2-0.5-0.3-0.7-0.5c0-0.2-0.1-0.4-0.3-0.5c-0.2-0.2-0.5-0.3-0.7-0.5c0-0.2-0.1-0.4-0.3-0.5
			c-0.2-0.2-0.5-0.3-0.7-0.5c0-0.2-0.1-0.4-0.3-0.5c-0.2-0.2-0.5-0.3-0.7-0.5c0-0.2-0.1-0.4-0.3-0.5c-0.2-0.2-0.5-0.3-0.7-0.5
			c0-0.2-0.1-0.4-0.3-0.5c-0.2-0.2-0.5-0.3-0.7-0.5c0-0.2-0.1-0.4-0.3-0.5c-0.2-0.2-0.5-0.3-0.7-0.5c0-0.2-0.1-0.4-0.3-0.5
			c-0.2-0.2-0.5-0.3-0.7-0.5c0-0.2-0.1-0.4-0.3-0.5c-0.2-0.2-0.5-0.3-0.7-0.5c0-0.2-0.1-0.4-0.3-0.5c-0.2-0.2-0.5-0.3-0.7-0.5
			c0-0.2-0.1-0.4-0.3-0.5c-0.2-0.2-0.5-0.3-0.7-0.5c0-0.2-0.1-0.4-0.3-0.5c-0.2-0.2-0.5-0.3-0.7-0.5c0-0.2-0.1-0.4-0.3-0.5
			c-0.2-0.2-0.5-0.3-0.7-0.5c0-0.2-0.1-0.4-0.3-0.5c-0.2-0.2-0.5-0.3-0.7-0.5c0-0.2-0.1-0.4-0.3-0.5c-0.2-0.2-0.5-0.3-0.7-0.5
			c0-0.2-0.1-0.4-0.3-0.5c-0.2-0.2-0.5-0.3-0.7-0.5c0-0.2-0.1-0.4-0.3-0.5c-0.2-0.2-0.5-0.3-0.7-0.5c0-0.2-0.1-0.4-0.3-0.5
			c-0.2-0.2-0.5-0.3-0.7-0.5c0-0.2-0.1-0.4-0.3-0.5c-0.2-0.2-0.5-0.3-0.7-0.5c0-0.2-0.1-0.4-0.3-0.5c-0.2-0.2-0.5-0.3-0.7-0.5
			c0-0.2-0.1-0.4-0.3-0.5c-0.2-0.2-0.5-0.3-0.7-0.5c0-0.2-0.1-0.4-0.3-0.5c-0.2-0.2-0.5-0.3-0.7-0.5c0-0.2-0.1-0.4-0.3-0.5
			c-0.2-0.2-0.5-0.3-0.7-0.5c0-0.2-0.1-0.4-0.3-0.5c-0.2-0.2-0.5-0.3-0.7-0.5c0-0.2-0.1-0.4-0.3-0.5c-0.2-0.2-0.5-0.3-0.7-0.5
			c0-0.2-0.1-0.4-0.3-0.5c-0.2-0.2-0.5-0.3-0.7-0.5c0-0.2-0.1-0.4-0.3-0.5c-0.2-0.2-0.5-0.3-0.7-0.5c0-0.2-0.1-0.4-0.3-0.5
			c-0.2-0.2-0.5-0.3-0.7-0.5c0-0.2-0.1-0.4-0.3-0.5c-0.2-0.2-0.5-0.3-0.7-0.5c0-0.2-0.1-0.4-0.3-0.5c-0.2-0.2-0.5-0.3-0.7-0.5
			c0-0.2-0.1-0.4-0.3-0.5c-0.2-0.2-0.5-0.3-0.7-0.5c0-0.2-0.1-0.4-0.3-0.5c-0.2-0.2-0.5-0.3-0.7-0.5c0-0.2-0.1-0.4-0.3-0.5
			c-0.2-0.2-0.5-0.3-0.7-0.5c0-0.2-0.1-0.4-0.3-0.5c-0.2-0.2-0.5-0.3-0.7-0.5c0-0.2-0.1-0.4-0.3-0.5c-0.2-0.2-0.5-0.3-0.7-0.5
			c0-0.2-0.1-0.4-0.3-0.5c-0.2-0.2-0.5-0.3-0.7-0.5c0-0.2-0.1-0.4-0.3-0.5c-0.2-0.2-0.5-0.3-0.7-0.5c0-0.2-0.1-0.4-0.3-0.5
			c-0.2-0.2-0.5-0.3-0.7-0.5c0-0.2-0.1-0.4-0.3-0.5c-0.2-0.2-0.5-0.3-0.7-0.5c0-0.2-0.1-0.4-0.3-0.5c-0.2-0.2-0.5-0.3-0.7-0.5
			c0-0.2-0.1-0.4-0.3-0.5c-0.2-0.2-0.5-0.3-0.7-0.5c0-0.2-0.1-0.4-0.3-0.5c-0.2-0.2-0.5-0.3-0.7-0.5c0-0.2-0.1-0.4-0.3-0.5
			c-0.2-0.2-0.5-0.3-0.7-0.5c0-0.2-0.1-0.4-0.3-0.5c-0.2-0.2-0.5-0.3-0.7-0.5c0-0.2-0.1-0.4-0.3-0.5c-0.2-0.2-0.5-0.3-0.7-0.5
			c0-0.2-0.1-0.4-0.3-0.5c-0.2-0.2-0.5-0.3-0.7-0.5c0-0.2-0.1-0.4-0.3-0.5c-0.2-0.2-0.5-0.3-0.7-0.5c0-0.2-0.1-0.4-0.3-0.5
			c-0.2-0.2-0.5-0.3-0.7-0.5c0-0.2-0.1-0.4-0.3-0.5c-0.2-0.2-0.5-0.3-0.7-0.5c0-0.2-0.1-0.4-0.3-0.5c-0.2-0.2-0.5-0.3-0.7-0.5
			c0-0.2-0.1-0.4-0.3-0.5c-0.2-0.2-0.5-0.3-0.7-0.5c0-0.2-0.1-0.4-0.3-0.5c-0.2-0.2-0.5-0.3-0.7-0.5c0-0.2-0.1-0.4-0.3-0.5
			c-0.2-0.2-0.5-0.3-0.7-0.5c0-0.2-0.1-0.4-0.3-0.5c-0.2-0.2-0.5-0.3-0.7-0.5c0-0.2-0.1-0.4-0.3-0.5c-0.2-0.2-0.5-0.3-0.7-0.5
			c0-0.2-0.1-0.4-0.3-0.5c-0.2-0.2-0.5-0.3-0.7-0.5c0-0.2-0.1-0.4-0.3-0.5c-0.2-0.2-0.5-0.3-0.7-0.5c0-0.2-0.1-0.4-0.3-0.5
			c-0.2-0.2-0.5-0.3-0.7-0.5c0-0.2-0.1-0.4-0.3-0.5c-0.2-0.2-0.5-0.3-0.7-0.5c0-0.2-0.1-0.4-0.3-0.5c-0.2-0.2-0.5-0.3-0.7-0.5
			c0-0.2-0.1-0.4-0.3-0.5c-0.2-0.2-0.5-0.3-0.7-0.5c0-0.2-0.1-0.4-0.3-0.5c-0.2-0.2-0.5-0.3-0.7-0.5c0-0.2-0.1-0.4-0.3-0.5
			c-0.2-0.2-0.5-0.3-0.7-0.5c0-0.2-0.1-0.4-0.3-0.5c-0.2-0.2-0.5-0.3-0.7-0.5c0-0.2-0.1-0.4-0.3-0.5c-0.2-0.2-0.5-0.3-0.7-0.5
			c0-0.2-0.1-0.4-0.3-0.5c-0.2-0.2-0.5-0.3-0.7-0.5c0-0.2-0.1-0.4-0.3-0.5c-0.2-0.2-0.5-0.3-0.7-0.5c0-0.2-0.1-0.4-0.3-0.5
			c-0.2-0.2-0.5-0.3-0.7-0.5c0-0.2-0.1-0.4-0.3-0.5c-0.2-0.2-0.5-0.3-0.7-0.5c0-0.2-0.1-0.4-0.3-0.5c-0.2-0.2-0.5-0.3-0.7-0.5
			c0-0.2-0.1-0.4-0.3-0.5c-0.2-0.2-0.5-0.3-0.7-0.5c0-0.2-0.1-0.4-0.3-0.5c-0.2-0.2-0.5-0.3-0.7-0.5c0-0.2-0.1-0.4-0.3-0.5
			c-0.2-0.2-0.5-0.3-0.7-0.5c0-0.2-0.1-0.4-0.3-0.5c-0.2-0.2-0.5-0.3-0.7-0.5c0-0.2-0.1-0.4-0.3-0.5c-0.2-0.2-0.5-0.3-0.7-0.5
			c0-0.2-0.1-0.4-0.3-0.5c-0.2-0.2-0.5-0.3-0.7-0.5c0-0.2-0.1-0.4-0.3-0.5c-0.2-0.2-0.5-0.3-0.7-0.5c0-0.2-0.1-0.4-0.3-0.5
			c-0.2-0.2-0.5-0.3-0.7-0.5c0-0.2-0.1-0.4-0.3-0.5c-0.2-0.2-0.5-0.3-0.7-0.5c0-0.2-0.1-0.4-0.3-0.5c-0.2-0.2-0.5-0.3-0.7-0.5
			c0-0.2-0.1-0.4-0.3-0.5c-0.2-0.2-0.5-0.3-0.7-0.5c0-0.2-0.1-0.4-0.3-0.5c-0.2-0.2-0.5-0.3-0.7-0.5c0-0.2-0.1-0.4-0.3-0.5
			c-0.2-0.2-0.5-0.3-0.7-0.5c0-0.2-0.1-0.4-0.3-0.5c-0.2-0.2-0.5-0.3-0.7-0.5c0-0.2-0.1-0.4-0.3-0.5c-0.2-0.2-0.5-0.3-0.7-0.5
			c0-0.2-0.1-0.4-0.3-0.5c-0.2-0.2-0.5-0.3-0.7-0.5c0-0.2-0.1-0.4-0.3-0.5c-0.2-0.2-0.5-0.3-0.7-0.5c0-0.2-0.1-0.4-0.3-0.5
			c-0.2-0.2-0.5-0.3-0.7-0.5c0-0.2-0.1-0.4-0.3-0.5c-0.2-0.2-0.5-0.3-0.7-0.5c0-0.2-0.1-0.4-0.3-0.5c-0.2-0.2-0.5-0.3-0.7-0.5
			c0-0.2-0.1-0.4-0.3-0.5c-0.2-0.2-0.5-0.3-0.7-0.5c0-0.2-0.1-0.4-0.3-0.5c-0.2-0.2-0.5-0.3-0.7-0.5c0-0.2-0.1-0.4-0.3-0.5
			c-0.2-0.2-0.5-0.3-0.7-0.5c0-0.2-0.1-0.4-0.3-0.5c-0.2-0.2-0.5-0.3-0.7-0.5c0-0.2-0.1-0.4-0.3-0.5c-0.2-0.2-0.5-0.3-0.7-0.5
			c0-0.2-0.1-0.4-0.3-0.5c-0.2-0.2-0.5-0.3-0.7-0.5c0-0.2-0.1-0.4-0.3-0.5c-0.2-0.2-0.5-0.3-0.7-0.5c0-0.2-0.1-0.4-0.3-0.5
			c-0.2-0.2-0.5-0.3-0.7-0.5c0-0.2-0.1-0.4-0.3-0.5c-0.2-0.2-0.5-0.3-0.7-0.5c0-0.2-0.1-0.4-0.3-0.5c-0.2-0.2-0.5-0.3-0.7-0.5
			c0-0.2-0.1-0.4-0.3-0.5c-0.2-0.2-0.5-0.3-0.7-0.5c0-0.2-0.1-0.4-0.3-0.5c-0.2-0.2-0.5-0.3-0.7-0.5c0-0.2-0.1-0.4-0.3-0.5
			c-0.2-0.2-0.5-0.3-0.7-0.5c0-0.2-0.1-0.4-0.3-0.5c-0.2-0.2-0.5-0.3-0.7-0.5c0-0.2-0.1-0.4-0.3-0.5c-0.2-0.2-0.5-0.3-0.7-0.5
			c0-0.2-0.1-0.4-0.3-0.5c-0.2-0.2-0.5-0.3-0.7-0.5c0-0.2-0.1-0.4-0.3-0.5c-0.2-0.2-0.5-0.3-0.7-0.5c0-0.2-0.1-0.4-0.3-0.5
			c-0.2-0.2-0.5-0.3-0.7-0.5c0-0.2-0.1-0.4-0.3-0.5c-0.2-0.2-0.5-0.3-0.7-0.5c0-0.2-0.1-0.4-0.3-0.5c-0.2-0.2-0.5-0.3-0.7-0.5
			c0-0.2-0.1-0.4-0.3-0.5c-0.2-0.2-0.5-0.3-0.7-0.5c0-0.2-0.1-0.4-0.3-0.5c-0.2-0.2-0.5-0.3-0.7-0.5c0-0.2-0.1-0.4-0.3-0.5
			c-0.2-0.2-0.5-0.3-0.7-0.5c0-0.2-0.1-0.4-0.3-0.5c-0.2-0.2-0.5-0.3-0.7-0.5c0-0.2-0.1-0.4-0.3-0.5c-0.2-0.2-0.5-0.3-0.7-0.5
			c0-0.2-0.1-0.4-0.3-0.5c-0.2-0.2-0.5-0.3-0.7-0.5c0-0.2-0.1-0.4-0.3-0.5c-0.2-0.2-0.5-0.3-0.7-0.5c0-0.2-0.1-0.4-0.3-0.5
			c-0.2-0.2-0.5-0.3-0.7-0.5c0-0.2-0.1-0.4-0.3-0.5c-0.2-0.2-0.5-0.3-0.7-0.5c0-0.2-0.1-0.4-0.3-0.5c-0.2-0.2-0.5-0.3-0.7-0.5
			c0-0.2-0.1-0.4-0.3-0.5c-0.2-0.2-0.5-0.3-0.7-0.5c0-0.2-0.1-0.4-0.3-0.5c-0.2-0.2-0.5-0.3-0.7-0.5c0-0.2-0.1-0.4-0.3-0.5
			c-0.2-0.2-0.5-0.3-0.7-0.5c0-0.2-0.1-0.4-0.3-0.5c-0.2-0.2-0.5-0.3-0.7-0.5c0-0.2-0.1-0.4-0.3-0.5c-0.2-0.2-0.5-0.3-0.7-0.5
			c0-0.2-0.1-0.4-0.3-0.5c-0.2-0.2-0.5-0.3-0.7-0.5c0-0.2-0.1-0.4-0.3-0.5c-8.7-5.7-17.3-11.4-26.1-17.1c-1,0.3-1.9,0.3-2.8,0
			c-4.5-2.1-8.6-5.1-12.9-7.4c-1.8-1-3.4-2.5-5.6-2.2c-0.9,0.4-1.9-0.1-2.7,0.3c-0.4,0-0.8,0.1-1.1,0.1c-0.7,0.3-1.6,0-2.3,0.3
			c-0.4,0-0.7,0.1-1.1,0.1c-0.9,0.4-1.9-0.1-2.7,0.3c-0.4,0-0.7,0.1-1.1,0.1c-0.7,0.4-1.6,0-2.3,0.3c-0.3,0-0.7,0.1-1.1,0.1
			c-0.8,0.4-1.8-0.1-2.6,0.3c-0.4,0-0.7,0.1-1.1,0.1c-0.7,0.4-1.5,0-2.2,0.3c-0.5,0-1.1,0.1-1.6,0.1c-0.7,0.4-1.6,0-2.3,0.3
			c-0.3,0-0.7,0.1-1.1,0.1c-0.8,0.4-1.8-0.1-2.6,0.3c-0.4,0-0.7,0.1-1.1,0.1c-0.7,0.4-1.5,0-2.2,0.3c-0.5,0-1.1,0.1-1.6,0.1
			c-0.7,0.3-1.6,0-2.3,0.3c-0.3,0-0.7,0.1-1.1,0.1c-0.8,0.4-1.8-0.1-2.6,0.3c-0.4,0-0.7,0.1-1.1,0.1c-0.9,0.4-1.9-0.1-2.7,0.3
			c-0.4,0-0.8,0.1-1.1,0.1c-0.7,0.3-1.6,0-2.3,0.3c-0.3,0-0.7,0.1-1.1,0.1c-0.8,0.4-1.8-0.1-2.6,0.3c-0.4,0-0.7,0.1-1.1,0.1
			c-0.9,0.4-1.9-0.1-2.7,0.3c-0.4,0-0.8,0.1-1.1,0.1c-0.7,0.3-1.6,0-2.3,0.3c-0.3,0-0.7,0.1-1.1,0.1c-0.8,0.4-1.8-0.1-2.6,0.3
			c-0.4,0-0.7,0.1-1.1,0.1c-0.9,0.4-1.9-0.2-2.7,0.3c-0.4,0-0.8,0.1-1.1,0.1c-0.8,0.5-1.8-0.1-2.7,0.4c-0.2,0.1-0.5,0.1-0.7,0.1
			c-0.8,0.4-1.8-0.1-2.6,0.3c-0.4,0-0.7,0.1-1.1,0.1c-0.9,0.5-1.9-0.1-2.7,0.4c-0.3,0-0.7,0.1-1.1,0.1c-0.7,0.4-1.6,0-2.3,0.4
			c-0.7,0.5-1,1.2-1.1,2.1c-0.2,1.1-1.2,1.3-2.1,1.5c-0.2-0.3-0.5-0.5-0.7-0.6c-0.3-0.5-0.6-0.8-1-1c-0.7-1.3-1.9-1.4-3.3-1.2
			c-1.1,0.5-2.4-0.1-3.5,0.3c-0.7,0-1.3,0.1-2,0.1c-1,0.4-2.1-0.1-3.1,0.3c-0.8,0.2-1.6,0.3-2.5,0.9c-3.2,2-6.6,3.8-9.7,6.1
			c-1.6,1.1-4,1.6-4.4,4.1c-1.1,0.6-2.2-0.1-3.3,0.4c-0.5,0-1.1,0.1-1.6,0.1c-1,0.4-2.1-0.1-3.1,0.3c-0.6,0-1.1,0.1-1.6,0.1
			c-1.1,0.5-2.4-0.2-3.5,0.3c-0.5,0-1.1,0.1-1.6,0.1c-1.1,0.4-2.4-0.2-3.5,0.3c-0.5,0-1.1,0.1-1.6,0.1c-0.9,0.3-1.8,0.6-2.7,0.8
			c-0.4,0-0.7,0.1-1.1,0.1c-0.9,0.4-1.9-0.1-2.7,0.3c-0.4,0-0.8,0.1-1.2,0.1c-0.7,0.3-1.5,0.3-2.2,0c-0.3-0.1-0.7-0.1-1-0.2
			c-10-4.1-20-8.3-29.9-12.4c-6.6-2.8-13.3-5.6-20-8.4c-0.7-0.1-1.5-0.2-2.1,0.1c-0.7,0-1.3,0.1-2,0.1c-1.2,0.4-2.6-0.2-3.9,0.3
			c-0.5,0-1.1,0.1-1.6,0.1c-1.3,0.5-2.6-0.2-3.9,0.3c-0.7,0-1.3,0.1-2,0.1c-1.1,0.4-2.4-0.1-3.5,0.3c-0.7,0-1.3,0.1-2,0.1
			c-1.2,0.4-2.6-0.2-3.9,0.3c-0.5,0-1.1,0.1-1.6,0.1c-1.2,0.5-2.6-0.2-3.9,0.3c-0.6,0-1.1,0.1-1.6,0.1c-1.3,0.5-2.6-0.2-3.9,0.3
			c-0.7,0-1.3,0.1-2,0.1c-1.3,0.4-2.7-0.2-4,0.3c-0.5,0-1.1,0.1-1.6,0.1c-1.2,0.4-2.6-0.2-3.9,0.3c-0.5,0-1.1,0.1-1.6,0.1
			c-1.3,0.5-2.6-0.2-3.9,0.3c-0.7,0-1.3,0.1-2,0.1c-1.3,0.4-2.7-0.2-4,0.3c-0.5,0-1.1,0.1-1.6,0.1c-1.2,0.4-2.6-0.2-3.9,0.3
			c-0.5,0-1.1,0.1-1.6,0.1c-1.2,0.5-2.6-0.2-3.9,0.3c-0.5,0-1.1,0.1-1.6,0.1c-1.3,0.5-2.6-0.2-3.9,0.3c-0.7,0-1.3,0.1-2,0.1
			c-1.1,0.4-2.4-0.1-3.5,0.3c-0.7,0-1.3,0.1-2,0.1c-1.1,0.4-2.4-0.1-3.5,0.3c-0.7,0-1.3,0.1-2,0.1c-1.1,0.4-2.4-0.1-3.5,0.3
			c-0.7,0-1.4,0.1-2,0.1c-1.1,0.5-2.4-0.1-3.5,0.3c-0.8,0-1.6,0.1-2.4,0.1c-1.2,0.4-2.5-0.1-3.6,0.3c-0.7,0-1.3,0.1-2,0.1
			c-1.1,0.4-2.4-0.1-3.5,0.3c-0.7,0-1.3,0.1-2,0.1c-1.2,0.5-2.6-0.2-3.9,0.3c-0.5,0-1.1,0.1-1.6,0.1c-1.3,0.5-2.6-0.2-3.9,0.3
			c-0.7,0-1.3,0.1-2,0.1c-1.1,0.4-2.4-0.1-3.5,0.3c-0.7,0-1.3,0.1-2,0.1c-1.2,0.4-2.6-0.2-3.9,0.3c-0.4,0.2-0.7,0.3-0.8,0.8
			c0.3,0.8,0.7,1.2,1.1,1.3c0.3,0.6,0.6,0.9,1,1c0.3,0.6,0.6,0.9,1,1c0.3,0.6,0.6,0.9,1,1c0.3,0.6,0.6,0.9,1,1c0.3,0.6,0.6,0.9,1,1
			c0.2,0.5,0.4,0.7,0.7,0.9c0.4,1.1-0.2,2.4,0.3,3.5c0,0.4,0.1,0.8,0.1,1.2c0.5,1.1-0.2,2.5,0.3,3.6c0,0.5,0.1,1.1,0.1,1.6
			c0.4,1.1-0.1,2.2,0.3,3.3c0,0.5,0.1,1.1,0.1,1.6c0.4,1.1-0.1,2.2,0.3,3.3c0,0.5,0.1,1,0.1,1.6c0.4,1.1-0.1,2.2,0.3,3.3
			c0,0.5,0.1,1,0.1,1.6c0.4,1.1-0.1,2.2,0.3,3.3c0,0.5,0.1,1,0.1,1.6c0.4,1.1-0.1,2.2,0.3,3.3c0.2,0.7,0.2,1.4,0.1,2
			c0.4,0.9-0.1,1.9,0.3,2.8c0,0.6,0.1,1.1,0.1,1.6c0.4,1-0.1,2.1,0.3,3.2c0,0.5,0.1,1,0.1,1.6c0.4,0.9,0,1.9,0.3,2.8
			c0,0.7,0.1,1.4,0.1,2c0.4,1-0.1,2.1,0.3,3.2c1.3,14.5,2.5,28.9,3.9,43.3c0.4,4.7,0,9.7,2,14.2c0.3,0.7-0.1,1.3-0.3,1.9
			c-1.3,3.6-2.1,7.2-2.1,11c-0.1,13.5,4.1,24.5,12.8,32.7c0.3,0.3,0.7,0.7,1,1c0.3,0.3,0.7,0.7,1,1c0.3,0.3,0.7,0.7,1,1
			c0.3,0.3,0.7,0.7,1,1c0.3,0.3,0.7,0.7,1,1c0.3,0.3,0.7,0.7,1,1c0.3,0.3,0.7,0.7,1,1c0.3,0.3,0.7,0.7,1,1c0.3,0.3,0.7,0.7,1,1
			c0.3,0.3,0.7,0.7,1,1c0.3,0.3,0.7,0.7,1,1c0.2,0.2,0.5,0.5,0.7,0.7c0.6,6.5,1.2,13,1.9,19.5c0.7,7,0.7,14.2,3.7,20.8
			c0.7,1.5,1.3,3,2.6,4c0.3,0.4,0.6,0.7,1,1c0,0,0,0,0,0c0.2,0.5-0.1,1-0.5,1.7c-1.6,2.3-2.6,4.8-3.6,7.4
			c-3.5,9.7-2.8,19.4-0.2,29.1c1.9,7.2,5.2,13.3,10.2,18.1c0.3,0.3,0.7,0.7,1,1c0.3,0.3,0.7,0.7,1,1c0.3,0.3,0.7,0.7,1,1
			c0.3,0.3,0.7,0.7,1,1c0.3,0.3,0.7,0.7,1,1c0.2,0.2,0.4,0.4,0.6,0.6c-0.2,0.4-0.7,0.9-1.4,1.6c-3,2.9-6.1,5.8-8.6,9.2
			c-3.3,4.3-5.3,9.2-7,14.4c-0.8,2.6-1.5,5.3-1.6,8.1c-0.1,5.7,1.3,11.1,2.8,16.6c1.2,4.6,4.3,7.7,6.5,11.4c0.5,0.8,1.1,1.4,1.8,2
			c0.3,0.4,0.6,0.7,1,1c0.3,0.4,0.6,0.7,1,1c0.3,0.4,0.6,0.7,1,1c0.3,0.4,0.6,0.7,1,1c0.3,0.4,0.6,0.7,1,1c0.3,0.4,0.6,0.7,1,1
			c0.3,0.4,0.6,0.7,1,1c0.3,0.4,0.6,0.7,1,1c0.3,0.4,0.6,0.7,1,1c0.3,0.4,0.6,0.7,1,1c0.3,0.4,0.6,0.7,1,1c0.3,0.4,0.6,0.7,1,1
			c0.3,0.4,0.6,0.7,1,1c0.3,0.4,0.6,0.7,1,1c0.3,0.4,0.6,0.7,1,1c0.3,0.4,0.6,0.7,1,1c0.3,0.4,0.6,0.7,1,1c0.3,0.4,0.6,0.7,1,1
			c0.3,0.4,0.6,0.7,1,1c0.3,0.4,0.6,0.7,1,1c0.3,0.4,0.6,0.7,1,1c0.3,0.4,0.6,0.7,1,1c0.3,0.4,0.6,0.7,1,1c0.3,0.4,0.6,0.7,1,1
			c0.3,0.4,0.6,0.7,1,1c0.3,0.4,0.6,0.7,1,1c0.3,0.4,0.6,0.7,1,1c0.3,0.4,0.6,0.7,1,1c0.3,0.4,0.6,0.7,1,1c0.3,0.4,0.6,0.7,1,1
			c0.3,0.4,0.6,0.7,1,1c0.3,0.4,0.6,0.7,1,1c0.3,0.4,0.6,0.7,1,1c0.3,0.4,0.6,0.7,1,1c0.3,0.4,0.6,0.7,1,1c0.3,0.4,0.6,0.7,1,1
			c0.3,0.4,0.6,0.7,1,1c0.3,0.4,0.6,0.7,1,1c0.3,0.4,0.6,0.7,1,1c0.3,0.4,0.6,0.7,1,1c0.3,0.4,0.6,0.7,1,1c0.3,0.4,0.6,0.7,1,1
			c0.3,0.4,0.6,0.7,1,1c0.3,0.4,0.6,0.7,1,1c0.3,0.4,0.6,0.7,1,1c0.3,0.4,0.6,0.7,1,1c0.3,0.4,0.6,0.7,1,1c0.3,0.4,0.6,0.7,1,1
			c0.3,0.4,0.6,0.7,1,1c0.3,0.4,0.6,0.7,1,1c0.3,0.4,0.6,0.7,1,1c0.3,0.4,0.6,0.7,1,1c0.3,0.4,0.6,0.7,1,1c0.3,0.4,0.6,0.7,1,1
			c0.3,0.4,0.6,0.7,1,1c0.3,0.4,0.6,0.7,1,1c0.3,0.4,0.6,0.7,1,1c0.3,0.4,0.6,0.7,1,1c0.3,0.4,0.6,0.7,1,1c0.3,0.4,0.6,0.7,1,1
			c0.3,0.4,0.6,0.7,1,1c0.3,0.4,0.6,0.7,1,1c0.3,0.4,0.6,0.7,1,1c0.3,0.4,0.6,0.7,1,1c0.3,0.4,0.6,0.7,1,1c0.3,0.4,0.6,0.7,1,1
			c0.3,0.4,0.6,0.7,1,1c0.3,0.4,0.6,0.7,1,1c0.3,0.4,0.6,0.7,1,1c0.3,0.4,0.6,0.7,1,1c0.3,0.4,0.6,0.7,1,1c0.3,0.4,0.6,0.7,1,1
			c0.3,0.4,0.6,0.7,1,1c0.3,0.4,0.6,0.7,1,1c0.3,0.4,0.6,0.7,1,1c0.3,0.4,0.6,0.7,1,1c0.3,0.4,0.6,0.7,1,1c0.3,0.4,0.6,0.7,1,1
			c0.3,0.4,0.6,0.7,1,1c0.3,0.4,0.6,0.7,1,1c0.3,0.4,0.6,0.7,1,1c0.3,0.4,0.6,0.7,1,1c0.3,0.4,0.6,0.7,1,1c0.3,0.4,0.6,0.7,1,1
			c0.3,0.4,0.6,0.7,1,1c0.3,0.4,0.6,0.7,1,1c0.3,0.4,0.6,0.7,1,1c0.3,0.4,0.6,0.7,1,1c0.3,0.4,0.6,0.7,1,1c0.3,0.4,0.6,0.7,1,1
			c0.3,0.4,0.6,0.7,1,1c0.3,0.4,0.6,0.7,1,1c0.3,0.4,0.6,0.7,1,1c0.3,0.4,0.6,0.7,1,1c0.3,0.4,0.6,0.7,1,1c0.3,0.4,0.6,0.7,1,1
			c0.3,0.4,0.6,0.7,1,1c0.3,0.4,0.6,0.7,1,1c0.3,0.4,0.6,0.7,1,1c0.3,0.4,0.6,0.7,1,1c0.3,0.4,0.6,0.7,1,1c0.3,0.4,0.6,0.7,1,1
			c0.3,0.4,0.6,0.7,1,1c0.3,0.4,0.6,0.7,1,1c0.3,0.4,0.6,0.7,1,1c0.3,0.4,0.6,0.7,1,1c0.3,0.4,0.6,0.7,1,1c0.3,0.4,0.6,0.7,1,1
			c0.3,0.4,0.6,0.7,1,1c0.3,0.4,0.6,0.7,1,1c0.3,0.4,0.6,0.7,1,1c0.3,0.4,0.6,0.7,1,1c0.3,0.4,0.6,0.7,1,1c0.3,0.4,0.6,0.7,1,1
			c0.3,0.4,0.6,0.7,1,1c0.3,0.4,0.6,0.7,1,1c0.3,0.4,0.6,0.7,1,1c0.3,0.4,0.6,0.7,1,1c0.3,0.4,0.6,0.7,1,1c0.3,0.4,0.6,0.7,1,1
			c0.3,0.4,0.6,0.7,1,1c0.3,0.4,0.6,0.7,1,1c0.3,0.4,0.6,0.7,1,1c0.3,0.4,0.6,0.7,1,1c0.3,0.4,0.6,0.7,1,1c0.3,0.4,0.6,0.7,1,1
			c0.3,0.4,0.6,0.7,1,1c0.3,0.4,0.6,0.7,1,1c0.3,0.4,0.6,0.7,1,1c0.3,0.4,0.6,0.7,1,1c0.3,0.4,0.6,0.7,1,1c0.3,0.4,0.6,0.7,1,1
			c0.3,0.4,0.6,0.7,1,1c0.3,0.4,0.6,0.7,1,1c0.3,0.4,0.6,0.7,1,1c0.3,0.4,0.6,0.7,1,1c0.3,0.4,0.6,0.7,1,1c0.3,0.4,0.6,0.7,1,1
			c0.3,0.4,0.6,0.7,1,1c0.3,0.4,0.6,0.7,1,1c0.3,0.4,0.6,0.7,1,1c0.3,0.4,0.6,0.7,1,1c0.3,0.4,0.6,0.7,1,1c0.3,0.4,0.6,0.7,1,1
			c0.3,0.4,0.6,0.7,1,1c0.3,0.4,0.6,0.7,1,1c0.3,0.4,0.6,0.7,1,1c0.3,0.4,0.6,0.7,1,1c0.3,0.4,0.6,0.7,1,1c0.3,0.4,0.6,0.7,1,1
			c0.3,0.4,0.6,0.7,1,1c0.3,0.4,0.6,0.7,1,1c0.3,0.4,0.6,0.7,1,1c0.3,0.4,0.6,0.7,1,1c0.3,0.4,0.6,0.7,1,1c0.3,0.4,0.6,0.7,1,1
			c0.3,0.4,0.6,0.7,1,1c0.3,0.4,0.6,0.7,1,1c0.3,0.4,0.6,0.7,1,1c0.3,0.4,0.6,0.7,1,1c0.3,0.4,0.6,0.7,1,1c0.3,0.4,0.6,0.7,1,1
			c0.3,0.4,0.6,0.7,1,1c0.3,0.4,0.6,0.7,1,1c0.3,0.4,0.6,0.7,1,1c0.3,0.4,0.6,0.7,1,1c0.3,0.4,0.6,0.7,1,1c0.3,0.4,0.6,0.7,1,1
			c0.3,0.4,0.6,0.7,1,1c0.3,0.4,0.6,0.7,1,1c0.3,0.4,0.6,0.7,1,1c0.3,0.4,0.6,0.7,1,1c0.3,0.4,0.6,0.7,1,1c0.3,0.4,0.6,0.7,1,1
			c0.3,0.4,0.6,0.7,1,1c0.3,0.4,0.6,0.7,1,1c0.3,0.4,0.6,0.7,1,1c0.3,0.4,0.6,0.7,1,1c0.3,0.4,0.6,0.7,1,1c0.3,0.4,0.6,0.7,1,1
			c0.3,0.4,0.6,0.7,1,1c0.3,0.4,0.6,0.7,1,1c0.3,0.4,0.6,0.7,1,1c0.3,0.4,0.6,0.7,1,1c0.3,0.4,0.6,0.7,1,1c0.3,0.4,0.6,0.7,1,1
			c0.3,0.4,0.6,0.7,1,1c0.3,0.4,0.6,0.7,1,1c0.3,0.4,0.6,0.7,1,1c0.3,0.4,0.6,0.7,1,1c0.3,0.4,0.6,0.7,1,1c0.3,0.4,0.6,0.7,1,1
			c0.3,0.4,0.6,0.7,1,1c0.3,0.4,0.6,0.7,1,1c0.3,0.4,0.6,0.7,1,1c0.3,0.4,0.6,0.7,1,1c0.3,0.4,0.6,0.7,1,1c0.3,0.4,0.6,0.7,1,1
			c0.3,0.4,0.6,0.7,1,1c0.3,0.4,0.6,0.7,1,1c0.3,0.4,0.6,0.7,1,1c0.3,0.4,0.6,0.7,1,1c0.3,0.4,0.6,0.7,1,1c0.3,0.4,0.6,0.7,1,1
			c0.3,0.4,0.6,0.7,1,1c0.3,0.4,0.6,0.7,1,1c0.3,0.4,0.6,0.7,1,1c0.3,0.4,0.6,0.7,1,1c0.3,0.4,0.6,0.7,1,1c0.3,0.4,0.6,0.7,1,1
			c0.3,0.4,0.6,0.7,1,1c0.3,0.4,0.6,0.7,1,1c0.3,0.4,0.6,0.7,1,1c0.3,0.4,0.6,0.7,1,1c0.3,0.4,0.6,0.7,1,1c0.3,0.4,0.6,0.7,1,1
			c0.3,0.4,0.6,0.7,1,1c0.3,0.4,0.6,0.7,1,1c0.3,0.4,0.6,0.7,1,1c0.3,0.4,0.6,0.7,1,1c0.3,0.4,0.6,0.7,1,1c0.3,0.4,0.6,0.7,1,1
			c0.3,0.4,0.6,0.7,1,1c0.3,0.4,0.6,0.7,1,1c0.3,0.4,0.6,0.7,1,1c0.3,0.4,0.6,0.7,1,1c0.3,0.4,0.6,0.7,1,1c0.3,0.4,0.6,0.7,1,1
			c0.3,0.4,0.6,0.7,1,1c0.3,0.4,0.6,0.7,1,1c0.3,0.4,0.6,0.7,1,1c0.3,0.4,0.6,0.7,1,1c0.3,0.4,0.6,0.7,1,1c0.3,0.4,0.6,0.7,1,1
			c0.3,0.4,0.6,0.7,1,1c0.3,0.4,0.6,0.7,1,1c0.3,0.4,0.6,0.7,1,1c0.3,0.4,0.6,0.7,1,1c0.3,0.4,0.6,0.7,1,1c0.3,0.4,0.6,0.7,1,1
			c0.3,0.4,0.6,0.7,1,1c0.3,0.4,0.6,0.7,1,1c0.3,0.4,0.6,0.7,1,1c0.3,0.4,0.6,0.7,1,1c0.3,0.4,0.6,0.7,1,1c0.3,0.4,0.6,0.7,1,1
			c0.3,0.4,0.6,0.7,1,1c0.3,0.4,0.6,0.7,1,1c0.3,0.4,0.6,0.7,1,1c1.3,1.5,3,2.6,4.6,3.8c0.1,0.1,0.3,0.3,0.4,0.4
			c0.3,0.4,0.6,0.7,1,1c0.3,0.4,0.6,0.7,1,1c2.4,2.9,6,2.8,8.8,4.8c2.6,1.8,5.8,3.2,8.9,4c2.6,0.7,5.2,1.6,7.9,2
			c0.6,0.1,1.2-0.2,1.7,0.5c0.7,1.1,1.8,1.1,2.9,0.9c2.5-0.3,5.2,2.2,7.6-0.3c0,0,0.1,0,0.2,0.1c2.1,2.1,5.2-1.1,7.2,1.3
			c2.1-1.5,4.4-1.1,6.8-0.9c0.9,0,2-0.3,3.1-0.4c1.9-0.2,3.8-0.9,5.7-0.4c0.2,0.1,0.8-0.5,1.1-0.8c0.4-0.3,0.7-0.9,1.2-0.7
			c1.9,0.6,3.7-1.3,5.5,0.1c0.2,0.2,0.7,0.1,0.8-0.1c1.2-1.6,3.1-1.1,4.6-1.6c1.1-0.3,2.2,0.8,2.8-0.1c1.1-1.9,3-1.5,4.6-2
			c5.6-1.8,11.3-3.7,17.2-4.5c6.5-1,12.8-3.2,19.1-4.9c10.5-2.9,21.4-3.8,31.7-7.3c1.1-0.4,2.4,0.1,3.5-0.3
			c5.2-1.1,10.6-2.1,15.8-3.2c8.4-1.6,16.8-3.4,25.2-4.9c7-1.3,13.9-2.5,20.9-4c6.9-1.4,13.7-2.6,20.6-4.2c4.7-1.1,9.7-1.9,14.5-2.9
			c5.9-1.2,11.8-2.7,17.8-3.7c6.9-1.1,13.7-2.9,20.5-4.3c5.6-1,11.2-2.2,16.9-3.3c4.6-0.9,9.2-1.6,13.8-2.5
			c3.7-0.7,7.4-1.2,11.2-1.9c0.8-0.5,1.8,0,1.9,0.6c0.4,0,0.8-0.1,1.2-0.1c1-0.4,2,0.2,3-0.3c0.4,0,0.7-0.1,1.1-0.1
			c0.9-0.4,1.8,0.1,2.7-0.3c0.5,0,1.1-0.1,1.6-0.1c0.9-0.4,1.8,0.1,2.7-0.3c0.5,0,1.1-0.1,1.6-0.1c0.8-0.4,1.8,0.1,2.7-0.3
			c0.6,0,1.1-0.1,1.6-0.1c0.8-0.4,1.8,0.1,2.7-0.3c0.3,0,0.7-0.1,1.1-0.1c1-0.5,2.1,0.1,3.1-0.4c0.4,0,0.7-0.1,1.1-0.1
			c0.9-0.4,1.8,0.1,2.7-0.3c0.4,0,0.7-0.1,1.1-0.1c0.9-0.4,1.9,0.1,2.7-0.3c0.4,0,0.7-0.1,1.1-0.1c0.9-0.5,1.9,0.1,2.7-0.4
			c0.3,0,0.7-0.1,1.1-0.1c0.7-0.3,1.6,0.1,2.3-0.3c0.4,0,0.8-0.1,1.1-0.1c0.7-0.3,1.6,0.1,2.3-0.3c1.2-0.2,2.5,0,3.7-0.6
			c1.5-0.7,2.8-1.7,4.7-0.8c0.8,0.3,1.8-0.4,2.2-1.3c0.7-1.6,1.6-1.7,2.8-0.8c0.5,0.4,1,0.4,1.6,0.5c0.8,0.2,1.7,0.2,2.5,0
			c0.7-0.5,1.4-0.9,2.1-1.4c0.9-0.3,1.8-0.2,2.7,0c2.9,0.3,5.5-0.7,8.2-1.3c0.8-0.2,1.6-0.3,2.4,0c1,0.8,2,1.1,3.2,0.4
			c0.9-0.5,1.5-0.1,2,0.5c0.5,0.7,1.1,1,2,1c1,0.2,2,0.2,2.9,0c1.7-1.2,2.3-3.1,3-4.9C890.1,763.4,889.5,761.6,890,760z"/>
	</g>
</g>
<g id="Layer_1">
	<g>
		<path class="st2" d="M548.4,527.8c-3.8,0.7-7.5,1.2-11.2,1.9c-4.6,0.8-9.2,1.6-13.8,2.5c-5.6,1.1-11.2,2.3-16.9,3.3
			c-6.8,1.3-13.6,3.1-20.5,4.3c-6,1-11.9,2.5-17.8,3.7c-4.8,1-9.7,1.8-14.5,2.9c-6.9,1.6-13.7,2.8-20.6,4.2c-7,1.5-13.9,2.7-20.9,4
			c-8.4,1.6-16.8,3.3-25.2,4.9c-5.2,1.1-10.6,2.1-15.8,3.2c-1.1,0.4-2.4-0.1-3.5,0.3c-10.3,3.4-21.2,4.4-31.7,7.3
			c-6.3,1.7-12.5,3.9-19.1,4.9c-5.9,0.8-11.5,2.7-17.2,4.5c-1.6,0.5-3.4,0.1-4.6,2c-0.6,0.9-1.7-0.2-2.8,0.1
			c-1.5,0.6-3.4,0.1-4.6,1.6c-0.2,0.2-0.7,0.2-0.8,0.1c-1.8-1.4-3.6,0.5-5.5-0.1c-0.6-0.2-0.8,0.4-1.2,0.7c-0.3,0.3-0.9,0.9-1.1,0.8
			c-2-0.5-3.8,0.2-5.7,0.4c-1.1,0.1-2.2,0.4-3.1,0.4c-2.4-0.2-4.7-0.6-6.8,0.9c-2-2.5-5.1,0.8-7.2-1.3c-0.1-0.1-0.2-0.1-0.2-0.1
			c-2.5,2.5-5.1,0-7.6,0.3c-1.1,0.2-2.1,0.2-2.9-0.9c-0.5-0.7-1.1-0.4-1.7-0.5c-2.6-0.5-5.2-1.4-7.9-2c-3.1-0.8-6.3-2.2-8.9-4
			c-2.9-2-6.5-1.9-8.9-4.9c-2.1-2.8-5.8-4.2-7.7-7.1c-2.3-3.7-5.3-6.8-6.5-11.4c-1.5-5.5-2.9-10.9-2.8-16.6c0.1-2.8,0.7-5.5,1.6-8.1
			c1.6-5.2,3.7-10.1,7-14.4c2.5-3.4,5.6-6.2,8.6-9.2c1.8-1.7,2.1-2.3,0-3.7C211,497.3,206.4,490,204,481c-2.5-9.7-3.3-19.5,0.2-29.1
			c1-2.6,2-5.2,3.6-7.4c0.7-1.1,0.9-1.7-0.3-2.5c-1.5-1-2.1-2.6-2.9-4.2c-3-6.6-2.9-13.7-3.7-20.8c-0.8-7.4-1.5-14.6-2.1-22.1
			c-0.1-1.2-0.7-1.6-1.6-2c-15.5-8.3-22.7-21.8-22.7-39.8c0-3.8,0.8-7.4,2.1-11c0.2-0.6,0.7-1.2,0.3-1.9c-2-4.6-1.6-9.5-2-14.2
			c-1.4-14.4-2.6-28.8-3.9-43.3c-0.4-1.1,0.1-2.2-0.3-3.2c0-0.7-0.1-1.4-0.1-2c-0.3-0.9,0.1-1.9-0.3-2.8c0-0.6-0.1-1.1-0.1-1.6
			c-0.4-1.1,0.1-2.2-0.3-3.2c0-0.6-0.1-1.1-0.1-1.6c-0.4-0.9,0.1-1.9-0.3-2.8c0.2-0.7,0.1-1.4-0.1-2c-0.4-1.1,0.1-2.2-0.3-3.3
			c0-0.6-0.1-1.1-0.1-1.6c-0.4-1.1,0.1-2.2-0.3-3.3c0-0.6-0.1-1.1-0.1-1.6c-0.4-1.1,0.1-2.2-0.3-3.3c0-0.6-0.1-1.1-0.1-1.6
			c-0.4-1.1,0.1-2.2-0.3-3.3c0-0.5-0.1-1.1-0.1-1.6c-0.4-1.1,0.1-2.2-0.3-3.3c0-0.5-0.1-1.1-0.1-1.6c-0.5-1.1,0.2-2.5-0.3-3.6
			c0-0.4-0.1-0.8-0.1-1.2c-0.5-1.1,0.2-2.5-0.3-3.6c0-0.4-0.1-0.8-0.1-1.2c-0.5-1.1,0.2-2.5-0.3-3.6c0-2.5-1.6-0.9-2.6-1.1
			c-1.3-0.2-3,1.2-3.8-1.1c0.1-0.5,0.4-0.7,0.8-0.8c1.3-0.5,2.7,0.1,3.9-0.3c0.7,0,1.3-0.1,2-0.1c1.1-0.4,2.4,0.1,3.5-0.3
			c0.7,0,1.3-0.1,2-0.1c1.3-0.5,2.6,0.2,3.9-0.3c0.5,0,1.1-0.1,1.6-0.1c1.3-0.5,2.7,0.2,3.9-0.3c0.7,0,1.3-0.1,2-0.1
			c1.1-0.4,2.4,0.1,3.5-0.3c0.7,0,1.3-0.1,2-0.1c1.1-0.4,2.4,0.1,3.6-0.3c0.8,0,1.6-0.1,2.4-0.1c1.1-0.4,2.4,0.2,3.5-0.3
			c0.7,0,1.3-0.1,2-0.1c1.1-0.4,2.4,0.1,3.5-0.3c0.7,0,1.3-0.1,2-0.1c1.1-0.4,2.4,0.1,3.5-0.3c0.7,0,1.3-0.1,2-0.1
			c1.1-0.4,2.4,0.1,3.5-0.3c0.7,0,1.3-0.1,2-0.1c1.3-0.5,2.6,0.2,3.9-0.3c0.5,0,1.1-0.1,1.6-0.1c1.3-0.5,2.7,0.2,3.9-0.3
			c0.5,0,1.1-0.1,1.6-0.1c1.3-0.5,2.7,0.1,3.9-0.3c0.5,0,1.1-0.1,1.6-0.1c1.3-0.5,2.7,0.1,4-0.3c0.7,0,1.3-0.1,2-0.1
			c1.3-0.5,2.6,0.2,3.9-0.3c0.5,0,1.1-0.1,1.6-0.1c1.3-0.5,2.7,0.1,3.9-0.3c0.5,0,1.1-0.1,1.6-0.1c1.3-0.5,2.7,0.1,4-0.3
			c0.7,0,1.3-0.1,2-0.1c1.3-0.5,2.6,0.2,3.9-0.3c0.6,0,1.1-0.1,1.6-0.1c1.3-0.5,2.7,0.2,3.9-0.3c0.5,0,1.1-0.1,1.6-0.1
			c1.3-0.5,2.7,0.1,3.9-0.3c0.7,0,1.3-0.1,2-0.1c1.1-0.4,2.4,0.1,3.5-0.3c0.7,0,1.3-0.1,2-0.1c1.3-0.5,2.6,0.2,3.9-0.3
			c0.5,0,1.1-0.1,1.6-0.1c1.3-0.5,2.7,0.1,3.9-0.3c0.7,0,1.3-0.1,2-0.1c0.7-0.2,1.4-0.2,2.1-0.1c6.6,2.9,13.3,5.6,20,8.4
			c10,4.2,20,8.3,29.9,12.4c0.3,0.2,0.7,0.2,1,0.2c0.7,0.3,1.5,0.3,2.2,0c0.4,0,0.8-0.1,1.2-0.1c0.8-0.4,1.8,0.1,2.7-0.3
			c0.4,0,0.7-0.1,1.1-0.1c0.9-0.2,1.8-0.5,2.7-0.8c0.5,0,1.1-0.1,1.6-0.1c1.1-0.5,2.4,0.1,3.5-0.3c0.5,0,1.1-0.1,1.6-0.1
			c1.1-0.5,2.4,0.2,3.5-0.3c0.6,0,1.1-0.1,1.6-0.1c1-0.4,2.1,0.1,3.1-0.3c0.5,0,1.1-0.1,1.6-0.1c1.1-0.5,2.2,0.2,3.3-0.4
			c0.4-2.5,2.9-2.9,4.4-4.1c3.1-2.2,6.5-4,9.7-6.1c0.8-0.6,1.6-0.7,2.5-0.9c1-0.4,2.1,0.1,3.1-0.3c0.7,0,1.3-0.1,2-0.1
			c1.1-0.4,2.4,0.2,3.5-0.3c1.7-0.2,3.2,0,3.7,2.1c0.2,0.7,0.5,0.9,1.2,0.7c1-0.2,2-0.4,2.3-1.6c0.2-0.9,0.4-1.6,1.1-2.1
			c0.7-0.4,1.6,0,2.3-0.4c0.3,0,0.7-0.1,1.1-0.1c0.8-0.5,1.8,0.1,2.7-0.4c0.4,0,0.7-0.1,1.1-0.1c0.8-0.4,1.8,0.1,2.6-0.3
			c0.2,0,0.5,0,0.7-0.1c0.9-0.5,1.9,0.1,2.7-0.4c0.3,0,0.7-0.1,1.1-0.1c0.8-0.5,1.8,0.1,2.7-0.3c0.4,0,0.7-0.1,1.1-0.1
			c0.8-0.4,1.8,0.1,2.6-0.3c0.4,0,0.8-0.1,1.1-0.1c0.7-0.3,1.6,0,2.3-0.3c0.3,0,0.7-0.1,1.1-0.1c0.8-0.4,1.8,0.1,2.7-0.3
			c0.4,0,0.7-0.1,1.1-0.1c0.8-0.4,1.8,0.1,2.6-0.3c0.4,0,0.8-0.1,1.1-0.1c0.7-0.3,1.6,0,2.3-0.3c0.3,0,0.7-0.1,1.1-0.1
			c0.8-0.4,1.8,0.1,2.7-0.3c0.4,0,0.7-0.1,1.1-0.1c0.8-0.4,1.8,0.1,2.6-0.3c0.4,0,0.8-0.1,1.1-0.1c0.7-0.3,1.6,0,2.3-0.3
			c0.5,0,1.1-0.1,1.6-0.1c0.7-0.3,1.6,0.1,2.2-0.3c0.4,0,0.7-0.1,1.1-0.1c0.8-0.4,1.8,0.1,2.6-0.3c0.4,0,0.8-0.1,1.1-0.1
			c0.7-0.3,1.6,0.1,2.3-0.3c0.5,0,1.1-0.1,1.6-0.1c0.7-0.3,1.6,0.1,2.2-0.3c0.4,0,0.7-0.1,1.1-0.1c0.8-0.4,1.8,0.1,2.6-0.3
			c0.4,0,0.8-0.1,1.1-0.1c0.7-0.3,1.6,0.1,2.3-0.3c0.4,0,0.7-0.1,1.1-0.1c0.8-0.4,1.8,0.1,2.7-0.3c0.4,0,0.7-0.1,1.1-0.1
			c0.7-0.3,1.6,0,2.3-0.3c0.3,0,0.7-0.1,1.1-0.1c0.8-0.4,1.8,0.1,2.7-0.3c2.2-0.3,3.8,1.2,5.6,2.2c4.3,2.4,8.4,5.3,12.9,7.4
			c0.9,0.3,1.8,0.3,2.8,0c8.8,5.7,17.4,11.4,26.1,17.1c0.7,0.7,0,1.6,0.5,2.3c0,0.4,0.1,0.8,0.1,1.2c0.5,0.7-0.1,1.6,0.4,2.2
			c2.3,1.6,5,2.6,7.4,3.8c1.5,0.7,1.9,1.6,1.9,3.2c-0.1,5.6,0,11.3-0.1,16.9c0,1.3,0.3,2,1.6,2.5c2.1,0.8,4.1,2,6.1,2.9
			c0.7,0.7,0,1.6,0.5,2.4c-0.3,1.3,0.4,2,1.4,2.8c2.9,2.1,6.1,4.1,8.1,7.4c1.2,2,2,4.1,2.5,6.3c0.4,0.7-0.1,1.6,0.3,2.3
			c0,0.2,0.1,0.5,0.1,0.8c0.2,0.9,0.2,1.7,0,2.6c0,0.4-0.1,0.8-0.1,1.2c-0.5,1,0.1,2.1-0.3,3.2c0,0.4-0.1,0.8-0.1,1.2
			c-0.5,1,0.1,2.1-0.3,3.2c0,0.4-0.1,0.8-0.1,1.2c-0.5,1,0.1,2.1-0.3,3.2c0,0.4-0.1,0.8-0.1,1.2c-0.5,1,0.1,2.1-0.3,3.2
			c0,0.4-0.1,0.8-0.1,1.2c-0.5,1,0.1,2.1-0.3,3.1c0,0.4-0.1,0.8-0.1,1.2c-0.5,1,0.1,2.1-0.3,3.1c0,0.4-0.1,0.8-0.1,1.2
			c-0.5,1.1,0.1,2.1-0.3,3.2c0,0.4-0.1,0.8-0.1,1.2c-0.5,1.1,0.1,2.2-0.3,3.2c0,0.4-0.1,0.8-0.1,1.2c-0.5,1.1,0.1,2.2-0.3,3.2
			c0,0.4-0.1,0.8-0.1,1.2c-0.5,1.1,0.1,2.2-0.3,3.2c0,0.4-0.1,0.8-0.1,1.1c-0.4,1.1,0.1,2.2-0.3,3.2c0,0.4-0.1,0.8-0.1,1.1
			c-0.4,0.9,0.1,1.9-0.3,2.8c0,0.6-0.1,1.1-0.1,1.6c-0.4,0.9,0.1,1.9-0.3,2.8c0,0.6-0.1,1.1-0.1,1.6c-0.4,0.9,0.1,1.9-0.3,2.8
			c0,0.6-0.1,1.1-0.1,1.6c-0.4,0.9,0.1,1.9-0.3,2.8c-0.7,1.6-0.1,2.5,1.1,3.6c3.3,2.7,6,5.9,8.9,8.9c0.9,0.9,0.9,2.2,1.4,3.4
			c0.2,1.6,0.3,3.2,0,4.8c-4.2,5-9.3,8.1-15.7,9.2c-7,1.1-13.8,2.5-20.8,3.4c-3.4,0.5-5.6,2-7.6,5c-7.9,11.8-15.9,23.4-24,35
			c-1.9,2.8-4.3,5.2-6.9,7.4c-1.3,1.1-3,1.1-4.6,1.6c-0.8,0.4-1.8-0.1-2.6,0.3c-0.4,0-0.8,0.1-1.2,0.1c-1.6,0.2-3.1,0.2-4.7,0
			c-7.6-0.3-12.4-4.8-15.8-11.3c-4.3-8.1-8.8-16.1-13.2-24.2c-0.4-0.7-0.9-0.9-1.6-1c-2.5-0.2-4.9,0.8-7.4,1.1
			c-4.3,0.4-8.4,1.2-12.7,2c-3.8,0.6-7.5,1.2-11.4,1.9c-0.7,0.5-1.6-0.1-2.2,0.4c-1.1,0.2-2.2,0.3-3.3,0.5c-0.7,0.5-1.6-0.1-2.2,0.4
			c-1.1,0.2-2.2,0.3-3.3,0.5c-0.7,0.5-1.6-0.1-2.2,0.4c-4.8,0.4-9.6,1.6-14.2,3.4c-10,3.8-20,7.4-29.9,11.2
			c-4.8,1.8-9.7,3.9-14.6,5.3c-1.4,0.4-2.8,0.6-4.3,0.7c-1.6,0.2-3.1,0.6-4.1,2.2c-0.5,1.6,0.1,3.3-0.3,4.9
			c-0.1,0.1-0.1,0.2-0.1,0.2c-2,1.7-2.1,3.8-1.4,6.2c0.2,0.8-0.2,1.8-0.8,2.3c-0.7,0.6-0.5,1.2-0.2,1.9c0.2,1,0.2,2,0,3
			c-0.4,0.5-0.9,1-1.3,1.5c-0.4,1.1-0.3,2.4-0.1,3.5c-0.2,1-0.6,2-0.8,2.9c-0.6,1,0.1,2.1-0.4,3.1c-2.5,3.1-1.5,7.8-4.6,10.6
			c-0.7,0.6,0.3,1.6-0.1,2.3c-1.4,2.3-2.2,4.7-3.1,7.3c-0.5,1.3-1.8,2.5-2,4.2c-0.2,0.9-1,1.8-1.6,1.9c-2.1,0.4-2.5,2-2.6,3.7
			c-0.2,2-1.9,2.1-3.1,2.9c-0.2,0.2-0.7-0.1-0.7,0.5c0.2,0.9,0.4,1.8-0.2,2.6c-0.5,0.4-1.1,0.9-1.6,1.3c-1.2,0.2-2.8,0.1-2.5,2.2
			c-0.6,0.6-1.1,1.2-1.8,1.8c-0.8,0.5-1.8-0.1-2.6,0.4c-0.9,0.2-0.7,1-0.9,1.6c-0.4,1-1,2.2-2.1,2.2c-1.6,0-2.4,0.7-2.9,2.1
			c-0.4,1.1-1.1,2.1-2.4,2.3c-1.3,0.2-1.1,1.6-1.8,2.1c-2.1,1.7-4.1,3.6-6.1,5.3c-5.1,4.1-11,6.5-17,8.2c-1.7,0.5-3.4,0.9-5.2,1.3
			c-0.2,0.4-0.7,0.5-1.1,0.8c0.6-0.3,1-0.3,1.5-0.1c1.4,0.4,3,0.1,4.3-0.2c2-0.5,3.9-0.7,5.9-1c1.1-0.1,2-0.7,3-1
			c2.5-0.6,5.3-0.1,7.5-1c1.6-0.7,3.8,0.3,5.2-1.8c0.4-0.7,2.3-0.2,3.4-0.4c2.8-0.7,5.5-2,8.2-2c2.1,0,3.8-2.6,6-0.8
			c1.2-1.6,3.4-0.2,4.7-1.7c1.2-1.3,2.6-0.4,3.8,0.2c0.4-1.6,1.3-2.5,2.9-2c2.1,0.6,3.9-0.7,5.8-1c0.8-0.2,1.7-0.4,2.5,0.1
			c1.1,0.8,2,1.6,2.9-0.4c0.7-1.3,2.1-0.8,3.2-0.2c0.8,0.5,1.3,0.3,2.2-0.1c3.1-1.4,6.5-1.8,9.8-2.4c15.7-2.8,31.4-5.8,47-9.5
			c12.4-2.9,25-5,37.6-7.3c10.9-2,21.8-3.9,32.6-5.9c5.3-1,10.6-2,16-2.9c0.7-0.5,1.6,0.1,2.2-0.4c4.7-0.7,9.3-1.4,13.9-2.2
			c10.3-1.7,20.7-3.5,31-5.3c0.7-0.4,1.6,0.1,2.2-0.3c0.2,0,0.5-0.1,0.7-0.1c0.7-0.4,1.6,0.1,2.2-0.3c0.2,0,0.5-0.1,0.7-0.1
			c0.7-0.4,1.6,0.1,2.2-0.4c0.2,0,0.5-0.1,0.7-0.1c0.7-0.4,1.6,0,2.3-0.3c1.4,0.2,2.8-0.2,4.1-0.6c0.7-0.4,1.6,0.1,2.2-0.3
			c0.4,0,0.7-0.1,1.1-0.1c1-0.5,2.1,0.1,3.1-0.3c0.4,0,0.7-0.1,1.1-0.1c1-0.5,2.1,0.1,3.1-0.3c0.5,0,1.1-0.1,1.6-0.1
			c0.9-0.4,1.9,0.1,2.7-0.3c0.5,0,1-0.1,1.6-0.1c1-0.4,2.1,0.1,3.1-0.3c0.4,0,0.7-0.1,1.1-0.1c0.8-0.4,1.6,0,2.5-0.2
			c0.6-0.1,1.2-0.2,1.8-0.2c0.7-0.4,1.6,0,2.3-0.3c2.9-0.1,5.6-0.8,8.3-1.4c0.7-0.4,1.6,0,2.3-0.3c2.9,0.5,5.2-1.6,7.9-2.3
			c0.7-0.3,1.4-0.2,2.1-0.1c0.2,0.1,0.4,0.2,0.6,0.2c1.8,1,3.4,1.6,4.2-1.3c0.2-0.7,0.9-1.2,1.6-1.6c0.7-0.2,1.4-0.2,2.1,0
			c0.3,0.2,0.7,0.3,1.1,0.6c1.1,0.9,1.9,1.3,2.1-0.9c0.2-1.8,2.1-2.6,4.1-2.2c3.4,0.7,4.3-0.2,4.2-3.8c0.4-0.7-0.1-1.6,0.3-2.4
			c2.2-5.1,2.6-5.2,7.4-2.9c2.8,1.3,4.8,3.5,6.2,6.3c3.7,7.4,7.3,15.1,9.5,23.2c1.6,6.1,2.9,12.2,2.8,18.6c-0.5,1.6,0.2,3.4-0.3,5
			c-0.7,1.8-1.3,3.7-3,4.9c-1,0.2-2,0.2-2.9,0c-0.8,0-1.5-0.3-2-1c-0.5-0.6-1.1-1-2-0.5c-1.1,0.7-2.2,0.4-3.2-0.4
			c-0.8-0.3-1.6-0.2-2.4,0c-2.7,0.7-5.3,1.6-8.2,1.3c-0.9-0.2-1.8-0.3-2.7,0c-0.7,0.5-1.4,0.9-2.1,1.4c-0.8,0.2-1.7,0.2-2.5,0
			c-0.6-0.1-1.1-0.1-1.6-0.5c-1.2-0.9-2.1-0.7-2.8,0.8c-0.4,0.9-1.4,1.6-2.2,1.3c-1.9-0.9-3.2,0.2-4.7,0.8c-1.1,0.6-2.5,0.3-3.7,0.6
			c-0.7,0.4-1.6,0-2.3,0.3c-0.3,0-0.7,0.1-1.1,0.1c-0.7,0.4-1.6,0-2.3,0.3c-0.3,0-0.7,0.1-1.1,0.1c-0.8,0.5-1.8-0.1-2.7,0.4
			c-0.4,0-0.7,0.1-1.1,0.1c-0.8,0.4-1.8-0.1-2.7,0.3c-0.4,0-0.7,0.1-1.1,0.1c-0.9,0.4-1.8-0.1-2.7,0.3c-0.4,0-0.7,0.1-1.1,0.1
			c-1,0.5-2.1-0.1-3.1,0.4c-0.4,0-0.8,0.1-1.1,0.1c-0.9,0.4-1.9-0.1-2.7,0.3c-0.5,0-1,0.1-1.6,0.1c-0.9,0.4-1.9-0.1-2.7,0.3
			c-0.5,0-1.1,0.1-1.6,0.1c-0.9,0.4-1.8-0.1-2.7,0.3c-0.5,0-1.1,0.1-1.6,0.1c-0.9,0.4-1.8-0.1-2.7,0.3c-0.4,0-0.7,0.1-1.1,0.1
			c-1,0.5-2-0.1-3,0.3c-0.4,0-0.8,0.1-1.2,0.1C550.2,527.8,549.2,527.3,548.4,527.8z"/>
		<path class="st3" d="M481.8,443.1c1.6,0,3.1,0,4.7,0C484.9,443.7,483.4,443.7,481.8,443.1z"/>
		<path class="st3" d="M301.6,397.8c0.6-0.3,0.8-0.6,1.1-0.7c2.8-1.6,2.9-3.1,0.5-5.1c-1.3-1.1-1.7-1.6,0.2-2.5
			c1.9-0.9,1.9-2.8,0.1-3.8c-1.3-0.7-2.5-1.3-1.2-3c0.1-0.1,0.1-0.2,0.1-0.2c-1.5-2-0.8-4.4-1.5-6.5c-0.5-1.8-1.7-3.5-1.1-5.6
			c0.4-1.2,0.1-2.4-1.2-2.9c-1.2-0.5-1.2-1.5-1.1-2.5c0.2-1.4,0.4-2.8,0.6-4.2c0.1-1.6,0-2.9-1.8-3.5c-0.4-0.2-0.9-0.3-0.8-0.8
			c0.6-3.2-1.6-5.7-2-8.7c-0.4-2.5-0.7-4.9-1.2-7.4c-0.7-3.2,1.4-5.2,2.9-7.4c0.2-0.3,0.6-0.6,0.9-0.2c1.6,1.9,2.5-0.2,3.7-0.8
			c1.3-0.7,2.7-1.5,1.7-3.5c-0.3-0.7,0.4-1,0.9-1.2c5.5-3.7,11.6-4.6,17.9-3.7c5.8,0.8,10.6,6.7,11.1,13.5c0.2,2.4,1,4.4,2.2,6.2
			c0.7,1.1,0.9,2.1,0.4,3.4c-0.9,2.5-0.7,3.2,1.8,4.4c0.9,0.5,0.7,1.1,0.7,1.8c-0.2,1.8-0.6,3.7,1.1,5.1c0.5,0.4,0.2,1.1,0.1,1.6
			c-0.7,2-0.1,3.7,1.5,5.2c0.7,0.7,1.2,1.5,1.1,2.5c-0.3,4.9,1.4,9.3,2.5,13.9c0.3,1.3,0.7,2.4-0.8,3.4c-1.3,0.9-1.6,2.3-0.2,3.5
			c0.5,0.4,0.9,0.6,0.2,1.2c-3.3,3.2-3.1,4.2,0.7,6.6c0.2,0.1,0.3,0.3,0.5,0.5c-0.5,0.3-0.9,0.6-1.3,0.8c-2.8,1.7-3,3.4-0.7,5.6
			c0.7,0.7,0.8,1.1,0,1.8c-2.5,2.2-2.5,3.1-0.2,5.6c0.7,0.7,0.6,1.2,0.1,1.9c-1.4,2-2.8,3.8-0.7,6.3c0.3,0.4-0.1,0.8-0.2,1.2
			c-0.3,0.7-1,1.4-0.9,2c0.7,3.6-1.2,6.8-1.1,10.2c0.1,1,0.1,1.8-0.8,2.5c-1.3,1.1-1.1,2.8-1.1,4.3c0,1.2,0,2.2-1.1,3
			c-1.4,1-1.1,2.6-0.7,4.1c0.2,1.2,0.7,2.5-0.6,3.4c-0.2,0.1-0.3,0.4-0.2,0.6c0.2,2.4-0.7,4.4-1.3,6.6s-0.3,4.7-1.1,7.2
			c-0.3,1.3-0.9,2.6-1.1,3.8c-0.7,3.7-2.7,6.7-3.4,10.3c-0.1,0.4,0,1.1-0.2,1.2c-1.7,1.4-2.6,3.2-2.3,5.6c0.1,0.5-0.4,0.7-0.8,0.9
			c-1.2,0.7-1.7,1.8-1.6,3.1c0.1,1.3-0.5,1.6-1.6,1.9c-2,0.4-2.9,1.7-2.8,3.8c0.1,1.3-0.3,1.8-1.6,2c-1.7,0.2-2.9,1.3-2.5,3.4
			c0.2,1.1-0.2,1.3-1.1,1.2c-1.9-0.1-3.2,0.7-3.1,2.9c0.1,1.1-0.6,1.1-1.3,1.1c-2,0.1-3.3,0.9-3.6,2.9c-0.2,0.9-0.7,1.1-1.3,1
			c-0.6-0.1-1.3,0.1-1.6,0.5c-1.3,2.7-4,4-5.6,6.4c-1.5,2.1-3.6,3.7-5.6,5.2c-5.5,4.2-11.5,7-18.2,8.3c-2.8,0.6-5.4,1.7-7.9,2.9
			c-1.3,0.7-2.7,1.3-4.3,1.1c-1.1-0.1-1.9,0.5-2.3,1.6c-0.3,1.1-0.2,2.2,0.7,3c1,0.9,2.3,1.5,3.5,1.1c1.8-0.6,3.4-0.6,5.2-0.1
			c0.3,0.1,1,0.1,1.2-0.2c1.6-1.6,3.4-1.2,5.2-1c0.2,0,0.3,0.1,0.4,0c1.3-0.8,2.9-0.7,4.3-1.1c1.1-0.2,2.3-1.1,3.5-1.2
			c1.9-0.2,3.8-0.7,5.6-1.2c2-0.6,4.5,1.2,6.1-1.3c1.9,0.7,3.3-1.8,5.5-0.7c1.2,0.6,2.9-0.7,4.2-1.2c2.4-1,4.9-0.7,7-1.4
			c1.8-0.7,4-0.1,5.4-1.8c0.3-0.4,0.7-0.2,1.1-0.1c0.3,0.1,0.7,0.4,1,0.3c1.9-0.7,3.7-0.9,5.6-0.3c0.1,0,0.2,0,0.2-0.1
			c0.9-2.1,2.9-1.9,4.5-2c2.1-0.1,4-2.1,6.3-0.7c0.6,0.4,1.6,0.4,2-0.2c1.1-1.8,2.3-1.2,3.7-0.3c0.7,0.4,1.7,0.3,2.1-0.5
			c0.9-1.8,2.6-1.8,4.2-2.1c10.1-1.9,20.3-3.4,30.3-5.8c31.7-7.4,63.7-13,95.7-18.7c25.1-4.4,50.2-9,75.4-12.4
			c8.5-1.1,17-1.7,25.5-2.7c4.8-0.6,9.7-1.5,14.5-2.2c0.6-0.1,1.1-0.2,1.6-0.5c2.7-1.6,5.3-1.8,8.2-0.2c1.6,0.9,2.9,0.3,3.5-1.8
			c0.7-2.5,0.9-2.5,3.1-1.1c2.7,1.6,3.8,1.2,4.5-1.9c0.4-1.6,1-1.9,2.5-1.3c3.5,1.3,6.1-0.7,6.2-4.5c0.1-1.7-0.2-3.5,0.7-5.2
			c0.5-0.8,0.8-1.1,1.8-0.7c2.6,0.9,4.7,2.5,5.9,5.1c5.5,10.9,10.4,21.9,11.9,34.3c0.5,3.7,0.2,7.4-0.2,11c-0.3,3.3-2,3.8-4,1.8
			c-1.1-1.1-2.4-1.7-3.8-0.6c-0.3,0.2-0.7,0.2-1,0c-2-1.3-4-0.7-5.9,0c-2,0.7-4.1,1-6.3,0.8c-1.9-0.2-3.7-0.1-5.2,1.2
			c-0.8,0.7-1.6,0.2-2.4-0.1c-3.1-1.4-3.4-1.3-5.7,1.2c-0.5,0.6-0.8,0.3-1.2,0.1c-0.7-0.4-1.5-0.5-2-0.1c-3.3,2.8-7.4,2.3-11.1,2.8
			c-13.5,1.6-27.1,2.6-40.5,4.7c-14.6,2.2-29,4.8-43.4,7.9c-33.7,7.1-67.6,13.8-101.4,20.5c-10.1,2-20.1,3.9-30.2,6
			c-13.5,2.8-27.1,5.3-40.4,8.8c-5.6,1.5-11.1,3.2-16.8,4.3c-5.7,1.1-11.2,2.9-16.8,4.3c-2.5,0.7-5,1.5-7.5,2
			c-0.4,0.1-0.7-0.1-1-0.2c-0.5-0.2-1.1-0.5-1.4-0.2c-1.6,1.5-3.6,1-5.3,1.6c-1.8,0.7-4.1-0.2-5.5,1.8c0,0.1-0.5-0.2-0.7-0.2
			c-0.4-0.2-0.9-0.7-1.1-0.5c-2,1.1-4.5,0.2-6.4,1.3c-0.7,0.4-1.1,0.7-1.6,0.1c-0.5-0.4-1.2-0.8-1.8-0.6c-1.9,0.9-3.6,0.8-5.6,0.7
			c-1.4-0.1-2.9,0.7-4.3-0.2c-0.1-0.1-0.3-0.1-0.4-0.1c-2.3,1.6-4.7-0.2-7,0.3c-0.7,0.2-1.4,0.2-1.9-0.5c-0.5-0.6-1.2-0.7-2-0.7
			c-1.3,0-2.7,0.2-3.5-1.3c-0.1-0.2-0.4-0.3-0.6-0.3c-2.7,0.4-4.9-0.9-7.4-1.7c-0.8-0.2-1.7-0.2-2.5-1.1c-0.7-0.8-1.6-1.2-2.6-1.2
			c-0.7-0.1-1.4-0.3-1.8-1c-0.7-1-1.6-1.4-2.7-1.4c-1.7,0-2.9-0.8-4.1-2c-1.2-1.2-2.5-2.4-3.9-3.4c-3.7-2.5-5.9-6.3-8.2-10
			c-1.7-2.8-2.4-6.3-3.2-9.7c-0.7-3.3-1.2-6.5-1.1-9.8c0.1-3.1,0.8-6.1,1.9-9.1c1.3-3.7,2.8-7.2,4.9-10.5c1.7-2.5,3.9-4.6,6-6.9
			c2.1-2.4,4.6-4.3,6.6-6.8c1.6-2,4.3-2.5,6.3-4.1c2.8-2.1,6.5-2.3,9.2-4.4c0.2-0.2,0.6-0.2,0.8-0.2c2.9,0.2,5.5-1.3,8.2-2.1
			c4-1.1,8-2.2,12.2-2.8c2.7-0.3,5.4-1,8-2.2c2.4-1.1,4.7-2.6,7.2-3.4c2.6-0.7,4.1-3.1,5.5-5c3.1-4.2,5-9.2,7.4-13.9
			c2.2-4.4,3.4-9.2,4.3-14.2c0.6-3.2,0.6-6.5,1.7-9.4c1-2.6,1.1-5.2,1.2-7.9c0-0.4,0.2-0.9,0.6-1.1c2-1.3,1.7-3.2,1.3-5.1
			c-0.2-0.8-0.2-1.2,0.7-1.7c1.5-0.9,0.8-2.5,0.7-3.8c-0.2-1.7,0.2-2.8,1.4-4.2c2.1-2.5,1.6-5.6,0.6-8.5c-0.4-1.1-1-1.9,0.7-2.6
			c1.7-0.8,0.9-2.4,0-3.5c-1-1.3-1.1-2,0.7-2.5c2.2-0.7,2.4-2.3,0.6-3.8C302.6,398.6,302.2,398.3,301.6,397.8z"/>
		<path class="st4" d="M168.3,224.4c7.5-0.6,15-1.2,22.3-1.8c20.2-1.6,40.3-3.2,60.6-4.7c13.3-1.1,26.5-2,39.8-3.1
			c1-0.1,1.8,0.2,2.7,0.6c15.9,6.6,31.7,13.2,47.6,20c3.4,1.4,6.4,0.4,9.6,0.2c0.9-0.1,1.6,0,2.3,0.7c9.2,10.6,18.6,21.2,27.8,31.7
			c0.2,0.2,0.2,0.3,0.3,0.7c-5.3,0.7-10.5,1.3-15.6,2c-9.2,1.1-18.6,2.2-27.8,3.4c-1.1,0.2-2.2,0-3.4-0.3c-5-1.5-9.9-2.9-15-4.3
			c-1.1-0.3-1.7-0.9-2.2-2c-5.9-13.3-11.8-26.4-17.7-39.7c-1.5-3.4-4.2-5.3-7.4-6.4c-1.4-0.5-3.1-0.1-3.8,1.6
			c-0.3,0.8-0.7,0.9-1.4,1c-6.9,0.7-13.8,1.4-20.7,2.2c-1.1,0.1-1.9-0.2-2.8-0.8c-3.4-2.5-6.5-1.1-7.7,2.9
			c-1.4,4.7-1.6,9.5-1.7,14.3c-0.2,8.7-0.3,17.4-0.5,26.1c-0.1,2.9,1.1,5.6,2.3,8.1c2,4.2,4.2,8.3,6.3,12.4c0.7,1.2,0.7,1.7-0.8,1.9
			c-14,1.5-28,2.9-42,4.5c-8.6,0.9-17.2,1.9-25.7,2.9c-1.8,0.2-2.7-0.1-3.3-2c-7.1-23.3-14.3-46.6-21.5-69.8
			C168.7,225.8,168.5,225.2,168.3,224.4z"/>
		<path class="st3" d="M340.8,362.2c4.2-0.7,7.9-1.4,11.8-2c19.6-3.3,39.3-6.6,58.8-10c1.4-0.2,2.3,0,2.9,1.3c1.3,2.5,3.2,2.9,6,2.5
			c27.6-4.7,55.2-9.1,82.8-13.6c2.5-0.4,5.1-0.7,7.5-1.2c1-0.2,1.5,0,2,0.9c5.2,8.8,6.6,18.2,5.9,28.2c-0.2,2.2-0.5,4.3-0.6,6.5
			c0,1.6-0.7,2.2-2,2.5c-4.3,1-8.5,1.2-12.8,1.8c-11,1.6-22,3.8-33.1,5.6c-23.6,4.2-47.3,8.3-70.9,12.5c-16.1,2.9-32.2,5.6-48.3,8.6
			c-1.8,0.3-2.3,0-2.5-1.9c-0.7-5.6-2-11.1-2.2-16.7c-0.2-5.3-1.6-10.3-2.7-15.4c-0.2-1.1-0.3-2.3-0.3-3.5
			C343,366.2,342.8,364.1,340.8,362.2z"/>
		<path class="st3" d="M417.2,323.4c0-8.7,0-17.4,0-26.1c0-1.2,0.3-1.6,1.5-1.8c18.5-2.8,37-5.6,55.4-8.3
			c16.9-2.5,33.9-5.2,50.8-7.8c2.7-0.4,2.7-0.5,2.3,2.4c-2.5,17.1-5.1,34.3-7.5,51.4c-0.2,1.3-0.7,1.8-2,2
			c-14,2.2-27.9,4.6-41.9,6.9c-18.4,3-36.7,6-55.1,9.1c-1.9,0.3-2.2-0.1-2.3-2c-0.1-8.6-0.4-17.1-0.6-25.7
			C417.6,323.4,417.4,323.4,417.2,323.4z"/>
		<path class="st4" d="M397.9,222.1c1.3-0.4,2.3,0.2,2.7,1.7c0.4,1.3,1.1,1.6,2.4,1.1c1.1-0.4,2.3-0.7,3.5-0.9
			c0.7-0.2,1.3-0.2,1.4-1.1c0.3-2,1.7-2.3,3.4-2.5c14.1-1.6,28.1-3.3,42.1-5c10.4-1.2,20.8-2.5,31.2-3.8c2.1-0.2,3.9,0,5.8,1.1
			c4.3,2.8,8.8,5.3,13.3,7.9c0.6,0.3,1.2,0.9,1.7,0.7c2.1-0.7,3.5,0.7,5,1.6c6.5,4.2,13,8.5,19.6,12.7c1.7,1.1,1.5,2.6,1.7,4.2
			c0.2,1-0.9,0.7-1.5,0.8c-3.8,0.4-7.8,0.8-11.6,1c-1.3,0.1-1.9,0.6-2,1.9c0,0.1,0,0.2,0,0.2c-0.8,5.4-0.9,5.4-6.2,5.8
			c-0.8,0.1-1.1-0.2-1.5-0.9c-0.1-0.3-0.2-0.7-0.4-1c-1.9-4.7-1.9-4.7-6.7-3.9c-17.4,2.6-34.9,5.2-52.3,7.8c-1.3,0.2-1.8,0.7-1.9,2
			c-0.3,4.5-0.5,4.3-4.7,5.2c-2.6,0.6-3.8-0.3-4.5-2.7c-0.7-2.5-2.2-3.3-4.6-2.5c-0.8,0.2-1.6,0.4-2.5,0.4c-5.8,0-10.4,2.5-14.4,6.7
			c-2.8,2.9-6.6,1.9-10,2.7c-0.6,0.2-0.9-0.6-1.3-1c-9-10.2-17.9-20.5-27-30.7c-1-1.1-0.7-1.6,0.4-2.2c1.6-0.8,3-1.9,4.6-2.9
			C390.3,222.5,390.3,222.5,397.9,222.1z"/>
		<path class="st4" d="M407.5,280.6c0-4.3,0-8.5,0-12.8c0-1.1,0.3-1.6,1.5-1.8c17.6-2.3,35.2-4.7,52.8-7c17.9-2.5,35.9-4.8,53.8-7.3
			c7.9-1.1,15.9-2.1,23.8-3.2c1.5-0.2,2,0.2,2,1.8c-0.1,7.6-0.1,15.2,0,22.8c0,1.6-0.5,2-2,2.3c-38.2,5.7-76.4,11.6-114.6,17.3
			c-5.1,0.7-10.2,1.6-15.4,2.1c-1.3,0.1-1.7-0.1-1.7-1.6c0.1-4.3,0-8.5,0-12.8C407.7,280.6,407.6,280.6,407.5,280.6z"/>
		<path class="st3" d="M387.5,304.4c1.1-0.2,0.8,0.8,0.8,1.5c0.1,3.5,0.2,7,0.2,10.6c0,1.5,0.5,2.6,1.4,3.8
			c6.9,8.8,13.7,17.7,20.5,26.6c1.6,2,1.6,2-1,2.5c-22.5,3.8-45.1,7.6-67.6,11.5c-1.6,0.2-2,0.1-1.4-1.6c0.2-0.8,0.3-1.9-0.3-2.5
			c-1.4-1.1-1.2-2.5-1-4.2c0.2-1.8,0-3.4-2-4c-0.7-0.2-0.8-0.7-0.5-1.3c1-2.1,0.4-3.9-0.9-5.7c-1.3-1.7-1.6-3.4-0.3-5.6
			c3.1-5.8,2-11.7-1.1-17.3c-1.2-2.1-1.1-2.5,0.7-4.1c4.5-4.2,10-5.1,15.6-5.6c11.9-1.3,23.9-2.8,35.8-4.2
			C386.8,304.5,387.1,304.5,387.5,304.4z"/>
		<path class="st3" d="M357.6,427.9c-0.5-0.7-0.4-1.4-0.4-2c0.2-4-1.2-7.4-3.4-10.6c-1.6-2.4-2.9-4.9-4.6-7.7
			c49.9-8.8,99.6-17.6,149.6-26.4c-1.2,5.4-2.5,10.6-3.6,15.7c-0.3,1.4-1.5,1.1-2.2,1.1c-8.9,1.4-17.9,2.7-26.8,4.1
			c-20,3.1-40.1,6.5-60.2,9.3c-10.7,1.6-20.4,6.4-30.5,9.8C369.3,423.3,363.4,425.7,357.6,427.9z"/>
		<path class="st3" d="M293.5,438.5c-1.5-2.1-2.5-4.1-4.1-5.7c-10.6-11.2-23.5-15.7-38.5-14.5c-8.2,0.7-15.7,3.4-22.9,7.4
			c-1.6,0.8-3.2,1.6-4.7,2.5c-1.6,0.9-2.1,0-2.1-1.4c0-1.8,0.6-3.6,1.1-5.3c0.8-2.9,1-5.6-2.3-7.3c-0.9-0.4-0.9-1.3-0.7-2.1
			c0.7-3.2-0.3-5.8-2.2-8.3c-1.6-2-0.9-4.3-0.7-6.5c0.1-1,1-0.7,1.6-0.7c7.8-1.2,15.5-2.5,23.2-3.7c14.8-2.3,29.6-4.5,44.5-6.9
			c1.4-0.2,1.6,0.1,1.7,1.5c0.7,12.5,1.5,25.1,2.1,37.7c0.2,2.9,1.2,5.6,2,8.3c0.1,0.2,0.2,0.6,0.4,0.7
			C293.9,435.5,293.9,435.5,293.5,438.5z"/>
		<path class="st3" d="M556.2,360.8c-2.9-2.8-5.6-5.3-8.2-7.9c-0.4-0.4-0.3-0.9-0.4-1.5c-1.1-8-4.8-14.7-10.2-20.5
			c-0.7-0.7-1.4-1-2.5-0.9c-3.5,0.4-7,0.7-10.6,1c-1.2,0.1-1.7,0-1.5-1.6c2.1-14.2,4.2-28.5,6.2-42.7c0.3-2.3,0.7-4.6,1-7
			c0.1-1,0.6-1.3,1.5-1.5c5.9-0.8,11.7-1.9,17.7-2.3c0.9-0.1,1.8,0,2.6,0.5c7.5,4.5,11.8,10.6,10.7,20.2
			c-2.3,20.9-4.1,41.9-6.1,62.8C556.4,359.9,556.4,360.2,556.2,360.8z"/>
		<path class="st3" d="M220.1,353.5c0-5.5,0.1-11-0.1-16.4c-0.1-1.9,0.7-2.6,2.1-3.4c12.8-6.2,26.2-7.4,40-6.1
			c2.4,0.2,3.3,1,3.7,3.5c1.3,8.3,2.9,16.5,4.3,24.8c0.6,3-0.1,6.1-0.2,9.2c-0.1,1.2-0.9,1.1-1.6,1.2c-6.9,1-13.7,2-20.6,2.9
			c-8.1,1.1-16.3,2.2-24.4,3.4c-1.6,0.2-2.1-0.1-2.1-1.8c0.1-5.8,0-11.5,0-17.3C220.8,353.5,220.4,353.5,220.1,353.5z"/>
		<path class="st3" d="M334.1,313.6c0.2-3.6-1.1-5.7-2.8-7.7c-1.1-1.4-2.4-2.9-4-3.6c-3.7-1.6-4.5-4.7-4.5-8.4
			c0-2.1-0.2-4.3-0.5-6.3c-0.2-1.1,0.2-1.6,1.3-1.6c6.6-0.7,13.2-1.6,19.8-2c3.1-0.2,6.2,1.2,9.3,1.9c11.1,2.5,22.2,5.2,33.3,7.7
			c1.4,0.3,1.9,0.9,1.9,2.3c-0.1,2.2,0.8,4.9-0.1,6.5c-1,1.6-3.8,1.1-5.9,1.3c-11.5,1.4-23,2.9-34.5,4.1
			C342.6,308.2,338.1,309.5,334.1,313.6z"/>
		<path class="st3" d="M250.7,294c4.3-0.5,8.4-0.9,12.6-1.3c0.8-0.1,1.1,0.6,1.3,1.1c4.4,8.8,8.9,17.4,13.3,26.2
			c0.8,1.6,0.7,3.4,1.1,5.1c1.3,4.9,2.5,9.7,3.8,14.6c1.1,4.2,3.8,7.2,7.1,9.5c2.5,1.7,3.9,3.6,3.5,6.8c-0.2,1.3-0.2,2.9,1.9,2.9
			c0.4,0,0.7,0.2,0.7,0.7c0.1,1.9-0.3,3.8-0.6,5.6c-0.1,0.4-0.5,0.5-0.8,0.5c-6.4,0.7-12.8,1.9-19.1,0.2c-1.2-0.3-1.3-1.1-1.6-2
			c-2.9-9.7-4.2-19.7-5.9-29.6c-0.9-5.4-2.7-10.4-5.2-15.1C258.6,311.1,254.7,302.7,250.7,294z"/>
		<path class="st3" d="M204.3,345.4c3.5,9.4,7.1,18.7,10.6,28.1c0.7,1.6,1.3,2,2.9,1.7c18.3-2.6,36.7-5.2,55.1-7.7
			c2.8-0.4,5.6,0.7,8.3,1.1c0.7,0.1,0.8,0.7,1.1,1.2c1.4,3.5,2.9,7,4.2,10.6c1,2.5,0.7,3.1-2,3.5c-2.8,0.4-5.6,0.8-8.3,1.3
			c-1.3,0.2-1.7-0.2-1.8-1.5c-0.3-3.7-0.7-7.3-1.1-10.9c-0.1-0.8-0.1-1.9-1.2-1.4c-1,0.5-3.1-0.7-2.8,1.9c0.5,3.6,0.8,7.3,1.2,10.9
			c0.2,1.1,0.2,2-1.3,2c-1.5,0.2-1.4-0.7-1.5-1.7c-0.2-3.7-0.3-7.3-0.7-11c-0.1-0.7,0.3-2.2-1.1-1.8c-1.2,0.4-3.5-0.6-3.4,2.1
			c0.2,3.8,0.2,7.6,0.6,11.4c0.2,1.7-0.7,1.9-1.9,2.1c-1.6,0.3-1.3-0.7-1.4-1.7c-0.2-3.6-0.5-7.1-0.8-10.7c-0.1-0.7,0.6-2.3-0.9-1.8
			c-1.2,0.3-3.4-0.4-3.3,2.3c0.3,3.4,0.5,6.7,0.7,10.1c0,0.5,0,1.1,0.1,1.6c0.2,1-0.3,1.2-1.2,1.3c-1.1,0.2-1-0.5-1.1-1.1
			c-0.4-3.8-0.7-7.7-1.1-11.5c-0.1-0.7,0.4-2-0.9-1.6c-1.1,0.3-3-0.3-2.9,2c0.2,3.8,0.6,7.8,0.8,11.6c0.1,0.8,0.2,1.6-1,1.7
			c-1.2,0.2-1.9,0.2-2-1.4c-0.2-3.7-0.7-7.4-1.1-11.1c-0.1-0.7,0.3-2.1-1.1-1.6c-1.1,0.3-2.9-0.2-2.6,2.2c0.4,3.6,0.6,7.1,0.8,10.7
			c0,0.4,0.1,0.9,0.1,1.3c0.1,0.8-0.5,1-1.1,1c-0.7,0.1-0.8-0.4-0.9-0.9c-0.2-2.5-0.4-5.1-0.7-7.7c-0.1-1.1-0.1-2.4-0.3-3.5
			c-0.2-0.8,0.7-2.3-0.9-2.4c-2-0.1-3,1-3,2.9c0.1,3.5,0.2,7,0.4,10.6c0.1,1.2,0.1,2-1.5,2.2c-1.9,0.2-1.3-1.3-1.4-2
			c-0.5-3.4-0.7-7-1.1-10.5c-0.1-0.6,0.5-2.2-1-1.8c-1.1,0.3-3.3-0.2-3,2.4c0.3,3.7,0.5,7.3,0.8,11c0.1,1.1,0.1,2-1.4,2.1
			c-1.6,0.2-1.2-1.1-1.4-1.9c-0.4-3.4-0.7-6.9-1.2-10.2c-0.1-0.8,0.6-2.6-1.4-2c-1.3,0.3-3.4-0.3-2.9,2.6c0.6,3.4,0.7,7,1.1,10.5
			c0.2,1.6-0.3,2.2-1.7,2.2c-1.6,0-3.2,0.7-5,0.2c-1.1-0.3-1.5-0.7-1.7-1.6c-3.4-12.3-6.7-24.5-10-36.7
			C202,352.4,203.7,348.9,204.3,345.4z"/>
		<path class="st3" d="M454.6,405.8c7.9-1.2,15.7-2.4,23.6-3.6c4.7-0.7,9.5-1.4,14.2-2.2c1.4-0.2,2-0.2,1.6,1.6
			c-2.9,12.6-5.9,25.3-8.8,38c-0.3,1.2-0.7,1.6-2,1.6c-5.8-0.2-10.6-2.4-13.7-7.6c-5.5-8.8-9.9-18.2-15-27.2
			C454.5,406.2,454.6,406.1,454.6,405.8z"/>
		<path class="st4" d="M319.3,270.7c4.8,1.4,9.7,2.6,14.5,4.2c3.8,1.2,7.4,0.1,11.1-0.3c12.2-1.4,24.3-3,36.4-4.5
			c0.7-0.1,1.4-0.1,2,0.5c6,6.9,12,13.7,18.2,20.8c-4.2,1-7.9,2.2-12.3,1.1c-14.2-3.6-28.5-6.7-42.8-10.1c-1.4-0.3-2.7-0.5-4.2-0.3
			c-6.1,0.7-12.4,1.3-18.6,2c-0.7,0.1-1.6,0.4-1.6-1c0.1-4.3-1-8.3-3.2-12.1C319.1,271,319.1,270.8,319.3,270.7z"/>
		<path class="st3" d="M177.9,337.9c-3-34.9-6.1-69.6-9.2-104.7c1.1,1.6,1.2,3.2,1.7,4.7c6.1,19.5,12.1,38.9,18.1,58.4
			c0.7,2.5,0.7,2.5-1.7,2.8c-0.8,0.1-1.7,0.2-2.5,0.3c-0.6,0.1-1.1,0.1-1,1c0.2,0.7,0.6,0.9,1.2,0.8c1.2-0.2,2.5-0.2,3.8-0.4
			c1.1-0.2,1.5,0.2,1.6,1.3c0.6,7.3,1.1,14.6,1.8,21.8c0.2,1.4-0.2,2.2-1.6,2.8c-5.1,2.3-8.8,6.2-11.6,11.2
			C178.4,338,178.2,337.9,177.9,337.9z"/>
		<path class="st3" d="M402,293.2c-0.2,4.3-0.2,4.3,3.8,3.8c2.2-0.2,4.3-0.4,6.5-0.7c1.6-0.2,2.2,0.2,2.2,2c0,5.2,0.2,10.6,0.3,15.8
			c0.2,11.3,0.5,22.5,0.8,33.9c-1,0-1.2-0.8-1.6-1.3c-7.2-9.3-14.4-18.7-21.6-27.9c-0.7-0.8-1.1-1.6-1.1-2.7
			c-0.1-6.5-0.2-13-0.5-19.6c-0.1-1.3,0.1-2,1.6-1.5c1.6,0.6,3.2-0.3,4.7-0.6C398.8,294.1,400.3,293.7,402,293.2z"/>
		<path class="st3" d="M264.3,326c-3.5-0.2-6.7-0.4-9.9-0.6c-11.6-0.7-22.7,1.6-33.1,6.8c-1.6,0.7-2,0.4-2.5-1.1
			c-1.7-4.7-3.5-9.4-5.3-14.1c-0.2-0.7-0.8-1.4,0.3-2c8.1-4.1,16.4-7.8,25.7-7.2c5.2,0.3,10.4,1.1,15.6,1.8c0.6,0.1,1.1,0.3,1.4,0.9
			C259,315.5,261.5,320.7,264.3,326z"/>
		<path class="st3" d="M526,395.1c-3.2,4.7-6.3,9.2-9.4,13.7c-4.7,6.9-9.5,13.7-14.1,20.6c-2.2,3.3-4.8,6.1-7.4,9
			c-2,2.3-4.8,2.1-7.5,2.4c-1.1,0.1-0.6-0.9-0.4-1.4c1.5-6.3,2.9-12.7,4.3-19c1.5-6.4,2.9-12.8,4.4-19.2c0.2-1,0.3-1.9,1.7-2.1
			c9-1.3,17.9-2.7,26.8-4C524.9,395.1,525.3,395.1,526,395.1z"/>
		<path class="st4" d="M404.5,291.9c-7-7.9-13.9-15.8-20.9-23.6c-2.3-2.6-4.5-5.2-6.9-7.8c-0.7-0.7-0.9-1.4-0.9-2.4
			c0.3-7.9,0.6-16,0.9-23.9c1,0,1.2,0.7,1.6,1.2c8.3,9.5,16.7,19.1,25.1,28.6c0.9,1.1,1.3,2,1.3,3.5c-0.1,8.1-0.1,16.2-0.1,24.4
			C404.7,292.1,404.6,292.1,404.5,291.9z"/>
		<path class="st3" d="M546.4,353.1c0.7,6.3-1,12.1-3.8,17.7c-0.7,1.4-1.6,2-3.1,2c-3.8,0.3-7.8,0.8-11.6,1.3
			c-1.5,0.2-1.6-0.2-1.4-1.6c1.7-8.9,1.7-17.8-0.7-26.5c-0.7-2.8-1.8-5.4-3.9-7.4c-0.8-0.7-0.2-1.3-0.2-2c-0.2-4,2.1-4.7,5.3-4.6
			c1.6,0.1,3.2,0,4.7-0.4c3.2-0.9,5.2,0.4,7.1,3c3.6,4.9,6.3,10.2,7.3,16.4C546.2,351.8,546.3,352.4,546.4,353.1z"/>
		<path class="st3" d="M334.5,324.3c-0.6-0.7-1.1-1.6-1.6-2.3c-2.9-4.1-6.8-6.3-11.7-6.7c-4.5-0.3-8.9,0-13.3,0.5
			c-2.6,0.3-4.9,1.7-7.2,3.1c-0.9,0.5-1.4,0.9-1.6-0.6c-0.7-4.5-3.7-8-5.2-12.2c-0.4-1.1-0.9-0.9-1.6-0.3c-0.7,0.6-1.6,1.1-2.2,1.7
			c-1.5,1.3-4.3,1.9-2.7,5.1c0.9,1.9,0.9,4.3,3.2,5.3c0.3,0.2,0.4,0.3,0.5,0.6c1.1,2.5,0.7,5.6-1.4,7.6c-2.6,2.6-4.7,5.6-5.7,9.6
			c-1.4-4.9-2.8-9.5-3.6-14.4c-0.2-1.7,0.1-3.3,0.7-4.9c2.5-5.7,6.5-9.8,12.2-12.2c5.7-2.5,11.4-4.9,17.6-5.5
			c8.8-0.8,15.2,3.6,20.5,10.3c1.2,1.6,1.2,3.4,0.7,5.2c-0.7,2.1-0.5,3.9,1.1,5.6C334.1,321.1,334.5,322.5,334.5,324.3z"/>
		<path class="st3" d="M519.3,382.1c3.9,0.2,4.1,0.2,5.3-3.3c0.8-2.5,2.2-3.3,4.6-3.4c3.9-0.2,7.9-0.9,11.8-1.3
			c1.1-0.1,1.6-0.6,2.1-1.5c2.6-4.6,4.3-9.5,4.6-14.9c0-0.7,0.1-1.2,0.2-2.4c2.9,2.7,5.3,5.2,7.9,7.5c0.6,0.6,0.3,1.2,0.2,1.9
			c-0.7,7-1.4,14.1-2,21.1c-0.2,1.8-0.7,2.6-2.5,2.9c-7.1,1.1-14.2,2.4-21.4,3.6c-0.7,0.2-1.5,0.3-2.1-0.4
			C525.2,388.7,522.4,385.6,519.3,382.1z"/>
		<path class="st3" d="M200.7,394.4c3.7,1.1,7.2,0.7,10.7,1c2.4,0.2,3,0.7,2.8,3.3c-0.2,2.9,0.3,5.4,2.2,7.5
			c1.2,1.5,1.4,3.2,1.1,4.9c-0.3,2.2,0,4,2.2,5.1c1.3,0.7,1.4,1.9,1.1,3.2c-0.4,1.9-0.9,3.8-1.4,5.7c-0.2,1-0.5,2.2,0.1,3
			c1.3,1.8,0.2,2.6-0.9,3.7c-2.7,2.6-5.5,5.3-8.1,8.1c-1.1,1.1-1.6,0.9-2.5,0c-0.7-0.7-1-1.4-1.3-2.2c-2.5-5.5-3-11.4-3.5-17.3
			C202.4,411.9,201.6,403.3,200.7,394.4z"/>
		<path class="st3" d="M283.9,368.9c3.9-0.4,7.6-0.9,11.4-1.2c1.6-0.2,2.8,1.6,2.6,3.4c-0.2,2.2,0.2,4.3,1.4,6.3
			c0.3,0.5,0.2,1,0.2,1.5c-0.2,0.7-0.2,1.4,0.1,1.9c0.7,1,1,1.9,0.2,3.1c-0.6,0.9,0.1,1.9,0.9,2.5c0.7,0.5,1.5,0.8,2.3,1.3
			c-0.2,0.2-0.4,0.5-0.7,0.6c-2.9,1.6-3,2.9-0.4,5.2c0.5,0.5,2,0.8,0.5,2c-3.3,2.4-3.3,2.6-0.2,5.4c-0.3,0.2-0.7,0.3-0.9,0.4
			c-2.4,1-2.7,2.1-1.4,4.3c0.5,0.8,1.5,1.5-0.3,2.1c-1.5,0.5-1.2,2-0.7,3.2c0.7,1.6,1.2,3.1,1.1,4.8c-0.2,1.5-0.2,2.8-1.7,3.8
			c-1.4,0.9-1.1,2.5-1.1,4c0.1,0.6,0.2,1.6,0.1,1.6c-2.9,1.1-1.2,3.4-1.3,5.2c0,0.8,0.7,2-0.5,2.2c-1.1,0.2-2.2,0.2-2.9-1.5
			c-1.8-5.1-1.5-10.4-1.8-15.6c-0.7-11-1.3-21.9-1.9-32.8c-0.2-2.4-1.3-4.3-2-6.4C285.9,373.8,284.9,371.4,283.9,368.9z"/>
		<path class="st3" d="M207.4,307.9c3.6,6.4,5.3,12.9,8,19.1c2.2,5.1,3,10.2,3,15.7c0.1,9.4,0.6,18.8,0.8,28.2c0,0.8,0.7,2-0.9,2.3
			c-1.4,0.3-1.8-0.5-2.2-1.6c-3.5-9.3-7-18.7-10.6-28c-0.7-1.9-0.4-3.8-0.3-5.6c0.6-9.2,1.1-18.4,1.7-27.6
			C207,309.8,207.2,309,207.4,307.9z"/>
		<path class="st3" d="M255,307.6c-4.6-0.6-8.8-1.1-13.2-1.6c-9.8-1.1-18.7,2-27.3,6.5c-2,1.1-2.7,0.6-3.5-1.3
			c-1.8-4-3.8-8-5.8-12.2c5.2-0.6,10.1-1.2,15.1-1.7c8.9-1,17.8-1.9,26.8-2.9c1.3-0.2,1.9,0.2,2.4,1.4
			C251.3,299.6,253.1,303.5,255,307.6z"/>
		<path class="st3" d="M526.3,393c-6,0.9-11.5,1.8-16.9,2.6c-3.6,0.6-7.3,1.1-10.9,1.7c-1.2,0.2-1.7,0-1.3-1.4
			c1.1-4.5,2.1-9.1,3.2-13.7c0.2-0.9,0.5-1.4,1.5-1.5c3.7-0.4,7.4-0.9,11.1-1.4c0.7-0.1,1.4-0.1,2,0.6
			C518.6,384.2,522.3,388.3,526.3,393z"/>
		<path class="st3" d="M205.6,305.3c-0.4,5.8-0.8,11.5-1.1,17.3c-0.1,1.1-0.3,1.6-1.5,1.5c-2.6-0.1-5.2,0.2-7.8,0.9
			c-1.1,0.2-1.3-0.1-1.4-1.1c-0.7-7.3-1.4-14.6-2.1-21.8c-0.1-1.1,0.1-1.7,1.4-1.8c2.5-0.2,5.1-0.4,7.6-0.8c2-0.3,3.2,0.1,3.8,2.2
			C204.8,302.8,205.9,303.8,205.6,305.3z"/>
		<path class="st3" d="M343.4,408.2c2.7-0.8,4.4-0.1,5.6,2.5c0.8,1.9,1.9,3.6,3.1,5.2c2.4,3.3,3.5,6.9,3.4,11c0,1.5-0.4,2-1.6,2.5
			c-3.5,1.4-7,2.5-10.8,2.9c-0.7,0.1-1.5,0.7-1.8-0.2c-0.2-0.8-0.7-1.8,0.2-2.7c1.3-1.2,1.3-2.7,0.8-4.3c-0.4-1.6-0.4-3.1,0.7-4.6
			c0.7-1,1.1-2.4,0.2-3.3c-1.1-1.4-0.4-2.3,0.3-3.4C344.9,411.5,344.9,410.7,343.4,408.2z"/>
		<path class="st4" d="M355,235.6c4.3-0.4,8.2-0.7,12.1-1.1c1.9-0.2,3.8-0.3,5.7-0.5c0.9-0.1,1.2,0.2,1.2,1.2
			c-0.2,6.9-0.5,13.7-0.7,21.2C367,249.2,361.1,242.6,355,235.6z"/>
		<path class="st4" d="M450.3,256.2c-0.2-1.5,0.3-2,1.8-2.2c17.2-2.5,34.3-5.1,51.4-7.7c1.2-0.2,3.3,2.3,2.8,3.4
			c-0.2,0.7-1,0.4-1.5,0.5c-10.6,1.5-21.2,2.9-31.7,4.3c-7.1,1-14.2,1.9-21.3,2.9C451,257.6,449.9,258,450.3,256.2z"/>
		<path class="st3" d="M333.2,336.2c-0.7-4.4-2.5-7.7-5-10.6c-2.1-2.5-4.9-3.8-7.9-4.2c-6.2-0.6-12.4-0.2-17.8,3.4
			c-0.4,0.3-1.3,1.4-1.6,0.2c-0.4-1.2-1.7-2.8-0.2-3.9c2-1.5,4.2-2.9,6.6-3.3c4.6-0.7,9.2-1.1,13.7-0.7c6.5,0.6,10.1,4.8,13.1,10.2
			C335.8,330.5,334.9,333,333.2,336.2z"/>
		<path class="st3" d="M557.8,365c3.6,3.1,6.7,6.1,9.4,9.6c1.6,2.1,1,6.1-1.1,7.9c-2.8,2.2-5.6,4.5-9.2,5.2
			c-0.8,0.2-1.4,0.3-1.3-0.9C556.4,379.6,557,372.5,557.8,365z"/>
		<path class="st3" d="M291.3,347.7c-8.7-4.5-6.9-15.2,0.8-21c0.3,1.4,0.5,2.7,1.6,3.7c0.5,0.4,0.3,0.9-0.1,1.3
			c-3.8,3.9-3.9,8.6-2.5,13.6C291.3,345.9,291.7,346.8,291.3,347.7z"/>
		<path class="st3" d="M299.3,329.4c-0.1,0.7-0.7,0.8-1.1,1.2c-0.6,0.5-1.1,0.6-1.6,0c-1.1-1.2-2.3-2.5-2.5-4.4
			c-0.3-2.9-0.8-5.7-1.2-8.7c-0.1-0.8-0.2-1.3-1.3-1.6c-2.1-0.5-1.9-2.8-2.5-4.4c-0.5-1.3,0.8-1.6,1.4-2c2-1.7,2.1-1.6,3.3,0.7
			c0.6,1.2,1,2.5,1.1,3.9c0.4,5.2,0.4,10.5,4.1,14.7C299.1,329,299.2,329.3,299.3,329.4z"/>
		<path class="st4" d="M537.4,246c-3.8,0.6-7.7,1.1-11.5,1.6c-1.7,0.2-3.5,0.5-5.2,0.7c-0.6,0.1-1.7,0.7-1.6-0.4
			c0.1-1.1-0.5-3,1.2-3.3c4.2-0.6,8.4-1,12.7-1.1c1.6,0,3,1.3,4.6,2C537.4,245.6,537.4,245.8,537.4,246z"/>
		<path class="st4" d="M420.9,261.6c1.8-1.8,3.3-4,6.1-4.1c2-0.1,3.9-0.3,5.8-0.9c2.5-0.7,3.6,0.2,4,2.8
			C431.6,260.1,426.3,260.8,420.9,261.6z"/>
		<path class="st4" d="M546,274.4c-0.6-0.2-1.6,0.7-1.7-0.3c-0.2-1.2,0-2.6,0-3.9c0-0.1,0.1-0.2,0.1-0.2c1.6,0.2,2.9,1.1,4.3,1.7
			c0.7,0.2,0.7,1,0.8,1.6c0,0.7-0.5,0.8-1,0.8C547.6,274.3,546.9,274.3,546,274.4z"/>
		<path class="st3" d="M345.7,398.1c0.2,2,0.5,3.8,0.7,5.5c0.4,2.8,1.1,3-2.5,2.9c0.2-1.2,1.6-2.1,1-3.5c-0.4-1.2-1.6-1.8-2.4-2.9
			C343.5,399.5,344.4,398.9,345.7,398.1z"/>
		<path class="st3" d="M345,393.9c-1-0.6-2.2-0.7-2.3-1.6c-0.1-0.7,1-1.1,1.8-1.3C344.9,391.8,344.9,392.7,345,393.9z"/>
		<path class="st3" d="M404.5,291.9c0.1,0,0.2,0,0.3,0c0,0.2,0.1,0.4,0.1,0.7c0,0.9,0.5,1.9-0.3,2.6c-0.1,0.1-0.5,0-0.6-0.1
			c-0.4-1-0.1-2,0.4-2.8C404.6,292.3,404.5,292,404.5,291.9z"/>
		<path class="st3" d="M297.8,322.7c-0.7-1.2-0.7-2.6-0.7-3.9c0.8,1.1,0.9,2.3,1.1,3.5C298,322.4,298,322.7,297.8,322.7z"/>
		<path class="st3" d="M272.1,363.8c0.3,0.7,0.6,1.2,0.3,1.8c0,0.1-0.5,0.2-0.5,0.1C271.4,365,271.8,364.4,272.1,363.8z"/>
		<path class="st3" d="M297.8,322.7c0.2-0.2,0.2-0.2,0.4-0.4c-0.1,0.9,0.7,1.7,0.3,3.1C298,324.3,297.8,323.5,297.8,322.7z"/>
		<path class="st3" d="M516.9,378.5c0.5-0.1,0.6,0.2,0.6,0.5c0,0.2-0.2,0.6-0.2,0.6c-0.3-0.1-0.7-0.2-0.7-0.7
			C516.7,378.8,516.8,378.6,516.9,378.5z"/>
	</g>
</g>
</svg>
