<?xml version="1.0" encoding="utf-8"?>
<!-- Generator: Adobe Illustrator 23.0.0, SVG Export Plug-In . SVG Version: 6.00 Build 0)  -->
<svg version="1.1" xmlns="http://www.w3.org/2000/svg" xmlns:xlink="http://www.w3.org/1999/xlink" x="0px" y="0px"
	 viewBox="0 0 800 800" style="enable-background:new 0 0 800 800;" xml:space="preserve">
<style type="text/css">
	.st0{fill:#333333;}
	.st1{opacity:0.4;clip-path:url(#SVGID_2_);}
	.st2{fill:#12A65A;}
</style>
<g id="Layer_2">
	<circle class="st0" cx="399.8" cy="400" r="400"/>
</g>
<g id="Layer_1_copy">
	<g>
		<defs>
			<circle id="SVGID_1_" cx="399.8" cy="400" r="400"/>
		</defs>
		<clipPath id="SVGID_2_">
			<use xlink:href="#SVGID_1_"  style="overflow:visible;"/>
		</clipPath>
		<path class="st1" d="M810.6,749.8c5.5-6.5,10.8-13.6,16.1-20.6c5.9-7.8,11.9-9.7,18.4-6.8c0.1,0.1,0.3,0.3,0.4,0.4
			c0.3,0.4,0.7,0.7,1,1c0.3,0.4,0.7,0.7,1,1c0.3,0.4,0.7,0.7,1,1c0.3,0.4,0.7,0.7,1,1c0.3,0.4,0.7,0.7,1,1c0.3,0.4,0.7,0.7,1,1
			c0.3,0.4,0.7,0.7,1,1c0.3,0.4,0.7,0.7,1,1c0.3,0.4,0.7,0.7,1,1c0.3,0.4,0.7,0.7,1,1c0.3,0.4,0.7,0.7,1,1c0.3,0.4,0.7,0.7,1,1
			c0.3,0.4,0.7,0.7,1,1c0.3,0.4,0.7,0.7,1,1c0.3,0.4,0.7,0.7,1,1c0.3,0.4,0.7,0.7,1,1c0.3,0.4,0.7,0.7,1,1c0.3,0.4,0.7,0.7,1,1
			c0.3,0.4,0.7,0.7,1,1c0.3,0.4,0.7,0.7,1,1c0.3,0.4,0.7,0.7,1,1c0.3,0.4,0.7,0.7,1,1c0.3,0.4,0.7,0.7,1,1c0.3,0.4,0.7,0.7,1,1
			c0.3,0.4,0.7,0.7,1,1c0.3,0.4,0.7,0.7,1,1c0.3,0.4,0.7,0.7,1,1c0.3,0.4,0.7,0.7,1,1c0.3,0.4,0.7,0.7,1,1c0.3,0.4,0.7,0.7,1,1
			c0.3,0.4,0.7,0.7,1,1c0.3,0.4,0.7,0.7,1,1c0.3,0.4,0.7,0.7,1,1c0.3,0.4,0.7,0.7,1,1c0.3,0.4,0.7,0.7,1,1c0.3,0.4,0.7,0.7,1,1
			c6,6.3,11.9,6.5,18.1-2.8c0-4.8,0-9.6,0.1-14.5c-8.7-13.7-18.1-25.8-28.2-35.8c-0.3-0.3-0.7-0.7-1-1c-0.3-0.3-0.7-0.7-1-1
			c-0.3-0.3-0.7-0.7-1-1c-0.3-0.3-0.7-0.7-1-1c-0.3-0.3-0.7-0.7-1-1c-0.3-0.3-0.7-0.7-1-1c-0.3-0.3-0.7-0.7-1-1
			c-0.3-0.3-0.7-0.7-1-1c-0.3-0.3-0.7-0.7-1-1c-0.3-0.3-0.7-0.7-1-1c-0.3-0.3-0.7-0.7-1-1c-0.3-0.3-0.7-0.7-1-1
			c-0.3-0.3-0.7-0.7-1-1c-0.3-0.3-0.7-0.7-1-1c-0.3-0.3-0.7-0.7-1-1c-0.3-0.3-0.7-0.7-1-1c-0.3-0.3-0.7-0.7-1-1
			c-0.3-0.3-0.7-0.7-1-1c-0.3-0.3-0.7-0.7-1-1c-0.3-0.3-0.7-0.7-1-1c-0.3-0.3-0.7-0.7-1-1c-0.3-0.3-0.7-0.7-1-1
			c-0.3-0.3-0.7-0.7-1-1c-0.3-0.3-0.7-0.7-1-1c-0.3-0.3-0.7-0.7-1-1c-0.3-0.3-0.7-0.7-1-1c-0.3-0.3-0.7-0.7-1-1
			c-0.3-0.3-0.7-0.7-1-1c-0.3-0.3-0.7-0.7-1-1c-0.3-0.3-0.7-0.7-1-1c-0.3-0.3-0.7-0.7-1-1c-0.3-0.3-0.7-0.7-1-1
			c-0.3-0.3-0.7-0.7-1-1c-0.3-0.3-0.7-0.7-1-1c-0.3-0.3-0.7-0.7-1-1c-0.3-0.3-0.7-0.7-1-1c-0.3-0.3-0.7-0.7-1-1
			c-0.3-0.3-0.7-0.7-1-1c-0.3-0.3-0.7-0.7-1-1c-0.3-0.3-0.7-0.7-1-1c-0.3-0.3-0.7-0.7-1-1c-0.3-0.3-0.7-0.7-1-1
			c-0.3-0.3-0.7-0.7-1-1c-0.3-0.3-0.7-0.7-1-1c-0.3-0.3-0.7-0.7-1-1c-0.3-0.3-0.7-0.7-1-1c-0.3-0.3-0.7-0.7-1-1
			c-0.3-0.3-0.7-0.7-1-1c-0.3-0.3-0.7-0.7-1-1c-0.3-0.3-0.7-0.7-1-1c-0.3-0.3-0.7-0.7-1-1c-0.3-0.3-0.7-0.7-1-1
			c-0.3-0.3-0.7-0.7-1-1c-0.3-0.3-0.7-0.7-1-1c-0.3-0.3-0.7-0.7-1-1c-0.3-0.3-0.7-0.7-1-1c-0.3-0.3-0.7-0.7-1-1
			c-0.3-0.3-0.7-0.7-1-1c-0.3-0.3-0.7-0.7-1-1c-0.3-0.3-0.7-0.7-1-1c-0.3-0.3-0.7-0.7-1-1c-0.3-0.3-0.7-0.7-1-1
			c-0.3-0.3-0.7-0.7-1-1c-0.3-0.3-0.7-0.7-1-1c-0.3-0.3-0.7-0.7-1-1c-0.3-0.3-0.7-0.7-1-1c-0.3-0.3-0.7-0.7-1-1
			c-0.3-0.3-0.7-0.7-1-1c-0.3-0.3-0.7-0.7-1-1c-0.3-0.3-0.7-0.7-1-1c-0.3-0.3-0.7-0.7-1-1c-0.3-0.3-0.7-0.7-1-1
			c-0.3-0.3-0.7-0.7-1-1c-0.3-0.3-0.7-0.7-1-1c-0.3-0.3-0.7-0.7-1-1c-0.3-0.3-0.6-0.6-0.8-0.8c4.2-1.9,8.4-5.2,12.6-10.1
			c6.8-7.8,13.2-16.3,19.7-24.6c5.5-6.9,11.1-8.6,17.2-5.6c0.1,0.1,0.3,0.3,0.4,0.4c0.3,0.4,0.7,0.7,1,1c0.3,0.4,0.7,0.7,1,1
			c0.3,0.4,0.7,0.7,1,1c0.3,0.4,0.7,0.7,1,1c0.3,0.4,0.7,0.7,1,1c0.3,0.4,0.7,0.7,1,1c0.3,0.4,0.7,0.7,1,1c0.3,0.4,0.7,0.7,1,1
			c0.3,0.4,0.7,0.7,1,1c0.3,0.4,0.7,0.7,1,1c0.3,0.4,0.7,0.7,1,1c0.3,0.4,0.7,0.7,1,1c0.3,0.4,0.7,0.7,1,1c0.3,0.4,0.7,0.7,1,1
			c0.3,0.4,0.7,0.7,1,1c0.3,0.4,0.7,0.7,1,1c0.3,0.4,0.7,0.7,1,1c0.3,0.4,0.7,0.7,1,1c0.3,0.4,0.7,0.7,1,1c0.3,0.4,0.7,0.7,1,1
			c0.3,0.4,0.7,0.7,1,1c0.3,0.4,0.7,0.7,1,1c0.3,0.4,0.7,0.7,1,1c0.3,0.4,0.7,0.7,1,1c0.3,0.4,0.7,0.7,1,1c0.3,0.4,0.7,0.7,1,1
			c0.3,0.4,0.7,0.7,1,1c0.3,0.4,0.7,0.7,1,1c0.3,0.4,0.7,0.7,1,1c0.3,0.4,0.7,0.7,1,1c0.3,0.4,0.7,0.7,1,1c0.3,0.4,0.7,0.7,1,1
			c0.3,0.4,0.7,0.7,1,1c0.3,0.4,0.7,0.7,1,1c0.3,0.4,0.7,0.7,1,1c0.3,0.4,0.7,0.7,1,1c6.3,6.7,12,6,18.1-3.7c0-8.4,0-16.9,0-25.2
			c-0.3,0-0.7,0-1,0c0-0.3,0-0.7,0-1c-0.3,0-0.7,0-1,0c0-0.3,0-0.7,0-1c-0.3,0-0.7,0-1,0c0-0.3,0-0.7,0-1c-0.3,0-0.7,0-1,0
			c0-0.3,0-0.7,0-1c-0.3,0-0.7,0-1,0c0-0.3,0-0.7,0-1c-0.3,0-0.7,0-1,0c0-0.3,0-0.7,0-1c-0.3,0-0.7,0-1,0c0-0.3,0-0.7,0-1
			c-0.3,0-0.7,0-1,0c0-0.3,0-0.7,0-1c-0.3,0-0.7,0-1,0c0-0.3,0-0.7,0-1c-0.3,0-0.7,0-1,0c0-0.3,0-0.7,0-1c-0.3,0-0.7,0-1,0
			c0-0.3,0-0.7,0-1c-0.3,0-0.7,0-1,0c0-0.3,0-0.7,0-1c-0.3,0-0.7,0-1,0c0-0.3,0-0.7,0-1c-0.3,0-0.7,0-1,0c0-0.3,0-0.7,0-1
			c-0.3,0-0.7,0-1,0c0-0.3,0-0.7,0-1c-0.3,0-0.7,0-1,0c0-0.3,0-0.7,0-1c-0.3,0-0.7,0-1,0c0-0.3,0-0.7,0-1c-0.3,0-0.7,0-1,0
			c0-0.3,0-0.7,0-1c-0.3,0-0.7,0-1,0c0-0.3,0-0.7,0-1c-0.3,0-0.7,0-1,0c0-0.3,0-0.7,0-1c-0.3,0-0.7,0-1,0c0-0.3,0-0.7,0-1
			c-0.3,0-0.7,0-1,0c0-0.3,0-0.7,0-1c-0.3,0-0.7,0-1,0c0-0.3,0-0.7,0-1c-0.3,0-0.7,0-1,0c0-0.3,0-0.7,0-1c-0.3,0-0.7,0-1,0
			c0-0.3,0-0.7,0-1c-0.3,0-0.7,0-1,0c0-0.3,0-0.7,0-1c-0.3,0-0.7,0-1,0c0-0.3,0-0.7,0-1c-0.3,0-0.7,0-1,0c0-0.3,0-0.7,0-1
			c-0.3,0-0.7,0-1,0c0-0.3,0-0.7,0-1c-0.3,0-0.7,0-1,0c0-0.3,0-0.7,0-1c-0.3,0-0.7,0-1,0c0-0.3,0-0.7,0-1c-0.3,0-0.7,0-1,0
			c0-0.3,0-0.7,0-1c-0.3,0-0.7,0-1,0c0-0.3,0-0.7,0-1c-0.3,0-0.7,0-1,0c0-0.3,0-0.7,0-1c-0.3,0-0.7,0-1,0c0-0.3,0-0.7,0-1
			c-0.3,0-0.7,0-1,0c0-0.3,0-0.7,0-1c-0.3,0-0.7,0-1,0c0-0.3,0-0.7,0-1c-0.3,0-0.7,0-1,0c0-0.3,0-0.7,0-1c-0.3,0-0.7,0-1,0
			c0-0.3,0-0.7,0-1c-0.3,0-0.7,0-1,0c0-0.3,0-0.7,0-1c-0.3,0-0.7,0-1,0c0-0.3,0-0.7,0-1c-0.3,0-0.7,0-1,0c0-0.3,0-0.7,0-1
			c-0.3,0-0.7,0-1,0c0-0.3,0-0.7,0-1c-0.3,0-0.7,0-1,0c0-0.3,0-0.7,0-1c-0.3,0-0.7,0-1,0c0-0.3,0-0.7,0-1c-0.3,0-0.7,0-1,0
			c0-0.3,0-0.7,0-1c-0.3,0-0.7,0-1,0c0-0.3,0-0.7,0-1c-0.3,0-0.7,0-1,0c0-0.3,0-0.7,0-1c-0.3,0-0.7,0-1,0c0-0.3,0-0.7,0-1
			c-0.3,0-0.7,0-1,0c0-0.3,0-0.7,0-1c-0.3,0-0.7,0-1,0c0-0.3,0-0.7,0-1c-0.3,0-0.7,0-1,0c0-0.3,0-0.7,0-1c-0.3,0-0.7,0-1,0
			c0-0.3,0-0.7,0-1c-0.3,0-0.7,0-1,0c0-0.3,0-0.7,0-1c-0.3,0-0.7,0-1,0c0-0.3,0-0.7,0-1c-0.3,0-0.7,0-1,0c0-0.3,0-0.7,0-1
			c-0.3,0-0.7,0-1,0c0-0.3,0-0.7,0-1c-0.3,0-0.7,0-1,0c0-0.3,0-0.7,0-1c-0.3,0-0.7,0-1,0c0-0.3,0-0.7,0-1c-0.3,0-0.7,0-1,0
			c0-0.3,0-0.7,0-1c-0.3,0-0.7,0-1,0c0-0.3,0-0.7,0-1c-0.3,0-0.7,0-1,0c0-0.3,0-0.7,0-1c-0.3,0-0.7,0-1,0c0-0.3,0-0.7,0-1
			c-0.3,0-0.7,0-1,0c0-0.3,0-0.7,0-1c-0.3,0-0.7,0-1,0c0-0.3,0-0.7,0-1c-0.3,0-0.7,0-1,0c0-0.3,0-0.7,0-1c-0.3,0-0.7,0-1,0
			c0-0.3,0-0.7,0-1c-0.3,0-0.7,0-1,0c0-0.3,0-0.7,0-1c-0.3,0-0.7,0-1,0c0-0.3,0-0.7,0-1c-0.3,0-0.7,0-1,0c0-0.3,0-0.7,0-1
			c-0.3,0-0.7,0-1,0c0-0.3,0-0.7,0-1c-0.3,0-0.7,0-1,0c0-0.3,0-0.7,0-1c-0.3,0-0.7,0-1,0c0-0.3,0-0.7,0-1c-0.3,0-0.7,0-1,0
			c0-0.3,0-0.7,0-1c-0.3,0-0.7,0-1,0c0-0.3,0-0.7,0-1c-0.3,0-0.7,0-1,0c0-0.3,0-0.7,0-1c-0.3,0-0.7,0-1,0c0-0.3,0-0.7,0-1
			c-0.3,0-0.7,0-1,0c0-0.3,0-0.7,0-1c-0.3,0-0.7,0-1,0c0-0.3,0-0.7,0-1c-0.3,0-0.7,0-1,0c0-0.3,0-0.7,0-1c-0.3,0-0.7,0-1,0
			c0-0.3,0-0.7,0-1c-0.3,0-0.7,0-1,0c0-0.3,0-0.7,0-1c-0.3,0-0.7,0-1,0c0-0.3,0-0.7,0-1c-0.3,0-0.7,0-1,0c0-0.3,0-0.7,0-1
			c-0.3,0-0.7,0-1,0c0-0.3,0-0.7,0-1c-0.3,0-0.7,0-1,0c0-0.3,0-0.7,0-1c-0.3,0-0.7,0-1,0c0-0.3,0-0.7,0-1c-0.3,0-0.7,0-1,0
			c0-0.3,0-0.7,0-1c-0.3,0-0.7,0-1,0c0-0.3,0-0.7,0-1c-0.3,0-0.7,0-1,0c0-0.3,0-0.7,0-1c-0.3,0-0.7,0-1,0c0-0.3,0-0.7,0-1
			c-0.3,0-0.7,0-1,0c0-0.3,0-0.7,0-1c-0.3,0-0.7,0-1,0c0-0.3,0-0.7,0-1c-0.3,0-0.7,0-1,0c0-0.3,0-0.7,0-1c-0.3,0-0.7,0-1,0
			c0-0.3,0-0.7,0-1c-0.3,0-0.7,0-1,0c0-0.3,0-0.7,0-1c-0.3,0-0.7,0-1,0c0-0.3,0-0.7,0-1c-0.3,0-0.7,0-1,0c0-0.3,0-0.7,0-1
			c-0.3,0-0.7,0-1,0c0-0.3,0-0.7,0-1c-0.3,0-0.7,0-1,0c0-0.3,0-0.7,0-1c-0.3,0-0.7,0-1,0c0-0.3,0-0.7,0-1c0,0-0.1,0-0.1,0
			c3.8-2.4,7.7-6,11.7-10.8c4.6-5.5,9.3-11.1,13.6-17.4c6.8-9.8,14-12.8,21.5-10c0.1,0.1,0.1,0.1,0.2,0.2c0.3,0.4,0.7,0.7,1,1
			c0.3,0.4,0.7,0.7,1,1c0.3,0.4,0.7,0.7,1,1c0.3,0.4,0.7,0.7,1,1c0.3,0.4,0.7,0.7,1,1c0.3,0.4,0.7,0.7,1,1c0.3,0.4,0.7,0.7,1,1
			c0.3,0.4,0.7,0.7,1,1c0.3,0.4,0.7,0.7,1,1c0.3,0.4,0.7,0.7,1,1c0.3,0.4,0.7,0.7,1,1c0.3,0.4,0.7,0.7,1,1c0.3,0.4,0.7,0.7,1,1
			c0.3,0.4,0.7,0.7,1,1c0.3,0.4,0.7,0.7,1,1c0.3,0.4,0.7,0.7,1,1c0.3,0.4,0.7,0.7,1,1c0.3,0.4,0.7,0.7,1,1c0.3,0.4,0.7,0.7,1,1
			c0.3,0.4,0.7,0.7,1,1c0.3,0.4,0.7,0.7,1,1c0.3,0.4,0.7,0.7,1,1c0.3,0.4,0.7,0.7,1,1c0.3,0.4,0.7,0.7,1,1c0.3,0.4,0.7,0.7,1,1
			c0.3,0.4,0.7,0.7,1,1c0.3,0.4,0.7,0.7,1,1c0.3,0.4,0.7,0.7,1,1c0.3,0.4,0.7,0.7,1,1c0.3,0.4,0.7,0.7,1,1c0.3,0.4,0.7,0.7,1,1
			c0.3,0.4,0.7,0.7,1,1c0.3,0.4,0.7,0.7,1,1c0.3,0.4,0.7,0.7,1,1c0.3,0.4,0.7,0.7,1,1c0.3,0.4,0.7,0.7,1,1c5.9,6.2,11.8,6.3,18-2
			c0-4.8,0-9.6,0-14.5c-8-14.2-16.9-25.9-26.7-35.4c-0.3-0.3-0.7-0.7-1-1c-0.3-0.3-0.7-0.7-1-1c-0.3-0.3-0.7-0.7-1-1
			c-0.3-0.3-0.7-0.7-1-1c-0.3-0.3-0.7-0.7-1-1c-0.3-0.3-0.7-0.7-1-1c-0.3-0.3-0.7-0.7-1-1c-0.3-0.3-0.7-0.7-1-1
			c-0.3-0.3-0.7-0.7-1-1c-0.3-0.3-0.7-0.7-1-1c-0.3-0.3-0.7-0.7-1-1c-0.3-0.3-0.7-0.7-1-1c-0.3-0.3-0.7-0.7-1-1
			c-0.3-0.3-0.7-0.7-1-1c-0.3-0.3-0.7-0.7-1-1c-0.3-0.3-0.7-0.7-1-1c-0.3-0.3-0.7-0.7-1-1c-0.3-0.3-0.7-0.7-1-1
			c-0.3-0.3-0.7-0.7-1-1c-0.3-0.3-0.7-0.7-1-1c-0.3-0.3-0.7-0.7-1-1c-0.3-0.3-0.7-0.7-1-1c-0.3-0.3-0.7-0.7-1-1
			c-0.3-0.3-0.7-0.7-1-1c-0.3-0.3-0.7-0.7-1-1c-0.3-0.3-0.7-0.7-1-1c-0.3-0.3-0.7-0.7-1-1c-0.3-0.3-0.7-0.7-1-1
			c-0.3-0.3-0.7-0.7-1-1c-0.3-0.3-0.7-0.7-1-1c-0.3-0.3-0.7-0.7-1-1c-0.3-0.3-0.7-0.7-1-1c-0.3-0.3-0.7-0.7-1-1
			c-0.3-0.3-0.7-0.7-1-1c-0.3-0.3-0.7-0.7-1-1c-0.3-0.3-0.7-0.7-1-1c-0.3-0.3-0.7-0.7-1-1c-0.3-0.3-0.7-0.7-1-1
			c-0.3-0.3-0.7-0.7-1-1c-0.3-0.3-0.7-0.7-1-1c-0.3-0.3-0.7-0.7-1-1c-0.3-0.3-0.7-0.7-1-1c-0.3-0.3-0.7-0.7-1-1
			c-0.3-0.3-0.7-0.7-1-1c-0.3-0.3-0.7-0.7-1-1c-0.3-0.3-0.7-0.7-1-1c-0.3-0.3-0.7-0.7-1-1c-0.3-0.3-0.7-0.7-1-1
			c-0.3-0.3-0.7-0.7-1-1c-0.3-0.3-0.7-0.7-1-1c-0.3-0.3-0.7-0.7-1-1c-0.3-0.3-0.7-0.7-1-1c-0.3-0.3-0.7-0.7-1-1
			c-0.3-0.3-0.7-0.7-1-1c-0.3-0.3-0.7-0.7-1-1c-0.3-0.3-0.7-0.7-1-1c-0.3-0.3-0.7-0.7-1-1c-0.3-0.3-0.7-0.7-1-1
			c-0.3-0.3-0.7-0.7-1-1c-0.3-0.3-0.7-0.7-1-1c-0.3-0.3-0.7-0.7-1-1c-0.3-0.3-0.7-0.7-1-1c-0.3-0.3-0.7-0.7-1-1
			c-0.3-0.3-0.7-0.7-1-1c-0.3-0.3-0.7-0.7-1-1c-0.3-0.3-0.7-0.7-1-1c-0.3-0.3-0.7-0.7-1-1c-0.3-0.3-0.7-0.7-1-1
			c-0.3-0.3-0.7-0.7-1-1c-0.3-0.3-0.7-0.7-1-1c-0.3-0.3-0.7-0.7-1-1c-0.3-0.3-0.7-0.7-1-1c-0.3-0.3-0.7-0.7-1-1
			c-0.3-0.3-0.7-0.7-1-1c-0.3-0.3-0.7-0.7-1-1c-0.3-0.3-0.7-0.7-1-1c-0.3-0.3-0.7-0.7-1-1c-0.3-0.3-0.7-0.7-1-1
			c-0.3-0.3-0.7-0.7-1-1c-0.3-0.3-0.7-0.7-1-1c-0.3-0.3-0.7-0.7-1-1c-0.3-0.3-0.7-0.7-1-1c-0.3-0.3-0.7-0.7-1-1
			c-0.3-0.3-0.7-0.7-1-1c-0.3-0.3-0.7-0.7-1-1c-0.3-0.3-0.7-0.7-1-1c-0.3-0.3-0.7-0.7-1-1c-0.3-0.3-0.7-0.7-1-1
			c-0.3-0.3-0.7-0.7-1-1c-0.3-0.3-0.7-0.7-1-1c-0.3-0.3-0.7-0.7-1-1c-0.3-0.3-0.7-0.7-1-1c-0.3-0.3-0.7-0.7-1-1
			c-0.3-0.3-0.7-0.7-1-1c-0.3-0.3-0.7-0.7-1-1c-0.3-0.3-0.7-0.7-1-1c-0.3-0.3-0.7-0.7-1-1c-0.3-0.3-0.7-0.7-1-1
			c-0.3-0.3-0.7-0.7-1-1c-0.3-0.3-0.7-0.7-1-1c-0.3-0.3-0.7-0.7-1-1c-0.3-0.3-0.7-0.7-1-1c-0.3-0.3-0.7-0.7-1-1
			c-0.3-0.3-0.7-0.7-1-1c-0.3-0.3-0.7-0.7-1-1c-0.3-0.3-0.7-0.7-1-1c-0.3-0.3-0.7-0.7-1-1c-0.3-0.3-0.7-0.7-1-1
			c-0.3-0.3-0.7-0.7-1-1c-0.3-0.3-0.7-0.7-1-1c-0.3-0.3-0.7-0.7-1-1c-0.3-0.3-0.7-0.7-1-1c-0.3-0.3-0.7-0.7-1-1
			c-0.3-0.3-0.7-0.7-1-1c-0.3-0.3-0.7-0.7-1-1c-0.3-0.3-0.7-0.7-1-1c-0.3-0.3-0.7-0.7-1-1c-0.3-0.3-0.7-0.7-1-1
			c-0.3-0.3-0.7-0.7-1-1c-0.3-0.3-0.7-0.7-1-1c-0.3-0.3-0.7-0.7-1-1c-0.3-0.3-0.7-0.7-1-1c-0.3-0.3-0.7-0.7-1-1
			c-0.3-0.3-0.7-0.7-1-1c-0.3-0.3-0.7-0.7-1-1c-0.3-0.3-0.7-0.7-1-1c-0.3-0.3-0.7-0.7-1-1c-0.3-0.3-0.7-0.7-1-1
			c-0.3-0.3-0.7-0.7-1-1c-0.3-0.3-0.7-0.7-1-1c-0.3-0.3-0.7-0.7-1-1c-0.3-0.3-0.7-0.7-1-1c-0.3-0.3-0.7-0.7-1-1
			c-0.3-0.3-0.7-0.7-1-1c-0.3-0.3-0.7-0.7-1-1c-0.3-0.3-0.7-0.7-1-1c-0.3-0.3-0.7-0.7-1-1c-0.3-0.3-0.7-0.7-1-1
			c-0.3-0.3-0.7-0.7-1-1c-0.3-0.3-0.7-0.7-1-1c-0.3-0.3-0.7-0.7-1-1c-0.3-0.3-0.7-0.7-1-1c-0.3-0.3-0.7-0.7-1-1
			c-0.3-0.3-0.7-0.7-1-1c-0.3-0.3-0.7-0.7-1-1c-0.3-0.3-0.7-0.7-1-1c-0.3-0.3-0.7-0.7-1-1c-0.3-0.3-0.7-0.7-1-1
			c-0.3-0.3-0.7-0.7-1-1c-0.3-0.3-0.7-0.7-1-1c-0.3-0.3-0.7-0.7-1-1c-0.3-0.3-0.7-0.7-1-1c-0.3-0.3-0.7-0.7-1-1
			c-0.3-0.3-0.7-0.7-1-1c-0.3-0.3-0.7-0.7-1-1c-0.3-0.3-0.7-0.7-1-1c-0.3-0.3-0.7-0.7-1-1c-0.3-0.3-0.7-0.7-1-1
			c-0.3-0.3-0.7-0.7-1-1c-0.3-0.3-0.7-0.7-1-1c-0.3-0.3-0.7-0.7-1-1c-0.3-0.3-0.7-0.7-1-1c-0.3-0.3-0.7-0.7-1-1
			c-0.3-0.3-0.7-0.7-1-1c-0.3-0.3-0.7-0.7-1-1c-0.3-0.3-0.7-0.7-1-1c-0.3-0.3-0.7-0.7-1-1c-0.3-0.3-0.7-0.7-1-1
			c-0.3-0.3-0.7-0.7-1-1c-0.3-0.3-0.7-0.7-1-1c-0.3-0.3-0.7-0.7-1-1c-0.3-0.3-0.7-0.7-1-1c-0.3-0.3-0.7-0.7-1-1
			c-0.3-0.3-0.7-0.7-1-1c-0.3-0.3-0.7-0.7-1-1c-0.3-0.3-0.7-0.7-1-1c-0.3-0.3-0.7-0.7-1-1c-0.3-0.3-0.7-0.7-1-1
			c-0.3-0.3-0.7-0.7-1-1c-0.3-0.3-0.7-0.7-1-1c-0.3-0.3-0.7-0.7-1-1c-0.3-0.3-0.7-0.7-1-1c-0.3-0.3-0.7-0.7-1-1
			c-0.3-0.3-0.7-0.7-1-1c-0.3-0.3-0.7-0.7-1-1c-0.3-0.3-0.7-0.7-1-1c-0.3-0.3-0.7-0.7-1-1c-0.3-0.3-0.7-0.7-1-1
			c-0.3-0.3-0.7-0.7-1-1c-0.3-0.3-0.7-0.7-1-1c-0.3-0.3-0.7-0.7-1-1c-0.3-0.3-0.7-0.7-1-1c-0.3-0.3-0.7-0.7-1-1
			c-0.3-0.3-0.7-0.7-1-1c-0.3-0.3-0.7-0.7-1-1c-0.3-0.3-0.7-0.7-1-1c-0.3-0.3-0.7-0.7-1-1c-0.3-0.3-0.7-0.7-1-1
			c-0.3-0.3-0.7-0.7-1-1c-0.3-0.3-0.7-0.7-1-1c-0.3-0.3-0.7-0.7-1-1c-0.3-0.3-0.7-0.7-1-1c-0.3-0.3-0.7-0.7-1-1
			c-0.3-0.3-0.7-0.7-1-1c-0.3-0.3-0.7-0.7-1-1c-0.3-0.3-0.7-0.7-1-1c-0.3-0.3-0.7-0.7-1-1c-0.3-0.3-0.7-0.7-1-1
			c-0.3-0.3-0.7-0.7-1-1c-0.3-0.3-0.7-0.7-1-1c-0.3-0.3-0.7-0.7-1-1c-0.3-0.3-0.7-0.7-1-1c-0.3-0.3-0.7-0.7-1-1
			c-0.3-0.3-0.7-0.7-1-1c-0.3-0.3-0.7-0.7-1-1c-0.3-0.3-0.7-0.7-1-1c-0.3-0.3-0.7-0.7-1-1c-0.3-0.3-0.7-0.7-1-1
			c-0.3-0.3-0.7-0.7-1-1c-0.3-0.3-0.7-0.7-1-1c-0.3-0.3-0.7-0.7-1-1c-0.3-0.3-0.7-0.7-1-1c-0.3-0.3-0.7-0.7-1-1
			c-0.3-0.3-0.7-0.7-1-1c-0.3-0.3-0.7-0.7-1-1c-0.3-0.3-0.7-0.7-1-1c-0.3-0.3-0.7-0.7-1-1c-0.3-0.3-0.7-0.7-1-1
			c-0.3-0.3-0.7-0.7-1-1c-0.3-0.3-0.7-0.7-1-1c-0.3-0.3-0.7-0.7-1-1c-0.3-0.3-0.7-0.7-1-1c-0.3-0.3-0.7-0.7-1-1
			c-0.3-0.3-0.7-0.7-1-1c-0.3-0.3-0.7-0.7-1-1c-0.3-0.3-0.7-0.7-1-1c-0.3-0.3-0.7-0.7-1-1c-0.3-0.3-0.7-0.7-1-1
			c-0.3-0.3-0.7-0.7-1-1c-0.3-0.3-0.7-0.7-1-1c-0.3-0.3-0.7-0.7-1-1c-0.3-0.3-0.7-0.7-1-1c-0.3-0.3-0.7-0.7-1-1
			c-0.3-0.3-0.7-0.7-1-1c-0.3-0.3-0.7-0.7-1-1c-0.3-0.3-0.7-0.7-1-1c-0.3-0.3-0.7-0.7-1-1c-0.3-0.3-0.7-0.7-1-1
			c-0.3-0.3-0.7-0.7-1-1c-0.3-0.3-0.7-0.7-1-1c-0.3-0.3-0.7-0.7-1-1c-0.3-0.3-0.7-0.7-1-1c-0.3-0.3-0.7-0.7-1-1
			c-0.3-0.3-0.7-0.7-1-1c-0.3-0.3-0.7-0.7-1-1c-0.3-0.3-0.7-0.7-1-1c-0.3-0.3-0.7-0.7-1-1c-0.3-0.3-0.7-0.7-1-1
			c-0.3-0.3-0.7-0.7-1-1c-6.1-6.1-12.6-11.3-19.3-15.7c-13.3-8.8-26.5-7.2-38.4,7.9c-5.7,7.2-11.3,14.4-17,21.6
			c-3.6,4.6-7.1,7.3-10.6,8c-0.1-0.1-0.2-0.2-0.3-0.3c-0.3-0.3-0.7-0.7-1-1c-0.3-0.3-0.7-0.7-1-1c-0.3-0.3-0.7-0.7-1-1
			c-0.3-0.3-0.7-0.7-1-1c-0.3-0.3-0.7-0.7-1-1c-0.3-0.3-0.7-0.7-1-1c-0.3-0.3-0.7-0.7-1-1c-0.3-0.3-0.7-0.7-1-1
			c-0.3-0.3-0.7-0.7-1-1c-0.3-0.3-0.7-0.7-1-1c-0.3-0.3-0.7-0.7-1-1c-0.3-0.3-0.7-0.7-1-1c-0.3-0.3-0.7-0.7-1-1
			c-0.3-0.3-0.7-0.7-1-1c-0.3-0.3-0.7-0.7-1-1c-0.3-0.3-0.7-0.7-1-1c-0.3-0.3-0.7-0.7-1-1c-0.3-0.3-0.7-0.7-1-1
			c-0.3-0.3-0.7-0.7-1-1c-0.3-0.3-0.7-0.7-1-1c-0.3-0.3-0.7-0.7-1-1c-0.3-0.3-0.7-0.7-1-1c-0.3-0.3-0.7-0.7-1-1
			c-0.3-0.3-0.7-0.7-1-1c-0.3-0.3-0.7-0.7-1-1c-0.3-0.3-0.7-0.7-1-1c-0.3-0.3-0.7-0.7-1-1c-0.3-0.3-0.7-0.7-1-1
			c-0.3-0.3-0.7-0.7-1-1c-0.3-0.3-0.7-0.7-1-1c-0.3-0.3-0.7-0.7-1-1c-0.3-0.3-0.7-0.7-1-1c-0.3-0.3-0.7-0.7-1-1
			c-13.8-14.2-27.3-13-41.6,3.9c-6.4,7.6-12.3,16.3-18.6,24.1c-2.6,3.3-5.3,5.3-8,5.9c-0.2-0.2-0.3-0.3-0.5-0.5
			c-0.3-0.3-0.7-0.7-1-1c-0.3-0.3-0.7-0.7-1-1c-0.3-0.3-0.7-0.7-1-1c-0.3-0.3-0.7-0.7-1-1c-0.3-0.3-0.7-0.7-1-1
			c-0.3-0.3-0.7-0.7-1-1c-0.3-0.3-0.7-0.7-1-1c-0.3-0.3-0.7-0.7-1-1c-0.3-0.3-0.7-0.7-1-1c-0.3-0.3-0.7-0.7-1-1
			c-0.3-0.3-0.7-0.7-1-1c-0.3-0.3-0.7-0.7-1-1c-0.3-0.3-0.7-0.7-1-1c-0.3-0.3-0.7-0.7-1-1c-0.3-0.3-0.7-0.7-1-1
			c-0.3-0.3-0.7-0.7-1-1c-0.3-0.3-0.7-0.7-1-1c-0.3-0.3-0.7-0.7-1-1c-0.3-0.3-0.7-0.7-1-1c-0.3-0.3-0.7-0.7-1-1
			c-0.3-0.3-0.7-0.7-1-1c-0.3-0.3-0.7-0.7-1-1c-0.3-0.3-0.7-0.7-1-1c-0.3-0.3-0.7-0.7-1-1c-0.3-0.3-0.7-0.7-1-1
			c-0.3-0.3-0.7-0.7-1-1c-0.3-0.3-0.7-0.7-1-1c-0.3-0.3-0.7-0.7-1-1c-0.3-0.3-0.7-0.7-1-1c-0.3-0.3-0.7-0.7-1-1
			c-0.3-0.3-0.7-0.7-1-1c-0.3-0.3-0.7-0.7-1-1c-0.3-0.3-0.7-0.7-1-1c-7.3-7.5-15.3-11.9-24.7-8.9c-10.5,3.3-18.7,13.9-26.8,25
			c-7.7,10.6-12.8,16.4-17.6,17.5c-0.2-0.2-0.3-0.3-0.5-0.4c-0.3-0.3-0.7-0.7-1-1c-0.3-0.3-0.7-0.7-1-1c-0.3-0.3-0.7-0.7-1-1
			c-0.3-0.3-0.7-0.7-1-1c-0.3-0.3-0.7-0.7-1-1c-0.3-0.3-0.7-0.7-1-1c-0.3-0.3-0.7-0.7-1-1c-0.3-0.3-0.7-0.7-1-1
			c-0.3-0.3-0.7-0.7-1-1c-0.3-0.3-0.7-0.7-1-1c-0.3-0.3-0.7-0.7-1-1c-0.3-0.3-0.7-0.7-1-1c-0.3-0.3-0.7-0.7-1-1
			c-0.3-0.3-0.7-0.7-1-1c-0.3-0.3-0.7-0.7-1-1c-0.3-0.3-0.7-0.7-1-1c-0.3-0.3-0.7-0.7-1-1c-0.3-0.3-0.7-0.7-1-1
			c-0.3-0.3-0.7-0.7-1-1c-0.3-0.3-0.7-0.7-1-1c-0.3-0.3-0.7-0.7-1-1c-0.3-0.3-0.7-0.7-1-1c-0.3-0.3-0.7-0.7-1-1
			c-0.3-0.3-0.7-0.7-1-1c-0.3-0.3-0.7-0.7-1-1c-0.3-0.3-0.7-0.7-1-1c-0.3-0.3-0.7-0.7-1-1c-0.3-0.3-0.7-0.7-1-1
			c-0.3-0.3-0.7-0.7-1-1c-0.3-0.3-0.7-0.7-1-1c-0.3-0.3-0.7-0.7-1-1c-0.3-0.3-0.7-0.7-1-1c-0.3-0.3-0.7-0.7-1-1
			c-0.3-0.3-0.7-0.7-1-1c-16.7-16.9-27.9-11.7-48.5,15c-13,16.8-18.9,22.5-27.8,17.9c0,0,0,0-0.1-0.1c-0.1-0.1-0.1-0.1-0.2-0.2
			c-0.3-0.3-0.5-0.5-0.8-0.8c-0.1-0.1-0.1-0.1-0.2-0.2c-0.3-0.3-0.5-0.5-0.8-0.8c-0.1-0.1-0.1-0.1-0.2-0.2c-0.3-0.3-0.5-0.5-0.8-0.8
			c-0.1-0.1-0.1-0.1-0.2-0.2c-0.3-0.3-0.5-0.5-0.8-0.8c-0.1-0.1-0.1-0.1-0.2-0.2c-0.3-0.3-0.5-0.5-0.8-0.8c-0.1-0.1-0.1-0.1-0.2-0.2
			c-0.3-0.3-0.5-0.5-0.8-0.8c-0.1-0.1-0.1-0.1-0.2-0.2c-0.3-0.3-0.5-0.5-0.8-0.8c-0.1-0.1-0.1-0.1-0.2-0.2c-0.3-0.3-0.5-0.5-0.8-0.8
			c-0.1-0.1-0.1-0.1-0.2-0.2c-0.3-0.3-0.5-0.5-0.8-0.8c-0.1-0.1-0.1-0.1-0.2-0.2c-0.3-0.3-0.5-0.5-0.8-0.8c-0.1-0.1-0.1-0.1-0.2-0.2
			c-0.3-0.3-0.5-0.5-0.8-0.8c-0.1-0.1-0.1-0.1-0.2-0.2c-0.3-0.3-0.5-0.5-0.8-0.8c-0.1-0.1-0.1-0.1-0.2-0.2c-0.3-0.3-0.5-0.5-0.8-0.8
			c-0.1-0.1-0.1-0.1-0.2-0.2c-0.3-0.3-0.5-0.5-0.8-0.8c-0.1-0.1-0.1-0.1-0.2-0.2c-0.3-0.3-0.5-0.5-0.8-0.8c-0.1-0.1-0.1-0.1-0.2-0.2
			c-0.3-0.3-0.5-0.5-0.8-0.8c-0.1-0.1-0.1-0.1-0.2-0.2c-0.3-0.3-0.5-0.5-0.8-0.8c-0.1-0.1-0.1-0.1-0.2-0.2c-0.3-0.3-0.5-0.5-0.8-0.8
			c-0.1-0.1-0.1-0.1-0.2-0.2c-0.3-0.3-0.5-0.5-0.8-0.8c-0.1-0.1-0.1-0.1-0.2-0.2c-0.3-0.3-0.5-0.5-0.8-0.8c-0.1-0.1-0.1-0.1-0.2-0.2
			c-0.3-0.3-0.5-0.5-0.8-0.8c-0.1-0.1-0.1-0.1-0.2-0.2c-0.3-0.3-0.5-0.5-0.8-0.8c-0.1-0.1-0.1-0.1-0.2-0.2c-0.3-0.3-0.5-0.5-0.8-0.8
			c-0.1-0.1-0.1-0.1-0.2-0.2c-0.3-0.3-0.5-0.5-0.8-0.8c-0.1-0.1-0.1-0.1-0.2-0.2c-0.3-0.3-0.5-0.5-0.8-0.8c-0.1-0.1-0.1-0.1-0.2-0.2
			c-0.3-0.3-0.5-0.5-0.8-0.8c-0.1-0.1-0.1-0.1-0.2-0.2c-0.3-0.3-0.5-0.5-0.8-0.8c-0.1-0.1-0.1-0.1-0.2-0.2c-0.3-0.3-0.5-0.5-0.8-0.8
			c-0.1-0.1-0.1-0.1-0.2-0.2c-0.3-0.3-0.5-0.5-0.8-0.8c-0.1-0.1-0.1-0.1-0.2-0.2c-0.3-0.3-0.5-0.5-0.8-0.8c-0.1-0.1-0.1-0.1-0.2-0.2
			c-0.3-0.3-0.5-0.5-0.8-0.8c-0.1-0.1-0.1-0.1-0.2-0.2c-0.3-0.3-0.5-0.5-0.8-0.8c-0.1-0.1-0.1-0.1-0.2-0.2c-0.3-0.3-0.5-0.5-0.8-0.8
			c-0.1-0.1-0.1-0.1-0.2-0.2c-0.3-0.3-0.5-0.5-0.8-0.8c-0.1-0.1-0.1-0.1-0.2-0.2c-0.3-0.3-0.5-0.5-0.8-0.8c-0.1-0.1-0.1-0.1-0.2-0.2
			c-0.3-0.3-0.5-0.5-0.8-0.8c-0.1-0.1-0.1-0.1-0.2-0.2c-0.3-0.3-0.5-0.5-0.8-0.8c-0.1-0.1-0.1-0.1-0.2-0.2c-0.3-0.3-0.5-0.5-0.8-0.8
			c-5.6-5.6-11.5-4.6-14.7,5.7c-2.9,8.9-1.6,17.3,3.9,23.3c7.7,8.4,15.2,17.2,23.1,25c0.3,0.3,0.7,0.7,1,1c0.3,0.3,0.7,0.7,1,1
			c0.3,0.3,0.7,0.7,1,1c0.3,0.3,0.7,0.7,1,1c0.3,0.3,0.7,0.7,1,1c0.3,0.3,0.7,0.7,1,1c0.3,0.3,0.7,0.7,1,1c0.3,0.3,0.7,0.7,1,1
			c0.3,0.3,0.7,0.7,1,1c0.3,0.3,0.7,0.7,1,1c0.3,0.3,0.7,0.7,1,1c0.3,0.3,0.7,0.7,1,1c0.3,0.3,0.7,0.7,1,1c0.3,0.3,0.7,0.7,1,1
			c0.3,0.3,0.7,0.7,1,1c0.3,0.3,0.7,0.7,1,1c0.3,0.3,0.7,0.7,1,1c0.3,0.3,0.7,0.7,1,1c0.3,0.3,0.7,0.7,1,1c0.3,0.3,0.7,0.7,1,1
			c0.3,0.3,0.7,0.7,1,1c0.3,0.3,0.7,0.7,1,1c0.3,0.3,0.7,0.7,1,1c0.3,0.3,0.7,0.7,1,1c0.3,0.3,0.7,0.7,1,1c0.3,0.3,0.7,0.7,1,1
			c0.3,0.3,0.7,0.7,1,1c0.3,0.3,0.7,0.7,1,1c0.3,0.3,0.7,0.7,1,1c0.3,0.3,0.7,0.7,1,1c0.3,0.3,0.7,0.7,1,1c0.3,0.3,0.7,0.7,1,1
			c0.3,0.3,0.7,0.7,1,1c0.3,0.3,0.7,0.7,1,1c0.3,0.3,0.7,0.7,1,1c0.3,0.3,0.7,0.7,1,1c0.3,0.3,0.7,0.7,1,1c0.3,0.3,0.7,0.7,1,1
			c0.3,0.3,0.7,0.7,1,1c0.3,0.3,0.7,0.7,1,1c0.3,0.3,0.7,0.7,1,1c0.3,0.3,0.7,0.7,1,1c0.3,0.3,0.7,0.7,1,1c0.3,0.3,0.7,0.7,1,1
			c0.3,0.3,0.7,0.7,1,1c0.3,0.3,0.7,0.7,1,1c0.3,0.3,0.7,0.7,1,1c0.3,0.3,0.7,0.7,1,1c0.3,0.3,0.7,0.7,1,1c0.3,0.3,0.7,0.7,1,1
			c0.3,0.3,0.7,0.7,1,1c0.3,0.3,0.7,0.7,1,1c0.3,0.3,0.7,0.7,1,1c0.3,0.3,0.7,0.7,1,1c0.3,0.3,0.7,0.7,1,1c0.3,0.3,0.7,0.7,1,1
			c0.3,0.3,0.7,0.7,1,1c0.3,0.3,0.7,0.7,1,1c0.3,0.3,0.7,0.7,1,1c0.3,0.3,0.7,0.7,1,1c0.3,0.3,0.7,0.7,1,1c0.3,0.3,0.7,0.7,1,1
			c0.3,0.3,0.7,0.7,1,1c0.3,0.3,0.7,0.7,1,1c0.3,0.3,0.7,0.7,1,1c0.3,0.3,0.7,0.7,1,1c0.3,0.3,0.7,0.7,1,1c0.3,0.3,0.7,0.7,1,1
			c0.3,0.3,0.7,0.7,1,1c0.3,0.3,0.7,0.7,1,1c0.3,0.3,0.7,0.7,1,1c0.3,0.3,0.7,0.7,1,1c0.3,0.3,0.7,0.7,1,1c0.3,0.3,0.7,0.7,1,1
			c0.3,0.3,0.7,0.7,1,1c0.3,0.3,0.6,0.6,0.8,0.9c-5.5,2.8-11.3,8.2-17.7,16.3c-2.3,2.9-4.5,6-6.5,9.3c-8.4,13.8-17.4,17.9-26.9,13.4
			c-0.2-0.2-0.4-0.4-0.6-0.6c-0.1-0.1-0.2-0.2-0.2-0.3c-0.3-0.3-0.5-0.5-0.8-0.7c-0.1-0.1-0.2-0.2-0.2-0.3c-0.3-0.3-0.5-0.5-0.8-0.7
			c-0.1-0.1-0.2-0.2-0.2-0.3c-0.3-0.3-0.5-0.5-0.8-0.7c-0.1-0.1-0.2-0.2-0.2-0.3c-0.3-0.3-0.5-0.5-0.8-0.7c-0.1-0.1-0.2-0.2-0.2-0.3
			c-0.3-0.3-0.5-0.5-0.8-0.7c-0.1-0.1-0.2-0.2-0.2-0.3c-0.3-0.3-0.5-0.5-0.8-0.7c-0.1-0.1-0.2-0.2-0.2-0.3c-0.3-0.3-0.5-0.5-0.8-0.7
			c-0.1-0.1-0.2-0.2-0.2-0.3c-0.3-0.3-0.5-0.5-0.8-0.7c-0.1-0.1-0.2-0.2-0.2-0.3c-0.3-0.3-0.5-0.5-0.8-0.7c-0.1-0.1-0.2-0.2-0.2-0.3
			c-0.3-0.3-0.5-0.5-0.8-0.7c-0.1-0.1-0.2-0.2-0.2-0.3c-0.3-0.3-0.5-0.5-0.8-0.7c-0.1-0.1-0.2-0.2-0.2-0.3c-0.3-0.3-0.5-0.5-0.8-0.7
			c-0.1-0.1-0.2-0.2-0.2-0.3c-0.3-0.3-0.5-0.5-0.8-0.7c-0.1-0.1-0.2-0.2-0.2-0.3c-0.3-0.3-0.5-0.5-0.8-0.7c-0.1-0.1-0.2-0.2-0.2-0.3
			c-0.3-0.3-0.5-0.5-0.8-0.7c-0.1-0.1-0.2-0.2-0.2-0.3c-0.3-0.3-0.5-0.5-0.8-0.7c-0.1-0.1-0.2-0.2-0.2-0.3c-0.3-0.3-0.5-0.5-0.8-0.7
			c-0.1-0.1-0.2-0.2-0.2-0.3c-0.3-0.3-0.5-0.5-0.8-0.7c-0.1-0.1-0.2-0.2-0.2-0.3c-0.3-0.3-0.5-0.5-0.8-0.7c-0.1-0.1-0.2-0.2-0.2-0.3
			c-0.3-0.3-0.5-0.5-0.8-0.7c-0.1-0.1-0.2-0.2-0.2-0.3c-0.3-0.3-0.5-0.5-0.8-0.7c-0.1-0.1-0.2-0.2-0.2-0.3c-0.3-0.3-0.5-0.5-0.8-0.7
			c-0.1-0.1-0.2-0.2-0.2-0.3c-0.3-0.3-0.5-0.5-0.8-0.7c-0.1-0.1-0.2-0.2-0.2-0.3c-0.3-0.3-0.5-0.5-0.8-0.7c-0.1-0.1-0.2-0.2-0.2-0.3
			c-0.3-0.3-0.5-0.5-0.8-0.7c-0.1-0.1-0.2-0.2-0.2-0.3c-0.3-0.3-0.5-0.5-0.8-0.7c-0.1-0.1-0.2-0.2-0.2-0.3c-0.3-0.3-0.5-0.5-0.8-0.7
			c-0.1-0.1-0.2-0.2-0.2-0.3c-0.3-0.3-0.5-0.5-0.8-0.7c-0.1-0.1-0.2-0.2-0.2-0.3c-0.3-0.3-0.5-0.5-0.8-0.7c-0.1-0.1-0.2-0.2-0.2-0.3
			c-0.3-0.3-0.5-0.5-0.8-0.7c-0.1-0.1-0.2-0.2-0.2-0.3c-0.3-0.3-0.5-0.5-0.8-0.7c-0.1-0.1-0.2-0.2-0.2-0.3c-0.3-0.3-0.5-0.5-0.8-0.7
			c-0.1-0.1-0.2-0.2-0.2-0.3c-0.3-0.3-0.5-0.5-0.8-0.7c-0.1-0.1-0.2-0.2-0.2-0.3c-0.3-0.3-0.5-0.5-0.8-0.7c-0.1-0.1-0.2-0.2-0.2-0.3
			c-0.3-0.3-0.5-0.5-0.8-0.7c-0.1-0.1-0.2-0.2-0.2-0.3c-0.3-0.3-0.5-0.5-0.8-0.7c-0.1-0.1-0.2-0.2-0.2-0.3
			c-5.2-5.6-10.6-4.3-14.3,3.9c-4.1,9-1.8,17.4,3,23.3c6.9,8.6,13.8,16.9,21.1,24.5c1.2,1.3,2.4,2.5,3.6,3.6c0.3,0.3,0.7,0.7,1,1
			c0.3,0.3,0.7,0.7,1,1c0.3,0.3,0.7,0.7,1,1c0.3,0.3,0.7,0.7,1,1c0.3,0.3,0.7,0.7,1,1c0.3,0.3,0.7,0.7,1,1c0.3,0.3,0.7,0.7,1,1
			c0.3,0.3,0.7,0.7,1,1c0.3,0.3,0.7,0.7,1,1c0.3,0.3,0.7,0.7,1,1c0.3,0.3,0.7,0.7,1,1c0.3,0.3,0.7,0.7,1,1c0.3,0.3,0.7,0.7,1,1
			c0.3,0.3,0.7,0.7,1,1c0.3,0.3,0.7,0.7,1,1c0.3,0.3,0.7,0.7,1,1c0.3,0.3,0.7,0.7,1,1c0.3,0.3,0.7,0.7,1,1c0.3,0.3,0.7,0.7,1,1
			c0.3,0.3,0.7,0.7,1,1c0.3,0.3,0.7,0.7,1,1c0.3,0.3,0.7,0.7,1,1c0.3,0.3,0.7,0.7,1,1c0.3,0.3,0.7,0.7,1,1c0.3,0.3,0.7,0.7,1,1
			c0.3,0.3,0.7,0.7,1,1c0.3,0.3,0.7,0.7,1,1c0.3,0.3,0.7,0.7,1,1c0.3,0.3,0.7,0.7,1,1c0.3,0.3,0.7,0.7,1,1c0.3,0.3,0.7,0.7,1,1
			c0.3,0.3,0.7,0.7,1,1c0.3,0.3,0.7,0.7,1,1c0.3,0.3,0.7,0.7,1,1c0.3,0.3,0.7,0.7,1,1c0.3,0.3,0.7,0.7,1,1c0.3,0.3,0.7,0.7,1,1
			c0.3,0.3,0.7,0.7,1,1c0.3,0.3,0.7,0.7,1,1c0.3,0.3,0.7,0.7,1,1c0.3,0.3,0.7,0.7,1,1c0.3,0.3,0.7,0.7,1,1c0.3,0.3,0.7,0.7,1,1
			c0.3,0.3,0.7,0.7,1,1c0.3,0.3,0.7,0.7,1,1c0.3,0.3,0.7,0.7,1,1c0.3,0.3,0.7,0.7,1,1c0.3,0.3,0.7,0.7,1,1c0.3,0.3,0.7,0.7,1,1
			c0.3,0.3,0.7,0.7,1,1c0.3,0.3,0.7,0.7,1,1c0.3,0.3,0.7,0.7,1,1c0.3,0.3,0.7,0.7,1,1c0.3,0.3,0.7,0.7,1,1c0.3,0.3,0.7,0.7,1,1
			c0.3,0.3,0.7,0.7,1,1c0.3,0.3,0.7,0.7,1,1c0.3,0.3,0.7,0.7,1,1c0.3,0.3,0.7,0.7,1,1c0.3,0.3,0.7,0.7,1,1c0.3,0.3,0.7,0.7,1,1
			c0.3,0.3,0.7,0.7,1,1c0.3,0.3,0.7,0.7,1,1c0.3,0.3,0.7,0.7,1,1c0.3,0.3,0.7,0.7,1,1c0.3,0.3,0.7,0.7,1,1c0.3,0.3,0.7,0.7,1,1
			c0.3,0.3,0.7,0.7,1,1c0.3,0.3,0.7,0.7,1,1c0.3,0.3,0.7,0.7,1,1c0.3,0.3,0.7,0.7,1,1c0.3,0.3,0.7,0.7,1,1c0.3,0.3,0.7,0.7,1,1
			c0.3,0.3,0.7,0.7,1,1c0.3,0.3,0.5,0.5,0.8,0.8c-7,4.1-14.9,13.1-25.7,27c-0.9,1.1-1.8,2.2-2.5,3.4c-7.2,11.7-14.9,13.3-23.3,8.5
			c-0.3-0.3-0.6-0.6-0.9-0.9c-0.3-0.4-0.7-0.7-1-1c-0.3-0.4-0.7-0.7-1-1c-0.3-0.4-0.7-0.7-1-1c-0.3-0.4-0.7-0.7-1-1
			c-0.3-0.4-0.7-0.7-1-1c-0.3-0.4-0.7-0.7-1-1c-0.3-0.4-0.7-0.7-1-1c-0.3-0.4-0.7-0.7-1-1c-0.3-0.4-0.7-0.7-1-1
			c-0.3-0.4-0.7-0.7-1-1c-0.3-0.4-0.7-0.7-1-1c-0.3-0.4-0.7-0.7-1-1c-0.3-0.4-0.7-0.7-1-1c-0.3-0.4-0.7-0.7-1-1
			c-0.3-0.4-0.7-0.7-1-1c-0.3-0.4-0.7-0.7-1-1c-0.3-0.4-0.7-0.7-1-1c-0.3-0.4-0.7-0.7-1-1c-0.3-0.4-0.7-0.7-1-1
			c-0.3-0.4-0.7-0.7-1-1c-0.3-0.4-0.7-0.7-1-1c-0.3-0.4-0.7-0.7-1-1c-0.3-0.4-0.7-0.7-1-1c-0.3-0.4-0.7-0.7-1-1
			c-0.3-0.4-0.7-0.7-1-1c-0.3-0.4-0.7-0.7-1-1c-0.3-0.4-0.7-0.7-1-1c-0.3-0.4-0.7-0.7-1-1c-0.3-0.4-0.7-0.7-1-1
			c-0.3-0.4-0.7-0.7-1-1c-0.3-0.4-0.7-0.7-1-1c-0.3-0.4-0.7-0.7-1-1c-0.3-0.4-0.7-0.7-1-1c-0.3-0.4-0.7-0.7-1-1
			c-0.3-0.4-0.7-0.7-1-1c-5-5.3-10-6.5-14.1,2.3c-4.6,9.7-2,18.4,3,25c6.9,9.1,14,17.8,21.5,25.3c0.3,0.3,0.7,0.7,1,1
			c0.3,0.3,0.7,0.7,1,1c0.3,0.3,0.7,0.7,1,1c0.3,0.3,0.7,0.7,1,1c0.3,0.3,0.7,0.7,1,1c0.3,0.3,0.7,0.7,1,1c0.3,0.3,0.7,0.7,1,1
			c0.3,0.3,0.7,0.7,1,1c0.3,0.3,0.7,0.7,1,1c0.3,0.3,0.7,0.7,1,1c0.3,0.3,0.7,0.7,1,1c0.3,0.3,0.7,0.7,1,1c0.3,0.3,0.7,0.7,1,1
			c0.3,0.3,0.7,0.7,1,1c0.3,0.3,0.7,0.7,1,1c0.3,0.3,0.7,0.7,1,1c0.3,0.3,0.7,0.7,1,1c0.3,0.3,0.7,0.7,1,1c0.3,0.3,0.7,0.7,1,1
			c0.3,0.3,0.7,0.7,1,1c0.3,0.3,0.7,0.7,1,1c0.3,0.3,0.7,0.7,1,1c0.3,0.3,0.7,0.7,1,1c0.3,0.3,0.7,0.7,1,1c0.3,0.3,0.7,0.7,1,1
			c0.3,0.3,0.7,0.7,1,1c0.3,0.3,0.7,0.7,1,1c0.3,0.3,0.7,0.7,1,1c0.3,0.3,0.7,0.7,1,1c0.3,0.3,0.7,0.7,1,1c0.3,0.3,0.7,0.7,1,1
			c0.3,0.3,0.7,0.7,1,1c0.3,0.3,0.7,0.7,1,1c0.3,0.3,0.7,0.7,1,1c0.3,0.3,0.7,0.7,1,1c0.3,0.3,0.7,0.7,1,1c0.3,0.3,0.7,0.7,1,1
			c0.3,0.3,0.7,0.7,1,1c0.3,0.3,0.7,0.7,1,1c0.3,0.3,0.7,0.7,1,1c0.3,0.3,0.7,0.7,1,1c0.3,0.3,0.7,0.7,1,1c0.3,0.3,0.7,0.7,1,1
			c0.3,0.3,0.7,0.7,1,1c0.3,0.3,0.7,0.7,1,1c0.3,0.3,0.7,0.7,1,1c0.3,0.3,0.7,0.7,1,1c0.3,0.3,0.7,0.7,1,1c0.3,0.3,0.7,0.7,1,1
			c0.3,0.3,0.7,0.7,1,1c0.3,0.3,0.7,0.7,1,1c0.3,0.3,0.7,0.7,1,1c0.3,0.3,0.7,0.7,1,1c0.3,0.3,0.7,0.7,1,1c0.3,0.3,0.7,0.7,1,1
			c0.3,0.3,0.7,0.7,1,1c0.3,0.3,0.7,0.7,1,1c0.3,0.3,0.7,0.7,1,1c0.3,0.3,0.7,0.7,1,1c0.3,0.3,0.7,0.7,1,1c0.3,0.3,0.7,0.7,1,1
			c0.3,0.3,0.7,0.7,1,1c0.3,0.3,0.7,0.7,1,1c0.3,0.3,0.7,0.7,1,1c0.3,0.3,0.7,0.7,1,1c0.3,0.3,0.7,0.7,1,1c0.3,0.3,0.7,0.7,1,1
			c0.3,0.3,0.7,0.7,1,1c0.3,0.3,0.7,0.7,1,1c0.3,0.3,0.7,0.7,1,1c0.3,0.3,0.7,0.7,1,1c0.3,0.3,0.7,0.7,1,1c0.3,0.3,0.7,0.7,1,1
			c0.3,0.3,0.7,0.7,1,1c0.3,0.3,0.7,0.7,1,1c0.3,0.3,0.7,0.7,1,1c0.2,0.2,0.4,0.4,0.6,0.6c-3.2,1.6-6.3,4.1-9.5,7.5
			c-4.8,5.1-9.4,11-13.7,17c-11,15.2-16.7,20.3-25.3,16c-0.3-0.3-0.5-0.6-0.8-0.8c-0.3-0.4-0.7-0.7-1-1c-0.3-0.4-0.7-0.7-1-1
			c-0.3-0.4-0.7-0.7-1-1c-0.3-0.4-0.7-0.7-1-1c-0.3-0.4-0.7-0.7-1-1c-0.3-0.4-0.7-0.7-1-1c-0.3-0.4-0.7-0.7-1-1
			c-0.3-0.4-0.7-0.7-1-1c-0.3-0.4-0.7-0.7-1-1c-0.3-0.4-0.7-0.7-1-1c-0.3-0.4-0.7-0.7-1-1c-0.3-0.4-0.7-0.7-1-1
			c-0.3-0.4-0.7-0.7-1-1c-0.3-0.4-0.7-0.7-1-1c-0.3-0.4-0.7-0.7-1-1c-0.3-0.4-0.7-0.7-1-1c-0.3-0.4-0.7-0.7-1-1
			c-0.3-0.4-0.7-0.7-1-1c-0.3-0.4-0.7-0.7-1-1c-0.3-0.4-0.7-0.7-1-1c-0.3-0.4-0.7-0.7-1-1c-0.3-0.4-0.7-0.7-1-1
			c-0.3-0.4-0.7-0.7-1-1c-0.3-0.4-0.7-0.7-1-1c-0.3-0.4-0.7-0.7-1-1c-0.3-0.4-0.7-0.7-1-1c-0.3-0.4-0.7-0.7-1-1
			c-0.3-0.4-0.7-0.7-1-1c-0.3-0.4-0.7-0.7-1-1c-0.3-0.4-0.7-0.7-1-1c-0.3-0.4-0.7-0.7-1-1c-0.3-0.4-0.7-0.7-1-1
			c-0.3-0.4-0.7-0.7-1-1c-0.3-0.4-0.7-0.7-1-1c-0.3-0.4-0.7-0.7-1-1c-0.3-0.4-0.7-0.7-1-1c-0.3-0.4-0.7-0.7-1-1
			c-0.3-0.4-0.7-0.7-1-1c-5.3-5.7-10.1-4.4-14.1,4c-4,8.3-2.1,15.3,1.6,22.4c7.2,13.6,14.7,24.1,22.3,31.5c0.3,0.3,0.7,0.7,1,1
			c0.3,0.3,0.7,0.7,1,1c0.3,0.3,0.7,0.7,1,1c0.3,0.3,0.7,0.7,1,1c0.3,0.3,0.7,0.7,1,1c0.3,0.3,0.7,0.7,1,1c0.3,0.3,0.7,0.7,1,1
			c0.3,0.3,0.7,0.7,1,1c0.3,0.3,0.7,0.7,1,1c0.3,0.3,0.7,0.7,1,1c0.3,0.3,0.7,0.7,1,1c0.3,0.3,0.7,0.7,1,1c0.3,0.3,0.7,0.7,1,1
			c0.3,0.3,0.7,0.7,1,1c0.3,0.3,0.7,0.7,1,1c0.3,0.3,0.7,0.7,1,1c0.3,0.3,0.7,0.7,1,1c0.3,0.3,0.7,0.7,1,1c0.3,0.3,0.7,0.7,1,1
			c0.3,0.3,0.7,0.7,1,1c0.3,0.3,0.7,0.7,1,1c0.3,0.3,0.7,0.7,1,1c0.3,0.3,0.7,0.7,1,1c0.3,0.3,0.7,0.7,1,1c0.3,0.3,0.7,0.7,1,1
			c0.3,0.3,0.7,0.7,1,1c0.3,0.3,0.7,0.7,1,1c0.3,0.3,0.7,0.7,1,1c0.3,0.3,0.7,0.7,1,1c0.3,0.3,0.7,0.7,1,1c0.3,0.3,0.7,0.7,1,1
			c0.3,0.3,0.7,0.7,1,1c0.3,0.3,0.7,0.7,1,1c0.3,0.3,0.7,0.7,1,1c0.3,0.3,0.7,0.7,1,1c0.3,0.3,0.7,0.7,1,1c0.3,0.3,0.7,0.7,1,1
			c0.3,0.3,0.7,0.7,1,1c0.3,0.3,0.7,0.7,1,1c0.3,0.3,0.7,0.7,1,1c0.3,0.3,0.7,0.7,1,1c0.3,0.3,0.7,0.7,1,1c0.3,0.3,0.7,0.7,1,1
			c0.3,0.3,0.7,0.7,1,1c0.3,0.3,0.7,0.7,1,1c0.3,0.3,0.7,0.7,1,1c0.3,0.3,0.7,0.7,1,1c0.3,0.3,0.7,0.7,1,1c0.3,0.3,0.7,0.7,1,1
			c0.3,0.3,0.7,0.7,1,1c0.3,0.3,0.7,0.7,1,1c0.3,0.3,0.7,0.7,1,1c0.3,0.3,0.7,0.7,1,1c0.3,0.3,0.7,0.7,1,1c0.3,0.3,0.7,0.7,1,1
			c0.3,0.3,0.7,0.7,1,1c0.3,0.3,0.7,0.7,1,1c0.3,0.3,0.7,0.7,1,1c0.3,0.3,0.7,0.7,1,1c0.3,0.3,0.7,0.7,1,1c0.3,0.3,0.7,0.7,1,1
			c0.3,0.3,0.7,0.7,1,1c0.3,0.3,0.7,0.7,1,1c0.3,0.3,0.7,0.7,1,1c0.3,0.3,0.7,0.7,1,1c0.3,0.3,0.7,0.7,1,1c0.3,0.3,0.7,0.7,1,1
			c0.3,0.3,0.7,0.7,1,1c0.3,0.3,0.7,0.7,1,1c0.3,0.3,0.7,0.7,1,1c0.3,0.3,0.7,0.7,1,1c0.3,0.3,0.7,0.7,1,1c0.3,0.3,0.7,0.7,1,1
			c0.3,0.3,0.7,0.7,1,1c0.3,0.3,0.7,0.7,1,1c0.3,0.3,0.7,0.7,1,1c0.3,0.3,0.7,0.7,1,1c0.3,0.3,0.7,0.7,1,1c0.3,0.3,0.7,0.7,1,1
			c0.3,0.3,0.7,0.7,1,1c0.3,0.3,0.7,0.7,1,1c0.3,0.3,0.7,0.7,1,1c0.3,0.3,0.7,0.7,1,1c0.3,0.3,0.7,0.7,1,1c0.3,0.3,0.7,0.7,1,1
			c0.3,0.3,0.7,0.7,1,1c0.3,0.3,0.7,0.7,1,1c0.3,0.3,0.7,0.7,1,1c0.3,0.3,0.7,0.7,1,1c0.3,0.3,0.7,0.7,1,1c0.3,0.3,0.7,0.7,1,1
			c0.3,0.3,0.7,0.7,1,1c0.3,0.3,0.7,0.7,1,1c0.3,0.3,0.7,0.7,1,1c0.3,0.3,0.7,0.7,1,1c0.3,0.3,0.7,0.7,1,1c0.3,0.3,0.7,0.7,1,1
			c0.3,0.3,0.7,0.7,1,1c0.3,0.3,0.7,0.7,1,1c0.3,0.3,0.7,0.7,1,1c0.3,0.3,0.7,0.7,1,1c0.3,0.3,0.7,0.7,1,1c0.3,0.3,0.7,0.7,1,1
			c0.3,0.3,0.7,0.7,1,1c0.3,0.3,0.7,0.7,1,1c0.3,0.3,0.7,0.7,1,1c0.3,0.3,0.7,0.7,1,1c0.3,0.3,0.7,0.7,1,1c0.3,0.3,0.7,0.7,1,1
			c0.3,0.3,0.7,0.7,1,1c0.3,0.3,0.7,0.7,1,1c0.3,0.3,0.7,0.7,1,1c0.3,0.3,0.7,0.7,1,1c0.3,0.3,0.7,0.7,1,1c0.3,0.3,0.7,0.7,1,1
			c0.3,0.3,0.7,0.7,1,1c0.3,0.3,0.7,0.7,1,1c0.3,0.3,0.7,0.7,1,1c0.3,0.3,0.7,0.7,1,1c0.3,0.3,0.7,0.7,1,1c0.3,0.3,0.7,0.7,1,1
			c0.3,0.3,0.7,0.7,1,1c0.3,0.3,0.7,0.7,1,1c0.3,0.3,0.7,0.7,1,1c0.3,0.3,0.7,0.7,1,1c0.3,0.3,0.7,0.7,1,1c0.3,0.3,0.7,0.7,1,1
			c0.3,0.3,0.7,0.7,1,1c0.3,0.3,0.7,0.7,1,1c0.3,0.3,0.7,0.7,1,1c0.3,0.3,0.7,0.7,1,1c0.3,0.3,0.7,0.7,1,1c0.3,0.3,0.7,0.7,1,1
			c0.3,0.3,0.7,0.7,1,1c0.3,0.3,0.7,0.7,1,1c0.3,0.3,0.7,0.7,1,1c0.3,0.3,0.7,0.7,1,1c0.3,0.3,0.7,0.7,1,1c0.3,0.3,0.7,0.7,1,1
			c0.3,0.3,0.7,0.7,1,1c0.3,0.3,0.7,0.7,1,1c0.3,0.3,0.7,0.7,1,1c0.3,0.3,0.7,0.7,1,1c0.3,0.3,0.7,0.7,1,1c0.3,0.3,0.7,0.7,1,1
			c0.3,0.3,0.7,0.7,1,1c0.3,0.3,0.7,0.7,1,1c0.3,0.3,0.7,0.7,1,1c0.3,0.3,0.7,0.7,1,1c0.3,0.3,0.7,0.7,1,1c0.3,0.3,0.7,0.7,1,1
			c0.3,0.3,0.7,0.7,1,1c0.3,0.3,0.7,0.7,1,1c0.3,0.3,0.7,0.7,1,1c0.3,0.3,0.7,0.7,1,1c0.3,0.3,0.7,0.7,1,1c0.3,0.3,0.7,0.7,1,1
			c0.3,0.3,0.7,0.7,1,1c0.3,0.3,0.7,0.7,1,1c0.3,0.3,0.7,0.7,1,1c0.3,0.3,0.7,0.7,1,1c0.3,0.3,0.7,0.7,1,1c0.3,0.3,0.7,0.7,1,1
			c0.3,0.3,0.7,0.7,1,1c0.3,0.3,0.7,0.7,1,1c0.3,0.3,0.7,0.7,1,1c0.3,0.3,0.7,0.7,1,1c0.3,0.3,0.7,0.7,1,1c0.3,0.3,0.7,0.7,1,1
			c0.3,0.3,0.7,0.7,1,1c0.3,0.3,0.7,0.7,1,1c0.3,0.3,0.7,0.7,1,1c0.3,0.3,0.7,0.7,1,1c0.3,0.3,0.7,0.7,1,1c0.3,0.3,0.7,0.7,1,1
			c0.3,0.3,0.7,0.7,1,1c0.3,0.3,0.7,0.7,1,1c0.3,0.3,0.7,0.7,1,1c0.3,0.3,0.7,0.7,1,1c0.3,0.3,0.7,0.7,1,1c0.3,0.3,0.7,0.7,1,1
			c0.3,0.3,0.7,0.7,1,1c0.3,0.3,0.7,0.7,1,1c0.3,0.3,0.7,0.7,1,1c0.3,0.3,0.7,0.7,1,1c0.3,0.3,0.7,0.7,1,1c0.3,0.3,0.7,0.7,1,1
			c0.3,0.3,0.7,0.7,1,1c0.3,0.3,0.7,0.7,1,1c0.3,0.3,0.7,0.7,1,1c0.3,0.3,0.7,0.7,1,1c0.3,0.3,0.7,0.7,1,1c0.3,0.3,0.7,0.7,1,1
			c0.3,0.3,0.7,0.7,1,1c0.3,0.3,0.7,0.7,1,1c0.3,0.3,0.7,0.7,1,1c0.3,0.3,0.7,0.7,1,1c0.3,0.3,0.7,0.7,1,1c0.3,0.3,0.7,0.7,1,1
			c0.3,0.3,0.7,0.7,1,1c0.3,0.3,0.7,0.7,1,1c0.3,0.3,0.7,0.7,1,1c0.3,0.3,0.7,0.7,1,1c0.3,0.3,0.7,0.7,1,1c0.3,0.3,0.7,0.7,1,1
			c0.3,0.3,0.7,0.7,1,1c0.3,0.3,0.7,0.7,1,1c0.3,0.3,0.7,0.7,1,1c0.3,0.3,0.7,0.7,1,1c0.3,0.3,0.7,0.7,1,1c0.3,0.3,0.7,0.7,1,1
			c0.3,0.3,0.7,0.7,1,1c0.3,0.3,0.7,0.7,1,1c0.3,0.3,0.7,0.7,1,1c0.3,0.3,0.7,0.7,1,1c0.3,0.3,0.7,0.7,1,1c0.3,0.3,0.7,0.7,1,1
			c0.3,0.3,0.7,0.7,1,1c0.3,0.3,0.7,0.7,1,1c0.3,0.3,0.7,0.7,1,1c0.3,0.3,0.7,0.7,1,1c0.3,0.3,0.7,0.7,1,1c0.3,0.3,0.7,0.7,1,1
			c0.3,0.3,0.7,0.7,1,1c0.3,0.3,0.7,0.7,1,1c0.3,0.3,0.7,0.7,1,1c0.3,0.3,0.7,0.7,1,1c0.3,0.3,0.7,0.7,1,1c0.3,0.3,0.7,0.7,1,1
			c0.3,0.3,0.7,0.7,1,1c0.3,0.3,0.7,0.7,1,1c0.3,0.3,0.7,0.7,1,1c0.3,0.3,0.7,0.7,1,1c0.3,0.3,0.7,0.7,1,1c0.3,0.3,0.7,0.7,1,1
			c0.3,0.3,0.7,0.7,1,1c0.3,0.3,0.7,0.7,1,1c0.3,0.3,0.7,0.7,1,1c0.3,0.3,0.7,0.7,1,1c0.3,0.3,0.7,0.7,1,1c0.3,0.3,0.7,0.7,1,1
			c0.3,0.3,0.7,0.7,1,1c0.3,0.3,0.7,0.7,1,1c0.3,0.3,0.7,0.7,1,1c0.3,0.3,0.7,0.7,1,1c0.3,0.3,0.7,0.7,1,1c0.3,0.3,0.7,0.7,1,1
			c0.3,0.3,0.7,0.7,1,1c0.3,0.3,0.7,0.7,1,1c0.3,0.3,0.7,0.7,1,1c0.3,0.3,0.7,0.7,1,1c0.3,0.3,0.7,0.7,1,1c0.3,0.3,0.7,0.7,1,1
			c0.3,0.3,0.7,0.7,1,1c0.3,0.3,0.7,0.7,1,1c0.3,0.3,0.7,0.7,1,1c0.3,0.3,0.7,0.7,1,1c0.3,0.3,0.7,0.7,1,1c0.3,0.3,0.7,0.7,1,1
			c23,23.3,47.7,18.9,72.9-13.3c0.3-0.4,0.6-0.7,0.9-1.1c5.1-6.5,9-10,12.8-10.6c0.3,0.3,0.6,0.6,0.9,0.9c0.3,0.3,0.7,0.7,1,1
			c0.3,0.3,0.7,0.7,1,1c0.3,0.3,0.7,0.7,1,1c0.3,0.3,0.7,0.7,1,1c0.3,0.3,0.7,0.7,1,1c0.3,0.3,0.7,0.7,1,1c0.3,0.3,0.7,0.7,1,1
			c0.3,0.3,0.7,0.7,1,1c0.3,0.3,0.7,0.7,1,1c0.3,0.3,0.7,0.7,1,1c0.3,0.3,0.7,0.7,1,1c0.3,0.3,0.7,0.7,1,1c0.3,0.3,0.7,0.7,1,1
			c0.3,0.3,0.7,0.7,1,1c0.3,0.3,0.7,0.7,1,1c0.3,0.3,0.7,0.7,1,1c0.3,0.3,0.7,0.7,1,1c0.3,0.3,0.7,0.7,1,1c0.3,0.3,0.7,0.7,1,1
			c0.3,0.3,0.7,0.7,1,1c0.3,0.3,0.7,0.7,1,1c0.3,0.3,0.7,0.7,1,1c0.3,0.3,0.7,0.7,1,1c0.3,0.3,0.7,0.7,1,1c0.3,0.3,0.7,0.7,1,1
			c0.3,0.3,0.7,0.7,1,1c0.3,0.3,0.7,0.7,1,1c0.3,0.3,0.7,0.7,1,1c0.3,0.3,0.7,0.7,1,1c0.3,0.3,0.7,0.7,1,1c0.3,0.3,0.7,0.7,1,1
			c0.3,0.3,0.7,0.7,1,1c0.3,0.3,0.7,0.7,1,1c18.6,18.9,28,11.6,54.2-21.5c6.1-7.8,10.3-11.8,14.4-12.1c0.2,0.2,0.4,0.4,0.6,0.6
			c0.3,0.3,0.7,0.7,1,1c0.3,0.3,0.7,0.7,1,1c0.3,0.3,0.7,0.7,1,1c0.3,0.3,0.7,0.7,1,1c0.3,0.3,0.7,0.7,1,1c0.3,0.3,0.7,0.7,1,1
			c0.3,0.3,0.7,0.7,1,1c0.3,0.3,0.7,0.7,1,1c0.3,0.3,0.7,0.7,1,1c0.3,0.3,0.7,0.7,1,1c0.3,0.3,0.7,0.7,1,1c0.3,0.3,0.7,0.7,1,1
			c0.3,0.3,0.7,0.7,1,1c0.3,0.3,0.7,0.7,1,1c0.3,0.3,0.7,0.7,1,1c0.3,0.3,0.7,0.7,1,1c0.3,0.3,0.7,0.7,1,1c0.3,0.3,0.7,0.7,1,1
			c0.3,0.3,0.7,0.7,1,1c0.3,0.3,0.7,0.7,1,1c0.3,0.3,0.7,0.7,1,1c0.3,0.3,0.7,0.7,1,1c0.3,0.3,0.7,0.7,1,1c0.3,0.3,0.7,0.7,1,1
			c0.3,0.3,0.7,0.7,1,1c0.3,0.3,0.7,0.7,1,1c0.3,0.3,0.7,0.7,1,1c0.3,0.3,0.7,0.7,1,1c0.3,0.3,0.7,0.7,1,1c0.3,0.3,0.7,0.7,1,1
			c0.3,0.3,0.7,0.7,1,1c0.3,0.3,0.7,0.7,1,1c0.3,0.3,0.7,0.7,1,1c18.8,19.2,27.3,11.7,54.5-22.6c5.9-7.4,10.1-11.1,14.3-11.2
			c0.3,0.3,0.5,0.5,0.8,0.8c0.3,0.3,0.7,0.7,1,1c0.3,0.3,0.7,0.7,1,1c0.3,0.3,0.7,0.7,1,1c0.3,0.3,0.7,0.7,1,1c0.3,0.3,0.7,0.7,1,1
			c0.3,0.3,0.7,0.7,1,1c0.3,0.3,0.7,0.7,1,1c0.3,0.3,0.7,0.7,1,1c0.3,0.3,0.7,0.7,1,1c0.3,0.3,0.7,0.7,1,1c0.3,0.3,0.7,0.7,1,1
			c0.3,0.3,0.7,0.7,1,1c0.3,0.3,0.7,0.7,1,1c0.3,0.3,0.7,0.7,1,1c0.3,0.3,0.7,0.7,1,1c0.3,0.3,0.7,0.7,1,1c0.3,0.3,0.7,0.7,1,1
			c0.3,0.3,0.7,0.7,1,1c0.3,0.3,0.7,0.7,1,1c0.3,0.3,0.7,0.7,1,1c0.3,0.3,0.7,0.7,1,1c0.3,0.3,0.7,0.7,1,1c0.3,0.3,0.7,0.7,1,1
			c0.3,0.3,0.7,0.7,1,1c0.3,0.3,0.7,0.7,1,1c0.3,0.3,0.7,0.7,1,1c0.3,0.3,0.7,0.7,1,1c0.3,0.3,0.7,0.7,1,1c0.3,0.3,0.7,0.7,1,1
			c0.3,0.3,0.7,0.7,1,1c0.3,0.3,0.7,0.7,1,1c0.3,0.3,0.7,0.7,1,1c0.3,0.3,0.7,0.7,1,1c18.8,19,26.5,11.3,54.5-23.7
			c6.7-8.4,13.4-11.6,20.6-8.5c0.2,0.2,0.3,0.3,0.5,0.4c0.3,0.4,0.7,0.7,1,1c0.3,0.4,0.7,0.7,1,1c0.3,0.4,0.7,0.7,1,1
			c0.3,0.4,0.7,0.7,1,1c0.3,0.4,0.7,0.7,1,1c0.3,0.4,0.7,0.7,1,1c0.3,0.4,0.7,0.7,1,1c0.3,0.4,0.7,0.7,1,1c0.3,0.4,0.7,0.7,1,1
			c0.3,0.4,0.7,0.7,1,1c0.3,0.4,0.7,0.7,1,1c0.3,0.4,0.7,0.7,1,1c0.3,0.4,0.7,0.7,1,1c0.3,0.4,0.7,0.7,1,1c0.3,0.4,0.7,0.7,1,1
			c0.3,0.4,0.7,0.7,1,1c0.3,0.4,0.7,0.7,1,1c0.3,0.4,0.7,0.7,1,1c0.3,0.4,0.7,0.7,1,1c0.3,0.4,0.7,0.7,1,1c0.3,0.4,0.7,0.7,1,1
			c0.3,0.4,0.7,0.7,1,1c0.3,0.4,0.7,0.7,1,1c0.3,0.4,0.7,0.7,1,1c0.3,0.4,0.7,0.7,1,1c0.3,0.4,0.7,0.7,1,1c0.3,0.4,0.7,0.7,1,1
			c0.3,0.4,0.7,0.7,1,1c0.3,0.4,0.7,0.7,1,1c0.3,0.4,0.7,0.7,1,1c0.3,0.4,0.7,0.7,1,1c0.3,0.4,0.7,0.7,1,1c0.3,0.4,0.7,0.7,1,1
			c0.3,0.4,0.7,0.7,1,1c0.3,0.4,0.7,0.7,1,1c0.3,0.4,0.7,0.7,1,1c5.8,6.2,11.6,6.5,17.8-2.3c0-6.1,0-12-0.1-17.9
			c-8.9-12.4-18.2-24-28.1-33.9c-0.3-0.3-0.7-0.7-1-1c-0.3-0.3-0.7-0.7-1-1c-0.3-0.3-0.7-0.7-1-1c-0.3-0.3-0.7-0.7-1-1
			c-0.3-0.3-0.7-0.7-1-1c-0.3-0.3-0.7-0.7-1-1c-0.3-0.3-0.7-0.7-1-1c-0.3-0.3-0.7-0.7-1-1c-0.3-0.3-0.7-0.7-1-1
			c-0.3-0.3-0.7-0.7-1-1c-0.3-0.3-0.7-0.7-1-1c-0.3-0.3-0.7-0.7-1-1c-0.3-0.3-0.7-0.7-1-1c-0.3-0.3-0.7-0.7-1-1
			c-0.3-0.3-0.7-0.7-1-1c-0.3-0.3-0.7-0.7-1-1c-0.3-0.3-0.7-0.7-1-1c-0.3-0.3-0.7-0.7-1-1c-0.3-0.3-0.7-0.7-1-1
			c-0.3-0.3-0.7-0.7-1-1c-0.3-0.3-0.7-0.7-1-1c-0.3-0.3-0.7-0.7-1-1c-0.3-0.3-0.7-0.7-1-1c-0.3-0.3-0.7-0.7-1-1
			c-0.3-0.3-0.7-0.7-1-1c-0.3-0.3-0.7-0.7-1-1c-0.3-0.3-0.7-0.7-1-1c-0.3-0.3-0.7-0.7-1-1c-0.3-0.3-0.7-0.7-1-1
			c-0.3-0.3-0.7-0.7-1-1c-0.3-0.3-0.7-0.7-1-1c-0.3-0.3-0.7-0.7-1-1c-0.3-0.3-0.7-0.7-1-1c-0.3-0.3-0.7-0.7-1-1
			c-0.3-0.3-0.7-0.7-1-1c-0.3-0.3-0.7-0.7-1-1c-0.3-0.3-0.7-0.7-1-1c-0.3-0.3-0.7-0.7-1-1c-0.3-0.3-0.7-0.7-1-1
			c-0.3-0.3-0.7-0.7-1-1c-0.3-0.3-0.7-0.7-1-1c-0.3-0.3-0.7-0.7-1-1c-0.3-0.3-0.7-0.7-1-1c-0.3-0.3-0.7-0.7-1-1
			c-0.3-0.3-0.7-0.7-1-1c-0.3-0.3-0.7-0.7-1-1c-0.3-0.3-0.7-0.7-1-1c-0.3-0.3-0.7-0.7-1-1c-0.3-0.3-0.7-0.7-1-1
			c-0.3-0.3-0.7-0.7-1-1c-0.3-0.3-0.7-0.7-1-1c-0.3-0.3-0.7-0.7-1-1c-0.3-0.3-0.7-0.7-1-1c-0.3-0.3-0.7-0.7-1-1
			c-0.3-0.3-0.7-0.7-1-1c-0.3-0.3-0.7-0.7-1-1c-0.3-0.3-0.7-0.7-1-1c-0.3-0.3-0.7-0.7-1-1c-0.3-0.3-0.7-0.7-1-1
			c-0.3-0.3-0.7-0.7-1-1c-0.3-0.3-0.7-0.7-1-1c-0.3-0.3-0.7-0.7-1-1c-0.3-0.3-0.7-0.7-1-1c-0.3-0.3-0.7-0.7-1-1
			c-0.3-0.3-0.7-0.7-1-1c-0.3-0.3-0.7-0.7-1-1c-0.3-0.3-0.7-0.7-1-1c-0.3-0.3-0.7-0.7-1-1c-0.3-0.3-0.7-0.7-1-1
			c-0.3-0.3-0.7-0.7-1-1c-0.3-0.3-0.7-0.7-1-1c-0.3-0.3-0.7-0.7-1-1c-0.3-0.3-0.7-0.7-1-1c-0.3-0.3-0.7-0.7-1-1
			c-0.3-0.3-0.7-0.7-1-1c-0.3-0.3-0.5-0.5-0.8-0.8C800.6,760,805.5,755.9,810.6,749.8z"/>
	</g>
</g>
<g id="Layer_1">
	<g>
		<path class="st2" d="M639.8,629.8c-7.3,10.4-14.1,8.1-21-1.7c-8.2-11.7-17.6-20.1-27.1-28.4c-9.7-8.5-18.2-6.2-26.7,4.5
			c-35.9,45-38.5,44.9-74,0.9c-11.8-14.7-16.8-14.7-28.6,0.2c-34.8,43.8-38.9,43.8-73.2,0.5c-12.3-15.5-16.6-15.4-29.2,0.6
			c-33.8,42.6-39.6,42.5-73.3-1.6c-11-14.5-16.2-14.5-27.5-0.2c-0.2,0.4-0.6,0.7-0.9,1.1c-33.1,42.5-65.6,36.6-94.2-17.2
			c-3.7-7-5.6-14.1-1.6-22.4c4-8.4,8.8-9.7,14.1-3.9c8.6,9.4,17,19.9,25.8,28.5c17.7,17,22.6,15.7,38.2-5.8c4.4-6.1,9-12,13.7-17
			c12.8-13.6,25.6-12.8,38,1.3c7.1,8,13.7,17.1,20.5,25.8c7.1,9,14.2,9.6,21.5,0.3c5.9-7.7,11.8-15.6,17.9-22.6
			c17.4-20.1,31.4-19.9,47.7,3c27.3,38.4,27.5,32.2,50.9,0.6c17.4-23.6,33.5-24,51.4-0.5c24.6,32.5,22.7,38.4,51,0.2
			c14.1-19,29.3-22.4,45.8-9.4c14.9,11.8,28.2,27.8,40.9,45.3C639.8,617.8,639.8,623.8,639.8,629.8z"/>
		<path class="st2" d="M639.8,362.4c-6.9,11.1-13.3,10.5-20.8,0.5c-9.4-12.7-19.6-23.6-30.9-31.5c-7.3-5.1-13.7-4-20,3.9
			c-6.5,8.3-12.9,16.9-19.7,24.6c-13.8,15.9-27.9,15.9-41.7-0.2c-3.8-4.4-7.4-9.3-11.1-14.1c-17.9-23.6-20.5-23.5-38.5,0.7
			c-3.9,5.2-7.8,10.6-11.9,15.1c-13.8,15.2-27.5,13.6-40.8-1.8c-5.9-6.8-11.6-13.8-17-21.6c-8.8-12.8-17.2-11.4-25.9,0.1
			c-6.1,8.1-12.2,16.6-18.8,23.5c-13.7,14.5-27.5,13.7-40.9-2.3c-6.1-7.3-12-14.9-17.7-23c-8.3-11.9-16.1-9.7-24.1,0.7
			c-0.8,1.1-1.6,2.3-2.4,3.6c-27.8,39.7-40.7,41.6-71.6,9.4c-7.3-7.6-14.2-15.8-21.1-24.5c-4.8-6-7.1-14.4-3-23.3
			c3.7-8.2,9-9.4,14.3-3.9c9.4,9.9,18.3,20.6,27.8,30.1c12.8,12.8,25,11.4,35.9-6.7c2-3.3,4.3-6.4,6.5-9.3c20-25,33.2-24.6,52.9,1
			c2.8,3.7,5.6,7.4,8.4,11.1c11.6,15.5,18.7,15.8,30.6,1.2c5.2-6.3,10.2-13.2,15.4-19.2c14.2-16.3,28.5-16.3,42.5,0.9
			c5.7,7,11.3,14.5,17.1,21.5c8.2,9.7,16.3,10.7,24.5-0.1c6.7-8.8,13.4-17.8,20.6-25.5c11.9-12.8,24.2-12.4,36.2,0
			c6.3,6.6,12.1,14.6,18.2,22.1c12,14.9,18.6,14.8,30.5-1.1c29.4-39,40.9-39.8,72.8-6.3c7.4,7.8,13.8,19.5,23.6,19.1
			C639.8,345.5,639.8,354,639.8,362.4z"/>
		<path class="st2" d="M639.8,496.1c-7.2,10.7-14.1,8.8-21.1-0.8c-8.9-12.1-18.5-22.2-29-30.1c-8.2-6.2-15.7-5.6-22.9,4
			c-5.3,7-10.7,14.1-16.1,20.6c-16.3,19.5-30.8,19.1-47-1c-26.6-33.3-26.6-33.3-52.6-1c-17.8,22.1-33.1,22.1-50.7-0.4
			c-23.6-30.2-21.9-39.6-51.2-0.3c-17.9,23.9-32.6,24.5-50.4,0.5c-29.6-39.9-27.8-31.3-51.9,0.4c-13.3,17.5-27.5,20.3-43,9.9
			c-14.1-9.4-26.3-23.7-38.1-39.2c-5-6.5-7.6-15.3-3-25c4.4-9.4,9.8-7.4,15.1-1.3c10,11.5,19.8,23.3,30.8,32.1
			c10,7.9,19.1,7.9,27.5-5.7c0.7-1.2,1.6-2.3,2.5-3.4c30.8-39.6,37.9-39.5,68.7,1.5c13.3,17.7,19.3,17.4,32.9-0.9
			c3.9-5.2,7.8-10.6,11.9-15.3c16-18.7,29.3-18.7,45.3,0.1c4.4,5.2,8.4,11.1,12.5,16.7c12.5,16.7,18.7,16.8,31.2,0.2
			c4.2-5.6,8.2-11.5,12.5-16.7c16-19,28.9-19.3,45.3-0.8c6.2,7,12,15,17.8,22.8c7.2,9.4,14.4,9.3,21.6,0.3
			c5.4-6.8,10.8-13.6,16.1-20.7c13.3-17.8,27.6-19.9,43-8.7c15.8,11.5,29.7,28,42.3,47.8C639.8,486.5,639.8,491.2,639.8,496.1z"/>
		<path class="st2" d="M639.8,232.3c-7.3,9.7-14.1,8-21.1-1.8c-7.7-10.8-16.2-19.4-25-27.2c-10.5-9.4-20.3-8.6-29.6,4.8
			c-4.4,6.2-9,11.9-13.6,17.4c-16.7,19.6-31,19.9-46.9-1.7c-28.2-38.4-28.6-32.6-53.2-0.2c-17,22.4-32.6,22.8-49.6-0.2
			c-27.5-37.4-27.5-31.7-51.4-1c-19.9,25.4-34.2,23.8-53.8-3.1c-3.3-4.5-6.8-8.8-10.1-13.2c-8.4-10.8-16.7-12-25.3-0.4
			c-5,6.8-10.2,13.1-15.2,19.8c-13.2,17.4-27.2,18.2-42.1,7.4c-13.5-9.9-25.4-24.1-37.5-37.5c-5.5-6-6.8-14.4-3.9-23.3
			c3.2-10.3,9.1-11.2,14.7-5.7c7.7,7.6,14.8,16.7,22.3,24.5c20.5,21.1,24.3,20.6,43.5-4.3c25.9-33.7,37-33.2,62.9,2.6
			c16.6,22.9,20.7,22.7,37.6-0.6c8.1-11.1,16.3-21.6,26.8-25c14-4.4,24.6,7.2,34.8,21.2c3.9,5.3,7.8,10.5,11.7,15.4
			c6.5,8.1,13.2,8,19.7-0.2c6.3-7.8,12.2-16.6,18.6-24.1c15.6-18.4,30.1-18.2,45.3,0.3c5.5,6.6,10.9,13.4,16,20.8
			c8.2,11.8,16,10.7,24.1,0.2c5.7-7.3,11.3-14.5,17-21.6c11.9-15.1,25-16.7,38.4-7.9c17,11.2,32.3,27.5,45,50.1
			C639.8,222.7,639.8,227.4,639.8,232.3z"/>
	</g>
</g>
</svg>
