<?xml version="1.0" encoding="utf-8"?>
<!-- Generator: Adobe Illustrator 23.0.0, SVG Export Plug-In . SVG Version: 6.00 Build 0)  -->
<svg version="1.1" xmlns="http://www.w3.org/2000/svg" xmlns:xlink="http://www.w3.org/1999/xlink" x="0px" y="0px"
	 viewBox="0 0 800 800" style="enable-background:new 0 0 800 800;" xml:space="preserve">
<style type="text/css">
	.st0{fill:#333333;}
	.st1{opacity:0.4;clip-path:url(#SVGID_2_);}
	.st2{fill:#E0E0E0;}
	.st3{fill:#E34F36;}
</style>
<g id="Layer_2">
	<circle class="st0" cx="400" cy="400" r="400"/>
</g>
<g id="Layer_1_copy">
	<g>
		<defs>
			<circle id="SVGID_1_" cx="400" cy="400" r="400"/>
		</defs>
		<clipPath id="SVGID_2_">
			<use xlink:href="#SVGID_1_"  style="overflow:visible;"/>
		</clipPath>
		<path class="st1" d="M920.9,746.6c6.1,0,6.2-0.1,6.2-6.1c0-13.7-0.1-27.5,0.1-41.2c0-3-0.9-5.1-3-6.9c-0.3-0.3-0.6-0.7-1-1
			c-0.3-0.3-0.6-0.7-1-1c-0.3-0.3-0.6-0.7-1-1c-0.3-0.3-0.6-0.7-1-1c-0.3-0.3-0.6-0.7-1-1c-0.3-0.3-0.6-0.7-1-1
			c-0.3-0.3-0.6-0.7-1-1c-0.3-0.3-0.6-0.7-1-1c-0.3-0.3-0.6-0.7-1-1c-0.3-0.3-0.6-0.7-1-1c-0.3-0.3-0.6-0.7-1-1
			c-0.3-0.3-0.6-0.7-1-1c-0.3-0.3-0.6-0.7-1-1c-0.3-0.3-0.6-0.7-1-1c-0.3-0.3-0.6-0.7-1-1c-0.3-0.3-0.6-0.7-1-1
			c-0.3-0.3-0.6-0.7-1-1c-0.3-0.3-0.6-0.7-1-1c-0.3-0.3-0.6-0.7-1-1c-0.3-0.3-0.6-0.7-1-1c-0.3-0.3-0.6-0.7-1-1
			c-0.3-0.3-0.6-0.7-1-1c-0.3-0.3-0.6-0.7-1-1c-0.3-0.3-0.6-0.7-1-1c-0.3-0.3-0.6-0.7-1-1c-0.3-0.3-0.6-0.7-1-1
			c-0.3-0.3-0.6-0.7-1-1c-0.3-0.3-0.6-0.7-1-1c-0.3-0.3-0.6-0.7-1-1c-0.3-0.3-0.6-0.7-1-1c-0.3-0.3-0.6-0.7-1-1
			c-0.3-0.3-0.6-0.7-1-1c-0.3-0.3-0.6-0.7-1-1c-0.3-0.3-0.6-0.7-1-1c-0.3-0.3-0.6-0.7-1-1c-0.3-0.3-0.6-0.7-1-1
			c-0.3-0.3-0.6-0.7-1-1c-0.3-0.3-0.6-0.7-1-1c-0.3-0.3-0.6-0.7-1-1c-0.3-0.3-0.6-0.7-1-1c-0.3-0.3-0.6-0.7-1-1
			c-0.3-0.3-0.6-0.7-1-1c-0.3-0.3-0.6-0.7-1-1c-0.3-0.3-0.6-0.7-1-1c-0.3-0.3-0.6-0.7-1-1c-0.3-0.3-0.6-0.7-1-1
			c-0.3-0.3-0.6-0.7-1-1c-0.3-0.3-0.6-0.7-1-1c-0.3-0.3-0.6-0.7-1-1c-0.3-0.3-0.6-0.7-1-1c-0.3-0.3-0.6-0.7-1-1
			c-0.3-0.3-0.6-0.7-1-1c-0.3-0.3-0.6-0.7-1-1c-0.3-0.3-0.6-0.7-1-1c-0.3-0.3-0.6-0.7-1-1c-0.3-0.3-0.6-0.7-1-1
			c-0.3-0.3-0.6-0.7-1-1c-0.3-0.3-0.6-0.7-1-1c-0.3-0.3-0.6-0.7-1-1c-0.3-0.3-0.6-0.7-1-1c-0.3-0.3-0.6-0.7-1-1
			c-0.3-0.3-0.6-0.7-1-1c-0.3-0.3-0.6-0.7-1-1c-0.3-0.3-0.6-0.7-1-1c-0.3-0.3-0.6-0.7-1-1c-0.3-0.3-0.6-0.7-1-1
			c-0.3-0.3-0.6-0.7-1-1c-0.3-0.3-0.6-0.7-1-1c-0.3-0.3-0.6-0.7-1-1c-0.3-0.3-0.6-0.7-1-1c-0.3-0.3-0.6-0.7-1-1
			c-0.3-0.3-0.6-0.7-1-1c-0.3-0.3-0.6-0.7-1-1c-0.3-0.3-0.6-0.7-1-1c-0.3-0.3-0.6-0.7-1-1c-0.3-0.3-0.6-0.7-1-1
			c-0.3-0.3-0.6-0.7-1-1c-0.3-0.3-0.6-0.7-1-1c-0.3-0.3-0.6-0.7-1-1c-0.3-0.3-0.6-0.7-1-1c-0.3-0.3-0.6-0.7-1-1
			c-0.3-0.3-0.6-0.7-1-1c-0.3-0.3-0.6-0.7-1-1c-0.3-0.3-0.6-0.7-1-1c-0.3-0.3-0.6-0.7-1-1c-0.3-0.3-0.6-0.7-1-1
			c-0.3-0.3-0.6-0.7-1-1c-0.3-0.3-0.6-0.7-1-1c-0.3-0.3-0.6-0.7-1-1c-0.3-0.3-0.6-0.7-1-1c-0.3-0.3-0.6-0.7-1-1
			c-0.3-0.3-0.6-0.7-1-1c-0.3-0.3-0.6-0.7-1-1c-0.3-0.3-0.6-0.7-1-1c-0.3-0.3-0.6-0.7-1-1c-0.3-0.3-0.6-0.7-1-1
			c-0.3-0.3-0.6-0.7-1-1c-0.3-0.3-0.6-0.7-1-1c-0.3-0.3-0.6-0.7-1-1c-0.3-0.3-0.6-0.7-1-1c-0.3-0.3-0.6-0.7-1-1
			c-0.3-0.3-0.6-0.7-1-1c-0.3-0.3-0.6-0.7-1-1c-0.3-0.3-0.6-0.7-1-1c-0.3-0.3-0.6-0.7-1-1c-0.3-0.3-0.6-0.7-1-1
			c-0.3-0.3-0.6-0.7-1-1c-0.3-0.3-0.6-0.7-1-1c-0.3-0.3-0.6-0.7-1-1c-0.3-0.3-0.6-0.7-1-1c-0.3-0.3-0.6-0.7-1-1
			c-0.3-0.3-0.6-0.7-1-1c-0.3-0.3-0.6-0.7-1-1c-0.3-0.3-0.6-0.7-1-1c-0.3-0.3-0.6-0.7-1-1c-0.3-0.3-0.6-0.7-1-1
			c-0.3-0.3-0.6-0.7-1-1c-0.3-0.3-0.6-0.7-1-1c-0.3-0.3-0.6-0.7-1-1c-0.3-0.3-0.6-0.7-1-1c-0.3-0.3-0.6-0.7-1-1
			c-0.3-0.3-0.6-0.7-1-1c-0.2-0.3-0.5-0.5-0.8-0.8c0.1-35.4,0-70.8,0-106.2c0-3.6,0-5-1.4-5.5c-0.2-0.5-0.5-0.8-1-1
			c-0.2-0.5-0.5-0.8-1-1c-0.2-0.5-0.5-0.8-1-1c-0.2-0.5-0.5-0.8-1-1c-0.2-0.5-0.5-0.8-1-1c-0.2-0.5-0.5-0.8-1-1
			c-0.2-0.5-0.5-0.8-1-1c-0.2-0.5-0.5-0.8-1-1c-0.2-0.5-0.5-0.8-1-1c-0.2-0.5-0.5-0.8-1-1c-0.2-0.5-0.5-0.8-1-1
			c-0.2-0.5-0.5-0.8-1-1c-0.2-0.5-0.5-0.8-1-1c-0.2-0.5-0.5-0.8-1-1c-0.2-0.5-0.5-0.8-1-1c-0.2-0.5-0.5-0.8-1-1
			c-0.2-0.5-0.5-0.8-1-1c-0.2-0.5-0.5-0.8-1-1c-0.2-0.5-0.5-0.8-1-1c-0.2-0.5-0.5-0.8-1-1c-0.2-0.5-0.5-0.8-1-1
			c-0.2-0.5-0.5-0.8-1-1c-0.2-0.5-0.5-0.8-1-1c-0.2-0.5-0.5-0.8-1-1c-0.2-0.5-0.5-0.8-1-1c-0.2-0.5-0.5-0.8-1-1
			c-0.2-0.5-0.5-0.8-1-1c-0.2-0.5-0.5-0.8-1-1c-0.2-0.5-0.5-0.8-1-1c-0.2-0.5-0.5-0.8-1-1c-0.2-0.5-0.5-0.8-1-1
			c-0.2-0.5-0.5-0.8-1-1c-0.2-0.5-0.5-0.8-1-1c-0.2-0.5-0.5-0.8-1-1c-0.2-0.5-0.5-0.8-1-1c-0.2-0.5-0.5-0.8-1-1
			c-0.2-0.5-0.5-0.8-1-1c-0.2-0.5-0.5-0.8-1-1c-0.2-0.5-0.5-0.8-1-1c-0.2-0.5-0.5-0.8-1-1c-0.2-0.5-0.5-0.8-1-1
			c-0.2-0.5-0.5-0.8-1-1c-0.2-0.5-0.5-0.8-1-1c-0.2-0.5-0.5-0.8-1-1c-0.2-0.5-0.5-0.8-1-1c-0.2-0.5-0.5-0.8-1-1
			c-0.2-0.5-0.5-0.8-1-1c-0.2-0.5-0.5-0.8-1-1c-0.2-0.5-0.5-0.8-1-1c-0.2-0.5-0.5-0.8-1-1c-0.2-0.5-0.5-0.8-1-1
			c-0.2-0.5-0.5-0.8-1-1c-0.2-0.5-0.5-0.8-1-1c-0.2-0.5-0.5-0.8-1-1c-0.2-0.5-0.5-0.8-1-1c-0.2-0.5-0.5-0.8-1-1
			c-0.2-0.5-0.5-0.8-1-1c-0.2-0.5-0.5-0.8-1-1c-0.2-0.5-0.5-0.8-1-1c-0.2-0.5-0.5-0.8-1-1c-0.2-0.5-0.5-0.8-1-1
			c-0.2-0.5-0.5-0.8-1-1c-0.2-0.5-0.5-0.8-1-1c-0.2-0.5-0.5-0.8-1-1c-0.2-0.5-0.5-0.8-1-1c-0.2-0.5-0.5-0.8-1-1
			c-0.2-0.5-0.5-0.8-1-1c-0.2-0.5-0.5-0.8-1-1c-0.2-0.5-0.5-0.8-1-1c-0.2-0.5-0.5-0.8-1-1c-0.2-0.5-0.5-0.8-1-1
			c-0.2-0.5-0.5-0.8-1-1c-0.2-0.5-0.5-0.8-1-1c-0.2-0.5-0.5-0.8-1-1c-0.2-0.5-0.5-0.8-1-1c-0.2-0.5-0.5-0.8-1-1
			c-0.2-0.5-0.5-0.8-1-1c-0.2-0.5-0.5-0.8-1-1c-0.2-0.5-0.5-0.8-1-1c-0.2-0.5-0.5-0.8-1-1c-0.2-0.5-0.5-0.8-1-1
			c-0.2-0.5-0.5-0.8-1-1c-0.2-0.5-0.5-0.8-1-1c-0.2-0.5-0.5-0.8-1-1c-0.2-0.5-0.5-0.8-1-1c-0.2-0.5-0.5-0.8-1-1
			c-0.2-0.5-0.5-0.8-1-1c-0.2-0.5-0.5-0.8-1-1c-0.2-0.5-0.5-0.8-1-1c-0.2-0.5-0.5-0.8-1-1c-0.2-0.5-0.5-0.8-1-1
			c-0.2-0.5-0.5-0.8-1-1c-0.2-0.5-0.5-0.8-1-1c-0.2-0.5-0.5-0.8-1-1c-0.2-0.5-0.5-0.8-1-1c-0.2-0.5-0.5-0.8-1-1
			c-0.2-0.5-0.5-0.8-1-1c-0.2-0.5-0.5-0.8-1-1c-0.2-0.5-0.5-0.8-1-1c-0.2-0.5-0.5-0.8-1-1c-0.2-0.5-0.5-0.8-1-1
			c-0.2-0.5-0.5-0.8-1-1c-0.2-0.5-0.5-0.8-1-1c-0.2-0.5-0.5-0.8-1-1c-0.2-0.5-0.5-0.8-1-1c-0.2-0.5-0.5-0.8-1-1
			c-0.2-0.5-0.5-0.8-1-1c-0.2-0.5-0.5-0.8-1-1c-0.2-0.5-0.5-0.8-1-1c-0.2-0.5-0.5-0.8-1-1c-0.2-0.5-0.5-0.8-1-1
			c-0.2-0.5-0.5-0.8-1-1c-0.2-0.5-0.5-0.8-1-1c-0.2-0.5-0.5-0.8-1-1c-0.2-0.5-0.5-0.8-1-1c-0.2-0.5-0.5-0.8-1-1
			c-0.2-0.5-0.5-0.8-1-1c-0.2-0.5-0.5-0.8-1-1c-0.2-0.5-0.5-0.8-1-1c-0.2-0.5-0.5-0.8-1-1c-0.2-0.5-0.5-0.8-1-1
			c-0.2-0.5-0.5-0.8-1-1c-0.2-0.5-0.5-0.8-1-1c-0.2-0.5-0.5-0.8-1-1c-0.2-0.5-0.5-0.8-1-1c-0.2-0.5-0.5-0.8-1-1
			c-0.2-0.5-0.5-0.8-1-1c-0.2-0.5-0.5-0.8-1-1c-0.2-0.5-0.5-0.8-1-1c-0.2-0.5-0.5-0.8-1-1c-0.2-0.5-0.5-0.8-1-1
			c-0.2-0.5-0.5-0.8-1-1c-0.2-0.5-0.5-0.8-1-1c-0.2-0.5-0.5-0.8-1-1c-0.2-0.5-0.5-0.8-1-1c-0.2-0.5-0.5-0.8-1-1
			c-0.2-0.5-0.5-0.8-1-1c-0.2-0.5-0.5-0.8-1-1c-0.2-0.5-0.5-0.8-1-1c-0.2-0.5-0.5-0.8-1-1c-0.2-0.5-0.5-0.8-1-1
			c-0.2-0.5-0.5-0.8-1-1c-0.2-0.5-0.5-0.8-1-1c-0.2-0.5-0.5-0.8-1-1c-0.2-0.5-0.5-0.8-1-1c-0.2-0.5-0.5-0.8-1-1
			c-0.2-0.5-0.5-0.8-1-1c-0.2-0.5-0.5-0.8-1-1c-0.2-0.5-0.5-0.8-1-1c-0.2-0.5-0.5-0.8-1-1c-0.2-0.5-0.5-0.8-1-1
			c-0.2-0.5-0.5-0.8-1-1c-0.2-0.5-0.5-0.8-1-1c-0.2-0.5-0.5-0.8-1-1c-0.2-0.5-0.5-0.8-1-1c-0.2-0.5-0.5-0.8-1-1
			c-0.2-0.5-0.5-0.8-1-1c-0.2-0.5-0.5-0.8-1-1c-0.2-0.5-0.5-0.8-1-1c-0.2-0.5-0.5-0.8-1-1c-0.2-0.5-0.5-0.8-1-1
			c-0.2-0.5-0.5-0.8-1-1c-0.2-0.5-0.5-0.8-1-1c-0.2-0.5-0.5-0.8-1-1c-0.2-0.5-0.5-0.8-1-1c-0.2-0.5-0.5-0.8-1-1
			c-0.2-0.5-0.5-0.8-1-1c-0.2-0.5-0.5-0.8-1-1c-0.2-0.5-0.5-0.8-1-1c-0.2-0.5-0.5-0.8-1-1c-0.2-0.5-0.5-0.8-1-1
			c-0.2-0.5-0.5-0.8-1-1c-0.2-0.5-0.5-0.8-1-1c-0.2-0.5-0.5-0.8-1-1c-0.2-0.5-0.5-0.8-1-1c-0.2-0.5-0.5-0.8-1-1
			c-0.2-0.5-0.5-0.8-1-1c-0.2-0.5-0.5-0.8-1-1c-0.2-0.5-0.5-0.8-1-1c-0.2-0.5-0.5-0.8-1-1c-0.2-0.5-0.5-0.8-1-1
			c-0.2-0.5-0.5-0.8-1-1c-0.2-0.5-0.5-0.8-1-1c-0.2-0.5-0.5-0.8-1-1c-0.2-0.5-0.5-0.8-1-1c-0.2-0.5-0.5-0.8-1-1
			c-0.2-0.5-0.5-0.8-1-1c-0.2-0.5-0.5-0.8-1-1c-0.2-0.5-0.5-0.8-1-1c-0.2-0.5-0.5-0.8-1-1c-0.2-0.5-0.5-0.8-1-1
			c-0.2-0.5-0.5-0.8-1-1c-0.2-0.5-0.5-0.8-1-1c-0.2-0.5-0.5-0.8-1-1c-0.2-0.5-0.5-0.8-1-1c-0.2-0.5-0.5-0.8-1-1
			c-0.2-0.5-0.5-0.8-1-1c-0.2-0.5-0.5-0.8-1-1c-0.2-0.5-0.5-0.8-1-1c-0.2-0.5-0.5-0.8-1-1c-0.2-0.5-0.5-0.8-1-1
			c-0.2-0.5-0.5-0.8-1-1c-0.2-0.5-0.5-0.8-1-1c-0.2-0.5-0.5-0.8-1-1c-0.2-0.5-0.5-0.8-1-1c-0.2-0.5-0.5-0.8-1-1
			c-0.2-0.5-0.5-0.8-1-1c-0.2-0.5-0.5-0.8-1-1c-0.2-0.5-0.5-0.8-1-1c-0.2-0.5-0.5-0.8-1-1c-0.2-0.5-0.5-0.8-1-1
			c-0.2-0.5-0.5-0.8-1-1c-0.2-0.5-0.5-0.8-1-1c-0.2-0.5-0.5-0.8-1-1c-0.2-0.5-0.5-0.8-1-1c-0.2-0.5-0.5-0.8-1-1
			c-0.2-0.5-0.5-0.8-1-1c-0.2-0.5-0.5-0.8-1-1c-0.2-0.5-0.5-0.8-1-1c-0.2-0.5-0.5-0.8-1-1c-0.2-0.5-0.5-0.8-1-1
			c-0.2-0.5-0.5-0.8-1-1c-0.2-0.5-0.5-0.8-1-1c-0.2-0.5-0.5-0.8-1-1c-0.2-0.5-0.5-0.8-1-1c-0.2-0.5-0.5-0.8-1-1
			c-0.2-0.5-0.5-0.8-1-1c-0.2-0.5-0.5-0.8-1-1c-0.2-0.5-0.5-0.8-1-1c-0.2-0.5-0.5-0.8-1-1c-0.2-0.5-0.5-0.8-1-1
			c-0.2-0.5-0.5-0.8-1-1c-0.2-0.5-0.5-0.8-1-1c-0.2-0.5-0.5-0.8-1-1c-0.2-0.5-0.5-0.8-1-1c-0.2-0.5-0.5-0.8-1-1
			c-0.2-0.5-0.5-0.8-1-1c-0.2-0.5-0.5-0.8-1-1c-0.2-0.5-0.5-0.8-1-1c-0.2-0.5-0.5-0.8-1-1c-0.2-0.5-0.5-0.8-1-1
			c-0.2-0.5-0.5-0.8-1-1c-0.2-0.5-0.5-0.8-1-1c-0.2-0.5-0.5-0.8-1-1c-0.2-0.5-0.5-0.8-1-1c-0.2-0.5-0.5-0.8-1-1
			c-0.2-0.5-0.5-0.8-1-1c-0.2-0.5-0.5-0.8-1-1c-0.2-0.5-0.5-0.8-1-1c-0.2-0.5-0.5-0.8-1-1c-0.2-0.5-0.5-0.8-1-1
			c-0.2-0.5-0.5-0.8-1-1c-0.2-0.5-0.5-0.8-1-1c-0.2-0.5-0.5-0.8-1-1c-0.2-0.5-0.5-0.8-1-1c-0.2-0.5-0.5-0.8-1-1
			c-0.2-0.5-0.5-0.8-1-1c-0.2-0.5-0.5-0.8-1-1c-0.2-0.5-0.5-0.8-1-1c-0.2-0.5-0.5-0.8-1-1c-0.2-0.5-0.5-0.8-1-1
			c-0.2-0.5-0.5-0.8-1-1c-0.2-0.5-0.5-0.8-1-1c-0.2-0.5-0.5-0.8-1-1c-0.2-0.5-0.5-0.8-1-1c-0.2-0.5-0.5-0.8-1-1
			c-0.2-0.5-0.5-0.8-1-1c-0.2-0.5-0.5-0.8-1-1c-0.2-0.5-0.5-0.8-1-1c-0.2-0.5-0.5-0.8-1-1c-0.2-0.5-0.5-0.8-1-1
			c-0.2-0.5-0.5-0.8-1-1c-0.2-0.5-0.5-0.8-1-1c-0.2-0.5-0.5-0.8-1-1c-0.2-0.5-0.5-0.8-1-1c-0.2-0.5-0.5-0.8-1-1
			c-0.2-0.5-0.5-0.8-1-1c-0.2-0.5-0.5-0.8-1-1c-0.2-0.5-0.5-0.8-1-1c-0.2-0.5-0.5-0.8-1-1c-0.2-0.5-0.5-0.8-1-1
			c-0.2-0.5-0.5-0.8-1-1c-0.2-0.5-0.5-0.8-1-1c-0.2-0.5-0.5-0.8-1-1c-0.2-0.5-0.5-0.8-1-1c-0.2-0.5-0.5-0.8-1-1
			c-0.2-0.5-0.5-0.8-1-1c-0.2-0.5-0.5-0.8-1-1c-0.2-0.5-0.5-0.8-1-1c-0.2-0.5-0.5-0.8-1-1c-0.2-0.5-0.5-0.8-1-1
			c-0.2-0.5-0.5-0.8-1-1c-0.2-0.5-0.5-0.8-1-1c-0.2-0.5-0.5-0.8-1-1c-0.2-0.5-0.5-0.8-1-1c-0.2-0.5-0.5-0.8-1-1
			c-0.2-0.5-0.5-0.8-1-1c-0.2-0.5-0.5-0.8-1-1c-0.2-0.5-0.5-0.8-1-1c-0.6-1.4-2-1.4-5.5-1.4c-63.7,0-127.3,0-191,0
			c-6.1,0-6.1,0-6.1,6.1c0,40.6,0,81.2,0.1,121.8c0,3.6-1.1,6.1-4,8.3c-7,5.5-13.7,11.3-20.6,17c-30.9,25.9-61.8,51.8-93,77.3
			c-6,4.8-9.4,9.7-8.2,17.4c0.4,2.5,0.1,5.2,0.1,7.9c0,9.6,0.1,19.1-0.1,28.7c0,2.2,0.5,3.5,1.7,4.2c0.3,0.4,0.6,0.8,1,1
			c0.3,0.4,0.6,0.8,1,1c0.3,0.4,0.6,0.8,1,1c0.3,0.4,0.6,0.8,1,1c0.3,0.4,0.6,0.8,1,1c0.3,0.4,0.6,0.8,1,1c0.3,0.4,0.6,0.8,1,1
			c0.3,0.4,0.6,0.8,1,1c0.3,0.4,0.6,0.8,1,1c0.3,0.4,0.6,0.8,1,1c0.3,0.4,0.6,0.8,1,1c0.3,0.4,0.6,0.8,1,1c0.3,0.4,0.6,0.8,1,1
			c0.3,0.4,0.6,0.8,1,1c0.3,0.4,0.6,0.8,1,1c0.3,0.4,0.6,0.8,1,1c0.1,0.1,0.2,0.3,0.3,0.4c-3.4,0-6.8,0-10.3,0c-1.1,0-2.4,0.1-3.5,0
			c-3-0.2-4.2,1.1-4.2,4.2c0.1,7.2,0,14.4,0,21.6c0,3.9,0,5.5,1.4,6.1c0.2,0.5,0.5,0.8,1,1c0.2,0.5,0.5,0.8,1,1c0.2,0.5,0.5,0.8,1,1
			c0.2,0.5,0.5,0.8,1,1c0.2,0.5,0.5,0.8,1,1c0.2,0.5,0.5,0.8,1,1c0.2,0.5,0.5,0.8,1,1c0.2,0.5,0.5,0.8,1,1c0.2,0.5,0.5,0.8,1,1
			c0.2,0.5,0.5,0.8,1,1c0.2,0.5,0.5,0.8,1,1c0.2,0.5,0.5,0.8,1,1c0.2,0.5,0.5,0.8,1,1c0.2,0.5,0.5,0.8,1,1c0.2,0.5,0.5,0.8,1,1
			c0.2,0.5,0.5,0.8,1,1c0.2,0.5,0.5,0.8,1,1c0.2,0.5,0.5,0.8,1,1c0.2,0.5,0.5,0.8,1,1c0.2,0.5,0.5,0.8,1,1c0.2,0.5,0.5,0.8,1,1
			c0.2,0.5,0.5,0.8,1,1c0.2,0.5,0.5,0.8,1,1c0.2,0.5,0.5,0.8,1,1c0.2,0.5,0.5,0.8,1,1c0.2,0.5,0.5,0.8,1,1c0.2,0.5,0.5,0.8,1,1
			c0.2,0.5,0.5,0.8,1,1c0.2,0.5,0.5,0.8,1,1c0.2,0.5,0.5,0.8,1,1c0.2,0.5,0.5,0.8,1,1c0.2,0.5,0.5,0.8,1,1c0.2,0.5,0.5,0.8,1,1
			c0.2,0.5,0.5,0.8,1,1c0.2,0.5,0.5,0.8,1,1c0.2,0.5,0.5,0.8,1,1c0.2,0.5,0.5,0.8,1,1c0.2,0.5,0.5,0.8,1,1c0.2,0.5,0.5,0.8,1,1
			c0.2,0.5,0.5,0.8,1,1c0.2,0.5,0.5,0.8,1,1c0.2,0.5,0.5,0.8,1,1c0.2,0.5,0.5,0.8,1,1c0.2,0.5,0.5,0.8,1,1c0.2,0.5,0.5,0.8,1,1
			c0.2,0.5,0.5,0.8,1,1c0.2,0.5,0.5,0.8,1,1c0.2,0.5,0.5,0.8,1,1c0.2,0.5,0.5,0.8,1,1c0.2,0.5,0.5,0.8,1,1c0.2,0.5,0.5,0.8,1,1
			c0.2,0.5,0.5,0.8,1,1c0.2,0.5,0.5,0.8,1,1c0.2,0.5,0.5,0.8,1,1c0.2,0.5,0.5,0.8,1,1c0.2,0.5,0.5,0.8,1,1c0.2,0.5,0.5,0.8,1,1
			c0.2,0.5,0.5,0.8,1,1c0.2,0.5,0.5,0.8,1,1c0.2,0.5,0.5,0.8,1,1c0.2,0.5,0.5,0.8,1,1c0.2,0.5,0.5,0.8,1,1c0.2,0.5,0.5,0.8,1,1
			c0.2,0.5,0.5,0.8,1,1c0.2,0.5,0.5,0.8,1,1c0.2,0.5,0.5,0.8,1,1c0.2,0.5,0.5,0.8,1,1c0.2,0.5,0.5,0.8,1,1c0.2,0.5,0.5,0.8,1,1
			c0.2,0.5,0.5,0.8,1,1c0.2,0.5,0.5,0.8,1,1c0.2,0.5,0.5,0.8,1,1c0.2,0.5,0.5,0.8,1,1c0.2,0.5,0.5,0.8,1,1c0.2,0.5,0.5,0.8,1,1
			c0.2,0.5,0.5,0.8,1,1c0.2,0.5,0.5,0.8,1,1c0.2,0.5,0.5,0.8,1,1c0.2,0.5,0.5,0.8,1,1c0.2,0.5,0.5,0.8,1,1c0.2,0.5,0.5,0.8,1,1
			c0.2,0.5,0.5,0.8,1,1c0.2,0.5,0.5,0.8,1,1c0.2,0.5,0.5,0.8,1,1c0.2,0.5,0.5,0.8,1,1c0.2,0.5,0.5,0.8,1,1c0.2,0.5,0.5,0.8,1,1
			c0.2,0.5,0.5,0.8,1,1c0.2,0.5,0.5,0.8,1,1c0.2,0.5,0.5,0.8,1,1c0.2,0.5,0.5,0.8,1,1c0.2,0.5,0.5,0.8,1,1c0.2,0.5,0.5,0.8,1,1
			c0.2,0.5,0.5,0.8,1,1c0.2,0.5,0.5,0.8,1,1c0.2,0.5,0.5,0.8,1,1c0.2,0.5,0.5,0.8,1,1c0.2,0.5,0.5,0.8,1,1c0.2,0.5,0.5,0.8,1,1
			c0.2,0.5,0.5,0.8,1,1c0.2,0.5,0.5,0.8,1,1c0.2,0.5,0.5,0.8,1,1c0.2,0.5,0.5,0.8,1,1c0.2,0.5,0.5,0.8,1,1c0.2,0.5,0.5,0.8,1,1
			c0.2,0.5,0.5,0.8,1,1c0.2,0.5,0.5,0.8,1,1c0.2,0.5,0.5,0.8,1,1c0.2,0.5,0.5,0.8,1,1c0.2,0.5,0.5,0.8,1,1c0.2,0.5,0.5,0.8,1,1
			c0.2,0.5,0.5,0.8,1,1c0.2,0.5,0.5,0.8,1,1c0.2,0.5,0.5,0.8,1,1c0.2,0.5,0.5,0.8,1,1c0.2,0.5,0.5,0.8,1,1c0.2,0.5,0.5,0.8,1,1
			c0.2,0.5,0.5,0.8,1,1c0.2,0.5,0.5,0.8,1,1c0.2,0.5,0.5,0.8,1,1c0.2,0.5,0.5,0.8,1,1c0.2,0.5,0.5,0.8,1,1c0.2,0.5,0.5,0.8,1,1
			c0.2,0.5,0.5,0.8,1,1c0.2,0.5,0.5,0.8,1,1c0.2,0.5,0.5,0.8,1,1c0.2,0.5,0.5,0.8,1,1c0.2,0.5,0.5,0.8,1,1c0.2,0.5,0.5,0.8,1,1
			c0.2,0.5,0.5,0.8,1,1c0.2,0.5,0.5,0.8,1,1c0.2,0.5,0.5,0.8,1,1c0.2,0.5,0.5,0.8,1,1c0.2,0.5,0.5,0.8,1,1c0.2,0.5,0.5,0.8,1,1
			c0.2,0.5,0.5,0.8,1,1c0.2,0.5,0.5,0.8,1,1c0.2,0.5,0.5,0.8,1,1c0.2,0.5,0.5,0.8,1,1c0.2,0.5,0.5,0.8,1,1c0.2,0.5,0.5,0.8,1,1
			c0.2,0.5,0.5,0.8,1,1c0.2,0.5,0.5,0.8,1,1c0.2,0.5,0.5,0.8,1,1c0.2,0.5,0.5,0.8,1,1c0.2,0.5,0.5,0.8,1,1c0.2,0.5,0.5,0.8,1,1
			c0.2,0.5,0.5,0.8,1,1c0.2,0.5,0.5,0.8,1,1c0.2,0.5,0.5,0.8,1,1c0.2,0.5,0.5,0.8,1,1c0.2,0.5,0.5,0.8,1,1c0.2,0.5,0.5,0.8,1,1
			c0.2,0.5,0.5,0.8,1,1c0.2,0.5,0.5,0.8,1,1c0.2,0.5,0.5,0.8,1,1c0.2,0.5,0.5,0.8,1,1c0.2,0.5,0.5,0.8,1,1c0.2,0.5,0.5,0.8,1,1
			c0.2,0.5,0.5,0.8,1,1c0.2,0.5,0.5,0.8,1,1c0.2,0.5,0.5,0.8,1,1c0.2,0.5,0.5,0.8,1,1c0.2,0.5,0.5,0.8,1,1c0.2,0.5,0.5,0.8,1,1
			c0.2,0.5,0.5,0.8,1,1c0.2,0.5,0.5,0.8,1,1c0.2,0.5,0.5,0.8,1,1c0.2,0.5,0.5,0.8,1,1c0.2,0.5,0.5,0.8,1,1c0.2,0.5,0.5,0.8,1,1
			c0.2,0.5,0.5,0.8,1,1c0.2,0.5,0.5,0.8,1,1c0.2,0.5,0.5,0.8,1,1c0.2,0.5,0.5,0.8,1,1c0.2,0.5,0.5,0.8,1,1c0.2,0.5,0.5,0.8,1,1
			c0.2,0.5,0.5,0.8,1,1c0.2,0.5,0.5,0.8,1,1c0.2,0.5,0.5,0.8,1,1c0.2,0.5,0.5,0.8,1,1c0.2,0.5,0.5,0.8,1,1c0.2,0.5,0.5,0.8,1,1
			c0.2,0.5,0.5,0.8,1,1c0.2,0.5,0.5,0.8,1,1c0.2,0.5,0.5,0.8,1,1c0.2,0.5,0.5,0.8,1,1c0.2,0.5,0.5,0.8,1,1c0.2,0.5,0.5,0.8,1,1
			c0.2,0.5,0.5,0.8,1,1c0.2,0.5,0.5,0.8,1,1c0.2,0.5,0.5,0.8,1,1c0.2,0.5,0.5,0.8,1,1c0.2,0.5,0.5,0.8,1,1c0.2,0.5,0.5,0.8,1,1
			c0.2,0.5,0.5,0.8,1,1c0.2,0.5,0.5,0.8,1,1c0.2,0.5,0.5,0.8,1,1c0.2,0.5,0.5,0.8,1,1c0.2,0.5,0.5,0.8,1,1c0.2,0.5,0.5,0.8,1,1
			c0.2,0.5,0.5,0.8,1,1c0.2,0.5,0.5,0.8,1,1c0.2,0.5,0.5,0.8,1,1c0.2,0.5,0.5,0.8,1,1c0.2,0.5,0.5,0.8,1,1c0.2,0.5,0.5,0.8,1,1
			c0.2,0.5,0.5,0.8,1,1c0.2,0.5,0.5,0.8,1,1c0.2,0.5,0.5,0.8,1,1c0.2,0.5,0.5,0.8,1,1c0.2,0.5,0.5,0.8,1,1c0.2,0.5,0.5,0.8,1,1
			c0.2,0.5,0.5,0.8,1,1c0.2,0.5,0.5,0.8,1,1c0.2,0.5,0.5,0.8,1,1c0.2,0.5,0.5,0.8,1,1c0.2,0.5,0.5,0.8,1,1c0.2,0.5,0.5,0.8,1,1
			c0.2,0.5,0.5,0.8,1,1c0.2,0.5,0.5,0.8,1,1c0.2,0.5,0.5,0.8,1,1c0.2,0.5,0.5,0.8,1,1c0.2,0.5,0.5,0.8,1,1c0.2,0.5,0.5,0.8,1,1
			c0.2,0.5,0.5,0.8,1,1c0.2,0.5,0.5,0.8,1,1c0.2,0.5,0.5,0.8,1,1c0.2,0.5,0.5,0.8,1,1c0.2,0.5,0.5,0.8,1,1c0.2,0.5,0.5,0.8,1,1
			c0.2,0.5,0.5,0.8,1,1c0.2,0.5,0.5,0.8,1,1c0.2,0.5,0.5,0.8,1,1c0.2,0.5,0.5,0.8,1,1c0.2,0.5,0.5,0.8,1,1c0.2,0.5,0.5,0.8,1,1
			c0.2,0.5,0.5,0.8,1,1c0.2,0.5,0.5,0.8,1,1c0.2,0.5,0.5,0.8,1,1c0.2,0.5,0.5,0.8,1,1c0.2,0.5,0.5,0.8,1,1c0.2,0.5,0.5,0.8,1,1
			c0.2,0.5,0.5,0.8,1,1c0.2,0.5,0.5,0.8,1,1c0.2,0.5,0.5,0.8,1,1c0.2,0.5,0.5,0.8,1,1c0.2,0.5,0.5,0.8,1,1c0.2,0.5,0.5,0.8,1,1
			c0.2,0.5,0.5,0.8,1,1c0.2,0.5,0.5,0.8,1,1c0.2,0.5,0.5,0.8,1,1c0.2,0.5,0.5,0.8,1,1c0.2,0.5,0.5,0.8,1,1c0.2,0.5,0.5,0.8,1,1
			c0.2,0.5,0.5,0.8,1,1c0.2,0.5,0.5,0.8,1,1c0.2,0.5,0.5,0.8,1,1c0.2,0.5,0.5,0.8,1,1c0.2,0.5,0.5,0.8,1,1c0.2,0.5,0.5,0.8,1,1
			c0.2,0.5,0.5,0.8,1,1c0.2,0.5,0.5,0.8,1,1c0.2,0.5,0.5,0.8,1,1c0.2,0.5,0.5,0.8,1,1c0.2,0.5,0.5,0.8,1,1c0.2,0.5,0.5,0.8,1,1
			c0.2,0.5,0.5,0.8,1,1c0.2,0.5,0.5,0.8,1,1c0.2,0.5,0.5,0.8,1,1c0.2,0.5,0.5,0.8,1,1c0.2,0.5,0.5,0.8,1,1c0.2,0.5,0.5,0.8,1,1
			c0.2,0.5,0.5,0.8,1,1c0.2,0.5,0.5,0.8,1,1c0.2,0.5,0.5,0.8,1,1c0.2,0.5,0.5,0.8,1,1c0.2,0.5,0.5,0.8,1,1c0.2,0.5,0.5,0.8,1,1
			c0.2,0.5,0.5,0.8,1,1c0.2,0.5,0.5,0.8,1,1c0.2,0.5,0.5,0.8,1,1c0.2,0.5,0.5,0.8,1,1c0.2,0.5,0.5,0.8,1,1c0.2,0.5,0.5,0.8,1,1
			c0.2,0.5,0.5,0.8,1,1c0.2,0.5,0.5,0.8,1,1c0.2,0.5,0.5,0.8,1,1c0.2,0.5,0.5,0.8,1,1c0.2,0.5,0.5,0.8,1,1c0.2,0.5,0.5,0.8,1,1
			c0.2,0.5,0.5,0.8,1,1c0.2,0.5,0.5,0.8,1,1c0.2,0.5,0.5,0.8,1,1c0.2,0.5,0.5,0.8,1,1c0.2,0.5,0.5,0.8,1,1c0.2,0.5,0.5,0.8,1,1
			c0.2,0.5,0.5,0.8,1,1c0.2,0.5,0.5,0.8,1,1c0.6,1.4,2.2,1.4,6,1.4c13.5,0,26.9,0,40.4,0c0.1,0.1,0.3,0.3,0.4,0.4
			c0.3,0.3,0.7,0.7,1,1c0.3,0.3,0.7,0.7,1,1c0.3,0.3,0.7,0.7,1,1c0.3,0.3,0.7,0.7,1,1c0.3,0.3,0.7,0.7,1,1c0.3,0.3,0.7,0.7,1,1
			c0.3,0.3,0.7,0.7,1,1c0.3,0.3,0.7,0.7,1,1c0.3,0.3,0.7,0.7,1,1c0.3,0.3,0.7,0.7,1,1c0.3,0.3,0.7,0.7,1,1c0.3,0.3,0.7,0.7,1,1
			c0.3,0.3,0.7,0.7,1,1c0.3,0.3,0.7,0.7,1,1c0.3,0.3,0.7,0.7,1,1c0.3,0.3,0.7,0.7,1,1c0.3,0.3,0.7,0.7,1,1c0.3,0.3,0.7,0.7,1,1
			c0.3,0.3,0.7,0.7,1,1c0.3,0.3,0.7,0.7,1,1c0.3,0.3,0.7,0.7,1,1c0.3,0.3,0.7,0.7,1,1c0.3,0.3,0.7,0.7,1,1c0.3,0.3,0.7,0.7,1,1
			c0.3,0.3,0.7,0.7,1,1c0.3,0.3,0.7,0.7,1,1c0.3,0.3,0.7,0.7,1,1c0.3,0.3,0.7,0.7,1,1c0.3,0.3,0.7,0.7,1,1c0.3,0.3,0.7,0.7,1,1
			c0.3,0.3,0.7,0.7,1,1c0.3,0.3,0.7,0.7,1,1c0.3,0.3,0.7,0.7,1,1c0.3,0.3,0.7,0.7,1,1c0.3,0.3,0.7,0.7,1,1c0.3,0.3,0.7,0.7,1,1
			c0.3,0.3,0.7,0.7,1,1c0.3,0.3,0.7,0.7,1,1c0.3,0.3,0.7,0.7,1,1c0.3,0.3,0.7,0.7,1,1c0.3,0.3,0.7,0.7,1,1c0.3,0.3,0.7,0.7,1,1
			c0.3,0.3,0.7,0.7,1,1c0.3,0.3,0.7,0.7,1,1c0.3,0.3,0.7,0.7,1,1c0.3,0.3,0.7,0.7,1,1c0.3,0.3,0.7,0.7,1,1c0.3,0.3,0.7,0.7,1,1
			c0.3,0.3,0.7,0.7,1,1c0.3,0.3,0.7,0.7,1,1c0.3,0.3,0.7,0.7,1,1c0.3,0.3,0.7,0.7,1,1c0.3,0.3,0.7,0.7,1,1c0.3,0.3,0.7,0.7,1,1
			c0.3,0.3,0.7,0.7,1,1c0.3,0.3,0.7,0.7,1,1c0.3,0.3,0.7,0.7,1,1c0.3,0.3,0.7,0.7,1,1c0.3,0.3,0.7,0.7,1,1c0.3,0.3,0.7,0.7,1,1
			c0.3,0.3,0.7,0.7,1,1c0.3,0.3,0.7,0.7,1,1c0.3,0.3,0.7,0.7,1,1c0.3,0.3,0.7,0.7,1,1c0.3,0.3,0.7,0.7,1,1c0.3,0.3,0.7,0.7,1,1
			c0.3,0.3,0.7,0.7,1,1c0.3,0.3,0.7,0.7,1,1c0.3,0.3,0.7,0.7,1,1c0.3,0.3,0.7,0.7,1,1c0.3,0.3,0.7,0.7,1,1c0.3,0.3,0.7,0.7,1,1
			c0.3,0.3,0.7,0.7,1,1c0.3,0.3,0.7,0.7,1,1c0.3,0.3,0.7,0.7,1,1c0.3,0.3,0.7,0.7,1,1c0.3,0.3,0.7,0.7,1,1c0.3,0.3,0.7,0.7,1,1
			c0.3,0.3,0.7,0.7,1,1c0.3,0.3,0.7,0.7,1,1c0.3,0.3,0.7,0.7,1,1c0.3,0.3,0.7,0.7,1,1c0.3,0.3,0.7,0.7,1,1c0.3,0.3,0.7,0.7,1,1
			c0.3,0.3,0.7,0.7,1,1c0.3,0.3,0.7,0.7,1,1c0.3,0.3,0.7,0.7,1,1c0.3,0.3,0.7,0.7,1,1c0.3,0.3,0.7,0.7,1,1c0.3,0.3,0.7,0.7,1,1
			c0.3,0.3,0.7,0.7,1,1c0.3,0.3,0.7,0.7,1,1c0.3,0.3,0.7,0.7,1,1c0.3,0.3,0.7,0.7,1,1c0.3,0.3,0.7,0.7,1,1c0.3,0.3,0.7,0.7,1,1
			c0.3,0.3,0.7,0.7,1,1c0.3,0.3,0.7,0.7,1,1c0.3,0.3,0.7,0.7,1,1c0.3,0.3,0.7,0.7,1,1c0.3,0.3,0.7,0.7,1,1c0.3,0.3,0.7,0.7,1,1
			c0.3,0.3,0.7,0.7,1,1c0.3,0.3,0.7,0.7,1,1c0.3,0.3,0.7,0.7,1,1c0.3,0.3,0.7,0.7,1,1c0.3,0.3,0.7,0.7,1,1c0.3,0.3,0.7,0.7,1,1
			c0.3,0.3,0.7,0.7,1,1c0.3,0.3,0.7,0.7,1,1c0.3,0.3,0.7,0.7,1,1c0.3,0.3,0.7,0.7,1,1c0.3,0.3,0.7,0.7,1,1c0.3,0.3,0.7,0.7,1,1
			c0.3,0.3,0.7,0.7,1,1c0.3,0.3,0.7,0.7,1,1c0.3,0.3,0.7,0.7,1,1c0.3,0.3,0.7,0.7,1,1c0.3,0.3,0.7,0.7,1,1c0.3,0.3,0.7,0.7,1,1
			c6.9,7.1,14.9,13.9,22.6,20.8c0.6,0.6,1.1,1.6,3.7,1.3c2-1,0.5-2.2,0.2-3.3c-2.2-6.1-6.1-12-10.4-17.8
			c-11.5-15.5-15.7-30.6,0.7-46.1c9.2-8.7,7.1-18.2-0.2-27.2c-1.4-1.7-3-3.5-4.7-5.1c-0.3-0.3-0.7-0.7-1-1c-0.3-0.3-0.7-0.7-1-1
			c-0.3-0.3-0.7-0.7-1-1c-0.3-0.3-0.7-0.7-1-1c-0.3-0.3-0.7-0.7-1-1c-0.3-0.3-0.7-0.7-1-1c-0.3-0.3-0.7-0.7-1-1
			c-0.3-0.3-0.7-0.7-1-1c-0.3-0.3-0.7-0.7-1-1c-0.3-0.3-0.7-0.7-1-1c-0.3-0.3-0.7-0.7-1-1c-0.3-0.3-0.7-0.7-1-1
			c-0.3-0.3-0.7-0.7-1-1c-0.3-0.3-0.7-0.7-1-1c-0.3-0.3-0.7-0.7-1-1c-0.3-0.3-0.7-0.7-1-1c-0.3-0.3-0.7-0.7-1-1
			c-0.3-0.3-0.7-0.7-1-1c-0.3-0.3-0.7-0.7-1-1c-0.3-0.3-0.7-0.7-1-1c-0.3-0.3-0.7-0.7-1-1c-0.3-0.3-0.7-0.7-1-1
			c-0.3-0.3-0.7-0.7-1-1c-0.3-0.3-0.7-0.7-1-1c-0.3-0.3-0.7-0.7-1-1c-0.3-0.3-0.7-0.7-1-1c-0.3-0.3-0.7-0.7-1-1
			c-0.3-0.3-0.7-0.7-1-1c-0.3-0.3-0.7-0.7-1-1c-0.3-0.3-0.7-0.7-1-1c-0.3-0.3-0.7-0.7-1-1c-0.3-0.3-0.7-0.7-1-1
			c-0.3-0.3-0.7-0.7-1-1c-0.3-0.3-0.7-0.7-1-1c-0.3-0.3-0.7-0.7-1-1c-0.3-0.3-0.7-0.7-1-1c-0.3-0.3-0.7-0.7-1-1
			c-0.3-0.3-0.7-0.7-1-1c-0.3-0.3-0.7-0.7-1-1c-0.3-0.3-0.7-0.7-1-1c-0.3-0.3-0.7-0.7-1-1c-0.3-0.3-0.7-0.7-1-1
			c-0.3-0.3-0.6-0.6-0.9-0.9c30.3,0,60.7,0,91.1,0c73.4,0,146.7,0,219.9,0c1.1,0,2.4-0.1,3.5,0c2.5,0.1,3.6-1.1,3.6-3.5
			c0-8.3-0.1-16.8,0-25.1c0-1.6-0.5-2.7-1.5-3.2c-0.2-0.4-0.6-0.8-1-1c-0.2-0.4-0.6-0.8-1-1c-0.2-0.4-0.6-0.8-1-1
			c-0.2-0.4-0.6-0.8-1-1c-0.2-0.4-0.6-0.8-1-1c-0.2-0.4-0.6-0.8-1-1c-0.2-0.4-0.6-0.8-1-1c-0.2-0.4-0.6-0.8-1-1
			c-0.2-0.4-0.6-0.8-1-1c-0.2-0.4-0.6-0.8-1-1c-0.2-0.4-0.6-0.8-1-1c-0.2-0.4-0.6-0.8-1-1c-0.2-0.4-0.6-0.8-1-1
			c-0.2-0.4-0.6-0.8-1-1c-0.2-0.4-0.6-0.8-1-1c-0.2-0.4-0.6-0.8-1-1c-0.1-0.1-0.2-0.3-0.3-0.4C913.1,746.6,917,746.6,920.9,746.6z"
			/>
	</g>
</g>
<g id="Layer_1">
	<g>
		<path class="st2" d="M400,446.7c-72.8,0-145.7,0-218.5,0c-1.3,0-2.6-0.1-3.9,0c-3.5,0.3-4.9-1.1-4.9-4.7
			c0.2-9.6,0.1-19.1,0.1-28.7c0-2.6,0.3-5.3-0.1-7.9c-1.2-7.8,2.2-12.6,8.2-17.4c31.3-25.5,62.1-51.5,93-77.3
			c6.9-5.7,13.6-11.5,20.6-17c2.9-2.2,4-4.7,4-8.3c-0.1-40.6-0.1-81.2-0.1-121.8c0-6.1,0-6.1,6.1-6.1c63.7,0,127.3,0,191,0
			c5.8,0,5.9,0,5.9,5.9c0,40.3,0.1,80.7-0.1,121c0,4.2,1.2,7,4.5,9.7c32.6,27.1,65.2,54.3,97.8,81.5c6.6,5.6,13.3,11.1,20,16.4
			c2.5,2,3.5,4.2,3.5,7.4c-0.2,13.7-0.1,27.5-0.1,41.2c0,6-0.2,6.1-6.2,6.1C547.3,446.7,473.7,446.7,400,446.7z"/>
		<path class="st3" d="M400,494.9c-73.6,0-147.2,0-220.8,0c-6.4,0-6.5,0-6.5-6.5c0-7.2,0.1-14.4,0-21.6c0-3,1.1-4.4,4.2-4.2
			c1.1,0.1,2.4,0,3.5,0c146.1,0,292.3,0,438.5,0c1.5,0,2.9,0.1,4.3,0c2.5-0.1,3.8,1.1,3.8,3.7c-0.1,8.3,0,16.8,0,25.1
			c0,2.5-1.1,3.6-3.6,3.5c-1.1-0.1-2.4,0-3.5,0C546.7,494.9,473.4,494.9,400,494.9z"/>
		<path class="st2" d="M369.9,511.2c5.8,2.1,8.6,5,12.6,7.4c11.9,7.6,23.3,15.4,30.4,24.2c7.3,9.1,9.3,18.6,0.2,27.2
			c-16.4,15.5-12.2,30.7-0.7,46.1c4.3,5.8,8.2,11.8,10.4,17.8c0.3,1.1,1.8,2.3-0.2,3.3c-2.5,0.2-3.1-0.7-3.7-1.3
			c-8.8-7.9-17.8-15.6-25.4-23.7c-12.4-13.3-12.2-26.6,2.7-39.4c15-13,13.3-25.7-0.6-38.5c-7.1-6.5-15.3-12.9-23-19.4
			C371.4,514,368.9,513.1,369.9,511.2z"/>
		<path class="st2" d="M313.5,511.2c5.8,2.1,8.6,5,12.6,7.4c11.9,7.6,23.3,15.4,30.4,24.2c7.3,9.1,9.3,18.6,0.2,27.2
			c-16.4,15.5-12.2,30.7-0.7,46.1c4.3,5.8,8.2,11.8,10.4,17.8c0.3,1.1,1.8,2.3-0.2,3.3c-2.5,0.2-3.1-0.7-3.7-1.3
			c-8.8-7.9-17.8-15.6-25.4-23.7c-12.4-13.3-12.2-26.6,2.7-39.4c15-13,13.3-25.7-0.6-38.5c-7.1-6.5-15.3-12.9-23-19.4
			C315,514,312.4,513.1,313.5,511.2z"/>
		<path class="st2" d="M423.9,511.2c5.8,2.1,8.6,5,12.6,7.4c11.9,7.6,23.3,15.4,30.4,24.2c7.3,9.1,9.3,18.6,0.2,27.2
			c-16.4,15.5-12.2,30.7-0.7,46.1c4.3,5.8,8.2,11.8,10.4,17.8c0.3,1.1,1.8,2.3-0.2,3.3c-2.5,0.2-3.1-0.7-3.7-1.3
			c-8.8-7.9-17.8-15.6-25.4-23.7c-12.4-13.3-12.2-26.6,2.7-39.4c15-13,13.3-25.7-0.6-38.5c-7.1-6.5-15.3-12.9-23-19.4
			C425.4,514,422.9,513.1,423.9,511.2z"/>
	</g>
</g>
</svg>
