<?xml version="1.0" encoding="utf-8"?>
<!-- Generator: Adobe Illustrator 24.1.2, SVG Export Plug-In . SVG Version: 6.00 Build 0)  -->
<svg version="1.1" id="Layer_1" xmlns="http://www.w3.org/2000/svg" xmlns:xlink="http://www.w3.org/1999/xlink" x="0px" y="0px"
	 viewBox="0 0 800 800" style="enable-background:new 0 0 800 800;" xml:space="preserve">
<style type="text/css">
	.st0{fill:#333333;}
	.st1{clip-path:url(#SVGID_2_);}
	.st2{fill:#1D1D1B;}
	.st3{fill:#FFFFFF;}
	.st4{fill:#707273;}
	.st5{fill:#4C73B2;}
	.st6{fill:#E34F36;}
	.st7{fill:#17191B;}
	.st8{fill:#191B1D;}
</style>
<g id="Layer_2_3_">
	<g id="Layer_2_4_">
		<g>
			<circle class="st0" cx="400.2" cy="400" r="400"/>
		</g>
	</g>
</g>
<g>
	<defs>
		<circle id="SVGID_1_" cx="400.2" cy="400" r="400"/>
	</defs>
	<clipPath id="SVGID_2_">
		<use xlink:href="#SVGID_1_"  style="overflow:visible;"/>
	</clipPath>
	<g class="st1">
		<g>
			<path class="st2" d="M870.2,690.3c0-3.6-1.5-7-4.1-9.2c-0.3-0.4-0.6-0.7-1-1c-0.3-0.4-0.6-0.7-1-1c-0.3-0.4-0.6-0.7-1-1
				c-0.3-0.4-0.6-0.7-1-1c-0.3-0.4-0.6-0.7-1-1c-0.3-0.4-0.6-0.7-1-1c-0.3-0.4-0.6-0.7-1-1c-0.3-0.4-0.6-0.7-1-1
				c-0.3-0.4-0.6-0.7-1-1c-0.3-0.4-0.6-0.7-1-1c-0.3-0.4-0.6-0.7-1-1c-0.3-0.4-0.6-0.7-1-1c-0.3-0.4-0.6-0.7-1-1
				c-0.3-0.4-0.6-0.7-1-1c-0.3-0.4-0.6-0.7-1-1c-0.3-0.4-0.6-0.7-1-1c-0.3-0.4-0.6-0.7-1-1c-0.3-0.4-0.6-0.7-1-1
				c-0.3-0.4-0.6-0.7-1-1c-0.3-0.4-0.6-0.7-1-1c-0.3-0.4-0.6-0.7-1-1c-0.3-0.4-0.6-0.7-1-1c-0.3-0.4-0.6-0.7-1-1
				c-0.3-0.4-0.6-0.7-1-1c-0.3-0.4-0.6-0.7-1-1c-0.3-0.4-0.6-0.7-1-1c-0.3-0.4-0.6-0.7-1-1c-0.3-0.4-0.6-0.7-1-1
				c-0.3-0.4-0.6-0.7-1-1c-0.3-0.4-0.6-0.7-1-1c-0.3-0.4-0.6-0.7-1-1c-0.3-0.4-0.6-0.7-1-1c-0.3-0.4-0.6-0.7-1-1
				c-0.3-0.4-0.6-0.7-1-1c-0.3-0.4-0.6-0.7-1-1c-0.3-0.4-0.6-0.7-1-1c-0.3-0.4-0.6-0.7-1-1c-0.3-0.4-0.6-0.7-1-1
				c-0.3-0.4-0.6-0.7-1-1c-0.3-0.4-0.6-0.7-1-1c-0.3-0.4-0.6-0.7-1-1c-0.3-0.4-0.6-0.7-1-1c-0.3-0.4-0.6-0.7-1-1
				c-0.3-0.4-0.6-0.7-1-1c-0.3-0.4-0.6-0.7-1-1c-0.3-0.4-0.6-0.7-1-1c-0.3-0.4-0.6-0.7-1-1c-0.3-0.4-0.6-0.7-1-1
				c-0.3-0.4-0.6-0.7-1-1c-0.3-0.4-0.6-0.7-1-1c-0.3-0.4-0.6-0.7-1-1c-0.3-0.4-0.6-0.7-1-1c-0.3-0.4-0.6-0.7-1-1
				c-0.3-0.4-0.6-0.7-1-1c-0.3-0.4-0.6-0.7-1-1c-0.3-0.4-0.6-0.7-1-1c-0.3-0.4-0.6-0.7-1-1c-0.3-0.4-0.6-0.7-1-1
				c-0.3-0.4-0.6-0.7-1-1c-0.3-0.4-0.6-0.7-1-1c-0.3-0.4-0.6-0.7-1-1c-0.3-0.4-0.6-0.7-1-1c-0.3-0.4-0.6-0.7-1-1
				c-0.3-0.4-0.6-0.7-1-1c-0.3-0.4-0.6-0.7-1-1c-0.3-0.4-0.6-0.7-1-1c-0.3-0.4-0.6-0.7-1-1c-0.3-0.4-0.6-0.7-1-1
				c-0.3-0.4-0.6-0.7-1-1c-0.3-0.4-0.6-0.7-1-1c-0.3-0.4-0.6-0.7-1-1c-0.3-0.4-0.6-0.7-1-1c-0.3-0.4-0.6-0.7-1-1
				c-0.3-0.4-0.6-0.7-1-1c-0.3-0.4-0.6-0.7-1-1c-0.3-0.4-0.6-0.7-1-1c-0.3-0.4-0.6-0.7-1-1c-0.3-0.4-0.6-0.7-1-1
				c-0.3-0.4-0.6-0.7-1-1c-0.3-0.4-0.6-0.7-1-1c-0.3-0.4-0.6-0.7-1-1c-0.3-0.4-0.6-0.7-1-1c-0.3-0.4-0.6-0.7-1-1
				c-0.3-0.4-0.6-0.7-1-1c-0.3-0.4-0.6-0.7-1-1c-0.3-0.4-0.6-0.7-1-1c-0.3-0.4-0.6-0.7-1-1c-0.3-0.4-0.6-0.7-1-1
				c-0.3-0.4-0.6-0.7-1-1c-0.3-0.4-0.6-0.7-1-1c-0.3-0.4-0.6-0.7-1-1c-0.3-0.4-0.6-0.7-1-1c-0.3-0.4-0.6-0.7-1-1
				c-0.3-0.4-0.6-0.7-1-1c-0.3-0.4-0.6-0.7-1-1c-0.3-0.4-0.6-0.7-1-1c-0.3-0.4-0.6-0.7-1-1c-0.3-0.4-0.6-0.7-1-1
				c-0.3-0.4-0.6-0.7-1-1c-0.3-0.4-0.6-0.7-1-1c-0.3-0.4-0.6-0.7-1-1c-0.3-0.4-0.6-0.7-1-1c-0.3-0.3-0.6-0.7-1-1
				c7.3-1.4,14.3-3.9,21-7.3c10.9-5.6,20.3-13.2,27.8-22.9c15.2-19.5,22-41.6,19.2-66.4c-1.2-10.2-4.2-19.8-9.1-28.9
				c-0.7-1.3-1.3-2.8-2.4-3.9c-0.1,0-0.1,0.1-0.1,0.1c-0.3-0.4-0.5-0.8-0.9-1.1c-0.1,0-0.1,0.1-0.1,0.1c-0.3-0.4-0.5-0.8-0.9-1.1
				c-0.1,0-0.1,0.1-0.1,0.1c-0.3-0.4-0.5-0.8-0.9-1.1c-0.1,0-0.1,0.1-0.1,0.1c-0.3-0.4-0.5-0.8-0.9-1.1c-0.1,0-0.1,0.1-0.1,0.1
				c-0.3-0.4-0.5-0.8-0.9-1.1c-0.1,0-0.1,0.1-0.1,0.1c-0.3-0.4-0.5-0.8-0.9-1.1c-0.1,0-0.1,0.1-0.1,0.1c-0.3-0.4-0.5-0.8-0.9-1.1
				c-0.1,0-0.1,0.1-0.1,0.1c-0.3-0.4-0.5-0.8-0.9-1.1c-0.1,0-0.1,0.1-0.1,0.1c-0.3-0.4-0.5-0.8-0.9-1.1c-0.1,0-0.1,0.1-0.1,0.1
				c-0.3-0.4-0.5-0.8-0.9-1.1c-0.1,0-0.1,0.1-0.1,0.1c-0.3-0.4-0.5-0.8-0.9-1.1c-0.1,0-0.1,0.1-0.1,0.1c-0.3-0.4-0.5-0.8-0.9-1.1
				c-0.1,0-0.1,0.1-0.1,0.1c-0.3-0.4-0.5-0.8-0.9-1.1c-0.1,0-0.1,0.1-0.1,0.1c-0.3-0.4-0.5-0.8-0.9-1.1c-0.1,0-0.1,0.1-0.1,0.1
				c-0.3-0.4-0.5-0.8-0.9-1.1c-0.1,0-0.1,0.1-0.1,0.1c-0.3-0.4-0.5-0.8-0.9-1.1c-0.1,0-0.1,0.1-0.1,0.1c-0.3-0.4-0.5-0.8-0.9-1.1
				c-0.1,0-0.1,0.1-0.1,0.1c-0.3-0.4-0.5-0.8-0.9-1.1c-0.1,0-0.1,0.1-0.1,0.1c-0.3-0.4-0.5-0.8-0.9-1.1c-0.1,0-0.1,0.1-0.1,0.1
				c-0.3-0.4-0.5-0.8-0.9-1.1c-0.1,0-0.1,0.1-0.1,0.1c-0.3-0.4-0.5-0.8-0.9-1.1c-0.1,0-0.1,0.1-0.1,0.1c-0.3-0.4-0.5-0.8-0.9-1.1
				c-0.1,0-0.1,0.1-0.1,0.1c-0.3-0.4-0.5-0.8-0.9-1.1c-0.1,0-0.1,0.1-0.1,0.1c-0.3-0.4-0.5-0.8-0.9-1.1c-0.1,0-0.1,0.1-0.1,0.1
				c-0.3-0.4-0.5-0.8-0.9-1.1c-0.1,0-0.1,0.1-0.1,0.1c-0.3-0.4-0.5-0.8-0.9-1.1c-0.1,0-0.1,0.1-0.1,0.1c-0.3-0.4-0.5-0.8-0.9-1.1
				c-0.1,0-0.1,0.1-0.1,0.1c-0.3-0.4-0.5-0.8-0.9-1.1c-0.1,0-0.1,0.1-0.1,0.1c-0.3-0.4-0.5-0.8-0.9-1.1c-0.1,0-0.1,0.1-0.1,0.1
				c-0.3-0.4-0.5-0.8-0.9-1.1c-0.1,0-0.1,0.1-0.1,0.1c-0.3-0.4-0.5-0.8-0.9-1.1c-0.1,0-0.1,0.1-0.1,0.1c-0.3-0.4-0.5-0.8-0.9-1.1
				c-0.1,0-0.1,0.1-0.1,0.1c-0.3-0.4-0.5-0.8-0.9-1.1c-0.1,0-0.1,0.1-0.1,0.1c-0.3-0.4-0.5-0.8-0.9-1.1c-0.1,0-0.1,0.1-0.1,0.1
				c-0.3-0.4-0.5-0.8-0.9-1.1c-0.1,0-0.1,0.1-0.1,0.1c-0.3-0.4-0.5-0.8-0.9-1.1c-0.1,0-0.1,0.1-0.1,0.1c-0.3-0.4-0.5-0.8-0.9-1.1
				c-0.1,0-0.1,0.1-0.1,0.1c-0.3-0.4-0.5-0.8-0.9-1.1c-0.1,0-0.1,0.1-0.1,0.1c-0.3-0.4-0.5-0.8-0.9-1.1c-0.1,0-0.1,0.1-0.1,0.1
				c-0.3-0.4-0.5-0.8-0.9-1.1c-0.1,0-0.1,0.1-0.1,0.1c-0.3-0.4-0.5-0.8-0.9-1.1c-0.1,0-0.1,0.1-0.1,0.1c-0.3-0.4-0.5-0.8-0.9-1.1
				c-0.1,0-0.1,0.1-0.1,0.1c-0.3-0.4-0.5-0.8-0.9-1.1c-0.1,0-0.1,0.1-0.1,0.1c-0.3-0.4-0.5-0.8-0.9-1.1c-0.1,0-0.1,0.1-0.1,0.1
				c-0.3-0.4-0.5-0.8-0.9-1.1c-0.1,0-0.1,0.1-0.1,0.1c-0.3-0.4-0.5-0.8-0.9-1.1c-0.1,0-0.1,0.1-0.1,0.1c-0.3-0.4-0.5-0.8-0.9-1.1
				c-0.1,0-0.1,0.1-0.1,0.1c-0.3-0.4-0.5-0.8-0.9-1.1c-0.1,0-0.1,0.1-0.1,0.1c-0.3-0.4-0.5-0.8-0.9-1.1c-0.1,0-0.1,0.1-0.1,0.1
				c-0.3-0.4-0.5-0.8-0.9-1.1c-0.1,0-0.1,0.1-0.1,0.1c-0.3-0.4-0.5-0.8-0.9-1.1c-0.1,0-0.1,0.1-0.1,0.1c-0.3-0.4-0.5-0.8-0.9-1.1
				c-0.1,0-0.1,0.1-0.1,0.1c-0.3-0.4-0.5-0.8-0.9-1.1c-0.1,0-0.1,0.1-0.1,0.1c-0.3-0.4-0.5-0.8-0.9-1.1c-0.1,0-0.1,0.1-0.1,0.1
				c-0.3-0.4-0.5-0.8-0.9-1.1c-0.1,0-0.1,0.1-0.1,0.1c-0.3-0.4-0.5-0.8-0.9-1.1c-0.1,0-0.1,0.1-0.1,0.1c-0.3-0.4-0.5-0.8-0.9-1.1
				c-0.1,0-0.1,0.1-0.1,0.1c-0.3-0.4-0.5-0.8-0.9-1.1c-0.1,0-0.1,0.1-0.1,0.1c-0.3-0.4-0.5-0.8-0.9-1.1c-0.1,0-0.1,0.1-0.1,0.1
				c-0.3-0.4-0.5-0.8-0.9-1.1c-0.1,0-0.1,0.1-0.1,0.1c-0.3-0.4-0.5-0.8-0.9-1.1c-0.1,0-0.1,0.1-0.1,0.1c-0.3-0.4-0.5-0.8-0.9-1.1
				c-0.1,0-0.1,0.1-0.1,0.1c-0.3-0.4-0.5-0.8-0.9-1.1c-0.1,0-0.1,0.1-0.1,0.1c-0.3-0.4-0.5-0.8-0.9-1.1c-0.1,0-0.1,0.1-0.1,0.1
				c-0.3-0.4-0.5-0.8-0.9-1.1c-0.1,0-0.1,0.1-0.1,0.1c-0.3-0.4-0.5-0.8-0.9-1.1c-0.1,0-0.1,0.1-0.1,0.1c-0.3-0.4-0.5-0.8-0.9-1.1
				c-0.1,0-0.1,0.1-0.1,0.1c-0.3-0.4-0.5-0.8-0.9-1.1c-0.1,0-0.1,0.1-0.1,0.1c-0.3-0.4-0.5-0.8-0.9-1.1c-0.1,0-0.1,0.1-0.1,0.1
				c-0.3-0.4-0.5-0.8-0.9-1.1c-0.1,0-0.1,0.1-0.1,0.1c-0.3-0.4-0.5-0.8-0.9-1.1c-0.1,0-0.1,0.1-0.1,0.1c-0.3-0.4-0.5-0.8-0.9-1.1
				c-0.1,0-0.1,0.1-0.1,0.1c-0.3-0.4-0.5-0.8-0.9-1.1c-0.1,0-0.1,0.1-0.1,0.1c-0.3-0.4-0.5-0.8-0.9-1.1c-0.1,0-0.1,0.1-0.1,0.1
				c-0.3-0.4-0.5-0.8-0.9-1.1c-0.1,0-0.1,0.1-0.1,0.1c-0.3-0.4-0.5-0.8-0.9-1.1c-0.1,0-0.1,0.1-0.1,0.1c-0.3-0.4-0.5-0.8-0.9-1.1
				c-0.1,0-0.1,0.1-0.1,0.1c-0.3-0.4-0.5-0.8-0.9-1.1c-0.1,0-0.1,0.1-0.1,0.1c-0.3-0.4-0.5-0.8-0.9-1.1c-0.1,0-0.1,0.1-0.1,0.1
				c-0.3-0.4-0.5-0.8-0.9-1.1c-0.1,0-0.1,0.1-0.1,0.1c-0.3-0.4-0.5-0.8-0.9-1.1c-0.1,0-0.1,0.1-0.1,0.1c-0.3-0.4-0.5-0.8-0.9-1.1
				c-0.1,0-0.1,0.1-0.1,0.1c-0.3-0.4-0.5-0.8-0.9-1.1c-0.1,0-0.1,0.1-0.1,0.1c-0.3-0.4-0.5-0.8-0.9-1.1c-0.1,0-0.1,0.1-0.1,0.1
				c-0.3-0.4-0.5-0.8-0.9-1.1c-0.1,0-0.1,0.1-0.1,0.1c-0.3-0.4-0.5-0.8-0.9-1.1c-0.1,0-0.1,0.1-0.1,0.1c-0.3-0.4-0.5-0.8-0.9-1.1
				c-0.1,0-0.1,0.1-0.1,0.1c-0.3-0.4-0.5-0.8-0.9-1.1c-0.1,0-0.1,0.1-0.1,0.1c-0.3-0.4-0.5-0.8-0.9-1.1c-0.1,0-0.1,0.1-0.1,0.1
				c-0.3-0.4-0.5-0.8-0.9-1.1c-0.1,0-0.1,0.1-0.1,0.1c-0.3-0.4-0.5-0.8-0.9-1.1c-0.1,0-0.1,0.1-0.1,0.1c-0.3-0.4-0.5-0.8-0.9-1.1
				c-0.1,0-0.1,0.1-0.1,0.1c-0.3-0.4-0.5-0.8-0.9-1.1c-0.1,0-0.1,0.1-0.1,0.1c-0.3-0.4-0.5-0.8-0.9-1.1c-0.1,0-0.1,0.1-0.1,0.1
				c-0.3-0.4-0.5-0.8-0.9-1.1c-0.1,0-0.1,0.1-0.1,0.1c-0.3-0.4-0.5-0.8-0.9-1.1c-0.1,0-0.1,0.1-0.1,0.1c-0.3-0.4-0.5-0.8-0.9-1.1
				c-0.1,0-0.1,0.1-0.1,0.1c-0.3-0.4-0.5-0.8-0.9-1.1c-0.1,0-0.1,0.1-0.1,0.1c-0.3-0.4-0.5-0.8-0.9-1.1c-0.1,0-0.1,0.1-0.1,0.1
				c-0.3-0.4-0.5-0.8-0.9-1.1c-0.1,0-0.1,0.1-0.1,0.1c-0.3-0.4-0.5-0.8-0.9-1.1c-0.1,0-0.1,0.1-0.1,0.1c-0.3-0.4-0.5-0.8-0.9-1.1
				c-0.1,0-0.1,0.1-0.1,0.1c-0.3-0.4-0.5-0.8-0.9-1.1c-0.1,0-0.1,0.1-0.1,0.1c-0.3-0.4-0.5-0.8-0.9-1.1c-0.1,0-0.1,0.1-0.1,0.1
				c-0.3-0.4-0.5-0.8-0.9-1.1c-0.1,0-0.1,0.1-0.1,0.1c-0.3-0.4-0.5-0.8-0.9-1.1c-0.1,0-0.1,0.1-0.1,0.1c-0.3-0.4-0.5-0.8-0.9-1.1
				c-0.1,0-0.1,0.1-0.1,0.1c-0.3-0.4-0.5-0.8-0.9-1.1c-0.1,0-0.1,0.1-0.1,0.1c-0.3-0.4-0.5-0.8-0.9-1.1c-0.1,0-0.1,0.1-0.1,0.1
				c-0.3-0.4-0.5-0.8-0.9-1.1c-0.1,0-0.1,0.1-0.1,0.1c-0.3-0.4-0.5-0.8-0.9-1.1c-0.1,0-0.1,0.1-0.1,0.1c-0.3-0.4-0.5-0.8-0.9-1.1
				c-0.1,0-0.1,0.1-0.1,0.1c-0.3-0.4-0.5-0.8-0.9-1.1c-0.1,0-0.1,0.1-0.1,0.1c-0.3-0.4-0.5-0.8-0.9-1.1c-0.1,0-0.1,0.1-0.1,0.1
				c-0.3-0.4-0.5-0.8-0.9-1.1c-0.1,0-0.1,0.1-0.1,0.1c-0.3-0.4-0.5-0.8-0.9-1.1c-0.1,0-0.1,0.1-0.1,0.1c-0.3-0.4-0.5-0.8-0.9-1.1
				c-0.1,0-0.1,0.1-0.1,0.1c-0.3-0.4-0.5-0.8-0.9-1.1c-0.1,0-0.1,0.1-0.1,0.1c-0.3-0.4-0.5-0.8-0.9-1.1c-0.1,0-0.1,0.1-0.1,0.1
				c-0.3-0.4-0.5-0.8-0.9-1.1c-0.1,0-0.1,0.1-0.1,0.1c-0.3-0.4-0.5-0.8-0.9-1.1c-0.1,0-0.1,0.1-0.1,0.1c-0.3-0.4-0.5-0.8-0.9-1.1
				c-0.1,0-0.1,0.1-0.1,0.1c-0.3-0.4-0.5-0.8-0.9-1.1c-0.1,0-0.1,0.1-0.1,0.1c-0.3-0.4-0.5-0.8-0.9-1.1c-0.1,0-0.1,0.1-0.1,0.1
				c-0.3-0.4-0.5-0.8-0.9-1.1c-0.1,0-0.1,0.1-0.1,0.1c-0.3-0.4-0.5-0.8-0.9-1.1c-0.1,0-0.1,0.1-0.1,0.1c-0.3-0.4-0.5-0.8-0.9-1.1
				c-0.1,0-0.1,0.1-0.1,0.1c-0.3-0.4-0.5-0.8-0.9-1.1c-0.1,0-0.1,0.1-0.1,0.1c-0.3-0.4-0.5-0.8-0.9-1.1c-0.1,0-0.1,0.1-0.1,0.1
				c-0.3-0.4-0.5-0.8-0.9-1.1c-0.1,0-0.1,0.1-0.1,0.1c-0.3-0.4-0.5-0.8-0.9-1.1c-0.1,0-0.1,0.1-0.1,0.1c-0.3-0.4-0.5-0.8-0.9-1.1
				c-0.1,0-0.1,0.1-0.1,0.1c-0.3-0.4-0.5-0.8-0.9-1.1c-0.1,0-0.1,0.1-0.1,0.1c-0.3-0.4-0.5-0.8-0.9-1.1c-0.1,0-0.1,0.1-0.1,0.1
				c-0.3-0.4-0.5-0.8-0.9-1.1c-0.1,0-0.1,0.1-0.1,0.1c-0.3-0.4-0.5-0.8-0.9-1.1c-0.1,0-0.1,0.1-0.1,0.1c-0.3-0.4-0.5-0.8-0.9-1.1
				c-0.1,0-0.1,0.1-0.1,0.1c-0.3-0.4-0.5-0.8-0.9-1.1c-0.1,0-0.1,0.1-0.1,0.1c-0.3-0.4-0.5-0.8-0.9-1.1c-0.1,0-0.1,0.1-0.1,0.1
				c-0.3-0.4-0.5-0.8-0.9-1.1c-0.1,0-0.1,0.1-0.1,0.1c-0.3-0.4-0.5-0.8-0.9-1.1c-0.1,0-0.1,0.1-0.1,0.1c-0.3-0.4-0.5-0.8-0.9-1.1
				c-0.1,0-0.1,0.1-0.1,0.1c-0.3-0.4-0.5-0.8-0.9-1.1c-0.1,0-0.1,0.1-0.1,0.1c-0.3-0.4-0.5-0.8-0.9-1.1c-0.1,0-0.1,0.1-0.1,0.1
				c-0.3-0.4-0.5-0.8-0.9-1.1c-0.1,0-0.1,0.1-0.1,0.1c-0.3-0.4-0.5-0.8-0.9-1.1c-0.1,0-0.1,0.1-0.1,0.1c-0.3-0.4-0.5-0.8-0.9-1.1
				c-0.1,0-0.1,0.1-0.1,0.1c-0.3-0.4-0.5-0.8-0.9-1.1c-0.1,0-0.1,0.1-0.1,0.1c-0.3-0.4-0.5-0.8-0.9-1.1c-0.1,0-0.1,0.1-0.1,0.1
				c-0.3-0.4-0.5-0.8-0.9-1.1c-0.1,0-0.1,0.1-0.1,0.1c-0.3-0.4-0.5-0.8-0.9-1.1c-0.1,0-0.1,0.1-0.1,0.1c-0.3-0.4-0.5-0.8-0.9-1.1
				c-0.1,0-0.1,0.1-0.1,0.1c-0.3-0.4-0.5-0.8-0.9-1.1c-0.1,0-0.1,0.1-0.1,0.1c-0.3-0.4-0.5-0.8-0.9-1.1c-0.1,0-0.1,0.1-0.1,0.1
				c-0.3-0.4-0.5-0.8-0.9-1.1c-0.1,0-0.1,0.1-0.1,0.1c-0.3-0.4-0.5-0.8-0.9-1.1c-0.1,0-0.1,0.1-0.1,0.1c-0.3-0.4-0.5-0.8-0.9-1.1
				c-0.1,0-0.1,0.1-0.1,0.1c-0.3-0.4-0.5-0.8-0.9-1.1c-0.1,0-0.1,0.1-0.1,0.1c-0.3-0.4-0.5-0.8-0.9-1.1c-0.1,0-0.1,0.1-0.1,0.1
				c-0.3-0.4-0.5-0.8-0.9-1.1c-0.1,0-0.1,0.1-0.1,0.1c-0.3-0.4-0.5-0.8-0.9-1.1c-0.1,0-0.1,0.1-0.1,0.1c-0.3-0.4-0.5-0.8-0.9-1.1
				c-0.1,0-0.1,0.1-0.1,0.1c-0.3-0.4-0.5-0.8-0.9-1.1c-0.1,0-0.1,0.1-0.1,0.1c-0.3-0.4-0.5-0.8-0.9-1.1c-0.1,0-0.1,0.1-0.1,0.1
				c-0.3-0.4-0.5-0.8-0.9-1.1c-0.1,0-0.1,0.1-0.1,0.1c-0.3-0.4-0.5-0.8-0.9-1.1c-0.1,0-0.1,0.1-0.1,0.1c-0.3-0.4-0.5-0.8-0.9-1.1
				c-0.1,0-0.1,0.1-0.1,0.1c-0.3-0.4-0.5-0.8-0.9-1.1c-0.1,0-0.1,0.1-0.1,0.1c-0.3-0.4-0.5-0.8-0.9-1.1c-0.1,0-0.1,0.1-0.1,0.1
				c-0.3-0.4-0.5-0.8-0.9-1.1c-0.1,0-0.1,0.1-0.1,0.1c-0.3-0.4-0.5-0.8-0.9-1.1c-0.1,0-0.1,0.1-0.1,0.1c-0.3-0.4-0.5-0.8-0.9-1.1
				c-0.1,0-0.1,0.1-0.1,0.1c-0.3-0.4-0.5-0.8-0.9-1.1c-0.1,0-0.1,0.1-0.1,0.1c-0.3-0.4-0.5-0.8-0.9-1.1c-0.1,0-0.1,0.1-0.1,0.1
				c-0.3-0.4-0.5-0.8-0.9-1.1c-0.1,0-0.1,0.1-0.1,0.1c-0.3-0.4-0.5-0.8-0.9-1.1c-0.1,0-0.1,0.1-0.1,0.1c-0.3-0.4-0.5-0.8-0.9-1.1
				c-0.1,0-0.1,0.1-0.1,0.1c-0.3-0.4-0.5-0.8-0.9-1.1c-0.1,0-0.1,0.1-0.1,0.1c-0.3-0.4-0.5-0.8-0.9-1.1c-0.1,0-0.1,0.1-0.1,0.1
				c-0.3-0.4-0.5-0.8-0.9-1.1c-0.1,0-0.1,0.1-0.1,0.1c-0.3-0.4-0.5-0.8-0.9-1.1c-0.1,0-0.1,0.1-0.1,0.1c-0.3-0.4-0.5-0.8-0.9-1.1
				c-0.1,0-0.1,0.1-0.1,0.1c-0.3-0.4-0.5-0.8-0.9-1.1c-0.1,0-0.1,0.1-0.1,0.1c-0.3-0.4-0.5-0.8-0.9-1.1c-0.1,0-0.1,0.1-0.1,0.1
				c-0.3-0.4-0.5-0.8-0.9-1.1c-0.1,0-0.1,0.1-0.1,0.1c-0.3-0.4-0.5-0.8-0.9-1.1c-0.1,0-0.1,0.1-0.1,0.1c-0.3-0.4-0.5-0.8-0.9-1.1
				c-0.1,0-0.1,0.1-0.1,0.1c-0.3-0.4-0.5-0.8-0.9-1.1c-0.1,0-0.1,0.1-0.1,0.1c-0.3-0.4-0.5-0.8-0.9-1.1c-0.1,0-0.1,0.1-0.1,0.1
				c-0.3-0.4-0.5-0.8-0.9-1.1c-0.1,0-0.1,0.1-0.1,0.1c-0.3-0.4-0.5-0.8-0.9-1.1c-0.1,0-0.1,0.1-0.1,0.1c-0.3-0.4-0.5-0.8-0.9-1.1
				c-0.1,0-0.1,0.1-0.1,0.1c-0.3-0.4-0.5-0.8-0.9-1.1c-0.1,0-0.1,0.1-0.1,0.1c-0.3-0.4-0.5-0.8-0.9-1.1c-0.1,0-0.1,0.1-0.1,0.1
				c-0.3-0.4-0.5-0.8-0.9-1.1c-0.1,0-0.1,0.1-0.1,0.1c-0.3-0.4-0.5-0.8-0.9-1.1c-0.1,0-0.1,0.1-0.1,0.1c-0.3-0.4-0.5-0.8-0.9-1.1
				c-0.1,0-0.1,0.1-0.1,0.1c-0.3-0.4-0.5-0.8-0.9-1.1c-0.1,0-0.1,0.1-0.1,0.1c-0.3-0.4-0.5-0.8-0.9-1.1c-0.1,0-0.1,0.1-0.1,0.1
				c-0.3-0.4-0.5-0.8-0.9-1.1c-0.1,0-0.1,0.1-0.1,0.1c-0.3-0.4-0.5-0.8-0.9-1.1c-0.1,0-0.1,0.1-0.1,0.1c-0.3-0.4-0.5-0.8-0.9-1.1
				c-0.1,0-0.1,0.1-0.1,0.1c-0.3-0.4-0.5-0.8-0.9-1.1c-0.1,0-0.1,0.1-0.1,0.1c-0.3-0.4-0.5-0.8-0.9-1.1c-0.1,0-0.1,0.1-0.1,0.1
				c-0.3-0.4-0.5-0.8-0.9-1.1c-0.1,0-0.1,0.1-0.1,0.1c-0.3-0.4-0.5-0.8-0.9-1.1c-0.1,0-0.1,0.1-0.1,0.1c-0.3-0.4-0.5-0.8-0.9-1.1
				c-0.1,0-0.1,0.1-0.1,0.1c-0.3-0.4-0.5-0.8-0.9-1.1c-0.1,0-0.1,0.1-0.1,0.1c-0.3-0.4-0.5-0.8-0.9-1.1c-0.1,0-0.1,0.1-0.1,0.1
				c-0.3-0.4-0.5-0.8-0.9-1.1c-0.1,0-0.1,0.1-0.1,0.1c-0.3-0.4-0.5-0.8-0.9-1.1c-0.1,0-0.1,0.1-0.1,0.1c-0.3-0.4-0.5-0.8-0.9-1.1
				c-0.1,0-0.1,0.1-0.1,0.1c-0.3-0.4-0.5-0.8-0.9-1.1c-0.1,0-0.1,0.1-0.1,0.1c-0.3-0.4-0.5-0.8-0.9-1.1c-0.1,0-0.1,0.1-0.1,0.1
				c-0.3-0.4-0.5-0.8-0.9-1.1c-0.1,0-0.1,0.1-0.1,0.1c-0.3-0.4-0.5-0.8-0.9-1.1c-0.1,0-0.1,0.1-0.1,0.1c-0.3-0.4-0.5-0.8-0.9-1.1
				c-0.1,0-0.1,0.1-0.1,0.1c-0.3-0.4-0.5-0.8-0.9-1.1c-0.1,0-0.1,0.1-0.1,0.1c-0.3-0.4-0.5-0.8-0.9-1.1c-0.1,0-0.1,0.1-0.1,0.1
				c-0.3-0.4-0.5-0.8-0.9-1.1c-0.1,0-0.1,0.1-0.1,0.1c-0.3-0.4-0.5-0.8-0.9-1.1c-0.1,0-0.1,0.1-0.1,0.1c-0.3-0.4-0.5-0.8-0.9-1.1
				c-0.1,0-0.1,0.1-0.1,0.1c-0.3-0.4-0.5-0.8-0.9-1.1c-0.1,0-0.1,0.1-0.1,0.1c-0.3-0.4-0.5-0.8-0.9-1.1c-0.1,0-0.1,0.1-0.1,0.1
				c-0.3-0.4-0.5-0.8-0.9-1.1c-0.1,0-0.1,0.1-0.1,0.1c-0.3-0.4-0.5-0.8-0.9-1.1c-0.1,0-0.1,0.1-0.1,0.1c-0.3-0.4-0.5-0.8-0.9-1.1
				c-0.1,0-0.1,0.1-0.1,0.1c-0.3-0.4-0.5-0.8-0.9-1.1c-0.1,0-0.1,0.1-0.1,0.1c-0.3-0.4-0.5-0.8-0.9-1.1c-0.1,0-0.1,0.1-0.1,0.1
				c-0.3-0.4-0.5-0.8-0.9-1.1c-0.5,0.2-0.6,0.6-0.8,0.9c-2.3,5.3-4.7,10.7-7,16c-1.7,3.9-3.5,7.9-5.2,11.8c-0.3-0.1-0.7-0.1-1-0.1
				c0.1-0.3,0.2-0.6,0.2-0.9c-0.4-0.2-0.8-0.2-1.2-0.1c0.1-0.3,0.2-0.6,0.2-0.9c-0.4-0.2-0.8-0.2-1.2-0.1c0.1-0.3,0.2-0.6,0.2-0.9
				c-0.4-0.2-0.8-0.2-1.2-0.1c0.1-0.3,0.2-0.6,0.2-0.9c-0.4-0.2-0.8-0.2-1.2-0.1c0.1-0.3,0.2-0.6,0.2-0.9c-0.4-0.2-0.8-0.2-1.2-0.1
				c0.1-0.3,0.2-0.6,0.2-0.9c-0.4-0.2-0.8-0.2-1.2-0.1c0.1-0.3,0.2-0.6,0.2-0.9c-0.4-0.2-0.8-0.2-1.2-0.1c0.1-0.3,0.2-0.6,0.2-0.9
				c-0.4-0.2-0.8-0.2-1.2-0.1c0.1-0.3,0.2-0.6,0.2-0.9c-0.4-0.2-0.8-0.2-1.2-0.1c0.1-0.3,0.2-0.6,0.2-0.9c-0.4-0.2-0.8-0.2-1.2-0.1
				c0.1-0.3,0.2-0.6,0.2-0.9c-0.4-0.2-0.8-0.2-1.2-0.1c0.1-0.3,0.2-0.6,0.2-0.9c-0.4-0.2-0.8-0.2-1.2-0.1c0.1-0.3,0.2-0.6,0.2-0.9
				c-0.4-0.2-0.8-0.2-1.2-0.1c0.1-0.3,0.2-0.6,0.2-0.9c-0.4-0.2-0.8-0.2-1.2-0.1c0.1-0.3,0.2-0.6,0.2-0.9c-0.4-0.2-0.8-0.2-1.2-0.1
				c0.1-0.3,0.2-0.6,0.2-0.9c-0.4-0.2-0.8-0.2-1.2-0.1c0.1-0.3,0.2-0.6,0.2-0.9c-0.4-0.2-0.8-0.2-1.2-0.1c0.1-0.3,0.2-0.6,0.2-0.9
				c-0.4-0.2-0.8-0.2-1.2-0.1c0.1-0.3,0.2-0.6,0.2-0.9c-0.4-0.2-0.8-0.2-1.2-0.1c0.1-0.3,0.2-0.6,0.2-0.9c-0.4-0.2-0.8-0.2-1.2-0.1
				c0.1-0.3,0.2-0.6,0.2-0.9c-0.4-0.2-0.8-0.2-1.2-0.1c0.1-0.3,0.2-0.6,0.2-0.9c-0.4-0.2-0.8-0.2-1.2-0.1c0.1-0.3,0.2-0.6,0.2-0.9
				c-0.4-0.2-0.8-0.2-1.2-0.1c0.1-0.3,0.2-0.6,0.2-0.9c-0.4-0.2-0.8-0.2-1.2-0.1c0.1-0.3,0.2-0.6,0.2-0.9c-0.4-0.2-0.8-0.2-1.2-0.1
				c0.1-0.3,0.2-0.6,0.2-0.9c-0.4-0.2-0.8-0.2-1.2-0.1c0.1-0.3,0.2-0.6,0.2-0.9c-0.4-0.2-0.8-0.2-1.2-0.1c0.1-0.3,0.2-0.6,0.2-0.9
				c-0.4-0.2-0.8-0.2-1.2-0.1c0.1-0.3,0.2-0.6,0.2-0.9c-0.4-0.2-0.8-0.2-1.2-0.1c0.1-0.3,0.2-0.6,0.2-0.9c-0.4-0.2-0.8-0.2-1.2-0.1
				c0.1-0.3,0.2-0.6,0.2-0.9c-0.4-0.2-0.8-0.2-1.2-0.1c0.1-0.3,0.2-0.6,0.2-0.9c-0.4-0.2-0.8-0.2-1.2-0.1c0.1-0.3,0.2-0.6,0.2-0.9
				c-0.4-0.2-0.8-0.2-1.2-0.1c0.1-0.3,0.2-0.6,0.2-0.9c-0.4-0.2-0.8-0.2-1.2-0.1c0.1-0.3,0.2-0.6,0.2-0.9c-0.4-0.2-0.8-0.2-1.2-0.1
				c0.1-0.3,0.2-0.6,0.2-0.9c-0.4-0.2-0.8-0.2-1.2-0.1c0.1-0.3,0.2-0.6,0.2-0.9c-0.4-0.2-0.8-0.2-1.2-0.1c0.1-0.3,0.2-0.6,0.2-0.9
				c-0.4-0.2-0.8-0.2-1.2-0.1c0.1-0.3,0.2-0.6,0.2-0.9c-0.4-0.2-0.8-0.2-1.2-0.1c0.1-0.3,0.2-0.6,0.2-0.9c-0.4-0.2-0.8-0.2-1.2-0.1
				c0.1-0.3,0.2-0.6,0.2-0.9c-0.4-0.2-0.8-0.2-1.2-0.1c0.1-0.3,0.2-0.6,0.2-0.9c-0.4-0.2-0.8-0.2-1.2-0.1c0.1-0.3,0.2-0.6,0.2-0.9
				c-0.4-0.2-0.8-0.2-1.2-0.1c0.1-0.3,0.2-0.6,0.2-0.9c-0.4-0.2-0.8-0.2-1.2-0.1c0.1-0.3,0.2-0.6,0.2-0.9c-0.4-0.2-0.8-0.2-1.2-0.1
				c0.1-0.3,0.2-0.6,0.2-0.9c-0.4-0.2-0.8-0.2-1.2-0.1c0.1-0.3,0.2-0.6,0.2-0.9c-0.4-0.2-0.8-0.2-1.2-0.1c0.1-0.3,0.2-0.6,0.2-0.9
				c-0.4-0.2-0.8-0.2-1.2-0.1c0.1-0.3,0.2-0.6,0.2-0.9c-0.4-0.2-0.8-0.2-1.2-0.1c0.1-0.3,0.2-0.6,0.2-0.9c-0.4-0.2-0.8-0.2-1.2-0.1
				c0.1-0.3,0.2-0.6,0.2-0.9c-0.4-0.2-0.8-0.2-1.2-0.1c0.1-0.3,0.2-0.6,0.2-0.9c-0.4-0.2-0.8-0.2-1.2-0.1c0.1-0.3,0.2-0.6,0.2-0.9
				c-0.4-0.2-0.8-0.2-1.2-0.1c0.1-0.3,0.2-0.6,0.2-0.9c-0.4-0.2-0.8-0.2-1.2-0.1c0.1-0.3,0.2-0.6,0.2-0.9c-0.4-0.2-0.8-0.2-1.2-0.1
				c0.1-0.3,0.2-0.6,0.2-0.9c-0.4-0.2-0.8-0.2-1.2-0.1c0.1-0.3,0.2-0.6,0.2-0.9c-0.4-0.2-0.8-0.2-1.2-0.1c0.1-0.3,0.2-0.6,0.2-0.9
				c-0.4-0.2-0.8-0.2-1.2-0.1c0.1-0.3,0.2-0.6,0.2-0.9c-0.4-0.2-0.8-0.2-1.2-0.1c0.1-0.3,0.2-0.6,0.2-0.9c-0.4-0.2-0.8-0.2-1.2-0.1
				c0.1-0.3,0.2-0.6,0.2-0.9c-0.4-0.2-0.8-0.2-1.2-0.1c0.1-0.3,0.2-0.6,0.2-0.9c-0.9-0.4-1.6-0.1-2.3,0.1
				c-19.3,4.2-35.2,14.2-47.6,29.5c-14.4,18-21.3,38.6-20,61.8c0.1,1.8,0.3,3.6,0.5,5.3c-0.3-0.3-0.5-0.5-0.8-0.8
				c-0.3-0.4-0.6-0.7-1-1c-0.3-0.4-0.6-0.7-1-1c-0.3-0.4-0.6-0.7-1-1c-0.3-0.4-0.6-0.7-1-1c-0.3-0.4-0.6-0.7-1-1
				c-0.3-0.4-0.6-0.7-1-1c-0.3-0.4-0.6-0.7-1-1c-0.3-0.4-0.6-0.7-1-1c-0.3-0.4-0.6-0.7-1-1c-0.3-0.4-0.6-0.7-1-1
				c-0.3-0.4-0.6-0.7-1-1c-0.3-0.4-0.6-0.7-1-1c-0.3-0.4-0.6-0.7-1-1c-0.3-0.4-0.6-0.7-1-1c-0.3-0.4-0.6-0.7-1-1
				c-0.3-0.4-0.6-0.7-1-1c-0.3-0.4-0.6-0.7-1-1c-0.3-0.4-0.6-0.7-1-1c-0.3-0.4-0.6-0.7-1-1c-0.3-0.4-0.6-0.7-1-1
				c-0.3-0.4-0.6-0.7-1-1c-0.3-0.4-0.6-0.7-1-1c-0.3-0.4-0.6-0.7-1-1c-0.3-0.4-0.6-0.7-1-1c-0.3-0.4-0.6-0.7-1-1
				c-0.3-0.4-0.6-0.7-1-1c-0.3-0.4-0.6-0.7-1-1c-0.3-0.4-0.6-0.7-1-1c-0.3-0.4-0.6-0.7-1-1c-0.3-0.4-0.6-0.7-1-1
				c-0.3-0.4-0.6-0.7-1-1c-0.3-0.4-0.6-0.7-1-1c-0.3-0.4-0.6-0.7-1-1c-0.3-0.4-0.6-0.7-1-1c-0.3-0.4-0.6-0.7-1-1
				c-0.3-0.4-0.6-0.7-1-1c-0.3-0.4-0.6-0.7-1-1c-0.3-0.4-0.6-0.7-1-1c-0.3-0.4-0.6-0.7-1-1c-0.3-0.4-0.6-0.7-1-1
				c-0.3-0.4-0.6-0.7-1-1c-0.3-0.4-0.6-0.7-1-1c-0.3-0.4-0.6-0.7-1-1c-0.3-0.4-0.6-0.7-1-1c-0.3-0.4-0.6-0.7-1-1
				c-0.3-0.4-0.6-0.7-1-1c-0.3-0.4-0.6-0.7-1-1c-0.3-0.4-0.6-0.7-1-1c-0.3-0.4-0.6-0.7-1-1c-0.3-0.4-0.6-0.7-1-1
				c-0.3-0.4-0.6-0.7-1-1c-0.3-0.4-0.6-0.7-1-1c-0.3-0.4-0.6-0.7-1-1c-0.3-0.4-0.6-0.7-1-1c-0.3-0.4-0.6-0.7-1-1
				c-0.3-0.4-0.6-0.7-1-1c-0.3-0.4-0.6-0.7-1-1c-0.3-0.4-0.6-0.7-1-1c-0.3-0.4-0.6-0.7-1-1c-0.3-0.4-0.6-0.7-1-1
				c-0.3-0.4-0.6-0.7-1-1c-0.3-0.4-0.6-0.7-1-1c-0.3-0.4-0.6-0.7-1-1c-0.3-0.4-0.6-0.7-1-1c-0.3-0.4-0.6-0.7-1-1
				c-0.3-0.4-0.6-0.7-1-1c-0.3-0.4-0.6-0.7-1-1c-0.3-0.4-0.6-0.7-1-1c-0.3-0.4-0.6-0.7-1-1c-0.3-0.4-0.6-0.7-1-1
				c-0.3-0.4-0.6-0.7-1-1c-0.3-0.4-0.6-0.7-1-1c-0.3-0.4-0.6-0.7-1-1c-0.3-0.4-0.6-0.7-1-1c-0.3-0.4-0.6-0.7-1-1
				c-0.3-0.4-0.6-0.7-1-1c-0.3-0.4-0.6-0.7-1-1c-0.3-0.4-0.6-0.7-1-1c-0.3-0.4-0.6-0.7-1-1c-0.3-0.4-0.6-0.7-1-1
				c-0.3-0.4-0.6-0.7-1-1c-0.3-0.4-0.6-0.7-1-1c-0.3-0.4-0.6-0.7-1-1c-0.3-0.4-0.6-0.7-1-1c-0.3-0.4-0.6-0.7-1-1
				c-0.3-0.4-0.6-0.7-1-1c-0.3-0.4-0.6-0.7-1-1c-0.3-0.4-0.6-0.7-1-1c-0.3-0.4-0.6-0.7-1-1c-0.3-0.4-0.6-0.7-1-1
				c-0.3-0.4-0.6-0.7-1-1c-0.3-0.4-0.6-0.7-1-1c-0.3-0.4-0.6-0.7-1-1c-0.3-0.4-0.6-0.7-1-1c-0.3-0.4-0.6-0.7-1-1
				c-0.3-0.4-0.6-0.7-1-1c-0.3-0.4-0.6-0.7-1-1c-0.3-0.4-0.6-0.7-1-1c-0.3-0.4-0.6-0.7-1-1c-0.3-0.4-0.6-0.7-1-1
				c-0.3-0.4-0.6-0.7-1-1c-0.3-0.4-0.6-0.7-1-1c-0.3-0.4-0.6-0.7-1-1c-0.3-0.4-0.6-0.7-1-1c-1.1-1.4-2.5-2.2-4.4-2.6
				c-1.6-0.4-2.8-0.2-4.2,0.6c-10.6,5.8-21.2,11.6-31.9,17.3c-1,0.5-1.6,1.3-1.8,2.3c-0.5,1.9-1.1,3.7-1.6,5.6
				c-0.3,0.9-0.7,1.1-1.6,0.9c-1.9-0.6-3.8-1-5.6-1.6c-1-0.3-1.8-0.3-2.7,0.3c-10.2,5.7-20.5,11.4-30.7,17.1
				c-14.7,8.2-29.5,16.5-44.2,24.7c-1.3,0.7-2.6,1.5-3.7,2.5c-13.4,12-22.6,26.5-27.3,43.8c-1.9,7.1-3,14.3-3.2,21.6
				c-0.1,4.6,0.3,9.2,1.2,13.8c2,10.2,6.2,19.4,12.3,27.8c0.4,0.5,0.7,1,1.3,1.4c0.3,0.4,0.6,0.7,1,1c0.3,0.4,0.6,0.7,1,1
				c0.3,0.4,0.6,0.7,1,1c0.3,0.4,0.6,0.7,1,1c0.3,0.4,0.6,0.7,1,1c0.3,0.4,0.6,0.7,1,1c0.3,0.4,0.6,0.7,1,1c0.3,0.4,0.6,0.7,1,1
				c0.3,0.4,0.6,0.7,1,1c0.3,0.4,0.6,0.7,1,1c0.3,0.4,0.6,0.7,1,1c0.3,0.4,0.6,0.7,1,1c0.3,0.4,0.6,0.7,1,1c0.3,0.4,0.6,0.7,1,1
				c0.3,0.4,0.6,0.7,1,1c0.3,0.4,0.6,0.7,1,1c0.3,0.4,0.6,0.7,1,1c0.3,0.4,0.6,0.7,1,1c0.3,0.4,0.6,0.7,1,1c0.3,0.4,0.6,0.7,1,1
				c0.3,0.4,0.6,0.7,1,1c0.3,0.4,0.6,0.7,1,1c0.3,0.4,0.6,0.7,1,1c0.3,0.4,0.6,0.7,1,1c0.3,0.4,0.6,0.7,1,1c0.3,0.4,0.6,0.7,1,1
				c0.3,0.4,0.6,0.7,1,1c0.3,0.4,0.6,0.7,1,1c0.3,0.4,0.6,0.7,1,1c0.3,0.4,0.6,0.7,1,1c0.3,0.4,0.6,0.7,1,1c0.3,0.4,0.6,0.7,1,1
				c0.3,0.4,0.6,0.7,1,1c0.3,0.4,0.6,0.7,1,1c0.3,0.4,0.6,0.7,1,1c0.3,0.4,0.6,0.7,1,1c0.3,0.4,0.6,0.7,1,1c0.3,0.4,0.6,0.7,1,1
				c0.3,0.4,0.6,0.7,1,1c0.3,0.4,0.6,0.7,1,1c0.3,0.4,0.6,0.7,1,1c0.3,0.4,0.6,0.7,1,1c0.3,0.4,0.6,0.7,1,1c0.3,0.4,0.6,0.7,1,1
				c0.3,0.4,0.6,0.7,1,1c0.3,0.4,0.6,0.7,1,1c0.3,0.4,0.6,0.7,1,1c0.3,0.4,0.6,0.7,1,1c0.3,0.4,0.6,0.7,1,1c0.3,0.4,0.6,0.7,1,1
				c0.3,0.4,0.6,0.7,1,1c0.3,0.4,0.6,0.7,1,1c0.3,0.4,0.6,0.7,1,1c0.3,0.4,0.6,0.7,1,1c0.3,0.4,0.6,0.7,1,1c0.3,0.4,0.6,0.7,1,1
				c0.3,0.4,0.6,0.7,1,1c0.3,0.4,0.6,0.7,1,1c0.3,0.4,0.6,0.7,1,1c0.3,0.4,0.6,0.7,1,1c0.3,0.4,0.6,0.7,1,1c0.3,0.4,0.6,0.7,1,1
				c0.3,0.4,0.6,0.7,1,1c0.3,0.4,0.6,0.7,1,1c0.3,0.4,0.6,0.7,1,1c0.3,0.4,0.6,0.7,1,1c0.3,0.4,0.6,0.7,1,1c0.3,0.4,0.6,0.7,1,1
				c0.3,0.4,0.6,0.7,1,1c0.3,0.4,0.6,0.7,1,1c0.3,0.4,0.6,0.7,1,1c0.3,0.4,0.6,0.7,1,1c0.3,0.4,0.6,0.7,1,1c0.3,0.4,0.6,0.7,1,1
				c0.3,0.4,0.6,0.7,1,1c0.3,0.4,0.6,0.7,1,1c0.3,0.4,0.6,0.7,1,1c0.3,0.4,0.6,0.7,1,1c0.3,0.4,0.6,0.7,1,1c0.3,0.4,0.6,0.7,1,1
				c0.3,0.4,0.6,0.7,1,1c0.3,0.4,0.6,0.7,1,1c0.3,0.4,0.6,0.7,1,1c0.3,0.4,0.6,0.7,1,1c0.3,0.4,0.6,0.7,1,1c0.3,0.4,0.6,0.7,1,1
				c0.3,0.4,0.6,0.7,1,1c0.3,0.4,0.6,0.7,1,1c0.3,0.4,0.6,0.7,1,1c0.2,0.2,0.3,0.4,0.5,0.6c-1.5,0-3.1,0-4.6,0c-0.7,0-1.3,0-2,0
				c-0.6,0-1,0.3-1,1c0,0.4,0,0.9,0,1.3c0,3.4,0.4,3.1-3.2,3.1c-32.6,0-65.2,0-97.8,0c-1,0-2.1-0.3-3.1,0.3c-4.7,0.6-8,3.2-9.6,7.7
				c-0.6,1.6-0.6,3.2-0.6,4.9c0,31.6,0,63.3,0,94.9c0,2.5,0.1,4.9,0.3,7.4c1,13,5.3,24.8,13.3,35.1c2,2.6,4.1,4.9,6.3,7.1
				c0.3,0.3,0.7,0.7,1,1c0.3,0.3,0.7,0.7,1,1c0.3,0.3,0.7,0.7,1,1c0.3,0.3,0.7,0.7,1,1c0.3,0.3,0.7,0.7,1,1c0.3,0.3,0.7,0.7,1,1
				c0.3,0.3,0.7,0.7,1,1c0.3,0.3,0.7,0.7,1,1c0.3,0.3,0.7,0.7,1,1c0.3,0.3,0.7,0.7,1,1c0.3,0.3,0.7,0.7,1,1c0.3,0.3,0.7,0.7,1,1
				c0.3,0.3,0.7,0.7,1,1c0.3,0.3,0.7,0.7,1,1c0.3,0.3,0.7,0.7,1,1c0.3,0.3,0.7,0.7,1,1c0.3,0.3,0.7,0.7,1,1c0.3,0.3,0.7,0.7,1,1
				c0.3,0.3,0.7,0.7,1,1c0.3,0.3,0.7,0.7,1,1c0.3,0.3,0.7,0.7,1,1c0.3,0.3,0.7,0.7,1,1c0.3,0.3,0.7,0.7,1,1c0.3,0.3,0.7,0.7,1,1
				c0.3,0.3,0.7,0.7,1,1c0.3,0.3,0.7,0.7,1,1c0.3,0.3,0.7,0.7,1,1c0.3,0.3,0.7,0.7,1,1c0.3,0.3,0.7,0.7,1,1c0.3,0.3,0.7,0.7,1,1
				c0.3,0.3,0.7,0.7,1,1c0.3,0.3,0.7,0.7,1,1c0.3,0.3,0.7,0.7,1,1c0.3,0.3,0.7,0.7,1,1c0.3,0.3,0.7,0.7,1,1c0.3,0.3,0.7,0.7,1,1
				c0.3,0.3,0.7,0.7,1,1c0.3,0.3,0.7,0.7,1,1c0.3,0.3,0.7,0.7,1,1c0.3,0.3,0.7,0.7,1,1c0.3,0.3,0.7,0.7,1,1c0.3,0.3,0.7,0.7,1,1
				c0.3,0.3,0.7,0.7,1,1c0.3,0.3,0.7,0.7,1,1c0.3,0.3,0.7,0.7,1,1c0.3,0.3,0.7,0.7,1,1c0.3,0.3,0.7,0.7,1,1c0.3,0.3,0.7,0.7,1,1
				c0.3,0.3,0.7,0.7,1,1c0.3,0.3,0.7,0.7,1,1c0.3,0.3,0.7,0.7,1,1c0.3,0.3,0.7,0.7,1,1c0.3,0.3,0.7,0.7,1,1c0.3,0.3,0.7,0.7,1,1
				c0.3,0.3,0.7,0.7,1,1c0.3,0.3,0.7,0.7,1,1c0.3,0.3,0.7,0.7,1,1c0.3,0.3,0.7,0.7,1,1c0.3,0.3,0.7,0.7,1,1c0.3,0.3,0.7,0.7,1,1
				c0.3,0.3,0.7,0.7,1,1c0.3,0.3,0.7,0.7,1,1c0.3,0.3,0.7,0.7,1,1c0.3,0.3,0.7,0.7,1,1c0.3,0.3,0.7,0.7,1,1c0.3,0.3,0.7,0.7,1,1
				c0.3,0.3,0.7,0.7,1,1c0.3,0.3,0.7,0.7,1,1c0.3,0.3,0.7,0.7,1,1c0.3,0.3,0.7,0.7,1,1c0.3,0.3,0.7,0.7,1,1c0.3,0.3,0.7,0.7,1,1
				c0.3,0.3,0.7,0.7,1,1c0.3,0.3,0.7,0.7,1,1c0.3,0.3,0.7,0.7,1,1c0.3,0.3,0.7,0.7,1,1c0.3,0.3,0.7,0.7,1,1c0.3,0.3,0.7,0.7,1,1
				c0.3,0.3,0.7,0.7,1,1c0.3,0.3,0.7,0.7,1,1c0.3,0.3,0.7,0.7,1,1c0.3,0.3,0.7,0.7,1,1c0.3,0.3,0.7,0.7,1,1c0.3,0.3,0.7,0.7,1,1
				c0.3,0.3,0.7,0.7,1,1c0.3,0.3,0.7,0.7,1,1c0.3,0.3,0.7,0.7,1,1c0.3,0.3,0.7,0.7,1,1c0.3,0.3,0.7,0.7,1,1c0.3,0.3,0.7,0.7,1,1
				c0.3,0.3,0.7,0.7,1,1c0.3,0.3,0.7,0.7,1,1c0.3,0.3,0.7,0.7,1,1c0.3,0.3,0.7,0.7,1,1c0.3,0.3,0.7,0.7,1,1c0.3,0.3,0.7,0.7,1,1
				c0.3,0.3,0.7,0.7,1,1c0.3,0.3,0.7,0.7,1,1c0.3,0.3,0.7,0.7,1,1c0.3,0.3,0.7,0.7,1,1c0.3,0.3,0.7,0.7,1,1c0.3,0.3,0.7,0.7,1,1
				c0.3,0.3,0.7,0.7,1,1c0.3,0.3,0.7,0.7,1,1c0.3,0.3,0.7,0.7,1,1c0.3,0.3,0.7,0.7,1,1c0.3,0.3,0.7,0.7,1,1c0.3,0.3,0.7,0.7,1,1
				c0.3,0.3,0.7,0.7,1,1c0.3,0.3,0.7,0.7,1,1c0.3,0.3,0.7,0.7,1,1c0.3,0.3,0.7,0.7,1,1c0.3,0.3,0.7,0.7,1,1c0.3,0.3,0.7,0.7,1,1
				c0.3,0.3,0.7,0.7,1,1c0.3,0.3,0.7,0.7,1,1c0.3,0.3,0.7,0.7,1,1c0.3,0.3,0.7,0.7,1,1c0.3,0.3,0.7,0.7,1,1c0.3,0.3,0.7,0.7,1,1
				c0.3,0.3,0.7,0.7,1,1c0.3,0.3,0.7,0.7,1,1c0.3,0.3,0.7,0.7,1,1c0.3,0.3,0.7,0.7,1,1c0.3,0.3,0.7,0.7,1,1c0.3,0.3,0.7,0.7,1,1
				c0.3,0.3,0.7,0.7,1,1c0.3,0.3,0.7,0.7,1,1c0.3,0.3,0.7,0.7,1,1c0.3,0.3,0.7,0.7,1,1c0.3,0.3,0.7,0.7,1,1c0.3,0.3,0.7,0.7,1,1
				c0.3,0.3,0.7,0.7,1,1c0.3,0.3,0.7,0.7,1,1c0.3,0.3,0.7,0.7,1,1c0.3,0.3,0.7,0.7,1,1c0.3,0.3,0.7,0.7,1,1c0.3,0.3,0.7,0.7,1,1
				c0.3,0.3,0.7,0.7,1,1c0.3,0.3,0.7,0.7,1,1c0.3,0.3,0.7,0.7,1,1c0.3,0.3,0.7,0.7,1,1c0.3,0.3,0.7,0.7,1,1c0.3,0.3,0.7,0.7,1,1
				c0.3,0.3,0.7,0.7,1,1c0.3,0.3,0.7,0.7,1,1c0.3,0.3,0.7,0.7,1,1c0.3,0.3,0.7,0.7,1,1c0.3,0.3,0.7,0.7,1,1c0.3,0.3,0.7,0.7,1,1
				c0.3,0.3,0.7,0.7,1,1c0.3,0.3,0.7,0.7,1,1c0.3,0.3,0.7,0.7,1,1c0.3,0.3,0.7,0.7,1,1c0.3,0.3,0.7,0.7,1,1c0.3,0.3,0.7,0.7,1,1
				c0.3,0.3,0.7,0.7,1,1c0.3,0.3,0.7,0.7,1,1c0.3,0.3,0.7,0.7,1,1c0.3,0.3,0.7,0.7,1,1c0.3,0.3,0.7,0.7,1,1c0.3,0.3,0.7,0.7,1,1
				c0.3,0.3,0.7,0.7,1,1c0.3,0.3,0.7,0.7,1,1c0.3,0.3,0.7,0.7,1,1c0.3,0.3,0.7,0.7,1,1c0.3,0.3,0.7,0.7,1,1c0.3,0.3,0.7,0.7,1,1
				c0.3,0.3,0.7,0.7,1,1c0.3,0.3,0.7,0.7,1,1c0.3,0.3,0.7,0.7,1,1c0.3,0.3,0.7,0.7,1,1c0.3,0.3,0.7,0.7,1,1c0.3,0.3,0.7,0.7,1,1
				c0.3,0.3,0.7,0.7,1,1c0.3,0.3,0.7,0.7,1,1c0.3,0.3,0.7,0.7,1,1c0.3,0.3,0.7,0.7,1,1c0.3,0.3,0.7,0.7,1,1c0.3,0.3,0.7,0.7,1,1
				c0.3,0.3,0.7,0.7,1,1c0.3,0.3,0.7,0.7,1,1c0.3,0.3,0.7,0.7,1,1c0.3,0.3,0.7,0.7,1,1c0.3,0.3,0.7,0.7,1,1c0.3,0.3,0.7,0.7,1,1
				c0.3,0.3,0.7,0.7,1,1c0.3,0.3,0.7,0.7,1,1c0.3,0.3,0.7,0.7,1,1c0.3,0.3,0.7,0.7,1,1c0.3,0.3,0.7,0.7,1,1c0.3,0.3,0.7,0.7,1,1
				c0.3,0.3,0.7,0.7,1,1c0.3,0.3,0.7,0.7,1,1c0.3,0.3,0.7,0.7,1,1c0.3,0.3,0.7,0.7,1,1c0.3,0.3,0.7,0.7,1,1c0.3,0.3,0.7,0.7,1,1
				c0.3,0.3,0.7,0.7,1,1c0.3,0.3,0.7,0.7,1,1c0.3,0.3,0.7,0.7,1,1c0.3,0.3,0.7,0.7,1,1c0.3,0.3,0.7,0.7,1,1c0.3,0.3,0.7,0.7,1,1
				c0.3,0.3,0.7,0.7,1,1c0.3,0.3,0.7,0.7,1,1c0.3,0.3,0.7,0.7,1,1c0.3,0.3,0.7,0.7,1,1c0.3,0.3,0.7,0.7,1,1c0.3,0.3,0.7,0.7,1,1
				c0.3,0.3,0.7,0.7,1,1c0.3,0.3,0.7,0.7,1,1c0.3,0.3,0.7,0.7,1,1c0.3,0.3,0.7,0.7,1,1c0.3,0.3,0.7,0.7,1,1c0.3,0.3,0.7,0.7,1,1
				c0.3,0.3,0.7,0.7,1,1c0.3,0.3,0.7,0.7,1,1c0.3,0.3,0.7,0.7,1,1c0.3,0.3,0.7,0.7,1,1c0.3,0.3,0.7,0.7,1,1c0.3,0.3,0.7,0.7,1,1
				c0.3,0.3,0.7,0.7,1,1c0.3,0.3,0.7,0.7,1,1c0.3,0.3,0.7,0.7,1,1c0.3,0.3,0.7,0.7,1,1c0.3,0.3,0.7,0.7,1,1c0.3,0.3,0.7,0.7,1,1
				c0.3,0.3,0.7,0.7,1,1c12.7,13.4,28.8,20.5,48.2,20.6c24.8,0.2,49.6,0,74.3,0c0.5,0,1,0,1.6-0.1c0.3,0,0.6,0,0.9,0
				c61.8,0,123.6,0,185.3,0c0.8,0,1.6-0.1,2.5-0.1c0.6,0,1.2,0.1,1.8,0.1c26.7,0,53.5,0,80.2,0c3.9,0,7.8-0.4,11.6-1.1
				c32.7-6.3,54.8-34.7,54.8-65.9C870.1,755.5,870,722.9,870.2,690.3z"/>
		</g>
	</g>
</g>
<g>
	<path class="st3" d="M630.2,448.4c6.1,0.8,10,6.1,10,11.8c-0.1,32.6-0.1,65.3,0,97.9c0.1,31.1-22.1,59.6-54.8,65.9
		c-3.8,0.7-7.7,1.1-11.6,1.1c-26.7,0-53.5,0-80.2,0c-0.6,0-1.2-0.1-1.8-0.1c-0.9-0.9-0.8-2-0.9-3.1c-0.1-2.8,0.2-5.7-0.2-8.5
		c-1.6-10.4-10.1-17.8-20.9-18.4c-0.9,0-1.8,0-2.7,0c-46.5,0-93,0-139.5,0c-2.9,0-5.8,0.2-8.6,1.2c-9,3-14.7,10.7-15.1,20.2
		c-0.1,1.9,0,3.9,0,5.8c0,1,0,2.1-0.8,2.9c-0.5,0-1,0.1-1.6,0.1c-24.8,0-49.6,0.2-74.3,0c-22.1-0.2-39.9-9.3-53.4-26.8
		c-8-10.3-12.3-22.1-13.3-35.1c-0.2-2.5-0.3-4.9-0.3-7.4c0-31.6,0-63.3,0-94.9c0-1.7,0.1-3.3,0.6-4.9c1.6-4.5,4.9-7,9.6-7.7
		c0.8-0.3,1.6-0.1,2.4-0.1c33,0,66,0,99,0c3.2,0,3.4,0.2,3.4,3.4c0.1,12.3-0.1,24.6,0.1,37c0.2,10.7,5,19.1,14.2,24.7
		c4.1,2.5,8.6,3.8,13.4,3.8c63,0,126,0,189,0c15.1,0,27.6-12.5,27.6-27.5c0-11.8,0-23.6,0-35.4c0-0.8,0-1.6,0-2.5
		c0.1-3.2,0.3-3.4,3.4-3.4c34.9,0,69.9,0,104.8,0C628.6,448.3,629.4,448.1,630.2,448.4z"/>
	<path class="st4" d="M277.9,326.2c-1.8-2.8-3.5-5.7-5.8-8.2c-9.1-9.7-20.1-14.6-33.5-13.3c-9.4,0.9-17,5.7-23,12.9
		c-4,4.9-6.4,10.6-8.5,16.4c-1.7,4.7-3.5,9.4-4.9,14.2c-0.3,0.9-0.6,1.7-1.1,2.5c-1.6,3-4.7,4.1-8.3,2.6c-0.7-0.3-1.1-1-1.6-1.6
		c-6.2-8.3-10.3-17.6-12.3-27.8c-0.9-4.6-1.3-9.2-1.2-13.8c0.1-7.3,1.2-14.5,3.2-21.6c4.7-17.4,14-31.9,27.3-43.8
		c1.1-1,2.4-1.8,3.7-2.5c14.7-8.2,29.5-16.4,44.2-24.7c10.2-5.7,20.5-11.4,30.7-17.1c0.9-0.5,1.7-0.6,2.7-0.3c1.8,0.6,3.7,1,5.6,1.6
		c0.9,0.3,1.4,0.1,1.6-0.9c0.5-1.9,1.1-3.7,1.6-5.6c0.3-1.1,0.8-1.8,1.8-2.3c10.6-5.7,21.3-11.5,31.9-17.3c1.4-0.8,2.6-0.9,4.2-0.6
		c2.3,0.5,3.9,1.7,5.2,3.7c11,17.3,22,34.5,33.1,51.7c0.1,0.1,0.1,0.3,0.2,0.4c3,4.5,2.2,8-2.4,10.6c-8.5,4.7-17.1,9.4-25.7,14.1
		c-4.3,2.4-8.7,4.7-13,7.1c-1,0.6-1.9,0.7-3,0.3c-2.6-0.8-5.2-1.5-7.8-2.2c-0.6-0.1-1.1-0.5-1.9-0.1c0,13.1,2.3,25.8,6.9,38.2
		c-1.3,1.9-3.6,2.4-5.4,3.4c-14.2,7.7-28.2,15.6-42.4,23.1C279.5,325.7,278.8,326.2,277.9,326.2z"/>
	<path class="st4" d="M630.2,448.4c-0.7,0-1.5,0.1-2.2,0.1c-35,0-69.9,0-104.9,0c-3,0-2.7-0.4-2.7,2.6c0,12.6-0.1,25.2,0,37.9
		c0.1,12.8-8.8,25.1-22.4,28.3c-2.1,0.5-4.3,0.7-6.4,0.7c-5.6,0-11.2,0-16.8,0c-56.8,0-113.5,0-170.3,0c-6.2,0-11.9-1.4-17-4.8
		c-8.5-5.8-13-13.9-13.1-24.2c-0.2-12.6,0-25.2-0.1-37.9c0-3.1,0.3-2.6-2.6-2.6c-33,0-66,0-99,0c-0.8,0-1.6-0.1-2.5-0.1
		c1-0.5,2-0.3,3.1-0.3c32.6,0,65.2,0,97.8,0c3.5,0,3.1,0.3,3.2-3.1c0-0.4,0-0.9,0-1.3c0-0.6,0.4-0.9,1-1c0.7,0,1.3,0,2,0
		c20.6,0,41.2,0,61.8,0c0.7,0,1.3,0,2,0c0.6,0,0.7-0.4,0.7-0.9c1.8-0.3,3.5,0,5.3,0c16.3,0,32.7,0,49,0c1,0,2.1-0.1,3.1,0.1
		c1.9-0.2,3.7-0.2,5.6-0.2c24.6,0,49.2,0,73.9,0c1.4,0,2.9-0.3,4.1,0.6c0.8,0.4,1.8,0.3,2.6,0.3c10.6,0,21.2,0,31.8,0
		c0.5,0,1,0,1.6,0c1-0.1,1.5,0.4,1.5,1.4c0,0.5,0,1,0,1.6c0,2.4,0,2.4,2.5,2.4c34.7,0,69.5,0,104.2,0
		C628.1,448.1,629.2,447.9,630.2,448.4z"/>
	<path class="st4" d="M457.2,315.9c-2.2-4.1-4.5-8.1-6.3-12.4c-3.4-8.5-5.5-17.3-6-26.5c-1.3-23.2,5.6-43.8,20-61.8
		c12.3-15.3,28.2-25.3,47.6-29.5c0.7-0.2,1.4-0.4,2.3-0.1c-0.3,1.7-1.3,3.1-2.1,4.6c-3.3,6.2-6.6,12.4-9.9,18.6
		c-4.6,8.6-9.1,17.1-13.7,25.7c-1,1.8-1.1,3.4-0.8,5.4c1.5,8.8,4.9,16.7,10.3,23.8c7.8,10.1,18.1,16.1,30.7,17.8
		c12.7,1.8,24.3-1.3,35-8.1c0.9-0.6,1.5-1.3,2-2.3c5.1-11.8,10.3-23.5,15.4-35.3c2.3-5.3,4.7-10.7,7-16c0.2-0.3,0.3-0.7,0.8-0.9
		c1.1,1.1,1.7,2.6,2.4,3.9c4.8,9,7.9,18.7,9.1,28.9c2.8,24.8-4,46.8-19.2,66.4c-7.5,9.7-16.9,17.3-27.8,22.9
		c-8.6,4.4-17.7,7.2-27.3,8.2c-0.5,0.1-1,0.2-1.5,0.4c-0.6,0.6-1.3,0.7-2,0.7c-19.9,0.9-37.6-4.8-52.8-17.9
		c-4.5-3.8-8.1-8.3-11.6-12.9C458.1,318.3,457.3,317.3,457.2,315.9z"/>
	<path class="st5" d="M399.4,442.7c-18.2,0-36.4,0-54.6,0c-1.1,0-2.1,0-2.9-0.9c0,0,0,0,0,0c-0.5-0.8-0.8-1.6-1.4-2.3
		c-2.7-4.8-5.4-9.6-8-14.5c-10.8-19.6-21.6-39.2-32.5-58.7c-7.1-12.9-14.2-25.7-21.4-38.5c-0.3-0.5-0.5-1.1-0.8-1.6
		c0.2-0.5,0.7-0.8,1.1-1c5.9-3.2,11.8-6.3,17.7-9.6c7.1-3.9,14.2-7.9,21.4-11.7c3.3-1.7,6.4-3.8,9.9-5.1
		c8.7,14.2,17.4,28.4,26.1,42.6c16.9,27.6,33.7,55.2,50.6,82.7c0.5,0.9,1.2,1.7,1.7,2.6c0.6,0.5,0.4,1.1,0.1,1.6
		c-2,4.4-3.9,8.7-6,13C400.3,441.9,399.8,442.3,399.4,442.7z"/>
	<path class="st6" d="M399.4,442.7c2.1-4.6,4.1-9.1,6.2-13.7c0.3-0.7,0.6-1.5,0.9-2.2c2.4-5.1,4.7-10.1,7.1-15.2
		c6.7-14.6,13.3-29.2,20-43.7c7.6-16.7,15.3-33.5,22.9-50.2c0.2-0.5,0.5-1.1,0.8-1.6c2.4,3.2,4.6,6.4,7.2,9.4
		c4.9,5.5,10.5,10.1,16.8,13.9c7.4,4.5,15.4,7.5,23.9,9.1c5.7,1.1,11.4,1.3,17.1,1.1c1,0,2.1,0,3.1,0c-2.7,6-5.4,12-8.1,17.9
		c-11.4,25-22.9,50-34.3,75.1c-0.6,0.3-1.3,0.3-2,0.3c-26.9,0-53.8,0-80.7,0C400,442.7,399.7,442.7,399.4,442.7z"/>
	<path class="st4" d="M303,625c0-2.2,0.1-4.5,0-6.7c-0.6-14,10.2-24.3,24.1-24.2c42,0.2,84,0.1,126,0.1c5.4,0,10.9-0.1,16.3,0
		c10.1,0.1,18.6,6.7,21.4,16.3c0.5,1.7,0.8,3.5,0.8,5.3c0,3.1,0,6.1,0,9.2c-0.8,0-1.6,0.1-2.5,0.1c-61.8,0-123.6,0-185.3,0
		C303.6,625.1,303.3,625.1,303,625z"/>
	<path class="st7" d="M397.6,560c17.5,0,34.9,0,52.4,0c0.6,0,1.2,0,1.8,0c2.1,0.1,3.4,1.3,3.5,3.3c0.1,1.3,0.1,2.7,0,4
		c-0.2,2-1.5,3.2-3.5,3.4c-0.5,0-1,0-1.6,0c-35.1,0-70.3,0-105.4,0c-0.7,0-1.4,0-2-0.1c-1.8-0.3-2.9-1.5-3-3.3c-0.1-1.3-0.1-2.7,0-4
		c0.1-1.9,1.3-3.2,3.2-3.3c0.7-0.1,1.3,0,2,0C362.5,560,380.1,560,397.6,560z"/>
	<path class="st8" d="M476.8,563.6c0,2.4-2,4.5-4.4,4.5c-2.3,0-4.3-1.9-4.4-4.2c-0.1-2.3,1.9-4.5,4.3-4.6
		C474.6,559.2,476.8,561.2,476.8,563.6z"/>
	<path class="st8" d="M489.5,559.3c2.4,0,4.4,2.1,4.4,4.4c0,2.3-2,4.3-4.3,4.3c-2.3,0.1-4.5-2-4.5-4.3
		C485,561.4,487.1,559.3,489.5,559.3z"/>
	<path class="st7" d="M397.4,470.1c-27.8,0-55.5,0-83.3,0c-4.6,0-5.5-1.5-5.3-5.6c0.1-2.2,1.3-3.4,3.6-3.5c0.7,0,1.3,0,2,0
		c55.4,0,110.8,0,166.2,0c0.6,0,1.2,0,1.8,0c2.5,0.1,3.7,1.3,3.9,3.7c0.1,0.9,0.1,1.8-0.1,2.7c-0.4,1.6-1.5,2.6-3.2,2.7
		c-0.9,0.1-1.8,0-2.7,0C452.6,470.1,425,470.1,397.4,470.1z"/>
	<path class="st7" d="M397.5,493.3c-27.8,0-55.7,0-83.5,0c-4.2,0-5.5-1.4-5.2-5.5c0.2-2.3,1.3-3.5,3.7-3.6c0.7,0,1.3,0,2,0
		c55.3,0,110.6,0,165.9,0c0.4,0,0.9,0,1.3,0c1.7-0.1,3.3,0.2,4,1.8c0.8,1.9,0.9,3.9-0.3,5.8c-0.5,0.9-1.4,1.3-2.4,1.4
		c-0.8,0-1.6,0-2.5,0C452.9,493.3,425.2,493.3,397.5,493.3z"/>
</g>
</svg>
