<?xml version="1.0" encoding="utf-8"?>
<!-- Generator: Adobe Illustrator 23.0.0, SVG Export Plug-In . SVG Version: 6.00 Build 0)  -->
<svg version="1.1" id="Layer_1" xmlns="http://www.w3.org/2000/svg" xmlns:xlink="http://www.w3.org/1999/xlink" x="0px" y="0px"
	 viewBox="0 0 800 800" style="enable-background:new 0 0 800 800;" xml:space="preserve">
<style type="text/css">
	.st0{fill:#333333;}
	.st1{opacity:0.4;clip-path:url(#SVGID_2_);enable-background:new    ;}
	.st2{fill:#4C73B2;}
	.st3{fill:#FFCF5B;}
	.st4{fill:#EFEFEF;}
	.st5{fill:#E0E0E0;}
	.st6{fill:#F1D59D;}
	.st7{fill:#E8CC9A;}
	.st8{fill:#D8D8D8;}
</style>
<g>
	<circle class="st0" cx="400" cy="400" r="400"/>
</g>
<g>
	<g>
		<defs>
			<circle id="SVGID_1_" cx="400" cy="400" r="400"/>
		</defs>
		<clipPath id="SVGID_2_">
			<use xlink:href="#SVGID_1_"  style="overflow:visible;"/>
		</clipPath>
		<path class="st1" d="M990.4,652.3c-0.3,0.2-0.7,0.4-1,0.6c0,0,0,0,0-0.1C989.7,652.6,990,652.5,990.4,652.3
			c-0.4-0.2-0.7-0.3-1-0.5c0-0.2,0-0.3,0-0.5c-0.1,0.1-0.3,0.2-0.4,0.2c0,0,0,0-0.1,0c0.1-0.1,0.2-0.1,0.3-0.2
			c-0.3-0.2-0.6-0.3-0.9-0.5c0-0.2,0-0.3,0-0.5c-0.1,0.1-0.3,0.2-0.4,0.2c0,0,0,0-0.1,0c0.1-0.1,0.2-0.1,0.3-0.2
			c-0.3-0.2-0.6-0.3-0.9-0.5c0-0.2,0-0.3,0-0.5c-0.1,0.1-0.3,0.2-0.4,0.2c0,0,0,0-0.1,0c0.1-0.1,0.2-0.1,0.3-0.2
			c-0.3-0.2-0.6-0.3-0.9-0.5c0-0.2,0-0.3,0-0.5c-0.1,0.1-0.3,0.2-0.4,0.2c0,0,0,0-0.1,0c0.1-0.1,0.2-0.1,0.3-0.2
			c-0.3-0.2-0.6-0.3-0.9-0.5c0-0.2,0-0.3,0-0.5c-0.1,0.1-0.3,0.2-0.4,0.2c0,0,0,0-0.1,0c0.1-0.1,0.2-0.1,0.3-0.2
			c-0.3-0.2-0.6-0.3-0.9-0.5c0-0.2,0-0.3,0-0.5c-0.1,0.1-0.3,0.2-0.4,0.2c0,0,0,0-0.1,0c0.1-0.1,0.2-0.1,0.3-0.2
			c-0.3-0.2-0.6-0.3-0.9-0.5c0-0.2,0-0.3,0-0.5c-0.1,0.1-0.3,0.2-0.4,0.2c0,0,0,0-0.1,0c0.1-0.1,0.2-0.1,0.3-0.2
			c-0.3-0.2-0.6-0.3-0.9-0.5c0-0.2,0-0.3,0-0.5c-0.1,0.1-0.3,0.2-0.4,0.2c0,0,0,0-0.1,0c0.1-0.1,0.2-0.1,0.3-0.2
			c-0.3-0.2-0.6-0.3-0.9-0.5c0-0.2,0-0.3,0-0.5c-0.1,0.1-0.3,0.2-0.4,0.2c0,0,0,0-0.1,0c0.1-0.1,0.2-0.1,0.3-0.2
			c-0.3-0.2-0.6-0.3-0.9-0.5c0-0.2,0-0.3,0-0.5c-0.1,0.1-0.3,0.2-0.4,0.2c0,0,0,0-0.1,0c0.1-0.1,0.2-0.1,0.3-0.2
			c-0.3-0.2-0.6-0.3-0.9-0.5c0-0.2,0-0.3,0-0.5c-0.1,0.1-0.3,0.2-0.4,0.2c0,0,0,0-0.1,0c0.1-0.1,0.2-0.1,0.3-0.2
			c-0.3-0.2-0.6-0.3-0.9-0.5c0-0.2,0-0.3,0-0.5c-0.1,0.1-0.3,0.2-0.4,0.2c0,0,0,0-0.1,0c0.1-0.1,0.2-0.1,0.3-0.2
			c-0.3-0.2-0.6-0.3-0.9-0.5c0-0.2,0-0.3,0-0.5c-0.1,0.1-0.3,0.2-0.4,0.2c0,0,0,0-0.1,0c0.1-0.1,0.2-0.1,0.3-0.2
			c-0.3-0.2-0.6-0.3-0.9-0.5c0-0.2,0-0.3,0-0.5c-0.1,0.1-0.3,0.2-0.4,0.2c0,0,0,0-0.1,0c0.1-0.1,0.2-0.1,0.3-0.2
			c-0.3-0.2-0.6-0.3-0.9-0.5c0-0.2,0-0.3,0-0.5c-0.1,0.1-0.3,0.2-0.4,0.2c0,0,0,0-0.1,0c0.1-0.1,0.2-0.1,0.3-0.2
			c-0.3-0.2-0.6-0.3-0.9-0.5c0-0.2,0-0.3,0-0.5c-0.1,0.1-0.3,0.2-0.4,0.2c0,0,0,0-0.1,0c0.1-0.1,0.2-0.1,0.3-0.2
			c-0.3-0.2-0.6-0.3-0.9-0.5c0-0.2,0-0.3,0-0.5c-0.1,0.1-0.3,0.2-0.4,0.2c0,0,0,0-0.1,0c0.1-0.1,0.2-0.1,0.3-0.2
			c-0.3-0.2-0.6-0.3-0.9-0.5c0-0.2,0-0.3,0-0.5c-0.1,0.1-0.3,0.2-0.4,0.2c0,0,0,0-0.1,0c0.1-0.1,0.2-0.1,0.3-0.2
			c-0.3-0.2-0.6-0.3-0.9-0.5c0-0.2,0-0.3,0-0.5c-0.1,0.1-0.3,0.2-0.4,0.2c0,0,0,0-0.1,0c0.1-0.1,0.2-0.1,0.3-0.2
			c-0.3-0.2-0.6-0.3-0.9-0.5c0-0.2,0-0.3,0-0.5c-0.1,0.1-0.3,0.2-0.4,0.2c0,0,0,0-0.1,0c0.1-0.1,0.2-0.1,0.3-0.2
			c-0.3-0.2-0.6-0.3-0.9-0.5c0-0.2,0-0.3,0-0.5c-0.1,0.1-0.3,0.2-0.4,0.2c0,0,0,0-0.1,0c0.1-0.1,0.2-0.1,0.3-0.2
			c-0.3-0.2-0.6-0.3-0.9-0.5c0-0.2,0-0.3,0-0.5c-0.1,0.1-0.3,0.2-0.4,0.2c0,0,0,0-0.1,0c0.1-0.1,0.2-0.1,0.3-0.2
			c-0.3-0.2-0.6-0.3-0.9-0.5c0-0.2,0-0.3,0-0.5c-0.1,0.1-0.3,0.2-0.4,0.2c0,0,0,0-0.1,0c0.1-0.1,0.2-0.1,0.3-0.2
			c-0.3-0.2-0.6-0.3-0.9-0.5c0-0.2,0-0.3,0-0.5c-0.1,0.1-0.3,0.2-0.4,0.2c0,0,0,0-0.1,0c0.1-0.1,0.2-0.1,0.3-0.2
			c-0.3-0.2-0.6-0.3-0.9-0.5c0-0.2,0-0.3,0-0.5c-0.1,0.1-0.3,0.2-0.4,0.2c0,0,0,0-0.1,0c0.1-0.1,0.2-0.1,0.3-0.2
			c-0.3-0.2-0.6-0.3-0.9-0.5c0-0.2,0-0.3,0-0.5c-0.1,0.1-0.3,0.2-0.4,0.2c0,0,0,0-0.1,0c0.1-0.1,0.2-0.1,0.3-0.2
			c-0.3-0.2-0.6-0.3-0.9-0.5c0-0.2,0-0.3,0-0.5c-0.1,0.1-0.3,0.2-0.4,0.2c0,0,0,0-0.1,0c0.1-0.1,0.2-0.1,0.3-0.2
			c-0.3-0.2-0.6-0.3-0.9-0.5c0-0.2,0-0.3,0-0.5c-0.1,0.1-0.3,0.2-0.4,0.2c0,0,0,0-0.1,0c0.1-0.1,0.2-0.1,0.3-0.2
			c-0.3-0.2-0.6-0.3-0.9-0.5c0-0.2,0-0.3,0-0.5c-0.1,0.1-0.3,0.2-0.4,0.2c0,0,0,0-0.1,0c0.1-0.1,0.2-0.1,0.3-0.2
			c-0.3-0.2-0.6-0.3-0.9-0.5c0-0.2,0-0.3,0-0.5c-0.1,0.1-0.3,0.2-0.4,0.2c0,0,0,0-0.1,0c0.1-0.1,0.2-0.1,0.3-0.2
			c-0.3-0.2-0.6-0.3-0.9-0.5c0-0.2,0-0.3,0-0.5c-0.1,0.1-0.3,0.2-0.4,0.2c0,0,0,0-0.1,0c0.1-0.1,0.2-0.1,0.3-0.2
			c-0.3-0.2-0.6-0.3-0.9-0.5c0-0.2,0-0.3,0-0.5c-0.1,0.1-0.3,0.2-0.4,0.2c0,0,0,0-0.1,0c0.1-0.1,0.2-0.1,0.3-0.2
			c-0.3-0.2-0.6-0.3-0.9-0.5c0-0.2,0-0.3,0-0.5c-0.1,0.1-0.3,0.2-0.4,0.2c0,0,0,0-0.1,0c0.1-0.1,0.2-0.1,0.3-0.2
			c-0.3-0.2-0.6-0.3-0.9-0.5c0-0.2,0-0.3,0-0.5c-0.1,0.1-0.3,0.2-0.4,0.2c0,0,0,0-0.1,0c0.1-0.1,0.2-0.1,0.3-0.2
			c-0.3-0.2-0.6-0.3-0.9-0.5c0-0.2,0-0.3,0-0.5c-0.1,0.1-0.3,0.2-0.4,0.2c0,0,0,0-0.1,0c0.1-0.1,0.2-0.1,0.3-0.2
			c-0.3-0.2-0.6-0.3-0.9-0.5c0-0.2,0-0.3,0-0.5c-0.1,0.1-0.3,0.2-0.4,0.2c0,0,0,0-0.1,0c0.1-0.1,0.2-0.1,0.3-0.2
			c-0.3-0.2-0.6-0.3-0.9-0.5c0-0.2,0-0.3,0-0.5c-0.1,0.1-0.3,0.2-0.4,0.2c0,0,0,0-0.1,0c0.1-0.1,0.2-0.1,0.3-0.2
			c-0.3-0.2-0.6-0.3-0.9-0.5c0-0.2,0-0.3,0-0.5c-0.1,0.1-0.3,0.2-0.4,0.2c0,0,0,0-0.1,0c0.1-0.1,0.2-0.1,0.3-0.2
			c-0.3-0.2-0.6-0.3-0.9-0.5c0-0.2,0-0.3,0-0.5c-0.1,0.1-0.3,0.2-0.4,0.2c0,0,0,0-0.1,0c0.1-0.1,0.2-0.1,0.3-0.2
			c-0.3-0.2-0.6-0.3-0.9-0.5c0-0.2,0-0.3,0-0.5c-0.1,0.1-0.3,0.2-0.4,0.2c0,0,0,0-0.1,0c0.1-0.1,0.2-0.1,0.3-0.2
			c-0.3-0.2-0.6-0.3-0.9-0.5c0-0.2,0-0.3,0-0.5c-0.1,0.1-0.3,0.2-0.4,0.2c0,0,0,0-0.1,0c0.1-0.1,0.2-0.1,0.3-0.2
			c-0.3-0.2-0.6-0.3-0.9-0.5c0-0.2,0-0.3,0-0.5c-0.1,0.1-0.3,0.2-0.4,0.2c0,0,0,0-0.1,0c0.1-0.1,0.2-0.1,0.3-0.2
			c-0.3-0.2-0.6-0.3-0.9-0.5c0-0.2,0-0.3,0-0.5c-0.1,0.1-0.3,0.2-0.4,0.2c0,0,0,0-0.1,0c0.1-0.1,0.2-0.1,0.3-0.2
			c-0.3-0.2-0.6-0.3-0.9-0.5c0-0.2,0-0.3,0-0.5c-0.1,0.1-0.3,0.2-0.4,0.2c0,0,0,0-0.1,0c0.1-0.1,0.2-0.1,0.3-0.2
			c-0.3-0.2-0.6-0.3-0.9-0.5c0-0.2,0-0.3,0-0.5c-0.1,0.1-0.3,0.2-0.4,0.2c0,0,0,0-0.1,0c0.1-0.1,0.2-0.1,0.3-0.2
			c-0.3-0.2-0.6-0.3-0.9-0.5c0-0.2,0-0.3,0-0.5c-0.1,0.1-0.3,0.2-0.4,0.2c0,0,0,0-0.1,0c0.1-0.1,0.2-0.1,0.3-0.2
			c-0.3-0.2-0.6-0.3-0.9-0.5c0-0.2,0-0.3,0-0.5c-0.1,0.1-0.3,0.2-0.4,0.2c0,0,0,0-0.1,0c0.1-0.1,0.2-0.1,0.3-0.2
			c-0.3-0.2-0.6-0.3-0.9-0.5c0-0.2,0-0.3,0-0.5c-0.1,0.1-0.3,0.2-0.4,0.2c0,0,0,0-0.1,0c0.1-0.1,0.2-0.1,0.3-0.2
			c-0.3-0.2-0.6-0.3-0.9-0.5c0-0.2,0-0.3,0-0.5c-0.1,0.1-0.3,0.2-0.4,0.2c0,0,0,0-0.1,0c0.1-0.1,0.2-0.1,0.3-0.2
			c-0.3-0.2-0.6-0.3-0.9-0.5c0-0.2,0-0.3,0-0.5c-0.1,0.1-0.3,0.2-0.4,0.2c0,0,0,0-0.1,0c0.1-0.1,0.2-0.1,0.3-0.2
			c-0.3-0.2-0.6-0.3-0.9-0.5c0-0.2,0-0.3,0-0.5c-0.1,0.1-0.3,0.2-0.4,0.2c0,0,0,0-0.1,0c0.1-0.1,0.2-0.1,0.3-0.2
			c-0.3-0.2-0.6-0.3-0.9-0.5c0-0.2,0-0.3,0-0.5c-0.1,0.1-0.3,0.2-0.4,0.2c0,0,0,0-0.1,0c0.1-0.1,0.2-0.1,0.3-0.2
			c-0.3-0.2-0.6-0.3-0.9-0.5c0-0.2,0-0.3,0-0.5c-0.1,0.1-0.3,0.2-0.4,0.2c0,0,0,0-0.1,0c0.1-0.1,0.2-0.1,0.3-0.2
			c-0.3-0.2-0.6-0.3-0.9-0.5c0-0.2,0-0.3,0-0.5c-0.1,0.1-0.3,0.2-0.4,0.2c0,0,0,0-0.1,0c0.1-0.1,0.2-0.1,0.3-0.2
			c-0.3-0.2-0.6-0.3-0.9-0.5c0-0.2,0-0.3,0-0.5c-0.1,0.1-0.3,0.2-0.4,0.2c0,0,0,0-0.1,0c0.1-0.1,0.2-0.1,0.3-0.2
			c-0.3-0.2-0.6-0.3-0.9-0.5c0-0.2,0-0.3,0-0.5c-0.1,0.1-0.3,0.2-0.4,0.2c0,0,0,0-0.1,0c0.1-0.1,0.2-0.1,0.3-0.2
			c-0.3-0.2-0.6-0.3-0.9-0.5c0-0.2,0-0.3,0-0.5c-0.1,0.1-0.3,0.2-0.4,0.2c0,0,0,0-0.1,0c0.1-0.1,0.2-0.1,0.3-0.2
			c-0.3-0.2-0.6-0.3-0.9-0.5c0-0.2,0-0.3,0-0.5c-0.1,0.1-0.3,0.2-0.4,0.2c0,0,0,0-0.1,0c0.1-0.1,0.2-0.1,0.3-0.2
			c-0.3-0.2-0.6-0.3-0.9-0.5c0-0.2,0-0.3,0-0.5c-0.1,0.1-0.3,0.2-0.4,0.2c0,0,0,0-0.1,0c0.1-0.1,0.2-0.1,0.3-0.2
			c-0.3-0.2-0.6-0.3-0.9-0.5c0-0.2,0-0.3,0-0.5c-0.1,0.1-0.3,0.2-0.4,0.2c0,0,0,0-0.1,0c0.1-0.1,0.2-0.1,0.3-0.2
			c-0.3-0.2-0.6-0.3-0.9-0.5c0-0.2,0-0.3,0-0.5c-0.1,0.1-0.3,0.2-0.4,0.2c0,0,0,0-0.1,0c0.1-0.1,0.2-0.1,0.3-0.2
			c-0.3-0.2-0.6-0.3-0.9-0.5c0-0.2,0-0.3,0-0.5c-0.1,0.1-0.3,0.2-0.4,0.2c0,0,0,0-0.1,0c0.1-0.1,0.2-0.1,0.3-0.2
			c-0.3-0.2-0.6-0.3-0.9-0.5c0-0.2,0-0.3,0-0.5c-0.1,0.1-0.3,0.2-0.4,0.2c0,0,0,0-0.1,0c0.1-0.1,0.2-0.1,0.3-0.2
			c-0.3-0.2-0.6-0.3-0.9-0.5c0-0.2,0-0.3,0-0.5c-0.1,0.1-0.3,0.2-0.4,0.2c0,0,0,0-0.1,0c0.1-0.1,0.2-0.1,0.3-0.2
			c-0.3-0.2-0.6-0.3-0.9-0.5c0-0.2,0-0.3,0-0.5c-0.1,0.1-0.3,0.2-0.4,0.2c0,0,0,0-0.1,0c0.1-0.1,0.2-0.1,0.3-0.2
			c-0.3-0.2-0.6-0.3-0.9-0.5c0-0.2,0-0.3,0-0.5c-0.1,0.1-0.3,0.2-0.4,0.2c0,0,0,0-0.1,0c0.1-0.1,0.2-0.1,0.3-0.2
			c-0.3-0.2-0.6-0.3-0.9-0.5c0-0.2,0-0.3,0-0.5c-0.1,0.1-0.3,0.2-0.4,0.2c0,0,0,0-0.1,0c0.1-0.1,0.2-0.1,0.3-0.2
			c-0.3-0.2-0.6-0.3-0.9-0.5c0-0.2,0-0.3,0-0.5c-0.1,0.1-0.3,0.2-0.4,0.2c0,0,0,0-0.1,0c0.1-0.1,0.2-0.1,0.3-0.2
			c-0.3-0.2-0.6-0.3-0.9-0.5c0-0.2,0-0.3,0-0.5c-0.1,0.1-0.3,0.2-0.4,0.2c0,0,0,0-0.1,0c0.1-0.1,0.2-0.1,0.3-0.2
			c-0.3-0.2-0.6-0.3-0.9-0.5c0-0.2,0-0.3,0-0.5c-0.1,0.1-0.3,0.2-0.4,0.2c0,0,0,0-0.1,0c0.1-0.1,0.2-0.1,0.3-0.2
			c-0.3-0.2-0.6-0.3-0.9-0.5c0-0.2,0-0.3,0-0.5c-0.1,0.1-0.3,0.2-0.4,0.2c0,0,0,0-0.1,0c0.1-0.1,0.2-0.1,0.3-0.2
			c-0.3-0.2-0.6-0.3-0.9-0.5c0-0.2,0-0.3,0-0.5c-0.1,0.1-0.3,0.2-0.4,0.2c0,0,0,0-0.1,0c0.1-0.1,0.2-0.1,0.3-0.2
			c-0.3-0.2-0.6-0.3-0.9-0.5c0-0.2,0-0.3,0-0.5c-0.1,0.1-0.3,0.2-0.4,0.2c0,0,0,0-0.1,0c0.1-0.1,0.2-0.1,0.3-0.2
			c-0.3-0.2-0.6-0.3-0.9-0.5c0-0.2,0-0.3,0-0.5c-0.1,0.1-0.3,0.2-0.4,0.2c0,0,0,0-0.1,0c0.1-0.1,0.2-0.1,0.3-0.2
			c-0.3-0.2-0.6-0.3-0.9-0.5c0-0.2,0-0.3,0-0.5c-0.1,0.1-0.3,0.2-0.4,0.2c0,0,0,0-0.1,0c0.1-0.1,0.2-0.1,0.3-0.2
			c-0.3-0.2-0.6-0.3-0.9-0.5c0-0.2,0-0.3,0-0.5c-0.1,0.1-0.3,0.2-0.4,0.2c0,0,0,0-0.1,0c0.1-0.1,0.2-0.1,0.3-0.2
			c-0.3-0.2-0.6-0.3-0.9-0.5c0-0.2,0-0.3,0-0.5c-0.1,0.1-0.3,0.2-0.4,0.2c0,0,0,0-0.1,0c0.1-0.1,0.2-0.1,0.3-0.2
			c-0.3-0.2-0.6-0.3-0.9-0.5c0-0.2,0-0.3,0-0.5c-0.1,0.1-0.3,0.2-0.4,0.2c0,0,0,0-0.1,0c0.1-0.1,0.2-0.1,0.3-0.2
			c-0.3-0.2-0.6-0.3-0.9-0.5c0-0.2,0-0.3,0-0.5c-0.1,0.1-0.3,0.2-0.4,0.2c0,0,0,0-0.1,0c0.1-0.1,0.2-0.1,0.3-0.2
			c-0.3-0.2-0.6-0.3-0.9-0.5c0-0.2,0-0.3,0-0.5c-0.1,0.1-0.3,0.2-0.4,0.2c0,0,0,0-0.1,0c0.1-0.1,0.2-0.1,0.3-0.2
			c-0.3-0.2-0.6-0.3-0.9-0.5c0-0.2,0-0.3,0-0.5c-0.1,0.1-0.3,0.2-0.4,0.2c0,0,0,0-0.1,0c0.1-0.1,0.2-0.1,0.3-0.2
			c-0.3-0.2-0.6-0.3-0.9-0.5c0-0.2,0-0.3,0-0.5c-0.1,0.1-0.3,0.2-0.4,0.2c0,0,0,0-0.1,0c0.1-0.1,0.2-0.1,0.3-0.2
			c-0.3-0.2-0.6-0.3-0.9-0.5c0-0.2,0-0.3,0-0.5c-0.1,0.1-0.3,0.2-0.4,0.2c0,0,0,0-0.1,0c0.1-0.1,0.2-0.1,0.3-0.2
			c-0.3-0.2-0.6-0.3-0.9-0.5c0-0.2,0-0.3,0-0.5c-0.1,0.1-0.3,0.2-0.4,0.2c0,0,0,0-0.1,0c0.1-0.1,0.2-0.1,0.3-0.2
			c-0.3-0.2-0.6-0.3-0.9-0.5c0-0.2,0-0.3,0-0.5c-0.1,0.1-0.3,0.2-0.4,0.2c0,0,0,0-0.1,0c0.1-0.1,0.2-0.1,0.3-0.2
			c-0.3-0.2-0.6-0.3-0.9-0.5c0-0.2,0-0.3,0-0.5c-0.1,0.1-0.3,0.2-0.4,0.2c0,0,0,0-0.1,0c0.1-0.1,0.2-0.1,0.3-0.2
			c-0.3-0.2-0.6-0.3-0.9-0.5c0-0.2,0-0.3,0-0.5c-0.1,0.1-0.3,0.2-0.4,0.2c0,0,0,0-0.1,0c0.1-0.1,0.2-0.1,0.3-0.2
			c-0.3-0.2-0.6-0.3-0.9-0.5c0-0.2,0-0.3,0-0.5c-0.1,0.1-0.3,0.2-0.4,0.2c0,0,0,0-0.1,0c0.1-0.1,0.2-0.1,0.3-0.2
			c-0.3-0.2-0.6-0.3-0.9-0.5c0-0.2,0-0.3,0-0.5c-0.1,0.1-0.3,0.2-0.4,0.2c0,0,0,0-0.1,0c0.1-0.1,0.2-0.1,0.3-0.2
			c-0.3-0.2-0.6-0.3-0.9-0.5c0-0.2,0-0.3,0-0.5c-0.1,0.1-0.3,0.2-0.4,0.2c0,0,0,0-0.1,0c0.1-0.1,0.2-0.1,0.3-0.2
			c-0.3-0.2-0.6-0.3-0.9-0.5c0-0.2,0-0.3,0-0.5c-0.1,0.1-0.3,0.2-0.4,0.2c0,0,0,0-0.1,0c0.1-0.1,0.2-0.1,0.3-0.2
			c-0.3-0.2-0.6-0.3-0.9-0.5c0-0.2,0-0.3,0-0.5c-0.1,0.1-0.3,0.2-0.4,0.2c0,0,0,0-0.1,0c0.1-0.1,0.2-0.1,0.3-0.2
			c-0.3-0.2-0.6-0.3-0.9-0.5c0-0.2,0-0.3,0-0.5c-0.1,0.1-0.3,0.2-0.4,0.2c0,0,0,0-0.1,0c0.1-0.1,0.2-0.1,0.3-0.2
			c-0.3-0.2-0.6-0.3-0.9-0.5c0-0.2,0-0.3,0-0.5c-0.1,0.1-0.3,0.2-0.4,0.2c0,0,0,0-0.1,0c0.1-0.1,0.2-0.1,0.3-0.2
			c-0.3-0.2-0.6-0.3-0.9-0.5c0-0.2,0-0.3,0-0.5c-0.1,0.1-0.3,0.2-0.4,0.2c0,0,0,0-0.1,0c0.1-0.1,0.2-0.1,0.3-0.2
			c-0.3-0.2-0.6-0.3-0.9-0.5c0-0.2,0-0.3,0-0.5c-0.1,0.1-0.3,0.2-0.4,0.2c0,0,0,0-0.1,0c0.1-0.1,0.2-0.1,0.3-0.2
			c-0.3-0.2-0.6-0.3-0.9-0.5c0-0.2,0-0.3,0-0.5c-0.1,0.1-0.3,0.2-0.4,0.2c0,0,0,0-0.1,0c0.1-0.1,0.2-0.1,0.3-0.2
			c-0.3-0.2-0.6-0.3-0.9-0.5c0-0.2,0-0.3,0-0.5c-0.1,0.1-0.3,0.2-0.4,0.2c0,0,0,0-0.1,0c0.1-0.1,0.2-0.1,0.3-0.2
			c-0.3-0.2-0.6-0.3-0.9-0.5c0-0.2,0-0.3,0-0.5c-0.1,0.1-0.3,0.2-0.4,0.2c0,0,0,0-0.1,0c0.1-0.1,0.2-0.1,0.3-0.2
			c-0.3-0.2-0.6-0.3-0.9-0.5c0-0.2,0-0.3,0-0.5c-0.1,0.1-0.3,0.2-0.4,0.2c0,0,0,0-0.1,0c0.1-0.1,0.2-0.1,0.3-0.2
			c-0.3-0.2-0.6-0.3-0.9-0.5c0-0.2,0-0.3,0-0.5c-0.1,0.1-0.3,0.2-0.4,0.2c0,0,0,0-0.1,0c0.1-0.1,0.2-0.1,0.3-0.2
			c-0.3-0.2-0.6-0.3-0.9-0.5c0-0.2,0-0.3,0-0.5c-0.1,0.1-0.3,0.2-0.4,0.2c0,0,0,0-0.1,0c0.1-0.1,0.2-0.1,0.3-0.2
			c-0.3-0.2-0.6-0.3-0.9-0.5c0-0.2,0-0.3,0-0.5c-0.1,0.1-0.3,0.2-0.4,0.2c0,0,0,0-0.1,0c0.1-0.1,0.2-0.1,0.3-0.2
			c-0.3-0.2-0.6-0.3-0.9-0.5c0-0.2,0-0.3,0-0.5c-0.1,0.1-0.3,0.2-0.4,0.2c0,0,0,0-0.1,0c0.1-0.1,0.2-0.1,0.3-0.2
			c-0.3-0.2-0.6-0.3-0.9-0.5c0-0.2,0-0.3,0-0.5c-0.1,0.1-0.3,0.2-0.4,0.2c0,0,0,0-0.1,0c0.1-0.1,0.2-0.1,0.3-0.2
			c-0.3-0.2-0.6-0.3-0.9-0.5c0-0.2,0-0.3,0-0.5c-0.1,0.1-0.3,0.2-0.4,0.2c0,0,0,0-0.1,0c0.1-0.1,0.2-0.1,0.3-0.2
			c-0.3-0.2-0.6-0.3-0.9-0.5c0-0.2,0-0.3,0-0.5c-0.1,0.1-0.3,0.2-0.4,0.2c0,0,0,0-0.1,0c0.1-0.1,0.2-0.1,0.3-0.2
			c-0.3-0.2-0.6-0.3-0.9-0.5c0-0.2,0-0.3,0-0.5c-0.1,0.1-0.3,0.2-0.4,0.2c0,0,0,0-0.1,0c0.1-0.1,0.2-0.1,0.3-0.2
			c-0.3-0.2-0.6-0.3-0.9-0.5c0-0.2,0-0.3,0-0.5c-0.1,0.1-0.3,0.2-0.4,0.2c0,0,0,0-0.1,0c0.1-0.1,0.2-0.1,0.3-0.2
			c-0.3-0.2-0.6-0.3-0.9-0.5c0-0.2,0-0.3,0-0.5c-0.1,0.1-0.3,0.2-0.4,0.2c0,0,0,0-0.1,0c0.1-0.1,0.2-0.1,0.3-0.2
			c-0.3-0.2-0.6-0.3-0.9-0.5c0-0.2,0-0.3,0-0.5c-0.1,0.1-0.3,0.2-0.4,0.2c0,0,0,0-0.1,0c0.1-0.1,0.2-0.1,0.3-0.2
			c-0.3-0.2-0.6-0.3-0.9-0.5c0-0.2,0-0.3,0-0.5c-0.1,0.1-0.3,0.2-0.4,0.2c0,0,0,0-0.1,0c0.1-0.1,0.2-0.1,0.3-0.2
			c-0.3-0.2-0.6-0.3-0.9-0.5c0-0.2,0-0.3,0-0.5c-0.1,0.1-0.3,0.2-0.4,0.2c0,0,0,0-0.1,0c0.1-0.1,0.2-0.1,0.3-0.2
			c-0.3-0.2-0.6-0.3-0.9-0.5c0-0.2,0-0.3,0-0.5c-0.1,0.1-0.3,0.2-0.4,0.2c0,0,0,0-0.1,0c0.1-0.1,0.2-0.1,0.3-0.2
			c-0.3-0.2-0.6-0.3-0.9-0.5c0-0.2,0-0.3,0-0.5c-0.1,0.1-0.3,0.2-0.4,0.2c0,0,0,0-0.1,0c0.1-0.1,0.2-0.1,0.3-0.2
			c-0.3-0.2-0.6-0.3-0.9-0.5c0-0.2,0-0.3,0-0.5c-0.1,0.1-0.3,0.2-0.4,0.2c0,0,0,0-0.1,0c0.1-0.1,0.2-0.1,0.3-0.2
			c-0.3-0.2-0.6-0.3-0.9-0.5c0-0.2,0-0.3,0-0.5c-0.1,0.1-0.3,0.2-0.4,0.2c0,0,0,0-0.1,0c0.1-0.1,0.2-0.1,0.3-0.2
			c-0.3-0.2-0.6-0.3-0.9-0.5c0-0.2,0-0.3,0-0.5c-0.1,0.1-0.3,0.2-0.4,0.2c0,0,0,0-0.1,0c0.1-0.1,0.2-0.1,0.3-0.2
			c-0.3-0.2-0.6-0.3-0.9-0.5c0-0.2,0-0.3,0-0.5c-0.1,0.1-0.3,0.2-0.4,0.2c0,0,0,0-0.1,0c0.1-0.1,0.2-0.1,0.3-0.2
			c-0.3-0.2-0.6-0.3-0.9-0.5c0-0.2,0-0.3,0-0.5c-0.1,0.1-0.3,0.2-0.4,0.2c0,0,0,0-0.1,0c0.1-0.1,0.2-0.1,0.3-0.2
			c-0.3-0.2-0.6-0.3-0.9-0.5c0-0.2,0-0.3,0-0.5c-0.1,0.1-0.3,0.2-0.4,0.2c0,0,0,0-0.1,0c0.1-0.1,0.2-0.1,0.3-0.2
			c-0.3-0.2-0.6-0.3-0.9-0.5c0-0.2,0-0.3,0-0.5c-0.1,0.1-0.3,0.2-0.4,0.2c0,0,0,0-0.1,0c0.1-0.1,0.2-0.1,0.3-0.2
			c-0.3-0.2-0.6-0.3-0.9-0.5c0-0.2,0-0.3,0-0.5c-0.1,0.1-0.3,0.2-0.4,0.2c0,0,0,0-0.1,0c0.1-0.1,0.2-0.1,0.3-0.2
			c-0.3-0.2-0.6-0.3-0.9-0.5c0-0.2,0-0.3,0-0.5c-0.1,0.1-0.3,0.2-0.4,0.2c0,0,0,0-0.1,0c0.1-0.1,0.2-0.1,0.3-0.2
			c-0.3-0.2-0.6-0.3-0.9-0.5c0-0.2,0-0.3,0-0.5c-0.1,0.1-0.3,0.2-0.4,0.2c0,0,0,0-0.1,0c0.1-0.1,0.2-0.1,0.3-0.2
			c-0.3-0.2-0.6-0.3-0.9-0.5c0-0.2,0-0.3,0-0.5c-0.1,0.1-0.3,0.2-0.4,0.2c0,0,0,0-0.1,0c0.1-0.1,0.2-0.1,0.3-0.2
			c-0.3-0.2-0.6-0.3-0.9-0.5c0-0.2,0-0.3,0-0.5c-0.1,0.1-0.3,0.2-0.4,0.2c0,0,0,0-0.1,0c0.1-0.1,0.2-0.1,0.3-0.2
			c-0.3-0.2-0.6-0.3-0.9-0.5c0-0.2,0-0.3,0-0.5c-0.1,0.1-0.3,0.2-0.4,0.2c0,0,0,0-0.1,0c0.1-0.1,0.2-0.1,0.3-0.2
			c-0.3-0.2-0.6-0.3-0.9-0.5c0-0.2,0-0.3,0-0.5c-0.1,0.1-0.3,0.2-0.4,0.2c0,0,0,0-0.1,0c0.1-0.1,0.2-0.1,0.3-0.2
			c-0.3-0.2-0.6-0.3-0.9-0.5c0-0.2,0-0.3,0-0.5c-0.1,0.1-0.3,0.2-0.4,0.2c0,0,0,0-0.1,0c0.1-0.1,0.2-0.1,0.3-0.2
			c-0.3-0.2-0.6-0.3-0.9-0.5c0-0.2,0-0.3,0-0.5c-0.1,0.1-0.3,0.2-0.4,0.2c0,0,0,0-0.1,0c0.1-0.1,0.2-0.1,0.3-0.2
			c-0.3-0.2-0.6-0.3-0.9-0.5c0-0.2,0-0.3,0-0.5c-0.1,0.1-0.3,0.2-0.4,0.2c0,0,0,0-0.1,0c0.1-0.1,0.2-0.1,0.3-0.2
			c-0.3-0.2-0.6-0.3-0.9-0.5c0-0.2,0-0.3,0-0.5c-0.1,0.1-0.3,0.2-0.4,0.2c0,0,0,0-0.1,0c0.1-0.1,0.2-0.1,0.3-0.2
			c-0.3-0.2-0.6-0.3-0.9-0.5c0-0.2,0-0.3,0-0.5c-0.1,0.1-0.3,0.2-0.4,0.2c0,0,0,0-0.1,0c0.1-0.1,0.2-0.1,0.3-0.2
			c-0.3-0.2-0.6-0.3-0.9-0.5c0-0.2,0-0.3,0-0.5c-0.1,0.1-0.3,0.2-0.4,0.2c0,0,0,0-0.1,0c0.1-0.1,0.2-0.1,0.3-0.2
			c-0.3-0.2-0.6-0.3-0.9-0.5c0-0.2,0-0.3,0-0.5c-0.1,0.1-0.3,0.2-0.4,0.2c0,0,0,0-0.1,0c0.1-0.1,0.2-0.1,0.3-0.2
			c-0.3-0.2-0.6-0.3-0.9-0.5c0-0.2,0-0.3,0-0.5c-0.1,0.1-0.3,0.2-0.4,0.2c0,0,0,0-0.1,0c0.1-0.1,0.2-0.1,0.3-0.2
			c-0.3-0.2-0.6-0.3-0.9-0.5c0-0.2,0-0.3,0-0.5c-0.1,0.1-0.3,0.2-0.4,0.2c0,0,0,0-0.1,0c0.1-0.1,0.2-0.1,0.3-0.2
			c-0.3-0.2-0.6-0.3-0.9-0.5c0-0.2,0-0.3,0-0.5c-0.1,0.1-0.3,0.2-0.4,0.2c0,0,0,0-0.1,0c0.1-0.1,0.2-0.1,0.3-0.2
			c-0.3-0.2-0.6-0.3-0.9-0.5c0-0.2,0-0.3,0-0.5c-0.1,0.1-0.3,0.2-0.4,0.2c0,0,0,0-0.1,0c0.1-0.1,0.2-0.1,0.3-0.2
			c-0.3-0.2-0.6-0.3-0.9-0.5c0-0.2,0-0.3,0-0.5c-0.1,0.1-0.3,0.2-0.4,0.2c0,0,0,0-0.1,0c0.1-0.1,0.2-0.1,0.3-0.2
			c-0.3-0.2-0.6-0.3-0.9-0.5c0-0.2,0-0.3,0-0.5c-0.1,0.1-0.3,0.2-0.4,0.2c0,0,0,0-0.1,0c0.1-0.1,0.2-0.1,0.3-0.2
			c-0.3-0.2-0.6-0.3-0.9-0.5c0-0.2,0-0.3,0-0.5c-0.1,0.1-0.3,0.2-0.4,0.2c0,0,0,0-0.1,0c0.1-0.1,0.2-0.1,0.3-0.2
			c-0.3-0.2-0.6-0.3-0.9-0.5c0-0.2,0-0.3,0-0.5c-0.1,0.1-0.3,0.2-0.4,0.2c0,0,0,0-0.1,0c0.1-0.1,0.2-0.1,0.3-0.2
			c-0.3-0.2-0.6-0.3-0.9-0.5c0-0.2,0-0.3,0-0.5c-0.1,0.1-0.3,0.2-0.4,0.2c0,0,0,0-0.1,0c0.1-0.1,0.2-0.1,0.3-0.2
			c-0.3-0.2-0.6-0.3-0.9-0.5c0-0.2,0-0.3,0-0.5c-0.1,0.1-0.3,0.2-0.4,0.2c0,0,0,0-0.1,0c0.1-0.1,0.2-0.1,0.3-0.2
			c-0.3-0.2-0.6-0.3-0.9-0.5c0-0.2,0-0.3,0-0.5c-0.1,0.1-0.3,0.2-0.4,0.2c0,0,0,0-0.1,0c0.1-0.1,0.2-0.1,0.3-0.2
			c-0.3-0.2-0.6-0.3-0.9-0.5c0-0.2,0-0.3,0-0.5c-0.1,0.1-0.3,0.2-0.4,0.2c0,0,0,0-0.1,0c0.1-0.1,0.2-0.1,0.3-0.2
			c-0.3-0.2-0.6-0.3-0.9-0.5c0-0.2,0-0.3,0-0.5c-0.1,0.1-0.3,0.2-0.4,0.2c0,0,0,0-0.1,0c0.1-0.1,0.2-0.1,0.3-0.2
			c-0.3-0.2-0.6-0.3-0.9-0.5c0-0.2,0-0.3,0-0.5c-0.1,0.1-0.3,0.2-0.4,0.2c0,0,0,0-0.1,0c0.1-0.1,0.2-0.1,0.3-0.2
			c-0.3-0.2-0.6-0.3-0.9-0.5c0-0.2,0-0.3,0-0.5c-0.1,0.1-0.3,0.2-0.4,0.2c0,0,0,0-0.1,0c0.1-0.1,0.2-0.1,0.3-0.2
			c-0.3-0.2-0.6-0.3-0.9-0.5c0-0.2,0-0.3,0-0.5c-0.1,0.1-0.3,0.2-0.4,0.2c0,0,0,0-0.1,0c0.1-0.1,0.2-0.1,0.3-0.2
			c-0.3-0.2-0.6-0.3-0.9-0.5c0-0.2,0-0.3,0-0.5c-0.1,0.1-0.3,0.2-0.4,0.2c0,0,0,0-0.1,0c0.1-0.1,0.2-0.1,0.3-0.2
			c-0.3-0.2-0.6-0.3-0.9-0.5c0-0.2,0-0.3,0-0.5c-0.1,0.1-0.3,0.2-0.4,0.2c0,0,0,0-0.1,0c0.1-0.1,0.2-0.1,0.3-0.2
			c-0.3-0.2-0.6-0.3-0.9-0.5c0-0.2,0-0.3,0-0.5c-0.1,0.1-0.3,0.2-0.4,0.2c0,0,0,0-0.1,0c0.1-0.1,0.2-0.1,0.3-0.2
			c-0.3-0.2-0.6-0.3-0.9-0.5c0-0.2,0-0.3,0-0.5c-0.1,0.1-0.3,0.2-0.4,0.2c0,0,0,0-0.1,0c0.1-0.1,0.2-0.1,0.3-0.2
			c-0.3-0.2-0.6-0.3-0.9-0.5c0-0.2,0-0.3,0-0.5c-0.1,0.1-0.3,0.2-0.4,0.2c0,0,0,0-0.1,0c0.1-0.1,0.2-0.1,0.3-0.2
			c-0.3-0.2-0.6-0.3-0.9-0.5c0-0.2,0-0.3,0-0.5c-0.1,0.1-0.3,0.2-0.4,0.2c0,0,0,0-0.1,0c0.1-0.1,0.2-0.1,0.3-0.2
			c-0.3-0.2-0.6-0.3-0.9-0.5c0-0.2,0-0.3,0-0.5c-0.1,0.1-0.3,0.2-0.4,0.2c0,0,0,0-0.1,0c0.1-0.1,0.2-0.1,0.3-0.2
			c-0.3-0.2-0.6-0.3-0.9-0.5c0-0.2,0-0.3,0-0.5c-0.1,0.1-0.3,0.2-0.4,0.2c0,0,0,0-0.1,0c0.1-0.1,0.2-0.1,0.3-0.2
			c-0.3-0.2-0.6-0.3-0.9-0.5c0-0.2,0-0.3,0-0.5c-0.1,0.1-0.3,0.2-0.4,0.2c0,0,0,0-0.1,0c0.1-0.1,0.2-0.1,0.3-0.2
			c-0.3-0.2-0.6-0.3-0.9-0.5c0-0.2,0-0.3,0-0.5c-0.1,0.1-0.3,0.2-0.4,0.2c0,0,0,0-0.1,0c0.1-0.1,0.2-0.1,0.3-0.2
			c-0.3-0.2-0.6-0.3-0.9-0.5c0-0.2,0-0.3,0-0.5c-0.1,0.1-0.3,0.2-0.4,0.2c0,0,0,0-0.1,0c0.1-0.1,0.2-0.1,0.3-0.2
			c-0.3-0.2-0.6-0.3-0.9-0.5c0-0.2,0-0.3,0-0.5c-0.1,0.1-0.3,0.2-0.4,0.2c0,0,0,0-0.1,0c0.1-0.1,0.2-0.1,0.3-0.2
			c-0.3-0.2-0.6-0.3-0.9-0.5c0-0.2,0-0.3,0-0.5c-0.1,0.1-0.3,0.2-0.4,0.2c0,0,0,0-0.1,0c0.1-0.1,0.2-0.1,0.3-0.2
			c-0.3-0.2-0.6-0.3-0.9-0.5c0-0.2,0-0.3,0-0.5c-0.1,0.1-0.3,0.2-0.4,0.2c0,0,0,0-0.1,0c0.1-0.1,0.2-0.1,0.3-0.2
			c-0.3-0.2-0.6-0.3-0.9-0.5c0-0.2,0-0.3,0-0.5c-0.1,0.1-0.3,0.2-0.4,0.2c0,0,0,0-0.1,0c0.1-0.1,0.2-0.1,0.3-0.2
			c-0.3-0.2-0.6-0.3-0.9-0.5c0-0.2,0-0.3,0-0.5c-0.1,0.1-0.3,0.2-0.4,0.2c0,0,0,0-0.1,0c0.1-0.1,0.2-0.1,0.3-0.2
			c-0.3-0.2-0.6-0.3-0.9-0.5c0-0.2,0-0.3,0-0.5c-0.1,0.1-0.3,0.2-0.4,0.2c0,0,0,0-0.1,0c0.1-0.1,0.2-0.1,0.3-0.2
			c-0.3-0.2-0.6-0.3-0.9-0.5c0-0.2,0-0.3,0-0.5c-0.1,0.1-0.3,0.2-0.4,0.2c0,0,0,0-0.1,0c0.1-0.1,0.2-0.1,0.3-0.2
			c-0.3-0.2-0.6-0.3-0.9-0.5c0-0.2,0-0.3,0-0.5c-0.1,0.1-0.3,0.2-0.4,0.2c0,0,0,0-0.1,0c0.1-0.1,0.2-0.1,0.3-0.2
			c-0.3-0.2-0.6-0.3-0.9-0.5c0-0.2,0-0.3,0-0.5c-0.1,0.1-0.3,0.2-0.4,0.2c0,0,0,0-0.1,0c0.1-0.1,0.2-0.1,0.3-0.2
			c-0.3-0.2-0.6-0.3-0.9-0.5c0-0.2,0-0.3,0-0.5c-0.1,0.1-0.3,0.2-0.4,0.2c0,0,0,0-0.1,0c0.1-0.1,0.2-0.1,0.3-0.2
			c-0.3-0.2-0.6-0.3-0.9-0.5c0-0.2,0-0.3,0-0.5c-0.1,0.1-0.3,0.2-0.4,0.2c0,0,0,0-0.1,0c0.1-0.1,0.2-0.1,0.3-0.2
			c-0.3-0.2-0.6-0.3-0.9-0.5c0-0.2,0-0.3,0-0.5c-0.1,0.1-0.3,0.2-0.4,0.2c0,0,0,0-0.1,0c0.1-0.1,0.2-0.1,0.3-0.2
			c-0.3-0.2-0.6-0.3-0.9-0.5c0-0.2,0-0.3,0-0.5c-0.1,0.1-0.3,0.2-0.4,0.2c0,0,0,0-0.1,0c0.1-0.1,0.2-0.1,0.3-0.2
			c-0.3-0.2-0.6-0.3-0.9-0.5c0-0.2,0-0.3,0-0.5c-0.1,0.1-0.3,0.2-0.4,0.2c0,0,0,0-0.1,0c0.1-0.1,0.2-0.1,0.3-0.2
			c-0.3-0.2-0.6-0.3-0.9-0.5c0-0.2,0-0.3,0-0.5c-0.1,0.1-0.3,0.2-0.4,0.2c0,0,0,0-0.1,0c0.1-0.1,0.2-0.1,0.3-0.2
			c-0.3-0.2-0.6-0.3-0.9-0.5c0-0.2,0-0.3,0-0.5c-0.1,0.1-0.3,0.2-0.4,0.2c0,0,0,0-0.1,0c0.1-0.1,0.2-0.1,0.3-0.2
			c-0.3-0.2-0.6-0.3-0.9-0.5c0-0.2,0-0.3,0-0.5c-0.1,0.1-0.3,0.2-0.4,0.2c0,0,0,0-0.1,0c0.1-0.1,0.2-0.1,0.3-0.2
			c-0.3-0.2-0.6-0.3-0.9-0.5c0-0.2,0-0.3,0-0.5c-0.1,0.1-0.3,0.2-0.4,0.2c0,0,0,0-0.1,0c0.1-0.1,0.2-0.1,0.3-0.2
			c-0.3-0.2-0.6-0.3-0.9-0.5c0-0.2,0-0.3,0-0.5c-0.1,0.1-0.3,0.2-0.4,0.2c0,0,0,0-0.1,0c0.1-0.1,0.2-0.1,0.3-0.2
			c-0.3-0.2-0.6-0.3-0.9-0.5c0-0.2,0-0.3,0-0.5c-0.1,0.1-0.3,0.2-0.4,0.2c0,0,0,0-0.1,0c0.1-0.1,0.2-0.1,0.3-0.2
			c-0.3-0.2-0.6-0.3-0.9-0.5c0-0.2,0-0.3,0-0.5c-0.1,0.1-0.3,0.2-0.4,0.2c0,0,0,0-0.1,0c0.1-0.1,0.2-0.1,0.3-0.2
			c-0.3-0.2-0.6-0.3-0.9-0.5c0-0.2,0-0.3,0-0.5c-0.1,0.1-0.3,0.2-0.4,0.2c0,0,0,0-0.1,0c0.1-0.1,0.2-0.1,0.3-0.2
			c-0.3-0.2-0.6-0.3-0.9-0.5c0-0.2,0-0.3,0-0.5c-0.1,0.1-0.3,0.2-0.4,0.2c0,0,0,0-0.1,0c0.1-0.1,0.2-0.1,0.3-0.2
			c-0.3-0.2-0.6-0.3-0.9-0.5c0-0.2,0-0.3,0-0.5c-0.1,0.1-0.3,0.2-0.4,0.2c0,0,0,0-0.1,0c0.1-0.1,0.2-0.1,0.3-0.2
			c-0.3-0.2-0.6-0.3-0.9-0.5c0-0.2,0-0.3,0-0.5c-0.1,0.1-0.3,0.2-0.4,0.2c0,0,0,0-0.1,0c0.1-0.1,0.2-0.1,0.3-0.2
			c-0.3-0.2-0.6-0.3-0.9-0.5c0-0.2,0-0.3,0-0.5c-0.1,0.1-0.3,0.2-0.4,0.2c0,0,0,0-0.1,0c0.1-0.1,0.2-0.1,0.3-0.2
			c-0.3-0.2-0.6-0.3-0.9-0.5c0-0.2,0-0.3,0-0.5c-0.1,0.1-0.3,0.2-0.4,0.2c0,0,0,0-0.1,0c0.1-0.1,0.2-0.1,0.3-0.2
			c-0.3-0.2-0.6-0.3-0.9-0.5c0-0.2,0-0.3,0-0.5c-0.1,0.1-0.3,0.2-0.4,0.2c0,0,0,0-0.1,0c0.1-0.1,0.2-0.1,0.3-0.2
			c-0.3-0.2-0.6-0.3-0.9-0.5c0-0.2,0-0.3,0-0.5c-0.1,0.1-0.3,0.2-0.4,0.2c0,0,0,0-0.1,0c0.1-0.1,0.2-0.1,0.3-0.2
			c-0.3-0.2-0.6-0.3-0.9-0.5c0-0.2,0-0.3,0-0.5c-0.1,0.1-0.3,0.2-0.4,0.2c0,0,0,0-0.1,0c0.1-0.1,0.2-0.1,0.3-0.2
			c-0.3-0.2-0.6-0.3-0.9-0.5c0-0.2,0-0.3,0-0.5c-0.1,0.1-0.3,0.2-0.4,0.2c0,0,0,0-0.1,0c0.1-0.1,0.2-0.1,0.3-0.2
			c-0.3-0.2-0.6-0.3-0.9-0.5c0-0.2,0-0.3,0-0.5c-0.1,0.1-0.3,0.2-0.4,0.2c0,0,0,0-0.1,0c0.1-0.1,0.2-0.1,0.3-0.2
			c-0.3-0.2-0.6-0.3-0.9-0.5c0-0.2,0-0.3,0-0.5c-0.1,0.1-0.3,0.2-0.4,0.2c0,0,0,0-0.1,0c0.1-0.1,0.2-0.1,0.3-0.2
			c-0.3-0.2-0.6-0.3-0.9-0.5c0-0.2,0-0.3,0-0.5c-0.1,0.1-0.3,0.2-0.4,0.2c0,0,0,0-0.1,0c0.1-0.1,0.2-0.1,0.3-0.2
			c-0.3-0.2-0.6-0.3-0.9-0.5c0-0.2,0-0.3,0-0.5c-0.1,0.1-0.3,0.2-0.4,0.2c0,0,0,0-0.1,0c0.1-0.1,0.2-0.1,0.3-0.2
			c-0.3-0.2-0.6-0.3-0.9-0.5c0-0.2,0-0.3,0-0.5c-0.1,0.1-0.3,0.2-0.4,0.2c0,0,0,0-0.1,0c0.1-0.1,0.2-0.1,0.3-0.2
			c-0.3-0.2-0.6-0.3-0.9-0.5c0-0.2,0-0.3,0-0.5c-0.1,0.1-0.3,0.2-0.4,0.2c0,0,0,0-0.1,0c0.1-0.1,0.2-0.1,0.3-0.2
			c-0.3-0.2-0.6-0.3-0.9-0.5c0-0.2,0-0.3,0-0.5c-0.1,0.1-0.3,0.2-0.4,0.2c0,0,0,0-0.1,0c0.1-0.1,0.2-0.1,0.3-0.2
			c-0.3-0.2-0.6-0.3-0.9-0.5c0-0.2,0-0.3,0-0.5c-0.1,0.1-0.3,0.2-0.4,0.2c0,0,0,0-0.1,0c0.1-0.1,0.2-0.1,0.3-0.2
			c-0.3-0.2-0.6-0.3-0.9-0.5c0-0.2,0-0.3,0-0.5c-0.1,0.1-0.3,0.2-0.4,0.2c0,0,0,0-0.1,0c0.1-0.1,0.2-0.1,0.3-0.2
			c-0.3-0.2-0.6-0.3-0.9-0.5c0-0.2,0-0.3,0-0.5c-0.1,0.1-0.3,0.2-0.4,0.2c0,0,0,0-0.1,0c0.1-0.1,0.2-0.1,0.3-0.2
			c-0.3-0.2-0.6-0.3-0.9-0.5c0-0.2,0-0.3,0-0.5c-0.1,0.1-0.3,0.2-0.4,0.2c0,0,0,0-0.1,0c0.1-0.1,0.2-0.1,0.3-0.2
			c-0.3-0.2-0.6-0.3-0.9-0.5c0-0.2,0-0.3,0-0.5c-0.1,0.1-0.3,0.2-0.4,0.2c0,0,0,0-0.1,0c0.1-0.1,0.2-0.1,0.3-0.2
			c-0.3-0.2-0.6-0.3-0.9-0.5c0-0.2,0-0.3,0-0.5c-0.1,0.1-0.3,0.2-0.4,0.2c0,0,0,0-0.1,0c0.1-0.1,0.2-0.1,0.3-0.2
			c-0.3-0.2-0.6-0.3-0.9-0.5c0-0.2,0-0.3,0-0.5c-0.1,0.1-0.3,0.2-0.4,0.2c0,0,0,0-0.1,0c0.1-0.1,0.2-0.1,0.3-0.2
			c-0.3-0.2-0.6-0.3-0.9-0.5c0-0.2,0-0.3,0-0.5c-0.1,0.1-0.3,0.2-0.4,0.2c0,0,0,0-0.1,0c0.1-0.1,0.2-0.1,0.3-0.2
			c-0.3-0.2-0.6-0.3-0.9-0.5c0-0.2,0-0.3,0-0.5c-0.1,0.1-0.3,0.2-0.4,0.2c0,0,0,0-0.1,0c0.1-0.1,0.2-0.1,0.3-0.2
			c-0.3-0.2-0.6-0.3-0.9-0.5c0-0.2,0-0.3,0-0.5c-0.1,0.1-0.3,0.2-0.4,0.2c0,0,0,0-0.1,0c0.1-0.1,0.2-0.1,0.3-0.2
			c-0.3-0.2-0.6-0.3-0.9-0.5c0-0.2,0-0.3,0-0.5c-0.1,0.1-0.3,0.2-0.4,0.2c0,0,0,0-0.1,0c0.1-0.1,0.2-0.1,0.3-0.2
			c-0.3-0.2-0.6-0.3-0.9-0.5c0-0.2,0-0.3,0-0.5c-0.1,0.1-0.3,0.2-0.4,0.2c0,0,0,0-0.1,0c0.1-0.1,0.2-0.1,0.3-0.2
			c-0.3-0.2-0.6-0.3-0.9-0.5c0-0.2,0-0.3,0-0.5c-0.1,0.1-0.3,0.2-0.4,0.2c0,0,0,0-0.1,0c0.1-0.1,0.2-0.1,0.3-0.2
			c-0.3-0.2-0.6-0.3-0.9-0.5c0-0.2,0-0.3,0-0.5c-0.1,0.1-0.3,0.2-0.4,0.2c0,0,0,0-0.1,0c0.1-0.1,0.2-0.1,0.3-0.2
			c-0.3-0.2-0.6-0.3-0.9-0.5c0-0.2,0-0.3,0-0.5c-0.1,0.1-0.3,0.2-0.4,0.2c0,0,0,0-0.1,0c0.1-0.1,0.2-0.1,0.3-0.2
			c-0.3-0.2-0.6-0.3-0.9-0.5c0-0.2,0-0.3,0-0.5c-0.1,0.1-0.3,0.2-0.4,0.2c0,0,0,0-0.1,0c0.1-0.1,0.2-0.1,0.3-0.2
			c-0.3-0.2-0.6-0.3-0.9-0.5c0-0.2,0-0.3,0-0.5c-0.1,0.1-0.3,0.2-0.4,0.2c0,0,0,0-0.1,0c0.1-0.1,0.2-0.1,0.3-0.2
			c-0.3-0.2-0.6-0.3-0.9-0.5c0-0.2,0-0.3,0-0.5c-0.1,0.1-0.3,0.2-0.4,0.2c0,0,0,0-0.1,0c0.1-0.1,0.2-0.1,0.3-0.2
			c-0.3-0.2-0.6-0.3-0.9-0.5c0-0.2,0-0.3,0-0.5c-0.1,0.1-0.3,0.2-0.4,0.2c0,0,0,0-0.1,0c0.1-0.1,0.2-0.1,0.3-0.2
			c-0.3-0.2-0.6-0.3-0.9-0.5c0-0.2,0-0.3,0-0.5c-0.1,0.1-0.3,0.2-0.4,0.2c0,0,0,0-0.1,0c0.1-0.1,0.2-0.1,0.3-0.2
			c-0.3-0.2-0.6-0.3-0.9-0.5c0-0.2,0-0.3,0-0.5c-0.1,0.1-0.3,0.2-0.4,0.2c0,0,0,0-0.1,0c0.1-0.1,0.2-0.1,0.3-0.2
			c-0.3-0.2-0.6-0.3-0.9-0.5c0-0.2,0-0.3,0-0.5c-0.1,0.1-0.3,0.2-0.4,0.2c0,0,0,0-0.1,0c0.1-0.1,0.2-0.1,0.3-0.2
			c-0.3-0.2-0.6-0.3-0.9-0.5c0-0.2,0-0.3,0-0.5c-0.1,0.1-0.3,0.2-0.4,0.2c0,0,0,0-0.1,0c0.1-0.1,0.2-0.1,0.3-0.2
			c-0.3-0.2-0.6-0.3-0.9-0.5c0-0.2,0-0.3,0-0.5c-0.1,0.1-0.3,0.2-0.4,0.2c0,0,0,0-0.1,0c0.1-0.1,0.2-0.1,0.3-0.2
			c-0.3-0.2-0.6-0.3-0.9-0.5c0-0.2,0-0.3,0-0.5c-0.1,0.1-0.3,0.2-0.4,0.2c0,0,0,0-0.1,0c0.1-0.1,0.2-0.1,0.3-0.2
			c-0.3-0.2-0.6-0.3-0.9-0.5c0-0.2,0-0.3,0-0.5c-0.1,0.1-0.3,0.2-0.4,0.2c0,0,0,0-0.1,0c0.1-0.1,0.2-0.1,0.3-0.2
			c-0.3-0.2-0.6-0.3-0.9-0.5c0-0.2,0-0.3,0-0.5c-0.1,0.1-0.3,0.2-0.4,0.2c0,0,0,0-0.1,0c0.1-0.1,0.2-0.1,0.3-0.2
			c-0.3-0.2-0.6-0.3-0.9-0.5c0-0.2,0-0.3,0-0.5c-0.1,0.1-0.3,0.2-0.4,0.2c0,0,0,0-0.1,0c0.1-0.1,0.2-0.1,0.3-0.2
			c-0.3-0.2-0.6-0.3-0.9-0.5c0-0.2,0-0.3,0-0.5c-0.1,0.1-0.3,0.2-0.4,0.2c0,0,0,0-0.1,0c0.1-0.1,0.2-0.1,0.3-0.2
			c-0.3-0.2-0.6-0.3-0.9-0.5c0-0.2,0-0.3,0-0.5c-0.1,0.1-0.3,0.2-0.4,0.2c0,0,0,0-0.1,0c0.1-0.1,0.2-0.1,0.3-0.2
			c-0.3-0.2-0.6-0.3-0.9-0.5c0-0.2,0-0.3,0-0.5c-0.1,0.1-0.3,0.2-0.4,0.2c0,0,0,0-0.1,0c0.1-0.1,0.2-0.1,0.3-0.2
			c-0.3-0.2-0.6-0.3-0.9-0.5c0-0.2,0-0.3,0-0.5c-0.1,0.1-0.3,0.2-0.4,0.2c0,0,0,0-0.1,0c0.1-0.1,0.2-0.1,0.3-0.2
			c-0.3-0.2-0.6-0.3-0.9-0.5c0-0.2,0-0.3,0-0.5c-0.1,0.1-0.3,0.2-0.4,0.2c0,0,0,0-0.1,0c0.1-0.1,0.2-0.1,0.3-0.2
			c-0.3-0.2-0.6-0.3-0.9-0.5c0-0.2,0-0.3,0-0.5c-0.1,0.1-0.3,0.2-0.4,0.2c0,0,0,0-0.1,0c0.1-0.1,0.2-0.1,0.3-0.2
			c-0.3-0.2-0.6-0.3-0.9-0.5c0-0.2,0-0.3,0-0.5c-0.1,0.1-0.3,0.2-0.4,0.2c0,0,0,0-0.1,0c0.1-0.1,0.2-0.1,0.3-0.2
			c-0.3-0.2-0.6-0.3-0.9-0.5c0-0.2,0-0.3,0-0.5c-0.1,0.1-0.3,0.2-0.4,0.2c0,0,0,0-0.1,0c0.1-0.1,0.2-0.1,0.3-0.2
			c-0.3-0.2-0.6-0.3-0.9-0.5c0-0.2,0-0.3,0-0.5c-0.1,0.1-0.3,0.2-0.4,0.2c0,0,0,0-0.1,0c0.1-0.1,0.2-0.1,0.3-0.2
			c-0.3-0.2-0.6-0.3-0.9-0.5c0-0.2,0-0.3,0-0.5c-0.1,0.1-0.3,0.2-0.4,0.2c0,0,0,0-0.1,0c0.1-0.1,0.2-0.1,0.3-0.2
			c-0.3-0.2-0.6-0.3-0.9-0.5c0-0.2,0-0.3,0-0.5c-0.1,0.1-0.3,0.2-0.4,0.2c0,0,0,0-0.1,0c0.1-0.1,0.2-0.1,0.3-0.2
			c-0.3-0.2-0.6-0.3-0.9-0.5c0-0.2,0-0.3,0-0.5c-0.1,0.1-0.3,0.2-0.4,0.2c0,0,0,0-0.1,0c0.1-0.1,0.2-0.1,0.3-0.2
			c-0.3-0.2-0.6-0.3-0.9-0.5c0-0.2,0-0.3,0-0.5c-0.1,0.1-0.3,0.2-0.4,0.2c0,0,0,0-0.1,0c0.1-0.1,0.2-0.1,0.3-0.2
			c-0.3-0.2-0.6-0.3-0.9-0.5c0-0.2,0-0.3,0-0.5c-0.1,0.1-0.3,0.2-0.4,0.2c0,0,0,0-0.1,0c0.1-0.1,0.2-0.1,0.3-0.2
			c-0.3-0.2-0.6-0.3-0.9-0.5c0-0.2,0-0.3,0-0.5c-0.1,0.1-0.3,0.2-0.4,0.2c0,0,0,0-0.1,0c0.1-0.1,0.2-0.1,0.3-0.2
			c-0.3-0.2-0.6-0.3-0.9-0.5c0-0.2,0-0.3,0-0.5c-0.1,0.1-0.3,0.2-0.4,0.2c0,0,0,0-0.1,0c0.1-0.1,0.2-0.1,0.3-0.2
			c-0.3-0.2-0.6-0.3-0.9-0.5c0-0.2,0-0.3,0-0.5c-0.1,0.1-0.3,0.2-0.4,0.2c0,0,0,0-0.1,0c0.1-0.1,0.2-0.1,0.3-0.2
			c-0.3-0.2-0.6-0.3-0.9-0.5c0-0.2,0-0.3,0-0.5c-0.1,0.1-0.3,0.2-0.4,0.2c0,0,0,0-0.1,0c0.1-0.1,0.2-0.1,0.3-0.2
			c-0.3-0.2-0.6-0.3-0.9-0.5c0-0.2,0-0.3,0-0.5c-0.1,0.1-0.3,0.2-0.4,0.2c0,0,0,0-0.1,0c0.1-0.1,0.2-0.1,0.3-0.2
			c-0.3-0.2-0.6-0.3-0.9-0.5c0-0.2,0-0.3,0-0.5c-0.1,0.1-0.3,0.2-0.4,0.2c0,0,0,0-0.1,0c0.1-0.1,0.2-0.1,0.3-0.2
			c-0.3-0.2-0.6-0.3-0.9-0.5c0-0.2,0-0.3,0-0.5c-0.1,0.1-0.3,0.2-0.4,0.2c0,0,0,0-0.1,0c0.1-0.1,0.2-0.1,0.3-0.2
			c-0.3-0.2-0.6-0.3-0.9-0.5c0-0.2,0-0.3,0-0.5c-0.1,0.1-0.3,0.2-0.4,0.2c0,0,0,0-0.1,0c0.1-0.1,0.2-0.1,0.3-0.2
			c-0.3-0.2-0.6-0.3-0.9-0.5c0-0.2,0-0.3,0-0.5c-0.1,0.1-0.3,0.2-0.4,0.2c0,0,0,0-0.1,0c0.1-0.1,0.2-0.1,0.3-0.2
			c-0.3-0.2-0.6-0.3-0.9-0.5c0-0.2,0-0.3,0-0.5c-0.1,0.1-0.3,0.2-0.4,0.2c0,0,0,0-0.1,0c0.1-0.1,0.2-0.1,0.3-0.2
			c-0.3-0.2-0.6-0.3-0.9-0.5c0-0.2,0-0.3,0-0.5c-0.1,0.1-0.3,0.2-0.4,0.2c0,0,0,0-0.1,0c0.1-0.1,0.2-0.1,0.3-0.2
			c-0.3-0.2-0.6-0.3-0.9-0.5c0-0.2,0-0.3,0-0.5c-0.1,0.1-0.3,0.2-0.4,0.2c0,0,0,0-0.1,0c0.1-0.1,0.2-0.1,0.3-0.2
			c-0.3-0.2-0.6-0.3-0.9-0.5c0-0.2,0-0.3,0-0.5c-0.1,0.1-0.3,0.2-0.4,0.2c0,0,0,0-0.1,0c0.1-0.1,0.2-0.1,0.3-0.2
			c-0.3-0.2-0.6-0.3-0.9-0.5c0-0.2,0-0.3,0-0.5c-0.1,0.1-0.3,0.2-0.4,0.2c0,0,0,0-0.1,0c0.1-0.1,0.2-0.1,0.3-0.2
			c-0.3-0.2-0.6-0.3-0.9-0.5c0-0.2,0-0.3,0-0.5c-0.1,0.1-0.3,0.2-0.4,0.2c0,0,0,0-0.1,0c0.1-0.1,0.2-0.1,0.3-0.2
			c-0.3-0.2-0.6-0.3-0.9-0.5c0-0.2,0-0.3,0-0.5c-0.1,0.1-0.3,0.2-0.4,0.2c0,0,0,0-0.1,0c0.1-0.1,0.2-0.1,0.3-0.2
			c-0.3-0.2-0.6-0.3-0.9-0.5c0-0.2,0-0.3,0-0.5c-0.1,0.1-0.3,0.2-0.4,0.2c0,0,0,0-0.1,0c0.1-0.1,0.2-0.1,0.3-0.2
			c-0.3-0.2-0.6-0.3-0.9-0.5c0-0.2,0-0.3,0-0.5c-0.1,0.1-0.3,0.2-0.4,0.2c0,0,0,0-0.1,0c0.1-0.1,0.2-0.1,0.3-0.2
			c-0.3-0.2-0.6-0.3-0.9-0.5c0-0.2,0-0.3,0-0.5c-0.1,0.1-0.3,0.2-0.4,0.2c0,0,0,0-0.1,0c0.1-0.1,0.2-0.1,0.3-0.2
			c-0.3-0.2-0.6-0.3-0.9-0.5c0-0.2,0-0.3,0-0.5c-0.1,0.1-0.3,0.2-0.4,0.2c0,0,0,0-0.1,0c0.1-0.1,0.2-0.1,0.3-0.2
			c-0.3-0.2-0.6-0.3-0.9-0.5c0-0.2,0-0.3,0-0.5c-0.1,0.1-0.3,0.2-0.4,0.2c0,0,0,0-0.1,0c0.1-0.1,0.2-0.1,0.3-0.2
			c-0.3-0.2-0.6-0.3-0.9-0.5c0-0.2,0-0.3,0-0.5c-0.1,0.1-0.3,0.2-0.4,0.2c0,0,0,0-0.1,0c0.1-0.1,0.2-0.1,0.3-0.2
			c-0.3-0.2-0.6-0.3-0.9-0.5c0-0.2,0-0.3,0-0.5c-0.1,0.1-0.3,0.2-0.4,0.2c0,0,0,0-0.1,0c0.1-0.1,0.2-0.1,0.3-0.2
			c-0.3-0.2-0.6-0.3-0.9-0.5c0-0.2,0-0.3,0-0.5c-0.1,0.1-0.3,0.2-0.4,0.2c0,0,0,0-0.1,0c0.1-0.1,0.2-0.1,0.3-0.2
			c-0.3-0.2-0.6-0.3-0.9-0.5c0-0.2,0-0.3,0-0.5c-0.1,0.1-0.3,0.2-0.4,0.2c0,0,0,0-0.1,0c0.1-0.1,0.2-0.1,0.3-0.2
			c-0.3-0.2-0.6-0.3-0.9-0.5c0-0.2,0-0.3,0-0.5c-0.1,0.1-0.3,0.2-0.4,0.2c0,0,0,0-0.1,0c0.1-0.1,0.2-0.1,0.3-0.2
			c-0.3-0.2-0.6-0.3-0.9-0.5c0-0.2,0-0.3,0-0.5c-0.1,0.1-0.3,0.2-0.4,0.2c0,0,0,0-0.1,0c0.1-0.1,0.2-0.1,0.3-0.2
			c-0.3-0.2-0.6-0.3-0.9-0.5c0-0.2,0-0.3,0-0.5c-0.1,0.1-0.3,0.2-0.4,0.2c0,0,0,0-0.1,0c0.1-0.1,0.2-0.1,0.3-0.2
			c-0.3-0.2-0.6-0.3-0.9-0.5c0-0.2,0-0.3,0-0.5c-0.1,0.1-0.3,0.2-0.4,0.2c0,0,0,0-0.1,0c0.1-0.1,0.2-0.1,0.3-0.2
			c-0.3-0.2-0.6-0.3-0.9-0.5c0-0.2,0-0.3,0-0.5c-0.1,0.1-0.3,0.2-0.4,0.2c0,0,0,0-0.1,0c0.1-0.1,0.2-0.1,0.3-0.2
			c-0.3-0.2-0.6-0.3-0.9-0.5c0-0.2,0-0.3,0-0.5c-0.1,0.1-0.3,0.2-0.4,0.2c0,0,0,0-0.1,0c0.1-0.1,0.2-0.1,0.3-0.2
			c-0.3-0.2-0.6-0.3-0.9-0.5c0-0.2,0-0.3,0-0.5c-0.1,0.1-0.3,0.2-0.4,0.2c0,0,0,0-0.1,0c0.1-0.1,0.2-0.1,0.3-0.2
			c-0.3-0.2-0.6-0.3-0.9-0.5c0-0.2,0-0.3,0-0.5c-0.1,0.1-0.3,0.2-0.4,0.2c0,0,0,0-0.1,0c0.1-0.1,0.2-0.1,0.3-0.2
			c-0.3-0.2-0.6-0.3-0.9-0.5c0-0.2,0-0.3,0-0.5c-0.1,0.1-0.3,0.2-0.4,0.2c0,0,0,0-0.1,0c0.1-0.1,0.2-0.1,0.3-0.2
			c-0.3-0.2-0.6-0.3-0.9-0.5c0-0.2,0-0.3,0-0.5c-0.1,0.1-0.3,0.2-0.4,0.2c0,0,0,0-0.1,0c0.1-0.1,0.2-0.1,0.3-0.2
			c-0.3-0.2-0.6-0.3-0.9-0.5c0-0.2,0-0.3,0-0.5c-0.1,0.1-0.3,0.2-0.4,0.2c0,0,0,0-0.1,0c0.1-0.1,0.2-0.1,0.3-0.2
			c-0.3-0.2-0.6-0.3-0.9-0.5c0-0.2,0-0.3,0-0.5c-0.1,0.1-0.3,0.2-0.4,0.2c0,0,0,0-0.1,0c0.1-0.1,0.2-0.1,0.3-0.2
			c-0.3-0.2-0.6-0.3-0.9-0.5c0-0.2,0-0.3,0-0.5c-0.1,0.1-0.3,0.2-0.4,0.2c0,0,0,0-0.1,0c0.1-0.1,0.2-0.1,0.3-0.2
			c-0.3-0.2-0.6-0.3-0.9-0.5c0-0.2,0-0.3,0-0.5c-0.1,0.1-0.3,0.2-0.4,0.2c0,0,0,0-0.1,0c0.1-0.1,0.2-0.1,0.3-0.2
			c-0.3-0.2-0.6-0.3-0.9-0.5c0-0.2,0-0.3,0-0.5c-0.1,0.1-0.3,0.2-0.4,0.2c0,0,0,0-0.1,0c0.1-0.1,0.2-0.1,0.3-0.2
			c-0.3-0.2-0.6-0.3-0.9-0.5c0-0.2,0-0.3,0-0.5c-0.1,0.1-0.3,0.2-0.4,0.2c0,0,0,0-0.1,0c0.1-0.1,0.2-0.1,0.3-0.2
			c-0.3-0.2-0.6-0.3-0.9-0.5c0-0.2,0-0.3,0-0.5c-0.1,0.1-0.3,0.2-0.4,0.2c0,0,0,0-0.1,0c0.1-0.1,0.2-0.1,0.3-0.2
			c-0.3-0.2-0.6-0.3-0.9-0.5c0-0.2,0-0.3,0-0.5c-0.1,0.1-0.3,0.2-0.4,0.2c0,0,0,0-0.1,0c0.1-0.1,0.2-0.1,0.3-0.2
			c-0.3-0.2-0.6-0.3-0.9-0.5c0-0.2,0-0.3,0-0.5c-0.1,0.1-0.3,0.2-0.4,0.2c0,0,0,0-0.1,0c0.1-0.1,0.2-0.1,0.3-0.2
			c-0.3-0.2-0.6-0.3-0.9-0.5c0-0.2,0-0.3,0-0.5c-0.1,0.1-0.3,0.2-0.4,0.2c0,0,0,0-0.1,0c0.1-0.1,0.2-0.1,0.3-0.2
			c-0.3-0.2-0.6-0.3-0.9-0.5c0-0.2,0-0.3,0-0.5c-0.1,0.1-0.3,0.2-0.4,0.2c0,0,0,0-0.1,0c0.1-0.1,0.2-0.1,0.3-0.2
			c-0.3-0.2-0.6-0.3-0.9-0.5c0-0.2,0-0.3,0-0.5c-0.1,0.1-0.3,0.2-0.4,0.2c0,0,0,0-0.1,0c0.1-0.1,0.2-0.1,0.3-0.2
			c-0.3-0.2-0.6-0.3-0.9-0.5c0-0.2,0-0.3,0-0.5c-0.1,0.1-0.3,0.2-0.4,0.2c0,0,0,0-0.1,0c0.1-0.1,0.2-0.1,0.3-0.2
			c-0.3-0.2-0.6-0.3-0.9-0.5c0-0.2,0-0.3,0-0.5c-0.1,0.1-0.3,0.2-0.4,0.2c0,0,0,0-0.1,0c0.1-0.1,0.2-0.1,0.3-0.2
			c-0.3-0.2-0.6-0.3-0.9-0.5c0-0.2,0-0.3,0-0.5c-0.1,0.1-0.3,0.2-0.4,0.2c0,0,0,0-0.1,0c0.1-0.1,0.2-0.1,0.3-0.2
			c-0.3-0.2-0.6-0.3-0.9-0.5c0-0.2,0-0.3,0-0.5c-0.1,0.1-0.3,0.2-0.4,0.2c0,0,0,0-0.1,0c0.1-0.1,0.2-0.1,0.3-0.2
			c-0.3-0.2-0.6-0.3-0.9-0.5c0-0.2,0-0.3,0-0.5c-0.1,0.1-0.3,0.2-0.4,0.2c0,0,0,0-0.1,0c0.1-0.1,0.2-0.1,0.3-0.2
			c-0.3-0.2-0.6-0.3-0.9-0.5c0-0.2,0-0.3,0-0.5c-0.1,0.1-0.3,0.2-0.4,0.2c0,0,0,0-0.1,0c0.1-0.1,0.2-0.1,0.3-0.2
			c-0.3-0.2-0.6-0.3-0.9-0.5c0-0.2,0-0.3,0-0.5c-0.1,0.1-0.3,0.2-0.4,0.2c0,0,0,0-0.1,0c0.1-0.1,0.2-0.1,0.3-0.2
			c-0.3-0.2-0.6-0.3-0.9-0.5c0-0.2,0-0.3,0-0.5c-0.1,0.1-0.3,0.2-0.4,0.2c0,0,0,0-0.1,0c0.1-0.1,0.2-0.1,0.3-0.2
			c-0.3-0.2-0.6-0.3-0.9-0.5c0-0.2,0-0.3,0-0.5c-0.1,0.1-0.3,0.2-0.4,0.2c0,0,0,0-0.1,0c0.1-0.1,0.2-0.1,0.3-0.2
			c-0.3-0.2-0.6-0.3-0.9-0.5c0-0.2,0-0.3,0-0.5c-0.1,0.1-0.3,0.2-0.4,0.2c0,0,0,0-0.1,0c0.1-0.1,0.2-0.1,0.3-0.2
			c-0.3-0.2-0.6-0.3-0.9-0.5c0-0.2,0-0.3,0-0.5c-0.1,0.1-0.3,0.2-0.4,0.2c0,0,0,0-0.1,0c0.1-0.1,0.2-0.1,0.3-0.2
			c-0.3-0.2-0.6-0.3-0.9-0.5c0-0.2,0-0.3,0-0.5c-0.1,0.1-0.3,0.2-0.4,0.2c0,0,0,0-0.1,0c0.1-0.1,0.2-0.1,0.3-0.2
			c-0.3-0.2-0.6-0.3-0.9-0.5c0-0.2,0-0.3,0-0.5c-0.1,0.1-0.3,0.2-0.4,0.2c0,0,0,0-0.1,0c0.1-0.1,0.2-0.1,0.3-0.2
			c-0.3-0.2-0.6-0.3-0.9-0.5c0-0.2,0-0.3,0-0.5c-0.1,0.1-0.3,0.2-0.4,0.2c0,0,0,0-0.1,0c0.1-0.1,0.2-0.1,0.3-0.2
			c-0.3-0.2-0.6-0.3-0.9-0.5c0-0.2,0-0.3,0-0.5c-0.1,0.1-0.3,0.2-0.4,0.2c0,0,0,0-0.1,0c0.1-0.1,0.2-0.1,0.3-0.2
			c-0.3-0.2-0.6-0.3-0.9-0.5c0-0.2,0-0.3,0-0.5c-0.1,0.1-0.3,0.2-0.4,0.2c0,0,0,0-0.1,0c0.1-0.1,0.2-0.1,0.3-0.2
			c-0.3-0.2-0.6-0.3-0.9-0.5c0-0.2,0-0.3,0-0.5c-0.1,0.1-0.3,0.2-0.4,0.2c0,0,0,0-0.1,0c0.1-0.1,0.2-0.1,0.3-0.2
			c-0.3-0.2-0.6-0.3-0.9-0.5c0-0.2,0-0.3,0-0.5c-0.1,0.1-0.3,0.2-0.4,0.2c0,0,0,0-0.1,0c0.1-0.1,0.2-0.1,0.3-0.2
			c-0.3-0.2-0.6-0.3-0.9-0.5c0-0.2,0-0.3,0-0.5c-0.1,0.1-0.3,0.2-0.4,0.2c0,0,0,0-0.1,0c0.1-0.1,0.2-0.1,0.3-0.2
			c-0.3-0.2-0.6-0.3-0.9-0.5c0-0.2,0-0.3,0-0.5c-0.1,0.1-0.3,0.2-0.4,0.2c0,0,0,0-0.1,0c0.1-0.1,0.2-0.1,0.3-0.2
			c-0.3-0.2-0.6-0.3-0.9-0.5c0-0.2,0-0.3,0-0.5c-0.1,0.1-0.3,0.2-0.4,0.2c0,0,0,0-0.1,0c0.1-0.1,0.2-0.1,0.3-0.2
			c-0.3-0.2-0.6-0.3-0.9-0.5c0-0.2,0-0.3,0-0.5c-0.1,0.1-0.3,0.2-0.4,0.2c0,0,0,0-0.1,0c0.1-0.1,0.2-0.1,0.3-0.2
			c-0.3-0.2-0.6-0.3-0.9-0.5c0-0.2,0-0.3,0-0.5c-0.1,0.1-0.3,0.2-0.4,0.2c0,0,0,0-0.1,0c0.1-0.1,0.2-0.1,0.3-0.2
			c-0.3-0.2-0.6-0.3-0.9-0.5c0-0.2,0-0.3,0-0.5c-0.1,0.1-0.3,0.2-0.4,0.2c0,0,0,0-0.1,0c0.1-0.1,0.2-0.1,0.3-0.2
			c-0.3-0.2-0.6-0.3-0.9-0.5c0-0.2,0-0.3,0-0.5c-0.1,0.1-0.3,0.2-0.4,0.2c0,0,0,0-0.1,0c0.1-0.1,0.2-0.1,0.3-0.2
			c-0.3-0.2-0.6-0.3-0.9-0.5c0-0.2,0-0.3,0-0.5c-0.1,0.1-0.3,0.2-0.4,0.2c0,0,0,0-0.1,0c0.1-0.1,0.2-0.1,0.3-0.2
			c-0.3-0.2-0.6-0.3-0.9-0.5c0-0.2,0-0.3,0-0.5c-0.1,0.1-0.3,0.2-0.4,0.2c0,0,0,0-0.1,0c0.1-0.1,0.2-0.1,0.3-0.2
			c-0.3-0.2-0.6-0.3-0.9-0.5c0-0.2,0-0.3,0-0.5c-0.1,0.1-0.3,0.2-0.4,0.2c0,0,0,0-0.1,0c0.1-0.1,0.2-0.1,0.3-0.2
			c-0.3-0.2-0.6-0.3-0.9-0.5c0-0.2,0-0.3,0-0.5c-0.1,0.1-0.3,0.2-0.4,0.2c0,0,0,0-0.1,0c0.1-0.1,0.2-0.1,0.3-0.2
			c-19.7-11.7-35.7-21.6-55.4-33.2c-0.1,0.1-0.3,0.2-0.4,0.2l0,0c0.1-0.1,0.3-0.2,0.4-0.2c-65.2-36.1-130.3-72.2-195.6-108.4
			c-28,17.2-56,34.4-84,51.7c-0.2-0.2-0.5-0.5-0.8-0.7c-0.3-0.3-0.6-0.7-1-1c-4.4-4.8-17.7-12.6-20.2-14.2c-3.4-2-11.8-7.1-17-8.8
			c-20.1-6.7-51.6,17.4-67.7,45.1c-9.9,17.3-19.1,43.7-15.3,62c-6.6,4.6-13.2,9.3-19.6,13.8c-0.1,0.1-0.2,0.2-0.3,0.2
			c-1.5,0.8-2.5,2.4-2.5,4.6c0.3,14.9,0.5,29.9,1,45c0,0.3,0,0.5,0.1,0.8c0.1,1.2,0.7,2.4,1.9,3.4c0.3,0.4,0.6,0.7,1,1
			c0.3,0.4,0.6,0.7,1,1c0.3,0.4,0.6,0.7,1,1c0.3,0.4,0.6,0.7,1,1c0.3,0.4,0.6,0.7,1,1c0.3,0.4,0.6,0.7,1,1c0.3,0.4,0.6,0.7,1,1
			c0.3,0.4,0.6,0.7,1,1c0.3,0.4,0.6,0.7,1,1c0.3,0.4,0.6,0.7,1,1c0.3,0.4,0.6,0.7,1,1c0.3,0.4,0.6,0.7,1,1c0.3,0.4,0.6,0.7,1,1
			c0.3,0.4,0.6,0.7,1,1c0.3,0.4,0.6,0.7,1,1c0.3,0.4,0.6,0.7,1,1c0.3,0.4,0.6,0.7,1,1c0.3,0.4,0.6,0.7,1,1c0.3,0.4,0.6,0.7,1,1
			c0.3,0.4,0.6,0.7,1,1c0.3,0.4,0.6,0.7,1,1c0.3,0.4,0.6,0.7,1,1c0.3,0.4,0.6,0.7,1,1c0.3,0.4,0.6,0.7,1,1c0.3,0.4,0.6,0.7,1,1
			c0.3,0.4,0.6,0.7,1,1c0.3,0.4,0.6,0.7,1,1c0.3,0.4,0.6,0.7,1,1c0.3,0.4,0.6,0.7,1,1c0.3,0.4,0.6,0.7,1,1c0.3,0.4,0.6,0.7,1,1
			c0.3,0.4,0.6,0.7,1,1c0.3,0.4,0.6,0.7,1,1c0.3,0.4,0.6,0.7,1,1c0.3,0.4,0.6,0.7,1,1c0.3,0.4,0.6,0.7,1,1c0.3,0.4,0.6,0.7,1,1
			c0.3,0.4,0.6,0.7,1,1c0.3,0.4,0.6,0.7,1,1c0.3,0.4,0.6,0.7,1,1c0.3,0.4,0.6,0.7,1,1c0.3,0.4,0.6,0.7,1,1c0.3,0.4,0.6,0.7,1,1
			c0.3,0.4,0.6,0.7,1,1c0.3,0.4,0.6,0.7,1,1c0.3,0.4,0.6,0.7,1,1c0.3,0.4,0.6,0.7,1,1c0.3,0.4,0.6,0.7,1,1c0.3,0.4,0.6,0.7,1,1
			c0.3,0.4,0.6,0.7,1,1c0.3,0.4,0.6,0.7,1,1c0.3,0.4,0.6,0.7,1,1c0.3,0.4,0.6,0.7,1,1c0.3,0.4,0.6,0.7,1,1c0.3,0.4,0.6,0.7,1,1
			c0.3,0.4,0.6,0.7,1,1c0.3,0.4,0.6,0.7,1,1c0.3,0.4,0.6,0.7,1,1c0.3,0.4,0.6,0.7,1,1c0.3,0.4,0.6,0.7,1,1c0.3,0.4,0.6,0.7,1,1
			c0.3,0.4,0.6,0.7,1,1c0.3,0.4,0.6,0.7,1,1c0.2,0.2,0.4,0.5,0.6,0.7c-0.1,3.6-0.2,7.2-0.4,10.9c0.3,0.2,0.7,0.4,1,0.6
			c0,0.1,0,0.3,0,0.4c0.3,0.2,0.7,0.4,1,0.6c0,0.1,0,0.3,0,0.4c0.3,0.2,0.7,0.4,1,0.6c0,0.1,0,0.3,0,0.4c0.3,0.2,0.7,0.4,1,0.6
			c0,0.1,0,0.3,0,0.4c0.3,0.2,0.7,0.4,1,0.6c0,0.1,0,0.3,0,0.4c0.3,0.2,0.7,0.4,1,0.6c0,0.1,0,0.3,0,0.4c0.3,0.2,0.7,0.4,1,0.6
			c0,0.1,0,0.3,0,0.4c0.3,0.2,0.7,0.4,1,0.6c0,0.1,0,0.3,0,0.4c0.3,0.2,0.7,0.4,1,0.6c0,0.1,0,0.3,0,0.4c0.3,0.2,0.7,0.4,1,0.6
			c0,0.1,0,0.3,0,0.4c0.3,0.2,0.7,0.4,1,0.6c0,0.1,0,0.3,0,0.4c0.3,0.2,0.7,0.4,1,0.6c0,0.1,0,0.3,0,0.4c0.3,0.2,0.7,0.4,1,0.6
			c0,0.1,0,0.3,0,0.4c0.3,0.2,0.7,0.4,1,0.6c0,0.1,0,0.3,0,0.4c0.3,0.2,0.7,0.4,1,0.6c0,0.1,0,0.3,0,0.4c0.3,0.2,0.7,0.4,1,0.6
			c0,0.1,0,0.3,0,0.4c0.3,0.2,0.7,0.4,1,0.6c0,0.1,0,0.3,0,0.4c0.3,0.2,0.7,0.4,1,0.6c0,0.1,0,0.3,0,0.4c0.3,0.2,0.7,0.4,1,0.6
			c0,0.1,0,0.3,0,0.4c0.3,0.2,0.7,0.4,1,0.6c0,0.1,0,0.3,0,0.4c0.3,0.2,0.7,0.4,1,0.6c0,0.1,0,0.3,0,0.4c0.3,0.2,0.7,0.4,1,0.6
			c0,0.1,0,0.3,0,0.4c0.3,0.2,0.7,0.4,1,0.6c0,0.1,0,0.3,0,0.4c0.3,0.2,0.7,0.4,1,0.6c0,0.1,0,0.3,0,0.4c0.3,0.2,0.7,0.4,1,0.6
			c0,0.1,0,0.3,0,0.4c0.3,0.2,0.7,0.4,1,0.6c0,0.1,0,0.3,0,0.4c0.3,0.2,0.7,0.4,1,0.6c0,0.1,0,0.3,0,0.4c0.3,0.2,0.7,0.4,1,0.6
			c0,0.1,0,0.3,0,0.4c0.3,0.2,0.7,0.4,1,0.6c0,0.1,0,0.3,0,0.4c0.3,0.2,0.7,0.4,1,0.6c0,0.1,0,0.3,0,0.4c0.3,0.2,0.7,0.4,1,0.6
			c0,0.1,0,0.3,0,0.4c0.3,0.2,0.7,0.4,1,0.6c0,0.1,0,0.3,0,0.4c0.3,0.2,0.7,0.4,1,0.6c0,0.1,0,0.3,0,0.4c0.3,0.2,0.7,0.4,1,0.6
			c0,0.1,0,0.3,0,0.4c0.3,0.2,0.7,0.4,1,0.6c0,0.1,0,0.3,0,0.4c0.3,0.2,0.7,0.4,1,0.6c0,0.1,0,0.3,0,0.4c0.3,0.2,0.7,0.4,1,0.6
			c0,0.1,0,0.3,0,0.4c0.3,0.2,0.7,0.4,1,0.6c0,0.1,0,0.3,0,0.4c0.3,0.2,0.7,0.4,1,0.6c0,0.1,0,0.3,0,0.4c0.3,0.2,0.7,0.4,1,0.6
			c0,0.1,0,0.3,0,0.4c0.3,0.2,0.7,0.4,1,0.6c0,0.1,0,0.3,0,0.4c0.3,0.2,0.7,0.4,1,0.6c0,0.1,0,0.3,0,0.4c0.3,0.2,0.7,0.4,1,0.6
			c0,0.1,0,0.3,0,0.4c0.3,0.2,0.7,0.4,1,0.6c0,0.1,0,0.3,0,0.4c0.3,0.2,0.7,0.4,1,0.6c0,0.1,0,0.3,0,0.4c0.3,0.2,0.7,0.4,1,0.6
			c0,0.1,0,0.3,0,0.4c0.3,0.2,0.7,0.4,1,0.6c0,0.1,0,0.3,0,0.4c0.3,0.2,0.7,0.4,1,0.6c0,0.1,0,0.3,0,0.4c0.3,0.2,0.7,0.4,1,0.6
			c0,0.1,0,0.3,0,0.4c0.3,0.2,0.7,0.4,1,0.6c0,0.1,0,0.3,0,0.4c0.3,0.2,0.7,0.4,1,0.6c0,0.1,0,0.3,0,0.4c0.3,0.2,0.7,0.4,1,0.6
			c0,0.1,0,0.3,0,0.4c0.3,0.2,0.7,0.4,1,0.6c0,0.1,0,0.3,0,0.4c0.3,0.2,0.7,0.4,1,0.6c0,0.1,0,0.3,0,0.4c0.3,0.2,0.7,0.4,1,0.6
			c0,0.1,0,0.3,0,0.4c0.3,0.2,0.7,0.4,1,0.6c0,0.1,0,0.3,0,0.4c0.3,0.2,0.7,0.4,1,0.6c0,0.1,0,0.3,0,0.4c0.3,0.2,0.7,0.4,1,0.6
			c0,0.1,0,0.3,0,0.4c0.3,0.2,0.7,0.4,1,0.6c0,0.1,0,0.3,0,0.4c0.3,0.2,0.7,0.4,1,0.6c0,0.1,0,0.3,0,0.4c0.3,0.2,0.7,0.4,1,0.6
			c0,0.1,0,0.3,0,0.4c0.3,0.2,0.7,0.4,1,0.6c0,0.1,0,0.3,0,0.4c0.3,0.2,0.7,0.4,1,0.6c0,0.1,0,0.3,0,0.4c0.3,0.2,0.7,0.4,1,0.6
			c0,0.1,0,0.3,0,0.4c0.3,0.2,0.7,0.4,1,0.6c0,0.1,0,0.3,0,0.4c0.3,0.2,0.7,0.4,1,0.6c0,0.1,0,0.3,0,0.4c0.3,0.2,0.7,0.4,1,0.6
			c0,0.1,0,0.3,0,0.4c0.3,0.2,0.7,0.4,1,0.6c0,0.1,0,0.3,0,0.4c0.3,0.2,0.7,0.4,1,0.6c0,0.1,0,0.3,0,0.4c0.3,0.2,0.7,0.4,1,0.6
			c0,0.1,0,0.3,0,0.4c0.3,0.2,0.7,0.4,1,0.6c0,0.1,0,0.3,0,0.4c0.3,0.2,0.7,0.4,1,0.6c0,0.1,0,0.3,0,0.4c0.3,0.2,0.7,0.4,1,0.6
			c0,0.1,0,0.3,0,0.4c0.3,0.2,0.7,0.4,1,0.6c0,0.1,0,0.3,0,0.4c0.3,0.2,0.7,0.4,1,0.6c0,0.1,0,0.3,0,0.4c0.3,0.2,0.7,0.4,1,0.6
			c0,0.1,0,0.3,0,0.4c0.3,0.2,0.7,0.4,1,0.6c0,0.1,0,0.3,0,0.4c0.3,0.2,0.7,0.4,1,0.6c0,0.1,0,0.3,0,0.4c0.3,0.2,0.7,0.4,1,0.6
			c0,0.1,0,0.3,0,0.4c0.3,0.2,0.7,0.4,1,0.6c0,0.1,0,0.3,0,0.4c0.3,0.2,0.7,0.4,1,0.6c0,0.1,0,0.3,0,0.4c0.3,0.2,0.7,0.4,1,0.6
			c0,0.1,0,0.3,0,0.4c0.3,0.2,0.7,0.4,1,0.6c0,0.1,0,0.3,0,0.4c0.3,0.2,0.7,0.4,1,0.6c0,0.1,0,0.3,0,0.4c0.3,0.2,0.7,0.4,1,0.6
			c0,0.1,0,0.3,0,0.4c0.3,0.2,0.7,0.4,1,0.6c0,0.1,0,0.3,0,0.4c0.3,0.2,0.7,0.4,1,0.6c0,0.1,0,0.3,0,0.4c0.3,0.2,0.7,0.4,1,0.6
			c0,0.1,0,0.3,0,0.4c0.3,0.2,0.7,0.4,1,0.6c0,0.1,0,0.3,0,0.4c0.3,0.2,0.7,0.4,1,0.6c0,0.1,0,0.3,0,0.4c0.3,0.2,0.7,0.4,1,0.6
			c0,0.1,0,0.3,0,0.4c0.3,0.2,0.7,0.4,1,0.6c0,0.1,0,0.3,0,0.4c0.3,0.2,0.7,0.4,1,0.6c0,0.1,0,0.3,0,0.4c0.3,0.2,0.7,0.4,1,0.6
			c0,0.1,0,0.3,0,0.4c0.3,0.2,0.7,0.4,1,0.6c0,0.1,0,0.3,0,0.4c0.3,0.2,0.7,0.4,1,0.6c0,0.1,0,0.3,0,0.4c0.3,0.2,0.7,0.4,1,0.6
			c0,0.1,0,0.3,0,0.4c0.3,0.2,0.7,0.4,1,0.6c0,0.1,0,0.3,0,0.4c0.3,0.2,0.7,0.4,1,0.6c0,0.1,0,0.3,0,0.4c0.3,0.2,0.7,0.4,1,0.6
			c0,0.1,0,0.3,0,0.4c0.3,0.2,0.7,0.4,1,0.6c0,0.1,0,0.3,0,0.4c0.3,0.2,0.7,0.4,1,0.6c0,0.1,0,0.3,0,0.4c0.3,0.2,0.7,0.4,1,0.6
			c0,0.1,0,0.3,0,0.4c0.3,0.2,0.7,0.4,1,0.6c0,0.1,0,0.3,0,0.4c0.3,0.2,0.7,0.4,1,0.6c0,0.1,0,0.3,0,0.4c0.3,0.2,0.7,0.4,1,0.6
			c0,0.1,0,0.3,0,0.4c0.3,0.2,0.7,0.4,1,0.6c0,0.1,0,0.3,0,0.4c0.3,0.2,0.7,0.4,1,0.6c0,0.1,0,0.3,0,0.4c0.3,0.2,0.7,0.4,1,0.6
			c0,0.1,0,0.3,0,0.4c0.3,0.2,0.7,0.4,1,0.6c0,0.1,0,0.3,0,0.4c0.3,0.2,0.7,0.4,1,0.6c0,0.1,0,0.3,0,0.4c0.3,0.2,0.7,0.4,1,0.6
			c0,0.1,0,0.3,0,0.4c0.3,0.2,0.7,0.4,1,0.6c0,0.1,0,0.3,0,0.4c0.3,0.2,0.7,0.4,1,0.6c0,0.1,0,0.3,0,0.4c0.3,0.2,0.7,0.4,1,0.6
			c0,0.1,0,0.3,0,0.4c0.3,0.2,0.7,0.4,1,0.6c0,0.1,0,0.3,0,0.4c0.3,0.2,0.7,0.4,1,0.6c0,0.1,0,0.3,0,0.4c0.3,0.2,0.7,0.4,1,0.6
			c0,0.1,0,0.3,0,0.4c0.3,0.2,0.7,0.4,1,0.6c0,0.1,0,0.3,0,0.4c0.3,0.2,0.7,0.4,1,0.6c0,0.1,0,0.3,0,0.4c0.3,0.2,0.7,0.4,1,0.6
			c0,0.1,0,0.3,0,0.4c0.3,0.2,0.7,0.4,1,0.6c0,0.1,0,0.3,0,0.4c0.3,0.2,0.7,0.4,1,0.6c0,0.1,0,0.3,0,0.4c0.3,0.2,0.7,0.4,1,0.6
			c0,0.1,0,0.3,0,0.4c0.3,0.2,0.7,0.4,1,0.6c0,0.1,0,0.3,0,0.4c0.3,0.2,0.7,0.4,1,0.6c0,0.1,0,0.3,0,0.4c0.3,0.2,0.7,0.4,1,0.6
			c0,0.1,0,0.3,0,0.4c0.3,0.2,0.7,0.4,1,0.6c0,0.1,0,0.3,0,0.4c0.3,0.2,0.7,0.4,1,0.6c0,0.1,0,0.3,0,0.4c0.3,0.2,0.7,0.4,1,0.6
			c0,0.1,0,0.3,0,0.4c0.3,0.2,0.7,0.4,1,0.6c0,0.1,0,0.3,0,0.4c0.3,0.2,0.7,0.4,1,0.6c0,0.1,0,0.3,0,0.4c0.3,0.2,0.7,0.4,1,0.6
			c0,0.1,0,0.3,0,0.4c0.3,0.2,0.7,0.4,1,0.6c0,0.1,0,0.3,0,0.4c0.3,0.2,0.7,0.4,1,0.6c0,0.1,0,0.3,0,0.4c0.3,0.2,0.7,0.4,1,0.6
			c0,0.1,0,0.3,0,0.4c0.3,0.2,0.7,0.4,1,0.6c0,0.1,0,0.3,0,0.4c0.3,0.2,0.7,0.4,1,0.6c0,0.1,0,0.3,0,0.4c0.3,0.2,0.7,0.4,1,0.6
			c0,0.1,0,0.3,0,0.4c0.3,0.2,0.7,0.4,1,0.6c0,0.1,0,0.3,0,0.4c0.3,0.2,0.7,0.4,1,0.6c0,0.1,0,0.3,0,0.4c0.3,0.2,0.7,0.4,1,0.6
			c0,0.1,0,0.3,0,0.4c0.3,0.2,0.7,0.4,1,0.6c0,0.1,0,0.3,0,0.4c0.3,0.2,0.7,0.4,1,0.6c0,0.1,0,0.3,0,0.4c0.3,0.2,0.7,0.4,1,0.6
			c0,0.1,0,0.3,0,0.4c0.3,0.2,0.7,0.4,1,0.6c0,0.1,0,0.3,0,0.4c0.3,0.2,0.7,0.4,1,0.6c0,0.1,0,0.3,0,0.4c0.3,0.2,0.7,0.4,1,0.6
			c0,0.1,0,0.3,0,0.4c0.3,0.2,0.7,0.4,1,0.6c0,0.1,0,0.3,0,0.4c0.3,0.2,0.7,0.4,1,0.6c0,0.1,0,0.3,0,0.4c0.3,0.2,0.7,0.4,1,0.6
			c0,0.1,0,0.3,0,0.4c0.3,0.2,0.7,0.4,1,0.6c0,0.1,0,0.3,0,0.4c0.3,0.2,0.7,0.4,1,0.6c0,0.1,0,0.3,0,0.4c0.3,0.2,0.7,0.4,1,0.6
			c0,0.1,0,0.3,0,0.4c0.3,0.2,0.7,0.4,1,0.6c0,0.1,0,0.3,0,0.4c0.3,0.2,0.7,0.4,1,0.6c0,0.1,0,0.3,0,0.4c0.3,0.2,0.7,0.4,1,0.6
			c0,0.1,0,0.3,0,0.4c0.3,0.2,0.7,0.4,1,0.6c0,0.1,0,0.3,0,0.4c0.3,0.2,0.7,0.4,1,0.6c0,0.1,0,0.3,0,0.4c0.3,0.2,0.7,0.4,1,0.6
			c0,0.1,0,0.3,0,0.4c0.3,0.2,0.7,0.4,1,0.6c0,0.1,0,0.3,0,0.4c0.3,0.2,0.7,0.4,1,0.6c0,0.1,0,0.3,0,0.4c0.3,0.2,0.7,0.4,1,0.6
			c0,0.1,0,0.3,0,0.4c0.3,0.2,0.7,0.4,1,0.6c0,0.1,0,0.3,0,0.4c0.3,0.2,0.7,0.4,1,0.6c0,0.1,0,0.3,0,0.4c0.3,0.2,0.7,0.4,1,0.6
			c0,0.1,0,0.3,0,0.4c0.3,0.2,0.7,0.4,1,0.6c0,0.1,0,0.3,0,0.4c0.3,0.2,0.7,0.4,1,0.6c0,0.1,0,0.3,0,0.4c0.3,0.2,0.7,0.4,1,0.6
			c0,0.1,0,0.3,0,0.4c0.3,0.2,0.7,0.4,1,0.6c0,0.1,0,0.3,0,0.4c0.3,0.2,0.7,0.4,1,0.6c0,0.1,0,0.3,0,0.4c0.3,0.2,0.7,0.4,1,0.6
			c0,0.1,0,0.3,0,0.4c0.3,0.2,0.7,0.4,1,0.6c0,0.1,0,0.3,0,0.4c0.3,0.2,0.7,0.4,1,0.6c0,0.1,0,0.3,0,0.4c0.3,0.2,0.7,0.4,1,0.6
			c0,0.1,0,0.3,0,0.4c0.3,0.2,0.7,0.4,1,0.6c0,0.1,0,0.3,0,0.4c0.3,0.2,0.7,0.4,1,0.6c0,0.1,0,0.3,0,0.4c0.3,0.2,0.7,0.4,1,0.6
			c0,0.1,0,0.3,0,0.4c0.3,0.2,0.7,0.4,1,0.6c0,0.1,0,0.3,0,0.4c0.3,0.2,0.7,0.4,1,0.6c0,0.1,0,0.3,0,0.4c0.3,0.2,0.7,0.4,1,0.6
			c0,0.1,0,0.3,0,0.4c0.3,0.2,0.7,0.4,1,0.6c0,0.1,0,0.3,0,0.4c0.3,0.2,0.7,0.4,1,0.6c0,0.1,0,0.3,0,0.4c0.3,0.2,0.7,0.4,1,0.6
			c0,0.1,0,0.3,0,0.4c0.3,0.2,0.7,0.4,1,0.6c0,0.1,0,0.3,0,0.4c0.3,0.2,0.7,0.4,1,0.6c0,0.1,0,0.3,0,0.4c0.3,0.2,0.7,0.4,1,0.6
			c0,0.1,0,0.3,0,0.4c0.3,0.2,0.7,0.4,1,0.6c0,0.1,0,0.3,0,0.4c0.3,0.2,0.7,0.4,1,0.6c0,0.1,0,0.3,0,0.4c0.3,0.2,0.7,0.4,1,0.6
			c0,0.1,0,0.3,0,0.4c0.3,0.2,0.7,0.4,1,0.6c0,0.1,0,0.3,0,0.4c0.3,0.2,0.7,0.4,1,0.6c0,0.1,0,0.3,0,0.4c0.3,0.2,0.7,0.4,1,0.6
			c0,0.1,0,0.3,0,0.4c0.3,0.2,0.7,0.4,1,0.6c0,0.1,0,0.3,0,0.4c0.3,0.2,0.7,0.4,1,0.6c0,0.1,0,0.3,0,0.4c0.3,0.2,0.7,0.4,1,0.6
			c0,0.1,0,0.3,0,0.4c0.3,0.2,0.7,0.4,1,0.6c0,0.1,0,0.3,0,0.4c0.3,0.2,0.7,0.4,1,0.6c0,0.1,0,0.3,0,0.4c0.3,0.2,0.7,0.4,1,0.6
			c0,0.1,0,0.3,0,0.4c0.3,0.2,0.7,0.4,1,0.6c0,0.1,0,0.3,0,0.4c0.3,0.2,0.7,0.4,1,0.6c0,0.1,0,0.3,0,0.4c0.3,0.2,0.7,0.4,1,0.6
			c0,0.1,0,0.3,0,0.4c0.3,0.2,0.7,0.4,1,0.6c0,0.1,0,0.3,0,0.4c0.3,0.2,0.7,0.4,1,0.6c0,0.1,0,0.3,0,0.4c0.3,0.2,0.7,0.4,1,0.6
			c0,0.1,0,0.3,0,0.4c0.3,0.2,0.7,0.4,1,0.6c0,0.1,0,0.3,0,0.4c0.3,0.2,0.7,0.4,1,0.6c0,0.1,0,0.3,0,0.4c0.3,0.2,0.7,0.4,1,0.6
			c0,0.1,0,0.3,0,0.4c0.3,0.2,0.7,0.4,1,0.6c0,0.1,0,0.3,0,0.4c0.3,0.2,0.7,0.4,1,0.6c0,0.1,0,0.3,0,0.4c0.3,0.2,0.7,0.4,1,0.6
			c0,0.1,0,0.3,0,0.4c0.3,0.2,0.7,0.4,1,0.6c0,0.1,0,0.3,0,0.4c0.3,0.2,0.7,0.4,1,0.6c0,0.1,0,0.3,0,0.4c0.3,0.2,0.7,0.4,1,0.6
			c0,0.1,0,0.3,0,0.4c0.3,0.2,0.7,0.4,1,0.6c0,0.1,0,0.3,0,0.4c0.3,0.2,0.7,0.4,1,0.6c0,0.1,0,0.3,0,0.4c0.3,0.2,0.7,0.4,1,0.6
			c0,0.1,0,0.3,0,0.4c0.3,0.2,0.7,0.4,1,0.6c0,0.1,0,0.3,0,0.4c0.3,0.2,0.7,0.4,1,0.6c0,0.1,0,0.3,0,0.4c0.3,0.2,0.7,0.4,1,0.6
			c0,0.1,0,0.3,0,0.4c0.3,0.2,0.7,0.4,1,0.6c0,0.1,0,0.3,0,0.4c0.3,0.2,0.7,0.4,1,0.6c0,0.1,0,0.3,0,0.4c0.3,0.2,0.7,0.4,1,0.6
			c0,0.1,0,0.3,0,0.4c0.3,0.2,0.7,0.4,1,0.6c0,0.1,0,0.3,0,0.4c0.3,0.2,0.7,0.4,1,0.6c0,0.1,0,0.3,0,0.4c0.3,0.2,0.7,0.4,1,0.6
			c0,0.1,0,0.3,0,0.4c0.3,0.2,0.7,0.4,1,0.6c0,0.1,0,0.3,0,0.4c0.3,0.2,0.7,0.4,1,0.6c0,0.1,0,0.3,0,0.4c0.3,0.2,0.7,0.4,1,0.6
			c0,0.1,0,0.3,0,0.4c0.3,0.2,0.7,0.4,1,0.6c0,0.1,0,0.3,0,0.4c0.3,0.2,0.7,0.4,1,0.6c0,0.1,0,0.3,0,0.4c0.3,0.2,0.7,0.4,1,0.6
			c0,0.1,0,0.3,0,0.4c0.3,0.2,0.7,0.4,1,0.6c0,0.1,0,0.3,0,0.4c0.3,0.2,0.7,0.4,1,0.6c0,0.1,0,0.3,0,0.4c0.3,0.2,0.7,0.4,1,0.6
			c0,0.1,0,0.3,0,0.4c0.3,0.2,0.7,0.4,1,0.6c0,0.1,0,0.3,0,0.4c0.3,0.2,0.7,0.4,1,0.6c0,0.1,0,0.3,0,0.4c0.3,0.2,0.7,0.4,1,0.6
			c0,0.1,0,0.3,0,0.4c0.3,0.2,0.7,0.4,1,0.6c0,0.1,0,0.3,0,0.4c0.3,0.2,0.7,0.4,1,0.6c0,0.1,0,0.3,0,0.4c0.3,0.2,0.7,0.4,1,0.6
			c0,0.1,0,0.3,0,0.4c0.3,0.2,0.7,0.4,1,0.6c0,0.1,0,0.3,0,0.4c0.3,0.2,0.7,0.4,1,0.6c0,0.1,0,0.3,0,0.4c0.3,0.2,0.7,0.4,1,0.6
			c0,0.1,0,0.3,0,0.4c0.3,0.2,0.7,0.4,1,0.6c0,0.1,0,0.3,0,0.4c0.3,0.2,0.7,0.4,1,0.6c0,0.1,0,0.3,0,0.4c0.3,0.2,0.7,0.4,1,0.6
			c0,0.1,0,0.3,0,0.4c0.3,0.2,0.7,0.4,1,0.6c0,0.1,0,0.3,0,0.4c0.3,0.2,0.7,0.4,1,0.6c0,0.1,0,0.3,0,0.4c0.3,0.2,0.7,0.4,1,0.6
			c0,0.1,0,0.3,0,0.4c0.3,0.2,0.7,0.4,1,0.6c0,0.1,0,0.3,0,0.4c0.3,0.2,0.7,0.4,1,0.6c0,0.1,0,0.3,0,0.4c0.3,0.2,0.7,0.4,1,0.6
			c0,0.1,0,0.3,0,0.4c0.3,0.2,0.7,0.4,1,0.6c0,0.1,0,0.3,0,0.4c0.3,0.2,0.7,0.4,1,0.6c0,0.1,0,0.3,0,0.4c0.3,0.2,0.7,0.4,1,0.6
			c0,0.1,0,0.3,0,0.4c0.3,0.2,0.7,0.4,1,0.6c0,0.1,0,0.3,0,0.4c0.3,0.2,0.7,0.4,1,0.6c0,0.1,0,0.3,0,0.4c0.3,0.2,0.7,0.4,1,0.6
			c0,0.1,0,0.3,0,0.4c0.3,0.2,0.7,0.4,1,0.6c0,0.1,0,0.3,0,0.4c0.3,0.2,0.7,0.4,1,0.6c0,0.1,0,0.3,0,0.4c0.3,0.2,0.7,0.4,1,0.6
			c0,0.1,0,0.3,0,0.4c0.3,0.2,0.7,0.4,1,0.6c0,0.1,0,0.3,0,0.4c0.3,0.2,0.7,0.4,1,0.6c0,0.1,0,0.3,0,0.4c0.3,0.2,0.7,0.4,1,0.6
			c0,0.1,0,0.3,0,0.4c0.3,0.2,0.7,0.4,1,0.6c0,0.1,0,0.3,0,0.4c0.3,0.2,0.7,0.4,1,0.6c0,0.1,0,0.3,0,0.4c0.3,0.2,0.7,0.4,1,0.6
			c0,0.1,0,0.3,0,0.4c0.3,0.2,0.7,0.4,1,0.6c0,0.1,0,0.3,0,0.4c0.3,0.2,0.7,0.4,1,0.6c0,0.1,0,0.3,0,0.4c0.3,0.2,0.7,0.4,1,0.6
			c0,0.1,0,0.3,0,0.4c0.3,0.2,0.7,0.4,1,0.6c0,0.1,0,0.3,0,0.4c0.3,0.2,0.7,0.4,1,0.6c0,0.1,0,0.3,0,0.4c0.3,0.2,0.7,0.4,1,0.6
			c0,0.1,0,0.3,0,0.4c0.3,0.2,0.7,0.4,1,0.6c0,0.1,0,0.3,0,0.4c0.3,0.2,0.7,0.4,1,0.6c0,0.1,0,0.3,0,0.4c0.3,0.2,0.7,0.4,1,0.6
			c0,0.1,0,0.3,0,0.4c0.3,0.2,0.7,0.4,1,0.6c0,0.1,0,0.3,0,0.4c0.3,0.2,0.7,0.4,1,0.6c0,0.1,0,0.3,0,0.4c0.3,0.2,0.7,0.4,1,0.6
			c0,0.1,0,0.3,0,0.4c0.3,0.2,0.7,0.4,1,0.6c0,0.1,0,0.3,0,0.4c0.3,0.2,0.7,0.4,1,0.6c0,0.1,0,0.3,0,0.4c0.3,0.2,0.7,0.4,1,0.6
			c0,0.1,0,0.3,0,0.4c0.3,0.2,0.7,0.4,1,0.6c0,0.1,0,0.3,0,0.4c0.3,0.2,0.7,0.4,1,0.6c0,0.1,0,0.3,0,0.4c0.3,0.2,0.7,0.4,1,0.6
			c0,0.1,0,0.3,0,0.4c0.3,0.2,0.7,0.4,1,0.6c0,0.1,0,0.3,0,0.4c0.3,0.2,0.7,0.4,1,0.6c0,0.1,0,0.3,0,0.4c0.3,0.2,0.7,0.4,1,0.6
			c0,0.1,0,0.3,0,0.4c0.3,0.2,0.7,0.4,1,0.6c0,0.1,0,0.3,0,0.4c0.3,0.2,0.7,0.4,1,0.6c0,0.1,0,0.3,0,0.4c0.3,0.2,0.7,0.4,1,0.6
			c0,0.1,0,0.3,0,0.4c0.3,0.2,0.7,0.4,1,0.6c0,0.1,0,0.3,0,0.4c0.3,0.2,0.7,0.4,1,0.6c0,0.1,0,0.3,0,0.4c0.3,0.2,0.7,0.4,1,0.6
			c0,0.1,0,0.3,0,0.4c0.3,0.2,0.7,0.4,1,0.6c0,0.1,0,0.3,0,0.4c0.3,0.2,0.7,0.4,1,0.6c0,0.1,0,0.3,0,0.4c0.3,0.2,0.7,0.4,1,0.6
			c0,0.1,0,0.3,0,0.4c0.3,0.2,0.7,0.4,1,0.6c0,0.1,0,0.3,0,0.4c0.3,0.2,0.7,0.4,1,0.6c0,0.1,0,0.3,0,0.4c0.3,0.2,0.7,0.4,1,0.6
			c0,0.1,0,0.3,0,0.4c0.3,0.2,0.7,0.4,1,0.6c0,0.1,0,0.3,0,0.4c0.3,0.2,0.7,0.4,1,0.6c0,0.1,0,0.3,0,0.4c0.3,0.2,0.7,0.4,1,0.6
			c0,0.1,0,0.3,0,0.4c0.3,0.2,0.7,0.4,1,0.6c0,0.1,0,0.3,0,0.4c0.3,0.2,0.7,0.4,1,0.6c0,0.1,0,0.3,0,0.4c0.3,0.2,0.7,0.4,1,0.6
			c0,0.1,0,0.3,0,0.4c0.3,0.2,0.7,0.4,1,0.6c0,0.1,0,0.3,0,0.4c0.3,0.2,0.7,0.4,1,0.6c0,0.1,0,0.3,0,0.4c0.3,0.2,0.7,0.4,1,0.6
			c0,0.1,0,0.3,0,0.4c0.3,0.2,0.7,0.4,1,0.6c0,0.1,0,0.3,0,0.4c0.3,0.2,0.7,0.4,1,0.6c0,0.1,0,0.3,0,0.4c0.3,0.2,0.7,0.4,1,0.6
			c0,0.1,0,0.3,0,0.4c0.3,0.2,0.7,0.4,1,0.6c0,0.1,0,0.3,0,0.4c0.3,0.2,0.7,0.4,1,0.6c0,0.1,0,0.3,0,0.4c0.3,0.2,0.7,0.4,1,0.6
			c0,0.1,0,0.3,0,0.4c0.3,0.2,0.7,0.4,1,0.6c0,0.1,0,0.3,0,0.4c0.3,0.2,0.7,0.4,1,0.6c0,0.1,0,0.3,0,0.4c0.3,0.2,0.7,0.4,1,0.6
			c0,0.1,0,0.3,0,0.4c64.3,35.7,128.4,71.6,192.6,107.4c0-0.1,0-0.3,0-0.4l0,0c0,0.1,0,0.3,0,0.4c19.7,11,39.5,22,59.4,33
			c52.9-28.8,108.6-59.1,161.4-87.9C991.9,776.8,988.9,715,990.4,652.3z"/>
	</g>
</g>
<g>
	<g>
		<path class="st2" d="M187.5,337c3.7,4.6,9.2,9.4,17,15.6c11.8,9.4,17.7,14.3,23.5,15.6c26.8,6.5,59.5-52.6,61.4-56.4
			c4.3-8,28.4-52.2,13.7-69.7c-3.9-4.8-18.1-13-20.7-14.7c-3.4-2-11.8-7.1-17-8.8c-20.1-6.7-51.6,17.4-67.7,45.1
			C185.6,285.1,174.4,320.2,187.5,337z"/>
		<g>
			<g>
				<g>
					<path class="st3" d="M168.4,349.1c8.3-5.8,16.6-11.7,24.7-17.4c5.7-4.1,0.3-13.6-5.6-9.5c-8.3,5.8-16.6,11.7-24.7,17.4
						C157,343.7,162.6,353.3,168.4,349.1L168.4,349.1z"/>
				</g>
			</g>
			<g>
				<g>
					<path class="st3" d="M160,344.5c0.3,14.9,0.5,29.9,1,45c0.1,7.1,11.1,7.1,11,0c-0.3-14.9-0.5-29.9-1-45
						C170.9,337.3,160,337.3,160,344.5L160,344.5z"/>
				</g>
			</g>
			<g>
				<g>
					<path class="st3" d="M163.7,394.1c21.1,11.7,42.1,23.2,63.3,34.8c6.3,3.4,11.8-6.1,5.6-9.5c-21.1-11.7-42.1-23.2-63.3-34.8
						C163,381.2,157.6,390.7,163.7,394.1L163.7,394.1z"/>
				</g>
			</g>
		</g>
		<path class="st4" d="M584,300.2c-54.8,32.2-107.4,63.2-162,95.3c-62.4-36.4-126.6-71.6-189-108.1c51.9-31.9,103.7-63.9,155.5-95.7
			C453.7,228,518.8,264.1,584,300.2z"/>
		<path class="st5" d="M418.8,575.5c-64.1-35.7-128.3-71.6-192.6-107.4c1.9-60.6,4.9-120.1,6.8-180.7
			c63.2,36.1,125.8,71.9,189,108.1C421,455.7,419.7,515.3,418.8,575.5z"/>
		<path class="st6" d="M477.6,427c53.9-31.3,107.9-62.4,161.8-93.6c-19.7-11.7-35.7-21.6-55.4-33.2c-52.7,32.1-109.3,63.2-162,95.3
			C440.5,406.2,459.2,416.3,477.6,427z"/>
		<path class="st7" d="M478.1,608.5c-19.8-11-39.7-22-59.4-33c1.2-59.7,2-120.2,3.3-180c18.6,9.8,37.7,20.6,56.3,30.4
			C478.1,486.9,478.1,547.7,478.1,608.5z"/>
		<path class="st2" d="M451.9,506.7c-10.3-5.4-20.8-11-31.3-16.6c0.3-15.2,0.5-30.6,1-45.9c0.3-16.2,0.1-32.4,0.5-48.8
			c5,2.9,10.5,5.8,15.6,8.7c5.4,3,10.7,6,16,8.8C453.1,444.3,452.4,475.4,451.9,506.7z"/>
		<path class="st2" d="M478.1,608.5c52.9-28.8,108.6-59.1,161.4-87.9c1.5-62.8-1.5-124.6,0-187.3c-54.4,30.6-107.6,62.9-161.8,93.6
			C477.6,487.9,478.1,547.7,478.1,608.5z"/>
		
			<ellipse transform="matrix(0.4092 -0.9124 0.9124 0.4092 -92.2706 791.545)" class="st8" cx="565.1" cy="467" rx="68.1" ry="46.9"/>
	</g>
</g>
</svg>
