<?xml version="1.0" encoding="utf-8"?>
<!-- Generator: Adobe Illustrator 23.0.0, SVG Export Plug-In . SVG Version: 6.00 Build 0)  -->
<svg version="1.1" id="Layer_1" xmlns="http://www.w3.org/2000/svg" xmlns:xlink="http://www.w3.org/1999/xlink" x="0px" y="0px"
	 viewBox="0 0 800 800" style="enable-background:new 0 0 800 800;" xml:space="preserve">
<style type="text/css">
	.st0{fill:#333333;}
	.st1{opacity:0.4;clip-path:url(#SVGID_2_);enable-background:new    ;}
	.st2{fill:#E0E0E0;}
	.st3{fill:#4C73B2;}
	.st4{fill:#CDD0D3;}
	.st5{fill:#EFEFEF;}
	.st6{fill:none;stroke:#4C73B2;stroke-width:4.9988;stroke-miterlimit:10;}
</style>
<g>
	<circle class="st0" cx="400" cy="400" r="400"/>
</g>
<g id="Layer_1_copy">
	<defs>
		<circle id="SVGID_1_" cx="400" cy="400" r="400"/>
	</defs>
	<clipPath id="SVGID_2_">
		<use xlink:href="#SVGID_1_"  style="overflow:visible;"/>
	</clipPath>
	<path class="st1" d="M809.1,565.5c-0.2,0-0.4-0.1-0.6-0.1l0,0l0,0c-0.3,0-0.7-0.1-1-0.1c0-0.1,0-0.1,0-0.2c0.2-0.2,0.4-0.4,0.7-0.6
		c-0.2,0-0.4-0.1-0.6-0.1l0,0l0,0c-0.3,0-0.7-0.1-1-0.1c0-0.1,0-0.1,0-0.2c0.2-0.2,0.4-0.4,0.7-0.6c-0.2,0-0.4-0.1-0.6-0.1l0,0l0,0
		c-0.3,0-0.7-0.1-1-0.1c0-0.1,0-0.1,0-0.2c0.2-0.2,0.4-0.4,0.7-0.6c-0.2,0-0.4-0.1-0.6-0.1l0,0l0,0c-0.3,0-0.7-0.1-1-0.1
		c0-0.1,0-0.1,0-0.2c0.2-0.2,0.4-0.4,0.7-0.6c-0.2,0-0.4-0.1-0.6-0.1l0,0l0,0c-0.3,0-0.7-0.1-1-0.1c0-0.1,0-0.1,0-0.2
		c0.2-0.2,0.4-0.4,0.7-0.6c-0.2,0-0.4-0.1-0.6-0.1l0,0l0,0c-0.3,0-0.7-0.1-1-0.1c0-0.1,0-0.1,0-0.2c0.2-0.2,0.4-0.4,0.7-0.6
		c-0.2,0-0.4-0.1-0.6-0.1l0,0l0,0c-0.3,0-0.7-0.1-1-0.1c0-0.1,0-0.1,0-0.2c0.2-0.2,0.4-0.4,0.7-0.6c-0.2,0-0.4-0.1-0.6-0.1l0,0l0,0
		c-0.3,0-0.7-0.1-1-0.1c0-0.1,0-0.1,0-0.2c0.2-0.2,0.4-0.4,0.7-0.6c-0.2,0-0.4-0.1-0.6-0.1l0,0l0,0c-0.3,0-0.7-0.1-1-0.1
		c0-0.1,0-0.1,0-0.2c0.2-0.2,0.4-0.4,0.7-0.6c-0.2,0-0.4-0.1-0.6-0.1l0,0l0,0c-0.3,0-0.7-0.1-1-0.1c0-0.1,0-0.1,0-0.2
		c0.2-0.2,0.4-0.4,0.7-0.6c-0.2,0-0.4-0.1-0.6-0.1l0,0l0,0c-0.3,0-0.7-0.1-1-0.1c0-0.1,0-0.1,0-0.2c0.2-0.2,0.4-0.4,0.7-0.6
		c-0.2,0-0.4-0.1-0.6-0.1l0,0l0,0c-0.3,0-0.7-0.1-1-0.1c0-0.1,0-0.1,0-0.2c0.2-0.2,0.4-0.4,0.7-0.6c-0.2,0-0.4-0.1-0.6-0.1l0,0l0,0
		c-0.3,0-0.7-0.1-1-0.1c0-0.1,0-0.1,0-0.2c0.2-0.2,0.4-0.4,0.7-0.6c-0.2,0-0.4-0.1-0.6-0.1l0,0l0,0c-0.3,0-0.7-0.1-1-0.1
		c0-0.1,0-0.1,0-0.2c0.2-0.2,0.4-0.4,0.7-0.6c-0.2,0-0.4-0.1-0.6-0.1l0,0l0,0c-0.3,0-0.7-0.1-1-0.1c0-0.1,0-0.1,0-0.2
		c0.2-0.2,0.4-0.4,0.7-0.6c-0.2,0-0.4-0.1-0.6-0.1l0,0l0,0c-0.3,0-0.7-0.1-1-0.1c0-0.1,0-0.1,0-0.2c0.2-0.2,0.4-0.4,0.7-0.6
		c-0.2,0-0.4-0.1-0.6-0.1l0,0l0,0c-0.3,0-0.7-0.1-1-0.1c0-0.1,0-0.1,0-0.2c0.2-0.2,0.4-0.4,0.7-0.6c-0.2,0-0.4-0.1-0.6-0.1l0,0l0,0
		c-0.3,0-0.7-0.1-1-0.1c0-0.1,0-0.1,0-0.2c0.2-0.2,0.4-0.4,0.7-0.6c-0.2,0-0.4-0.1-0.6-0.1l0,0l0,0c-0.3,0-0.7-0.1-1-0.1
		c0-0.1,0-0.1,0-0.2c0.2-0.2,0.4-0.4,0.7-0.6c-0.2,0-0.4-0.1-0.6-0.1l0,0l0,0c-0.3,0-0.7-0.1-1-0.1c0-0.1,0-0.1,0-0.2
		c0.2-0.2,0.4-0.4,0.7-0.6c-0.2,0-0.4-0.1-0.6-0.1l0,0l0,0c-0.3,0-0.7-0.1-1-0.1c0-0.1,0-0.1,0-0.2c0.2-0.2,0.4-0.4,0.7-0.6
		c-0.2,0-0.4-0.1-0.6-0.1l0,0l0,0c-0.3,0-0.7-0.1-1-0.1c0-0.1,0-0.1,0-0.2c0.2-0.2,0.4-0.4,0.7-0.6c-0.2,0-0.4-0.1-0.6-0.1l0,0l0,0
		c-0.3,0-0.7-0.1-1-0.1c0-0.1,0-0.1,0-0.2c0.2-0.2,0.4-0.4,0.7-0.6c-0.2,0-0.4-0.1-0.6-0.1l0,0l0,0c-0.3,0-0.7-0.1-1-0.1
		c0-0.1,0-0.1,0-0.2c0.2-0.2,0.4-0.4,0.7-0.6c-0.2,0-0.4-0.1-0.6-0.1l0,0l0,0c-0.3,0-0.7-0.1-1-0.1c0-0.1,0-0.1,0-0.2
		c0.2-0.2,0.4-0.4,0.7-0.6c-0.2,0-0.4-0.1-0.6-0.1l0,0l0,0c-0.3,0-0.7-0.1-1-0.1c0-0.1,0-0.1,0-0.2c0.2-0.2,0.4-0.4,0.7-0.6
		c-0.2,0-0.4-0.1-0.6-0.1l0,0l0,0c-0.3,0-0.7-0.1-1-0.1c0-0.1,0-0.1,0-0.2c0.2-0.2,0.4-0.4,0.7-0.6c-0.2,0-0.4-0.1-0.6-0.1l0,0l0,0
		c-0.3,0-0.7-0.1-1-0.1c0-0.1,0-0.1,0-0.2c0.2-0.2,0.4-0.4,0.7-0.6c-0.2,0-0.4-0.1-0.6-0.1l0,0l0,0c-0.3,0-0.7-0.1-1-0.1
		c0-0.1,0-0.1,0-0.2c0.2-0.2,0.4-0.4,0.7-0.6c-0.2,0-0.4-0.1-0.6-0.1l0,0l0,0c-0.3,0-0.7-0.1-1-0.1c0-0.1,0-0.1,0-0.2
		c0.2-0.2,0.4-0.4,0.7-0.6c-0.2,0-0.4-0.1-0.6-0.1l0,0l0,0c-0.3,0-0.7-0.1-1-0.1c0-0.1,0-0.1,0-0.2c0.2-0.2,0.4-0.4,0.7-0.6
		c-0.2,0-0.4-0.1-0.6-0.1l0,0l0,0c-0.3,0-0.7-0.1-1-0.1c0-0.1,0-0.1,0-0.2c0.2-0.2,0.4-0.4,0.7-0.6c-0.2,0-0.4-0.1-0.6-0.1l0,0l0,0
		c-0.3,0-0.7-0.1-1-0.1c0-0.1,0-0.1,0-0.2c0.2-0.2,0.4-0.4,0.7-0.6c-0.2,0-0.4-0.1-0.6-0.1l0,0l0,0c-0.3,0-0.7-0.1-1-0.1
		c0-0.1,0-0.1,0-0.2c0.2-0.2,0.4-0.4,0.7-0.6c-0.2,0-0.4-0.1-0.6-0.1l0,0l0,0c-0.3,0-0.7-0.1-1-0.1c0-0.1,0-0.1,0-0.2
		c0.2-0.2,0.4-0.4,0.7-0.6c-0.2,0-0.4-0.1-0.6-0.1l0,0l0,0c-0.3,0-0.7-0.1-1-0.1c0-0.1,0-0.1,0-0.2c0.2-0.2,0.4-0.4,0.7-0.6
		c-0.2,0-0.4-0.1-0.6-0.1l0,0l0,0c-0.3,0-0.7-0.1-1-0.1c0-0.1,0-0.1,0-0.2c0.2-0.2,0.4-0.4,0.7-0.6c-0.2,0-0.4-0.1-0.6-0.1l0,0l0,0
		c-0.3,0-0.7-0.1-1-0.1c0-0.1,0-0.1,0-0.2c0.2-0.2,0.4-0.4,0.7-0.6c-0.2,0-0.4-0.1-0.6-0.1l0,0l0,0c-0.3,0-0.7-0.1-1-0.1
		c0-0.1,0-0.1,0-0.2c0.2-0.2,0.4-0.4,0.7-0.6c-0.2,0-0.4-0.1-0.6-0.1l0,0l0,0c-0.3,0-0.7-0.1-1-0.1c0-0.1,0-0.1,0-0.2
		c0.2-0.2,0.4-0.4,0.7-0.6c-0.2,0-0.4-0.1-0.6-0.1l0,0l0,0c-0.3,0-0.7-0.1-1-0.1c0-0.1,0-0.1,0-0.2c0.2-0.2,0.4-0.4,0.7-0.6
		c-0.2,0-0.4-0.1-0.6-0.1l0,0l0,0c-0.3,0-0.7-0.1-1-0.1c0-0.1,0-0.1,0-0.2c0.2-0.2,0.4-0.4,0.7-0.6c-0.2,0-0.4-0.1-0.6-0.1l0,0l0,0
		c-0.3,0-0.7-0.1-1-0.1c0-0.1,0-0.1,0-0.2c0.2-0.2,0.4-0.4,0.7-0.6c-0.2,0-0.4-0.1-0.6-0.1l0,0l0,0c-0.3,0-0.7-0.1-1-0.1
		c0-0.1,0-0.1,0-0.2c0.2-0.2,0.4-0.4,0.7-0.6c-0.2,0-0.4-0.1-0.6-0.1l0,0l0,0c-0.3,0-0.7-0.1-1-0.1c0-0.1,0-0.1,0-0.2
		c0.2-0.2,0.4-0.4,0.7-0.6c-0.2,0-0.4-0.1-0.6-0.1l0,0l0,0c-0.3,0-0.7-0.1-1-0.1c0-0.1,0-0.1,0-0.2c0.2-0.2,0.4-0.4,0.7-0.6
		c-0.2,0-0.4-0.1-0.6-0.1l0,0l0,0c-0.3,0-0.7-0.1-1-0.1c0-0.1,0-0.1,0-0.2c0.2-0.2,0.4-0.4,0.7-0.6c-0.2,0-0.4-0.1-0.6-0.1l0,0l0,0
		c-0.3,0-0.7-0.1-1-0.1c0-0.1,0-0.1,0-0.2c0.2-0.2,0.4-0.4,0.7-0.6c-0.2,0-0.4-0.1-0.6-0.1l0,0l0,0c-0.3,0-0.7-0.1-1-0.1
		c0-0.1,0-0.1,0-0.2c0.2-0.2,0.4-0.4,0.7-0.6c-0.2,0-0.4-0.1-0.6-0.1l0,0l0,0c-0.3,0-0.7-0.1-1-0.1c0-0.1,0-0.1,0-0.2
		c0.2-0.2,0.4-0.4,0.7-0.6c-0.2,0-0.4-0.1-0.6-0.1l0,0l0,0c-0.3,0-0.7-0.1-1-0.1c0-0.1,0-0.1,0-0.2c0.2-0.2,0.4-0.4,0.7-0.6
		c-0.2,0-0.4-0.1-0.6-0.1l0,0l0,0c-0.3,0-0.7-0.1-1-0.1c0-0.1,0-0.1,0-0.2c0.2-0.2,0.4-0.4,0.7-0.6c-0.2,0-0.4-0.1-0.6-0.1l0,0l0,0
		c-0.3,0-0.7-0.1-1-0.1c0-0.1,0-0.1,0-0.2c0.2-0.2,0.4-0.4,0.7-0.6c-0.2,0-0.4-0.1-0.6-0.1l0,0l0,0c-0.3,0-0.7-0.1-1-0.1
		c0-0.1,0-0.1,0-0.2c0.2-0.2,0.4-0.4,0.7-0.6c-0.2,0-0.4-0.1-0.6-0.1l0,0l0,0c-0.3,0-0.7-0.1-1-0.1c0-0.1,0-0.1,0-0.2
		c0.2-0.2,0.4-0.4,0.7-0.6c-0.2,0-0.4-0.1-0.6-0.1l0,0l0,0c-0.3,0-0.7-0.1-1-0.1c0-0.1,0-0.1,0-0.2c0.2-0.2,0.4-0.4,0.7-0.6
		c-0.2,0-0.4-0.1-0.6-0.1l0,0l0,0c-0.3,0-0.7-0.1-1-0.1c0-0.1,0-0.1,0-0.2c0.2-0.2,0.4-0.4,0.7-0.6c-0.2,0-0.4-0.1-0.6-0.1l0,0l0,0
		c-0.3,0-0.7-0.1-1-0.1c0-0.1,0-0.1,0-0.2c0.2-0.2,0.4-0.4,0.7-0.6c-0.2,0-0.4-0.1-0.6-0.1l0,0l0,0c-0.3,0-0.7-0.1-1-0.1
		c0-0.1,0-0.1,0-0.2c0.2-0.2,0.4-0.4,0.7-0.6c-0.2,0-0.4-0.1-0.6-0.1l0,0l0,0c-0.3,0-0.7-0.1-1-0.1c0-0.1,0-0.1,0-0.2
		c0.2-0.2,0.4-0.4,0.7-0.6c-0.2,0-0.4-0.1-0.6-0.1l0,0l0,0c-0.3,0-0.7-0.1-1-0.1c0-0.1,0-0.1,0-0.2c0.2-0.2,0.4-0.4,0.7-0.6
		c-0.2,0-0.4-0.1-0.6-0.1l0,0l0,0c-0.3,0-0.7-0.1-1-0.1c0-0.1,0-0.1,0-0.2c0.2-0.2,0.4-0.4,0.7-0.6c-0.2,0-0.4-0.1-0.6-0.1l0,0l0,0
		c-0.3,0-0.7-0.1-1-0.1c0-0.1,0-0.1,0-0.2c0.2-0.2,0.4-0.4,0.7-0.6c-0.2,0-0.4-0.1-0.6-0.1l0,0l0,0c-0.3,0-0.7-0.1-1-0.1
		c0-0.1,0-0.1,0-0.2c0.2-0.2,0.4-0.4,0.7-0.6c-0.2,0-0.4-0.1-0.6-0.1l0,0l0,0c-0.3,0-0.7-0.1-1-0.1c0-0.1,0-0.1,0-0.2
		c0.2-0.2,0.4-0.4,0.7-0.6c-0.2,0-0.4-0.1-0.6-0.1l0,0l0,0c-0.3,0-0.7-0.1-1-0.1c0-0.1,0-0.1,0-0.2c0.2-0.2,0.4-0.4,0.7-0.6
		c-0.2,0-0.4-0.1-0.6-0.1l0,0l0,0c-0.3,0-0.7-0.1-1-0.1c0-0.1,0-0.1,0-0.2c0.2-0.2,0.4-0.4,0.7-0.6c-0.2,0-0.4-0.1-0.6-0.1l0,0l0,0
		c-0.3,0-0.7-0.1-1-0.1c0-0.1,0-0.1,0-0.2c0.2-0.2,0.4-0.4,0.7-0.6c-0.2,0-0.4-0.1-0.6-0.1l0,0l0,0c-0.3,0-0.7-0.1-1-0.1
		c0-0.1,0-0.1,0-0.2c0.2-0.2,0.4-0.4,0.7-0.6c-0.2,0-0.4-0.1-0.6-0.1l0,0l0,0c-0.3,0-0.7-0.1-1-0.1c0-0.1,0-0.1,0-0.2
		c0.2-0.2,0.4-0.4,0.7-0.6c-0.2,0-0.4-0.1-0.6-0.1l0,0l0,0c-0.3,0-0.7-0.1-1-0.1c0-0.1,0-0.1,0-0.2c0.2-0.2,0.4-0.4,0.7-0.6
		c-0.2,0-0.4-0.1-0.6-0.1l0,0l0,0c-0.3,0-0.7-0.1-1-0.1c0-0.1,0-0.1,0-0.2c0.2-0.2,0.4-0.4,0.7-0.6c-0.2,0-0.4-0.1-0.6-0.1l0,0l0,0
		c-0.3,0-0.7-0.1-1-0.1c0-0.1,0-0.1,0-0.2c0.2-0.2,0.4-0.4,0.7-0.6c-0.2,0-0.4-0.1-0.6-0.1l0,0l0,0c-0.3,0-0.7-0.1-1-0.1
		c0-0.1,0-0.1,0-0.2c0.2-0.2,0.4-0.4,0.7-0.6c-0.2,0-0.4-0.1-0.6-0.1l0,0l0,0c-0.3,0-0.7-0.1-1-0.1c0-0.1,0-0.1,0-0.2
		c0.2-0.2,0.4-0.4,0.7-0.6c-0.2,0-0.4-0.1-0.6-0.1l0,0l0,0c-0.3,0-0.7-0.1-1-0.1c0-0.1,0-0.1,0-0.2c0.2-0.2,0.4-0.4,0.7-0.6
		c-0.2,0-0.4-0.1-0.6-0.1l0,0l0,0c-0.3,0-0.7-0.1-1-0.1c0-0.1,0-0.1,0-0.2c0.2-0.2,0.4-0.4,0.7-0.6c-0.2,0-0.4-0.1-0.6-0.1l0,0l0,0
		c-0.3,0-0.7-0.1-1-0.1c0-0.1,0-0.1,0-0.2c0.2-0.2,0.4-0.4,0.7-0.6c-0.2,0-0.4-0.1-0.6-0.1l0,0l0,0c-0.3,0-0.7-0.1-1-0.1
		c0-0.1,0-0.1,0-0.2c0.2-0.2,0.4-0.4,0.7-0.6c-0.2,0-0.4-0.1-0.6-0.1l0,0l0,0c-0.3,0-0.7-0.1-1-0.1c0-0.1,0-0.1,0-0.2
		c0.2-0.2,0.4-0.4,0.7-0.6c-0.2,0-0.4-0.1-0.6-0.1l0,0l0,0c-0.3,0-0.7-0.1-1-0.1c0-0.1,0-0.1,0-0.2c0.2-0.2,0.4-0.4,0.7-0.6
		c-0.2,0-0.4-0.1-0.6-0.1l0,0l0,0c-0.3,0-0.7-0.1-1-0.1c0-0.1,0-0.1,0-0.2c0.2-0.2,0.4-0.4,0.7-0.6c-0.2,0-0.4-0.1-0.6-0.1l0,0l0,0
		c-0.3,0-0.7-0.1-1-0.1c0-0.1,0-0.1,0-0.2c0.2-0.2,0.4-0.4,0.7-0.6c-0.2,0-0.4-0.1-0.6-0.1l0,0l0,0c-0.3,0-0.7-0.1-1-0.1
		c0-0.1,0-0.1,0-0.2c0.2-0.2,0.4-0.4,0.7-0.6c-0.2,0-0.4-0.1-0.6-0.1l0,0l0,0c-0.3,0-0.7-0.1-1-0.1c0-0.1,0-0.1,0-0.2
		c0.2-0.2,0.4-0.4,0.7-0.6c-0.2,0-0.4-0.1-0.6-0.1l0,0l0,0c-0.3,0-0.7-0.1-1-0.1c0-0.1,0-0.1,0-0.2c0.2-0.2,0.4-0.4,0.7-0.6
		c-0.2,0-0.4-0.1-0.6-0.1l0,0l0,0c-0.3,0-0.7-0.1-1-0.1c0-0.1,0-0.1,0-0.2c0.2-0.2,0.4-0.4,0.7-0.6c-0.2,0-0.4-0.1-0.6-0.1l0,0l0,0
		c-0.3,0-0.7-0.1-1-0.1c0-0.1,0-0.1,0-0.2c0.2-0.2,0.4-0.4,0.7-0.6c-0.2,0-0.4-0.1-0.6-0.1l0,0l0,0c-0.3,0-0.7-0.1-1-0.1
		c0-0.1,0-0.1,0-0.2c0.2-0.2,0.4-0.4,0.7-0.6c-0.2,0-0.4-0.1-0.6-0.1l0,0l0,0c-0.3,0-0.7-0.1-1-0.1c0-0.1,0-0.1,0-0.2
		c0.2-0.2,0.4-0.4,0.7-0.6c-0.2,0-0.4-0.1-0.6-0.1l0,0l0,0c-0.3,0-0.7-0.1-1-0.1c0-0.1,0-0.1,0-0.2c0.2-0.2,0.4-0.4,0.7-0.6
		c-0.2,0-0.4-0.1-0.6-0.1l0,0l0,0c-0.3,0-0.7-0.1-1-0.1c0-0.1,0-0.1,0-0.2c0.2-0.2,0.4-0.4,0.7-0.6c-0.2,0-0.4-0.1-0.6-0.1l0,0l0,0
		c-0.3,0-0.7-0.1-1-0.1c0-0.1,0-0.1,0-0.2c0.2-0.2,0.4-0.4,0.7-0.6c-0.2,0-0.4-0.1-0.6-0.1l0,0l0,0c-0.3,0-0.7-0.1-1-0.1
		c0-0.1,0-0.1,0-0.2c0.2-0.2,0.4-0.4,0.7-0.6c-0.2,0-0.4-0.1-0.6-0.1l0,0l0,0c-0.3,0-0.7-0.1-1-0.1c0-0.1,0-0.1,0-0.2
		c0.2-0.2,0.4-0.4,0.7-0.6c-0.2,0-0.4-0.1-0.6-0.1l0,0l0,0c-0.3,0-0.7-0.1-1-0.1c0-0.1,0-0.1,0-0.2c0.2-0.2,0.4-0.4,0.7-0.6
		c-0.2,0-0.4-0.1-0.6-0.1l0,0l0,0c-0.3,0-0.7-0.1-1-0.1c0-0.1,0-0.1,0-0.2c0.2-0.2,0.4-0.4,0.7-0.6c-0.2,0-0.4-0.1-0.6-0.1l0,0l0,0
		c-0.3,0-0.7-0.1-1-0.1c0-0.1,0-0.1,0-0.2c0.2-0.2,0.4-0.4,0.7-0.6c-0.2,0-0.4-0.1-0.6-0.1l0,0l0,0c-0.3,0-0.7-0.1-1-0.1
		c0-0.1,0-0.1,0-0.2c0.2-0.2,0.4-0.4,0.7-0.6c-0.2,0-0.4-0.1-0.6-0.1l0,0l0,0c-0.3,0-0.7-0.1-1-0.1c0-0.1,0-0.1,0-0.2
		c0.2-0.2,0.4-0.4,0.7-0.6c-0.2,0-0.4-0.1-0.6-0.1l0,0l0,0c-0.3,0-0.7-0.1-1-0.1c0-0.1,0-0.1,0-0.2c0.2-0.2,0.4-0.4,0.7-0.6
		c-0.2,0-0.4-0.1-0.6-0.1l0,0l0,0c-0.3,0-0.7-0.1-1-0.1c0-0.1,0-0.1,0-0.2c0.2-0.2,0.4-0.4,0.7-0.6c-0.2,0-0.4-0.1-0.6-0.1l0,0l0,0
		c-0.3,0-0.7-0.1-1-0.1c0-0.1,0-0.1,0-0.2c0.2-0.2,0.4-0.4,0.7-0.6c-0.2,0-0.4-0.1-0.6-0.1l0,0l0,0c-0.3,0-0.7-0.1-1-0.1
		c0-0.1,0-0.1,0-0.2c0.2-0.2,0.4-0.4,0.7-0.6c-0.2,0-0.4-0.1-0.6-0.1l0,0l0,0c-0.3,0-0.7-0.1-1-0.1c0-0.1,0-0.1,0-0.2
		c0.2-0.2,0.4-0.4,0.7-0.6c-0.2,0-0.4-0.1-0.6-0.1l0,0l0,0c-0.3,0-0.7-0.1-1-0.1c0-0.1,0-0.1,0-0.2c0.2-0.2,0.4-0.4,0.7-0.6
		c-0.2,0-0.4-0.1-0.6-0.1l0,0l0,0c-0.3,0-0.7-0.1-1-0.1c0-0.1,0-0.1,0-0.2c0.2-0.2,0.4-0.4,0.7-0.6c-0.2,0-0.4-0.1-0.6-0.1l0,0l0,0
		c-0.3,0-0.7-0.1-1-0.1c0-0.1,0-0.1,0-0.2c0.2-0.2,0.4-0.4,0.7-0.6c-0.2,0-0.4-0.1-0.6-0.1l0,0l0,0c-0.3,0-0.7-0.1-1-0.1
		c0-0.1,0-0.1,0-0.2c0.2-0.2,0.4-0.4,0.7-0.6c-0.2,0-0.4-0.1-0.6-0.1l0,0l0,0c-0.3,0-0.7-0.1-1-0.1c0-0.1,0-0.1,0-0.2
		c0.2-0.2,0.4-0.4,0.7-0.6c-0.2,0-0.4-0.1-0.6-0.1l0,0l0,0c-0.3,0-0.7-0.1-1-0.1c0-0.1,0-0.1,0-0.2c0.2-0.2,0.4-0.4,0.7-0.6
		c-0.2,0-0.4-0.1-0.6-0.1l0,0l0,0c-0.3,0-0.7-0.1-1-0.1c0-0.1,0-0.1,0-0.2c0.2-0.2,0.4-0.4,0.7-0.6c-0.2,0-0.4-0.1-0.6-0.1l0,0l0,0
		c-0.3,0-0.7-0.1-1-0.1c0-0.1,0-0.1,0-0.2c0.2-0.2,0.4-0.4,0.7-0.6c-0.2,0-0.4-0.1-0.6-0.1l0,0l0,0c-0.3,0-0.7-0.1-1-0.1
		c0-0.1,0-0.1,0-0.2c0.2-0.2,0.4-0.4,0.7-0.6c-0.2,0-0.4-0.1-0.6-0.1l0,0l0,0c-0.3,0-0.7-0.1-1-0.1c0-0.1,0-0.1,0-0.2
		c0.2-0.2,0.4-0.4,0.7-0.6c-0.2,0-0.4-0.1-0.6-0.1l0,0l0,0c-0.3,0-0.7-0.1-1-0.1c0-0.1,0-0.1,0-0.2c0.2-0.2,0.4-0.4,0.7-0.6
		c-0.2,0-0.4-0.1-0.6-0.1l0,0l0,0c-0.3,0-0.7-0.1-1-0.1c0-0.1,0-0.1,0-0.2c0.2-0.2,0.4-0.4,0.7-0.6c-0.2,0-0.4-0.1-0.6-0.1l0,0l0,0
		c-0.3,0-0.7-0.1-1-0.1c0-0.1,0-0.1,0-0.2c0.2-0.2,0.4-0.4,0.7-0.6c-0.2,0-0.4-0.1-0.6-0.1l0,0l0,0c-0.3,0-0.7-0.1-1-0.1
		c0-0.1,0-0.1,0-0.2c0.2-0.2,0.4-0.4,0.7-0.6c-0.2,0-0.4-0.1-0.6-0.1l0,0l0,0c-0.3,0-0.7-0.1-1-0.1c0-0.1,0-0.1,0-0.2
		c0.2-0.2,0.4-0.4,0.7-0.6c-0.2,0-0.4-0.1-0.6-0.1l0,0l0,0c-0.3,0-0.7-0.1-1-0.1c0-0.1,0-0.1,0-0.2c0.2-0.2,0.4-0.4,0.7-0.6
		c-0.2,0-0.4-0.1-0.6-0.1l0,0l0,0c-0.3,0-0.7-0.1-1-0.1c0-0.1,0-0.1,0-0.2c0.2-0.2,0.4-0.4,0.7-0.6c-0.2,0-0.4-0.1-0.6-0.1l0,0l0,0
		c-0.3,0-0.7-0.1-1-0.1c0-0.1,0-0.1,0-0.2c0.2-0.2,0.4-0.4,0.7-0.6c-0.2,0-0.4-0.1-0.6-0.1l0,0l0,0c-0.3,0-0.7-0.1-1-0.1
		c0-0.1,0-0.1,0-0.2c0.2-0.2,0.4-0.4,0.7-0.6c-0.2,0-0.4-0.1-0.6-0.1l0,0l0,0c-0.3,0-0.7-0.1-1-0.1c0-0.1,0-0.1,0-0.2
		c0.2-0.2,0.4-0.4,0.7-0.6c-0.2,0-0.4-0.1-0.6-0.1l0,0l0,0c-0.3,0-0.7-0.1-1-0.1c0-0.1,0-0.1,0-0.2c0.2-0.2,0.4-0.4,0.7-0.6
		c-0.2,0-0.4-0.1-0.6-0.1l0,0l0,0c-0.3,0-0.7-0.1-1-0.1c0-0.1,0-0.1,0-0.2c0.2-0.2,0.4-0.4,0.7-0.6c-0.2,0-0.4-0.1-0.6-0.1l0,0l0,0
		c-0.3,0-0.7-0.1-1-0.1c0-0.1,0-0.1,0-0.2c0.2-0.2,0.4-0.4,0.7-0.6c-0.2,0-0.4-0.1-0.6-0.1l0,0l0,0c-0.3,0-0.7-0.1-1-0.1
		c0-0.1,0-0.1,0-0.2c0.2-0.2,0.4-0.4,0.7-0.6c-0.2,0-0.4-0.1-0.6-0.1l0,0l0,0c-0.3,0-0.7-0.1-1-0.1c0-0.1,0-0.1,0-0.2
		c0.2-0.2,0.4-0.4,0.7-0.6c-0.2,0-0.4-0.1-0.6-0.1l0,0l0,0c-0.3,0-0.7-0.1-1-0.1c0-0.1,0-0.1,0-0.2c0.2-0.2,0.4-0.4,0.7-0.6
		c-0.2,0-0.4-0.1-0.6-0.1l0,0l0,0c-0.3,0-0.7-0.1-1-0.1c0-0.1,0-0.1,0-0.2c0.2-0.2,0.4-0.4,0.7-0.6c-0.2,0-0.4-0.1-0.6-0.1l0,0l0,0
		c-0.3,0-0.7-0.1-1-0.1c0-0.1,0-0.1,0-0.2c0.2-0.2,0.4-0.4,0.7-0.6c-0.2,0-0.4-0.1-0.6-0.1l0,0l0,0c-0.3,0-0.7-0.1-1-0.1
		c0-0.1,0-0.1,0-0.2c0.2-0.2,0.4-0.4,0.7-0.6c-0.2,0-0.4-0.1-0.6-0.1l0,0l0,0c-0.3,0-0.7-0.1-1-0.1c0-0.1,0-0.1,0-0.2
		c0.2-0.2,0.4-0.4,0.7-0.6c-0.2,0-0.4-0.1-0.6-0.1l0,0l0,0c-0.3,0-0.7-0.1-1-0.1c0-0.1,0-0.1,0-0.2c0.2-0.2,0.4-0.4,0.7-0.6
		c-0.2,0-0.4-0.1-0.6-0.1l0,0l0,0c-0.3,0-0.7-0.1-1-0.1c0-0.1,0-0.1,0-0.2c0.2-0.2,0.4-0.4,0.7-0.6c-0.2,0-0.4-0.1-0.6-0.1l0,0l0,0
		c-0.3,0-0.7-0.1-1-0.1c0-0.1,0-0.1,0-0.2c0.2-0.2,0.4-0.4,0.7-0.6c-0.2,0-0.4-0.1-0.6-0.1l0,0l0,0c-0.3,0-0.7-0.1-1-0.1
		c0-0.1,0-0.1,0-0.2c0.2-0.2,0.4-0.4,0.7-0.6c-0.2,0-0.4-0.1-0.6-0.1l0,0l0,0c-0.3,0-0.7-0.1-1-0.1c0-0.1,0-0.1,0-0.2
		c0.2-0.2,0.4-0.4,0.7-0.6c-0.2,0-0.4-0.1-0.6-0.1l0,0l0,0c-0.3,0-0.7-0.1-1-0.1c0-0.1,0-0.1,0-0.2c0.2-0.2,0.4-0.4,0.7-0.6
		c-0.2,0-0.4-0.1-0.6-0.1l0,0l0,0c-0.3,0-0.7-0.1-1-0.1c0-0.1,0-0.1,0-0.2c0.2-0.2,0.4-0.4,0.7-0.6c-0.2,0-0.4-0.1-0.6-0.1l0,0l0,0
		c-0.3,0-0.7-0.1-1-0.1c0-0.1,0-0.1,0-0.2c0.2-0.2,0.4-0.4,0.7-0.6c-0.2,0-0.4-0.1-0.6-0.1l0,0l0,0c-0.3,0-0.7-0.1-1-0.1
		c0-0.1,0-0.1,0-0.2c0.2-0.2,0.4-0.4,0.7-0.6c-0.2,0-0.4-0.1-0.6-0.1l0,0l0,0c-0.3,0-0.7-0.1-1-0.1c0-0.1,0-0.1,0-0.2
		c0.2-0.2,0.4-0.4,0.7-0.6c-0.2,0-0.4-0.1-0.6-0.1l0,0l0,0c-0.3,0-0.7-0.1-1-0.1c0-0.1,0-0.1,0-0.2c0.2-0.2,0.4-0.4,0.7-0.6
		c-0.2,0-0.4-0.1-0.6-0.1l0,0l0,0c-0.3,0-0.7-0.1-1-0.1c0-0.1,0-0.1,0-0.2c0.2-0.2,0.4-0.4,0.7-0.6c-0.2,0-0.4-0.1-0.6-0.1l0,0l0,0
		c-0.3,0-0.7-0.1-1-0.1c0-0.1,0-0.1,0-0.2c0.2-0.2,0.4-0.4,0.7-0.6c-0.2,0-0.4-0.1-0.6-0.1l0,0l0,0c-0.3,0-0.7-0.1-1-0.1
		c0-0.1,0-0.1,0-0.2c0.2-0.2,0.4-0.4,0.7-0.6c-0.2,0-0.4-0.1-0.6-0.1l0,0l0,0c-0.3,0-0.7-0.1-1-0.1c0-0.1,0-0.1,0-0.2
		c0.2-0.2,0.4-0.4,0.7-0.6c-0.2,0-0.4-0.1-0.6-0.1l0,0l0,0c-0.3,0-0.7-0.1-1-0.1c0-0.1,0-0.1,0-0.2c0.2-0.2,0.4-0.4,0.7-0.6
		c-0.2,0-0.4-0.1-0.6-0.1l0,0l0,0c-0.3,0-0.7-0.1-1-0.1c0-0.1,0-0.1,0-0.2c0.2-0.2,0.4-0.4,0.7-0.6c-0.2,0-0.4-0.1-0.6-0.1l0,0l0,0
		c-0.3,0-0.7-0.1-1-0.1c0-0.1,0-0.1,0-0.2c0.2-0.2,0.4-0.4,0.7-0.6c-0.2,0-0.4-0.1-0.6-0.1l0,0l0,0c-0.3,0-0.7-0.1-1-0.1
		c0-0.1,0-0.1,0-0.2c0.2-0.2,0.4-0.4,0.7-0.6c-0.2,0-0.4-0.1-0.6-0.1l0,0l0,0c-0.3,0-0.7-0.1-1-0.1c0-0.1,0-0.1,0-0.2
		c0.2-0.2,0.4-0.4,0.7-0.6c-0.2,0-0.4-0.1-0.6-0.1l0,0l0,0c-0.3,0-0.7-0.1-1-0.1c0-0.1,0-0.1,0-0.2c0.2-0.2,0.4-0.4,0.7-0.6
		c-0.2,0-0.4-0.1-0.6-0.1l0,0l0,0c-0.3,0-0.7-0.1-1-0.1c0-0.1,0-0.1,0-0.2c0.2-0.2,0.4-0.4,0.7-0.6c-0.2,0-0.4-0.1-0.6-0.1l0,0l0,0
		c-0.3,0-0.7-0.1-1-0.1c0-0.1,0-0.1,0-0.2c0.2-0.2,0.4-0.4,0.7-0.6c-0.2,0-0.4-0.1-0.6-0.1l0,0l0,0c-0.3,0-0.7-0.1-1-0.1
		c0-0.1,0-0.1,0-0.2c0.2-0.2,0.4-0.4,0.7-0.6c-0.2,0-0.4-0.1-0.6-0.1l0,0l0,0c-0.3,0-0.7-0.1-1-0.1c0-0.1,0-0.1,0-0.2
		c0.2-0.2,0.4-0.4,0.7-0.6c-0.2,0-0.4-0.1-0.6-0.1l0,0l0,0c-0.3,0-0.7-0.1-1-0.1c0-0.1,0-0.1,0-0.2c0.2-0.2,0.4-0.4,0.7-0.6
		c-0.2,0-0.4-0.1-0.6-0.1l0,0l0,0c-0.3,0-0.7-0.1-1-0.1c0-0.1,0-0.1,0-0.2c0.2-0.2,0.4-0.4,0.7-0.6c-0.2,0-0.4-0.1-0.6-0.1l0,0l0,0
		c-0.3,0-0.7-0.1-1-0.1c0-0.1,0-0.1,0-0.2c0.2-0.2,0.4-0.4,0.7-0.6c-0.2,0-0.4-0.1-0.6-0.1l0,0l0,0c-0.3,0-0.7-0.1-1-0.1
		c0-0.1,0-0.1,0-0.2c0.2-0.2,0.4-0.4,0.7-0.6c-0.2,0-0.4-0.1-0.6-0.1l0,0l0,0c-0.3,0-0.7-0.1-1-0.1c0-0.1,0-0.1,0-0.2
		c0.2-0.2,0.4-0.4,0.7-0.6c-0.2,0-0.4-0.1-0.6-0.1l0,0l0,0c-0.3,0-0.7-0.1-1-0.1c0-0.1,0-0.1,0-0.2c0.2-0.2,0.4-0.4,0.7-0.6
		c-0.2,0-0.4-0.1-0.6-0.1l0,0l0,0c-0.3,0-0.7-0.1-1-0.1c0-0.1,0-0.1,0-0.2c0.2-0.2,0.4-0.4,0.7-0.6c-0.2,0-0.4-0.1-0.6-0.1l0,0l0,0
		c-0.3,0-0.7-0.1-1-0.1c0-0.1,0-0.1,0-0.2c0.2-0.2,0.4-0.4,0.7-0.6c-0.2,0-0.4-0.1-0.6-0.1l0,0l0,0c-0.3,0-0.7-0.1-1-0.1
		c0-0.1,0-0.1,0-0.2c0.2-0.2,0.4-0.4,0.7-0.6c-0.2,0-0.4-0.1-0.6-0.1l0,0l0,0c-0.3,0-0.7-0.1-1-0.1c0-0.1,0-0.1,0-0.2
		c0.2-0.2,0.4-0.4,0.7-0.6c-0.2,0-0.4-0.1-0.6-0.1l0,0l0,0c-0.3,0-0.7-0.1-1-0.1c0-0.1,0-0.1,0-0.2c0.2-0.2,0.4-0.4,0.7-0.6
		c-0.2,0-0.4-0.1-0.6-0.1l0,0l0,0c-0.3,0-0.7-0.1-1-0.1c0-0.1,0-0.1,0-0.2c0.2-0.2,0.4-0.4,0.7-0.6c-0.2,0-0.4-0.1-0.6-0.1l0,0l0,0
		c-0.3,0-0.7-0.1-1-0.1c0-0.1,0-0.1,0-0.2c0.2-0.2,0.4-0.4,0.7-0.6c-0.2,0-0.4-0.1-0.6-0.1l0,0l0,0c-0.3,0-0.7-0.1-1-0.1
		c0-0.1,0-0.1,0-0.2c0.2-0.2,0.4-0.4,0.7-0.6c-0.2,0-0.4-0.1-0.6-0.1l0,0l0,0c-0.3,0-0.7-0.1-1-0.1c0-0.1,0-0.1,0-0.2
		c0.2-0.2,0.4-0.4,0.7-0.6c-0.2,0-0.4-0.1-0.6-0.1l0,0l0,0c-0.3,0-0.7-0.1-1-0.1c0-0.1,0-0.1,0-0.2c0.2-0.2,0.4-0.4,0.7-0.6
		c-0.2,0-0.4-0.1-0.6-0.1l0,0l0,0c-0.3,0-0.7-0.1-1-0.1c0-0.1,0-0.1,0-0.2c0.2-0.2,0.4-0.4,0.7-0.6c-0.2,0-0.4-0.1-0.6-0.1l0,0l0,0
		c-0.3,0-0.7-0.1-1-0.1c0-0.1,0-0.1,0-0.2c0.2-0.2,0.4-0.4,0.7-0.6c-0.2,0-0.4-0.1-0.6-0.1l0,0l0,0c-0.3,0-0.7-0.1-1-0.1
		c0-0.1,0-0.1,0-0.2c0.2-0.2,0.4-0.4,0.7-0.6c-0.2,0-0.4-0.1-0.6-0.1l0,0l0,0c-0.3,0-0.7-0.1-1-0.1c0-0.1,0-0.1,0-0.2
		c0.2-0.2,0.4-0.4,0.7-0.6c-0.2,0-0.4-0.1-0.6-0.1l0,0l0,0c-0.3,0-0.7-0.1-1-0.1c0-0.1,0-0.1,0-0.2c0.2-0.2,0.4-0.4,0.7-0.6
		c-0.2,0-0.4-0.1-0.6-0.1l0,0l0,0c-0.3,0-0.7-0.1-1-0.1c0-0.1,0-0.1,0-0.2c0.2-0.2,0.4-0.4,0.7-0.6c-0.2,0-0.4-0.1-0.6-0.1l0,0l0,0
		c-0.3,0-0.7-0.1-1-0.1c0-0.1,0-0.1,0-0.2c0.2-0.2,0.4-0.4,0.7-0.6c-0.2,0-0.4-0.1-0.6-0.1l0,0l0,0c-0.3,0-0.7-0.1-1-0.1
		c0-0.1,0-0.1,0-0.2c0.2-0.2,0.4-0.4,0.7-0.6c-0.2,0-0.4-0.1-0.6-0.1l0,0l0,0c-0.3,0-0.7-0.1-1-0.1c0-0.1,0-0.1,0-0.2
		c0.2-0.2,0.4-0.4,0.7-0.6c-0.2,0-0.4-0.1-0.6-0.1l0,0l0,0c-0.3,0-0.7-0.1-1-0.1c0-0.1,0-0.1,0-0.2c0.2-0.2,0.4-0.4,0.7-0.6
		c-0.2,0-0.4-0.1-0.6-0.1l0,0l0,0c-0.3,0-0.7-0.1-1-0.1c0-0.1,0-0.1,0-0.2c0.2-0.2,0.4-0.4,0.7-0.6c-0.2,0-0.4-0.1-0.6-0.1l0,0l0,0
		c-0.3,0-0.7-0.1-1-0.1c0-0.1,0-0.1,0-0.2c0.2-0.2,0.4-0.4,0.7-0.6c-0.2,0-0.4-0.1-0.6-0.1l0,0l0,0c-0.3,0-0.7-0.1-1-0.1
		c0-0.1,0-0.1,0-0.2c0.2-0.2,0.4-0.4,0.7-0.6c-0.2,0-0.4-0.1-0.6-0.1l0,0l0,0c-0.3,0-0.7-0.1-1-0.1c0-0.1,0-0.1,0-0.2
		c0.2-0.2,0.4-0.4,0.7-0.6c-0.2,0-0.4-0.1-0.6-0.1l0,0l0,0c-0.3,0-0.7-0.1-1-0.1c0-0.1,0-0.1,0-0.2c0.2-0.2,0.4-0.4,0.7-0.6
		c-0.2,0-0.4-0.1-0.6-0.1l0,0l0,0c-0.3,0-0.7-0.1-1-0.1c0-0.1,0-0.1,0-0.2c0.2-0.2,0.4-0.4,0.7-0.6c-0.2,0-0.4-0.1-0.6-0.1l0,0l0,0
		c-0.3,0-0.7-0.1-1-0.1c0-0.1,0-0.1,0-0.2c0.2-0.2,0.4-0.4,0.7-0.6c-0.2,0-0.4-0.1-0.6-0.1l0,0l0,0c-0.3,0-0.7-0.1-1-0.1
		c0-0.1,0-0.1,0-0.2c0.2-0.2,0.4-0.4,0.7-0.6c-0.2,0-0.4-0.1-0.6-0.1l0,0l0,0c-0.3,0-0.7-0.1-1-0.1c0-0.1,0-0.1,0-0.2
		c0.2-0.2,0.4-0.4,0.7-0.6c-0.2,0-0.4-0.1-0.6-0.1l0,0l0,0c-0.3,0-0.7-0.1-1-0.1c0-0.1,0-0.1,0-0.2c0.2-0.2,0.4-0.4,0.7-0.6
		c-0.2,0-0.4-0.1-0.6-0.1l0,0l0,0c-0.3,0-0.7-0.1-1-0.1c0-0.1,0-0.1,0-0.2c0.2-0.2,0.4-0.4,0.7-0.6c-0.2,0-0.4-0.1-0.6-0.1l0,0l0,0
		c-0.3,0-0.7-0.1-1-0.1c0-0.1,0-0.1,0-0.2c0.2-0.2,0.4-0.4,0.7-0.6c-0.2,0-0.4-0.1-0.6-0.1l0,0l0,0c-0.3,0-0.7-0.1-1-0.1
		c0-0.1,0-0.1,0-0.2c0.2-0.2,0.4-0.4,0.7-0.6c-0.2,0-0.4-0.1-0.6-0.1l0,0l0,0c-0.3,0-0.7-0.1-1-0.1c0-0.1,0-0.1,0-0.2
		c0.2-0.2,0.4-0.4,0.7-0.6c-0.2,0-0.4-0.1-0.6-0.1l0,0l0,0c-0.3,0-0.7-0.1-1-0.1c0-0.1,0-0.1,0-0.2c0.2-0.2,0.4-0.4,0.7-0.6
		c-0.2,0-0.4-0.1-0.6-0.1l0,0l0,0c-0.3,0-0.7-0.1-1-0.1c0-0.1,0-0.1,0-0.2c0.2-0.2,0.4-0.4,0.7-0.6c-0.2,0-0.4-0.1-0.6-0.1l0,0l0,0
		c-0.3,0-0.7-0.1-1-0.1c0-0.1,0-0.1,0-0.2c0.2-0.2,0.4-0.4,0.7-0.6c-0.2,0-0.4-0.1-0.6-0.1l0,0l0,0c-0.3,0-0.7-0.1-1-0.1
		c0-0.1,0-0.1,0-0.2c0.2-0.2,0.4-0.4,0.7-0.6c-0.2,0-0.4-0.1-0.6-0.1l0,0l0,0c-0.3,0-0.7-0.1-1-0.1c0-0.1,0-0.1,0-0.2
		c0.2-0.2,0.4-0.4,0.7-0.6c-0.2,0-0.4-0.1-0.6-0.1l0,0l0,0c-0.3,0-0.7-0.1-1-0.1c0-0.1,0-0.1,0-0.2c0.2-0.2,0.4-0.4,0.7-0.6
		c-0.2,0-0.4-0.1-0.6-0.1l0,0l0,0c-0.3,0-0.7-0.1-1-0.1c0-0.1,0-0.1,0-0.2c0.2-0.2,0.4-0.4,0.7-0.6c-0.2,0-0.4-0.1-0.6-0.1l0,0l0,0
		c-0.3,0-0.7-0.1-1-0.1c0-0.1,0-0.1,0-0.2c0.2-0.2,0.4-0.4,0.7-0.6c-0.2,0-0.4-0.1-0.6-0.1l0,0l0,0c-0.3,0-0.7-0.1-1-0.1
		c0-0.1,0-0.1,0-0.2c0.2-0.2,0.4-0.4,0.7-0.6c-0.2,0-0.4-0.1-0.6-0.1l0,0l0,0c-0.3,0-0.7-0.1-1-0.1c0-0.1,0-0.1,0-0.2
		c0.2-0.2,0.4-0.4,0.7-0.6c-0.2,0-0.4-0.1-0.6-0.1l0,0l0,0c-0.3,0-0.7-0.1-1-0.1c0-0.1,0-0.1,0-0.2c0.2-0.2,0.4-0.4,0.7-0.6
		c-0.2,0-0.4-0.1-0.6-0.1l0,0l0,0c-0.3,0-0.7-0.1-1-0.1c0-0.1,0-0.1,0-0.2c0.2-0.2,0.4-0.4,0.7-0.6c-0.2,0-0.4-0.1-0.6-0.1l0,0l0,0
		c-0.3,0-0.7-0.1-1-0.1c0-0.1,0-0.1,0-0.2c0.2-0.2,0.4-0.4,0.7-0.6c-0.2,0-0.4-0.1-0.6-0.1l0,0l0,0c-0.3,0-0.7-0.1-1-0.1
		c0-0.1,0-0.1,0-0.2c0.2-0.2,0.4-0.4,0.7-0.6c-0.2,0-0.4-0.1-0.6-0.1l0,0l0,0c-0.3,0-0.7-0.1-1-0.1c0-0.1,0-0.1,0-0.2
		c0.2-0.2,0.4-0.4,0.7-0.6c-0.2,0-0.4-0.1-0.6-0.1l0,0l0,0c-0.3,0-0.7-0.1-1-0.1c0-0.1,0-0.1,0-0.2c0.2-0.2,0.4-0.4,0.7-0.6
		c-0.2,0-0.4-0.1-0.6-0.1l0,0l0,0c-0.3,0-0.7-0.1-1-0.1c0-0.1,0-0.1,0-0.2c0.2-0.2,0.4-0.4,0.7-0.6c-0.2,0-0.4-0.1-0.6-0.1l0,0l0,0
		c-0.3,0-0.7-0.1-1-0.1c0-0.1,0-0.1,0-0.2c0.2-0.2,0.4-0.4,0.7-0.6c-0.2,0-0.4-0.1-0.6-0.1l0,0l0,0c-0.3,0-0.7-0.1-1-0.1
		c0-0.1,0-0.1,0-0.2c0.2-0.2,0.4-0.4,0.7-0.6c-0.2,0-0.4-0.1-0.6-0.1l0,0l0,0c-0.3,0-0.7-0.1-1-0.1c0-0.1,0-0.1,0-0.2
		c0.2-0.2,0.4-0.4,0.7-0.6c-0.2,0-0.4-0.1-0.6-0.1l0,0l0,0c-0.3,0-0.7-0.1-1-0.1c0-0.1,0-0.1,0-0.2c0.2-0.2,0.4-0.4,0.7-0.6
		c-0.2,0-0.4-0.1-0.6-0.1l0,0l0,0c-0.3,0-0.7-0.1-1-0.1c0-0.1,0-0.1,0-0.2c0.2-0.2,0.4-0.4,0.7-0.6c-0.2,0-0.4-0.1-0.6-0.1l0,0l0,0
		c-0.3,0-0.7-0.1-1-0.1c0-0.1,0-0.1,0-0.2c0.2-0.2,0.4-0.4,0.7-0.6c-0.2,0-0.4-0.1-0.6-0.1l0,0l0,0c-0.3,0-0.7-0.1-1-0.1
		c0-0.1,0-0.1,0-0.2c0.2-0.2,0.4-0.4,0.7-0.6c-0.2,0-0.4-0.1-0.6-0.1l0,0l0,0c-0.3,0-0.7-0.1-1-0.1c0-0.1,0-0.1,0-0.2
		c0.2-0.2,0.4-0.4,0.7-0.6c-0.2,0-0.4-0.1-0.6-0.1l0,0l0,0c-0.3,0-0.7-0.1-1-0.1c0-0.1,0-0.1,0-0.2c0.2-0.2,0.4-0.4,0.7-0.6
		c-0.2,0-0.4-0.1-0.6-0.1l0,0l0,0c-0.3,0-0.7-0.1-1-0.1c0-0.1,0-0.1,0-0.2c0.2-0.2,0.4-0.4,0.7-0.6c-0.2,0-0.4-0.1-0.6-0.1l0,0l0,0
		c-0.3,0-0.7-0.1-1-0.1c0-0.1,0-0.1,0-0.2c0.2-0.2,0.4-0.4,0.7-0.6c-0.2,0-0.4-0.1-0.6-0.1l0,0l0,0c-0.3,0-0.7-0.1-1-0.1
		c0-0.1,0-0.1,0-0.2c0.2-0.2,0.4-0.4,0.7-0.6c-0.2,0-0.4-0.1-0.6-0.1l0,0l0,0c-0.3,0-0.7-0.1-1-0.1c0-0.1,0-0.1,0-0.2
		c0.2-0.2,0.4-0.4,0.7-0.6c-0.2,0-0.4-0.1-0.6-0.1l0,0l0,0c-0.3,0-0.7-0.1-1-0.1c0-0.1,0-0.1,0-0.2c0.2-0.2,0.4-0.4,0.7-0.6
		c-0.2,0-0.4-0.1-0.6-0.1l0,0l0,0c-0.3,0-0.7-0.1-1-0.1c0-0.1,0-0.1,0-0.2c0.2-0.2,0.4-0.4,0.7-0.6c-0.2,0-0.4-0.1-0.6-0.1l0,0l0,0
		c-0.3,0-0.7-0.1-1-0.1c0-0.1,0-0.1,0-0.2c0.2-0.2,0.4-0.4,0.7-0.6c-0.2,0-0.4-0.1-0.6-0.1l0,0l0,0c-0.3,0-0.7-0.1-1-0.1
		c0-0.1,0-0.1,0-0.2c0.2-0.2,0.4-0.4,0.7-0.6c-0.2,0-0.4-0.1-0.6-0.1l0,0l0,0c-0.3,0-0.7-0.1-1-0.1c0-0.1,0-0.1,0-0.2
		c0.2-0.2,0.4-0.4,0.7-0.6c-0.2,0-0.4-0.1-0.6-0.1l0,0l0,0c-0.3,0-0.7-0.1-1-0.1c0-0.1,0-0.1,0-0.2c0.2-0.2,0.4-0.4,0.7-0.6
		c-0.2,0-0.4-0.1-0.6-0.1l0,0l0,0c-0.3,0-0.7-0.1-1-0.1c0-0.1,0-0.1,0-0.2c0.2-0.2,0.4-0.4,0.7-0.6c-0.2,0-0.4-0.1-0.6-0.1l0,0l0,0
		c-0.3,0-0.7-0.1-1-0.1c0-0.1,0-0.1,0-0.2c0.2-0.2,0.4-0.4,0.7-0.6c-0.2,0-0.4-0.1-0.6-0.1l0,0l0,0c-0.3,0-0.7-0.1-1-0.1
		c0-0.1,0-0.1,0-0.2c0.2-0.2,0.4-0.4,0.7-0.6c-0.2,0-0.4-0.1-0.6-0.1l0,0l0,0c-0.3,0-0.7-0.1-1-0.1c0-0.1,0-0.1,0-0.2
		c0.2-0.2,0.4-0.4,0.7-0.6c-0.2,0-0.4-0.1-0.6-0.1l0,0l0,0c-0.3,0-0.7-0.1-1-0.1c0-0.1,0-0.1,0-0.2c0.2-0.2,0.4-0.4,0.7-0.6
		c-0.2,0-0.4-0.1-0.6-0.1l0,0l0,0c-0.3,0-0.7-0.1-1-0.1c0-0.1,0-0.1,0-0.2c0.2-0.2,0.4-0.4,0.7-0.6c-0.2,0-0.4-0.1-0.6-0.1l0,0l0,0
		c-0.3,0-0.7-0.1-1-0.1c0-0.1,0-0.1,0-0.2c0.2-0.2,0.4-0.4,0.7-0.6c-0.2,0-0.4-0.1-0.6-0.1l0,0l0,0c-0.3,0-0.7-0.1-1-0.1
		c0-0.1,0-0.1,0-0.2c0.2-0.2,0.4-0.4,0.7-0.6c-0.2,0-0.4-0.1-0.6-0.1l0,0l0,0c-0.3,0-0.7-0.1-1-0.1c0-0.1,0-0.1,0-0.2
		c0.2-0.2,0.4-0.4,0.7-0.6c-0.2,0-0.4-0.1-0.6-0.1l0,0l0,0c-0.3,0-0.7-0.1-1-0.1c0-0.1,0-0.1,0-0.2c0.2-0.2,0.4-0.4,0.7-0.6
		c-0.2,0-0.4-0.1-0.6-0.1l0,0l0,0c-0.3,0-0.7-0.1-1-0.1c0-0.1,0-0.1,0-0.2c0.2-0.2,0.4-0.4,0.7-0.6c-0.2,0-0.4-0.1-0.6-0.1l0,0l0,0
		c-0.3,0-0.7-0.1-1-0.1c0-0.1,0-0.1,0-0.2c0.2-0.2,0.4-0.4,0.7-0.6c-0.2,0-0.4-0.1-0.6-0.1l0,0l0,0c-0.3,0-0.7-0.1-1-0.1
		c0-0.1,0-0.1,0-0.2c0.2-0.2,0.4-0.4,0.7-0.6c-0.2,0-0.4-0.1-0.6-0.1l0,0l0,0c-0.3,0-0.7-0.1-1-0.1c0-0.1,0-0.1,0-0.2
		c0.2-0.2,0.4-0.4,0.7-0.6c-0.2,0-0.4-0.1-0.6-0.1l0,0l0,0c-0.3,0-0.7-0.1-1-0.1c0-0.1,0-0.1,0-0.2c0.2-0.2,0.4-0.4,0.7-0.6
		c-0.2,0-0.4-0.1-0.6-0.1l0,0l0,0c-0.3,0-0.7-0.1-1-0.1c0-0.1,0-0.1,0-0.2c0.2-0.2,0.4-0.4,0.7-0.6c-0.2,0-0.4-0.1-0.6-0.1l0,0l0,0
		c-0.3,0-0.7-0.1-1-0.1c0-0.1,0-0.1,0-0.2c0.2-0.2,0.4-0.4,0.7-0.6c-0.2,0-0.4-0.1-0.6-0.1l0,0l0,0c-0.3,0-0.7-0.1-1-0.1
		c0-0.1,0-0.1,0-0.2c0.2-0.2,0.4-0.4,0.7-0.6c-0.2,0-0.4-0.1-0.6-0.1l0,0l0,0c-0.3,0-0.7-0.1-1-0.1c0-0.1,0-0.1,0-0.2
		c0.2-0.2,0.4-0.4,0.7-0.6c-0.2,0-0.4-0.1-0.6-0.1l0,0l0,0c-0.3,0-0.7-0.1-1-0.1c0-0.1,0-0.1,0-0.2c0.2-0.2,0.4-0.4,0.7-0.6
		c-0.2,0-0.4-0.1-0.6-0.1l0,0l0,0c-0.3,0-0.7-0.1-1-0.1c0-0.1,0-0.1,0-0.2c0.2-0.2,0.4-0.4,0.7-0.6c-0.2,0-0.4-0.1-0.6-0.1l0,0l0,0
		c-0.3,0-0.7-0.1-1-0.1c0-0.1,0-0.1,0-0.2c0.2-0.2,0.4-0.4,0.7-0.6c-0.2,0-0.4-0.1-0.6-0.1l0,0l0,0c-0.3,0-0.7-0.1-1-0.1
		c0-0.1,0-0.1,0-0.2c0.2-0.2,0.4-0.4,0.7-0.6c-0.2,0-0.4-0.1-0.6-0.1l0,0l0,0c-0.3,0-0.7-0.1-1-0.1c0-0.1,0-0.1,0-0.2
		c0.2-0.2,0.4-0.4,0.7-0.6c-0.2,0-0.4-0.1-0.6-0.1l0,0l0,0c-0.3,0-0.7-0.1-1-0.1c0-0.1,0-0.1,0-0.2c0.2-0.2,0.4-0.4,0.7-0.6
		c-0.2,0-0.4-0.1-0.6-0.1l0,0l0,0c-0.3,0-0.7-0.1-1-0.1c0-0.1,0-0.1,0-0.2c0.2-0.2,0.4-0.4,0.7-0.6c-0.2,0-0.4-0.1-0.6-0.1l0,0l0,0
		c-0.3,0-0.7-0.1-1-0.1c0-0.1,0-0.1,0-0.2c0.2-0.2,0.4-0.4,0.7-0.6c-0.2,0-0.4-0.1-0.6-0.1l0,0l0,0c-0.3,0-0.7-0.1-1-0.1
		c0-0.1,0-0.1,0-0.2c0.2-0.2,0.4-0.4,0.7-0.6c-0.2,0-0.4-0.1-0.6-0.1l0,0l0,0c-0.3,0-0.7-0.1-1-0.1c0-0.1,0-0.1,0-0.2
		c0.2-0.2,0.4-0.4,0.7-0.6c-0.2,0-0.4-0.1-0.6-0.1l0,0l0,0c-0.3,0-0.7-0.1-1-0.1c0-0.1,0-0.1,0-0.2c0.2-0.2,0.4-0.4,0.7-0.6
		c-0.2,0-0.4-0.1-0.6-0.1l0,0l0,0c-0.3,0-0.7-0.1-1-0.1c0-0.1,0-0.1,0-0.2c0.2-0.2,0.4-0.4,0.7-0.6c-0.2,0-0.4-0.1-0.6-0.1l0,0l0,0
		c-0.3,0-0.7-0.1-1-0.1c0-0.1,0-0.1,0-0.2c0.2-0.2,0.4-0.4,0.7-0.6c-0.2,0-0.4-0.1-0.6-0.1l0,0l0,0c-0.3,0-0.7-0.1-1-0.1
		c0-0.1,0-0.1,0-0.2c0.2-0.2,0.4-0.4,0.7-0.6c-0.2,0-0.4-0.1-0.6-0.1l0,0l0,0c-0.3,0-0.7-0.1-1-0.1c0-0.1,0-0.1,0-0.2
		c0.2-0.2,0.4-0.4,0.7-0.6c-0.2,0-0.4-0.1-0.6-0.1l0,0l0,0c-0.3,0-0.7-0.1-1-0.1c0-0.1,0-0.1,0-0.2c0.2-0.2,0.4-0.4,0.7-0.6
		c-0.2,0-0.4-0.1-0.6-0.1l0,0l0,0c-0.3,0-0.7-0.1-1-0.1c0-0.1,0-0.1,0-0.2c0.2-0.2,0.4-0.4,0.7-0.6c-0.2,0-0.4-0.1-0.6-0.1l0,0l0,0
		c-0.3,0-0.7-0.1-1-0.1c0-0.1,0-0.1,0-0.2c0.2-0.2,0.4-0.4,0.7-0.6c-0.2,0-0.4-0.1-0.6-0.1l0,0l0,0c-0.3,0-0.7-0.1-1-0.1
		c0-0.1,0-0.1,0-0.2c0.2-0.2,0.4-0.4,0.7-0.6c-0.2,0-0.4-0.1-0.6-0.1l0,0l0,0c-0.3,0-0.7-0.1-1-0.1c0-0.1,0-0.1,0-0.2
		c0.2-0.2,0.4-0.4,0.7-0.6c-0.2,0-0.4-0.1-0.6-0.1l0,0l0,0c-0.3,0-0.7-0.1-1-0.1c0-0.1,0-0.1,0-0.2c0.2-0.2,0.4-0.4,0.7-0.6
		c-0.2,0-0.4-0.1-0.6-0.1l0,0l0,0c-0.3,0-0.7-0.1-1-0.1c0-0.1,0-0.1,0-0.2c0.2-0.2,0.4-0.4,0.7-0.6c-0.2,0-0.4-0.1-0.6-0.1l0,0l0,0
		c-0.3,0-0.7-0.1-1-0.1c0-0.1,0-0.1,0-0.2c0.2-0.2,0.4-0.4,0.7-0.6c-0.2,0-0.4-0.1-0.6-0.1l0,0l0,0c-0.3,0-0.7-0.1-1-0.1
		c0-0.1,0-0.1,0-0.2c0.2-0.2,0.4-0.4,0.7-0.6c-0.2,0-0.4-0.1-0.6-0.1l0,0l0,0c-0.3,0-0.7-0.1-1-0.1c0-0.1,0-0.1,0-0.2
		c0.2-0.2,0.4-0.4,0.7-0.6c-0.2,0-0.4-0.1-0.6-0.1l0,0l0,0c-34.3-4.8-68.6-9.6-102.9-14.4c-0.2-0.3-0.5-0.5-0.8-0.8s-0.6-0.7-1-1
		c-0.3-0.3-0.6-0.7-1-1c-0.3-0.3-0.6-0.7-1-1c-0.3-0.3-0.6-0.7-1-1c-0.3-0.3-0.6-0.7-1-1c-0.3-0.3-0.6-0.7-1-1c-0.3-0.3-0.6-0.7-1-1
		c-0.3-0.3-0.6-0.7-1-1c-0.3-0.3-0.6-0.7-1-1c-0.3-0.3-0.6-0.7-1-1c-0.3-0.3-0.6-0.7-1-1c-0.3-0.3-0.6-0.7-1-1c-0.3-0.3-0.6-0.7-1-1
		c-0.3-0.3-0.6-0.7-1-1c-0.3-0.3-0.6-0.7-1-1c-0.3-0.3-0.6-0.7-1-1c-0.3-0.3-0.6-0.7-1-1c-0.3-0.3-0.6-0.7-1-1c-0.3-0.3-0.6-0.7-1-1
		c-0.3-0.3-0.6-0.7-1-1c-0.3-0.3-0.6-0.7-1-1c-9.5-10.4-43-18.1-83-18.1c-34.9,0-64.9,5.9-78.3,14.3c-10.7-1.5-21.4-3-32.2-4.5
		c-24.2,24.9-48.3,49.7-72.6,74.6c0.6,0.1,1.2,0.1,1.8,0.2c-0.2,0.2-0.3,0.3-0.5,0.5c-0.6-0.1-1.3-0.2-1.9-0.2
		c1,61.8,1.9,123.7,2.9,185.5c-0.2,0-0.3,0-0.5-0.1c-1.6,7.6-3.2,15.2-4.7,22.8c0.4,0.1,0.8,0.1,1.2,0.2c-0.1,0.3-0.1,0.6-0.2,0.8
		c0.4,0.1,0.8,0.1,1.2,0.2c-0.1,0.3-0.1,0.6-0.2,0.8c0.4,0.1,0.8,0.1,1.2,0.2c-0.1,0.3-0.1,0.6-0.2,0.8c0.4,0.1,0.8,0.1,1.2,0.2
		c-0.1,0.3-0.1,0.6-0.2,0.8c0.4,0.1,0.8,0.1,1.2,0.2c-0.1,0.3-0.1,0.6-0.2,0.8c0.4,0.1,0.8,0.1,1.2,0.2c-0.1,0.3-0.1,0.6-0.2,0.8
		c0.4,0.1,0.8,0.1,1.2,0.2c-0.1,0.3-0.1,0.6-0.2,0.8c0.4,0.1,0.8,0.1,1.2,0.2c-0.1,0.3-0.1,0.6-0.2,0.8c0.4,0.1,0.8,0.1,1.2,0.2
		c-0.1,0.3-0.1,0.6-0.2,0.8c0.4,0.1,0.8,0.1,1.2,0.2c-0.1,0.3-0.1,0.6-0.2,0.8c0.4,0.1,0.8,0.1,1.2,0.2c-0.1,0.3-0.1,0.6-0.2,0.8
		c0.4,0.1,0.8,0.1,1.2,0.2c-0.1,0.3-0.1,0.6-0.2,0.8c0.4,0.1,0.8,0.1,1.2,0.2c-0.1,0.3-0.1,0.6-0.2,0.8c0.4,0.1,0.8,0.1,1.2,0.2
		c-0.1,0.3-0.1,0.6-0.2,0.8c0.4,0.1,0.8,0.1,1.2,0.2c-0.1,0.3-0.1,0.6-0.2,0.8c0.4,0.1,0.8,0.1,1.2,0.2c-0.1,0.3-0.1,0.6-0.2,0.8
		c0.4,0.1,0.8,0.1,1.2,0.2c-0.1,0.3-0.1,0.6-0.2,0.8c0.4,0.1,0.8,0.1,1.2,0.2c-0.1,0.3-0.1,0.6-0.2,0.8c0.4,0.1,0.8,0.1,1.2,0.2
		c-0.1,0.3-0.1,0.6-0.2,0.8c0.4,0.1,0.8,0.1,1.2,0.2c-0.1,0.3-0.1,0.6-0.2,0.8c0.4,0.1,0.8,0.1,1.2,0.2c-0.1,0.3-0.1,0.6-0.2,0.8
		c0.4,0.1,0.8,0.1,1.2,0.2c-0.1,0.3-0.1,0.6-0.2,0.8c0.4,0.1,0.8,0.1,1.2,0.2c-0.1,0.3-0.1,0.6-0.2,0.8c0.4,0.1,0.8,0.1,1.2,0.2
		c-0.1,0.3-0.1,0.6-0.2,0.8c0.4,0.1,0.8,0.1,1.2,0.2c-0.1,0.3-0.1,0.6-0.2,0.8c0.4,0.1,0.8,0.1,1.2,0.2c-0.1,0.3-0.1,0.6-0.2,0.8
		c0.4,0.1,0.8,0.1,1.2,0.2c-0.1,0.3-0.1,0.6-0.2,0.8c0.4,0.1,0.8,0.1,1.2,0.2c-0.1,0.3-0.1,0.6-0.2,0.8c0.4,0.1,0.8,0.1,1.2,0.2
		c-0.1,0.3-0.1,0.6-0.2,0.8c0.4,0.1,0.8,0.1,1.2,0.2c-0.1,0.3-0.1,0.6-0.2,0.8c0.4,0.1,0.8,0.1,1.2,0.2c-0.1,0.3-0.1,0.6-0.2,0.8
		c0.4,0.1,0.8,0.1,1.2,0.2c-0.1,0.3-0.1,0.6-0.2,0.8c0.4,0.1,0.8,0.1,1.2,0.2c-0.1,0.3-0.1,0.6-0.2,0.8c0.4,0.1,0.8,0.1,1.2,0.2
		c-0.1,0.3-0.1,0.6-0.2,0.8c0.4,0.1,0.8,0.1,1.2,0.2c-0.1,0.3-0.1,0.6-0.2,0.8c0.4,0.1,0.8,0.1,1.2,0.2c-0.1,0.3-0.1,0.6-0.2,0.8
		c0.4,0.1,0.8,0.1,1.2,0.2c-0.1,0.3-0.1,0.6-0.2,0.8c0.4,0.1,0.8,0.1,1.2,0.2c-0.1,0.3-0.1,0.6-0.2,0.8c0.4,0.1,0.8,0.1,1.2,0.2
		c-0.1,0.3-0.1,0.6-0.2,0.8c0.4,0.1,0.8,0.1,1.2,0.2c-0.1,0.3-0.1,0.6-0.2,0.8c0.4,0.1,0.8,0.1,1.2,0.2c-0.1,0.3-0.1,0.6-0.2,0.8
		c0.4,0.1,0.8,0.1,1.2,0.2c-0.1,0.3-0.1,0.6-0.2,0.8c0.4,0.1,0.8,0.1,1.2,0.2c-0.1,0.3-0.1,0.6-0.2,0.8c0.4,0.1,0.8,0.1,1.2,0.2
		c-0.1,0.3-0.1,0.6-0.2,0.8c0.4,0.1,0.8,0.1,1.2,0.2c-0.1,0.3-0.1,0.6-0.2,0.8c0.4,0.1,0.8,0.1,1.2,0.2c-0.1,0.3-0.1,0.6-0.2,0.8
		c0.4,0.1,0.8,0.1,1.2,0.2c-0.1,0.3-0.1,0.6-0.2,0.8c0.4,0.1,0.8,0.1,1.2,0.2c-0.1,0.3-0.1,0.6-0.2,0.8c0.4,0.1,0.8,0.1,1.2,0.2
		c-0.1,0.3-0.1,0.6-0.2,0.8c0.4,0.1,0.8,0.1,1.2,0.2c-0.1,0.3-0.1,0.6-0.2,0.8c0.4,0.1,0.8,0.1,1.2,0.2c-0.1,0.3-0.1,0.6-0.2,0.8
		c0.4,0.1,0.8,0.1,1.2,0.2c-0.1,0.3-0.1,0.6-0.2,0.8c0.4,0.1,0.8,0.1,1.2,0.2c-0.1,0.3-0.1,0.6-0.2,0.8c0.4,0.1,0.8,0.1,1.2,0.2
		c-0.1,0.3-0.1,0.6-0.2,0.8c0.4,0.1,0.8,0.1,1.2,0.2c-0.1,0.3-0.1,0.6-0.2,0.8c0.4,0.1,0.8,0.1,1.2,0.2c-0.1,0.3-0.1,0.6-0.2,0.8
		c0.4,0.1,0.8,0.1,1.2,0.2c-0.1,0.3-0.1,0.6-0.2,0.8c0.4,0.1,0.8,0.1,1.2,0.2c-0.1,0.3-0.1,0.6-0.2,0.8c0.4,0.1,0.8,0.1,1.2,0.2
		c-0.1,0.3-0.1,0.6-0.2,0.8c0.4,0.1,0.8,0.1,1.2,0.2c-0.1,0.3-0.1,0.6-0.2,0.8c0.4,0.1,0.8,0.1,1.2,0.2c-0.1,0.3-0.1,0.6-0.2,0.8
		c0.4,0.1,0.8,0.1,1.2,0.2c-0.1,0.3-0.1,0.6-0.2,0.8c0.4,0.1,0.8,0.1,1.2,0.2c-0.1,0.3-0.1,0.6-0.2,0.8c0.4,0.1,0.8,0.1,1.2,0.2
		c-0.1,0.3-0.1,0.6-0.2,0.8c0.4,0.1,0.8,0.1,1.2,0.2c-0.1,0.3-0.1,0.6-0.2,0.8c0.4,0.1,0.8,0.1,1.2,0.2c-0.1,0.3-0.1,0.6-0.2,0.8
		c0.4,0.1,0.8,0.1,1.2,0.2c-0.1,0.3-0.1,0.6-0.2,0.8c0.4,0.1,0.8,0.1,1.2,0.2c-0.1,0.3-0.1,0.6-0.2,0.8c0.4,0.1,0.8,0.1,1.2,0.2
		c-0.1,0.3-0.1,0.6-0.2,0.8c0.4,0.1,0.8,0.1,1.2,0.2c-0.1,0.3-0.1,0.6-0.2,0.8c0.4,0.1,0.8,0.1,1.2,0.2c-0.1,0.3-0.1,0.6-0.2,0.8
		c0.4,0.1,0.8,0.1,1.2,0.2c-0.1,0.3-0.1,0.6-0.2,0.8c0.4,0.1,0.8,0.1,1.2,0.2c-0.1,0.3-0.1,0.6-0.2,0.8c0.4,0.1,0.8,0.1,1.2,0.2
		c-0.1,0.3-0.1,0.6-0.2,0.8c0.4,0.1,0.8,0.1,1.2,0.2c-0.1,0.3-0.1,0.6-0.2,0.8c0.4,0.1,0.8,0.1,1.2,0.2c-0.1,0.3-0.1,0.6-0.2,0.8
		c0.4,0.1,0.8,0.1,1.2,0.2c-0.1,0.3-0.1,0.6-0.2,0.8c0.4,0.1,0.8,0.1,1.2,0.2c-0.1,0.3-0.1,0.6-0.2,0.8c0.4,0.1,0.8,0.1,1.2,0.2
		c-0.1,0.3-0.1,0.6-0.2,0.8c0.4,0.1,0.8,0.1,1.2,0.2c-0.1,0.3-0.1,0.6-0.2,0.8c0.4,0.1,0.8,0.1,1.2,0.2c-0.1,0.3-0.1,0.6-0.2,0.8
		c0.4,0.1,0.8,0.1,1.2,0.2c-0.1,0.3-0.1,0.6-0.2,0.8c0.4,0.1,0.8,0.1,1.2,0.2c-0.1,0.3-0.1,0.6-0.2,0.8c0.4,0.1,0.8,0.1,1.2,0.2
		c-0.1,0.3-0.1,0.6-0.2,0.8c0.4,0.1,0.8,0.1,1.2,0.2c-0.1,0.3-0.1,0.6-0.2,0.8c0.4,0.1,0.8,0.1,1.2,0.2c-0.1,0.3-0.1,0.6-0.2,0.8
		c0.4,0.1,0.8,0.1,1.2,0.2c-0.1,0.3-0.1,0.6-0.2,0.8c0.4,0.1,0.8,0.1,1.2,0.2c-0.1,0.3-0.1,0.6-0.2,0.8c0.4,0.1,0.8,0.1,1.2,0.2
		c-0.1,0.3-0.1,0.6-0.2,0.8c0.4,0.1,0.8,0.1,1.2,0.2c-0.1,0.3-0.1,0.6-0.2,0.8c0.4,0.1,0.8,0.1,1.2,0.2c-0.1,0.3-0.1,0.6-0.2,0.8
		c0.4,0.1,0.8,0.1,1.2,0.2c-0.1,0.3-0.1,0.6-0.2,0.8c0.4,0.1,0.8,0.1,1.2,0.2c-0.1,0.3-0.1,0.6-0.2,0.8c0.4,0.1,0.8,0.1,1.2,0.2
		c-0.1,0.3-0.1,0.6-0.2,0.8c0.4,0.1,0.8,0.1,1.2,0.2c-0.1,0.3-0.1,0.6-0.2,0.8c0.4,0.1,0.8,0.1,1.2,0.2c-0.1,0.3-0.1,0.6-0.2,0.8
		c0.4,0.1,0.8,0.1,1.2,0.2c-0.1,0.3-0.1,0.6-0.2,0.8c0.4,0.1,0.8,0.1,1.2,0.2c-0.1,0.3-0.1,0.6-0.2,0.8c0.4,0.1,0.8,0.1,1.2,0.2
		c-0.1,0.3-0.1,0.6-0.2,0.8c0.4,0.1,0.8,0.1,1.2,0.2c-0.1,0.3-0.1,0.6-0.2,0.8c0.4,0.1,0.8,0.1,1.2,0.2c-0.1,0.3-0.1,0.6-0.2,0.8
		c0.4,0.1,0.8,0.1,1.2,0.2c-0.1,0.3-0.1,0.6-0.2,0.8c0.4,0.1,0.8,0.1,1.2,0.2c-0.1,0.3-0.1,0.6-0.2,0.8c0.4,0.1,0.8,0.1,1.2,0.2
		c-0.1,0.3-0.1,0.6-0.2,0.8c0.4,0.1,0.8,0.1,1.2,0.2c-0.1,0.3-0.1,0.6-0.2,0.8c0.4,0.1,0.8,0.1,1.2,0.2c-0.1,0.3-0.1,0.6-0.2,0.8
		c0.4,0.1,0.8,0.1,1.2,0.2c-0.1,0.3-0.1,0.6-0.2,0.8c0.4,0.1,0.8,0.1,1.2,0.2c-0.1,0.3-0.1,0.6-0.2,0.8c0.4,0.1,0.8,0.1,1.2,0.2
		c-0.1,0.3-0.1,0.6-0.2,0.8c0.4,0.1,0.8,0.1,1.2,0.2c-0.1,0.3-0.1,0.6-0.2,0.8c0.4,0.1,0.8,0.1,1.2,0.2c-0.1,0.3-0.1,0.6-0.2,0.8
		c0.4,0.1,0.8,0.1,1.2,0.2c-0.1,0.3-0.1,0.6-0.2,0.8c0.4,0.1,0.8,0.1,1.2,0.2c-0.1,0.3-0.1,0.6-0.2,0.8c0.4,0.1,0.8,0.1,1.2,0.2
		c-0.1,0.3-0.1,0.6-0.2,0.8c0.4,0.1,0.8,0.1,1.2,0.2c-0.1,0.3-0.1,0.6-0.2,0.8c0.4,0.1,0.8,0.1,1.2,0.2c-0.1,0.3-0.1,0.6-0.2,0.8
		c0.4,0.1,0.8,0.1,1.2,0.2c-0.1,0.3-0.1,0.6-0.2,0.8c0.4,0.1,0.8,0.1,1.2,0.2c-0.1,0.3-0.1,0.6-0.2,0.8c0.4,0.1,0.8,0.1,1.2,0.2
		c-0.1,0.3-0.1,0.6-0.2,0.8c0.4,0.1,0.8,0.1,1.2,0.2c-0.1,0.3-0.1,0.6-0.2,0.8c0.4,0.1,0.8,0.1,1.2,0.2c-0.1,0.3-0.1,0.6-0.2,0.8
		c0.4,0.1,0.8,0.1,1.2,0.2c-0.1,0.3-0.1,0.6-0.2,0.8c0.4,0.1,0.8,0.1,1.2,0.2c-0.1,0.3-0.1,0.6-0.2,0.8c0.4,0.1,0.8,0.1,1.2,0.2
		c-0.1,0.3-0.1,0.6-0.2,0.8c0.4,0.1,0.8,0.1,1.2,0.2c-0.1,0.3-0.1,0.6-0.2,0.8c0.4,0.1,0.8,0.1,1.2,0.2c-0.1,0.3-0.1,0.6-0.2,0.8
		c0.4,0.1,0.8,0.1,1.2,0.2c-0.1,0.3-0.1,0.6-0.2,0.8c0.4,0.1,0.8,0.1,1.2,0.2c-0.1,0.3-0.1,0.6-0.2,0.8c0.4,0.1,0.8,0.1,1.2,0.2
		c-0.1,0.3-0.1,0.6-0.2,0.8c0.4,0.1,0.8,0.1,1.2,0.2c-0.1,0.3-0.1,0.6-0.2,0.8c0.4,0.1,0.8,0.1,1.2,0.2c-0.1,0.3-0.1,0.6-0.2,0.8
		c0.4,0.1,0.8,0.1,1.2,0.2c-0.1,0.3-0.1,0.6-0.2,0.8c0.4,0.1,0.8,0.1,1.2,0.2c-0.1,0.3-0.1,0.6-0.2,0.8c0.4,0.1,0.8,0.1,1.2,0.2
		c-0.1,0.3-0.1,0.6-0.2,0.8c0.4,0.1,0.8,0.1,1.2,0.2c-0.1,0.3-0.1,0.6-0.2,0.8c0.4,0.1,0.8,0.1,1.2,0.2c-0.1,0.3-0.1,0.6-0.2,0.8
		c0.4,0.1,0.8,0.1,1.2,0.2c-0.1,0.3-0.1,0.6-0.2,0.8c0.4,0.1,0.8,0.1,1.2,0.2c-0.1,0.3-0.1,0.6-0.2,0.8c0.4,0.1,0.8,0.1,1.2,0.2
		c-0.1,0.3-0.1,0.6-0.2,0.8c0.4,0.1,0.8,0.1,1.2,0.2c-0.1,0.3-0.1,0.6-0.2,0.8c0.4,0.1,0.8,0.1,1.2,0.2c-0.1,0.3-0.1,0.6-0.2,0.8
		c0.4,0.1,0.8,0.1,1.2,0.2c-0.1,0.3-0.1,0.6-0.2,0.8c0.4,0.1,0.8,0.1,1.2,0.2c-0.1,0.3-0.1,0.6-0.2,0.8c0.4,0.1,0.8,0.1,1.2,0.2
		c-0.1,0.3-0.1,0.6-0.2,0.8c0.4,0.1,0.8,0.1,1.2,0.2c-0.1,0.3-0.1,0.6-0.2,0.8c0.4,0.1,0.8,0.1,1.2,0.2c-0.1,0.3-0.1,0.6-0.2,0.8
		c0.4,0.1,0.8,0.1,1.2,0.2c-0.1,0.3-0.1,0.6-0.2,0.8c0.4,0.1,0.8,0.1,1.2,0.2c-0.1,0.3-0.1,0.6-0.2,0.8c0.4,0.1,0.8,0.1,1.2,0.2
		c-0.1,0.3-0.1,0.6-0.2,0.8c0.4,0.1,0.8,0.1,1.2,0.2c-0.1,0.3-0.1,0.6-0.2,0.8c0.4,0.1,0.8,0.1,1.2,0.2c-0.1,0.3-0.1,0.6-0.2,0.8
		c0.4,0.1,0.8,0.1,1.2,0.2c-0.1,0.3-0.1,0.6-0.2,0.8c0.4,0.1,0.8,0.1,1.2,0.2c-0.1,0.3-0.1,0.6-0.2,0.8c0.4,0.1,0.8,0.1,1.2,0.2
		c-0.1,0.3-0.1,0.6-0.2,0.8c0.4,0.1,0.8,0.1,1.2,0.2c-0.1,0.3-0.1,0.6-0.2,0.8c0.4,0.1,0.8,0.1,1.2,0.2c-0.1,0.3-0.1,0.6-0.2,0.8
		c0.4,0.1,0.8,0.1,1.2,0.2c-0.1,0.3-0.1,0.6-0.2,0.8c0.4,0.1,0.8,0.1,1.2,0.2c-0.1,0.3-0.1,0.6-0.2,0.8c0.4,0.1,0.8,0.1,1.2,0.2
		c-0.1,0.3-0.1,0.6-0.2,0.8c0.4,0.1,0.8,0.1,1.2,0.2c-0.1,0.3-0.1,0.6-0.2,0.8c0.4,0.1,0.8,0.1,1.2,0.2c-0.1,0.3-0.1,0.6-0.2,0.8
		c0.4,0.1,0.8,0.1,1.2,0.2c-0.1,0.3-0.1,0.6-0.2,0.8c0.4,0.1,0.8,0.1,1.2,0.2c-0.1,0.3-0.1,0.6-0.2,0.8c0.4,0.1,0.8,0.1,1.2,0.2
		c-0.1,0.3-0.1,0.6-0.2,0.8c0.4,0.1,0.8,0.1,1.2,0.2c-0.1,0.3-0.1,0.6-0.2,0.8c0.4,0.1,0.8,0.1,1.2,0.2c-0.1,0.3-0.1,0.6-0.2,0.8
		c0.4,0.1,0.8,0.1,1.2,0.2c-0.1,0.3-0.1,0.6-0.2,0.8c0.4,0.1,0.8,0.1,1.2,0.2c-0.1,0.3-0.1,0.6-0.2,0.8c0.4,0.1,0.8,0.1,1.2,0.2
		c-0.1,0.3-0.1,0.6-0.2,0.8c0.4,0.1,0.8,0.1,1.2,0.2c-0.1,0.3-0.1,0.6-0.2,0.8c0.4,0.1,0.8,0.1,1.2,0.2c-0.1,0.3-0.1,0.6-0.2,0.8
		c0.4,0.1,0.8,0.1,1.2,0.2c-0.1,0.3-0.1,0.6-0.2,0.8c0.4,0.1,0.8,0.1,1.2,0.2c-0.1,0.3-0.1,0.6-0.2,0.8c0.4,0.1,0.8,0.1,1.2,0.2
		c-0.1,0.3-0.1,0.6-0.2,0.8c0.4,0.1,0.8,0.1,1.2,0.2c-0.1,0.3-0.1,0.6-0.2,0.8c0.4,0.1,0.8,0.1,1.2,0.2c-0.1,0.3-0.1,0.6-0.2,0.8
		c0.4,0.1,0.8,0.1,1.2,0.2c-0.1,0.3-0.1,0.6-0.2,0.8c0.4,0.1,0.8,0.1,1.2,0.2c-0.1,0.3-0.1,0.6-0.2,0.8c0.4,0.1,0.8,0.1,1.2,0.2
		c-0.1,0.3-0.1,0.6-0.2,0.8c0.4,0.1,0.8,0.1,1.2,0.2c-0.1,0.3-0.1,0.6-0.2,0.8c0.4,0.1,0.8,0.1,1.2,0.2c-0.1,0.3-0.1,0.6-0.2,0.8
		c0.4,0.1,0.8,0.1,1.2,0.2c-0.1,0.3-0.1,0.6-0.2,0.8c0.4,0.1,0.8,0.1,1.2,0.2c-0.1,0.3-0.1,0.6-0.2,0.8c0.4,0.1,0.8,0.1,1.2,0.2
		c-0.1,0.3-0.1,0.6-0.2,0.8c0.4,0.1,0.8,0.1,1.2,0.2c-0.1,0.3-0.1,0.6-0.2,0.8c0.4,0.1,0.8,0.1,1.2,0.2c-0.1,0.3-0.1,0.6-0.2,0.8
		c0.4,0.1,0.8,0.1,1.2,0.2c-0.1,0.3-0.1,0.6-0.2,0.8c0.4,0.1,0.8,0.1,1.2,0.2c-0.1,0.3-0.1,0.6-0.2,0.8c0.4,0.1,0.8,0.1,1.2,0.2
		c-0.1,0.3-0.1,0.6-0.2,0.8c0.4,0.1,0.8,0.1,1.2,0.2c-0.1,0.3-0.1,0.6-0.2,0.8c0.4,0.1,0.8,0.1,1.2,0.2c-0.1,0.3-0.1,0.6-0.2,0.8
		c0.4,0.1,0.8,0.1,1.2,0.2c-0.1,0.3-0.1,0.6-0.2,0.8c0.4,0.1,0.8,0.1,1.2,0.2c-0.1,0.3-0.1,0.6-0.2,0.8c0.4,0.1,0.8,0.1,1.2,0.2
		c-0.1,0.3-0.1,0.6-0.2,0.8c0.4,0.1,0.8,0.1,1.2,0.2c-0.1,0.3-0.1,0.6-0.2,0.8c0.4,0.1,0.8,0.1,1.2,0.2c-0.1,0.3-0.1,0.6-0.2,0.8
		c0.4,0.1,0.8,0.1,1.2,0.2c-0.1,0.3-0.1,0.6-0.2,0.8c0.4,0.1,0.8,0.1,1.2,0.2c-0.1,0.3-0.1,0.6-0.2,0.8c0.4,0.1,0.8,0.1,1.2,0.2
		c-0.1,0.3-0.1,0.6-0.2,0.8c0.4,0.1,0.8,0.1,1.2,0.2c-0.1,0.3-0.1,0.6-0.2,0.8c0.4,0.1,0.8,0.1,1.2,0.2c-0.1,0.3-0.1,0.6-0.2,0.8
		c0.4,0.1,0.8,0.1,1.2,0.2c-0.1,0.3-0.1,0.6-0.2,0.8c0.4,0.1,0.8,0.1,1.2,0.2c-0.1,0.3-0.1,0.6-0.2,0.8c0.4,0.1,0.8,0.1,1.2,0.2
		c-0.1,0.3-0.1,0.6-0.2,0.8c0.4,0.1,0.8,0.1,1.2,0.2c-0.1,0.3-0.1,0.6-0.2,0.8c0.4,0.1,0.8,0.1,1.2,0.2c-0.1,0.3-0.1,0.6-0.2,0.8
		c0.4,0.1,0.8,0.1,1.2,0.2c-0.1,0.3-0.1,0.6-0.2,0.8c0.4,0.1,0.8,0.1,1.2,0.2c-0.1,0.3-0.1,0.6-0.2,0.8c0.4,0.1,0.8,0.1,1.2,0.2
		c-0.1,0.3-0.1,0.6-0.2,0.8c0.4,0.1,0.8,0.1,1.2,0.2c-0.1,0.3-0.1,0.6-0.2,0.8c0.4,0.1,0.8,0.1,1.2,0.2c-0.1,0.3-0.1,0.6-0.2,0.8
		c0.4,0.1,0.8,0.1,1.2,0.2c-0.1,0.3-0.1,0.6-0.2,0.8c0.4,0.1,0.8,0.1,1.2,0.2c-0.1,0.3-0.1,0.6-0.2,0.8c0.4,0.1,0.8,0.1,1.2,0.2
		c-0.1,0.3-0.1,0.6-0.2,0.8c0.4,0.1,0.8,0.1,1.2,0.2c-0.1,0.3-0.1,0.6-0.2,0.8c0.4,0.1,0.8,0.1,1.2,0.2c-0.1,0.3-0.1,0.6-0.2,0.8
		c0.4,0.1,0.8,0.1,1.2,0.2c-0.1,0.3-0.1,0.6-0.2,0.8c0.4,0.1,0.8,0.1,1.2,0.2c-0.1,0.3-0.1,0.6-0.2,0.8c0.4,0.1,0.8,0.1,1.2,0.2
		c-0.1,0.3-0.1,0.6-0.2,0.8c0.4,0.1,0.8,0.1,1.2,0.2c-0.1,0.3-0.1,0.6-0.2,0.8c0.4,0.1,0.8,0.1,1.2,0.2c-0.1,0.3-0.1,0.6-0.2,0.8
		c0.4,0.1,0.8,0.1,1.2,0.2c-0.1,0.3-0.1,0.6-0.2,0.8c0.4,0.1,0.8,0.1,1.2,0.2c-0.1,0.3-0.1,0.6-0.2,0.8c0.4,0.1,0.8,0.1,1.2,0.2
		c-0.1,0.3-0.1,0.6-0.2,0.8c0.4,0.1,0.8,0.1,1.2,0.2c-0.1,0.3-0.1,0.6-0.2,0.8c0.4,0.1,0.8,0.1,1.2,0.2c-0.1,0.3-0.1,0.6-0.2,0.8
		c0.4,0.1,0.8,0.1,1.2,0.2c-0.1,0.3-0.1,0.6-0.2,0.8c0.4,0.1,0.8,0.1,1.2,0.2c-0.1,0.3-0.1,0.6-0.2,0.8c0.4,0.1,0.8,0.1,1.2,0.2
		c-0.1,0.3-0.1,0.6-0.2,0.8c0.4,0.1,0.8,0.1,1.2,0.2c-0.1,0.3-0.1,0.6-0.2,0.8c0.4,0.1,0.8,0.1,1.2,0.2c-0.1,0.3-0.1,0.6-0.2,0.8
		c0.4,0.1,0.8,0.1,1.2,0.2c-0.1,0.3-0.1,0.6-0.2,0.8c0.4,0.1,0.8,0.1,1.2,0.2c-0.1,0.3-0.1,0.6-0.2,0.8c0.4,0.1,0.8,0.1,1.2,0.2
		c-0.1,0.3-0.1,0.6-0.2,0.8c0.4,0.1,0.8,0.1,1.2,0.2c-0.1,0.3-0.1,0.6-0.2,0.8c0.4,0.1,0.8,0.1,1.2,0.2c-0.1,0.3-0.1,0.6-0.2,0.8
		c0.4,0.1,0.8,0.1,1.2,0.2c-0.1,0.3-0.1,0.6-0.2,0.8c0.4,0.1,0.8,0.1,1.2,0.2c-0.1,0.3-0.1,0.6-0.2,0.8c0.4,0.1,0.8,0.1,1.2,0.2
		c-0.1,0.3-0.1,0.6-0.2,0.8c0.4,0.1,0.8,0.1,1.2,0.2c-0.1,0.3-0.1,0.6-0.2,0.8c0.4,0.1,0.8,0.1,1.2,0.2c-0.1,0.3-0.1,0.6-0.2,0.8
		c0.4,0.1,0.8,0.1,1.2,0.2c-0.1,0.3-0.1,0.6-0.2,0.8c0.4,0.1,0.8,0.1,1.2,0.2c-0.1,0.3-0.1,0.6-0.2,0.8c0.4,0.1,0.8,0.1,1.2,0.2
		c-0.1,0.3-0.1,0.6-0.2,0.8c0.4,0.1,0.8,0.1,1.2,0.2c-0.1,0.3-0.1,0.6-0.2,0.8c0.4,0.1,0.8,0.1,1.2,0.2c-0.1,0.3-0.1,0.6-0.2,0.8
		c0.4,0.1,0.8,0.1,1.2,0.2c-0.1,0.3-0.1,0.6-0.2,0.8c0.4,0.1,0.8,0.1,1.2,0.2c-0.1,0.3-0.1,0.6-0.2,0.8c0.4,0.1,0.8,0.1,1.2,0.2
		c-0.1,0.3-0.1,0.6-0.2,0.8c0.4,0.1,0.8,0.1,1.2,0.2c-0.1,0.3-0.1,0.6-0.2,0.8c0.4,0.1,0.8,0.1,1.2,0.2c-0.1,0.3-0.1,0.6-0.2,0.8
		c0.4,0.1,0.8,0.1,1.2,0.2c-0.1,0.3-0.1,0.6-0.2,0.8c0.4,0.1,0.8,0.1,1.2,0.2c-0.1,0.3-0.1,0.6-0.2,0.8c0.4,0.1,0.8,0.1,1.2,0.2
		c-0.1,0.3-0.1,0.6-0.2,0.8c0.4,0.1,0.8,0.1,1.2,0.2c-0.1,0.3-0.1,0.6-0.2,0.8c0.4,0.1,0.8,0.1,1.2,0.2c-0.1,0.3-0.1,0.6-0.2,0.8
		c0.4,0.1,0.8,0.1,1.2,0.2c-0.1,0.3-0.1,0.6-0.2,0.8c0.4,0.1,0.8,0.1,1.2,0.2c-0.1,0.3-0.1,0.6-0.2,0.8c0.4,0.1,0.8,0.1,1.2,0.2
		c-0.1,0.3-0.1,0.6-0.2,0.8c0.4,0.1,0.8,0.1,1.2,0.2c-0.1,0.3-0.1,0.6-0.2,0.8c0.4,0.1,0.8,0.1,1.2,0.2c-0.1,0.3-0.1,0.6-0.2,0.8
		c0.4,0.1,0.8,0.1,1.2,0.2c-0.1,0.3-0.1,0.6-0.2,0.8c0.4,0.1,0.8,0.1,1.2,0.2c-0.1,0.3-0.1,0.6-0.2,0.8c0.4,0.1,0.8,0.1,1.2,0.2
		c-0.1,0.3-0.1,0.6-0.2,0.8c0.4,0.1,0.8,0.1,1.2,0.2c-0.1,0.3-0.1,0.6-0.2,0.8c0.4,0.1,0.8,0.1,1.2,0.2c-0.1,0.3-0.1,0.6-0.2,0.8
		c0.4,0.1,0.8,0.1,1.2,0.2c-0.1,0.3-0.1,0.6-0.2,0.8c0.4,0.1,0.8,0.1,1.2,0.2c-0.1,0.3-0.1,0.6-0.2,0.8c0.4,0.1,0.8,0.1,1.2,0.2
		c-0.1,0.3-0.1,0.6-0.2,0.8c0.4,0.1,0.8,0.1,1.2,0.2c-0.1,0.3-0.1,0.6-0.2,0.8c0.4,0.1,0.8,0.1,1.2,0.2c-0.1,0.3-0.1,0.6-0.2,0.8
		c0.4,0.1,0.8,0.1,1.2,0.2c-0.1,0.3-0.1,0.6-0.2,0.8c0.4,0.1,0.8,0.1,1.2,0.2c-0.1,0.3-0.1,0.6-0.2,0.8c0.4,0.1,0.8,0.1,1.2,0.2
		c-0.1,0.3-0.1,0.6-0.2,0.8c0.4,0.1,0.8,0.1,1.2,0.2c-0.1,0.3-0.1,0.6-0.2,0.8c0.4,0.1,0.8,0.1,1.2,0.2c-0.1,0.3-0.1,0.6-0.2,0.8
		c0.4,0.1,0.8,0.1,1.2,0.2c-0.1,0.3-0.1,0.6-0.2,0.8c0.4,0.1,0.8,0.1,1.2,0.2c-0.1,0.3-0.1,0.6-0.2,0.8c0.4,0.1,0.8,0.1,1.2,0.2
		c-0.1,0.3-0.1,0.6-0.2,0.8c0.4,0.1,0.8,0.1,1.2,0.2c-0.1,0.3-0.1,0.6-0.2,0.8c77.7,15.1,183.3,29.9,289,44.9l0,0l0,0h0.1V849
		c23.4-20.3,46.7-40.6,70-60.9c-0.3-7-0.5-13.9-0.8-20.8c2.5-67.1,5-134.1,7.4-201.2C808.6,565.9,808.8,565.7,809.1,565.5z"/>
</g>
<g>
	<g>
		<path class="st2" d="M547.4,487.7c-23.5,18.4-46.9,36.8-70.3,55.2c0-63.1,0-126.3,0-189.4c26-22.7,51.9-45.5,77.8-68.2
			C552.4,352.8,549.9,420.2,547.4,487.7z"/>
		<path class="st3" d="M478.3,569c-105.7-15-211.4-29.8-317.1-44.8c1.6-7.6,3.2-15.2,4.7-22.8c103.7,13.8,207.4,27.7,311.1,41.5
			C477.4,551.5,477.8,560.2,478.3,569z"/>
		<path class="st3" d="M548.2,508c-23.3,20.3-46.7,40.6-70.1,61c-0.4-8.5-0.7-17.2-1.1-25.7c23.5-18.8,46.9-37.7,70.3-56.5
			C547.7,493.8,547.9,500.9,548.2,508z"/>
		<path class="st4" d="M477.1,543.3C373.5,529.7,270,516,166.4,502.4c-0.9-62.2-1.9-124.3-2.9-186.4C268,328.6,372.6,341.3,477,354
			C477.1,417,477.1,480.2,477.1,543.3z"/>
		<path class="st3" d="M493.9,518c-5.3,3.1-10.6,6.2-15.8,9.3c0-50.1,0-100.1,0-150.1c4.6-1.9,9.4-3.8,14-5.7
			C492.6,420.4,493.2,469.2,493.9,518z"/>
		<path class="st3" d="M478,527.4c-5.9-1.5-11.9-3.1-17.8-4.5c0-50.1,0-100.2,0-150.3c5.9,1.6,11.9,3.2,17.8,4.7
			C478,427.3,478,477.4,478,527.4z"/>
		<g>
			<rect x="207.1" y="347.8" class="st3" width="12.2" height="141.8"/>
			<rect x="231.5" y="351.6" class="st3" width="12.2" height="141.8"/>
			<rect x="255.8" y="355.4" class="st3" width="12.2" height="141.8"/>
			<rect x="281.2" y="358.2" class="st3" width="12.2" height="141.8"/>
			<rect x="306.5" y="360.1" class="st3" width="12.2" height="141.8"/>
			<rect x="330.9" y="364.9" class="st3" width="12.2" height="141.8"/>
			<rect x="357.1" y="368.7" class="st3" width="12.2" height="141.8"/>
			<rect x="380.1" y="371.5" class="st3" width="12.2" height="141.8"/>
			<rect x="406.3" y="375.4" class="st3" width="12.2" height="141.8"/>
			<rect x="430.2" y="378.2" class="st3" width="12.2" height="141.8"/>
		</g>
		<path class="st5" d="M555.5,285.4c-106.2-14.8-212.5-29.7-318.7-44.5c-24.2,24.9-48.3,49.7-72.6,74.6
			c104.5,12.8,209.1,25.6,313.5,38.3C503.6,331.1,529.5,308.2,555.5,285.4z"/>
		<g>
			<ellipse class="st4" cx="347.2" cy="297.9" rx="85.6" ry="24.1"/>
			<rect x="261.5" y="255.1" class="st4" width="171.4" height="42.7"/>
			<ellipse class="st5" cx="347.2" cy="255.1" rx="85.6" ry="24.1"/>
			<g>
				<path class="st3" d="M355.7,261.8c11.6-1.3,16.4-5.3,10.7-8.5c1.7-0.2,3.3-0.4,5-0.6c4.5-0.5,9.1-0.8,13.8-0.9
					c4.3-0.1,8.6-0.1,12.8,0.2c6.6,0.6,10.9,1.9,13.6,3.7c3.2,2.1,3.2,4.4,0.6,6.5c-4.2,3.5-11.6,6.3-22.1,8.4
					c-6.4,1.3-13.5,1.9-21.2,1.9c-1.1,0-2.2,0-3.2-0.1c-3.3-0.1-5.1-0.7-5.9-1.7c-0.9-0.9-0.6-1.9-0.4-2.9c0.4-1.8,0-3.5-2.1-5.2
					C356.9,262.5,356.2,262.1,355.7,261.8z"/>
				<path class="st3" d="M362.4,251.8c-10.2-2.7-24.7-1.6-30.4,1.3c-1.9-0.5-3.6-0.9-5.4-1.4c-4.5-1.3-8.5-2.7-11.4-4.3
					c-5.9-3.3-2.2-6.4,6.1-8.5c4.5-1.1,9.7-1.8,15.3-2c12-0.6,23.5,0,34.2,1.7c7.4,1.1,13.3,2.8,17.1,5.1c1.7,1,1.2,1.9-1.5,2.7
					c-1.9,0.6-4.3,1-6.8,1.3c-4.9,0.6-9.3,1.5-13.3,2.6C364.7,250.5,363.1,251.1,362.4,251.8z"/>
				<path class="st3" d="M329.2,255.1c-2.3,3.7,7.4,7.1,20.3,7.1c-0.3,0.5-0.6,1-0.9,1.5c-1.2,1.8-2.9,3.4-5.7,5
					c-2.3,1.3-5.2,2.4-9.5,3.2c-4.9,0.8-10.3,1-15.9,0.6c-8.4-0.5-14.7-1.9-19.5-4c-5.6-2.3-9.1-4.8-10.3-7.7
					c-1.3-3,0.3-5.8,5.8-8.3c1.8-0.8,4.3-1.2,7.4-1c1.6,0.1,3.2,0.3,4.5,0.5c2.5,0.5,4.9,0.9,7.4,1.4c4.5,0.8,9.3,1.5,14.7,1.7
					C328.1,255.1,328.7,255.1,329.2,255.1z"/>
				<path class="st3" d="M364.6,256.2c-0.1,2.7-7.4,4.7-16.2,4.7c-8.7,0-16-2.2-16-4.7c0-2.7,7.3-4.9,16.6-4.8
					C357.5,251.4,364.6,253.5,364.6,256.2z M348.6,254.1c-3.5,0-6.4,0.8-6.6,1.9c-0.1,1,2.8,1.9,6.3,1.9c3.4,0,6.5-0.8,6.6-1.9
					C354.9,255.1,352.3,254.1,348.6,254.1z"/>
				<path class="st3" d="M348.6,254.1c3.6,0,6.3,0.9,6.3,1.9c-0.1,1-3.1,1.9-6.6,1.9s-6.4-0.9-6.3-1.9
					C342.2,255.1,345.1,254.1,348.6,254.1z"/>
			</g>
		</g>
		<path class="st6" d="M264.2,304"/>
	</g>
	<g id="Layer_3">
		<path class="st3" d="M617.3,399.3c-38.3-3.7-76.6-7.5-114.9-11.2c-0.3-7.1-0.6-14.4-0.9-21.5c44.6,5.7,89.4,11.2,134,16.9
			C629.4,388.7,623.4,394,617.3,399.3z"/>
		<path class="st3" d="M637.3,521.2c-5.5,0.6-10.9,1.1-16.5,1.7c-1.1-41.2-2.1-82.3-3.2-123.5c5.9-5.3,11.9-10.7,17.8-16
			C636.1,429.3,636.7,475.3,637.3,521.2z"/>
		<ellipse class="st3" cx="627.6" cy="454.9" rx="13.6" ry="7.2"/>
	</g>
</g>
</svg>
